999
dxfrw 0.6.3
  0
SECTION
  2
HEADER
  9
$ACADVER
  1
AC1021
  9
$DWGCODEPAGE
  3
ANSI_1252
  9
$INSBASE
 10
0
 20
0
 30
0
  9
$EXTMIN
 10
-70
 20
-61.66666666666666
 30
0
  9
$EXTMAX
 10
262.6388981146249
 20
226.5
 30
0
  9
$LIMMIN
 10
0
 20
0
  9
$LIMMAX
 10
420
 20
297
  9
$ORTHOMODE
 70
    0
  9
$REGENMODE
 70
    1
  9
$FILLMODE
 70
    1
  9
$QTEXTMODE
 70
    0
  9
$MIRRTEXT
 70
    1
  9
$LTSCALE
 40
1
  9
$ATTMODE
 70
    1
  9
$TEXTSIZE
 40
2.5
  9
$TRACEWID
 40
1
  9
$TEXTSTYLE
  7
Standard
  9
$CLAYER
  8
0
  9
$CELTYPE
  6
ByLayer
  9
$CECOLOR
 62
  256
  9
$CELTSCALE
 40
1
  9
$DISPSILH
 70
    0
  9
$DIMSCALE
 40
1
  9
$DIMASZ
 40
2.5
  9
$DIMEXO
 40
0.625
  9
$DIMDLI
 40
3.75
  9
$DIMRND
 40
0
  9
$DIMDLE
 40
0
  9
$DIMEXE
 40
1.25
  9
$DIMTP
 40
0
  9
$DIMTM
 40
0
  9
$DIMTXT
 40
2.5
  9
$DIMCEN
 40
2.5
  9
$DIMTSZ
 40
0
  9
$DIMTOL
 70
    0
  9
$DIMLIM
 70
    0
  9
$DIMTIH
 70
    0
  9
$DIMTOH
 70
    0
  9
$DIMSE1
 70
    0
  9
$DIMSE2
 70
    0
  9
$DIMTAD
 70
    1
  9
$DIMZIN
 70
    8
  9
$DIMBLK
  1

  9
$DIMASO
 70
    1
  9
$DIMSHO
 70
    1
  9
$DIMPOST
  1

  9
$DIMAPOST
  1

  9
$DIMALT
 70
    0
  9
$DIMALTD
 70
    3
  9
$DIMALTF
 40
0.03937007874
  9
$DIMLFAC
 40
1
  9
$DIMTOFL
 70
    1
  9
$DIMTVP
 40
0
  9
$DIMTIX
 70
    0
  9
$DIMSOXD
 70
    0
  9
$DIMSAH
 70
    0
  9
$DIMBLK1
  1

  9
$DIMBLK2
  1

  9
$DIMSTYLE
  2
ISO-25
  9
$DIMCLRD
 70
    0
  9
$DIMCLRE
 70
    0
  9
$DIMCLRT
 70
    0
  9
$DIMTFAC
 40
1
  9
$DIMGAP
 40
0.625
  9
$DIMJUST
 70
    0
  9
$DIMSD1
 70
    0
  9
$DIMSD2
 70
    0
  9
$DIMTOLJ
 70
    0
  9
$DIMTZIN
 70
    8
  9
$DIMALTZ
 70
    0
  9
$DIMALTTZ
 70
    0
  9
$DIMUPT
 70
    0
  9
$DIMDEC
 70
    2
  9
$DIMTDEC
 70
    2
  9
$DIMALTU
 70
    2
  9
$DIMALTTD
 70
    3
  9
$DIMTXSTY
  7
Standard
  9
$DIMAUNIT
 70
    0
  9
$DIMADEC
 70
    0
  9
$DIMALTRND
 40
0
  9
$DIMAZIN
 70
    0
  9
$DIMDSEP
 70
   44
  9
$DIMATFIT
 70
    3
  9
$DIMFRAC
 70
    0
  9
$DIMLDRBLK
  1

  9
$DIMLUNIT
 70
    2
  9
$DIMLWD
 70
   -2
  9
$DIMLWE
 70
   -2
  9
$DIMTMOVE
 70
    0
  9
$DIMFXL
 40
1
  9
$DIMFXLON
 70
    0
  9
$DIMJOGANG
 40
0.7854
  9
$DIMTFILL
 70
    0
  9
$DIMTFILLCLR
 70
    0
  9
$DIMARCSYM
 70
    0
  9
$DIMLTYPE
  6

  9
$DIMLTEX1
  6

  9
$DIMLTEX2
  6

  9
$LUNITS
 70
    2
  9
$LUPREC
 70
    4
  9
$SKETCHINC
 40
1
  9
$FILLETRAD
 40
10
  9
$AUNITS
 70
    0
  9
$AUPREC
 70
    2
  9
$MENU
  1
.
  9
$ELEVATION
 40
0
  9
$PELEVATION
 40
0
  9
$THICKNESS
 40
0
  9
$LIMCHECK
 70
    0
  9
$CHAMFERA
 40
0
  9
$CHAMFERB
 40
0
  9
$CHAMFERC
 40
0
  9
$CHAMFERD
 40
0
  9
$SKPOLY
 70
    0
  9
$USRTIMER
 70
    1
  9
$ANGBASE
 50
0
  9
$ANGDIR
 70
    0
  9
$PDMODE
 70
    0
  9
$PDSIZE
 40
0
  9
$PLINEWID
 40
0
  9
$SPLFRAME
 70
    0
  9
$SPLINETYPE
 70
    6
  9
$SPLINESEGS
 70
    8
  9
$HANDSEED
  5
20000
  9
$SURFTAB1
 70
    6
  9
$SURFTAB2
 70
    6
  9
$SURFTYPE
 70
    6
  9
$SURFU
 70
    6
  9
$SURFV
 70
    6
  9
$UCSBASE
  2

  9
$UCSNAME
  2

  9
$UCSORG
 10
0
 20
0
 30
0
  9
$UCSXDIR
 10
1
 20
0
 30
0
  9
$UCSYDIR
 10
0
 20
1
 30
0
  9
$UCSORTHOREF
  2

  9
$UCSORTHOVIEW
 70
    0
  9
$UCSORGTOP
 10
0
 20
0
 30
0
  9
$UCSORGBOTTOM
 10
0
 20
0
 30
0
  9
$UCSORGLEFT
 10
0
 20
0
 30
0
  9
$UCSORGRIGHT
 10
0
 20
0
 30
0
  9
$UCSORGFRONT
 10
0
 20
0
 30
0
  9
$UCSORGBACK
 10
0
 20
0
 30
0
  9
$PUCSBASE
  2

  9
$PUCSNAME
  2

  9
$PUCSORG
 10
0
 20
0
 30
0
  9
$PUCSXDIR
 10
1
 20
0
 30
0
  9
$PUCSYDIR
 10
0
 20
1
 30
0
  9
$PUCSORTHOREF
  2

  9
$PUCSORTHOVIEW
 70
    0
  9
$PUCSORGTOP
 10
0
 20
0
 30
0
  9
$PUCSORGBOTTOM
 10
0
 20
0
 30
0
  9
$PUCSORGLEFT
 10
0
 20
0
 30
0
  9
$PUCSORGRIGHT
 10
0
 20
0
 30
0
  9
$PUCSORGFRONT
 10
0
 20
0
 30
0
  9
$PUCSORGBACK
 10
0
 20
0
 30
0
  9
$USERI1
 70
    0
  9
$USERI2
 70
    0
  9
$USERI3
 70
    0
  9
$USERI4
 70
    0
  9
$USERI5
 70
    0
  9
$USERR1
 40
0
  9
$USERR2
 40
0
  9
$USERR3
 40
0
  9
$USERR4
 40
0
  9
$USERR5
 40
0
  9
$WORLDVIEW
 70
    1
  9
$SHADEDGE
 70
    3
  9
$SHADEDIF
 70
   70
  9
$TILEMODE
 70
    1
  9
$MAXACTVP
 70
   64
  9
$PINSBASE
 10
0
 20
0
 30
0
  9
$PLIMCHECK
 70
    0
  9
$PEXTMIN
 10
1e+20
 20
1e+20
 30
1e+20
  9
$PEXTMAX
 10
-1e+20
 20
-1e+20
 30
-1e+20
  9
$GRIDMODE
 70
    0
  9
$SNAPSTYLE
 70
    0
  9
$PLIMMIN
 10
0
 20
0
  9
$PLIMMAX
 10
420
 20
297
  9
$UNITMODE
 70
    0
  9
$VISRETAIN
 70
    1
  9
$PLINEGEN
 70
    0
  9
$PSLTSCALE
 70
    1
  9
$TREEDEPTH
 70
 3020
  9
$CMLSTYLE
  2
Standard
  9
$CMLJUST
 70
    0
  9
$CMLSCALE
 40
20
  9
$PROXYGRAPHICS
 70
    1
  9
$MEASUREMENT
 70
    1
  9
$CELWEIGHT
370
   -1
  9
$ENDCAPS
280
    0
  9
$JOINSTYLE
280
    0
  9
$LWDISPLAY
290
    0
  9
$INSUNITS
 70
    4
  9
$HYPERLINKBASE
  1

  9
$STYLESHEET
  1

  9
$XEDIT
290
    1
  9
$CEPSNTYPE
380
    0
  9
$PSTYLEMODE
290
    1
  9
$EXTNAMES
290
    1
  9
$PSVPSCALE
 40
0
  9
$OLESTARTUP
290
    0
  9
$SORTENTS
280
  127
  9
$INDEXCTL
280
    0
  9
$HIDETEXT
280
    1
  9
$XCLIPFRAME
290
    0
  9
$HALOGAP
280
    0
  9
$OBSCOLOR
 70
  257
  9
$OBSLTYPE
280
    0
  9
$INTERSECTIONDISPLAY
280
    0
  9
$INTERSECTIONCOLOR
 70
  257
  9
$DIMASSOC
280
    1
  9
$PROJECTNAME
  1

  9
$CAMERADISPLAY
290
    0
  9
$LENSLENGTH
 40
50
  9
$CAMERAHEIGHT
 40
0
  9
$STEPSPERSEC
 40
2
  9
$STEPSIZE
 40
50
  9
$3DDWFPREC
 40
2
  9
$PSOLWIDTH
 40
5
  9
$PSOLHEIGHT
 40
80
  9
$LOFTANG1
 40
1.570796326794897
  9
$LOFTANG2
 40
1.570796326794897
  9
$LOFTMAG1
 40
0
  9
$LOFTMAG2
 40
0
  9
$LOFTPARAM
 70
    7
  9
$LOFTNORMALS
280
    1
  9
$LATITUDE
 40
1
  9
$LONGITUDE
 40
1
  9
$NORTHDIRECTION
 40
0
  9
$TIMEZONE
 70
-8000
  9
$LIGHTGLYPHDISPLAY
280
    1
  9
$TILEMODELIGHTSYNCH
280
    1
  9
$SOLIDHIST
280
    1
  9
$SHOWHIST
280
    1
  9
$DWFFRAME
280
    2
  9
$DGNFRAME
280
    0
  9
$REALWORLDSCALE
290
    1
  9
$INTERFERECOLOR
 62
    1
  9
$CSHADOW
280
    0
  9
$SHADOWPLANELOCATION
 40
0
  0
ENDSEC
  0
SECTION
  2
CLASSES
  0
ENDSEC
  0
SECTION
  2
TABLES
  0
TABLE
  2
VPORT
  5
8
330
0
100
AcDbSymbolTable
 70
    1
  0
VPORT
  5
31
330
2
100
AcDbSymbolTableRecord
100
AcDbViewportTableRecord
  2
*ACTIVE
 70
    0
 10
0
 20
0
 11
1
 21
1
 12
172.7916666666667
 22
115.1944444444444
 13
0
 23
0
 14
10
 24
10
 15
10
 25
10
 16
0
 26
0
 36
1
 17
0
 27
0
 37
0
 40
295.3888888888889
 41
1.685819070904645
 42
50
 43
0
 44
0
 50
0
 51
0
 71
    0
 72
  100
 73
    1
 74
    3
 75
    0
 76
    0
 77
    0
 78
    0
281
    0
 65
    1
110
0
120
0
130
0
111
1
121
0
131
0
112
0
122
1
132
0
 79
    0
146
0
348
10020
 60
    7
 61
    5
292
1
282
    1
141
0
142
0
 63
  250
421
3358443
  0
ENDTAB
  0
TABLE
  2
LTYPE
  5
5
330
0
100
AcDbSymbolTable
 70
    4
  0
LTYPE
  5
14
330
5
100
AcDbSymbolTableRecord
100
AcDbLinetypeTableRecord
  2
ByBlock
 70
    0
  3

 72
   65
 73
    0
 40
0
  0
LTYPE
  5
15
330
5
100
AcDbSymbolTableRecord
100
AcDbLinetypeTableRecord
  2
ByLayer
 70
    0
  3

 72
   65
 73
    0
 40
0
  0
LTYPE
  5
16
330
5
100
AcDbSymbolTableRecord
100
AcDbLinetypeTableRecord
  2
Continuous
 70
    0
  3
Solid line
 72
   65
 73
    0
 40
0
  0
LTYPE
  5
32
330
5
100
AcDbSymbolTableRecord
100
AcDbLinetypeTableRecord
  2
DOT
 70
    0
  3
Dot . . . . . . . . . . . . . . . . . . . . . .
 72
   65
 73
    2
 40
6.35
 49
0
 74
    0
 49
-6.35
 74
    0
  0
LTYPE
  5
33
330
5
100
AcDbSymbolTableRecord
100
AcDbLinetypeTableRecord
  2
DOTTINY
 70
    0
  3
Dot (.15x) .....................................
 72
   65
 73
    2
 40
0.9525
 49
0
 74
    0
 49
-0.9525
 74
    0
  0
LTYPE
  5
34
330
5
100
AcDbSymbolTableRecord
100
AcDbLinetypeTableRecord
  2
DOT2
 70
    0
  3
Dot (.5x) .....................................
 72
   65
 73
    2
 40
3.175
 49
0
 74
    0
 49
-3.175
 74
    0
  0
LTYPE
  5
35
330
5
100
AcDbSymbolTableRecord
100
AcDbLinetypeTableRecord
  2
DOTX2
 70
    0
  3
Dot (2x) .  .  .  .  .  .  .  .  .  .  .  .  .
 72
   65
 73
    2
 40
12.7
 49
0
 74
    0
 49
-12.7
 74
    0
  0
LTYPE
  5
36
330
5
100
AcDbSymbolTableRecord
100
AcDbLinetypeTableRecord
  2
DASHED
 70
    0
  3
Dashed _ _ _ _ _ _ _ _ _ _ _ _ _ _ _ _ _
 72
   65
 73
    2
 40
19.05
 49
12.7
 74
    0
 49
-6.35
 74
    0
  0
LTYPE
  5
37
330
5
100
AcDbSymbolTableRecord
100
AcDbLinetypeTableRecord
  2
DASHEDTINY
 70
    0
  3
Dashed (.15x) _ _ _ _ _ _ _ _ _ _ _ _ _ _ _ _ _
 72
   65
 73
    2
 40
2.8575
 49
1.905
 74
    0
 49
-0.9525
 74
    0
  0
LTYPE
  5
38
330
5
100
AcDbSymbolTableRecord
100
AcDbLinetypeTableRecord
  2
DASHED2
 70
    0
  3
Dashed (.5x) _ _ _ _ _ _ _ _ _ _ _ _ _ _ _ _ _
 72
   65
 73
    2
 40
9.524999999999999
 49
6.35
 74
    0
 49
-3.175
 74
    0
  0
LTYPE
  5
39
330
5
100
AcDbSymbolTableRecord
100
AcDbLinetypeTableRecord
  2
DASHEDX2
 70
    0
  3
Dashed (2x) ____  ____  ____  ____  ____  ___
 72
   65
 73
    2
 40
38.09999999999999
 49
25.4
 74
    0
 49
-12.7
 74
    0
  0
LTYPE
  5
3A
330
5
100
AcDbSymbolTableRecord
100
AcDbLinetypeTableRecord
  2
DASHDOT
 70
    0
  3
Dash dot __ . __ . __ . __ . __ . __ . __ . __
 72
   65
 73
    4
 40
25.4
 49
12.7
 74
    0
 49
-6.35
 74
    0
 49
0
 74
    0
 49
-6.35
 74
    0
  0
LTYPE
  5
3B
330
5
100
AcDbSymbolTableRecord
100
AcDbLinetypeTableRecord
  2
DASHDOTTINY
 70
    0
  3
Dash dot (.15x) _._._._._._._._._._._._._._._.
 72
   65
 73
    4
 40
3.81
 49
1.905
 74
    0
 49
-0.9525
 74
    0
 49
0
 74
    0
 49
-0.9525
 74
    0
  0
LTYPE
  5
3C
330
5
100
AcDbSymbolTableRecord
100
AcDbLinetypeTableRecord
  2
DASHDOT2
 70
    0
  3
Dash dot (.5x) _._._._._._._._._._._._._._._.
 72
   65
 73
    4
 40
12.7
 49
6.35
 74
    0
 49
-3.175
 74
    0
 49
0
 74
    0
 49
-3.175
 74
    0
  0
LTYPE
  5
3D
330
5
100
AcDbSymbolTableRecord
100
AcDbLinetypeTableRecord
  2
DASHDOTX2
 70
    0
  3
Dash dot (2x) ____  .  ____  .  ____  .  ___
 72
   65
 73
    4
 40
50.8
 49
25.4
 74
    0
 49
-12.7
 74
    0
 49
0
 74
    0
 49
-12.7
 74
    0
  0
LTYPE
  5
3E
330
5
100
AcDbSymbolTableRecord
100
AcDbLinetypeTableRecord
  2
DIVIDE
 70
    0
  3
Divide ____ . . ____ . . ____ . . ____ . . ____
 72
   65
 73
    6
 40
31.75
 49
12.7
 74
    0
 49
-6.35
 74
    0
 49
0
 74
    0
 49
-6.35
 74
    0
 49
0
 74
    0
 49
-6.35
 74
    0
  0
LTYPE
  5
3F
330
5
100
AcDbSymbolTableRecord
100
AcDbLinetypeTableRecord
  2
DIVIDETINY
 70
    0
  3
Divide (.15x) __..__..__..__..__..__..__..__.._
 72
   65
 73
    6
 40
4.7625
 49
1.905
 74
    0
 49
-0.9525
 74
    0
 49
0
 74
    0
 49
-0.9525
 74
    0
 49
0
 74
    0
 49
-0.9525
 74
    0
  0
LTYPE
  5
40
330
5
100
AcDbSymbolTableRecord
100
AcDbLinetypeTableRecord
  2
DIVIDE2
 70
    0
  3
Divide (.5x) __..__..__..__..__..__..__..__.._
 72
   65
 73
    6
 40
15.875
 49
6.35
 74
    0
 49
-3.175
 74
    0
 49
0
 74
    0
 49
-3.175
 74
    0
 49
0
 74
    0
 49
-3.175
 74
    0
  0
LTYPE
  5
41
330
5
100
AcDbSymbolTableRecord
100
AcDbLinetypeTableRecord
  2
DIVIDEX2
 70
    0
  3
Divide (2x) ________  .  .  ________  .  .  _
 72
   65
 73
    6
 40
63.5
 49
25.4
 74
    0
 49
-12.7
 74
    0
 49
0
 74
    0
 49
-12.7
 74
    0
 49
0
 74
    0
 49
-12.7
 74
    0
  0
LTYPE
  5
42
330
5
100
AcDbSymbolTableRecord
100
AcDbLinetypeTableRecord
  2
BORDER
 70
    0
  3
Border __ __ . __ __ . __ __ . __ __ . __ __ .
 72
   65
 73
    6
 40
44.45
 49
12.7
 74
    0
 49
-6.35
 74
    0
 49
12.7
 74
    0
 49
-6.35
 74
    0
 49
0
 74
    0
 49
-6.35
 74
    0
  0
LTYPE
  5
43
330
5
100
AcDbSymbolTableRecord
100
AcDbLinetypeTableRecord
  2
BORDERTINY
 70
    0
  3
Border (.15x) __.__.__.__.__.__.__.__.__.__.__.
 72
   65
 73
    6
 40
6.6675
 49
1.905
 74
    0
 49
-0.9525
 74
    0
 49
1.905
 74
    0
 49
-0.9525
 74
    0
 49
0
 74
    0
 49
-0.9525
 74
    0
  0
LTYPE
  5
44
330
5
100
AcDbSymbolTableRecord
100
AcDbLinetypeTableRecord
  2
BORDER2
 70
    0
  3
Border (.5x) __.__.__.__.__.__.__.__.__.__.__.
 72
   65
 73
    6
 40
22.225
 49
6.35
 74
    0
 49
-3.175
 74
    0
 49
6.35
 74
    0
 49
-3.175
 74
    0
 49
0
 74
    0
 49
-3.175
 74
    0
  0
LTYPE
  5
45
330
5
100
AcDbSymbolTableRecord
100
AcDbLinetypeTableRecord
  2
BORDERX2
 70
    0
  3
Border (2x) ____  ____  .  ____  ____  .  ___
 72
   65
 73
    6
 40
88.89999999999999
 49
25.4
 74
    0
 49
-12.7
 74
    0
 49
25.4
 74
    0
 49
-12.7
 74
    0
 49
0
 74
    0
 49
-12.7
 74
    0
  0
LTYPE
  5
46
330
5
100
AcDbSymbolTableRecord
100
AcDbLinetypeTableRecord
  2
CENTER
 70
    0
  3
Center ____ _ ____ _ ____ _ ____ _ ____ _ ____
 72
   65
 73
    4
 40
50.8
 49
31.75
 74
    0
 49
-6.35
 74
    0
 49
6.35
 74
    0
 49
-6.35
 74
    0
  0
LTYPE
  5
47
330
5
100
AcDbSymbolTableRecord
100
AcDbLinetypeTableRecord
  2
CENTERTINY
 70
    0
  3
Center (.15x) ___ _ ___ _ ___ _ ___ _ ___ _ ___
 72
   65
 73
    4
 40
7.619999999999999
 49
4.7625
 74
    0
 49
-0.9525
 74
    0
 49
0.9525
 74
    0
 49
-0.9525
 74
    0
  0
LTYPE
  5
48
330
5
100
AcDbSymbolTableRecord
100
AcDbLinetypeTableRecord
  2
CENTER2
 70
    0
  3
Center (.5x) ___ _ ___ _ ___ _ ___ _ ___ _ ___
 72
   65
 73
    4
 40
28.575
 49
19.05
 74
    0
 49
-3.175
 74
    0
 49
3.175
 74
    0
 49
-3.175
 74
    0
  0
LTYPE
  5
49
330
5
100
AcDbSymbolTableRecord
100
AcDbLinetypeTableRecord
  2
CENTERX2
 70
    0
  3
Center (2x) ________  __  ________  __  _____
 72
   65
 73
    4
 40
101.6
 49
63.5
 74
    0
 49
-12.7
 74
    0
 49
12.7
 74
    0
 49
-12.7
 74
    0
  0
ENDTAB
  0
TABLE
  2
LAYER
  5
2
330
0
100
AcDbSymbolTable
 70
    1
  0
LAYER
  5
10
330
2
100
AcDbSymbolTableRecord
100
AcDbLayerTableRecord
  2
0
 70
    0
 62
    7
  6
CONTINUOUS
370
   -3
390
F
  0
LAYER
  5
4A
330
2
100
AcDbSymbolTableRecord
100
AcDbLayerTableRecord
  2
ANNOTATION
 70
    0
 62
    6
  6
CONTINUOUS
370
   -3
390
F
  0
LAYER
  5
4B
330
2
100
AcDbSymbolTableRecord
100
AcDbLayerTableRecord
  2
CUT
 70
    0
 62
    1
  6
CONTINUOUS
370
   -3
390
F
  0
LAYER
  5
4C
330
2
100
AcDbSymbolTableRecord
100
AcDbLayerTableRecord
  2
DIMENSION
 70
    0
 62
    3
  6
CONTINUOUS
370
   -3
390
F
  0
LAYER
  5
4D
330
2
100
AcDbSymbolTableRecord
100
AcDbLayerTableRecord
  2
DRILL
 70
    0
 62
    5
  6
CONTINUOUS
370
   -3
390
F
  0
LAYER
  5
4E
330
2
100
AcDbSymbolTableRecord
100
AcDbLayerTableRecord
  2
Defpoints
 70
    0
 62
    7
  6
CONTINUOUS
290
0
370
   -3
390
F
  0
ENDTAB
  0
TABLE
  2
STYLE
  5
3
330
0
100
AcDbSymbolTable
 70
    3
  0
STYLE
  5
4F
330
2
100
AcDbSymbolTableRecord
100
AcDbTextStyleTableRecord
  2
STANDARD
 70
    0
 40
0
 41
1
 50
0
 71
    0
 42
1
  3
STANDARD
  4

  0
ENDTAB
  0
TABLE
  2
VIEW
  5
6
330
0
100
AcDbSymbolTable
 70
    0
  0
ENDTAB
  0
TABLE
  2
UCS
  5
7
330
0
100
AcDbSymbolTable
 70
    0
  0
ENDTAB
  0
TABLE
  2
APPID
  5
9
330
0
100
AcDbSymbolTable
 70
    1
  0
APPID
  5
12
330
9
100
AcDbSymbolTableRecord
100
AcDbRegAppTableRecord
  2
ACAD
 70
    0
  0
APPID
  5
50
330
9
100
AcDbSymbolTableRecord
100
AcDbRegAppTableRecord
  2
LibreCad
 70
    0
  0
ENDTAB
  0
TABLE
  2
DIMSTYLE
  5
A
330
0
100
AcDbSymbolTable
 70
    1
100
AcDbDimStyleTable
 71
    1
  0
DIMSTYLE
105
51
330
A
100
AcDbSymbolTableRecord
100
AcDbDimStyleTableRecord
  2
Standard
 70
    0
 40
1
 41
2.5
 42
0.625
 43
0.38
 44
1.25
 45
0
 46
0
 47
0
 48
0
 49
1
140
2.5
141
0.09
142
0
143
25.4
144
1
145
0
146
1
147
0.625
148
0
 71
    0
 72
    0
 73
    0
 74
    1
 75
    0
 76
    0
 77
    0
 78
    8
 79
    0
170
    0
171
    2
172
    0
173
    0
174
    0
175
    0
176
    0
177
    0
178
    0
179
    0
271
    2
272
    4
273
    2
274
    2
275
    0
276
    0
277
    2
278
   44
279
    0
280
    0
281
    0
282
    0
283
    1
284
    0
285
    0
286
    0
288
    0
289
    3
340
4F
  0
ENDTAB
  0
TABLE
  2
BLOCK_RECORD
  5
1
330
0
100
AcDbSymbolTable
 70
    2
  0
BLOCK_RECORD
  5
1F
330
1
100
AcDbSymbolTableRecord
100
AcDbBlockTableRecord
  2
*Model_Space
 70
    0
280
    1
281
    0
  0
BLOCK_RECORD
  5
1E
330
1
100
AcDbSymbolTableRecord
100
AcDbBlockTableRecord
  2
*Paper_Space
 70
    0
280
    1
281
    0
  0
BLOCK_RECORD
  5
52
330
1
100
AcDbSymbolTableRecord
100
AcDbBlockTableRecord
  2
*D16
 70
    0
280
    1
281
    0
  0
BLOCK_RECORD
  5
55
330
1
100
AcDbSymbolTableRecord
100
AcDbBlockTableRecord
  2
*D3
 70
    0
280
    1
281
    0
  0
BLOCK_RECORD
  5
58
330
1
100
AcDbSymbolTableRecord
100
AcDbBlockTableRecord
  2
*D19
 70
    0
280
    1
281
    0
  0
BLOCK_RECORD
  5
5B
330
1
100
AcDbSymbolTableRecord
100
AcDbBlockTableRecord
  2
*D22
 70
    0
280
    1
281
    0
  0
BLOCK_RECORD
  5
5E
330
1
100
AcDbSymbolTableRecord
100
AcDbBlockTableRecord
  2
*D11
 70
    0
280
    1
281
    0
  0
BLOCK_RECORD
  5
61
330
1
100
AcDbSymbolTableRecord
100
AcDbBlockTableRecord
  2
*D9
 70
    0
280
    1
281
    0
  0
BLOCK_RECORD
  5
64
330
1
100
AcDbSymbolTableRecord
100
AcDbBlockTableRecord
  2
*D13
 70
    0
280
    1
281
    0
  0
BLOCK_RECORD
  5
67
330
1
100
AcDbSymbolTableRecord
100
AcDbBlockTableRecord
  2
*D1
 70
    0
280
    1
281
    0
  0
BLOCK_RECORD
  5
6A
330
1
100
AcDbSymbolTableRecord
100
AcDbBlockTableRecord
  2
*D10
 70
    0
280
    1
281
    0
  0
BLOCK_RECORD
  5
6D
330
1
100
AcDbSymbolTableRecord
100
AcDbBlockTableRecord
  2
*D12
 70
    0
280
    1
281
    0
  0
BLOCK_RECORD
  5
70
330
1
100
AcDbSymbolTableRecord
100
AcDbBlockTableRecord
  2
*D2
 70
    0
280
    1
281
    0
  0
BLOCK_RECORD
  5
73
330
1
100
AcDbSymbolTableRecord
100
AcDbBlockTableRecord
  2
*D4
 70
    0
280
    1
281
    0
  0
BLOCK_RECORD
  5
76
330
1
100
AcDbSymbolTableRecord
100
AcDbBlockTableRecord
  2
*D5
 70
    0
280
    1
281
    0
  0
BLOCK_RECORD
  5
79
330
1
100
AcDbSymbolTableRecord
100
AcDbBlockTableRecord
  2
*D17
 70
    0
280
    1
281
    0
  0
BLOCK_RECORD
  5
7C
330
1
100
AcDbSymbolTableRecord
100
AcDbBlockTableRecord
  2
*D14
 70
    0
280
    1
281
    0
  0
BLOCK_RECORD
  5
7F
330
1
100
AcDbSymbolTableRecord
100
AcDbBlockTableRecord
  2
*D15
 70
    0
280
    1
281
    0
  0
BLOCK_RECORD
  5
82
330
1
100
AcDbSymbolTableRecord
100
AcDbBlockTableRecord
  2
*D7
 70
    0
280
    1
281
    0
  0
BLOCK_RECORD
  5
85
330
1
100
AcDbSymbolTableRecord
100
AcDbBlockTableRecord
  2
*D8
 70
    0
280
    1
281
    0
  0
BLOCK_RECORD
  5
88
330
1
100
AcDbSymbolTableRecord
100
AcDbBlockTableRecord
  2
*D21
 70
    0
280
    1
281
    0
  0
BLOCK_RECORD
  5
8B
330
1
100
AcDbSymbolTableRecord
100
AcDbBlockTableRecord
  2
*D20
 70
    0
280
    1
281
    0
  0
BLOCK_RECORD
  5
8E
330
1
100
AcDbSymbolTableRecord
100
AcDbBlockTableRecord
  2
*D6
 70
    0
280
    1
281
    0
  0
BLOCK_RECORD
  5
91
330
1
100
AcDbSymbolTableRecord
100
AcDbBlockTableRecord
  2
*D18
 70
    0
280
    1
281
    0
  0
BLOCK_RECORD
  5
94
330
1
100
AcDbSymbolTableRecord
100
AcDbBlockTableRecord
  2
_CLOSEDFILLED
 70
    0
280
    1
281
    0
  0
ENDTAB
  0
ENDSEC
  0
SECTION
  2
BLOCKS
  0
BLOCK
  5
20
330
1F
100
AcDbEntity
  8
0
100
AcDbBlockBegin
  2
*Model_Space
 70
    0
 10
0
 20
0
 30
0
  3
*Model_Space
  1

  0
ENDBLK
  5
21
330
1F
100
AcDbEntity
  8
0
100
AcDbBlockEnd
  0
BLOCK
  5
1C
330
1B
100
AcDbEntity
  8
0
100
AcDbBlockBegin
  2
*Paper_Space
 70
    0
 10
0
 20
0
 30
0
  3
*Paper_Space
  1

  0
ENDBLK
  5
1D
330
1F
100
AcDbEntity
  8
0
100
AcDbBlockEnd
  0
BLOCK
  5
53
330
52
100
AcDbEntity
  8
0
100
AcDbBlockBegin
  2
*D16
 70
    1
 10
0
 20
0
  3
*D16
  1

  0
LINE
  5
97
100
AcDbEntity
  8
DIMENSION
  6
ByBlock
 62
    0
370
   -2
100
AcDbLine
 10
-60
 20
0
 11
-70
 21
0
  0
MTEXT
  5
98
100
AcDbEntity
  8
DIMENSION
  6
CONTINUOUS
 62
    0
370
   -2
100
AcDbMText
 10
-64.94444444444444
 20
6.888638245203862e-17
 30
0
 40
2.5
 41
1.111111111111111
 71
    5
 72
    1
  1
0
  7
Standard
210
0
220
0
230
1
 50
0
 73
    2
 44
1
  0
SOLID
  5
99
100
AcDbEntity
  8
DIMENSION
  6
ByBlock
 62
    0
370
   -2
100
AcDbTrace
 10
-65
 20
0
 30
0
 11
-67.5
 21
-0.4162846577728404
 31
0
 12
-67.5
 22
0.4162846577728404
 32
0
 13
-67.5
 23
0.4162846577728404
 33
0
  0
SOLID
  5
9A
100
AcDbEntity
  8
DIMENSION
  6
ByBlock
 62
    0
370
   -2
100
AcDbTrace
 10
-65
 20
0
 30
0
 11
-67.5
 21
-0.4162846577728404
 31
0
 12
-67.5
 22
0.4162846577728404
 32
0
 13
-67.5
 23
0.4162846577728404
 33
0
  0
LINE
  5
9B
100
AcDbEntity
  8
DIMENSION
  6
ByBlock
 62
    0
370
   -2
100
AcDbLine
 10
-0.625
 20
7.653789711389858e-17
 11
-66.25
 21
1.530757942277972e-16
  0
LINE
  5
9C
100
AcDbEntity
  8
DIMENSION
  6
ByBlock
 62
    0
370
   -2
100
AcDbLine
 10
-0.625
 20
7.653789711389858e-17
 11
-66.25
 21
1.530757942277972e-16
  0
ENDBLK
  5
54
330
52
100
AcDbEntity
  8
0
100
AcDbBlockEnd
  0
BLOCK
  5
56
330
55
100
AcDbEntity
  8
0
100
AcDbBlockBegin
  2
*D3
 70
    1
 10
0
 20
0
  3
*D3
  1

  0
LINE
  5
9D
100
AcDbEntity
  8
DIMENSION
  6
ByBlock
 62
    0
370
   -2
100
AcDbLine
 10
0
 20
-41
 11
72.5
 21
-41
  0
MTEXT
  5
9E
100
AcDbEntity
  8
DIMENSION
  6
CONTINUOUS
 62
    0
370
   -2
100
AcDbMText
 10
36.25
 20
-41
 30
0
 40
2.5
 41
5.972222222222378
 71
    5
 72
    1
  1
72,5
  7
Standard
210
0
220
0
230
1
 50
0
 73
    2
 44
1
  0
SOLID
  5
9F
100
AcDbEntity
  8
DIMENSION
  6
ByBlock
 62
    0
370
   -2
100
AcDbTrace
 10
0
 20
-41
 30
0
 11
2.5
 21
-40.58371534222716
 31
0
 12
2.5
 22
-41.41628465777284
 32
0
 13
2.5
 23
-41.41628465777284
 33
0
  0
SOLID
  5
A0
100
AcDbEntity
  8
DIMENSION
  6
ByBlock
 62
    0
370
   -2
100
AcDbTrace
 10
72.5
 20
-41
 30
0
 11
70
 21
-41.41628465777284
 31
0
 12
70
 22
-40.58371534222716
 32
0
 13
70
 23
-40.58371534222716
 33
0
  0
LINE
  5
A1
100
AcDbEntity
  8
DIMENSION
  6
ByBlock
 62
    0
370
   -2
100
AcDbLine
 10
-1.148068456708479e-16
 20
-0.625
 11
-2.296136913416957e-16
 21
-42.25
  0
LINE
  5
A2
100
AcDbEntity
  8
DIMENSION
  6
ByBlock
 62
    0
370
   -2
100
AcDbLine
 10
72.5
 20
-0.625
 11
72.5
 21
-42.25
  0
ENDBLK
  5
57
330
55
100
AcDbEntity
  8
0
100
AcDbBlockEnd
  0
BLOCK
  5
59
330
58
100
AcDbEntity
  8
0
100
AcDbBlockBegin
  2
*D19
 70
    1
 10
0
 20
0
  3
*D19
  1

  0
LINE
  5
A3
100
AcDbEntity
  8
DIMENSION
  6
ByBlock
 62
    0
370
   -2
100
AcDbLine
 10
41
 20
-2.913225216616411e-15
 11
41
 21
50
  0
MTEXT
  5
A4
100
AcDbEntity
  8
DIMENSION
  6
CONTINUOUS
 62
    0
370
   -2
100
AcDbMText
 10
41
 20
25
 30
0
 40
2.5
 41
3.055555555555711
 71
    5
 72
    1
  1
50
  7
Standard
210
0
220
0
230
1
 50
90
 73
    2
 44
1
  0
SOLID
  5
A5
100
AcDbEntity
  8
DIMENSION
  6
ByBlock
 62
    0
370
   -2
100
AcDbTrace
 10
41
 20
-2.913225216616411e-15
 30
0
 11
40.58371534222716
 21
2.499999999999997
 31
0
 12
41.41628465777284
 22
2.499999999999997
 32
0
 13
41.41628465777284
 23
2.499999999999997
 33
0
  0
SOLID
  5
A6
100
AcDbEntity
  8
DIMENSION
  6
ByBlock
 62
    0
370
   -2
100
AcDbTrace
 10
41
 20
50
 30
0
 11
41.41628465777284
 21
47.5
 31
0
 12
40.58371534222716
 22
47.5
 32
0
 13
40.58371534222716
 23
47.5
 33
0
  0
LINE
  5
A7
100
AcDbEntity
  8
DIMENSION
  6
ByBlock
 62
    0
370
   -2
100
AcDbLine
 10
0.625
 20
0
 11
42.25
 21
-2.913225216616411e-15
  0
LINE
  5
A8
100
AcDbEntity
  8
DIMENSION
  6
ByBlock
 62
    0
370
   -2
100
AcDbLine
 10
0.625
 20
50
 11
42.25
 21
50
  0
ENDBLK
  5
5A
330
58
100
AcDbEntity
  8
0
100
AcDbBlockEnd
  0
BLOCK
  5
5C
330
5B
100
AcDbEntity
  8
0
100
AcDbBlockBegin
  2
*D22
 70
    1
 10
0
 20
0
  3
*D22
  1

  0
LINE
  5
A9
100
AcDbEntity
  8
DIMENSION
  6
ByBlock
 62
    0
370
   -2
100
AcDbLine
 10
70
 20
0
 11
60
 21
0
  0
MTEXT
  5
AA
100
AcDbEntity
  8
DIMENSION
  6
CONTINUOUS
 62
    0
370
   -2
100
AcDbMText
 10
65.05555555555556
 20
6.888638245203862e-17
 30
0
 40
2.5
 41
1.111111111111111
 71
    5
 72
    1
  1
0
  7
Standard
210
0
220
0
230
1
 50
0
 73
    2
 44
1
  0
SOLID
  5
AB
100
AcDbEntity
  8
DIMENSION
  6
ByBlock
 62
    0
370
   -2
100
AcDbTrace
 10
65
 20
0
 30
0
 11
62.5
 21
-0.4162846577728404
 31
0
 12
62.5
 22
0.4162846577728404
 32
0
 13
62.5
 23
0.4162846577728404
 33
0
  0
SOLID
  5
AC
100
AcDbEntity
  8
DIMENSION
  6
ByBlock
 62
    0
370
   -2
100
AcDbTrace
 10
65
 20
0
 30
0
 11
62.5
 21
-0.4162846577728404
 31
0
 12
62.5
 22
0.4162846577728404
 32
0
 13
62.5
 23
0.4162846577728404
 33
0
  0
LINE
  5
AD
100
AcDbEntity
  8
DIMENSION
  6
ByBlock
 62
    0
370
   -2
100
AcDbLine
 10
0.625
 20
0
 11
66.25
 21
0
  0
LINE
  5
AE
100
AcDbEntity
  8
DIMENSION
  6
ByBlock
 62
    0
370
   -2
100
AcDbLine
 10
0.625
 20
0
 11
66.25
 21
0
  0
ENDBLK
  5
5D
330
5B
100
AcDbEntity
  8
0
100
AcDbBlockEnd
  0
BLOCK
  5
5F
330
5E
100
AcDbEntity
  8
0
100
AcDbBlockBegin
  2
*D11
 70
    1
 10
0
 20
0
  3
*D11
  1

  0
LINE
  5
AF
100
AcDbEntity
  8
DIMENSION
  6
ByBlock
 62
    0
370
   -2
100
AcDbLine
 10
-20
 20
1.77635683940025e-15
 11
-30
 21
1.77635683940025e-15
  0
MTEXT
  5
B0
100
AcDbEntity
  8
DIMENSION
  6
CONTINUOUS
 62
    0
370
   -2
100
AcDbMText
 10
-24.94444444444444
 20
6.888638245203862e-17
 30
0
 40
2.5
 41
1.111111111111111
 71
    5
 72
    1
  1
0
  7
Standard
210
0
220
0
230
1
 50
0
 73
    2
 44
1
  0
SOLID
  5
B1
100
AcDbEntity
  8
DIMENSION
  6
ByBlock
 62
    0
370
   -2
100
AcDbTrace
 10
-25
 20
1.77635683940025e-15
 30
0
 11
-27.5
 21
-0.4162846577728386
 31
0
 12
-27.5
 22
0.4162846577728422
 32
0
 13
-27.5
 23
0.4162846577728422
 33
0
  0
SOLID
  5
B2
100
AcDbEntity
  8
DIMENSION
  6
ByBlock
 62
    0
370
   -2
100
AcDbTrace
 10
-25
 20
1.77635683940025e-15
 30
0
 11
-27.5
 21
-0.4162846577728386
 31
0
 12
-27.5
 22
0.4162846577728422
 32
0
 13
-27.5
 23
0.4162846577728422
 33
0
  0
LINE
  5
B3
100
AcDbEntity
  8
DIMENSION
  6
ByBlock
 62
    0
370
   -2
100
AcDbLine
 10
-0.625
 20
7.653789711389858e-17
 11
-26.25
 21
1.929432633628048e-15
  0
LINE
  5
B4
100
AcDbEntity
  8
DIMENSION
  6
ByBlock
 62
    0
370
   -2
100
AcDbLine
 10
-0.625
 20
7.653789711389858e-17
 11
-26.25
 21
1.929432633628048e-15
  0
ENDBLK
  5
60
330
5E
100
AcDbEntity
  8
0
100
AcDbBlockEnd
  0
BLOCK
  5
62
330
61
100
AcDbEntity
  8
0
100
AcDbBlockBegin
  2
*D9
 70
    1
 10
0
 20
0
  3
*D9
  1

  0
LINE
  5
B5
100
AcDbEntity
  8
DIMENSION
  6
ByBlock
 62
    0
370
   -2
100
AcDbLine
 10
-5
 20
49
 11
11
 21
49
  0
MTEXT
  5
B6
100
AcDbEntity
  8
DIMENSION
  6
CONTINUOUS
 62
    0
370
   -2
100
AcDbMText
 10
3
 20
49
 30
0
 40
2.5
 41
1.111111111111266
 71
    5
 72
    1
  1
6
  7
Standard
210
0
220
0
230
1
 50
0
 73
    2
 44
1
  0
SOLID
  5
B7
100
AcDbEntity
  8
DIMENSION
  6
ByBlock
 62
    0
370
   -2
100
AcDbTrace
 10
0
 20
49
 30
0
 11
-2.5
 21
48.58371534222716
 31
0
 12
-2.5
 22
49.41628465777284
 32
0
 13
-2.5
 23
49.41628465777284
 33
0
  0
SOLID
  5
B8
100
AcDbEntity
  8
DIMENSION
  6
ByBlock
 62
    0
370
   -2
100
AcDbTrace
 10
6
 20
49
 30
0
 11
8.5
 21
49.41628465777284
 31
0
 12
8.5
 22
48.58371534222716
 32
0
 13
8.5
 23
48.58371534222716
 33
0
  0
LINE
  5
B9
100
AcDbEntity
  8
DIMENSION
  6
ByBlock
 62
    0
370
   -2
100
AcDbLine
 10
3.826894855694929e-17
 20
0.625
 11
7.653789711389858e-17
 21
50.25
  0
LINE
  5
BA
100
AcDbEntity
  8
DIMENSION
  6
ByBlock
 62
    0
370
   -2
100
AcDbLine
 10
6
 20
0.625
 11
6
 21
50.25
  0
ENDBLK
  5
63
330
61
100
AcDbEntity
  8
0
100
AcDbBlockEnd
  0
BLOCK
  5
65
330
64
100
AcDbEntity
  8
0
100
AcDbBlockBegin
  2
*D13
 70
    1
 10
0
 20
0
  3
*D13
  1

  0
LINE
  5
BB
100
AcDbEntity
  8
DIMENSION
  6
ByBlock
 62
    0
370
   -2
100
AcDbLine
 10
-41
 20
2.913225216616411e-15
 11
-41
 21
50
  0
MTEXT
  5
BC
100
AcDbEntity
  8
DIMENSION
  6
CONTINUOUS
 62
    0
370
   -2
100
AcDbMText
 10
-41
 20
25
 30
0
 40
2.5
 41
3.055555555555711
 71
    5
 72
    1
  1
50
  7
Standard
210
0
220
0
230
1
 50
90
 73
    2
 44
1
  0
SOLID
  5
BD
100
AcDbEntity
  8
DIMENSION
  6
ByBlock
 62
    0
370
   -2
100
AcDbTrace
 10
-41
 20
2.913225216616411e-15
 30
0
 11
-41.41628465777284
 21
2.500000000000003
 31
0
 12
-40.58371534222716
 22
2.500000000000003
 32
0
 13
-40.58371534222716
 23
2.500000000000003
 33
0
  0
SOLID
  5
BE
100
AcDbEntity
  8
DIMENSION
  6
ByBlock
 62
    0
370
   -2
100
AcDbTrace
 10
-41
 20
50
 30
0
 11
-40.58371534222716
 21
47.5
 31
0
 12
-41.41628465777284
 22
47.5
 32
0
 13
-41.41628465777284
 23
47.5
 33
0
  0
LINE
  5
BF
100
AcDbEntity
  8
DIMENSION
  6
ByBlock
 62
    0
370
   -2
100
AcDbLine
 10
-0.625
 20
7.653789711389858e-17
 11
-42.25
 21
3.066301010844208e-15
  0
LINE
  5
C0
100
AcDbEntity
  8
DIMENSION
  6
ByBlock
 62
    0
370
   -2
100
AcDbLine
 10
-0.625
 20
50
 11
-42.25
 21
50
  0
ENDBLK
  5
66
330
64
100
AcDbEntity
  8
0
100
AcDbBlockEnd
  0
BLOCK
  5
68
330
67
100
AcDbEntity
  8
0
100
AcDbBlockBegin
  2
*D1
 70
    1
 10
0
 20
0
  3
*D1
  1

  0
LINE
  5
C1
100
AcDbEntity
  8
DIMENSION
  6
ByBlock
 62
    0
370
   -2
100
AcDbLine
 10
-5
 20
-25
 11
11
 21
-25
  0
MTEXT
  5
C2
100
AcDbEntity
  8
DIMENSION
  6
CONTINUOUS
 62
    0
370
   -2
100
AcDbMText
 10
3
 20
-25
 30
0
 40
2.5
 41
1.111111111111266
 71
    5
 72
    1
  1
6
  7
Standard
210
0
220
0
230
1
 50
0
 73
    2
 44
1
  0
SOLID
  5
C3
100
AcDbEntity
  8
DIMENSION
  6
ByBlock
 62
    0
370
   -2
100
AcDbTrace
 10
0
 20
-25
 30
0
 11
-2.5
 21
-25.41628465777284
 31
0
 12
-2.5
 22
-24.58371534222716
 32
0
 13
-2.5
 23
-24.58371534222716
 33
0
  0
SOLID
  5
C4
100
AcDbEntity
  8
DIMENSION
  6
ByBlock
 62
    0
370
   -2
100
AcDbTrace
 10
6
 20
-25
 30
0
 11
8.5
 21
-24.58371534222716
 31
0
 12
8.5
 22
-25.41628465777284
 32
0
 13
8.5
 23
-25.41628465777284
 33
0
  0
LINE
  5
C5
100
AcDbEntity
  8
DIMENSION
  6
ByBlock
 62
    0
370
   -2
100
AcDbLine
 10
-1.148068456708479e-16
 20
-0.625
 11
-2.296136913416957e-16
 21
-26.25
  0
LINE
  5
C6
100
AcDbEntity
  8
DIMENSION
  6
ByBlock
 62
    0
370
   -2
100
AcDbLine
 10
6
 20
-0.625
 11
6
 21
-26.25
  0
ENDBLK
  5
69
330
67
100
AcDbEntity
  8
0
100
AcDbBlockEnd
  0
BLOCK
  5
6B
330
6A
100
AcDbEntity
  8
0
100
AcDbBlockBegin
  2
*D10
 70
    1
 10
0
 20
0
  3
*D10
  1

  0
LINE
  5
C7
100
AcDbEntity
  8
DIMENSION
  6
ByBlock
 62
    0
370
   -2
100
AcDbLine
 10
5
 20
57
 11
-5
 21
57
  0
MTEXT
  5
C8
100
AcDbEntity
  8
DIMENSION
  6
CONTINUOUS
 62
    0
370
   -2
100
AcDbMText
 10
1.180555555555556
 20
58.125
 30
0
 40
2.5
 41
1.111111111111111
 71
    5
 72
    1
  1
0
  7
Standard
210
0
220
0
230
1
 50
0
 73
    2
 44
1
  0
SOLID
  5
C9
100
AcDbEntity
  8
DIMENSION
  6
ByBlock
 62
    0
370
   -2
100
AcDbTrace
 10
0
 20
57
 30
0
 11
-2.5
 21
56.58371534222716
 31
0
 12
-2.5
 22
57.41628465777284
 32
0
 13
-2.5
 23
57.41628465777284
 33
0
  0
SOLID
  5
CA
100
AcDbEntity
  8
DIMENSION
  6
ByBlock
 62
    0
370
   -2
100
AcDbTrace
 10
0
 20
57
 30
0
 11
-2.5
 21
56.58371534222716
 31
0
 12
-2.5
 22
57.41628465777284
 32
0
 13
-2.5
 23
57.41628465777284
 33
0
  0
LINE
  5
CB
100
AcDbEntity
  8
DIMENSION
  6
ByBlock
 62
    0
370
   -2
100
AcDbLine
 10
3.826894855694929e-17
 20
0.625
 11
7.653789711389858e-17
 21
58.25
  0
LINE
  5
CC
100
AcDbEntity
  8
DIMENSION
  6
ByBlock
 62
    0
370
   -2
100
AcDbLine
 10
3.826894855694929e-17
 20
0.625
 11
7.653789711389858e-17
 21
58.25
  0
ENDBLK
  5
6C
330
6A
100
AcDbEntity
  8
0
100
AcDbBlockEnd
  0
BLOCK
  5
6E
330
6D
100
AcDbEntity
  8
0
100
AcDbBlockBegin
  2
*D12
 70
    1
 10
0
 20
0
  3
*D12
  1

  0
LINE
  5
CD
100
AcDbEntity
  8
DIMENSION
  6
ByBlock
 62
    0
370
   -2
100
AcDbLine
 10
-33
 20
2.344791028008331e-15
 11
-33
 21
35.00000000000001
  0
MTEXT
  5
CE
100
AcDbEntity
  8
DIMENSION
  6
CONTINUOUS
 62
    0
370
   -2
100
AcDbMText
 10
-33
 20
17.5
 30
0
 40
2.5
 41
3.055555555555866
 71
    5
 72
    1
  1
35
  7
Standard
210
0
220
0
230
1
 50
90
 73
    2
 44
1
  0
SOLID
  5
CF
100
AcDbEntity
  8
DIMENSION
  6
ByBlock
 62
    0
370
   -2
100
AcDbTrace
 10
-33
 20
2.344791028008331e-15
 30
0
 11
-33.41628465777284
 21
2.500000000000002
 31
0
 12
-32.58371534222716
 22
2.500000000000002
 32
0
 13
-32.58371534222716
 23
2.500000000000002
 33
0
  0
SOLID
  5
D0
100
AcDbEntity
  8
DIMENSION
  6
ByBlock
 62
    0
370
   -2
100
AcDbTrace
 10
-33
 20
35.00000000000001
 30
0
 11
-32.58371534222716
 21
32.50000000000001
 31
0
 12
-33.41628465777284
 22
32.50000000000001
 32
0
 13
-33.41628465777284
 23
32.50000000000001
 33
0
  0
LINE
  5
D1
100
AcDbEntity
  8
DIMENSION
  6
ByBlock
 62
    0
370
   -2
100
AcDbLine
 10
-0.625
 20
7.653789711389858e-17
 11
-34.25
 21
2.497866822236128e-15
  0
LINE
  5
D2
100
AcDbEntity
  8
DIMENSION
  6
ByBlock
 62
    0
370
   -2
100
AcDbLine
 10
-0.625
 20
35
 11
-34.25
 21
35.00000000000001
  0
ENDBLK
  5
6F
330
6D
100
AcDbEntity
  8
0
100
AcDbBlockEnd
  0
BLOCK
  5
71
330
70
100
AcDbEntity
  8
0
100
AcDbBlockBegin
  2
*D2
 70
    1
 10
0
 20
0
  3
*D2
  1

  0
LINE
  5
D3
100
AcDbEntity
  8
DIMENSION
  6
ByBlock
 62
    0
370
   -2
100
AcDbLine
 10
0
 20
-33
 11
50
 21
-33
  0
MTEXT
  5
D4
100
AcDbEntity
  8
DIMENSION
  6
CONTINUOUS
 62
    0
370
   -2
100
AcDbMText
 10
25
 20
-33
 30
0
 40
2.5
 41
3.055555555555711
 71
    5
 72
    1
  1
50
  7
Standard
210
0
220
0
230
1
 50
0
 73
    2
 44
1
  0
SOLID
  5
D5
100
AcDbEntity
  8
DIMENSION
  6
ByBlock
 62
    0
370
   -2
100
AcDbTrace
 10
0
 20
-33
 30
0
 11
2.5
 21
-32.58371534222716
 31
0
 12
2.5
 22
-33.41628465777284
 32
0
 13
2.5
 23
-33.41628465777284
 33
0
  0
SOLID
  5
D6
100
AcDbEntity
  8
DIMENSION
  6
ByBlock
 62
    0
370
   -2
100
AcDbTrace
 10
50
 20
-33
 30
0
 11
47.5
 21
-33.41628465777284
 31
0
 12
47.5
 22
-32.58371534222716
 32
0
 13
47.5
 23
-32.58371534222716
 33
0
  0
LINE
  5
D7
100
AcDbEntity
  8
DIMENSION
  6
ByBlock
 62
    0
370
   -2
100
AcDbLine
 10
-1.148068456708479e-16
 20
-0.625
 11
-2.296136913416957e-16
 21
-34.25
  0
LINE
  5
D8
100
AcDbEntity
  8
DIMENSION
  6
ByBlock
 62
    0
370
   -2
100
AcDbLine
 10
50
 20
-0.625
 11
50
 21
-34.25
  0
ENDBLK
  5
72
330
70
100
AcDbEntity
  8
0
100
AcDbBlockEnd
  0
BLOCK
  5
74
330
73
100
AcDbEntity
  8
0
100
AcDbBlockBegin
  2
*D4
 70
    1
 10
0
 20
0
  3
*D4
  1

  0
LINE
  5
D9
100
AcDbEntity
  8
DIMENSION
  6
ByBlock
 62
    0
370
   -2
100
AcDbLine
 10
0
 20
-49
 11
150
 21
-49
  0
MTEXT
  5
DA
100
AcDbEntity
  8
DIMENSION
  6
CONTINUOUS
 62
    0
370
   -2
100
AcDbMText
 10
75
 20
-49
 30
0
 40
2.5
 41
4.444444444444599
 71
    5
 72
    1
  1
150
  7
Standard
210
0
220
0
230
1
 50
0
 73
    2
 44
1
  0
SOLID
  5
DB
100
AcDbEntity
  8
DIMENSION
  6
ByBlock
 62
    0
370
   -2
100
AcDbTrace
 10
0
 20
-49
 30
0
 11
2.5
 21
-48.58371534222716
 31
0
 12
2.5
 22
-49.41628465777284
 32
0
 13
2.5
 23
-49.41628465777284
 33
0
  0
SOLID
  5
DC
100
AcDbEntity
  8
DIMENSION
  6
ByBlock
 62
    0
370
   -2
100
AcDbTrace
 10
150
 20
-49
 30
0
 11
147.5
 21
-49.41628465777284
 31
0
 12
147.5
 22
-48.58371534222716
 32
0
 13
147.5
 23
-48.58371534222716
 33
0
  0
LINE
  5
DD
100
AcDbEntity
  8
DIMENSION
  6
ByBlock
 62
    0
370
   -2
100
AcDbLine
 10
-1.148068456708479e-16
 20
-0.625
 11
-2.296136913416957e-16
 21
-50.25
  0
LINE
  5
DE
100
AcDbEntity
  8
DIMENSION
  6
ByBlock
 62
    0
370
   -2
100
AcDbLine
 10
150
 20
-0.625
 11
150
 21
-50.25
  0
ENDBLK
  5
75
330
73
100
AcDbEntity
  8
0
100
AcDbBlockEnd
  0
BLOCK
  5
77
330
76
100
AcDbEntity
  8
0
100
AcDbBlockBegin
  2
*D5
 70
    1
 10
0
 20
0
  3
*D5
  1

  0
LINE
  5
DF
100
AcDbEntity
  8
DIMENSION
  6
ByBlock
 62
    0
370
   -2
100
AcDbLine
 10
5
 20
-57
 11
-5
 21
-57
  0
MTEXT
  5
E0
100
AcDbEntity
  8
DIMENSION
  6
CONTINUOUS
 62
    0
370
   -2
100
AcDbMText
 10
1.180555555555556
 20
-55.875
 30
0
 40
2.5
 41
1.111111111111111
 71
    5
 72
    1
  1
0
  7
Standard
210
0
220
0
230
1
 50
0
 73
    2
 44
1
  0
SOLID
  5
E1
100
AcDbEntity
  8
DIMENSION
  6
ByBlock
 62
    0
370
   -2
100
AcDbTrace
 10
0
 20
-57
 30
0
 11
-2.5
 21
-57.41628465777284
 31
0
 12
-2.5
 22
-56.58371534222716
 32
0
 13
-2.5
 23
-56.58371534222716
 33
0
  0
SOLID
  5
E2
100
AcDbEntity
  8
DIMENSION
  6
ByBlock
 62
    0
370
   -2
100
AcDbTrace
 10
0
 20
-57
 30
0
 11
-2.5
 21
-57.41628465777284
 31
0
 12
-2.5
 22
-56.58371534222716
 32
0
 13
-2.5
 23
-56.58371534222716
 33
0
  0
LINE
  5
E3
100
AcDbEntity
  8
DIMENSION
  6
ByBlock
 62
    0
370
   -2
100
AcDbLine
 10
-1.148068456708479e-16
 20
-0.625
 11
-2.296136913416957e-16
 21
-58.25
  0
LINE
  5
E4
100
AcDbEntity
  8
DIMENSION
  6
ByBlock
 62
    0
370
   -2
100
AcDbLine
 10
-1.148068456708479e-16
 20
-0.625
 11
-2.296136913416957e-16
 21
-58.25
  0
ENDBLK
  5
78
330
76
100
AcDbEntity
  8
0
100
AcDbBlockEnd
  0
BLOCK
  5
7A
330
79
100
AcDbEntity
  8
0
100
AcDbBlockBegin
  2
*D17
 70
    1
 10
0
 20
0
  3
*D17
  1

  0
LINE
  5
E5
100
AcDbEntity
  8
DIMENSION
  6
ByBlock
 62
    0
370
   -2
100
AcDbLine
 10
25
 20
-1.77635683940025e-15
 11
25.00000000000001
 21
219
  0
MTEXT
  5
E6
100
AcDbEntity
  8
DIMENSION
  6
CONTINUOUS
 62
    0
370
   -2
100
AcDbMText
 10
25
 20
109.5
 30
0
 40
2.5
 41
4.444444444444445
 71
    5
 72
    1
  1
219
  7
Standard
210
0
220
0
230
1
 50
90
 73
    2
 44
1
  0
SOLID
  5
E7
100
AcDbEntity
  8
DIMENSION
  6
ByBlock
 62
    0
370
   -2
100
AcDbTrace
 10
25
 20
-1.77635683940025e-15
 30
0
 11
24.58371534222716
 21
2.499999999999998
 31
0
 12
25.41628465777284
 22
2.499999999999998
 32
0
 13
25.41628465777284
 23
2.499999999999998
 33
0
  0
SOLID
  5
E8
100
AcDbEntity
  8
DIMENSION
  6
ByBlock
 62
    0
370
   -2
100
AcDbTrace
 10
25.00000000000001
 20
219
 30
0
 11
25.41628465777286
 21
216.5
 31
0
 12
24.58371534222717
 22
216.5
 32
0
 13
24.58371534222717
 23
216.5
 33
0
  0
LINE
  5
E9
100
AcDbEntity
  8
DIMENSION
  6
ByBlock
 62
    0
370
   -2
100
AcDbLine
 10
0.625
 20
0
 11
26.25
 21
-1.77635683940025e-15
  0
LINE
  5
EA
100
AcDbEntity
  8
DIMENSION
  6
ByBlock
 62
    0
370
   -2
100
AcDbLine
 10
0.625
 20
219
 11
26.25000000000001
 21
219
  0
ENDBLK
  5
7B
330
79
100
AcDbEntity
  8
0
100
AcDbBlockEnd
  0
BLOCK
  5
7D
330
7C
100
AcDbEntity
  8
0
100
AcDbBlockBegin
  2
*D14
 70
    1
 10
0
 20
0
  3
*D14
  1

  0
LINE
  5
EB
100
AcDbEntity
  8
DIMENSION
  6
ByBlock
 62
    0
370
   -2
100
AcDbLine
 10
-49
 20
3.481659405224491e-15
 11
-48.99999999999999
 21
163
  0
MTEXT
  5
EC
100
AcDbEntity
  8
DIMENSION
  6
CONTINUOUS
 62
    0
370
   -2
100
AcDbMText
 10
-49
 20
81.5
 30
0
 40
2.5
 41
4.444444444444756
 71
    5
 72
    1
  1
163
  7
Standard
210
0
220
0
230
1
 50
90
 73
    2
 44
1
  0
SOLID
  5
ED
100
AcDbEntity
  8
DIMENSION
  6
ByBlock
 62
    0
370
   -2
100
AcDbTrace
 10
-49
 20
3.481659405224491e-15
 30
0
 11
-49.41628465777284
 21
2.500000000000004
 31
0
 12
-48.58371534222716
 22
2.500000000000004
 32
0
 13
-48.58371534222716
 23
2.500000000000004
 33
0
  0
SOLID
  5
EE
100
AcDbEntity
  8
DIMENSION
  6
ByBlock
 62
    0
370
   -2
100
AcDbTrace
 10
-48.99999999999999
 20
163
 30
0
 11
-48.58371534222714
 21
160.5
 31
0
 12
-49.41628465777283
 22
160.5
 32
0
 13
-49.41628465777283
 23
160.5
 33
0
  0
LINE
  5
EF
100
AcDbEntity
  8
DIMENSION
  6
ByBlock
 62
    0
370
   -2
100
AcDbLine
 10
-0.625
 20
7.653789711389858e-17
 11
-50.25
 21
3.634735199452288e-15
  0
LINE
  5
F0
100
AcDbEntity
  8
DIMENSION
  6
ByBlock
 62
    0
370
   -2
100
AcDbLine
 10
-0.625
 20
163
 11
-50.24999999999999
 21
163
  0
ENDBLK
  5
7E
330
7C
100
AcDbEntity
  8
0
100
AcDbBlockEnd
  0
BLOCK
  5
80
330
7F
100
AcDbEntity
  8
0
100
AcDbBlockBegin
  2
*D15
 70
    1
 10
0
 20
0
  3
*D15
  1

  0
LINE
  5
F1
100
AcDbEntity
  8
DIMENSION
  6
ByBlock
 62
    0
370
   -2
100
AcDbLine
 10
-57
 20
4.050093593832571e-15
 11
-56.99999999999999
 21
219
  0
MTEXT
  5
F2
100
AcDbEntity
  8
DIMENSION
  6
CONTINUOUS
 62
    0
370
   -2
100
AcDbMText
 10
-57
 20
109.5
 30
0
 40
2.5
 41
4.444444444444445
 71
    5
 72
    1
  1
219
  7
Standard
210
0
220
0
230
1
 50
90
 73
    2
 44
1
  0
SOLID
  5
F3
100
AcDbEntity
  8
DIMENSION
  6
ByBlock
 62
    0
370
   -2
100
AcDbTrace
 10
-57
 20
4.050093593832571e-15
 30
0
 11
-57.41628465777284
 21
2.500000000000004
 31
0
 12
-56.58371534222716
 22
2.500000000000004
 32
0
 13
-56.58371534222716
 23
2.500000000000004
 33
0
  0
SOLID
  5
F4
100
AcDbEntity
  8
DIMENSION
  6
ByBlock
 62
    0
370
   -2
100
AcDbTrace
 10
-56.99999999999999
 20
219
 30
0
 11
-56.58371534222714
 21
216.5
 31
0
 12
-57.41628465777283
 22
216.5
 32
0
 13
-57.41628465777283
 23
216.5
 33
0
  0
LINE
  5
F5
100
AcDbEntity
  8
DIMENSION
  6
ByBlock
 62
    0
370
   -2
100
AcDbLine
 10
-0.625
 20
7.653789711389858e-17
 11
-58.25
 21
4.203169388060368e-15
  0
LINE
  5
F6
100
AcDbEntity
  8
DIMENSION
  6
ByBlock
 62
    0
370
   -2
100
AcDbLine
 10
-0.625
 20
219
 11
-58.24999999999999
 21
219
  0
ENDBLK
  5
81
330
7F
100
AcDbEntity
  8
0
100
AcDbBlockEnd
  0
BLOCK
  5
83
330
82
100
AcDbEntity
  8
0
100
AcDbBlockBegin
  2
*D7
 70
    1
 10
0
 20
0
  3
*D7
  1

  0
LINE
  5
F7
100
AcDbEntity
  8
DIMENSION
  6
ByBlock
 62
    0
370
   -2
100
AcDbLine
 10
0
 20
33
 11
72.5
 21
33
  0
MTEXT
  5
F8
100
AcDbEntity
  8
DIMENSION
  6
CONTINUOUS
 62
    0
370
   -2
100
AcDbMText
 10
36.25
 20
33
 30
0
 40
2.5
 41
5.972222222222378
 71
    5
 72
    1
  1
72,5
  7
Standard
210
0
220
0
230
1
 50
0
 73
    2
 44
1
  0
SOLID
  5
F9
100
AcDbEntity
  8
DIMENSION
  6
ByBlock
 62
    0
370
   -2
100
AcDbTrace
 10
0
 20
33
 30
0
 11
2.5
 21
33.41628465777284
 31
0
 12
2.5
 22
32.58371534222716
 32
0
 13
2.5
 23
32.58371534222716
 33
0
  0
SOLID
  5
FA
100
AcDbEntity
  8
DIMENSION
  6
ByBlock
 62
    0
370
   -2
100
AcDbTrace
 10
72.5
 20
33
 30
0
 11
70
 21
32.58371534222716
 31
0
 12
70
 22
33.41628465777284
 32
0
 13
70
 23
33.41628465777284
 33
0
  0
LINE
  5
FB
100
AcDbEntity
  8
DIMENSION
  6
ByBlock
 62
    0
370
   -2
100
AcDbLine
 10
3.826894855694929e-17
 20
0.625
 11
7.653789711389858e-17
 21
34.25
  0
LINE
  5
FC
100
AcDbEntity
  8
DIMENSION
  6
ByBlock
 62
    0
370
   -2
100
AcDbLine
 10
72.5
 20
0.625
 11
72.5
 21
34.25
  0
ENDBLK
  5
84
330
82
100
AcDbEntity
  8
0
100
AcDbBlockEnd
  0
BLOCK
  5
86
330
85
100
AcDbEntity
  8
0
100
AcDbBlockBegin
  2
*D8
 70
    1
 10
0
 20
0
  3
*D8
  1

  0
LINE
  5
FD
100
AcDbEntity
  8
DIMENSION
  6
ByBlock
 62
    0
370
   -2
100
AcDbLine
 10
0
 20
41
 11
50
 21
41
  0
MTEXT
  5
FE
100
AcDbEntity
  8
DIMENSION
  6
CONTINUOUS
 62
    0
370
   -2
100
AcDbMText
 10
25
 20
41
 30
0
 40
2.5
 41
3.055555555555711
 71
    5
 72
    1
  1
50
  7
Standard
210
0
220
0
230
1
 50
0
 73
    2
 44
1
  0
SOLID
  5
FF
100
AcDbEntity
  8
DIMENSION
  6
ByBlock
 62
    0
370
   -2
100
AcDbTrace
 10
0
 20
41
 30
0
 11
2.5
 21
41.41628465777284
 31
0
 12
2.5
 22
40.58371534222716
 32
0
 13
2.5
 23
40.58371534222716
 33
0
  0
SOLID
  5
100
100
AcDbEntity
  8
DIMENSION
  6
ByBlock
 62
    0
370
   -2
100
AcDbTrace
 10
50
 20
41
 30
0
 11
47.5
 21
40.58371534222716
 31
0
 12
47.5
 22
41.41628465777284
 32
0
 13
47.5
 23
41.41628465777284
 33
0
  0
LINE
  5
101
100
AcDbEntity
  8
DIMENSION
  6
ByBlock
 62
    0
370
   -2
100
AcDbLine
 10
3.826894855694929e-17
 20
0.625
 11
7.653789711389858e-17
 21
42.25
  0
LINE
  5
102
100
AcDbEntity
  8
DIMENSION
  6
ByBlock
 62
    0
370
   -2
100
AcDbLine
 10
50
 20
0.625
 11
50
 21
42.25
  0
ENDBLK
  5
87
330
85
100
AcDbEntity
  8
0
100
AcDbBlockEnd
  0
BLOCK
  5
89
330
88
100
AcDbEntity
  8
0
100
AcDbBlockBegin
  2
*D21
 70
    1
 10
0
 20
0
  3
*D21
  1

  0
LINE
  5
103
100
AcDbEntity
  8
DIMENSION
  6
ByBlock
 62
    0
370
   -2
100
AcDbLine
 10
62
 20
-4.050093593832571e-15
 11
52
 21
-4.050093593832571e-15
  0
MTEXT
  5
104
100
AcDbEntity
  8
DIMENSION
  6
CONTINUOUS
 62
    0
370
   -2
100
AcDbMText
 10
57.05555555555556
 20
6.888638245203862e-17
 30
0
 40
2.5
 41
1.111111111111111
 71
    5
 72
    1
  1
0
  7
Standard
210
0
220
0
230
1
 50
0
 73
    2
 44
1
  0
SOLID
  5
105
100
AcDbEntity
  8
DIMENSION
  6
ByBlock
 62
    0
370
   -2
100
AcDbTrace
 10
57
 20
-4.050093593832571e-15
 30
0
 11
54.5
 21
-0.4162846577728445
 31
0
 12
54.5
 22
0.4162846577728364
 32
0
 13
54.5
 23
0.4162846577728364
 33
0
  0
SOLID
  5
106
100
AcDbEntity
  8
DIMENSION
  6
ByBlock
 62
    0
370
   -2
100
AcDbTrace
 10
57
 20
-4.050093593832571e-15
 30
0
 11
54.5
 21
-0.4162846577728445
 31
0
 12
54.5
 22
0.4162846577728364
 32
0
 13
54.5
 23
0.4162846577728364
 33
0
  0
LINE
  5
107
100
AcDbEntity
  8
DIMENSION
  6
ByBlock
 62
    0
370
   -2
100
AcDbLine
 10
0.625
 20
0
 11
58.25
 21
-4.050093593832571e-15
  0
LINE
  5
108
100
AcDbEntity
  8
DIMENSION
  6
ByBlock
 62
    0
370
   -2
100
AcDbLine
 10
0.625
 20
0
 11
58.25
 21
-4.050093593832571e-15
  0
ENDBLK
  5
8A
330
88
100
AcDbEntity
  8
0
100
AcDbBlockEnd
  0
BLOCK
  5
8C
330
8B
100
AcDbEntity
  8
0
100
AcDbBlockBegin
  2
*D20
 70
    1
 10
0
 20
0
  3
*D20
  1

  0
LINE
  5
109
100
AcDbEntity
  8
DIMENSION
  6
ByBlock
 62
    0
370
   -2
100
AcDbLine
 10
49
 20
-3.481659405224491e-15
 11
49
 21
34.99999999999999
  0
MTEXT
  5
10A
100
AcDbEntity
  8
DIMENSION
  6
CONTINUOUS
 62
    0
370
   -2
100
AcDbMText
 10
49
 20
17.5
 30
0
 40
2.5
 41
3.055555555555866
 71
    5
 72
    1
  1
35
  7
Standard
210
0
220
0
230
1
 50
90
 73
    2
 44
1
  0
SOLID
  5
10B
100
AcDbEntity
  8
DIMENSION
  6
ByBlock
 62
    0
370
   -2
100
AcDbTrace
 10
49
 20
-3.481659405224491e-15
 30
0
 11
48.58371534222716
 21
2.499999999999996
 31
0
 12
49.41628465777284
 22
2.499999999999996
 32
0
 13
49.41628465777284
 23
2.499999999999996
 33
0
  0
SOLID
  5
10C
100
AcDbEntity
  8
DIMENSION
  6
ByBlock
 62
    0
370
   -2
100
AcDbTrace
 10
49
 20
34.99999999999999
 30
0
 11
49.41628465777284
 21
32.49999999999999
 31
0
 12
48.58371534222716
 22
32.49999999999999
 32
0
 13
48.58371534222716
 23
32.49999999999999
 33
0
  0
LINE
  5
10D
100
AcDbEntity
  8
DIMENSION
  6
ByBlock
 62
    0
370
   -2
100
AcDbLine
 10
0.625
 20
0
 11
50.25
 21
-3.481659405224491e-15
  0
LINE
  5
10E
100
AcDbEntity
  8
DIMENSION
  6
ByBlock
 62
    0
370
   -2
100
AcDbLine
 10
0.625
 20
35
 11
50.25
 21
34.99999999999999
  0
ENDBLK
  5
8D
330
8B
100
AcDbEntity
  8
0
100
AcDbBlockEnd
  0
BLOCK
  5
8F
330
8E
100
AcDbEntity
  8
0
100
AcDbBlockBegin
  2
*D6
 70
    1
 10
0
 20
0
  3
*D6
  1

  0
LINE
  5
10F
100
AcDbEntity
  8
DIMENSION
  6
ByBlock
 62
    0
370
   -2
100
AcDbLine
 10
0
 20
25
 11
150
 21
25
  0
MTEXT
  5
110
100
AcDbEntity
  8
DIMENSION
  6
CONTINUOUS
 62
    0
370
   -2
100
AcDbMText
 10
75
 20
25
 30
0
 40
2.5
 41
4.444444444444599
 71
    5
 72
    1
  1
150
  7
Standard
210
0
220
0
230
1
 50
0
 73
    2
 44
1
  0
SOLID
  5
111
100
AcDbEntity
  8
DIMENSION
  6
ByBlock
 62
    0
370
   -2
100
AcDbTrace
 10
0
 20
25
 30
0
 11
2.5
 21
25.41628465777284
 31
0
 12
2.5
 22
24.58371534222716
 32
0
 13
2.5
 23
24.58371534222716
 33
0
  0
SOLID
  5
112
100
AcDbEntity
  8
DIMENSION
  6
ByBlock
 62
    0
370
   -2
100
AcDbTrace
 10
150
 20
25
 30
0
 11
147.5
 21
24.58371534222716
 31
0
 12
147.5
 22
25.41628465777284
 32
0
 13
147.5
 23
25.41628465777284
 33
0
  0
LINE
  5
113
100
AcDbEntity
  8
DIMENSION
  6
ByBlock
 62
    0
370
   -2
100
AcDbLine
 10
3.826894855694929e-17
 20
0.625
 11
7.653789711389858e-17
 21
26.25
  0
LINE
  5
114
100
AcDbEntity
  8
DIMENSION
  6
ByBlock
 62
    0
370
   -2
100
AcDbLine
 10
150
 20
0.625
 11
150
 21
26.25
  0
ENDBLK
  5
90
330
8E
100
AcDbEntity
  8
0
100
AcDbBlockEnd
  0
BLOCK
  5
92
330
91
100
AcDbEntity
  8
0
100
AcDbBlockBegin
  2
*D18
 70
    1
 10
0
 20
0
  3
*D18
  1

  0
LINE
  5
115
100
AcDbEntity
  8
DIMENSION
  6
ByBlock
 62
    0
370
   -2
100
AcDbLine
 10
33
 20
-2.344791028008331e-15
 11
33.00000000000001
 21
163
  0
MTEXT
  5
116
100
AcDbEntity
  8
DIMENSION
  6
CONTINUOUS
 62
    0
370
   -2
100
AcDbMText
 10
33
 20
81.5
 30
0
 40
2.5
 41
4.444444444444756
 71
    5
 72
    1
  1
163
  7
Standard
210
0
220
0
230
1
 50
90
 73
    2
 44
1
  0
SOLID
  5
117
100
AcDbEntity
  8
DIMENSION
  6
ByBlock
 62
    0
370
   -2
100
AcDbTrace
 10
33
 20
-2.344791028008331e-15
 30
0
 11
32.58371534222716
 21
2.499999999999998
 31
0
 12
33.41628465777284
 22
2.499999999999998
 32
0
 13
33.41628465777284
 23
2.499999999999998
 33
0
  0
SOLID
  5
118
100
AcDbEntity
  8
DIMENSION
  6
ByBlock
 62
    0
370
   -2
100
AcDbTrace
 10
33.00000000000001
 20
163
 30
0
 11
33.41628465777286
 21
160.5
 31
0
 12
32.58371534222717
 22
160.5
 32
0
 13
32.58371534222717
 23
160.5
 33
0
  0
LINE
  5
119
100
AcDbEntity
  8
DIMENSION
  6
ByBlock
 62
    0
370
   -2
100
AcDbLine
 10
0.625
 20
0
 11
34.25
 21
-2.344791028008331e-15
  0
LINE
  5
11A
100
AcDbEntity
  8
DIMENSION
  6
ByBlock
 62
    0
370
   -2
100
AcDbLine
 10
0.625
 20
163
 11
34.25000000000001
 21
163
  0
ENDBLK
  5
93
330
91
100
AcDbEntity
  8
0
100
AcDbBlockEnd
  0
BLOCK
  5
95
330
94
100
AcDbEntity
  8
0
100
AcDbBlockBegin
  2
_CLOSEDFILLED
 70
    0
 10
0
 20
0
  3
_CLOSEDFILLED
  1

  0
SOLID
  5
11B
100
AcDbEntity
  8
0
  6
ByBlock
 62
    0
370
   -1
100
AcDbTrace
 10
-1
 20
0.1643989837240254
 30
0
 11
0
 21
0
 31
0
 12
-1
 22
-0.1643989837240254
 32
0
 13
-1
 23
-0.1643989837240254
 33
0
  0
ENDBLK
  5
96
330
94
100
AcDbEntity
  8
0
100
AcDbBlockEnd
  0
ENDSEC
  0
SECTION
  2
ENTITIES
  0
TEXT
  5
11C
100
AcDbEntity
  8
ANNOTATION
  6
ByLayer
 62
  256
370
   -1
100
AcDbText
 10
50
 20
224
 30
0
 40
2.5
  1
d4.0 h12.0
 50
0
 41
1
 51
0
  7
STANDARD
 71
    0
210
0
220
0
230
1
100
AcDbText
  0
TEXT
  5
11D
100
AcDbEntity
  8
ANNOTATION
  6
ByLayer
 62
  256
370
   -1
100
AcDbText
 10
150
 20
224
 30
0
 40
2.5
  1
d4.0 h12.0
 50
0
 41
1
 51
0
  7
STANDARD
 71
    0
210
0
220
0
230
1
100
AcDbText
  0
TEXT
  5
11E
100
AcDbEntity
  8
ANNOTATION
  6
ByLayer
 62
  256
370
   -1
100
AcDbText
 10
6
 20
55
 30
0
 40
2.5
  1
d4.0 h12.0
 50
0
 41
1
 51
0
  7
STANDARD
 71
    0
210
0
220
0
230
1
100
AcDbText
  0
TEXT
  5
11F
100
AcDbEntity
  8
ANNOTATION
  6
ByLayer
 62
  256
370
   -1
100
AcDbText
 10
6
 20
168
 30
0
 40
2.5
  1
d4.0 h12.0
 50
0
 41
1
 51
0
  7
STANDARD
 71
    0
210
0
220
0
230
1
100
AcDbText
  0
LINE
  5
120
100
AcDbEntity
  8
DRILL
  6
ByLayer
 62
    5
370
   -1
100
AcDbLine
 10
47
 20
0
 11
53
 21
0
  0
LINE
  5
121
100
AcDbEntity
  8
DRILL
  6
ByLayer
 62
    5
370
   -1
100
AcDbLine
 10
50
 20
-3
 11
50
 21
3
  0
TEXT
  5
122
100
AcDbEntity
  8
ANNOTATION
  6
ByLayer
 62
  256
370
   -1
100
AcDbText
 10
50
 20
5
 30
0
 40
2.5
  1
d6.0 h20.0 z6.0
 50
0
 41
1
 51
0
  7
STANDARD
 71
    0
210
0
220
0
230
1
100
AcDbText
  0
LINE
  5
123
100
AcDbEntity
  8
DRILL
  6
ByLayer
 62
    5
370
   -1
100
AcDbLine
 10
147
 20
0
 11
153
 21
0
  0
LINE
  5
124
100
AcDbEntity
  8
DRILL
  6
ByLayer
 62
    5
370
   -1
100
AcDbLine
 10
150
 20
-3
 11
150
 21
3
  0
TEXT
  5
125
100
AcDbEntity
  8
ANNOTATION
  6
ByLayer
 62
  256
370
   -1
100
AcDbText
 10
150
 20
5
 30
0
 40
2.5
  1
d6.0 h20.0 z6.0
 50
0
 41
1
 51
0
  7
STANDARD
 71
    0
210
0
220
0
230
1
100
AcDbText
  0
TEXT
  5
126
100
AcDbEntity
  8
ANNOTATION
  6
ByLayer
 62
  256
370
   -1
100
AcDbText
 10
72.5
 20
40
 30
0
 40
2.5
  1
d2.5 h2.0
 50
0
 41
1
 51
0
  7
STANDARD
 71
    0
210
0
220
0
230
1
100
AcDbText
  0
TEXT
  5
127
100
AcDbEntity
  8
ANNOTATION
  6
ByLayer
 62
  256
370
   -1
100
AcDbText
 10
72.5
 20
168
 30
0
 40
2.5
  1
d2.5 h2.0
 50
0
 41
1
 51
0
  7
STANDARD
 71
    0
210
0
220
0
230
1
100
AcDbText
  0
LINE
  5
128
100
AcDbEntity
  8
CUT
  6
ByLayer
 62
  256
370
   -1
100
AcDbLine
 10
0
 20
0
 11
200
 21
0
  0
LINE
  5
129
100
AcDbEntity
  8
CUT
  6
ByLayer
 62
  256
370
   -1
100
AcDbLine
 10
200
 20
0
 11
200
 21
225
  0
LINE
  5
12A
100
AcDbEntity
  8
CUT
  6
ByLayer
 62
  256
370
   -1
100
AcDbLine
 10
200
 20
225
 11
0
 21
225
  0
LINE
  5
12B
100
AcDbEntity
  8
CUT
  6
ByLayer
 62
  256
370
   -1
100
AcDbLine
 10
0
 20
225
 11
0
 21
0
  0
LINE
  5
12C
100
AcDbEntity
  8
CUT
  6
ByLayer
 62
  256
370
   -1
100
AcDbLine
 10
4
 20
50
 11
4.15224
 21
50.7654
  0
LINE
  5
12D
100
AcDbEntity
  8
CUT
  6
ByLayer
 62
  256
370
   -1
100
AcDbLine
 10
4.15224
 20
50.7654
 11
4.58579
 21
51.4142
  0
LINE
  5
12E
100
AcDbEntity
  8
CUT
  6
ByLayer
 62
  256
370
   -1
100
AcDbLine
 10
4.58579
 20
51.4142
 11
5.23463
 21
51.8478
  0
LINE
  5
12F
100
AcDbEntity
  8
CUT
  6
ByLayer
 62
  256
370
   -1
100
AcDbLine
 10
5.23463
 20
51.8478
 11
6
 21
52
  0
LINE
  5
130
100
AcDbEntity
  8
CUT
  6
ByLayer
 62
  256
370
   -1
100
AcDbLine
 10
6
 20
52
 11
6.76537
 21
51.8478
  0
LINE
  5
131
100
AcDbEntity
  8
CUT
  6
ByLayer
 62
  256
370
   -1
100
AcDbLine
 10
6.76537
 20
51.8478
 11
7.41421
 21
51.4142
  0
LINE
  5
132
100
AcDbEntity
  8
CUT
  6
ByLayer
 62
  256
370
   -1
100
AcDbLine
 10
7.41421
 20
51.4142
 11
7.84776
 21
50.7654
  0
LINE
  5
133
100
AcDbEntity
  8
CUT
  6
ByLayer
 62
  256
370
   -1
100
AcDbLine
 10
7.84776
 20
50.7654
 11
8
 21
50
  0
LINE
  5
134
100
AcDbEntity
  8
CUT
  6
ByLayer
 62
  256
370
   -1
100
AcDbLine
 10
8
 20
50
 11
7.84776
 21
49.2346
  0
LINE
  5
135
100
AcDbEntity
  8
CUT
  6
ByLayer
 62
  256
370
   -1
100
AcDbLine
 10
7.84776
 20
49.2346
 11
7.41421
 21
48.5858
  0
LINE
  5
136
100
AcDbEntity
  8
CUT
  6
ByLayer
 62
  256
370
   -1
100
AcDbLine
 10
7.41421
 20
48.5858
 11
6.76537
 21
48.1522
  0
LINE
  5
137
100
AcDbEntity
  8
CUT
  6
ByLayer
 62
  256
370
   -1
100
AcDbLine
 10
6.76537
 20
48.1522
 11
6
 21
48
  0
LINE
  5
138
100
AcDbEntity
  8
CUT
  6
ByLayer
 62
  256
370
   -1
100
AcDbLine
 10
6
 20
48
 11
5.23463
 21
48.1522
  0
LINE
  5
139
100
AcDbEntity
  8
CUT
  6
ByLayer
 62
  256
370
   -1
100
AcDbLine
 10
5.23463
 20
48.1522
 11
4.58579
 21
48.5858
  0
LINE
  5
13A
100
AcDbEntity
  8
CUT
  6
ByLayer
 62
  256
370
   -1
100
AcDbLine
 10
4.58579
 20
48.5858
 11
4.15224
 21
49.2346
  0
LINE
  5
13B
100
AcDbEntity
  8
CUT
  6
ByLayer
 62
  256
370
   -1
100
AcDbLine
 10
4.15224
 20
49.2346
 11
4
 21
50
  0
LINE
  5
13C
100
AcDbEntity
  8
CUT
  6
ByLayer
 62
  256
370
   -1
100
AcDbLine
 10
4
 20
163
 11
4.15224
 21
163.765
  0
LINE
  5
13D
100
AcDbEntity
  8
CUT
  6
ByLayer
 62
  256
370
   -1
100
AcDbLine
 10
4.15224
 20
163.765
 11
4.58579
 21
164.414
  0
LINE
  5
13E
100
AcDbEntity
  8
CUT
  6
ByLayer
 62
  256
370
   -1
100
AcDbLine
 10
4.58579
 20
164.414
 11
5.23463
 21
164.848
  0
LINE
  5
13F
100
AcDbEntity
  8
CUT
  6
ByLayer
 62
  256
370
   -1
100
AcDbLine
 10
5.23463
 20
164.848
 11
6
 21
165
  0
LINE
  5
140
100
AcDbEntity
  8
CUT
  6
ByLayer
 62
  256
370
   -1
100
AcDbLine
 10
6
 20
165
 11
6.76537
 21
164.848
  0
LINE
  5
141
100
AcDbEntity
  8
CUT
  6
ByLayer
 62
  256
370
   -1
100
AcDbLine
 10
6.76537
 20
164.848
 11
7.41421
 21
164.414
  0
LINE
  5
142
100
AcDbEntity
  8
CUT
  6
ByLayer
 62
  256
370
   -1
100
AcDbLine
 10
7.41421
 20
164.414
 11
7.84776
 21
163.765
  0
LINE
  5
143
100
AcDbEntity
  8
CUT
  6
ByLayer
 62
  256
370
   -1
100
AcDbLine
 10
7.84776
 20
163.765
 11
8
 21
163
  0
LINE
  5
144
100
AcDbEntity
  8
CUT
  6
ByLayer
 62
  256
370
   -1
100
AcDbLine
 10
8
 20
163
 11
7.84776
 21
162.235
  0
LINE
  5
145
100
AcDbEntity
  8
CUT
  6
ByLayer
 62
  256
370
   -1
100
AcDbLine
 10
7.84776
 20
162.235
 11
7.41421
 21
161.586
  0
LINE
  5
146
100
AcDbEntity
  8
CUT
  6
ByLayer
 62
  256
370
   -1
100
AcDbLine
 10
7.41421
 20
161.586
 11
6.76537
 21
161.152
  0
LINE
  5
147
100
AcDbEntity
  8
CUT
  6
ByLayer
 62
  256
370
   -1
100
AcDbLine
 10
6.76537
 20
161.152
 11
6
 21
161
  0
LINE
  5
148
100
AcDbEntity
  8
CUT
  6
ByLayer
 62
  256
370
   -1
100
AcDbLine
 10
6
 20
161
 11
5.23463
 21
161.152
  0
LINE
  5
149
100
AcDbEntity
  8
CUT
  6
ByLayer
 62
  256
370
   -1
100
AcDbLine
 10
5.23463
 20
161.152
 11
4.58579
 21
161.586
  0
LINE
  5
14A
100
AcDbEntity
  8
CUT
  6
ByLayer
 62
  256
370
   -1
100
AcDbLine
 10
4.58579
 20
161.586
 11
4.15224
 21
162.235
  0
LINE
  5
14B
100
AcDbEntity
  8
CUT
  6
ByLayer
 62
  256
370
   -1
100
AcDbLine
 10
4.15224
 20
162.235
 11
4
 21
163
  0
LINE
  5
14C
100
AcDbEntity
  8
CUT
  6
ByLayer
 62
  256
370
   -1
100
AcDbLine
 10
48
 20
219
 11
48.1522
 21
219.765
  0
LINE
  5
14D
100
AcDbEntity
  8
CUT
  6
ByLayer
 62
  256
370
   -1
100
AcDbLine
 10
48.1522
 20
219.765
 11
48.5858
 21
220.414
  0
LINE
  5
14E
100
AcDbEntity
  8
CUT
  6
ByLayer
 62
  256
370
   -1
100
AcDbLine
 10
48.5858
 20
220.414
 11
49.2346
 21
220.848
  0
LINE
  5
14F
100
AcDbEntity
  8
CUT
  6
ByLayer
 62
  256
370
   -1
100
AcDbLine
 10
49.2346
 20
220.848
 11
50
 21
221
  0
LINE
  5
150
100
AcDbEntity
  8
CUT
  6
ByLayer
 62
  256
370
   -1
100
AcDbLine
 10
50
 20
221
 11
50.7654
 21
220.848
  0
LINE
  5
151
100
AcDbEntity
  8
CUT
  6
ByLayer
 62
  256
370
   -1
100
AcDbLine
 10
50.7654
 20
220.848
 11
51.4142
 21
220.414
  0
LINE
  5
152
100
AcDbEntity
  8
CUT
  6
ByLayer
 62
  256
370
   -1
100
AcDbLine
 10
51.4142
 20
220.414
 11
51.8478
 21
219.765
  0
LINE
  5
153
100
AcDbEntity
  8
CUT
  6
ByLayer
 62
  256
370
   -1
100
AcDbLine
 10
51.8478
 20
219.765
 11
52
 21
219
  0
LINE
  5
154
100
AcDbEntity
  8
CUT
  6
ByLayer
 62
  256
370
   -1
100
AcDbLine
 10
52
 20
219
 11
51.8478
 21
218.235
  0
LINE
  5
155
100
AcDbEntity
  8
CUT
  6
ByLayer
 62
  256
370
   -1
100
AcDbLine
 10
51.8478
 20
218.235
 11
51.4142
 21
217.586
  0
LINE
  5
156
100
AcDbEntity
  8
CUT
  6
ByLayer
 62
  256
370
   -1
100
AcDbLine
 10
51.4142
 20
217.586
 11
50.7654
 21
217.152
  0
LINE
  5
157
100
AcDbEntity
  8
CUT
  6
ByLayer
 62
  256
370
   -1
100
AcDbLine
 10
50.7654
 20
217.152
 11
50
 21
217
  0
LINE
  5
158
100
AcDbEntity
  8
CUT
  6
ByLayer
 62
  256
370
   -1
100
AcDbLine
 10
50
 20
217
 11
49.2346
 21
217.152
  0
LINE
  5
159
100
AcDbEntity
  8
CUT
  6
ByLayer
 62
  256
370
   -1
100
AcDbLine
 10
49.2346
 20
217.152
 11
48.5858
 21
217.586
  0
LINE
  5
15A
100
AcDbEntity
  8
CUT
  6
ByLayer
 62
  256
370
   -1
100
AcDbLine
 10
48.5858
 20
217.586
 11
48.1522
 21
218.235
  0
LINE
  5
15B
100
AcDbEntity
  8
CUT
  6
ByLayer
 62
  256
370
   -1
100
AcDbLine
 10
48.1522
 20
218.235
 11
48
 21
219
  0
LINE
  5
15C
100
AcDbEntity
  8
CUT
  6
ByLayer
 62
  256
370
   -1
100
AcDbLine
 10
71.25
 20
35
 11
71.3451
 21
35.4784
  0
LINE
  5
15D
100
AcDbEntity
  8
CUT
  6
ByLayer
 62
  256
370
   -1
100
AcDbLine
 10
71.3451
 20
35.4784
 11
71.6161
 21
35.8839
  0
LINE
  5
15E
100
AcDbEntity
  8
CUT
  6
ByLayer
 62
  256
370
   -1
100
AcDbLine
 10
71.6161
 20
35.8839
 11
72.02160000000001
 21
36.1548
  0
LINE
  5
15F
100
AcDbEntity
  8
CUT
  6
ByLayer
 62
  256
370
   -1
100
AcDbLine
 10
72.02160000000001
 20
36.1548
 11
72.5
 21
36.25
  0
LINE
  5
160
100
AcDbEntity
  8
CUT
  6
ByLayer
 62
  256
370
   -1
100
AcDbLine
 10
72.5
 20
36.25
 11
72.97839999999999
 21
36.1548
  0
LINE
  5
161
100
AcDbEntity
  8
CUT
  6
ByLayer
 62
  256
370
   -1
100
AcDbLine
 10
72.97839999999999
 20
36.1548
 11
73.3839
 21
35.8839
  0
LINE
  5
162
100
AcDbEntity
  8
CUT
  6
ByLayer
 62
  256
370
   -1
100
AcDbLine
 10
73.3839
 20
35.8839
 11
73.65479999999999
 21
35.4784
  0
LINE
  5
163
100
AcDbEntity
  8
CUT
  6
ByLayer
 62
  256
370
   -1
100
AcDbLine
 10
73.65479999999999
 20
35.4784
 11
73.75
 21
35
  0
LINE
  5
164
100
AcDbEntity
  8
CUT
  6
ByLayer
 62
  256
370
   -1
100
AcDbLine
 10
73.75
 20
35
 11
73.65479999999999
 21
34.5216
  0
LINE
  5
165
100
AcDbEntity
  8
CUT
  6
ByLayer
 62
  256
370
   -1
100
AcDbLine
 10
73.65479999999999
 20
34.5216
 11
73.3839
 21
34.1161
  0
LINE
  5
166
100
AcDbEntity
  8
CUT
  6
ByLayer
 62
  256
370
   -1
100
AcDbLine
 10
73.3839
 20
34.1161
 11
72.97839999999999
 21
33.8451
  0
LINE
  5
167
100
AcDbEntity
  8
CUT
  6
ByLayer
 62
  256
370
   -1
100
AcDbLine
 10
72.97839999999999
 20
33.8451
 11
72.5
 21
33.75
  0
LINE
  5
168
100
AcDbEntity
  8
CUT
  6
ByLayer
 62
  256
370
   -1
100
AcDbLine
 10
72.5
 20
33.75
 11
72.02160000000001
 21
33.8451
  0
LINE
  5
169
100
AcDbEntity
  8
CUT
  6
ByLayer
 62
  256
370
   -1
100
AcDbLine
 10
72.02160000000001
 20
33.8451
 11
71.6161
 21
34.1161
  0
LINE
  5
16A
100
AcDbEntity
  8
CUT
  6
ByLayer
 62
  256
370
   -1
100
AcDbLine
 10
71.6161
 20
34.1161
 11
71.3451
 21
34.5216
  0
LINE
  5
16B
100
AcDbEntity
  8
CUT
  6
ByLayer
 62
  256
370
   -1
100
AcDbLine
 10
71.3451
 20
34.5216
 11
71.25
 21
35
  0
LINE
  5
16C
100
AcDbEntity
  8
CUT
  6
ByLayer
 62
  256
370
   -1
100
AcDbLine
 10
71.25
 20
163
 11
71.3451
 21
163.478
  0
LINE
  5
16D
100
AcDbEntity
  8
CUT
  6
ByLayer
 62
  256
370
   -1
100
AcDbLine
 10
71.3451
 20
163.478
 11
71.6161
 21
163.884
  0
LINE
  5
16E
100
AcDbEntity
  8
CUT
  6
ByLayer
 62
  256
370
   -1
100
AcDbLine
 10
71.6161
 20
163.884
 11
72.02160000000001
 21
164.155
  0
LINE
  5
16F
100
AcDbEntity
  8
CUT
  6
ByLayer
 62
  256
370
   -1
100
AcDbLine
 10
72.02160000000001
 20
164.155
 11
72.5
 21
164.25
  0
LINE
  5
170
100
AcDbEntity
  8
CUT
  6
ByLayer
 62
  256
370
   -1
100
AcDbLine
 10
72.5
 20
164.25
 11
72.97839999999999
 21
164.155
  0
LINE
  5
171
100
AcDbEntity
  8
CUT
  6
ByLayer
 62
  256
370
   -1
100
AcDbLine
 10
72.97839999999999
 20
164.155
 11
73.3839
 21
163.884
  0
LINE
  5
172
100
AcDbEntity
  8
CUT
  6
ByLayer
 62
  256
370
   -1
100
AcDbLine
 10
73.3839
 20
163.884
 11
73.65479999999999
 21
163.478
  0
LINE
  5
173
100
AcDbEntity
  8
CUT
  6
ByLayer
 62
  256
370
   -1
100
AcDbLine
 10
73.65479999999999
 20
163.478
 11
73.75
 21
163
  0
LINE
  5
174
100
AcDbEntity
  8
CUT
  6
ByLayer
 62
  256
370
   -1
100
AcDbLine
 10
73.75
 20
163
 11
73.65479999999999
 21
162.522
  0
LINE
  5
175
100
AcDbEntity
  8
CUT
  6
ByLayer
 62
  256
370
   -1
100
AcDbLine
 10
73.65479999999999
 20
162.522
 11
73.3839
 21
162.116
  0
LINE
  5
176
100
AcDbEntity
  8
CUT
  6
ByLayer
 62
  256
370
   -1
100
AcDbLine
 10
73.3839
 20
162.116
 11
72.97839999999999
 21
161.845
  0
LINE
  5
177
100
AcDbEntity
  8
CUT
  6
ByLayer
 62
  256
370
   -1
100
AcDbLine
 10
72.97839999999999
 20
161.845
 11
72.5
 21
161.75
  0
LINE
  5
178
100
AcDbEntity
  8
CUT
  6
ByLayer
 62
  256
370
   -1
100
AcDbLine
 10
72.5
 20
161.75
 11
72.02160000000001
 21
161.845
  0
LINE
  5
179
100
AcDbEntity
  8
CUT
  6
ByLayer
 62
  256
370
   -1
100
AcDbLine
 10
72.02160000000001
 20
161.845
 11
71.6161
 21
162.116
  0
LINE
  5
17A
100
AcDbEntity
  8
CUT
  6
ByLayer
 62
  256
370
   -1
100
AcDbLine
 10
71.6161
 20
162.116
 11
71.3451
 21
162.522
  0
LINE
  5
17B
100
AcDbEntity
  8
CUT
  6
ByLayer
 62
  256
370
   -1
100
AcDbLine
 10
71.3451
 20
162.522
 11
71.25
 21
163
  0
LINE
  5
17C
100
AcDbEntity
  8
CUT
  6
ByLayer
 62
  256
370
   -1
100
AcDbLine
 10
148
 20
219
 11
148.152
 21
219.765
  0
LINE
  5
17D
100
AcDbEntity
  8
CUT
  6
ByLayer
 62
  256
370
   -1
100
AcDbLine
 10
148.152
 20
219.765
 11
148.586
 21
220.414
  0
LINE
  5
17E
100
AcDbEntity
  8
CUT
  6
ByLayer
 62
  256
370
   -1
100
AcDbLine
 10
148.586
 20
220.414
 11
149.235
 21
220.848
  0
LINE
  5
17F
100
AcDbEntity
  8
CUT
  6
ByLayer
 62
  256
370
   -1
100
AcDbLine
 10
149.235
 20
220.848
 11
150
 21
221
  0
LINE
  5
180
100
AcDbEntity
  8
CUT
  6
ByLayer
 62
  256
370
   -1
100
AcDbLine
 10
150
 20
221
 11
150.765
 21
220.848
  0
LINE
  5
181
100
AcDbEntity
  8
CUT
  6
ByLayer
 62
  256
370
   -1
100
AcDbLine
 10
150.765
 20
220.848
 11
151.414
 21
220.414
  0
LINE
  5
182
100
AcDbEntity
  8
CUT
  6
ByLayer
 62
  256
370
   -1
100
AcDbLine
 10
151.414
 20
220.414
 11
151.848
 21
219.765
  0
LINE
  5
183
100
AcDbEntity
  8
CUT
  6
ByLayer
 62
  256
370
   -1
100
AcDbLine
 10
151.848
 20
219.765
 11
152
 21
219
  0
LINE
  5
184
100
AcDbEntity
  8
CUT
  6
ByLayer
 62
  256
370
   -1
100
AcDbLine
 10
152
 20
219
 11
151.848
 21
218.235
  0
LINE
  5
185
100
AcDbEntity
  8
CUT
  6
ByLayer
 62
  256
370
   -1
100
AcDbLine
 10
151.848
 20
218.235
 11
151.414
 21
217.586
  0
LINE
  5
186
100
AcDbEntity
  8
CUT
  6
ByLayer
 62
  256
370
   -1
100
AcDbLine
 10
151.414
 20
217.586
 11
150.765
 21
217.152
  0
LINE
  5
187
100
AcDbEntity
  8
CUT
  6
ByLayer
 62
  256
370
   -1
100
AcDbLine
 10
150.765
 20
217.152
 11
150
 21
217
  0
LINE
  5
188
100
AcDbEntity
  8
CUT
  6
ByLayer
 62
  256
370
   -1
100
AcDbLine
 10
150
 20
217
 11
149.235
 21
217.152
  0
LINE
  5
189
100
AcDbEntity
  8
CUT
  6
ByLayer
 62
  256
370
   -1
100
AcDbLine
 10
149.235
 20
217.152
 11
148.586
 21
217.586
  0
LINE
  5
18A
100
AcDbEntity
  8
CUT
  6
ByLayer
 62
  256
370
   -1
100
AcDbLine
 10
148.586
 20
217.586
 11
148.152
 21
218.235
  0
LINE
  5
18B
100
AcDbEntity
  8
CUT
  6
ByLayer
 62
  256
370
   -1
100
AcDbLine
 10
148.152
 20
218.235
 11
148
 21
219
  0
TEXT
  5
18C
100
AcDbEntity
  8
ANNOTATION
  6
ByLayer
 62
  256
370
   -1
100
AcDbText
 10
20
 20
0
 30
0
 40
3.75
  1
Hole Schedule
 50
0
 41
1
 51
0
  7
STANDARD
 71
    0
210
0
220
0
230
1
100
AcDbText
  0
TEXT
  5
18D
100
AcDbEntity
  8
ANNOTATION
  6
ByLayer
 62
  256
370
   -1
100
AcDbText
 10
20
 20
-7.5
 30
0
 40
2.5
  1
Hole Name
 50
0
 41
1
 51
0
  7
STANDARD
 71
    0
210
0
220
0
230
1
100
AcDbText
  0
TEXT
  5
18E
100
AcDbEntity
  8
ANNOTATION
  6
ByLayer
 62
  256
370
   -1
100
AcDbText
 10
60
 20
-7.5
 30
0
 40
2.5
  1
X
 50
0
 41
1
 51
0
  7
STANDARD
 71
    0
210
0
220
0
230
1
100
AcDbText
  0
TEXT
  5
18F
100
AcDbEntity
  8
ANNOTATION
  6
ByLayer
 62
  256
370
   -1
100
AcDbText
 10
80
 20
-7.5
 30
0
 40
2.5
  1
Y
 50
0
 41
1
 51
0
  7
STANDARD
 71
    0
210
0
220
0
230
1
100
AcDbText
  0
TEXT
  5
190
100
AcDbEntity
  8
ANNOTATION
  6
ByLayer
 62
  256
370
   -1
100
AcDbText
 10
100
 20
-7.5
 30
0
 40
2.5
  1
Z
 50
0
 41
1
 51
0
  7
STANDARD
 71
    0
210
0
220
0
230
1
100
AcDbText
  0
TEXT
  5
191
100
AcDbEntity
  8
ANNOTATION
  6
ByLayer
 62
  256
370
   -1
100
AcDbText
 10
120
 20
-7.5
 30
0
 40
2.5
  1
Dia
 50
0
 41
1
 51
0
  7
STANDARD
 71
    0
210
0
220
0
230
1
100
AcDbText
  0
TEXT
  5
192
100
AcDbEntity
  8
ANNOTATION
  6
ByLayer
 62
  256
370
   -1
100
AcDbText
 10
140
 20
-7.5
 30
0
 40
2.5
  1
Depth
 50
0
 41
1
 51
0
  7
STANDARD
 71
    0
210
0
220
0
230
1
100
AcDbText
  0
LINE
  5
193
100
AcDbEntity
  8
ANNOTATION
  6
ByLayer
 62
  256
370
   -1
100
AcDbLine
 10
20
 20
-8.75
 11
160
 21
-8.75
  0
TEXT
  5
194
100
AcDbEntity
  8
ANNOTATION
  6
ByLayer
 62
  256
370
   -1
100
AcDbText
 10
20
 20
-13.125
 30
0
 40
2.5
  1
back_panel_1
 50
0
 41
1
 51
0
  7
STANDARD
 71
    0
210
0
220
0
230
1
100
AcDbText
  0
TEXT
  5
195
100
AcDbEntity
  8
ANNOTATION
  6
ByLayer
 62
  256
370
   -1
100
AcDbText
 10
60
 20
-13.125
 30
0
 40
2.5
  1
50.0
 50
0
 41
1
 51
0
  7
STANDARD
 71
    0
210
0
220
0
230
1
100
AcDbText
  0
TEXT
  5
196
100
AcDbEntity
  8
ANNOTATION
  6
ByLayer
 62
  256
370
   -1
100
AcDbText
 10
80
 20
-13.125
 30
0
 40
2.5
  1
219.0
 50
0
 41
1
 51
0
  7
STANDARD
 71
    0
210
0
220
0
230
1
100
AcDbText
  0
TEXT
  5
197
100
AcDbEntity
  8
ANNOTATION
  6
ByLayer
 62
  256
370
   -1
100
AcDbText
 10
100
 20
-13.125
 30
0
 40
2.5
  1
0.0
 50
0
 41
1
 51
0
  7
STANDARD
 71
    0
210
0
220
0
230
1
100
AcDbText
  0
TEXT
  5
198
100
AcDbEntity
  8
ANNOTATION
  6
ByLayer
 62
  256
370
   -1
100
AcDbText
 10
120
 20
-13.125
 30
0
 40
2.5
  1
4.0
 50
0
 41
1
 51
0
  7
STANDARD
 71
    0
210
0
220
0
230
1
100
AcDbText
  0
TEXT
  5
199
100
AcDbEntity
  8
ANNOTATION
  6
ByLayer
 62
  256
370
   -1
100
AcDbText
 10
140
 20
-13.125
 30
0
 40
2.5
  1
12.0
 50
0
 41
1
 51
0
  7
STANDARD
 71
    0
210
0
220
0
230
1
100
AcDbText
  0
TEXT
  5
19A
100
AcDbEntity
  8
ANNOTATION
  6
ByLayer
 62
  256
370
   -1
100
AcDbText
 10
20
 20
-16.875
 30
0
 40
2.5
  1
back_panel_2
 50
0
 41
1
 51
0
  7
STANDARD
 71
    0
210
0
220
0
230
1
100
AcDbText
  0
TEXT
  5
19B
100
AcDbEntity
  8
ANNOTATION
  6
ByLayer
 62
  256
370
   -1
100
AcDbText
 10
60
 20
-16.875
 30
0
 40
2.5
  1
150.0
 50
0
 41
1
 51
0
  7
STANDARD
 71
    0
210
0
220
0
230
1
100
AcDbText
  0
TEXT
  5
19C
100
AcDbEntity
  8
ANNOTATION
  6
ByLayer
 62
  256
370
   -1
100
AcDbText
 10
80
 20
-16.875
 30
0
 40
2.5
  1
219.0
 50
0
 41
1
 51
0
  7
STANDARD
 71
    0
210
0
220
0
230
1
100
AcDbText
  0
TEXT
  5
19D
100
AcDbEntity
  8
ANNOTATION
  6
ByLayer
 62
  256
370
   -1
100
AcDbText
 10
100
 20
-16.875
 30
0
 40
2.5
  1
0.0
 50
0
 41
1
 51
0
  7
STANDARD
 71
    0
210
0
220
0
230
1
100
AcDbText
  0
TEXT
  5
19E
100
AcDbEntity
  8
ANNOTATION
  6
ByLayer
 62
  256
370
   -1
100
AcDbText
 10
120
 20
-16.875
 30
0
 40
2.5
  1
4.0
 50
0
 41
1
 51
0
  7
STANDARD
 71
    0
210
0
220
0
230
1
100
AcDbText
  0
TEXT
  5
19F
100
AcDbEntity
  8
ANNOTATION
  6
ByLayer
 62
  256
370
   -1
100
AcDbText
 10
140
 20
-16.875
 30
0
 40
2.5
  1
12.0
 50
0
 41
1
 51
0
  7
STANDARD
 71
    0
210
0
220
0
230
1
100
AcDbText
  0
TEXT
  5
1A0
100
AcDbEntity
  8
ANNOTATION
  6
ByLayer
 62
  256
370
   -1
100
AcDbText
 10
20
 20
-20.625
 30
0
 40
2.5
  1
bottom_panel_1
 50
0
 41
1
 51
0
  7
STANDARD
 71
    0
210
0
220
0
230
1
100
AcDbText
  0
TEXT
  5
1A1
100
AcDbEntity
  8
ANNOTATION
  6
ByLayer
 62
  256
370
   -1
100
AcDbText
 10
60
 20
-20.625
 30
0
 40
2.5
  1
6.0
 50
0
 41
1
 51
0
  7
STANDARD
 71
    0
210
0
220
0
230
1
100
AcDbText
  0
TEXT
  5
1A2
100
AcDbEntity
  8
ANNOTATION
  6
ByLayer
 62
  256
370
   -1
100
AcDbText
 10
80
 20
-20.625
 30
0
 40
2.5
  1
50.0
 50
0
 41
1
 51
0
  7
STANDARD
 71
    0
210
0
220
0
230
1
100
AcDbText
  0
TEXT
  5
1A3
100
AcDbEntity
  8
ANNOTATION
  6
ByLayer
 62
  256
370
   -1
100
AcDbText
 10
100
 20
-20.625
 30
0
 40
2.5
  1
0.0
 50
0
 41
1
 51
0
  7
STANDARD
 71
    0
210
0
220
0
230
1
100
AcDbText
  0
TEXT
  5
1A4
100
AcDbEntity
  8
ANNOTATION
  6
ByLayer
 62
  256
370
   -1
100
AcDbText
 10
120
 20
-20.625
 30
0
 40
2.5
  1
4.0
 50
0
 41
1
 51
0
  7
STANDARD
 71
    0
210
0
220
0
230
1
100
AcDbText
  0
TEXT
  5
1A5
100
AcDbEntity
  8
ANNOTATION
  6
ByLayer
 62
  256
370
   -1
100
AcDbText
 10
140
 20
-20.625
 30
0
 40
2.5
  1
12.0
 50
0
 41
1
 51
0
  7
STANDARD
 71
    0
210
0
220
0
230
1
100
AcDbText
  0
TEXT
  5
1A6
100
AcDbEntity
  8
ANNOTATION
  6
ByLayer
 62
  256
370
   -1
100
AcDbText
 10
20
 20
-24.375
 30
0
 40
2.5
  1
bottom_panel_2
 50
0
 41
1
 51
0
  7
STANDARD
 71
    0
210
0
220
0
230
1
100
AcDbText
  0
TEXT
  5
1A7
100
AcDbEntity
  8
ANNOTATION
  6
ByLayer
 62
  256
370
   -1
100
AcDbText
 10
60
 20
-24.375
 30
0
 40
2.5
  1
6.0
 50
0
 41
1
 51
0
  7
STANDARD
 71
    0
210
0
220
0
230
1
100
AcDbText
  0
TEXT
  5
1A8
100
AcDbEntity
  8
ANNOTATION
  6
ByLayer
 62
  256
370
   -1
100
AcDbText
 10
80
 20
-24.375
 30
0
 40
2.5
  1
163.0
 50
0
 41
1
 51
0
  7
STANDARD
 71
    0
210
0
220
0
230
1
100
AcDbText
  0
TEXT
  5
1A9
100
AcDbEntity
  8
ANNOTATION
  6
ByLayer
 62
  256
370
   -1
100
AcDbText
 10
100
 20
-24.375
 30
0
 40
2.5
  1
0.0
 50
0
 41
1
 51
0
  7
STANDARD
 71
    0
210
0
220
0
230
1
100
AcDbText
  0
TEXT
  5
1AA
100
AcDbEntity
  8
ANNOTATION
  6
ByLayer
 62
  256
370
   -1
100
AcDbText
 10
120
 20
-24.375
 30
0
 40
2.5
  1
4.0
 50
0
 41
1
 51
0
  7
STANDARD
 71
    0
210
0
220
0
230
1
100
AcDbText
  0
TEXT
  5
1AB
100
AcDbEntity
  8
ANNOTATION
  6
ByLayer
 62
  256
370
   -1
100
AcDbText
 10
140
 20
-24.375
 30
0
 40
2.5
  1
12.0
 50
0
 41
1
 51
0
  7
STANDARD
 71
    0
210
0
220
0
230
1
100
AcDbText
  0
TEXT
  5
1AC
100
AcDbEntity
  8
ANNOTATION
  6
ByLayer
 62
  256
370
   -1
100
AcDbText
 10
20
 20
-28.125
 30
0
 40
2.5
  1
dowel_front_1
 50
0
 41
1
 51
0
  7
STANDARD
 71
    0
210
0
220
0
230
1
100
AcDbText
  0
TEXT
  5
1AD
100
AcDbEntity
  8
ANNOTATION
  6
ByLayer
 62
  256
370
   -1
100
AcDbText
 10
60
 20
-28.125
 30
0
 40
2.5
  1
50.0
 50
0
 41
1
 51
0
  7
STANDARD
 71
    0
210
0
220
0
230
1
100
AcDbText
  0
TEXT
  5
1AE
100
AcDbEntity
  8
ANNOTATION
  6
ByLayer
 62
  256
370
   -1
100
AcDbText
 10
80
 20
-28.125
 30
0
 40
2.5
  1
0.0
 50
0
 41
1
 51
0
  7
STANDARD
 71
    0
210
0
220
0
230
1
100
AcDbText
  0
TEXT
  5
1AF
100
AcDbEntity
  8
ANNOTATION
  6
ByLayer
 62
  256
370
   -1
100
AcDbText
 10
100
 20
-28.125
 30
0
 40
2.5
  1
6.0
 50
0
 41
1
 51
0
  7
STANDARD
 71
    0
210
0
220
0
230
1
100
AcDbText
  0
TEXT
  5
1B0
100
AcDbEntity
  8
ANNOTATION
  6
ByLayer
 62
  256
370
   -1
100
AcDbText
 10
120
 20
-28.125
 30
0
 40
2.5
  1
6.0
 50
0
 41
1
 51
0
  7
STANDARD
 71
    0
210
0
220
0
230
1
100
AcDbText
  0
TEXT
  5
1B1
100
AcDbEntity
  8
ANNOTATION
  6
ByLayer
 62
  256
370
   -1
100
AcDbText
 10
140
 20
-28.125
 30
0
 40
2.5
  1
20.0
 50
0
 41
1
 51
0
  7
STANDARD
 71
    0
210
0
220
0
230
1
100
AcDbText
  0
TEXT
  5
1B2
100
AcDbEntity
  8
ANNOTATION
  6
ByLayer
 62
  256
370
   -1
100
AcDbText
 10
20
 20
-31.875
 30
0
 40
2.5
  1
dowel_front_2
 50
0
 41
1
 51
0
  7
STANDARD
 71
    0
210
0
220
0
230
1
100
AcDbText
  0
TEXT
  5
1B3
100
AcDbEntity
  8
ANNOTATION
  6
ByLayer
 62
  256
370
   -1
100
AcDbText
 10
60
 20
-31.875
 30
0
 40
2.5
  1
150.0
 50
0
 41
1
 51
0
  7
STANDARD
 71
    0
210
0
220
0
230
1
100
AcDbText
  0
TEXT
  5
1B4
100
AcDbEntity
  8
ANNOTATION
  6
ByLayer
 62
  256
370
   -1
100
AcDbText
 10
80
 20
-31.875
 30
0
 40
2.5
  1
0.0
 50
0
 41
1
 51
0
  7
STANDARD
 71
    0
210
0
220
0
230
1
100
AcDbText
  0
TEXT
  5
1B5
100
AcDbEntity
  8
ANNOTATION
  6
ByLayer
 62
  256
370
   -1
100
AcDbText
 10
100
 20
-31.875
 30
0
 40
2.5
  1
6.0
 50
0
 41
1
 51
0
  7
STANDARD
 71
    0
210
0
220
0
230
1
100
AcDbText
  0
TEXT
  5
1B6
100
AcDbEntity
  8
ANNOTATION
  6
ByLayer
 62
  256
370
   -1
100
AcDbText
 10
120
 20
-31.875
 30
0
 40
2.5
  1
6.0
 50
0
 41
1
 51
0
  7
STANDARD
 71
    0
210
0
220
0
230
1
100
AcDbText
  0
TEXT
  5
1B7
100
AcDbEntity
  8
ANNOTATION
  6
ByLayer
 62
  256
370
   -1
100
AcDbText
 10
140
 20
-31.875
 30
0
 40
2.5
  1
20.0
 50
0
 41
1
 51
0
  7
STANDARD
 71
    0
210
0
220
0
230
1
100
AcDbText
  0
TEXT
  5
1B8
100
AcDbEntity
  8
ANNOTATION
  6
ByLayer
 62
  256
370
   -1
100
AcDbText
 10
20
 20
-35.625
 30
0
 40
2.5
  1
slide_pilot_35
 50
0
 41
1
 51
0
  7
STANDARD
 71
    0
210
0
220
0
230
1
100
AcDbText
  0
TEXT
  5
1B9
100
AcDbEntity
  8
ANNOTATION
  6
ByLayer
 62
  256
370
   -1
100
AcDbText
 10
60
 20
-35.625
 30
0
 40
2.5
  1
72.5
 50
0
 41
1
 51
0
  7
STANDARD
 71
    0
210
0
220
0
230
1
100
AcDbText
  0
TEXT
  5
1BA
100
AcDbEntity
  8
ANNOTATION
  6
ByLayer
 62
  256
370
   -1
100
AcDbText
 10
80
 20
-35.625
 30
0
 40
2.5
  1
35.0
 50
0
 41
1
 51
0
  7
STANDARD
 71
    0
210
0
220
0
230
1
100
AcDbText
  0
TEXT
  5
1BB
100
AcDbEntity
  8
ANNOTATION
  6
ByLayer
 62
  256
370
   -1
100
AcDbText
 10
100
 20
-35.625
 30
0
 40
2.5
  1
0.0
 50
0
 41
1
 51
0
  7
STANDARD
 71
    0
210
0
220
0
230
1
100
AcDbText
  0
TEXT
  5
1BC
100
AcDbEntity
  8
ANNOTATION
  6
ByLayer
 62
  256
370
   -1
100
AcDbText
 10
120
 20
-35.625
 30
0
 40
2.5
  1
2.5
 50
0
 41
1
 51
0
  7
STANDARD
 71
    0
210
0
220
0
230
1
100
AcDbText
  0
TEXT
  5
1BD
100
AcDbEntity
  8
ANNOTATION
  6
ByLayer
 62
  256
370
   -1
100
AcDbText
 10
140
 20
-35.625
 30
0
 40
2.5
  1
2.0
 50
0
 41
1
 51
0
  7
STANDARD
 71
    0
210
0
220
0
230
1
100
AcDbText
  0
TEXT
  5
1BE
100
AcDbEntity
  8
ANNOTATION
  6
ByLayer
 62
  256
370
   -1
100
AcDbText
 10
20
 20
-39.375
 30
0
 40
2.5
  1
slide_pilot_163
 50
0
 41
1
 51
0
  7
STANDARD
 71
    0
210
0
220
0
230
1
100
AcDbText
  0
TEXT
  5
1BF
100
AcDbEntity
  8
ANNOTATION
  6
ByLayer
 62
  256
370
   -1
100
AcDbText
 10
60
 20
-39.375
 30
0
 40
2.5
  1
72.5
 50
0
 41
1
 51
0
  7
STANDARD
 71
    0
210
0
220
0
230
1
100
AcDbText
  0
TEXT
  5
1C0
100
AcDbEntity
  8
ANNOTATION
  6
ByLayer
 62
  256
370
   -1
100
AcDbText
 10
80
 20
-39.375
 30
0
 40
2.5
  1
163.0
 50
0
 41
1
 51
0
  7
STANDARD
 71
    0
210
0
220
0
230
1
100
AcDbText
  0
TEXT
  5
1C1
100
AcDbEntity
  8
ANNOTATION
  6
ByLayer
 62
  256
370
   -1
100
AcDbText
 10
100
 20
-39.375
 30
0
 40
2.5
  1
0.0
 50
0
 41
1
 51
0
  7
STANDARD
 71
    0
210
0
220
0
230
1
100
AcDbText
  0
TEXT
  5
1C2
100
AcDbEntity
  8
ANNOTATION
  6
ByLayer
 62
  256
370
   -1
100
AcDbText
 10
120
 20
-39.375
 30
0
 40
2.5
  1
2.5
 50
0
 41
1
 51
0
  7
STANDARD
 71
    0
210
0
220
0
230
1
100
AcDbText
  0
TEXT
  5
1C3
100
AcDbEntity
  8
ANNOTATION
  6
ByLayer
 62
  256
370
   -1
100
AcDbText
 10
140
 20
-39.375
 30
0
 40
2.5
  1
2.0
 50
0
 41
1
 51
0
  7
STANDARD
 71
    0
210
0
220
0
230
1
100
AcDbText
  0
DIMENSION
  5
1C4
100
AcDbEntity
  8
DIMENSION
  6
ByLayer
 62
  256
370
   -1
100
AcDbDimension
  2
*D1
 10
0
 20
-25
 30
0
 11
3
 21
-25
 31
0
 70
   32
  1
<>
 71
    5
 72
    0
  3
Standard
 53
0
210
0
220
0
230
1
100
AcDbAlignedDimension
 13
0
 23
0
 33
0
 14
6
 24
0
 34
0
100
AcDbRotatedDimension
  0
DIMENSION
  5
1C5
100
AcDbEntity
  8
DIMENSION
  6
ByLayer
 62
  256
370
   -1
100
AcDbDimension
  2
*D2
 10
0
 20
-33
 30
0
 11
25
 21
-33
 31
0
 70
   32
  1
<>
 71
    5
 72
    0
  3
Standard
 53
0
210
0
220
0
230
1
100
AcDbAlignedDimension
 13
0
 23
0
 33
0
 14
50
 24
0
 34
0
100
AcDbRotatedDimension
  0
DIMENSION
  5
1C6
100
AcDbEntity
  8
DIMENSION
  6
ByLayer
 62
  256
370
   -1
100
AcDbDimension
  2
*D3
 10
0
 20
-41
 30
0
 11
36.25
 21
-41
 31
0
 70
   32
  1
<>
 71
    5
 72
    0
  3
Standard
 53
0
210
0
220
0
230
1
100
AcDbAlignedDimension
 13
0
 23
0
 33
0
 14
72.5
 24
0
 34
0
100
AcDbRotatedDimension
  0
DIMENSION
  5
1C7
100
AcDbEntity
  8
DIMENSION
  6
ByLayer
 62
  256
370
   -1
100
AcDbDimension
  2
*D4
 10
0
 20
-49
 30
0
 11
75
 21
-49
 31
0
 70
   32
  1
<>
 71
    5
 72
    0
  3
Standard
 53
0
210
0
220
0
230
1
100
AcDbAlignedDimension
 13
0
 23
0
 33
0
 14
150
 24
0
 34
0
100
AcDbRotatedDimension
  0
DIMENSION
  5
1C8
100
AcDbEntity
  8
DIMENSION
  6
ByLayer
 62
  256
370
   -1
100
AcDbDimension
  2
*D5
 10
0
 20
-57
 30
0
 11
0
 21
-55.875
 31
0
 70
   32
  1
<>
 71
    5
 72
    0
  3
Standard
 53
0
210
0
220
0
230
1
100
AcDbAlignedDimension
 13
0
 23
0
 33
0
 14
0
 24
0
 34
0
100
AcDbRotatedDimension
  0
DIMENSION
  5
1C9
100
AcDbEntity
  8
DIMENSION
  6
ByLayer
 62
  256
370
   -1
100
AcDbDimension
  2
*D6
 10
0
 20
25
 30
0
 11
75
 21
25
 31
0
 70
   32
  1
<>
 71
    5
 72
    0
  3
Standard
 53
0
210
0
220
0
230
1
100
AcDbAlignedDimension
 13
0
 23
0
 33
0
 14
150
 24
0
 34
0
100
AcDbRotatedDimension
  0
DIMENSION
  5
1CA
100
AcDbEntity
  8
DIMENSION
  6
ByLayer
 62
  256
370
   -1
100
AcDbDimension
  2
*D7
 10
0
 20
33
 30
0
 11
36.25
 21
33
 31
0
 70
   32
  1
<>
 71
    5
 72
    0
  3
Standard
 53
0
210
0
220
0
230
1
100
AcDbAlignedDimension
 13
0
 23
0
 33
0
 14
72.5
 24
0
 34
0
100
AcDbRotatedDimension
  0
DIMENSION
  5
1CB
100
AcDbEntity
  8
DIMENSION
  6
ByLayer
 62
  256
370
   -1
100
AcDbDimension
  2
*D8
 10
0
 20
41
 30
0
 11
25
 21
41
 31
0
 70
   32
  1
<>
 71
    5
 72
    0
  3
Standard
 53
0
210
0
220
0
230
1
100
AcDbAlignedDimension
 13
0
 23
0
 33
0
 14
50
 24
0
 34
0
100
AcDbRotatedDimension
  0
DIMENSION
  5
1CC
100
AcDbEntity
  8
DIMENSION
  6
ByLayer
 62
  256
370
   -1
100
AcDbDimension
  2
*D9
 10
0
 20
49
 30
0
 11
3
 21
49
 31
0
 70
   32
  1
<>
 71
    5
 72
    0
  3
Standard
 53
0
210
0
220
0
230
1
100
AcDbAlignedDimension
 13
0
 23
0
 33
0
 14
6
 24
0
 34
0
100
AcDbRotatedDimension
  0
DIMENSION
  5
1CD
100
AcDbEntity
  8
DIMENSION
  6
ByLayer
 62
  256
370
   -1
100
AcDbDimension
  2
*D10
 10
0
 20
57
 30
0
 11
0
 21
58.125
 31
0
 70
   32
  1
<>
 71
    5
 72
    0
  3
Standard
 53
0
210
0
220
0
230
1
100
AcDbAlignedDimension
 13
0
 23
0
 33
0
 14
0
 24
0
 34
0
100
AcDbRotatedDimension
  0
DIMENSION
  5
1CE
100
AcDbEntity
  8
DIMENSION
  6
ByLayer
 62
  256
370
   -1
100
AcDbDimension
  2
*D11
 10
-25
 20
0
 30
0
 11
-26.125
 21
6.888638245203862e-17
 31
0
 70
   32
  1
<>
 71
    5
 72
    0
  3
Standard
 53
0
210
0
220
0
230
1
100
AcDbAlignedDimension
 13
0
 23
0
 33
0
 14
0
 24
0
 34
0
 50
90
100
AcDbRotatedDimension
  0
DIMENSION
  5
1CF
100
AcDbEntity
  8
DIMENSION
  6
ByLayer
 62
  256
370
   -1
100
AcDbDimension
  2
*D12
 10
-33
 20
0
 30
0
 11
-33
 21
17.5
 31
0
 70
   32
  1
<>
 71
    5
 72
    0
  3
Standard
 53
0
210
0
220
0
230
1
100
AcDbAlignedDimension
 13
0
 23
0
 33
0
 14
0
 24
35
 34
0
 50
90
100
AcDbRotatedDimension
  0
DIMENSION
  5
1D0
100
AcDbEntity
  8
DIMENSION
  6
ByLayer
 62
  256
370
   -1
100
AcDbDimension
  2
*D13
 10
-41
 20
0
 30
0
 11
-41
 21
25
 31
0
 70
   32
  1
<>
 71
    5
 72
    0
  3
Standard
 53
0
210
0
220
0
230
1
100
AcDbAlignedDimension
 13
0
 23
0
 33
0
 14
0
 24
50
 34
0
 50
90
100
AcDbRotatedDimension
  0
DIMENSION
  5
1D1
100
AcDbEntity
  8
DIMENSION
  6
ByLayer
 62
  256
370
   -1
100
AcDbDimension
  2
*D14
 10
-49
 20
0
 30
0
 11
-49
 21
81.5
 31
0
 70
   32
  1
<>
 71
    5
 72
    0
  3
Standard
 53
0
210
0
220
0
230
1
100
AcDbAlignedDimension
 13
0
 23
0
 33
0
 14
0
 24
163
 34
0
 50
90
100
AcDbRotatedDimension
  0
DIMENSION
  5
1D2
100
AcDbEntity
  8
DIMENSION
  6
ByLayer
 62
  256
370
   -1
100
AcDbDimension
  2
*D15
 10
-57
 20
0
 30
0
 11
-57
 21
109.5
 31
0
 70
   32
  1
<>
 71
    5
 72
    0
  3
Standard
 53
0
210
0
220
0
230
1
100
AcDbAlignedDimension
 13
0
 23
0
 33
0
 14
0
 24
219
 34
0
 50
90
100
AcDbRotatedDimension
  0
DIMENSION
  5
1D3
100
AcDbEntity
  8
DIMENSION
  6
ByLayer
 62
  256
370
   -1
100
AcDbDimension
  2
*D16
 10
-65
 20
0
 30
0
 11
-66.125
 21
6.888638245203862e-17
 31
0
 70
   32
  1
<>
 71
    5
 72
    0
  3
Standard
 53
0
210
0
220
0
230
1
100
AcDbAlignedDimension
 13
0
 23
0
 33
0
 14
0
 24
0
 34
0
 50
90
100
AcDbRotatedDimension
  0
DIMENSION
  5
1D4
100
AcDbEntity
  8
DIMENSION
  6
ByLayer
 62
  256
370
   -1
100
AcDbDimension
  2
*D17
 10
25
 20
0
 30
0
 11
25
 21
109.5
 31
0
 70
   32
  1
<>
 71
    5
 72
    0
  3
Standard
 53
0
210
0
220
0
230
1
100
AcDbAlignedDimension
 13
0
 23
0
 33
0
 14
0
 24
219
 34
0
 50
90
100
AcDbRotatedDimension
  0
DIMENSION
  5
1D5
100
AcDbEntity
  8
DIMENSION
  6
ByLayer
 62
  256
370
   -1
100
AcDbDimension
  2
*D18
 10
33
 20
0
 30
0
 11
33
 21
81.5
 31
0
 70
   32
  1
<>
 71
    5
 72
    0
  3
Standard
 53
0
210
0
220
0
230
1
100
AcDbAlignedDimension
 13
0
 23
0
 33
0
 14
0
 24
163
 34
0
 50
90
100
AcDbRotatedDimension
  0
DIMENSION
  5
1D6
100
AcDbEntity
  8
DIMENSION
  6
ByLayer
 62
  256
370
   -1
100
AcDbDimension
  2
*D19
 10
41
 20
0
 30
0
 11
41
 21
25
 31
0
 70
   32
  1
<>
 71
    5
 72
    0
  3
Standard
 53
0
210
0
220
0
230
1
100
AcDbAlignedDimension
 13
0
 23
0
 33
0
 14
0
 24
50
 34
0
 50
90
100
AcDbRotatedDimension
  0
DIMENSION
  5
1D7
100
AcDbEntity
  8
DIMENSION
  6
ByLayer
 62
  256
370
   -1
100
AcDbDimension
  2
*D20
 10
49
 20
0
 30
0
 11
49
 21
17.5
 31
0
 70
   32
  1
<>
 71
    5
 72
    0
  3
Standard
 53
0
210
0
220
0
230
1
100
AcDbAlignedDimension
 13
0
 23
0
 33
0
 14
0
 24
35
 34
0
 50
90
100
AcDbRotatedDimension
  0
DIMENSION
  5
1D8
100
AcDbEntity
  8
DIMENSION
  6
ByLayer
 62
  256
370
   -1
100
AcDbDimension
  2
*D21
 10
57
 20
0
 30
0
 11
55.875
 21
6.888638245203862e-17
 31
0
 70
   32
  1
<>
 71
    5
 72
    0
  3
Standard
 53
0
210
0
220
0
230
1
100
AcDbAlignedDimension
 13
0
 23
0
 33
0
 14
0
 24
0
 34
0
 50
90
100
AcDbRotatedDimension
  0
DIMENSION
  5
1D9
100
AcDbEntity
  8
DIMENSION
  6
ByLayer
 62
  256
370
   -1
100
AcDbDimension
  2
*D22
 10
65
 20
0
 30
0
 11
63.875
 21
6.888638245203862e-17
 31
0
 70
   32
  1
<>
 71
    5
 72
    0
  3
Standard
 53
0
210
0
220
0
230
1
100
AcDbAlignedDimension
 13
0
 23
0
 33
0
 14
0
 24
0
 34
0
 50
90
100
AcDbRotatedDimension
  0
TEXT
  5
1DA
100
AcDbEntity
  8
ANNOTATION
  6
ByLayer
 62
  256
370
   -1
100
AcDbText
 10
0
 20
0
 30
0
 40
5
  1
Legend:
 50
0
 41
1
 51
0
  7
STANDARD
 71
    0
210
0
220
0
230
1
100
AcDbText
  0
TEXT
  5
1DB
100
AcDbEntity
  8
ANNOTATION
  6
ByLayer
 62
  256
370
   -1
100
AcDbText
 10
0
 20
-10
 30
0
 40
5
  1
- CUT layer (red): Panel outline
 50
0
 41
1
 51
0
  7
STANDARD
 71
    0
210
0
220
0
230
1
100
AcDbText
  0
TEXT
  5
1DC
100
AcDbEntity
  8
ANNOTATION
  6
ByLayer
 62
  256
370
   -1
100
AcDbText
 10
0
 20
-20
 30
0
 40
5
  1
- DRILL layer (blue): Holes to be drilled
 50
0
 41
1
 51
0
  7
STANDARD
 71
    0
210
0
220
0
230
1
100
AcDbText
  0
TEXT
  5
1DD
100
AcDbEntity
  8
ANNOTATION
  6
ByLayer
 62
  256
370
   -1
100
AcDbText
 10
0
 20
-30
 30
0
 40
5
  1
- DIMENSION layer (green): Panel and hole dimensions
 50
0
 41
1
 51
0
  7
STANDARD
 71
    0
210
0
220
0
230
1
100
AcDbText
  0
TEXT
  5
1DE
100
AcDbEntity
  8
ANNOTATION
  6
ByLayer
 62
  256
370
   -1
100
AcDbText
 10
0
 20
-40
 30
0
 40
5
  1
- ANNOTATION layer (magenta): Hole dimensions (d=diameter, h=depth).
 50
0
 41
1
 51
0
  7
STANDARD
 71
    0
210
0
220
0
230
1
100
AcDbText
  0
TEXT
  5
1DF
100
AcDbEntity
  8
ANNOTATION
  6
ByLayer
 62
  256
370
   -1
100
AcDbText
 10
0
 20
-50
 30
0
 40
5
  1
- For side-drilled holes, Z-coordinate is included (e.g., d10 h20 z9.5).
 50
0
 41
1
 51
0
  7
STANDARD
 71
    0
210
0
220
0
230
1
100
AcDbText
  0
TEXT
  5
1E0
100
AcDbEntity
  8
ANNOTATION
  6
ByLayer
 62
  256
370
   -1
100
AcDbText
 10
0
 20
-60
 30
0
 40
5
  1
- Side-drilled holes are also marked with a blue cross on the DRILL layer.
 50
0
 41
1
 51
0
  7
STANDARD
 71
    0
210
0
220
0
230
1
100
AcDbText
  0
ENDSEC
  0
SECTION
  2
OBJECTS
  0
DICTIONARY
  5
C
330
0
100
AcDbDictionary
281
    1
  3
ACAD_GROUP
350
D
  0
DICTIONARY
  5
D
330
C
100
AcDbDictionary
281
    1
  0
PLOTSETTINGS
  5
1E1
100
AcDbPlotSettings
  6
1x1
 40
0
 41
0
 42
0
 43
0
  0
ENDSEC
  0
EOF
