999
DXF from OpenSCAD
  0
SECTION
  2
HEADER
  9
$ACADVER
  1
AC1006
  9
$INSBASE
 10
0.0
 20
0.0
 30
0.0
  9
$EXTMIN
 10
0
 20
0
  9
$EXTMAX
 10
2300
 20
230
  9
$LINMIN
 10
0
 20
0
  9
$LINMAX
 10
2300
 20
230
  0
ENDSEC
  0
SECTION
  2
TABLES
  0
TABLE
  2
LTYPE
 70
1
  0
LTYPE
  2
CONTINUOUS
 70
64
  3
Solid line
 72
65
 73
0
 40
0.000000
  0
ENDTAB
  0
TABLE
  2
LAYER
 70
6
  0
LAYER
  2
0
 70
64
 62
7
  6
CONTINUOUS
  0
ENDTAB
  0
TABLE
  2
STYLE
 70
0
  0
ENDTAB
  0
ENDSEC
  0
SECTION
  2
BLOCKS
  0
ENDSEC
  0
SECTION
  2
ENTITIES
  0
LWPOLYLINE
100
AcDbEntity
  8
0
100
AcDbPolyline
 90
4
 70
1
 10
0
 20
0
 10
2300
 20
0
 10
2300
 20
230
 10
0
 20
230
  0
LWPOLYLINE
100
AcDbEntity
  8
0
100
AcDbPolyline
 90
16
 70
1
 10
7.5
 20
50
 10
7.65224
 20
50.7654
 10
8.08579
 20
51.4142
 10
8.73463
 20
51.8478
 10
9.5
 20
52
 10
10.2654
 20
51.8478
 10
10.9142
 20
51.4142
 10
11.3478
 20
50.7654
 10
11.5
 20
50
 10
11.3478
 20
49.2346
 10
10.9142
 20
48.5858
 10
10.2654
 20
48.1522
 10
9.5
 20
48
 10
8.73463
 20
48.1522
 10
8.08579
 20
48.5858
 10
7.65224
 20
49.2346
  0
LWPOLYLINE
100
AcDbEntity
  8
0
100
AcDbPolyline
 90
16
 70
1
 10
7.5
 20
180
 10
7.65224
 20
180.765
 10
8.08579
 20
181.414
 10
8.73463
 20
181.848
 10
9.5
 20
182
 10
10.2654
 20
181.848
 10
10.9142
 20
181.414
 10
11.3478
 20
180.765
 10
11.5
 20
180
 10
11.3478
 20
179.235
 10
10.9142
 20
178.586
 10
10.2654
 20
178.152
 10
9.5
 20
178
 10
8.73463
 20
178.152
 10
8.08579
 20
178.586
 10
7.65224
 20
179.235
  0
LWPOLYLINE
100
AcDbEntity
  8
0
100
AcDbPolyline
 90
16
 70
1
 10
100.25
 20
6.5
 10
100.345
 20
6.97835
 10
100.616
 20
7.38388
 10
101.022
 20
7.65485
 10
101.5
 20
7.75
 10
101.978
 20
7.65485
 10
102.384
 20
7.38388
 10
102.655
 20
6.97835
 10
102.75
 20
6.5
 10
102.655
 20
6.02165
 10
102.384
 20
5.61612
 10
101.978
 20
5.34515
 10
101.5
 20
5.25
 10
101.022
 20
5.34515
 10
100.616
 20
5.61612
 10
100.345
 20
6.02165
  0
LWPOLYLINE
100
AcDbEntity
  8
0
100
AcDbPolyline
 90
16
 70
1
 10
100.25
 20
35
 10
100.345
 20
35.4784
 10
100.616
 20
35.8839
 10
101.022
 20
36.1548
 10
101.5
 20
36.25
 10
101.978
 20
36.1548
 10
102.384
 20
35.8839
 10
102.655
 20
35.4784
 10
102.75
 20
35
 10
102.655
 20
34.5216
 10
102.384
 20
34.1161
 10
101.978
 20
33.8451
 10
101.5
 20
33.75
 10
101.022
 20
33.8451
 10
100.616
 20
34.1161
 10
100.345
 20
34.5216
  0
LWPOLYLINE
100
AcDbEntity
  8
0
100
AcDbPolyline
 90
16
 70
1
 10
100.25
 20
51
 10
100.345
 20
51.4784
 10
100.616
 20
51.8839
 10
101.022
 20
52.1548
 10
101.5
 20
52.25
 10
101.978
 20
52.1548
 10
102.384
 20
51.8839
 10
102.655
 20
51.4784
 10
102.75
 20
51
 10
102.655
 20
50.5216
 10
102.384
 20
50.1161
 10
101.978
 20
49.8451
 10
101.5
 20
49.75
 10
101.022
 20
49.8451
 10
100.616
 20
50.1161
 10
100.345
 20
50.5216
  0
LWPOLYLINE
100
AcDbEntity
  8
0
100
AcDbPolyline
 90
16
 70
1
 10
100.25
 20
76
 10
100.345
 20
76.4784
 10
100.616
 20
76.8839
 10
101.022
 20
77.1548
 10
101.5
 20
77.25
 10
101.978
 20
77.1548
 10
102.384
 20
76.8839
 10
102.655
 20
76.4784
 10
102.75
 20
76
 10
102.655
 20
75.5216
 10
102.384
 20
75.1161
 10
101.978
 20
74.8451
 10
101.5
 20
74.75
 10
101.022
 20
74.8451
 10
100.616
 20
75.1161
 10
100.345
 20
75.5216
  0
LWPOLYLINE
100
AcDbEntity
  8
0
100
AcDbPolyline
 90
16
 70
1
 10
100.25
 20
99
 10
100.345
 20
99.4784
 10
100.616
 20
99.8839
 10
101.022
 20
100.155
 10
101.5
 20
100.25
 10
101.978
 20
100.155
 10
102.384
 20
99.8839
 10
102.655
 20
99.4784
 10
102.75
 20
99
 10
102.655
 20
98.5216
 10
102.384
 20
98.1161
 10
101.978
 20
97.8451
 10
101.5
 20
97.75
 10
101.022
 20
97.8451
 10
100.616
 20
98.1161
 10
100.345
 20
98.5216
  0
LWPOLYLINE
100
AcDbEntity
  8
0
100
AcDbPolyline
 90
16
 70
1
 10
100.25
 20
115
 10
100.345
 20
115.478
 10
100.616
 20
115.884
 10
101.022
 20
116.155
 10
101.5
 20
116.25
 10
101.978
 20
116.155
 10
102.384
 20
115.884
 10
102.655
 20
115.478
 10
102.75
 20
115
 10
102.655
 20
114.522
 10
102.384
 20
114.116
 10
101.978
 20
113.845
 10
101.5
 20
113.75
 10
101.022
 20
113.845
 10
100.616
 20
114.116
 10
100.345
 20
114.522
  0
LWPOLYLINE
100
AcDbEntity
  8
0
100
AcDbPolyline
 90
16
 70
1
 10
310.25
 20
6.5
 10
310.345
 20
6.97835
 10
310.616
 20
7.38388
 10
311.022
 20
7.65485
 10
311.5
 20
7.75
 10
311.978
 20
7.65485
 10
312.384
 20
7.38388
 10
312.655
 20
6.97835
 10
312.75
 20
6.5
 10
312.655
 20
6.02165
 10
312.384
 20
5.61612
 10
311.978
 20
5.34515
 10
311.5
 20
5.25
 10
311.022
 20
5.34515
 10
310.616
 20
5.61612
 10
310.345
 20
6.02165
  0
LWPOLYLINE
100
AcDbEntity
  8
0
100
AcDbPolyline
 90
16
 70
1
 10
310.25
 20
35
 10
310.345
 20
35.4784
 10
310.616
 20
35.8839
 10
311.022
 20
36.1548
 10
311.5
 20
36.25
 10
311.978
 20
36.1548
 10
312.384
 20
35.8839
 10
312.655
 20
35.4784
 10
312.75
 20
35
 10
312.655
 20
34.5216
 10
312.384
 20
34.1161
 10
311.978
 20
33.8451
 10
311.5
 20
33.75
 10
311.022
 20
33.8451
 10
310.616
 20
34.1161
 10
310.345
 20
34.5216
  0
LWPOLYLINE
100
AcDbEntity
  8
0
100
AcDbPolyline
 90
16
 70
1
 10
310.25
 20
51
 10
310.345
 20
51.4784
 10
310.616
 20
51.8839
 10
311.022
 20
52.1548
 10
311.5
 20
52.25
 10
311.978
 20
52.1548
 10
312.384
 20
51.8839
 10
312.655
 20
51.4784
 10
312.75
 20
51
 10
312.655
 20
50.5216
 10
312.384
 20
50.1161
 10
311.978
 20
49.8451
 10
311.5
 20
49.75
 10
311.022
 20
49.8451
 10
310.616
 20
50.1161
 10
310.345
 20
50.5216
  0
LWPOLYLINE
100
AcDbEntity
  8
0
100
AcDbPolyline
 90
16
 70
1
 10
310.25
 20
76
 10
310.345
 20
76.4784
 10
310.616
 20
76.8839
 10
311.022
 20
77.1548
 10
311.5
 20
77.25
 10
311.978
 20
77.1548
 10
312.384
 20
76.8839
 10
312.655
 20
76.4784
 10
312.75
 20
76
 10
312.655
 20
75.5216
 10
312.384
 20
75.1161
 10
311.978
 20
74.8451
 10
311.5
 20
74.75
 10
311.022
 20
74.8451
 10
310.616
 20
75.1161
 10
310.345
 20
75.5216
  0
LWPOLYLINE
100
AcDbEntity
  8
0
100
AcDbPolyline
 90
16
 70
1
 10
310.25
 20
99
 10
310.345
 20
99.4784
 10
310.616
 20
99.8839
 10
311.022
 20
100.155
 10
311.5
 20
100.25
 10
311.978
 20
100.155
 10
312.384
 20
99.8839
 10
312.655
 20
99.4784
 10
312.75
 20
99
 10
312.655
 20
98.5216
 10
312.384
 20
98.1161
 10
311.978
 20
97.8451
 10
311.5
 20
97.75
 10
311.022
 20
97.8451
 10
310.616
 20
98.1161
 10
310.345
 20
98.5216
  0
LWPOLYLINE
100
AcDbEntity
  8
0
100
AcDbPolyline
 90
16
 70
1
 10
310.25
 20
115
 10
310.345
 20
115.478
 10
310.616
 20
115.884
 10
311.022
 20
116.155
 10
311.5
 20
116.25
 10
311.978
 20
116.155
 10
312.384
 20
115.884
 10
312.655
 20
115.478
 10
312.75
 20
115
 10
312.655
 20
114.522
 10
312.384
 20
114.116
 10
311.978
 20
113.845
 10
311.5
 20
113.75
 10
311.022
 20
113.845
 10
310.616
 20
114.116
 10
310.345
 20
114.522
  0
LWPOLYLINE
100
AcDbEntity
  8
0
100
AcDbPolyline
 90
16
 70
1
 10
520.25
 20
6.5
 10
520.345
 20
6.97835
 10
520.616
 20
7.38388
 10
521.022
 20
7.65485
 10
521.5
 20
7.75
 10
521.978
 20
7.65485
 10
522.384
 20
7.38388
 10
522.655
 20
6.97835
 10
522.75
 20
6.5
 10
522.655
 20
6.02165
 10
522.384
 20
5.61612
 10
521.978
 20
5.34515
 10
521.5
 20
5.25
 10
521.022
 20
5.34515
 10
520.616
 20
5.61612
 10
520.345
 20
6.02165
  0
LWPOLYLINE
100
AcDbEntity
  8
0
100
AcDbPolyline
 90
16
 70
1
 10
520.25
 20
35
 10
520.345
 20
35.4784
 10
520.616
 20
35.8839
 10
521.022
 20
36.1548
 10
521.5
 20
36.25
 10
521.978
 20
36.1548
 10
522.384
 20
35.8839
 10
522.655
 20
35.4784
 10
522.75
 20
35
 10
522.655
 20
34.5216
 10
522.384
 20
34.1161
 10
521.978
 20
33.8451
 10
521.5
 20
33.75
 10
521.022
 20
33.8451
 10
520.616
 20
34.1161
 10
520.345
 20
34.5216
  0
LWPOLYLINE
100
AcDbEntity
  8
0
100
AcDbPolyline
 90
16
 70
1
 10
520.25
 20
51
 10
520.345
 20
51.4784
 10
520.616
 20
51.8839
 10
521.022
 20
52.1548
 10
521.5
 20
52.25
 10
521.978
 20
52.1548
 10
522.384
 20
51.8839
 10
522.655
 20
51.4784
 10
522.75
 20
51
 10
522.655
 20
50.5216
 10
522.384
 20
50.1161
 10
521.978
 20
49.8451
 10
521.5
 20
49.75
 10
521.022
 20
49.8451
 10
520.616
 20
50.1161
 10
520.345
 20
50.5216
  0
LWPOLYLINE
100
AcDbEntity
  8
0
100
AcDbPolyline
 90
16
 70
1
 10
520.25
 20
76
 10
520.345
 20
76.4784
 10
520.616
 20
76.8839
 10
521.022
 20
77.1548
 10
521.5
 20
77.25
 10
521.978
 20
77.1548
 10
522.384
 20
76.8839
 10
522.655
 20
76.4784
 10
522.75
 20
76
 10
522.655
 20
75.5216
 10
522.384
 20
75.1161
 10
521.978
 20
74.8451
 10
521.5
 20
74.75
 10
521.022
 20
74.8451
 10
520.616
 20
75.1161
 10
520.345
 20
75.5216
  0
LWPOLYLINE
100
AcDbEntity
  8
0
100
AcDbPolyline
 90
16
 70
1
 10
520.25
 20
99
 10
520.345
 20
99.4784
 10
520.616
 20
99.8839
 10
521.022
 20
100.155
 10
521.5
 20
100.25
 10
521.978
 20
100.155
 10
522.384
 20
99.8839
 10
522.655
 20
99.4784
 10
522.75
 20
99
 10
522.655
 20
98.5216
 10
522.384
 20
98.1161
 10
521.978
 20
97.8451
 10
521.5
 20
97.75
 10
521.022
 20
97.8451
 10
520.616
 20
98.1161
 10
520.345
 20
98.5216
  0
LWPOLYLINE
100
AcDbEntity
  8
0
100
AcDbPolyline
 90
16
 70
1
 10
520.25
 20
115
 10
520.345
 20
115.478
 10
520.616
 20
115.884
 10
521.022
 20
116.155
 10
521.5
 20
116.25
 10
521.978
 20
116.155
 10
522.384
 20
115.884
 10
522.655
 20
115.478
 10
522.75
 20
115
 10
522.655
 20
114.522
 10
522.384
 20
114.116
 10
521.978
 20
113.845
 10
521.5
 20
113.75
 10
521.022
 20
113.845
 10
520.616
 20
114.116
 10
520.345
 20
114.522
  0
LWPOLYLINE
100
AcDbEntity
  8
0
100
AcDbPolyline
 90
16
 70
1
 10
730.25
 20
6.5
 10
730.345
 20
6.97835
 10
730.616
 20
7.38388
 10
731.022
 20
7.65485
 10
731.5
 20
7.75
 10
731.978
 20
7.65485
 10
732.384
 20
7.38388
 10
732.655
 20
6.97835
 10
732.75
 20
6.5
 10
732.655
 20
6.02165
 10
732.384
 20
5.61612
 10
731.978
 20
5.34515
 10
731.5
 20
5.25
 10
731.022
 20
5.34515
 10
730.616
 20
5.61612
 10
730.345
 20
6.02165
  0
LWPOLYLINE
100
AcDbEntity
  8
0
100
AcDbPolyline
 90
16
 70
1
 10
730.25
 20
35
 10
730.345
 20
35.4784
 10
730.616
 20
35.8839
 10
731.022
 20
36.1548
 10
731.5
 20
36.25
 10
731.978
 20
36.1548
 10
732.384
 20
35.8839
 10
732.655
 20
35.4784
 10
732.75
 20
35
 10
732.655
 20
34.5216
 10
732.384
 20
34.1161
 10
731.978
 20
33.8451
 10
731.5
 20
33.75
 10
731.022
 20
33.8451
 10
730.616
 20
34.1161
 10
730.345
 20
34.5216
  0
LWPOLYLINE
100
AcDbEntity
  8
0
100
AcDbPolyline
 90
16
 70
1
 10
730.25
 20
51
 10
730.345
 20
51.4784
 10
730.616
 20
51.8839
 10
731.022
 20
52.1548
 10
731.5
 20
52.25
 10
731.978
 20
52.1548
 10
732.384
 20
51.8839
 10
732.655
 20
51.4784
 10
732.75
 20
51
 10
732.655
 20
50.5216
 10
732.384
 20
50.1161
 10
731.978
 20
49.8451
 10
731.5
 20
49.75
 10
731.022
 20
49.8451
 10
730.616
 20
50.1161
 10
730.345
 20
50.5216
  0
LWPOLYLINE
100
AcDbEntity
  8
0
100
AcDbPolyline
 90
16
 70
1
 10
730.25
 20
76
 10
730.345
 20
76.4784
 10
730.616
 20
76.8839
 10
731.022
 20
77.1548
 10
731.5
 20
77.25
 10
731.978
 20
77.1548
 10
732.384
 20
76.8839
 10
732.655
 20
76.4784
 10
732.75
 20
76
 10
732.655
 20
75.5216
 10
732.384
 20
75.1161
 10
731.978
 20
74.8451
 10
731.5
 20
74.75
 10
731.022
 20
74.8451
 10
730.616
 20
75.1161
 10
730.345
 20
75.5216
  0
LWPOLYLINE
100
AcDbEntity
  8
0
100
AcDbPolyline
 90
16
 70
1
 10
730.25
 20
99
 10
730.345
 20
99.4784
 10
730.616
 20
99.8839
 10
731.022
 20
100.155
 10
731.5
 20
100.25
 10
731.978
 20
100.155
 10
732.384
 20
99.8839
 10
732.655
 20
99.4784
 10
732.75
 20
99
 10
732.655
 20
98.5216
 10
732.384
 20
98.1161
 10
731.978
 20
97.8451
 10
731.5
 20
97.75
 10
731.022
 20
97.8451
 10
730.616
 20
98.1161
 10
730.345
 20
98.5216
  0
LWPOLYLINE
100
AcDbEntity
  8
0
100
AcDbPolyline
 90
16
 70
1
 10
730.25
 20
115
 10
730.345
 20
115.478
 10
730.616
 20
115.884
 10
731.022
 20
116.155
 10
731.5
 20
116.25
 10
731.978
 20
116.155
 10
732.384
 20
115.884
 10
732.655
 20
115.478
 10
732.75
 20
115
 10
732.655
 20
114.522
 10
732.384
 20
114.116
 10
731.978
 20
113.845
 10
731.5
 20
113.75
 10
731.022
 20
113.845
 10
730.616
 20
114.116
 10
730.345
 20
114.522
  0
LWPOLYLINE
100
AcDbEntity
  8
0
100
AcDbPolyline
 90
16
 70
1
 10
940.25
 20
6.5
 10
940.345
 20
6.97835
 10
940.616
 20
7.38388
 10
941.022
 20
7.65485
 10
941.5
 20
7.75
 10
941.978
 20
7.65485
 10
942.384
 20
7.38388
 10
942.655
 20
6.97835
 10
942.75
 20
6.5
 10
942.655
 20
6.02165
 10
942.384
 20
5.61612
 10
941.978
 20
5.34515
 10
941.5
 20
5.25
 10
941.022
 20
5.34515
 10
940.616
 20
5.61612
 10
940.345
 20
6.02165
  0
LWPOLYLINE
100
AcDbEntity
  8
0
100
AcDbPolyline
 90
16
 70
1
 10
940.25
 20
35
 10
940.345
 20
35.4784
 10
940.616
 20
35.8839
 10
941.022
 20
36.1548
 10
941.5
 20
36.25
 10
941.978
 20
36.1548
 10
942.384
 20
35.8839
 10
942.655
 20
35.4784
 10
942.75
 20
35
 10
942.655
 20
34.5216
 10
942.384
 20
34.1161
 10
941.978
 20
33.8451
 10
941.5
 20
33.75
 10
941.022
 20
33.8451
 10
940.616
 20
34.1161
 10
940.345
 20
34.5216
  0
LWPOLYLINE
100
AcDbEntity
  8
0
100
AcDbPolyline
 90
16
 70
1
 10
940.25
 20
51
 10
940.345
 20
51.4784
 10
940.616
 20
51.8839
 10
941.022
 20
52.1548
 10
941.5
 20
52.25
 10
941.978
 20
52.1548
 10
942.384
 20
51.8839
 10
942.655
 20
51.4784
 10
942.75
 20
51
 10
942.655
 20
50.5216
 10
942.384
 20
50.1161
 10
941.978
 20
49.8451
 10
941.5
 20
49.75
 10
941.022
 20
49.8451
 10
940.616
 20
50.1161
 10
940.345
 20
50.5216
  0
LWPOLYLINE
100
AcDbEntity
  8
0
100
AcDbPolyline
 90
16
 70
1
 10
940.25
 20
76
 10
940.345
 20
76.4784
 10
940.616
 20
76.8839
 10
941.022
 20
77.1548
 10
941.5
 20
77.25
 10
941.978
 20
77.1548
 10
942.384
 20
76.8839
 10
942.655
 20
76.4784
 10
942.75
 20
76
 10
942.655
 20
75.5216
 10
942.384
 20
75.1161
 10
941.978
 20
74.8451
 10
941.5
 20
74.75
 10
941.022
 20
74.8451
 10
940.616
 20
75.1161
 10
940.345
 20
75.5216
  0
LWPOLYLINE
100
AcDbEntity
  8
0
100
AcDbPolyline
 90
16
 70
1
 10
940.25
 20
99
 10
940.345
 20
99.4784
 10
940.616
 20
99.8839
 10
941.022
 20
100.155
 10
941.5
 20
100.25
 10
941.978
 20
100.155
 10
942.384
 20
99.8839
 10
942.655
 20
99.4784
 10
942.75
 20
99
 10
942.655
 20
98.5216
 10
942.384
 20
98.1161
 10
941.978
 20
97.8451
 10
941.5
 20
97.75
 10
941.022
 20
97.8451
 10
940.616
 20
98.1161
 10
940.345
 20
98.5216
  0
LWPOLYLINE
100
AcDbEntity
  8
0
100
AcDbPolyline
 90
16
 70
1
 10
940.25
 20
115
 10
940.345
 20
115.478
 10
940.616
 20
115.884
 10
941.022
 20
116.155
 10
941.5
 20
116.25
 10
941.978
 20
116.155
 10
942.384
 20
115.884
 10
942.655
 20
115.478
 10
942.75
 20
115
 10
942.655
 20
114.522
 10
942.384
 20
114.116
 10
941.978
 20
113.845
 10
941.5
 20
113.75
 10
941.022
 20
113.845
 10
940.616
 20
114.116
 10
940.345
 20
114.522
  0
LWPOLYLINE
100
AcDbEntity
  8
0
100
AcDbPolyline
 90
16
 70
1
 10
1150.25
 20
6.5
 10
1150.35
 20
6.97835
 10
1150.62
 20
7.38388
 10
1151.02
 20
7.65485
 10
1151.5
 20
7.75
 10
1151.98
 20
7.65485
 10
1152.38
 20
7.38388
 10
1152.65
 20
6.97835
 10
1152.75
 20
6.5
 10
1152.65
 20
6.02165
 10
1152.38
 20
5.61612
 10
1151.98
 20
5.34515
 10
1151.5
 20
5.25
 10
1151.02
 20
5.34515
 10
1150.62
 20
5.61612
 10
1150.35
 20
6.02165
  0
LWPOLYLINE
100
AcDbEntity
  8
0
100
AcDbPolyline
 90
16
 70
1
 10
1150.25
 20
35
 10
1150.35
 20
35.4784
 10
1150.62
 20
35.8839
 10
1151.02
 20
36.1548
 10
1151.5
 20
36.25
 10
1151.98
 20
36.1548
 10
1152.38
 20
35.8839
 10
1152.65
 20
35.4784
 10
1152.75
 20
35
 10
1152.65
 20
34.5216
 10
1152.38
 20
34.1161
 10
1151.98
 20
33.8451
 10
1151.5
 20
33.75
 10
1151.02
 20
33.8451
 10
1150.62
 20
34.1161
 10
1150.35
 20
34.5216
  0
LWPOLYLINE
100
AcDbEntity
  8
0
100
AcDbPolyline
 90
16
 70
1
 10
1150.25
 20
51
 10
1150.35
 20
51.4784
 10
1150.62
 20
51.8839
 10
1151.02
 20
52.1548
 10
1151.5
 20
52.25
 10
1151.98
 20
52.1548
 10
1152.38
 20
51.8839
 10
1152.65
 20
51.4784
 10
1152.75
 20
51
 10
1152.65
 20
50.5216
 10
1152.38
 20
50.1161
 10
1151.98
 20
49.8451
 10
1151.5
 20
49.75
 10
1151.02
 20
49.8451
 10
1150.62
 20
50.1161
 10
1150.35
 20
50.5216
  0
LWPOLYLINE
100
AcDbEntity
  8
0
100
AcDbPolyline
 90
16
 70
1
 10
1150.25
 20
76
 10
1150.35
 20
76.4784
 10
1150.62
 20
76.8839
 10
1151.02
 20
77.1548
 10
1151.5
 20
77.25
 10
1151.98
 20
77.1548
 10
1152.38
 20
76.8839
 10
1152.65
 20
76.4784
 10
1152.75
 20
76
 10
1152.65
 20
75.5216
 10
1152.38
 20
75.1161
 10
1151.98
 20
74.8451
 10
1151.5
 20
74.75
 10
1151.02
 20
74.8451
 10
1150.62
 20
75.1161
 10
1150.35
 20
75.5216
  0
LWPOLYLINE
100
AcDbEntity
  8
0
100
AcDbPolyline
 90
16
 70
1
 10
1150.25
 20
99
 10
1150.35
 20
99.4784
 10
1150.62
 20
99.8839
 10
1151.02
 20
100.155
 10
1151.5
 20
100.25
 10
1151.98
 20
100.155
 10
1152.38
 20
99.8839
 10
1152.65
 20
99.4784
 10
1152.75
 20
99
 10
1152.65
 20
98.5216
 10
1152.38
 20
98.1161
 10
1151.98
 20
97.8451
 10
1151.5
 20
97.75
 10
1151.02
 20
97.8451
 10
1150.62
 20
98.1161
 10
1150.35
 20
98.5216
  0
LWPOLYLINE
100
AcDbEntity
  8
0
100
AcDbPolyline
 90
16
 70
1
 10
1150.25
 20
115
 10
1150.35
 20
115.478
 10
1150.62
 20
115.884
 10
1151.02
 20
116.155
 10
1151.5
 20
116.25
 10
1151.98
 20
116.155
 10
1152.38
 20
115.884
 10
1152.65
 20
115.478
 10
1152.75
 20
115
 10
1152.65
 20
114.522
 10
1152.38
 20
114.116
 10
1151.98
 20
113.845
 10
1151.5
 20
113.75
 10
1151.02
 20
113.845
 10
1150.62
 20
114.116
 10
1150.35
 20
114.522
  0
LWPOLYLINE
100
AcDbEntity
  8
0
100
AcDbPolyline
 90
16
 70
1
 10
1296.5
 20
50
 10
1296.65
 20
50.7654
 10
1297.09
 20
51.4142
 10
1297.73
 20
51.8478
 10
1298.5
 20
52
 10
1299.27
 20
51.8478
 10
1299.91
 20
51.4142
 10
1300.35
 20
50.7654
 10
1300.5
 20
50
 10
1300.35
 20
49.2346
 10
1299.91
 20
48.5858
 10
1299.27
 20
48.1522
 10
1298.5
 20
48
 10
1297.73
 20
48.1522
 10
1297.09
 20
48.5858
 10
1296.65
 20
49.2346
  0
LWPOLYLINE
100
AcDbEntity
  8
0
100
AcDbPolyline
 90
16
 70
1
 10
1296.5
 20
180
 10
1296.65
 20
180.765
 10
1297.09
 20
181.414
 10
1297.73
 20
181.848
 10
1298.5
 20
182
 10
1299.27
 20
181.848
 10
1299.91
 20
181.414
 10
1300.35
 20
180.765
 10
1300.5
 20
180
 10
1300.35
 20
179.235
 10
1299.91
 20
178.586
 10
1299.27
 20
178.152
 10
1298.5
 20
178
 10
1297.73
 20
178.152
 10
1297.09
 20
178.586
 10
1296.65
 20
179.235
  0
LWPOLYLINE
100
AcDbEntity
  8
0
100
AcDbPolyline
 90
16
 70
1
 10
1627.17
 20
50
 10
1627.32
 20
50.7654
 10
1627.75
 20
51.4142
 10
1628.4
 20
51.8478
 10
1629.17
 20
52
 10
1629.93
 20
51.8478
 10
1630.58
 20
51.4142
 10
1631.01
 20
50.7654
 10
1631.17
 20
50
 10
1631.01
 20
49.2346
 10
1630.58
 20
48.5858
 10
1629.93
 20
48.1522
 10
1629.17
 20
48
 10
1628.4
 20
48.1522
 10
1627.75
 20
48.5858
 10
1627.32
 20
49.2346
  0
LWPOLYLINE
100
AcDbEntity
  8
0
100
AcDbPolyline
 90
16
 70
1
 10
1627.17
 20
180
 10
1627.32
 20
180.765
 10
1627.75
 20
181.414
 10
1628.4
 20
181.848
 10
1629.17
 20
182
 10
1629.93
 20
181.848
 10
1630.58
 20
181.414
 10
1631.01
 20
180.765
 10
1631.17
 20
180
 10
1631.01
 20
179.235
 10
1630.58
 20
178.586
 10
1629.93
 20
178.152
 10
1629.17
 20
178
 10
1628.4
 20
178.152
 10
1627.75
 20
178.586
 10
1627.32
 20
179.235
  0
LWPOLYLINE
100
AcDbEntity
  8
0
100
AcDbPolyline
 90
16
 70
1
 10
1957.83
 20
50
 10
1957.99
 20
50.7654
 10
1958.42
 20
51.4142
 10
1959.07
 20
51.8478
 10
1959.83
 20
52
 10
1960.6
 20
51.8478
 10
1961.25
 20
51.4142
 10
1961.68
 20
50.7654
 10
1961.83
 20
50
 10
1961.68
 20
49.2346
 10
1961.25
 20
48.5858
 10
1960.6
 20
48.1522
 10
1959.83
 20
48
 10
1959.07
 20
48.1522
 10
1958.42
 20
48.5858
 10
1957.99
 20
49.2346
  0
LWPOLYLINE
100
AcDbEntity
  8
0
100
AcDbPolyline
 90
16
 70
1
 10
1957.83
 20
180
 10
1957.99
 20
180.765
 10
1958.42
 20
181.414
 10
1959.07
 20
181.848
 10
1959.83
 20
182
 10
1960.6
 20
181.848
 10
1961.25
 20
181.414
 10
1961.68
 20
180.765
 10
1961.83
 20
180
 10
1961.68
 20
179.235
 10
1961.25
 20
178.586
 10
1960.6
 20
178.152
 10
1959.83
 20
178
 10
1959.07
 20
178.152
 10
1958.42
 20
178.586
 10
1957.99
 20
179.235
  0
LWPOLYLINE
100
AcDbEntity
  8
0
100
AcDbPolyline
 90
16
 70
1
 10
2288.5
 20
50
 10
2288.65
 20
50.7654
 10
2289.09
 20
51.4142
 10
2289.73
 20
51.8478
 10
2290.5
 20
52
 10
2291.27
 20
51.8478
 10
2291.91
 20
51.4142
 10
2292.35
 20
50.7654
 10
2292.5
 20
50
 10
2292.35
 20
49.2346
 10
2291.91
 20
48.5858
 10
2291.27
 20
48.1522
 10
2290.5
 20
48
 10
2289.73
 20
48.1522
 10
2289.09
 20
48.5858
 10
2288.65
 20
49.2346
  0
LWPOLYLINE
100
AcDbEntity
  8
0
100
AcDbPolyline
 90
16
 70
1
 10
2288.5
 20
180
 10
2288.65
 20
180.765
 10
2289.09
 20
181.414
 10
2289.73
 20
181.848
 10
2290.5
 20
182
 10
2291.27
 20
181.848
 10
2291.91
 20
181.414
 10
2292.35
 20
180.765
 10
2292.5
 20
180
 10
2292.35
 20
179.235
 10
2291.91
 20
178.586
 10
2291.27
 20
178.152
 10
2290.5
 20
178
 10
2289.73
 20
178.152
 10
2289.09
 20
178.586
 10
2288.65
 20
179.235
  0
ENDSEC
  0
EOF
