999
DXF from OpenSCAD
  0
SECTION
  2
HEADER
  9
$ACADVER
  1
AC1006
  9
$INSBASE
 10
0.0
 20
0.0
 30
0.0
  9
$EXTMIN
 10
0
 20
0
  9
$EXTMAX
 10
712
 20
200
  9
$LINMIN
 10
0
 20
0
  9
$LINMAX
 10
712
 20
200
  0
ENDSEC
  0
SECTION
  2
TABLES
  0
TABLE
  2
LTYPE
 70
1
  0
LTYPE
  2
CONTINUOUS
 70
64
  3
Solid line
 72
65
 73
0
 40
0.000000
  0
ENDTAB
  0
TABLE
  2
LAYER
 70
6
  0
LAYER
  2
0
 70
64
 62
7
  6
CONTINUOUS
  0
ENDTAB
  0
TABLE
  2
STYLE
 70
0
  0
ENDTAB
  0
ENDSEC
  0
SECTION
  2
BLOCKS
  0
ENDSEC
  0
SECTION
  2
ENTITIES
  0
LWPOLYLINE
100
AcDbEntity
  8
0
100
AcDbPolyline
 90
4
 70
1
 10
0
 20
0
 10
712
 20
0
 10
712
 20
200
 10
0
 20
200
  0
LWPOLYLINE
100
AcDbEntity
  8
0
100
AcDbPolyline
 90
16
 70
1
 10
48
 20
194
 10
48.1522
 20
194.765
 10
48.5858
 20
195.414
 10
49.2346
 20
195.848
 10
50
 20
196
 10
50.7654
 20
195.848
 10
51.4142
 20
195.414
 10
51.8478
 20
194.765
 10
52
 20
194
 10
51.8478
 20
193.235
 10
51.4142
 20
192.586
 10
50.7654
 20
192.152
 10
50
 20
192
 10
49.2346
 20
192.152
 10
48.5858
 20
192.586
 10
48.1522
 20
193.235
  0
LWPOLYLINE
100
AcDbEntity
  8
0
100
AcDbPolyline
 90
16
 70
1
 10
354
 20
194
 10
354.152
 20
194.765
 10
354.586
 20
195.414
 10
355.235
 20
195.848
 10
356
 20
196
 10
356.765
 20
195.848
 10
357.414
 20
195.414
 10
357.848
 20
194.765
 10
358
 20
194
 10
357.848
 20
193.235
 10
357.414
 20
192.586
 10
356.765
 20
192.152
 10
356
 20
192
 10
355.235
 20
192.152
 10
354.586
 20
192.586
 10
354.152
 20
193.235
  0
LWPOLYLINE
100
AcDbEntity
  8
0
100
AcDbPolyline
 90
16
 70
1
 10
660
 20
194
 10
660.152
 20
194.765
 10
660.586
 20
195.414
 10
661.235
 20
195.848
 10
662
 20
196
 10
662.765
 20
195.848
 10
663.414
 20
195.414
 10
663.848
 20
194.765
 10
664
 20
194
 10
663.848
 20
193.235
 10
663.414
 20
192.586
 10
662.765
 20
192.152
 10
662
 20
192
 10
661.235
 20
192.152
 10
660.586
 20
192.586
 10
660.152
 20
193.235
  0
ENDSEC
  0
EOF
