999
DXF from OpenSCAD
  0
SECTION
  2
HEADER
  9
$ACADVER
  1
AC1006
  9
$INSBASE
 10
0.0
 20
0.0
 30
0.0
  9
$EXTMIN
 10
0
 20
0
  9
$EXTMAX
 10
200
 20
225
  9
$LINMIN
 10
0
 20
0
  9
$LINMAX
 10
200
 20
225
  0
ENDSEC
  0
SECTION
  2
TABLES
  0
TABLE
  2
LTYPE
 70
1
  0
LTYPE
  2
CONTINUOUS
 70
64
  3
Solid line
 72
65
 73
0
 40
0.000000
  0
ENDTAB
  0
TABLE
  2
LAYER
 70
6
  0
LAYER
  2
0
 70
64
 62
7
  6
CONTINUOUS
  0
ENDTAB
  0
TABLE
  2
STYLE
 70
0
  0
ENDTAB
  0
ENDSEC
  0
SECTION
  2
BLOCKS
  0
ENDSEC
  0
SECTION
  2
ENTITIES
  0
LWPOLYLINE
100
AcDbEntity
  8
0
100
AcDbPolyline
 90
4
 70
1
 10
0
 20
0
 10
200
 20
0
 10
200
 20
225
 10
0
 20
225
  0
LWPOLYLINE
100
AcDbEntity
  8
0
100
AcDbPolyline
 90
16
 70
1
 10
48
 20
219
 10
48.1522
 20
219.765
 10
48.5858
 20
220.414
 10
49.2346
 20
220.848
 10
50
 20
221
 10
50.7654
 20
220.848
 10
51.4142
 20
220.414
 10
51.8478
 20
219.765
 10
52
 20
219
 10
51.8478
 20
218.235
 10
51.4142
 20
217.586
 10
50.7654
 20
217.152
 10
50
 20
217
 10
49.2346
 20
217.152
 10
48.5858
 20
217.586
 10
48.1522
 20
218.235
  0
LWPOLYLINE
100
AcDbEntity
  8
0
100
AcDbPolyline
 90
16
 70
1
 10
126.25
 20
35
 10
126.345
 20
35.4784
 10
126.616
 20
35.8839
 10
127.022
 20
36.1548
 10
127.5
 20
36.25
 10
127.978
 20
36.1548
 10
128.384
 20
35.8839
 10
128.655
 20
35.4784
 10
128.75
 20
35
 10
128.655
 20
34.5216
 10
128.384
 20
34.1161
 10
127.978
 20
33.8451
 10
127.5
 20
33.75
 10
127.022
 20
33.8451
 10
126.616
 20
34.1161
 10
126.345
 20
34.5216
  0
LWPOLYLINE
100
AcDbEntity
  8
0
100
AcDbPolyline
 90
16
 70
1
 10
126.25
 20
163
 10
126.345
 20
163.478
 10
126.616
 20
163.884
 10
127.022
 20
164.155
 10
127.5
 20
164.25
 10
127.978
 20
164.155
 10
128.384
 20
163.884
 10
128.655
 20
163.478
 10
128.75
 20
163
 10
128.655
 20
162.522
 10
128.384
 20
162.116
 10
127.978
 20
161.845
 10
127.5
 20
161.75
 10
127.022
 20
161.845
 10
126.616
 20
162.116
 10
126.345
 20
162.522
  0
LWPOLYLINE
100
AcDbEntity
  8
0
100
AcDbPolyline
 90
16
 70
1
 10
148
 20
219
 10
148.152
 20
219.765
 10
148.586
 20
220.414
 10
149.235
 20
220.848
 10
150
 20
221
 10
150.765
 20
220.848
 10
151.414
 20
220.414
 10
151.848
 20
219.765
 10
152
 20
219
 10
151.848
 20
218.235
 10
151.414
 20
217.586
 10
150.765
 20
217.152
 10
150
 20
217
 10
149.235
 20
217.152
 10
148.586
 20
217.586
 10
148.152
 20
218.235
  0
LWPOLYLINE
100
AcDbEntity
  8
0
100
AcDbPolyline
 90
16
 70
1
 10
192
 20
50
 10
192.152
 20
50.7654
 10
192.586
 20
51.4142
 10
193.235
 20
51.8478
 10
194
 20
52
 10
194.765
 20
51.8478
 10
195.414
 20
51.4142
 10
195.848
 20
50.7654
 10
196
 20
50
 10
195.848
 20
49.2346
 10
195.414
 20
48.5858
 10
194.765
 20
48.1522
 10
194
 20
48
 10
193.235
 20
48.1522
 10
192.586
 20
48.5858
 10
192.152
 20
49.2346
  0
LWPOLYLINE
100
AcDbEntity
  8
0
100
AcDbPolyline
 90
16
 70
1
 10
192
 20
163
 10
192.152
 20
163.765
 10
192.586
 20
164.414
 10
193.235
 20
164.848
 10
194
 20
165
 10
194.765
 20
164.848
 10
195.414
 20
164.414
 10
195.848
 20
163.765
 10
196
 20
163
 10
195.848
 20
162.235
 10
195.414
 20
161.586
 10
194.765
 20
161.152
 10
194
 20
161
 10
193.235
 20
161.152
 10
192.586
 20
161.586
 10
192.152
 20
162.235
  0
ENDSEC
  0
EOF
