999
DXF from OpenSCAD
  0
SECTION
  2
HEADER
  9
$ACADVER
  1
AC1006
  9
$INSBASE
 10
0.0
 20
0.0
 30
0.0
  9
$EXTMIN
 10
0
 20
0
  9
$EXTMAX
 10
200
 20
225
  9
$LINMIN
 10
0
 20
0
  9
$LINMAX
 10
200
 20
225
  0
ENDSEC
  0
SECTION
  2
TABLES
  0
TABLE
  2
LTYPE
 70
1
  0
LTYPE
  2
CONTINUOUS
 70
64
  3
Solid line
 72
65
 73
0
 40
0.000000
  0
ENDTAB
  0
TABLE
  2
LAYER
 70
6
  0
LAYER
  2
0
 70
64
 62
7
  6
CONTINUOUS
  0
ENDTAB
  0
TABLE
  2
STYLE
 70
0
  0
ENDTAB
  0
ENDSEC
  0
SECTION
  2
BLOCKS
  0
ENDSEC
  0
SECTION
  2
ENTITIES
  0
LWPOLYLINE
100
AcDbEntity
  8
0
100
AcDbPolyline
 90
4
 70
1
 10
0
 20
0
 10
200
 20
0
 10
200
 20
225
 10
0
 20
225
  0
LWPOLYLINE
100
AcDbEntity
  8
0
100
AcDbPolyline
 90
16
 70
1
 10
4
 20
50
 10
4.15224
 20
50.7654
 10
4.58579
 20
51.4142
 10
5.23463
 20
51.8478
 10
6
 20
52
 10
6.76537
 20
51.8478
 10
7.41421
 20
51.4142
 10
7.84776
 20
50.7654
 10
8
 20
50
 10
7.84776
 20
49.2346
 10
7.41421
 20
48.5858
 10
6.76537
 20
48.1522
 10
6
 20
48
 10
5.23463
 20
48.1522
 10
4.58579
 20
48.5858
 10
4.15224
 20
49.2346
  0
LWPOLYLINE
100
AcDbEntity
  8
0
100
AcDbPolyline
 90
16
 70
1
 10
4
 20
163
 10
4.15224
 20
163.765
 10
4.58579
 20
164.414
 10
5.23463
 20
164.848
 10
6
 20
165
 10
6.76537
 20
164.848
 10
7.41421
 20
164.414
 10
7.84776
 20
163.765
 10
8
 20
163
 10
7.84776
 20
162.235
 10
7.41421
 20
161.586
 10
6.76537
 20
161.152
 10
6
 20
161
 10
5.23463
 20
161.152
 10
4.58579
 20
161.586
 10
4.15224
 20
162.235
  0
LWPOLYLINE
100
AcDbEntity
  8
0
100
AcDbPolyline
 90
16
 70
1
 10
48
 20
219
 10
48.1522
 20
219.765
 10
48.5858
 20
220.414
 10
49.2346
 20
220.848
 10
50
 20
221
 10
50.7654
 20
220.848
 10
51.4142
 20
220.414
 10
51.8478
 20
219.765
 10
52
 20
219
 10
51.8478
 20
218.235
 10
51.4142
 20
217.586
 10
50.7654
 20
217.152
 10
50
 20
217
 10
49.2346
 20
217.152
 10
48.5858
 20
217.586
 10
48.1522
 20
218.235
  0
LWPOLYLINE
100
AcDbEntity
  8
0
100
AcDbPolyline
 90
16
 70
1
 10
71.25
 20
35
 10
71.3451
 20
35.4784
 10
71.6161
 20
35.8839
 10
72.0216
 20
36.1548
 10
72.5
 20
36.25
 10
72.9784
 20
36.1548
 10
73.3839
 20
35.8839
 10
73.6548
 20
35.4784
 10
73.75
 20
35
 10
73.6548
 20
34.5216
 10
73.3839
 20
34.1161
 10
72.9784
 20
33.8451
 10
72.5
 20
33.75
 10
72.0216
 20
33.8451
 10
71.6161
 20
34.1161
 10
71.3451
 20
34.5216
  0
LWPOLYLINE
100
AcDbEntity
  8
0
100
AcDbPolyline
 90
16
 70
1
 10
71.25
 20
163
 10
71.3451
 20
163.478
 10
71.6161
 20
163.884
 10
72.0216
 20
164.155
 10
72.5
 20
164.25
 10
72.9784
 20
164.155
 10
73.3839
 20
163.884
 10
73.6548
 20
163.478
 10
73.75
 20
163
 10
73.6548
 20
162.522
 10
73.3839
 20
162.116
 10
72.9784
 20
161.845
 10
72.5
 20
161.75
 10
72.0216
 20
161.845
 10
71.6161
 20
162.116
 10
71.3451
 20
162.522
  0
LWPOLYLINE
100
AcDbEntity
  8
0
100
AcDbPolyline
 90
16
 70
1
 10
148
 20
219
 10
148.152
 20
219.765
 10
148.586
 20
220.414
 10
149.235
 20
220.848
 10
150
 20
221
 10
150.765
 20
220.848
 10
151.414
 20
220.414
 10
151.848
 20
219.765
 10
152
 20
219
 10
151.848
 20
218.235
 10
151.414
 20
217.586
 10
150.765
 20
217.152
 10
150
 20
217
 10
149.235
 20
217.152
 10
148.586
 20
217.586
 10
148.152
 20
218.235
  0
ENDSEC
  0
EOF
