  0
SECTION
  2
BLOCKS
  0
ENDSEC
  0
SECTION
  2
ENTITIES
  0
LINE
  8
0
 10
0
 20
0
 11
2300
 21
0
  0
LINE
  8
0
 10
2300
 20
0
 11
2300
 21
230
  0
LINE
  8
0
 10
2300
 20
230
 11
0
 21
230
  0
LINE
  8
0
 10
0
 20
230
 11
0
 21
0
  0
LINE
  8
0
 10
7.5
 20
50
 11
7.65224
 21
50.7654
  0
LINE
  8
0
 10
7.65224
 20
50.7654
 11
8.08579
 21
51.4142
  0
LINE
  8
0
 10
8.08579
 20
51.4142
 11
8.73463
 21
51.8478
  0
LINE
  8
0
 10
8.73463
 20
51.8478
 11
9.5
 21
52
  0
LINE
  8
0
 10
9.5
 20
52
 11
10.2654
 21
51.8478
  0
LINE
  8
0
 10
10.2654
 20
51.8478
 11
10.9142
 21
51.4142
  0
LINE
  8
0
 10
10.9142
 20
51.4142
 11
11.3478
 21
50.7654
  0
LINE
  8
0
 10
11.3478
 20
50.7654
 11
11.5
 21
50
  0
LINE
  8
0
 10
11.5
 20
50
 11
11.3478
 21
49.2346
  0
LINE
  8
0
 10
11.3478
 20
49.2346
 11
10.9142
 21
48.5858
  0
LINE
  8
0
 10
10.9142
 20
48.5858
 11
10.2654
 21
48.1522
  0
LINE
  8
0
 10
10.2654
 20
48.1522
 11
9.5
 21
48
  0
LINE
  8
0
 10
9.5
 20
48
 11
8.73463
 21
48.1522
  0
LINE
  8
0
 10
8.73463
 20
48.1522
 11
8.08579
 21
48.5858
  0
LINE
  8
0
 10
8.08579
 20
48.5858
 11
7.65224
 21
49.2346
  0
LINE
  8
0
 10
7.65224
 20
49.2346
 11
7.5
 21
50
  0
LINE
  8
0
 10
7.5
 20
180
 11
7.65224
 21
180.765
  0
LINE
  8
0
 10
7.65224
 20
180.765
 11
8.08579
 21
181.414
  0
LINE
  8
0
 10
8.08579
 20
181.414
 11
8.73463
 21
181.848
  0
LINE
  8
0
 10
8.73463
 20
181.848
 11
9.5
 21
182
  0
LINE
  8
0
 10
9.5
 20
182
 11
10.2654
 21
181.848
  0
LINE
  8
0
 10
10.2654
 20
181.848
 11
10.9142
 21
181.414
  0
LINE
  8
0
 10
10.9142
 20
181.414
 11
11.3478
 21
180.765
  0
LINE
  8
0
 10
11.3478
 20
180.765
 11
11.5
 21
180
  0
LINE
  8
0
 10
11.5
 20
180
 11
11.3478
 21
179.235
  0
LINE
  8
0
 10
11.3478
 20
179.235
 11
10.9142
 21
178.586
  0
LINE
  8
0
 10
10.9142
 20
178.586
 11
10.2654
 21
178.152
  0
LINE
  8
0
 10
10.2654
 20
178.152
 11
9.5
 21
178
  0
LINE
  8
0
 10
9.5
 20
178
 11
8.73463
 21
178.152
  0
LINE
  8
0
 10
8.73463
 20
178.152
 11
8.08579
 21
178.586
  0
LINE
  8
0
 10
8.08579
 20
178.586
 11
7.65224
 21
179.235
  0
LINE
  8
0
 10
7.65224
 20
179.235
 11
7.5
 21
180
  0
LINE
  8
0
 10
100.25
 20
6.5
 11
100.345
 21
6.97835
  0
LINE
  8
0
 10
100.345
 20
6.97835
 11
100.616
 21
7.38388
  0
LINE
  8
0
 10
100.616
 20
7.38388
 11
101.022
 21
7.65485
  0
LINE
  8
0
 10
101.022
 20
7.65485
 11
101.5
 21
7.75
  0
LINE
  8
0
 10
101.5
 20
7.75
 11
101.978
 21
7.65485
  0
LINE
  8
0
 10
101.978
 20
7.65485
 11
102.384
 21
7.38388
  0
LINE
  8
0
 10
102.384
 20
7.38388
 11
102.655
 21
6.97835
  0
LINE
  8
0
 10
102.655
 20
6.97835
 11
102.75
 21
6.5
  0
LINE
  8
0
 10
102.75
 20
6.5
 11
102.655
 21
6.02165
  0
LINE
  8
0
 10
102.655
 20
6.02165
 11
102.384
 21
5.61612
  0
LINE
  8
0
 10
102.384
 20
5.61612
 11
101.978
 21
5.34515
  0
LINE
  8
0
 10
101.978
 20
5.34515
 11
101.5
 21
5.25
  0
LINE
  8
0
 10
101.5
 20
5.25
 11
101.022
 21
5.34515
  0
LINE
  8
0
 10
101.022
 20
5.34515
 11
100.616
 21
5.61612
  0
LINE
  8
0
 10
100.616
 20
5.61612
 11
100.345
 21
6.02165
  0
LINE
  8
0
 10
100.345
 20
6.02165
 11
100.25
 21
6.5
  0
LINE
  8
0
 10
100.25
 20
35
 11
100.345
 21
35.4784
  0
LINE
  8
0
 10
100.345
 20
35.4784
 11
100.616
 21
35.8839
  0
LINE
  8
0
 10
100.616
 20
35.8839
 11
101.022
 21
36.1548
  0
LINE
  8
0
 10
101.022
 20
36.1548
 11
101.5
 21
36.25
  0
LINE
  8
0
 10
101.5
 20
36.25
 11
101.978
 21
36.1548
  0
LINE
  8
0
 10
101.978
 20
36.1548
 11
102.384
 21
35.8839
  0
LINE
  8
0
 10
102.384
 20
35.8839
 11
102.655
 21
35.4784
  0
LINE
  8
0
 10
102.655
 20
35.4784
 11
102.75
 21
35
  0
LINE
  8
0
 10
102.75
 20
35
 11
102.655
 21
34.5216
  0
LINE
  8
0
 10
102.655
 20
34.5216
 11
102.384
 21
34.1161
  0
LINE
  8
0
 10
102.384
 20
34.1161
 11
101.978
 21
33.8451
  0
LINE
  8
0
 10
101.978
 20
33.8451
 11
101.5
 21
33.75
  0
LINE
  8
0
 10
101.5
 20
33.75
 11
101.022
 21
33.8451
  0
LINE
  8
0
 10
101.022
 20
33.8451
 11
100.616
 21
34.1161
  0
LINE
  8
0
 10
100.616
 20
34.1161
 11
100.345
 21
34.5216
  0
LINE
  8
0
 10
100.345
 20
34.5216
 11
100.25
 21
35
  0
LINE
  8
0
 10
100.25
 20
51
 11
100.345
 21
51.4784
  0
LINE
  8
0
 10
100.345
 20
51.4784
 11
100.616
 21
51.8839
  0
LINE
  8
0
 10
100.616
 20
51.8839
 11
101.022
 21
52.1548
  0
LINE
  8
0
 10
101.022
 20
52.1548
 11
101.5
 21
52.25
  0
LINE
  8
0
 10
101.5
 20
52.25
 11
101.978
 21
52.1548
  0
LINE
  8
0
 10
101.978
 20
52.1548
 11
102.384
 21
51.8839
  0
LINE
  8
0
 10
102.384
 20
51.8839
 11
102.655
 21
51.4784
  0
LINE
  8
0
 10
102.655
 20
51.4784
 11
102.75
 21
51
  0
LINE
  8
0
 10
102.75
 20
51
 11
102.655
 21
50.5216
  0
LINE
  8
0
 10
102.655
 20
50.5216
 11
102.384
 21
50.1161
  0
LINE
  8
0
 10
102.384
 20
50.1161
 11
101.978
 21
49.8451
  0
LINE
  8
0
 10
101.978
 20
49.8451
 11
101.5
 21
49.75
  0
LINE
  8
0
 10
101.5
 20
49.75
 11
101.022
 21
49.8451
  0
LINE
  8
0
 10
101.022
 20
49.8451
 11
100.616
 21
50.1161
  0
LINE
  8
0
 10
100.616
 20
50.1161
 11
100.345
 21
50.5216
  0
LINE
  8
0
 10
100.345
 20
50.5216
 11
100.25
 21
51
  0
LINE
  8
0
 10
100.25
 20
76
 11
100.345
 21
76.4784
  0
LINE
  8
0
 10
100.345
 20
76.4784
 11
100.616
 21
76.8839
  0
LINE
  8
0
 10
100.616
 20
76.8839
 11
101.022
 21
77.1548
  0
LINE
  8
0
 10
101.022
 20
77.1548
 11
101.5
 21
77.25
  0
LINE
  8
0
 10
101.5
 20
77.25
 11
101.978
 21
77.1548
  0
LINE
  8
0
 10
101.978
 20
77.1548
 11
102.384
 21
76.8839
  0
LINE
  8
0
 10
102.384
 20
76.8839
 11
102.655
 21
76.4784
  0
LINE
  8
0
 10
102.655
 20
76.4784
 11
102.75
 21
76
  0
LINE
  8
0
 10
102.75
 20
76
 11
102.655
 21
75.5216
  0
LINE
  8
0
 10
102.655
 20
75.5216
 11
102.384
 21
75.1161
  0
LINE
  8
0
 10
102.384
 20
75.1161
 11
101.978
 21
74.8451
  0
LINE
  8
0
 10
101.978
 20
74.8451
 11
101.5
 21
74.75
  0
LINE
  8
0
 10
101.5
 20
74.75
 11
101.022
 21
74.8451
  0
LINE
  8
0
 10
101.022
 20
74.8451
 11
100.616
 21
75.1161
  0
LINE
  8
0
 10
100.616
 20
75.1161
 11
100.345
 21
75.5216
  0
LINE
  8
0
 10
100.345
 20
75.5216
 11
100.25
 21
76
  0
LINE
  8
0
 10
100.25
 20
99
 11
100.345
 21
99.4784
  0
LINE
  8
0
 10
100.345
 20
99.4784
 11
100.616
 21
99.8839
  0
LINE
  8
0
 10
100.616
 20
99.8839
 11
101.022
 21
100.155
  0
LINE
  8
0
 10
101.022
 20
100.155
 11
101.5
 21
100.25
  0
LINE
  8
0
 10
101.5
 20
100.25
 11
101.978
 21
100.155
  0
LINE
  8
0
 10
101.978
 20
100.155
 11
102.384
 21
99.8839
  0
LINE
  8
0
 10
102.384
 20
99.8839
 11
102.655
 21
99.4784
  0
LINE
  8
0
 10
102.655
 20
99.4784
 11
102.75
 21
99
  0
LINE
  8
0
 10
102.75
 20
99
 11
102.655
 21
98.5216
  0
LINE
  8
0
 10
102.655
 20
98.5216
 11
102.384
 21
98.1161
  0
LINE
  8
0
 10
102.384
 20
98.1161
 11
101.978
 21
97.8451
  0
LINE
  8
0
 10
101.978
 20
97.8451
 11
101.5
 21
97.75
  0
LINE
  8
0
 10
101.5
 20
97.75
 11
101.022
 21
97.8451
  0
LINE
  8
0
 10
101.022
 20
97.8451
 11
100.616
 21
98.1161
  0
LINE
  8
0
 10
100.616
 20
98.1161
 11
100.345
 21
98.5216
  0
LINE
  8
0
 10
100.345
 20
98.5216
 11
100.25
 21
99
  0
LINE
  8
0
 10
100.25
 20
115
 11
100.345
 21
115.478
  0
LINE
  8
0
 10
100.345
 20
115.478
 11
100.616
 21
115.884
  0
LINE
  8
0
 10
100.616
 20
115.884
 11
101.022
 21
116.155
  0
LINE
  8
0
 10
101.022
 20
116.155
 11
101.5
 21
116.25
  0
LINE
  8
0
 10
101.5
 20
116.25
 11
101.978
 21
116.155
  0
LINE
  8
0
 10
101.978
 20
116.155
 11
102.384
 21
115.884
  0
LINE
  8
0
 10
102.384
 20
115.884
 11
102.655
 21
115.478
  0
LINE
  8
0
 10
102.655
 20
115.478
 11
102.75
 21
115
  0
LINE
  8
0
 10
102.75
 20
115
 11
102.655
 21
114.522
  0
LINE
  8
0
 10
102.655
 20
114.522
 11
102.384
 21
114.116
  0
LINE
  8
0
 10
102.384
 20
114.116
 11
101.978
 21
113.845
  0
LINE
  8
0
 10
101.978
 20
113.845
 11
101.5
 21
113.75
  0
LINE
  8
0
 10
101.5
 20
113.75
 11
101.022
 21
113.845
  0
LINE
  8
0
 10
101.022
 20
113.845
 11
100.616
 21
114.116
  0
LINE
  8
0
 10
100.616
 20
114.116
 11
100.345
 21
114.522
  0
LINE
  8
0
 10
100.345
 20
114.522
 11
100.25
 21
115
  0
LINE
  8
0
 10
310.25
 20
6.5
 11
310.345
 21
6.97835
  0
LINE
  8
0
 10
310.345
 20
6.97835
 11
310.616
 21
7.38388
  0
LINE
  8
0
 10
310.616
 20
7.38388
 11
311.022
 21
7.65485
  0
LINE
  8
0
 10
311.022
 20
7.65485
 11
311.5
 21
7.75
  0
LINE
  8
0
 10
311.5
 20
7.75
 11
311.978
 21
7.65485
  0
LINE
  8
0
 10
311.978
 20
7.65485
 11
312.384
 21
7.38388
  0
LINE
  8
0
 10
312.384
 20
7.38388
 11
312.655
 21
6.97835
  0
LINE
  8
0
 10
312.655
 20
6.97835
 11
312.75
 21
6.5
  0
LINE
  8
0
 10
312.75
 20
6.5
 11
312.655
 21
6.02165
  0
LINE
  8
0
 10
312.655
 20
6.02165
 11
312.384
 21
5.61612
  0
LINE
  8
0
 10
312.384
 20
5.61612
 11
311.978
 21
5.34515
  0
LINE
  8
0
 10
311.978
 20
5.34515
 11
311.5
 21
5.25
  0
LINE
  8
0
 10
311.5
 20
5.25
 11
311.022
 21
5.34515
  0
LINE
  8
0
 10
311.022
 20
5.34515
 11
310.616
 21
5.61612
  0
LINE
  8
0
 10
310.616
 20
5.61612
 11
310.345
 21
6.02165
  0
LINE
  8
0
 10
310.345
 20
6.02165
 11
310.25
 21
6.5
  0
LINE
  8
0
 10
310.25
 20
35
 11
310.345
 21
35.4784
  0
LINE
  8
0
 10
310.345
 20
35.4784
 11
310.616
 21
35.8839
  0
LINE
  8
0
 10
310.616
 20
35.8839
 11
311.022
 21
36.1548
  0
LINE
  8
0
 10
311.022
 20
36.1548
 11
311.5
 21
36.25
  0
LINE
  8
0
 10
311.5
 20
36.25
 11
311.978
 21
36.1548
  0
LINE
  8
0
 10
311.978
 20
36.1548
 11
312.384
 21
35.8839
  0
LINE
  8
0
 10
312.384
 20
35.8839
 11
312.655
 21
35.4784
  0
LINE
  8
0
 10
312.655
 20
35.4784
 11
312.75
 21
35
  0
LINE
  8
0
 10
312.75
 20
35
 11
312.655
 21
34.5216
  0
LINE
  8
0
 10
312.655
 20
34.5216
 11
312.384
 21
34.1161
  0
LINE
  8
0
 10
312.384
 20
34.1161
 11
311.978
 21
33.8451
  0
LINE
  8
0
 10
311.978
 20
33.8451
 11
311.5
 21
33.75
  0
LINE
  8
0
 10
311.5
 20
33.75
 11
311.022
 21
33.8451
  0
LINE
  8
0
 10
311.022
 20
33.8451
 11
310.616
 21
34.1161
  0
LINE
  8
0
 10
310.616
 20
34.1161
 11
310.345
 21
34.5216
  0
LINE
  8
0
 10
310.345
 20
34.5216
 11
310.25
 21
35
  0
LINE
  8
0
 10
310.25
 20
51
 11
310.345
 21
51.4784
  0
LINE
  8
0
 10
310.345
 20
51.4784
 11
310.616
 21
51.8839
  0
LINE
  8
0
 10
310.616
 20
51.8839
 11
311.022
 21
52.1548
  0
LINE
  8
0
 10
311.022
 20
52.1548
 11
311.5
 21
52.25
  0
LINE
  8
0
 10
311.5
 20
52.25
 11
311.978
 21
52.1548
  0
LINE
  8
0
 10
311.978
 20
52.1548
 11
312.384
 21
51.8839
  0
LINE
  8
0
 10
312.384
 20
51.8839
 11
312.655
 21
51.4784
  0
LINE
  8
0
 10
312.655
 20
51.4784
 11
312.75
 21
51
  0
LINE
  8
0
 10
312.75
 20
51
 11
312.655
 21
50.5216
  0
LINE
  8
0
 10
312.655
 20
50.5216
 11
312.384
 21
50.1161
  0
LINE
  8
0
 10
312.384
 20
50.1161
 11
311.978
 21
49.8451
  0
LINE
  8
0
 10
311.978
 20
49.8451
 11
311.5
 21
49.75
  0
LINE
  8
0
 10
311.5
 20
49.75
 11
311.022
 21
49.8451
  0
LINE
  8
0
 10
311.022
 20
49.8451
 11
310.616
 21
50.1161
  0
LINE
  8
0
 10
310.616
 20
50.1161
 11
310.345
 21
50.5216
  0
LINE
  8
0
 10
310.345
 20
50.5216
 11
310.25
 21
51
  0
LINE
  8
0
 10
310.25
 20
76
 11
310.345
 21
76.4784
  0
LINE
  8
0
 10
310.345
 20
76.4784
 11
310.616
 21
76.8839
  0
LINE
  8
0
 10
310.616
 20
76.8839
 11
311.022
 21
77.1548
  0
LINE
  8
0
 10
311.022
 20
77.1548
 11
311.5
 21
77.25
  0
LINE
  8
0
 10
311.5
 20
77.25
 11
311.978
 21
77.1548
  0
LINE
  8
0
 10
311.978
 20
77.1548
 11
312.384
 21
76.8839
  0
LINE
  8
0
 10
312.384
 20
76.8839
 11
312.655
 21
76.4784
  0
LINE
  8
0
 10
312.655
 20
76.4784
 11
312.75
 21
76
  0
LINE
  8
0
 10
312.75
 20
76
 11
312.655
 21
75.5216
  0
LINE
  8
0
 10
312.655
 20
75.5216
 11
312.384
 21
75.1161
  0
LINE
  8
0
 10
312.384
 20
75.1161
 11
311.978
 21
74.8451
  0
LINE
  8
0
 10
311.978
 20
74.8451
 11
311.5
 21
74.75
  0
LINE
  8
0
 10
311.5
 20
74.75
 11
311.022
 21
74.8451
  0
LINE
  8
0
 10
311.022
 20
74.8451
 11
310.616
 21
75.1161
  0
LINE
  8
0
 10
310.616
 20
75.1161
 11
310.345
 21
75.5216
  0
LINE
  8
0
 10
310.345
 20
75.5216
 11
310.25
 21
76
  0
LINE
  8
0
 10
310.25
 20
99
 11
310.345
 21
99.4784
  0
LINE
  8
0
 10
310.345
 20
99.4784
 11
310.616
 21
99.8839
  0
LINE
  8
0
 10
310.616
 20
99.8839
 11
311.022
 21
100.155
  0
LINE
  8
0
 10
311.022
 20
100.155
 11
311.5
 21
100.25
  0
LINE
  8
0
 10
311.5
 20
100.25
 11
311.978
 21
100.155
  0
LINE
  8
0
 10
311.978
 20
100.155
 11
312.384
 21
99.8839
  0
LINE
  8
0
 10
312.384
 20
99.8839
 11
312.655
 21
99.4784
  0
LINE
  8
0
 10
312.655
 20
99.4784
 11
312.75
 21
99
  0
LINE
  8
0
 10
312.75
 20
99
 11
312.655
 21
98.5216
  0
LINE
  8
0
 10
312.655
 20
98.5216
 11
312.384
 21
98.1161
  0
LINE
  8
0
 10
312.384
 20
98.1161
 11
311.978
 21
97.8451
  0
LINE
  8
0
 10
311.978
 20
97.8451
 11
311.5
 21
97.75
  0
LINE
  8
0
 10
311.5
 20
97.75
 11
311.022
 21
97.8451
  0
LINE
  8
0
 10
311.022
 20
97.8451
 11
310.616
 21
98.1161
  0
LINE
  8
0
 10
310.616
 20
98.1161
 11
310.345
 21
98.5216
  0
LINE
  8
0
 10
310.345
 20
98.5216
 11
310.25
 21
99
  0
LINE
  8
0
 10
310.25
 20
115
 11
310.345
 21
115.478
  0
LINE
  8
0
 10
310.345
 20
115.478
 11
310.616
 21
115.884
  0
LINE
  8
0
 10
310.616
 20
115.884
 11
311.022
 21
116.155
  0
LINE
  8
0
 10
311.022
 20
116.155
 11
311.5
 21
116.25
  0
LINE
  8
0
 10
311.5
 20
116.25
 11
311.978
 21
116.155
  0
LINE
  8
0
 10
311.978
 20
116.155
 11
312.384
 21
115.884
  0
LINE
  8
0
 10
312.384
 20
115.884
 11
312.655
 21
115.478
  0
LINE
  8
0
 10
312.655
 20
115.478
 11
312.75
 21
115
  0
LINE
  8
0
 10
312.75
 20
115
 11
312.655
 21
114.522
  0
LINE
  8
0
 10
312.655
 20
114.522
 11
312.384
 21
114.116
  0
LINE
  8
0
 10
312.384
 20
114.116
 11
311.978
 21
113.845
  0
LINE
  8
0
 10
311.978
 20
113.845
 11
311.5
 21
113.75
  0
LINE
  8
0
 10
311.5
 20
113.75
 11
311.022
 21
113.845
  0
LINE
  8
0
 10
311.022
 20
113.845
 11
310.616
 21
114.116
  0
LINE
  8
0
 10
310.616
 20
114.116
 11
310.345
 21
114.522
  0
LINE
  8
0
 10
310.345
 20
114.522
 11
310.25
 21
115
  0
LINE
  8
0
 10
520.25
 20
6.5
 11
520.345
 21
6.97835
  0
LINE
  8
0
 10
520.345
 20
6.97835
 11
520.616
 21
7.38388
  0
LINE
  8
0
 10
520.616
 20
7.38388
 11
521.022
 21
7.65485
  0
LINE
  8
0
 10
521.022
 20
7.65485
 11
521.5
 21
7.75
  0
LINE
  8
0
 10
521.5
 20
7.75
 11
521.978
 21
7.65485
  0
LINE
  8
0
 10
521.978
 20
7.65485
 11
522.384
 21
7.38388
  0
LINE
  8
0
 10
522.384
 20
7.38388
 11
522.655
 21
6.97835
  0
LINE
  8
0
 10
522.655
 20
6.97835
 11
522.75
 21
6.5
  0
LINE
  8
0
 10
522.75
 20
6.5
 11
522.655
 21
6.02165
  0
LINE
  8
0
 10
522.655
 20
6.02165
 11
522.384
 21
5.61612
  0
LINE
  8
0
 10
522.384
 20
5.61612
 11
521.978
 21
5.34515
  0
LINE
  8
0
 10
521.978
 20
5.34515
 11
521.5
 21
5.25
  0
LINE
  8
0
 10
521.5
 20
5.25
 11
521.022
 21
5.34515
  0
LINE
  8
0
 10
521.022
 20
5.34515
 11
520.616
 21
5.61612
  0
LINE
  8
0
 10
520.616
 20
5.61612
 11
520.345
 21
6.02165
  0
LINE
  8
0
 10
520.345
 20
6.02165
 11
520.25
 21
6.5
  0
LINE
  8
0
 10
520.25
 20
35
 11
520.345
 21
35.4784
  0
LINE
  8
0
 10
520.345
 20
35.4784
 11
520.616
 21
35.8839
  0
LINE
  8
0
 10
520.616
 20
35.8839
 11
521.022
 21
36.1548
  0
LINE
  8
0
 10
521.022
 20
36.1548
 11
521.5
 21
36.25
  0
LINE
  8
0
 10
521.5
 20
36.25
 11
521.978
 21
36.1548
  0
LINE
  8
0
 10
521.978
 20
36.1548
 11
522.384
 21
35.8839
  0
LINE
  8
0
 10
522.384
 20
35.8839
 11
522.655
 21
35.4784
  0
LINE
  8
0
 10
522.655
 20
35.4784
 11
522.75
 21
35
  0
LINE
  8
0
 10
522.75
 20
35
 11
522.655
 21
34.5216
  0
LINE
  8
0
 10
522.655
 20
34.5216
 11
522.384
 21
34.1161
  0
LINE
  8
0
 10
522.384
 20
34.1161
 11
521.978
 21
33.8451
  0
LINE
  8
0
 10
521.978
 20
33.8451
 11
521.5
 21
33.75
  0
LINE
  8
0
 10
521.5
 20
33.75
 11
521.022
 21
33.8451
  0
LINE
  8
0
 10
521.022
 20
33.8451
 11
520.616
 21
34.1161
  0
LINE
  8
0
 10
520.616
 20
34.1161
 11
520.345
 21
34.5216
  0
LINE
  8
0
 10
520.345
 20
34.5216
 11
520.25
 21
35
  0
LINE
  8
0
 10
520.25
 20
51
 11
520.345
 21
51.4784
  0
LINE
  8
0
 10
520.345
 20
51.4784
 11
520.616
 21
51.8839
  0
LINE
  8
0
 10
520.616
 20
51.8839
 11
521.022
 21
52.1548
  0
LINE
  8
0
 10
521.022
 20
52.1548
 11
521.5
 21
52.25
  0
LINE
  8
0
 10
521.5
 20
52.25
 11
521.978
 21
52.1548
  0
LINE
  8
0
 10
521.978
 20
52.1548
 11
522.384
 21
51.8839
  0
LINE
  8
0
 10
522.384
 20
51.8839
 11
522.655
 21
51.4784
  0
LINE
  8
0
 10
522.655
 20
51.4784
 11
522.75
 21
51
  0
LINE
  8
0
 10
522.75
 20
51
 11
522.655
 21
50.5216
  0
LINE
  8
0
 10
522.655
 20
50.5216
 11
522.384
 21
50.1161
  0
LINE
  8
0
 10
522.384
 20
50.1161
 11
521.978
 21
49.8451
  0
LINE
  8
0
 10
521.978
 20
49.8451
 11
521.5
 21
49.75
  0
LINE
  8
0
 10
521.5
 20
49.75
 11
521.022
 21
49.8451
  0
LINE
  8
0
 10
521.022
 20
49.8451
 11
520.616
 21
50.1161
  0
LINE
  8
0
 10
520.616
 20
50.1161
 11
520.345
 21
50.5216
  0
LINE
  8
0
 10
520.345
 20
50.5216
 11
520.25
 21
51
  0
LINE
  8
0
 10
520.25
 20
76
 11
520.345
 21
76.4784
  0
LINE
  8
0
 10
520.345
 20
76.4784
 11
520.616
 21
76.8839
  0
LINE
  8
0
 10
520.616
 20
76.8839
 11
521.022
 21
77.1548
  0
LINE
  8
0
 10
521.022
 20
77.1548
 11
521.5
 21
77.25
  0
LINE
  8
0
 10
521.5
 20
77.25
 11
521.978
 21
77.1548
  0
LINE
  8
0
 10
521.978
 20
77.1548
 11
522.384
 21
76.8839
  0
LINE
  8
0
 10
522.384
 20
76.8839
 11
522.655
 21
76.4784
  0
LINE
  8
0
 10
522.655
 20
76.4784
 11
522.75
 21
76
  0
LINE
  8
0
 10
522.75
 20
76
 11
522.655
 21
75.5216
  0
LINE
  8
0
 10
522.655
 20
75.5216
 11
522.384
 21
75.1161
  0
LINE
  8
0
 10
522.384
 20
75.1161
 11
521.978
 21
74.8451
  0
LINE
  8
0
 10
521.978
 20
74.8451
 11
521.5
 21
74.75
  0
LINE
  8
0
 10
521.5
 20
74.75
 11
521.022
 21
74.8451
  0
LINE
  8
0
 10
521.022
 20
74.8451
 11
520.616
 21
75.1161
  0
LINE
  8
0
 10
520.616
 20
75.1161
 11
520.345
 21
75.5216
  0
LINE
  8
0
 10
520.345
 20
75.5216
 11
520.25
 21
76
  0
LINE
  8
0
 10
520.25
 20
99
 11
520.345
 21
99.4784
  0
LINE
  8
0
 10
520.345
 20
99.4784
 11
520.616
 21
99.8839
  0
LINE
  8
0
 10
520.616
 20
99.8839
 11
521.022
 21
100.155
  0
LINE
  8
0
 10
521.022
 20
100.155
 11
521.5
 21
100.25
  0
LINE
  8
0
 10
521.5
 20
100.25
 11
521.978
 21
100.155
  0
LINE
  8
0
 10
521.978
 20
100.155
 11
522.384
 21
99.8839
  0
LINE
  8
0
 10
522.384
 20
99.8839
 11
522.655
 21
99.4784
  0
LINE
  8
0
 10
522.655
 20
99.4784
 11
522.75
 21
99
  0
LINE
  8
0
 10
522.75
 20
99
 11
522.655
 21
98.5216
  0
LINE
  8
0
 10
522.655
 20
98.5216
 11
522.384
 21
98.1161
  0
LINE
  8
0
 10
522.384
 20
98.1161
 11
521.978
 21
97.8451
  0
LINE
  8
0
 10
521.978
 20
97.8451
 11
521.5
 21
97.75
  0
LINE
  8
0
 10
521.5
 20
97.75
 11
521.022
 21
97.8451
  0
LINE
  8
0
 10
521.022
 20
97.8451
 11
520.616
 21
98.1161
  0
LINE
  8
0
 10
520.616
 20
98.1161
 11
520.345
 21
98.5216
  0
LINE
  8
0
 10
520.345
 20
98.5216
 11
520.25
 21
99
  0
LINE
  8
0
 10
520.25
 20
115
 11
520.345
 21
115.478
  0
LINE
  8
0
 10
520.345
 20
115.478
 11
520.616
 21
115.884
  0
LINE
  8
0
 10
520.616
 20
115.884
 11
521.022
 21
116.155
  0
LINE
  8
0
 10
521.022
 20
116.155
 11
521.5
 21
116.25
  0
LINE
  8
0
 10
521.5
 20
116.25
 11
521.978
 21
116.155
  0
LINE
  8
0
 10
521.978
 20
116.155
 11
522.384
 21
115.884
  0
LINE
  8
0
 10
522.384
 20
115.884
 11
522.655
 21
115.478
  0
LINE
  8
0
 10
522.655
 20
115.478
 11
522.75
 21
115
  0
LINE
  8
0
 10
522.75
 20
115
 11
522.655
 21
114.522
  0
LINE
  8
0
 10
522.655
 20
114.522
 11
522.384
 21
114.116
  0
LINE
  8
0
 10
522.384
 20
114.116
 11
521.978
 21
113.845
  0
LINE
  8
0
 10
521.978
 20
113.845
 11
521.5
 21
113.75
  0
LINE
  8
0
 10
521.5
 20
113.75
 11
521.022
 21
113.845
  0
LINE
  8
0
 10
521.022
 20
113.845
 11
520.616
 21
114.116
  0
LINE
  8
0
 10
520.616
 20
114.116
 11
520.345
 21
114.522
  0
LINE
  8
0
 10
520.345
 20
114.522
 11
520.25
 21
115
  0
LINE
  8
0
 10
730.25
 20
6.5
 11
730.345
 21
6.97835
  0
LINE
  8
0
 10
730.345
 20
6.97835
 11
730.616
 21
7.38388
  0
LINE
  8
0
 10
730.616
 20
7.38388
 11
731.022
 21
7.65485
  0
LINE
  8
0
 10
731.022
 20
7.65485
 11
731.5
 21
7.75
  0
LINE
  8
0
 10
731.5
 20
7.75
 11
731.978
 21
7.65485
  0
LINE
  8
0
 10
731.978
 20
7.65485
 11
732.384
 21
7.38388
  0
LINE
  8
0
 10
732.384
 20
7.38388
 11
732.655
 21
6.97835
  0
LINE
  8
0
 10
732.655
 20
6.97835
 11
732.75
 21
6.5
  0
LINE
  8
0
 10
732.75
 20
6.5
 11
732.655
 21
6.02165
  0
LINE
  8
0
 10
732.655
 20
6.02165
 11
732.384
 21
5.61612
  0
LINE
  8
0
 10
732.384
 20
5.61612
 11
731.978
 21
5.34515
  0
LINE
  8
0
 10
731.978
 20
5.34515
 11
731.5
 21
5.25
  0
LINE
  8
0
 10
731.5
 20
5.25
 11
731.022
 21
5.34515
  0
LINE
  8
0
 10
731.022
 20
5.34515
 11
730.616
 21
5.61612
  0
LINE
  8
0
 10
730.616
 20
5.61612
 11
730.345
 21
6.02165
  0
LINE
  8
0
 10
730.345
 20
6.02165
 11
730.25
 21
6.5
  0
LINE
  8
0
 10
730.25
 20
35
 11
730.345
 21
35.4784
  0
LINE
  8
0
 10
730.345
 20
35.4784
 11
730.616
 21
35.8839
  0
LINE
  8
0
 10
730.616
 20
35.8839
 11
731.022
 21
36.1548
  0
LINE
  8
0
 10
731.022
 20
36.1548
 11
731.5
 21
36.25
  0
LINE
  8
0
 10
731.5
 20
36.25
 11
731.978
 21
36.1548
  0
LINE
  8
0
 10
731.978
 20
36.1548
 11
732.384
 21
35.8839
  0
LINE
  8
0
 10
732.384
 20
35.8839
 11
732.655
 21
35.4784
  0
LINE
  8
0
 10
732.655
 20
35.4784
 11
732.75
 21
35
  0
LINE
  8
0
 10
732.75
 20
35
 11
732.655
 21
34.5216
  0
LINE
  8
0
 10
732.655
 20
34.5216
 11
732.384
 21
34.1161
  0
LINE
  8
0
 10
732.384
 20
34.1161
 11
731.978
 21
33.8451
  0
LINE
  8
0
 10
731.978
 20
33.8451
 11
731.5
 21
33.75
  0
LINE
  8
0
 10
731.5
 20
33.75
 11
731.022
 21
33.8451
  0
LINE
  8
0
 10
731.022
 20
33.8451
 11
730.616
 21
34.1161
  0
LINE
  8
0
 10
730.616
 20
34.1161
 11
730.345
 21
34.5216
  0
LINE
  8
0
 10
730.345
 20
34.5216
 11
730.25
 21
35
  0
LINE
  8
0
 10
730.25
 20
51
 11
730.345
 21
51.4784
  0
LINE
  8
0
 10
730.345
 20
51.4784
 11
730.616
 21
51.8839
  0
LINE
  8
0
 10
730.616
 20
51.8839
 11
731.022
 21
52.1548
  0
LINE
  8
0
 10
731.022
 20
52.1548
 11
731.5
 21
52.25
  0
LINE
  8
0
 10
731.5
 20
52.25
 11
731.978
 21
52.1548
  0
LINE
  8
0
 10
731.978
 20
52.1548
 11
732.384
 21
51.8839
  0
LINE
  8
0
 10
732.384
 20
51.8839
 11
732.655
 21
51.4784
  0
LINE
  8
0
 10
732.655
 20
51.4784
 11
732.75
 21
51
  0
LINE
  8
0
 10
732.75
 20
51
 11
732.655
 21
50.5216
  0
LINE
  8
0
 10
732.655
 20
50.5216
 11
732.384
 21
50.1161
  0
LINE
  8
0
 10
732.384
 20
50.1161
 11
731.978
 21
49.8451
  0
LINE
  8
0
 10
731.978
 20
49.8451
 11
731.5
 21
49.75
  0
LINE
  8
0
 10
731.5
 20
49.75
 11
731.022
 21
49.8451
  0
LINE
  8
0
 10
731.022
 20
49.8451
 11
730.616
 21
50.1161
  0
LINE
  8
0
 10
730.616
 20
50.1161
 11
730.345
 21
50.5216
  0
LINE
  8
0
 10
730.345
 20
50.5216
 11
730.25
 21
51
  0
LINE
  8
0
 10
730.25
 20
76
 11
730.345
 21
76.4784
  0
LINE
  8
0
 10
730.345
 20
76.4784
 11
730.616
 21
76.8839
  0
LINE
  8
0
 10
730.616
 20
76.8839
 11
731.022
 21
77.1548
  0
LINE
  8
0
 10
731.022
 20
77.1548
 11
731.5
 21
77.25
  0
LINE
  8
0
 10
731.5
 20
77.25
 11
731.978
 21
77.1548
  0
LINE
  8
0
 10
731.978
 20
77.1548
 11
732.384
 21
76.8839
  0
LINE
  8
0
 10
732.384
 20
76.8839
 11
732.655
 21
76.4784
  0
LINE
  8
0
 10
732.655
 20
76.4784
 11
732.75
 21
76
  0
LINE
  8
0
 10
732.75
 20
76
 11
732.655
 21
75.5216
  0
LINE
  8
0
 10
732.655
 20
75.5216
 11
732.384
 21
75.1161
  0
LINE
  8
0
 10
732.384
 20
75.1161
 11
731.978
 21
74.8451
  0
LINE
  8
0
 10
731.978
 20
74.8451
 11
731.5
 21
74.75
  0
LINE
  8
0
 10
731.5
 20
74.75
 11
731.022
 21
74.8451
  0
LINE
  8
0
 10
731.022
 20
74.8451
 11
730.616
 21
75.1161
  0
LINE
  8
0
 10
730.616
 20
75.1161
 11
730.345
 21
75.5216
  0
LINE
  8
0
 10
730.345
 20
75.5216
 11
730.25
 21
76
  0
LINE
  8
0
 10
730.25
 20
99
 11
730.345
 21
99.4784
  0
LINE
  8
0
 10
730.345
 20
99.4784
 11
730.616
 21
99.8839
  0
LINE
  8
0
 10
730.616
 20
99.8839
 11
731.022
 21
100.155
  0
LINE
  8
0
 10
731.022
 20
100.155
 11
731.5
 21
100.25
  0
LINE
  8
0
 10
731.5
 20
100.25
 11
731.978
 21
100.155
  0
LINE
  8
0
 10
731.978
 20
100.155
 11
732.384
 21
99.8839
  0
LINE
  8
0
 10
732.384
 20
99.8839
 11
732.655
 21
99.4784
  0
LINE
  8
0
 10
732.655
 20
99.4784
 11
732.75
 21
99
  0
LINE
  8
0
 10
732.75
 20
99
 11
732.655
 21
98.5216
  0
LINE
  8
0
 10
732.655
 20
98.5216
 11
732.384
 21
98.1161
  0
LINE
  8
0
 10
732.384
 20
98.1161
 11
731.978
 21
97.8451
  0
LINE
  8
0
 10
731.978
 20
97.8451
 11
731.5
 21
97.75
  0
LINE
  8
0
 10
731.5
 20
97.75
 11
731.022
 21
97.8451
  0
LINE
  8
0
 10
731.022
 20
97.8451
 11
730.616
 21
98.1161
  0
LINE
  8
0
 10
730.616
 20
98.1161
 11
730.345
 21
98.5216
  0
LINE
  8
0
 10
730.345
 20
98.5216
 11
730.25
 21
99
  0
LINE
  8
0
 10
730.25
 20
115
 11
730.345
 21
115.478
  0
LINE
  8
0
 10
730.345
 20
115.478
 11
730.616
 21
115.884
  0
LINE
  8
0
 10
730.616
 20
115.884
 11
731.022
 21
116.155
  0
LINE
  8
0
 10
731.022
 20
116.155
 11
731.5
 21
116.25
  0
LINE
  8
0
 10
731.5
 20
116.25
 11
731.978
 21
116.155
  0
LINE
  8
0
 10
731.978
 20
116.155
 11
732.384
 21
115.884
  0
LINE
  8
0
 10
732.384
 20
115.884
 11
732.655
 21
115.478
  0
LINE
  8
0
 10
732.655
 20
115.478
 11
732.75
 21
115
  0
LINE
  8
0
 10
732.75
 20
115
 11
732.655
 21
114.522
  0
LINE
  8
0
 10
732.655
 20
114.522
 11
732.384
 21
114.116
  0
LINE
  8
0
 10
732.384
 20
114.116
 11
731.978
 21
113.845
  0
LINE
  8
0
 10
731.978
 20
113.845
 11
731.5
 21
113.75
  0
LINE
  8
0
 10
731.5
 20
113.75
 11
731.022
 21
113.845
  0
LINE
  8
0
 10
731.022
 20
113.845
 11
730.616
 21
114.116
  0
LINE
  8
0
 10
730.616
 20
114.116
 11
730.345
 21
114.522
  0
LINE
  8
0
 10
730.345
 20
114.522
 11
730.25
 21
115
  0
LINE
  8
0
 10
940.25
 20
6.5
 11
940.345
 21
6.97835
  0
LINE
  8
0
 10
940.345
 20
6.97835
 11
940.616
 21
7.38388
  0
LINE
  8
0
 10
940.616
 20
7.38388
 11
941.022
 21
7.65485
  0
LINE
  8
0
 10
941.022
 20
7.65485
 11
941.5
 21
7.75
  0
LINE
  8
0
 10
941.5
 20
7.75
 11
941.978
 21
7.65485
  0
LINE
  8
0
 10
941.978
 20
7.65485
 11
942.384
 21
7.38388
  0
LINE
  8
0
 10
942.384
 20
7.38388
 11
942.655
 21
6.97835
  0
LINE
  8
0
 10
942.655
 20
6.97835
 11
942.75
 21
6.5
  0
LINE
  8
0
 10
942.75
 20
6.5
 11
942.655
 21
6.02165
  0
LINE
  8
0
 10
942.655
 20
6.02165
 11
942.384
 21
5.61612
  0
LINE
  8
0
 10
942.384
 20
5.61612
 11
941.978
 21
5.34515
  0
LINE
  8
0
 10
941.978
 20
5.34515
 11
941.5
 21
5.25
  0
LINE
  8
0
 10
941.5
 20
5.25
 11
941.022
 21
5.34515
  0
LINE
  8
0
 10
941.022
 20
5.34515
 11
940.616
 21
5.61612
  0
LINE
  8
0
 10
940.616
 20
5.61612
 11
940.345
 21
6.02165
  0
LINE
  8
0
 10
940.345
 20
6.02165
 11
940.25
 21
6.5
  0
LINE
  8
0
 10
940.25
 20
35
 11
940.345
 21
35.4784
  0
LINE
  8
0
 10
940.345
 20
35.4784
 11
940.616
 21
35.8839
  0
LINE
  8
0
 10
940.616
 20
35.8839
 11
941.022
 21
36.1548
  0
LINE
  8
0
 10
941.022
 20
36.1548
 11
941.5
 21
36.25
  0
LINE
  8
0
 10
941.5
 20
36.25
 11
941.978
 21
36.1548
  0
LINE
  8
0
 10
941.978
 20
36.1548
 11
942.384
 21
35.8839
  0
LINE
  8
0
 10
942.384
 20
35.8839
 11
942.655
 21
35.4784
  0
LINE
  8
0
 10
942.655
 20
35.4784
 11
942.75
 21
35
  0
LINE
  8
0
 10
942.75
 20
35
 11
942.655
 21
34.5216
  0
LINE
  8
0
 10
942.655
 20
34.5216
 11
942.384
 21
34.1161
  0
LINE
  8
0
 10
942.384
 20
34.1161
 11
941.978
 21
33.8451
  0
LINE
  8
0
 10
941.978
 20
33.8451
 11
941.5
 21
33.75
  0
LINE
  8
0
 10
941.5
 20
33.75
 11
941.022
 21
33.8451
  0
LINE
  8
0
 10
941.022
 20
33.8451
 11
940.616
 21
34.1161
  0
LINE
  8
0
 10
940.616
 20
34.1161
 11
940.345
 21
34.5216
  0
LINE
  8
0
 10
940.345
 20
34.5216
 11
940.25
 21
35
  0
LINE
  8
0
 10
940.25
 20
51
 11
940.345
 21
51.4784
  0
LINE
  8
0
 10
940.345
 20
51.4784
 11
940.616
 21
51.8839
  0
LINE
  8
0
 10
940.616
 20
51.8839
 11
941.022
 21
52.1548
  0
LINE
  8
0
 10
941.022
 20
52.1548
 11
941.5
 21
52.25
  0
LINE
  8
0
 10
941.5
 20
52.25
 11
941.978
 21
52.1548
  0
LINE
  8
0
 10
941.978
 20
52.1548
 11
942.384
 21
51.8839
  0
LINE
  8
0
 10
942.384
 20
51.8839
 11
942.655
 21
51.4784
  0
LINE
  8
0
 10
942.655
 20
51.4784
 11
942.75
 21
51
  0
LINE
  8
0
 10
942.75
 20
51
 11
942.655
 21
50.5216
  0
LINE
  8
0
 10
942.655
 20
50.5216
 11
942.384
 21
50.1161
  0
LINE
  8
0
 10
942.384
 20
50.1161
 11
941.978
 21
49.8451
  0
LINE
  8
0
 10
941.978
 20
49.8451
 11
941.5
 21
49.75
  0
LINE
  8
0
 10
941.5
 20
49.75
 11
941.022
 21
49.8451
  0
LINE
  8
0
 10
941.022
 20
49.8451
 11
940.616
 21
50.1161
  0
LINE
  8
0
 10
940.616
 20
50.1161
 11
940.345
 21
50.5216
  0
LINE
  8
0
 10
940.345
 20
50.5216
 11
940.25
 21
51
  0
LINE
  8
0
 10
940.25
 20
76
 11
940.345
 21
76.4784
  0
LINE
  8
0
 10
940.345
 20
76.4784
 11
940.616
 21
76.8839
  0
LINE
  8
0
 10
940.616
 20
76.8839
 11
941.022
 21
77.1548
  0
LINE
  8
0
 10
941.022
 20
77.1548
 11
941.5
 21
77.25
  0
LINE
  8
0
 10
941.5
 20
77.25
 11
941.978
 21
77.1548
  0
LINE
  8
0
 10
941.978
 20
77.1548
 11
942.384
 21
76.8839
  0
LINE
  8
0
 10
942.384
 20
76.8839
 11
942.655
 21
76.4784
  0
LINE
  8
0
 10
942.655
 20
76.4784
 11
942.75
 21
76
  0
LINE
  8
0
 10
942.75
 20
76
 11
942.655
 21
75.5216
  0
LINE
  8
0
 10
942.655
 20
75.5216
 11
942.384
 21
75.1161
  0
LINE
  8
0
 10
942.384
 20
75.1161
 11
941.978
 21
74.8451
  0
LINE
  8
0
 10
941.978
 20
74.8451
 11
941.5
 21
74.75
  0
LINE
  8
0
 10
941.5
 20
74.75
 11
941.022
 21
74.8451
  0
LINE
  8
0
 10
941.022
 20
74.8451
 11
940.616
 21
75.1161
  0
LINE
  8
0
 10
940.616
 20
75.1161
 11
940.345
 21
75.5216
  0
LINE
  8
0
 10
940.345
 20
75.5216
 11
940.25
 21
76
  0
LINE
  8
0
 10
940.25
 20
99
 11
940.345
 21
99.4784
  0
LINE
  8
0
 10
940.345
 20
99.4784
 11
940.616
 21
99.8839
  0
LINE
  8
0
 10
940.616
 20
99.8839
 11
941.022
 21
100.155
  0
LINE
  8
0
 10
941.022
 20
100.155
 11
941.5
 21
100.25
  0
LINE
  8
0
 10
941.5
 20
100.25
 11
941.978
 21
100.155
  0
LINE
  8
0
 10
941.978
 20
100.155
 11
942.384
 21
99.8839
  0
LINE
  8
0
 10
942.384
 20
99.8839
 11
942.655
 21
99.4784
  0
LINE
  8
0
 10
942.655
 20
99.4784
 11
942.75
 21
99
  0
LINE
  8
0
 10
942.75
 20
99
 11
942.655
 21
98.5216
  0
LINE
  8
0
 10
942.655
 20
98.5216
 11
942.384
 21
98.1161
  0
LINE
  8
0
 10
942.384
 20
98.1161
 11
941.978
 21
97.8451
  0
LINE
  8
0
 10
941.978
 20
97.8451
 11
941.5
 21
97.75
  0
LINE
  8
0
 10
941.5
 20
97.75
 11
941.022
 21
97.8451
  0
LINE
  8
0
 10
941.022
 20
97.8451
 11
940.616
 21
98.1161
  0
LINE
  8
0
 10
940.616
 20
98.1161
 11
940.345
 21
98.5216
  0
LINE
  8
0
 10
940.345
 20
98.5216
 11
940.25
 21
99
  0
LINE
  8
0
 10
940.25
 20
115
 11
940.345
 21
115.478
  0
LINE
  8
0
 10
940.345
 20
115.478
 11
940.616
 21
115.884
  0
LINE
  8
0
 10
940.616
 20
115.884
 11
941.022
 21
116.155
  0
LINE
  8
0
 10
941.022
 20
116.155
 11
941.5
 21
116.25
  0
LINE
  8
0
 10
941.5
 20
116.25
 11
941.978
 21
116.155
  0
LINE
  8
0
 10
941.978
 20
116.155
 11
942.384
 21
115.884
  0
LINE
  8
0
 10
942.384
 20
115.884
 11
942.655
 21
115.478
  0
LINE
  8
0
 10
942.655
 20
115.478
 11
942.75
 21
115
  0
LINE
  8
0
 10
942.75
 20
115
 11
942.655
 21
114.522
  0
LINE
  8
0
 10
942.655
 20
114.522
 11
942.384
 21
114.116
  0
LINE
  8
0
 10
942.384
 20
114.116
 11
941.978
 21
113.845
  0
LINE
  8
0
 10
941.978
 20
113.845
 11
941.5
 21
113.75
  0
LINE
  8
0
 10
941.5
 20
113.75
 11
941.022
 21
113.845
  0
LINE
  8
0
 10
941.022
 20
113.845
 11
940.616
 21
114.116
  0
LINE
  8
0
 10
940.616
 20
114.116
 11
940.345
 21
114.522
  0
LINE
  8
0
 10
940.345
 20
114.522
 11
940.25
 21
115
  0
LINE
  8
0
 10
1150.25
 20
6.5
 11
1150.35
 21
6.97835
  0
LINE
  8
0
 10
1150.35
 20
6.97835
 11
1150.62
 21
7.38388
  0
LINE
  8
0
 10
1150.62
 20
7.38388
 11
1151.02
 21
7.65485
  0
LINE
  8
0
 10
1151.02
 20
7.65485
 11
1151.5
 21
7.75
  0
LINE
  8
0
 10
1151.5
 20
7.75
 11
1151.98
 21
7.65485
  0
LINE
  8
0
 10
1151.98
 20
7.65485
 11
1152.38
 21
7.38388
  0
LINE
  8
0
 10
1152.38
 20
7.38388
 11
1152.65
 21
6.97835
  0
LINE
  8
0
 10
1152.65
 20
6.97835
 11
1152.75
 21
6.5
  0
LINE
  8
0
 10
1152.75
 20
6.5
 11
1152.65
 21
6.02165
  0
LINE
  8
0
 10
1152.65
 20
6.02165
 11
1152.38
 21
5.61612
  0
LINE
  8
0
 10
1152.38
 20
5.61612
 11
1151.98
 21
5.34515
  0
LINE
  8
0
 10
1151.98
 20
5.34515
 11
1151.5
 21
5.25
  0
LINE
  8
0
 10
1151.5
 20
5.25
 11
1151.02
 21
5.34515
  0
LINE
  8
0
 10
1151.02
 20
5.34515
 11
1150.62
 21
5.61612
  0
LINE
  8
0
 10
1150.62
 20
5.61612
 11
1150.35
 21
6.02165
  0
LINE
  8
0
 10
1150.35
 20
6.02165
 11
1150.25
 21
6.5
  0
LINE
  8
0
 10
1150.25
 20
35
 11
1150.35
 21
35.4784
  0
LINE
  8
0
 10
1150.35
 20
35.4784
 11
1150.62
 21
35.8839
  0
LINE
  8
0
 10
1150.62
 20
35.8839
 11
1151.02
 21
36.1548
  0
LINE
  8
0
 10
1151.02
 20
36.1548
 11
1151.5
 21
36.25
  0
LINE
  8
0
 10
1151.5
 20
36.25
 11
1151.98
 21
36.1548
  0
LINE
  8
0
 10
1151.98
 20
36.1548
 11
1152.38
 21
35.8839
  0
LINE
  8
0
 10
1152.38
 20
35.8839
 11
1152.65
 21
35.4784
  0
LINE
  8
0
 10
1152.65
 20
35.4784
 11
1152.75
 21
35
  0
LINE
  8
0
 10
1152.75
 20
35
 11
1152.65
 21
34.5216
  0
LINE
  8
0
 10
1152.65
 20
34.5216
 11
1152.38
 21
34.1161
  0
LINE
  8
0
 10
1152.38
 20
34.1161
 11
1151.98
 21
33.8451
  0
LINE
  8
0
 10
1151.98
 20
33.8451
 11
1151.5
 21
33.75
  0
LINE
  8
0
 10
1151.5
 20
33.75
 11
1151.02
 21
33.8451
  0
LINE
  8
0
 10
1151.02
 20
33.8451
 11
1150.62
 21
34.1161
  0
LINE
  8
0
 10
1150.62
 20
34.1161
 11
1150.35
 21
34.5216
  0
LINE
  8
0
 10
1150.35
 20
34.5216
 11
1150.25
 21
35
  0
LINE
  8
0
 10
1150.25
 20
51
 11
1150.35
 21
51.4784
  0
LINE
  8
0
 10
1150.35
 20
51.4784
 11
1150.62
 21
51.8839
  0
LINE
  8
0
 10
1150.62
 20
51.8839
 11
1151.02
 21
52.1548
  0
LINE
  8
0
 10
1151.02
 20
52.1548
 11
1151.5
 21
52.25
  0
LINE
  8
0
 10
1151.5
 20
52.25
 11
1151.98
 21
52.1548
  0
LINE
  8
0
 10
1151.98
 20
52.1548
 11
1152.38
 21
51.8839
  0
LINE
  8
0
 10
1152.38
 20
51.8839
 11
1152.65
 21
51.4784
  0
LINE
  8
0
 10
1152.65
 20
51.4784
 11
1152.75
 21
51
  0
LINE
  8
0
 10
1152.75
 20
51
 11
1152.65
 21
50.5216
  0
LINE
  8
0
 10
1152.65
 20
50.5216
 11
1152.38
 21
50.1161
  0
LINE
  8
0
 10
1152.38
 20
50.1161
 11
1151.98
 21
49.8451
  0
LINE
  8
0
 10
1151.98
 20
49.8451
 11
1151.5
 21
49.75
  0
LINE
  8
0
 10
1151.5
 20
49.75
 11
1151.02
 21
49.8451
  0
LINE
  8
0
 10
1151.02
 20
49.8451
 11
1150.62
 21
50.1161
  0
LINE
  8
0
 10
1150.62
 20
50.1161
 11
1150.35
 21
50.5216
  0
LINE
  8
0
 10
1150.35
 20
50.5216
 11
1150.25
 21
51
  0
LINE
  8
0
 10
1150.25
 20
76
 11
1150.35
 21
76.4784
  0
LINE
  8
0
 10
1150.35
 20
76.4784
 11
1150.62
 21
76.8839
  0
LINE
  8
0
 10
1150.62
 20
76.8839
 11
1151.02
 21
77.1548
  0
LINE
  8
0
 10
1151.02
 20
77.1548
 11
1151.5
 21
77.25
  0
LINE
  8
0
 10
1151.5
 20
77.25
 11
1151.98
 21
77.1548
  0
LINE
  8
0
 10
1151.98
 20
77.1548
 11
1152.38
 21
76.8839
  0
LINE
  8
0
 10
1152.38
 20
76.8839
 11
1152.65
 21
76.4784
  0
LINE
  8
0
 10
1152.65
 20
76.4784
 11
1152.75
 21
76
  0
LINE
  8
0
 10
1152.75
 20
76
 11
1152.65
 21
75.5216
  0
LINE
  8
0
 10
1152.65
 20
75.5216
 11
1152.38
 21
75.1161
  0
LINE
  8
0
 10
1152.38
 20
75.1161
 11
1151.98
 21
74.8451
  0
LINE
  8
0
 10
1151.98
 20
74.8451
 11
1151.5
 21
74.75
  0
LINE
  8
0
 10
1151.5
 20
74.75
 11
1151.02
 21
74.8451
  0
LINE
  8
0
 10
1151.02
 20
74.8451
 11
1150.62
 21
75.1161
  0
LINE
  8
0
 10
1150.62
 20
75.1161
 11
1150.35
 21
75.5216
  0
LINE
  8
0
 10
1150.35
 20
75.5216
 11
1150.25
 21
76
  0
LINE
  8
0
 10
1150.25
 20
99
 11
1150.35
 21
99.4784
  0
LINE
  8
0
 10
1150.35
 20
99.4784
 11
1150.62
 21
99.8839
  0
LINE
  8
0
 10
1150.62
 20
99.8839
 11
1151.02
 21
100.155
  0
LINE
  8
0
 10
1151.02
 20
100.155
 11
1151.5
 21
100.25
  0
LINE
  8
0
 10
1151.5
 20
100.25
 11
1151.98
 21
100.155
  0
LINE
  8
0
 10
1151.98
 20
100.155
 11
1152.38
 21
99.8839
  0
LINE
  8
0
 10
1152.38
 20
99.8839
 11
1152.65
 21
99.4784
  0
LINE
  8
0
 10
1152.65
 20
99.4784
 11
1152.75
 21
99
  0
LINE
  8
0
 10
1152.75
 20
99
 11
1152.65
 21
98.5216
  0
LINE
  8
0
 10
1152.65
 20
98.5216
 11
1152.38
 21
98.1161
  0
LINE
  8
0
 10
1152.38
 20
98.1161
 11
1151.98
 21
97.8451
  0
LINE
  8
0
 10
1151.98
 20
97.8451
 11
1151.5
 21
97.75
  0
LINE
  8
0
 10
1151.5
 20
97.75
 11
1151.02
 21
97.8451
  0
LINE
  8
0
 10
1151.02
 20
97.8451
 11
1150.62
 21
98.1161
  0
LINE
  8
0
 10
1150.62
 20
98.1161
 11
1150.35
 21
98.5216
  0
LINE
  8
0
 10
1150.35
 20
98.5216
 11
1150.25
 21
99
  0
LINE
  8
0
 10
1150.25
 20
115
 11
1150.35
 21
115.478
  0
LINE
  8
0
 10
1150.35
 20
115.478
 11
1150.62
 21
115.884
  0
LINE
  8
0
 10
1150.62
 20
115.884
 11
1151.02
 21
116.155
  0
LINE
  8
0
 10
1151.02
 20
116.155
 11
1151.5
 21
116.25
  0
LINE
  8
0
 10
1151.5
 20
116.25
 11
1151.98
 21
116.155
  0
LINE
  8
0
 10
1151.98
 20
116.155
 11
1152.38
 21
115.884
  0
LINE
  8
0
 10
1152.38
 20
115.884
 11
1152.65
 21
115.478
  0
LINE
  8
0
 10
1152.65
 20
115.478
 11
1152.75
 21
115
  0
LINE
  8
0
 10
1152.75
 20
115
 11
1152.65
 21
114.522
  0
LINE
  8
0
 10
1152.65
 20
114.522
 11
1152.38
 21
114.116
  0
LINE
  8
0
 10
1152.38
 20
114.116
 11
1151.98
 21
113.845
  0
LINE
  8
0
 10
1151.98
 20
113.845
 11
1151.5
 21
113.75
  0
LINE
  8
0
 10
1151.5
 20
113.75
 11
1151.02
 21
113.845
  0
LINE
  8
0
 10
1151.02
 20
113.845
 11
1150.62
 21
114.116
  0
LINE
  8
0
 10
1150.62
 20
114.116
 11
1150.35
 21
114.522
  0
LINE
  8
0
 10
1150.35
 20
114.522
 11
1150.25
 21
115
  0
LINE
  8
0
 10
1296.5
 20
50
 11
1296.65
 21
50.7654
  0
LINE
  8
0
 10
1296.65
 20
50.7654
 11
1297.09
 21
51.4142
  0
LINE
  8
0
 10
1297.09
 20
51.4142
 11
1297.73
 21
51.8478
  0
LINE
  8
0
 10
1297.73
 20
51.8478
 11
1298.5
 21
52
  0
LINE
  8
0
 10
1298.5
 20
52
 11
1299.27
 21
51.8478
  0
LINE
  8
0
 10
1299.27
 20
51.8478
 11
1299.91
 21
51.4142
  0
LINE
  8
0
 10
1299.91
 20
51.4142
 11
1300.35
 21
50.7654
  0
LINE
  8
0
 10
1300.35
 20
50.7654
 11
1300.5
 21
50
  0
LINE
  8
0
 10
1300.5
 20
50
 11
1300.35
 21
49.2346
  0
LINE
  8
0
 10
1300.35
 20
49.2346
 11
1299.91
 21
48.5858
  0
LINE
  8
0
 10
1299.91
 20
48.5858
 11
1299.27
 21
48.1522
  0
LINE
  8
0
 10
1299.27
 20
48.1522
 11
1298.5
 21
48
  0
LINE
  8
0
 10
1298.5
 20
48
 11
1297.73
 21
48.1522
  0
LINE
  8
0
 10
1297.73
 20
48.1522
 11
1297.09
 21
48.5858
  0
LINE
  8
0
 10
1297.09
 20
48.5858
 11
1296.65
 21
49.2346
  0
LINE
  8
0
 10
1296.65
 20
49.2346
 11
1296.5
 21
50
  0
LINE
  8
0
 10
1296.5
 20
180
 11
1296.65
 21
180.765
  0
LINE
  8
0
 10
1296.65
 20
180.765
 11
1297.09
 21
181.414
  0
LINE
  8
0
 10
1297.09
 20
181.414
 11
1297.73
 21
181.848
  0
LINE
  8
0
 10
1297.73
 20
181.848
 11
1298.5
 21
182
  0
LINE
  8
0
 10
1298.5
 20
182
 11
1299.27
 21
181.848
  0
LINE
  8
0
 10
1299.27
 20
181.848
 11
1299.91
 21
181.414
  0
LINE
  8
0
 10
1299.91
 20
181.414
 11
1300.35
 21
180.765
  0
LINE
  8
0
 10
1300.35
 20
180.765
 11
1300.5
 21
180
  0
LINE
  8
0
 10
1300.5
 20
180
 11
1300.35
 21
179.235
  0
LINE
  8
0
 10
1300.35
 20
179.235
 11
1299.91
 21
178.586
  0
LINE
  8
0
 10
1299.91
 20
178.586
 11
1299.27
 21
178.152
  0
LINE
  8
0
 10
1299.27
 20
178.152
 11
1298.5
 21
178
  0
LINE
  8
0
 10
1298.5
 20
178
 11
1297.73
 21
178.152
  0
LINE
  8
0
 10
1297.73
 20
178.152
 11
1297.09
 21
178.586
  0
LINE
  8
0
 10
1297.09
 20
178.586
 11
1296.65
 21
179.235
  0
LINE
  8
0
 10
1296.65
 20
179.235
 11
1296.5
 21
180
  0
LINE
  8
0
 10
1627.17
 20
50
 11
1627.32
 21
50.7654
  0
LINE
  8
0
 10
1627.32
 20
50.7654
 11
1627.75
 21
51.4142
  0
LINE
  8
0
 10
1627.75
 20
51.4142
 11
1628.4
 21
51.8478
  0
LINE
  8
0
 10
1628.4
 20
51.8478
 11
1629.17
 21
52
  0
LINE
  8
0
 10
1629.17
 20
52
 11
1629.93
 21
51.8478
  0
LINE
  8
0
 10
1629.93
 20
51.8478
 11
1630.58
 21
51.4142
  0
LINE
  8
0
 10
1630.58
 20
51.4142
 11
1631.01
 21
50.7654
  0
LINE
  8
0
 10
1631.01
 20
50.7654
 11
1631.17
 21
50
  0
LINE
  8
0
 10
1631.17
 20
50
 11
1631.01
 21
49.2346
  0
LINE
  8
0
 10
1631.01
 20
49.2346
 11
1630.58
 21
48.5858
  0
LINE
  8
0
 10
1630.58
 20
48.5858
 11
1629.93
 21
48.1522
  0
LINE
  8
0
 10
1629.93
 20
48.1522
 11
1629.17
 21
48
  0
LINE
  8
0
 10
1629.17
 20
48
 11
1628.4
 21
48.1522
  0
LINE
  8
0
 10
1628.4
 20
48.1522
 11
1627.75
 21
48.5858
  0
LINE
  8
0
 10
1627.75
 20
48.5858
 11
1627.32
 21
49.2346
  0
LINE
  8
0
 10
1627.32
 20
49.2346
 11
1627.17
 21
50
  0
LINE
  8
0
 10
1627.17
 20
180
 11
1627.32
 21
180.765
  0
LINE
  8
0
 10
1627.32
 20
180.765
 11
1627.75
 21
181.414
  0
LINE
  8
0
 10
1627.75
 20
181.414
 11
1628.4
 21
181.848
  0
LINE
  8
0
 10
1628.4
 20
181.848
 11
1629.17
 21
182
  0
LINE
  8
0
 10
1629.17
 20
182
 11
1629.93
 21
181.848
  0
LINE
  8
0
 10
1629.93
 20
181.848
 11
1630.58
 21
181.414
  0
LINE
  8
0
 10
1630.58
 20
181.414
 11
1631.01
 21
180.765
  0
LINE
  8
0
 10
1631.01
 20
180.765
 11
1631.17
 21
180
  0
LINE
  8
0
 10
1631.17
 20
180
 11
1631.01
 21
179.235
  0
LINE
  8
0
 10
1631.01
 20
179.235
 11
1630.58
 21
178.586
  0
LINE
  8
0
 10
1630.58
 20
178.586
 11
1629.93
 21
178.152
  0
LINE
  8
0
 10
1629.93
 20
178.152
 11
1629.17
 21
178
  0
LINE
  8
0
 10
1629.17
 20
178
 11
1628.4
 21
178.152
  0
LINE
  8
0
 10
1628.4
 20
178.152
 11
1627.75
 21
178.586
  0
LINE
  8
0
 10
1627.75
 20
178.586
 11
1627.32
 21
179.235
  0
LINE
  8
0
 10
1627.32
 20
179.235
 11
1627.17
 21
180
  0
LINE
  8
0
 10
1957.83
 20
50
 11
1957.99
 21
50.7654
  0
LINE
  8
0
 10
1957.99
 20
50.7654
 11
1958.42
 21
51.4142
  0
LINE
  8
0
 10
1958.42
 20
51.4142
 11
1959.07
 21
51.8478
  0
LINE
  8
0
 10
1959.07
 20
51.8478
 11
1959.83
 21
52
  0
LINE
  8
0
 10
1959.83
 20
52
 11
1960.6
 21
51.8478
  0
LINE
  8
0
 10
1960.6
 20
51.8478
 11
1961.25
 21
51.4142
  0
LINE
  8
0
 10
1961.25
 20
51.4142
 11
1961.68
 21
50.7654
  0
LINE
  8
0
 10
1961.68
 20
50.7654
 11
1961.83
 21
50
  0
LINE
  8
0
 10
1961.83
 20
50
 11
1961.68
 21
49.2346
  0
LINE
  8
0
 10
1961.68
 20
49.2346
 11
1961.25
 21
48.5858
  0
LINE
  8
0
 10
1961.25
 20
48.5858
 11
1960.6
 21
48.1522
  0
LINE
  8
0
 10
1960.6
 20
48.1522
 11
1959.83
 21
48
  0
LINE
  8
0
 10
1959.83
 20
48
 11
1959.07
 21
48.1522
  0
LINE
  8
0
 10
1959.07
 20
48.1522
 11
1958.42
 21
48.5858
  0
LINE
  8
0
 10
1958.42
 20
48.5858
 11
1957.99
 21
49.2346
  0
LINE
  8
0
 10
1957.99
 20
49.2346
 11
1957.83
 21
50
  0
LINE
  8
0
 10
1957.83
 20
180
 11
1957.99
 21
180.765
  0
LINE
  8
0
 10
1957.99
 20
180.765
 11
1958.42
 21
181.414
  0
LINE
  8
0
 10
1958.42
 20
181.414
 11
1959.07
 21
181.848
  0
LINE
  8
0
 10
1959.07
 20
181.848
 11
1959.83
 21
182
  0
LINE
  8
0
 10
1959.83
 20
182
 11
1960.6
 21
181.848
  0
LINE
  8
0
 10
1960.6
 20
181.848
 11
1961.25
 21
181.414
  0
LINE
  8
0
 10
1961.25
 20
181.414
 11
1961.68
 21
180.765
  0
LINE
  8
0
 10
1961.68
 20
180.765
 11
1961.83
 21
180
  0
LINE
  8
0
 10
1961.83
 20
180
 11
1961.68
 21
179.235
  0
LINE
  8
0
 10
1961.68
 20
179.235
 11
1961.25
 21
178.586
  0
LINE
  8
0
 10
1961.25
 20
178.586
 11
1960.6
 21
178.152
  0
LINE
  8
0
 10
1960.6
 20
178.152
 11
1959.83
 21
178
  0
LINE
  8
0
 10
1959.83
 20
178
 11
1959.07
 21
178.152
  0
LINE
  8
0
 10
1959.07
 20
178.152
 11
1958.42
 21
178.586
  0
LINE
  8
0
 10
1958.42
 20
178.586
 11
1957.99
 21
179.235
  0
LINE
  8
0
 10
1957.99
 20
179.235
 11
1957.83
 21
180
  0
LINE
  8
0
 10
2288.5
 20
50
 11
2288.65
 21
50.7654
  0
LINE
  8
0
 10
2288.65
 20
50.7654
 11
2289.09
 21
51.4142
  0
LINE
  8
0
 10
2289.09
 20
51.4142
 11
2289.73
 21
51.8478
  0
LINE
  8
0
 10
2289.73
 20
51.8478
 11
2290.5
 21
52
  0
LINE
  8
0
 10
2290.5
 20
52
 11
2291.27
 21
51.8478
  0
LINE
  8
0
 10
2291.27
 20
51.8478
 11
2291.91
 21
51.4142
  0
LINE
  8
0
 10
2291.91
 20
51.4142
 11
2292.35
 21
50.7654
  0
LINE
  8
0
 10
2292.35
 20
50.7654
 11
2292.5
 21
50
  0
LINE
  8
0
 10
2292.5
 20
50
 11
2292.35
 21
49.2346
  0
LINE
  8
0
 10
2292.35
 20
49.2346
 11
2291.91
 21
48.5858
  0
LINE
  8
0
 10
2291.91
 20
48.5858
 11
2291.27
 21
48.1522
  0
LINE
  8
0
 10
2291.27
 20
48.1522
 11
2290.5
 21
48
  0
LINE
  8
0
 10
2290.5
 20
48
 11
2289.73
 21
48.1522
  0
LINE
  8
0
 10
2289.73
 20
48.1522
 11
2289.09
 21
48.5858
  0
LINE
  8
0
 10
2289.09
 20
48.5858
 11
2288.65
 21
49.2346
  0
LINE
  8
0
 10
2288.65
 20
49.2346
 11
2288.5
 21
50
  0
LINE
  8
0
 10
2288.5
 20
180
 11
2288.65
 21
180.765
  0
LINE
  8
0
 10
2288.65
 20
180.765
 11
2289.09
 21
181.414
  0
LINE
  8
0
 10
2289.09
 20
181.414
 11
2289.73
 21
181.848
  0
LINE
  8
0
 10
2289.73
 20
181.848
 11
2290.5
 21
182
  0
LINE
  8
0
 10
2290.5
 20
182
 11
2291.27
 21
181.848
  0
LINE
  8
0
 10
2291.27
 20
181.848
 11
2291.91
 21
181.414
  0
LINE
  8
0
 10
2291.91
 20
181.414
 11
2292.35
 21
180.765
  0
LINE
  8
0
 10
2292.35
 20
180.765
 11
2292.5
 21
180
  0
LINE
  8
0
 10
2292.5
 20
180
 11
2292.35
 21
179.235
  0
LINE
  8
0
 10
2292.35
 20
179.235
 11
2291.91
 21
178.586
  0
LINE
  8
0
 10
2291.91
 20
178.586
 11
2291.27
 21
178.152
  0
LINE
  8
0
 10
2291.27
 20
178.152
 11
2290.5
 21
178
  0
LINE
  8
0
 10
2290.5
 20
178
 11
2289.73
 21
178.152
  0
LINE
  8
0
 10
2289.73
 20
178.152
 11
2289.09
 21
178.586
  0
LINE
  8
0
 10
2289.09
 20
178.586
 11
2288.65
 21
179.235
  0
LINE
  8
0
 10
2288.65
 20
179.235
 11
2288.5
 21
180
  0
ENDSEC
  0
SECTION
  2
OBJECTS
  0
DICTIONARY
  0
ENDSEC
  0
EOF
