  0
SECTION
  2
BLOCKS
  0
ENDSEC
  0
SECTION
  2
ENTITIES
  0
LINE
  8
0
 10
0
 20
0
 11
2300
 21
0
  0
LINE
  8
0
 10
2300
 20
0
 11
2300
 21
230
  0
LINE
  8
0
 10
2300
 20
230
 11
0
 21
230
  0
LINE
  8
0
 10
0
 20
230
 11
0
 21
0
  0
LINE
  8
0
 10
7.5
 20
50
 11
7.65224
 21
50.7654
  0
LINE
  8
0
 10
7.65224
 20
50.7654
 11
8.08579
 21
51.4142
  0
LINE
  8
0
 10
8.08579
 20
51.4142
 11
8.73463
 21
51.8478
  0
LINE
  8
0
 10
8.73463
 20
51.8478
 11
9.5
 21
52
  0
LINE
  8
0
 10
9.5
 20
52
 11
10.2654
 21
51.8478
  0
LINE
  8
0
 10
10.2654
 20
51.8478
 11
10.9142
 21
51.4142
  0
LINE
  8
0
 10
10.9142
 20
51.4142
 11
11.3478
 21
50.7654
  0
LINE
  8
0
 10
11.3478
 20
50.7654
 11
11.5
 21
50
  0
LINE
  8
0
 10
11.5
 20
50
 11
11.3478
 21
49.2346
  0
LINE
  8
0
 10
11.3478
 20
49.2346
 11
10.9142
 21
48.5858
  0
LINE
  8
0
 10
10.9142
 20
48.5858
 11
10.2654
 21
48.1522
  0
LINE
  8
0
 10
10.2654
 20
48.1522
 11
9.5
 21
48
  0
LINE
  8
0
 10
9.5
 20
48
 11
8.73463
 21
48.1522
  0
LINE
  8
0
 10
8.73463
 20
48.1522
 11
8.08579
 21
48.5858
  0
LINE
  8
0
 10
8.08579
 20
48.5858
 11
7.65224
 21
49.2346
  0
LINE
  8
0
 10
7.65224
 20
49.2346
 11
7.5
 21
50
  0
LINE
  8
0
 10
7.5
 20
180
 11
7.65224
 21
180.765
  0
LINE
  8
0
 10
7.65224
 20
180.765
 11
8.08579
 21
181.414
  0
LINE
  8
0
 10
8.08579
 20
181.414
 11
8.73463
 21
181.848
  0
LINE
  8
0
 10
8.73463
 20
181.848
 11
9.5
 21
182
  0
LINE
  8
0
 10
9.5
 20
182
 11
10.2654
 21
181.848
  0
LINE
  8
0
 10
10.2654
 20
181.848
 11
10.9142
 21
181.414
  0
LINE
  8
0
 10
10.9142
 20
181.414
 11
11.3478
 21
180.765
  0
LINE
  8
0
 10
11.3478
 20
180.765
 11
11.5
 21
180
  0
LINE
  8
0
 10
11.5
 20
180
 11
11.3478
 21
179.235
  0
LINE
  8
0
 10
11.3478
 20
179.235
 11
10.9142
 21
178.586
  0
LINE
  8
0
 10
10.9142
 20
178.586
 11
10.2654
 21
178.152
  0
LINE
  8
0
 10
10.2654
 20
178.152
 11
9.5
 21
178
  0
LINE
  8
0
 10
9.5
 20
178
 11
8.73463
 21
178.152
  0
LINE
  8
0
 10
8.73463
 20
178.152
 11
8.08579
 21
178.586
  0
LINE
  8
0
 10
8.08579
 20
178.586
 11
7.65224
 21
179.235
  0
LINE
  8
0
 10
7.65224
 20
179.235
 11
7.5
 21
180
  0
LINE
  8
0
 10
338.167
 20
50
 11
338.319
 21
50.7654
  0
LINE
  8
0
 10
338.319
 20
50.7654
 11
338.752
 21
51.4142
  0
LINE
  8
0
 10
338.752
 20
51.4142
 11
339.401
 21
51.8478
  0
LINE
  8
0
 10
339.401
 20
51.8478
 11
340.167
 21
52
  0
LINE
  8
0
 10
340.167
 20
52
 11
340.932
 21
51.8478
  0
LINE
  8
0
 10
340.932
 20
51.8478
 11
341.581
 21
51.4142
  0
LINE
  8
0
 10
341.581
 20
51.4142
 11
342.014
 21
50.7654
  0
LINE
  8
0
 10
342.014
 20
50.7654
 11
342.167
 21
50
  0
LINE
  8
0
 10
342.167
 20
50
 11
342.014
 21
49.2346
  0
LINE
  8
0
 10
342.014
 20
49.2346
 11
341.581
 21
48.5858
  0
LINE
  8
0
 10
341.581
 20
48.5858
 11
340.932
 21
48.1522
  0
LINE
  8
0
 10
340.932
 20
48.1522
 11
340.167
 21
48
  0
LINE
  8
0
 10
340.167
 20
48
 11
339.401
 21
48.1522
  0
LINE
  8
0
 10
339.401
 20
48.1522
 11
338.752
 21
48.5858
  0
LINE
  8
0
 10
338.752
 20
48.5858
 11
338.319
 21
49.2346
  0
LINE
  8
0
 10
338.319
 20
49.2346
 11
338.167
 21
50
  0
LINE
  8
0
 10
338.167
 20
180
 11
338.319
 21
180.765
  0
LINE
  8
0
 10
338.319
 20
180.765
 11
338.752
 21
181.414
  0
LINE
  8
0
 10
338.752
 20
181.414
 11
339.401
 21
181.848
  0
LINE
  8
0
 10
339.401
 20
181.848
 11
340.167
 21
182
  0
LINE
  8
0
 10
340.167
 20
182
 11
340.932
 21
181.848
  0
LINE
  8
0
 10
340.932
 20
181.848
 11
341.581
 21
181.414
  0
LINE
  8
0
 10
341.581
 20
181.414
 11
342.014
 21
180.765
  0
LINE
  8
0
 10
342.014
 20
180.765
 11
342.167
 21
180
  0
LINE
  8
0
 10
342.167
 20
180
 11
342.014
 21
179.235
  0
LINE
  8
0
 10
342.014
 20
179.235
 11
341.581
 21
178.586
  0
LINE
  8
0
 10
341.581
 20
178.586
 11
340.932
 21
178.152
  0
LINE
  8
0
 10
340.932
 20
178.152
 11
340.167
 21
178
  0
LINE
  8
0
 10
340.167
 20
178
 11
339.401
 21
178.152
  0
LINE
  8
0
 10
339.401
 20
178.152
 11
338.752
 21
178.586
  0
LINE
  8
0
 10
338.752
 20
178.586
 11
338.319
 21
179.235
  0
LINE
  8
0
 10
338.319
 20
179.235
 11
338.167
 21
180
  0
LINE
  8
0
 10
668.833
 20
50
 11
668.986
 21
50.7654
  0
LINE
  8
0
 10
668.986
 20
50.7654
 11
669.419
 21
51.4142
  0
LINE
  8
0
 10
669.419
 20
51.4142
 11
670.068
 21
51.8478
  0
LINE
  8
0
 10
670.068
 20
51.8478
 11
670.833
 21
52
  0
LINE
  8
0
 10
670.833
 20
52
 11
671.599
 21
51.8478
  0
LINE
  8
0
 10
671.599
 20
51.8478
 11
672.248
 21
51.4142
  0
LINE
  8
0
 10
672.248
 20
51.4142
 11
672.681
 21
50.7654
  0
LINE
  8
0
 10
672.681
 20
50.7654
 11
672.833
 21
50
  0
LINE
  8
0
 10
672.833
 20
50
 11
672.681
 21
49.2346
  0
LINE
  8
0
 10
672.681
 20
49.2346
 11
672.248
 21
48.5858
  0
LINE
  8
0
 10
672.248
 20
48.5858
 11
671.599
 21
48.1522
  0
LINE
  8
0
 10
671.599
 20
48.1522
 11
670.833
 21
48
  0
LINE
  8
0
 10
670.833
 20
48
 11
670.068
 21
48.1522
  0
LINE
  8
0
 10
670.068
 20
48.1522
 11
669.419
 21
48.5858
  0
LINE
  8
0
 10
669.419
 20
48.5858
 11
668.986
 21
49.2346
  0
LINE
  8
0
 10
668.986
 20
49.2346
 11
668.833
 21
50
  0
LINE
  8
0
 10
668.833
 20
180
 11
668.986
 21
180.765
  0
LINE
  8
0
 10
668.986
 20
180.765
 11
669.419
 21
181.414
  0
LINE
  8
0
 10
669.419
 20
181.414
 11
670.068
 21
181.848
  0
LINE
  8
0
 10
670.068
 20
181.848
 11
670.833
 21
182
  0
LINE
  8
0
 10
670.833
 20
182
 11
671.599
 21
181.848
  0
LINE
  8
0
 10
671.599
 20
181.848
 11
672.248
 21
181.414
  0
LINE
  8
0
 10
672.248
 20
181.414
 11
672.681
 21
180.765
  0
LINE
  8
0
 10
672.681
 20
180.765
 11
672.833
 21
180
  0
LINE
  8
0
 10
672.833
 20
180
 11
672.681
 21
179.235
  0
LINE
  8
0
 10
672.681
 20
179.235
 11
672.248
 21
178.586
  0
LINE
  8
0
 10
672.248
 20
178.586
 11
671.599
 21
178.152
  0
LINE
  8
0
 10
671.599
 20
178.152
 11
670.833
 21
178
  0
LINE
  8
0
 10
670.833
 20
178
 11
670.068
 21
178.152
  0
LINE
  8
0
 10
670.068
 20
178.152
 11
669.419
 21
178.586
  0
LINE
  8
0
 10
669.419
 20
178.586
 11
668.986
 21
179.235
  0
LINE
  8
0
 10
668.986
 20
179.235
 11
668.833
 21
180
  0
LINE
  8
0
 10
999.5
 20
50
 11
999.652
 21
50.7654
  0
LINE
  8
0
 10
999.652
 20
50.7654
 11
1000.09
 21
51.4142
  0
LINE
  8
0
 10
1000.09
 20
51.4142
 11
1000.73
 21
51.8478
  0
LINE
  8
0
 10
1000.73
 20
51.8478
 11
1001.5
 21
52
  0
LINE
  8
0
 10
1001.5
 20
52
 11
1002.27
 21
51.8478
  0
LINE
  8
0
 10
1002.27
 20
51.8478
 11
1002.91
 21
51.4142
  0
LINE
  8
0
 10
1002.91
 20
51.4142
 11
1003.35
 21
50.7654
  0
LINE
  8
0
 10
1003.35
 20
50.7654
 11
1003.5
 21
50
  0
LINE
  8
0
 10
1003.5
 20
50
 11
1003.35
 21
49.2346
  0
LINE
  8
0
 10
1003.35
 20
49.2346
 11
1002.91
 21
48.5858
  0
LINE
  8
0
 10
1002.91
 20
48.5858
 11
1002.27
 21
48.1522
  0
LINE
  8
0
 10
1002.27
 20
48.1522
 11
1001.5
 21
48
  0
LINE
  8
0
 10
1001.5
 20
48
 11
1000.73
 21
48.1522
  0
LINE
  8
0
 10
1000.73
 20
48.1522
 11
1000.09
 21
48.5858
  0
LINE
  8
0
 10
1000.09
 20
48.5858
 11
999.652
 21
49.2346
  0
LINE
  8
0
 10
999.652
 20
49.2346
 11
999.5
 21
50
  0
LINE
  8
0
 10
999.5
 20
180
 11
999.652
 21
180.765
  0
LINE
  8
0
 10
999.652
 20
180.765
 11
1000.09
 21
181.414
  0
LINE
  8
0
 10
1000.09
 20
181.414
 11
1000.73
 21
181.848
  0
LINE
  8
0
 10
1000.73
 20
181.848
 11
1001.5
 21
182
  0
LINE
  8
0
 10
1001.5
 20
182
 11
1002.27
 21
181.848
  0
LINE
  8
0
 10
1002.27
 20
181.848
 11
1002.91
 21
181.414
  0
LINE
  8
0
 10
1002.91
 20
181.414
 11
1003.35
 21
180.765
  0
LINE
  8
0
 10
1003.35
 20
180.765
 11
1003.5
 21
180
  0
LINE
  8
0
 10
1003.5
 20
180
 11
1003.35
 21
179.235
  0
LINE
  8
0
 10
1003.35
 20
179.235
 11
1002.91
 21
178.586
  0
LINE
  8
0
 10
1002.91
 20
178.586
 11
1002.27
 21
178.152
  0
LINE
  8
0
 10
1002.27
 20
178.152
 11
1001.5
 21
178
  0
LINE
  8
0
 10
1001.5
 20
178
 11
1000.73
 21
178.152
  0
LINE
  8
0
 10
1000.73
 20
178.152
 11
1000.09
 21
178.586
  0
LINE
  8
0
 10
1000.09
 20
178.586
 11
999.652
 21
179.235
  0
LINE
  8
0
 10
999.652
 20
179.235
 11
999.5
 21
180
  0
LINE
  8
0
 10
1147.25
 20
6.5
 11
1147.35
 21
6.97835
  0
LINE
  8
0
 10
1147.35
 20
6.97835
 11
1147.62
 21
7.38388
  0
LINE
  8
0
 10
1147.62
 20
7.38388
 11
1148.02
 21
7.65485
  0
LINE
  8
0
 10
1148.02
 20
7.65485
 11
1148.5
 21
7.75
  0
LINE
  8
0
 10
1148.5
 20
7.75
 11
1148.98
 21
7.65485
  0
LINE
  8
0
 10
1148.98
 20
7.65485
 11
1149.38
 21
7.38388
  0
LINE
  8
0
 10
1149.38
 20
7.38388
 11
1149.65
 21
6.97835
  0
LINE
  8
0
 10
1149.65
 20
6.97835
 11
1149.75
 21
6.5
  0
LINE
  8
0
 10
1149.75
 20
6.5
 11
1149.65
 21
6.02165
  0
LINE
  8
0
 10
1149.65
 20
6.02165
 11
1149.38
 21
5.61612
  0
LINE
  8
0
 10
1149.38
 20
5.61612
 11
1148.98
 21
5.34515
  0
LINE
  8
0
 10
1148.98
 20
5.34515
 11
1148.5
 21
5.25
  0
LINE
  8
0
 10
1148.5
 20
5.25
 11
1148.02
 21
5.34515
  0
LINE
  8
0
 10
1148.02
 20
5.34515
 11
1147.62
 21
5.61612
  0
LINE
  8
0
 10
1147.62
 20
5.61612
 11
1147.35
 21
6.02165
  0
LINE
  8
0
 10
1147.35
 20
6.02165
 11
1147.25
 21
6.5
  0
LINE
  8
0
 10
1147.25
 20
35
 11
1147.35
 21
35.4784
  0
LINE
  8
0
 10
1147.35
 20
35.4784
 11
1147.62
 21
35.8839
  0
LINE
  8
0
 10
1147.62
 20
35.8839
 11
1148.02
 21
36.1548
  0
LINE
  8
0
 10
1148.02
 20
36.1548
 11
1148.5
 21
36.25
  0
LINE
  8
0
 10
1148.5
 20
36.25
 11
1148.98
 21
36.1548
  0
LINE
  8
0
 10
1148.98
 20
36.1548
 11
1149.38
 21
35.8839
  0
LINE
  8
0
 10
1149.38
 20
35.8839
 11
1149.65
 21
35.4784
  0
LINE
  8
0
 10
1149.65
 20
35.4784
 11
1149.75
 21
35
  0
LINE
  8
0
 10
1149.75
 20
35
 11
1149.65
 21
34.5216
  0
LINE
  8
0
 10
1149.65
 20
34.5216
 11
1149.38
 21
34.1161
  0
LINE
  8
0
 10
1149.38
 20
34.1161
 11
1148.98
 21
33.8451
  0
LINE
  8
0
 10
1148.98
 20
33.8451
 11
1148.5
 21
33.75
  0
LINE
  8
0
 10
1148.5
 20
33.75
 11
1148.02
 21
33.8451
  0
LINE
  8
0
 10
1148.02
 20
33.8451
 11
1147.62
 21
34.1161
  0
LINE
  8
0
 10
1147.62
 20
34.1161
 11
1147.35
 21
34.5216
  0
LINE
  8
0
 10
1147.35
 20
34.5216
 11
1147.25
 21
35
  0
LINE
  8
0
 10
1147.25
 20
51
 11
1147.35
 21
51.4784
  0
LINE
  8
0
 10
1147.35
 20
51.4784
 11
1147.62
 21
51.8839
  0
LINE
  8
0
 10
1147.62
 20
51.8839
 11
1148.02
 21
52.1548
  0
LINE
  8
0
 10
1148.02
 20
52.1548
 11
1148.5
 21
52.25
  0
LINE
  8
0
 10
1148.5
 20
52.25
 11
1148.98
 21
52.1548
  0
LINE
  8
0
 10
1148.98
 20
52.1548
 11
1149.38
 21
51.8839
  0
LINE
  8
0
 10
1149.38
 20
51.8839
 11
1149.65
 21
51.4784
  0
LINE
  8
0
 10
1149.65
 20
51.4784
 11
1149.75
 21
51
  0
LINE
  8
0
 10
1149.75
 20
51
 11
1149.65
 21
50.5216
  0
LINE
  8
0
 10
1149.65
 20
50.5216
 11
1149.38
 21
50.1161
  0
LINE
  8
0
 10
1149.38
 20
50.1161
 11
1148.98
 21
49.8451
  0
LINE
  8
0
 10
1148.98
 20
49.8451
 11
1148.5
 21
49.75
  0
LINE
  8
0
 10
1148.5
 20
49.75
 11
1148.02
 21
49.8451
  0
LINE
  8
0
 10
1148.02
 20
49.8451
 11
1147.62
 21
50.1161
  0
LINE
  8
0
 10
1147.62
 20
50.1161
 11
1147.35
 21
50.5216
  0
LINE
  8
0
 10
1147.35
 20
50.5216
 11
1147.25
 21
51
  0
LINE
  8
0
 10
1147.25
 20
76
 11
1147.35
 21
76.4784
  0
LINE
  8
0
 10
1147.35
 20
76.4784
 11
1147.62
 21
76.8839
  0
LINE
  8
0
 10
1147.62
 20
76.8839
 11
1148.02
 21
77.1548
  0
LINE
  8
0
 10
1148.02
 20
77.1548
 11
1148.5
 21
77.25
  0
LINE
  8
0
 10
1148.5
 20
77.25
 11
1148.98
 21
77.1548
  0
LINE
  8
0
 10
1148.98
 20
77.1548
 11
1149.38
 21
76.8839
  0
LINE
  8
0
 10
1149.38
 20
76.8839
 11
1149.65
 21
76.4784
  0
LINE
  8
0
 10
1149.65
 20
76.4784
 11
1149.75
 21
76
  0
LINE
  8
0
 10
1149.75
 20
76
 11
1149.65
 21
75.5216
  0
LINE
  8
0
 10
1149.65
 20
75.5216
 11
1149.38
 21
75.1161
  0
LINE
  8
0
 10
1149.38
 20
75.1161
 11
1148.98
 21
74.8451
  0
LINE
  8
0
 10
1148.98
 20
74.8451
 11
1148.5
 21
74.75
  0
LINE
  8
0
 10
1148.5
 20
74.75
 11
1148.02
 21
74.8451
  0
LINE
  8
0
 10
1148.02
 20
74.8451
 11
1147.62
 21
75.1161
  0
LINE
  8
0
 10
1147.62
 20
75.1161
 11
1147.35
 21
75.5216
  0
LINE
  8
0
 10
1147.35
 20
75.5216
 11
1147.25
 21
76
  0
LINE
  8
0
 10
1147.25
 20
99
 11
1147.35
 21
99.4784
  0
LINE
  8
0
 10
1147.35
 20
99.4784
 11
1147.62
 21
99.8839
  0
LINE
  8
0
 10
1147.62
 20
99.8839
 11
1148.02
 21
100.155
  0
LINE
  8
0
 10
1148.02
 20
100.155
 11
1148.5
 21
100.25
  0
LINE
  8
0
 10
1148.5
 20
100.25
 11
1148.98
 21
100.155
  0
LINE
  8
0
 10
1148.98
 20
100.155
 11
1149.38
 21
99.8839
  0
LINE
  8
0
 10
1149.38
 20
99.8839
 11
1149.65
 21
99.4784
  0
LINE
  8
0
 10
1149.65
 20
99.4784
 11
1149.75
 21
99
  0
LINE
  8
0
 10
1149.75
 20
99
 11
1149.65
 21
98.5216
  0
LINE
  8
0
 10
1149.65
 20
98.5216
 11
1149.38
 21
98.1161
  0
LINE
  8
0
 10
1149.38
 20
98.1161
 11
1148.98
 21
97.8451
  0
LINE
  8
0
 10
1148.98
 20
97.8451
 11
1148.5
 21
97.75
  0
LINE
  8
0
 10
1148.5
 20
97.75
 11
1148.02
 21
97.8451
  0
LINE
  8
0
 10
1148.02
 20
97.8451
 11
1147.62
 21
98.1161
  0
LINE
  8
0
 10
1147.62
 20
98.1161
 11
1147.35
 21
98.5216
  0
LINE
  8
0
 10
1147.35
 20
98.5216
 11
1147.25
 21
99
  0
LINE
  8
0
 10
1147.25
 20
115
 11
1147.35
 21
115.478
  0
LINE
  8
0
 10
1147.35
 20
115.478
 11
1147.62
 21
115.884
  0
LINE
  8
0
 10
1147.62
 20
115.884
 11
1148.02
 21
116.155
  0
LINE
  8
0
 10
1148.02
 20
116.155
 11
1148.5
 21
116.25
  0
LINE
  8
0
 10
1148.5
 20
116.25
 11
1148.98
 21
116.155
  0
LINE
  8
0
 10
1148.98
 20
116.155
 11
1149.38
 21
115.884
  0
LINE
  8
0
 10
1149.38
 20
115.884
 11
1149.65
 21
115.478
  0
LINE
  8
0
 10
1149.65
 20
115.478
 11
1149.75
 21
115
  0
LINE
  8
0
 10
1149.75
 20
115
 11
1149.65
 21
114.522
  0
LINE
  8
0
 10
1149.65
 20
114.522
 11
1149.38
 21
114.116
  0
LINE
  8
0
 10
1149.38
 20
114.116
 11
1148.98
 21
113.845
  0
LINE
  8
0
 10
1148.98
 20
113.845
 11
1148.5
 21
113.75
  0
LINE
  8
0
 10
1148.5
 20
113.75
 11
1148.02
 21
113.845
  0
LINE
  8
0
 10
1148.02
 20
113.845
 11
1147.62
 21
114.116
  0
LINE
  8
0
 10
1147.62
 20
114.116
 11
1147.35
 21
114.522
  0
LINE
  8
0
 10
1147.35
 20
114.522
 11
1147.25
 21
115
  0
LINE
  8
0
 10
1357.25
 20
6.5
 11
1357.35
 21
6.97835
  0
LINE
  8
0
 10
1357.35
 20
6.97835
 11
1357.62
 21
7.38388
  0
LINE
  8
0
 10
1357.62
 20
7.38388
 11
1358.02
 21
7.65485
  0
LINE
  8
0
 10
1358.02
 20
7.65485
 11
1358.5
 21
7.75
  0
LINE
  8
0
 10
1358.5
 20
7.75
 11
1358.98
 21
7.65485
  0
LINE
  8
0
 10
1358.98
 20
7.65485
 11
1359.38
 21
7.38388
  0
LINE
  8
0
 10
1359.38
 20
7.38388
 11
1359.65
 21
6.97835
  0
LINE
  8
0
 10
1359.65
 20
6.97835
 11
1359.75
 21
6.5
  0
LINE
  8
0
 10
1359.75
 20
6.5
 11
1359.65
 21
6.02165
  0
LINE
  8
0
 10
1359.65
 20
6.02165
 11
1359.38
 21
5.61612
  0
LINE
  8
0
 10
1359.38
 20
5.61612
 11
1358.98
 21
5.34515
  0
LINE
  8
0
 10
1358.98
 20
5.34515
 11
1358.5
 21
5.25
  0
LINE
  8
0
 10
1358.5
 20
5.25
 11
1358.02
 21
5.34515
  0
LINE
  8
0
 10
1358.02
 20
5.34515
 11
1357.62
 21
5.61612
  0
LINE
  8
0
 10
1357.62
 20
5.61612
 11
1357.35
 21
6.02165
  0
LINE
  8
0
 10
1357.35
 20
6.02165
 11
1357.25
 21
6.5
  0
LINE
  8
0
 10
1357.25
 20
35
 11
1357.35
 21
35.4784
  0
LINE
  8
0
 10
1357.35
 20
35.4784
 11
1357.62
 21
35.8839
  0
LINE
  8
0
 10
1357.62
 20
35.8839
 11
1358.02
 21
36.1548
  0
LINE
  8
0
 10
1358.02
 20
36.1548
 11
1358.5
 21
36.25
  0
LINE
  8
0
 10
1358.5
 20
36.25
 11
1358.98
 21
36.1548
  0
LINE
  8
0
 10
1358.98
 20
36.1548
 11
1359.38
 21
35.8839
  0
LINE
  8
0
 10
1359.38
 20
35.8839
 11
1359.65
 21
35.4784
  0
LINE
  8
0
 10
1359.65
 20
35.4784
 11
1359.75
 21
35
  0
LINE
  8
0
 10
1359.75
 20
35
 11
1359.65
 21
34.5216
  0
LINE
  8
0
 10
1359.65
 20
34.5216
 11
1359.38
 21
34.1161
  0
LINE
  8
0
 10
1359.38
 20
34.1161
 11
1358.98
 21
33.8451
  0
LINE
  8
0
 10
1358.98
 20
33.8451
 11
1358.5
 21
33.75
  0
LINE
  8
0
 10
1358.5
 20
33.75
 11
1358.02
 21
33.8451
  0
LINE
  8
0
 10
1358.02
 20
33.8451
 11
1357.62
 21
34.1161
  0
LINE
  8
0
 10
1357.62
 20
34.1161
 11
1357.35
 21
34.5216
  0
LINE
  8
0
 10
1357.35
 20
34.5216
 11
1357.25
 21
35
  0
LINE
  8
0
 10
1357.25
 20
51
 11
1357.35
 21
51.4784
  0
LINE
  8
0
 10
1357.35
 20
51.4784
 11
1357.62
 21
51.8839
  0
LINE
  8
0
 10
1357.62
 20
51.8839
 11
1358.02
 21
52.1548
  0
LINE
  8
0
 10
1358.02
 20
52.1548
 11
1358.5
 21
52.25
  0
LINE
  8
0
 10
1358.5
 20
52.25
 11
1358.98
 21
52.1548
  0
LINE
  8
0
 10
1358.98
 20
52.1548
 11
1359.38
 21
51.8839
  0
LINE
  8
0
 10
1359.38
 20
51.8839
 11
1359.65
 21
51.4784
  0
LINE
  8
0
 10
1359.65
 20
51.4784
 11
1359.75
 21
51
  0
LINE
  8
0
 10
1359.75
 20
51
 11
1359.65
 21
50.5216
  0
LINE
  8
0
 10
1359.65
 20
50.5216
 11
1359.38
 21
50.1161
  0
LINE
  8
0
 10
1359.38
 20
50.1161
 11
1358.98
 21
49.8451
  0
LINE
  8
0
 10
1358.98
 20
49.8451
 11
1358.5
 21
49.75
  0
LINE
  8
0
 10
1358.5
 20
49.75
 11
1358.02
 21
49.8451
  0
LINE
  8
0
 10
1358.02
 20
49.8451
 11
1357.62
 21
50.1161
  0
LINE
  8
0
 10
1357.62
 20
50.1161
 11
1357.35
 21
50.5216
  0
LINE
  8
0
 10
1357.35
 20
50.5216
 11
1357.25
 21
51
  0
LINE
  8
0
 10
1357.25
 20
76
 11
1357.35
 21
76.4784
  0
LINE
  8
0
 10
1357.35
 20
76.4784
 11
1357.62
 21
76.8839
  0
LINE
  8
0
 10
1357.62
 20
76.8839
 11
1358.02
 21
77.1548
  0
LINE
  8
0
 10
1358.02
 20
77.1548
 11
1358.5
 21
77.25
  0
LINE
  8
0
 10
1358.5
 20
77.25
 11
1358.98
 21
77.1548
  0
LINE
  8
0
 10
1358.98
 20
77.1548
 11
1359.38
 21
76.8839
  0
LINE
  8
0
 10
1359.38
 20
76.8839
 11
1359.65
 21
76.4784
  0
LINE
  8
0
 10
1359.65
 20
76.4784
 11
1359.75
 21
76
  0
LINE
  8
0
 10
1359.75
 20
76
 11
1359.65
 21
75.5216
  0
LINE
  8
0
 10
1359.65
 20
75.5216
 11
1359.38
 21
75.1161
  0
LINE
  8
0
 10
1359.38
 20
75.1161
 11
1358.98
 21
74.8451
  0
LINE
  8
0
 10
1358.98
 20
74.8451
 11
1358.5
 21
74.75
  0
LINE
  8
0
 10
1358.5
 20
74.75
 11
1358.02
 21
74.8451
  0
LINE
  8
0
 10
1358.02
 20
74.8451
 11
1357.62
 21
75.1161
  0
LINE
  8
0
 10
1357.62
 20
75.1161
 11
1357.35
 21
75.5216
  0
LINE
  8
0
 10
1357.35
 20
75.5216
 11
1357.25
 21
76
  0
LINE
  8
0
 10
1357.25
 20
99
 11
1357.35
 21
99.4784
  0
LINE
  8
0
 10
1357.35
 20
99.4784
 11
1357.62
 21
99.8839
  0
LINE
  8
0
 10
1357.62
 20
99.8839
 11
1358.02
 21
100.155
  0
LINE
  8
0
 10
1358.02
 20
100.155
 11
1358.5
 21
100.25
  0
LINE
  8
0
 10
1358.5
 20
100.25
 11
1358.98
 21
100.155
  0
LINE
  8
0
 10
1358.98
 20
100.155
 11
1359.38
 21
99.8839
  0
LINE
  8
0
 10
1359.38
 20
99.8839
 11
1359.65
 21
99.4784
  0
LINE
  8
0
 10
1359.65
 20
99.4784
 11
1359.75
 21
99
  0
LINE
  8
0
 10
1359.75
 20
99
 11
1359.65
 21
98.5216
  0
LINE
  8
0
 10
1359.65
 20
98.5216
 11
1359.38
 21
98.1161
  0
LINE
  8
0
 10
1359.38
 20
98.1161
 11
1358.98
 21
97.8451
  0
LINE
  8
0
 10
1358.98
 20
97.8451
 11
1358.5
 21
97.75
  0
LINE
  8
0
 10
1358.5
 20
97.75
 11
1358.02
 21
97.8451
  0
LINE
  8
0
 10
1358.02
 20
97.8451
 11
1357.62
 21
98.1161
  0
LINE
  8
0
 10
1357.62
 20
98.1161
 11
1357.35
 21
98.5216
  0
LINE
  8
0
 10
1357.35
 20
98.5216
 11
1357.25
 21
99
  0
LINE
  8
0
 10
1357.25
 20
115
 11
1357.35
 21
115.478
  0
LINE
  8
0
 10
1357.35
 20
115.478
 11
1357.62
 21
115.884
  0
LINE
  8
0
 10
1357.62
 20
115.884
 11
1358.02
 21
116.155
  0
LINE
  8
0
 10
1358.02
 20
116.155
 11
1358.5
 21
116.25
  0
LINE
  8
0
 10
1358.5
 20
116.25
 11
1358.98
 21
116.155
  0
LINE
  8
0
 10
1358.98
 20
116.155
 11
1359.38
 21
115.884
  0
LINE
  8
0
 10
1359.38
 20
115.884
 11
1359.65
 21
115.478
  0
LINE
  8
0
 10
1359.65
 20
115.478
 11
1359.75
 21
115
  0
LINE
  8
0
 10
1359.75
 20
115
 11
1359.65
 21
114.522
  0
LINE
  8
0
 10
1359.65
 20
114.522
 11
1359.38
 21
114.116
  0
LINE
  8
0
 10
1359.38
 20
114.116
 11
1358.98
 21
113.845
  0
LINE
  8
0
 10
1358.98
 20
113.845
 11
1358.5
 21
113.75
  0
LINE
  8
0
 10
1358.5
 20
113.75
 11
1358.02
 21
113.845
  0
LINE
  8
0
 10
1358.02
 20
113.845
 11
1357.62
 21
114.116
  0
LINE
  8
0
 10
1357.62
 20
114.116
 11
1357.35
 21
114.522
  0
LINE
  8
0
 10
1357.35
 20
114.522
 11
1357.25
 21
115
  0
LINE
  8
0
 10
1567.25
 20
6.5
 11
1567.35
 21
6.97835
  0
LINE
  8
0
 10
1567.35
 20
6.97835
 11
1567.62
 21
7.38388
  0
LINE
  8
0
 10
1567.62
 20
7.38388
 11
1568.02
 21
7.65485
  0
LINE
  8
0
 10
1568.02
 20
7.65485
 11
1568.5
 21
7.75
  0
LINE
  8
0
 10
1568.5
 20
7.75
 11
1568.98
 21
7.65485
  0
LINE
  8
0
 10
1568.98
 20
7.65485
 11
1569.38
 21
7.38388
  0
LINE
  8
0
 10
1569.38
 20
7.38388
 11
1569.65
 21
6.97835
  0
LINE
  8
0
 10
1569.65
 20
6.97835
 11
1569.75
 21
6.5
  0
LINE
  8
0
 10
1569.75
 20
6.5
 11
1569.65
 21
6.02165
  0
LINE
  8
0
 10
1569.65
 20
6.02165
 11
1569.38
 21
5.61612
  0
LINE
  8
0
 10
1569.38
 20
5.61612
 11
1568.98
 21
5.34515
  0
LINE
  8
0
 10
1568.98
 20
5.34515
 11
1568.5
 21
5.25
  0
LINE
  8
0
 10
1568.5
 20
5.25
 11
1568.02
 21
5.34515
  0
LINE
  8
0
 10
1568.02
 20
5.34515
 11
1567.62
 21
5.61612
  0
LINE
  8
0
 10
1567.62
 20
5.61612
 11
1567.35
 21
6.02165
  0
LINE
  8
0
 10
1567.35
 20
6.02165
 11
1567.25
 21
6.5
  0
LINE
  8
0
 10
1567.25
 20
35
 11
1567.35
 21
35.4784
  0
LINE
  8
0
 10
1567.35
 20
35.4784
 11
1567.62
 21
35.8839
  0
LINE
  8
0
 10
1567.62
 20
35.8839
 11
1568.02
 21
36.1548
  0
LINE
  8
0
 10
1568.02
 20
36.1548
 11
1568.5
 21
36.25
  0
LINE
  8
0
 10
1568.5
 20
36.25
 11
1568.98
 21
36.1548
  0
LINE
  8
0
 10
1568.98
 20
36.1548
 11
1569.38
 21
35.8839
  0
LINE
  8
0
 10
1569.38
 20
35.8839
 11
1569.65
 21
35.4784
  0
LINE
  8
0
 10
1569.65
 20
35.4784
 11
1569.75
 21
35
  0
LINE
  8
0
 10
1569.75
 20
35
 11
1569.65
 21
34.5216
  0
LINE
  8
0
 10
1569.65
 20
34.5216
 11
1569.38
 21
34.1161
  0
LINE
  8
0
 10
1569.38
 20
34.1161
 11
1568.98
 21
33.8451
  0
LINE
  8
0
 10
1568.98
 20
33.8451
 11
1568.5
 21
33.75
  0
LINE
  8
0
 10
1568.5
 20
33.75
 11
1568.02
 21
33.8451
  0
LINE
  8
0
 10
1568.02
 20
33.8451
 11
1567.62
 21
34.1161
  0
LINE
  8
0
 10
1567.62
 20
34.1161
 11
1567.35
 21
34.5216
  0
LINE
  8
0
 10
1567.35
 20
34.5216
 11
1567.25
 21
35
  0
LINE
  8
0
 10
1567.25
 20
51
 11
1567.35
 21
51.4784
  0
LINE
  8
0
 10
1567.35
 20
51.4784
 11
1567.62
 21
51.8839
  0
LINE
  8
0
 10
1567.62
 20
51.8839
 11
1568.02
 21
52.1548
  0
LINE
  8
0
 10
1568.02
 20
52.1548
 11
1568.5
 21
52.25
  0
LINE
  8
0
 10
1568.5
 20
52.25
 11
1568.98
 21
52.1548
  0
LINE
  8
0
 10
1568.98
 20
52.1548
 11
1569.38
 21
51.8839
  0
LINE
  8
0
 10
1569.38
 20
51.8839
 11
1569.65
 21
51.4784
  0
LINE
  8
0
 10
1569.65
 20
51.4784
 11
1569.75
 21
51
  0
LINE
  8
0
 10
1569.75
 20
51
 11
1569.65
 21
50.5216
  0
LINE
  8
0
 10
1569.65
 20
50.5216
 11
1569.38
 21
50.1161
  0
LINE
  8
0
 10
1569.38
 20
50.1161
 11
1568.98
 21
49.8451
  0
LINE
  8
0
 10
1568.98
 20
49.8451
 11
1568.5
 21
49.75
  0
LINE
  8
0
 10
1568.5
 20
49.75
 11
1568.02
 21
49.8451
  0
LINE
  8
0
 10
1568.02
 20
49.8451
 11
1567.62
 21
50.1161
  0
LINE
  8
0
 10
1567.62
 20
50.1161
 11
1567.35
 21
50.5216
  0
LINE
  8
0
 10
1567.35
 20
50.5216
 11
1567.25
 21
51
  0
LINE
  8
0
 10
1567.25
 20
76
 11
1567.35
 21
76.4784
  0
LINE
  8
0
 10
1567.35
 20
76.4784
 11
1567.62
 21
76.8839
  0
LINE
  8
0
 10
1567.62
 20
76.8839
 11
1568.02
 21
77.1548
  0
LINE
  8
0
 10
1568.02
 20
77.1548
 11
1568.5
 21
77.25
  0
LINE
  8
0
 10
1568.5
 20
77.25
 11
1568.98
 21
77.1548
  0
LINE
  8
0
 10
1568.98
 20
77.1548
 11
1569.38
 21
76.8839
  0
LINE
  8
0
 10
1569.38
 20
76.8839
 11
1569.65
 21
76.4784
  0
LINE
  8
0
 10
1569.65
 20
76.4784
 11
1569.75
 21
76
  0
LINE
  8
0
 10
1569.75
 20
76
 11
1569.65
 21
75.5216
  0
LINE
  8
0
 10
1569.65
 20
75.5216
 11
1569.38
 21
75.1161
  0
LINE
  8
0
 10
1569.38
 20
75.1161
 11
1568.98
 21
74.8451
  0
LINE
  8
0
 10
1568.98
 20
74.8451
 11
1568.5
 21
74.75
  0
LINE
  8
0
 10
1568.5
 20
74.75
 11
1568.02
 21
74.8451
  0
LINE
  8
0
 10
1568.02
 20
74.8451
 11
1567.62
 21
75.1161
  0
LINE
  8
0
 10
1567.62
 20
75.1161
 11
1567.35
 21
75.5216
  0
LINE
  8
0
 10
1567.35
 20
75.5216
 11
1567.25
 21
76
  0
LINE
  8
0
 10
1567.25
 20
99
 11
1567.35
 21
99.4784
  0
LINE
  8
0
 10
1567.35
 20
99.4784
 11
1567.62
 21
99.8839
  0
LINE
  8
0
 10
1567.62
 20
99.8839
 11
1568.02
 21
100.155
  0
LINE
  8
0
 10
1568.02
 20
100.155
 11
1568.5
 21
100.25
  0
LINE
  8
0
 10
1568.5
 20
100.25
 11
1568.98
 21
100.155
  0
LINE
  8
0
 10
1568.98
 20
100.155
 11
1569.38
 21
99.8839
  0
LINE
  8
0
 10
1569.38
 20
99.8839
 11
1569.65
 21
99.4784
  0
LINE
  8
0
 10
1569.65
 20
99.4784
 11
1569.75
 21
99
  0
LINE
  8
0
 10
1569.75
 20
99
 11
1569.65
 21
98.5216
  0
LINE
  8
0
 10
1569.65
 20
98.5216
 11
1569.38
 21
98.1161
  0
LINE
  8
0
 10
1569.38
 20
98.1161
 11
1568.98
 21
97.8451
  0
LINE
  8
0
 10
1568.98
 20
97.8451
 11
1568.5
 21
97.75
  0
LINE
  8
0
 10
1568.5
 20
97.75
 11
1568.02
 21
97.8451
  0
LINE
  8
0
 10
1568.02
 20
97.8451
 11
1567.62
 21
98.1161
  0
LINE
  8
0
 10
1567.62
 20
98.1161
 11
1567.35
 21
98.5216
  0
LINE
  8
0
 10
1567.35
 20
98.5216
 11
1567.25
 21
99
  0
LINE
  8
0
 10
1567.25
 20
115
 11
1567.35
 21
115.478
  0
LINE
  8
0
 10
1567.35
 20
115.478
 11
1567.62
 21
115.884
  0
LINE
  8
0
 10
1567.62
 20
115.884
 11
1568.02
 21
116.155
  0
LINE
  8
0
 10
1568.02
 20
116.155
 11
1568.5
 21
116.25
  0
LINE
  8
0
 10
1568.5
 20
116.25
 11
1568.98
 21
116.155
  0
LINE
  8
0
 10
1568.98
 20
116.155
 11
1569.38
 21
115.884
  0
LINE
  8
0
 10
1569.38
 20
115.884
 11
1569.65
 21
115.478
  0
LINE
  8
0
 10
1569.65
 20
115.478
 11
1569.75
 21
115
  0
LINE
  8
0
 10
1569.75
 20
115
 11
1569.65
 21
114.522
  0
LINE
  8
0
 10
1569.65
 20
114.522
 11
1569.38
 21
114.116
  0
LINE
  8
0
 10
1569.38
 20
114.116
 11
1568.98
 21
113.845
  0
LINE
  8
0
 10
1568.98
 20
113.845
 11
1568.5
 21
113.75
  0
LINE
  8
0
 10
1568.5
 20
113.75
 11
1568.02
 21
113.845
  0
LINE
  8
0
 10
1568.02
 20
113.845
 11
1567.62
 21
114.116
  0
LINE
  8
0
 10
1567.62
 20
114.116
 11
1567.35
 21
114.522
  0
LINE
  8
0
 10
1567.35
 20
114.522
 11
1567.25
 21
115
  0
LINE
  8
0
 10
1777.25
 20
6.5
 11
1777.35
 21
6.97835
  0
LINE
  8
0
 10
1777.35
 20
6.97835
 11
1777.62
 21
7.38388
  0
LINE
  8
0
 10
1777.62
 20
7.38388
 11
1778.02
 21
7.65485
  0
LINE
  8
0
 10
1778.02
 20
7.65485
 11
1778.5
 21
7.75
  0
LINE
  8
0
 10
1778.5
 20
7.75
 11
1778.98
 21
7.65485
  0
LINE
  8
0
 10
1778.98
 20
7.65485
 11
1779.38
 21
7.38388
  0
LINE
  8
0
 10
1779.38
 20
7.38388
 11
1779.65
 21
6.97835
  0
LINE
  8
0
 10
1779.65
 20
6.97835
 11
1779.75
 21
6.5
  0
LINE
  8
0
 10
1779.75
 20
6.5
 11
1779.65
 21
6.02165
  0
LINE
  8
0
 10
1779.65
 20
6.02165
 11
1779.38
 21
5.61612
  0
LINE
  8
0
 10
1779.38
 20
5.61612
 11
1778.98
 21
5.34515
  0
LINE
  8
0
 10
1778.98
 20
5.34515
 11
1778.5
 21
5.25
  0
LINE
  8
0
 10
1778.5
 20
5.25
 11
1778.02
 21
5.34515
  0
LINE
  8
0
 10
1778.02
 20
5.34515
 11
1777.62
 21
5.61612
  0
LINE
  8
0
 10
1777.62
 20
5.61612
 11
1777.35
 21
6.02165
  0
LINE
  8
0
 10
1777.35
 20
6.02165
 11
1777.25
 21
6.5
  0
LINE
  8
0
 10
1777.25
 20
35
 11
1777.35
 21
35.4784
  0
LINE
  8
0
 10
1777.35
 20
35.4784
 11
1777.62
 21
35.8839
  0
LINE
  8
0
 10
1777.62
 20
35.8839
 11
1778.02
 21
36.1548
  0
LINE
  8
0
 10
1778.02
 20
36.1548
 11
1778.5
 21
36.25
  0
LINE
  8
0
 10
1778.5
 20
36.25
 11
1778.98
 21
36.1548
  0
LINE
  8
0
 10
1778.98
 20
36.1548
 11
1779.38
 21
35.8839
  0
LINE
  8
0
 10
1779.38
 20
35.8839
 11
1779.65
 21
35.4784
  0
LINE
  8
0
 10
1779.65
 20
35.4784
 11
1779.75
 21
35
  0
LINE
  8
0
 10
1779.75
 20
35
 11
1779.65
 21
34.5216
  0
LINE
  8
0
 10
1779.65
 20
34.5216
 11
1779.38
 21
34.1161
  0
LINE
  8
0
 10
1779.38
 20
34.1161
 11
1778.98
 21
33.8451
  0
LINE
  8
0
 10
1778.98
 20
33.8451
 11
1778.5
 21
33.75
  0
LINE
  8
0
 10
1778.5
 20
33.75
 11
1778.02
 21
33.8451
  0
LINE
  8
0
 10
1778.02
 20
33.8451
 11
1777.62
 21
34.1161
  0
LINE
  8
0
 10
1777.62
 20
34.1161
 11
1777.35
 21
34.5216
  0
LINE
  8
0
 10
1777.35
 20
34.5216
 11
1777.25
 21
35
  0
LINE
  8
0
 10
1777.25
 20
51
 11
1777.35
 21
51.4784
  0
LINE
  8
0
 10
1777.35
 20
51.4784
 11
1777.62
 21
51.8839
  0
LINE
  8
0
 10
1777.62
 20
51.8839
 11
1778.02
 21
52.1548
  0
LINE
  8
0
 10
1778.02
 20
52.1548
 11
1778.5
 21
52.25
  0
LINE
  8
0
 10
1778.5
 20
52.25
 11
1778.98
 21
52.1548
  0
LINE
  8
0
 10
1778.98
 20
52.1548
 11
1779.38
 21
51.8839
  0
LINE
  8
0
 10
1779.38
 20
51.8839
 11
1779.65
 21
51.4784
  0
LINE
  8
0
 10
1779.65
 20
51.4784
 11
1779.75
 21
51
  0
LINE
  8
0
 10
1779.75
 20
51
 11
1779.65
 21
50.5216
  0
LINE
  8
0
 10
1779.65
 20
50.5216
 11
1779.38
 21
50.1161
  0
LINE
  8
0
 10
1779.38
 20
50.1161
 11
1778.98
 21
49.8451
  0
LINE
  8
0
 10
1778.98
 20
49.8451
 11
1778.5
 21
49.75
  0
LINE
  8
0
 10
1778.5
 20
49.75
 11
1778.02
 21
49.8451
  0
LINE
  8
0
 10
1778.02
 20
49.8451
 11
1777.62
 21
50.1161
  0
LINE
  8
0
 10
1777.62
 20
50.1161
 11
1777.35
 21
50.5216
  0
LINE
  8
0
 10
1777.35
 20
50.5216
 11
1777.25
 21
51
  0
LINE
  8
0
 10
1777.25
 20
76
 11
1777.35
 21
76.4784
  0
LINE
  8
0
 10
1777.35
 20
76.4784
 11
1777.62
 21
76.8839
  0
LINE
  8
0
 10
1777.62
 20
76.8839
 11
1778.02
 21
77.1548
  0
LINE
  8
0
 10
1778.02
 20
77.1548
 11
1778.5
 21
77.25
  0
LINE
  8
0
 10
1778.5
 20
77.25
 11
1778.98
 21
77.1548
  0
LINE
  8
0
 10
1778.98
 20
77.1548
 11
1779.38
 21
76.8839
  0
LINE
  8
0
 10
1779.38
 20
76.8839
 11
1779.65
 21
76.4784
  0
LINE
  8
0
 10
1779.65
 20
76.4784
 11
1779.75
 21
76
  0
LINE
  8
0
 10
1779.75
 20
76
 11
1779.65
 21
75.5216
  0
LINE
  8
0
 10
1779.65
 20
75.5216
 11
1779.38
 21
75.1161
  0
LINE
  8
0
 10
1779.38
 20
75.1161
 11
1778.98
 21
74.8451
  0
LINE
  8
0
 10
1778.98
 20
74.8451
 11
1778.5
 21
74.75
  0
LINE
  8
0
 10
1778.5
 20
74.75
 11
1778.02
 21
74.8451
  0
LINE
  8
0
 10
1778.02
 20
74.8451
 11
1777.62
 21
75.1161
  0
LINE
  8
0
 10
1777.62
 20
75.1161
 11
1777.35
 21
75.5216
  0
LINE
  8
0
 10
1777.35
 20
75.5216
 11
1777.25
 21
76
  0
LINE
  8
0
 10
1777.25
 20
99
 11
1777.35
 21
99.4784
  0
LINE
  8
0
 10
1777.35
 20
99.4784
 11
1777.62
 21
99.8839
  0
LINE
  8
0
 10
1777.62
 20
99.8839
 11
1778.02
 21
100.155
  0
LINE
  8
0
 10
1778.02
 20
100.155
 11
1778.5
 21
100.25
  0
LINE
  8
0
 10
1778.5
 20
100.25
 11
1778.98
 21
100.155
  0
LINE
  8
0
 10
1778.98
 20
100.155
 11
1779.38
 21
99.8839
  0
LINE
  8
0
 10
1779.38
 20
99.8839
 11
1779.65
 21
99.4784
  0
LINE
  8
0
 10
1779.65
 20
99.4784
 11
1779.75
 21
99
  0
LINE
  8
0
 10
1779.75
 20
99
 11
1779.65
 21
98.5216
  0
LINE
  8
0
 10
1779.65
 20
98.5216
 11
1779.38
 21
98.1161
  0
LINE
  8
0
 10
1779.38
 20
98.1161
 11
1778.98
 21
97.8451
  0
LINE
  8
0
 10
1778.98
 20
97.8451
 11
1778.5
 21
97.75
  0
LINE
  8
0
 10
1778.5
 20
97.75
 11
1778.02
 21
97.8451
  0
LINE
  8
0
 10
1778.02
 20
97.8451
 11
1777.62
 21
98.1161
  0
LINE
  8
0
 10
1777.62
 20
98.1161
 11
1777.35
 21
98.5216
  0
LINE
  8
0
 10
1777.35
 20
98.5216
 11
1777.25
 21
99
  0
LINE
  8
0
 10
1777.25
 20
115
 11
1777.35
 21
115.478
  0
LINE
  8
0
 10
1777.35
 20
115.478
 11
1777.62
 21
115.884
  0
LINE
  8
0
 10
1777.62
 20
115.884
 11
1778.02
 21
116.155
  0
LINE
  8
0
 10
1778.02
 20
116.155
 11
1778.5
 21
116.25
  0
LINE
  8
0
 10
1778.5
 20
116.25
 11
1778.98
 21
116.155
  0
LINE
  8
0
 10
1778.98
 20
116.155
 11
1779.38
 21
115.884
  0
LINE
  8
0
 10
1779.38
 20
115.884
 11
1779.65
 21
115.478
  0
LINE
  8
0
 10
1779.65
 20
115.478
 11
1779.75
 21
115
  0
LINE
  8
0
 10
1779.75
 20
115
 11
1779.65
 21
114.522
  0
LINE
  8
0
 10
1779.65
 20
114.522
 11
1779.38
 21
114.116
  0
LINE
  8
0
 10
1779.38
 20
114.116
 11
1778.98
 21
113.845
  0
LINE
  8
0
 10
1778.98
 20
113.845
 11
1778.5
 21
113.75
  0
LINE
  8
0
 10
1778.5
 20
113.75
 11
1778.02
 21
113.845
  0
LINE
  8
0
 10
1778.02
 20
113.845
 11
1777.62
 21
114.116
  0
LINE
  8
0
 10
1777.62
 20
114.116
 11
1777.35
 21
114.522
  0
LINE
  8
0
 10
1777.35
 20
114.522
 11
1777.25
 21
115
  0
LINE
  8
0
 10
1987.25
 20
6.5
 11
1987.35
 21
6.97835
  0
LINE
  8
0
 10
1987.35
 20
6.97835
 11
1987.62
 21
7.38388
  0
LINE
  8
0
 10
1987.62
 20
7.38388
 11
1988.02
 21
7.65485
  0
LINE
  8
0
 10
1988.02
 20
7.65485
 11
1988.5
 21
7.75
  0
LINE
  8
0
 10
1988.5
 20
7.75
 11
1988.98
 21
7.65485
  0
LINE
  8
0
 10
1988.98
 20
7.65485
 11
1989.38
 21
7.38388
  0
LINE
  8
0
 10
1989.38
 20
7.38388
 11
1989.65
 21
6.97835
  0
LINE
  8
0
 10
1989.65
 20
6.97835
 11
1989.75
 21
6.5
  0
LINE
  8
0
 10
1989.75
 20
6.5
 11
1989.65
 21
6.02165
  0
LINE
  8
0
 10
1989.65
 20
6.02165
 11
1989.38
 21
5.61612
  0
LINE
  8
0
 10
1989.38
 20
5.61612
 11
1988.98
 21
5.34515
  0
LINE
  8
0
 10
1988.98
 20
5.34515
 11
1988.5
 21
5.25
  0
LINE
  8
0
 10
1988.5
 20
5.25
 11
1988.02
 21
5.34515
  0
LINE
  8
0
 10
1988.02
 20
5.34515
 11
1987.62
 21
5.61612
  0
LINE
  8
0
 10
1987.62
 20
5.61612
 11
1987.35
 21
6.02165
  0
LINE
  8
0
 10
1987.35
 20
6.02165
 11
1987.25
 21
6.5
  0
LINE
  8
0
 10
1987.25
 20
35
 11
1987.35
 21
35.4784
  0
LINE
  8
0
 10
1987.35
 20
35.4784
 11
1987.62
 21
35.8839
  0
LINE
  8
0
 10
1987.62
 20
35.8839
 11
1988.02
 21
36.1548
  0
LINE
  8
0
 10
1988.02
 20
36.1548
 11
1988.5
 21
36.25
  0
LINE
  8
0
 10
1988.5
 20
36.25
 11
1988.98
 21
36.1548
  0
LINE
  8
0
 10
1988.98
 20
36.1548
 11
1989.38
 21
35.8839
  0
LINE
  8
0
 10
1989.38
 20
35.8839
 11
1989.65
 21
35.4784
  0
LINE
  8
0
 10
1989.65
 20
35.4784
 11
1989.75
 21
35
  0
LINE
  8
0
 10
1989.75
 20
35
 11
1989.65
 21
34.5216
  0
LINE
  8
0
 10
1989.65
 20
34.5216
 11
1989.38
 21
34.1161
  0
LINE
  8
0
 10
1989.38
 20
34.1161
 11
1988.98
 21
33.8451
  0
LINE
  8
0
 10
1988.98
 20
33.8451
 11
1988.5
 21
33.75
  0
LINE
  8
0
 10
1988.5
 20
33.75
 11
1988.02
 21
33.8451
  0
LINE
  8
0
 10
1988.02
 20
33.8451
 11
1987.62
 21
34.1161
  0
LINE
  8
0
 10
1987.62
 20
34.1161
 11
1987.35
 21
34.5216
  0
LINE
  8
0
 10
1987.35
 20
34.5216
 11
1987.25
 21
35
  0
LINE
  8
0
 10
1987.25
 20
51
 11
1987.35
 21
51.4784
  0
LINE
  8
0
 10
1987.35
 20
51.4784
 11
1987.62
 21
51.8839
  0
LINE
  8
0
 10
1987.62
 20
51.8839
 11
1988.02
 21
52.1548
  0
LINE
  8
0
 10
1988.02
 20
52.1548
 11
1988.5
 21
52.25
  0
LINE
  8
0
 10
1988.5
 20
52.25
 11
1988.98
 21
52.1548
  0
LINE
  8
0
 10
1988.98
 20
52.1548
 11
1989.38
 21
51.8839
  0
LINE
  8
0
 10
1989.38
 20
51.8839
 11
1989.65
 21
51.4784
  0
LINE
  8
0
 10
1989.65
 20
51.4784
 11
1989.75
 21
51
  0
LINE
  8
0
 10
1989.75
 20
51
 11
1989.65
 21
50.5216
  0
LINE
  8
0
 10
1989.65
 20
50.5216
 11
1989.38
 21
50.1161
  0
LINE
  8
0
 10
1989.38
 20
50.1161
 11
1988.98
 21
49.8451
  0
LINE
  8
0
 10
1988.98
 20
49.8451
 11
1988.5
 21
49.75
  0
LINE
  8
0
 10
1988.5
 20
49.75
 11
1988.02
 21
49.8451
  0
LINE
  8
0
 10
1988.02
 20
49.8451
 11
1987.62
 21
50.1161
  0
LINE
  8
0
 10
1987.62
 20
50.1161
 11
1987.35
 21
50.5216
  0
LINE
  8
0
 10
1987.35
 20
50.5216
 11
1987.25
 21
51
  0
LINE
  8
0
 10
1987.25
 20
76
 11
1987.35
 21
76.4784
  0
LINE
  8
0
 10
1987.35
 20
76.4784
 11
1987.62
 21
76.8839
  0
LINE
  8
0
 10
1987.62
 20
76.8839
 11
1988.02
 21
77.1548
  0
LINE
  8
0
 10
1988.02
 20
77.1548
 11
1988.5
 21
77.25
  0
LINE
  8
0
 10
1988.5
 20
77.25
 11
1988.98
 21
77.1548
  0
LINE
  8
0
 10
1988.98
 20
77.1548
 11
1989.38
 21
76.8839
  0
LINE
  8
0
 10
1989.38
 20
76.8839
 11
1989.65
 21
76.4784
  0
LINE
  8
0
 10
1989.65
 20
76.4784
 11
1989.75
 21
76
  0
LINE
  8
0
 10
1989.75
 20
76
 11
1989.65
 21
75.5216
  0
LINE
  8
0
 10
1989.65
 20
75.5216
 11
1989.38
 21
75.1161
  0
LINE
  8
0
 10
1989.38
 20
75.1161
 11
1988.98
 21
74.8451
  0
LINE
  8
0
 10
1988.98
 20
74.8451
 11
1988.5
 21
74.75
  0
LINE
  8
0
 10
1988.5
 20
74.75
 11
1988.02
 21
74.8451
  0
LINE
  8
0
 10
1988.02
 20
74.8451
 11
1987.62
 21
75.1161
  0
LINE
  8
0
 10
1987.62
 20
75.1161
 11
1987.35
 21
75.5216
  0
LINE
  8
0
 10
1987.35
 20
75.5216
 11
1987.25
 21
76
  0
LINE
  8
0
 10
1987.25
 20
99
 11
1987.35
 21
99.4784
  0
LINE
  8
0
 10
1987.35
 20
99.4784
 11
1987.62
 21
99.8839
  0
LINE
  8
0
 10
1987.62
 20
99.8839
 11
1988.02
 21
100.155
  0
LINE
  8
0
 10
1988.02
 20
100.155
 11
1988.5
 21
100.25
  0
LINE
  8
0
 10
1988.5
 20
100.25
 11
1988.98
 21
100.155
  0
LINE
  8
0
 10
1988.98
 20
100.155
 11
1989.38
 21
99.8839
  0
LINE
  8
0
 10
1989.38
 20
99.8839
 11
1989.65
 21
99.4784
  0
LINE
  8
0
 10
1989.65
 20
99.4784
 11
1989.75
 21
99
  0
LINE
  8
0
 10
1989.75
 20
99
 11
1989.65
 21
98.5216
  0
LINE
  8
0
 10
1989.65
 20
98.5216
 11
1989.38
 21
98.1161
  0
LINE
  8
0
 10
1989.38
 20
98.1161
 11
1988.98
 21
97.8451
  0
LINE
  8
0
 10
1988.98
 20
97.8451
 11
1988.5
 21
97.75
  0
LINE
  8
0
 10
1988.5
 20
97.75
 11
1988.02
 21
97.8451
  0
LINE
  8
0
 10
1988.02
 20
97.8451
 11
1987.62
 21
98.1161
  0
LINE
  8
0
 10
1987.62
 20
98.1161
 11
1987.35
 21
98.5216
  0
LINE
  8
0
 10
1987.35
 20
98.5216
 11
1987.25
 21
99
  0
LINE
  8
0
 10
1987.25
 20
115
 11
1987.35
 21
115.478
  0
LINE
  8
0
 10
1987.35
 20
115.478
 11
1987.62
 21
115.884
  0
LINE
  8
0
 10
1987.62
 20
115.884
 11
1988.02
 21
116.155
  0
LINE
  8
0
 10
1988.02
 20
116.155
 11
1988.5
 21
116.25
  0
LINE
  8
0
 10
1988.5
 20
116.25
 11
1988.98
 21
116.155
  0
LINE
  8
0
 10
1988.98
 20
116.155
 11
1989.38
 21
115.884
  0
LINE
  8
0
 10
1989.38
 20
115.884
 11
1989.65
 21
115.478
  0
LINE
  8
0
 10
1989.65
 20
115.478
 11
1989.75
 21
115
  0
LINE
  8
0
 10
1989.75
 20
115
 11
1989.65
 21
114.522
  0
LINE
  8
0
 10
1989.65
 20
114.522
 11
1989.38
 21
114.116
  0
LINE
  8
0
 10
1989.38
 20
114.116
 11
1988.98
 21
113.845
  0
LINE
  8
0
 10
1988.98
 20
113.845
 11
1988.5
 21
113.75
  0
LINE
  8
0
 10
1988.5
 20
113.75
 11
1988.02
 21
113.845
  0
LINE
  8
0
 10
1988.02
 20
113.845
 11
1987.62
 21
114.116
  0
LINE
  8
0
 10
1987.62
 20
114.116
 11
1987.35
 21
114.522
  0
LINE
  8
0
 10
1987.35
 20
114.522
 11
1987.25
 21
115
  0
LINE
  8
0
 10
2197.25
 20
6.5
 11
2197.35
 21
6.97835
  0
LINE
  8
0
 10
2197.35
 20
6.97835
 11
2197.62
 21
7.38388
  0
LINE
  8
0
 10
2197.62
 20
7.38388
 11
2198.02
 21
7.65485
  0
LINE
  8
0
 10
2198.02
 20
7.65485
 11
2198.5
 21
7.75
  0
LINE
  8
0
 10
2198.5
 20
7.75
 11
2198.98
 21
7.65485
  0
LINE
  8
0
 10
2198.98
 20
7.65485
 11
2199.38
 21
7.38388
  0
LINE
  8
0
 10
2199.38
 20
7.38388
 11
2199.65
 21
6.97835
  0
LINE
  8
0
 10
2199.65
 20
6.97835
 11
2199.75
 21
6.5
  0
LINE
  8
0
 10
2199.75
 20
6.5
 11
2199.65
 21
6.02165
  0
LINE
  8
0
 10
2199.65
 20
6.02165
 11
2199.38
 21
5.61612
  0
LINE
  8
0
 10
2199.38
 20
5.61612
 11
2198.98
 21
5.34515
  0
LINE
  8
0
 10
2198.98
 20
5.34515
 11
2198.5
 21
5.25
  0
LINE
  8
0
 10
2198.5
 20
5.25
 11
2198.02
 21
5.34515
  0
LINE
  8
0
 10
2198.02
 20
5.34515
 11
2197.62
 21
5.61612
  0
LINE
  8
0
 10
2197.62
 20
5.61612
 11
2197.35
 21
6.02165
  0
LINE
  8
0
 10
2197.35
 20
6.02165
 11
2197.25
 21
6.5
  0
LINE
  8
0
 10
2197.25
 20
35
 11
2197.35
 21
35.4784
  0
LINE
  8
0
 10
2197.35
 20
35.4784
 11
2197.62
 21
35.8839
  0
LINE
  8
0
 10
2197.62
 20
35.8839
 11
2198.02
 21
36.1548
  0
LINE
  8
0
 10
2198.02
 20
36.1548
 11
2198.5
 21
36.25
  0
LINE
  8
0
 10
2198.5
 20
36.25
 11
2198.98
 21
36.1548
  0
LINE
  8
0
 10
2198.98
 20
36.1548
 11
2199.38
 21
35.8839
  0
LINE
  8
0
 10
2199.38
 20
35.8839
 11
2199.65
 21
35.4784
  0
LINE
  8
0
 10
2199.65
 20
35.4784
 11
2199.75
 21
35
  0
LINE
  8
0
 10
2199.75
 20
35
 11
2199.65
 21
34.5216
  0
LINE
  8
0
 10
2199.65
 20
34.5216
 11
2199.38
 21
34.1161
  0
LINE
  8
0
 10
2199.38
 20
34.1161
 11
2198.98
 21
33.8451
  0
LINE
  8
0
 10
2198.98
 20
33.8451
 11
2198.5
 21
33.75
  0
LINE
  8
0
 10
2198.5
 20
33.75
 11
2198.02
 21
33.8451
  0
LINE
  8
0
 10
2198.02
 20
33.8451
 11
2197.62
 21
34.1161
  0
LINE
  8
0
 10
2197.62
 20
34.1161
 11
2197.35
 21
34.5216
  0
LINE
  8
0
 10
2197.35
 20
34.5216
 11
2197.25
 21
35
  0
LINE
  8
0
 10
2197.25
 20
51
 11
2197.35
 21
51.4784
  0
LINE
  8
0
 10
2197.35
 20
51.4784
 11
2197.62
 21
51.8839
  0
LINE
  8
0
 10
2197.62
 20
51.8839
 11
2198.02
 21
52.1548
  0
LINE
  8
0
 10
2198.02
 20
52.1548
 11
2198.5
 21
52.25
  0
LINE
  8
0
 10
2198.5
 20
52.25
 11
2198.98
 21
52.1548
  0
LINE
  8
0
 10
2198.98
 20
52.1548
 11
2199.38
 21
51.8839
  0
LINE
  8
0
 10
2199.38
 20
51.8839
 11
2199.65
 21
51.4784
  0
LINE
  8
0
 10
2199.65
 20
51.4784
 11
2199.75
 21
51
  0
LINE
  8
0
 10
2199.75
 20
51
 11
2199.65
 21
50.5216
  0
LINE
  8
0
 10
2199.65
 20
50.5216
 11
2199.38
 21
50.1161
  0
LINE
  8
0
 10
2199.38
 20
50.1161
 11
2198.98
 21
49.8451
  0
LINE
  8
0
 10
2198.98
 20
49.8451
 11
2198.5
 21
49.75
  0
LINE
  8
0
 10
2198.5
 20
49.75
 11
2198.02
 21
49.8451
  0
LINE
  8
0
 10
2198.02
 20
49.8451
 11
2197.62
 21
50.1161
  0
LINE
  8
0
 10
2197.62
 20
50.1161
 11
2197.35
 21
50.5216
  0
LINE
  8
0
 10
2197.35
 20
50.5216
 11
2197.25
 21
51
  0
LINE
  8
0
 10
2197.25
 20
76
 11
2197.35
 21
76.4784
  0
LINE
  8
0
 10
2197.35
 20
76.4784
 11
2197.62
 21
76.8839
  0
LINE
  8
0
 10
2197.62
 20
76.8839
 11
2198.02
 21
77.1548
  0
LINE
  8
0
 10
2198.02
 20
77.1548
 11
2198.5
 21
77.25
  0
LINE
  8
0
 10
2198.5
 20
77.25
 11
2198.98
 21
77.1548
  0
LINE
  8
0
 10
2198.98
 20
77.1548
 11
2199.38
 21
76.8839
  0
LINE
  8
0
 10
2199.38
 20
76.8839
 11
2199.65
 21
76.4784
  0
LINE
  8
0
 10
2199.65
 20
76.4784
 11
2199.75
 21
76
  0
LINE
  8
0
 10
2199.75
 20
76
 11
2199.65
 21
75.5216
  0
LINE
  8
0
 10
2199.65
 20
75.5216
 11
2199.38
 21
75.1161
  0
LINE
  8
0
 10
2199.38
 20
75.1161
 11
2198.98
 21
74.8451
  0
LINE
  8
0
 10
2198.98
 20
74.8451
 11
2198.5
 21
74.75
  0
LINE
  8
0
 10
2198.5
 20
74.75
 11
2198.02
 21
74.8451
  0
LINE
  8
0
 10
2198.02
 20
74.8451
 11
2197.62
 21
75.1161
  0
LINE
  8
0
 10
2197.62
 20
75.1161
 11
2197.35
 21
75.5216
  0
LINE
  8
0
 10
2197.35
 20
75.5216
 11
2197.25
 21
76
  0
LINE
  8
0
 10
2197.25
 20
99
 11
2197.35
 21
99.4784
  0
LINE
  8
0
 10
2197.35
 20
99.4784
 11
2197.62
 21
99.8839
  0
LINE
  8
0
 10
2197.62
 20
99.8839
 11
2198.02
 21
100.155
  0
LINE
  8
0
 10
2198.02
 20
100.155
 11
2198.5
 21
100.25
  0
LINE
  8
0
 10
2198.5
 20
100.25
 11
2198.98
 21
100.155
  0
LINE
  8
0
 10
2198.98
 20
100.155
 11
2199.38
 21
99.8839
  0
LINE
  8
0
 10
2199.38
 20
99.8839
 11
2199.65
 21
99.4784
  0
LINE
  8
0
 10
2199.65
 20
99.4784
 11
2199.75
 21
99
  0
LINE
  8
0
 10
2199.75
 20
99
 11
2199.65
 21
98.5216
  0
LINE
  8
0
 10
2199.65
 20
98.5216
 11
2199.38
 21
98.1161
  0
LINE
  8
0
 10
2199.38
 20
98.1161
 11
2198.98
 21
97.8451
  0
LINE
  8
0
 10
2198.98
 20
97.8451
 11
2198.5
 21
97.75
  0
LINE
  8
0
 10
2198.5
 20
97.75
 11
2198.02
 21
97.8451
  0
LINE
  8
0
 10
2198.02
 20
97.8451
 11
2197.62
 21
98.1161
  0
LINE
  8
0
 10
2197.62
 20
98.1161
 11
2197.35
 21
98.5216
  0
LINE
  8
0
 10
2197.35
 20
98.5216
 11
2197.25
 21
99
  0
LINE
  8
0
 10
2197.25
 20
115
 11
2197.35
 21
115.478
  0
LINE
  8
0
 10
2197.35
 20
115.478
 11
2197.62
 21
115.884
  0
LINE
  8
0
 10
2197.62
 20
115.884
 11
2198.02
 21
116.155
  0
LINE
  8
0
 10
2198.02
 20
116.155
 11
2198.5
 21
116.25
  0
LINE
  8
0
 10
2198.5
 20
116.25
 11
2198.98
 21
116.155
  0
LINE
  8
0
 10
2198.98
 20
116.155
 11
2199.38
 21
115.884
  0
LINE
  8
0
 10
2199.38
 20
115.884
 11
2199.65
 21
115.478
  0
LINE
  8
0
 10
2199.65
 20
115.478
 11
2199.75
 21
115
  0
LINE
  8
0
 10
2199.75
 20
115
 11
2199.65
 21
114.522
  0
LINE
  8
0
 10
2199.65
 20
114.522
 11
2199.38
 21
114.116
  0
LINE
  8
0
 10
2199.38
 20
114.116
 11
2198.98
 21
113.845
  0
LINE
  8
0
 10
2198.98
 20
113.845
 11
2198.5
 21
113.75
  0
LINE
  8
0
 10
2198.5
 20
113.75
 11
2198.02
 21
113.845
  0
LINE
  8
0
 10
2198.02
 20
113.845
 11
2197.62
 21
114.116
  0
LINE
  8
0
 10
2197.62
 20
114.116
 11
2197.35
 21
114.522
  0
LINE
  8
0
 10
2197.35
 20
114.522
 11
2197.25
 21
115
  0
LINE
  8
0
 10
2288.5
 20
50
 11
2288.65
 21
50.7654
  0
LINE
  8
0
 10
2288.65
 20
50.7654
 11
2289.09
 21
51.4142
  0
LINE
  8
0
 10
2289.09
 20
51.4142
 11
2289.73
 21
51.8478
  0
LINE
  8
0
 10
2289.73
 20
51.8478
 11
2290.5
 21
52
  0
LINE
  8
0
 10
2290.5
 20
52
 11
2291.27
 21
51.8478
  0
LINE
  8
0
 10
2291.27
 20
51.8478
 11
2291.91
 21
51.4142
  0
LINE
  8
0
 10
2291.91
 20
51.4142
 11
2292.35
 21
50.7654
  0
LINE
  8
0
 10
2292.35
 20
50.7654
 11
2292.5
 21
50
  0
LINE
  8
0
 10
2292.5
 20
50
 11
2292.35
 21
49.2346
  0
LINE
  8
0
 10
2292.35
 20
49.2346
 11
2291.91
 21
48.5858
  0
LINE
  8
0
 10
2291.91
 20
48.5858
 11
2291.27
 21
48.1522
  0
LINE
  8
0
 10
2291.27
 20
48.1522
 11
2290.5
 21
48
  0
LINE
  8
0
 10
2290.5
 20
48
 11
2289.73
 21
48.1522
  0
LINE
  8
0
 10
2289.73
 20
48.1522
 11
2289.09
 21
48.5858
  0
LINE
  8
0
 10
2289.09
 20
48.5858
 11
2288.65
 21
49.2346
  0
LINE
  8
0
 10
2288.65
 20
49.2346
 11
2288.5
 21
50
  0
LINE
  8
0
 10
2288.5
 20
180
 11
2288.65
 21
180.765
  0
LINE
  8
0
 10
2288.65
 20
180.765
 11
2289.09
 21
181.414
  0
LINE
  8
0
 10
2289.09
 20
181.414
 11
2289.73
 21
181.848
  0
LINE
  8
0
 10
2289.73
 20
181.848
 11
2290.5
 21
182
  0
LINE
  8
0
 10
2290.5
 20
182
 11
2291.27
 21
181.848
  0
LINE
  8
0
 10
2291.27
 20
181.848
 11
2291.91
 21
181.414
  0
LINE
  8
0
 10
2291.91
 20
181.414
 11
2292.35
 21
180.765
  0
LINE
  8
0
 10
2292.35
 20
180.765
 11
2292.5
 21
180
  0
LINE
  8
0
 10
2292.5
 20
180
 11
2292.35
 21
179.235
  0
LINE
  8
0
 10
2292.35
 20
179.235
 11
2291.91
 21
178.586
  0
LINE
  8
0
 10
2291.91
 20
178.586
 11
2291.27
 21
178.152
  0
LINE
  8
0
 10
2291.27
 20
178.152
 11
2290.5
 21
178
  0
LINE
  8
0
 10
2290.5
 20
178
 11
2289.73
 21
178.152
  0
LINE
  8
0
 10
2289.73
 20
178.152
 11
2289.09
 21
178.586
  0
LINE
  8
0
 10
2289.09
 20
178.586
 11
2288.65
 21
179.235
  0
LINE
  8
0
 10
2288.65
 20
179.235
 11
2288.5
 21
180
  0
ENDSEC
  0
SECTION
  2
OBJECTS
  0
DICTIONARY
  0
ENDSEC
  0
EOF
