  0
SECTION
  2
BLOCKS
  0
ENDSEC
  0
SECTION
  2
ENTITIES
  0
LINE
  8
0
 10
0
 20
0
 11
200
 21
0
  0
LINE
  8
0
 10
200
 20
0
 11
200
 21
225
  0
LINE
  8
0
 10
200
 20
225
 11
0
 21
225
  0
LINE
  8
0
 10
0
 20
225
 11
0
 21
0
  0
LINE
  8
0
 10
48
 20
219
 11
48.1522
 21
219.765
  0
LINE
  8
0
 10
48.1522
 20
219.765
 11
48.5858
 21
220.414
  0
LINE
  8
0
 10
48.5858
 20
220.414
 11
49.2346
 21
220.848
  0
LINE
  8
0
 10
49.2346
 20
220.848
 11
50
 21
221
  0
LINE
  8
0
 10
50
 20
221
 11
50.7654
 21
220.848
  0
LINE
  8
0
 10
50.7654
 20
220.848
 11
51.4142
 21
220.414
  0
LINE
  8
0
 10
51.4142
 20
220.414
 11
51.8478
 21
219.765
  0
LINE
  8
0
 10
51.8478
 20
219.765
 11
52
 21
219
  0
LINE
  8
0
 10
52
 20
219
 11
51.8478
 21
218.235
  0
LINE
  8
0
 10
51.8478
 20
218.235
 11
51.4142
 21
217.586
  0
LINE
  8
0
 10
51.4142
 20
217.586
 11
50.7654
 21
217.152
  0
LINE
  8
0
 10
50.7654
 20
217.152
 11
50
 21
217
  0
LINE
  8
0
 10
50
 20
217
 11
49.2346
 21
217.152
  0
LINE
  8
0
 10
49.2346
 20
217.152
 11
48.5858
 21
217.586
  0
LINE
  8
0
 10
48.5858
 20
217.586
 11
48.1522
 21
218.235
  0
LINE
  8
0
 10
48.1522
 20
218.235
 11
48
 21
219
  0
LINE
  8
0
 10
126.25
 20
35
 11
126.345
 21
35.4784
  0
LINE
  8
0
 10
126.345
 20
35.4784
 11
126.616
 21
35.8839
  0
LINE
  8
0
 10
126.616
 20
35.8839
 11
127.022
 21
36.1548
  0
LINE
  8
0
 10
127.022
 20
36.1548
 11
127.5
 21
36.25
  0
LINE
  8
0
 10
127.5
 20
36.25
 11
127.978
 21
36.1548
  0
LINE
  8
0
 10
127.978
 20
36.1548
 11
128.384
 21
35.8839
  0
LINE
  8
0
 10
128.384
 20
35.8839
 11
128.655
 21
35.4784
  0
LINE
  8
0
 10
128.655
 20
35.4784
 11
128.75
 21
35
  0
LINE
  8
0
 10
128.75
 20
35
 11
128.655
 21
34.5216
  0
LINE
  8
0
 10
128.655
 20
34.5216
 11
128.384
 21
34.1161
  0
LINE
  8
0
 10
128.384
 20
34.1161
 11
127.978
 21
33.8451
  0
LINE
  8
0
 10
127.978
 20
33.8451
 11
127.5
 21
33.75
  0
LINE
  8
0
 10
127.5
 20
33.75
 11
127.022
 21
33.8451
  0
LINE
  8
0
 10
127.022
 20
33.8451
 11
126.616
 21
34.1161
  0
LINE
  8
0
 10
126.616
 20
34.1161
 11
126.345
 21
34.5216
  0
LINE
  8
0
 10
126.345
 20
34.5216
 11
126.25
 21
35
  0
LINE
  8
0
 10
126.25
 20
163
 11
126.345
 21
163.478
  0
LINE
  8
0
 10
126.345
 20
163.478
 11
126.616
 21
163.884
  0
LINE
  8
0
 10
126.616
 20
163.884
 11
127.022
 21
164.155
  0
LINE
  8
0
 10
127.022
 20
164.155
 11
127.5
 21
164.25
  0
LINE
  8
0
 10
127.5
 20
164.25
 11
127.978
 21
164.155
  0
LINE
  8
0
 10
127.978
 20
164.155
 11
128.384
 21
163.884
  0
LINE
  8
0
 10
128.384
 20
163.884
 11
128.655
 21
163.478
  0
LINE
  8
0
 10
128.655
 20
163.478
 11
128.75
 21
163
  0
LINE
  8
0
 10
128.75
 20
163
 11
128.655
 21
162.522
  0
LINE
  8
0
 10
128.655
 20
162.522
 11
128.384
 21
162.116
  0
LINE
  8
0
 10
128.384
 20
162.116
 11
127.978
 21
161.845
  0
LINE
  8
0
 10
127.978
 20
161.845
 11
127.5
 21
161.75
  0
LINE
  8
0
 10
127.5
 20
161.75
 11
127.022
 21
161.845
  0
LINE
  8
0
 10
127.022
 20
161.845
 11
126.616
 21
162.116
  0
LINE
  8
0
 10
126.616
 20
162.116
 11
126.345
 21
162.522
  0
LINE
  8
0
 10
126.345
 20
162.522
 11
126.25
 21
163
  0
LINE
  8
0
 10
148
 20
219
 11
148.152
 21
219.765
  0
LINE
  8
0
 10
148.152
 20
219.765
 11
148.586
 21
220.414
  0
LINE
  8
0
 10
148.586
 20
220.414
 11
149.235
 21
220.848
  0
LINE
  8
0
 10
149.235
 20
220.848
 11
150
 21
221
  0
LINE
  8
0
 10
150
 20
221
 11
150.765
 21
220.848
  0
LINE
  8
0
 10
150.765
 20
220.848
 11
151.414
 21
220.414
  0
LINE
  8
0
 10
151.414
 20
220.414
 11
151.848
 21
219.765
  0
LINE
  8
0
 10
151.848
 20
219.765
 11
152
 21
219
  0
LINE
  8
0
 10
152
 20
219
 11
151.848
 21
218.235
  0
LINE
  8
0
 10
151.848
 20
218.235
 11
151.414
 21
217.586
  0
LINE
  8
0
 10
151.414
 20
217.586
 11
150.765
 21
217.152
  0
LINE
  8
0
 10
150.765
 20
217.152
 11
150
 21
217
  0
LINE
  8
0
 10
150
 20
217
 11
149.235
 21
217.152
  0
LINE
  8
0
 10
149.235
 20
217.152
 11
148.586
 21
217.586
  0
LINE
  8
0
 10
148.586
 20
217.586
 11
148.152
 21
218.235
  0
LINE
  8
0
 10
148.152
 20
218.235
 11
148
 21
219
  0
LINE
  8
0
 10
192
 20
50
 11
192.152
 21
50.7654
  0
LINE
  8
0
 10
192.152
 20
50.7654
 11
192.586
 21
51.4142
  0
LINE
  8
0
 10
192.586
 20
51.4142
 11
193.235
 21
51.8478
  0
LINE
  8
0
 10
193.235
 20
51.8478
 11
194
 21
52
  0
LINE
  8
0
 10
194
 20
52
 11
194.765
 21
51.8478
  0
LINE
  8
0
 10
194.765
 20
51.8478
 11
195.414
 21
51.4142
  0
LINE
  8
0
 10
195.414
 20
51.4142
 11
195.848
 21
50.7654
  0
LINE
  8
0
 10
195.848
 20
50.7654
 11
196
 21
50
  0
LINE
  8
0
 10
196
 20
50
 11
195.848
 21
49.2346
  0
LINE
  8
0
 10
195.848
 20
49.2346
 11
195.414
 21
48.5858
  0
LINE
  8
0
 10
195.414
 20
48.5858
 11
194.765
 21
48.1522
  0
LINE
  8
0
 10
194.765
 20
48.1522
 11
194
 21
48
  0
LINE
  8
0
 10
194
 20
48
 11
193.235
 21
48.1522
  0
LINE
  8
0
 10
193.235
 20
48.1522
 11
192.586
 21
48.5858
  0
LINE
  8
0
 10
192.586
 20
48.5858
 11
192.152
 21
49.2346
  0
LINE
  8
0
 10
192.152
 20
49.2346
 11
192
 21
50
  0
LINE
  8
0
 10
192
 20
163
 11
192.152
 21
163.765
  0
LINE
  8
0
 10
192.152
 20
163.765
 11
192.586
 21
164.414
  0
LINE
  8
0
 10
192.586
 20
164.414
 11
193.235
 21
164.848
  0
LINE
  8
0
 10
193.235
 20
164.848
 11
194
 21
165
  0
LINE
  8
0
 10
194
 20
165
 11
194.765
 21
164.848
  0
LINE
  8
0
 10
194.765
 20
164.848
 11
195.414
 21
164.414
  0
LINE
  8
0
 10
195.414
 20
164.414
 11
195.848
 21
163.765
  0
LINE
  8
0
 10
195.848
 20
163.765
 11
196
 21
163
  0
LINE
  8
0
 10
196
 20
163
 11
195.848
 21
162.235
  0
LINE
  8
0
 10
195.848
 20
162.235
 11
195.414
 21
161.586
  0
LINE
  8
0
 10
195.414
 20
161.586
 11
194.765
 21
161.152
  0
LINE
  8
0
 10
194.765
 20
161.152
 11
194
 21
161
  0
LINE
  8
0
 10
194
 20
161
 11
193.235
 21
161.152
  0
LINE
  8
0
 10
193.235
 20
161.152
 11
192.586
 21
161.586
  0
LINE
  8
0
 10
192.586
 20
161.586
 11
192.152
 21
162.235
  0
LINE
  8
0
 10
192.152
 20
162.235
 11
192
 21
163
  0
ENDSEC
  0
SECTION
  2
OBJECTS
  0
DICTIONARY
  0
ENDSEC
  0
EOF
