  0
SECTION
  2
BLOCKS
  0
ENDSEC
  0
SECTION
  2
ENTITIES
  0
LINE
  8
0
 10
0
 20
0
 11
512
 21
0
  0
LINE
  8
0
 10
512
 20
0
 11
512
 21
200
  0
LINE
  8
0
 10
512
 20
200
 11
0
 21
200
  0
LINE
  8
0
 10
0
 20
200
 11
0
 21
0
  0
LINE
  8
0
 10
48
 20
194
 11
48.1522
 21
194.765
  0
LINE
  8
0
 10
48.1522
 20
194.765
 11
48.5858
 21
195.414
  0
LINE
  8
0
 10
48.5858
 20
195.414
 11
49.2346
 21
195.848
  0
LINE
  8
0
 10
49.2346
 20
195.848
 11
50
 21
196
  0
LINE
  8
0
 10
50
 20
196
 11
50.7654
 21
195.848
  0
LINE
  8
0
 10
50.7654
 20
195.848
 11
51.4142
 21
195.414
  0
LINE
  8
0
 10
51.4142
 20
195.414
 11
51.8478
 21
194.765
  0
LINE
  8
0
 10
51.8478
 20
194.765
 11
52
 21
194
  0
LINE
  8
0
 10
52
 20
194
 11
51.8478
 21
193.235
  0
LINE
  8
0
 10
51.8478
 20
193.235
 11
51.4142
 21
192.586
  0
LINE
  8
0
 10
51.4142
 20
192.586
 11
50.7654
 21
192.152
  0
LINE
  8
0
 10
50.7654
 20
192.152
 11
50
 21
192
  0
LINE
  8
0
 10
50
 20
192
 11
49.2346
 21
192.152
  0
LINE
  8
0
 10
49.2346
 20
192.152
 11
48.5858
 21
192.586
  0
LINE
  8
0
 10
48.5858
 20
192.586
 11
48.1522
 21
193.235
  0
LINE
  8
0
 10
48.1522
 20
193.235
 11
48
 21
194
  0
LINE
  8
0
 10
254
 20
194
 11
254.152
 21
194.765
  0
LINE
  8
0
 10
254.152
 20
194.765
 11
254.586
 21
195.414
  0
LINE
  8
0
 10
254.586
 20
195.414
 11
255.235
 21
195.848
  0
LINE
  8
0
 10
255.235
 20
195.848
 11
256
 21
196
  0
LINE
  8
0
 10
256
 20
196
 11
256.765
 21
195.848
  0
LINE
  8
0
 10
256.765
 20
195.848
 11
257.414
 21
195.414
  0
LINE
  8
0
 10
257.414
 20
195.414
 11
257.848
 21
194.765
  0
LINE
  8
0
 10
257.848
 20
194.765
 11
258
 21
194
  0
LINE
  8
0
 10
258
 20
194
 11
257.848
 21
193.235
  0
LINE
  8
0
 10
257.848
 20
193.235
 11
257.414
 21
192.586
  0
LINE
  8
0
 10
257.414
 20
192.586
 11
256.765
 21
192.152
  0
LINE
  8
0
 10
256.765
 20
192.152
 11
256
 21
192
  0
LINE
  8
0
 10
256
 20
192
 11
255.235
 21
192.152
  0
LINE
  8
0
 10
255.235
 20
192.152
 11
254.586
 21
192.586
  0
LINE
  8
0
 10
254.586
 20
192.586
 11
254.152
 21
193.235
  0
LINE
  8
0
 10
254.152
 20
193.235
 11
254
 21
194
  0
LINE
  8
0
 10
460
 20
194
 11
460.152
 21
194.765
  0
LINE
  8
0
 10
460.152
 20
194.765
 11
460.586
 21
195.414
  0
LINE
  8
0
 10
460.586
 20
195.414
 11
461.235
 21
195.848
  0
LINE
  8
0
 10
461.235
 20
195.848
 11
462
 21
196
  0
LINE
  8
0
 10
462
 20
196
 11
462.765
 21
195.848
  0
LINE
  8
0
 10
462.765
 20
195.848
 11
463.414
 21
195.414
  0
LINE
  8
0
 10
463.414
 20
195.414
 11
463.848
 21
194.765
  0
LINE
  8
0
 10
463.848
 20
194.765
 11
464
 21
194
  0
LINE
  8
0
 10
464
 20
194
 11
463.848
 21
193.235
  0
LINE
  8
0
 10
463.848
 20
193.235
 11
463.414
 21
192.586
  0
LINE
  8
0
 10
463.414
 20
192.586
 11
462.765
 21
192.152
  0
LINE
  8
0
 10
462.765
 20
192.152
 11
462
 21
192
  0
LINE
  8
0
 10
462
 20
192
 11
461.235
 21
192.152
  0
LINE
  8
0
 10
461.235
 20
192.152
 11
460.586
 21
192.586
  0
LINE
  8
0
 10
460.586
 20
192.586
 11
460.152
 21
193.235
  0
LINE
  8
0
 10
460.152
 20
193.235
 11
460
 21
194
  0
ENDSEC
  0
SECTION
  2
OBJECTS
  0
DICTIONARY
  0
ENDSEC
  0
EOF
