  0
SECTION
  2
BLOCKS
  0
ENDSEC
  0
SECTION
  2
ENTITIES
  0
LINE
  8
0
 10
0
 20
0
 11
597
 21
0
  0
LINE
  8
0
 10
597
 20
0
 11
597
 21
233
  0
LINE
  8
0
 10
597
 20
233
 11
0
 21
233
  0
LINE
  8
0
 10
0
 20
233
 11
0
 21
0
  0
LINE
  8
0
 10
39.5
 20
50
 11
39.7284
 21
51.148
  0
LINE
  8
0
 10
39.7284
 20
51.148
 11
40.3787
 21
52.1213
  0
LINE
  8
0
 10
40.3787
 20
52.1213
 11
41.3519
 21
52.7716
  0
LINE
  8
0
 10
41.3519
 20
52.7716
 11
42.5
 21
53
  0
LINE
  8
0
 10
42.5
 20
53
 11
43.648
 21
52.7716
  0
LINE
  8
0
 10
43.648
 20
52.7716
 11
44.6213
 21
52.1213
  0
LINE
  8
0
 10
44.6213
 20
52.1213
 11
45.2716
 21
51.148
  0
LINE
  8
0
 10
45.2716
 20
51.148
 11
45.5
 21
50
  0
LINE
  8
0
 10
45.5
 20
50
 11
45.2716
 21
48.8519
  0
LINE
  8
0
 10
45.2716
 20
48.8519
 11
44.6213
 21
47.8787
  0
LINE
  8
0
 10
44.6213
 20
47.8787
 11
43.648
 21
47.2284
  0
LINE
  8
0
 10
43.648
 20
47.2284
 11
42.5
 21
47
  0
LINE
  8
0
 10
42.5
 20
47
 11
41.3519
 21
47.2284
  0
LINE
  8
0
 10
41.3519
 20
47.2284
 11
40.3787
 21
47.8787
  0
LINE
  8
0
 10
40.3787
 20
47.8787
 11
39.7284
 21
48.8519
  0
LINE
  8
0
 10
39.7284
 20
48.8519
 11
39.5
 21
50
  0
LINE
  8
0
 10
39.5
 20
183
 11
39.7284
 21
184.148
  0
LINE
  8
0
 10
39.7284
 20
184.148
 11
40.3787
 21
185.121
  0
LINE
  8
0
 10
40.3787
 20
185.121
 11
41.3519
 21
185.772
  0
LINE
  8
0
 10
41.3519
 20
185.772
 11
42.5
 21
186
  0
LINE
  8
0
 10
42.5
 20
186
 11
43.648
 21
185.772
  0
LINE
  8
0
 10
43.648
 20
185.772
 11
44.6213
 21
185.121
  0
LINE
  8
0
 10
44.6213
 20
185.121
 11
45.2716
 21
184.148
  0
LINE
  8
0
 10
45.2716
 20
184.148
 11
45.5
 21
183
  0
LINE
  8
0
 10
45.5
 20
183
 11
45.2716
 21
181.852
  0
LINE
  8
0
 10
45.2716
 20
181.852
 11
44.6213
 21
180.879
  0
LINE
  8
0
 10
44.6213
 20
180.879
 11
43.648
 21
180.228
  0
LINE
  8
0
 10
43.648
 20
180.228
 11
42.5
 21
180
  0
LINE
  8
0
 10
42.5
 20
180
 11
41.3519
 21
180.228
  0
LINE
  8
0
 10
41.3519
 20
180.228
 11
40.3787
 21
180.879
  0
LINE
  8
0
 10
40.3787
 20
180.879
 11
39.7284
 21
181.852
  0
LINE
  8
0
 10
39.7284
 20
181.852
 11
39.5
 21
183
  0
LINE
  8
0
 10
89.5
 20
6
 11
89.7284
 21
7.14805
  0
LINE
  8
0
 10
89.7284
 20
7.14805
 11
90.3787
 21
8.12132
  0
LINE
  8
0
 10
90.3787
 20
8.12132
 11
91.3519
 21
8.77164
  0
LINE
  8
0
 10
91.3519
 20
8.77164
 11
92.5
 21
9
  0
LINE
  8
0
 10
92.5
 20
9
 11
93.648
 21
8.77164
  0
LINE
  8
0
 10
93.648
 20
8.77164
 11
94.6213
 21
8.12132
  0
LINE
  8
0
 10
94.6213
 20
8.12132
 11
95.2716
 21
7.14805
  0
LINE
  8
0
 10
95.2716
 20
7.14805
 11
95.5
 21
6
  0
LINE
  8
0
 10
95.5
 20
6
 11
95.2716
 21
4.85195
  0
LINE
  8
0
 10
95.2716
 20
4.85195
 11
94.6213
 21
3.87868
  0
LINE
  8
0
 10
94.6213
 20
3.87868
 11
93.648
 21
3.22836
  0
LINE
  8
0
 10
93.648
 20
3.22836
 11
92.5
 21
3
  0
LINE
  8
0
 10
92.5
 20
3
 11
91.3519
 21
3.22836
  0
LINE
  8
0
 10
91.3519
 20
3.22836
 11
90.3787
 21
3.87868
  0
LINE
  8
0
 10
90.3787
 20
3.87868
 11
89.7284
 21
4.85195
  0
LINE
  8
0
 10
89.7284
 20
4.85195
 11
89.5
 21
6
  0
LINE
  8
0
 10
216.5
 20
129
 11
216.652
 21
129.765
  0
LINE
  8
0
 10
216.652
 20
129.765
 11
217.086
 21
130.414
  0
LINE
  8
0
 10
217.086
 20
130.414
 11
217.735
 21
130.848
  0
LINE
  8
0
 10
217.735
 20
130.848
 11
218.5
 21
131
  0
LINE
  8
0
 10
218.5
 20
131
 11
219.265
 21
130.848
  0
LINE
  8
0
 10
219.265
 20
130.848
 11
219.914
 21
130.414
  0
LINE
  8
0
 10
219.914
 20
130.414
 11
220.348
 21
129.765
  0
LINE
  8
0
 10
220.348
 20
129.765
 11
220.5
 21
129
  0
LINE
  8
0
 10
220.5
 20
129
 11
220.348
 21
128.235
  0
LINE
  8
0
 10
220.348
 20
128.235
 11
219.914
 21
127.586
  0
LINE
  8
0
 10
219.914
 20
127.586
 11
219.265
 21
127.152
  0
LINE
  8
0
 10
219.265
 20
127.152
 11
218.5
 21
127
  0
LINE
  8
0
 10
218.5
 20
127
 11
217.735
 21
127.152
  0
LINE
  8
0
 10
217.735
 20
127.152
 11
217.086
 21
127.586
  0
LINE
  8
0
 10
217.086
 20
127.586
 11
216.652
 21
128.235
  0
LINE
  8
0
 10
216.652
 20
128.235
 11
216.5
 21
129
  0
LINE
  8
0
 10
226.833
 20
6
 11
227.062
 21
7.14805
  0
LINE
  8
0
 10
227.062
 20
7.14805
 11
227.712
 21
8.12132
  0
LINE
  8
0
 10
227.712
 20
8.12132
 11
228.685
 21
8.77164
  0
LINE
  8
0
 10
228.685
 20
8.77164
 11
229.833
 21
9
  0
LINE
  8
0
 10
229.833
 20
9
 11
230.981
 21
8.77164
  0
LINE
  8
0
 10
230.981
 20
8.77164
 11
231.955
 21
8.12132
  0
LINE
  8
0
 10
231.955
 20
8.12132
 11
232.605
 21
7.14805
  0
LINE
  8
0
 10
232.605
 20
7.14805
 11
232.833
 21
6
  0
LINE
  8
0
 10
232.833
 20
6
 11
232.605
 21
4.85195
  0
LINE
  8
0
 10
232.605
 20
4.85195
 11
231.955
 21
3.87868
  0
LINE
  8
0
 10
231.955
 20
3.87868
 11
230.981
 21
3.22836
  0
LINE
  8
0
 10
230.981
 20
3.22836
 11
229.833
 21
3
  0
LINE
  8
0
 10
229.833
 20
3
 11
228.685
 21
3.22836
  0
LINE
  8
0
 10
228.685
 20
3.22836
 11
227.712
 21
3.87868
  0
LINE
  8
0
 10
227.712
 20
3.87868
 11
227.062
 21
4.85195
  0
LINE
  8
0
 10
227.062
 20
4.85195
 11
226.833
 21
6
  0
LINE
  8
0
 10
364.167
 20
6
 11
364.395
 21
7.14805
  0
LINE
  8
0
 10
364.395
 20
7.14805
 11
365.045
 21
8.12132
  0
LINE
  8
0
 10
365.045
 20
8.12132
 11
366.019
 21
8.77164
  0
LINE
  8
0
 10
366.019
 20
8.77164
 11
367.167
 21
9
  0
LINE
  8
0
 10
367.167
 20
9
 11
368.315
 21
8.77164
  0
LINE
  8
0
 10
368.315
 20
8.77164
 11
369.288
 21
8.12132
  0
LINE
  8
0
 10
369.288
 20
8.12132
 11
369.938
 21
7.14805
  0
LINE
  8
0
 10
369.938
 20
7.14805
 11
370.167
 21
6
  0
LINE
  8
0
 10
370.167
 20
6
 11
369.938
 21
4.85195
  0
LINE
  8
0
 10
369.938
 20
4.85195
 11
369.288
 21
3.87868
  0
LINE
  8
0
 10
369.288
 20
3.87868
 11
368.315
 21
3.22836
  0
LINE
  8
0
 10
368.315
 20
3.22836
 11
367.167
 21
3
  0
LINE
  8
0
 10
367.167
 20
3
 11
366.019
 21
3.22836
  0
LINE
  8
0
 10
366.019
 20
3.22836
 11
365.045
 21
3.87868
  0
LINE
  8
0
 10
365.045
 20
3.87868
 11
364.395
 21
4.85195
  0
LINE
  8
0
 10
364.395
 20
4.85195
 11
364.167
 21
6
  0
LINE
  8
0
 10
376.5
 20
129
 11
376.652
 21
129.765
  0
LINE
  8
0
 10
376.652
 20
129.765
 11
377.086
 21
130.414
  0
LINE
  8
0
 10
377.086
 20
130.414
 11
377.735
 21
130.848
  0
LINE
  8
0
 10
377.735
 20
130.848
 11
378.5
 21
131
  0
LINE
  8
0
 10
378.5
 20
131
 11
379.265
 21
130.848
  0
LINE
  8
0
 10
379.265
 20
130.848
 11
379.914
 21
130.414
  0
LINE
  8
0
 10
379.914
 20
130.414
 11
380.348
 21
129.765
  0
LINE
  8
0
 10
380.348
 20
129.765
 11
380.5
 21
129
  0
LINE
  8
0
 10
380.5
 20
129
 11
380.348
 21
128.235
  0
LINE
  8
0
 10
380.348
 20
128.235
 11
379.914
 21
127.586
  0
LINE
  8
0
 10
379.914
 20
127.586
 11
379.265
 21
127.152
  0
LINE
  8
0
 10
379.265
 20
127.152
 11
378.5
 21
127
  0
LINE
  8
0
 10
378.5
 20
127
 11
377.735
 21
127.152
  0
LINE
  8
0
 10
377.735
 20
127.152
 11
377.086
 21
127.586
  0
LINE
  8
0
 10
377.086
 20
127.586
 11
376.652
 21
128.235
  0
LINE
  8
0
 10
376.652
 20
128.235
 11
376.5
 21
129
  0
LINE
  8
0
 10
501.5
 20
6
 11
501.728
 21
7.14805
  0
LINE
  8
0
 10
501.728
 20
7.14805
 11
502.379
 21
8.12132
  0
LINE
  8
0
 10
502.379
 20
8.12132
 11
503.352
 21
8.77164
  0
LINE
  8
0
 10
503.352
 20
8.77164
 11
504.5
 21
9
  0
LINE
  8
0
 10
504.5
 20
9
 11
505.648
 21
8.77164
  0
LINE
  8
0
 10
505.648
 20
8.77164
 11
506.621
 21
8.12132
  0
LINE
  8
0
 10
506.621
 20
8.12132
 11
507.272
 21
7.14805
  0
LINE
  8
0
 10
507.272
 20
7.14805
 11
507.5
 21
6
  0
LINE
  8
0
 10
507.5
 20
6
 11
507.272
 21
4.85195
  0
LINE
  8
0
 10
507.272
 20
4.85195
 11
506.621
 21
3.87868
  0
LINE
  8
0
 10
506.621
 20
3.87868
 11
505.648
 21
3.22836
  0
LINE
  8
0
 10
505.648
 20
3.22836
 11
504.5
 21
3
  0
LINE
  8
0
 10
504.5
 20
3
 11
503.352
 21
3.22836
  0
LINE
  8
0
 10
503.352
 20
3.22836
 11
502.379
 21
3.87868
  0
LINE
  8
0
 10
502.379
 20
3.87868
 11
501.728
 21
4.85195
  0
LINE
  8
0
 10
501.728
 20
4.85195
 11
501.5
 21
6
  0
LINE
  8
0
 10
551.5
 20
50
 11
551.728
 21
51.148
  0
LINE
  8
0
 10
551.728
 20
51.148
 11
552.379
 21
52.1213
  0
LINE
  8
0
 10
552.379
 20
52.1213
 11
553.352
 21
52.7716
  0
LINE
  8
0
 10
553.352
 20
52.7716
 11
554.5
 21
53
  0
LINE
  8
0
 10
554.5
 20
53
 11
555.648
 21
52.7716
  0
LINE
  8
0
 10
555.648
 20
52.7716
 11
556.621
 21
52.1213
  0
LINE
  8
0
 10
556.621
 20
52.1213
 11
557.272
 21
51.148
  0
LINE
  8
0
 10
557.272
 20
51.148
 11
557.5
 21
50
  0
LINE
  8
0
 10
557.5
 20
50
 11
557.272
 21
48.8519
  0
LINE
  8
0
 10
557.272
 20
48.8519
 11
556.621
 21
47.8787
  0
LINE
  8
0
 10
556.621
 20
47.8787
 11
555.648
 21
47.2284
  0
LINE
  8
0
 10
555.648
 20
47.2284
 11
554.5
 21
47
  0
LINE
  8
0
 10
554.5
 20
47
 11
553.352
 21
47.2284
  0
LINE
  8
0
 10
553.352
 20
47.2284
 11
552.379
 21
47.8787
  0
LINE
  8
0
 10
552.379
 20
47.8787
 11
551.728
 21
48.8519
  0
LINE
  8
0
 10
551.728
 20
48.8519
 11
551.5
 21
50
  0
LINE
  8
0
 10
551.5
 20
183
 11
551.728
 21
184.148
  0
LINE
  8
0
 10
551.728
 20
184.148
 11
552.379
 21
185.121
  0
LINE
  8
0
 10
552.379
 20
185.121
 11
553.352
 21
185.772
  0
LINE
  8
0
 10
553.352
 20
185.772
 11
554.5
 21
186
  0
LINE
  8
0
 10
554.5
 20
186
 11
555.648
 21
185.772
  0
LINE
  8
0
 10
555.648
 20
185.772
 11
556.621
 21
185.121
  0
LINE
  8
0
 10
556.621
 20
185.121
 11
557.272
 21
184.148
  0
LINE
  8
0
 10
557.272
 20
184.148
 11
557.5
 21
183
  0
LINE
  8
0
 10
557.5
 20
183
 11
557.272
 21
181.852
  0
LINE
  8
0
 10
557.272
 20
181.852
 11
556.621
 21
180.879
  0
LINE
  8
0
 10
556.621
 20
180.879
 11
555.648
 21
180.228
  0
LINE
  8
0
 10
555.648
 20
180.228
 11
554.5
 21
180
  0
LINE
  8
0
 10
554.5
 20
180
 11
553.352
 21
180.228
  0
LINE
  8
0
 10
553.352
 20
180.228
 11
552.379
 21
180.879
  0
LINE
  8
0
 10
552.379
 20
180.879
 11
551.728
 21
181.852
  0
LINE
  8
0
 10
551.728
 20
181.852
 11
551.5
 21
183
  0
ENDSEC
  0
SECTION
  2
OBJECTS
  0
DICTIONARY
  0
ENDSEC
  0
EOF
