  0
SECTION
  2
BLOCKS
  0
ENDSEC
  0
SECTION
  2
ENTITIES
  0
LINE
  8
0
 10
0
 20
0
 11
30
 21
0
  0
LINE
  8
0
 10
30
 20
0
 11
30
 21
230
  0
LINE
  8
0
 10
30
 20
230
 11
0
 21
230
  0
LINE
  8
0
 10
0
 20
230
 11
0
 21
0
  0
LINE
  8
0
 10
13
 20
9.5
 11
13.1522
 21
10.2654
  0
LINE
  8
0
 10
13.1522
 20
10.2654
 11
13.5858
 21
10.9142
  0
LINE
  8
0
 10
13.5858
 20
10.9142
 11
14.2346
 21
11.3478
  0
LINE
  8
0
 10
14.2346
 20
11.3478
 11
15
 21
11.5
  0
LINE
  8
0
 10
15
 20
11.5
 11
15.7654
 21
11.3478
  0
LINE
  8
0
 10
15.7654
 20
11.3478
 11
16.4142
 21
10.9142
  0
LINE
  8
0
 10
16.4142
 20
10.9142
 11
16.8478
 21
10.2654
  0
LINE
  8
0
 10
16.8478
 20
10.2654
 11
17
 21
9.5
  0
LINE
  8
0
 10
17
 20
9.5
 11
16.8478
 21
8.73463
  0
LINE
  8
0
 10
16.8478
 20
8.73463
 11
16.4142
 21
8.08579
  0
LINE
  8
0
 10
16.4142
 20
8.08579
 11
15.7654
 21
7.65224
  0
LINE
  8
0
 10
15.7654
 20
7.65224
 11
15
 21
7.5
  0
LINE
  8
0
 10
15
 20
7.5
 11
14.2346
 21
7.65224
  0
LINE
  8
0
 10
14.2346
 20
7.65224
 11
13.5858
 21
8.08579
  0
LINE
  8
0
 10
13.5858
 20
8.08579
 11
13.1522
 21
8.73463
  0
LINE
  8
0
 10
13.1522
 20
8.73463
 11
13
 21
9.5
  0
LINE
  8
0
 10
13
 20
220.5
 11
13.1522
 21
221.265
  0
LINE
  8
0
 10
13.1522
 20
221.265
 11
13.5858
 21
221.914
  0
LINE
  8
0
 10
13.5858
 20
221.914
 11
14.2346
 21
222.348
  0
LINE
  8
0
 10
14.2346
 20
222.348
 11
15
 21
222.5
  0
LINE
  8
0
 10
15
 20
222.5
 11
15.7654
 21
222.348
  0
LINE
  8
0
 10
15.7654
 20
222.348
 11
16.4142
 21
221.914
  0
LINE
  8
0
 10
16.4142
 20
221.914
 11
16.8478
 21
221.265
  0
LINE
  8
0
 10
16.8478
 20
221.265
 11
17
 21
220.5
  0
LINE
  8
0
 10
17
 20
220.5
 11
16.8478
 21
219.735
  0
LINE
  8
0
 10
16.8478
 20
219.735
 11
16.4142
 21
219.086
  0
LINE
  8
0
 10
16.4142
 20
219.086
 11
15.7654
 21
218.652
  0
LINE
  8
0
 10
15.7654
 20
218.652
 11
15
 21
218.5
  0
LINE
  8
0
 10
15
 20
218.5
 11
14.2346
 21
218.652
  0
LINE
  8
0
 10
14.2346
 20
218.652
 11
13.5858
 21
219.086
  0
LINE
  8
0
 10
13.5858
 20
219.086
 11
13.1522
 21
219.735
  0
LINE
  8
0
 10
13.1522
 20
219.735
 11
13
 21
220.5
  0
ENDSEC
  0
SECTION
  2
OBJECTS
  0
DICTIONARY
  0
ENDSEC
  0
EOF
