999
DXF from OpenSCAD
  0
SECTION
  2
HEADER
  9
$ACADVER
  1
AC1006
  9
$INSBASE
 10
0.0
 20
0.0
 30
0.0
  9
$EXTMIN
 10
0
 20
0
  9
$EXTMAX
 10
2300
 20
230
  9
$LINMIN
 10
0
 20
0
  9
$LINMAX
 10
2300
 20
230
  0
ENDSEC
  0
SECTION
  2
TABLES
  0
TABLE
  2
LTYPE
 70
1
  0
LTYPE
  2
CONTINUOUS
 70
64
  3
Solid line
 72
65
 73
0
 40
0.000000
  0
ENDTAB
  0
TABLE
  2
LAYER
 70
6
  0
LAYER
  2
0
 70
64
 62
7
  6
CONTINUOUS
  0
ENDTAB
  0
TABLE
  2
STYLE
 70
0
  0
ENDTAB
  0
ENDSEC
  0
SECTION
  2
BLOCKS
  0
ENDSEC
  0
SECTION
  2
ENTITIES
  0
LWPOLYLINE
100
AcDbEntity
  8
0
100
AcDbPolyline
 90
4
 70
1
 10
0
 20
0
 10
2300
 20
0
 10
2300
 20
230
 10
0
 20
230
  0
LWPOLYLINE
100
AcDbEntity
  8
0
100
AcDbPolyline
 90
16
 70
1
 10
7.5
 20
50
 10
7.65224
 20
50.7654
 10
8.08579
 20
51.4142
 10
8.73463
 20
51.8478
 10
9.5
 20
52
 10
10.2654
 20
51.8478
 10
10.9142
 20
51.4142
 10
11.3478
 20
50.7654
 10
11.5
 20
50
 10
11.3478
 20
49.2346
 10
10.9142
 20
48.5858
 10
10.2654
 20
48.1522
 10
9.5
 20
48
 10
8.73463
 20
48.1522
 10
8.08579
 20
48.5858
 10
7.65224
 20
49.2346
  0
LWPOLYLINE
100
AcDbEntity
  8
0
100
AcDbPolyline
 90
16
 70
1
 10
7.5
 20
180
 10
7.65224
 20
180.765
 10
8.08579
 20
181.414
 10
8.73463
 20
181.848
 10
9.5
 20
182
 10
10.2654
 20
181.848
 10
10.9142
 20
181.414
 10
11.3478
 20
180.765
 10
11.5
 20
180
 10
11.3478
 20
179.235
 10
10.9142
 20
178.586
 10
10.2654
 20
178.152
 10
9.5
 20
178
 10
8.73463
 20
178.152
 10
8.08579
 20
178.586
 10
7.65224
 20
179.235
  0
LWPOLYLINE
100
AcDbEntity
  8
0
100
AcDbPolyline
 90
16
 70
1
 10
338.167
 20
50
 10
338.319
 20
50.7654
 10
338.752
 20
51.4142
 10
339.401
 20
51.8478
 10
340.167
 20
52
 10
340.932
 20
51.8478
 10
341.581
 20
51.4142
 10
342.014
 20
50.7654
 10
342.167
 20
50
 10
342.014
 20
49.2346
 10
341.581
 20
48.5858
 10
340.932
 20
48.1522
 10
340.167
 20
48
 10
339.401
 20
48.1522
 10
338.752
 20
48.5858
 10
338.319
 20
49.2346
  0
LWPOLYLINE
100
AcDbEntity
  8
0
100
AcDbPolyline
 90
16
 70
1
 10
338.167
 20
180
 10
338.319
 20
180.765
 10
338.752
 20
181.414
 10
339.401
 20
181.848
 10
340.167
 20
182
 10
340.932
 20
181.848
 10
341.581
 20
181.414
 10
342.014
 20
180.765
 10
342.167
 20
180
 10
342.014
 20
179.235
 10
341.581
 20
178.586
 10
340.932
 20
178.152
 10
340.167
 20
178
 10
339.401
 20
178.152
 10
338.752
 20
178.586
 10
338.319
 20
179.235
  0
LWPOLYLINE
100
AcDbEntity
  8
0
100
AcDbPolyline
 90
16
 70
1
 10
668.833
 20
50
 10
668.986
 20
50.7654
 10
669.419
 20
51.4142
 10
670.068
 20
51.8478
 10
670.833
 20
52
 10
671.599
 20
51.8478
 10
672.248
 20
51.4142
 10
672.681
 20
50.7654
 10
672.833
 20
50
 10
672.681
 20
49.2346
 10
672.248
 20
48.5858
 10
671.599
 20
48.1522
 10
670.833
 20
48
 10
670.068
 20
48.1522
 10
669.419
 20
48.5858
 10
668.986
 20
49.2346
  0
LWPOLYLINE
100
AcDbEntity
  8
0
100
AcDbPolyline
 90
16
 70
1
 10
668.833
 20
180
 10
668.986
 20
180.765
 10
669.419
 20
181.414
 10
670.068
 20
181.848
 10
670.833
 20
182
 10
671.599
 20
181.848
 10
672.248
 20
181.414
 10
672.681
 20
180.765
 10
672.833
 20
180
 10
672.681
 20
179.235
 10
672.248
 20
178.586
 10
671.599
 20
178.152
 10
670.833
 20
178
 10
670.068
 20
178.152
 10
669.419
 20
178.586
 10
668.986
 20
179.235
  0
LWPOLYLINE
100
AcDbEntity
  8
0
100
AcDbPolyline
 90
16
 70
1
 10
999.5
 20
50
 10
999.652
 20
50.7654
 10
1000.09
 20
51.4142
 10
1000.73
 20
51.8478
 10
1001.5
 20
52
 10
1002.27
 20
51.8478
 10
1002.91
 20
51.4142
 10
1003.35
 20
50.7654
 10
1003.5
 20
50
 10
1003.35
 20
49.2346
 10
1002.91
 20
48.5858
 10
1002.27
 20
48.1522
 10
1001.5
 20
48
 10
1000.73
 20
48.1522
 10
1000.09
 20
48.5858
 10
999.652
 20
49.2346
  0
LWPOLYLINE
100
AcDbEntity
  8
0
100
AcDbPolyline
 90
16
 70
1
 10
999.5
 20
180
 10
999.652
 20
180.765
 10
1000.09
 20
181.414
 10
1000.73
 20
181.848
 10
1001.5
 20
182
 10
1002.27
 20
181.848
 10
1002.91
 20
181.414
 10
1003.35
 20
180.765
 10
1003.5
 20
180
 10
1003.35
 20
179.235
 10
1002.91
 20
178.586
 10
1002.27
 20
178.152
 10
1001.5
 20
178
 10
1000.73
 20
178.152
 10
1000.09
 20
178.586
 10
999.652
 20
179.235
  0
LWPOLYLINE
100
AcDbEntity
  8
0
100
AcDbPolyline
 90
16
 70
1
 10
1147.25
 20
6.5
 10
1147.35
 20
6.97835
 10
1147.62
 20
7.38388
 10
1148.02
 20
7.65485
 10
1148.5
 20
7.75
 10
1148.98
 20
7.65485
 10
1149.38
 20
7.38388
 10
1149.65
 20
6.97835
 10
1149.75
 20
6.5
 10
1149.65
 20
6.02165
 10
1149.38
 20
5.61612
 10
1148.98
 20
5.34515
 10
1148.5
 20
5.25
 10
1148.02
 20
5.34515
 10
1147.62
 20
5.61612
 10
1147.35
 20
6.02165
  0
LWPOLYLINE
100
AcDbEntity
  8
0
100
AcDbPolyline
 90
16
 70
1
 10
1147.25
 20
35
 10
1147.35
 20
35.4784
 10
1147.62
 20
35.8839
 10
1148.02
 20
36.1548
 10
1148.5
 20
36.25
 10
1148.98
 20
36.1548
 10
1149.38
 20
35.8839
 10
1149.65
 20
35.4784
 10
1149.75
 20
35
 10
1149.65
 20
34.5216
 10
1149.38
 20
34.1161
 10
1148.98
 20
33.8451
 10
1148.5
 20
33.75
 10
1148.02
 20
33.8451
 10
1147.62
 20
34.1161
 10
1147.35
 20
34.5216
  0
LWPOLYLINE
100
AcDbEntity
  8
0
100
AcDbPolyline
 90
16
 70
1
 10
1147.25
 20
51
 10
1147.35
 20
51.4784
 10
1147.62
 20
51.8839
 10
1148.02
 20
52.1548
 10
1148.5
 20
52.25
 10
1148.98
 20
52.1548
 10
1149.38
 20
51.8839
 10
1149.65
 20
51.4784
 10
1149.75
 20
51
 10
1149.65
 20
50.5216
 10
1149.38
 20
50.1161
 10
1148.98
 20
49.8451
 10
1148.5
 20
49.75
 10
1148.02
 20
49.8451
 10
1147.62
 20
50.1161
 10
1147.35
 20
50.5216
  0
LWPOLYLINE
100
AcDbEntity
  8
0
100
AcDbPolyline
 90
16
 70
1
 10
1147.25
 20
76
 10
1147.35
 20
76.4784
 10
1147.62
 20
76.8839
 10
1148.02
 20
77.1548
 10
1148.5
 20
77.25
 10
1148.98
 20
77.1548
 10
1149.38
 20
76.8839
 10
1149.65
 20
76.4784
 10
1149.75
 20
76
 10
1149.65
 20
75.5216
 10
1149.38
 20
75.1161
 10
1148.98
 20
74.8451
 10
1148.5
 20
74.75
 10
1148.02
 20
74.8451
 10
1147.62
 20
75.1161
 10
1147.35
 20
75.5216
  0
LWPOLYLINE
100
AcDbEntity
  8
0
100
AcDbPolyline
 90
16
 70
1
 10
1147.25
 20
99
 10
1147.35
 20
99.4784
 10
1147.62
 20
99.8839
 10
1148.02
 20
100.155
 10
1148.5
 20
100.25
 10
1148.98
 20
100.155
 10
1149.38
 20
99.8839
 10
1149.65
 20
99.4784
 10
1149.75
 20
99
 10
1149.65
 20
98.5216
 10
1149.38
 20
98.1161
 10
1148.98
 20
97.8451
 10
1148.5
 20
97.75
 10
1148.02
 20
97.8451
 10
1147.62
 20
98.1161
 10
1147.35
 20
98.5216
  0
LWPOLYLINE
100
AcDbEntity
  8
0
100
AcDbPolyline
 90
16
 70
1
 10
1147.25
 20
115
 10
1147.35
 20
115.478
 10
1147.62
 20
115.884
 10
1148.02
 20
116.155
 10
1148.5
 20
116.25
 10
1148.98
 20
116.155
 10
1149.38
 20
115.884
 10
1149.65
 20
115.478
 10
1149.75
 20
115
 10
1149.65
 20
114.522
 10
1149.38
 20
114.116
 10
1148.98
 20
113.845
 10
1148.5
 20
113.75
 10
1148.02
 20
113.845
 10
1147.62
 20
114.116
 10
1147.35
 20
114.522
  0
LWPOLYLINE
100
AcDbEntity
  8
0
100
AcDbPolyline
 90
16
 70
1
 10
1357.25
 20
6.5
 10
1357.35
 20
6.97835
 10
1357.62
 20
7.38388
 10
1358.02
 20
7.65485
 10
1358.5
 20
7.75
 10
1358.98
 20
7.65485
 10
1359.38
 20
7.38388
 10
1359.65
 20
6.97835
 10
1359.75
 20
6.5
 10
1359.65
 20
6.02165
 10
1359.38
 20
5.61612
 10
1358.98
 20
5.34515
 10
1358.5
 20
5.25
 10
1358.02
 20
5.34515
 10
1357.62
 20
5.61612
 10
1357.35
 20
6.02165
  0
LWPOLYLINE
100
AcDbEntity
  8
0
100
AcDbPolyline
 90
16
 70
1
 10
1357.25
 20
35
 10
1357.35
 20
35.4784
 10
1357.62
 20
35.8839
 10
1358.02
 20
36.1548
 10
1358.5
 20
36.25
 10
1358.98
 20
36.1548
 10
1359.38
 20
35.8839
 10
1359.65
 20
35.4784
 10
1359.75
 20
35
 10
1359.65
 20
34.5216
 10
1359.38
 20
34.1161
 10
1358.98
 20
33.8451
 10
1358.5
 20
33.75
 10
1358.02
 20
33.8451
 10
1357.62
 20
34.1161
 10
1357.35
 20
34.5216
  0
LWPOLYLINE
100
AcDbEntity
  8
0
100
AcDbPolyline
 90
16
 70
1
 10
1357.25
 20
51
 10
1357.35
 20
51.4784
 10
1357.62
 20
51.8839
 10
1358.02
 20
52.1548
 10
1358.5
 20
52.25
 10
1358.98
 20
52.1548
 10
1359.38
 20
51.8839
 10
1359.65
 20
51.4784
 10
1359.75
 20
51
 10
1359.65
 20
50.5216
 10
1359.38
 20
50.1161
 10
1358.98
 20
49.8451
 10
1358.5
 20
49.75
 10
1358.02
 20
49.8451
 10
1357.62
 20
50.1161
 10
1357.35
 20
50.5216
  0
LWPOLYLINE
100
AcDbEntity
  8
0
100
AcDbPolyline
 90
16
 70
1
 10
1357.25
 20
76
 10
1357.35
 20
76.4784
 10
1357.62
 20
76.8839
 10
1358.02
 20
77.1548
 10
1358.5
 20
77.25
 10
1358.98
 20
77.1548
 10
1359.38
 20
76.8839
 10
1359.65
 20
76.4784
 10
1359.75
 20
76
 10
1359.65
 20
75.5216
 10
1359.38
 20
75.1161
 10
1358.98
 20
74.8451
 10
1358.5
 20
74.75
 10
1358.02
 20
74.8451
 10
1357.62
 20
75.1161
 10
1357.35
 20
75.5216
  0
LWPOLYLINE
100
AcDbEntity
  8
0
100
AcDbPolyline
 90
16
 70
1
 10
1357.25
 20
99
 10
1357.35
 20
99.4784
 10
1357.62
 20
99.8839
 10
1358.02
 20
100.155
 10
1358.5
 20
100.25
 10
1358.98
 20
100.155
 10
1359.38
 20
99.8839
 10
1359.65
 20
99.4784
 10
1359.75
 20
99
 10
1359.65
 20
98.5216
 10
1359.38
 20
98.1161
 10
1358.98
 20
97.8451
 10
1358.5
 20
97.75
 10
1358.02
 20
97.8451
 10
1357.62
 20
98.1161
 10
1357.35
 20
98.5216
  0
LWPOLYLINE
100
AcDbEntity
  8
0
100
AcDbPolyline
 90
16
 70
1
 10
1357.25
 20
115
 10
1357.35
 20
115.478
 10
1357.62
 20
115.884
 10
1358.02
 20
116.155
 10
1358.5
 20
116.25
 10
1358.98
 20
116.155
 10
1359.38
 20
115.884
 10
1359.65
 20
115.478
 10
1359.75
 20
115
 10
1359.65
 20
114.522
 10
1359.38
 20
114.116
 10
1358.98
 20
113.845
 10
1358.5
 20
113.75
 10
1358.02
 20
113.845
 10
1357.62
 20
114.116
 10
1357.35
 20
114.522
  0
LWPOLYLINE
100
AcDbEntity
  8
0
100
AcDbPolyline
 90
16
 70
1
 10
1567.25
 20
6.5
 10
1567.35
 20
6.97835
 10
1567.62
 20
7.38388
 10
1568.02
 20
7.65485
 10
1568.5
 20
7.75
 10
1568.98
 20
7.65485
 10
1569.38
 20
7.38388
 10
1569.65
 20
6.97835
 10
1569.75
 20
6.5
 10
1569.65
 20
6.02165
 10
1569.38
 20
5.61612
 10
1568.98
 20
5.34515
 10
1568.5
 20
5.25
 10
1568.02
 20
5.34515
 10
1567.62
 20
5.61612
 10
1567.35
 20
6.02165
  0
LWPOLYLINE
100
AcDbEntity
  8
0
100
AcDbPolyline
 90
16
 70
1
 10
1567.25
 20
35
 10
1567.35
 20
35.4784
 10
1567.62
 20
35.8839
 10
1568.02
 20
36.1548
 10
1568.5
 20
36.25
 10
1568.98
 20
36.1548
 10
1569.38
 20
35.8839
 10
1569.65
 20
35.4784
 10
1569.75
 20
35
 10
1569.65
 20
34.5216
 10
1569.38
 20
34.1161
 10
1568.98
 20
33.8451
 10
1568.5
 20
33.75
 10
1568.02
 20
33.8451
 10
1567.62
 20
34.1161
 10
1567.35
 20
34.5216
  0
LWPOLYLINE
100
AcDbEntity
  8
0
100
AcDbPolyline
 90
16
 70
1
 10
1567.25
 20
51
 10
1567.35
 20
51.4784
 10
1567.62
 20
51.8839
 10
1568.02
 20
52.1548
 10
1568.5
 20
52.25
 10
1568.98
 20
52.1548
 10
1569.38
 20
51.8839
 10
1569.65
 20
51.4784
 10
1569.75
 20
51
 10
1569.65
 20
50.5216
 10
1569.38
 20
50.1161
 10
1568.98
 20
49.8451
 10
1568.5
 20
49.75
 10
1568.02
 20
49.8451
 10
1567.62
 20
50.1161
 10
1567.35
 20
50.5216
  0
LWPOLYLINE
100
AcDbEntity
  8
0
100
AcDbPolyline
 90
16
 70
1
 10
1567.25
 20
76
 10
1567.35
 20
76.4784
 10
1567.62
 20
76.8839
 10
1568.02
 20
77.1548
 10
1568.5
 20
77.25
 10
1568.98
 20
77.1548
 10
1569.38
 20
76.8839
 10
1569.65
 20
76.4784
 10
1569.75
 20
76
 10
1569.65
 20
75.5216
 10
1569.38
 20
75.1161
 10
1568.98
 20
74.8451
 10
1568.5
 20
74.75
 10
1568.02
 20
74.8451
 10
1567.62
 20
75.1161
 10
1567.35
 20
75.5216
  0
LWPOLYLINE
100
AcDbEntity
  8
0
100
AcDbPolyline
 90
16
 70
1
 10
1567.25
 20
99
 10
1567.35
 20
99.4784
 10
1567.62
 20
99.8839
 10
1568.02
 20
100.155
 10
1568.5
 20
100.25
 10
1568.98
 20
100.155
 10
1569.38
 20
99.8839
 10
1569.65
 20
99.4784
 10
1569.75
 20
99
 10
1569.65
 20
98.5216
 10
1569.38
 20
98.1161
 10
1568.98
 20
97.8451
 10
1568.5
 20
97.75
 10
1568.02
 20
97.8451
 10
1567.62
 20
98.1161
 10
1567.35
 20
98.5216
  0
LWPOLYLINE
100
AcDbEntity
  8
0
100
AcDbPolyline
 90
16
 70
1
 10
1567.25
 20
115
 10
1567.35
 20
115.478
 10
1567.62
 20
115.884
 10
1568.02
 20
116.155
 10
1568.5
 20
116.25
 10
1568.98
 20
116.155
 10
1569.38
 20
115.884
 10
1569.65
 20
115.478
 10
1569.75
 20
115
 10
1569.65
 20
114.522
 10
1569.38
 20
114.116
 10
1568.98
 20
113.845
 10
1568.5
 20
113.75
 10
1568.02
 20
113.845
 10
1567.62
 20
114.116
 10
1567.35
 20
114.522
  0
LWPOLYLINE
100
AcDbEntity
  8
0
100
AcDbPolyline
 90
16
 70
1
 10
1777.25
 20
6.5
 10
1777.35
 20
6.97835
 10
1777.62
 20
7.38388
 10
1778.02
 20
7.65485
 10
1778.5
 20
7.75
 10
1778.98
 20
7.65485
 10
1779.38
 20
7.38388
 10
1779.65
 20
6.97835
 10
1779.75
 20
6.5
 10
1779.65
 20
6.02165
 10
1779.38
 20
5.61612
 10
1778.98
 20
5.34515
 10
1778.5
 20
5.25
 10
1778.02
 20
5.34515
 10
1777.62
 20
5.61612
 10
1777.35
 20
6.02165
  0
LWPOLYLINE
100
AcDbEntity
  8
0
100
AcDbPolyline
 90
16
 70
1
 10
1777.25
 20
35
 10
1777.35
 20
35.4784
 10
1777.62
 20
35.8839
 10
1778.02
 20
36.1548
 10
1778.5
 20
36.25
 10
1778.98
 20
36.1548
 10
1779.38
 20
35.8839
 10
1779.65
 20
35.4784
 10
1779.75
 20
35
 10
1779.65
 20
34.5216
 10
1779.38
 20
34.1161
 10
1778.98
 20
33.8451
 10
1778.5
 20
33.75
 10
1778.02
 20
33.8451
 10
1777.62
 20
34.1161
 10
1777.35
 20
34.5216
  0
LWPOLYLINE
100
AcDbEntity
  8
0
100
AcDbPolyline
 90
16
 70
1
 10
1777.25
 20
51
 10
1777.35
 20
51.4784
 10
1777.62
 20
51.8839
 10
1778.02
 20
52.1548
 10
1778.5
 20
52.25
 10
1778.98
 20
52.1548
 10
1779.38
 20
51.8839
 10
1779.65
 20
51.4784
 10
1779.75
 20
51
 10
1779.65
 20
50.5216
 10
1779.38
 20
50.1161
 10
1778.98
 20
49.8451
 10
1778.5
 20
49.75
 10
1778.02
 20
49.8451
 10
1777.62
 20
50.1161
 10
1777.35
 20
50.5216
  0
LWPOLYLINE
100
AcDbEntity
  8
0
100
AcDbPolyline
 90
16
 70
1
 10
1777.25
 20
76
 10
1777.35
 20
76.4784
 10
1777.62
 20
76.8839
 10
1778.02
 20
77.1548
 10
1778.5
 20
77.25
 10
1778.98
 20
77.1548
 10
1779.38
 20
76.8839
 10
1779.65
 20
76.4784
 10
1779.75
 20
76
 10
1779.65
 20
75.5216
 10
1779.38
 20
75.1161
 10
1778.98
 20
74.8451
 10
1778.5
 20
74.75
 10
1778.02
 20
74.8451
 10
1777.62
 20
75.1161
 10
1777.35
 20
75.5216
  0
LWPOLYLINE
100
AcDbEntity
  8
0
100
AcDbPolyline
 90
16
 70
1
 10
1777.25
 20
99
 10
1777.35
 20
99.4784
 10
1777.62
 20
99.8839
 10
1778.02
 20
100.155
 10
1778.5
 20
100.25
 10
1778.98
 20
100.155
 10
1779.38
 20
99.8839
 10
1779.65
 20
99.4784
 10
1779.75
 20
99
 10
1779.65
 20
98.5216
 10
1779.38
 20
98.1161
 10
1778.98
 20
97.8451
 10
1778.5
 20
97.75
 10
1778.02
 20
97.8451
 10
1777.62
 20
98.1161
 10
1777.35
 20
98.5216
  0
LWPOLYLINE
100
AcDbEntity
  8
0
100
AcDbPolyline
 90
16
 70
1
 10
1777.25
 20
115
 10
1777.35
 20
115.478
 10
1777.62
 20
115.884
 10
1778.02
 20
116.155
 10
1778.5
 20
116.25
 10
1778.98
 20
116.155
 10
1779.38
 20
115.884
 10
1779.65
 20
115.478
 10
1779.75
 20
115
 10
1779.65
 20
114.522
 10
1779.38
 20
114.116
 10
1778.98
 20
113.845
 10
1778.5
 20
113.75
 10
1778.02
 20
113.845
 10
1777.62
 20
114.116
 10
1777.35
 20
114.522
  0
LWPOLYLINE
100
AcDbEntity
  8
0
100
AcDbPolyline
 90
16
 70
1
 10
1987.25
 20
6.5
 10
1987.35
 20
6.97835
 10
1987.62
 20
7.38388
 10
1988.02
 20
7.65485
 10
1988.5
 20
7.75
 10
1988.98
 20
7.65485
 10
1989.38
 20
7.38388
 10
1989.65
 20
6.97835
 10
1989.75
 20
6.5
 10
1989.65
 20
6.02165
 10
1989.38
 20
5.61612
 10
1988.98
 20
5.34515
 10
1988.5
 20
5.25
 10
1988.02
 20
5.34515
 10
1987.62
 20
5.61612
 10
1987.35
 20
6.02165
  0
LWPOLYLINE
100
AcDbEntity
  8
0
100
AcDbPolyline
 90
16
 70
1
 10
1987.25
 20
35
 10
1987.35
 20
35.4784
 10
1987.62
 20
35.8839
 10
1988.02
 20
36.1548
 10
1988.5
 20
36.25
 10
1988.98
 20
36.1548
 10
1989.38
 20
35.8839
 10
1989.65
 20
35.4784
 10
1989.75
 20
35
 10
1989.65
 20
34.5216
 10
1989.38
 20
34.1161
 10
1988.98
 20
33.8451
 10
1988.5
 20
33.75
 10
1988.02
 20
33.8451
 10
1987.62
 20
34.1161
 10
1987.35
 20
34.5216
  0
LWPOLYLINE
100
AcDbEntity
  8
0
100
AcDbPolyline
 90
16
 70
1
 10
1987.25
 20
51
 10
1987.35
 20
51.4784
 10
1987.62
 20
51.8839
 10
1988.02
 20
52.1548
 10
1988.5
 20
52.25
 10
1988.98
 20
52.1548
 10
1989.38
 20
51.8839
 10
1989.65
 20
51.4784
 10
1989.75
 20
51
 10
1989.65
 20
50.5216
 10
1989.38
 20
50.1161
 10
1988.98
 20
49.8451
 10
1988.5
 20
49.75
 10
1988.02
 20
49.8451
 10
1987.62
 20
50.1161
 10
1987.35
 20
50.5216
  0
LWPOLYLINE
100
AcDbEntity
  8
0
100
AcDbPolyline
 90
16
 70
1
 10
1987.25
 20
76
 10
1987.35
 20
76.4784
 10
1987.62
 20
76.8839
 10
1988.02
 20
77.1548
 10
1988.5
 20
77.25
 10
1988.98
 20
77.1548
 10
1989.38
 20
76.8839
 10
1989.65
 20
76.4784
 10
1989.75
 20
76
 10
1989.65
 20
75.5216
 10
1989.38
 20
75.1161
 10
1988.98
 20
74.8451
 10
1988.5
 20
74.75
 10
1988.02
 20
74.8451
 10
1987.62
 20
75.1161
 10
1987.35
 20
75.5216
  0
LWPOLYLINE
100
AcDbEntity
  8
0
100
AcDbPolyline
 90
16
 70
1
 10
1987.25
 20
99
 10
1987.35
 20
99.4784
 10
1987.62
 20
99.8839
 10
1988.02
 20
100.155
 10
1988.5
 20
100.25
 10
1988.98
 20
100.155
 10
1989.38
 20
99.8839
 10
1989.65
 20
99.4784
 10
1989.75
 20
99
 10
1989.65
 20
98.5216
 10
1989.38
 20
98.1161
 10
1988.98
 20
97.8451
 10
1988.5
 20
97.75
 10
1988.02
 20
97.8451
 10
1987.62
 20
98.1161
 10
1987.35
 20
98.5216
  0
LWPOLYLINE
100
AcDbEntity
  8
0
100
AcDbPolyline
 90
16
 70
1
 10
1987.25
 20
115
 10
1987.35
 20
115.478
 10
1987.62
 20
115.884
 10
1988.02
 20
116.155
 10
1988.5
 20
116.25
 10
1988.98
 20
116.155
 10
1989.38
 20
115.884
 10
1989.65
 20
115.478
 10
1989.75
 20
115
 10
1989.65
 20
114.522
 10
1989.38
 20
114.116
 10
1988.98
 20
113.845
 10
1988.5
 20
113.75
 10
1988.02
 20
113.845
 10
1987.62
 20
114.116
 10
1987.35
 20
114.522
  0
LWPOLYLINE
100
AcDbEntity
  8
0
100
AcDbPolyline
 90
16
 70
1
 10
2197.25
 20
6.5
 10
2197.35
 20
6.97835
 10
2197.62
 20
7.38388
 10
2198.02
 20
7.65485
 10
2198.5
 20
7.75
 10
2198.98
 20
7.65485
 10
2199.38
 20
7.38388
 10
2199.65
 20
6.97835
 10
2199.75
 20
6.5
 10
2199.65
 20
6.02165
 10
2199.38
 20
5.61612
 10
2198.98
 20
5.34515
 10
2198.5
 20
5.25
 10
2198.02
 20
5.34515
 10
2197.62
 20
5.61612
 10
2197.35
 20
6.02165
  0
LWPOLYLINE
100
AcDbEntity
  8
0
100
AcDbPolyline
 90
16
 70
1
 10
2197.25
 20
35
 10
2197.35
 20
35.4784
 10
2197.62
 20
35.8839
 10
2198.02
 20
36.1548
 10
2198.5
 20
36.25
 10
2198.98
 20
36.1548
 10
2199.38
 20
35.8839
 10
2199.65
 20
35.4784
 10
2199.75
 20
35
 10
2199.65
 20
34.5216
 10
2199.38
 20
34.1161
 10
2198.98
 20
33.8451
 10
2198.5
 20
33.75
 10
2198.02
 20
33.8451
 10
2197.62
 20
34.1161
 10
2197.35
 20
34.5216
  0
LWPOLYLINE
100
AcDbEntity
  8
0
100
AcDbPolyline
 90
16
 70
1
 10
2197.25
 20
51
 10
2197.35
 20
51.4784
 10
2197.62
 20
51.8839
 10
2198.02
 20
52.1548
 10
2198.5
 20
52.25
 10
2198.98
 20
52.1548
 10
2199.38
 20
51.8839
 10
2199.65
 20
51.4784
 10
2199.75
 20
51
 10
2199.65
 20
50.5216
 10
2199.38
 20
50.1161
 10
2198.98
 20
49.8451
 10
2198.5
 20
49.75
 10
2198.02
 20
49.8451
 10
2197.62
 20
50.1161
 10
2197.35
 20
50.5216
  0
LWPOLYLINE
100
AcDbEntity
  8
0
100
AcDbPolyline
 90
16
 70
1
 10
2197.25
 20
76
 10
2197.35
 20
76.4784
 10
2197.62
 20
76.8839
 10
2198.02
 20
77.1548
 10
2198.5
 20
77.25
 10
2198.98
 20
77.1548
 10
2199.38
 20
76.8839
 10
2199.65
 20
76.4784
 10
2199.75
 20
76
 10
2199.65
 20
75.5216
 10
2199.38
 20
75.1161
 10
2198.98
 20
74.8451
 10
2198.5
 20
74.75
 10
2198.02
 20
74.8451
 10
2197.62
 20
75.1161
 10
2197.35
 20
75.5216
  0
LWPOLYLINE
100
AcDbEntity
  8
0
100
AcDbPolyline
 90
16
 70
1
 10
2197.25
 20
99
 10
2197.35
 20
99.4784
 10
2197.62
 20
99.8839
 10
2198.02
 20
100.155
 10
2198.5
 20
100.25
 10
2198.98
 20
100.155
 10
2199.38
 20
99.8839
 10
2199.65
 20
99.4784
 10
2199.75
 20
99
 10
2199.65
 20
98.5216
 10
2199.38
 20
98.1161
 10
2198.98
 20
97.8451
 10
2198.5
 20
97.75
 10
2198.02
 20
97.8451
 10
2197.62
 20
98.1161
 10
2197.35
 20
98.5216
  0
LWPOLYLINE
100
AcDbEntity
  8
0
100
AcDbPolyline
 90
16
 70
1
 10
2197.25
 20
115
 10
2197.35
 20
115.478
 10
2197.62
 20
115.884
 10
2198.02
 20
116.155
 10
2198.5
 20
116.25
 10
2198.98
 20
116.155
 10
2199.38
 20
115.884
 10
2199.65
 20
115.478
 10
2199.75
 20
115
 10
2199.65
 20
114.522
 10
2199.38
 20
114.116
 10
2198.98
 20
113.845
 10
2198.5
 20
113.75
 10
2198.02
 20
113.845
 10
2197.62
 20
114.116
 10
2197.35
 20
114.522
  0
LWPOLYLINE
100
AcDbEntity
  8
0
100
AcDbPolyline
 90
16
 70
1
 10
2288.5
 20
50
 10
2288.65
 20
50.7654
 10
2289.09
 20
51.4142
 10
2289.73
 20
51.8478
 10
2290.5
 20
52
 10
2291.27
 20
51.8478
 10
2291.91
 20
51.4142
 10
2292.35
 20
50.7654
 10
2292.5
 20
50
 10
2292.35
 20
49.2346
 10
2291.91
 20
48.5858
 10
2291.27
 20
48.1522
 10
2290.5
 20
48
 10
2289.73
 20
48.1522
 10
2289.09
 20
48.5858
 10
2288.65
 20
49.2346
  0
LWPOLYLINE
100
AcDbEntity
  8
0
100
AcDbPolyline
 90
16
 70
1
 10
2288.5
 20
180
 10
2288.65
 20
180.765
 10
2289.09
 20
181.414
 10
2289.73
 20
181.848
 10
2290.5
 20
182
 10
2291.27
 20
181.848
 10
2291.91
 20
181.414
 10
2292.35
 20
180.765
 10
2292.5
 20
180
 10
2292.35
 20
179.235
 10
2291.91
 20
178.586
 10
2291.27
 20
178.152
 10
2290.5
 20
178
 10
2289.73
 20
178.152
 10
2289.09
 20
178.586
 10
2288.65
 20
179.235
  0
ENDSEC
  0
EOF
