  0
SECTION
  2
BLOCKS
  0
ENDSEC
  0
SECTION
  2
ENTITIES
  0
LINE
  8
0
 10
0
 20
0
 11
2300
 21
0
  0
LINE
  8
0
 10
2300
 20
0
 11
2300
 21
230
  0
LINE
  8
0
 10
2300
 20
230
 11
0
 21
230
  0
LINE
  8
0
 10
0
 20
230
 11
0
 21
0
  0
LINE
  8
0
 10
7.5
 20
50
 11
7.65224
 21
50.7654
  0
LINE
  8
0
 10
7.65224
 20
50.7654
 11
8.08579
 21
51.4142
  0
LINE
  8
0
 10
8.08579
 20
51.4142
 11
8.73463
 21
51.8478
  0
LINE
  8
0
 10
8.73463
 20
51.8478
 11
9.5
 21
52
  0
LINE
  8
0
 10
9.5
 20
52
 11
10.2654
 21
51.8478
  0
LINE
  8
0
 10
10.2654
 20
51.8478
 11
10.9142
 21
51.4142
  0
LINE
  8
0
 10
10.9142
 20
51.4142
 11
11.3478
 21
50.7654
  0
LINE
  8
0
 10
11.3478
 20
50.7654
 11
11.5
 21
50
  0
LINE
  8
0
 10
11.5
 20
50
 11
11.3478
 21
49.2346
  0
LINE
  8
0
 10
11.3478
 20
49.2346
 11
10.9142
 21
48.5858
  0
LINE
  8
0
 10
10.9142
 20
48.5858
 11
10.2654
 21
48.1522
  0
LINE
  8
0
 10
10.2654
 20
48.1522
 11
9.5
 21
48
  0
LINE
  8
0
 10
9.5
 20
48
 11
8.73463
 21
48.1522
  0
LINE
  8
0
 10
8.73463
 20
48.1522
 11
8.08579
 21
48.5858
  0
LINE
  8
0
 10
8.08579
 20
48.5858
 11
7.65224
 21
49.2346
  0
LINE
  8
0
 10
7.65224
 20
49.2346
 11
7.5
 21
50
  0
LINE
  8
0
 10
7.5
 20
180
 11
7.65224
 21
180.765
  0
LINE
  8
0
 10
7.65224
 20
180.765
 11
8.08579
 21
181.414
  0
LINE
  8
0
 10
8.08579
 20
181.414
 11
8.73463
 21
181.848
  0
LINE
  8
0
 10
8.73463
 20
181.848
 11
9.5
 21
182
  0
LINE
  8
0
 10
9.5
 20
182
 11
10.2654
 21
181.848
  0
LINE
  8
0
 10
10.2654
 20
181.848
 11
10.9142
 21
181.414
  0
LINE
  8
0
 10
10.9142
 20
181.414
 11
11.3478
 21
180.765
  0
LINE
  8
0
 10
11.3478
 20
180.765
 11
11.5
 21
180
  0
LINE
  8
0
 10
11.5
 20
180
 11
11.3478
 21
179.235
  0
LINE
  8
0
 10
11.3478
 20
179.235
 11
10.9142
 21
178.586
  0
LINE
  8
0
 10
10.9142
 20
178.586
 11
10.2654
 21
178.152
  0
LINE
  8
0
 10
10.2654
 20
178.152
 11
9.5
 21
178
  0
LINE
  8
0
 10
9.5
 20
178
 11
8.73463
 21
178.152
  0
LINE
  8
0
 10
8.73463
 20
178.152
 11
8.08579
 21
178.586
  0
LINE
  8
0
 10
8.08579
 20
178.586
 11
7.65224
 21
179.235
  0
LINE
  8
0
 10
7.65224
 20
179.235
 11
7.5
 21
180
  0
LINE
  8
0
 10
1296.5
 20
50
 11
1296.65
 21
50.7654
  0
LINE
  8
0
 10
1296.65
 20
50.7654
 11
1297.09
 21
51.4142
  0
LINE
  8
0
 10
1297.09
 20
51.4142
 11
1297.73
 21
51.8478
  0
LINE
  8
0
 10
1297.73
 20
51.8478
 11
1298.5
 21
52
  0
LINE
  8
0
 10
1298.5
 20
52
 11
1299.27
 21
51.8478
  0
LINE
  8
0
 10
1299.27
 20
51.8478
 11
1299.91
 21
51.4142
  0
LINE
  8
0
 10
1299.91
 20
51.4142
 11
1300.35
 21
50.7654
  0
LINE
  8
0
 10
1300.35
 20
50.7654
 11
1300.5
 21
50
  0
LINE
  8
0
 10
1300.5
 20
50
 11
1300.35
 21
49.2346
  0
LINE
  8
0
 10
1300.35
 20
49.2346
 11
1299.91
 21
48.5858
  0
LINE
  8
0
 10
1299.91
 20
48.5858
 11
1299.27
 21
48.1522
  0
LINE
  8
0
 10
1299.27
 20
48.1522
 11
1298.5
 21
48
  0
LINE
  8
0
 10
1298.5
 20
48
 11
1297.73
 21
48.1522
  0
LINE
  8
0
 10
1297.73
 20
48.1522
 11
1297.09
 21
48.5858
  0
LINE
  8
0
 10
1297.09
 20
48.5858
 11
1296.65
 21
49.2346
  0
LINE
  8
0
 10
1296.65
 20
49.2346
 11
1296.5
 21
50
  0
LINE
  8
0
 10
1296.5
 20
180
 11
1296.65
 21
180.765
  0
LINE
  8
0
 10
1296.65
 20
180.765
 11
1297.09
 21
181.414
  0
LINE
  8
0
 10
1297.09
 20
181.414
 11
1297.73
 21
181.848
  0
LINE
  8
0
 10
1297.73
 20
181.848
 11
1298.5
 21
182
  0
LINE
  8
0
 10
1298.5
 20
182
 11
1299.27
 21
181.848
  0
LINE
  8
0
 10
1299.27
 20
181.848
 11
1299.91
 21
181.414
  0
LINE
  8
0
 10
1299.91
 20
181.414
 11
1300.35
 21
180.765
  0
LINE
  8
0
 10
1300.35
 20
180.765
 11
1300.5
 21
180
  0
LINE
  8
0
 10
1300.5
 20
180
 11
1300.35
 21
179.235
  0
LINE
  8
0
 10
1300.35
 20
179.235
 11
1299.91
 21
178.586
  0
LINE
  8
0
 10
1299.91
 20
178.586
 11
1299.27
 21
178.152
  0
LINE
  8
0
 10
1299.27
 20
178.152
 11
1298.5
 21
178
  0
LINE
  8
0
 10
1298.5
 20
178
 11
1297.73
 21
178.152
  0
LINE
  8
0
 10
1297.73
 20
178.152
 11
1297.09
 21
178.586
  0
LINE
  8
0
 10
1297.09
 20
178.586
 11
1296.65
 21
179.235
  0
LINE
  8
0
 10
1296.65
 20
179.235
 11
1296.5
 21
180
  0
LINE
  8
0
 10
1627.17
 20
50
 11
1627.32
 21
50.7654
  0
LINE
  8
0
 10
1627.32
 20
50.7654
 11
1627.75
 21
51.4142
  0
LINE
  8
0
 10
1627.75
 20
51.4142
 11
1628.4
 21
51.8478
  0
LINE
  8
0
 10
1628.4
 20
51.8478
 11
1629.17
 21
52
  0
LINE
  8
0
 10
1629.17
 20
52
 11
1629.93
 21
51.8478
  0
LINE
  8
0
 10
1629.93
 20
51.8478
 11
1630.58
 21
51.4142
  0
LINE
  8
0
 10
1630.58
 20
51.4142
 11
1631.01
 21
50.7654
  0
LINE
  8
0
 10
1631.01
 20
50.7654
 11
1631.17
 21
50
  0
LINE
  8
0
 10
1631.17
 20
50
 11
1631.01
 21
49.2346
  0
LINE
  8
0
 10
1631.01
 20
49.2346
 11
1630.58
 21
48.5858
  0
LINE
  8
0
 10
1630.58
 20
48.5858
 11
1629.93
 21
48.1522
  0
LINE
  8
0
 10
1629.93
 20
48.1522
 11
1629.17
 21
48
  0
LINE
  8
0
 10
1629.17
 20
48
 11
1628.4
 21
48.1522
  0
LINE
  8
0
 10
1628.4
 20
48.1522
 11
1627.75
 21
48.5858
  0
LINE
  8
0
 10
1627.75
 20
48.5858
 11
1627.32
 21
49.2346
  0
LINE
  8
0
 10
1627.32
 20
49.2346
 11
1627.17
 21
50
  0
LINE
  8
0
 10
1627.17
 20
180
 11
1627.32
 21
180.765
  0
LINE
  8
0
 10
1627.32
 20
180.765
 11
1627.75
 21
181.414
  0
LINE
  8
0
 10
1627.75
 20
181.414
 11
1628.4
 21
181.848
  0
LINE
  8
0
 10
1628.4
 20
181.848
 11
1629.17
 21
182
  0
LINE
  8
0
 10
1629.17
 20
182
 11
1629.93
 21
181.848
  0
LINE
  8
0
 10
1629.93
 20
181.848
 11
1630.58
 21
181.414
  0
LINE
  8
0
 10
1630.58
 20
181.414
 11
1631.01
 21
180.765
  0
LINE
  8
0
 10
1631.01
 20
180.765
 11
1631.17
 21
180
  0
LINE
  8
0
 10
1631.17
 20
180
 11
1631.01
 21
179.235
  0
LINE
  8
0
 10
1631.01
 20
179.235
 11
1630.58
 21
178.586
  0
LINE
  8
0
 10
1630.58
 20
178.586
 11
1629.93
 21
178.152
  0
LINE
  8
0
 10
1629.93
 20
178.152
 11
1629.17
 21
178
  0
LINE
  8
0
 10
1629.17
 20
178
 11
1628.4
 21
178.152
  0
LINE
  8
0
 10
1628.4
 20
178.152
 11
1627.75
 21
178.586
  0
LINE
  8
0
 10
1627.75
 20
178.586
 11
1627.32
 21
179.235
  0
LINE
  8
0
 10
1627.32
 20
179.235
 11
1627.17
 21
180
  0
LINE
  8
0
 10
1957.83
 20
50
 11
1957.99
 21
50.7654
  0
LINE
  8
0
 10
1957.99
 20
50.7654
 11
1958.42
 21
51.4142
  0
LINE
  8
0
 10
1958.42
 20
51.4142
 11
1959.07
 21
51.8478
  0
LINE
  8
0
 10
1959.07
 20
51.8478
 11
1959.83
 21
52
  0
LINE
  8
0
 10
1959.83
 20
52
 11
1960.6
 21
51.8478
  0
LINE
  8
0
 10
1960.6
 20
51.8478
 11
1961.25
 21
51.4142
  0
LINE
  8
0
 10
1961.25
 20
51.4142
 11
1961.68
 21
50.7654
  0
LINE
  8
0
 10
1961.68
 20
50.7654
 11
1961.83
 21
50
  0
LINE
  8
0
 10
1961.83
 20
50
 11
1961.68
 21
49.2346
  0
LINE
  8
0
 10
1961.68
 20
49.2346
 11
1961.25
 21
48.5858
  0
LINE
  8
0
 10
1961.25
 20
48.5858
 11
1960.6
 21
48.1522
  0
LINE
  8
0
 10
1960.6
 20
48.1522
 11
1959.83
 21
48
  0
LINE
  8
0
 10
1959.83
 20
48
 11
1959.07
 21
48.1522
  0
LINE
  8
0
 10
1959.07
 20
48.1522
 11
1958.42
 21
48.5858
  0
LINE
  8
0
 10
1958.42
 20
48.5858
 11
1957.99
 21
49.2346
  0
LINE
  8
0
 10
1957.99
 20
49.2346
 11
1957.83
 21
50
  0
LINE
  8
0
 10
1957.83
 20
180
 11
1957.99
 21
180.765
  0
LINE
  8
0
 10
1957.99
 20
180.765
 11
1958.42
 21
181.414
  0
LINE
  8
0
 10
1958.42
 20
181.414
 11
1959.07
 21
181.848
  0
LINE
  8
0
 10
1959.07
 20
181.848
 11
1959.83
 21
182
  0
LINE
  8
0
 10
1959.83
 20
182
 11
1960.6
 21
181.848
  0
LINE
  8
0
 10
1960.6
 20
181.848
 11
1961.25
 21
181.414
  0
LINE
  8
0
 10
1961.25
 20
181.414
 11
1961.68
 21
180.765
  0
LINE
  8
0
 10
1961.68
 20
180.765
 11
1961.83
 21
180
  0
LINE
  8
0
 10
1961.83
 20
180
 11
1961.68
 21
179.235
  0
LINE
  8
0
 10
1961.68
 20
179.235
 11
1961.25
 21
178.586
  0
LINE
  8
0
 10
1961.25
 20
178.586
 11
1960.6
 21
178.152
  0
LINE
  8
0
 10
1960.6
 20
178.152
 11
1959.83
 21
178
  0
LINE
  8
0
 10
1959.83
 20
178
 11
1959.07
 21
178.152
  0
LINE
  8
0
 10
1959.07
 20
178.152
 11
1958.42
 21
178.586
  0
LINE
  8
0
 10
1958.42
 20
178.586
 11
1957.99
 21
179.235
  0
LINE
  8
0
 10
1957.99
 20
179.235
 11
1957.83
 21
180
  0
LINE
  8
0
 10
2288.5
 20
50
 11
2288.65
 21
50.7654
  0
LINE
  8
0
 10
2288.65
 20
50.7654
 11
2289.09
 21
51.4142
  0
LINE
  8
0
 10
2289.09
 20
51.4142
 11
2289.73
 21
51.8478
  0
LINE
  8
0
 10
2289.73
 20
51.8478
 11
2290.5
 21
52
  0
LINE
  8
0
 10
2290.5
 20
52
 11
2291.27
 21
51.8478
  0
LINE
  8
0
 10
2291.27
 20
51.8478
 11
2291.91
 21
51.4142
  0
LINE
  8
0
 10
2291.91
 20
51.4142
 11
2292.35
 21
50.7654
  0
LINE
  8
0
 10
2292.35
 20
50.7654
 11
2292.5
 21
50
  0
LINE
  8
0
 10
2292.5
 20
50
 11
2292.35
 21
49.2346
  0
LINE
  8
0
 10
2292.35
 20
49.2346
 11
2291.91
 21
48.5858
  0
LINE
  8
0
 10
2291.91
 20
48.5858
 11
2291.27
 21
48.1522
  0
LINE
  8
0
 10
2291.27
 20
48.1522
 11
2290.5
 21
48
  0
LINE
  8
0
 10
2290.5
 20
48
 11
2289.73
 21
48.1522
  0
LINE
  8
0
 10
2289.73
 20
48.1522
 11
2289.09
 21
48.5858
  0
LINE
  8
0
 10
2289.09
 20
48.5858
 11
2288.65
 21
49.2346
  0
LINE
  8
0
 10
2288.65
 20
49.2346
 11
2288.5
 21
50
  0
LINE
  8
0
 10
2288.5
 20
180
 11
2288.65
 21
180.765
  0
LINE
  8
0
 10
2288.65
 20
180.765
 11
2289.09
 21
181.414
  0
LINE
  8
0
 10
2289.09
 20
181.414
 11
2289.73
 21
181.848
  0
LINE
  8
0
 10
2289.73
 20
181.848
 11
2290.5
 21
182
  0
LINE
  8
0
 10
2290.5
 20
182
 11
2291.27
 21
181.848
  0
LINE
  8
0
 10
2291.27
 20
181.848
 11
2291.91
 21
181.414
  0
LINE
  8
0
 10
2291.91
 20
181.414
 11
2292.35
 21
180.765
  0
LINE
  8
0
 10
2292.35
 20
180.765
 11
2292.5
 21
180
  0
LINE
  8
0
 10
2292.5
 20
180
 11
2292.35
 21
179.235
  0
LINE
  8
0
 10
2292.35
 20
179.235
 11
2291.91
 21
178.586
  0
LINE
  8
0
 10
2291.91
 20
178.586
 11
2291.27
 21
178.152
  0
LINE
  8
0
 10
2291.27
 20
178.152
 11
2290.5
 21
178
  0
LINE
  8
0
 10
2290.5
 20
178
 11
2289.73
 21
178.152
  0
LINE
  8
0
 10
2289.73
 20
178.152
 11
2289.09
 21
178.586
  0
LINE
  8
0
 10
2289.09
 20
178.586
 11
2288.65
 21
179.235
  0
LINE
  8
0
 10
2288.65
 20
179.235
 11
2288.5
 21
180
  0
ENDSEC
  0
SECTION
  2
OBJECTS
  0
DICTIONARY
  0
ENDSEC
  0
EOF
