  0
SECTION
  2
BLOCKS
  0
ENDSEC
  0
SECTION
  2
ENTITIES
  0
LINE
  8
0
 10
0
 20
0
 11
200
 21
0
  0
LINE
  8
0
 10
200
 20
0
 11
200
 21
225
  0
LINE
  8
0
 10
200
 20
225
 11
0
 21
225
  0
LINE
  8
0
 10
0
 20
225
 11
0
 21
0
  0
LINE
  8
0
 10
4
 20
50
 11
4.15224
 21
50.7654
  0
LINE
  8
0
 10
4.15224
 20
50.7654
 11
4.58579
 21
51.4142
  0
LINE
  8
0
 10
4.58579
 20
51.4142
 11
5.23463
 21
51.8478
  0
LINE
  8
0
 10
5.23463
 20
51.8478
 11
6
 21
52
  0
LINE
  8
0
 10
6
 20
52
 11
6.76537
 21
51.8478
  0
LINE
  8
0
 10
6.76537
 20
51.8478
 11
7.41421
 21
51.4142
  0
LINE
  8
0
 10
7.41421
 20
51.4142
 11
7.84776
 21
50.7654
  0
LINE
  8
0
 10
7.84776
 20
50.7654
 11
8
 21
50
  0
LINE
  8
0
 10
8
 20
50
 11
7.84776
 21
49.2346
  0
LINE
  8
0
 10
7.84776
 20
49.2346
 11
7.41421
 21
48.5858
  0
LINE
  8
0
 10
7.41421
 20
48.5858
 11
6.76537
 21
48.1522
  0
LINE
  8
0
 10
6.76537
 20
48.1522
 11
6
 21
48
  0
LINE
  8
0
 10
6
 20
48
 11
5.23463
 21
48.1522
  0
LINE
  8
0
 10
5.23463
 20
48.1522
 11
4.58579
 21
48.5858
  0
LINE
  8
0
 10
4.58579
 20
48.5858
 11
4.15224
 21
49.2346
  0
LINE
  8
0
 10
4.15224
 20
49.2346
 11
4
 21
50
  0
LINE
  8
0
 10
4
 20
163
 11
4.15224
 21
163.765
  0
LINE
  8
0
 10
4.15224
 20
163.765
 11
4.58579
 21
164.414
  0
LINE
  8
0
 10
4.58579
 20
164.414
 11
5.23463
 21
164.848
  0
LINE
  8
0
 10
5.23463
 20
164.848
 11
6
 21
165
  0
LINE
  8
0
 10
6
 20
165
 11
6.76537
 21
164.848
  0
LINE
  8
0
 10
6.76537
 20
164.848
 11
7.41421
 21
164.414
  0
LINE
  8
0
 10
7.41421
 20
164.414
 11
7.84776
 21
163.765
  0
LINE
  8
0
 10
7.84776
 20
163.765
 11
8
 21
163
  0
LINE
  8
0
 10
8
 20
163
 11
7.84776
 21
162.235
  0
LINE
  8
0
 10
7.84776
 20
162.235
 11
7.41421
 21
161.586
  0
LINE
  8
0
 10
7.41421
 20
161.586
 11
6.76537
 21
161.152
  0
LINE
  8
0
 10
6.76537
 20
161.152
 11
6
 21
161
  0
LINE
  8
0
 10
6
 20
161
 11
5.23463
 21
161.152
  0
LINE
  8
0
 10
5.23463
 20
161.152
 11
4.58579
 21
161.586
  0
LINE
  8
0
 10
4.58579
 20
161.586
 11
4.15224
 21
162.235
  0
LINE
  8
0
 10
4.15224
 20
162.235
 11
4
 21
163
  0
LINE
  8
0
 10
48
 20
219
 11
48.1522
 21
219.765
  0
LINE
  8
0
 10
48.1522
 20
219.765
 11
48.5858
 21
220.414
  0
LINE
  8
0
 10
48.5858
 20
220.414
 11
49.2346
 21
220.848
  0
LINE
  8
0
 10
49.2346
 20
220.848
 11
50
 21
221
  0
LINE
  8
0
 10
50
 20
221
 11
50.7654
 21
220.848
  0
LINE
  8
0
 10
50.7654
 20
220.848
 11
51.4142
 21
220.414
  0
LINE
  8
0
 10
51.4142
 20
220.414
 11
51.8478
 21
219.765
  0
LINE
  8
0
 10
51.8478
 20
219.765
 11
52
 21
219
  0
LINE
  8
0
 10
52
 20
219
 11
51.8478
 21
218.235
  0
LINE
  8
0
 10
51.8478
 20
218.235
 11
51.4142
 21
217.586
  0
LINE
  8
0
 10
51.4142
 20
217.586
 11
50.7654
 21
217.152
  0
LINE
  8
0
 10
50.7654
 20
217.152
 11
50
 21
217
  0
LINE
  8
0
 10
50
 20
217
 11
49.2346
 21
217.152
  0
LINE
  8
0
 10
49.2346
 20
217.152
 11
48.5858
 21
217.586
  0
LINE
  8
0
 10
48.5858
 20
217.586
 11
48.1522
 21
218.235
  0
LINE
  8
0
 10
48.1522
 20
218.235
 11
48
 21
219
  0
LINE
  8
0
 10
71.25
 20
35
 11
71.3451
 21
35.4784
  0
LINE
  8
0
 10
71.3451
 20
35.4784
 11
71.6161
 21
35.8839
  0
LINE
  8
0
 10
71.6161
 20
35.8839
 11
72.0216
 21
36.1548
  0
LINE
  8
0
 10
72.0216
 20
36.1548
 11
72.5
 21
36.25
  0
LINE
  8
0
 10
72.5
 20
36.25
 11
72.9784
 21
36.1548
  0
LINE
  8
0
 10
72.9784
 20
36.1548
 11
73.3839
 21
35.8839
  0
LINE
  8
0
 10
73.3839
 20
35.8839
 11
73.6548
 21
35.4784
  0
LINE
  8
0
 10
73.6548
 20
35.4784
 11
73.75
 21
35
  0
LINE
  8
0
 10
73.75
 20
35
 11
73.6548
 21
34.5216
  0
LINE
  8
0
 10
73.6548
 20
34.5216
 11
73.3839
 21
34.1161
  0
LINE
  8
0
 10
73.3839
 20
34.1161
 11
72.9784
 21
33.8451
  0
LINE
  8
0
 10
72.9784
 20
33.8451
 11
72.5
 21
33.75
  0
LINE
  8
0
 10
72.5
 20
33.75
 11
72.0216
 21
33.8451
  0
LINE
  8
0
 10
72.0216
 20
33.8451
 11
71.6161
 21
34.1161
  0
LINE
  8
0
 10
71.6161
 20
34.1161
 11
71.3451
 21
34.5216
  0
LINE
  8
0
 10
71.3451
 20
34.5216
 11
71.25
 21
35
  0
LINE
  8
0
 10
71.25
 20
163
 11
71.3451
 21
163.478
  0
LINE
  8
0
 10
71.3451
 20
163.478
 11
71.6161
 21
163.884
  0
LINE
  8
0
 10
71.6161
 20
163.884
 11
72.0216
 21
164.155
  0
LINE
  8
0
 10
72.0216
 20
164.155
 11
72.5
 21
164.25
  0
LINE
  8
0
 10
72.5
 20
164.25
 11
72.9784
 21
164.155
  0
LINE
  8
0
 10
72.9784
 20
164.155
 11
73.3839
 21
163.884
  0
LINE
  8
0
 10
73.3839
 20
163.884
 11
73.6548
 21
163.478
  0
LINE
  8
0
 10
73.6548
 20
163.478
 11
73.75
 21
163
  0
LINE
  8
0
 10
73.75
 20
163
 11
73.6548
 21
162.522
  0
LINE
  8
0
 10
73.6548
 20
162.522
 11
73.3839
 21
162.116
  0
LINE
  8
0
 10
73.3839
 20
162.116
 11
72.9784
 21
161.845
  0
LINE
  8
0
 10
72.9784
 20
161.845
 11
72.5
 21
161.75
  0
LINE
  8
0
 10
72.5
 20
161.75
 11
72.0216
 21
161.845
  0
LINE
  8
0
 10
72.0216
 20
161.845
 11
71.6161
 21
162.116
  0
LINE
  8
0
 10
71.6161
 20
162.116
 11
71.3451
 21
162.522
  0
LINE
  8
0
 10
71.3451
 20
162.522
 11
71.25
 21
163
  0
LINE
  8
0
 10
148
 20
219
 11
148.152
 21
219.765
  0
LINE
  8
0
 10
148.152
 20
219.765
 11
148.586
 21
220.414
  0
LINE
  8
0
 10
148.586
 20
220.414
 11
149.235
 21
220.848
  0
LINE
  8
0
 10
149.235
 20
220.848
 11
150
 21
221
  0
LINE
  8
0
 10
150
 20
221
 11
150.765
 21
220.848
  0
LINE
  8
0
 10
150.765
 20
220.848
 11
151.414
 21
220.414
  0
LINE
  8
0
 10
151.414
 20
220.414
 11
151.848
 21
219.765
  0
LINE
  8
0
 10
151.848
 20
219.765
 11
152
 21
219
  0
LINE
  8
0
 10
152
 20
219
 11
151.848
 21
218.235
  0
LINE
  8
0
 10
151.848
 20
218.235
 11
151.414
 21
217.586
  0
LINE
  8
0
 10
151.414
 20
217.586
 11
150.765
 21
217.152
  0
LINE
  8
0
 10
150.765
 20
217.152
 11
150
 21
217
  0
LINE
  8
0
 10
150
 20
217
 11
149.235
 21
217.152
  0
LINE
  8
0
 10
149.235
 20
217.152
 11
148.586
 21
217.586
  0
LINE
  8
0
 10
148.586
 20
217.586
 11
148.152
 21
218.235
  0
LINE
  8
0
 10
148.152
 20
218.235
 11
148
 21
219
  0
ENDSEC
  0
SECTION
  2
OBJECTS
  0
DICTIONARY
  0
ENDSEC
  0
EOF
