999
DXF from OpenSCAD
  0
SECTION
  2
HEADER
  9
$ACADVER
  1
AC1006
  9
$INSBASE
 10
0.0
 20
0.0
 30
0.0
  9
$EXTMIN
 10
0
 20
0
  9
$EXTMAX
 10
797
 20
233
  9
$LINMIN
 10
0
 20
0
  9
$LINMAX
 10
797
 20
233
  0
ENDSEC
  0
SECTION
  2
TABLES
  0
TABLE
  2
LTYPE
 70
1
  0
LTYPE
  2
CONTINUOUS
 70
64
  3
Solid line
 72
65
 73
0
 40
0.000000
  0
ENDTAB
  0
TABLE
  2
LAYER
 70
6
  0
LAYER
  2
0
 70
64
 62
7
  6
CONTINUOUS
  0
ENDTAB
  0
TABLE
  2
STYLE
 70
0
  0
ENDTAB
  0
ENDSEC
  0
SECTION
  2
BLOCKS
  0
ENDSEC
  0
SECTION
  2
ENTITIES
  0
LWPOLYLINE
100
AcDbEntity
  8
0
100
AcDbPolyline
 90
4
 70
1
 10
0
 20
0
 10
797
 20
0
 10
797
 20
233
 10
0
 20
233
  0
LWPOLYLINE
100
AcDbEntity
  8
0
100
AcDbPolyline
 90
16
 70
1
 10
39.5
 20
50
 10
39.7284
 20
51.148
 10
40.3787
 20
52.1213
 10
41.3519
 20
52.7716
 10
42.5
 20
53
 10
43.648
 20
52.7716
 10
44.6213
 20
52.1213
 10
45.2716
 20
51.148
 10
45.5
 20
50
 10
45.2716
 20
48.8519
 10
44.6213
 20
47.8787
 10
43.648
 20
47.2284
 10
42.5
 20
47
 10
41.3519
 20
47.2284
 10
40.3787
 20
47.8787
 10
39.7284
 20
48.8519
  0
LWPOLYLINE
100
AcDbEntity
  8
0
100
AcDbPolyline
 90
16
 70
1
 10
39.5
 20
183
 10
39.7284
 20
184.148
 10
40.3787
 20
185.121
 10
41.3519
 20
185.772
 10
42.5
 20
186
 10
43.648
 20
185.772
 10
44.6213
 20
185.121
 10
45.2716
 20
184.148
 10
45.5
 20
183
 10
45.2716
 20
181.852
 10
44.6213
 20
180.879
 10
43.648
 20
180.228
 10
42.5
 20
180
 10
41.3519
 20
180.228
 10
40.3787
 20
180.879
 10
39.7284
 20
181.852
  0
LWPOLYLINE
100
AcDbEntity
  8
0
100
AcDbPolyline
 90
16
 70
1
 10
89.5
 20
6
 10
89.7284
 20
7.14805
 10
90.3787
 20
8.12132
 10
91.3519
 20
8.77164
 10
92.5
 20
9
 10
93.648
 20
8.77164
 10
94.6213
 20
8.12132
 10
95.2716
 20
7.14805
 10
95.5
 20
6
 10
95.2716
 20
4.85195
 10
94.6213
 20
3.87868
 10
93.648
 20
3.22836
 10
92.5
 20
3
 10
91.3519
 20
3.22836
 10
90.3787
 20
3.87868
 10
89.7284
 20
4.85195
  0
LWPOLYLINE
100
AcDbEntity
  8
0
100
AcDbPolyline
 90
16
 70
1
 10
293.5
 20
6
 10
293.728
 20
7.14805
 10
294.379
 20
8.12132
 10
295.352
 20
8.77164
 10
296.5
 20
9
 10
297.648
 20
8.77164
 10
298.621
 20
8.12132
 10
299.272
 20
7.14805
 10
299.5
 20
6
 10
299.272
 20
4.85195
 10
298.621
 20
3.87868
 10
297.648
 20
3.22836
 10
296.5
 20
3
 10
295.352
 20
3.22836
 10
294.379
 20
3.87868
 10
293.728
 20
4.85195
  0
LWPOLYLINE
100
AcDbEntity
  8
0
100
AcDbPolyline
 90
16
 70
1
 10
316.5
 20
129
 10
316.652
 20
129.765
 10
317.086
 20
130.414
 10
317.735
 20
130.848
 10
318.5
 20
131
 10
319.265
 20
130.848
 10
319.914
 20
130.414
 10
320.348
 20
129.765
 10
320.5
 20
129
 10
320.348
 20
128.235
 10
319.914
 20
127.586
 10
319.265
 20
127.152
 10
318.5
 20
127
 10
317.735
 20
127.152
 10
317.086
 20
127.586
 10
316.652
 20
128.235
  0
LWPOLYLINE
100
AcDbEntity
  8
0
100
AcDbPolyline
 90
16
 70
1
 10
476.5
 20
129
 10
476.652
 20
129.765
 10
477.086
 20
130.414
 10
477.735
 20
130.848
 10
478.5
 20
131
 10
479.265
 20
130.848
 10
479.914
 20
130.414
 10
480.348
 20
129.765
 10
480.5
 20
129
 10
480.348
 20
128.235
 10
479.914
 20
127.586
 10
479.265
 20
127.152
 10
478.5
 20
127
 10
477.735
 20
127.152
 10
477.086
 20
127.586
 10
476.652
 20
128.235
  0
LWPOLYLINE
100
AcDbEntity
  8
0
100
AcDbPolyline
 90
16
 70
1
 10
497.5
 20
6
 10
497.728
 20
7.14805
 10
498.379
 20
8.12132
 10
499.352
 20
8.77164
 10
500.5
 20
9
 10
501.648
 20
8.77164
 10
502.621
 20
8.12132
 10
503.272
 20
7.14805
 10
503.5
 20
6
 10
503.272
 20
4.85195
 10
502.621
 20
3.87868
 10
501.648
 20
3.22836
 10
500.5
 20
3
 10
499.352
 20
3.22836
 10
498.379
 20
3.87868
 10
497.728
 20
4.85195
  0
LWPOLYLINE
100
AcDbEntity
  8
0
100
AcDbPolyline
 90
16
 70
1
 10
701.5
 20
6
 10
701.728
 20
7.14805
 10
702.379
 20
8.12132
 10
703.352
 20
8.77164
 10
704.5
 20
9
 10
705.648
 20
8.77164
 10
706.621
 20
8.12132
 10
707.272
 20
7.14805
 10
707.5
 20
6
 10
707.272
 20
4.85195
 10
706.621
 20
3.87868
 10
705.648
 20
3.22836
 10
704.5
 20
3
 10
703.352
 20
3.22836
 10
702.379
 20
3.87868
 10
701.728
 20
4.85195
  0
LWPOLYLINE
100
AcDbEntity
  8
0
100
AcDbPolyline
 90
16
 70
1
 10
751.5
 20
50
 10
751.728
 20
51.148
 10
752.379
 20
52.1213
 10
753.352
 20
52.7716
 10
754.5
 20
53
 10
755.648
 20
52.7716
 10
756.621
 20
52.1213
 10
757.272
 20
51.148
 10
757.5
 20
50
 10
757.272
 20
48.8519
 10
756.621
 20
47.8787
 10
755.648
 20
47.2284
 10
754.5
 20
47
 10
753.352
 20
47.2284
 10
752.379
 20
47.8787
 10
751.728
 20
48.8519
  0
LWPOLYLINE
100
AcDbEntity
  8
0
100
AcDbPolyline
 90
16
 70
1
 10
751.5
 20
183
 10
751.728
 20
184.148
 10
752.379
 20
185.121
 10
753.352
 20
185.772
 10
754.5
 20
186
 10
755.648
 20
185.772
 10
756.621
 20
185.121
 10
757.272
 20
184.148
 10
757.5
 20
183
 10
757.272
 20
181.852
 10
756.621
 20
180.879
 10
755.648
 20
180.228
 10
754.5
 20
180
 10
753.352
 20
180.228
 10
752.379
 20
180.879
 10
751.728
 20
181.852
  0
ENDSEC
  0
EOF
