  0
SECTION
  2
HEADER
  9
$ACADVER
  1
AC1015
  9
$ACADMAINTVER
 70
6
  9
$DWGCODEPAGE
  3
ANSI_1252
  9
$INSBASE
 10
0.0
 20
0.0
 30
0.0
  9
$EXTMIN
 10
1e+20
 20
1e+20
 30
1e+20
  9
$EXTMAX
 10
-1e+20
 20
-1e+20
 30
-1e+20
  9
$LIMMIN
 10
0.0
 20
0.0
  9
$LIMMAX
 10
420.0
 20
297.0
  9
$ORTHOMODE
 70
0
  9
$REGENMODE
 70
1
  9
$FILLMODE
 70
1
  9
$QTEXTMODE
 70
0
  9
$MIRRTEXT
 70
1
  9
$LTSCALE
 40
1.0
  9
$ATTMODE
 70
1
  9
$TEXTSIZE
 40
2.5
  9
$TRACEWID
 40
1.0
  9
$TEXTSTYLE
  7
Standard
  9
$CLAYER
  8
0
  9
$CELTYPE
  6
ByLayer
  9
$CECOLOR
 62
256
  9
$CELTSCALE
 40
1.0
  9
$DISPSILH
 70
0
  9
$DIMSCALE
 40
1.0
  9
$DIMASZ
 40
2.5
  9
$DIMEXO
 40
0.625
  9
$DIMDLI
 40
3.75
  9
$DIMRND
 40
0.0
  9
$DIMDLE
 40
0.0
  9
$DIMEXE
 40
1.25
  9
$DIMTP
 40
0.0
  9
$DIMTM
 40
0.0
  9
$DIMTXT
 40
2.5
  9
$DIMCEN
 40
2.5
  9
$DIMTSZ
 40
0.0
  9
$DIMTOL
 70
0
  9
$DIMLIM
 70
0
  9
$DIMTIH
 70
0
  9
$DIMTOH
 70
0
  9
$DIMSE1
 70
0
  9
$DIMSE2
 70
0
  9
$DIMTAD
 70
1
  9
$DIMZIN
 70
8
  9
$DIMBLK
  1

  9
$DIMASO
 70
1
  9
$DIMSHO
 70
1
  9
$DIMPOST
  1

  9
$DIMAPOST
  1

  9
$DIMALT
 70
0
  9
$DIMALTD
 70
3
  9
$DIMALTF
 40
0.03937007874
  9
$DIMLFAC
 40
1.0
  9
$DIMTOFL
 70
1
  9
$DIMTVP
 40
0.0
  9
$DIMTIX
 70
0
  9
$DIMSOXD
 70
0
  9
$DIMSAH
 70
0
  9
$DIMBLK1
  1

  9
$DIMBLK2
  1

  9
$DIMSTYLE
  2
ISO-25
  9
$DIMCLRD
 70
0
  9
$DIMCLRE
 70
0
  9
$DIMCLRT
 70
0
  9
$DIMTFAC
 40
1.0
  9
$DIMGAP
 40
0.625
  9
$DIMJUST
 70
0
  9
$DIMSD1
 70
0
  9
$DIMSD2
 70
0
  9
$DIMTOLJ
 70
0
  9
$DIMTZIN
 70
8
  9
$DIMALTZ
 70
0
  9
$DIMALTTZ
 70
0
  9
$DIMUPT
 70
0
  9
$DIMDEC
 70
2
  9
$DIMTDEC
 70
2
  9
$DIMALTU
 70
2
  9
$DIMALTTD
 70
3
  9
$DIMTXSTY
  7
Standard
  9
$DIMAUNIT
 70
0
  9
$DIMADEC
 70
0
  9
$DIMALTRND
 40
0.0
  9
$DIMAZIN
 70
0
  9
$DIMDSEP
 70
44
  9
$DIMATFIT
 70
3
  9
$DIMFRAC
 70
0
  9
$DIMLDRBLK
  1

  9
$DIMLUNIT
 70
2
  9
$DIMLWD
 70
-2
  9
$DIMLWE
 70
-2
  9
$DIMTMOVE
 70
0
  9
$LUNITS
 70
2
  9
$LUPREC
 70
4
  9
$SKETCHINC
 40
1.0
  9
$FILLETRAD
 40
10.0
  9
$AUNITS
 70
0
  9
$AUPREC
 70
2
  9
$MENU
  1
.
  9
$ELEVATION
 40
0.0
  9
$PELEVATION
 40
0.0
  9
$THICKNESS
 40
0.0
  9
$LIMCHECK
 70
0
  9
$CHAMFERA
 40
0.0
  9
$CHAMFERB
 40
0.0
  9
$CHAMFERC
 40
0.0
  9
$CHAMFERD
 40
0.0
  9
$SKPOLY
 70
0
  9
$TDCREATE
 40
2460913.7190393517
  9
$TDUCREATE
 40
2458532.153996898
  9
$TDUPDATE
 40
2460913.7190393517
  9
$TDUUPDATE
 40
2458532.1544311
  9
$TDINDWG
 40
0.0
  9
$TDUSRTIMER
 40
0.0
  9
$USRTIMER
 70
1
  9
$ANGBASE
 50
0.0
  9
$ANGDIR
 70
0
  9
$PDMODE
 70
0
  9
$PDSIZE
 40
0.0
  9
$PLINEWID
 40
0.0
  9
$SPLFRAME
 70
0
  9
$SPLINETYPE
 70
6
  9
$SPLINESEGS
 70
8
  9
$HANDSEED
  5
1F5
  9
$SURFTAB1
 70
6
  9
$SURFTAB2
 70
6
  9
$SURFTYPE
 70
6
  9
$SURFU
 70
6
  9
$SURFV
 70
6
  9
$UCSBASE
  2

  9
$UCSNAME
  2

  9
$UCSORG
 10
0.0
 20
0.0
 30
0.0
  9
$UCSXDIR
 10
1.0
 20
0.0
 30
0.0
  9
$UCSYDIR
 10
0.0
 20
1.0
 30
0.0
  9
$UCSORTHOREF
  2

  9
$UCSORTHOVIEW
 70
0
  9
$UCSORGTOP
 10
0.0
 20
0.0
 30
0.0
  9
$UCSORGBOTTOM
 10
0.0
 20
0.0
 30
0.0
  9
$UCSORGLEFT
 10
0.0
 20
0.0
 30
0.0
  9
$UCSORGRIGHT
 10
0.0
 20
0.0
 30
0.0
  9
$UCSORGFRONT
 10
0.0
 20
0.0
 30
0.0
  9
$UCSORGBACK
 10
0.0
 20
0.0
 30
0.0
  9
$PUCSBASE
  2

  9
$PUCSNAME
  2

  9
$PUCSORG
 10
0.0
 20
0.0
 30
0.0
  9
$PUCSXDIR
 10
1.0
 20
0.0
 30
0.0
  9
$PUCSYDIR
 10
0.0
 20
1.0
 30
0.0
  9
$PUCSORTHOREF
  2

  9
$PUCSORTHOVIEW
 70
0
  9
$PUCSORGTOP
 10
0.0
 20
0.0
 30
0.0
  9
$PUCSORGBOTTOM
 10
0.0
 20
0.0
 30
0.0
  9
$PUCSORGLEFT
 10
0.0
 20
0.0
 30
0.0
  9
$PUCSORGRIGHT
 10
0.0
 20
0.0
 30
0.0
  9
$PUCSORGFRONT
 10
0.0
 20
0.0
 30
0.0
  9
$PUCSORGBACK
 10
0.0
 20
0.0
 30
0.0
  9
$USERI1
 70
0
  9
$USERI2
 70
0
  9
$USERI3
 70
0
  9
$USERI4
 70
0
  9
$USERI5
 70
0
  9
$USERR1
 40
0.0
  9
$USERR2
 40
0.0
  9
$USERR3
 40
0.0
  9
$USERR4
 40
0.0
  9
$USERR5
 40
0.0
  9
$WORLDVIEW
 70
1
  9
$SHADEDGE
 70
3
  9
$SHADEDIF
 70
70
  9
$TILEMODE
 70
1
  9
$MAXACTVP
 70
64
  9
$PINSBASE
 10
0.0
 20
0.0
 30
0.0
  9
$PLIMCHECK
 70
0
  9
$PEXTMIN
 10
1e+20
 20
1e+20
 30
1e+20
  9
$PEXTMAX
 10
-1e+20
 20
-1e+20
 30
-1e+20
  9
$PLIMMIN
 10
0.0
 20
0.0
  9
$PLIMMAX
 10
420.0
 20
297.0
  9
$UNITMODE
 70
0
  9
$VISRETAIN
 70
1
  9
$PLINEGEN
 70
0
  9
$PSLTSCALE
 70
1
  9
$TREEDEPTH
 70
3020
  9
$CMLSTYLE
  2
Standard
  9
$CMLJUST
 70
0
  9
$CMLSCALE
 40
20.0
  9
$PROXYGRAPHICS
 70
1
  9
$MEASUREMENT
 70
1
  9
$CELWEIGHT
370
-1
  9
$ENDCAPS
280
0
  9
$JOINSTYLE
280
0
  9
$LWDISPLAY
290
0
  9
$INSUNITS
 70
4
  9
$HYPERLINKBASE
  1

  9
$STYLESHEET
  1

  9
$XEDIT
290
1
  9
$CEPSNTYPE
380
0
  9
$PSTYLEMODE
290
1
  9
$FINGERPRINTGUID
  2
{11D943A0-5C99-4FD7-9FD3-4F622BC81AEC}
  9
$VERSIONGUID
  2
{8983016C-E9CD-4B16-BD7E-AB780A72B3F5}
  9
$EXTNAMES
290
1
  9
$PSVPSCALE
 40
0.0
  9
$OLESTARTUP
290
0
  0
ENDSEC
  0
SECTION
  2
CLASSES
  0
CLASS
  1
ACDBDICTIONARYWDFLT
  2
AcDbDictionaryWithDefault
  3
ObjectDBX Classes
 90
0
280
0
281
0
  0
CLASS
  1
SUN
  2
AcDbSun
  3
SCENEOE
 90
1153
280
0
281
0
  0
CLASS
  1
VISUALSTYLE
  2
AcDbVisualStyle
  3
ObjectDBX Classes
 90
4095
280
0
281
0
  0
CLASS
  1
MATERIAL
  2
AcDbMaterial
  3
ObjectDBX Classes
 90
1153
280
0
281
0
  0
CLASS
  1
SCALE
  2
AcDbScale
  3
ObjectDBX Classes
 90
1153
280
0
281
0
  0
CLASS
  1
TABLESTYLE
  2
AcDbTableStyle
  3
ObjectDBX Classes
 90
4095
280
0
281
0
  0
CLASS
  1
MLEADERSTYLE
  2
AcDbMLeaderStyle
  3
ACDB_MLEADERSTYLE_CLASS
 90
4095
280
0
281
0
  0
CLASS
  1
DICTIONARYVAR
  2
AcDbDictionaryVar
  3
ObjectDBX Classes
 90
0
280
0
281
0
  0
CLASS
  1
CELLSTYLEMAP
  2
AcDbCellStyleMap
  3
ObjectDBX Classes
 90
1152
280
0
281
0
  0
CLASS
  1
MENTALRAYRENDERSETTINGS
  2
AcDbMentalRayRenderSettings
  3
SCENEOE
 90
1024
280
0
281
0
  0
CLASS
  1
ACDBDETAILVIEWSTYLE
  2
AcDbDetailViewStyle
  3
ObjectDBX Classes
 90
1025
280
0
281
0
  0
CLASS
  1
ACDBSECTIONVIEWSTYLE
  2
AcDbSectionViewStyle
  3
ObjectDBX Classes
 90
1025
280
0
281
0
  0
CLASS
  1
RASTERVARIABLES
  2
AcDbRasterVariables
  3
ISM
 90
0
280
0
281
0
  0
CLASS
  1
ACDBPLACEHOLDER
  2
AcDbPlaceHolder
  3
ObjectDBX Classes
 90
0
280
0
281
0
  0
CLASS
  1
LAYOUT
  2
AcDbLayout
  3
ObjectDBX Classes
 90
0
280
0
281
0
  0
ENDSEC
  0
SECTION
  2
TABLES
  0
TABLE
  2
VPORT
  5
8
330
0
100
AcDbSymbolTable
 70
1
  0
VPORT
  5
23
330
8
100
AcDbSymbolTableRecord
100
AcDbViewportTableRecord
  2
*Active
 70
0
 10
0.0
 20
0.0
 11
1.0
 21
1.0
 12
0.0
 22
0.0
 13
0.0
 23
0.0
 14
0.5
 24
0.5
 15
0.5
 25
0.5
 16
0.0
 26
0.0
 36
1.0
 17
0.0
 27
0.0
 37
0.0
 40
1000.0
 41
1.34
 42
50.0
 43
0.0
 44
0.0
 50
0.0
 51
0.0
 71
0
 72
1000
 73
1
 74
3
 75
0
 76
0
 77
0
 78
0
281
0
 65
0
146
0.0
  0
ENDTAB
  0
TABLE
  2
LTYPE
  5
2
330
0
100
AcDbSymbolTable
 70
3
  0
LTYPE
  5
24
330
2
100
AcDbSymbolTableRecord
100
AcDbLinetypeTableRecord
  2
ByBlock
 70
0
  3

 72
65
 73
0
 40
0.0
  0
LTYPE
  5
25
330
2
100
AcDbSymbolTableRecord
100
AcDbLinetypeTableRecord
  2
ByLayer
 70
0
  3

 72
65
 73
0
 40
0.0
  0
LTYPE
  5
26
330
2
100
AcDbSymbolTableRecord
100
AcDbLinetypeTableRecord
  2
Continuous
 70
0
  3

 72
65
 73
0
 40
0.0
  0
ENDTAB
  0
TABLE
  2
LAYER
  5
1
330
0
100
AcDbSymbolTable
 70
6
  0
LAYER
  5
27
330
1
100
AcDbSymbolTableRecord
100
AcDbLayerTableRecord
  2
0
 70
0
 62
7
  6
Continuous
370
-3
390
13
  0
LAYER
  5
28
330
1
100
AcDbSymbolTableRecord
100
AcDbLayerTableRecord
  2
Defpoints
 70
0
 62
7
  6
Continuous
290
0
370
-3
390
13
  0
LAYER
  5
2F
330
1
100
AcDbSymbolTableRecord
100
AcDbLayerTableRecord
  2
CUT
 70
0
 62
1
  6
CONTINUOUS
370
-3
390
13
  0
LAYER
  5
30
330
1
100
AcDbSymbolTableRecord
100
AcDbLayerTableRecord
  2
DRILL
 70
0
 62
5
  6
CONTINUOUS
370
-3
390
13
  0
LAYER
  5
31
330
1
100
AcDbSymbolTableRecord
100
AcDbLayerTableRecord
  2
DIMENSION
 70
0
 62
3
  6
CONTINUOUS
370
-3
390
13
  0
LAYER
  5
32
330
1
100
AcDbSymbolTableRecord
100
AcDbLayerTableRecord
  2
ANNOTATION
 70
0
 62
6
  6
CONTINUOUS
370
-3
390
13
  0
ENDTAB
  0
TABLE
  2
STYLE
  5
5
330
0
100
AcDbSymbolTable
 70
1
  0
STYLE
  5
29
330
5
100
AcDbSymbolTableRecord
100
AcDbTextStyleTableRecord
  2
Standard
 70
0
 40
0.0
 41
1.0
 50
0.0
 71
0
 42
2.5
  3
txt
  4

  0
ENDTAB
  0
TABLE
  2
VIEW
  5
7
330
0
100
AcDbSymbolTable
 70
0
  0
ENDTAB
  0
TABLE
  2
UCS
  5
6
330
0
100
AcDbSymbolTable
 70
0
  0
ENDTAB
  0
TABLE
  2
APPID
  5
3
330
0
100
AcDbSymbolTable
 70
3
  0
APPID
  5
2A
330
3
100
AcDbSymbolTableRecord
100
AcDbRegAppTableRecord
  2
ACAD
 70
0
  0
APPID
  5
1F2
330
3
100
AcDbSymbolTableRecord
100
AcDbRegAppTableRecord
  2
HATCHBACKGROUNDCOLOR
 70
0
  0
APPID
  5
1F3
330
3
100
AcDbSymbolTableRecord
100
AcDbRegAppTableRecord
  2
EZDXF
 70
0
  0
ENDTAB
  0
TABLE
  2
DIMSTYLE
  5
4
330
0
100
AcDbSymbolTable
 70
1
100
AcDbDimStyleTable
  0
DIMSTYLE
105
2B
330
4
100
AcDbSymbolTableRecord
100
AcDbDimStyleTableRecord
  2
Standard
 70
0
  3

  4

 40
1.0
 41
2.5
 42
0.625
 43
3.75
 44
1.25
 45
0.0
 46
0.0
 47
0.0
 48
0.0
140
2.5
141
2.5
142
0.0
143
0.03937007874
144
1.0
145
0.0
146
1.0
147
0.625
148
0.0
 71
0
 72
0
 73
0
 74
0
 75
0
 76
0
 77
1
 78
8
 79
3
170
0
171
3
172
1
173
0
174
0
175
0
176
0
177
0
178
0
179
2
271
2
272
2
273
2
274
3
275
0
276
0
277
2
278
44
279
0
280
0
281
0
282
0
283
0
284
8
285
0
286
0
288
0
289
3
371
-2
372
-2
  0
ENDTAB
  0
TABLE
  2
BLOCK_RECORD
  5
9
330
0
100
AcDbSymbolTable
 70
26
  0
BLOCK_RECORD
  5
17
330
9
100
AcDbSymbolTableRecord
100
AcDbBlockTableRecord
  2
*Model_Space
340
1A
  0
BLOCK_RECORD
  5
1B
330
9
100
AcDbSymbolTableRecord
100
AcDbBlockTableRecord
  2
*Paper_Space
340
1E
  0
BLOCK_RECORD
  5
7F
330
9
100
AcDbSymbolTableRecord
100
AcDbBlockTableRecord
  2
*D1
340
0
  0
BLOCK_RECORD
  5
84
330
9
100
AcDbSymbolTableRecord
100
AcDbBlockTableRecord
  2
_CLOSEDFILLED
340
0
  0
BLOCK_RECORD
  5
93
330
9
100
AcDbSymbolTableRecord
100
AcDbBlockTableRecord
  2
*D2
340
0
  0
BLOCK_RECORD
  5
A3
330
9
100
AcDbSymbolTableRecord
100
AcDbBlockTableRecord
  2
*D3
340
0
  0
BLOCK_RECORD
  5
B3
330
9
100
AcDbSymbolTableRecord
100
AcDbBlockTableRecord
  2
*D4
340
0
  0
BLOCK_RECORD
  5
C3
330
9
100
AcDbSymbolTableRecord
100
AcDbBlockTableRecord
  2
*D5
340
0
  0
BLOCK_RECORD
  5
D3
330
9
100
AcDbSymbolTableRecord
100
AcDbBlockTableRecord
  2
*D6
340
0
  0
BLOCK_RECORD
  5
E4
330
9
100
AcDbSymbolTableRecord
100
AcDbBlockTableRecord
  2
*D7
340
0
  0
BLOCK_RECORD
  5
F4
330
9
100
AcDbSymbolTableRecord
100
AcDbBlockTableRecord
  2
*D8
340
0
  0
BLOCK_RECORD
  5
104
330
9
100
AcDbSymbolTableRecord
100
AcDbBlockTableRecord
  2
*D9
340
0
  0
BLOCK_RECORD
  5
114
330
9
100
AcDbSymbolTableRecord
100
AcDbBlockTableRecord
  2
*D10
340
0
  0
BLOCK_RECORD
  5
124
330
9
100
AcDbSymbolTableRecord
100
AcDbBlockTableRecord
  2
*D11
340
0
  0
BLOCK_RECORD
  5
135
330
9
100
AcDbSymbolTableRecord
100
AcDbBlockTableRecord
  2
*D12
340
0
  0
BLOCK_RECORD
  5
145
330
9
100
AcDbSymbolTableRecord
100
AcDbBlockTableRecord
  2
*D13
340
0
  0
BLOCK_RECORD
  5
155
330
9
100
AcDbSymbolTableRecord
100
AcDbBlockTableRecord
  2
*D14
340
0
  0
BLOCK_RECORD
  5
165
330
9
100
AcDbSymbolTableRecord
100
AcDbBlockTableRecord
  2
*D15
340
0
  0
BLOCK_RECORD
  5
175
330
9
100
AcDbSymbolTableRecord
100
AcDbBlockTableRecord
  2
*D16
340
0
  0
BLOCK_RECORD
  5
185
330
9
100
AcDbSymbolTableRecord
100
AcDbBlockTableRecord
  2
*D17
340
0
  0
BLOCK_RECORD
  5
196
330
9
100
AcDbSymbolTableRecord
100
AcDbBlockTableRecord
  2
*D18
340
0
  0
BLOCK_RECORD
  5
1A6
330
9
100
AcDbSymbolTableRecord
100
AcDbBlockTableRecord
  2
*D19
340
0
  0
BLOCK_RECORD
  5
1B6
330
9
100
AcDbSymbolTableRecord
100
AcDbBlockTableRecord
  2
*D20
340
0
  0
BLOCK_RECORD
  5
1C6
330
9
100
AcDbSymbolTableRecord
100
AcDbBlockTableRecord
  2
*D21
340
0
  0
BLOCK_RECORD
  5
1D6
330
9
100
AcDbSymbolTableRecord
100
AcDbBlockTableRecord
  2
*D22
340
0
  0
BLOCK_RECORD
  5
1EC
330
9
100
AcDbSymbolTableRecord
100
AcDbBlockTableRecord
  2
*Paper_Space0
340
1EF
  0
ENDTAB
  0
ENDSEC
  0
SECTION
  2
BLOCKS
  0
BLOCK
  5
18
330
17
100
AcDbEntity
  8
0
100
AcDbBlockBegin
  2
*Model_Space
 70
0
 10
0.0
 20
0.0
 30
0.0
  3
*Model_Space
  1

  0
ENDBLK
  5
19
330
17
100
AcDbEntity
  8
0
100
AcDbBlockEnd
  0
BLOCK
  5
1C
330
1B
100
AcDbEntity
  8
0
100
AcDbBlockBegin
  2
*Paper_Space
 70
0
 10
0.0
 20
0.0
 30
0.0
  3
*Paper_Space
  1

  0
ENDBLK
  5
1D
330
1B
100
AcDbEntity
  8
0
100
AcDbBlockEnd
  0
BLOCK
  5
80
330
7F
100
AcDbEntity
  8
0
100
AcDbBlockBegin
  2
*D1
 70
1
 10
0.0
 20
0.0
 30
0.0
  3
*D1
  1

  0
LINE
  5
82
330
7F
100
AcDbEntity
  8
0
100
AcDbLine
 10
0.0
 20
0.0
 30
0.0
 11
0.0
 21
-25.0
 31
0.0
  0
LINE
  5
83
330
7F
100
AcDbEntity
  8
0
100
AcDbLine
 10
50.0
 20
0.0
 30
0.0
 11
50.0
 21
-25.0
 31
0.0
  0
INSERT
  5
88
330
7F
100
AcDbEntity
  8
DIMENSION
100
AcDbBlockReference
  2
_CLOSEDFILLED
 10
0.0
 20
-25.0
 30
0.0
 41
0.25
 42
0.25
 50
180.0
  0
INSERT
  5
8A
330
7F
100
AcDbEntity
  8
DIMENSION
100
AcDbBlockReference
  2
_CLOSEDFILLED
 10
50.0
 20
-25.0
 30
0.0
 41
0.25
 42
0.25
  0
LINE
  5
8C
330
7F
100
AcDbEntity
  8
0
100
AcDbLine
 10
0.25
 20
-25.0
 30
0.0
 11
24.0
 21
-25.0
 31
0.0
  0
LINE
  5
8D
330
7F
100
AcDbEntity
  8
0
100
AcDbLine
 10
26.0
 20
-25.0
 30
0.0
 11
49.75
 21
-25.0
 31
0.0
  0
MTEXT
  5
8E
330
7F
100
AcDbEntity
  8
DIMENSION
100
AcDbMText
 10
25.0
 20
-25.0
 30
0.0
 40
1.0
 71
5
  1
50
  0
POINT
  5
8F
330
7F
100
AcDbEntity
  8
Defpoints
100
AcDbPoint
 10
0.0
 20
-25.0
 30
0.0
  0
POINT
  5
90
330
7F
100
AcDbEntity
  8
Defpoints
100
AcDbPoint
 10
0.0
 20
0.0
 30
0.0
  0
POINT
  5
91
330
7F
100
AcDbEntity
  8
Defpoints
100
AcDbPoint
 10
50.0
 20
0.0
 30
0.0
  0
ENDBLK
  5
81
330
7F
100
AcDbEntity
  8
0
100
AcDbBlockEnd
  0
BLOCK
  5
85
330
84
100
AcDbEntity
  8
0
100
AcDbBlockBegin
  2
_CLOSEDFILLED
 70
0
 10
0.0
 20
0.0
 30
0.0
  3
_CLOSEDFILLED
  1

  0
SOLID
  5
87
330
84
100
AcDbEntity
  8
0
  6
BYBLOCK
 62
0
100
AcDbTrace
 10
-1.0
 20
0.16439898372402537
 30
0.0
 11
0.0
 21
0.0
 31
0.0
 12
-1.0
 22
-0.16439898372402537
 32
0.0
 13
-1.0
 23
-0.16439898372402537
 33
0.0
  0
ENDBLK
  5
86
330
84
100
AcDbEntity
  8
0
100
AcDbBlockEnd
  0
BLOCK
  5
94
330
93
100
AcDbEntity
  8
0
100
AcDbBlockBegin
  2
*D2
 70
1
 10
0.0
 20
0.0
 30
0.0
  3
*D2
  1

  0
LINE
  5
96
330
93
100
AcDbEntity
  8
0
100
AcDbLine
 10
0.0
 20
0.0
 30
0.0
 11
0.0
 21
-33.0
 31
0.0
  0
LINE
  5
97
330
93
100
AcDbEntity
  8
0
100
AcDbLine
 10
127.5
 20
0.0
 30
0.0
 11
127.5
 21
-33.0
 31
0.0
  0
INSERT
  5
98
330
93
100
AcDbEntity
  8
DIMENSION
100
AcDbBlockReference
  2
_CLOSEDFILLED
 10
0.0
 20
-33.0
 30
0.0
 41
0.25
 42
0.25
 50
180.0
  0
INSERT
  5
9A
330
93
100
AcDbEntity
  8
DIMENSION
100
AcDbBlockReference
  2
_CLOSEDFILLED
 10
127.5
 20
-33.0
 30
0.0
 41
0.25
 42
0.25
  0
LINE
  5
9C
330
93
100
AcDbEntity
  8
0
100
AcDbLine
 10
0.25
 20
-33.0
 30
0.0
 11
61.25
 21
-33.0
 31
0.0
  0
LINE
  5
9D
330
93
100
AcDbEntity
  8
0
100
AcDbLine
 10
66.25
 20
-33.0
 30
0.0
 11
127.25
 21
-33.0
 31
0.0
  0
MTEXT
  5
9E
330
93
100
AcDbEntity
  8
DIMENSION
100
AcDbMText
 10
63.75
 20
-33.0
 30
0.0
 40
1.0
 71
5
  1
127,5
  0
POINT
  5
9F
330
93
100
AcDbEntity
  8
Defpoints
100
AcDbPoint
 10
0.0
 20
-33.0
 30
0.0
  0
POINT
  5
A0
330
93
100
AcDbEntity
  8
Defpoints
100
AcDbPoint
 10
0.0
 20
0.0
 30
0.0
  0
POINT
  5
A1
330
93
100
AcDbEntity
  8
Defpoints
100
AcDbPoint
 10
127.5
 20
0.0
 30
0.0
  0
ENDBLK
  5
95
330
93
100
AcDbEntity
  8
0
100
AcDbBlockEnd
  0
BLOCK
  5
A4
330
A3
100
AcDbEntity
  8
0
100
AcDbBlockBegin
  2
*D3
 70
1
 10
0.0
 20
0.0
 30
0.0
  3
*D3
  1

  0
LINE
  5
A6
330
A3
100
AcDbEntity
  8
0
100
AcDbLine
 10
0.0
 20
0.0
 30
0.0
 11
0.0
 21
-41.0
 31
0.0
  0
LINE
  5
A7
330
A3
100
AcDbEntity
  8
0
100
AcDbLine
 10
150.0
 20
0.0
 30
0.0
 11
150.0
 21
-41.0
 31
0.0
  0
INSERT
  5
A8
330
A3
100
AcDbEntity
  8
DIMENSION
100
AcDbBlockReference
  2
_CLOSEDFILLED
 10
0.0
 20
-41.0
 30
0.0
 41
0.25
 42
0.25
 50
180.0
  0
INSERT
  5
AA
330
A3
100
AcDbEntity
  8
DIMENSION
100
AcDbBlockReference
  2
_CLOSEDFILLED
 10
150.0
 20
-41.0
 30
0.0
 41
0.25
 42
0.25
  0
LINE
  5
AC
330
A3
100
AcDbEntity
  8
0
100
AcDbLine
 10
0.25
 20
-41.0
 30
0.0
 11
73.5
 21
-41.0
 31
0.0
  0
LINE
  5
AD
330
A3
100
AcDbEntity
  8
0
100
AcDbLine
 10
76.5
 20
-41.0
 30
0.0
 11
149.75
 21
-41.0
 31
0.0
  0
MTEXT
  5
AE
330
A3
100
AcDbEntity
  8
DIMENSION
100
AcDbMText
 10
75.0
 20
-41.0
 30
0.0
 40
1.0
 71
5
  1
150
  0
POINT
  5
AF
330
A3
100
AcDbEntity
  8
Defpoints
100
AcDbPoint
 10
0.0
 20
-41.0
 30
0.0
  0
POINT
  5
B0
330
A3
100
AcDbEntity
  8
Defpoints
100
AcDbPoint
 10
0.0
 20
0.0
 30
0.0
  0
POINT
  5
B1
330
A3
100
AcDbEntity
  8
Defpoints
100
AcDbPoint
 10
150.0
 20
0.0
 30
0.0
  0
ENDBLK
  5
A5
330
A3
100
AcDbEntity
  8
0
100
AcDbBlockEnd
  0
BLOCK
  5
B4
330
B3
100
AcDbEntity
  8
0
100
AcDbBlockBegin
  2
*D4
 70
1
 10
0.0
 20
0.0
 30
0.0
  3
*D4
  1

  0
LINE
  5
B6
330
B3
100
AcDbEntity
  8
0
100
AcDbLine
 10
0.0
 20
0.0
 30
0.0
 11
0.0
 21
-49.0
 31
0.0
  0
LINE
  5
B7
330
B3
100
AcDbEntity
  8
0
100
AcDbLine
 10
194.0
 20
0.0
 30
0.0
 11
194.0
 21
-49.0
 31
0.0
  0
INSERT
  5
B8
330
B3
100
AcDbEntity
  8
DIMENSION
100
AcDbBlockReference
  2
_CLOSEDFILLED
 10
0.0
 20
-49.0
 30
0.0
 41
0.25
 42
0.25
 50
180.0
  0
INSERT
  5
BA
330
B3
100
AcDbEntity
  8
DIMENSION
100
AcDbBlockReference
  2
_CLOSEDFILLED
 10
194.0
 20
-49.0
 30
0.0
 41
0.25
 42
0.25
  0
LINE
  5
BC
330
B3
100
AcDbEntity
  8
0
100
AcDbLine
 10
0.25
 20
-49.0
 30
0.0
 11
95.5
 21
-49.0
 31
0.0
  0
LINE
  5
BD
330
B3
100
AcDbEntity
  8
0
100
AcDbLine
 10
98.5
 20
-49.0
 30
0.0
 11
193.75
 21
-49.0
 31
0.0
  0
MTEXT
  5
BE
330
B3
100
AcDbEntity
  8
DIMENSION
100
AcDbMText
 10
97.0
 20
-49.0
 30
0.0
 40
1.0
 71
5
  1
194
  0
POINT
  5
BF
330
B3
100
AcDbEntity
  8
Defpoints
100
AcDbPoint
 10
0.0
 20
-49.0
 30
0.0
  0
POINT
  5
C0
330
B3
100
AcDbEntity
  8
Defpoints
100
AcDbPoint
 10
0.0
 20
0.0
 30
0.0
  0
POINT
  5
C1
330
B3
100
AcDbEntity
  8
Defpoints
100
AcDbPoint
 10
194.0
 20
0.0
 30
0.0
  0
ENDBLK
  5
B5
330
B3
100
AcDbEntity
  8
0
100
AcDbBlockEnd
  0
BLOCK
  5
C4
330
C3
100
AcDbEntity
  8
0
100
AcDbBlockBegin
  2
*D5
 70
1
 10
0.0
 20
0.0
 30
0.0
  3
*D5
  1

  0
LINE
  5
C6
330
C3
100
AcDbEntity
  8
0
100
AcDbLine
 10
0.0
 20
0.0
 30
0.0
 11
0.0
 21
-57.0
 31
0.0
  0
LINE
  5
C7
330
C3
100
AcDbEntity
  8
0
100
AcDbLine
 10
200.0
 20
0.0
 30
0.0
 11
200.0
 21
-57.0
 31
0.0
  0
INSERT
  5
C8
330
C3
100
AcDbEntity
  8
DIMENSION
100
AcDbBlockReference
  2
_CLOSEDFILLED
 10
0.0
 20
-57.0
 30
0.0
 41
0.25
 42
0.25
 50
180.0
  0
INSERT
  5
CA
330
C3
100
AcDbEntity
  8
DIMENSION
100
AcDbBlockReference
  2
_CLOSEDFILLED
 10
200.0
 20
-57.0
 30
0.0
 41
0.25
 42
0.25
  0
LINE
  5
CC
330
C3
100
AcDbEntity
  8
0
100
AcDbLine
 10
0.25
 20
-57.0
 30
0.0
 11
98.5
 21
-57.0
 31
0.0
  0
LINE
  5
CD
330
C3
100
AcDbEntity
  8
0
100
AcDbLine
 10
101.50000000000001
 20
-57.0
 30
0.0
 11
199.75
 21
-57.0
 31
0.0
  0
MTEXT
  5
CE
330
C3
100
AcDbEntity
  8
DIMENSION
100
AcDbMText
 10
100.0
 20
-57.0
 30
0.0
 40
1.0
 71
5
  1
200
  0
POINT
  5
CF
330
C3
100
AcDbEntity
  8
Defpoints
100
AcDbPoint
 10
0.0
 20
-57.0
 30
0.0
  0
POINT
  5
D0
330
C3
100
AcDbEntity
  8
Defpoints
100
AcDbPoint
 10
0.0
 20
0.0
 30
0.0
  0
POINT
  5
D1
330
C3
100
AcDbEntity
  8
Defpoints
100
AcDbPoint
 10
200.0
 20
0.0
 30
0.0
  0
ENDBLK
  5
C5
330
C3
100
AcDbEntity
  8
0
100
AcDbBlockEnd
  0
BLOCK
  5
D4
330
D3
100
AcDbEntity
  8
0
100
AcDbBlockBegin
  2
*D6
 70
1
 10
0.0
 20
0.0
 30
0.0
  3
*D6
  1

  0
LINE
  5
D6
330
D3
100
AcDbEntity
  8
0
100
AcDbLine
 10
200.0
 20
225.0
 30
0.0
 11
200.0
 21
250.0
 31
0.0
  0
LINE
  5
D7
330
D3
100
AcDbEntity
  8
0
100
AcDbLine
 10
200.0
 20
225.0
 30
0.0
 11
200.0
 21
250.0
 31
0.0
  0
INSERT
  5
D8
330
D3
100
AcDbEntity
  8
DIMENSION
100
AcDbBlockReference
  2
_CLOSEDFILLED
 10
200.0
 20
250.0
 30
0.0
 41
0.25
 42
0.25
  0
INSERT
  5
DA
330
D3
100
AcDbEntity
  8
DIMENSION
100
AcDbBlockReference
  2
_CLOSEDFILLED
 10
200.0
 20
250.0
 30
0.0
 41
0.25
 42
0.25
 50
180.0
  0
LINE
  5
DC
330
D3
100
AcDbEntity
  8
0
100
AcDbLine
 10
199.75
 20
250.0
 30
0.0
 11
199.5
 21
250.0
 31
0.0
  0
LINE
  5
DD
330
D3
100
AcDbEntity
  8
0
100
AcDbLine
 10
200.25
 20
250.0
 30
0.0
 11
200.5
 21
250.0
 31
0.0
  0
LINE
  5
DE
330
D3
100
AcDbEntity
  8
0
100
AcDbLine
 10
200.0
 20
250.0
 30
0.0
 11
200.0
 21
250.0
 31
0.0
  0
MTEXT
  5
DF
330
D3
100
AcDbEntity
  8
DIMENSION
100
AcDbMText
 10
200.0
 20
251.125
 30
0.0
 40
1.0
 71
5
  1
0
  0
POINT
  5
E0
330
D3
100
AcDbEntity
  8
Defpoints
100
AcDbPoint
 10
200.0
 20
250.0
 30
0.0
  0
POINT
  5
E1
330
D3
100
AcDbEntity
  8
Defpoints
100
AcDbPoint
 10
200.0
 20
225.0
 30
0.0
  0
POINT
  5
E2
330
D3
100
AcDbEntity
  8
Defpoints
100
AcDbPoint
 10
200.0
 20
225.0
 30
0.0
  0
ENDBLK
  5
D5
330
D3
100
AcDbEntity
  8
0
100
AcDbBlockEnd
  0
BLOCK
  5
E5
330
E4
100
AcDbEntity
  8
0
100
AcDbBlockBegin
  2
*D7
 70
1
 10
0.0
 20
0.0
 30
0.0
  3
*D7
  1

  0
LINE
  5
E7
330
E4
100
AcDbEntity
  8
0
100
AcDbLine
 10
200.0
 20
225.0
 30
0.0
 11
200.0
 21
258.0
 31
0.0
  0
LINE
  5
E8
330
E4
100
AcDbEntity
  8
0
100
AcDbLine
 10
194.0
 20
225.0
 30
0.0
 11
194.0
 21
258.0
 31
0.0
  0
INSERT
  5
E9
330
E4
100
AcDbEntity
  8
DIMENSION
100
AcDbBlockReference
  2
_CLOSEDFILLED
 10
200.0
 20
258.0
 30
0.0
 41
0.25
 42
0.25
 50
180.0
  0
INSERT
  5
EB
330
E4
100
AcDbEntity
  8
DIMENSION
100
AcDbBlockReference
  2
_CLOSEDFILLED
 10
194.0
 20
258.0
 30
0.0
 41
0.25
 42
0.25
  0
LINE
  5
ED
330
E4
100
AcDbEntity
  8
0
100
AcDbLine
 10
200.25
 20
258.0
 30
0.0
 11
197.5
 21
258.0
 31
0.0
  0
LINE
  5
EE
330
E4
100
AcDbEntity
  8
0
100
AcDbLine
 10
196.5
 20
258.0
 30
0.0
 11
193.75
 21
258.0
 31
0.0
  0
MTEXT
  5
EF
330
E4
100
AcDbEntity
  8
DIMENSION
100
AcDbMText
 10
197.0
 20
258.0
 30
0.0
 40
1.0
 71
5
  1
6
  0
POINT
  5
F0
330
E4
100
AcDbEntity
  8
Defpoints
100
AcDbPoint
 10
200.0
 20
258.0
 30
0.0
  0
POINT
  5
F1
330
E4
100
AcDbEntity
  8
Defpoints
100
AcDbPoint
 10
200.0
 20
225.0
 30
0.0
  0
POINT
  5
F2
330
E4
100
AcDbEntity
  8
Defpoints
100
AcDbPoint
 10
194.0
 20
225.0
 30
0.0
  0
ENDBLK
  5
E6
330
E4
100
AcDbEntity
  8
0
100
AcDbBlockEnd
  0
BLOCK
  5
F5
330
F4
100
AcDbEntity
  8
0
100
AcDbBlockBegin
  2
*D8
 70
1
 10
0.0
 20
0.0
 30
0.0
  3
*D8
  1

  0
LINE
  5
F7
330
F4
100
AcDbEntity
  8
0
100
AcDbLine
 10
200.0
 20
225.0
 30
0.0
 11
200.0
 21
266.0
 31
0.0
  0
LINE
  5
F8
330
F4
100
AcDbEntity
  8
0
100
AcDbLine
 10
150.0
 20
225.0
 30
0.0
 11
150.0
 21
266.0
 31
0.0
  0
INSERT
  5
F9
330
F4
100
AcDbEntity
  8
DIMENSION
100
AcDbBlockReference
  2
_CLOSEDFILLED
 10
200.0
 20
266.0
 30
0.0
 41
0.25
 42
0.25
 50
180.0
  0
INSERT
  5
FB
330
F4
100
AcDbEntity
  8
DIMENSION
100
AcDbBlockReference
  2
_CLOSEDFILLED
 10
150.0
 20
266.0
 30
0.0
 41
0.25
 42
0.25
  0
LINE
  5
FD
330
F4
100
AcDbEntity
  8
0
100
AcDbLine
 10
200.25
 20
266.0
 30
0.0
 11
176.0
 21
266.0
 31
0.0
  0
LINE
  5
FE
330
F4
100
AcDbEntity
  8
0
100
AcDbLine
 10
174.0
 20
266.0
 30
0.0
 11
149.75
 21
266.0
 31
0.0
  0
MTEXT
  5
FF
330
F4
100
AcDbEntity
  8
DIMENSION
100
AcDbMText
 10
175.0
 20
266.0
 30
0.0
 40
1.0
 71
5
  1
50
  0
POINT
  5
100
330
F4
100
AcDbEntity
  8
Defpoints
100
AcDbPoint
 10
200.0
 20
266.0
 30
0.0
  0
POINT
  5
101
330
F4
100
AcDbEntity
  8
Defpoints
100
AcDbPoint
 10
200.0
 20
225.0
 30
0.0
  0
POINT
  5
102
330
F4
100
AcDbEntity
  8
Defpoints
100
AcDbPoint
 10
150.0
 20
225.0
 30
0.0
  0
ENDBLK
  5
F6
330
F4
100
AcDbEntity
  8
0
100
AcDbBlockEnd
  0
BLOCK
  5
105
330
104
100
AcDbEntity
  8
0
100
AcDbBlockBegin
  2
*D9
 70
1
 10
0.0
 20
0.0
 30
0.0
  3
*D9
  1

  0
LINE
  5
107
330
104
100
AcDbEntity
  8
0
100
AcDbLine
 10
200.0
 20
225.0
 30
0.0
 11
200.0
 21
274.0
 31
0.0
  0
LINE
  5
108
330
104
100
AcDbEntity
  8
0
100
AcDbLine
 10
127.5
 20
225.0
 30
0.0
 11
127.5
 21
274.0
 31
0.0
  0
INSERT
  5
109
330
104
100
AcDbEntity
  8
DIMENSION
100
AcDbBlockReference
  2
_CLOSEDFILLED
 10
200.0
 20
274.0
 30
0.0
 41
0.25
 42
0.25
 50
180.0
  0
INSERT
  5
10B
330
104
100
AcDbEntity
  8
DIMENSION
100
AcDbBlockReference
  2
_CLOSEDFILLED
 10
127.5
 20
274.0
 30
0.0
 41
0.25
 42
0.25
  0
LINE
  5
10D
330
104
100
AcDbEntity
  8
0
100
AcDbLine
 10
200.25
 20
274.0
 30
0.0
 11
165.75
 21
274.0
 31
0.0
  0
LINE
  5
10E
330
104
100
AcDbEntity
  8
0
100
AcDbLine
 10
161.75
 20
274.0
 30
0.0
 11
127.25
 21
274.0
 31
0.0
  0
MTEXT
  5
10F
330
104
100
AcDbEntity
  8
DIMENSION
100
AcDbMText
 10
163.75
 20
274.0
 30
0.0
 40
1.0
 71
5
  1
72,5
  0
POINT
  5
110
330
104
100
AcDbEntity
  8
Defpoints
100
AcDbPoint
 10
200.0
 20
274.0
 30
0.0
  0
POINT
  5
111
330
104
100
AcDbEntity
  8
Defpoints
100
AcDbPoint
 10
200.0
 20
225.0
 30
0.0
  0
POINT
  5
112
330
104
100
AcDbEntity
  8
Defpoints
100
AcDbPoint
 10
127.5
 20
225.0
 30
0.0
  0
ENDBLK
  5
106
330
104
100
AcDbEntity
  8
0
100
AcDbBlockEnd
  0
BLOCK
  5
115
330
114
100
AcDbEntity
  8
0
100
AcDbBlockBegin
  2
*D10
 70
1
 10
0.0
 20
0.0
 30
0.0
  3
*D10
  1

  0
LINE
  5
117
330
114
100
AcDbEntity
  8
0
100
AcDbLine
 10
200.0
 20
225.0
 30
0.0
 11
200.0
 21
282.0
 31
0.0
  0
LINE
  5
118
330
114
100
AcDbEntity
  8
0
100
AcDbLine
 10
50.0
 20
225.0
 30
0.0
 11
50.0
 21
282.0
 31
0.0
  0
INSERT
  5
119
330
114
100
AcDbEntity
  8
DIMENSION
100
AcDbBlockReference
  2
_CLOSEDFILLED
 10
200.0
 20
282.0
 30
0.0
 41
0.25
 42
0.25
 50
180.0
  0
INSERT
  5
11B
330
114
100
AcDbEntity
  8
DIMENSION
100
AcDbBlockReference
  2
_CLOSEDFILLED
 10
50.0
 20
282.0
 30
0.0
 41
0.25
 42
0.25
  0
LINE
  5
11D
330
114
100
AcDbEntity
  8
0
100
AcDbLine
 10
200.25
 20
282.0
 30
0.0
 11
126.5
 21
282.0
 31
0.0
  0
LINE
  5
11E
330
114
100
AcDbEntity
  8
0
100
AcDbLine
 10
123.5
 20
282.0
 30
0.0
 11
49.75
 21
282.0
 31
0.0
  0
MTEXT
  5
11F
330
114
100
AcDbEntity
  8
DIMENSION
100
AcDbMText
 10
125.0
 20
282.0
 30
0.0
 40
1.0
 71
5
  1
150
  0
POINT
  5
120
330
114
100
AcDbEntity
  8
Defpoints
100
AcDbPoint
 10
200.0
 20
282.0
 30
0.0
  0
POINT
  5
121
330
114
100
AcDbEntity
  8
Defpoints
100
AcDbPoint
 10
200.0
 20
225.0
 30
0.0
  0
POINT
  5
122
330
114
100
AcDbEntity
  8
Defpoints
100
AcDbPoint
 10
50.0
 20
225.0
 30
0.0
  0
ENDBLK
  5
116
330
114
100
AcDbEntity
  8
0
100
AcDbBlockEnd
  0
BLOCK
  5
125
330
124
100
AcDbEntity
  8
0
100
AcDbBlockBegin
  2
*D11
 70
1
 10
0.0
 20
0.0
 30
0.0
  3
*D11
  1

  0
LINE
  5
127
330
124
100
AcDbEntity
  8
0
100
AcDbLine
 10
0.0
 20
0.0
 30
0.0
 11
-25.0
 21
0.0
 31
0.0
  0
LINE
  5
128
330
124
100
AcDbEntity
  8
0
100
AcDbLine
 10
0.0
 20
0.0
 30
0.0
 11
-25.0
 21
0.0
 31
0.0
  0
INSERT
  5
129
330
124
100
AcDbEntity
  8
DIMENSION
100
AcDbBlockReference
  2
_CLOSEDFILLED
 10
-25.0
 20
0.0
 30
0.0
 41
0.25
 42
0.25
 50
90.0
  0
INSERT
  5
12B
330
124
100
AcDbEntity
  8
DIMENSION
100
AcDbBlockReference
  2
_CLOSEDFILLED
 10
-25.0
 20
0.0
 30
0.0
 41
0.25
 42
0.25
 50
270.0
  0
LINE
  5
12D
330
124
100
AcDbEntity
  8
0
100
AcDbLine
 10
-25.0
 20
-0.25
 30
0.0
 11
-25.0
 21
-0.5
 31
0.0
  0
LINE
  5
12E
330
124
100
AcDbEntity
  8
0
100
AcDbLine
 10
-25.0
 20
0.25
 30
0.0
 11
-25.0
 21
0.5
 31
0.0
  0
LINE
  5
12F
330
124
100
AcDbEntity
  8
0
100
AcDbLine
 10
-25.0
 20
0.0
 30
0.0
 11
-25.0
 21
0.0
 31
0.0
  0
MTEXT
  5
130
330
124
100
AcDbEntity
  8
DIMENSION
100
AcDbMText
 10
-26.125
 20
6.888638245203862e-17
 30
0.0
 40
1.0
 71
5
  1
0
 50
90.0
  0
POINT
  5
131
330
124
100
AcDbEntity
  8
Defpoints
100
AcDbPoint
 10
-25.0
 20
0.0
 30
0.0
  0
POINT
  5
132
330
124
100
AcDbEntity
  8
Defpoints
100
AcDbPoint
 10
0.0
 20
0.0
 30
0.0
  0
POINT
  5
133
330
124
100
AcDbEntity
  8
Defpoints
100
AcDbPoint
 10
0.0
 20
0.0
 30
0.0
  0
ENDBLK
  5
126
330
124
100
AcDbEntity
  8
0
100
AcDbBlockEnd
  0
BLOCK
  5
136
330
135
100
AcDbEntity
  8
0
100
AcDbBlockBegin
  2
*D12
 70
1
 10
0.0
 20
0.0
 30
0.0
  3
*D12
  1

  0
LINE
  5
138
330
135
100
AcDbEntity
  8
0
100
AcDbLine
 10
0.0
 20
0.0
 30
0.0
 11
-33.0
 21
0.0
 31
0.0
  0
LINE
  5
139
330
135
100
AcDbEntity
  8
0
100
AcDbLine
 10
0.0
 20
35.0
 30
0.0
 11
-33.0
 21
35.0
 31
0.0
  0
INSERT
  5
13A
330
135
100
AcDbEntity
  8
DIMENSION
100
AcDbBlockReference
  2
_CLOSEDFILLED
 10
-33.0
 20
0.0
 30
0.0
 41
0.25
 42
0.25
 50
270.0
  0
INSERT
  5
13C
330
135
100
AcDbEntity
  8
DIMENSION
100
AcDbBlockReference
  2
_CLOSEDFILLED
 10
-33.0
 20
35.0
 30
0.0
 41
0.25
 42
0.25
 50
90.0
  0
LINE
  5
13E
330
135
100
AcDbEntity
  8
0
100
AcDbLine
 10
-33.0
 20
0.25
 30
0.0
 11
-33.0
 21
16.5
 31
0.0
  0
LINE
  5
13F
330
135
100
AcDbEntity
  8
0
100
AcDbLine
 10
-33.0
 20
18.5
 30
0.0
 11
-33.0
 21
34.75
 31
0.0
  0
MTEXT
  5
140
330
135
100
AcDbEntity
  8
DIMENSION
100
AcDbMText
 10
-33.0
 20
17.5
 30
0.0
 40
1.0
 71
5
  1
35
 50
90.0
  0
POINT
  5
141
330
135
100
AcDbEntity
  8
Defpoints
100
AcDbPoint
 10
-33.0
 20
0.0
 30
0.0
  0
POINT
  5
142
330
135
100
AcDbEntity
  8
Defpoints
100
AcDbPoint
 10
0.0
 20
0.0
 30
0.0
  0
POINT
  5
143
330
135
100
AcDbEntity
  8
Defpoints
100
AcDbPoint
 10
0.0
 20
35.0
 30
0.0
  0
ENDBLK
  5
137
330
135
100
AcDbEntity
  8
0
100
AcDbBlockEnd
  0
BLOCK
  5
146
330
145
100
AcDbEntity
  8
0
100
AcDbBlockBegin
  2
*D13
 70
1
 10
0.0
 20
0.0
 30
0.0
  3
*D13
  1

  0
LINE
  5
148
330
145
100
AcDbEntity
  8
0
100
AcDbLine
 10
0.0
 20
0.0
 30
0.0
 11
-41.0
 21
0.0
 31
0.0
  0
LINE
  5
149
330
145
100
AcDbEntity
  8
0
100
AcDbLine
 10
0.0
 20
50.0
 30
0.0
 11
-41.0
 21
50.0
 31
0.0
  0
INSERT
  5
14A
330
145
100
AcDbEntity
  8
DIMENSION
100
AcDbBlockReference
  2
_CLOSEDFILLED
 10
-41.0
 20
0.0
 30
0.0
 41
0.25
 42
0.25
 50
270.0
  0
INSERT
  5
14C
330
145
100
AcDbEntity
  8
DIMENSION
100
AcDbBlockReference
  2
_CLOSEDFILLED
 10
-41.0
 20
50.0
 30
0.0
 41
0.25
 42
0.25
 50
90.0
  0
LINE
  5
14E
330
145
100
AcDbEntity
  8
0
100
AcDbLine
 10
-41.0
 20
0.25
 30
0.0
 11
-41.0
 21
24.0
 31
0.0
  0
LINE
  5
14F
330
145
100
AcDbEntity
  8
0
100
AcDbLine
 10
-41.0
 20
26.0
 30
0.0
 11
-41.0
 21
49.75
 31
0.0
  0
MTEXT
  5
150
330
145
100
AcDbEntity
  8
DIMENSION
100
AcDbMText
 10
-41.0
 20
25.0
 30
0.0
 40
1.0
 71
5
  1
50
 50
90.0
  0
POINT
  5
151
330
145
100
AcDbEntity
  8
Defpoints
100
AcDbPoint
 10
-41.0
 20
0.0
 30
0.0
  0
POINT
  5
152
330
145
100
AcDbEntity
  8
Defpoints
100
AcDbPoint
 10
0.0
 20
0.0
 30
0.0
  0
POINT
  5
153
330
145
100
AcDbEntity
  8
Defpoints
100
AcDbPoint
 10
0.0
 20
50.0
 30
0.0
  0
ENDBLK
  5
147
330
145
100
AcDbEntity
  8
0
100
AcDbBlockEnd
  0
BLOCK
  5
156
330
155
100
AcDbEntity
  8
0
100
AcDbBlockBegin
  2
*D14
 70
1
 10
0.0
 20
0.0
 30
0.0
  3
*D14
  1

  0
LINE
  5
158
330
155
100
AcDbEntity
  8
0
100
AcDbLine
 10
0.0
 20
0.0
 30
0.0
 11
-49.0
 21
0.0
 31
0.0
  0
LINE
  5
159
330
155
100
AcDbEntity
  8
0
100
AcDbLine
 10
0.0
 20
163.0
 30
0.0
 11
-49.0
 21
163.0
 31
0.0
  0
INSERT
  5
15A
330
155
100
AcDbEntity
  8
DIMENSION
100
AcDbBlockReference
  2
_CLOSEDFILLED
 10
-49.0
 20
0.0
 30
0.0
 41
0.25
 42
0.25
 50
270.0
  0
INSERT
  5
15C
330
155
100
AcDbEntity
  8
DIMENSION
100
AcDbBlockReference
  2
_CLOSEDFILLED
 10
-49.0
 20
163.0
 30
0.0
 41
0.25
 42
0.25
 50
90.0
  0
LINE
  5
15E
330
155
100
AcDbEntity
  8
0
100
AcDbLine
 10
-49.0
 20
0.25
 30
0.0
 11
-49.0
 21
80.0
 31
0.0
  0
LINE
  5
15F
330
155
100
AcDbEntity
  8
0
100
AcDbLine
 10
-49.0
 20
83.0
 30
0.0
 11
-49.0
 21
162.75
 31
0.0
  0
MTEXT
  5
160
330
155
100
AcDbEntity
  8
DIMENSION
100
AcDbMText
 10
-49.0
 20
81.5
 30
0.0
 40
1.0
 71
5
  1
163
 50
90.0
  0
POINT
  5
161
330
155
100
AcDbEntity
  8
Defpoints
100
AcDbPoint
 10
-49.0
 20
0.0
 30
0.0
  0
POINT
  5
162
330
155
100
AcDbEntity
  8
Defpoints
100
AcDbPoint
 10
0.0
 20
0.0
 30
0.0
  0
POINT
  5
163
330
155
100
AcDbEntity
  8
Defpoints
100
AcDbPoint
 10
0.0
 20
163.0
 30
0.0
  0
ENDBLK
  5
157
330
155
100
AcDbEntity
  8
0
100
AcDbBlockEnd
  0
BLOCK
  5
166
330
165
100
AcDbEntity
  8
0
100
AcDbBlockBegin
  2
*D15
 70
1
 10
0.0
 20
0.0
 30
0.0
  3
*D15
  1

  0
LINE
  5
168
330
165
100
AcDbEntity
  8
0
100
AcDbLine
 10
0.0
 20
0.0
 30
0.0
 11
-57.0
 21
0.0
 31
0.0
  0
LINE
  5
169
330
165
100
AcDbEntity
  8
0
100
AcDbLine
 10
0.0
 20
219.0
 30
0.0
 11
-57.0
 21
219.0
 31
0.0
  0
INSERT
  5
16A
330
165
100
AcDbEntity
  8
DIMENSION
100
AcDbBlockReference
  2
_CLOSEDFILLED
 10
-57.0
 20
0.0
 30
0.0
 41
0.25
 42
0.25
 50
270.0
  0
INSERT
  5
16C
330
165
100
AcDbEntity
  8
DIMENSION
100
AcDbBlockReference
  2
_CLOSEDFILLED
 10
-57.0
 20
219.0
 30
0.0
 41
0.25
 42
0.25
 50
90.0
  0
LINE
  5
16E
330
165
100
AcDbEntity
  8
0
100
AcDbLine
 10
-57.0
 20
0.25
 30
0.0
 11
-57.0
 21
108.0
 31
0.0
  0
LINE
  5
16F
330
165
100
AcDbEntity
  8
0
100
AcDbLine
 10
-57.0
 20
111.0
 30
0.0
 11
-57.0
 21
218.75
 31
0.0
  0
MTEXT
  5
170
330
165
100
AcDbEntity
  8
DIMENSION
100
AcDbMText
 10
-57.0
 20
109.5
 30
0.0
 40
1.0
 71
5
  1
219
 50
90.0
  0
POINT
  5
171
330
165
100
AcDbEntity
  8
Defpoints
100
AcDbPoint
 10
-57.0
 20
0.0
 30
0.0
  0
POINT
  5
172
330
165
100
AcDbEntity
  8
Defpoints
100
AcDbPoint
 10
0.0
 20
0.0
 30
0.0
  0
POINT
  5
173
330
165
100
AcDbEntity
  8
Defpoints
100
AcDbPoint
 10
0.0
 20
219.0
 30
0.0
  0
ENDBLK
  5
167
330
165
100
AcDbEntity
  8
0
100
AcDbBlockEnd
  0
BLOCK
  5
176
330
175
100
AcDbEntity
  8
0
100
AcDbBlockBegin
  2
*D16
 70
1
 10
0.0
 20
0.0
 30
0.0
  3
*D16
  1

  0
LINE
  5
178
330
175
100
AcDbEntity
  8
0
100
AcDbLine
 10
0.0
 20
0.0
 30
0.0
 11
-65.0
 21
0.0
 31
0.0
  0
LINE
  5
179
330
175
100
AcDbEntity
  8
0
100
AcDbLine
 10
0.0
 20
225.0
 30
0.0
 11
-65.0
 21
225.0
 31
0.0
  0
INSERT
  5
17A
330
175
100
AcDbEntity
  8
DIMENSION
100
AcDbBlockReference
  2
_CLOSEDFILLED
 10
-65.0
 20
0.0
 30
0.0
 41
0.25
 42
0.25
 50
270.0
  0
INSERT
  5
17C
330
175
100
AcDbEntity
  8
DIMENSION
100
AcDbBlockReference
  2
_CLOSEDFILLED
 10
-65.0
 20
225.0
 30
0.0
 41
0.25
 42
0.25
 50
90.0
  0
LINE
  5
17E
330
175
100
AcDbEntity
  8
0
100
AcDbLine
 10
-65.0
 20
0.25
 30
0.0
 11
-65.0
 21
111.0
 31
0.0
  0
LINE
  5
17F
330
175
100
AcDbEntity
  8
0
100
AcDbLine
 10
-65.0
 20
114.0
 30
0.0
 11
-65.0
 21
224.75
 31
0.0
  0
MTEXT
  5
180
330
175
100
AcDbEntity
  8
DIMENSION
100
AcDbMText
 10
-65.0
 20
112.5
 30
0.0
 40
1.0
 71
5
  1
225
 50
90.0
  0
POINT
  5
181
330
175
100
AcDbEntity
  8
Defpoints
100
AcDbPoint
 10
-65.0
 20
0.0
 30
0.0
  0
POINT
  5
182
330
175
100
AcDbEntity
  8
Defpoints
100
AcDbPoint
 10
0.0
 20
0.0
 30
0.0
  0
POINT
  5
183
330
175
100
AcDbEntity
  8
Defpoints
100
AcDbPoint
 10
0.0
 20
225.0
 30
0.0
  0
ENDBLK
  5
177
330
175
100
AcDbEntity
  8
0
100
AcDbBlockEnd
  0
BLOCK
  5
186
330
185
100
AcDbEntity
  8
0
100
AcDbBlockBegin
  2
*D17
 70
1
 10
0.0
 20
0.0
 30
0.0
  3
*D17
  1

  0
LINE
  5
188
330
185
100
AcDbEntity
  8
0
100
AcDbLine
 10
200.0
 20
225.0
 30
0.0
 11
225.0
 21
225.0
 31
0.0
  0
LINE
  5
189
330
185
100
AcDbEntity
  8
0
100
AcDbLine
 10
200.0
 20
225.0
 30
0.0
 11
225.0
 21
225.0
 31
0.0
  0
INSERT
  5
18A
330
185
100
AcDbEntity
  8
DIMENSION
100
AcDbBlockReference
  2
_CLOSEDFILLED
 10
225.0
 20
225.0
 30
0.0
 41
0.25
 42
0.25
 50
90.0
  0
INSERT
  5
18C
330
185
100
AcDbEntity
  8
DIMENSION
100
AcDbBlockReference
  2
_CLOSEDFILLED
 10
225.0
 20
225.0
 30
0.0
 41
0.25
 42
0.25
 50
270.0
  0
LINE
  5
18E
330
185
100
AcDbEntity
  8
0
100
AcDbLine
 10
225.0
 20
224.75
 30
0.0
 11
225.0
 21
224.5
 31
0.0
  0
LINE
  5
18F
330
185
100
AcDbEntity
  8
0
100
AcDbLine
 10
225.0
 20
225.25
 30
0.0
 11
225.0
 21
225.5
 31
0.0
  0
LINE
  5
190
330
185
100
AcDbEntity
  8
0
100
AcDbLine
 10
225.0
 20
225.0
 30
0.0
 11
225.0
 21
225.0
 31
0.0
  0
MTEXT
  5
191
330
185
100
AcDbEntity
  8
DIMENSION
100
AcDbMText
 10
223.875
 20
225.0
 30
0.0
 40
1.0
 71
5
  1
0
 50
90.0
  0
POINT
  5
192
330
185
100
AcDbEntity
  8
Defpoints
100
AcDbPoint
 10
225.0
 20
225.0
 30
0.0
  0
POINT
  5
193
330
185
100
AcDbEntity
  8
Defpoints
100
AcDbPoint
 10
200.0
 20
225.0
 30
0.0
  0
POINT
  5
194
330
185
100
AcDbEntity
  8
Defpoints
100
AcDbPoint
 10
200.0
 20
225.0
 30
0.0
  0
ENDBLK
  5
187
330
185
100
AcDbEntity
  8
0
100
AcDbBlockEnd
  0
BLOCK
  5
197
330
196
100
AcDbEntity
  8
0
100
AcDbBlockBegin
  2
*D18
 70
1
 10
0.0
 20
0.0
 30
0.0
  3
*D18
  1

  0
LINE
  5
199
330
196
100
AcDbEntity
  8
0
100
AcDbLine
 10
200.0
 20
225.0
 30
0.0
 11
233.0
 21
225.0
 31
0.0
  0
LINE
  5
19A
330
196
100
AcDbEntity
  8
0
100
AcDbLine
 10
200.0
 20
219.0
 30
0.0
 11
233.0
 21
219.0
 31
0.0
  0
INSERT
  5
19B
330
196
100
AcDbEntity
  8
DIMENSION
100
AcDbBlockReference
  2
_CLOSEDFILLED
 10
233.0
 20
225.0
 30
0.0
 41
0.25
 42
0.25
 50
270.0
  0
INSERT
  5
19D
330
196
100
AcDbEntity
  8
DIMENSION
100
AcDbBlockReference
  2
_CLOSEDFILLED
 10
233.0
 20
219.0
 30
0.0
 41
0.25
 42
0.25
 50
90.0
  0
LINE
  5
19F
330
196
100
AcDbEntity
  8
0
100
AcDbLine
 10
233.0
 20
225.25
 30
0.0
 11
233.0
 21
222.5
 31
0.0
  0
LINE
  5
1A0
330
196
100
AcDbEntity
  8
0
100
AcDbLine
 10
233.0
 20
221.5
 30
0.0
 11
233.0
 21
218.75
 31
0.0
  0
MTEXT
  5
1A1
330
196
100
AcDbEntity
  8
DIMENSION
100
AcDbMText
 10
233.0
 20
222.0
 30
0.0
 40
1.0
 71
5
  1
6
 50
90.0
  0
POINT
  5
1A2
330
196
100
AcDbEntity
  8
Defpoints
100
AcDbPoint
 10
233.0
 20
225.0
 30
0.0
  0
POINT
  5
1A3
330
196
100
AcDbEntity
  8
Defpoints
100
AcDbPoint
 10
200.0
 20
225.0
 30
0.0
  0
POINT
  5
1A4
330
196
100
AcDbEntity
  8
Defpoints
100
AcDbPoint
 10
200.0
 20
219.0
 30
0.0
  0
ENDBLK
  5
198
330
196
100
AcDbEntity
  8
0
100
AcDbBlockEnd
  0
BLOCK
  5
1A7
330
1A6
100
AcDbEntity
  8
0
100
AcDbBlockBegin
  2
*D19
 70
1
 10
0.0
 20
0.0
 30
0.0
  3
*D19
  1

  0
LINE
  5
1A9
330
1A6
100
AcDbEntity
  8
0
100
AcDbLine
 10
200.0
 20
225.0
 30
0.0
 11
241.0
 21
225.0
 31
0.0
  0
LINE
  5
1AA
330
1A6
100
AcDbEntity
  8
0
100
AcDbLine
 10
200.0
 20
163.0
 30
0.0
 11
241.0
 21
163.0
 31
0.0
  0
INSERT
  5
1AB
330
1A6
100
AcDbEntity
  8
DIMENSION
100
AcDbBlockReference
  2
_CLOSEDFILLED
 10
241.0
 20
225.0
 30
0.0
 41
0.25
 42
0.25
 50
270.0
  0
INSERT
  5
1AD
330
1A6
100
AcDbEntity
  8
DIMENSION
100
AcDbBlockReference
  2
_CLOSEDFILLED
 10
241.0
 20
163.0
 30
0.0
 41
0.25
 42
0.25
 50
90.0
  0
LINE
  5
1AF
330
1A6
100
AcDbEntity
  8
0
100
AcDbLine
 10
241.0
 20
225.25
 30
0.0
 11
241.0
 21
195.0
 31
0.0
  0
LINE
  5
1B0
330
1A6
100
AcDbEntity
  8
0
100
AcDbLine
 10
241.0
 20
193.0
 30
0.0
 11
241.0
 21
162.75
 31
0.0
  0
MTEXT
  5
1B1
330
1A6
100
AcDbEntity
  8
DIMENSION
100
AcDbMText
 10
241.0
 20
194.0
 30
0.0
 40
1.0
 71
5
  1
62
 50
90.0
  0
POINT
  5
1B2
330
1A6
100
AcDbEntity
  8
Defpoints
100
AcDbPoint
 10
241.0
 20
225.0
 30
0.0
  0
POINT
  5
1B3
330
1A6
100
AcDbEntity
  8
Defpoints
100
AcDbPoint
 10
200.0
 20
225.0
 30
0.0
  0
POINT
  5
1B4
330
1A6
100
AcDbEntity
  8
Defpoints
100
AcDbPoint
 10
200.0
 20
163.0
 30
0.0
  0
ENDBLK
  5
1A8
330
1A6
100
AcDbEntity
  8
0
100
AcDbBlockEnd
  0
BLOCK
  5
1B7
330
1B6
100
AcDbEntity
  8
0
100
AcDbBlockBegin
  2
*D20
 70
1
 10
0.0
 20
0.0
 30
0.0
  3
*D20
  1

  0
LINE
  5
1B9
330
1B6
100
AcDbEntity
  8
0
100
AcDbLine
 10
200.0
 20
225.0
 30
0.0
 11
249.0
 21
225.0
 31
0.0
  0
LINE
  5
1BA
330
1B6
100
AcDbEntity
  8
0
100
AcDbLine
 10
200.0
 20
50.0
 30
0.0
 11
249.0
 21
50.0
 31
0.0
  0
INSERT
  5
1BB
330
1B6
100
AcDbEntity
  8
DIMENSION
100
AcDbBlockReference
  2
_CLOSEDFILLED
 10
249.0
 20
225.0
 30
0.0
 41
0.25
 42
0.25
 50
270.0
  0
INSERT
  5
1BD
330
1B6
100
AcDbEntity
  8
DIMENSION
100
AcDbBlockReference
  2
_CLOSEDFILLED
 10
249.0
 20
50.0
 30
0.0
 41
0.25
 42
0.25
 50
90.0
  0
LINE
  5
1BF
330
1B6
100
AcDbEntity
  8
0
100
AcDbLine
 10
249.0
 20
225.25
 30
0.0
 11
249.0
 21
139.0
 31
0.0
  0
LINE
  5
1C0
330
1B6
100
AcDbEntity
  8
0
100
AcDbLine
 10
249.0
 20
136.0
 30
0.0
 11
249.0
 21
49.75
 31
0.0
  0
MTEXT
  5
1C1
330
1B6
100
AcDbEntity
  8
DIMENSION
100
AcDbMText
 10
249.0
 20
137.5
 30
0.0
 40
1.0
 71
5
  1
175
 50
90.0
  0
POINT
  5
1C2
330
1B6
100
AcDbEntity
  8
Defpoints
100
AcDbPoint
 10
249.0
 20
225.0
 30
0.0
  0
POINT
  5
1C3
330
1B6
100
AcDbEntity
  8
Defpoints
100
AcDbPoint
 10
200.0
 20
225.0
 30
0.0
  0
POINT
  5
1C4
330
1B6
100
AcDbEntity
  8
Defpoints
100
AcDbPoint
 10
200.0
 20
50.0
 30
0.0
  0
ENDBLK
  5
1B8
330
1B6
100
AcDbEntity
  8
0
100
AcDbBlockEnd
  0
BLOCK
  5
1C7
330
1C6
100
AcDbEntity
  8
0
100
AcDbBlockBegin
  2
*D21
 70
1
 10
0.0
 20
0.0
 30
0.0
  3
*D21
  1

  0
LINE
  5
1C9
330
1C6
100
AcDbEntity
  8
0
100
AcDbLine
 10
200.0
 20
225.0
 30
0.0
 11
257.0
 21
225.0
 31
0.0
  0
LINE
  5
1CA
330
1C6
100
AcDbEntity
  8
0
100
AcDbLine
 10
200.0
 20
35.0
 30
0.0
 11
257.0
 21
35.0
 31
0.0
  0
INSERT
  5
1CB
330
1C6
100
AcDbEntity
  8
DIMENSION
100
AcDbBlockReference
  2
_CLOSEDFILLED
 10
257.0
 20
225.0
 30
0.0
 41
0.25
 42
0.25
 50
270.0
  0
INSERT
  5
1CD
330
1C6
100
AcDbEntity
  8
DIMENSION
100
AcDbBlockReference
  2
_CLOSEDFILLED
 10
257.0
 20
35.0
 30
0.0
 41
0.25
 42
0.25
 50
90.0
  0
LINE
  5
1CF
330
1C6
100
AcDbEntity
  8
0
100
AcDbLine
 10
257.0
 20
225.25
 30
0.0
 11
257.0
 21
131.5
 31
0.0
  0
LINE
  5
1D0
330
1C6
100
AcDbEntity
  8
0
100
AcDbLine
 10
257.0
 20
128.5
 30
0.0
 11
257.0
 21
34.75
 31
0.0
  0
MTEXT
  5
1D1
330
1C6
100
AcDbEntity
  8
DIMENSION
100
AcDbMText
 10
257.0
 20
130.0
 30
0.0
 40
1.0
 71
5
  1
190
 50
90.0
  0
POINT
  5
1D2
330
1C6
100
AcDbEntity
  8
Defpoints
100
AcDbPoint
 10
257.0
 20
225.0
 30
0.0
  0
POINT
  5
1D3
330
1C6
100
AcDbEntity
  8
Defpoints
100
AcDbPoint
 10
200.0
 20
225.0
 30
0.0
  0
POINT
  5
1D4
330
1C6
100
AcDbEntity
  8
Defpoints
100
AcDbPoint
 10
200.0
 20
35.0
 30
0.0
  0
ENDBLK
  5
1C8
330
1C6
100
AcDbEntity
  8
0
100
AcDbBlockEnd
  0
BLOCK
  5
1D7
330
1D6
100
AcDbEntity
  8
0
100
AcDbBlockBegin
  2
*D22
 70
1
 10
0.0
 20
0.0
 30
0.0
  3
*D22
  1

  0
LINE
  5
1D9
330
1D6
100
AcDbEntity
  8
0
100
AcDbLine
 10
200.0
 20
225.0
 30
0.0
 11
265.0
 21
225.0
 31
0.0
  0
LINE
  5
1DA
330
1D6
100
AcDbEntity
  8
0
100
AcDbLine
 10
200.0
 20
0.0
 30
0.0
 11
265.0
 21
0.0
 31
0.0
  0
INSERT
  5
1DB
330
1D6
100
AcDbEntity
  8
DIMENSION
100
AcDbBlockReference
  2
_CLOSEDFILLED
 10
265.0
 20
225.0
 30
0.0
 41
0.25
 42
0.25
 50
270.0
  0
INSERT
  5
1DD
330
1D6
100
AcDbEntity
  8
DIMENSION
100
AcDbBlockReference
  2
_CLOSEDFILLED
 10
265.0
 20
0.0
 30
0.0
 41
0.25
 42
0.25
 50
90.0
  0
LINE
  5
1DF
330
1D6
100
AcDbEntity
  8
0
100
AcDbLine
 10
265.0
 20
225.25
 30
0.0
 11
265.0
 21
114.0
 31
0.0
  0
LINE
  5
1E0
330
1D6
100
AcDbEntity
  8
0
100
AcDbLine
 10
265.0
 20
111.00000000000001
 30
0.0
 11
265.0
 21
-0.25
 31
0.0
  0
MTEXT
  5
1E1
330
1D6
100
AcDbEntity
  8
DIMENSION
100
AcDbMText
 10
265.0
 20
112.5
 30
0.0
 40
1.0
 71
5
  1
225
 50
90.0
  0
POINT
  5
1E2
330
1D6
100
AcDbEntity
  8
Defpoints
100
AcDbPoint
 10
265.0
 20
225.0
 30
0.0
  0
POINT
  5
1E3
330
1D6
100
AcDbEntity
  8
Defpoints
100
AcDbPoint
 10
200.0
 20
225.0
 30
0.0
  0
POINT
  5
1E4
330
1D6
100
AcDbEntity
  8
Defpoints
100
AcDbPoint
 10
200.0
 20
0.0
 30
0.0
  0
ENDBLK
  5
1D8
330
1D6
100
AcDbEntity
  8
0
100
AcDbBlockEnd
  0
BLOCK
  5
1ED
330
1EC
100
AcDbEntity
  8
0
100
AcDbBlockBegin
  2
*Paper_Space0
 70
0
 10
0.0
 20
0.0
 30
0.0
  3
*Paper_Space0
  1

  0
VIEWPORT
  5
1F0
330
1EC
100
AcDbEntity
 67
1
  8
VIEWPORTS
100
AcDbViewport
 10
138.5
 20
95.0
 30
0.0
 40
326.70000000000005
 41
231.00000000000003
 68
1
 69
1
 12
138.5
 22
95.0
 13
0.0
 23
0.0
 14
10.0
 24
10.0
 15
10.0
 25
10.0
 16
0.0
 26
0.0
 36
1.0
 17
0.0
 27
0.0
 37
0.0
 42
50.0
 43
0.0
 44
0.0
 45
231.00000000000003
 50
0.0
 51
0.0
 72
100
 90
557088
  1

281
0
 71
0
 74
0
110
0.0
120
0.0
130
0.0
111
1.0
121
0.0
131
0.0
112
0.0
122
1.0
132
0.0
 79
0
146
0.0
  0
VIEWPORT
  5
1F1
330
1EC
100
AcDbEntity
 67
1
  8
VIEWPORTS
100
AcDbViewport
 10
148.5
 20
105.0
 30
0.0
 40
277.0
 41
190.0
 68
2
 69
3
 12
100.0
 22
112.5
 13
0.0
 23
0.0
 14
10.0
 24
10.0
 15
10.0
 25
10.0
 16
0.0
 26
0.0
 36
1.0
 17
0.0
 27
0.0
 37
0.0
 42
50.0
 43
0.0
 44
0.0
 45
247.50000000000003
 50
0.0
 51
0.0
 72
100
 90
0
  1

281
0
 71
0
 74
0
110
0.0
120
0.0
130
0.0
111
1.0
121
0.0
131
0.0
112
0.0
122
1.0
132
0.0
 79
0
146
0.0
  0
ENDBLK
  5
1EE
330
1EC
100
AcDbEntity
  8
0
100
AcDbBlockEnd
  0
ENDSEC
  0
SECTION
  2
ENTITIES
  0
TEXT
  5
33
330
17
100
AcDbEntity
  8
ANNOTATION
100
AcDbText
 10
150.0
 20
224.0
 30
0.0
 40
2.5
  1
d4.0 h12.0
100
AcDbText
  0
TEXT
  5
34
330
17
100
AcDbEntity
  8
ANNOTATION
100
AcDbText
 10
50.0
 20
224.0
 30
0.0
 40
2.5
  1
d4.0 h12.0
100
AcDbText
  0
TEXT
  5
35
330
17
100
AcDbEntity
  8
ANNOTATION
100
AcDbText
 10
194.0
 20
55.0
 30
0.0
 40
2.5
  1
d4.0 h12.0
100
AcDbText
  0
TEXT
  5
36
330
17
100
AcDbEntity
  8
ANNOTATION
100
AcDbText
 10
194.0
 20
168.0
 30
0.0
 40
2.5
  1
d4.0 h12.0
100
AcDbText
  0
LINE
  5
37
330
17
100
AcDbEntity
  8
DRILL
 62
5
100
AcDbLine
 10
147.0
 20
0.0
 30
0.0
 11
153.0
 21
0.0
 31
0.0
  0
LINE
  5
38
330
17
100
AcDbEntity
  8
DRILL
 62
5
100
AcDbLine
 10
150.0
 20
-3.0
 30
0.0
 11
150.0
 21
3.0
 31
0.0
  0
TEXT
  5
39
330
17
100
AcDbEntity
  8
ANNOTATION
100
AcDbText
 10
150.0
 20
5.0
 30
0.0
 40
2.5
  1
d6.0 h20.0 z6.0
100
AcDbText
  0
LINE
  5
3A
330
17
100
AcDbEntity
  8
DRILL
 62
5
100
AcDbLine
 10
47.0
 20
0.0
 30
0.0
 11
53.0
 21
0.0
 31
0.0
  0
LINE
  5
3B
330
17
100
AcDbEntity
  8
DRILL
 62
5
100
AcDbLine
 10
50.0
 20
-3.0
 30
0.0
 11
50.0
 21
3.0
 31
0.0
  0
TEXT
  5
3C
330
17
100
AcDbEntity
  8
ANNOTATION
100
AcDbText
 10
50.0
 20
5.0
 30
0.0
 40
2.5
  1
d6.0 h20.0 z6.0
100
AcDbText
  0
TEXT
  5
3D
330
17
100
AcDbEntity
  8
ANNOTATION
100
AcDbText
 10
127.5
 20
40.0
 30
0.0
 40
2.5
  1
d2.5 h2.0
100
AcDbText
  0
TEXT
  5
3E
330
17
100
AcDbEntity
  8
ANNOTATION
100
AcDbText
 10
127.5
 20
168.0
 30
0.0
 40
2.5
  1
d2.5 h2.0
100
AcDbText
  0
LWPOLYLINE
  5
3F
330
17
100
AcDbEntity
  8
CUT
100
AcDbPolyline
 90
4
 70
1
 10
0.0
 20
0.0
 10
200.0
 20
0.0
 10
200.0
 20
225.0
 10
0.0
 20
225.0
  0
LWPOLYLINE
  5
40
330
17
100
AcDbEntity
  8
DRILL
100
AcDbPolyline
 90
16
 70
1
 10
48.0
 20
219.0
 10
48.1522
 20
219.765
 10
48.5858
 20
220.414
 10
49.2346
 20
220.848
 10
50.0
 20
221.0
 10
50.7654
 20
220.848
 10
51.4142
 20
220.414
 10
51.8478
 20
219.765
 10
52.0
 20
219.0
 10
51.8478
 20
218.235
 10
51.4142
 20
217.586
 10
50.7654
 20
217.152
 10
50.0
 20
217.0
 10
49.2346
 20
217.152
 10
48.5858
 20
217.586
 10
48.1522
 20
218.235
  0
LWPOLYLINE
  5
41
330
17
100
AcDbEntity
  8
DRILL
100
AcDbPolyline
 90
16
 70
1
 10
126.25
 20
35.0
 10
126.345
 20
35.4784
 10
126.616
 20
35.8839
 10
127.022
 20
36.1548
 10
127.5
 20
36.25
 10
127.978
 20
36.1548
 10
128.384
 20
35.8839
 10
128.655
 20
35.4784
 10
128.75
 20
35.0
 10
128.655
 20
34.5216
 10
128.384
 20
34.1161
 10
127.978
 20
33.8451
 10
127.5
 20
33.75
 10
127.022
 20
33.8451
 10
126.616
 20
34.1161
 10
126.345
 20
34.5216
  0
LWPOLYLINE
  5
42
330
17
100
AcDbEntity
  8
DRILL
100
AcDbPolyline
 90
16
 70
1
 10
126.25
 20
163.0
 10
126.345
 20
163.478
 10
126.616
 20
163.884
 10
127.022
 20
164.155
 10
127.5
 20
164.25
 10
127.978
 20
164.155
 10
128.384
 20
163.884
 10
128.655
 20
163.478
 10
128.75
 20
163.0
 10
128.655
 20
162.522
 10
128.384
 20
162.116
 10
127.978
 20
161.845
 10
127.5
 20
161.75
 10
127.022
 20
161.845
 10
126.616
 20
162.116
 10
126.345
 20
162.522
  0
LWPOLYLINE
  5
43
330
17
100
AcDbEntity
  8
DRILL
100
AcDbPolyline
 90
16
 70
1
 10
148.0
 20
219.0
 10
148.152
 20
219.765
 10
148.586
 20
220.414
 10
149.235
 20
220.848
 10
150.0
 20
221.0
 10
150.765
 20
220.848
 10
151.414
 20
220.414
 10
151.848
 20
219.765
 10
152.0
 20
219.0
 10
151.848
 20
218.235
 10
151.414
 20
217.586
 10
150.765
 20
217.152
 10
150.0
 20
217.0
 10
149.235
 20
217.152
 10
148.586
 20
217.586
 10
148.152
 20
218.235
  0
LWPOLYLINE
  5
44
330
17
100
AcDbEntity
  8
DRILL
100
AcDbPolyline
 90
16
 70
1
 10
192.0
 20
50.0
 10
192.152
 20
50.7654
 10
192.586
 20
51.4142
 10
193.235
 20
51.8478
 10
194.0
 20
52.0
 10
194.765
 20
51.8478
 10
195.414
 20
51.4142
 10
195.848
 20
50.7654
 10
196.0
 20
50.0
 10
195.848
 20
49.2346
 10
195.414
 20
48.5858
 10
194.765
 20
48.1522
 10
194.0
 20
48.0
 10
193.235
 20
48.1522
 10
192.586
 20
48.5858
 10
192.152
 20
49.2346
  0
LWPOLYLINE
  5
45
330
17
100
AcDbEntity
  8
DRILL
100
AcDbPolyline
 90
16
 70
1
 10
192.0
 20
163.0
 10
192.152
 20
163.765
 10
192.586
 20
164.414
 10
193.235
 20
164.848
 10
194.0
 20
165.0
 10
194.765
 20
164.848
 10
195.414
 20
164.414
 10
195.848
 20
163.765
 10
196.0
 20
163.0
 10
195.848
 20
162.235
 10
195.414
 20
161.586
 10
194.765
 20
161.152
 10
194.0
 20
161.0
 10
193.235
 20
161.152
 10
192.586
 20
161.586
 10
192.152
 20
162.235
  0
TEXT
  5
46
330
17
100
AcDbEntity
  8
ANNOTATION
100
AcDbText
 10
220.0
 20
225.0
 30
0.0
 40
3.75
  1
Hole Schedule
100
AcDbText
  0
TEXT
  5
47
330
17
100
AcDbEntity
  8
ANNOTATION
100
AcDbText
 10
220.0
 20
217.5
 30
0.0
 40
2.5
  1
Hole Name
100
AcDbText
  0
TEXT
  5
48
330
17
100
AcDbEntity
  8
ANNOTATION
100
AcDbText
 10
260.0
 20
217.5
 30
0.0
 40
2.5
  1
X
100
AcDbText
  0
TEXT
  5
49
330
17
100
AcDbEntity
  8
ANNOTATION
100
AcDbText
 10
280.0
 20
217.5
 30
0.0
 40
2.5
  1
Y
100
AcDbText
  0
TEXT
  5
4A
330
17
100
AcDbEntity
  8
ANNOTATION
100
AcDbText
 10
300.0
 20
217.5
 30
0.0
 40
2.5
  1
Z
100
AcDbText
  0
TEXT
  5
4B
330
17
100
AcDbEntity
  8
ANNOTATION
100
AcDbText
 10
320.0
 20
217.5
 30
0.0
 40
2.5
  1
Dia
100
AcDbText
  0
TEXT
  5
4C
330
17
100
AcDbEntity
  8
ANNOTATION
100
AcDbText
 10
340.0
 20
217.5
 30
0.0
 40
2.5
  1
Depth
100
AcDbText
  0
LINE
  5
4D
330
17
100
AcDbEntity
  8
ANNOTATION
100
AcDbLine
 10
220.0
 20
216.25
 30
0.0
 11
360.0
 21
216.25
 31
0.0
  0
TEXT
  5
4E
330
17
100
AcDbEntity
  8
ANNOTATION
100
AcDbText
 10
220.0
 20
211.875
 30
0.0
 40
2.5
  1
back_panel_1
100
AcDbText
  0
TEXT
  5
4F
330
17
100
AcDbEntity
  8
ANNOTATION
100
AcDbText
 10
260.0
 20
211.875
 30
0.0
 40
2.5
  1
150.0
100
AcDbText
  0
TEXT
  5
50
330
17
100
AcDbEntity
  8
ANNOTATION
100
AcDbText
 10
280.0
 20
211.875
 30
0.0
 40
2.5
  1
219.0
100
AcDbText
  0
TEXT
  5
51
330
17
100
AcDbEntity
  8
ANNOTATION
100
AcDbText
 10
300.0
 20
211.875
 30
0.0
 40
2.5
  1
0.0
100
AcDbText
  0
TEXT
  5
52
330
17
100
AcDbEntity
  8
ANNOTATION
100
AcDbText
 10
320.0
 20
211.875
 30
0.0
 40
2.5
  1
4.0
100
AcDbText
  0
TEXT
  5
53
330
17
100
AcDbEntity
  8
ANNOTATION
100
AcDbText
 10
340.0
 20
211.875
 30
0.0
 40
2.5
  1
12.0
100
AcDbText
  0
TEXT
  5
54
330
17
100
AcDbEntity
  8
ANNOTATION
100
AcDbText
 10
220.0
 20
208.125
 30
0.0
 40
2.5
  1
back_panel_2
100
AcDbText
  0
TEXT
  5
55
330
17
100
AcDbEntity
  8
ANNOTATION
100
AcDbText
 10
260.0
 20
208.125
 30
0.0
 40
2.5
  1
50.0
100
AcDbText
  0
TEXT
  5
56
330
17
100
AcDbEntity
  8
ANNOTATION
100
AcDbText
 10
280.0
 20
208.125
 30
0.0
 40
2.5
  1
219.0
100
AcDbText
  0
TEXT
  5
57
330
17
100
AcDbEntity
  8
ANNOTATION
100
AcDbText
 10
300.0
 20
208.125
 30
0.0
 40
2.5
  1
0.0
100
AcDbText
  0
TEXT
  5
58
330
17
100
AcDbEntity
  8
ANNOTATION
100
AcDbText
 10
320.0
 20
208.125
 30
0.0
 40
2.5
  1
4.0
100
AcDbText
  0
TEXT
  5
59
330
17
100
AcDbEntity
  8
ANNOTATION
100
AcDbText
 10
340.0
 20
208.125
 30
0.0
 40
2.5
  1
12.0
100
AcDbText
  0
TEXT
  5
5A
330
17
100
AcDbEntity
  8
ANNOTATION
100
AcDbText
 10
220.0
 20
204.375
 30
0.0
 40
2.5
  1
bottom_panel_1
100
AcDbText
  0
TEXT
  5
5B
330
17
100
AcDbEntity
  8
ANNOTATION
100
AcDbText
 10
260.0
 20
204.375
 30
0.0
 40
2.5
  1
194.0
100
AcDbText
  0
TEXT
  5
5C
330
17
100
AcDbEntity
  8
ANNOTATION
100
AcDbText
 10
280.0
 20
204.375
 30
0.0
 40
2.5
  1
50.0
100
AcDbText
  0
TEXT
  5
5D
330
17
100
AcDbEntity
  8
ANNOTATION
100
AcDbText
 10
300.0
 20
204.375
 30
0.0
 40
2.5
  1
0.0
100
AcDbText
  0
TEXT
  5
5E
330
17
100
AcDbEntity
  8
ANNOTATION
100
AcDbText
 10
320.0
 20
204.375
 30
0.0
 40
2.5
  1
4.0
100
AcDbText
  0
TEXT
  5
5F
330
17
100
AcDbEntity
  8
ANNOTATION
100
AcDbText
 10
340.0
 20
204.375
 30
0.0
 40
2.5
  1
12.0
100
AcDbText
  0
TEXT
  5
60
330
17
100
AcDbEntity
  8
ANNOTATION
100
AcDbText
 10
220.0
 20
200.625
 30
0.0
 40
2.5
  1
bottom_panel_2
100
AcDbText
  0
TEXT
  5
61
330
17
100
AcDbEntity
  8
ANNOTATION
100
AcDbText
 10
260.0
 20
200.625
 30
0.0
 40
2.5
  1
194.0
100
AcDbText
  0
TEXT
  5
62
330
17
100
AcDbEntity
  8
ANNOTATION
100
AcDbText
 10
280.0
 20
200.625
 30
0.0
 40
2.5
  1
163.0
100
AcDbText
  0
TEXT
  5
63
330
17
100
AcDbEntity
  8
ANNOTATION
100
AcDbText
 10
300.0
 20
200.625
 30
0.0
 40
2.5
  1
0.0
100
AcDbText
  0
TEXT
  5
64
330
17
100
AcDbEntity
  8
ANNOTATION
100
AcDbText
 10
320.0
 20
200.625
 30
0.0
 40
2.5
  1
4.0
100
AcDbText
  0
TEXT
  5
65
330
17
100
AcDbEntity
  8
ANNOTATION
100
AcDbText
 10
340.0
 20
200.625
 30
0.0
 40
2.5
  1
12.0
100
AcDbText
  0
TEXT
  5
66
330
17
100
AcDbEntity
  8
ANNOTATION
100
AcDbText
 10
220.0
 20
196.875
 30
0.0
 40
2.5
  1
dowel_front_1
100
AcDbText
  0
TEXT
  5
67
330
17
100
AcDbEntity
  8
ANNOTATION
100
AcDbText
 10
260.0
 20
196.875
 30
0.0
 40
2.5
  1
150.0
100
AcDbText
  0
TEXT
  5
68
330
17
100
AcDbEntity
  8
ANNOTATION
100
AcDbText
 10
280.0
 20
196.875
 30
0.0
 40
2.5
  1
0.0
100
AcDbText
  0
TEXT
  5
69
330
17
100
AcDbEntity
  8
ANNOTATION
100
AcDbText
 10
300.0
 20
196.875
 30
0.0
 40
2.5
  1
6.0
100
AcDbText
  0
TEXT
  5
6A
330
17
100
AcDbEntity
  8
ANNOTATION
100
AcDbText
 10
320.0
 20
196.875
 30
0.0
 40
2.5
  1
6.0
100
AcDbText
  0
TEXT
  5
6B
330
17
100
AcDbEntity
  8
ANNOTATION
100
AcDbText
 10
340.0
 20
196.875
 30
0.0
 40
2.5
  1
20.0
100
AcDbText
  0
TEXT
  5
6C
330
17
100
AcDbEntity
  8
ANNOTATION
100
AcDbText
 10
220.0
 20
193.125
 30
0.0
 40
2.5
  1
dowel_front_2
100
AcDbText
  0
TEXT
  5
6D
330
17
100
AcDbEntity
  8
ANNOTATION
100
AcDbText
 10
260.0
 20
193.125
 30
0.0
 40
2.5
  1
50.0
100
AcDbText
  0
TEXT
  5
6E
330
17
100
AcDbEntity
  8
ANNOTATION
100
AcDbText
 10
280.0
 20
193.125
 30
0.0
 40
2.5
  1
0.0
100
AcDbText
  0
TEXT
  5
6F
330
17
100
AcDbEntity
  8
ANNOTATION
100
AcDbText
 10
300.0
 20
193.125
 30
0.0
 40
2.5
  1
6.0
100
AcDbText
  0
TEXT
  5
70
330
17
100
AcDbEntity
  8
ANNOTATION
100
AcDbText
 10
320.0
 20
193.125
 30
0.0
 40
2.5
  1
6.0
100
AcDbText
  0
TEXT
  5
71
330
17
100
AcDbEntity
  8
ANNOTATION
100
AcDbText
 10
340.0
 20
193.125
 30
0.0
 40
2.5
  1
20.0
100
AcDbText
  0
TEXT
  5
72
330
17
100
AcDbEntity
  8
ANNOTATION
100
AcDbText
 10
220.0
 20
189.375
 30
0.0
 40
2.5
  1
slide_pilot_35
100
AcDbText
  0
TEXT
  5
73
330
17
100
AcDbEntity
  8
ANNOTATION
100
AcDbText
 10
260.0
 20
189.375
 30
0.0
 40
2.5
  1
127.5
100
AcDbText
  0
TEXT
  5
74
330
17
100
AcDbEntity
  8
ANNOTATION
100
AcDbText
 10
280.0
 20
189.375
 30
0.0
 40
2.5
  1
35.0
100
AcDbText
  0
TEXT
  5
75
330
17
100
AcDbEntity
  8
ANNOTATION
100
AcDbText
 10
300.0
 20
189.375
 30
0.0
 40
2.5
  1
0.0
100
AcDbText
  0
TEXT
  5
76
330
17
100
AcDbEntity
  8
ANNOTATION
100
AcDbText
 10
320.0
 20
189.375
 30
0.0
 40
2.5
  1
2.5
100
AcDbText
  0
TEXT
  5
77
330
17
100
AcDbEntity
  8
ANNOTATION
100
AcDbText
 10
340.0
 20
189.375
 30
0.0
 40
2.5
  1
2.0
100
AcDbText
  0
TEXT
  5
78
330
17
100
AcDbEntity
  8
ANNOTATION
100
AcDbText
 10
220.0
 20
185.625
 30
0.0
 40
2.5
  1
slide_pilot_163
100
AcDbText
  0
TEXT
  5
79
330
17
100
AcDbEntity
  8
ANNOTATION
100
AcDbText
 10
260.0
 20
185.625
 30
0.0
 40
2.5
  1
127.5
100
AcDbText
  0
TEXT
  5
7A
330
17
100
AcDbEntity
  8
ANNOTATION
100
AcDbText
 10
280.0
 20
185.625
 30
0.0
 40
2.5
  1
163.0
100
AcDbText
  0
TEXT
  5
7B
330
17
100
AcDbEntity
  8
ANNOTATION
100
AcDbText
 10
300.0
 20
185.625
 30
0.0
 40
2.5
  1
0.0
100
AcDbText
  0
TEXT
  5
7C
330
17
100
AcDbEntity
  8
ANNOTATION
100
AcDbText
 10
320.0
 20
185.625
 30
0.0
 40
2.5
  1
2.5
100
AcDbText
  0
TEXT
  5
7D
330
17
100
AcDbEntity
  8
ANNOTATION
100
AcDbText
 10
340.0
 20
185.625
 30
0.0
 40
2.5
  1
2.0
100
AcDbText
  0
DIMENSION
  5
7E
330
17
100
AcDbEntity
  8
DIMENSION
100
AcDbDimension
  2
*D1
  3
Standard
 10
0.0
 20
-25.0
 30
0.0
 11
25.0
 21
-25.0
 31
0.0
 70
32
 71
5
  1
<>
100
AcDbAlignedDimension
 13
0.0
 23
0.0
 33
0.0
 14
50.0
 24
0.0
 34
0.0
 50
0.0
100
AcDbRotatedDimension
  0
DIMENSION
  5
92
330
17
100
AcDbEntity
  8
DIMENSION
100
AcDbDimension
  2
*D2
  3
Standard
 10
0.0
 20
-33.0
 30
0.0
 11
63.75
 21
-33.0
 31
0.0
 70
32
 71
5
  1
<>
100
AcDbAlignedDimension
 13
0.0
 23
0.0
 33
0.0
 14
127.5
 24
0.0
 34
0.0
 50
0.0
100
AcDbRotatedDimension
  0
DIMENSION
  5
A2
330
17
100
AcDbEntity
  8
DIMENSION
100
AcDbDimension
  2
*D3
  3
Standard
 10
0.0
 20
-41.0
 30
0.0
 11
75.0
 21
-41.0
 31
0.0
 70
32
 71
5
  1
<>
100
AcDbAlignedDimension
 13
0.0
 23
0.0
 33
0.0
 14
150.0
 24
0.0
 34
0.0
 50
0.0
100
AcDbRotatedDimension
  0
DIMENSION
  5
B2
330
17
100
AcDbEntity
  8
DIMENSION
100
AcDbDimension
  2
*D4
  3
Standard
 10
0.0
 20
-49.0
 30
0.0
 11
97.0
 21
-49.0
 31
0.0
 70
32
 71
5
  1
<>
100
AcDbAlignedDimension
 13
0.0
 23
0.0
 33
0.0
 14
194.0
 24
0.0
 34
0.0
 50
0.0
100
AcDbRotatedDimension
  0
DIMENSION
  5
C2
330
17
100
AcDbEntity
  8
DIMENSION
100
AcDbDimension
  2
*D5
  3
Standard
 10
0.0
 20
-57.0
 30
0.0
 11
100.0
 21
-57.0
 31
0.0
 70
32
 71
5
  1
<>
100
AcDbAlignedDimension
 13
0.0
 23
0.0
 33
0.0
 14
200.0
 24
0.0
 34
0.0
 50
0.0
100
AcDbRotatedDimension
  0
DIMENSION
  5
D2
330
17
100
AcDbEntity
  8
DIMENSION
100
AcDbDimension
  2
*D6
  3
Standard
 10
200.0
 20
250.0
 30
0.0
 11
200.0
 21
251.125
 31
0.0
 70
32
 71
5
  1
<>
100
AcDbAlignedDimension
 13
200.0
 23
225.0
 33
0.0
 14
200.0
 24
225.0
 34
0.0
 50
0.0
100
AcDbRotatedDimension
  0
DIMENSION
  5
E3
330
17
100
AcDbEntity
  8
DIMENSION
100
AcDbDimension
  2
*D7
  3
Standard
 10
200.0
 20
258.0
 30
0.0
 11
197.0
 21
258.0
 31
0.0
 70
32
 71
5
  1
<>
100
AcDbAlignedDimension
 13
200.0
 23
225.0
 33
0.0
 14
194.0
 24
225.0
 34
0.0
 50
0.0
100
AcDbRotatedDimension
  0
DIMENSION
  5
F3
330
17
100
AcDbEntity
  8
DIMENSION
100
AcDbDimension
  2
*D8
  3
Standard
 10
200.0
 20
266.0
 30
0.0
 11
175.0
 21
266.0
 31
0.0
 70
32
 71
5
  1
<>
100
AcDbAlignedDimension
 13
200.0
 23
225.0
 33
0.0
 14
150.0
 24
225.0
 34
0.0
 50
0.0
100
AcDbRotatedDimension
  0
DIMENSION
  5
103
330
17
100
AcDbEntity
  8
DIMENSION
100
AcDbDimension
  2
*D9
  3
Standard
 10
200.0
 20
274.0
 30
0.0
 11
163.75
 21
274.0
 31
0.0
 70
32
 71
5
  1
<>
100
AcDbAlignedDimension
 13
200.0
 23
225.0
 33
0.0
 14
127.5
 24
225.0
 34
0.0
 50
0.0
100
AcDbRotatedDimension
  0
DIMENSION
  5
113
330
17
100
AcDbEntity
  8
DIMENSION
100
AcDbDimension
  2
*D10
  3
Standard
 10
200.0
 20
282.0
 30
0.0
 11
125.0
 21
282.0
 31
0.0
 70
32
 71
5
  1
<>
100
AcDbAlignedDimension
 13
200.0
 23
225.0
 33
0.0
 14
50.0
 24
225.0
 34
0.0
 50
0.0
100
AcDbRotatedDimension
  0
DIMENSION
  5
123
330
17
100
AcDbEntity
  8
DIMENSION
100
AcDbDimension
  2
*D11
  3
Standard
 10
-25.0
 20
0.0
 30
0.0
 11
-26.125
 21
6.888638245203862e-17
 31
0.0
 70
32
 71
5
  1
<>
100
AcDbAlignedDimension
 13
0.0
 23
0.0
 33
0.0
 14
0.0
 24
0.0
 34
0.0
 50
90.0
100
AcDbRotatedDimension
  0
DIMENSION
  5
134
330
17
100
AcDbEntity
  8
DIMENSION
100
AcDbDimension
  2
*D12
  3
Standard
 10
-33.0
 20
0.0
 30
0.0
 11
-33.0
 21
17.5
 31
0.0
 70
32
 71
5
  1
<>
100
AcDbAlignedDimension
 13
0.0
 23
0.0
 33
0.0
 14
0.0
 24
35.0
 34
0.0
 50
90.0
100
AcDbRotatedDimension
  0
DIMENSION
  5
144
330
17
100
AcDbEntity
  8
DIMENSION
100
AcDbDimension
  2
*D13
  3
Standard
 10
-41.0
 20
0.0
 30
0.0
 11
-41.0
 21
25.0
 31
0.0
 70
32
 71
5
  1
<>
100
AcDbAlignedDimension
 13
0.0
 23
0.0
 33
0.0
 14
0.0
 24
50.0
 34
0.0
 50
90.0
100
AcDbRotatedDimension
  0
DIMENSION
  5
154
330
17
100
AcDbEntity
  8
DIMENSION
100
AcDbDimension
  2
*D14
  3
Standard
 10
-49.0
 20
0.0
 30
0.0
 11
-49.0
 21
81.5
 31
0.0
 70
32
 71
5
  1
<>
100
AcDbAlignedDimension
 13
0.0
 23
0.0
 33
0.0
 14
0.0
 24
163.0
 34
0.0
 50
90.0
100
AcDbRotatedDimension
  0
DIMENSION
  5
164
330
17
100
AcDbEntity
  8
DIMENSION
100
AcDbDimension
  2
*D15
  3
Standard
 10
-57.0
 20
0.0
 30
0.0
 11
-57.0
 21
109.5
 31
0.0
 70
32
 71
5
  1
<>
100
AcDbAlignedDimension
 13
0.0
 23
0.0
 33
0.0
 14
0.0
 24
219.0
 34
0.0
 50
90.0
100
AcDbRotatedDimension
  0
DIMENSION
  5
174
330
17
100
AcDbEntity
  8
DIMENSION
100
AcDbDimension
  2
*D16
  3
Standard
 10
-65.0
 20
0.0
 30
0.0
 11
-65.0
 21
112.5
 31
0.0
 70
32
 71
5
  1
<>
100
AcDbAlignedDimension
 13
0.0
 23
0.0
 33
0.0
 14
0.0
 24
225.0
 34
0.0
 50
90.0
100
AcDbRotatedDimension
  0
DIMENSION
  5
184
330
17
100
AcDbEntity
  8
DIMENSION
100
AcDbDimension
  2
*D17
  3
Standard
 10
225.0
 20
225.0
 30
0.0
 11
223.875
 21
225.0
 31
0.0
 70
32
 71
5
  1
<>
100
AcDbAlignedDimension
 13
200.0
 23
225.0
 33
0.0
 14
200.0
 24
225.0
 34
0.0
 50
90.0
100
AcDbRotatedDimension
  0
DIMENSION
  5
195
330
17
100
AcDbEntity
  8
DIMENSION
100
AcDbDimension
  2
*D18
  3
Standard
 10
233.0
 20
225.0
 30
0.0
 11
233.0
 21
222.0
 31
0.0
 70
32
 71
5
  1
<>
100
AcDbAlignedDimension
 13
200.0
 23
225.0
 33
0.0
 14
200.0
 24
219.0
 34
0.0
 50
90.0
100
AcDbRotatedDimension
  0
DIMENSION
  5
1A5
330
17
100
AcDbEntity
  8
DIMENSION
100
AcDbDimension
  2
*D19
  3
Standard
 10
241.0
 20
225.0
 30
0.0
 11
241.0
 21
194.0
 31
0.0
 70
32
 71
5
  1
<>
100
AcDbAlignedDimension
 13
200.0
 23
225.0
 33
0.0
 14
200.0
 24
163.0
 34
0.0
 50
90.0
100
AcDbRotatedDimension
  0
DIMENSION
  5
1B5
330
17
100
AcDbEntity
  8
DIMENSION
100
AcDbDimension
  2
*D20
  3
Standard
 10
249.0
 20
225.0
 30
0.0
 11
249.0
 21
137.5
 31
0.0
 70
32
 71
5
  1
<>
100
AcDbAlignedDimension
 13
200.0
 23
225.0
 33
0.0
 14
200.0
 24
50.0
 34
0.0
 50
90.0
100
AcDbRotatedDimension
  0
DIMENSION
  5
1C5
330
17
100
AcDbEntity
  8
DIMENSION
100
AcDbDimension
  2
*D21
  3
Standard
 10
257.0
 20
225.0
 30
0.0
 11
257.0
 21
130.0
 31
0.0
 70
32
 71
5
  1
<>
100
AcDbAlignedDimension
 13
200.0
 23
225.0
 33
0.0
 14
200.0
 24
35.0
 34
0.0
 50
90.0
100
AcDbRotatedDimension
  0
DIMENSION
  5
1D5
330
17
100
AcDbEntity
  8
DIMENSION
100
AcDbDimension
  2
*D22
  3
Standard
 10
265.0
 20
225.0
 30
0.0
 11
265.0
 21
112.5
 31
0.0
 70
32
 71
5
  1
<>
100
AcDbAlignedDimension
 13
200.0
 23
225.0
 33
0.0
 14
200.0
 24
0.0
 34
0.0
 50
90.0
100
AcDbRotatedDimension
  0
TEXT
  5
1E5
330
17
100
AcDbEntity
  8
ANNOTATION
100
AcDbText
 10
0.0
 20
-20.0
 30
0.0
 40
5.0
  1
Legend:
100
AcDbText
  0
TEXT
  5
1E6
330
17
100
AcDbEntity
  8
ANNOTATION
100
AcDbText
 10
0.0
 20
-30.0
 30
0.0
 40
5.0
  1
- CUT layer (red): Panel outline
100
AcDbText
  0
TEXT
  5
1E7
330
17
100
AcDbEntity
  8
ANNOTATION
100
AcDbText
 10
0.0
 20
-40.0
 30
0.0
 40
5.0
  1
- DRILL layer (blue): Holes to be drilled
100
AcDbText
  0
TEXT
  5
1E8
330
17
100
AcDbEntity
  8
ANNOTATION
100
AcDbText
 10
0.0
 20
-50.0
 30
0.0
 40
5.0
  1
- DIMENSION layer (green): Panel and hole dimensions
100
AcDbText
  0
TEXT
  5
1E9
330
17
100
AcDbEntity
  8
ANNOTATION
100
AcDbText
 10
0.0
 20
-60.0
 30
0.0
 40
5.0
  1
- ANNOTATION layer (magenta): Hole dimensions (d=diameter, h=depth).
100
AcDbText
  0
TEXT
  5
1EA
330
17
100
AcDbEntity
  8
ANNOTATION
100
AcDbText
 10
0.0
 20
-70.0
 30
0.0
 40
5.0
  1
- For side-drilled holes, Z-coordinate is included (e.g., d10 h20 z9.5).
100
AcDbText
  0
TEXT
  5
1EB
330
17
100
AcDbEntity
  8
ANNOTATION
100
AcDbText
 10
0.0
 20
-80.0
 30
0.0
 40
5.0
  1
- Side-drilled holes are also marked with a blue cross on the DRILL layer.
100
AcDbText
  0
ENDSEC
  0
SECTION
  2
OBJECTS
  0
DICTIONARY
  5
A
330
0
100
AcDbDictionary
281
1
  3
ACAD_COLOR
350
B
  3
ACAD_GROUP
350
C
  3
ACAD_LAYOUT
350
D
  3
ACAD_MATERIAL
350
E
  3
ACAD_MLEADERSTYLE
350
F
  3
ACAD_MLINESTYLE
350
10
  3
ACAD_PLOTSETTINGS
350
11
  3
ACAD_PLOTSTYLENAME
350
12
  3
ACAD_SCALELIST
350
14
  3
ACAD_TABLESTYLE
350
15
  3
ACAD_VISUALSTYLE
350
16
  3
EZDXF_META
350
2D
  0
DICTIONARY
  5
B
330
A
100
AcDbDictionary
281
1
  0
DICTIONARY
  5
C
330
A
100
AcDbDictionary
281
1
  0
DICTIONARY
  5
D
330
A
100
AcDbDictionary
281
1
  3
Model
350
1A
  3
Layout1
350
1E
  3
A4 landscape
350
1EF
  0
DICTIONARY
  5
E
330
A
100
AcDbDictionary
281
1
  3
ByBlock
350
1F
  3
ByLayer
350
20
  3
Global
350
21
  0
DICTIONARY
  5
F
330
A
100
AcDbDictionary
281
1
  3
Standard
350
2C
  0
DICTIONARY
  5
10
330
A
100
AcDbDictionary
281
1
  3
Standard
350
22
  0
DICTIONARY
  5
11
330
A
100
AcDbDictionary
281
1
  0
ACDBDICTIONARYWDFLT
  5
12
330
A
100
AcDbDictionary
281
1
  3
Normal
350
13
100
AcDbDictionaryWithDefault
340
13
  0
ACDBPLACEHOLDER
  5
13
330
12
  0
DICTIONARY
  5
14
330
A
100
AcDbDictionary
281
1
  0
DICTIONARY
  5
15
330
A
100
AcDbDictionary
281
1
  0
DICTIONARY
  5
16
330
A
100
AcDbDictionary
281
1
  0
LAYOUT
  5
1A
330
D
100
AcDbPlotSettings
  1

  4
A3
  6

 40
7.5
 41
20.0
 42
7.5
 43
20.0
 44
420.0
 45
297.0
 46
0.0
 47
0.0
 48
0.0
 49
0.0
140
0.0
141
0.0
142
1.0
143
1.0
 70
1024
 72
1
 73
0
 74
5
  7

 75
16
 76
0
 77
2
 78
300
147
1.0
148
0.0
149
0.0
100
AcDbLayout
  1
Model
 70
1
 71
0
 10
0.0
 20
0.0
 11
420.0
 21
297.0
 12
0.0
 22
0.0
 32
0.0
 14
1e+20
 24
1e+20
 34
1e+20
 15
-1e+20
 25
-1e+20
 35
-1e+20
146
0.0
 13
0.0
 23
0.0
 33
0.0
 16
1.0
 26
0.0
 36
0.0
 17
0.0
 27
1.0
 37
0.0
 76
1
330
17
  0
LAYOUT
  5
1E
330
D
100
AcDbPlotSettings
  1

  4
A3
  6

 40
7.5
 41
20.0
 42
7.5
 43
20.0
 44
420.0
 45
297.0
 46
0.0
 47
0.0
 48
0.0
 49
0.0
140
0.0
141
0.0
142
1.0
143
1.0
 70
0
 72
1
 73
0
 74
5
  7

 75
16
 76
0
 77
2
 78
300
147
1.0
148
0.0
149
0.0
100
AcDbLayout
  1
Layout1
 70
1
 71
1
 10
0.0
 20
0.0
 11
420.0
 21
297.0
 12
0.0
 22
0.0
 32
0.0
 14
1e+20
 24
1e+20
 34
1e+20
 15
-1e+20
 25
-1e+20
 35
-1e+20
146
0.0
 13
0.0
 23
0.0
 33
0.0
 16
1.0
 26
0.0
 36
0.0
 17
0.0
 27
1.0
 37
0.0
 76
1
330
1B
  0
MATERIAL
  5
1F
102
{ACAD_REACTORS
330
E
102
}
330
E
100
AcDbMaterial
  1
ByBlock
  2

 70
0
 40
1.0
 71
1
 41
1.0
 91
-1023410177
 42
1.0
 72
1
  3

 73
1
 74
1
 75
1
 44
0.5
 73
0
 45
1.0
 46
1.0
 77
1
  4

 78
1
 79
1
170
1
 48
1.0
171
1
  6

172
1
173
1
174
1
140
1.0
141
1.0
175
1
  7

176
1
177
1
178
1
143
1.0
179
1
  8

270
1
271
1
272
1
145
1.0
146
1.0
273
1
  9

274
1
275
1
276
1
 42
1.0
 72
1
  3

 73
1
 74
1
 75
1
 94
63
  0
MATERIAL
  5
20
102
{ACAD_REACTORS
330
E
102
}
330
E
100
AcDbMaterial
  1
ByLayer
  2

 70
0
 40
1.0
 71
1
 41
1.0
 91
-1023410177
 42
1.0
 72
1
  3

 73
1
 74
1
 75
1
 44
0.5
 73
0
 45
1.0
 46
1.0
 77
1
  4

 78
1
 79
1
170
1
 48
1.0
171
1
  6

172
1
173
1
174
1
140
1.0
141
1.0
175
1
  7

176
1
177
1
178
1
143
1.0
179
1
  8

270
1
271
1
272
1
145
1.0
146
1.0
273
1
  9

274
1
275
1
276
1
 42
1.0
 72
1
  3

 73
1
 74
1
 75
1
 94
63
  0
MATERIAL
  5
21
102
{ACAD_REACTORS
330
E
102
}
330
E
100
AcDbMaterial
  1
Global
  2

 70
0
 40
1.0
 71
1
 41
1.0
 91
-1023410177
 42
1.0
 72
1
  3

 73
1
 74
1
 75
1
 44
0.5
 73
0
 45
1.0
 46
1.0
 77
1
  4

 78
1
 79
1
170
1
 48
1.0
171
1
  6

172
1
173
1
174
1
140
1.0
141
1.0
175
1
  7

176
1
177
1
178
1
143
1.0
179
1
  8

270
1
271
1
272
1
145
1.0
146
1.0
273
1
  9

274
1
275
1
276
1
 42
1.0
 72
1
  3

 73
1
 74
1
 75
1
 94
63
  0
MLINESTYLE
  5
22
102
{ACAD_REACTORS
330
10
102
}
330
10
100
AcDbMlineStyle
  2
Standard
 70
0
  3

 62
256
 51
90.0
 52
90.0
 71
2
 49
0.5
 62
256
  6
BYLAYER
 49
-0.5
 62
256
  6
BYLAYER
  0
MLEADERSTYLE
  5
2C
102
{ACAD_REACTORS
330
F
102
}
330
F
100
AcDbMLeaderStyle
179
2
170
2
171
1
172
0
 90
2
 40
0.0
 41
0.0
173
1
 91
-1056964608
 92
-2
290
1
 42
2.0
291
1
 43
8.0
  3
Standard
 44
4.0
300

342
29
174
1
175
1
176
0
178
1
 93
-1056964608
 45
4.0
292
0
297
0
 46
4.0
 94
-1056964608
 47
1.0
 49
1.0
140
1.0
294
1
141
0.0
177
0
142
1.0
295
0
296
0
143
3.75
271
0
272
9
273
9
  0
DICTIONARY
  5
2D
330
A
100
AcDbDictionary
280
1
281
1
  3
CREATED_BY_EZDXF
350
2E
  3
WRITTEN_BY_EZDXF
350
1F4
  0
DICTIONARYVAR
  5
2E
330
2D
100
DictionaryVariables
280
0
  1
1.4.2 @ 2025-08-25T15:15:25.857047+00:00
  0
LAYOUT
  5
1EF
330
D
100
AcDbPlotSettings
  1

  2
DWG to PDF.pc3
  4
ezdxf_(297.00_x_210.00_MM)
  6

 40
10.0
 41
10.0
 42
10.0
 43
10.0
 44
297.0
 45
210.0
 46
0.0
 47
0.0
 48
0.0
 49
0.0
140
0.0
141
0.0
142
1.0
143
1.0
 70
672
 72
1
 73
0
 74
5
  7

 75
16
 76
0
 77
2
 78
300
147
1.0
148
0.0
149
0.0
100
AcDbLayout
  1
A4 landscape
 70
1
 71
3
 10
-10.0
 20
-10.0
 11
287.0
 21
200.0
 12
0.0
 22
0.0
 32
0.0
 14
1e+20
 24
1e+20
 34
1e+20
 15
-1e+20
 25
-1e+20
 35
-1e+20
146
0.0
 13
0.0
 23
0.0
 33
0.0
 16
1.0
 26
0.0
 36
0.0
 17
0.0
 27
1.0
 37
0.0
 76
1
330
1EC
331
1F0
  0
DICTIONARYVAR
  5
1F4
330
2D
100
DictionaryVariables
280
0
  1
1.4.2 @ 2025-08-25T15:15:25.890727+00:00
  0
ENDSEC
  0
EOF
