999
DXF from OpenSCAD
  0
SECTION
  2
HEADER
  9
$ACADVER
  1
AC1006
  9
$INSBASE
 10
0.0
 20
0.0
 30
0.0
  9
$EXTMIN
 10
0
 20
-200
  9
$EXTMAX
 10
712
 20
2.22507e-308
  9
$LINMIN
 10
0
 20
-200
  9
$LINMAX
 10
712
 20
2.22507e-308
  0
ENDSEC
  0
SECTION
  2
TABLES
  0
TABLE
  2
LTYPE
 70
1
  0
LTYPE
  2
CONTINUOUS
 70
64
  3
Solid line
 72
65
 73
0
 40
0.000000
  0
ENDTAB
  0
TABLE
  2
LAYER
 70
6
  0
LAYER
  2
0
 70
64
 62
7
  6
CONTINUOUS
  0
ENDTAB
  0
TABLE
  2
STYLE
 70
0
  0
ENDTAB
  0
ENDSEC
  0
SECTION
  2
BLOCKS
  0
ENDSEC
  0
SECTION
  2
ENTITIES
  0
LWPOLYLINE
100
AcDbEntity
  8
0
100
AcDbPolyline
 90
4
 70
1
 10
0
 20
-200
 10
712
 20
-200
 10
712
 20
0
 10
0
 20
0
  0
LWPOLYLINE
100
AcDbEntity
  8
0
100
AcDbPolyline
 90
16
 70
1
 10
48
 20
-6
 10
48.1522
 20
-5.23463
 10
48.5858
 20
-4.58579
 10
49.2346
 20
-4.15224
 10
50
 20
-4
 10
50.7654
 20
-4.15224
 10
51.4142
 20
-4.58579
 10
51.8478
 20
-5.23463
 10
52
 20
-6
 10
51.8478
 20
-6.76537
 10
51.4142
 20
-7.41421
 10
50.7654
 20
-7.84776
 10
50
 20
-8
 10
49.2346
 20
-7.84776
 10
48.5858
 20
-7.41421
 10
48.1522
 20
-6.76537
  0
LWPOLYLINE
100
AcDbEntity
  8
0
100
AcDbPolyline
 90
16
 70
1
 10
354
 20
-6
 10
354.152
 20
-5.23463
 10
354.586
 20
-4.58579
 10
355.235
 20
-4.15224
 10
356
 20
-4
 10
356.765
 20
-4.15224
 10
357.414
 20
-4.58579
 10
357.848
 20
-5.23463
 10
358
 20
-6
 10
357.848
 20
-6.76537
 10
357.414
 20
-7.41421
 10
356.765
 20
-7.84776
 10
356
 20
-8
 10
355.235
 20
-7.84776
 10
354.586
 20
-7.41421
 10
354.152
 20
-6.76537
  0
LWPOLYLINE
100
AcDbEntity
  8
0
100
AcDbPolyline
 90
16
 70
1
 10
660
 20
-6
 10
660.152
 20
-5.23463
 10
660.586
 20
-4.58579
 10
661.235
 20
-4.15224
 10
662
 20
-4
 10
662.765
 20
-4.15224
 10
663.414
 20
-4.58579
 10
663.848
 20
-5.23463
 10
664
 20
-6
 10
663.848
 20
-6.76537
 10
663.414
 20
-7.41421
 10
662.765
 20
-7.84776
 10
662
 20
-8
 10
661.235
 20
-7.84776
 10
660.586
 20
-7.41421
 10
660.152
 20
-6.76537
  0
ENDSEC
  0
EOF
