999
DXF from OpenSCAD
  0
SECTION
  2
HEADER
  9
$ACADVER
  1
AC1006
  9
$INSBASE
 10
0.0
 20
0.0
 30
0.0
  9
$EXTMIN
 10
0
 20
0
  9
$EXTMAX
 10
30
 20
230
  9
$LINMIN
 10
0
 20
0
  9
$LINMAX
 10
30
 20
230
  0
ENDSEC
  0
SECTION
  2
TABLES
  0
TABLE
  2
LTYPE
 70
1
  0
LTYPE
  2
CONTINUOUS
 70
64
  3
Solid line
 72
65
 73
0
 40
0.000000
  0
ENDTAB
  0
TABLE
  2
LAYER
 70
6
  0
LAYER
  2
0
 70
64
 62
7
  6
CONTINUOUS
  0
ENDTAB
  0
TABLE
  2
STYLE
 70
0
  0
ENDTAB
  0
ENDSEC
  0
SECTION
  2
BLOCKS
  0
ENDSEC
  0
SECTION
  2
ENTITIES
  0
LWPOLYLINE
100
AcDbEntity
  8
0
100
AcDbPolyline
 90
4
 70
1
 10
0
 20
0
 10
30
 20
0
 10
30
 20
230
 10
0
 20
230
  0
LWPOLYLINE
100
AcDbEntity
  8
0
100
AcDbPolyline
 90
16
 70
1
 10
13
 20
9.5
 10
13.1522
 20
10.2654
 10
13.5858
 20
10.9142
 10
14.2346
 20
11.3478
 10
15
 20
11.5
 10
15.7654
 20
11.3478
 10
16.4142
 20
10.9142
 10
16.8478
 20
10.2654
 10
17
 20
9.5
 10
16.8478
 20
8.73463
 10
16.4142
 20
8.08579
 10
15.7654
 20
7.65224
 10
15
 20
7.5
 10
14.2346
 20
7.65224
 10
13.5858
 20
8.08579
 10
13.1522
 20
8.73463
  0
LWPOLYLINE
100
AcDbEntity
  8
0
100
AcDbPolyline
 90
16
 70
1
 10
13
 20
220.5
 10
13.1522
 20
221.265
 10
13.5858
 20
221.914
 10
14.2346
 20
222.348
 10
15
 20
222.5
 10
15.7654
 20
222.348
 10
16.4142
 20
221.914
 10
16.8478
 20
221.265
 10
17
 20
220.5
 10
16.8478
 20
219.735
 10
16.4142
 20
219.086
 10
15.7654
 20
218.652
 10
15
 20
218.5
 10
14.2346
 20
218.652
 10
13.5858
 20
219.086
 10
13.1522
 20
219.735
  0
ENDSEC
  0
EOF
