solid OpenSCAD_Model
  facet normal 0 -1 0
    outer loop
      vertex 327.148 0 8.77164
      vertex 464 0 9
      vertex 326 0 9
    endloop
  endfacet
  facet normal 0 -1 0
    outer loop
      vertex 327.148 0 8.77164
      vertex 462.852 0 8.77164
      vertex 464 0 9
    endloop
  endfacet
  facet normal 0 -1 0
    outer loop
      vertex 328.121 0 8.12132
      vertex 462.852 0 8.77164
      vertex 327.148 0 8.77164
    endloop
  endfacet
  facet normal 0 -1 0
    outer loop
      vertex 328.121 0 8.12132
      vertex 461.879 0 8.12132
      vertex 462.852 0 8.77164
    endloop
  endfacet
  facet normal 0 -1 0
    outer loop
      vertex 328.772 0 7.14805
      vertex 461.879 0 8.12132
      vertex 328.121 0 8.12132
    endloop
  endfacet
  facet normal 0 -1 0
    outer loop
      vertex 328.772 0 7.14805
      vertex 461.228 0 7.14805
      vertex 461.879 0 8.12132
    endloop
  endfacet
  facet normal 0 -1 0
    outer loop
      vertex 329 0 6
      vertex 461.228 0 7.14805
      vertex 328.772 0 7.14805
    endloop
  endfacet
  facet normal 0 -1 0
    outer loop
      vertex 329 0 6
      vertex 461 0 6
      vertex 461.228 0 7.14805
    endloop
  endfacet
  facet normal 0 -1 0
    outer loop
      vertex 328.772 0 4.85195
      vertex 461 0 6
      vertex 329 0 6
    endloop
  endfacet
  facet normal 0 -1 0
    outer loop
      vertex 328.772 0 4.85195
      vertex 461.228 0 4.85195
      vertex 461 0 6
    endloop
  endfacet
  facet normal 0 -1 0
    outer loop
      vertex 328.121 0 3.87868
      vertex 461.228 0 4.85195
      vertex 328.772 0 4.85195
    endloop
  endfacet
  facet normal 0 -1 0
    outer loop
      vertex 328.121 0 3.87868
      vertex 461.879 0 3.87868
      vertex 461.228 0 4.85195
    endloop
  endfacet
  facet normal 0 -1 0
    outer loop
      vertex 327.148 0 3.22836
      vertex 461.879 0 3.87868
      vertex 328.121 0 3.87868
    endloop
  endfacet
  facet normal 0 -1 0
    outer loop
      vertex 327.148 0 3.22836
      vertex 462.852 0 3.22836
      vertex 461.879 0 3.87868
    endloop
  endfacet
  facet normal 0 -1 0
    outer loop
      vertex 326 0 3
      vertex 462.852 0 3.22836
      vertex 327.148 0 3.22836
    endloop
  endfacet
  facet normal 0 -1 -0
    outer loop
      vertex 462.852 0 3.22836
      vertex 326 0 3
      vertex 464 0 3
    endloop
  endfacet
  facet normal 0 -1 0
    outer loop
      vertex 189.148 0 8.77164
      vertex 326 0 9
      vertex 188 0 9
    endloop
  endfacet
  facet normal 0 -1 0
    outer loop
      vertex 189.148 0 8.77164
      vertex 324.852 0 8.77164
      vertex 326 0 9
    endloop
  endfacet
  facet normal 0 -1 0
    outer loop
      vertex 190.121 0 8.12132
      vertex 324.852 0 8.77164
      vertex 189.148 0 8.77164
    endloop
  endfacet
  facet normal 0 -1 0
    outer loop
      vertex 190.121 0 8.12132
      vertex 323.879 0 8.12132
      vertex 324.852 0 8.77164
    endloop
  endfacet
  facet normal 0 -1 0
    outer loop
      vertex 190.772 0 7.14805
      vertex 323.879 0 8.12132
      vertex 190.121 0 8.12132
    endloop
  endfacet
  facet normal 0 -1 0
    outer loop
      vertex 190.772 0 7.14805
      vertex 323.228 0 7.14805
      vertex 323.879 0 8.12132
    endloop
  endfacet
  facet normal 0 -1 0
    outer loop
      vertex 191 0 6
      vertex 323.228 0 7.14805
      vertex 190.772 0 7.14805
    endloop
  endfacet
  facet normal 0 -1 0
    outer loop
      vertex 191 0 6
      vertex 323 0 6
      vertex 323.228 0 7.14805
    endloop
  endfacet
  facet normal 0 -1 0
    outer loop
      vertex 190.772 0 4.85195
      vertex 323 0 6
      vertex 191 0 6
    endloop
  endfacet
  facet normal 0 -1 0
    outer loop
      vertex 190.772 0 4.85195
      vertex 323.228 0 4.85195
      vertex 323 0 6
    endloop
  endfacet
  facet normal 0 -1 0
    outer loop
      vertex 190.121 0 3.87868
      vertex 323.228 0 4.85195
      vertex 190.772 0 4.85195
    endloop
  endfacet
  facet normal 0 -1 0
    outer loop
      vertex 190.121 0 3.87868
      vertex 323.879 0 3.87868
      vertex 323.228 0 4.85195
    endloop
  endfacet
  facet normal 0 -1 0
    outer loop
      vertex 189.148 0 3.22836
      vertex 323.879 0 3.87868
      vertex 190.121 0 3.87868
    endloop
  endfacet
  facet normal 0 -1 0
    outer loop
      vertex 189.148 0 3.22836
      vertex 324.852 0 3.22836
      vertex 323.879 0 3.87868
    endloop
  endfacet
  facet normal 0 -1 0
    outer loop
      vertex 188 0 3
      vertex 324.852 0 3.22836
      vertex 189.148 0 3.22836
    endloop
  endfacet
  facet normal 0 -1 -0
    outer loop
      vertex 324.852 0 3.22836
      vertex 188 0 3
      vertex 326 0 3
    endloop
  endfacet
  facet normal 0 -1 0
    outer loop
      vertex 51.148 0 8.77164
      vertex 188 0 9
      vertex 50 0 9
    endloop
  endfacet
  facet normal 0 -1 0
    outer loop
      vertex 51.148 0 8.77164
      vertex 186.852 0 8.77164
      vertex 188 0 9
    endloop
  endfacet
  facet normal 0 -1 0
    outer loop
      vertex 52.1213 0 8.12132
      vertex 186.852 0 8.77164
      vertex 51.148 0 8.77164
    endloop
  endfacet
  facet normal 0 -1 0
    outer loop
      vertex 52.1213 0 8.12132
      vertex 185.879 0 8.12132
      vertex 186.852 0 8.77164
    endloop
  endfacet
  facet normal 0 -1 0
    outer loop
      vertex 52.7716 0 7.14805
      vertex 185.879 0 8.12132
      vertex 52.1213 0 8.12132
    endloop
  endfacet
  facet normal 0 -1 0
    outer loop
      vertex 52.7716 0 7.14805
      vertex 185.228 0 7.14805
      vertex 185.879 0 8.12132
    endloop
  endfacet
  facet normal 0 -1 0
    outer loop
      vertex 53 0 6
      vertex 185.228 0 7.14805
      vertex 52.7716 0 7.14805
    endloop
  endfacet
  facet normal 0 -1 0
    outer loop
      vertex 53 0 6
      vertex 185 0 6
      vertex 185.228 0 7.14805
    endloop
  endfacet
  facet normal 0 -1 0
    outer loop
      vertex 52.7716 0 4.85195
      vertex 185 0 6
      vertex 53 0 6
    endloop
  endfacet
  facet normal 0 -1 0
    outer loop
      vertex 52.7716 0 4.85195
      vertex 185.228 0 4.85195
      vertex 185 0 6
    endloop
  endfacet
  facet normal 0 -1 0
    outer loop
      vertex 52.1213 0 3.87868
      vertex 185.228 0 4.85195
      vertex 52.7716 0 4.85195
    endloop
  endfacet
  facet normal 0 -1 0
    outer loop
      vertex 52.1213 0 3.87868
      vertex 185.879 0 3.87868
      vertex 185.228 0 4.85195
    endloop
  endfacet
  facet normal 0 -1 0
    outer loop
      vertex 51.148 0 3.22836
      vertex 185.879 0 3.87868
      vertex 52.1213 0 3.87868
    endloop
  endfacet
  facet normal 0 -1 0
    outer loop
      vertex 51.148 0 3.22836
      vertex 186.852 0 3.22836
      vertex 185.879 0 3.87868
    endloop
  endfacet
  facet normal 0 -1 0
    outer loop
      vertex 50 0 3
      vertex 186.852 0 3.22836
      vertex 51.148 0 3.22836
    endloop
  endfacet
  facet normal 0 -1 -0
    outer loop
      vertex 186.852 0 3.22836
      vertex 50 0 3
      vertex 188 0 3
    endloop
  endfacet
  facet normal 0 -1 0
    outer loop
      vertex 188 0 9
      vertex 0 0 12
      vertex 50 0 9
    endloop
  endfacet
  facet normal 0 -1 0
    outer loop
      vertex 0 0 12
      vertex 48.852 0 8.77164
      vertex 50 0 9
    endloop
  endfacet
  facet normal 0 -1 0
    outer loop
      vertex 0 0 12
      vertex 47.8787 0 8.12132
      vertex 48.852 0 8.77164
    endloop
  endfacet
  facet normal 0 -1 0
    outer loop
      vertex 0 0 12
      vertex 47.2284 0 7.14805
      vertex 47.8787 0 8.12132
    endloop
  endfacet
  facet normal 0 -1 0
    outer loop
      vertex 0 0 12
      vertex 47 0 6
      vertex 47.2284 0 7.14805
    endloop
  endfacet
  facet normal 0 -1 0
    outer loop
      vertex 0 0 0
      vertex 47 0 6
      vertex 0 0 12
    endloop
  endfacet
  facet normal 0 -1 -0
    outer loop
      vertex 47 0 6
      vertex 0 0 0
      vertex 47.2284 0 4.85195
    endloop
  endfacet
  facet normal 0 -1 -0
    outer loop
      vertex 47.2284 0 4.85195
      vertex 0 0 0
      vertex 47.8787 0 3.87868
    endloop
  endfacet
  facet normal 0 -1 -0
    outer loop
      vertex 47.8787 0 3.87868
      vertex 0 0 0
      vertex 48.852 0 3.22836
    endloop
  endfacet
  facet normal 0 -1 0
    outer loop
      vertex 0 0 0
      vertex 188 0 3
      vertex 50 0 3
    endloop
  endfacet
  facet normal 0 -1 -0
    outer loop
      vertex 188 0 3
      vertex 0 0 0
      vertex 326 0 3
    endloop
  endfacet
  facet normal 0 -1 0
    outer loop
      vertex 514 0 0
      vertex 326 0 3
      vertex 0 0 0
    endloop
  endfacet
  facet normal 0 -1 -0
    outer loop
      vertex 48.852 0 3.22836
      vertex 0 0 0
      vertex 50 0 3
    endloop
  endfacet
  facet normal 0 -1 0
    outer loop
      vertex 0 0 12
      vertex 188 0 9
      vertex 514 0 12
    endloop
  endfacet
  facet normal 0 -1 0
    outer loop
      vertex 326 0 9
      vertex 514 0 12
      vertex 188 0 9
    endloop
  endfacet
  facet normal 0 -1 0
    outer loop
      vertex 464 0 9
      vertex 514 0 12
      vertex 326 0 9
    endloop
  endfacet
  facet normal 0 -1 0
    outer loop
      vertex 465.148 0 8.77164
      vertex 514 0 12
      vertex 464 0 9
    endloop
  endfacet
  facet normal 0 -1 0
    outer loop
      vertex 466.121 0 8.12132
      vertex 514 0 12
      vertex 465.148 0 8.77164
    endloop
  endfacet
  facet normal 0 -1 0
    outer loop
      vertex 466.772 0 7.14805
      vertex 514 0 12
      vertex 466.121 0 8.12132
    endloop
  endfacet
  facet normal 0 -1 0
    outer loop
      vertex 467 0 6
      vertex 514 0 12
      vertex 466.772 0 7.14805
    endloop
  endfacet
  facet normal 0 -1 0
    outer loop
      vertex 514 0 0
      vertex 467 0 6
      vertex 466.772 0 4.85195
    endloop
  endfacet
  facet normal 0 -1 0
    outer loop
      vertex 514 0 0
      vertex 466.772 0 4.85195
      vertex 466.121 0 3.87868
    endloop
  endfacet
  facet normal 0 -1 0
    outer loop
      vertex 514 0 0
      vertex 466.121 0 3.87868
      vertex 465.148 0 3.22836
    endloop
  endfacet
  facet normal 0 -1 0
    outer loop
      vertex 514 0 0
      vertex 465.148 0 3.22836
      vertex 464 0 3
    endloop
  endfacet
  facet normal 0 -1 0
    outer loop
      vertex 467 0 6
      vertex 514 0 0
      vertex 514 0 12
    endloop
  endfacet
  facet normal 0 -1 0
    outer loop
      vertex 326 0 3
      vertex 514 0 0
      vertex 464 0 3
    endloop
  endfacet
  facet normal 0 -1 0
    outer loop
      vertex 186.852 0 8.77164
      vertex 189.148 0 8.77164
      vertex 188 0 9
    endloop
  endfacet
  facet normal 0 -1 0
    outer loop
      vertex 185.879 0 8.12132
      vertex 189.148 0 8.77164
      vertex 186.852 0 8.77164
    endloop
  endfacet
  facet normal 0 -1 0
    outer loop
      vertex 185.879 0 8.12132
      vertex 190.121 0 8.12132
      vertex 189.148 0 8.77164
    endloop
  endfacet
  facet normal 0 -1 0
    outer loop
      vertex 185.228 0 7.14805
      vertex 190.121 0 8.12132
      vertex 185.879 0 8.12132
    endloop
  endfacet
  facet normal 0 -1 0
    outer loop
      vertex 185.228 0 7.14805
      vertex 190.772 0 7.14805
      vertex 190.121 0 8.12132
    endloop
  endfacet
  facet normal 0 -1 0
    outer loop
      vertex 185 0 6
      vertex 190.772 0 7.14805
      vertex 185.228 0 7.14805
    endloop
  endfacet
  facet normal 0 -1 0
    outer loop
      vertex 185 0 6
      vertex 191 0 6
      vertex 190.772 0 7.14805
    endloop
  endfacet
  facet normal 0 -1 0
    outer loop
      vertex 185.228 0 4.85195
      vertex 191 0 6
      vertex 185 0 6
    endloop
  endfacet
  facet normal 0 -1 0
    outer loop
      vertex 185.228 0 4.85195
      vertex 190.772 0 4.85195
      vertex 191 0 6
    endloop
  endfacet
  facet normal 0 -1 0
    outer loop
      vertex 185.879 0 3.87868
      vertex 190.772 0 4.85195
      vertex 185.228 0 4.85195
    endloop
  endfacet
  facet normal 0 -1 0
    outer loop
      vertex 185.879 0 3.87868
      vertex 190.121 0 3.87868
      vertex 190.772 0 4.85195
    endloop
  endfacet
  facet normal 0 -1 0
    outer loop
      vertex 186.852 0 3.22836
      vertex 190.121 0 3.87868
      vertex 185.879 0 3.87868
    endloop
  endfacet
  facet normal 0 -1 0
    outer loop
      vertex 186.852 0 3.22836
      vertex 189.148 0 3.22836
      vertex 190.121 0 3.87868
    endloop
  endfacet
  facet normal -0 -1 0
    outer loop
      vertex 189.148 0 3.22836
      vertex 186.852 0 3.22836
      vertex 188 0 3
    endloop
  endfacet
  facet normal 0 -1 0
    outer loop
      vertex 324.852 0 8.77164
      vertex 327.148 0 8.77164
      vertex 326 0 9
    endloop
  endfacet
  facet normal 0 -1 0
    outer loop
      vertex 323.879 0 8.12132
      vertex 327.148 0 8.77164
      vertex 324.852 0 8.77164
    endloop
  endfacet
  facet normal 0 -1 0
    outer loop
      vertex 323.879 0 8.12132
      vertex 328.121 0 8.12132
      vertex 327.148 0 8.77164
    endloop
  endfacet
  facet normal 0 -1 0
    outer loop
      vertex 323.228 0 7.14805
      vertex 328.121 0 8.12132
      vertex 323.879 0 8.12132
    endloop
  endfacet
  facet normal 0 -1 0
    outer loop
      vertex 323.228 0 7.14805
      vertex 328.772 0 7.14805
      vertex 328.121 0 8.12132
    endloop
  endfacet
  facet normal 0 -1 0
    outer loop
      vertex 323 0 6
      vertex 328.772 0 7.14805
      vertex 323.228 0 7.14805
    endloop
  endfacet
  facet normal 0 -1 0
    outer loop
      vertex 323 0 6
      vertex 329 0 6
      vertex 328.772 0 7.14805
    endloop
  endfacet
  facet normal 0 -1 0
    outer loop
      vertex 323.228 0 4.85195
      vertex 329 0 6
      vertex 323 0 6
    endloop
  endfacet
  facet normal 0 -1 0
    outer loop
      vertex 323.228 0 4.85195
      vertex 328.772 0 4.85195
      vertex 329 0 6
    endloop
  endfacet
  facet normal 0 -1 0
    outer loop
      vertex 323.879 0 3.87868
      vertex 328.772 0 4.85195
      vertex 323.228 0 4.85195
    endloop
  endfacet
  facet normal 0 -1 0
    outer loop
      vertex 323.879 0 3.87868
      vertex 328.121 0 3.87868
      vertex 328.772 0 4.85195
    endloop
  endfacet
  facet normal 0 -1 0
    outer loop
      vertex 324.852 0 3.22836
      vertex 328.121 0 3.87868
      vertex 323.879 0 3.87868
    endloop
  endfacet
  facet normal 0 -1 0
    outer loop
      vertex 324.852 0 3.22836
      vertex 327.148 0 3.22836
      vertex 328.121 0 3.87868
    endloop
  endfacet
  facet normal -0 -1 0
    outer loop
      vertex 327.148 0 3.22836
      vertex 324.852 0 3.22836
      vertex 326 0 3
    endloop
  endfacet
  facet normal 0 -1 0
    outer loop
      vertex 462.852 0 8.77164
      vertex 465.148 0 8.77164
      vertex 464 0 9
    endloop
  endfacet
  facet normal 0 -1 0
    outer loop
      vertex 461.879 0 8.12132
      vertex 465.148 0 8.77164
      vertex 462.852 0 8.77164
    endloop
  endfacet
  facet normal 0 -1 0
    outer loop
      vertex 461.879 0 8.12132
      vertex 466.121 0 8.12132
      vertex 465.148 0 8.77164
    endloop
  endfacet
  facet normal 0 -1 0
    outer loop
      vertex 461.228 0 7.14805
      vertex 466.121 0 8.12132
      vertex 461.879 0 8.12132
    endloop
  endfacet
  facet normal 0 -1 0
    outer loop
      vertex 461.228 0 7.14805
      vertex 466.772 0 7.14805
      vertex 466.121 0 8.12132
    endloop
  endfacet
  facet normal 0 -1 0
    outer loop
      vertex 461 0 6
      vertex 466.772 0 7.14805
      vertex 461.228 0 7.14805
    endloop
  endfacet
  facet normal 0 -1 0
    outer loop
      vertex 461 0 6
      vertex 467 0 6
      vertex 466.772 0 7.14805
    endloop
  endfacet
  facet normal 0 -1 0
    outer loop
      vertex 461.228 0 4.85195
      vertex 467 0 6
      vertex 461 0 6
    endloop
  endfacet
  facet normal 0 -1 0
    outer loop
      vertex 461.228 0 4.85195
      vertex 466.772 0 4.85195
      vertex 467 0 6
    endloop
  endfacet
  facet normal 0 -1 0
    outer loop
      vertex 461.879 0 3.87868
      vertex 466.772 0 4.85195
      vertex 461.228 0 4.85195
    endloop
  endfacet
  facet normal 0 -1 0
    outer loop
      vertex 461.879 0 3.87868
      vertex 466.121 0 3.87868
      vertex 466.772 0 4.85195
    endloop
  endfacet
  facet normal 0 -1 0
    outer loop
      vertex 462.852 0 3.22836
      vertex 466.121 0 3.87868
      vertex 461.879 0 3.87868
    endloop
  endfacet
  facet normal 0 -1 0
    outer loop
      vertex 462.852 0 3.22836
      vertex 465.148 0 3.22836
      vertex 466.121 0 3.87868
    endloop
  endfacet
  facet normal -0 -1 0
    outer loop
      vertex 465.148 0 3.22836
      vertex 462.852 0 3.22836
      vertex 464 0 3
    endloop
  endfacet
  facet normal 0 -1 0
    outer loop
      vertex 48.852 0 8.77164
      vertex 51.148 0 8.77164
      vertex 50 0 9
    endloop
  endfacet
  facet normal 0 -1 0
    outer loop
      vertex 47.8787 0 8.12132
      vertex 51.148 0 8.77164
      vertex 48.852 0 8.77164
    endloop
  endfacet
  facet normal 0 -1 0
    outer loop
      vertex 47.8787 0 8.12132
      vertex 52.1213 0 8.12132
      vertex 51.148 0 8.77164
    endloop
  endfacet
  facet normal 0 -1 0
    outer loop
      vertex 47.2284 0 7.14805
      vertex 52.1213 0 8.12132
      vertex 47.8787 0 8.12132
    endloop
  endfacet
  facet normal 0 -1 0
    outer loop
      vertex 47.2284 0 7.14805
      vertex 52.7716 0 7.14805
      vertex 52.1213 0 8.12132
    endloop
  endfacet
  facet normal 0 -1 0
    outer loop
      vertex 47 0 6
      vertex 52.7716 0 7.14805
      vertex 47.2284 0 7.14805
    endloop
  endfacet
  facet normal 0 -1 0
    outer loop
      vertex 47 0 6
      vertex 53 0 6
      vertex 52.7716 0 7.14805
    endloop
  endfacet
  facet normal 0 -1 0
    outer loop
      vertex 47.2284 0 4.85195
      vertex 53 0 6
      vertex 47 0 6
    endloop
  endfacet
  facet normal 0 -1 0
    outer loop
      vertex 47.2284 0 4.85195
      vertex 52.7716 0 4.85195
      vertex 53 0 6
    endloop
  endfacet
  facet normal 0 -1 0
    outer loop
      vertex 47.8787 0 3.87868
      vertex 52.7716 0 4.85195
      vertex 47.2284 0 4.85195
    endloop
  endfacet
  facet normal 0 -1 0
    outer loop
      vertex 47.8787 0 3.87868
      vertex 52.1213 0 3.87868
      vertex 52.7716 0 4.85195
    endloop
  endfacet
  facet normal 0 -1 0
    outer loop
      vertex 48.852 0 3.22836
      vertex 52.1213 0 3.87868
      vertex 47.8787 0 3.87868
    endloop
  endfacet
  facet normal 0 -1 0
    outer loop
      vertex 48.852 0 3.22836
      vertex 51.148 0 3.22836
      vertex 52.1213 0 3.87868
    endloop
  endfacet
  facet normal -0 -1 0
    outer loop
      vertex 51.148 0 3.22836
      vertex 48.852 0 3.22836
      vertex 50 0 3
    endloop
  endfacet
  facet normal 0 -0.195081 0.980787
    outer loop
      vertex 0 50.7654 4.15224
      vertex 37 50 4
      vertex 37 50.7654 4.15224
    endloop
  endfacet
  facet normal 0 -0.195081 0.980787
    outer loop
      vertex 37 50 4
      vertex 0 50.7654 4.15224
      vertex 0 50 4
    endloop
  endfacet
  facet normal 0 -0.195081 -0.980787
    outer loop
      vertex 0 50 8
      vertex 37 50.7654 7.84776
      vertex 37 50 8
    endloop
  endfacet
  facet normal -0 -0.195081 -0.980787
    outer loop
      vertex 37 50.7654 7.84776
      vertex 0 50 8
      vertex 0 50.7654 7.84776
    endloop
  endfacet
  facet normal 0 -0.555602 0.831448
    outer loop
      vertex 0 51.4142 4.58579
      vertex 37 50.7654 4.15224
      vertex 37 51.4142 4.58579
    endloop
  endfacet
  facet normal 0 -0.555602 0.831448
    outer loop
      vertex 37 50.7654 4.15224
      vertex 0 51.4142 4.58579
      vertex 0 50.7654 4.15224
    endloop
  endfacet
  facet normal 0 -0.831435 0.555622
    outer loop
      vertex 0 51.4142 4.58579
      vertex 37 51.8478 5.23463
      vertex 0 51.8478 5.23463
    endloop
  endfacet
  facet normal 0 -0.831435 0.555622
    outer loop
      vertex 37 51.8478 5.23463
      vertex 0 51.4142 4.58579
      vertex 37 51.4142 4.58579
    endloop
  endfacet
  facet normal 0 -0.980795 -0.195039
    outer loop
      vertex 0 52 6
      vertex 37 51.8478 6.76537
      vertex 0 51.8478 6.76537
    endloop
  endfacet
  facet normal 0 -0.980795 -0.195039
    outer loop
      vertex 37 51.8478 6.76537
      vertex 0 52 6
      vertex 37 52 6
    endloop
  endfacet
  facet normal 0 -0.831435 -0.555622
    outer loop
      vertex 0 51.8478 6.76537
      vertex 37 51.4142 7.41421
      vertex 0 51.4142 7.41421
    endloop
  endfacet
  facet normal 0 -0.831435 -0.555622
    outer loop
      vertex 37 51.4142 7.41421
      vertex 0 51.8478 6.76537
      vertex 37 51.8478 6.76537
    endloop
  endfacet
  facet normal 0 -0.980795 0.195039
    outer loop
      vertex 0 51.8478 5.23463
      vertex 37 52 6
      vertex 0 52 6
    endloop
  endfacet
  facet normal 0 -0.980795 0.195039
    outer loop
      vertex 37 52 6
      vertex 0 51.8478 5.23463
      vertex 37 51.8478 5.23463
    endloop
  endfacet
  facet normal 0 -0.555602 -0.831448
    outer loop
      vertex 0 50.7654 7.84776
      vertex 37 51.4142 7.41421
      vertex 37 50.7654 7.84776
    endloop
  endfacet
  facet normal -0 -0.555602 -0.831448
    outer loop
      vertex 37 51.4142 7.41421
      vertex 0 50.7654 7.84776
      vertex 0 51.4142 7.41421
    endloop
  endfacet
  facet normal 0 0.831435 0.555622
    outer loop
      vertex 37 48.5858 4.58579
      vertex 0 48.1522 5.23463
      vertex 37 48.1522 5.23463
    endloop
  endfacet
  facet normal 0 0.831435 0.555622
    outer loop
      vertex 0 48.1522 5.23463
      vertex 37 48.5858 4.58579
      vertex 0 48.5858 4.58579
    endloop
  endfacet
  facet normal -0 0.555602 0.831448
    outer loop
      vertex 0 49.2346 4.15224
      vertex 37 48.5858 4.58579
      vertex 37 49.2346 4.15224
    endloop
  endfacet
  facet normal 0 0.555602 0.831448
    outer loop
      vertex 37 48.5858 4.58579
      vertex 0 49.2346 4.15224
      vertex 0 48.5858 4.58579
    endloop
  endfacet
  facet normal -0 0.195081 0.980787
    outer loop
      vertex 0 50 4
      vertex 37 49.2346 4.15224
      vertex 37 50 4
    endloop
  endfacet
  facet normal 0 0.195081 0.980787
    outer loop
      vertex 37 49.2346 4.15224
      vertex 0 50 4
      vertex 0 49.2346 4.15224
    endloop
  endfacet
  facet normal -1 0 0
    outer loop
      vertex 0 213 0
      vertex 0 165 6
      vertex 0 213 12
    endloop
  endfacet
  facet normal -1 0 0
    outer loop
      vertex 0 213 0
      vertex 0 164.848 5.23463
      vertex 0 165 6
    endloop
  endfacet
  facet normal -1 0 0
    outer loop
      vertex 0 213 0
      vertex 0 164.414 4.58579
      vertex 0 164.848 5.23463
    endloop
  endfacet
  facet normal -1 0 0
    outer loop
      vertex 0 213 0
      vertex 0 163.765 4.15224
      vertex 0 164.414 4.58579
    endloop
  endfacet
  facet normal -1 0 0
    outer loop
      vertex 0 213 0
      vertex 0 163 4
      vertex 0 163.765 4.15224
    endloop
  endfacet
  facet normal -1 0 0
    outer loop
      vertex 0 161.152 5.23463
      vertex 0 52 6
      vertex 0 161 6
    endloop
  endfacet
  facet normal -1 0 0
    outer loop
      vertex 0 51.8478 5.23463
      vertex 0 161.152 5.23463
      vertex 0 161.586 4.58579
    endloop
  endfacet
  facet normal -1 0 0
    outer loop
      vertex 0 51.4142 4.58579
      vertex 0 161.586 4.58579
      vertex 0 162.235 4.15224
    endloop
  endfacet
  facet normal -1 0 0
    outer loop
      vertex 0 50.7654 4.15224
      vertex 0 162.235 4.15224
      vertex 0 163 4
    endloop
  endfacet
  facet normal -1 0 0
    outer loop
      vertex 0 50 4
      vertex 0 163 4
      vertex 0 213 0
    endloop
  endfacet
  facet normal -1 0 0
    outer loop
      vertex 0 161.152 5.23463
      vertex 0 51.8478 5.23463
      vertex 0 52 6
    endloop
  endfacet
  facet normal -1 0 0
    outer loop
      vertex 0 161.586 4.58579
      vertex 0 51.4142 4.58579
      vertex 0 51.8478 5.23463
    endloop
  endfacet
  facet normal -1 0 0
    outer loop
      vertex 0 162.235 4.15224
      vertex 0 50.7654 4.15224
      vertex 0 51.4142 4.58579
    endloop
  endfacet
  facet normal -1 0 0
    outer loop
      vertex 0 163 4
      vertex 0 50 4
      vertex 0 50.7654 4.15224
    endloop
  endfacet
  facet normal -1 -0 0
    outer loop
      vertex 0 48.1522 5.23463
      vertex 0 0 0
      vertex 0 48 6
    endloop
  endfacet
  facet normal -1 -0 0
    outer loop
      vertex 0 48.5858 4.58579
      vertex 0 0 0
      vertex 0 48.1522 5.23463
    endloop
  endfacet
  facet normal -1 -0 0
    outer loop
      vertex 0 49.2346 4.15224
      vertex 0 0 0
      vertex 0 48.5858 4.58579
    endloop
  endfacet
  facet normal -1 -0 0
    outer loop
      vertex 0 50 4
      vertex 0 0 0
      vertex 0 49.2346 4.15224
    endloop
  endfacet
  facet normal -1 0 0
    outer loop
      vertex 0 0 0
      vertex 0 50 4
      vertex 0 213 0
    endloop
  endfacet
  facet normal -1 0 0
    outer loop
      vertex 0 164.848 6.76537
      vertex 0 213 12
      vertex 0 165 6
    endloop
  endfacet
  facet normal -1 0 0
    outer loop
      vertex 0 164.414 7.41421
      vertex 0 213 12
      vertex 0 164.848 6.76537
    endloop
  endfacet
  facet normal -1 0 0
    outer loop
      vertex 0 163.765 7.84776
      vertex 0 213 12
      vertex 0 164.414 7.41421
    endloop
  endfacet
  facet normal -1 0 0
    outer loop
      vertex 0 163 8
      vertex 0 213 12
      vertex 0 163.765 7.84776
    endloop
  endfacet
  facet normal -1 0 0
    outer loop
      vertex 0 52 6
      vertex 0 161.152 6.76537
      vertex 0 161 6
    endloop
  endfacet
  facet normal -1 0 0
    outer loop
      vertex 0 51.8478 6.76537
      vertex 0 161.152 6.76537
      vertex 0 52 6
    endloop
  endfacet
  facet normal -1 0 0
    outer loop
      vertex 0 161.152 6.76537
      vertex 0 51.8478 6.76537
      vertex 0 161.586 7.41421
    endloop
  endfacet
  facet normal -1 0 0
    outer loop
      vertex 0 51.4142 7.41421
      vertex 0 161.586 7.41421
      vertex 0 51.8478 6.76537
    endloop
  endfacet
  facet normal -1 0 0
    outer loop
      vertex 0 161.586 7.41421
      vertex 0 51.4142 7.41421
      vertex 0 162.235 7.84776
    endloop
  endfacet
  facet normal -1 0 0
    outer loop
      vertex 0 50.7654 7.84776
      vertex 0 162.235 7.84776
      vertex 0 51.4142 7.41421
    endloop
  endfacet
  facet normal -1 0 0
    outer loop
      vertex 0 162.235 7.84776
      vertex 0 50.7654 7.84776
      vertex 0 163 8
    endloop
  endfacet
  facet normal -1 0 0
    outer loop
      vertex 0 50 8
      vertex 0 163 8
      vertex 0 50.7654 7.84776
    endloop
  endfacet
  facet normal -1 0 0
    outer loop
      vertex 0 163 8
      vertex 0 50 8
      vertex 0 213 12
    endloop
  endfacet
  facet normal -1 0 0
    outer loop
      vertex 0 0 12
      vertex 0 48 6
      vertex 0 0 0
    endloop
  endfacet
  facet normal -1 0 0
    outer loop
      vertex 0 48 6
      vertex 0 0 12
      vertex 0 48.1522 6.76537
    endloop
  endfacet
  facet normal -1 0 0
    outer loop
      vertex 0 48.1522 6.76537
      vertex 0 0 12
      vertex 0 48.5858 7.41421
    endloop
  endfacet
  facet normal -1 0 0
    outer loop
      vertex 0 48.5858 7.41421
      vertex 0 0 12
      vertex 0 49.2346 7.84776
    endloop
  endfacet
  facet normal -1 0 0
    outer loop
      vertex 0 50 8
      vertex 0 0 12
      vertex 0 213 12
    endloop
  endfacet
  facet normal -1 0 0
    outer loop
      vertex 0 49.2346 7.84776
      vertex 0 0 12
      vertex 0 50 8
    endloop
  endfacet
  facet normal 0 0.555602 -0.831448
    outer loop
      vertex 0 48.5858 7.41421
      vertex 37 49.2346 7.84776
      vertex 37 48.5858 7.41421
    endloop
  endfacet
  facet normal 0 0.555602 -0.831448
    outer loop
      vertex 37 49.2346 7.84776
      vertex 0 48.5858 7.41421
      vertex 0 49.2346 7.84776
    endloop
  endfacet
  facet normal 0 0.980795 0.195039
    outer loop
      vertex 37 48.1522 5.23463
      vertex 0 48 6
      vertex 37 48 6
    endloop
  endfacet
  facet normal 0 0.980795 0.195039
    outer loop
      vertex 0 48 6
      vertex 37 48.1522 5.23463
      vertex 0 48.1522 5.23463
    endloop
  endfacet
  facet normal -1 0 0
    outer loop
      vertex 37 51.8478 5.23463
      vertex 37 51.8478 6.76537
      vertex 37 52 6
    endloop
  endfacet
  facet normal -1 0 0
    outer loop
      vertex 37 51.4142 4.58579
      vertex 37 51.8478 6.76537
      vertex 37 51.8478 5.23463
    endloop
  endfacet
  facet normal -1 0 0
    outer loop
      vertex 37 51.4142 4.58579
      vertex 37 51.4142 7.41421
      vertex 37 51.8478 6.76537
    endloop
  endfacet
  facet normal -1 0 0
    outer loop
      vertex 37 50.7654 4.15224
      vertex 37 51.4142 7.41421
      vertex 37 51.4142 4.58579
    endloop
  endfacet
  facet normal -1 0 0
    outer loop
      vertex 37 50.7654 4.15224
      vertex 37 50.7654 7.84776
      vertex 37 51.4142 7.41421
    endloop
  endfacet
  facet normal -1 0 0
    outer loop
      vertex 37 50 4
      vertex 37 50.7654 7.84776
      vertex 37 50.7654 4.15224
    endloop
  endfacet
  facet normal -1 0 0
    outer loop
      vertex 37 50 4
      vertex 37 50 8
      vertex 37 50.7654 7.84776
    endloop
  endfacet
  facet normal -1 0 0
    outer loop
      vertex 37 49.2346 4.15224
      vertex 37 50 8
      vertex 37 50 4
    endloop
  endfacet
  facet normal -1 0 0
    outer loop
      vertex 37 49.2346 4.15224
      vertex 37 49.2346 7.84776
      vertex 37 50 8
    endloop
  endfacet
  facet normal -1 0 0
    outer loop
      vertex 37 48.5858 4.58579
      vertex 37 49.2346 7.84776
      vertex 37 49.2346 4.15224
    endloop
  endfacet
  facet normal -1 0 0
    outer loop
      vertex 37 48.5858 4.58579
      vertex 37 48.5858 7.41421
      vertex 37 49.2346 7.84776
    endloop
  endfacet
  facet normal -1 0 0
    outer loop
      vertex 37 48.1522 5.23463
      vertex 37 48.5858 7.41421
      vertex 37 48.5858 4.58579
    endloop
  endfacet
  facet normal -1 0 0
    outer loop
      vertex 37 48.1522 5.23463
      vertex 37 48.1522 6.76537
      vertex 37 48.5858 7.41421
    endloop
  endfacet
  facet normal -1 0 -0
    outer loop
      vertex 37 48.1522 6.76537
      vertex 37 48.1522 5.23463
      vertex 37 48 6
    endloop
  endfacet
  facet normal 0 0.195081 -0.980787
    outer loop
      vertex 0 49.2346 7.84776
      vertex 37 50 8
      vertex 37 49.2346 7.84776
    endloop
  endfacet
  facet normal 0 0.195081 -0.980787
    outer loop
      vertex 37 50 8
      vertex 0 49.2346 7.84776
      vertex 0 50 8
    endloop
  endfacet
  facet normal 0 0.980795 -0.195039
    outer loop
      vertex 37 48 6
      vertex 0 48.1522 6.76537
      vertex 37 48.1522 6.76537
    endloop
  endfacet
  facet normal 0 0.980795 -0.195039
    outer loop
      vertex 0 48.1522 6.76537
      vertex 37 48 6
      vertex 0 48 6
    endloop
  endfacet
  facet normal 0 0.831435 -0.555622
    outer loop
      vertex 37 48.1522 6.76537
      vertex 0 48.5858 7.41421
      vertex 37 48.5858 7.41421
    endloop
  endfacet
  facet normal 0 0.831435 -0.555622
    outer loop
      vertex 0 48.5858 7.41421
      vertex 37 48.1522 6.76537
      vertex 0 48.1522 6.76537
    endloop
  endfacet
  facet normal 0 -0.195179 0.980768
    outer loop
      vertex 0 163.765 4.15224
      vertex 37 163 4
      vertex 37 163.765 4.15224
    endloop
  endfacet
  facet normal 0 -0.195179 0.980768
    outer loop
      vertex 37 163 4
      vertex 0 163.765 4.15224
      vertex 0 163 4
    endloop
  endfacet
  facet normal 0 -0.195179 -0.980768
    outer loop
      vertex 0 163 8
      vertex 37 163.765 7.84776
      vertex 37 163 8
    endloop
  endfacet
  facet normal -0 -0.195179 -0.980768
    outer loop
      vertex 37 163.765 7.84776
      vertex 0 163 8
      vertex 0 163.765 7.84776
    endloop
  endfacet
  facet normal 0 -0.555483 0.831528
    outer loop
      vertex 0 164.414 4.58579
      vertex 37 163.765 4.15224
      vertex 37 164.414 4.58579
    endloop
  endfacet
  facet normal 0 -0.555483 0.831528
    outer loop
      vertex 37 163.765 4.15224
      vertex 0 164.414 4.58579
      vertex 0 163.765 4.15224
    endloop
  endfacet
  facet normal 0 0.980844 0.194793
    outer loop
      vertex 37 161.152 5.23463
      vertex 0 161 6
      vertex 37 161 6
    endloop
  endfacet
  facet normal 0 0.980844 0.194793
    outer loop
      vertex 0 161 6
      vertex 37 161.152 5.23463
      vertex 0 161.152 5.23463
    endloop
  endfacet
  facet normal 0 0.831198 0.555977
    outer loop
      vertex 37 161.586 4.58579
      vertex 0 161.152 5.23463
      vertex 37 161.152 5.23463
    endloop
  endfacet
  facet normal 0 0.831198 0.555977
    outer loop
      vertex 0 161.152 5.23463
      vertex 37 161.586 4.58579
      vertex 0 161.586 4.58579
    endloop
  endfacet
  facet normal 0 -0.831198 0.555977
    outer loop
      vertex 0 164.414 4.58579
      vertex 37 164.848 5.23463
      vertex 0 164.848 5.23463
    endloop
  endfacet
  facet normal 0 -0.831198 0.555977
    outer loop
      vertex 37 164.848 5.23463
      vertex 0 164.414 4.58579
      vertex 37 164.414 4.58579
    endloop
  endfacet
  facet normal 0 -0.831198 -0.555977
    outer loop
      vertex 0 164.848 6.76537
      vertex 37 164.414 7.41421
      vertex 0 164.414 7.41421
    endloop
  endfacet
  facet normal 0 -0.831198 -0.555977
    outer loop
      vertex 37 164.414 7.41421
      vertex 0 164.848 6.76537
      vertex 37 164.848 6.76537
    endloop
  endfacet
  facet normal 0 -0.555483 -0.831528
    outer loop
      vertex 0 163.765 7.84776
      vertex 37 164.414 7.41421
      vertex 37 163.765 7.84776
    endloop
  endfacet
  facet normal -0 -0.555483 -0.831528
    outer loop
      vertex 37 164.414 7.41421
      vertex 0 163.765 7.84776
      vertex 0 164.414 7.41421
    endloop
  endfacet
  facet normal 0 -0.980844 -0.194793
    outer loop
      vertex 0 165 6
      vertex 37 164.848 6.76537
      vertex 0 164.848 6.76537
    endloop
  endfacet
  facet normal 0 -0.980844 -0.194793
    outer loop
      vertex 37 164.848 6.76537
      vertex 0 165 6
      vertex 37 165 6
    endloop
  endfacet
  facet normal -0 0.195179 0.980768
    outer loop
      vertex 0 163 4
      vertex 37 162.235 4.15224
      vertex 37 163 4
    endloop
  endfacet
  facet normal 0 0.195179 0.980768
    outer loop
      vertex 37 162.235 4.15224
      vertex 0 163 4
      vertex 0 162.235 4.15224
    endloop
  endfacet
  facet normal 0 -0.980844 0.194793
    outer loop
      vertex 0 164.848 5.23463
      vertex 37 165 6
      vertex 0 165 6
    endloop
  endfacet
  facet normal 0 -0.980844 0.194793
    outer loop
      vertex 37 165 6
      vertex 0 164.848 5.23463
      vertex 37 164.848 5.23463
    endloop
  endfacet
  facet normal -0 0.555483 0.831528
    outer loop
      vertex 0 162.235 4.15224
      vertex 37 161.586 4.58579
      vertex 37 162.235 4.15224
    endloop
  endfacet
  facet normal 0 0.555483 0.831528
    outer loop
      vertex 37 161.586 4.58579
      vertex 0 162.235 4.15224
      vertex 0 161.586 4.58579
    endloop
  endfacet
  facet normal -1 0 0
    outer loop
      vertex 37 164.848 5.23463
      vertex 37 164.848 6.76537
      vertex 37 165 6
    endloop
  endfacet
  facet normal -1 0 0
    outer loop
      vertex 37 164.414 4.58579
      vertex 37 164.848 6.76537
      vertex 37 164.848 5.23463
    endloop
  endfacet
  facet normal -1 0 0
    outer loop
      vertex 37 164.414 4.58579
      vertex 37 164.414 7.41421
      vertex 37 164.848 6.76537
    endloop
  endfacet
  facet normal -1 0 0
    outer loop
      vertex 37 163.765 4.15224
      vertex 37 164.414 7.41421
      vertex 37 164.414 4.58579
    endloop
  endfacet
  facet normal -1 0 0
    outer loop
      vertex 37 163.765 4.15224
      vertex 37 163.765 7.84776
      vertex 37 164.414 7.41421
    endloop
  endfacet
  facet normal -1 0 0
    outer loop
      vertex 37 163 4
      vertex 37 163.765 7.84776
      vertex 37 163.765 4.15224
    endloop
  endfacet
  facet normal -1 0 0
    outer loop
      vertex 37 163 4
      vertex 37 163 8
      vertex 37 163.765 7.84776
    endloop
  endfacet
  facet normal -1 0 0
    outer loop
      vertex 37 162.235 4.15224
      vertex 37 163 8
      vertex 37 163 4
    endloop
  endfacet
  facet normal -1 0 0
    outer loop
      vertex 37 162.235 4.15224
      vertex 37 162.235 7.84776
      vertex 37 163 8
    endloop
  endfacet
  facet normal -1 0 0
    outer loop
      vertex 37 161.586 4.58579
      vertex 37 162.235 7.84776
      vertex 37 162.235 4.15224
    endloop
  endfacet
  facet normal -1 0 0
    outer loop
      vertex 37 161.586 4.58579
      vertex 37 161.586 7.41421
      vertex 37 162.235 7.84776
    endloop
  endfacet
  facet normal -1 0 0
    outer loop
      vertex 37 161.152 5.23463
      vertex 37 161.586 7.41421
      vertex 37 161.586 4.58579
    endloop
  endfacet
  facet normal -1 0 0
    outer loop
      vertex 37 161.152 5.23463
      vertex 37 161.152 6.76537
      vertex 37 161.586 7.41421
    endloop
  endfacet
  facet normal -1 0 -0
    outer loop
      vertex 37 161.152 6.76537
      vertex 37 161.152 5.23463
      vertex 37 161 6
    endloop
  endfacet
  facet normal 0 0.555483 -0.831528
    outer loop
      vertex 0 161.586 7.41421
      vertex 37 162.235 7.84776
      vertex 37 161.586 7.41421
    endloop
  endfacet
  facet normal 0 0.555483 -0.831528
    outer loop
      vertex 37 162.235 7.84776
      vertex 0 161.586 7.41421
      vertex 0 162.235 7.84776
    endloop
  endfacet
  facet normal 0 0.195179 -0.980768
    outer loop
      vertex 0 162.235 7.84776
      vertex 37 163 8
      vertex 37 162.235 7.84776
    endloop
  endfacet
  facet normal 0 0.195179 -0.980768
    outer loop
      vertex 37 163 8
      vertex 0 162.235 7.84776
      vertex 0 163 8
    endloop
  endfacet
  facet normal 0 0.980844 -0.194793
    outer loop
      vertex 37 161 6
      vertex 0 161.152 6.76537
      vertex 37 161.152 6.76537
    endloop
  endfacet
  facet normal 0 0.980844 -0.194793
    outer loop
      vertex 0 161.152 6.76537
      vertex 37 161 6
      vertex 0 161 6
    endloop
  endfacet
  facet normal 0 0.831198 -0.555977
    outer loop
      vertex 37 161.152 6.76537
      vertex 0 161.586 7.41421
      vertex 37 161.586 7.41421
    endloop
  endfacet
  facet normal 0 0.831198 -0.555977
    outer loop
      vertex 0 161.586 7.41421
      vertex 37 161.152 6.76537
      vertex 0 161.152 6.76537
    endloop
  endfacet
  facet normal 0 -0.195081 -0.980787
    outer loop
      vertex 477 50 8
      vertex 514 50.7654 7.84776
      vertex 514 50 8
    endloop
  endfacet
  facet normal -0 -0.195081 -0.980787
    outer loop
      vertex 514 50.7654 7.84776
      vertex 477 50 8
      vertex 477 50.7654 7.84776
    endloop
  endfacet
  facet normal 0 -0.555602 -0.831448
    outer loop
      vertex 477 50.7654 7.84776
      vertex 514 51.4142 7.41421
      vertex 514 50.7654 7.84776
    endloop
  endfacet
  facet normal -0 -0.555602 -0.831448
    outer loop
      vertex 514 51.4142 7.41421
      vertex 477 50.7654 7.84776
      vertex 477 51.4142 7.41421
    endloop
  endfacet
  facet normal -0 0.195081 0.980787
    outer loop
      vertex 477 50 4
      vertex 514 49.2346 4.15224
      vertex 514 50 4
    endloop
  endfacet
  facet normal 0 0.195081 0.980787
    outer loop
      vertex 514 49.2346 4.15224
      vertex 477 50 4
      vertex 477 49.2346 4.15224
    endloop
  endfacet
  facet normal 0 -0.980795 0.195039
    outer loop
      vertex 477 51.8478 5.23463
      vertex 514 52 6
      vertex 477 52 6
    endloop
  endfacet
  facet normal 0 -0.980795 0.195039
    outer loop
      vertex 514 52 6
      vertex 477 51.8478 5.23463
      vertex 514 51.8478 5.23463
    endloop
  endfacet
  facet normal 0 0.831435 -0.555622
    outer loop
      vertex 514 48.1522 6.76537
      vertex 477 48.5858 7.41421
      vertex 514 48.5858 7.41421
    endloop
  endfacet
  facet normal 0 0.831435 -0.555622
    outer loop
      vertex 477 48.5858 7.41421
      vertex 514 48.1522 6.76537
      vertex 477 48.1522 6.76537
    endloop
  endfacet
  facet normal 0 0.831435 0.555622
    outer loop
      vertex 514 48.5858 4.58579
      vertex 477 48.1522 5.23463
      vertex 514 48.1522 5.23463
    endloop
  endfacet
  facet normal 0 0.831435 0.555622
    outer loop
      vertex 477 48.1522 5.23463
      vertex 514 48.5858 4.58579
      vertex 477 48.5858 4.58579
    endloop
  endfacet
  facet normal 0 -0.555602 0.831448
    outer loop
      vertex 477 51.4142 4.58579
      vertex 514 50.7654 4.15224
      vertex 514 51.4142 4.58579
    endloop
  endfacet
  facet normal 0 -0.555602 0.831448
    outer loop
      vertex 514 50.7654 4.15224
      vertex 477 51.4142 4.58579
      vertex 477 50.7654 4.15224
    endloop
  endfacet
  facet normal 0 -0.831435 0.555622
    outer loop
      vertex 477 51.4142 4.58579
      vertex 514 51.8478 5.23463
      vertex 477 51.8478 5.23463
    endloop
  endfacet
  facet normal 0 -0.831435 0.555622
    outer loop
      vertex 514 51.8478 5.23463
      vertex 477 51.4142 4.58579
      vertex 514 51.4142 4.58579
    endloop
  endfacet
  facet normal 1 0 0
    outer loop
      vertex 514 213 12
      vertex 514 165 6
      vertex 514 213 0
    endloop
  endfacet
  facet normal 1 0 0
    outer loop
      vertex 514 213 12
      vertex 514 164.848 6.76537
      vertex 514 165 6
    endloop
  endfacet
  facet normal 1 0 0
    outer loop
      vertex 514 213 12
      vertex 514 164.414 7.41421
      vertex 514 164.848 6.76537
    endloop
  endfacet
  facet normal 1 0 0
    outer loop
      vertex 514 213 12
      vertex 514 163.765 7.84776
      vertex 514 164.414 7.41421
    endloop
  endfacet
  facet normal 1 0 0
    outer loop
      vertex 514 213 12
      vertex 514 163 8
      vertex 514 163.765 7.84776
    endloop
  endfacet
  facet normal 1 0 0
    outer loop
      vertex 514 161.152 6.76537
      vertex 514 52 6
      vertex 514 161 6
    endloop
  endfacet
  facet normal 1 0 0
    outer loop
      vertex 514 51.8478 6.76537
      vertex 514 161.152 6.76537
      vertex 514 161.586 7.41421
    endloop
  endfacet
  facet normal 1 0 0
    outer loop
      vertex 514 51.4142 7.41421
      vertex 514 161.586 7.41421
      vertex 514 162.235 7.84776
    endloop
  endfacet
  facet normal 1 0 0
    outer loop
      vertex 514 50.7654 7.84776
      vertex 514 162.235 7.84776
      vertex 514 163 8
    endloop
  endfacet
  facet normal 1 0 0
    outer loop
      vertex 514 50 8
      vertex 514 163 8
      vertex 514 213 12
    endloop
  endfacet
  facet normal 1 0 0
    outer loop
      vertex 514 161.152 6.76537
      vertex 514 51.8478 6.76537
      vertex 514 52 6
    endloop
  endfacet
  facet normal 1 0 0
    outer loop
      vertex 514 161.586 7.41421
      vertex 514 51.4142 7.41421
      vertex 514 51.8478 6.76537
    endloop
  endfacet
  facet normal 1 0 0
    outer loop
      vertex 514 162.235 7.84776
      vertex 514 50.7654 7.84776
      vertex 514 51.4142 7.41421
    endloop
  endfacet
  facet normal 1 0 0
    outer loop
      vertex 514 163 8
      vertex 514 50 8
      vertex 514 50.7654 7.84776
    endloop
  endfacet
  facet normal 1 0 0
    outer loop
      vertex 514 48.1522 6.76537
      vertex 514 0 12
      vertex 514 48 6
    endloop
  endfacet
  facet normal 1 0 0
    outer loop
      vertex 514 48.5858 7.41421
      vertex 514 0 12
      vertex 514 48.1522 6.76537
    endloop
  endfacet
  facet normal 1 0 0
    outer loop
      vertex 514 49.2346 7.84776
      vertex 514 0 12
      vertex 514 48.5858 7.41421
    endloop
  endfacet
  facet normal 1 0 0
    outer loop
      vertex 514 50 8
      vertex 514 0 12
      vertex 514 49.2346 7.84776
    endloop
  endfacet
  facet normal 1 -0 0
    outer loop
      vertex 514 0 12
      vertex 514 50 8
      vertex 514 213 12
    endloop
  endfacet
  facet normal 1 -0 0
    outer loop
      vertex 514 164.848 5.23463
      vertex 514 213 0
      vertex 514 165 6
    endloop
  endfacet
  facet normal 1 -0 0
    outer loop
      vertex 514 164.414 4.58579
      vertex 514 213 0
      vertex 514 164.848 5.23463
    endloop
  endfacet
  facet normal 1 -0 0
    outer loop
      vertex 514 163.765 4.15224
      vertex 514 213 0
      vertex 514 164.414 4.58579
    endloop
  endfacet
  facet normal 1 -0 0
    outer loop
      vertex 514 163 4
      vertex 514 213 0
      vertex 514 163.765 4.15224
    endloop
  endfacet
  facet normal 1 -0 0
    outer loop
      vertex 514 52 6
      vertex 514 161.152 5.23463
      vertex 514 161 6
    endloop
  endfacet
  facet normal 1 0 0
    outer loop
      vertex 514 51.8478 5.23463
      vertex 514 161.152 5.23463
      vertex 514 52 6
    endloop
  endfacet
  facet normal 1 0 0
    outer loop
      vertex 514 161.152 5.23463
      vertex 514 51.8478 5.23463
      vertex 514 161.586 4.58579
    endloop
  endfacet
  facet normal 1 0 0
    outer loop
      vertex 514 51.4142 4.58579
      vertex 514 161.586 4.58579
      vertex 514 51.8478 5.23463
    endloop
  endfacet
  facet normal 1 0 0
    outer loop
      vertex 514 161.586 4.58579
      vertex 514 51.4142 4.58579
      vertex 514 162.235 4.15224
    endloop
  endfacet
  facet normal 1 0 0
    outer loop
      vertex 514 50.7654 4.15224
      vertex 514 162.235 4.15224
      vertex 514 51.4142 4.58579
    endloop
  endfacet
  facet normal 1 0 0
    outer loop
      vertex 514 162.235 4.15224
      vertex 514 50.7654 4.15224
      vertex 514 163 4
    endloop
  endfacet
  facet normal 1 0 0
    outer loop
      vertex 514 50 4
      vertex 514 163 4
      vertex 514 50.7654 4.15224
    endloop
  endfacet
  facet normal 1 0 0
    outer loop
      vertex 514 163 4
      vertex 514 50 4
      vertex 514 213 0
    endloop
  endfacet
  facet normal 1 0 0
    outer loop
      vertex 514 0 0
      vertex 514 48 6
      vertex 514 0 12
    endloop
  endfacet
  facet normal 1 0 0
    outer loop
      vertex 514 48 6
      vertex 514 0 0
      vertex 514 48.1522 5.23463
    endloop
  endfacet
  facet normal 1 0 0
    outer loop
      vertex 514 48.1522 5.23463
      vertex 514 0 0
      vertex 514 48.5858 4.58579
    endloop
  endfacet
  facet normal 1 0 0
    outer loop
      vertex 514 48.5858 4.58579
      vertex 514 0 0
      vertex 514 49.2346 4.15224
    endloop
  endfacet
  facet normal 1 0 0
    outer loop
      vertex 514 50 4
      vertex 514 0 0
      vertex 514 213 0
    endloop
  endfacet
  facet normal 1 0 0
    outer loop
      vertex 514 49.2346 4.15224
      vertex 514 0 0
      vertex 514 50 4
    endloop
  endfacet
  facet normal 1 0 0
    outer loop
      vertex 477 51.8478 6.76537
      vertex 477 51.8478 5.23463
      vertex 477 52 6
    endloop
  endfacet
  facet normal 1 0 0
    outer loop
      vertex 477 51.4142 7.41421
      vertex 477 51.8478 5.23463
      vertex 477 51.8478 6.76537
    endloop
  endfacet
  facet normal 1 0 0
    outer loop
      vertex 477 51.4142 7.41421
      vertex 477 51.4142 4.58579
      vertex 477 51.8478 5.23463
    endloop
  endfacet
  facet normal 1 0 0
    outer loop
      vertex 477 50.7654 7.84776
      vertex 477 51.4142 4.58579
      vertex 477 51.4142 7.41421
    endloop
  endfacet
  facet normal 1 0 0
    outer loop
      vertex 477 50.7654 7.84776
      vertex 477 50.7654 4.15224
      vertex 477 51.4142 4.58579
    endloop
  endfacet
  facet normal 1 0 0
    outer loop
      vertex 477 50 8
      vertex 477 50.7654 4.15224
      vertex 477 50.7654 7.84776
    endloop
  endfacet
  facet normal 1 0 0
    outer loop
      vertex 477 50 8
      vertex 477 50 4
      vertex 477 50.7654 4.15224
    endloop
  endfacet
  facet normal 1 -0 0
    outer loop
      vertex 477 49.2346 7.84776
      vertex 477 50 4
      vertex 477 50 8
    endloop
  endfacet
  facet normal 1 0 0
    outer loop
      vertex 477 49.2346 7.84776
      vertex 477 49.2346 4.15224
      vertex 477 50 4
    endloop
  endfacet
  facet normal 1 -0 0
    outer loop
      vertex 477 48.5858 7.41421
      vertex 477 49.2346 4.15224
      vertex 477 49.2346 7.84776
    endloop
  endfacet
  facet normal 1 0 0
    outer loop
      vertex 477 48.5858 7.41421
      vertex 477 48.5858 4.58579
      vertex 477 49.2346 4.15224
    endloop
  endfacet
  facet normal 1 -0 0
    outer loop
      vertex 477 48.1522 6.76537
      vertex 477 48.5858 4.58579
      vertex 477 48.5858 7.41421
    endloop
  endfacet
  facet normal 1 0 0
    outer loop
      vertex 477 48.1522 6.76537
      vertex 477 48.1522 5.23463
      vertex 477 48.5858 4.58579
    endloop
  endfacet
  facet normal 1 0 -0
    outer loop
      vertex 477 48.1522 5.23463
      vertex 477 48.1522 6.76537
      vertex 477 48 6
    endloop
  endfacet
  facet normal -0 0.555602 0.831448
    outer loop
      vertex 477 49.2346 4.15224
      vertex 514 48.5858 4.58579
      vertex 514 49.2346 4.15224
    endloop
  endfacet
  facet normal 0 0.555602 0.831448
    outer loop
      vertex 514 48.5858 4.58579
      vertex 477 49.2346 4.15224
      vertex 477 48.5858 4.58579
    endloop
  endfacet
  facet normal 0 -0.831435 -0.555622
    outer loop
      vertex 477 51.8478 6.76537
      vertex 514 51.4142 7.41421
      vertex 477 51.4142 7.41421
    endloop
  endfacet
  facet normal 0 -0.831435 -0.555622
    outer loop
      vertex 514 51.4142 7.41421
      vertex 477 51.8478 6.76537
      vertex 514 51.8478 6.76537
    endloop
  endfacet
  facet normal 0 -0.980795 -0.195039
    outer loop
      vertex 477 52 6
      vertex 514 51.8478 6.76537
      vertex 477 51.8478 6.76537
    endloop
  endfacet
  facet normal 0 -0.980795 -0.195039
    outer loop
      vertex 514 51.8478 6.76537
      vertex 477 52 6
      vertex 514 52 6
    endloop
  endfacet
  facet normal 0 -0.195081 0.980787
    outer loop
      vertex 477 50.7654 4.15224
      vertex 514 50 4
      vertex 514 50.7654 4.15224
    endloop
  endfacet
  facet normal 0 -0.195081 0.980787
    outer loop
      vertex 514 50 4
      vertex 477 50.7654 4.15224
      vertex 477 50 4
    endloop
  endfacet
  facet normal 0 0.555602 -0.831448
    outer loop
      vertex 477 48.5858 7.41421
      vertex 514 49.2346 7.84776
      vertex 514 48.5858 7.41421
    endloop
  endfacet
  facet normal 0 0.555602 -0.831448
    outer loop
      vertex 514 49.2346 7.84776
      vertex 477 48.5858 7.41421
      vertex 477 49.2346 7.84776
    endloop
  endfacet
  facet normal 0 0.195081 -0.980787
    outer loop
      vertex 477 49.2346 7.84776
      vertex 514 50 8
      vertex 514 49.2346 7.84776
    endloop
  endfacet
  facet normal 0 0.195081 -0.980787
    outer loop
      vertex 514 50 8
      vertex 477 49.2346 7.84776
      vertex 477 50 8
    endloop
  endfacet
  facet normal 0 0.980795 0.195039
    outer loop
      vertex 514 48.1522 5.23463
      vertex 477 48 6
      vertex 514 48 6
    endloop
  endfacet
  facet normal 0 0.980795 0.195039
    outer loop
      vertex 477 48 6
      vertex 514 48.1522 5.23463
      vertex 477 48.1522 5.23463
    endloop
  endfacet
  facet normal 0 0.980795 -0.195039
    outer loop
      vertex 514 48 6
      vertex 477 48.1522 6.76537
      vertex 514 48.1522 6.76537
    endloop
  endfacet
  facet normal 0 0.980795 -0.195039
    outer loop
      vertex 477 48.1522 6.76537
      vertex 514 48 6
      vertex 477 48 6
    endloop
  endfacet
  facet normal 0 -0.195179 -0.980768
    outer loop
      vertex 477 163 8
      vertex 514 163.765 7.84776
      vertex 514 163 8
    endloop
  endfacet
  facet normal -0 -0.195179 -0.980768
    outer loop
      vertex 514 163.765 7.84776
      vertex 477 163 8
      vertex 477 163.765 7.84776
    endloop
  endfacet
  facet normal 0 -0.555483 -0.831528
    outer loop
      vertex 477 163.765 7.84776
      vertex 514 164.414 7.41421
      vertex 514 163.765 7.84776
    endloop
  endfacet
  facet normal -0 -0.555483 -0.831528
    outer loop
      vertex 514 164.414 7.41421
      vertex 477 163.765 7.84776
      vertex 477 164.414 7.41421
    endloop
  endfacet
  facet normal -0 0.195179 0.980768
    outer loop
      vertex 477 163 4
      vertex 514 162.235 4.15224
      vertex 514 163 4
    endloop
  endfacet
  facet normal 0 0.195179 0.980768
    outer loop
      vertex 514 162.235 4.15224
      vertex 477 163 4
      vertex 477 162.235 4.15224
    endloop
  endfacet
  facet normal 0 -0.980844 0.194793
    outer loop
      vertex 477 164.848 5.23463
      vertex 514 165 6
      vertex 477 165 6
    endloop
  endfacet
  facet normal 0 -0.980844 0.194793
    outer loop
      vertex 514 165 6
      vertex 477 164.848 5.23463
      vertex 514 164.848 5.23463
    endloop
  endfacet
  facet normal 0 0.831198 -0.555977
    outer loop
      vertex 514 161.152 6.76537
      vertex 477 161.586 7.41421
      vertex 514 161.586 7.41421
    endloop
  endfacet
  facet normal 0 0.831198 -0.555977
    outer loop
      vertex 477 161.586 7.41421
      vertex 514 161.152 6.76537
      vertex 477 161.152 6.76537
    endloop
  endfacet
  facet normal 0 0.831198 0.555977
    outer loop
      vertex 514 161.586 4.58579
      vertex 477 161.152 5.23463
      vertex 514 161.152 5.23463
    endloop
  endfacet
  facet normal 0 0.831198 0.555977
    outer loop
      vertex 477 161.152 5.23463
      vertex 514 161.586 4.58579
      vertex 477 161.586 4.58579
    endloop
  endfacet
  facet normal 0 -0.555483 0.831528
    outer loop
      vertex 477 164.414 4.58579
      vertex 514 163.765 4.15224
      vertex 514 164.414 4.58579
    endloop
  endfacet
  facet normal 0 -0.555483 0.831528
    outer loop
      vertex 514 163.765 4.15224
      vertex 477 164.414 4.58579
      vertex 477 163.765 4.15224
    endloop
  endfacet
  facet normal 0 -0.831198 0.555977
    outer loop
      vertex 477 164.414 4.58579
      vertex 514 164.848 5.23463
      vertex 477 164.848 5.23463
    endloop
  endfacet
  facet normal 0 -0.831198 0.555977
    outer loop
      vertex 514 164.848 5.23463
      vertex 477 164.414 4.58579
      vertex 514 164.414 4.58579
    endloop
  endfacet
  facet normal 1 0 0
    outer loop
      vertex 477 164.848 6.76537
      vertex 477 164.848 5.23463
      vertex 477 165 6
    endloop
  endfacet
  facet normal 1 0 0
    outer loop
      vertex 477 164.414 7.41421
      vertex 477 164.848 5.23463
      vertex 477 164.848 6.76537
    endloop
  endfacet
  facet normal 1 0 0
    outer loop
      vertex 477 164.414 7.41421
      vertex 477 164.414 4.58579
      vertex 477 164.848 5.23463
    endloop
  endfacet
  facet normal 1 0 0
    outer loop
      vertex 477 163.765 7.84776
      vertex 477 164.414 4.58579
      vertex 477 164.414 7.41421
    endloop
  endfacet
  facet normal 1 0 0
    outer loop
      vertex 477 163.765 7.84776
      vertex 477 163.765 4.15224
      vertex 477 164.414 4.58579
    endloop
  endfacet
  facet normal 1 0 0
    outer loop
      vertex 477 163 8
      vertex 477 163.765 4.15224
      vertex 477 163.765 7.84776
    endloop
  endfacet
  facet normal 1 0 0
    outer loop
      vertex 477 163 8
      vertex 477 163 4
      vertex 477 163.765 4.15224
    endloop
  endfacet
  facet normal 1 -0 0
    outer loop
      vertex 477 162.235 7.84776
      vertex 477 163 4
      vertex 477 163 8
    endloop
  endfacet
  facet normal 1 0 0
    outer loop
      vertex 477 162.235 7.84776
      vertex 477 162.235 4.15224
      vertex 477 163 4
    endloop
  endfacet
  facet normal 1 -0 0
    outer loop
      vertex 477 161.586 7.41421
      vertex 477 162.235 4.15224
      vertex 477 162.235 7.84776
    endloop
  endfacet
  facet normal 1 0 0
    outer loop
      vertex 477 161.586 7.41421
      vertex 477 161.586 4.58579
      vertex 477 162.235 4.15224
    endloop
  endfacet
  facet normal 1 -0 0
    outer loop
      vertex 477 161.152 6.76537
      vertex 477 161.586 4.58579
      vertex 477 161.586 7.41421
    endloop
  endfacet
  facet normal 1 0 0
    outer loop
      vertex 477 161.152 6.76537
      vertex 477 161.152 5.23463
      vertex 477 161.586 4.58579
    endloop
  endfacet
  facet normal 1 0 -0
    outer loop
      vertex 477 161.152 5.23463
      vertex 477 161.152 6.76537
      vertex 477 161 6
    endloop
  endfacet
  facet normal -0 0.555483 0.831528
    outer loop
      vertex 477 162.235 4.15224
      vertex 514 161.586 4.58579
      vertex 514 162.235 4.15224
    endloop
  endfacet
  facet normal 0 0.555483 0.831528
    outer loop
      vertex 514 161.586 4.58579
      vertex 477 162.235 4.15224
      vertex 477 161.586 4.58579
    endloop
  endfacet
  facet normal 0 -0.831198 -0.555977
    outer loop
      vertex 477 164.848 6.76537
      vertex 514 164.414 7.41421
      vertex 477 164.414 7.41421
    endloop
  endfacet
  facet normal 0 -0.831198 -0.555977
    outer loop
      vertex 514 164.414 7.41421
      vertex 477 164.848 6.76537
      vertex 514 164.848 6.76537
    endloop
  endfacet
  facet normal 0 -0.980844 -0.194793
    outer loop
      vertex 477 165 6
      vertex 514 164.848 6.76537
      vertex 477 164.848 6.76537
    endloop
  endfacet
  facet normal 0 -0.980844 -0.194793
    outer loop
      vertex 514 164.848 6.76537
      vertex 477 165 6
      vertex 514 165 6
    endloop
  endfacet
  facet normal 0 -0.195179 0.980768
    outer loop
      vertex 477 163.765 4.15224
      vertex 514 163 4
      vertex 514 163.765 4.15224
    endloop
  endfacet
  facet normal 0 -0.195179 0.980768
    outer loop
      vertex 514 163 4
      vertex 477 163.765 4.15224
      vertex 477 163 4
    endloop
  endfacet
  facet normal 0 0.555483 -0.831528
    outer loop
      vertex 477 161.586 7.41421
      vertex 514 162.235 7.84776
      vertex 514 161.586 7.41421
    endloop
  endfacet
  facet normal 0 0.555483 -0.831528
    outer loop
      vertex 514 162.235 7.84776
      vertex 477 161.586 7.41421
      vertex 477 162.235 7.84776
    endloop
  endfacet
  facet normal 0 0.195179 -0.980768
    outer loop
      vertex 477 162.235 7.84776
      vertex 514 163 8
      vertex 514 162.235 7.84776
    endloop
  endfacet
  facet normal 0 0.195179 -0.980768
    outer loop
      vertex 514 163 8
      vertex 477 162.235 7.84776
      vertex 477 163 8
    endloop
  endfacet
  facet normal 0 0.980844 0.194793
    outer loop
      vertex 514 161.152 5.23463
      vertex 477 161 6
      vertex 514 161 6
    endloop
  endfacet
  facet normal 0 0.980844 0.194793
    outer loop
      vertex 477 161 6
      vertex 514 161.152 5.23463
      vertex 477 161.152 5.23463
    endloop
  endfacet
  facet normal 0 0.980844 -0.194793
    outer loop
      vertex 514 161 6
      vertex 477 161.152 6.76537
      vertex 514 161.152 6.76537
    endloop
  endfacet
  facet normal 0 0.980844 -0.194793
    outer loop
      vertex 477 161.152 6.76537
      vertex 514 161 6
      vertex 477 161 6
    endloop
  endfacet
  facet normal -0.980795 0 -0.195039
    outer loop
      vertex 52 176 6
      vertex 51.8478 213 6.76537
      vertex 52 213 6
    endloop
  endfacet
  facet normal -0.980795 -0 -0.195039
    outer loop
      vertex 51.8478 213 6.76537
      vertex 52 176 6
      vertex 51.8478 176 6.76537
    endloop
  endfacet
  facet normal -0.831435 0 -0.555622
    outer loop
      vertex 51.8478 176 6.76537
      vertex 51.4142 213 7.41421
      vertex 51.8478 213 6.76537
    endloop
  endfacet
  facet normal -0.831435 -0 -0.555622
    outer loop
      vertex 51.4142 213 7.41421
      vertex 51.8478 176 6.76537
      vertex 51.4142 176 7.41421
    endloop
  endfacet
  facet normal 0.195081 0 -0.980787
    outer loop
      vertex 49.2346 176 7.84776
      vertex 50 213 8
      vertex 50 176 8
    endloop
  endfacet
  facet normal 0.195081 0 -0.980787
    outer loop
      vertex 50 213 8
      vertex 49.2346 176 7.84776
      vertex 49.2346 213 7.84776
    endloop
  endfacet
  facet normal -0.555602 0 0.831448
    outer loop
      vertex 50.7654 213 4.15224
      vertex 51.4142 176 4.58579
      vertex 51.4142 213 4.58579
    endloop
  endfacet
  facet normal -0.555602 0 0.831448
    outer loop
      vertex 51.4142 176 4.58579
      vertex 50.7654 213 4.15224
      vertex 50.7654 176 4.15224
    endloop
  endfacet
  facet normal -0.555602 0 -0.831448
    outer loop
      vertex 50.7654 176 7.84776
      vertex 51.4142 213 7.41421
      vertex 51.4142 176 7.41421
    endloop
  endfacet
  facet normal -0.555602 0 -0.831448
    outer loop
      vertex 51.4142 213 7.41421
      vertex 50.7654 176 7.84776
      vertex 50.7654 213 7.84776
    endloop
  endfacet
  facet normal 0.831435 0 -0.555622
    outer loop
      vertex 48.5858 176 7.41421
      vertex 48.1522 213 6.76537
      vertex 48.5858 213 7.41421
    endloop
  endfacet
  facet normal 0.831435 0 -0.555622
    outer loop
      vertex 48.1522 213 6.76537
      vertex 48.5858 176 7.41421
      vertex 48.1522 176 6.76537
    endloop
  endfacet
  facet normal 0 1 -0
    outer loop
      vertex 256.235 213 7.84776
      vertex 50 213 8
      vertex 257 213 8
    endloop
  endfacet
  facet normal 0 1 0
    outer loop
      vertex 256.235 213 7.84776
      vertex 50.7654 213 7.84776
      vertex 50 213 8
    endloop
  endfacet
  facet normal 0 1 -0
    outer loop
      vertex 255.586 213 7.41421
      vertex 50.7654 213 7.84776
      vertex 256.235 213 7.84776
    endloop
  endfacet
  facet normal 0 1 0
    outer loop
      vertex 255.586 213 7.41421
      vertex 51.4142 213 7.41421
      vertex 50.7654 213 7.84776
    endloop
  endfacet
  facet normal 0 1 -0
    outer loop
      vertex 255.152 213 6.76537
      vertex 51.4142 213 7.41421
      vertex 255.586 213 7.41421
    endloop
  endfacet
  facet normal 0 1 0
    outer loop
      vertex 255.152 213 6.76537
      vertex 51.8478 213 6.76537
      vertex 51.4142 213 7.41421
    endloop
  endfacet
  facet normal 0 1 -0
    outer loop
      vertex 255 213 6
      vertex 51.8478 213 6.76537
      vertex 255.152 213 6.76537
    endloop
  endfacet
  facet normal 0 1 0
    outer loop
      vertex 255 213 6
      vertex 52 213 6
      vertex 51.8478 213 6.76537
    endloop
  endfacet
  facet normal 0 1 0
    outer loop
      vertex 255.152 213 5.23463
      vertex 52 213 6
      vertex 255 213 6
    endloop
  endfacet
  facet normal 0 1 0
    outer loop
      vertex 255.152 213 5.23463
      vertex 51.8478 213 5.23463
      vertex 52 213 6
    endloop
  endfacet
  facet normal 0 1 0
    outer loop
      vertex 255.586 213 4.58579
      vertex 51.8478 213 5.23463
      vertex 255.152 213 5.23463
    endloop
  endfacet
  facet normal 0 1 0
    outer loop
      vertex 255.586 213 4.58579
      vertex 51.4142 213 4.58579
      vertex 51.8478 213 5.23463
    endloop
  endfacet
  facet normal 0 1 0
    outer loop
      vertex 256.235 213 4.15224
      vertex 51.4142 213 4.58579
      vertex 255.586 213 4.58579
    endloop
  endfacet
  facet normal 0 1 0
    outer loop
      vertex 256.235 213 4.15224
      vertex 50.7654 213 4.15224
      vertex 51.4142 213 4.58579
    endloop
  endfacet
  facet normal 0 1 0
    outer loop
      vertex 257 213 4
      vertex 50.7654 213 4.15224
      vertex 256.235 213 4.15224
    endloop
  endfacet
  facet normal 0 1 0
    outer loop
      vertex 50.7654 213 4.15224
      vertex 257 213 4
      vertex 50 213 4
    endloop
  endfacet
  facet normal 0 1 -0
    outer loop
      vertex 463.235 213 7.84776
      vertex 257 213 8
      vertex 464 213 8
    endloop
  endfacet
  facet normal 0 1 0
    outer loop
      vertex 463.235 213 7.84776
      vertex 257.765 213 7.84776
      vertex 257 213 8
    endloop
  endfacet
  facet normal 0 1 -0
    outer loop
      vertex 462.586 213 7.41421
      vertex 257.765 213 7.84776
      vertex 463.235 213 7.84776
    endloop
  endfacet
  facet normal 0 1 0
    outer loop
      vertex 462.586 213 7.41421
      vertex 258.414 213 7.41421
      vertex 257.765 213 7.84776
    endloop
  endfacet
  facet normal 0 1 -0
    outer loop
      vertex 462.152 213 6.76537
      vertex 258.414 213 7.41421
      vertex 462.586 213 7.41421
    endloop
  endfacet
  facet normal 0 1 0
    outer loop
      vertex 462.152 213 6.76537
      vertex 258.848 213 6.76537
      vertex 258.414 213 7.41421
    endloop
  endfacet
  facet normal 0 1 -0
    outer loop
      vertex 462 213 6
      vertex 258.848 213 6.76537
      vertex 462.152 213 6.76537
    endloop
  endfacet
  facet normal 0 1 0
    outer loop
      vertex 462 213 6
      vertex 259 213 6
      vertex 258.848 213 6.76537
    endloop
  endfacet
  facet normal 0 1 0
    outer loop
      vertex 462.152 213 5.23463
      vertex 259 213 6
      vertex 462 213 6
    endloop
  endfacet
  facet normal 0 1 0
    outer loop
      vertex 462.152 213 5.23463
      vertex 258.848 213 5.23463
      vertex 259 213 6
    endloop
  endfacet
  facet normal 0 1 0
    outer loop
      vertex 462.586 213 4.58579
      vertex 258.848 213 5.23463
      vertex 462.152 213 5.23463
    endloop
  endfacet
  facet normal 0 1 0
    outer loop
      vertex 462.586 213 4.58579
      vertex 258.414 213 4.58579
      vertex 258.848 213 5.23463
    endloop
  endfacet
  facet normal 0 1 0
    outer loop
      vertex 463.235 213 4.15224
      vertex 258.414 213 4.58579
      vertex 462.586 213 4.58579
    endloop
  endfacet
  facet normal 0 1 0
    outer loop
      vertex 463.235 213 4.15224
      vertex 257.765 213 4.15224
      vertex 258.414 213 4.58579
    endloop
  endfacet
  facet normal 0 1 0
    outer loop
      vertex 464 213 4
      vertex 257.765 213 4.15224
      vertex 463.235 213 4.15224
    endloop
  endfacet
  facet normal 0 1 0
    outer loop
      vertex 257.765 213 4.15224
      vertex 464 213 4
      vertex 257 213 4
    endloop
  endfacet
  facet normal 0 1 0
    outer loop
      vertex 257 213 8
      vertex 514 213 12
      vertex 464 213 8
    endloop
  endfacet
  facet normal 0 1 0
    outer loop
      vertex 514 213 12
      vertex 464.765 213 7.84776
      vertex 464 213 8
    endloop
  endfacet
  facet normal 0 1 0
    outer loop
      vertex 514 213 12
      vertex 465.414 213 7.41421
      vertex 464.765 213 7.84776
    endloop
  endfacet
  facet normal 0 1 0
    outer loop
      vertex 514 213 12
      vertex 465.848 213 6.76537
      vertex 465.414 213 7.41421
    endloop
  endfacet
  facet normal 0 1 0
    outer loop
      vertex 514 213 12
      vertex 466 213 6
      vertex 465.848 213 6.76537
    endloop
  endfacet
  facet normal 0 1 -0
    outer loop
      vertex 514 213 0
      vertex 466 213 6
      vertex 514 213 12
    endloop
  endfacet
  facet normal 0 1 0
    outer loop
      vertex 466 213 6
      vertex 514 213 0
      vertex 465.848 213 5.23463
    endloop
  endfacet
  facet normal 0 1 0
    outer loop
      vertex 465.848 213 5.23463
      vertex 514 213 0
      vertex 465.414 213 4.58579
    endloop
  endfacet
  facet normal 0 1 0
    outer loop
      vertex 465.414 213 4.58579
      vertex 514 213 0
      vertex 464.765 213 4.15224
    endloop
  endfacet
  facet normal 0 1 0
    outer loop
      vertex 514 213 0
      vertex 257 213 4
      vertex 464 213 4
    endloop
  endfacet
  facet normal 0 1 0
    outer loop
      vertex 0 213 0
      vertex 257 213 4
      vertex 514 213 0
    endloop
  endfacet
  facet normal 0 1 0
    outer loop
      vertex 464.765 213 4.15224
      vertex 514 213 0
      vertex 464 213 4
    endloop
  endfacet
  facet normal 0 1 0
    outer loop
      vertex 514 213 12
      vertex 257 213 8
      vertex 0 213 12
    endloop
  endfacet
  facet normal 0 1 -0
    outer loop
      vertex 50 213 8
      vertex 0 213 12
      vertex 257 213 8
    endloop
  endfacet
  facet normal 0 1 -0
    outer loop
      vertex 49.2346 213 7.84776
      vertex 0 213 12
      vertex 50 213 8
    endloop
  endfacet
  facet normal 0 1 -0
    outer loop
      vertex 48.5858 213 7.41421
      vertex 0 213 12
      vertex 49.2346 213 7.84776
    endloop
  endfacet
  facet normal 0 1 -0
    outer loop
      vertex 48.1522 213 6.76537
      vertex 0 213 12
      vertex 48.5858 213 7.41421
    endloop
  endfacet
  facet normal 0 1 -0
    outer loop
      vertex 48 213 6
      vertex 0 213 12
      vertex 48.1522 213 6.76537
    endloop
  endfacet
  facet normal 0 1 0
    outer loop
      vertex 0 213 0
      vertex 48 213 6
      vertex 48.1522 213 5.23463
    endloop
  endfacet
  facet normal 0 1 0
    outer loop
      vertex 0 213 0
      vertex 48.1522 213 5.23463
      vertex 48.5858 213 4.58579
    endloop
  endfacet
  facet normal 0 1 0
    outer loop
      vertex 0 213 0
      vertex 48.5858 213 4.58579
      vertex 49.2346 213 4.15224
    endloop
  endfacet
  facet normal 0 1 0
    outer loop
      vertex 0 213 0
      vertex 49.2346 213 4.15224
      vertex 50 213 4
    endloop
  endfacet
  facet normal 0 1 0
    outer loop
      vertex 48 213 6
      vertex 0 213 0
      vertex 0 213 12
    endloop
  endfacet
  facet normal 0 1 0
    outer loop
      vertex 257 213 4
      vertex 0 213 0
      vertex 50 213 4
    endloop
  endfacet
  facet normal 0 1 0
    outer loop
      vertex 50.7654 176 7.84776
      vertex 49.2346 176 7.84776
      vertex 50 176 8
    endloop
  endfacet
  facet normal 0 1 0
    outer loop
      vertex 51.4142 176 7.41421
      vertex 49.2346 176 7.84776
      vertex 50.7654 176 7.84776
    endloop
  endfacet
  facet normal 0 1 0
    outer loop
      vertex 51.4142 176 7.41421
      vertex 48.5858 176 7.41421
      vertex 49.2346 176 7.84776
    endloop
  endfacet
  facet normal 0 1 0
    outer loop
      vertex 51.8478 176 6.76537
      vertex 48.5858 176 7.41421
      vertex 51.4142 176 7.41421
    endloop
  endfacet
  facet normal 0 1 0
    outer loop
      vertex 51.8478 176 6.76537
      vertex 48.1522 176 6.76537
      vertex 48.5858 176 7.41421
    endloop
  endfacet
  facet normal 0 1 0
    outer loop
      vertex 52 176 6
      vertex 48.1522 176 6.76537
      vertex 51.8478 176 6.76537
    endloop
  endfacet
  facet normal 0 1 0
    outer loop
      vertex 52 176 6
      vertex 48 176 6
      vertex 48.1522 176 6.76537
    endloop
  endfacet
  facet normal 0 1 -0
    outer loop
      vertex 51.8478 176 5.23463
      vertex 48 176 6
      vertex 52 176 6
    endloop
  endfacet
  facet normal 0 1 0
    outer loop
      vertex 51.8478 176 5.23463
      vertex 48.1522 176 5.23463
      vertex 48 176 6
    endloop
  endfacet
  facet normal 0 1 -0
    outer loop
      vertex 51.4142 176 4.58579
      vertex 48.1522 176 5.23463
      vertex 51.8478 176 5.23463
    endloop
  endfacet
  facet normal 0 1 0
    outer loop
      vertex 51.4142 176 4.58579
      vertex 48.5858 176 4.58579
      vertex 48.1522 176 5.23463
    endloop
  endfacet
  facet normal 0 1 -0
    outer loop
      vertex 50.7654 176 4.15224
      vertex 48.5858 176 4.58579
      vertex 51.4142 176 4.58579
    endloop
  endfacet
  facet normal 0 1 0
    outer loop
      vertex 50.7654 176 4.15224
      vertex 49.2346 176 4.15224
      vertex 48.5858 176 4.58579
    endloop
  endfacet
  facet normal -0 1 0
    outer loop
      vertex 49.2346 176 4.15224
      vertex 50.7654 176 4.15224
      vertex 50 176 4
    endloop
  endfacet
  facet normal 0.555602 0 -0.831448
    outer loop
      vertex 48.5858 176 7.41421
      vertex 49.2346 213 7.84776
      vertex 49.2346 176 7.84776
    endloop
  endfacet
  facet normal 0.555602 0 -0.831448
    outer loop
      vertex 49.2346 213 7.84776
      vertex 48.5858 176 7.41421
      vertex 48.5858 213 7.41421
    endloop
  endfacet
  facet normal 0.831435 -0 0.555622
    outer loop
      vertex 48.1522 176 5.23463
      vertex 48.5858 213 4.58579
      vertex 48.1522 213 5.23463
    endloop
  endfacet
  facet normal 0.831435 0 0.555622
    outer loop
      vertex 48.5858 213 4.58579
      vertex 48.1522 176 5.23463
      vertex 48.5858 176 4.58579
    endloop
  endfacet
  facet normal -0.195081 0 -0.980787
    outer loop
      vertex 50 176 8
      vertex 50.7654 213 7.84776
      vertex 50.7654 176 7.84776
    endloop
  endfacet
  facet normal -0.195081 0 -0.980787
    outer loop
      vertex 50.7654 213 7.84776
      vertex 50 176 8
      vertex 50 213 8
    endloop
  endfacet
  facet normal 0.980795 0 -0.195039
    outer loop
      vertex 48.1522 176 6.76537
      vertex 48 213 6
      vertex 48.1522 213 6.76537
    endloop
  endfacet
  facet normal 0.980795 0 -0.195039
    outer loop
      vertex 48 213 6
      vertex 48.1522 176 6.76537
      vertex 48 176 6
    endloop
  endfacet
  facet normal 0.980795 -0 0.195039
    outer loop
      vertex 48 176 6
      vertex 48.1522 213 5.23463
      vertex 48 213 6
    endloop
  endfacet
  facet normal 0.980795 0 0.195039
    outer loop
      vertex 48.1522 213 5.23463
      vertex 48 176 6
      vertex 48.1522 176 5.23463
    endloop
  endfacet
  facet normal -0.831435 0 0.555622
    outer loop
      vertex 51.4142 176 4.58579
      vertex 51.8478 213 5.23463
      vertex 51.4142 213 4.58579
    endloop
  endfacet
  facet normal -0.831435 0 0.555622
    outer loop
      vertex 51.8478 213 5.23463
      vertex 51.4142 176 4.58579
      vertex 51.8478 176 5.23463
    endloop
  endfacet
  facet normal -0.980795 0 0.195039
    outer loop
      vertex 51.8478 176 5.23463
      vertex 52 213 6
      vertex 51.8478 213 5.23463
    endloop
  endfacet
  facet normal -0.980795 0 0.195039
    outer loop
      vertex 52 213 6
      vertex 51.8478 176 5.23463
      vertex 52 176 6
    endloop
  endfacet
  facet normal 0.195081 0 0.980787
    outer loop
      vertex 49.2346 213 4.15224
      vertex 50 176 4
      vertex 50 213 4
    endloop
  endfacet
  facet normal 0.195081 0 0.980787
    outer loop
      vertex 50 176 4
      vertex 49.2346 213 4.15224
      vertex 49.2346 176 4.15224
    endloop
  endfacet
  facet normal -0.195081 0 0.980787
    outer loop
      vertex 50 213 4
      vertex 50.7654 176 4.15224
      vertex 50.7654 213 4.15224
    endloop
  endfacet
  facet normal -0.195081 0 0.980787
    outer loop
      vertex 50.7654 176 4.15224
      vertex 50 213 4
      vertex 50 176 4
    endloop
  endfacet
  facet normal 0.555602 0 0.831448
    outer loop
      vertex 48.5858 213 4.58579
      vertex 49.2346 176 4.15224
      vertex 49.2346 213 4.15224
    endloop
  endfacet
  facet normal 0.555602 0 0.831448
    outer loop
      vertex 49.2346 176 4.15224
      vertex 48.5858 213 4.58579
      vertex 48.5858 176 4.58579
    endloop
  endfacet
  facet normal -0.980844 0 -0.194793
    outer loop
      vertex 259 176 6
      vertex 258.848 213 6.76537
      vertex 259 213 6
    endloop
  endfacet
  facet normal -0.980844 -0 -0.194793
    outer loop
      vertex 258.848 213 6.76537
      vertex 259 176 6
      vertex 258.848 176 6.76537
    endloop
  endfacet
  facet normal -0.831198 0 -0.555977
    outer loop
      vertex 258.848 176 6.76537
      vertex 258.414 213 7.41421
      vertex 258.848 213 6.76537
    endloop
  endfacet
  facet normal -0.831198 -0 -0.555977
    outer loop
      vertex 258.414 213 7.41421
      vertex 258.848 176 6.76537
      vertex 258.414 176 7.41421
    endloop
  endfacet
  facet normal 0.195179 0 -0.980768
    outer loop
      vertex 256.235 176 7.84776
      vertex 257 213 8
      vertex 257 176 8
    endloop
  endfacet
  facet normal 0.195179 0 -0.980768
    outer loop
      vertex 257 213 8
      vertex 256.235 176 7.84776
      vertex 256.235 213 7.84776
    endloop
  endfacet
  facet normal -0.555483 0 0.831528
    outer loop
      vertex 257.765 213 4.15224
      vertex 258.414 176 4.58579
      vertex 258.414 213 4.58579
    endloop
  endfacet
  facet normal -0.555483 0 0.831528
    outer loop
      vertex 258.414 176 4.58579
      vertex 257.765 213 4.15224
      vertex 257.765 176 4.15224
    endloop
  endfacet
  facet normal -0.555483 0 -0.831528
    outer loop
      vertex 257.765 176 7.84776
      vertex 258.414 213 7.41421
      vertex 258.414 176 7.41421
    endloop
  endfacet
  facet normal -0.555483 0 -0.831528
    outer loop
      vertex 258.414 213 7.41421
      vertex 257.765 176 7.84776
      vertex 257.765 213 7.84776
    endloop
  endfacet
  facet normal 0.831198 0 -0.555977
    outer loop
      vertex 255.586 176 7.41421
      vertex 255.152 213 6.76537
      vertex 255.586 213 7.41421
    endloop
  endfacet
  facet normal 0.831198 0 -0.555977
    outer loop
      vertex 255.152 213 6.76537
      vertex 255.586 176 7.41421
      vertex 255.152 176 6.76537
    endloop
  endfacet
  facet normal 0 1 0
    outer loop
      vertex 257.765 176 7.84776
      vertex 256.235 176 7.84776
      vertex 257 176 8
    endloop
  endfacet
  facet normal 0 1 0
    outer loop
      vertex 258.414 176 7.41421
      vertex 256.235 176 7.84776
      vertex 257.765 176 7.84776
    endloop
  endfacet
  facet normal 0 1 0
    outer loop
      vertex 258.414 176 7.41421
      vertex 255.586 176 7.41421
      vertex 256.235 176 7.84776
    endloop
  endfacet
  facet normal 0 1 0
    outer loop
      vertex 258.848 176 6.76537
      vertex 255.586 176 7.41421
      vertex 258.414 176 7.41421
    endloop
  endfacet
  facet normal 0 1 0
    outer loop
      vertex 258.848 176 6.76537
      vertex 255.152 176 6.76537
      vertex 255.586 176 7.41421
    endloop
  endfacet
  facet normal 0 1 0
    outer loop
      vertex 259 176 6
      vertex 255.152 176 6.76537
      vertex 258.848 176 6.76537
    endloop
  endfacet
  facet normal 0 1 0
    outer loop
      vertex 259 176 6
      vertex 255 176 6
      vertex 255.152 176 6.76537
    endloop
  endfacet
  facet normal 0 1 -0
    outer loop
      vertex 258.848 176 5.23463
      vertex 255 176 6
      vertex 259 176 6
    endloop
  endfacet
  facet normal 0 1 0
    outer loop
      vertex 258.848 176 5.23463
      vertex 255.152 176 5.23463
      vertex 255 176 6
    endloop
  endfacet
  facet normal 0 1 -0
    outer loop
      vertex 258.414 176 4.58579
      vertex 255.152 176 5.23463
      vertex 258.848 176 5.23463
    endloop
  endfacet
  facet normal 0 1 0
    outer loop
      vertex 258.414 176 4.58579
      vertex 255.586 176 4.58579
      vertex 255.152 176 5.23463
    endloop
  endfacet
  facet normal 0 1 -0
    outer loop
      vertex 257.765 176 4.15224
      vertex 255.586 176 4.58579
      vertex 258.414 176 4.58579
    endloop
  endfacet
  facet normal 0 1 0
    outer loop
      vertex 257.765 176 4.15224
      vertex 256.235 176 4.15224
      vertex 255.586 176 4.58579
    endloop
  endfacet
  facet normal -0 1 0
    outer loop
      vertex 256.235 176 4.15224
      vertex 257.765 176 4.15224
      vertex 257 176 4
    endloop
  endfacet
  facet normal 0.555483 0 -0.831528
    outer loop
      vertex 255.586 176 7.41421
      vertex 256.235 213 7.84776
      vertex 256.235 176 7.84776
    endloop
  endfacet
  facet normal 0.555483 0 -0.831528
    outer loop
      vertex 256.235 213 7.84776
      vertex 255.586 176 7.41421
      vertex 255.586 213 7.41421
    endloop
  endfacet
  facet normal 0.831198 -0 0.555977
    outer loop
      vertex 255.152 176 5.23463
      vertex 255.586 213 4.58579
      vertex 255.152 213 5.23463
    endloop
  endfacet
  facet normal 0.831198 0 0.555977
    outer loop
      vertex 255.586 213 4.58579
      vertex 255.152 176 5.23463
      vertex 255.586 176 4.58579
    endloop
  endfacet
  facet normal -0.195179 0 -0.980768
    outer loop
      vertex 257 176 8
      vertex 257.765 213 7.84776
      vertex 257.765 176 7.84776
    endloop
  endfacet
  facet normal -0.195179 0 -0.980768
    outer loop
      vertex 257.765 213 7.84776
      vertex 257 176 8
      vertex 257 213 8
    endloop
  endfacet
  facet normal 0.980844 0 -0.194793
    outer loop
      vertex 255.152 176 6.76537
      vertex 255 213 6
      vertex 255.152 213 6.76537
    endloop
  endfacet
  facet normal 0.980844 0 -0.194793
    outer loop
      vertex 255 213 6
      vertex 255.152 176 6.76537
      vertex 255 176 6
    endloop
  endfacet
  facet normal 0.980844 -0 0.194793
    outer loop
      vertex 255 176 6
      vertex 255.152 213 5.23463
      vertex 255 213 6
    endloop
  endfacet
  facet normal 0.980844 0 0.194793
    outer loop
      vertex 255.152 213 5.23463
      vertex 255 176 6
      vertex 255.152 176 5.23463
    endloop
  endfacet
  facet normal -0.831198 0 0.555977
    outer loop
      vertex 258.414 176 4.58579
      vertex 258.848 213 5.23463
      vertex 258.414 213 4.58579
    endloop
  endfacet
  facet normal -0.831198 0 0.555977
    outer loop
      vertex 258.848 213 5.23463
      vertex 258.414 176 4.58579
      vertex 258.848 176 5.23463
    endloop
  endfacet
  facet normal -0.980844 0 0.194793
    outer loop
      vertex 258.848 176 5.23463
      vertex 259 213 6
      vertex 258.848 213 5.23463
    endloop
  endfacet
  facet normal -0.980844 0 0.194793
    outer loop
      vertex 259 213 6
      vertex 258.848 176 5.23463
      vertex 259 176 6
    endloop
  endfacet
  facet normal 0.195179 0 0.980768
    outer loop
      vertex 256.235 213 4.15224
      vertex 257 176 4
      vertex 257 213 4
    endloop
  endfacet
  facet normal 0.195179 0 0.980768
    outer loop
      vertex 257 176 4
      vertex 256.235 213 4.15224
      vertex 256.235 176 4.15224
    endloop
  endfacet
  facet normal -0.195179 0 0.980768
    outer loop
      vertex 257 213 4
      vertex 257.765 176 4.15224
      vertex 257.765 213 4.15224
    endloop
  endfacet
  facet normal -0.195179 0 0.980768
    outer loop
      vertex 257.765 176 4.15224
      vertex 257 213 4
      vertex 257 176 4
    endloop
  endfacet
  facet normal 0.555483 0 0.831528
    outer loop
      vertex 255.586 213 4.58579
      vertex 256.235 176 4.15224
      vertex 256.235 213 4.15224
    endloop
  endfacet
  facet normal 0.555483 0 0.831528
    outer loop
      vertex 256.235 176 4.15224
      vertex 255.586 213 4.58579
      vertex 255.586 176 4.58579
    endloop
  endfacet
  facet normal -0.980844 0 -0.194793
    outer loop
      vertex 466 176 6
      vertex 465.848 213 6.76537
      vertex 466 213 6
    endloop
  endfacet
  facet normal -0.980844 -0 -0.194793
    outer loop
      vertex 465.848 213 6.76537
      vertex 466 176 6
      vertex 465.848 176 6.76537
    endloop
  endfacet
  facet normal 0.980844 -0 0.194793
    outer loop
      vertex 462 176 6
      vertex 462.152 213 5.23463
      vertex 462 213 6
    endloop
  endfacet
  facet normal 0.980844 0 0.194793
    outer loop
      vertex 462.152 213 5.23463
      vertex 462 176 6
      vertex 462.152 176 5.23463
    endloop
  endfacet
  facet normal -0.555483 0 0.831528
    outer loop
      vertex 464.765 213 4.15224
      vertex 465.414 176 4.58579
      vertex 465.414 213 4.58579
    endloop
  endfacet
  facet normal -0.555483 0 0.831528
    outer loop
      vertex 465.414 176 4.58579
      vertex 464.765 213 4.15224
      vertex 464.765 176 4.15224
    endloop
  endfacet
  facet normal -0.195179 0 0.980768
    outer loop
      vertex 464 213 4
      vertex 464.765 176 4.15224
      vertex 464.765 213 4.15224
    endloop
  endfacet
  facet normal -0.195179 0 0.980768
    outer loop
      vertex 464.765 176 4.15224
      vertex 464 213 4
      vertex 464 176 4
    endloop
  endfacet
  facet normal -0.555483 0 -0.831528
    outer loop
      vertex 464.765 176 7.84776
      vertex 465.414 213 7.41421
      vertex 465.414 176 7.41421
    endloop
  endfacet
  facet normal -0.555483 0 -0.831528
    outer loop
      vertex 465.414 213 7.41421
      vertex 464.765 176 7.84776
      vertex 464.765 213 7.84776
    endloop
  endfacet
  facet normal 0.195179 0 -0.980768
    outer loop
      vertex 463.235 176 7.84776
      vertex 464 213 8
      vertex 464 176 8
    endloop
  endfacet
  facet normal 0.195179 0 -0.980768
    outer loop
      vertex 464 213 8
      vertex 463.235 176 7.84776
      vertex 463.235 213 7.84776
    endloop
  endfacet
  facet normal -0.195179 0 -0.980768
    outer loop
      vertex 464 176 8
      vertex 464.765 213 7.84776
      vertex 464.765 176 7.84776
    endloop
  endfacet
  facet normal -0.195179 0 -0.980768
    outer loop
      vertex 464.765 213 7.84776
      vertex 464 176 8
      vertex 464 213 8
    endloop
  endfacet
  facet normal -0.831198 0 0.555977
    outer loop
      vertex 465.414 176 4.58579
      vertex 465.848 213 5.23463
      vertex 465.414 213 4.58579
    endloop
  endfacet
  facet normal -0.831198 0 0.555977
    outer loop
      vertex 465.848 213 5.23463
      vertex 465.414 176 4.58579
      vertex 465.848 176 5.23463
    endloop
  endfacet
  facet normal 0.195179 0 0.980768
    outer loop
      vertex 463.235 213 4.15224
      vertex 464 176 4
      vertex 464 213 4
    endloop
  endfacet
  facet normal 0.195179 0 0.980768
    outer loop
      vertex 464 176 4
      vertex 463.235 213 4.15224
      vertex 463.235 176 4.15224
    endloop
  endfacet
  facet normal -0.831198 0 -0.555977
    outer loop
      vertex 465.848 176 6.76537
      vertex 465.414 213 7.41421
      vertex 465.848 213 6.76537
    endloop
  endfacet
  facet normal -0.831198 -0 -0.555977
    outer loop
      vertex 465.414 213 7.41421
      vertex 465.848 176 6.76537
      vertex 465.414 176 7.41421
    endloop
  endfacet
  facet normal 0 1 0
    outer loop
      vertex 464.765 176 7.84776
      vertex 463.235 176 7.84776
      vertex 464 176 8
    endloop
  endfacet
  facet normal 0 1 0
    outer loop
      vertex 465.414 176 7.41421
      vertex 463.235 176 7.84776
      vertex 464.765 176 7.84776
    endloop
  endfacet
  facet normal 0 1 0
    outer loop
      vertex 465.414 176 7.41421
      vertex 462.586 176 7.41421
      vertex 463.235 176 7.84776
    endloop
  endfacet
  facet normal 0 1 0
    outer loop
      vertex 465.848 176 6.76537
      vertex 462.586 176 7.41421
      vertex 465.414 176 7.41421
    endloop
  endfacet
  facet normal 0 1 0
    outer loop
      vertex 465.848 176 6.76537
      vertex 462.152 176 6.76537
      vertex 462.586 176 7.41421
    endloop
  endfacet
  facet normal 0 1 0
    outer loop
      vertex 466 176 6
      vertex 462.152 176 6.76537
      vertex 465.848 176 6.76537
    endloop
  endfacet
  facet normal 0 1 0
    outer loop
      vertex 466 176 6
      vertex 462 176 6
      vertex 462.152 176 6.76537
    endloop
  endfacet
  facet normal 0 1 -0
    outer loop
      vertex 465.848 176 5.23463
      vertex 462 176 6
      vertex 466 176 6
    endloop
  endfacet
  facet normal 0 1 0
    outer loop
      vertex 465.848 176 5.23463
      vertex 462.152 176 5.23463
      vertex 462 176 6
    endloop
  endfacet
  facet normal 0 1 -0
    outer loop
      vertex 465.414 176 4.58579
      vertex 462.152 176 5.23463
      vertex 465.848 176 5.23463
    endloop
  endfacet
  facet normal 0 1 0
    outer loop
      vertex 465.414 176 4.58579
      vertex 462.586 176 4.58579
      vertex 462.152 176 5.23463
    endloop
  endfacet
  facet normal 0 1 -0
    outer loop
      vertex 464.765 176 4.15224
      vertex 462.586 176 4.58579
      vertex 465.414 176 4.58579
    endloop
  endfacet
  facet normal 0 1 0
    outer loop
      vertex 464.765 176 4.15224
      vertex 463.235 176 4.15224
      vertex 462.586 176 4.58579
    endloop
  endfacet
  facet normal -0 1 0
    outer loop
      vertex 463.235 176 4.15224
      vertex 464.765 176 4.15224
      vertex 464 176 4
    endloop
  endfacet
  facet normal 0.980844 0 -0.194793
    outer loop
      vertex 462.152 176 6.76537
      vertex 462 213 6
      vertex 462.152 213 6.76537
    endloop
  endfacet
  facet normal 0.980844 0 -0.194793
    outer loop
      vertex 462 213 6
      vertex 462.152 176 6.76537
      vertex 462 176 6
    endloop
  endfacet
  facet normal 0.555483 0 -0.831528
    outer loop
      vertex 462.586 176 7.41421
      vertex 463.235 213 7.84776
      vertex 463.235 176 7.84776
    endloop
  endfacet
  facet normal 0.555483 0 -0.831528
    outer loop
      vertex 463.235 213 7.84776
      vertex 462.586 176 7.41421
      vertex 462.586 213 7.41421
    endloop
  endfacet
  facet normal 0.831198 0 -0.555977
    outer loop
      vertex 462.586 176 7.41421
      vertex 462.152 213 6.76537
      vertex 462.586 213 7.41421
    endloop
  endfacet
  facet normal 0.831198 0 -0.555977
    outer loop
      vertex 462.152 213 6.76537
      vertex 462.586 176 7.41421
      vertex 462.152 176 6.76537
    endloop
  endfacet
  facet normal -0.980844 0 0.194793
    outer loop
      vertex 465.848 176 5.23463
      vertex 466 213 6
      vertex 465.848 213 5.23463
    endloop
  endfacet
  facet normal -0.980844 0 0.194793
    outer loop
      vertex 466 213 6
      vertex 465.848 176 5.23463
      vertex 466 176 6
    endloop
  endfacet
  facet normal 0.831198 -0 0.555977
    outer loop
      vertex 462.152 176 5.23463
      vertex 462.586 213 4.58579
      vertex 462.152 213 5.23463
    endloop
  endfacet
  facet normal 0.831198 0 0.555977
    outer loop
      vertex 462.586 213 4.58579
      vertex 462.152 176 5.23463
      vertex 462.586 176 4.58579
    endloop
  endfacet
  facet normal 0.555483 0 0.831528
    outer loop
      vertex 462.586 213 4.58579
      vertex 463.235 176 4.15224
      vertex 463.235 213 4.15224
    endloop
  endfacet
  facet normal 0.555483 0 0.831528
    outer loop
      vertex 463.235 176 4.15224
      vertex 462.586 213 4.58579
      vertex 462.586 176 4.58579
    endloop
  endfacet
  facet normal -0 0 1
    outer loop
      vertex 0 213 12
      vertex 514 0 12
      vertex 514 213 12
    endloop
  endfacet
  facet normal 0 0 1
    outer loop
      vertex 514 0 12
      vertex 0 213 12
      vertex 0 0 12
    endloop
  endfacet
  facet normal 0 0 -1
    outer loop
      vertex 0 0 0
      vertex 514 213 0
      vertex 514 0 0
    endloop
  endfacet
  facet normal -0 0 -1
    outer loop
      vertex 514 213 0
      vertex 0 0 0
      vertex 0 213 0
    endloop
  endfacet
endsolid OpenSCAD_Model
