solid OpenSCAD_Model
  facet normal 0.195327 0.980738 -0
    outer loop
      vertex 190 71.25 -2
      vertex 189.522 71.3452 0
      vertex 190 71.25 0
    endloop
  endfacet
  facet normal 0.195327 0.980738 0
    outer loop
      vertex 189.522 71.3452 0
      vertex 190 71.25 -2
      vertex 189.522 71.3452 -2
    endloop
  endfacet
  facet normal 0.195327 -0.980738 0
    outer loop
      vertex 189.522 73.6548 -2
      vertex 190 73.75 0
      vertex 189.522 73.6548 0
    endloop
  endfacet
  facet normal 0.195327 -0.980738 0
    outer loop
      vertex 190 73.75 0
      vertex 189.522 73.6548 -2
      vertex 190 73.75 -2
    endloop
  endfacet
  facet normal 0.555031 0.83183 -0
    outer loop
      vertex 189.522 71.3452 -2
      vertex 189.116 71.6161 0
      vertex 189.522 71.3452 0
    endloop
  endfacet
  facet normal 0.555031 0.83183 0
    outer loop
      vertex 189.116 71.6161 0
      vertex 189.522 71.3452 -2
      vertex 189.116 71.6161 -2
    endloop
  endfacet
  facet normal -0.980848 0.194775 0
    outer loop
      vertex 191.155 72.0216 -2
      vertex 191.25 72.5 0
      vertex 191.25 72.5 -2
    endloop
  endfacet
  facet normal -0.980848 0.194775 0
    outer loop
      vertex 191.25 72.5 0
      vertex 191.155 72.0216 -2
      vertex 191.155 72.0216 0
    endloop
  endfacet
  facet normal -0.831419 0.555646 0
    outer loop
      vertex 190.884 71.6161 -2
      vertex 191.155 72.0216 0
      vertex 191.155 72.0216 -2
    endloop
  endfacet
  facet normal -0.831419 0.555646 0
    outer loop
      vertex 191.155 72.0216 0
      vertex 190.884 71.6161 -2
      vertex 190.884 71.6161 0
    endloop
  endfacet
  facet normal 0.831419 0.555646 0
    outer loop
      vertex 189.116 71.6161 0
      vertex 188.845 72.0216 -2
      vertex 188.845 72.0216 0
    endloop
  endfacet
  facet normal 0.831419 0.555646 0
    outer loop
      vertex 188.845 72.0216 -2
      vertex 189.116 71.6161 0
      vertex 189.116 71.6161 -2
    endloop
  endfacet
  facet normal 0.831419 -0.555646 0
    outer loop
      vertex 188.845 72.9784 0
      vertex 189.116 73.3839 -2
      vertex 189.116 73.3839 0
    endloop
  endfacet
  facet normal 0.831419 -0.555646 0
    outer loop
      vertex 189.116 73.3839 -2
      vertex 188.845 72.9784 0
      vertex 188.845 72.9784 -2
    endloop
  endfacet
  facet normal 0.555031 -0.83183 0
    outer loop
      vertex 189.116 73.3839 -2
      vertex 189.522 73.6548 0
      vertex 189.116 73.3839 0
    endloop
  endfacet
  facet normal 0.555031 -0.83183 0
    outer loop
      vertex 189.522 73.6548 0
      vertex 189.116 73.3839 -2
      vertex 189.522 73.6548 -2
    endloop
  endfacet
  facet normal 0.980848 -0.194775 0
    outer loop
      vertex 188.75 72.5 0
      vertex 188.845 72.9784 -2
      vertex 188.845 72.9784 0
    endloop
  endfacet
  facet normal 0.980848 -0.194775 0
    outer loop
      vertex 188.845 72.9784 -2
      vertex 188.75 72.5 0
      vertex 188.75 72.5 -2
    endloop
  endfacet
  facet normal -0.195327 0.980738 0
    outer loop
      vertex 190.478 71.3452 -2
      vertex 190 71.25 0
      vertex 190.478 71.3452 0
    endloop
  endfacet
  facet normal -0.195327 0.980738 0
    outer loop
      vertex 190 71.25 0
      vertex 190.478 71.3452 -2
      vertex 190 71.25 -2
    endloop
  endfacet
  facet normal 0.980848 0.194775 0
    outer loop
      vertex 188.845 72.0216 0
      vertex 188.75 72.5 -2
      vertex 188.75 72.5 0
    endloop
  endfacet
  facet normal 0.980848 0.194775 0
    outer loop
      vertex 188.75 72.5 -2
      vertex 188.845 72.0216 0
      vertex 188.845 72.0216 -2
    endloop
  endfacet
  facet normal -0.555031 0.83183 0
    outer loop
      vertex 190.884 71.6161 -2
      vertex 190.478 71.3452 0
      vertex 190.884 71.6161 0
    endloop
  endfacet
  facet normal -0.555031 0.83183 0
    outer loop
      vertex 190.478 71.3452 0
      vertex 190.884 71.6161 -2
      vertex 190.478 71.3452 -2
    endloop
  endfacet
  facet normal 0 0 1
    outer loop
      vertex 191.155 72.9784 -2
      vertex 191.155 72.0216 -2
      vertex 191.25 72.5 -2
    endloop
  endfacet
  facet normal 0 0 1
    outer loop
      vertex 190.884 73.3839 -2
      vertex 191.155 72.0216 -2
      vertex 191.155 72.9784 -2
    endloop
  endfacet
  facet normal 0 0 1
    outer loop
      vertex 190.884 73.3839 -2
      vertex 190.884 71.6161 -2
      vertex 191.155 72.0216 -2
    endloop
  endfacet
  facet normal 0 0 1
    outer loop
      vertex 190.478 73.6548 -2
      vertex 190.884 71.6161 -2
      vertex 190.884 73.3839 -2
    endloop
  endfacet
  facet normal 0 0 1
    outer loop
      vertex 190.478 73.6548 -2
      vertex 190.478 71.3452 -2
      vertex 190.884 71.6161 -2
    endloop
  endfacet
  facet normal 0 0 1
    outer loop
      vertex 190 73.75 -2
      vertex 190.478 71.3452 -2
      vertex 190.478 73.6548 -2
    endloop
  endfacet
  facet normal 0 0 1
    outer loop
      vertex 190 73.75 -2
      vertex 190 71.25 -2
      vertex 190.478 71.3452 -2
    endloop
  endfacet
  facet normal -0 0 1
    outer loop
      vertex 189.522 73.6548 -2
      vertex 190 71.25 -2
      vertex 190 73.75 -2
    endloop
  endfacet
  facet normal 0 0 1
    outer loop
      vertex 189.522 73.6548 -2
      vertex 189.522 71.3452 -2
      vertex 190 71.25 -2
    endloop
  endfacet
  facet normal -0 0 1
    outer loop
      vertex 189.116 73.3839 -2
      vertex 189.522 71.3452 -2
      vertex 189.522 73.6548 -2
    endloop
  endfacet
  facet normal 0 0 1
    outer loop
      vertex 189.116 73.3839 -2
      vertex 189.116 71.6161 -2
      vertex 189.522 71.3452 -2
    endloop
  endfacet
  facet normal -0 0 1
    outer loop
      vertex 188.845 72.9784 -2
      vertex 189.116 71.6161 -2
      vertex 189.116 73.3839 -2
    endloop
  endfacet
  facet normal 0 0 1
    outer loop
      vertex 188.845 72.9784 -2
      vertex 188.845 72.0216 -2
      vertex 189.116 71.6161 -2
    endloop
  endfacet
  facet normal 0 -0 1
    outer loop
      vertex 188.845 72.0216 -2
      vertex 188.845 72.9784 -2
      vertex 188.75 72.5 -2
    endloop
  endfacet
  facet normal -0.831419 -0.555646 0
    outer loop
      vertex 191.155 72.9784 -2
      vertex 190.884 73.3839 0
      vertex 190.884 73.3839 -2
    endloop
  endfacet
  facet normal -0.831419 -0.555646 0
    outer loop
      vertex 190.884 73.3839 0
      vertex 191.155 72.9784 -2
      vertex 191.155 72.9784 0
    endloop
  endfacet
  facet normal -0.555031 -0.83183 0
    outer loop
      vertex 190.478 73.6548 -2
      vertex 190.884 73.3839 0
      vertex 190.478 73.6548 0
    endloop
  endfacet
  facet normal -0.555031 -0.83183 -0
    outer loop
      vertex 190.884 73.3839 0
      vertex 190.478 73.6548 -2
      vertex 190.884 73.3839 -2
    endloop
  endfacet
  facet normal -0.195327 -0.980738 0
    outer loop
      vertex 190 73.75 -2
      vertex 190.478 73.6548 0
      vertex 190 73.75 0
    endloop
  endfacet
  facet normal -0.195327 -0.980738 -0
    outer loop
      vertex 190.478 73.6548 0
      vertex 190 73.75 -2
      vertex 190.478 73.6548 -2
    endloop
  endfacet
  facet normal -0.980848 -0.194775 0
    outer loop
      vertex 191.25 72.5 -2
      vertex 191.155 72.9784 0
      vertex 191.155 72.9784 -2
    endloop
  endfacet
  facet normal -0.980848 -0.194775 0
    outer loop
      vertex 191.155 72.9784 0
      vertex 191.25 72.5 -2
      vertex 191.25 72.5 0
    endloop
  endfacet
  facet normal -0 0 1
    outer loop
      vertex 6.76537 148.152 0
      vertex 61.1161 73.3839 0
      vertex 7.41421 148.586 0
    endloop
  endfacet
  facet normal 0 0 1
    outer loop
      vertex 60.8451 72.9784 0
      vertex 7.84776 50.7654 0
      vertex 8 50 0
    endloop
  endfacet
  facet normal 0 0 1
    outer loop
      vertex 61.1161 73.3839 0
      vertex 6.76537 148.152 0
      vertex 60.8451 72.9784 0
    endloop
  endfacet
  facet normal 0 0 1
    outer loop
      vertex 60.8451 72.9784 0
      vertex 7.41421 51.4142 0
      vertex 7.84776 50.7654 0
    endloop
  endfacet
  facet normal 0 0 1
    outer loop
      vertex 6.76537 51.8478 0
      vertex 60.8451 72.9784 0
      vertex 6.76537 148.152 0
    endloop
  endfacet
  facet normal 0 0 1
    outer loop
      vertex 60.8451 72.9784 0
      vertex 6.76537 51.8478 0
      vertex 7.41421 51.4142 0
    endloop
  endfacet
  facet normal -0 0 1
    outer loop
      vertex 6 148 0
      vertex 6.76537 51.8478 0
      vertex 6.76537 148.152 0
    endloop
  endfacet
  facet normal 0 0 1
    outer loop
      vertex 6 148 0
      vertex 6 52 0
      vertex 6.76537 51.8478 0
    endloop
  endfacet
  facet normal 0 0 1
    outer loop
      vertex 5.23463 148.152 0
      vertex 6 52 0
      vertex 6 148 0
    endloop
  endfacet
  facet normal 0 0 1
    outer loop
      vertex 5.23463 148.152 0
      vertex 5.23463 51.8478 0
      vertex 6 52 0
    endloop
  endfacet
  facet normal 0 0 1
    outer loop
      vertex 4.58579 148.586 0
      vertex 5.23463 51.8478 0
      vertex 5.23463 148.152 0
    endloop
  endfacet
  facet normal 0 0 1
    outer loop
      vertex 4.58579 148.586 0
      vertex 4.58579 51.4142 0
      vertex 5.23463 51.8478 0
    endloop
  endfacet
  facet normal 0 0 1
    outer loop
      vertex 4.15224 149.235 0
      vertex 4.58579 51.4142 0
      vertex 4.58579 148.586 0
    endloop
  endfacet
  facet normal 0 0 1
    outer loop
      vertex 4.15224 149.235 0
      vertex 4.15224 50.7654 0
      vertex 4.58579 51.4142 0
    endloop
  endfacet
  facet normal 0 0 1
    outer loop
      vertex 4 150 0
      vertex 4.15224 50.7654 0
      vertex 4.15224 149.235 0
    endloop
  endfacet
  facet normal 0 0 1
    outer loop
      vertex 4.15224 50.7654 0
      vertex 4 150 0
      vertex 4 50 0
    endloop
  endfacet
  facet normal 0 0 1
    outer loop
      vertex 225 200 0
      vertex 191.25 72.5 0
      vertex 225 0 0
    endloop
  endfacet
  facet normal 0 0 1
    outer loop
      vertex 225 200 0
      vertex 191.155 72.9784 0
      vertex 191.25 72.5 0
    endloop
  endfacet
  facet normal 0 0 1
    outer loop
      vertex 225 200 0
      vertex 190.884 73.3839 0
      vertex 191.155 72.9784 0
    endloop
  endfacet
  facet normal 0 0 1
    outer loop
      vertex 225 200 0
      vertex 190.478 73.6548 0
      vertex 190.884 73.3839 0
    endloop
  endfacet
  facet normal 0 0 1
    outer loop
      vertex 225 200 0
      vertex 190 73.75 0
      vertex 190.478 73.6548 0
    endloop
  endfacet
  facet normal 0 0 1
    outer loop
      vertex 225 200 0
      vertex 189.522 73.6548 0
      vertex 190 73.75 0
    endloop
  endfacet
  facet normal 0 0 1
    outer loop
      vertex 225 200 0
      vertex 189.116 73.3839 0
      vertex 189.522 73.6548 0
    endloop
  endfacet
  facet normal 0 0 1
    outer loop
      vertex 62.8839 73.3839 0
      vertex 189.116 73.3839 0
      vertex 225 200 0
    endloop
  endfacet
  facet normal 0 0 1
    outer loop
      vertex 225 0 0
      vertex 176.848 6.76537 0
      vertex 177 6 0
    endloop
  endfacet
  facet normal 0 0 1
    outer loop
      vertex 188.845 72.0216 0
      vertex 176.414 7.41421 0
      vertex 176.848 6.76537 0
    endloop
  endfacet
  facet normal 0 0 1
    outer loop
      vertex 188.845 72.0216 0
      vertex 175.765 7.84776 0
      vertex 176.414 7.41421 0
    endloop
  endfacet
  facet normal 0 0 1
    outer loop
      vertex 63.25 72.5 0
      vertex 188.75 72.5 0
      vertex 188.845 72.9784 0
    endloop
  endfacet
  facet normal 0 0 1
    outer loop
      vertex 188.845 72.0216 0
      vertex 175 8 0
      vertex 175.765 7.84776 0
    endloop
  endfacet
  facet normal 0 0 1
    outer loop
      vertex 188.845 72.0216 0
      vertex 174.235 7.84776 0
      vertex 175 8 0
    endloop
  endfacet
  facet normal 0 0 1
    outer loop
      vertex 188.845 72.0216 0
      vertex 173.586 7.41421 0
      vertex 174.235 7.84776 0
    endloop
  endfacet
  facet normal 0 0 1
    outer loop
      vertex 188.845 72.0216 0
      vertex 63.1549 72.0216 0
      vertex 173.586 7.41421 0
    endloop
  endfacet
  facet normal 0 0 1
    outer loop
      vertex 173.586 7.41421 0
      vertex 63.1549 72.0216 0
      vertex 173.152 6.76537 0
    endloop
  endfacet
  facet normal 0 0 1
    outer loop
      vertex 188.75 72.5 0
      vertex 63.25 72.5 0
      vertex 63.1549 72.0216 0
    endloop
  endfacet
  facet normal 0 0 1
    outer loop
      vertex 189.116 73.3839 0
      vertex 62.8839 73.3839 0
      vertex 188.845 72.9784 0
    endloop
  endfacet
  facet normal 0 0 1
    outer loop
      vertex 188.845 72.9784 0
      vertex 63.1549 72.9784 0
      vertex 63.25 72.5 0
    endloop
  endfacet
  facet normal 0 0 1
    outer loop
      vertex 188.845 72.9784 0
      vertex 62.8839 73.3839 0
      vertex 63.1549 72.9784 0
    endloop
  endfacet
  facet normal 0 0 1
    outer loop
      vertex 225 200 0
      vertex 62.4784 73.6548 0
      vertex 62.8839 73.3839 0
    endloop
  endfacet
  facet normal -0 0 1
    outer loop
      vertex 8 150 0
      vertex 62.4784 73.6548 0
      vertex 225 200 0
    endloop
  endfacet
  facet normal 0 0 1
    outer loop
      vertex 62.4784 73.6548 0
      vertex 8 150 0
      vertex 62 73.75 0
    endloop
  endfacet
  facet normal -0 0 1
    outer loop
      vertex 7.84776 149.235 0
      vertex 62 73.75 0
      vertex 8 150 0
    endloop
  endfacet
  facet normal 0 0 1
    outer loop
      vertex 173 6 0
      vertex 51.8478 6.76537 0
      vertex 52 6 0
    endloop
  endfacet
  facet normal 0 0 1
    outer loop
      vertex 60.8451 72.0216 0
      vertex 51.4142 7.41421 0
      vertex 51.8478 6.76537 0
    endloop
  endfacet
  facet normal 0 0 1
    outer loop
      vertex 60.8451 72.0216 0
      vertex 50.7654 7.84776 0
      vertex 51.4142 7.41421 0
    endloop
  endfacet
  facet normal 0 0 1
    outer loop
      vertex 60.8451 72.0216 0
      vertex 50 8 0
      vertex 50.7654 7.84776 0
    endloop
  endfacet
  facet normal 0 0 1
    outer loop
      vertex 60.8451 72.0216 0
      vertex 49.2346 7.84776 0
      vertex 50 8 0
    endloop
  endfacet
  facet normal 0 0 1
    outer loop
      vertex 60.8451 72.0216 0
      vertex 7.84776 49.2346 0
      vertex 49.2346 7.84776 0
    endloop
  endfacet
  facet normal 0 0 1
    outer loop
      vertex 49.2346 7.84776 0
      vertex 7.84776 49.2346 0
      vertex 48.5858 7.41421 0
    endloop
  endfacet
  facet normal -0 0 1
    outer loop
      vertex 7.41421 48.5858 0
      vertex 48.5858 7.41421 0
      vertex 7.84776 49.2346 0
    endloop
  endfacet
  facet normal 0 0 1
    outer loop
      vertex 60.8451 72.9784 0
      vertex 8 50 0
      vertex 60.75 72.5 0
    endloop
  endfacet
  facet normal 0 0 1
    outer loop
      vertex 61.5216 73.6548 0
      vertex 7.41421 148.586 0
      vertex 61.1161 73.3839 0
    endloop
  endfacet
  facet normal -0 0 1
    outer loop
      vertex 7.41421 148.586 0
      vertex 61.5216 73.6548 0
      vertex 7.84776 149.235 0
    endloop
  endfacet
  facet normal 0 0 1
    outer loop
      vertex 62 73.75 0
      vertex 7.84776 149.235 0
      vertex 61.5216 73.6548 0
    endloop
  endfacet
  facet normal 0 0 1
    outer loop
      vertex 225 200 0
      vertex 7.84776 150.765 0
      vertex 8 150 0
    endloop
  endfacet
  facet normal -0 0 1
    outer loop
      vertex 0 200 0
      vertex 7.84776 150.765 0
      vertex 225 200 0
    endloop
  endfacet
  facet normal 0 0 1
    outer loop
      vertex 7.84776 150.765 0
      vertex 0 200 0
      vertex 7.41421 151.414 0
    endloop
  endfacet
  facet normal 0 0 1
    outer loop
      vertex 7.41421 151.414 0
      vertex 0 200 0
      vertex 6.76537 151.848 0
    endloop
  endfacet
  facet normal 0 0 1
    outer loop
      vertex 6.76537 151.848 0
      vertex 0 200 0
      vertex 6 152 0
    endloop
  endfacet
  facet normal 0 0 1
    outer loop
      vertex 4 150 0
      vertex 0 200 0
      vertex 4 50 0
    endloop
  endfacet
  facet normal 0 0 1
    outer loop
      vertex 4.15224 150.765 0
      vertex 0 200 0
      vertex 4 150 0
    endloop
  endfacet
  facet normal 0 0 1
    outer loop
      vertex 4.58579 151.414 0
      vertex 0 200 0
      vertex 4.15224 150.765 0
    endloop
  endfacet
  facet normal 0 0 1
    outer loop
      vertex 5.23463 151.848 0
      vertex 0 200 0
      vertex 4.58579 151.414 0
    endloop
  endfacet
  facet normal 0 0 1
    outer loop
      vertex 6 152 0
      vertex 0 200 0
      vertex 5.23463 151.848 0
    endloop
  endfacet
  facet normal -0 0 1
    outer loop
      vertex 191.155 72.0216 0
      vertex 225 0 0
      vertex 191.25 72.5 0
    endloop
  endfacet
  facet normal -0 0 1
    outer loop
      vertex 190.884 71.6161 0
      vertex 225 0 0
      vertex 191.155 72.0216 0
    endloop
  endfacet
  facet normal -0 0 1
    outer loop
      vertex 190.478 71.3452 0
      vertex 225 0 0
      vertex 190.884 71.6161 0
    endloop
  endfacet
  facet normal 0 0 1
    outer loop
      vertex 176.848 6.76537 0
      vertex 190.478 71.3452 0
      vertex 190 71.25 0
    endloop
  endfacet
  facet normal 0 0 1
    outer loop
      vertex 176.848 6.76537 0
      vertex 190 71.25 0
      vertex 189.522 71.3452 0
    endloop
  endfacet
  facet normal 0 0 1
    outer loop
      vertex 176.848 6.76537 0
      vertex 189.522 71.3452 0
      vertex 189.116 71.6161 0
    endloop
  endfacet
  facet normal 0 0 1
    outer loop
      vertex 176.848 6.76537 0
      vertex 189.116 71.6161 0
      vertex 188.845 72.0216 0
    endloop
  endfacet
  facet normal 0 0 1
    outer loop
      vertex 63.1549 72.0216 0
      vertex 188.845 72.0216 0
      vertex 188.75 72.5 0
    endloop
  endfacet
  facet normal -0 0 1
    outer loop
      vertex 176.848 6.76537 0
      vertex 225 0 0
      vertex 190.478 71.3452 0
    endloop
  endfacet
  facet normal -0 0 1
    outer loop
      vertex 176.848 5.23463 0
      vertex 225 0 0
      vertex 177 6 0
    endloop
  endfacet
  facet normal -0 0 1
    outer loop
      vertex 176.414 4.58579 0
      vertex 225 0 0
      vertex 176.848 5.23463 0
    endloop
  endfacet
  facet normal -0 0 1
    outer loop
      vertex 175.765 4.15224 0
      vertex 225 0 0
      vertex 176.414 4.58579 0
    endloop
  endfacet
  facet normal -0 0 1
    outer loop
      vertex 175 4 0
      vertex 225 0 0
      vertex 175.765 4.15224 0
    endloop
  endfacet
  facet normal -0 0 1
    outer loop
      vertex 62.8839 71.6161 0
      vertex 173.152 6.76537 0
      vertex 63.1549 72.0216 0
    endloop
  endfacet
  facet normal 0 0 1
    outer loop
      vertex 51.8478 6.76537 0
      vertex 173.152 6.76537 0
      vertex 62.8839 71.6161 0
    endloop
  endfacet
  facet normal 0 0 1
    outer loop
      vertex 173.152 6.76537 0
      vertex 51.8478 6.76537 0
      vertex 173 6 0
    endloop
  endfacet
  facet normal 0 0 1
    outer loop
      vertex 173 6 0
      vertex 52 6 0
      vertex 173.152 5.23463 0
    endloop
  endfacet
  facet normal 0 0 1
    outer loop
      vertex 51.8478 5.23463 0
      vertex 173.152 5.23463 0
      vertex 52 6 0
    endloop
  endfacet
  facet normal 0 0 1
    outer loop
      vertex 51.8478 6.76537 0
      vertex 62.8839 71.6161 0
      vertex 62.4784 71.3452 0
    endloop
  endfacet
  facet normal 0 0 1
    outer loop
      vertex 51.8478 6.76537 0
      vertex 62.4784 71.3452 0
      vertex 62 71.25 0
    endloop
  endfacet
  facet normal 0 0 1
    outer loop
      vertex 51.8478 6.76537 0
      vertex 62 71.25 0
      vertex 61.5216 71.3452 0
    endloop
  endfacet
  facet normal 0 0 1
    outer loop
      vertex 8 50 0
      vertex 60.8451 72.0216 0
      vertex 60.75 72.5 0
    endloop
  endfacet
  facet normal 0 0 1
    outer loop
      vertex 51.8478 6.76537 0
      vertex 61.1161 71.6161 0
      vertex 60.8451 72.0216 0
    endloop
  endfacet
  facet normal 0 0 1
    outer loop
      vertex 51.8478 6.76537 0
      vertex 61.5216 71.3452 0
      vertex 61.1161 71.6161 0
    endloop
  endfacet
  facet normal 0 0 1
    outer loop
      vertex 173.152 5.23463 0
      vertex 51.8478 5.23463 0
      vertex 173.586 4.58579 0
    endloop
  endfacet
  facet normal 0 0 1
    outer loop
      vertex 51.4142 4.58579 0
      vertex 173.586 4.58579 0
      vertex 51.8478 5.23463 0
    endloop
  endfacet
  facet normal 0 0 1
    outer loop
      vertex 173.586 4.58579 0
      vertex 51.4142 4.58579 0
      vertex 174.235 4.15224 0
    endloop
  endfacet
  facet normal 0 0 1
    outer loop
      vertex 50.7654 4.15224 0
      vertex 174.235 4.15224 0
      vertex 51.4142 4.58579 0
    endloop
  endfacet
  facet normal 0 0 1
    outer loop
      vertex 174.235 4.15224 0
      vertex 50.7654 4.15224 0
      vertex 175 4 0
    endloop
  endfacet
  facet normal 0 0 1
    outer loop
      vertex 50 4 0
      vertex 175 4 0
      vertex 50.7654 4.15224 0
    endloop
  endfacet
  facet normal 0 0 1
    outer loop
      vertex 175 4 0
      vertex 50 4 0
      vertex 225 0 0
    endloop
  endfacet
  facet normal 0 0 1
    outer loop
      vertex 60.8451 72.0216 0
      vertex 8 50 0
      vertex 7.84776 49.2346 0
    endloop
  endfacet
  facet normal 0 0 1
    outer loop
      vertex 48.5858 7.41421 0
      vertex 7.41421 48.5858 0
      vertex 48.1522 6.76537 0
    endloop
  endfacet
  facet normal -0 0 1
    outer loop
      vertex 6.76537 48.1522 0
      vertex 48.1522 6.76537 0
      vertex 7.41421 48.5858 0
    endloop
  endfacet
  facet normal 0 0 1
    outer loop
      vertex 0 0 0
      vertex 48.1522 6.76537 0
      vertex 6.76537 48.1522 0
    endloop
  endfacet
  facet normal 0 0 1
    outer loop
      vertex 48.1522 6.76537 0
      vertex 0 0 0
      vertex 48 6 0
    endloop
  endfacet
  facet normal 0 0 1
    outer loop
      vertex 48 6 0
      vertex 0 0 0
      vertex 48.1522 5.23463 0
    endloop
  endfacet
  facet normal 0 0 1
    outer loop
      vertex 0 0 0
      vertex 6.76537 48.1522 0
      vertex 6 48 0
    endloop
  endfacet
  facet normal 0 0 1
    outer loop
      vertex 0 0 0
      vertex 6 48 0
      vertex 5.23463 48.1522 0
    endloop
  endfacet
  facet normal 0 0 1
    outer loop
      vertex 0 0 0
      vertex 5.23463 48.1522 0
      vertex 4.58579 48.5858 0
    endloop
  endfacet
  facet normal 0 0 1
    outer loop
      vertex 50 4 0
      vertex 0 0 0
      vertex 225 0 0
    endloop
  endfacet
  facet normal 0 0 1
    outer loop
      vertex 49.2346 4.15224 0
      vertex 0 0 0
      vertex 50 4 0
    endloop
  endfacet
  facet normal 0 0 1
    outer loop
      vertex 48.5858 4.58579 0
      vertex 0 0 0
      vertex 49.2346 4.15224 0
    endloop
  endfacet
  facet normal 0 0 1
    outer loop
      vertex 48.1522 5.23463 0
      vertex 0 0 0
      vertex 48.5858 4.58579 0
    endloop
  endfacet
  facet normal 0 0 1
    outer loop
      vertex 4.15224 49.2346 0
      vertex 0 0 0
      vertex 4.58579 48.5858 0
    endloop
  endfacet
  facet normal 0 0 1
    outer loop
      vertex 4 50 0
      vertex 0 0 0
      vertex 4.15224 49.2346 0
    endloop
  endfacet
  facet normal 0 0 1
    outer loop
      vertex 0 0 0
      vertex 4 50 0
      vertex 0 200 0
    endloop
  endfacet
  facet normal 0.19517 0.980769 -0
    outer loop
      vertex 62 71.25 -2
      vertex 61.5216 71.3452 0
      vertex 62 71.25 0
    endloop
  endfacet
  facet normal 0.19517 0.980769 0
    outer loop
      vertex 61.5216 71.3452 0
      vertex 62 71.25 -2
      vertex 61.5216 71.3452 -2
    endloop
  endfacet
  facet normal 0.19517 -0.980769 0
    outer loop
      vertex 61.5216 73.6548 -2
      vertex 62 73.75 0
      vertex 61.5216 73.6548 0
    endloop
  endfacet
  facet normal 0.19517 -0.980769 0
    outer loop
      vertex 62 73.75 0
      vertex 61.5216 73.6548 -2
      vertex 62 73.75 -2
    endloop
  endfacet
  facet normal 0.555504 0.831514 -0
    outer loop
      vertex 61.5216 71.3452 -2
      vertex 61.1161 71.6161 0
      vertex 61.5216 71.3452 0
    endloop
  endfacet
  facet normal 0.555504 0.831514 0
    outer loop
      vertex 61.1161 71.6161 0
      vertex 61.5216 71.3452 -2
      vertex 61.1161 71.6161 -2
    endloop
  endfacet
  facet normal 0.831419 0.555646 0
    outer loop
      vertex 61.1161 71.6161 0
      vertex 60.8451 72.0216 -2
      vertex 60.8451 72.0216 0
    endloop
  endfacet
  facet normal 0.831419 0.555646 0
    outer loop
      vertex 60.8451 72.0216 -2
      vertex 61.1161 71.6161 0
      vertex 61.1161 71.6161 -2
    endloop
  endfacet
  facet normal 0.980809 -0.194973 0
    outer loop
      vertex 60.75 72.5 0
      vertex 60.8451 72.9784 -2
      vertex 60.8451 72.9784 0
    endloop
  endfacet
  facet normal 0.980809 -0.194973 0
    outer loop
      vertex 60.8451 72.9784 -2
      vertex 60.75 72.5 0
      vertex 60.75 72.5 -2
    endloop
  endfacet
  facet normal 0.555504 -0.831514 0
    outer loop
      vertex 61.1161 73.3839 -2
      vertex 61.5216 73.6548 0
      vertex 61.1161 73.3839 0
    endloop
  endfacet
  facet normal 0.555504 -0.831514 0
    outer loop
      vertex 61.5216 73.6548 0
      vertex 61.1161 73.3839 -2
      vertex 61.5216 73.6548 -2
    endloop
  endfacet
  facet normal 0.831419 -0.555646 0
    outer loop
      vertex 60.8451 72.9784 0
      vertex 61.1161 73.3839 -2
      vertex 61.1161 73.3839 0
    endloop
  endfacet
  facet normal 0.831419 -0.555646 0
    outer loop
      vertex 61.1161 73.3839 -2
      vertex 60.8451 72.9784 0
      vertex 60.8451 72.9784 -2
    endloop
  endfacet
  facet normal 0.980809 0.194973 0
    outer loop
      vertex 60.8451 72.0216 0
      vertex 60.75 72.5 -2
      vertex 60.75 72.5 0
    endloop
  endfacet
  facet normal 0.980809 0.194973 0
    outer loop
      vertex 60.75 72.5 -2
      vertex 60.8451 72.0216 0
      vertex 60.8451 72.0216 -2
    endloop
  endfacet
  facet normal -0.831419 0.555646 0
    outer loop
      vertex 62.8839 71.6161 -2
      vertex 63.1549 72.0216 0
      vertex 63.1549 72.0216 -2
    endloop
  endfacet
  facet normal -0.831419 0.555646 0
    outer loop
      vertex 63.1549 72.0216 0
      vertex 62.8839 71.6161 -2
      vertex 62.8839 71.6161 0
    endloop
  endfacet
  facet normal -0.555504 0.831514 0
    outer loop
      vertex 62.8839 71.6161 -2
      vertex 62.4784 71.3452 0
      vertex 62.8839 71.6161 0
    endloop
  endfacet
  facet normal -0.555504 0.831514 0
    outer loop
      vertex 62.4784 71.3452 0
      vertex 62.8839 71.6161 -2
      vertex 62.4784 71.3452 -2
    endloop
  endfacet
  facet normal -0.19517 0.980769 0
    outer loop
      vertex 62.4784 71.3452 -2
      vertex 62 71.25 0
      vertex 62.4784 71.3452 0
    endloop
  endfacet
  facet normal -0.19517 0.980769 0
    outer loop
      vertex 62 71.25 0
      vertex 62.4784 71.3452 -2
      vertex 62 71.25 -2
    endloop
  endfacet
  facet normal -0.831419 -0.555646 0
    outer loop
      vertex 63.1549 72.9784 -2
      vertex 62.8839 73.3839 0
      vertex 62.8839 73.3839 -2
    endloop
  endfacet
  facet normal -0.831419 -0.555646 0
    outer loop
      vertex 62.8839 73.3839 0
      vertex 63.1549 72.9784 -2
      vertex 63.1549 72.9784 0
    endloop
  endfacet
  facet normal -0.555504 -0.831514 0
    outer loop
      vertex 62.4784 73.6548 -2
      vertex 62.8839 73.3839 0
      vertex 62.4784 73.6548 0
    endloop
  endfacet
  facet normal -0.555504 -0.831514 -0
    outer loop
      vertex 62.8839 73.3839 0
      vertex 62.4784 73.6548 -2
      vertex 62.8839 73.3839 -2
    endloop
  endfacet
  facet normal -0.19517 -0.980769 0
    outer loop
      vertex 62 73.75 -2
      vertex 62.4784 73.6548 0
      vertex 62 73.75 0
    endloop
  endfacet
  facet normal -0.19517 -0.980769 -0
    outer loop
      vertex 62.4784 73.6548 0
      vertex 62 73.75 -2
      vertex 62.4784 73.6548 -2
    endloop
  endfacet
  facet normal -0.980809 0.194973 0
    outer loop
      vertex 63.1549 72.0216 -2
      vertex 63.25 72.5 0
      vertex 63.25 72.5 -2
    endloop
  endfacet
  facet normal -0.980809 0.194973 0
    outer loop
      vertex 63.25 72.5 0
      vertex 63.1549 72.0216 -2
      vertex 63.1549 72.0216 0
    endloop
  endfacet
  facet normal -0.980809 -0.194973 0
    outer loop
      vertex 63.25 72.5 -2
      vertex 63.1549 72.9784 0
      vertex 63.1549 72.9784 -2
    endloop
  endfacet
  facet normal -0.980809 -0.194973 0
    outer loop
      vertex 63.1549 72.9784 0
      vertex 63.25 72.5 -2
      vertex 63.25 72.5 0
    endloop
  endfacet
  facet normal 0 0 1
    outer loop
      vertex 63.1549 72.9784 -2
      vertex 63.1549 72.0216 -2
      vertex 63.25 72.5 -2
    endloop
  endfacet
  facet normal 0 0 1
    outer loop
      vertex 62.8839 73.3839 -2
      vertex 63.1549 72.0216 -2
      vertex 63.1549 72.9784 -2
    endloop
  endfacet
  facet normal 0 0 1
    outer loop
      vertex 62.8839 73.3839 -2
      vertex 62.8839 71.6161 -2
      vertex 63.1549 72.0216 -2
    endloop
  endfacet
  facet normal 0 0 1
    outer loop
      vertex 62.4784 73.6548 -2
      vertex 62.8839 71.6161 -2
      vertex 62.8839 73.3839 -2
    endloop
  endfacet
  facet normal 0 0 1
    outer loop
      vertex 62.4784 73.6548 -2
      vertex 62.4784 71.3452 -2
      vertex 62.8839 71.6161 -2
    endloop
  endfacet
  facet normal 0 0 1
    outer loop
      vertex 62 73.75 -2
      vertex 62.4784 71.3452 -2
      vertex 62.4784 73.6548 -2
    endloop
  endfacet
  facet normal 0 0 1
    outer loop
      vertex 62 73.75 -2
      vertex 62 71.25 -2
      vertex 62.4784 71.3452 -2
    endloop
  endfacet
  facet normal -0 0 1
    outer loop
      vertex 61.5216 73.6548 -2
      vertex 62 71.25 -2
      vertex 62 73.75 -2
    endloop
  endfacet
  facet normal 0 0 1
    outer loop
      vertex 61.5216 73.6548 -2
      vertex 61.5216 71.3452 -2
      vertex 62 71.25 -2
    endloop
  endfacet
  facet normal -0 0 1
    outer loop
      vertex 61.1161 73.3839 -2
      vertex 61.5216 71.3452 -2
      vertex 61.5216 73.6548 -2
    endloop
  endfacet
  facet normal 0 0 1
    outer loop
      vertex 61.1161 73.3839 -2
      vertex 61.1161 71.6161 -2
      vertex 61.5216 71.3452 -2
    endloop
  endfacet
  facet normal -0 0 1
    outer loop
      vertex 60.8451 72.9784 -2
      vertex 61.1161 71.6161 -2
      vertex 61.1161 73.3839 -2
    endloop
  endfacet
  facet normal 0 0 1
    outer loop
      vertex 60.8451 72.9784 -2
      vertex 60.8451 72.0216 -2
      vertex 61.1161 71.6161 -2
    endloop
  endfacet
  facet normal 0 -0 1
    outer loop
      vertex 60.8451 72.0216 -2
      vertex 60.8451 72.9784 -2
      vertex 60.75 72.5 -2
    endloop
  endfacet
  facet normal 0.195039 0.980795 -0
    outer loop
      vertex 6 48 -12
      vertex 5.23463 48.1522 0
      vertex 6 48 0
    endloop
  endfacet
  facet normal 0.195039 0.980795 0
    outer loop
      vertex 5.23463 48.1522 0
      vertex 6 48 -12
      vertex 5.23463 48.1522 -12
    endloop
  endfacet
  facet normal 0.195039 -0.980795 0
    outer loop
      vertex 5.23463 51.8478 -12
      vertex 6 52 0
      vertex 5.23463 51.8478 0
    endloop
  endfacet
  facet normal 0.195039 -0.980795 0
    outer loop
      vertex 6 52 0
      vertex 5.23463 51.8478 -12
      vertex 6 52 -12
    endloop
  endfacet
  facet normal 0.555622 0.831435 -0
    outer loop
      vertex 5.23463 48.1522 -12
      vertex 4.58579 48.5858 0
      vertex 5.23463 48.1522 0
    endloop
  endfacet
  facet normal 0.555622 0.831435 0
    outer loop
      vertex 4.58579 48.5858 0
      vertex 5.23463 48.1522 -12
      vertex 4.58579 48.5858 -12
    endloop
  endfacet
  facet normal 0.831448 0.555602 0
    outer loop
      vertex 4.58579 48.5858 0
      vertex 4.15224 49.2346 -12
      vertex 4.15224 49.2346 0
    endloop
  endfacet
  facet normal 0.831448 0.555602 0
    outer loop
      vertex 4.15224 49.2346 -12
      vertex 4.58579 48.5858 0
      vertex 4.58579 48.5858 -12
    endloop
  endfacet
  facet normal 0.980787 -0.195081 0
    outer loop
      vertex 4 50 0
      vertex 4.15224 50.7654 -12
      vertex 4.15224 50.7654 0
    endloop
  endfacet
  facet normal 0.980787 -0.195081 0
    outer loop
      vertex 4.15224 50.7654 -12
      vertex 4 50 0
      vertex 4 50 -12
    endloop
  endfacet
  facet normal 0.831448 -0.555602 0
    outer loop
      vertex 4.15224 50.7654 0
      vertex 4.58579 51.4142 -12
      vertex 4.58579 51.4142 0
    endloop
  endfacet
  facet normal 0.831448 -0.555602 0
    outer loop
      vertex 4.58579 51.4142 -12
      vertex 4.15224 50.7654 0
      vertex 4.15224 50.7654 -12
    endloop
  endfacet
  facet normal 0.980787 0.195081 0
    outer loop
      vertex 4.15224 49.2346 0
      vertex 4 50 -12
      vertex 4 50 0
    endloop
  endfacet
  facet normal 0.980787 0.195081 0
    outer loop
      vertex 4 50 -12
      vertex 4.15224 49.2346 0
      vertex 4.15224 49.2346 -12
    endloop
  endfacet
  facet normal 0.555622 -0.831435 0
    outer loop
      vertex 4.58579 51.4142 -12
      vertex 5.23463 51.8478 0
      vertex 4.58579 51.4142 0
    endloop
  endfacet
  facet normal 0.555622 -0.831435 0
    outer loop
      vertex 5.23463 51.8478 0
      vertex 4.58579 51.4142 -12
      vertex 5.23463 51.8478 -12
    endloop
  endfacet
  facet normal -0.831448 0.555602 0
    outer loop
      vertex 7.41421 48.5858 -12
      vertex 7.84776 49.2346 0
      vertex 7.84776 49.2346 -12
    endloop
  endfacet
  facet normal -0.831448 0.555602 0
    outer loop
      vertex 7.84776 49.2346 0
      vertex 7.41421 48.5858 -12
      vertex 7.41421 48.5858 0
    endloop
  endfacet
  facet normal -0.555622 0.831435 0
    outer loop
      vertex 7.41421 48.5858 -12
      vertex 6.76537 48.1522 0
      vertex 7.41421 48.5858 0
    endloop
  endfacet
  facet normal -0.555622 0.831435 0
    outer loop
      vertex 6.76537 48.1522 0
      vertex 7.41421 48.5858 -12
      vertex 6.76537 48.1522 -12
    endloop
  endfacet
  facet normal -0.195039 0.980795 0
    outer loop
      vertex 6.76537 48.1522 -12
      vertex 6 48 0
      vertex 6.76537 48.1522 0
    endloop
  endfacet
  facet normal -0.195039 0.980795 0
    outer loop
      vertex 6 48 0
      vertex 6.76537 48.1522 -12
      vertex 6 48 -12
    endloop
  endfacet
  facet normal -0.555622 -0.831435 0
    outer loop
      vertex 6.76537 51.8478 -12
      vertex 7.41421 51.4142 0
      vertex 6.76537 51.8478 0
    endloop
  endfacet
  facet normal -0.555622 -0.831435 -0
    outer loop
      vertex 7.41421 51.4142 0
      vertex 6.76537 51.8478 -12
      vertex 7.41421 51.4142 -12
    endloop
  endfacet
  facet normal -0.980787 0.195081 0
    outer loop
      vertex 7.84776 49.2346 -12
      vertex 8 50 0
      vertex 8 50 -12
    endloop
  endfacet
  facet normal -0.980787 0.195081 0
    outer loop
      vertex 8 50 0
      vertex 7.84776 49.2346 -12
      vertex 7.84776 49.2346 0
    endloop
  endfacet
  facet normal 0 0 -1
    outer loop
      vertex 7.84776 149.235 -12
      vertex 50.7654 7.84776 -12
      vertex 7.84776 50.7654 -12
    endloop
  endfacet
  facet normal 0 0 -1
    outer loop
      vertex 50.7654 7.84776 -12
      vertex 7.84776 149.235 -12
      vertex 8 150 -12
    endloop
  endfacet
  facet normal 0 0 -1
    outer loop
      vertex 7.41421 51.4142 -12
      vertex 7.84776 149.235 -12
      vertex 7.84776 50.7654 -12
    endloop
  endfacet
  facet normal 0 0 -1
    outer loop
      vertex 7.41421 51.4142 -12
      vertex 7.41421 148.586 -12
      vertex 7.84776 149.235 -12
    endloop
  endfacet
  facet normal 0 0 -1
    outer loop
      vertex 6.76537 51.8478 -12
      vertex 7.41421 148.586 -12
      vertex 7.41421 51.4142 -12
    endloop
  endfacet
  facet normal 0 0 -1
    outer loop
      vertex 6.76537 51.8478 -12
      vertex 6.76537 148.152 -12
      vertex 7.41421 148.586 -12
    endloop
  endfacet
  facet normal 0 0 -1
    outer loop
      vertex 6 52 -12
      vertex 6.76537 148.152 -12
      vertex 6.76537 51.8478 -12
    endloop
  endfacet
  facet normal 0 0 -1
    outer loop
      vertex 6 52 -12
      vertex 6 148 -12
      vertex 6.76537 148.152 -12
    endloop
  endfacet
  facet normal 0 0 -1
    outer loop
      vertex 5.23463 51.8478 -12
      vertex 6 148 -12
      vertex 6 52 -12
    endloop
  endfacet
  facet normal 0 0 -1
    outer loop
      vertex 5.23463 51.8478 -12
      vertex 5.23463 148.152 -12
      vertex 6 148 -12
    endloop
  endfacet
  facet normal 0 0 -1
    outer loop
      vertex 4.58579 51.4142 -12
      vertex 5.23463 148.152 -12
      vertex 5.23463 51.8478 -12
    endloop
  endfacet
  facet normal 0 0 -1
    outer loop
      vertex 4.58579 51.4142 -12
      vertex 4.58579 148.586 -12
      vertex 5.23463 148.152 -12
    endloop
  endfacet
  facet normal 0 0 -1
    outer loop
      vertex 4.15224 50.7654 -12
      vertex 4.58579 148.586 -12
      vertex 4.58579 51.4142 -12
    endloop
  endfacet
  facet normal 0 0 -1
    outer loop
      vertex 4.15224 50.7654 -12
      vertex 4.15224 149.235 -12
      vertex 4.58579 148.586 -12
    endloop
  endfacet
  facet normal 0 0 -1
    outer loop
      vertex 4 50 -12
      vertex 4.15224 149.235 -12
      vertex 4.15224 50.7654 -12
    endloop
  endfacet
  facet normal -0 0 -1
    outer loop
      vertex 4.15224 149.235 -12
      vertex 4 50 -12
      vertex 4 150 -12
    endloop
  endfacet
  facet normal 0 0 -1
    outer loop
      vertex 176.848 6.76537 -12
      vertex 225 0 -12
      vertex 177 6 -12
    endloop
  endfacet
  facet normal 0 0 -1
    outer loop
      vertex 225 0 -12
      vertex 176.848 5.23463 -12
      vertex 177 6 -12
    endloop
  endfacet
  facet normal 0 0 -1
    outer loop
      vertex 225 0 -12
      vertex 176.414 4.58579 -12
      vertex 176.848 5.23463 -12
    endloop
  endfacet
  facet normal 0 0 -1
    outer loop
      vertex 225 0 -12
      vertex 175.765 4.15224 -12
      vertex 176.414 4.58579 -12
    endloop
  endfacet
  facet normal 0 0 -1
    outer loop
      vertex 225 0 -12
      vertex 175 4 -12
      vertex 175.765 4.15224 -12
    endloop
  endfacet
  facet normal 0 0 -1
    outer loop
      vertex 173.152 5.23463 -12
      vertex 52 6 -12
      vertex 173 6 -12
    endloop
  endfacet
  facet normal 0 0 -1
    outer loop
      vertex 51.8478 5.23463 -12
      vertex 173.152 5.23463 -12
      vertex 173.586 4.58579 -12
    endloop
  endfacet
  facet normal 0 0 -1
    outer loop
      vertex 51.4142 4.58579 -12
      vertex 173.586 4.58579 -12
      vertex 174.235 4.15224 -12
    endloop
  endfacet
  facet normal 0 0 -1
    outer loop
      vertex 50.7654 4.15224 -12
      vertex 174.235 4.15224 -12
      vertex 175 4 -12
    endloop
  endfacet
  facet normal 0 0 -1
    outer loop
      vertex 50 4 -12
      vertex 175 4 -12
      vertex 225 0 -12
    endloop
  endfacet
  facet normal 0 0 -1
    outer loop
      vertex 173.152 5.23463 -12
      vertex 51.8478 5.23463 -12
      vertex 52 6 -12
    endloop
  endfacet
  facet normal 0 0 -1
    outer loop
      vertex 173.586 4.58579 -12
      vertex 51.4142 4.58579 -12
      vertex 51.8478 5.23463 -12
    endloop
  endfacet
  facet normal 0 0 -1
    outer loop
      vertex 174.235 4.15224 -12
      vertex 50.7654 4.15224 -12
      vertex 51.4142 4.58579 -12
    endloop
  endfacet
  facet normal 0 0 -1
    outer loop
      vertex 175 4 -12
      vertex 50 4 -12
      vertex 50.7654 4.15224 -12
    endloop
  endfacet
  facet normal 0 0 -1
    outer loop
      vertex 0 0 -12
      vertex 48 6 -12
      vertex 48.1522 5.23463 -12
    endloop
  endfacet
  facet normal 0 0 -1
    outer loop
      vertex 0 0 -12
      vertex 48.1522 5.23463 -12
      vertex 48.5858 4.58579 -12
    endloop
  endfacet
  facet normal 0 0 -1
    outer loop
      vertex 48 6 -12
      vertex 7.84776 49.2346 -12
      vertex 8 50 -12
    endloop
  endfacet
  facet normal 0 0 -1
    outer loop
      vertex 48 6 -12
      vertex 7.41421 48.5858 -12
      vertex 7.84776 49.2346 -12
    endloop
  endfacet
  facet normal 0 0 -1
    outer loop
      vertex 48 6 -12
      vertex 6.76537 48.1522 -12
      vertex 7.41421 48.5858 -12
    endloop
  endfacet
  facet normal -0 0 -1
    outer loop
      vertex 48 6 -12
      vertex 0 0 -12
      vertex 6.76537 48.1522 -12
    endloop
  endfacet
  facet normal 0 0 -1
    outer loop
      vertex 6.76537 48.1522 -12
      vertex 0 0 -12
      vertex 6 48 -12
    endloop
  endfacet
  facet normal -0 0 -1
    outer loop
      vertex 6 48 -12
      vertex 0 0 -12
      vertex 5.23463 48.1522 -12
    endloop
  endfacet
  facet normal -0 0 -1
    outer loop
      vertex 4 50 -12
      vertex 0 0 -12
      vertex 4 150 -12
    endloop
  endfacet
  facet normal -0 0 -1
    outer loop
      vertex 4.15224 49.2346 -12
      vertex 0 0 -12
      vertex 4 50 -12
    endloop
  endfacet
  facet normal -0 0 -1
    outer loop
      vertex 4.58579 48.5858 -12
      vertex 0 0 -12
      vertex 4.15224 49.2346 -12
    endloop
  endfacet
  facet normal -0 0 -1
    outer loop
      vertex 5.23463 48.1522 -12
      vertex 0 0 -12
      vertex 4.58579 48.5858 -12
    endloop
  endfacet
  facet normal -0 0 -1
    outer loop
      vertex 49.2346 4.15224 -12
      vertex 0 0 -12
      vertex 48.5858 4.58579 -12
    endloop
  endfacet
  facet normal -0 0 -1
    outer loop
      vertex 50 4 -12
      vertex 0 0 -12
      vertex 49.2346 4.15224 -12
    endloop
  endfacet
  facet normal 0 0 -1
    outer loop
      vertex 0 0 -12
      vertex 50 4 -12
      vertex 225 0 -12
    endloop
  endfacet
  facet normal 0 0 -1
    outer loop
      vertex 176.414 7.41421 -12
      vertex 225 0 -12
      vertex 176.848 6.76537 -12
    endloop
  endfacet
  facet normal 0 0 -1
    outer loop
      vertex 175.765 7.84776 -12
      vertex 225 0 -12
      vertex 176.414 7.41421 -12
    endloop
  endfacet
  facet normal 0 0 -1
    outer loop
      vertex 225 0 -12
      vertex 175.765 7.84776 -12
      vertex 225 200 -12
    endloop
  endfacet
  facet normal 0 0 -1
    outer loop
      vertex 175 8 -12
      vertex 225 200 -12
      vertex 175.765 7.84776 -12
    endloop
  endfacet
  facet normal 0 0 -1
    outer loop
      vertex 174.235 7.84776 -12
      vertex 225 200 -12
      vertex 175 8 -12
    endloop
  endfacet
  facet normal 0 0 -1
    outer loop
      vertex 50.7654 7.84776 -12
      vertex 174.235 7.84776 -12
      vertex 173.586 7.41421 -12
    endloop
  endfacet
  facet normal 0 0 -1
    outer loop
      vertex 51.4142 7.41421 -12
      vertex 173.586 7.41421 -12
      vertex 173.152 6.76537 -12
    endloop
  endfacet
  facet normal 0 0 -1
    outer loop
      vertex 52 6 -12
      vertex 173.152 6.76537 -12
      vertex 173 6 -12
    endloop
  endfacet
  facet normal 0 0 -1
    outer loop
      vertex 51.8478 6.76537 -12
      vertex 173.152 6.76537 -12
      vertex 52 6 -12
    endloop
  endfacet
  facet normal 0 0 -1
    outer loop
      vertex 51.4142 7.41421 -12
      vertex 173.152 6.76537 -12
      vertex 51.8478 6.76537 -12
    endloop
  endfacet
  facet normal 0 0 -1
    outer loop
      vertex 173.586 7.41421 -12
      vertex 51.4142 7.41421 -12
      vertex 50.7654 7.84776 -12
    endloop
  endfacet
  facet normal 0 0 -1
    outer loop
      vertex 174.235 7.84776 -12
      vertex 50.7654 7.84776 -12
      vertex 8 150 -12
    endloop
  endfacet
  facet normal 0 0 -1
    outer loop
      vertex 8 50 -12
      vertex 50.7654 7.84776 -12
      vertex 50 8 -12
    endloop
  endfacet
  facet normal 0 0 -1
    outer loop
      vertex 8 50 -12
      vertex 50 8 -12
      vertex 49.2346 7.84776 -12
    endloop
  endfacet
  facet normal 0 0 -1
    outer loop
      vertex 8 50 -12
      vertex 49.2346 7.84776 -12
      vertex 48.5858 7.41421 -12
    endloop
  endfacet
  facet normal 0 0 -1
    outer loop
      vertex 8 50 -12
      vertex 48.1522 6.76537 -12
      vertex 48 6 -12
    endloop
  endfacet
  facet normal 0 0 -1
    outer loop
      vertex 8 50 -12
      vertex 48.5858 7.41421 -12
      vertex 48.1522 6.76537 -12
    endloop
  endfacet
  facet normal 0 0 -1
    outer loop
      vertex 7.84776 50.7654 -12
      vertex 50.7654 7.84776 -12
      vertex 8 50 -12
    endloop
  endfacet
  facet normal 0 0 -1
    outer loop
      vertex 174.235 7.84776 -12
      vertex 8 150 -12
      vertex 225 200 -12
    endloop
  endfacet
  facet normal 0 0 -1
    outer loop
      vertex 7.84776 150.765 -12
      vertex 225 200 -12
      vertex 8 150 -12
    endloop
  endfacet
  facet normal 0 0 -1
    outer loop
      vertex 0 200 -12
      vertex 7.84776 150.765 -12
      vertex 7.41421 151.414 -12
    endloop
  endfacet
  facet normal 0 0 -1
    outer loop
      vertex 0 200 -12
      vertex 7.41421 151.414 -12
      vertex 6.76537 151.848 -12
    endloop
  endfacet
  facet normal 0 0 -1
    outer loop
      vertex 0 200 -12
      vertex 6.76537 151.848 -12
      vertex 6 152 -12
    endloop
  endfacet
  facet normal 0 0 -1
    outer loop
      vertex 0 200 -12
      vertex 6 152 -12
      vertex 5.23463 151.848 -12
    endloop
  endfacet
  facet normal 0 0 -1
    outer loop
      vertex 7.84776 150.765 -12
      vertex 0 200 -12
      vertex 225 200 -12
    endloop
  endfacet
  facet normal 0 0 -1
    outer loop
      vertex 4.58579 151.414 -12
      vertex 0 200 -12
      vertex 5.23463 151.848 -12
    endloop
  endfacet
  facet normal 0 0 -1
    outer loop
      vertex 4.15224 150.765 -12
      vertex 0 200 -12
      vertex 4.58579 151.414 -12
    endloop
  endfacet
  facet normal 0 0 -1
    outer loop
      vertex 4 150 -12
      vertex 0 200 -12
      vertex 4.15224 150.765 -12
    endloop
  endfacet
  facet normal 0 0 -1
    outer loop
      vertex 0 200 -12
      vertex 4 150 -12
      vertex 0 0 -12
    endloop
  endfacet
  facet normal -0.195039 -0.980795 0
    outer loop
      vertex 6 52 -12
      vertex 6.76537 51.8478 0
      vertex 6 52 0
    endloop
  endfacet
  facet normal -0.195039 -0.980795 -0
    outer loop
      vertex 6.76537 51.8478 0
      vertex 6 52 -12
      vertex 6.76537 51.8478 -12
    endloop
  endfacet
  facet normal -0.980787 -0.195081 0
    outer loop
      vertex 8 50 -12
      vertex 7.84776 50.7654 0
      vertex 7.84776 50.7654 -12
    endloop
  endfacet
  facet normal -0.980787 -0.195081 0
    outer loop
      vertex 7.84776 50.7654 0
      vertex 8 50 -12
      vertex 8 50 0
    endloop
  endfacet
  facet normal -0.831448 -0.555602 0
    outer loop
      vertex 7.84776 50.7654 -12
      vertex 7.41421 51.4142 0
      vertex 7.41421 51.4142 -12
    endloop
  endfacet
  facet normal -0.831448 -0.555602 0
    outer loop
      vertex 7.41421 51.4142 0
      vertex 7.84776 50.7654 -12
      vertex 7.84776 50.7654 0
    endloop
  endfacet
  facet normal 0.194793 0.980844 -0
    outer loop
      vertex 6 148 -12
      vertex 5.23463 148.152 0
      vertex 6 148 0
    endloop
  endfacet
  facet normal 0.194793 0.980844 0
    outer loop
      vertex 5.23463 148.152 0
      vertex 6 148 -12
      vertex 5.23463 148.152 -12
    endloop
  endfacet
  facet normal 0.194793 -0.980844 0
    outer loop
      vertex 5.23463 151.848 -12
      vertex 6 152 0
      vertex 5.23463 151.848 0
    endloop
  endfacet
  facet normal 0.194793 -0.980844 0
    outer loop
      vertex 6 152 0
      vertex 5.23463 151.848 -12
      vertex 6 152 -12
    endloop
  endfacet
  facet normal 0.555977 0.831198 -0
    outer loop
      vertex 5.23463 148.152 -12
      vertex 4.58579 148.586 0
      vertex 5.23463 148.152 0
    endloop
  endfacet
  facet normal 0.555977 0.831198 0
    outer loop
      vertex 4.58579 148.586 0
      vertex 5.23463 148.152 -12
      vertex 4.58579 148.586 -12
    endloop
  endfacet
  facet normal -0.980768 0.195179 0
    outer loop
      vertex 7.84776 149.235 -12
      vertex 8 150 0
      vertex 8 150 -12
    endloop
  endfacet
  facet normal -0.980768 0.195179 0
    outer loop
      vertex 8 150 0
      vertex 7.84776 149.235 -12
      vertex 7.84776 149.235 0
    endloop
  endfacet
  facet normal -0.831528 0.555483 0
    outer loop
      vertex 7.41421 148.586 -12
      vertex 7.84776 149.235 0
      vertex 7.84776 149.235 -12
    endloop
  endfacet
  facet normal -0.831528 0.555483 0
    outer loop
      vertex 7.84776 149.235 0
      vertex 7.41421 148.586 -12
      vertex 7.41421 148.586 0
    endloop
  endfacet
  facet normal 0.831528 0.555483 0
    outer loop
      vertex 4.58579 148.586 0
      vertex 4.15224 149.235 -12
      vertex 4.15224 149.235 0
    endloop
  endfacet
  facet normal 0.831528 0.555483 0
    outer loop
      vertex 4.15224 149.235 -12
      vertex 4.58579 148.586 0
      vertex 4.58579 148.586 -12
    endloop
  endfacet
  facet normal 0.831528 -0.555483 0
    outer loop
      vertex 4.15224 150.765 0
      vertex 4.58579 151.414 -12
      vertex 4.58579 151.414 0
    endloop
  endfacet
  facet normal 0.831528 -0.555483 0
    outer loop
      vertex 4.58579 151.414 -12
      vertex 4.15224 150.765 0
      vertex 4.15224 150.765 -12
    endloop
  endfacet
  facet normal 0.555977 -0.831198 0
    outer loop
      vertex 4.58579 151.414 -12
      vertex 5.23463 151.848 0
      vertex 4.58579 151.414 0
    endloop
  endfacet
  facet normal 0.555977 -0.831198 0
    outer loop
      vertex 5.23463 151.848 0
      vertex 4.58579 151.414 -12
      vertex 5.23463 151.848 -12
    endloop
  endfacet
  facet normal 0.980768 -0.195179 0
    outer loop
      vertex 4 150 0
      vertex 4.15224 150.765 -12
      vertex 4.15224 150.765 0
    endloop
  endfacet
  facet normal 0.980768 -0.195179 0
    outer loop
      vertex 4.15224 150.765 -12
      vertex 4 150 0
      vertex 4 150 -12
    endloop
  endfacet
  facet normal -0.194793 0.980844 0
    outer loop
      vertex 6.76537 148.152 -12
      vertex 6 148 0
      vertex 6.76537 148.152 0
    endloop
  endfacet
  facet normal -0.194793 0.980844 0
    outer loop
      vertex 6 148 0
      vertex 6.76537 148.152 -12
      vertex 6 148 -12
    endloop
  endfacet
  facet normal 0.980768 0.195179 0
    outer loop
      vertex 4.15224 149.235 0
      vertex 4 150 -12
      vertex 4 150 0
    endloop
  endfacet
  facet normal 0.980768 0.195179 0
    outer loop
      vertex 4 150 -12
      vertex 4.15224 149.235 0
      vertex 4.15224 149.235 -12
    endloop
  endfacet
  facet normal -0.555977 0.831198 0
    outer loop
      vertex 7.41421 148.586 -12
      vertex 6.76537 148.152 0
      vertex 7.41421 148.586 0
    endloop
  endfacet
  facet normal -0.555977 0.831198 0
    outer loop
      vertex 6.76537 148.152 0
      vertex 7.41421 148.586 -12
      vertex 6.76537 148.152 -12
    endloop
  endfacet
  facet normal -0.555977 -0.831198 0
    outer loop
      vertex 6.76537 151.848 -12
      vertex 7.41421 151.414 0
      vertex 6.76537 151.848 0
    endloop
  endfacet
  facet normal -0.555977 -0.831198 -0
    outer loop
      vertex 7.41421 151.414 0
      vertex 6.76537 151.848 -12
      vertex 7.41421 151.414 -12
    endloop
  endfacet
  facet normal -0.194793 -0.980844 0
    outer loop
      vertex 6 152 -12
      vertex 6.76537 151.848 0
      vertex 6 152 0
    endloop
  endfacet
  facet normal -0.194793 -0.980844 -0
    outer loop
      vertex 6.76537 151.848 0
      vertex 6 152 -12
      vertex 6.76537 151.848 -12
    endloop
  endfacet
  facet normal -0.980768 -0.195179 0
    outer loop
      vertex 8 150 -12
      vertex 7.84776 150.765 0
      vertex 7.84776 150.765 -12
    endloop
  endfacet
  facet normal -0.980768 -0.195179 0
    outer loop
      vertex 7.84776 150.765 0
      vertex 8 150 -12
      vertex 8 150 0
    endloop
  endfacet
  facet normal -0.831528 -0.555483 0
    outer loop
      vertex 7.84776 150.765 -12
      vertex 7.41421 151.414 0
      vertex 7.41421 151.414 -12
    endloop
  endfacet
  facet normal -0.831528 -0.555483 0
    outer loop
      vertex 7.41421 151.414 0
      vertex 7.84776 150.765 -12
      vertex 7.84776 150.765 0
    endloop
  endfacet
  facet normal 0.195179 0.980768 -0
    outer loop
      vertex 175 4 -12
      vertex 174.235 4.15224 0
      vertex 175 4 0
    endloop
  endfacet
  facet normal 0.195179 0.980768 0
    outer loop
      vertex 174.235 4.15224 0
      vertex 175 4 -12
      vertex 174.235 4.15224 -12
    endloop
  endfacet
  facet normal 0.195179 -0.980768 0
    outer loop
      vertex 174.235 7.84776 -12
      vertex 175 8 0
      vertex 174.235 7.84776 0
    endloop
  endfacet
  facet normal 0.195179 -0.980768 0
    outer loop
      vertex 175 8 0
      vertex 174.235 7.84776 -12
      vertex 175 8 -12
    endloop
  endfacet
  facet normal 0.555483 0.831528 -0
    outer loop
      vertex 174.235 4.15224 -12
      vertex 173.586 4.58579 0
      vertex 174.235 4.15224 0
    endloop
  endfacet
  facet normal 0.555483 0.831528 0
    outer loop
      vertex 173.586 4.58579 0
      vertex 174.235 4.15224 -12
      vertex 173.586 4.58579 -12
    endloop
  endfacet
  facet normal -0.980844 0.194793 0
    outer loop
      vertex 176.848 5.23463 -12
      vertex 177 6 0
      vertex 177 6 -12
    endloop
  endfacet
  facet normal -0.980844 0.194793 0
    outer loop
      vertex 177 6 0
      vertex 176.848 5.23463 -12
      vertex 176.848 5.23463 0
    endloop
  endfacet
  facet normal -0.831198 0.555977 0
    outer loop
      vertex 176.414 4.58579 -12
      vertex 176.848 5.23463 0
      vertex 176.848 5.23463 -12
    endloop
  endfacet
  facet normal -0.831198 0.555977 0
    outer loop
      vertex 176.848 5.23463 0
      vertex 176.414 4.58579 -12
      vertex 176.414 4.58579 0
    endloop
  endfacet
  facet normal 0.831198 0.555977 0
    outer loop
      vertex 173.586 4.58579 0
      vertex 173.152 5.23463 -12
      vertex 173.152 5.23463 0
    endloop
  endfacet
  facet normal 0.831198 0.555977 0
    outer loop
      vertex 173.152 5.23463 -12
      vertex 173.586 4.58579 0
      vertex 173.586 4.58579 -12
    endloop
  endfacet
  facet normal 0.831198 -0.555977 0
    outer loop
      vertex 173.152 6.76537 0
      vertex 173.586 7.41421 -12
      vertex 173.586 7.41421 0
    endloop
  endfacet
  facet normal 0.831198 -0.555977 0
    outer loop
      vertex 173.586 7.41421 -12
      vertex 173.152 6.76537 0
      vertex 173.152 6.76537 -12
    endloop
  endfacet
  facet normal 0.555483 -0.831528 0
    outer loop
      vertex 173.586 7.41421 -12
      vertex 174.235 7.84776 0
      vertex 173.586 7.41421 0
    endloop
  endfacet
  facet normal 0.555483 -0.831528 0
    outer loop
      vertex 174.235 7.84776 0
      vertex 173.586 7.41421 -12
      vertex 174.235 7.84776 -12
    endloop
  endfacet
  facet normal 0.980844 -0.194793 0
    outer loop
      vertex 173 6 0
      vertex 173.152 6.76537 -12
      vertex 173.152 6.76537 0
    endloop
  endfacet
  facet normal 0.980844 -0.194793 0
    outer loop
      vertex 173.152 6.76537 -12
      vertex 173 6 0
      vertex 173 6 -12
    endloop
  endfacet
  facet normal -0.195179 0.980768 0
    outer loop
      vertex 175.765 4.15224 -12
      vertex 175 4 0
      vertex 175.765 4.15224 0
    endloop
  endfacet
  facet normal -0.195179 0.980768 0
    outer loop
      vertex 175 4 0
      vertex 175.765 4.15224 -12
      vertex 175 4 -12
    endloop
  endfacet
  facet normal 0.980844 0.194793 0
    outer loop
      vertex 173.152 5.23463 0
      vertex 173 6 -12
      vertex 173 6 0
    endloop
  endfacet
  facet normal 0.980844 0.194793 0
    outer loop
      vertex 173 6 -12
      vertex 173.152 5.23463 0
      vertex 173.152 5.23463 -12
    endloop
  endfacet
  facet normal -0.555483 0.831528 0
    outer loop
      vertex 176.414 4.58579 -12
      vertex 175.765 4.15224 0
      vertex 176.414 4.58579 0
    endloop
  endfacet
  facet normal -0.555483 0.831528 0
    outer loop
      vertex 175.765 4.15224 0
      vertex 176.414 4.58579 -12
      vertex 175.765 4.15224 -12
    endloop
  endfacet
  facet normal -0.555483 -0.831528 0
    outer loop
      vertex 175.765 7.84776 -12
      vertex 176.414 7.41421 0
      vertex 175.765 7.84776 0
    endloop
  endfacet
  facet normal -0.555483 -0.831528 -0
    outer loop
      vertex 176.414 7.41421 0
      vertex 175.765 7.84776 -12
      vertex 176.414 7.41421 -12
    endloop
  endfacet
  facet normal -0.195179 -0.980768 0
    outer loop
      vertex 175 8 -12
      vertex 175.765 7.84776 0
      vertex 175 8 0
    endloop
  endfacet
  facet normal -0.195179 -0.980768 -0
    outer loop
      vertex 175.765 7.84776 0
      vertex 175 8 -12
      vertex 175.765 7.84776 -12
    endloop
  endfacet
  facet normal -0.980844 -0.194793 0
    outer loop
      vertex 177 6 -12
      vertex 176.848 6.76537 0
      vertex 176.848 6.76537 -12
    endloop
  endfacet
  facet normal -0.980844 -0.194793 0
    outer loop
      vertex 176.848 6.76537 0
      vertex 177 6 -12
      vertex 177 6 0
    endloop
  endfacet
  facet normal -0.831198 -0.555977 0
    outer loop
      vertex 176.848 6.76537 -12
      vertex 176.414 7.41421 0
      vertex 176.414 7.41421 -12
    endloop
  endfacet
  facet normal -0.831198 -0.555977 0
    outer loop
      vertex 176.414 7.41421 0
      vertex 176.848 6.76537 -12
      vertex 176.848 6.76537 0
    endloop
  endfacet
  facet normal 0.195081 0.980787 -0
    outer loop
      vertex 50 4 -12
      vertex 49.2346 4.15224 0
      vertex 50 4 0
    endloop
  endfacet
  facet normal 0.195081 0.980787 0
    outer loop
      vertex 49.2346 4.15224 0
      vertex 50 4 -12
      vertex 49.2346 4.15224 -12
    endloop
  endfacet
  facet normal 0.195081 -0.980787 0
    outer loop
      vertex 49.2346 7.84776 -12
      vertex 50 8 0
      vertex 49.2346 7.84776 0
    endloop
  endfacet
  facet normal 0.195081 -0.980787 0
    outer loop
      vertex 50 8 0
      vertex 49.2346 7.84776 -12
      vertex 50 8 -12
    endloop
  endfacet
  facet normal 0.555602 0.831448 -0
    outer loop
      vertex 49.2346 4.15224 -12
      vertex 48.5858 4.58579 0
      vertex 49.2346 4.15224 0
    endloop
  endfacet
  facet normal 0.555602 0.831448 0
    outer loop
      vertex 48.5858 4.58579 0
      vertex 49.2346 4.15224 -12
      vertex 48.5858 4.58579 -12
    endloop
  endfacet
  facet normal 0.831435 0.555622 0
    outer loop
      vertex 48.5858 4.58579 0
      vertex 48.1522 5.23463 -12
      vertex 48.1522 5.23463 0
    endloop
  endfacet
  facet normal 0.831435 0.555622 0
    outer loop
      vertex 48.1522 5.23463 -12
      vertex 48.5858 4.58579 0
      vertex 48.5858 4.58579 -12
    endloop
  endfacet
  facet normal 0.980795 -0.195039 0
    outer loop
      vertex 48 6 0
      vertex 48.1522 6.76537 -12
      vertex 48.1522 6.76537 0
    endloop
  endfacet
  facet normal 0.980795 -0.195039 0
    outer loop
      vertex 48.1522 6.76537 -12
      vertex 48 6 0
      vertex 48 6 -12
    endloop
  endfacet
  facet normal 0.831435 -0.555622 0
    outer loop
      vertex 48.1522 6.76537 0
      vertex 48.5858 7.41421 -12
      vertex 48.5858 7.41421 0
    endloop
  endfacet
  facet normal 0.831435 -0.555622 0
    outer loop
      vertex 48.5858 7.41421 -12
      vertex 48.1522 6.76537 0
      vertex 48.1522 6.76537 -12
    endloop
  endfacet
  facet normal 0.980795 0.195039 0
    outer loop
      vertex 48.1522 5.23463 0
      vertex 48 6 -12
      vertex 48 6 0
    endloop
  endfacet
  facet normal 0.980795 0.195039 0
    outer loop
      vertex 48 6 -12
      vertex 48.1522 5.23463 0
      vertex 48.1522 5.23463 -12
    endloop
  endfacet
  facet normal 0.555602 -0.831448 0
    outer loop
      vertex 48.5858 7.41421 -12
      vertex 49.2346 7.84776 0
      vertex 48.5858 7.41421 0
    endloop
  endfacet
  facet normal 0.555602 -0.831448 0
    outer loop
      vertex 49.2346 7.84776 0
      vertex 48.5858 7.41421 -12
      vertex 49.2346 7.84776 -12
    endloop
  endfacet
  facet normal -0.831435 0.555622 0
    outer loop
      vertex 51.4142 4.58579 -12
      vertex 51.8478 5.23463 0
      vertex 51.8478 5.23463 -12
    endloop
  endfacet
  facet normal -0.831435 0.555622 0
    outer loop
      vertex 51.8478 5.23463 0
      vertex 51.4142 4.58579 -12
      vertex 51.4142 4.58579 0
    endloop
  endfacet
  facet normal -0.555602 0.831448 0
    outer loop
      vertex 51.4142 4.58579 -12
      vertex 50.7654 4.15224 0
      vertex 51.4142 4.58579 0
    endloop
  endfacet
  facet normal -0.555602 0.831448 0
    outer loop
      vertex 50.7654 4.15224 0
      vertex 51.4142 4.58579 -12
      vertex 50.7654 4.15224 -12
    endloop
  endfacet
  facet normal -0.195081 0.980787 0
    outer loop
      vertex 50.7654 4.15224 -12
      vertex 50 4 0
      vertex 50.7654 4.15224 0
    endloop
  endfacet
  facet normal -0.195081 0.980787 0
    outer loop
      vertex 50 4 0
      vertex 50.7654 4.15224 -12
      vertex 50 4 -12
    endloop
  endfacet
  facet normal -0.555602 -0.831448 0
    outer loop
      vertex 50.7654 7.84776 -12
      vertex 51.4142 7.41421 0
      vertex 50.7654 7.84776 0
    endloop
  endfacet
  facet normal -0.555602 -0.831448 -0
    outer loop
      vertex 51.4142 7.41421 0
      vertex 50.7654 7.84776 -12
      vertex 51.4142 7.41421 -12
    endloop
  endfacet
  facet normal -0.980795 0.195039 0
    outer loop
      vertex 51.8478 5.23463 -12
      vertex 52 6 0
      vertex 52 6 -12
    endloop
  endfacet
  facet normal -0.980795 0.195039 0
    outer loop
      vertex 52 6 0
      vertex 51.8478 5.23463 -12
      vertex 51.8478 5.23463 0
    endloop
  endfacet
  facet normal -0.195081 -0.980787 0
    outer loop
      vertex 50 8 -12
      vertex 50.7654 7.84776 0
      vertex 50 8 0
    endloop
  endfacet
  facet normal -0.195081 -0.980787 -0
    outer loop
      vertex 50.7654 7.84776 0
      vertex 50 8 -12
      vertex 50.7654 7.84776 -12
    endloop
  endfacet
  facet normal -0.980795 -0.195039 0
    outer loop
      vertex 52 6 -12
      vertex 51.8478 6.76537 0
      vertex 51.8478 6.76537 -12
    endloop
  endfacet
  facet normal -0.980795 -0.195039 0
    outer loop
      vertex 51.8478 6.76537 0
      vertex 52 6 -12
      vertex 52 6 0
    endloop
  endfacet
  facet normal -0.831435 -0.555622 0
    outer loop
      vertex 51.8478 6.76537 -12
      vertex 51.4142 7.41421 0
      vertex 51.4142 7.41421 -12
    endloop
  endfacet
  facet normal -0.831435 -0.555622 0
    outer loop
      vertex 51.4142 7.41421 0
      vertex 51.8478 6.76537 -12
      vertex 51.8478 6.76537 0
    endloop
  endfacet
  facet normal 1 0 0
    outer loop
      vertex 225 200 0
      vertex 225 153 -6
      vertex 225 200 -12
    endloop
  endfacet
  facet normal 1 0 0
    outer loop
      vertex 225 200 0
      vertex 225 152.772 -4.85195
      vertex 225 153 -6
    endloop
  endfacet
  facet normal 1 0 0
    outer loop
      vertex 225 200 0
      vertex 225 152.121 -3.87868
      vertex 225 152.772 -4.85195
    endloop
  endfacet
  facet normal 1 0 0
    outer loop
      vertex 225 200 0
      vertex 225 151.148 -3.22836
      vertex 225 152.121 -3.87868
    endloop
  endfacet
  facet normal 1 0 0
    outer loop
      vertex 225 200 0
      vertex 225 150 -3
      vertex 225 151.148 -3.22836
    endloop
  endfacet
  facet normal 1 0 0
    outer loop
      vertex 225 147.228 -4.85195
      vertex 225 53 -6
      vertex 225 147 -6
    endloop
  endfacet
  facet normal 1 0 0
    outer loop
      vertex 225 52.7716 -4.85195
      vertex 225 147.228 -4.85195
      vertex 225 147.879 -3.87868
    endloop
  endfacet
  facet normal 1 0 0
    outer loop
      vertex 225 52.1213 -3.87868
      vertex 225 147.879 -3.87868
      vertex 225 148.852 -3.22836
    endloop
  endfacet
  facet normal 1 0 0
    outer loop
      vertex 225 51.148 -3.22836
      vertex 225 148.852 -3.22836
      vertex 225 150 -3
    endloop
  endfacet
  facet normal 1 0 0
    outer loop
      vertex 225 50 -3
      vertex 225 150 -3
      vertex 225 200 0
    endloop
  endfacet
  facet normal 1 0 0
    outer loop
      vertex 225 147.228 -4.85195
      vertex 225 52.7716 -4.85195
      vertex 225 53 -6
    endloop
  endfacet
  facet normal 1 0 0
    outer loop
      vertex 225 147.879 -3.87868
      vertex 225 52.1213 -3.87868
      vertex 225 52.7716 -4.85195
    endloop
  endfacet
  facet normal 1 0 0
    outer loop
      vertex 225 148.852 -3.22836
      vertex 225 51.148 -3.22836
      vertex 225 52.1213 -3.87868
    endloop
  endfacet
  facet normal 1 0 0
    outer loop
      vertex 225 150 -3
      vertex 225 50 -3
      vertex 225 51.148 -3.22836
    endloop
  endfacet
  facet normal 1 0 0
    outer loop
      vertex 225 47.2284 -4.85195
      vertex 225 0 0
      vertex 225 47 -6
    endloop
  endfacet
  facet normal 1 0 0
    outer loop
      vertex 225 47.8787 -3.87868
      vertex 225 0 0
      vertex 225 47.2284 -4.85195
    endloop
  endfacet
  facet normal 1 0 0
    outer loop
      vertex 225 48.852 -3.22836
      vertex 225 0 0
      vertex 225 47.8787 -3.87868
    endloop
  endfacet
  facet normal 1 0 0
    outer loop
      vertex 225 50 -3
      vertex 225 0 0
      vertex 225 48.852 -3.22836
    endloop
  endfacet
  facet normal 1 -0 0
    outer loop
      vertex 225 0 0
      vertex 225 50 -3
      vertex 225 200 0
    endloop
  endfacet
  facet normal 1 -0 0
    outer loop
      vertex 225 152.772 -7.14805
      vertex 225 200 -12
      vertex 225 153 -6
    endloop
  endfacet
  facet normal 1 -0 0
    outer loop
      vertex 225 152.121 -8.12132
      vertex 225 200 -12
      vertex 225 152.772 -7.14805
    endloop
  endfacet
  facet normal 1 -0 0
    outer loop
      vertex 225 151.148 -8.77164
      vertex 225 200 -12
      vertex 225 152.121 -8.12132
    endloop
  endfacet
  facet normal 1 -0 0
    outer loop
      vertex 225 150 -9
      vertex 225 200 -12
      vertex 225 151.148 -8.77164
    endloop
  endfacet
  facet normal 1 -0 0
    outer loop
      vertex 225 53 -6
      vertex 225 147.228 -7.14805
      vertex 225 147 -6
    endloop
  endfacet
  facet normal 1 0 0
    outer loop
      vertex 225 52.7716 -7.14805
      vertex 225 147.228 -7.14805
      vertex 225 53 -6
    endloop
  endfacet
  facet normal 1 0 0
    outer loop
      vertex 225 147.228 -7.14805
      vertex 225 52.7716 -7.14805
      vertex 225 147.879 -8.12132
    endloop
  endfacet
  facet normal 1 0 0
    outer loop
      vertex 225 52.1213 -8.12132
      vertex 225 147.879 -8.12132
      vertex 225 52.7716 -7.14805
    endloop
  endfacet
  facet normal 1 0 0
    outer loop
      vertex 225 147.879 -8.12132
      vertex 225 52.1213 -8.12132
      vertex 225 148.852 -8.77164
    endloop
  endfacet
  facet normal 1 0 0
    outer loop
      vertex 225 51.148 -8.77164
      vertex 225 148.852 -8.77164
      vertex 225 52.1213 -8.12132
    endloop
  endfacet
  facet normal 1 0 0
    outer loop
      vertex 225 148.852 -8.77164
      vertex 225 51.148 -8.77164
      vertex 225 150 -9
    endloop
  endfacet
  facet normal 1 0 0
    outer loop
      vertex 225 50 -9
      vertex 225 150 -9
      vertex 225 51.148 -8.77164
    endloop
  endfacet
  facet normal 1 0 0
    outer loop
      vertex 225 150 -9
      vertex 225 50 -9
      vertex 225 200 -12
    endloop
  endfacet
  facet normal 1 0 0
    outer loop
      vertex 225 0 -12
      vertex 225 47 -6
      vertex 225 0 0
    endloop
  endfacet
  facet normal 1 0 0
    outer loop
      vertex 225 47 -6
      vertex 225 0 -12
      vertex 225 47.2284 -7.14805
    endloop
  endfacet
  facet normal 1 0 0
    outer loop
      vertex 225 47.2284 -7.14805
      vertex 225 0 -12
      vertex 225 47.8787 -8.12132
    endloop
  endfacet
  facet normal 1 0 0
    outer loop
      vertex 225 47.8787 -8.12132
      vertex 225 0 -12
      vertex 225 48.852 -8.77164
    endloop
  endfacet
  facet normal 1 0 0
    outer loop
      vertex 225 50 -9
      vertex 225 0 -12
      vertex 225 200 -12
    endloop
  endfacet
  facet normal 1 0 0
    outer loop
      vertex 225 48.852 -8.77164
      vertex 225 0 -12
      vertex 225 50 -9
    endloop
  endfacet
  facet normal 1 0 0
    outer loop
      vertex 225 152.772 -4.85195
      vertex 225 152.772 -7.14805
      vertex 225 153 -6
    endloop
  endfacet
  facet normal 1 0 0
    outer loop
      vertex 225 152.121 -3.87868
      vertex 225 152.772 -7.14805
      vertex 225 152.772 -4.85195
    endloop
  endfacet
  facet normal 1 0 0
    outer loop
      vertex 225 152.121 -3.87868
      vertex 225 152.121 -8.12132
      vertex 225 152.772 -7.14805
    endloop
  endfacet
  facet normal 1 0 0
    outer loop
      vertex 225 151.148 -3.22836
      vertex 225 152.121 -8.12132
      vertex 225 152.121 -3.87868
    endloop
  endfacet
  facet normal 1 0 0
    outer loop
      vertex 225 151.148 -3.22836
      vertex 225 151.148 -8.77164
      vertex 225 152.121 -8.12132
    endloop
  endfacet
  facet normal 1 0 0
    outer loop
      vertex 225 150 -3
      vertex 225 151.148 -8.77164
      vertex 225 151.148 -3.22836
    endloop
  endfacet
  facet normal 1 0 0
    outer loop
      vertex 225 150 -3
      vertex 225 150 -9
      vertex 225 151.148 -8.77164
    endloop
  endfacet
  facet normal 1 -0 0
    outer loop
      vertex 225 148.852 -3.22836
      vertex 225 150 -9
      vertex 225 150 -3
    endloop
  endfacet
  facet normal 1 0 0
    outer loop
      vertex 225 148.852 -3.22836
      vertex 225 148.852 -8.77164
      vertex 225 150 -9
    endloop
  endfacet
  facet normal 1 -0 0
    outer loop
      vertex 225 147.879 -3.87868
      vertex 225 148.852 -8.77164
      vertex 225 148.852 -3.22836
    endloop
  endfacet
  facet normal 1 0 0
    outer loop
      vertex 225 147.879 -3.87868
      vertex 225 147.879 -8.12132
      vertex 225 148.852 -8.77164
    endloop
  endfacet
  facet normal 1 -0 0
    outer loop
      vertex 225 147.228 -4.85195
      vertex 225 147.879 -8.12132
      vertex 225 147.879 -3.87868
    endloop
  endfacet
  facet normal 1 0 0
    outer loop
      vertex 225 147.228 -4.85195
      vertex 225 147.228 -7.14805
      vertex 225 147.879 -8.12132
    endloop
  endfacet
  facet normal 1 0 -0
    outer loop
      vertex 225 147.228 -7.14805
      vertex 225 147.228 -4.85195
      vertex 225 147 -6
    endloop
  endfacet
  facet normal 1 0 0
    outer loop
      vertex 225 52.7716 -4.85195
      vertex 225 52.7716 -7.14805
      vertex 225 53 -6
    endloop
  endfacet
  facet normal 1 0 0
    outer loop
      vertex 225 52.1213 -3.87868
      vertex 225 52.7716 -7.14805
      vertex 225 52.7716 -4.85195
    endloop
  endfacet
  facet normal 1 0 0
    outer loop
      vertex 225 52.1213 -3.87868
      vertex 225 52.1213 -8.12132
      vertex 225 52.7716 -7.14805
    endloop
  endfacet
  facet normal 1 0 0
    outer loop
      vertex 225 51.148 -3.22836
      vertex 225 52.1213 -8.12132
      vertex 225 52.1213 -3.87868
    endloop
  endfacet
  facet normal 1 0 0
    outer loop
      vertex 225 51.148 -3.22836
      vertex 225 51.148 -8.77164
      vertex 225 52.1213 -8.12132
    endloop
  endfacet
  facet normal 1 0 0
    outer loop
      vertex 225 50 -3
      vertex 225 51.148 -8.77164
      vertex 225 51.148 -3.22836
    endloop
  endfacet
  facet normal 1 0 0
    outer loop
      vertex 225 50 -3
      vertex 225 50 -9
      vertex 225 51.148 -8.77164
    endloop
  endfacet
  facet normal 1 -0 0
    outer loop
      vertex 225 48.852 -3.22836
      vertex 225 50 -9
      vertex 225 50 -3
    endloop
  endfacet
  facet normal 1 0 0
    outer loop
      vertex 225 48.852 -3.22836
      vertex 225 48.852 -8.77164
      vertex 225 50 -9
    endloop
  endfacet
  facet normal 1 -0 0
    outer loop
      vertex 225 47.8787 -3.87868
      vertex 225 48.852 -8.77164
      vertex 225 48.852 -3.22836
    endloop
  endfacet
  facet normal 1 0 0
    outer loop
      vertex 225 47.8787 -3.87868
      vertex 225 47.8787 -8.12132
      vertex 225 48.852 -8.77164
    endloop
  endfacet
  facet normal 1 -0 0
    outer loop
      vertex 225 47.2284 -4.85195
      vertex 225 47.8787 -8.12132
      vertex 225 47.8787 -3.87868
    endloop
  endfacet
  facet normal 1 0 0
    outer loop
      vertex 225 47.2284 -4.85195
      vertex 225 47.2284 -7.14805
      vertex 225 47.8787 -8.12132
    endloop
  endfacet
  facet normal 1 0 -0
    outer loop
      vertex 225 47.2284 -7.14805
      vertex 225 47.2284 -4.85195
      vertex 225 47 -6
    endloop
  endfacet
  facet normal 0 1 -0
    outer loop
      vertex 225 200 -12
      vertex 0 200 0
      vertex 225 200 0
    endloop
  endfacet
  facet normal 0 1 0
    outer loop
      vertex 0 200 0
      vertex 225 200 -12
      vertex 0 200 -12
    endloop
  endfacet
  facet normal -1 0 0
    outer loop
      vertex 0 0 -12
      vertex 0 200 0
      vertex 0 200 -12
    endloop
  endfacet
  facet normal -1 -0 0
    outer loop
      vertex 0 200 0
      vertex 0 0 -12
      vertex 0 0 0
    endloop
  endfacet
  facet normal 0 -1 0
    outer loop
      vertex 0 0 -12
      vertex 225 0 0
      vertex 0 0 0
    endloop
  endfacet
  facet normal 0 -1 -0
    outer loop
      vertex 225 0 0
      vertex 0 0 -12
      vertex 225 0 -12
    endloop
  endfacet
endsolid OpenSCAD_Model
