solid OpenSCAD_Model
  facet normal -0.19517 -0.980769 0
    outer loop
      vertex 35 73.75 -2
      vertex 35.4784 73.6548 0
      vertex 35 73.75 0
    endloop
  endfacet
  facet normal -0.19517 -0.980769 -0
    outer loop
      vertex 35.4784 73.6548 0
      vertex 35 73.75 -2
      vertex 35.4784 73.6548 -2
    endloop
  endfacet
  facet normal -0.555504 -0.831514 0
    outer loop
      vertex 35.4784 73.6548 -2
      vertex 35.8839 73.3839 0
      vertex 35.4784 73.6548 0
    endloop
  endfacet
  facet normal -0.555504 -0.831514 -0
    outer loop
      vertex 35.8839 73.3839 0
      vertex 35.4784 73.6548 -2
      vertex 35.8839 73.3839 -2
    endloop
  endfacet
  facet normal 0.19517 0.980769 -0
    outer loop
      vertex 35 71.25 -2
      vertex 34.5216 71.3452 0
      vertex 35 71.25 0
    endloop
  endfacet
  facet normal 0.19517 0.980769 0
    outer loop
      vertex 34.5216 71.3452 0
      vertex 35 71.25 -2
      vertex 34.5216 71.3452 -2
    endloop
  endfacet
  facet normal -0.980809 0.194973 0
    outer loop
      vertex 36.1549 72.0216 -2
      vertex 36.25 72.5 0
      vertex 36.25 72.5 -2
    endloop
  endfacet
  facet normal -0.980809 0.194973 0
    outer loop
      vertex 36.25 72.5 0
      vertex 36.1549 72.0216 -2
      vertex 36.1549 72.0216 0
    endloop
  endfacet
  facet normal 0.831419 0.555646 0
    outer loop
      vertex 34.1161 71.6161 0
      vertex 33.8451 72.0216 -2
      vertex 33.8451 72.0216 0
    endloop
  endfacet
  facet normal 0.831419 0.555646 0
    outer loop
      vertex 33.8451 72.0216 -2
      vertex 34.1161 71.6161 0
      vertex 34.1161 71.6161 -2
    endloop
  endfacet
  facet normal -0.555504 0.831514 0
    outer loop
      vertex 35.8839 71.6161 -2
      vertex 35.4784 71.3452 0
      vertex 35.8839 71.6161 0
    endloop
  endfacet
  facet normal -0.555504 0.831514 0
    outer loop
      vertex 35.4784 71.3452 0
      vertex 35.8839 71.6161 -2
      vertex 35.4784 71.3452 -2
    endloop
  endfacet
  facet normal -0.831419 0.555646 0
    outer loop
      vertex 35.8839 71.6161 -2
      vertex 36.1549 72.0216 0
      vertex 36.1549 72.0216 -2
    endloop
  endfacet
  facet normal -0.831419 0.555646 0
    outer loop
      vertex 36.1549 72.0216 0
      vertex 35.8839 71.6161 -2
      vertex 35.8839 71.6161 0
    endloop
  endfacet
  facet normal 0.831419 -0.555646 0
    outer loop
      vertex 33.8451 72.9784 0
      vertex 34.1161 73.3839 -2
      vertex 34.1161 73.3839 0
    endloop
  endfacet
  facet normal 0.831419 -0.555646 0
    outer loop
      vertex 34.1161 73.3839 -2
      vertex 33.8451 72.9784 0
      vertex 33.8451 72.9784 -2
    endloop
  endfacet
  facet normal -0 0 1
    outer loop
      vertex 220.848 149.235 0
      vertex 221 50 0
      vertex 221 150 0
    endloop
  endfacet
  facet normal 0 0 1
    outer loop
      vertex 220.848 149.235 0
      vertex 220.848 50.7654 0
      vertex 221 50 0
    endloop
  endfacet
  facet normal -0 0 1
    outer loop
      vertex 220.414 148.586 0
      vertex 220.848 50.7654 0
      vertex 220.848 149.235 0
    endloop
  endfacet
  facet normal 0 0 1
    outer loop
      vertex 220.414 148.586 0
      vertex 220.414 51.4142 0
      vertex 220.848 50.7654 0
    endloop
  endfacet
  facet normal -0 0 1
    outer loop
      vertex 219.765 148.152 0
      vertex 220.414 51.4142 0
      vertex 220.414 148.586 0
    endloop
  endfacet
  facet normal 0 0 1
    outer loop
      vertex 219.765 148.152 0
      vertex 219.765 51.8478 0
      vertex 220.414 51.4142 0
    endloop
  endfacet
  facet normal -0 0 1
    outer loop
      vertex 219 148 0
      vertex 219.765 51.8478 0
      vertex 219.765 148.152 0
    endloop
  endfacet
  facet normal 0 0 1
    outer loop
      vertex 219 148 0
      vertex 219 52 0
      vertex 219.765 51.8478 0
    endloop
  endfacet
  facet normal 0 0 1
    outer loop
      vertex 218.235 148.152 0
      vertex 219 52 0
      vertex 219 148 0
    endloop
  endfacet
  facet normal 0 0 1
    outer loop
      vertex 218.235 148.152 0
      vertex 218.235 51.8478 0
      vertex 219 52 0
    endloop
  endfacet
  facet normal 0 0 1
    outer loop
      vertex 163.884 73.3839 0
      vertex 218.235 148.152 0
      vertex 217.586 148.586 0
    endloop
  endfacet
  facet normal 0 0 1
    outer loop
      vertex 218.235 148.152 0
      vertex 164.155 72.9784 0
      vertex 218.235 51.8478 0
    endloop
  endfacet
  facet normal 0 0 1
    outer loop
      vertex 163.478 73.6548 0
      vertex 217.586 148.586 0
      vertex 217.152 149.235 0
    endloop
  endfacet
  facet normal 0 0 1
    outer loop
      vertex 218.235 51.8478 0
      vertex 164.155 72.9784 0
      vertex 217.586 51.4142 0
    endloop
  endfacet
  facet normal 0 0 1
    outer loop
      vertex 163 73.75 0
      vertex 217.152 149.235 0
      vertex 217 150 0
    endloop
  endfacet
  facet normal -0 -0 1
    outer loop
      vertex 164.25 72.5 0
      vertex 217.586 51.4142 0
      vertex 164.155 72.9784 0
    endloop
  endfacet
  facet normal 0 0 1
    outer loop
      vertex 225 200 0
      vertex 221 150 0
      vertex 225 0 0
    endloop
  endfacet
  facet normal 0 0 1
    outer loop
      vertex 225 200 0
      vertex 220.848 150.765 0
      vertex 221 150 0
    endloop
  endfacet
  facet normal 0 0 1
    outer loop
      vertex 225 200 0
      vertex 220.414 151.414 0
      vertex 220.848 150.765 0
    endloop
  endfacet
  facet normal 0 0 1
    outer loop
      vertex 225 200 0
      vertex 219.765 151.848 0
      vertex 220.414 151.414 0
    endloop
  endfacet
  facet normal 0 0 1
    outer loop
      vertex 225 200 0
      vertex 219 152 0
      vertex 219.765 151.848 0
    endloop
  endfacet
  facet normal 0 0 1
    outer loop
      vertex 225 200 0
      vertex 218.235 151.848 0
      vertex 219 152 0
    endloop
  endfacet
  facet normal 0 0 1
    outer loop
      vertex 225 200 0
      vertex 217.586 151.414 0
      vertex 218.235 151.848 0
    endloop
  endfacet
  facet normal 0 0 1
    outer loop
      vertex 225 200 0
      vertex 217.152 150.765 0
      vertex 217.586 151.414 0
    endloop
  endfacet
  facet normal -0 0 1
    outer loop
      vertex 0 200 0
      vertex 217.152 150.765 0
      vertex 225 200 0
    endloop
  endfacet
  facet normal 0 0 1
    outer loop
      vertex 217.586 51.4142 0
      vertex 164.25 72.5 0
      vertex 217.152 50.7654 0
    endloop
  endfacet
  facet normal 0 0 1
    outer loop
      vertex 217.152 150.765 0
      vertex 0 200 0
      vertex 217 150 0
    endloop
  endfacet
  facet normal 0 0 1
    outer loop
      vertex 217 50 0
      vertex 176.848 6.76537 0
      vertex 177 6 0
    endloop
  endfacet
  facet normal 0 0 1
    outer loop
      vertex 217.152 50.7654 0
      vertex 164.155 72.0216 0
      vertex 217 50 0
    endloop
  endfacet
  facet normal -0 0 1
    outer loop
      vertex 163.884 71.6161 0
      vertex 217 50 0
      vertex 164.155 72.0216 0
    endloop
  endfacet
  facet normal 0 0 1
    outer loop
      vertex 217 50 0
      vertex 176.414 7.41421 0
      vertex 176.848 6.76537 0
    endloop
  endfacet
  facet normal 0 -0 1
    outer loop
      vertex 175.765 7.84776 0
      vertex 217 50 0
      vertex 163.884 71.6161 0
    endloop
  endfacet
  facet normal 0 0 1
    outer loop
      vertex 217 50 0
      vertex 175.765 7.84776 0
      vertex 176.414 7.41421 0
    endloop
  endfacet
  facet normal -0 0 1
    outer loop
      vertex 163.478 71.3452 0
      vertex 175.765 7.84776 0
      vertex 163.884 71.6161 0
    endloop
  endfacet
  facet normal -0 0 1
    outer loop
      vertex 163 71.25 0
      vertex 175 8 0
      vertex 163.478 71.3452 0
    endloop
  endfacet
  facet normal 0 0 1
    outer loop
      vertex 175.765 7.84776 0
      vertex 163.478 71.3452 0
      vertex 175 8 0
    endloop
  endfacet
  facet normal -0 0 1
    outer loop
      vertex 164.155 72.0216 0
      vertex 217.152 50.7654 0
      vertex 164.25 72.5 0
    endloop
  endfacet
  facet normal 0 0 1
    outer loop
      vertex 218.235 148.152 0
      vertex 163.884 73.3839 0
      vertex 164.155 72.9784 0
    endloop
  endfacet
  facet normal 0 0 1
    outer loop
      vertex 217.586 148.586 0
      vertex 163.478 73.6548 0
      vertex 163.884 73.3839 0
    endloop
  endfacet
  facet normal 0 0 1
    outer loop
      vertex 217.152 149.235 0
      vertex 163 73.75 0
      vertex 163.478 73.6548 0
    endloop
  endfacet
  facet normal 0 0 1
    outer loop
      vertex 217 150 0
      vertex 162.522 73.6548 0
      vertex 163 73.75 0
    endloop
  endfacet
  facet normal 0 0 1
    outer loop
      vertex 217 150 0
      vertex 0 200 0
      vertex 162.522 73.6548 0
    endloop
  endfacet
  facet normal 0 0 1
    outer loop
      vertex 162.522 73.6548 0
      vertex 0 200 0
      vertex 162.116 73.3839 0
    endloop
  endfacet
  facet normal 0 0 1
    outer loop
      vertex 36.25 72.5 0
      vertex 161.75 72.5 0
      vertex 161.845 72.9784 0
    endloop
  endfacet
  facet normal 0 -0 1
    outer loop
      vertex 35.8839 73.3839 0
      vertex 162.116 73.3839 0
      vertex 0 200 0
    endloop
  endfacet
  facet normal 0 0 1
    outer loop
      vertex 161.75 72.5 0
      vertex 51.8478 6.76537 0
      vertex 52 6 0
    endloop
  endfacet
  facet normal 0 0 1
    outer loop
      vertex 161.75 72.5 0
      vertex 36.25 72.5 0
      vertex 36.1549 72.0216 0
    endloop
  endfacet
  facet normal 0 0 1
    outer loop
      vertex 161.75 72.5 0
      vertex 51.4142 7.41421 0
      vertex 51.8478 6.76537 0
    endloop
  endfacet
  facet normal 0 0 1
    outer loop
      vertex 161.75 72.5 0
      vertex 36.1549 72.0216 0
      vertex 51.4142 7.41421 0
    endloop
  endfacet
  facet normal 0 0 1
    outer loop
      vertex 51.4142 7.41421 0
      vertex 36.1549 72.0216 0
      vertex 50.7654 7.84776 0
    endloop
  endfacet
  facet normal -0 0 1
    outer loop
      vertex 35.8839 71.6161 0
      vertex 50.7654 7.84776 0
      vertex 36.1549 72.0216 0
    endloop
  endfacet
  facet normal 0 0 1
    outer loop
      vertex 50 8 0
      vertex 35.4784 71.3452 0
      vertex 49.2346 7.84776 0
    endloop
  endfacet
  facet normal -0 0 1
    outer loop
      vertex 35.4784 71.3452 0
      vertex 50 8 0
      vertex 35.8839 71.6161 0
    endloop
  endfacet
  facet normal 0 0 1
    outer loop
      vertex 50.7654 7.84776 0
      vertex 35.8839 71.6161 0
      vertex 50 8 0
    endloop
  endfacet
  facet normal 0 0 1
    outer loop
      vertex 161.845 72.9784 0
      vertex 36.1549 72.9784 0
      vertex 36.25 72.5 0
    endloop
  endfacet
  facet normal 0 0 1
    outer loop
      vertex 161.845 72.9784 0
      vertex 35.8839 73.3839 0
      vertex 36.1549 72.9784 0
    endloop
  endfacet
  facet normal 0 0 1
    outer loop
      vertex 162.116 73.3839 0
      vertex 35.8839 73.3839 0
      vertex 161.845 72.9784 0
    endloop
  endfacet
  facet normal 0 0 1
    outer loop
      vertex 35.8839 73.3839 0
      vertex 0 200 0
      vertex 35.4784 73.6548 0
    endloop
  endfacet
  facet normal 0 0 1
    outer loop
      vertex 35.4784 73.6548 0
      vertex 0 200 0
      vertex 35 73.75 0
    endloop
  endfacet
  facet normal 0 0 1
    outer loop
      vertex 33.8451 72.9784 0
      vertex 0 200 0
      vertex 33.75 72.5 0
    endloop
  endfacet
  facet normal 0 0 1
    outer loop
      vertex 34.1161 73.3839 0
      vertex 0 200 0
      vertex 33.8451 72.9784 0
    endloop
  endfacet
  facet normal 0 0 1
    outer loop
      vertex 34.5216 73.6548 0
      vertex 0 200 0
      vertex 34.1161 73.3839 0
    endloop
  endfacet
  facet normal 0 0 1
    outer loop
      vertex 35 73.75 0
      vertex 0 200 0
      vertex 34.5216 73.6548 0
    endloop
  endfacet
  facet normal -0 0 1
    outer loop
      vertex 221 50 0
      vertex 225 0 0
      vertex 221 150 0
    endloop
  endfacet
  facet normal -0 0 1
    outer loop
      vertex 220.848 49.2346 0
      vertex 225 0 0
      vertex 221 50 0
    endloop
  endfacet
  facet normal -0 0 1
    outer loop
      vertex 220.414 48.5858 0
      vertex 225 0 0
      vertex 220.848 49.2346 0
    endloop
  endfacet
  facet normal -0 0 1
    outer loop
      vertex 219.765 48.1522 0
      vertex 225 0 0
      vertex 220.414 48.5858 0
    endloop
  endfacet
  facet normal -0 0 1
    outer loop
      vertex 219 48 0
      vertex 225 0 0
      vertex 219.765 48.1522 0
    endloop
  endfacet
  facet normal 0 0 1
    outer loop
      vertex 218.235 48.1522 0
      vertex 225 0 0
      vertex 219 48 0
    endloop
  endfacet
  facet normal 0 0 1
    outer loop
      vertex 177 6 0
      vertex 218.235 48.1522 0
      vertex 217.586 48.5858 0
    endloop
  endfacet
  facet normal 0 0 1
    outer loop
      vertex 177 6 0
      vertex 217.586 48.5858 0
      vertex 217.152 49.2346 0
    endloop
  endfacet
  facet normal 0 0 1
    outer loop
      vertex 177 6 0
      vertex 217.152 49.2346 0
      vertex 217 50 0
    endloop
  endfacet
  facet normal 0 0 1
    outer loop
      vertex 218.235 48.1522 0
      vertex 177 6 0
      vertex 225 0 0
    endloop
  endfacet
  facet normal -0 0 1
    outer loop
      vertex 176.848 5.23463 0
      vertex 225 0 0
      vertex 177 6 0
    endloop
  endfacet
  facet normal -0 0 1
    outer loop
      vertex 176.414 4.58579 0
      vertex 225 0 0
      vertex 176.848 5.23463 0
    endloop
  endfacet
  facet normal -0 0 1
    outer loop
      vertex 175.765 4.15224 0
      vertex 225 0 0
      vertex 176.414 4.58579 0
    endloop
  endfacet
  facet normal -0 0 1
    outer loop
      vertex 175 4 0
      vertex 225 0 0
      vertex 175.765 4.15224 0
    endloop
  endfacet
  facet normal 0 0 1
    outer loop
      vertex 175 8 0
      vertex 163 71.25 0
      vertex 174.235 7.84776 0
    endloop
  endfacet
  facet normal 0 0 1
    outer loop
      vertex 162.522 71.3452 0
      vertex 174.235 7.84776 0
      vertex 163 71.25 0
    endloop
  endfacet
  facet normal 0 0 1
    outer loop
      vertex 174.235 7.84776 0
      vertex 162.522 71.3452 0
      vertex 173.586 7.41421 0
    endloop
  endfacet
  facet normal 0 0 1
    outer loop
      vertex 162.116 71.6161 0
      vertex 173.586 7.41421 0
      vertex 162.522 71.3452 0
    endloop
  endfacet
  facet normal 0 0 1
    outer loop
      vertex 173.586 7.41421 0
      vertex 162.116 71.6161 0
      vertex 173.152 6.76537 0
    endloop
  endfacet
  facet normal 0 0 1
    outer loop
      vertex 52 6 0
      vertex 173.152 6.76537 0
      vertex 162.116 71.6161 0
    endloop
  endfacet
  facet normal 0 0 1
    outer loop
      vertex 52 6 0
      vertex 162.116 71.6161 0
      vertex 161.845 72.0216 0
    endloop
  endfacet
  facet normal 0 0 1
    outer loop
      vertex 52 6 0
      vertex 161.845 72.0216 0
      vertex 161.75 72.5 0
    endloop
  endfacet
  facet normal 0 0 1
    outer loop
      vertex 173.152 6.76537 0
      vertex 52 6 0
      vertex 173 6 0
    endloop
  endfacet
  facet normal -0 0 1
    outer loop
      vertex 52 6 0
      vertex 173.152 5.23463 0
      vertex 173 6 0
    endloop
  endfacet
  facet normal 0 0 1
    outer loop
      vertex 51.8478 5.23463 0
      vertex 173.152 5.23463 0
      vertex 52 6 0
    endloop
  endfacet
  facet normal 0 0 1
    outer loop
      vertex 173.152 5.23463 0
      vertex 51.8478 5.23463 0
      vertex 173.586 4.58579 0
    endloop
  endfacet
  facet normal 0 0 1
    outer loop
      vertex 51.4142 4.58579 0
      vertex 173.586 4.58579 0
      vertex 51.8478 5.23463 0
    endloop
  endfacet
  facet normal 0 0 1
    outer loop
      vertex 173.586 4.58579 0
      vertex 51.4142 4.58579 0
      vertex 174.235 4.15224 0
    endloop
  endfacet
  facet normal 0 0 1
    outer loop
      vertex 50.7654 4.15224 0
      vertex 174.235 4.15224 0
      vertex 51.4142 4.58579 0
    endloop
  endfacet
  facet normal 0 0 1
    outer loop
      vertex 174.235 4.15224 0
      vertex 50.7654 4.15224 0
      vertex 175 4 0
    endloop
  endfacet
  facet normal 0 0 1
    outer loop
      vertex 50 4 0
      vertex 175 4 0
      vertex 50.7654 4.15224 0
    endloop
  endfacet
  facet normal 0 0 1
    outer loop
      vertex 175 4 0
      vertex 50 4 0
      vertex 225 0 0
    endloop
  endfacet
  facet normal -0 0 1
    outer loop
      vertex 35 71.25 0
      vertex 49.2346 7.84776 0
      vertex 35.4784 71.3452 0
    endloop
  endfacet
  facet normal 0 0 1
    outer loop
      vertex 49.2346 7.84776 0
      vertex 35 71.25 0
      vertex 48.5858 7.41421 0
    endloop
  endfacet
  facet normal 0 0 1
    outer loop
      vertex 34.5216 71.3452 0
      vertex 48.5858 7.41421 0
      vertex 35 71.25 0
    endloop
  endfacet
  facet normal 0 0 1
    outer loop
      vertex 0 0 0
      vertex 48.5858 7.41421 0
      vertex 34.5216 71.3452 0
    endloop
  endfacet
  facet normal 0 0 1
    outer loop
      vertex 48.5858 7.41421 0
      vertex 0 0 0
      vertex 48.1522 6.76537 0
    endloop
  endfacet
  facet normal 0 0 1
    outer loop
      vertex 48.1522 6.76537 0
      vertex 0 0 0
      vertex 48 6 0
    endloop
  endfacet
  facet normal 0 0 1
    outer loop
      vertex 0 0 0
      vertex 34.5216 71.3452 0
      vertex 34.1161 71.6161 0
    endloop
  endfacet
  facet normal 0 0 1
    outer loop
      vertex 0 0 0
      vertex 34.1161 71.6161 0
      vertex 33.8451 72.0216 0
    endloop
  endfacet
  facet normal 0 0 1
    outer loop
      vertex 0 0 0
      vertex 33.75 72.5 0
      vertex 0 200 0
    endloop
  endfacet
  facet normal 0 0 1
    outer loop
      vertex 33.75 72.5 0
      vertex 0 0 0
      vertex 33.8451 72.0216 0
    endloop
  endfacet
  facet normal 0 0 1
    outer loop
      vertex 50 4 0
      vertex 0 0 0
      vertex 225 0 0
    endloop
  endfacet
  facet normal 0 0 1
    outer loop
      vertex 49.2346 4.15224 0
      vertex 0 0 0
      vertex 50 4 0
    endloop
  endfacet
  facet normal 0 0 1
    outer loop
      vertex 48.5858 4.58579 0
      vertex 0 0 0
      vertex 49.2346 4.15224 0
    endloop
  endfacet
  facet normal 0 0 1
    outer loop
      vertex 48.1522 5.23463 0
      vertex 0 0 0
      vertex 48.5858 4.58579 0
    endloop
  endfacet
  facet normal 0 0 1
    outer loop
      vertex 48 6 0
      vertex 0 0 0
      vertex 48.1522 5.23463 0
    endloop
  endfacet
  facet normal 0 0 1
    outer loop
      vertex 36.1549 72.9784 -2
      vertex 36.1549 72.0216 -2
      vertex 36.25 72.5 -2
    endloop
  endfacet
  facet normal 0 0 1
    outer loop
      vertex 35.8839 73.3839 -2
      vertex 36.1549 72.0216 -2
      vertex 36.1549 72.9784 -2
    endloop
  endfacet
  facet normal 0 0 1
    outer loop
      vertex 35.8839 73.3839 -2
      vertex 35.8839 71.6161 -2
      vertex 36.1549 72.0216 -2
    endloop
  endfacet
  facet normal 0 0 1
    outer loop
      vertex 35.4784 73.6548 -2
      vertex 35.8839 71.6161 -2
      vertex 35.8839 73.3839 -2
    endloop
  endfacet
  facet normal 0 0 1
    outer loop
      vertex 35.4784 73.6548 -2
      vertex 35.4784 71.3452 -2
      vertex 35.8839 71.6161 -2
    endloop
  endfacet
  facet normal 0 0 1
    outer loop
      vertex 35 73.75 -2
      vertex 35.4784 71.3452 -2
      vertex 35.4784 73.6548 -2
    endloop
  endfacet
  facet normal 0 0 1
    outer loop
      vertex 35 73.75 -2
      vertex 35 71.25 -2
      vertex 35.4784 71.3452 -2
    endloop
  endfacet
  facet normal -0 0 1
    outer loop
      vertex 34.5216 73.6548 -2
      vertex 35 71.25 -2
      vertex 35 73.75 -2
    endloop
  endfacet
  facet normal 0 0 1
    outer loop
      vertex 34.5216 73.6548 -2
      vertex 34.5216 71.3452 -2
      vertex 35 71.25 -2
    endloop
  endfacet
  facet normal -0 0 1
    outer loop
      vertex 34.1161 73.3839 -2
      vertex 34.5216 71.3452 -2
      vertex 34.5216 73.6548 -2
    endloop
  endfacet
  facet normal 0 0 1
    outer loop
      vertex 34.1161 73.3839 -2
      vertex 34.1161 71.6161 -2
      vertex 34.5216 71.3452 -2
    endloop
  endfacet
  facet normal -0 0 1
    outer loop
      vertex 33.8451 72.9784 -2
      vertex 34.1161 71.6161 -2
      vertex 34.1161 73.3839 -2
    endloop
  endfacet
  facet normal 0 0 1
    outer loop
      vertex 33.8451 72.9784 -2
      vertex 33.8451 72.0216 -2
      vertex 34.1161 71.6161 -2
    endloop
  endfacet
  facet normal 0 -0 1
    outer loop
      vertex 33.8451 72.0216 -2
      vertex 33.8451 72.9784 -2
      vertex 33.75 72.5 -2
    endloop
  endfacet
  facet normal 0.555504 0.831514 -0
    outer loop
      vertex 34.5216 71.3452 -2
      vertex 34.1161 71.6161 0
      vertex 34.5216 71.3452 0
    endloop
  endfacet
  facet normal 0.555504 0.831514 0
    outer loop
      vertex 34.1161 71.6161 0
      vertex 34.5216 71.3452 -2
      vertex 34.1161 71.6161 -2
    endloop
  endfacet
  facet normal -0.831419 -0.555646 0
    outer loop
      vertex 36.1549 72.9784 -2
      vertex 35.8839 73.3839 0
      vertex 35.8839 73.3839 -2
    endloop
  endfacet
  facet normal -0.831419 -0.555646 0
    outer loop
      vertex 35.8839 73.3839 0
      vertex 36.1549 72.9784 -2
      vertex 36.1549 72.9784 0
    endloop
  endfacet
  facet normal -0.980809 -0.194973 0
    outer loop
      vertex 36.25 72.5 -2
      vertex 36.1549 72.9784 0
      vertex 36.1549 72.9784 -2
    endloop
  endfacet
  facet normal -0.980809 -0.194973 0
    outer loop
      vertex 36.1549 72.9784 0
      vertex 36.25 72.5 -2
      vertex 36.25 72.5 0
    endloop
  endfacet
  facet normal -0.19517 0.980769 0
    outer loop
      vertex 35.4784 71.3452 -2
      vertex 35 71.25 0
      vertex 35.4784 71.3452 0
    endloop
  endfacet
  facet normal -0.19517 0.980769 0
    outer loop
      vertex 35 71.25 0
      vertex 35.4784 71.3452 -2
      vertex 35 71.25 -2
    endloop
  endfacet
  facet normal 0.980809 0.194973 0
    outer loop
      vertex 33.8451 72.0216 0
      vertex 33.75 72.5 -2
      vertex 33.75 72.5 0
    endloop
  endfacet
  facet normal 0.980809 0.194973 0
    outer loop
      vertex 33.75 72.5 -2
      vertex 33.8451 72.0216 0
      vertex 33.8451 72.0216 -2
    endloop
  endfacet
  facet normal 0.980809 -0.194973 0
    outer loop
      vertex 33.75 72.5 0
      vertex 33.8451 72.9784 -2
      vertex 33.8451 72.9784 0
    endloop
  endfacet
  facet normal 0.980809 -0.194973 0
    outer loop
      vertex 33.8451 72.9784 -2
      vertex 33.75 72.5 0
      vertex 33.75 72.5 -2
    endloop
  endfacet
  facet normal 0.555504 -0.831514 0
    outer loop
      vertex 34.1161 73.3839 -2
      vertex 34.5216 73.6548 0
      vertex 34.1161 73.3839 0
    endloop
  endfacet
  facet normal 0.555504 -0.831514 0
    outer loop
      vertex 34.5216 73.6548 0
      vertex 34.1161 73.3839 -2
      vertex 34.5216 73.6548 -2
    endloop
  endfacet
  facet normal 0.19517 -0.980769 0
    outer loop
      vertex 34.5216 73.6548 -2
      vertex 35 73.75 0
      vertex 34.5216 73.6548 0
    endloop
  endfacet
  facet normal 0.19517 -0.980769 0
    outer loop
      vertex 35 73.75 0
      vertex 34.5216 73.6548 -2
      vertex 35 73.75 -2
    endloop
  endfacet
  facet normal -0.195327 -0.980738 0
    outer loop
      vertex 163 73.75 -2
      vertex 163.478 73.6548 0
      vertex 163 73.75 0
    endloop
  endfacet
  facet normal -0.195327 -0.980738 -0
    outer loop
      vertex 163.478 73.6548 0
      vertex 163 73.75 -2
      vertex 163.478 73.6548 -2
    endloop
  endfacet
  facet normal 0.195327 0.980738 -0
    outer loop
      vertex 163 71.25 -2
      vertex 162.522 71.3452 0
      vertex 163 71.25 0
    endloop
  endfacet
  facet normal 0.195327 0.980738 0
    outer loop
      vertex 162.522 71.3452 0
      vertex 163 71.25 -2
      vertex 162.522 71.3452 -2
    endloop
  endfacet
  facet normal 0.831419 -0.555646 0
    outer loop
      vertex 161.845 72.9784 0
      vertex 162.116 73.3839 -2
      vertex 162.116 73.3839 0
    endloop
  endfacet
  facet normal 0.831419 -0.555646 0
    outer loop
      vertex 162.116 73.3839 -2
      vertex 161.845 72.9784 0
      vertex 161.845 72.9784 -2
    endloop
  endfacet
  facet normal 0.980848 -0.194775 0
    outer loop
      vertex 161.75 72.5 0
      vertex 161.845 72.9784 -2
      vertex 161.845 72.9784 0
    endloop
  endfacet
  facet normal 0.980848 -0.194775 0
    outer loop
      vertex 161.845 72.9784 -2
      vertex 161.75 72.5 0
      vertex 161.75 72.5 -2
    endloop
  endfacet
  facet normal -0.980848 0.194775 0
    outer loop
      vertex 164.155 72.0216 -2
      vertex 164.25 72.5 0
      vertex 164.25 72.5 -2
    endloop
  endfacet
  facet normal -0.980848 0.194775 0
    outer loop
      vertex 164.25 72.5 0
      vertex 164.155 72.0216 -2
      vertex 164.155 72.0216 0
    endloop
  endfacet
  facet normal -0.980848 -0.194775 0
    outer loop
      vertex 164.25 72.5 -2
      vertex 164.155 72.9784 0
      vertex 164.155 72.9784 -2
    endloop
  endfacet
  facet normal -0.980848 -0.194775 0
    outer loop
      vertex 164.155 72.9784 0
      vertex 164.25 72.5 -2
      vertex 164.25 72.5 0
    endloop
  endfacet
  facet normal 0.555031 -0.83183 0
    outer loop
      vertex 162.116 73.3839 -2
      vertex 162.522 73.6548 0
      vertex 162.116 73.3839 0
    endloop
  endfacet
  facet normal 0.555031 -0.83183 0
    outer loop
      vertex 162.522 73.6548 0
      vertex 162.116 73.3839 -2
      vertex 162.522 73.6548 -2
    endloop
  endfacet
  facet normal -0.555031 -0.83183 0
    outer loop
      vertex 163.478 73.6548 -2
      vertex 163.884 73.3839 0
      vertex 163.478 73.6548 0
    endloop
  endfacet
  facet normal -0.555031 -0.83183 -0
    outer loop
      vertex 163.884 73.3839 0
      vertex 163.478 73.6548 -2
      vertex 163.884 73.3839 -2
    endloop
  endfacet
  facet normal -0.831419 -0.555646 0
    outer loop
      vertex 164.155 72.9784 -2
      vertex 163.884 73.3839 0
      vertex 163.884 73.3839 -2
    endloop
  endfacet
  facet normal -0.831419 -0.555646 0
    outer loop
      vertex 163.884 73.3839 0
      vertex 164.155 72.9784 -2
      vertex 164.155 72.9784 0
    endloop
  endfacet
  facet normal -0.195327 0.980738 0
    outer loop
      vertex 163.478 71.3452 -2
      vertex 163 71.25 0
      vertex 163.478 71.3452 0
    endloop
  endfacet
  facet normal -0.195327 0.980738 0
    outer loop
      vertex 163 71.25 0
      vertex 163.478 71.3452 -2
      vertex 163 71.25 -2
    endloop
  endfacet
  facet normal -0.831419 0.555646 0
    outer loop
      vertex 163.884 71.6161 -2
      vertex 164.155 72.0216 0
      vertex 164.155 72.0216 -2
    endloop
  endfacet
  facet normal -0.831419 0.555646 0
    outer loop
      vertex 164.155 72.0216 0
      vertex 163.884 71.6161 -2
      vertex 163.884 71.6161 0
    endloop
  endfacet
  facet normal -0.555031 0.83183 0
    outer loop
      vertex 163.884 71.6161 -2
      vertex 163.478 71.3452 0
      vertex 163.884 71.6161 0
    endloop
  endfacet
  facet normal -0.555031 0.83183 0
    outer loop
      vertex 163.478 71.3452 0
      vertex 163.884 71.6161 -2
      vertex 163.478 71.3452 -2
    endloop
  endfacet
  facet normal 0 0 1
    outer loop
      vertex 164.155 72.9784 -2
      vertex 164.155 72.0216 -2
      vertex 164.25 72.5 -2
    endloop
  endfacet
  facet normal 0 0 1
    outer loop
      vertex 163.884 73.3839 -2
      vertex 164.155 72.0216 -2
      vertex 164.155 72.9784 -2
    endloop
  endfacet
  facet normal 0 0 1
    outer loop
      vertex 163.884 73.3839 -2
      vertex 163.884 71.6161 -2
      vertex 164.155 72.0216 -2
    endloop
  endfacet
  facet normal 0 0 1
    outer loop
      vertex 163.478 73.6548 -2
      vertex 163.884 71.6161 -2
      vertex 163.884 73.3839 -2
    endloop
  endfacet
  facet normal 0 0 1
    outer loop
      vertex 163.478 73.6548 -2
      vertex 163.478 71.3452 -2
      vertex 163.884 71.6161 -2
    endloop
  endfacet
  facet normal 0 0 1
    outer loop
      vertex 163 73.75 -2
      vertex 163.478 71.3452 -2
      vertex 163.478 73.6548 -2
    endloop
  endfacet
  facet normal 0 0 1
    outer loop
      vertex 163 73.75 -2
      vertex 163 71.25 -2
      vertex 163.478 71.3452 -2
    endloop
  endfacet
  facet normal -0 0 1
    outer loop
      vertex 162.522 73.6548 -2
      vertex 163 71.25 -2
      vertex 163 73.75 -2
    endloop
  endfacet
  facet normal 0 0 1
    outer loop
      vertex 162.522 73.6548 -2
      vertex 162.522 71.3452 -2
      vertex 163 71.25 -2
    endloop
  endfacet
  facet normal -0 0 1
    outer loop
      vertex 162.116 73.3839 -2
      vertex 162.522 71.3452 -2
      vertex 162.522 73.6548 -2
    endloop
  endfacet
  facet normal 0 0 1
    outer loop
      vertex 162.116 73.3839 -2
      vertex 162.116 71.6161 -2
      vertex 162.522 71.3452 -2
    endloop
  endfacet
  facet normal -0 0 1
    outer loop
      vertex 161.845 72.9784 -2
      vertex 162.116 71.6161 -2
      vertex 162.116 73.3839 -2
    endloop
  endfacet
  facet normal 0 0 1
    outer loop
      vertex 161.845 72.9784 -2
      vertex 161.845 72.0216 -2
      vertex 162.116 71.6161 -2
    endloop
  endfacet
  facet normal 0 -0 1
    outer loop
      vertex 161.845 72.0216 -2
      vertex 161.845 72.9784 -2
      vertex 161.75 72.5 -2
    endloop
  endfacet
  facet normal 0.980848 0.194775 0
    outer loop
      vertex 161.845 72.0216 0
      vertex 161.75 72.5 -2
      vertex 161.75 72.5 0
    endloop
  endfacet
  facet normal 0.980848 0.194775 0
    outer loop
      vertex 161.75 72.5 -2
      vertex 161.845 72.0216 0
      vertex 161.845 72.0216 -2
    endloop
  endfacet
  facet normal 0.555031 0.83183 -0
    outer loop
      vertex 162.522 71.3452 -2
      vertex 162.116 71.6161 0
      vertex 162.522 71.3452 0
    endloop
  endfacet
  facet normal 0.555031 0.83183 0
    outer loop
      vertex 162.116 71.6161 0
      vertex 162.522 71.3452 -2
      vertex 162.116 71.6161 -2
    endloop
  endfacet
  facet normal 0.831419 0.555646 0
    outer loop
      vertex 162.116 71.6161 0
      vertex 161.845 72.0216 -2
      vertex 161.845 72.0216 0
    endloop
  endfacet
  facet normal 0.831419 0.555646 0
    outer loop
      vertex 161.845 72.0216 -2
      vertex 162.116 71.6161 0
      vertex 162.116 71.6161 -2
    endloop
  endfacet
  facet normal 0.195327 -0.980738 0
    outer loop
      vertex 162.522 73.6548 -2
      vertex 163 73.75 0
      vertex 162.522 73.6548 0
    endloop
  endfacet
  facet normal 0.195327 -0.980738 0
    outer loop
      vertex 163 73.75 0
      vertex 162.522 73.6548 -2
      vertex 163 73.75 -2
    endloop
  endfacet
  facet normal -0.19513 0.980777 0
    outer loop
      vertex 219.765 48.1522 -12
      vertex 219 48 0
      vertex 219.765 48.1522 0
    endloop
  endfacet
  facet normal -0.19513 0.980777 0
    outer loop
      vertex 219 48 0
      vertex 219.765 48.1522 -12
      vertex 219 48 -12
    endloop
  endfacet
  facet normal -0.19513 -0.980777 0
    outer loop
      vertex 219 52 -12
      vertex 219.765 51.8478 0
      vertex 219 52 0
    endloop
  endfacet
  facet normal -0.19513 -0.980777 -0
    outer loop
      vertex 219.765 51.8478 0
      vertex 219 52 -12
      vertex 219.765 51.8478 -12
    endloop
  endfacet
  facet normal -0.555528 0.831498 0
    outer loop
      vertex 220.414 48.5858 -12
      vertex 219.765 48.1522 0
      vertex 220.414 48.5858 0
    endloop
  endfacet
  facet normal -0.555528 0.831498 0
    outer loop
      vertex 219.765 48.1522 0
      vertex 220.414 48.5858 -12
      vertex 219.765 48.1522 -12
    endloop
  endfacet
  facet normal 0.980846 0.194785 0
    outer loop
      vertex 217.152 49.2346 0
      vertex 217 50 -12
      vertex 217 50 0
    endloop
  endfacet
  facet normal 0.980846 0.194785 0
    outer loop
      vertex 217 50 -12
      vertex 217.152 49.2346 0
      vertex 217.152 49.2346 -12
    endloop
  endfacet
  facet normal 0.831182 0.556 0
    outer loop
      vertex 217.586 48.5858 0
      vertex 217.152 49.2346 -12
      vertex 217.152 49.2346 0
    endloop
  endfacet
  facet normal 0.831182 0.556 0
    outer loop
      vertex 217.152 49.2346 -12
      vertex 217.586 48.5858 0
      vertex 217.586 48.5858 -12
    endloop
  endfacet
  facet normal -0.831182 0.556 0
    outer loop
      vertex 220.414 48.5858 -12
      vertex 220.848 49.2346 0
      vertex 220.848 49.2346 -12
    endloop
  endfacet
  facet normal -0.831182 0.556 0
    outer loop
      vertex 220.848 49.2346 0
      vertex 220.414 48.5858 -12
      vertex 220.414 48.5858 0
    endloop
  endfacet
  facet normal -0.831182 -0.556 0
    outer loop
      vertex 220.848 50.7654 -12
      vertex 220.414 51.4142 0
      vertex 220.414 51.4142 -12
    endloop
  endfacet
  facet normal -0.831182 -0.556 0
    outer loop
      vertex 220.414 51.4142 0
      vertex 220.848 50.7654 -12
      vertex 220.848 50.7654 0
    endloop
  endfacet
  facet normal -0.555528 -0.831498 0
    outer loop
      vertex 219.765 51.8478 -12
      vertex 220.414 51.4142 0
      vertex 219.765 51.8478 0
    endloop
  endfacet
  facet normal -0.555528 -0.831498 -0
    outer loop
      vertex 220.414 51.4142 0
      vertex 219.765 51.8478 -12
      vertex 220.414 51.4142 -12
    endloop
  endfacet
  facet normal -0.980846 -0.194785 0
    outer loop
      vertex 221 50 -12
      vertex 220.848 50.7654 0
      vertex 220.848 50.7654 -12
    endloop
  endfacet
  facet normal -0.980846 -0.194785 0
    outer loop
      vertex 220.848 50.7654 0
      vertex 221 50 -12
      vertex 221 50 0
    endloop
  endfacet
  facet normal -0.980846 0.194785 0
    outer loop
      vertex 220.848 49.2346 -12
      vertex 221 50 0
      vertex 221 50 -12
    endloop
  endfacet
  facet normal -0.980846 0.194785 0
    outer loop
      vertex 221 50 0
      vertex 220.848 49.2346 -12
      vertex 220.848 49.2346 0
    endloop
  endfacet
  facet normal 0.555528 0.831498 -0
    outer loop
      vertex 218.235 48.1522 -12
      vertex 217.586 48.5858 0
      vertex 218.235 48.1522 0
    endloop
  endfacet
  facet normal 0.555528 0.831498 0
    outer loop
      vertex 217.586 48.5858 0
      vertex 218.235 48.1522 -12
      vertex 217.586 48.5858 -12
    endloop
  endfacet
  facet normal 0.19513 0.980777 -0
    outer loop
      vertex 219 48 -12
      vertex 218.235 48.1522 0
      vertex 219 48 0
    endloop
  endfacet
  facet normal 0.19513 0.980777 0
    outer loop
      vertex 218.235 48.1522 0
      vertex 219 48 -12
      vertex 218.235 48.1522 -12
    endloop
  endfacet
  facet normal 0 0 -1
    outer loop
      vertex 220.848 50.7654 -12
      vertex 221 150 -12
      vertex 221 50 -12
    endloop
  endfacet
  facet normal 0 0 -1
    outer loop
      vertex 220.848 50.7654 -12
      vertex 220.848 149.235 -12
      vertex 221 150 -12
    endloop
  endfacet
  facet normal 0 0 -1
    outer loop
      vertex 220.414 51.4142 -12
      vertex 220.848 149.235 -12
      vertex 220.848 50.7654 -12
    endloop
  endfacet
  facet normal 0 0 -1
    outer loop
      vertex 220.414 51.4142 -12
      vertex 220.414 148.586 -12
      vertex 220.848 149.235 -12
    endloop
  endfacet
  facet normal 0 0 -1
    outer loop
      vertex 219.765 51.8478 -12
      vertex 220.414 148.586 -12
      vertex 220.414 51.4142 -12
    endloop
  endfacet
  facet normal 0 0 -1
    outer loop
      vertex 219.765 51.8478 -12
      vertex 219.765 148.152 -12
      vertex 220.414 148.586 -12
    endloop
  endfacet
  facet normal 0 0 -1
    outer loop
      vertex 219 52 -12
      vertex 219.765 148.152 -12
      vertex 219.765 51.8478 -12
    endloop
  endfacet
  facet normal 0 0 -1
    outer loop
      vertex 219 52 -12
      vertex 219 148 -12
      vertex 219.765 148.152 -12
    endloop
  endfacet
  facet normal 0 0 -1
    outer loop
      vertex 218.235 51.8478 -12
      vertex 219 148 -12
      vertex 219 52 -12
    endloop
  endfacet
  facet normal 0 0 -1
    outer loop
      vertex 218.235 51.8478 -12
      vertex 218.235 148.152 -12
      vertex 219 148 -12
    endloop
  endfacet
  facet normal 0 0 -1
    outer loop
      vertex 217.586 51.4142 -12
      vertex 218.235 148.152 -12
      vertex 218.235 51.8478 -12
    endloop
  endfacet
  facet normal 0 0 -1
    outer loop
      vertex 217.586 51.4142 -12
      vertex 217.586 148.586 -12
      vertex 218.235 148.152 -12
    endloop
  endfacet
  facet normal 0 0 -1
    outer loop
      vertex 217.152 50.7654 -12
      vertex 217.586 148.586 -12
      vertex 217.586 51.4142 -12
    endloop
  endfacet
  facet normal 0 0 -1
    outer loop
      vertex 217.152 50.7654 -12
      vertex 217.152 149.235 -12
      vertex 217.586 148.586 -12
    endloop
  endfacet
  facet normal 0 0 -1
    outer loop
      vertex 174.235 7.84776 -12
      vertex 217.152 50.7654 -12
      vertex 217 50 -12
    endloop
  endfacet
  facet normal -0 0 -1
    outer loop
      vertex 217.152 50.7654 -12
      vertex 174.235 7.84776 -12
      vertex 217.152 149.235 -12
    endloop
  endfacet
  facet normal 0 0 -1
    outer loop
      vertex 225 0 -12
      vertex 221 50 -12
      vertex 225 200 -12
    endloop
  endfacet
  facet normal 0 0 -1
    outer loop
      vertex 225 0 -12
      vertex 220.848 49.2346 -12
      vertex 221 50 -12
    endloop
  endfacet
  facet normal 0 0 -1
    outer loop
      vertex 225 0 -12
      vertex 220.414 48.5858 -12
      vertex 220.848 49.2346 -12
    endloop
  endfacet
  facet normal 0 0 -1
    outer loop
      vertex 225 0 -12
      vertex 219.765 48.1522 -12
      vertex 220.414 48.5858 -12
    endloop
  endfacet
  facet normal 0 0 -1
    outer loop
      vertex 225 0 -12
      vertex 219 48 -12
      vertex 219.765 48.1522 -12
    endloop
  endfacet
  facet normal 0 0 -1
    outer loop
      vertex 225 0 -12
      vertex 218.235 48.1522 -12
      vertex 219 48 -12
    endloop
  endfacet
  facet normal 0 0 -1
    outer loop
      vertex 176.848 6.76537 -12
      vertex 218.235 48.1522 -12
      vertex 225 0 -12
    endloop
  endfacet
  facet normal -0 0 -1
    outer loop
      vertex 218.235 48.1522 -12
      vertex 176.848 6.76537 -12
      vertex 217.586 48.5858 -12
    endloop
  endfacet
  facet normal 0 0 -1
    outer loop
      vertex 176.414 7.41421 -12
      vertex 217.586 48.5858 -12
      vertex 176.848 6.76537 -12
    endloop
  endfacet
  facet normal -0 0 -1
    outer loop
      vertex 217.586 48.5858 -12
      vertex 176.414 7.41421 -12
      vertex 217.152 49.2346 -12
    endloop
  endfacet
  facet normal 0 0 -1
    outer loop
      vertex 176.848 6.76537 -12
      vertex 225 0 -12
      vertex 177 6 -12
    endloop
  endfacet
  facet normal 0 0 -1
    outer loop
      vertex 225 0 -12
      vertex 176.848 5.23463 -12
      vertex 177 6 -12
    endloop
  endfacet
  facet normal 0 0 -1
    outer loop
      vertex 225 0 -12
      vertex 176.414 4.58579 -12
      vertex 176.848 5.23463 -12
    endloop
  endfacet
  facet normal 0 0 -1
    outer loop
      vertex 225 0 -12
      vertex 175.765 4.15224 -12
      vertex 176.414 4.58579 -12
    endloop
  endfacet
  facet normal 0 0 -1
    outer loop
      vertex 225 0 -12
      vertex 175 4 -12
      vertex 175.765 4.15224 -12
    endloop
  endfacet
  facet normal 0 0 -1
    outer loop
      vertex 173.152 5.23463 -12
      vertex 52 6 -12
      vertex 173 6 -12
    endloop
  endfacet
  facet normal 0 0 -1
    outer loop
      vertex 51.8478 5.23463 -12
      vertex 173.152 5.23463 -12
      vertex 173.586 4.58579 -12
    endloop
  endfacet
  facet normal 0 0 -1
    outer loop
      vertex 51.4142 4.58579 -12
      vertex 173.586 4.58579 -12
      vertex 174.235 4.15224 -12
    endloop
  endfacet
  facet normal 0 0 -1
    outer loop
      vertex 50.7654 4.15224 -12
      vertex 174.235 4.15224 -12
      vertex 175 4 -12
    endloop
  endfacet
  facet normal 0 0 -1
    outer loop
      vertex 50 4 -12
      vertex 175 4 -12
      vertex 225 0 -12
    endloop
  endfacet
  facet normal 0 0 -1
    outer loop
      vertex 173.152 5.23463 -12
      vertex 51.8478 5.23463 -12
      vertex 52 6 -12
    endloop
  endfacet
  facet normal 0 0 -1
    outer loop
      vertex 173.586 4.58579 -12
      vertex 51.4142 4.58579 -12
      vertex 51.8478 5.23463 -12
    endloop
  endfacet
  facet normal 0 0 -1
    outer loop
      vertex 174.235 4.15224 -12
      vertex 50.7654 4.15224 -12
      vertex 51.4142 4.58579 -12
    endloop
  endfacet
  facet normal 0 0 -1
    outer loop
      vertex 175 4 -12
      vertex 50 4 -12
      vertex 50.7654 4.15224 -12
    endloop
  endfacet
  facet normal -0 0 -1
    outer loop
      vertex 48.1522 5.23463 -12
      vertex 0 0 -12
      vertex 48 6 -12
    endloop
  endfacet
  facet normal -0 0 -1
    outer loop
      vertex 48.5858 4.58579 -12
      vertex 0 0 -12
      vertex 48.1522 5.23463 -12
    endloop
  endfacet
  facet normal -0 0 -1
    outer loop
      vertex 49.2346 4.15224 -12
      vertex 0 0 -12
      vertex 48.5858 4.58579 -12
    endloop
  endfacet
  facet normal -0 0 -1
    outer loop
      vertex 50 4 -12
      vertex 0 0 -12
      vertex 49.2346 4.15224 -12
    endloop
  endfacet
  facet normal 0 0 -1
    outer loop
      vertex 0 0 -12
      vertex 50 4 -12
      vertex 225 0 -12
    endloop
  endfacet
  facet normal 0 0 -1
    outer loop
      vertex 221 150 -12
      vertex 225 200 -12
      vertex 221 50 -12
    endloop
  endfacet
  facet normal 0 0 -1
    outer loop
      vertex 220.848 150.765 -12
      vertex 225 200 -12
      vertex 221 150 -12
    endloop
  endfacet
  facet normal 0 0 -1
    outer loop
      vertex 220.414 151.414 -12
      vertex 225 200 -12
      vertex 220.848 150.765 -12
    endloop
  endfacet
  facet normal 0 0 -1
    outer loop
      vertex 219.765 151.848 -12
      vertex 225 200 -12
      vertex 220.414 151.414 -12
    endloop
  endfacet
  facet normal 0 0 -1
    outer loop
      vertex 219 152 -12
      vertex 225 200 -12
      vertex 219.765 151.848 -12
    endloop
  endfacet
  facet normal 0 0 -1
    outer loop
      vertex 218.235 151.848 -12
      vertex 225 200 -12
      vertex 219 152 -12
    endloop
  endfacet
  facet normal 0 0 -1
    outer loop
      vertex 217.586 151.414 -12
      vertex 225 200 -12
      vertex 218.235 151.848 -12
    endloop
  endfacet
  facet normal 0 0 -1
    outer loop
      vertex 217.152 150.765 -12
      vertex 225 200 -12
      vertex 217.586 151.414 -12
    endloop
  endfacet
  facet normal 0 0 -1
    outer loop
      vertex 0 200 -12
      vertex 217.152 150.765 -12
      vertex 217 150 -12
    endloop
  endfacet
  facet normal 0 0 -1
    outer loop
      vertex 175.765 7.84776 -12
      vertex 217.152 49.2346 -12
      vertex 176.414 7.41421 -12
    endloop
  endfacet
  facet normal -0 0 -1
    outer loop
      vertex 217.152 49.2346 -12
      vertex 175.765 7.84776 -12
      vertex 217 50 -12
    endloop
  endfacet
  facet normal 0 0 -1
    outer loop
      vertex 175 8 -12
      vertex 217 50 -12
      vertex 175.765 7.84776 -12
    endloop
  endfacet
  facet normal 0 0 -1
    outer loop
      vertex 174.235 7.84776 -12
      vertex 217 50 -12
      vertex 175 8 -12
    endloop
  endfacet
  facet normal 0 0 -1
    outer loop
      vertex 50.7654 7.84776 -12
      vertex 217.152 149.235 -12
      vertex 174.235 7.84776 -12
    endloop
  endfacet
  facet normal 0 0 -1
    outer loop
      vertex 0 200 -12
      vertex 217.152 149.235 -12
      vertex 50.7654 7.84776 -12
    endloop
  endfacet
  facet normal 0 0 -1
    outer loop
      vertex 50.7654 7.84776 -12
      vertex 174.235 7.84776 -12
      vertex 173.586 7.41421 -12
    endloop
  endfacet
  facet normal 0 0 -1
    outer loop
      vertex 51.4142 7.41421 -12
      vertex 173.586 7.41421 -12
      vertex 173.152 6.76537 -12
    endloop
  endfacet
  facet normal 0 0 -1
    outer loop
      vertex 52 6 -12
      vertex 173.152 6.76537 -12
      vertex 173 6 -12
    endloop
  endfacet
  facet normal 0 0 -1
    outer loop
      vertex 51.8478 6.76537 -12
      vertex 173.152 6.76537 -12
      vertex 52 6 -12
    endloop
  endfacet
  facet normal 0 0 -1
    outer loop
      vertex 51.4142 7.41421 -12
      vertex 173.152 6.76537 -12
      vertex 51.8478 6.76537 -12
    endloop
  endfacet
  facet normal 0 0 -1
    outer loop
      vertex 173.586 7.41421 -12
      vertex 51.4142 7.41421 -12
      vertex 50.7654 7.84776 -12
    endloop
  endfacet
  facet normal 0 0 -1
    outer loop
      vertex 217.152 149.235 -12
      vertex 0 200 -12
      vertex 217 150 -12
    endloop
  endfacet
  facet normal 0 0 -1
    outer loop
      vertex 0 200 -12
      vertex 50.7654 7.84776 -12
      vertex 50 8 -12
    endloop
  endfacet
  facet normal 0 0 -1
    outer loop
      vertex 0 200 -12
      vertex 50 8 -12
      vertex 49.2346 7.84776 -12
    endloop
  endfacet
  facet normal 0 0 -1
    outer loop
      vertex 0 0 -12
      vertex 49.2346 7.84776 -12
      vertex 48.5858 7.41421 -12
    endloop
  endfacet
  facet normal 0 0 -1
    outer loop
      vertex 0 0 -12
      vertex 48.1522 6.76537 -12
      vertex 48 6 -12
    endloop
  endfacet
  facet normal 0 0 -1
    outer loop
      vertex 0 0 -12
      vertex 48.5858 7.41421 -12
      vertex 48.1522 6.76537 -12
    endloop
  endfacet
  facet normal -0 0 -1
    outer loop
      vertex 49.2346 7.84776 -12
      vertex 0 0 -12
      vertex 0 200 -12
    endloop
  endfacet
  facet normal 0 0 -1
    outer loop
      vertex 217.152 150.765 -12
      vertex 0 200 -12
      vertex 225 200 -12
    endloop
  endfacet
  facet normal 0.555528 -0.831498 0
    outer loop
      vertex 217.586 51.4142 -12
      vertex 218.235 51.8478 0
      vertex 217.586 51.4142 0
    endloop
  endfacet
  facet normal 0.555528 -0.831498 0
    outer loop
      vertex 218.235 51.8478 0
      vertex 217.586 51.4142 -12
      vertex 218.235 51.8478 -12
    endloop
  endfacet
  facet normal 0.19513 -0.980777 0
    outer loop
      vertex 218.235 51.8478 -12
      vertex 219 52 0
      vertex 218.235 51.8478 0
    endloop
  endfacet
  facet normal 0.19513 -0.980777 0
    outer loop
      vertex 219 52 0
      vertex 218.235 51.8478 -12
      vertex 219 52 -12
    endloop
  endfacet
  facet normal 0.980846 -0.194785 0
    outer loop
      vertex 217 50 0
      vertex 217.152 50.7654 -12
      vertex 217.152 50.7654 0
    endloop
  endfacet
  facet normal 0.980846 -0.194785 0
    outer loop
      vertex 217.152 50.7654 -12
      vertex 217 50 0
      vertex 217 50 -12
    endloop
  endfacet
  facet normal 0.831182 -0.556 0
    outer loop
      vertex 217.152 50.7654 0
      vertex 217.586 51.4142 -12
      vertex 217.586 51.4142 0
    endloop
  endfacet
  facet normal 0.831182 -0.556 0
    outer loop
      vertex 217.586 51.4142 -12
      vertex 217.152 50.7654 0
      vertex 217.152 50.7654 -12
    endloop
  endfacet
  facet normal -0.194883 0.980826 0
    outer loop
      vertex 219.765 148.152 -12
      vertex 219 148 0
      vertex 219.765 148.152 0
    endloop
  endfacet
  facet normal -0.194883 0.980826 0
    outer loop
      vertex 219 148 0
      vertex 219.765 148.152 -12
      vertex 219 148 -12
    endloop
  endfacet
  facet normal -0.194883 -0.980826 0
    outer loop
      vertex 219 152 -12
      vertex 219.765 151.848 0
      vertex 219 152 0
    endloop
  endfacet
  facet normal -0.194883 -0.980826 -0
    outer loop
      vertex 219.765 151.848 0
      vertex 219 152 -12
      vertex 219.765 151.848 -12
    endloop
  endfacet
  facet normal -0.555882 0.831261 0
    outer loop
      vertex 220.414 148.586 -12
      vertex 219.765 148.152 0
      vertex 220.414 148.586 0
    endloop
  endfacet
  facet normal -0.555882 0.831261 0
    outer loop
      vertex 219.765 148.152 0
      vertex 220.414 148.586 -12
      vertex 219.765 148.152 -12
    endloop
  endfacet
  facet normal 0.980826 0.194883 0
    outer loop
      vertex 217.152 149.235 0
      vertex 217 150 -12
      vertex 217 150 0
    endloop
  endfacet
  facet normal 0.980826 0.194883 0
    outer loop
      vertex 217 150 -12
      vertex 217.152 149.235 0
      vertex 217.152 149.235 -12
    endloop
  endfacet
  facet normal 0.831261 0.555882 0
    outer loop
      vertex 217.586 148.586 0
      vertex 217.152 149.235 -12
      vertex 217.152 149.235 0
    endloop
  endfacet
  facet normal 0.831261 0.555882 0
    outer loop
      vertex 217.152 149.235 -12
      vertex 217.586 148.586 0
      vertex 217.586 148.586 -12
    endloop
  endfacet
  facet normal -0.831261 0.555882 0
    outer loop
      vertex 220.414 148.586 -12
      vertex 220.848 149.235 0
      vertex 220.848 149.235 -12
    endloop
  endfacet
  facet normal -0.831261 0.555882 0
    outer loop
      vertex 220.848 149.235 0
      vertex 220.414 148.586 -12
      vertex 220.414 148.586 0
    endloop
  endfacet
  facet normal -0.831261 -0.555882 0
    outer loop
      vertex 220.848 150.765 -12
      vertex 220.414 151.414 0
      vertex 220.414 151.414 -12
    endloop
  endfacet
  facet normal -0.831261 -0.555882 0
    outer loop
      vertex 220.414 151.414 0
      vertex 220.848 150.765 -12
      vertex 220.848 150.765 0
    endloop
  endfacet
  facet normal -0.555882 -0.831261 0
    outer loop
      vertex 219.765 151.848 -12
      vertex 220.414 151.414 0
      vertex 219.765 151.848 0
    endloop
  endfacet
  facet normal -0.555882 -0.831261 -0
    outer loop
      vertex 220.414 151.414 0
      vertex 219.765 151.848 -12
      vertex 220.414 151.414 -12
    endloop
  endfacet
  facet normal -0.980826 -0.194883 0
    outer loop
      vertex 221 150 -12
      vertex 220.848 150.765 0
      vertex 220.848 150.765 -12
    endloop
  endfacet
  facet normal -0.980826 -0.194883 0
    outer loop
      vertex 220.848 150.765 0
      vertex 221 150 -12
      vertex 221 150 0
    endloop
  endfacet
  facet normal 0.194883 0.980826 -0
    outer loop
      vertex 219 148 -12
      vertex 218.235 148.152 0
      vertex 219 148 0
    endloop
  endfacet
  facet normal 0.194883 0.980826 0
    outer loop
      vertex 218.235 148.152 0
      vertex 219 148 -12
      vertex 218.235 148.152 -12
    endloop
  endfacet
  facet normal -0.980826 0.194883 0
    outer loop
      vertex 220.848 149.235 -12
      vertex 221 150 0
      vertex 221 150 -12
    endloop
  endfacet
  facet normal -0.980826 0.194883 0
    outer loop
      vertex 221 150 0
      vertex 220.848 149.235 -12
      vertex 220.848 149.235 0
    endloop
  endfacet
  facet normal 0.555882 0.831261 -0
    outer loop
      vertex 218.235 148.152 -12
      vertex 217.586 148.586 0
      vertex 218.235 148.152 0
    endloop
  endfacet
  facet normal 0.555882 0.831261 0
    outer loop
      vertex 217.586 148.586 0
      vertex 218.235 148.152 -12
      vertex 217.586 148.586 -12
    endloop
  endfacet
  facet normal 0.555882 -0.831261 0
    outer loop
      vertex 217.586 151.414 -12
      vertex 218.235 151.848 0
      vertex 217.586 151.414 0
    endloop
  endfacet
  facet normal 0.555882 -0.831261 0
    outer loop
      vertex 218.235 151.848 0
      vertex 217.586 151.414 -12
      vertex 218.235 151.848 -12
    endloop
  endfacet
  facet normal 0.194883 -0.980826 0
    outer loop
      vertex 218.235 151.848 -12
      vertex 219 152 0
      vertex 218.235 151.848 0
    endloop
  endfacet
  facet normal 0.194883 -0.980826 0
    outer loop
      vertex 219 152 0
      vertex 218.235 151.848 -12
      vertex 219 152 -12
    endloop
  endfacet
  facet normal 0.980826 -0.194883 0
    outer loop
      vertex 217 150 0
      vertex 217.152 150.765 -12
      vertex 217.152 150.765 0
    endloop
  endfacet
  facet normal 0.980826 -0.194883 0
    outer loop
      vertex 217.152 150.765 -12
      vertex 217 150 0
      vertex 217 150 -12
    endloop
  endfacet
  facet normal 0.831261 -0.555882 0
    outer loop
      vertex 217.152 150.765 0
      vertex 217.586 151.414 -12
      vertex 217.586 151.414 0
    endloop
  endfacet
  facet normal 0.831261 -0.555882 0
    outer loop
      vertex 217.586 151.414 -12
      vertex 217.152 150.765 0
      vertex 217.152 150.765 -12
    endloop
  endfacet
  facet normal -0.195081 0.980787 0
    outer loop
      vertex 50.7654 4.15224 -12
      vertex 50 4 0
      vertex 50.7654 4.15224 0
    endloop
  endfacet
  facet normal -0.195081 0.980787 0
    outer loop
      vertex 50 4 0
      vertex 50.7654 4.15224 -12
      vertex 50 4 -12
    endloop
  endfacet
  facet normal -0.195081 -0.980787 0
    outer loop
      vertex 50 8 -12
      vertex 50.7654 7.84776 0
      vertex 50 8 0
    endloop
  endfacet
  facet normal -0.195081 -0.980787 -0
    outer loop
      vertex 50.7654 7.84776 0
      vertex 50 8 -12
      vertex 50.7654 7.84776 -12
    endloop
  endfacet
  facet normal -0.555602 0.831448 0
    outer loop
      vertex 51.4142 4.58579 -12
      vertex 50.7654 4.15224 0
      vertex 51.4142 4.58579 0
    endloop
  endfacet
  facet normal -0.555602 0.831448 0
    outer loop
      vertex 50.7654 4.15224 0
      vertex 51.4142 4.58579 -12
      vertex 50.7654 4.15224 -12
    endloop
  endfacet
  facet normal -0.831435 0.555622 0
    outer loop
      vertex 51.4142 4.58579 -12
      vertex 51.8478 5.23463 0
      vertex 51.8478 5.23463 -12
    endloop
  endfacet
  facet normal -0.831435 0.555622 0
    outer loop
      vertex 51.8478 5.23463 0
      vertex 51.4142 4.58579 -12
      vertex 51.4142 4.58579 0
    endloop
  endfacet
  facet normal -0.980795 -0.195039 0
    outer loop
      vertex 52 6 -12
      vertex 51.8478 6.76537 0
      vertex 51.8478 6.76537 -12
    endloop
  endfacet
  facet normal -0.980795 -0.195039 0
    outer loop
      vertex 51.8478 6.76537 0
      vertex 52 6 -12
      vertex 52 6 0
    endloop
  endfacet
  facet normal -0.555602 -0.831448 0
    outer loop
      vertex 50.7654 7.84776 -12
      vertex 51.4142 7.41421 0
      vertex 50.7654 7.84776 0
    endloop
  endfacet
  facet normal -0.555602 -0.831448 -0
    outer loop
      vertex 51.4142 7.41421 0
      vertex 50.7654 7.84776 -12
      vertex 51.4142 7.41421 -12
    endloop
  endfacet
  facet normal -0.831435 -0.555622 0
    outer loop
      vertex 51.8478 6.76537 -12
      vertex 51.4142 7.41421 0
      vertex 51.4142 7.41421 -12
    endloop
  endfacet
  facet normal -0.831435 -0.555622 0
    outer loop
      vertex 51.4142 7.41421 0
      vertex 51.8478 6.76537 -12
      vertex 51.8478 6.76537 0
    endloop
  endfacet
  facet normal -0.980795 0.195039 0
    outer loop
      vertex 51.8478 5.23463 -12
      vertex 52 6 0
      vertex 52 6 -12
    endloop
  endfacet
  facet normal -0.980795 0.195039 0
    outer loop
      vertex 52 6 0
      vertex 51.8478 5.23463 -12
      vertex 51.8478 5.23463 0
    endloop
  endfacet
  facet normal 0.831435 0.555622 0
    outer loop
      vertex 48.5858 4.58579 0
      vertex 48.1522 5.23463 -12
      vertex 48.1522 5.23463 0
    endloop
  endfacet
  facet normal 0.831435 0.555622 0
    outer loop
      vertex 48.1522 5.23463 -12
      vertex 48.5858 4.58579 0
      vertex 48.5858 4.58579 -12
    endloop
  endfacet
  facet normal 0.555602 0.831448 -0
    outer loop
      vertex 49.2346 4.15224 -12
      vertex 48.5858 4.58579 0
      vertex 49.2346 4.15224 0
    endloop
  endfacet
  facet normal 0.555602 0.831448 0
    outer loop
      vertex 48.5858 4.58579 0
      vertex 49.2346 4.15224 -12
      vertex 48.5858 4.58579 -12
    endloop
  endfacet
  facet normal 0.195081 0.980787 -0
    outer loop
      vertex 50 4 -12
      vertex 49.2346 4.15224 0
      vertex 50 4 0
    endloop
  endfacet
  facet normal 0.195081 0.980787 0
    outer loop
      vertex 49.2346 4.15224 0
      vertex 50 4 -12
      vertex 49.2346 4.15224 -12
    endloop
  endfacet
  facet normal 0.555602 -0.831448 0
    outer loop
      vertex 48.5858 7.41421 -12
      vertex 49.2346 7.84776 0
      vertex 48.5858 7.41421 0
    endloop
  endfacet
  facet normal 0.555602 -0.831448 0
    outer loop
      vertex 49.2346 7.84776 0
      vertex 48.5858 7.41421 -12
      vertex 49.2346 7.84776 -12
    endloop
  endfacet
  facet normal 0.980795 0.195039 0
    outer loop
      vertex 48.1522 5.23463 0
      vertex 48 6 -12
      vertex 48 6 0
    endloop
  endfacet
  facet normal 0.980795 0.195039 0
    outer loop
      vertex 48 6 -12
      vertex 48.1522 5.23463 0
      vertex 48.1522 5.23463 -12
    endloop
  endfacet
  facet normal 0.195081 -0.980787 0
    outer loop
      vertex 49.2346 7.84776 -12
      vertex 50 8 0
      vertex 49.2346 7.84776 0
    endloop
  endfacet
  facet normal 0.195081 -0.980787 0
    outer loop
      vertex 50 8 0
      vertex 49.2346 7.84776 -12
      vertex 50 8 -12
    endloop
  endfacet
  facet normal 0.980795 -0.195039 0
    outer loop
      vertex 48 6 0
      vertex 48.1522 6.76537 -12
      vertex 48.1522 6.76537 0
    endloop
  endfacet
  facet normal 0.980795 -0.195039 0
    outer loop
      vertex 48.1522 6.76537 -12
      vertex 48 6 0
      vertex 48 6 -12
    endloop
  endfacet
  facet normal 0.831435 -0.555622 0
    outer loop
      vertex 48.1522 6.76537 0
      vertex 48.5858 7.41421 -12
      vertex 48.5858 7.41421 0
    endloop
  endfacet
  facet normal 0.831435 -0.555622 0
    outer loop
      vertex 48.5858 7.41421 -12
      vertex 48.1522 6.76537 0
      vertex 48.1522 6.76537 -12
    endloop
  endfacet
  facet normal -0.195179 0.980768 0
    outer loop
      vertex 175.765 4.15224 -12
      vertex 175 4 0
      vertex 175.765 4.15224 0
    endloop
  endfacet
  facet normal -0.195179 0.980768 0
    outer loop
      vertex 175 4 0
      vertex 175.765 4.15224 -12
      vertex 175 4 -12
    endloop
  endfacet
  facet normal -0.195179 -0.980768 0
    outer loop
      vertex 175 8 -12
      vertex 175.765 7.84776 0
      vertex 175 8 0
    endloop
  endfacet
  facet normal -0.195179 -0.980768 -0
    outer loop
      vertex 175.765 7.84776 0
      vertex 175 8 -12
      vertex 175.765 7.84776 -12
    endloop
  endfacet
  facet normal -0.555483 0.831528 0
    outer loop
      vertex 176.414 4.58579 -12
      vertex 175.765 4.15224 0
      vertex 176.414 4.58579 0
    endloop
  endfacet
  facet normal -0.555483 0.831528 0
    outer loop
      vertex 175.765 4.15224 0
      vertex 176.414 4.58579 -12
      vertex 175.765 4.15224 -12
    endloop
  endfacet
  facet normal 0.980844 0.194793 0
    outer loop
      vertex 173.152 5.23463 0
      vertex 173 6 -12
      vertex 173 6 0
    endloop
  endfacet
  facet normal 0.980844 0.194793 0
    outer loop
      vertex 173 6 -12
      vertex 173.152 5.23463 0
      vertex 173.152 5.23463 -12
    endloop
  endfacet
  facet normal 0.831198 0.555977 0
    outer loop
      vertex 173.586 4.58579 0
      vertex 173.152 5.23463 -12
      vertex 173.152 5.23463 0
    endloop
  endfacet
  facet normal 0.831198 0.555977 0
    outer loop
      vertex 173.152 5.23463 -12
      vertex 173.586 4.58579 0
      vertex 173.586 4.58579 -12
    endloop
  endfacet
  facet normal -0.831198 0.555977 0
    outer loop
      vertex 176.414 4.58579 -12
      vertex 176.848 5.23463 0
      vertex 176.848 5.23463 -12
    endloop
  endfacet
  facet normal -0.831198 0.555977 0
    outer loop
      vertex 176.848 5.23463 0
      vertex 176.414 4.58579 -12
      vertex 176.414 4.58579 0
    endloop
  endfacet
  facet normal -0.831198 -0.555977 0
    outer loop
      vertex 176.848 6.76537 -12
      vertex 176.414 7.41421 0
      vertex 176.414 7.41421 -12
    endloop
  endfacet
  facet normal -0.831198 -0.555977 0
    outer loop
      vertex 176.414 7.41421 0
      vertex 176.848 6.76537 -12
      vertex 176.848 6.76537 0
    endloop
  endfacet
  facet normal -0.555483 -0.831528 0
    outer loop
      vertex 175.765 7.84776 -12
      vertex 176.414 7.41421 0
      vertex 175.765 7.84776 0
    endloop
  endfacet
  facet normal -0.555483 -0.831528 -0
    outer loop
      vertex 176.414 7.41421 0
      vertex 175.765 7.84776 -12
      vertex 176.414 7.41421 -12
    endloop
  endfacet
  facet normal -0.980844 -0.194793 0
    outer loop
      vertex 177 6 -12
      vertex 176.848 6.76537 0
      vertex 176.848 6.76537 -12
    endloop
  endfacet
  facet normal -0.980844 -0.194793 0
    outer loop
      vertex 176.848 6.76537 0
      vertex 177 6 -12
      vertex 177 6 0
    endloop
  endfacet
  facet normal -0.980844 0.194793 0
    outer loop
      vertex 176.848 5.23463 -12
      vertex 177 6 0
      vertex 177 6 -12
    endloop
  endfacet
  facet normal -0.980844 0.194793 0
    outer loop
      vertex 177 6 0
      vertex 176.848 5.23463 -12
      vertex 176.848 5.23463 0
    endloop
  endfacet
  facet normal 0.555483 0.831528 -0
    outer loop
      vertex 174.235 4.15224 -12
      vertex 173.586 4.58579 0
      vertex 174.235 4.15224 0
    endloop
  endfacet
  facet normal 0.555483 0.831528 0
    outer loop
      vertex 173.586 4.58579 0
      vertex 174.235 4.15224 -12
      vertex 173.586 4.58579 -12
    endloop
  endfacet
  facet normal 0.195179 0.980768 -0
    outer loop
      vertex 175 4 -12
      vertex 174.235 4.15224 0
      vertex 175 4 0
    endloop
  endfacet
  facet normal 0.195179 0.980768 0
    outer loop
      vertex 174.235 4.15224 0
      vertex 175 4 -12
      vertex 174.235 4.15224 -12
    endloop
  endfacet
  facet normal 0.555483 -0.831528 0
    outer loop
      vertex 173.586 7.41421 -12
      vertex 174.235 7.84776 0
      vertex 173.586 7.41421 0
    endloop
  endfacet
  facet normal 0.555483 -0.831528 0
    outer loop
      vertex 174.235 7.84776 0
      vertex 173.586 7.41421 -12
      vertex 174.235 7.84776 -12
    endloop
  endfacet
  facet normal 0.195179 -0.980768 0
    outer loop
      vertex 174.235 7.84776 -12
      vertex 175 8 0
      vertex 174.235 7.84776 0
    endloop
  endfacet
  facet normal 0.195179 -0.980768 0
    outer loop
      vertex 175 8 0
      vertex 174.235 7.84776 -12
      vertex 175 8 -12
    endloop
  endfacet
  facet normal 0.980844 -0.194793 0
    outer loop
      vertex 173 6 0
      vertex 173.152 6.76537 -12
      vertex 173.152 6.76537 0
    endloop
  endfacet
  facet normal 0.980844 -0.194793 0
    outer loop
      vertex 173.152 6.76537 -12
      vertex 173 6 0
      vertex 173 6 -12
    endloop
  endfacet
  facet normal 0.831198 -0.555977 0
    outer loop
      vertex 173.152 6.76537 0
      vertex 173.586 7.41421 -12
      vertex 173.586 7.41421 0
    endloop
  endfacet
  facet normal 0.831198 -0.555977 0
    outer loop
      vertex 173.586 7.41421 -12
      vertex 173.152 6.76537 0
      vertex 173.152 6.76537 -12
    endloop
  endfacet
  facet normal -1 0 0
    outer loop
      vertex 0 200 -12
      vertex 0 153 -6
      vertex 0 200 0
    endloop
  endfacet
  facet normal -1 0 0
    outer loop
      vertex 0 200 -12
      vertex 0 152.772 -7.14805
      vertex 0 153 -6
    endloop
  endfacet
  facet normal -1 0 0
    outer loop
      vertex 0 200 -12
      vertex 0 152.121 -8.12132
      vertex 0 152.772 -7.14805
    endloop
  endfacet
  facet normal -1 0 0
    outer loop
      vertex 0 200 -12
      vertex 0 151.148 -8.77164
      vertex 0 152.121 -8.12132
    endloop
  endfacet
  facet normal -1 0 0
    outer loop
      vertex 0 200 -12
      vertex 0 150 -9
      vertex 0 151.148 -8.77164
    endloop
  endfacet
  facet normal -1 0 0
    outer loop
      vertex 0 147.228 -7.14805
      vertex 0 53 -6
      vertex 0 147 -6
    endloop
  endfacet
  facet normal -1 0 0
    outer loop
      vertex 0 52.7716 -7.14805
      vertex 0 147.228 -7.14805
      vertex 0 147.879 -8.12132
    endloop
  endfacet
  facet normal -1 0 0
    outer loop
      vertex 0 52.1213 -8.12132
      vertex 0 147.879 -8.12132
      vertex 0 148.852 -8.77164
    endloop
  endfacet
  facet normal -1 0 0
    outer loop
      vertex 0 51.148 -8.77164
      vertex 0 148.852 -8.77164
      vertex 0 150 -9
    endloop
  endfacet
  facet normal -1 0 0
    outer loop
      vertex 0 50 -9
      vertex 0 150 -9
      vertex 0 200 -12
    endloop
  endfacet
  facet normal -1 0 0
    outer loop
      vertex 0 147.228 -7.14805
      vertex 0 52.7716 -7.14805
      vertex 0 53 -6
    endloop
  endfacet
  facet normal -1 0 0
    outer loop
      vertex 0 147.879 -8.12132
      vertex 0 52.1213 -8.12132
      vertex 0 52.7716 -7.14805
    endloop
  endfacet
  facet normal -1 0 0
    outer loop
      vertex 0 148.852 -8.77164
      vertex 0 51.148 -8.77164
      vertex 0 52.1213 -8.12132
    endloop
  endfacet
  facet normal -1 0 0
    outer loop
      vertex 0 150 -9
      vertex 0 50 -9
      vertex 0 51.148 -8.77164
    endloop
  endfacet
  facet normal -1 -0 0
    outer loop
      vertex 0 47.2284 -7.14805
      vertex 0 0 -12
      vertex 0 47 -6
    endloop
  endfacet
  facet normal -1 -0 0
    outer loop
      vertex 0 47.8787 -8.12132
      vertex 0 0 -12
      vertex 0 47.2284 -7.14805
    endloop
  endfacet
  facet normal -1 -0 0
    outer loop
      vertex 0 48.852 -8.77164
      vertex 0 0 -12
      vertex 0 47.8787 -8.12132
    endloop
  endfacet
  facet normal -1 -0 0
    outer loop
      vertex 0 50 -9
      vertex 0 0 -12
      vertex 0 48.852 -8.77164
    endloop
  endfacet
  facet normal -1 0 0
    outer loop
      vertex 0 0 -12
      vertex 0 50 -9
      vertex 0 200 -12
    endloop
  endfacet
  facet normal -1 0 0
    outer loop
      vertex 0 152.772 -4.85195
      vertex 0 200 0
      vertex 0 153 -6
    endloop
  endfacet
  facet normal -1 0 0
    outer loop
      vertex 0 152.121 -3.87868
      vertex 0 200 0
      vertex 0 152.772 -4.85195
    endloop
  endfacet
  facet normal -1 0 0
    outer loop
      vertex 0 151.148 -3.22836
      vertex 0 200 0
      vertex 0 152.121 -3.87868
    endloop
  endfacet
  facet normal -1 0 0
    outer loop
      vertex 0 150 -3
      vertex 0 200 0
      vertex 0 151.148 -3.22836
    endloop
  endfacet
  facet normal -1 0 0
    outer loop
      vertex 0 53 -6
      vertex 0 147.228 -4.85195
      vertex 0 147 -6
    endloop
  endfacet
  facet normal -1 0 0
    outer loop
      vertex 0 52.7716 -4.85195
      vertex 0 147.228 -4.85195
      vertex 0 53 -6
    endloop
  endfacet
  facet normal -1 0 0
    outer loop
      vertex 0 147.228 -4.85195
      vertex 0 52.7716 -4.85195
      vertex 0 147.879 -3.87868
    endloop
  endfacet
  facet normal -1 0 0
    outer loop
      vertex 0 52.1213 -3.87868
      vertex 0 147.879 -3.87868
      vertex 0 52.7716 -4.85195
    endloop
  endfacet
  facet normal -1 0 0
    outer loop
      vertex 0 147.879 -3.87868
      vertex 0 52.1213 -3.87868
      vertex 0 148.852 -3.22836
    endloop
  endfacet
  facet normal -1 0 0
    outer loop
      vertex 0 51.148 -3.22836
      vertex 0 148.852 -3.22836
      vertex 0 52.1213 -3.87868
    endloop
  endfacet
  facet normal -1 0 0
    outer loop
      vertex 0 148.852 -3.22836
      vertex 0 51.148 -3.22836
      vertex 0 150 -3
    endloop
  endfacet
  facet normal -1 0 0
    outer loop
      vertex 0 50 -3
      vertex 0 150 -3
      vertex 0 51.148 -3.22836
    endloop
  endfacet
  facet normal -1 0 0
    outer loop
      vertex 0 150 -3
      vertex 0 50 -3
      vertex 0 200 0
    endloop
  endfacet
  facet normal -1 0 0
    outer loop
      vertex 0 0 0
      vertex 0 47 -6
      vertex 0 0 -12
    endloop
  endfacet
  facet normal -1 0 0
    outer loop
      vertex 0 47 -6
      vertex 0 0 0
      vertex 0 47.2284 -4.85195
    endloop
  endfacet
  facet normal -1 0 0
    outer loop
      vertex 0 47.2284 -4.85195
      vertex 0 0 0
      vertex 0 47.8787 -3.87868
    endloop
  endfacet
  facet normal -1 0 0
    outer loop
      vertex 0 47.8787 -3.87868
      vertex 0 0 0
      vertex 0 48.852 -3.22836
    endloop
  endfacet
  facet normal -1 0 0
    outer loop
      vertex 0 50 -3
      vertex 0 0 0
      vertex 0 200 0
    endloop
  endfacet
  facet normal -1 0 0
    outer loop
      vertex 0 48.852 -3.22836
      vertex 0 0 0
      vertex 0 50 -3
    endloop
  endfacet
  facet normal -1 0 0
    outer loop
      vertex 0 152.772 -7.14805
      vertex 0 152.772 -4.85195
      vertex 0 153 -6
    endloop
  endfacet
  facet normal -1 0 0
    outer loop
      vertex 0 152.121 -8.12132
      vertex 0 152.772 -4.85195
      vertex 0 152.772 -7.14805
    endloop
  endfacet
  facet normal -1 0 0
    outer loop
      vertex 0 152.121 -8.12132
      vertex 0 152.121 -3.87868
      vertex 0 152.772 -4.85195
    endloop
  endfacet
  facet normal -1 0 0
    outer loop
      vertex 0 151.148 -8.77164
      vertex 0 152.121 -3.87868
      vertex 0 152.121 -8.12132
    endloop
  endfacet
  facet normal -1 0 0
    outer loop
      vertex 0 151.148 -8.77164
      vertex 0 151.148 -3.22836
      vertex 0 152.121 -3.87868
    endloop
  endfacet
  facet normal -1 0 0
    outer loop
      vertex 0 150 -9
      vertex 0 151.148 -3.22836
      vertex 0 151.148 -8.77164
    endloop
  endfacet
  facet normal -1 0 0
    outer loop
      vertex 0 150 -9
      vertex 0 150 -3
      vertex 0 151.148 -3.22836
    endloop
  endfacet
  facet normal -1 0 0
    outer loop
      vertex 0 148.852 -8.77164
      vertex 0 150 -3
      vertex 0 150 -9
    endloop
  endfacet
  facet normal -1 0 0
    outer loop
      vertex 0 148.852 -8.77164
      vertex 0 148.852 -3.22836
      vertex 0 150 -3
    endloop
  endfacet
  facet normal -1 0 0
    outer loop
      vertex 0 147.879 -8.12132
      vertex 0 148.852 -3.22836
      vertex 0 148.852 -8.77164
    endloop
  endfacet
  facet normal -1 0 0
    outer loop
      vertex 0 147.879 -8.12132
      vertex 0 147.879 -3.87868
      vertex 0 148.852 -3.22836
    endloop
  endfacet
  facet normal -1 0 0
    outer loop
      vertex 0 147.228 -7.14805
      vertex 0 147.879 -3.87868
      vertex 0 147.879 -8.12132
    endloop
  endfacet
  facet normal -1 0 0
    outer loop
      vertex 0 147.228 -7.14805
      vertex 0 147.228 -4.85195
      vertex 0 147.879 -3.87868
    endloop
  endfacet
  facet normal -1 0 -0
    outer loop
      vertex 0 147.228 -4.85195
      vertex 0 147.228 -7.14805
      vertex 0 147 -6
    endloop
  endfacet
  facet normal -1 0 0
    outer loop
      vertex 0 52.7716 -7.14805
      vertex 0 52.7716 -4.85195
      vertex 0 53 -6
    endloop
  endfacet
  facet normal -1 0 0
    outer loop
      vertex 0 52.1213 -8.12132
      vertex 0 52.7716 -4.85195
      vertex 0 52.7716 -7.14805
    endloop
  endfacet
  facet normal -1 0 0
    outer loop
      vertex 0 52.1213 -8.12132
      vertex 0 52.1213 -3.87868
      vertex 0 52.7716 -4.85195
    endloop
  endfacet
  facet normal -1 0 0
    outer loop
      vertex 0 51.148 -8.77164
      vertex 0 52.1213 -3.87868
      vertex 0 52.1213 -8.12132
    endloop
  endfacet
  facet normal -1 0 0
    outer loop
      vertex 0 51.148 -8.77164
      vertex 0 51.148 -3.22836
      vertex 0 52.1213 -3.87868
    endloop
  endfacet
  facet normal -1 0 0
    outer loop
      vertex 0 50 -9
      vertex 0 51.148 -3.22836
      vertex 0 51.148 -8.77164
    endloop
  endfacet
  facet normal -1 0 0
    outer loop
      vertex 0 50 -9
      vertex 0 50 -3
      vertex 0 51.148 -3.22836
    endloop
  endfacet
  facet normal -1 0 0
    outer loop
      vertex 0 48.852 -8.77164
      vertex 0 50 -3
      vertex 0 50 -9
    endloop
  endfacet
  facet normal -1 0 0
    outer loop
      vertex 0 48.852 -8.77164
      vertex 0 48.852 -3.22836
      vertex 0 50 -3
    endloop
  endfacet
  facet normal -1 0 0
    outer loop
      vertex 0 47.8787 -8.12132
      vertex 0 48.852 -3.22836
      vertex 0 48.852 -8.77164
    endloop
  endfacet
  facet normal -1 0 0
    outer loop
      vertex 0 47.8787 -8.12132
      vertex 0 47.8787 -3.87868
      vertex 0 48.852 -3.22836
    endloop
  endfacet
  facet normal -1 0 0
    outer loop
      vertex 0 47.2284 -7.14805
      vertex 0 47.8787 -3.87868
      vertex 0 47.8787 -8.12132
    endloop
  endfacet
  facet normal -1 0 0
    outer loop
      vertex 0 47.2284 -7.14805
      vertex 0 47.2284 -4.85195
      vertex 0 47.8787 -3.87868
    endloop
  endfacet
  facet normal -1 0 -0
    outer loop
      vertex 0 47.2284 -4.85195
      vertex 0 47.2284 -7.14805
      vertex 0 47 -6
    endloop
  endfacet
  facet normal 0 1 -0
    outer loop
      vertex 225 200 -12
      vertex 0 200 0
      vertex 225 200 0
    endloop
  endfacet
  facet normal 0 1 0
    outer loop
      vertex 0 200 0
      vertex 225 200 -12
      vertex 0 200 -12
    endloop
  endfacet
  facet normal 1 -0 0
    outer loop
      vertex 225 0 0
      vertex 225 200 -12
      vertex 225 200 0
    endloop
  endfacet
  facet normal 1 0 0
    outer loop
      vertex 225 200 -12
      vertex 225 0 0
      vertex 225 0 -12
    endloop
  endfacet
  facet normal 0 -1 0
    outer loop
      vertex 0 0 -12
      vertex 225 0 0
      vertex 0 0 0
    endloop
  endfacet
  facet normal 0 -1 -0
    outer loop
      vertex 225 0 0
      vertex 0 0 -12
      vertex 225 0 -12
    endloop
  endfacet
endsolid OpenSCAD_Model
