solid OpenSCAD_Model
  facet normal 0 0.980795 0.195039
    outer loop
      vertex 37 48.1522 -6.76537
      vertex 0 48 -6
      vertex 37 48 -6
    endloop
  endfacet
  facet normal 0 0.980795 0.195039
    outer loop
      vertex 0 48 -6
      vertex 37 48.1522 -6.76537
      vertex 0 48.1522 -6.76537
    endloop
  endfacet
  facet normal 0 -0.980795 0.195039
    outer loop
      vertex 0 51.8478 -6.76537
      vertex 37 52 -6
      vertex 0 52 -6
    endloop
  endfacet
  facet normal 0 -0.980795 0.195039
    outer loop
      vertex 37 52 -6
      vertex 0 51.8478 -6.76537
      vertex 37 51.8478 -6.76537
    endloop
  endfacet
  facet normal 0 0.831435 0.555622
    outer loop
      vertex 37 48.5858 -7.41421
      vertex 0 48.1522 -6.76537
      vertex 37 48.1522 -6.76537
    endloop
  endfacet
  facet normal 0 0.831435 0.555622
    outer loop
      vertex 0 48.1522 -6.76537
      vertex 37 48.5858 -7.41421
      vertex 0 48.5858 -7.41421
    endloop
  endfacet
  facet normal 0 0.195081 -0.980787
    outer loop
      vertex 0 49.2346 -4.15224
      vertex 37 50 -4
      vertex 37 49.2346 -4.15224
    endloop
  endfacet
  facet normal 0 0.195081 -0.980787
    outer loop
      vertex 37 50 -4
      vertex 0 49.2346 -4.15224
      vertex 0 50 -4
    endloop
  endfacet
  facet normal 0 0.555602 -0.831448
    outer loop
      vertex 0 48.5858 -4.58579
      vertex 37 49.2346 -4.15224
      vertex 37 48.5858 -4.58579
    endloop
  endfacet
  facet normal 0 0.555602 -0.831448
    outer loop
      vertex 37 49.2346 -4.15224
      vertex 0 48.5858 -4.58579
      vertex 0 49.2346 -4.15224
    endloop
  endfacet
  facet normal -0 0.555602 0.831448
    outer loop
      vertex 0 49.2346 -7.84776
      vertex 37 48.5858 -7.41421
      vertex 37 49.2346 -7.84776
    endloop
  endfacet
  facet normal 0 0.555602 0.831448
    outer loop
      vertex 37 48.5858 -7.41421
      vertex 0 49.2346 -7.84776
      vertex 0 48.5858 -7.41421
    endloop
  endfacet
  facet normal 0 -0.555602 0.831448
    outer loop
      vertex 0 51.4142 -7.41421
      vertex 37 50.7654 -7.84776
      vertex 37 51.4142 -7.41421
    endloop
  endfacet
  facet normal 0 -0.555602 0.831448
    outer loop
      vertex 37 50.7654 -7.84776
      vertex 0 51.4142 -7.41421
      vertex 0 50.7654 -7.84776
    endloop
  endfacet
  facet normal 0 -0.831435 0.555622
    outer loop
      vertex 0 51.4142 -7.41421
      vertex 37 51.8478 -6.76537
      vertex 0 51.8478 -6.76537
    endloop
  endfacet
  facet normal 0 -0.831435 0.555622
    outer loop
      vertex 37 51.8478 -6.76537
      vertex 0 51.4142 -7.41421
      vertex 37 51.4142 -7.41421
    endloop
  endfacet
  facet normal 0 -0.195081 0.980787
    outer loop
      vertex 0 50.7654 -7.84776
      vertex 37 50 -8
      vertex 37 50.7654 -7.84776
    endloop
  endfacet
  facet normal 0 -0.195081 0.980787
    outer loop
      vertex 37 50 -8
      vertex 0 50.7654 -7.84776
      vertex 0 50 -8
    endloop
  endfacet
  facet normal 0 0.980795 -0.195039
    outer loop
      vertex 37 48 -6
      vertex 0 48.1522 -5.23463
      vertex 37 48.1522 -5.23463
    endloop
  endfacet
  facet normal 0 0.980795 -0.195039
    outer loop
      vertex 0 48.1522 -5.23463
      vertex 37 48 -6
      vertex 0 48 -6
    endloop
  endfacet
  facet normal -0 0.195081 0.980787
    outer loop
      vertex 0 50 -8
      vertex 37 49.2346 -7.84776
      vertex 37 50 -8
    endloop
  endfacet
  facet normal 0 0.195081 0.980787
    outer loop
      vertex 37 49.2346 -7.84776
      vertex 0 50 -8
      vertex 0 49.2346 -7.84776
    endloop
  endfacet
  facet normal 0 0.831435 -0.555622
    outer loop
      vertex 37 48.1522 -5.23463
      vertex 0 48.5858 -4.58579
      vertex 37 48.5858 -4.58579
    endloop
  endfacet
  facet normal 0 0.831435 -0.555622
    outer loop
      vertex 0 48.5858 -4.58579
      vertex 37 48.1522 -5.23463
      vertex 0 48.1522 -5.23463
    endloop
  endfacet
  facet normal -1 0 0
    outer loop
      vertex 37 51.8478 -6.76537
      vertex 37 51.8478 -5.23463
      vertex 37 52 -6
    endloop
  endfacet
  facet normal -1 0 0
    outer loop
      vertex 37 51.4142 -7.41421
      vertex 37 51.8478 -5.23463
      vertex 37 51.8478 -6.76537
    endloop
  endfacet
  facet normal -1 0 0
    outer loop
      vertex 37 51.4142 -7.41421
      vertex 37 51.4142 -4.58579
      vertex 37 51.8478 -5.23463
    endloop
  endfacet
  facet normal -1 0 0
    outer loop
      vertex 37 50.7654 -7.84776
      vertex 37 51.4142 -4.58579
      vertex 37 51.4142 -7.41421
    endloop
  endfacet
  facet normal -1 0 0
    outer loop
      vertex 37 50.7654 -7.84776
      vertex 37 50.7654 -4.15224
      vertex 37 51.4142 -4.58579
    endloop
  endfacet
  facet normal -1 0 0
    outer loop
      vertex 37 50 -8
      vertex 37 50.7654 -4.15224
      vertex 37 50.7654 -7.84776
    endloop
  endfacet
  facet normal -1 0 0
    outer loop
      vertex 37 50 -8
      vertex 37 50 -4
      vertex 37 50.7654 -4.15224
    endloop
  endfacet
  facet normal -1 0 0
    outer loop
      vertex 37 49.2346 -7.84776
      vertex 37 50 -4
      vertex 37 50 -8
    endloop
  endfacet
  facet normal -1 0 0
    outer loop
      vertex 37 49.2346 -7.84776
      vertex 37 49.2346 -4.15224
      vertex 37 50 -4
    endloop
  endfacet
  facet normal -1 0 0
    outer loop
      vertex 37 48.5858 -7.41421
      vertex 37 49.2346 -4.15224
      vertex 37 49.2346 -7.84776
    endloop
  endfacet
  facet normal -1 0 0
    outer loop
      vertex 37 48.5858 -7.41421
      vertex 37 48.5858 -4.58579
      vertex 37 49.2346 -4.15224
    endloop
  endfacet
  facet normal -1 0 0
    outer loop
      vertex 37 48.1522 -6.76537
      vertex 37 48.5858 -4.58579
      vertex 37 48.5858 -7.41421
    endloop
  endfacet
  facet normal -1 0 0
    outer loop
      vertex 37 48.1522 -6.76537
      vertex 37 48.1522 -5.23463
      vertex 37 48.5858 -4.58579
    endloop
  endfacet
  facet normal -1 0 -0
    outer loop
      vertex 37 48.1522 -5.23463
      vertex 37 48.1522 -6.76537
      vertex 37 48 -6
    endloop
  endfacet
  facet normal -1 0 0
    outer loop
      vertex 0 200 -12
      vertex 0 152 -6
      vertex 0 200 0
    endloop
  endfacet
  facet normal -1 0 0
    outer loop
      vertex 0 200 -12
      vertex 0 151.848 -6.76537
      vertex 0 152 -6
    endloop
  endfacet
  facet normal -1 0 0
    outer loop
      vertex 0 200 -12
      vertex 0 151.414 -7.41421
      vertex 0 151.848 -6.76537
    endloop
  endfacet
  facet normal -1 0 0
    outer loop
      vertex 0 200 -12
      vertex 0 150.765 -7.84776
      vertex 0 151.414 -7.41421
    endloop
  endfacet
  facet normal -1 0 0
    outer loop
      vertex 0 200 -12
      vertex 0 150 -8
      vertex 0 150.765 -7.84776
    endloop
  endfacet
  facet normal -1 0 0
    outer loop
      vertex 0 148.152 -6.76537
      vertex 0 52 -6
      vertex 0 148 -6
    endloop
  endfacet
  facet normal -1 0 0
    outer loop
      vertex 0 51.8478 -6.76537
      vertex 0 148.152 -6.76537
      vertex 0 148.586 -7.41421
    endloop
  endfacet
  facet normal -1 0 0
    outer loop
      vertex 0 51.4142 -7.41421
      vertex 0 148.586 -7.41421
      vertex 0 149.235 -7.84776
    endloop
  endfacet
  facet normal -1 0 0
    outer loop
      vertex 0 50.7654 -7.84776
      vertex 0 149.235 -7.84776
      vertex 0 150 -8
    endloop
  endfacet
  facet normal -1 0 0
    outer loop
      vertex 0 50 -8
      vertex 0 150 -8
      vertex 0 200 -12
    endloop
  endfacet
  facet normal -1 0 0
    outer loop
      vertex 0 148.152 -6.76537
      vertex 0 51.8478 -6.76537
      vertex 0 52 -6
    endloop
  endfacet
  facet normal -1 0 0
    outer loop
      vertex 0 148.586 -7.41421
      vertex 0 51.4142 -7.41421
      vertex 0 51.8478 -6.76537
    endloop
  endfacet
  facet normal -1 0 0
    outer loop
      vertex 0 149.235 -7.84776
      vertex 0 50.7654 -7.84776
      vertex 0 51.4142 -7.41421
    endloop
  endfacet
  facet normal -1 0 0
    outer loop
      vertex 0 150 -8
      vertex 0 50 -8
      vertex 0 50.7654 -7.84776
    endloop
  endfacet
  facet normal -1 -0 0
    outer loop
      vertex 0 48.1522 -6.76537
      vertex 0 0 -12
      vertex 0 48 -6
    endloop
  endfacet
  facet normal -1 -0 0
    outer loop
      vertex 0 48.5858 -7.41421
      vertex 0 0 -12
      vertex 0 48.1522 -6.76537
    endloop
  endfacet
  facet normal -1 -0 0
    outer loop
      vertex 0 49.2346 -7.84776
      vertex 0 0 -12
      vertex 0 48.5858 -7.41421
    endloop
  endfacet
  facet normal -1 -0 0
    outer loop
      vertex 0 50 -8
      vertex 0 0 -12
      vertex 0 49.2346 -7.84776
    endloop
  endfacet
  facet normal -1 0 0
    outer loop
      vertex 0 0 -12
      vertex 0 50 -8
      vertex 0 200 -12
    endloop
  endfacet
  facet normal -1 0 0
    outer loop
      vertex 0 151.848 -5.23463
      vertex 0 200 0
      vertex 0 152 -6
    endloop
  endfacet
  facet normal -1 0 0
    outer loop
      vertex 0 151.414 -4.58579
      vertex 0 200 0
      vertex 0 151.848 -5.23463
    endloop
  endfacet
  facet normal -1 0 0
    outer loop
      vertex 0 150.765 -4.15224
      vertex 0 200 0
      vertex 0 151.414 -4.58579
    endloop
  endfacet
  facet normal -1 0 0
    outer loop
      vertex 0 150 -4
      vertex 0 200 0
      vertex 0 150.765 -4.15224
    endloop
  endfacet
  facet normal -1 0 0
    outer loop
      vertex 0 52 -6
      vertex 0 148.152 -5.23463
      vertex 0 148 -6
    endloop
  endfacet
  facet normal -1 0 0
    outer loop
      vertex 0 51.8478 -5.23463
      vertex 0 148.152 -5.23463
      vertex 0 52 -6
    endloop
  endfacet
  facet normal -1 0 0
    outer loop
      vertex 0 148.152 -5.23463
      vertex 0 51.8478 -5.23463
      vertex 0 148.586 -4.58579
    endloop
  endfacet
  facet normal -1 0 0
    outer loop
      vertex 0 51.4142 -4.58579
      vertex 0 148.586 -4.58579
      vertex 0 51.8478 -5.23463
    endloop
  endfacet
  facet normal -1 0 0
    outer loop
      vertex 0 148.586 -4.58579
      vertex 0 51.4142 -4.58579
      vertex 0 149.235 -4.15224
    endloop
  endfacet
  facet normal -1 0 0
    outer loop
      vertex 0 50.7654 -4.15224
      vertex 0 149.235 -4.15224
      vertex 0 51.4142 -4.58579
    endloop
  endfacet
  facet normal -1 0 0
    outer loop
      vertex 0 149.235 -4.15224
      vertex 0 50.7654 -4.15224
      vertex 0 150 -4
    endloop
  endfacet
  facet normal -1 0 0
    outer loop
      vertex 0 50 -4
      vertex 0 150 -4
      vertex 0 50.7654 -4.15224
    endloop
  endfacet
  facet normal -1 0 0
    outer loop
      vertex 0 150 -4
      vertex 0 50 -4
      vertex 0 200 0
    endloop
  endfacet
  facet normal -1 0 0
    outer loop
      vertex 0 0 0
      vertex 0 48 -6
      vertex 0 0 -12
    endloop
  endfacet
  facet normal -1 0 0
    outer loop
      vertex 0 48 -6
      vertex 0 0 0
      vertex 0 48.1522 -5.23463
    endloop
  endfacet
  facet normal -1 0 0
    outer loop
      vertex 0 48.1522 -5.23463
      vertex 0 0 0
      vertex 0 48.5858 -4.58579
    endloop
  endfacet
  facet normal -1 0 0
    outer loop
      vertex 0 48.5858 -4.58579
      vertex 0 0 0
      vertex 0 49.2346 -4.15224
    endloop
  endfacet
  facet normal -1 0 0
    outer loop
      vertex 0 50 -4
      vertex 0 0 0
      vertex 0 200 0
    endloop
  endfacet
  facet normal -1 0 0
    outer loop
      vertex 0 49.2346 -4.15224
      vertex 0 0 0
      vertex 0 50 -4
    endloop
  endfacet
  facet normal 0 -0.831435 -0.555622
    outer loop
      vertex 0 51.8478 -5.23463
      vertex 37 51.4142 -4.58579
      vertex 0 51.4142 -4.58579
    endloop
  endfacet
  facet normal 0 -0.831435 -0.555622
    outer loop
      vertex 37 51.4142 -4.58579
      vertex 0 51.8478 -5.23463
      vertex 37 51.8478 -5.23463
    endloop
  endfacet
  facet normal 0 -0.980795 -0.195039
    outer loop
      vertex 0 52 -6
      vertex 37 51.8478 -5.23463
      vertex 0 51.8478 -5.23463
    endloop
  endfacet
  facet normal 0 -0.980795 -0.195039
    outer loop
      vertex 37 51.8478 -5.23463
      vertex 0 52 -6
      vertex 37 52 -6
    endloop
  endfacet
  facet normal 0 -0.195081 -0.980787
    outer loop
      vertex 0 50 -4
      vertex 37 50.7654 -4.15224
      vertex 37 50 -4
    endloop
  endfacet
  facet normal -0 -0.195081 -0.980787
    outer loop
      vertex 37 50.7654 -4.15224
      vertex 0 50 -4
      vertex 0 50.7654 -4.15224
    endloop
  endfacet
  facet normal 0 -0.555602 -0.831448
    outer loop
      vertex 0 50.7654 -4.15224
      vertex 37 51.4142 -4.58579
      vertex 37 50.7654 -4.15224
    endloop
  endfacet
  facet normal -0 -0.555602 -0.831448
    outer loop
      vertex 37 51.4142 -4.58579
      vertex 0 50.7654 -4.15224
      vertex 0 51.4142 -4.58579
    endloop
  endfacet
  facet normal 0 0.980844 0.194793
    outer loop
      vertex 37 148.152 -6.76537
      vertex 0 148 -6
      vertex 37 148 -6
    endloop
  endfacet
  facet normal 0 0.980844 0.194793
    outer loop
      vertex 0 148 -6
      vertex 37 148.152 -6.76537
      vertex 0 148.152 -6.76537
    endloop
  endfacet
  facet normal 0 -0.980844 0.194793
    outer loop
      vertex 0 151.848 -6.76537
      vertex 37 152 -6
      vertex 0 152 -6
    endloop
  endfacet
  facet normal 0 -0.980844 0.194793
    outer loop
      vertex 37 152 -6
      vertex 0 151.848 -6.76537
      vertex 37 151.848 -6.76537
    endloop
  endfacet
  facet normal 0 0.831198 0.555977
    outer loop
      vertex 37 148.586 -7.41421
      vertex 0 148.152 -6.76537
      vertex 37 148.152 -6.76537
    endloop
  endfacet
  facet normal 0 0.831198 0.555977
    outer loop
      vertex 0 148.152 -6.76537
      vertex 37 148.586 -7.41421
      vertex 0 148.586 -7.41421
    endloop
  endfacet
  facet normal 0 0.195179 -0.980768
    outer loop
      vertex 0 149.235 -4.15224
      vertex 37 150 -4
      vertex 37 149.235 -4.15224
    endloop
  endfacet
  facet normal 0 0.195179 -0.980768
    outer loop
      vertex 37 150 -4
      vertex 0 149.235 -4.15224
      vertex 0 150 -4
    endloop
  endfacet
  facet normal 0 0.555483 -0.831528
    outer loop
      vertex 0 148.586 -4.58579
      vertex 37 149.235 -4.15224
      vertex 37 148.586 -4.58579
    endloop
  endfacet
  facet normal 0 0.555483 -0.831528
    outer loop
      vertex 37 149.235 -4.15224
      vertex 0 148.586 -4.58579
      vertex 0 149.235 -4.15224
    endloop
  endfacet
  facet normal -0 0.555483 0.831528
    outer loop
      vertex 0 149.235 -7.84776
      vertex 37 148.586 -7.41421
      vertex 37 149.235 -7.84776
    endloop
  endfacet
  facet normal 0 0.555483 0.831528
    outer loop
      vertex 37 148.586 -7.41421
      vertex 0 149.235 -7.84776
      vertex 0 148.586 -7.41421
    endloop
  endfacet
  facet normal 0 -0.555483 0.831528
    outer loop
      vertex 0 151.414 -7.41421
      vertex 37 150.765 -7.84776
      vertex 37 151.414 -7.41421
    endloop
  endfacet
  facet normal 0 -0.555483 0.831528
    outer loop
      vertex 37 150.765 -7.84776
      vertex 0 151.414 -7.41421
      vertex 0 150.765 -7.84776
    endloop
  endfacet
  facet normal 0 -0.831198 0.555977
    outer loop
      vertex 0 151.414 -7.41421
      vertex 37 151.848 -6.76537
      vertex 0 151.848 -6.76537
    endloop
  endfacet
  facet normal 0 -0.831198 0.555977
    outer loop
      vertex 37 151.848 -6.76537
      vertex 0 151.414 -7.41421
      vertex 37 151.414 -7.41421
    endloop
  endfacet
  facet normal 0 -0.195179 0.980768
    outer loop
      vertex 0 150.765 -7.84776
      vertex 37 150 -8
      vertex 37 150.765 -7.84776
    endloop
  endfacet
  facet normal 0 -0.195179 0.980768
    outer loop
      vertex 37 150 -8
      vertex 0 150.765 -7.84776
      vertex 0 150 -8
    endloop
  endfacet
  facet normal 0 0.980844 -0.194793
    outer loop
      vertex 37 148 -6
      vertex 0 148.152 -5.23463
      vertex 37 148.152 -5.23463
    endloop
  endfacet
  facet normal 0 0.980844 -0.194793
    outer loop
      vertex 0 148.152 -5.23463
      vertex 37 148 -6
      vertex 0 148 -6
    endloop
  endfacet
  facet normal -0 0.195179 0.980768
    outer loop
      vertex 0 150 -8
      vertex 37 149.235 -7.84776
      vertex 37 150 -8
    endloop
  endfacet
  facet normal 0 0.195179 0.980768
    outer loop
      vertex 37 149.235 -7.84776
      vertex 0 150 -8
      vertex 0 149.235 -7.84776
    endloop
  endfacet
  facet normal 0 0.831198 -0.555977
    outer loop
      vertex 37 148.152 -5.23463
      vertex 0 148.586 -4.58579
      vertex 37 148.586 -4.58579
    endloop
  endfacet
  facet normal 0 0.831198 -0.555977
    outer loop
      vertex 0 148.586 -4.58579
      vertex 37 148.152 -5.23463
      vertex 0 148.152 -5.23463
    endloop
  endfacet
  facet normal -1 0 0
    outer loop
      vertex 37 151.848 -6.76537
      vertex 37 151.848 -5.23463
      vertex 37 152 -6
    endloop
  endfacet
  facet normal -1 0 0
    outer loop
      vertex 37 151.414 -7.41421
      vertex 37 151.848 -5.23463
      vertex 37 151.848 -6.76537
    endloop
  endfacet
  facet normal -1 0 0
    outer loop
      vertex 37 151.414 -7.41421
      vertex 37 151.414 -4.58579
      vertex 37 151.848 -5.23463
    endloop
  endfacet
  facet normal -1 0 0
    outer loop
      vertex 37 150.765 -7.84776
      vertex 37 151.414 -4.58579
      vertex 37 151.414 -7.41421
    endloop
  endfacet
  facet normal -1 0 0
    outer loop
      vertex 37 150.765 -7.84776
      vertex 37 150.765 -4.15224
      vertex 37 151.414 -4.58579
    endloop
  endfacet
  facet normal -1 0 0
    outer loop
      vertex 37 150 -8
      vertex 37 150.765 -4.15224
      vertex 37 150.765 -7.84776
    endloop
  endfacet
  facet normal -1 0 0
    outer loop
      vertex 37 150 -8
      vertex 37 150 -4
      vertex 37 150.765 -4.15224
    endloop
  endfacet
  facet normal -1 0 0
    outer loop
      vertex 37 149.235 -7.84776
      vertex 37 150 -4
      vertex 37 150 -8
    endloop
  endfacet
  facet normal -1 0 0
    outer loop
      vertex 37 149.235 -7.84776
      vertex 37 149.235 -4.15224
      vertex 37 150 -4
    endloop
  endfacet
  facet normal -1 0 0
    outer loop
      vertex 37 148.586 -7.41421
      vertex 37 149.235 -4.15224
      vertex 37 149.235 -7.84776
    endloop
  endfacet
  facet normal -1 0 0
    outer loop
      vertex 37 148.586 -7.41421
      vertex 37 148.586 -4.58579
      vertex 37 149.235 -4.15224
    endloop
  endfacet
  facet normal -1 0 0
    outer loop
      vertex 37 148.152 -6.76537
      vertex 37 148.586 -4.58579
      vertex 37 148.586 -7.41421
    endloop
  endfacet
  facet normal -1 0 0
    outer loop
      vertex 37 148.152 -6.76537
      vertex 37 148.152 -5.23463
      vertex 37 148.586 -4.58579
    endloop
  endfacet
  facet normal -1 0 -0
    outer loop
      vertex 37 148.152 -5.23463
      vertex 37 148.152 -6.76537
      vertex 37 148 -6
    endloop
  endfacet
  facet normal 0 -0.831198 -0.555977
    outer loop
      vertex 0 151.848 -5.23463
      vertex 37 151.414 -4.58579
      vertex 0 151.414 -4.58579
    endloop
  endfacet
  facet normal 0 -0.831198 -0.555977
    outer loop
      vertex 37 151.414 -4.58579
      vertex 0 151.848 -5.23463
      vertex 37 151.848 -5.23463
    endloop
  endfacet
  facet normal 0 -0.980844 -0.194793
    outer loop
      vertex 0 152 -6
      vertex 37 151.848 -5.23463
      vertex 0 151.848 -5.23463
    endloop
  endfacet
  facet normal 0 -0.980844 -0.194793
    outer loop
      vertex 37 151.848 -5.23463
      vertex 0 152 -6
      vertex 37 152 -6
    endloop
  endfacet
  facet normal 0 -0.195179 -0.980768
    outer loop
      vertex 0 150 -4
      vertex 37 150.765 -4.15224
      vertex 37 150 -4
    endloop
  endfacet
  facet normal -0 -0.195179 -0.980768
    outer loop
      vertex 37 150.765 -4.15224
      vertex 0 150 -4
      vertex 0 150.765 -4.15224
    endloop
  endfacet
  facet normal 0 -0.555483 -0.831528
    outer loop
      vertex 0 150.765 -4.15224
      vertex 37 151.414 -4.58579
      vertex 37 150.765 -4.15224
    endloop
  endfacet
  facet normal -0 -0.555483 -0.831528
    outer loop
      vertex 37 151.414 -4.58579
      vertex 0 150.765 -4.15224
      vertex 0 151.414 -4.58579
    endloop
  endfacet
  facet normal 0 -0.980795 0.195039
    outer loop
      vertex 477 51.8478 -6.76537
      vertex 514 52 -6
      vertex 477 52 -6
    endloop
  endfacet
  facet normal 0 -0.980795 0.195039
    outer loop
      vertex 514 52 -6
      vertex 477 51.8478 -6.76537
      vertex 514 51.8478 -6.76537
    endloop
  endfacet
  facet normal 0 0.980795 -0.195039
    outer loop
      vertex 514 48 -6
      vertex 477 48.1522 -5.23463
      vertex 514 48.1522 -5.23463
    endloop
  endfacet
  facet normal 0 0.980795 -0.195039
    outer loop
      vertex 477 48.1522 -5.23463
      vertex 514 48 -6
      vertex 477 48 -6
    endloop
  endfacet
  facet normal 0 -0.555602 -0.831448
    outer loop
      vertex 477 50.7654 -4.15224
      vertex 514 51.4142 -4.58579
      vertex 514 50.7654 -4.15224
    endloop
  endfacet
  facet normal -0 -0.555602 -0.831448
    outer loop
      vertex 514 51.4142 -4.58579
      vertex 477 50.7654 -4.15224
      vertex 477 51.4142 -4.58579
    endloop
  endfacet
  facet normal 0 -0.195081 -0.980787
    outer loop
      vertex 477 50 -4
      vertex 514 50.7654 -4.15224
      vertex 514 50 -4
    endloop
  endfacet
  facet normal -0 -0.195081 -0.980787
    outer loop
      vertex 514 50.7654 -4.15224
      vertex 477 50 -4
      vertex 477 50.7654 -4.15224
    endloop
  endfacet
  facet normal -0 0.195081 0.980787
    outer loop
      vertex 477 50 -8
      vertex 514 49.2346 -7.84776
      vertex 514 50 -8
    endloop
  endfacet
  facet normal 0 0.195081 0.980787
    outer loop
      vertex 514 49.2346 -7.84776
      vertex 477 50 -8
      vertex 477 49.2346 -7.84776
    endloop
  endfacet
  facet normal 0 -0.195081 0.980787
    outer loop
      vertex 477 50.7654 -7.84776
      vertex 514 50 -8
      vertex 514 50.7654 -7.84776
    endloop
  endfacet
  facet normal 0 -0.195081 0.980787
    outer loop
      vertex 514 50 -8
      vertex 477 50.7654 -7.84776
      vertex 477 50 -8
    endloop
  endfacet
  facet normal 0 0.831435 0.555622
    outer loop
      vertex 514 48.5858 -7.41421
      vertex 477 48.1522 -6.76537
      vertex 514 48.1522 -6.76537
    endloop
  endfacet
  facet normal 0 0.831435 0.555622
    outer loop
      vertex 477 48.1522 -6.76537
      vertex 514 48.5858 -7.41421
      vertex 477 48.5858 -7.41421
    endloop
  endfacet
  facet normal 0 -0.831435 -0.555622
    outer loop
      vertex 477 51.8478 -5.23463
      vertex 514 51.4142 -4.58579
      vertex 477 51.4142 -4.58579
    endloop
  endfacet
  facet normal 0 -0.831435 -0.555622
    outer loop
      vertex 514 51.4142 -4.58579
      vertex 477 51.8478 -5.23463
      vertex 514 51.8478 -5.23463
    endloop
  endfacet
  facet normal 1 0 0
    outer loop
      vertex 514 200 0
      vertex 514 152 -6
      vertex 514 200 -12
    endloop
  endfacet
  facet normal 1 0 0
    outer loop
      vertex 514 200 0
      vertex 514 151.848 -5.23463
      vertex 514 152 -6
    endloop
  endfacet
  facet normal 1 0 0
    outer loop
      vertex 514 200 0
      vertex 514 151.414 -4.58579
      vertex 514 151.848 -5.23463
    endloop
  endfacet
  facet normal 1 0 0
    outer loop
      vertex 514 200 0
      vertex 514 150.765 -4.15224
      vertex 514 151.414 -4.58579
    endloop
  endfacet
  facet normal 1 0 0
    outer loop
      vertex 514 200 0
      vertex 514 150 -4
      vertex 514 150.765 -4.15224
    endloop
  endfacet
  facet normal 1 0 0
    outer loop
      vertex 514 148.152 -5.23463
      vertex 514 52 -6
      vertex 514 148 -6
    endloop
  endfacet
  facet normal 1 0 0
    outer loop
      vertex 514 51.8478 -5.23463
      vertex 514 148.152 -5.23463
      vertex 514 148.586 -4.58579
    endloop
  endfacet
  facet normal 1 0 0
    outer loop
      vertex 514 51.4142 -4.58579
      vertex 514 148.586 -4.58579
      vertex 514 149.235 -4.15224
    endloop
  endfacet
  facet normal 1 0 0
    outer loop
      vertex 514 50.7654 -4.15224
      vertex 514 149.235 -4.15224
      vertex 514 150 -4
    endloop
  endfacet
  facet normal 1 0 0
    outer loop
      vertex 514 50 -4
      vertex 514 150 -4
      vertex 514 200 0
    endloop
  endfacet
  facet normal 1 0 0
    outer loop
      vertex 514 148.152 -5.23463
      vertex 514 51.8478 -5.23463
      vertex 514 52 -6
    endloop
  endfacet
  facet normal 1 0 0
    outer loop
      vertex 514 148.586 -4.58579
      vertex 514 51.4142 -4.58579
      vertex 514 51.8478 -5.23463
    endloop
  endfacet
  facet normal 1 0 0
    outer loop
      vertex 514 149.235 -4.15224
      vertex 514 50.7654 -4.15224
      vertex 514 51.4142 -4.58579
    endloop
  endfacet
  facet normal 1 0 0
    outer loop
      vertex 514 150 -4
      vertex 514 50 -4
      vertex 514 50.7654 -4.15224
    endloop
  endfacet
  facet normal 1 0 0
    outer loop
      vertex 514 48.1522 -5.23463
      vertex 514 0 0
      vertex 514 48 -6
    endloop
  endfacet
  facet normal 1 0 0
    outer loop
      vertex 514 48.5858 -4.58579
      vertex 514 0 0
      vertex 514 48.1522 -5.23463
    endloop
  endfacet
  facet normal 1 0 0
    outer loop
      vertex 514 49.2346 -4.15224
      vertex 514 0 0
      vertex 514 48.5858 -4.58579
    endloop
  endfacet
  facet normal 1 0 0
    outer loop
      vertex 514 50 -4
      vertex 514 0 0
      vertex 514 49.2346 -4.15224
    endloop
  endfacet
  facet normal 1 -0 0
    outer loop
      vertex 514 0 0
      vertex 514 50 -4
      vertex 514 200 0
    endloop
  endfacet
  facet normal 1 -0 0
    outer loop
      vertex 514 151.848 -6.76537
      vertex 514 200 -12
      vertex 514 152 -6
    endloop
  endfacet
  facet normal 1 -0 0
    outer loop
      vertex 514 151.414 -7.41421
      vertex 514 200 -12
      vertex 514 151.848 -6.76537
    endloop
  endfacet
  facet normal 1 -0 0
    outer loop
      vertex 514 150.765 -7.84776
      vertex 514 200 -12
      vertex 514 151.414 -7.41421
    endloop
  endfacet
  facet normal 1 -0 0
    outer loop
      vertex 514 150 -8
      vertex 514 200 -12
      vertex 514 150.765 -7.84776
    endloop
  endfacet
  facet normal 1 -0 0
    outer loop
      vertex 514 52 -6
      vertex 514 148.152 -6.76537
      vertex 514 148 -6
    endloop
  endfacet
  facet normal 1 0 0
    outer loop
      vertex 514 51.8478 -6.76537
      vertex 514 148.152 -6.76537
      vertex 514 52 -6
    endloop
  endfacet
  facet normal 1 0 0
    outer loop
      vertex 514 148.152 -6.76537
      vertex 514 51.8478 -6.76537
      vertex 514 148.586 -7.41421
    endloop
  endfacet
  facet normal 1 0 0
    outer loop
      vertex 514 51.4142 -7.41421
      vertex 514 148.586 -7.41421
      vertex 514 51.8478 -6.76537
    endloop
  endfacet
  facet normal 1 0 0
    outer loop
      vertex 514 148.586 -7.41421
      vertex 514 51.4142 -7.41421
      vertex 514 149.235 -7.84776
    endloop
  endfacet
  facet normal 1 0 0
    outer loop
      vertex 514 50.7654 -7.84776
      vertex 514 149.235 -7.84776
      vertex 514 51.4142 -7.41421
    endloop
  endfacet
  facet normal 1 0 0
    outer loop
      vertex 514 149.235 -7.84776
      vertex 514 50.7654 -7.84776
      vertex 514 150 -8
    endloop
  endfacet
  facet normal 1 0 0
    outer loop
      vertex 514 50 -8
      vertex 514 150 -8
      vertex 514 50.7654 -7.84776
    endloop
  endfacet
  facet normal 1 0 0
    outer loop
      vertex 514 150 -8
      vertex 514 50 -8
      vertex 514 200 -12
    endloop
  endfacet
  facet normal 1 0 0
    outer loop
      vertex 514 0 -12
      vertex 514 48 -6
      vertex 514 0 0
    endloop
  endfacet
  facet normal 1 0 0
    outer loop
      vertex 514 48 -6
      vertex 514 0 -12
      vertex 514 48.1522 -6.76537
    endloop
  endfacet
  facet normal 1 0 0
    outer loop
      vertex 514 48.1522 -6.76537
      vertex 514 0 -12
      vertex 514 48.5858 -7.41421
    endloop
  endfacet
  facet normal 1 0 0
    outer loop
      vertex 514 48.5858 -7.41421
      vertex 514 0 -12
      vertex 514 49.2346 -7.84776
    endloop
  endfacet
  facet normal 1 0 0
    outer loop
      vertex 514 50 -8
      vertex 514 0 -12
      vertex 514 200 -12
    endloop
  endfacet
  facet normal 1 0 0
    outer loop
      vertex 514 49.2346 -7.84776
      vertex 514 0 -12
      vertex 514 50 -8
    endloop
  endfacet
  facet normal 0 -0.831435 0.555622
    outer loop
      vertex 477 51.4142 -7.41421
      vertex 514 51.8478 -6.76537
      vertex 477 51.8478 -6.76537
    endloop
  endfacet
  facet normal 0 -0.831435 0.555622
    outer loop
      vertex 514 51.8478 -6.76537
      vertex 477 51.4142 -7.41421
      vertex 514 51.4142 -7.41421
    endloop
  endfacet
  facet normal 0 -0.555602 0.831448
    outer loop
      vertex 477 51.4142 -7.41421
      vertex 514 50.7654 -7.84776
      vertex 514 51.4142 -7.41421
    endloop
  endfacet
  facet normal 0 -0.555602 0.831448
    outer loop
      vertex 514 50.7654 -7.84776
      vertex 477 51.4142 -7.41421
      vertex 477 50.7654 -7.84776
    endloop
  endfacet
  facet normal 0 0.980795 0.195039
    outer loop
      vertex 514 48.1522 -6.76537
      vertex 477 48 -6
      vertex 514 48 -6
    endloop
  endfacet
  facet normal 0 0.980795 0.195039
    outer loop
      vertex 477 48 -6
      vertex 514 48.1522 -6.76537
      vertex 477 48.1522 -6.76537
    endloop
  endfacet
  facet normal -0 0.555602 0.831448
    outer loop
      vertex 477 49.2346 -7.84776
      vertex 514 48.5858 -7.41421
      vertex 514 49.2346 -7.84776
    endloop
  endfacet
  facet normal 0 0.555602 0.831448
    outer loop
      vertex 514 48.5858 -7.41421
      vertex 477 49.2346 -7.84776
      vertex 477 48.5858 -7.41421
    endloop
  endfacet
  facet normal 0 -0.980795 -0.195039
    outer loop
      vertex 477 52 -6
      vertex 514 51.8478 -5.23463
      vertex 477 51.8478 -5.23463
    endloop
  endfacet
  facet normal 0 -0.980795 -0.195039
    outer loop
      vertex 514 51.8478 -5.23463
      vertex 477 52 -6
      vertex 514 52 -6
    endloop
  endfacet
  facet normal 1 0 0
    outer loop
      vertex 477 51.8478 -5.23463
      vertex 477 51.8478 -6.76537
      vertex 477 52 -6
    endloop
  endfacet
  facet normal 1 0 0
    outer loop
      vertex 477 51.4142 -4.58579
      vertex 477 51.8478 -6.76537
      vertex 477 51.8478 -5.23463
    endloop
  endfacet
  facet normal 1 0 0
    outer loop
      vertex 477 51.4142 -4.58579
      vertex 477 51.4142 -7.41421
      vertex 477 51.8478 -6.76537
    endloop
  endfacet
  facet normal 1 0 0
    outer loop
      vertex 477 50.7654 -4.15224
      vertex 477 51.4142 -7.41421
      vertex 477 51.4142 -4.58579
    endloop
  endfacet
  facet normal 1 0 0
    outer loop
      vertex 477 50.7654 -4.15224
      vertex 477 50.7654 -7.84776
      vertex 477 51.4142 -7.41421
    endloop
  endfacet
  facet normal 1 0 0
    outer loop
      vertex 477 50 -4
      vertex 477 50.7654 -7.84776
      vertex 477 50.7654 -4.15224
    endloop
  endfacet
  facet normal 1 0 0
    outer loop
      vertex 477 50 -4
      vertex 477 50 -8
      vertex 477 50.7654 -7.84776
    endloop
  endfacet
  facet normal 1 -0 0
    outer loop
      vertex 477 49.2346 -4.15224
      vertex 477 50 -8
      vertex 477 50 -4
    endloop
  endfacet
  facet normal 1 0 0
    outer loop
      vertex 477 49.2346 -4.15224
      vertex 477 49.2346 -7.84776
      vertex 477 50 -8
    endloop
  endfacet
  facet normal 1 -0 0
    outer loop
      vertex 477 48.5858 -4.58579
      vertex 477 49.2346 -7.84776
      vertex 477 49.2346 -4.15224
    endloop
  endfacet
  facet normal 1 0 0
    outer loop
      vertex 477 48.5858 -4.58579
      vertex 477 48.5858 -7.41421
      vertex 477 49.2346 -7.84776
    endloop
  endfacet
  facet normal 1 -0 0
    outer loop
      vertex 477 48.1522 -5.23463
      vertex 477 48.5858 -7.41421
      vertex 477 48.5858 -4.58579
    endloop
  endfacet
  facet normal 1 0 0
    outer loop
      vertex 477 48.1522 -5.23463
      vertex 477 48.1522 -6.76537
      vertex 477 48.5858 -7.41421
    endloop
  endfacet
  facet normal 1 0 -0
    outer loop
      vertex 477 48.1522 -6.76537
      vertex 477 48.1522 -5.23463
      vertex 477 48 -6
    endloop
  endfacet
  facet normal 0 0.195081 -0.980787
    outer loop
      vertex 477 49.2346 -4.15224
      vertex 514 50 -4
      vertex 514 49.2346 -4.15224
    endloop
  endfacet
  facet normal 0 0.195081 -0.980787
    outer loop
      vertex 514 50 -4
      vertex 477 49.2346 -4.15224
      vertex 477 50 -4
    endloop
  endfacet
  facet normal 0 0.831435 -0.555622
    outer loop
      vertex 514 48.1522 -5.23463
      vertex 477 48.5858 -4.58579
      vertex 514 48.5858 -4.58579
    endloop
  endfacet
  facet normal 0 0.831435 -0.555622
    outer loop
      vertex 477 48.5858 -4.58579
      vertex 514 48.1522 -5.23463
      vertex 477 48.1522 -5.23463
    endloop
  endfacet
  facet normal 0 0.555602 -0.831448
    outer loop
      vertex 477 48.5858 -4.58579
      vertex 514 49.2346 -4.15224
      vertex 514 48.5858 -4.58579
    endloop
  endfacet
  facet normal 0 0.555602 -0.831448
    outer loop
      vertex 514 49.2346 -4.15224
      vertex 477 48.5858 -4.58579
      vertex 477 49.2346 -4.15224
    endloop
  endfacet
  facet normal 0 -0.980844 0.194793
    outer loop
      vertex 477 151.848 -6.76537
      vertex 514 152 -6
      vertex 477 152 -6
    endloop
  endfacet
  facet normal 0 -0.980844 0.194793
    outer loop
      vertex 514 152 -6
      vertex 477 151.848 -6.76537
      vertex 514 151.848 -6.76537
    endloop
  endfacet
  facet normal 0 0.980844 -0.194793
    outer loop
      vertex 514 148 -6
      vertex 477 148.152 -5.23463
      vertex 514 148.152 -5.23463
    endloop
  endfacet
  facet normal 0 0.980844 -0.194793
    outer loop
      vertex 477 148.152 -5.23463
      vertex 514 148 -6
      vertex 477 148 -6
    endloop
  endfacet
  facet normal 0 -0.555483 -0.831528
    outer loop
      vertex 477 150.765 -4.15224
      vertex 514 151.414 -4.58579
      vertex 514 150.765 -4.15224
    endloop
  endfacet
  facet normal -0 -0.555483 -0.831528
    outer loop
      vertex 514 151.414 -4.58579
      vertex 477 150.765 -4.15224
      vertex 477 151.414 -4.58579
    endloop
  endfacet
  facet normal 0 -0.195179 -0.980768
    outer loop
      vertex 477 150 -4
      vertex 514 150.765 -4.15224
      vertex 514 150 -4
    endloop
  endfacet
  facet normal -0 -0.195179 -0.980768
    outer loop
      vertex 514 150.765 -4.15224
      vertex 477 150 -4
      vertex 477 150.765 -4.15224
    endloop
  endfacet
  facet normal -0 0.195179 0.980768
    outer loop
      vertex 477 150 -8
      vertex 514 149.235 -7.84776
      vertex 514 150 -8
    endloop
  endfacet
  facet normal 0 0.195179 0.980768
    outer loop
      vertex 514 149.235 -7.84776
      vertex 477 150 -8
      vertex 477 149.235 -7.84776
    endloop
  endfacet
  facet normal 0 -0.195179 0.980768
    outer loop
      vertex 477 150.765 -7.84776
      vertex 514 150 -8
      vertex 514 150.765 -7.84776
    endloop
  endfacet
  facet normal 0 -0.195179 0.980768
    outer loop
      vertex 514 150 -8
      vertex 477 150.765 -7.84776
      vertex 477 150 -8
    endloop
  endfacet
  facet normal 0 -0.831198 -0.555977
    outer loop
      vertex 477 151.848 -5.23463
      vertex 514 151.414 -4.58579
      vertex 477 151.414 -4.58579
    endloop
  endfacet
  facet normal 0 -0.831198 -0.555977
    outer loop
      vertex 514 151.414 -4.58579
      vertex 477 151.848 -5.23463
      vertex 514 151.848 -5.23463
    endloop
  endfacet
  facet normal 0 0.555483 -0.831528
    outer loop
      vertex 477 148.586 -4.58579
      vertex 514 149.235 -4.15224
      vertex 514 148.586 -4.58579
    endloop
  endfacet
  facet normal 0 0.555483 -0.831528
    outer loop
      vertex 514 149.235 -4.15224
      vertex 477 148.586 -4.58579
      vertex 477 149.235 -4.15224
    endloop
  endfacet
  facet normal 0 -0.831198 0.555977
    outer loop
      vertex 477 151.414 -7.41421
      vertex 514 151.848 -6.76537
      vertex 477 151.848 -6.76537
    endloop
  endfacet
  facet normal 0 -0.831198 0.555977
    outer loop
      vertex 514 151.848 -6.76537
      vertex 477 151.414 -7.41421
      vertex 514 151.414 -7.41421
    endloop
  endfacet
  facet normal 0 -0.555483 0.831528
    outer loop
      vertex 477 151.414 -7.41421
      vertex 514 150.765 -7.84776
      vertex 514 151.414 -7.41421
    endloop
  endfacet
  facet normal 0 -0.555483 0.831528
    outer loop
      vertex 514 150.765 -7.84776
      vertex 477 151.414 -7.41421
      vertex 477 150.765 -7.84776
    endloop
  endfacet
  facet normal 0 0.980844 0.194793
    outer loop
      vertex 514 148.152 -6.76537
      vertex 477 148 -6
      vertex 514 148 -6
    endloop
  endfacet
  facet normal 0 0.980844 0.194793
    outer loop
      vertex 477 148 -6
      vertex 514 148.152 -6.76537
      vertex 477 148.152 -6.76537
    endloop
  endfacet
  facet normal -0 0.555483 0.831528
    outer loop
      vertex 477 149.235 -7.84776
      vertex 514 148.586 -7.41421
      vertex 514 149.235 -7.84776
    endloop
  endfacet
  facet normal 0 0.555483 0.831528
    outer loop
      vertex 514 148.586 -7.41421
      vertex 477 149.235 -7.84776
      vertex 477 148.586 -7.41421
    endloop
  endfacet
  facet normal 0 0.831198 0.555977
    outer loop
      vertex 514 148.586 -7.41421
      vertex 477 148.152 -6.76537
      vertex 514 148.152 -6.76537
    endloop
  endfacet
  facet normal 0 0.831198 0.555977
    outer loop
      vertex 477 148.152 -6.76537
      vertex 514 148.586 -7.41421
      vertex 477 148.586 -7.41421
    endloop
  endfacet
  facet normal 0 -0.980844 -0.194793
    outer loop
      vertex 477 152 -6
      vertex 514 151.848 -5.23463
      vertex 477 151.848 -5.23463
    endloop
  endfacet
  facet normal 0 -0.980844 -0.194793
    outer loop
      vertex 514 151.848 -5.23463
      vertex 477 152 -6
      vertex 514 152 -6
    endloop
  endfacet
  facet normal 1 0 0
    outer loop
      vertex 477 151.848 -5.23463
      vertex 477 151.848 -6.76537
      vertex 477 152 -6
    endloop
  endfacet
  facet normal 1 0 0
    outer loop
      vertex 477 151.414 -4.58579
      vertex 477 151.848 -6.76537
      vertex 477 151.848 -5.23463
    endloop
  endfacet
  facet normal 1 0 0
    outer loop
      vertex 477 151.414 -4.58579
      vertex 477 151.414 -7.41421
      vertex 477 151.848 -6.76537
    endloop
  endfacet
  facet normal 1 0 0
    outer loop
      vertex 477 150.765 -4.15224
      vertex 477 151.414 -7.41421
      vertex 477 151.414 -4.58579
    endloop
  endfacet
  facet normal 1 0 0
    outer loop
      vertex 477 150.765 -4.15224
      vertex 477 150.765 -7.84776
      vertex 477 151.414 -7.41421
    endloop
  endfacet
  facet normal 1 0 0
    outer loop
      vertex 477 150 -4
      vertex 477 150.765 -7.84776
      vertex 477 150.765 -4.15224
    endloop
  endfacet
  facet normal 1 0 0
    outer loop
      vertex 477 150 -4
      vertex 477 150 -8
      vertex 477 150.765 -7.84776
    endloop
  endfacet
  facet normal 1 -0 0
    outer loop
      vertex 477 149.235 -4.15224
      vertex 477 150 -8
      vertex 477 150 -4
    endloop
  endfacet
  facet normal 1 0 0
    outer loop
      vertex 477 149.235 -4.15224
      vertex 477 149.235 -7.84776
      vertex 477 150 -8
    endloop
  endfacet
  facet normal 1 -0 0
    outer loop
      vertex 477 148.586 -4.58579
      vertex 477 149.235 -7.84776
      vertex 477 149.235 -4.15224
    endloop
  endfacet
  facet normal 1 0 0
    outer loop
      vertex 477 148.586 -4.58579
      vertex 477 148.586 -7.41421
      vertex 477 149.235 -7.84776
    endloop
  endfacet
  facet normal 1 -0 0
    outer loop
      vertex 477 148.152 -5.23463
      vertex 477 148.586 -7.41421
      vertex 477 148.586 -4.58579
    endloop
  endfacet
  facet normal 1 0 0
    outer loop
      vertex 477 148.152 -5.23463
      vertex 477 148.152 -6.76537
      vertex 477 148.586 -7.41421
    endloop
  endfacet
  facet normal 1 0 -0
    outer loop
      vertex 477 148.152 -6.76537
      vertex 477 148.152 -5.23463
      vertex 477 148 -6
    endloop
  endfacet
  facet normal 0 0.195179 -0.980768
    outer loop
      vertex 477 149.235 -4.15224
      vertex 514 150 -4
      vertex 514 149.235 -4.15224
    endloop
  endfacet
  facet normal 0 0.195179 -0.980768
    outer loop
      vertex 514 150 -4
      vertex 477 149.235 -4.15224
      vertex 477 150 -4
    endloop
  endfacet
  facet normal 0 0.831198 -0.555977
    outer loop
      vertex 514 148.152 -5.23463
      vertex 477 148.586 -4.58579
      vertex 514 148.586 -4.58579
    endloop
  endfacet
  facet normal 0 0.831198 -0.555977
    outer loop
      vertex 477 148.586 -4.58579
      vertex 514 148.152 -5.23463
      vertex 477 148.152 -5.23463
    endloop
  endfacet
  facet normal -0.980795 -0.195039 0
    outer loop
      vertex 52 6 -12
      vertex 51.8478 6.76537 0
      vertex 51.8478 6.76537 -12
    endloop
  endfacet
  facet normal -0.980795 -0.195039 0
    outer loop
      vertex 51.8478 6.76537 0
      vertex 52 6 -12
      vertex 52 6 0
    endloop
  endfacet
  facet normal 0.980795 0.195039 0
    outer loop
      vertex 48.1522 5.23463 0
      vertex 48 6 -12
      vertex 48 6 0
    endloop
  endfacet
  facet normal 0.980795 0.195039 0
    outer loop
      vertex 48 6 -12
      vertex 48.1522 5.23463 0
      vertex 48.1522 5.23463 -12
    endloop
  endfacet
  facet normal -0.555602 0.831448 0
    outer loop
      vertex 51.4142 4.58579 -12
      vertex 50.7654 4.15224 0
      vertex 51.4142 4.58579 0
    endloop
  endfacet
  facet normal -0.555602 0.831448 0
    outer loop
      vertex 50.7654 4.15224 0
      vertex 51.4142 4.58579 -12
      vertex 50.7654 4.15224 -12
    endloop
  endfacet
  facet normal -0.195081 0.980787 0
    outer loop
      vertex 50.7654 4.15224 -12
      vertex 50 4 0
      vertex 50.7654 4.15224 0
    endloop
  endfacet
  facet normal -0.195081 0.980787 0
    outer loop
      vertex 50 4 0
      vertex 50.7654 4.15224 -12
      vertex 50 4 -12
    endloop
  endfacet
  facet normal -0.555602 -0.831448 0
    outer loop
      vertex 50.7654 7.84776 -12
      vertex 51.4142 7.41421 0
      vertex 50.7654 7.84776 0
    endloop
  endfacet
  facet normal -0.555602 -0.831448 -0
    outer loop
      vertex 51.4142 7.41421 0
      vertex 50.7654 7.84776 -12
      vertex 51.4142 7.41421 -12
    endloop
  endfacet
  facet normal 0.195081 -0.980787 0
    outer loop
      vertex 49.2346 7.84776 -12
      vertex 50 8 0
      vertex 49.2346 7.84776 0
    endloop
  endfacet
  facet normal 0.195081 -0.980787 0
    outer loop
      vertex 50 8 0
      vertex 49.2346 7.84776 -12
      vertex 50 8 -12
    endloop
  endfacet
  facet normal -0.195081 -0.980787 0
    outer loop
      vertex 50 8 -12
      vertex 50.7654 7.84776 0
      vertex 50 8 0
    endloop
  endfacet
  facet normal -0.195081 -0.980787 -0
    outer loop
      vertex 50.7654 7.84776 0
      vertex 50 8 -12
      vertex 50.7654 7.84776 -12
    endloop
  endfacet
  facet normal 0 0 -1
    outer loop
      vertex 465.848 6.76537 -12
      vertex 514 0 -12
      vertex 466 6 -12
    endloop
  endfacet
  facet normal 0 0 -1
    outer loop
      vertex 514 0 -12
      vertex 465.848 5.23463 -12
      vertex 466 6 -12
    endloop
  endfacet
  facet normal 0 0 -1
    outer loop
      vertex 514 0 -12
      vertex 465.414 4.58579 -12
      vertex 465.848 5.23463 -12
    endloop
  endfacet
  facet normal 0 0 -1
    outer loop
      vertex 514 0 -12
      vertex 464.765 4.15224 -12
      vertex 465.414 4.58579 -12
    endloop
  endfacet
  facet normal 0 0 -1
    outer loop
      vertex 514 0 -12
      vertex 464 4 -12
      vertex 464.765 4.15224 -12
    endloop
  endfacet
  facet normal 0 0 -1
    outer loop
      vertex 462.152 5.23463 -12
      vertex 259 6 -12
      vertex 462 6 -12
    endloop
  endfacet
  facet normal 0 0 -1
    outer loop
      vertex 258.848 5.23463 -12
      vertex 462.152 5.23463 -12
      vertex 462.586 4.58579 -12
    endloop
  endfacet
  facet normal 0 0 -1
    outer loop
      vertex 258.414 4.58579 -12
      vertex 462.586 4.58579 -12
      vertex 463.235 4.15224 -12
    endloop
  endfacet
  facet normal 0 0 -1
    outer loop
      vertex 257.765 4.15224 -12
      vertex 463.235 4.15224 -12
      vertex 464 4 -12
    endloop
  endfacet
  facet normal 0 0 -1
    outer loop
      vertex 257 4 -12
      vertex 464 4 -12
      vertex 514 0 -12
    endloop
  endfacet
  facet normal 0 0 -1
    outer loop
      vertex 462.152 5.23463 -12
      vertex 258.848 5.23463 -12
      vertex 259 6 -12
    endloop
  endfacet
  facet normal 0 0 -1
    outer loop
      vertex 462.586 4.58579 -12
      vertex 258.414 4.58579 -12
      vertex 258.848 5.23463 -12
    endloop
  endfacet
  facet normal 0 0 -1
    outer loop
      vertex 463.235 4.15224 -12
      vertex 257.765 4.15224 -12
      vertex 258.414 4.58579 -12
    endloop
  endfacet
  facet normal 0 0 -1
    outer loop
      vertex 464 4 -12
      vertex 257 4 -12
      vertex 257.765 4.15224 -12
    endloop
  endfacet
  facet normal 0 0 -1
    outer loop
      vertex 255.152 5.23463 -12
      vertex 52 6 -12
      vertex 255 6 -12
    endloop
  endfacet
  facet normal 0 0 -1
    outer loop
      vertex 51.8478 5.23463 -12
      vertex 255.152 5.23463 -12
      vertex 255.586 4.58579 -12
    endloop
  endfacet
  facet normal 0 0 -1
    outer loop
      vertex 51.4142 4.58579 -12
      vertex 255.586 4.58579 -12
      vertex 256.235 4.15224 -12
    endloop
  endfacet
  facet normal 0 0 -1
    outer loop
      vertex 50.7654 4.15224 -12
      vertex 256.235 4.15224 -12
      vertex 257 4 -12
    endloop
  endfacet
  facet normal 0 0 -1
    outer loop
      vertex 0 0 -12
      vertex 257 4 -12
      vertex 514 0 -12
    endloop
  endfacet
  facet normal 0 0 -1
    outer loop
      vertex 255.152 5.23463 -12
      vertex 51.8478 5.23463 -12
      vertex 52 6 -12
    endloop
  endfacet
  facet normal 0 0 -1
    outer loop
      vertex 255.586 4.58579 -12
      vertex 51.4142 4.58579 -12
      vertex 51.8478 5.23463 -12
    endloop
  endfacet
  facet normal 0 0 -1
    outer loop
      vertex 256.235 4.15224 -12
      vertex 50.7654 4.15224 -12
      vertex 51.4142 4.58579 -12
    endloop
  endfacet
  facet normal 0 0 -1
    outer loop
      vertex 257 4 -12
      vertex 50 4 -12
      vertex 50.7654 4.15224 -12
    endloop
  endfacet
  facet normal -0 0 -1
    outer loop
      vertex 48.1522 5.23463 -12
      vertex 0 0 -12
      vertex 48 6 -12
    endloop
  endfacet
  facet normal -0 0 -1
    outer loop
      vertex 48.5858 4.58579 -12
      vertex 0 0 -12
      vertex 48.1522 5.23463 -12
    endloop
  endfacet
  facet normal -0 0 -1
    outer loop
      vertex 49.2346 4.15224 -12
      vertex 0 0 -12
      vertex 48.5858 4.58579 -12
    endloop
  endfacet
  facet normal -0 0 -1
    outer loop
      vertex 50 4 -12
      vertex 0 0 -12
      vertex 49.2346 4.15224 -12
    endloop
  endfacet
  facet normal -0 0 -1
    outer loop
      vertex 257 4 -12
      vertex 0 0 -12
      vertex 50 4 -12
    endloop
  endfacet
  facet normal 0 0 -1
    outer loop
      vertex 465.414 7.41421 -12
      vertex 514 0 -12
      vertex 465.848 6.76537 -12
    endloop
  endfacet
  facet normal 0 0 -1
    outer loop
      vertex 464.765 7.84776 -12
      vertex 514 0 -12
      vertex 465.414 7.41421 -12
    endloop
  endfacet
  facet normal 0 0 -1
    outer loop
      vertex 514 0 -12
      vertex 464.765 7.84776 -12
      vertex 514 200 -12
    endloop
  endfacet
  facet normal 0 0 -1
    outer loop
      vertex 464 8 -12
      vertex 514 200 -12
      vertex 464.765 7.84776 -12
    endloop
  endfacet
  facet normal 0 0 -1
    outer loop
      vertex 463.235 7.84776 -12
      vertex 514 200 -12
      vertex 464 8 -12
    endloop
  endfacet
  facet normal 0 0 -1
    outer loop
      vertex 462.586 7.41421 -12
      vertex 514 200 -12
      vertex 463.235 7.84776 -12
    endloop
  endfacet
  facet normal 0 0 -1
    outer loop
      vertex 258.414 7.41421 -12
      vertex 462.586 7.41421 -12
      vertex 462.152 6.76537 -12
    endloop
  endfacet
  facet normal 0 0 -1
    outer loop
      vertex 259 6 -12
      vertex 462.152 6.76537 -12
      vertex 462 6 -12
    endloop
  endfacet
  facet normal 0 0 -1
    outer loop
      vertex 258.848 6.76537 -12
      vertex 462.152 6.76537 -12
      vertex 259 6 -12
    endloop
  endfacet
  facet normal 0 0 -1
    outer loop
      vertex 258.414 7.41421 -12
      vertex 462.152 6.76537 -12
      vertex 258.848 6.76537 -12
    endloop
  endfacet
  facet normal 0 0 -1
    outer loop
      vertex 462.586 7.41421 -12
      vertex 258.414 7.41421 -12
      vertex 514 200 -12
    endloop
  endfacet
  facet normal 0 0 -1
    outer loop
      vertex 257.765 7.84776 -12
      vertex 514 200 -12
      vertex 258.414 7.41421 -12
    endloop
  endfacet
  facet normal 0 0 -1
    outer loop
      vertex 257 8 -12
      vertex 514 200 -12
      vertex 257.765 7.84776 -12
    endloop
  endfacet
  facet normal 0 0 -1
    outer loop
      vertex 0 200 -12
      vertex 257 8 -12
      vertex 256.235 7.84776 -12
    endloop
  endfacet
  facet normal 0 0 -1
    outer loop
      vertex 0 200 -12
      vertex 256.235 7.84776 -12
      vertex 255.586 7.41421 -12
    endloop
  endfacet
  facet normal 0 0 -1
    outer loop
      vertex 52 6 -12
      vertex 255.152 6.76537 -12
      vertex 255 6 -12
    endloop
  endfacet
  facet normal 0 0 -1
    outer loop
      vertex 51.8478 6.76537 -12
      vertex 255.152 6.76537 -12
      vertex 52 6 -12
    endloop
  endfacet
  facet normal 0 0 -1
    outer loop
      vertex 255.152 6.76537 -12
      vertex 51.8478 6.76537 -12
      vertex 255.586 7.41421 -12
    endloop
  endfacet
  facet normal 0 0 -1
    outer loop
      vertex 51.4142 7.41421 -12
      vertex 255.586 7.41421 -12
      vertex 51.8478 6.76537 -12
    endloop
  endfacet
  facet normal 0 0 -1
    outer loop
      vertex 0 200 -12
      vertex 255.586 7.41421 -12
      vertex 51.4142 7.41421 -12
    endloop
  endfacet
  facet normal 0 0 -1
    outer loop
      vertex 0 200 -12
      vertex 51.4142 7.41421 -12
      vertex 50.7654 7.84776 -12
    endloop
  endfacet
  facet normal 0 0 -1
    outer loop
      vertex 0 200 -12
      vertex 50.7654 7.84776 -12
      vertex 50 8 -12
    endloop
  endfacet
  facet normal 0 0 -1
    outer loop
      vertex 0 200 -12
      vertex 50 8 -12
      vertex 49.2346 7.84776 -12
    endloop
  endfacet
  facet normal 0 0 -1
    outer loop
      vertex 0 0 -12
      vertex 48.1522 6.76537 -12
      vertex 48 6 -12
    endloop
  endfacet
  facet normal 0 0 -1
    outer loop
      vertex 0 0 -12
      vertex 48.5858 7.41421 -12
      vertex 48.1522 6.76537 -12
    endloop
  endfacet
  facet normal 0 0 -1
    outer loop
      vertex 0 0 -12
      vertex 49.2346 7.84776 -12
      vertex 48.5858 7.41421 -12
    endloop
  endfacet
  facet normal 0 0 -1
    outer loop
      vertex 0 200 -12
      vertex 49.2346 7.84776 -12
      vertex 0 0 -12
    endloop
  endfacet
  facet normal 0 0 -1
    outer loop
      vertex 257 8 -12
      vertex 0 200 -12
      vertex 514 200 -12
    endloop
  endfacet
  facet normal -0.831435 0.555622 0
    outer loop
      vertex 51.4142 4.58579 -12
      vertex 51.8478 5.23463 0
      vertex 51.8478 5.23463 -12
    endloop
  endfacet
  facet normal -0.831435 0.555622 0
    outer loop
      vertex 51.8478 5.23463 0
      vertex 51.4142 4.58579 -12
      vertex 51.4142 4.58579 0
    endloop
  endfacet
  facet normal 0.195081 0.980787 -0
    outer loop
      vertex 50 4 -12
      vertex 49.2346 4.15224 0
      vertex 50 4 0
    endloop
  endfacet
  facet normal 0.195081 0.980787 0
    outer loop
      vertex 49.2346 4.15224 0
      vertex 50 4 -12
      vertex 49.2346 4.15224 -12
    endloop
  endfacet
  facet normal -0.831435 -0.555622 0
    outer loop
      vertex 51.8478 6.76537 -12
      vertex 51.4142 7.41421 0
      vertex 51.4142 7.41421 -12
    endloop
  endfacet
  facet normal -0.831435 -0.555622 0
    outer loop
      vertex 51.4142 7.41421 0
      vertex 51.8478 6.76537 -12
      vertex 51.8478 6.76537 0
    endloop
  endfacet
  facet normal -0 0 1
    outer loop
      vertex 464.765 7.84776 0
      vertex 514 0 0
      vertex 514 200 0
    endloop
  endfacet
  facet normal 0 0 1
    outer loop
      vertex 514 0 0
      vertex 465.848 6.76537 0
      vertex 466 6 0
    endloop
  endfacet
  facet normal 0 0 1
    outer loop
      vertex 514 0 0
      vertex 465.414 7.41421 0
      vertex 465.848 6.76537 0
    endloop
  endfacet
  facet normal 0 0 1
    outer loop
      vertex 514 0 0
      vertex 464.765 7.84776 0
      vertex 465.414 7.41421 0
    endloop
  endfacet
  facet normal 0 0 1
    outer loop
      vertex 514 200 0
      vertex 464 8 0
      vertex 464.765 7.84776 0
    endloop
  endfacet
  facet normal 0 0 1
    outer loop
      vertex 514 200 0
      vertex 463.235 7.84776 0
      vertex 464 8 0
    endloop
  endfacet
  facet normal 0 0 1
    outer loop
      vertex 514 200 0
      vertex 462.586 7.41421 0
      vertex 463.235 7.84776 0
    endloop
  endfacet
  facet normal 0 0 1
    outer loop
      vertex 258.414 7.41421 0
      vertex 462.586 7.41421 0
      vertex 514 200 0
    endloop
  endfacet
  facet normal 0 0 1
    outer loop
      vertex 462.152 6.76537 0
      vertex 259 6 0
      vertex 462 6 0
    endloop
  endfacet
  facet normal 0 0 1
    outer loop
      vertex 462.586 7.41421 0
      vertex 258.414 7.41421 0
      vertex 462.152 6.76537 0
    endloop
  endfacet
  facet normal 0 0 1
    outer loop
      vertex 462.152 6.76537 0
      vertex 258.848 6.76537 0
      vertex 259 6 0
    endloop
  endfacet
  facet normal 0 0 1
    outer loop
      vertex 462.152 6.76537 0
      vertex 258.414 7.41421 0
      vertex 258.848 6.76537 0
    endloop
  endfacet
  facet normal 0 0 1
    outer loop
      vertex 514 200 0
      vertex 257.765 7.84776 0
      vertex 258.414 7.41421 0
    endloop
  endfacet
  facet normal 0 0 1
    outer loop
      vertex 514 200 0
      vertex 257 8 0
      vertex 257.765 7.84776 0
    endloop
  endfacet
  facet normal -0 0 1
    outer loop
      vertex 0 200 0
      vertex 257 8 0
      vertex 514 200 0
    endloop
  endfacet
  facet normal 0 0 1
    outer loop
      vertex 257 8 0
      vertex 0 200 0
      vertex 256.235 7.84776 0
    endloop
  endfacet
  facet normal 0 0 1
    outer loop
      vertex 255.152 6.76537 0
      vertex 52 6 0
      vertex 255 6 0
    endloop
  endfacet
  facet normal 0 0 1
    outer loop
      vertex 51.8478 6.76537 0
      vertex 255.152 6.76537 0
      vertex 255.586 7.41421 0
    endloop
  endfacet
  facet normal 0 0 1
    outer loop
      vertex 256.235 7.84776 0
      vertex 0 200 0
      vertex 255.586 7.41421 0
    endloop
  endfacet
  facet normal 0 0 1
    outer loop
      vertex 255.152 6.76537 0
      vertex 51.8478 6.76537 0
      vertex 52 6 0
    endloop
  endfacet
  facet normal 0 0 1
    outer loop
      vertex 255.586 7.41421 0
      vertex 51.4142 7.41421 0
      vertex 51.8478 6.76537 0
    endloop
  endfacet
  facet normal 0 0 1
    outer loop
      vertex 255.586 7.41421 0
      vertex 0 200 0
      vertex 51.4142 7.41421 0
    endloop
  endfacet
  facet normal 0 0 1
    outer loop
      vertex 51.4142 7.41421 0
      vertex 0 200 0
      vertex 50.7654 7.84776 0
    endloop
  endfacet
  facet normal 0 0 1
    outer loop
      vertex 50.7654 7.84776 0
      vertex 0 200 0
      vertex 50 8 0
    endloop
  endfacet
  facet normal 0 0 1
    outer loop
      vertex 48.5858 7.41421 0
      vertex 0 0 0
      vertex 48.1522 6.76537 0
    endloop
  endfacet
  facet normal 0 0 1
    outer loop
      vertex 49.2346 7.84776 0
      vertex 0 0 0
      vertex 48.5858 7.41421 0
    endloop
  endfacet
  facet normal 0 0 1
    outer loop
      vertex 0 0 0
      vertex 49.2346 7.84776 0
      vertex 0 200 0
    endloop
  endfacet
  facet normal 0 0 1
    outer loop
      vertex 50 8 0
      vertex 0 200 0
      vertex 49.2346 7.84776 0
    endloop
  endfacet
  facet normal -0 0 1
    outer loop
      vertex 465.848 5.23463 0
      vertex 514 0 0
      vertex 466 6 0
    endloop
  endfacet
  facet normal -0 0 1
    outer loop
      vertex 465.414 4.58579 0
      vertex 514 0 0
      vertex 465.848 5.23463 0
    endloop
  endfacet
  facet normal -0 0 1
    outer loop
      vertex 464.765 4.15224 0
      vertex 514 0 0
      vertex 465.414 4.58579 0
    endloop
  endfacet
  facet normal -0 0 1
    outer loop
      vertex 464 4 0
      vertex 514 0 0
      vertex 464.765 4.15224 0
    endloop
  endfacet
  facet normal -0 0 1
    outer loop
      vertex 259 6 0
      vertex 462.152 5.23463 0
      vertex 462 6 0
    endloop
  endfacet
  facet normal 0 0 1
    outer loop
      vertex 258.848 5.23463 0
      vertex 462.152 5.23463 0
      vertex 259 6 0
    endloop
  endfacet
  facet normal 0 0 1
    outer loop
      vertex 462.152 5.23463 0
      vertex 258.848 5.23463 0
      vertex 462.586 4.58579 0
    endloop
  endfacet
  facet normal 0 0 1
    outer loop
      vertex 258.414 4.58579 0
      vertex 462.586 4.58579 0
      vertex 258.848 5.23463 0
    endloop
  endfacet
  facet normal 0 0 1
    outer loop
      vertex 462.586 4.58579 0
      vertex 258.414 4.58579 0
      vertex 463.235 4.15224 0
    endloop
  endfacet
  facet normal 0 0 1
    outer loop
      vertex 257.765 4.15224 0
      vertex 463.235 4.15224 0
      vertex 258.414 4.58579 0
    endloop
  endfacet
  facet normal 0 0 1
    outer loop
      vertex 463.235 4.15224 0
      vertex 257.765 4.15224 0
      vertex 464 4 0
    endloop
  endfacet
  facet normal 0 0 1
    outer loop
      vertex 257 4 0
      vertex 464 4 0
      vertex 257.765 4.15224 0
    endloop
  endfacet
  facet normal 0 0 1
    outer loop
      vertex 464 4 0
      vertex 257 4 0
      vertex 514 0 0
    endloop
  endfacet
  facet normal -0 0 1
    outer loop
      vertex 52 6 0
      vertex 255.152 5.23463 0
      vertex 255 6 0
    endloop
  endfacet
  facet normal 0 0 1
    outer loop
      vertex 51.8478 5.23463 0
      vertex 255.152 5.23463 0
      vertex 52 6 0
    endloop
  endfacet
  facet normal 0 0 1
    outer loop
      vertex 255.152 5.23463 0
      vertex 51.8478 5.23463 0
      vertex 255.586 4.58579 0
    endloop
  endfacet
  facet normal 0 0 1
    outer loop
      vertex 51.4142 4.58579 0
      vertex 255.586 4.58579 0
      vertex 51.8478 5.23463 0
    endloop
  endfacet
  facet normal 0 0 1
    outer loop
      vertex 255.586 4.58579 0
      vertex 51.4142 4.58579 0
      vertex 256.235 4.15224 0
    endloop
  endfacet
  facet normal 0 0 1
    outer loop
      vertex 50.7654 4.15224 0
      vertex 256.235 4.15224 0
      vertex 51.4142 4.58579 0
    endloop
  endfacet
  facet normal 0 0 1
    outer loop
      vertex 256.235 4.15224 0
      vertex 50.7654 4.15224 0
      vertex 257 4 0
    endloop
  endfacet
  facet normal 0 0 1
    outer loop
      vertex 50 4 0
      vertex 257 4 0
      vertex 50.7654 4.15224 0
    endloop
  endfacet
  facet normal 0 0 1
    outer loop
      vertex 0 0 0
      vertex 257 4 0
      vertex 50 4 0
    endloop
  endfacet
  facet normal 0 0 1
    outer loop
      vertex 48.1522 6.76537 0
      vertex 0 0 0
      vertex 48 6 0
    endloop
  endfacet
  facet normal 0 0 1
    outer loop
      vertex 257 4 0
      vertex 0 0 0
      vertex 514 0 0
    endloop
  endfacet
  facet normal 0 0 1
    outer loop
      vertex 49.2346 4.15224 0
      vertex 0 0 0
      vertex 50 4 0
    endloop
  endfacet
  facet normal 0 0 1
    outer loop
      vertex 48.5858 4.58579 0
      vertex 0 0 0
      vertex 49.2346 4.15224 0
    endloop
  endfacet
  facet normal 0 0 1
    outer loop
      vertex 48.1522 5.23463 0
      vertex 0 0 0
      vertex 48.5858 4.58579 0
    endloop
  endfacet
  facet normal 0 0 1
    outer loop
      vertex 48 6 0
      vertex 0 0 0
      vertex 48.1522 5.23463 0
    endloop
  endfacet
  facet normal 0.980795 -0.195039 0
    outer loop
      vertex 48 6 0
      vertex 48.1522 6.76537 -12
      vertex 48.1522 6.76537 0
    endloop
  endfacet
  facet normal 0.980795 -0.195039 0
    outer loop
      vertex 48.1522 6.76537 -12
      vertex 48 6 0
      vertex 48 6 -12
    endloop
  endfacet
  facet normal 0.555602 -0.831448 0
    outer loop
      vertex 48.5858 7.41421 -12
      vertex 49.2346 7.84776 0
      vertex 48.5858 7.41421 0
    endloop
  endfacet
  facet normal 0.555602 -0.831448 0
    outer loop
      vertex 49.2346 7.84776 0
      vertex 48.5858 7.41421 -12
      vertex 49.2346 7.84776 -12
    endloop
  endfacet
  facet normal 0.831435 -0.555622 0
    outer loop
      vertex 48.1522 6.76537 0
      vertex 48.5858 7.41421 -12
      vertex 48.5858 7.41421 0
    endloop
  endfacet
  facet normal 0.831435 -0.555622 0
    outer loop
      vertex 48.5858 7.41421 -12
      vertex 48.1522 6.76537 0
      vertex 48.1522 6.76537 -12
    endloop
  endfacet
  facet normal -0.980795 0.195039 0
    outer loop
      vertex 51.8478 5.23463 -12
      vertex 52 6 0
      vertex 52 6 -12
    endloop
  endfacet
  facet normal -0.980795 0.195039 0
    outer loop
      vertex 52 6 0
      vertex 51.8478 5.23463 -12
      vertex 51.8478 5.23463 0
    endloop
  endfacet
  facet normal 0.831435 0.555622 0
    outer loop
      vertex 48.5858 4.58579 0
      vertex 48.1522 5.23463 -12
      vertex 48.1522 5.23463 0
    endloop
  endfacet
  facet normal 0.831435 0.555622 0
    outer loop
      vertex 48.1522 5.23463 -12
      vertex 48.5858 4.58579 0
      vertex 48.5858 4.58579 -12
    endloop
  endfacet
  facet normal 0.555602 0.831448 -0
    outer loop
      vertex 49.2346 4.15224 -12
      vertex 48.5858 4.58579 0
      vertex 49.2346 4.15224 0
    endloop
  endfacet
  facet normal 0.555602 0.831448 0
    outer loop
      vertex 48.5858 4.58579 0
      vertex 49.2346 4.15224 -12
      vertex 48.5858 4.58579 -12
    endloop
  endfacet
  facet normal -0.980844 -0.194793 0
    outer loop
      vertex 259 6 -12
      vertex 258.848 6.76537 0
      vertex 258.848 6.76537 -12
    endloop
  endfacet
  facet normal -0.980844 -0.194793 0
    outer loop
      vertex 258.848 6.76537 0
      vertex 259 6 -12
      vertex 259 6 0
    endloop
  endfacet
  facet normal -0.831198 -0.555977 0
    outer loop
      vertex 258.848 6.76537 -12
      vertex 258.414 7.41421 0
      vertex 258.414 7.41421 -12
    endloop
  endfacet
  facet normal -0.831198 -0.555977 0
    outer loop
      vertex 258.414 7.41421 0
      vertex 258.848 6.76537 -12
      vertex 258.848 6.76537 0
    endloop
  endfacet
  facet normal 0.195179 -0.980768 0
    outer loop
      vertex 256.235 7.84776 -12
      vertex 257 8 0
      vertex 256.235 7.84776 0
    endloop
  endfacet
  facet normal 0.195179 -0.980768 0
    outer loop
      vertex 257 8 0
      vertex 256.235 7.84776 -12
      vertex 257 8 -12
    endloop
  endfacet
  facet normal -0.555483 0.831528 0
    outer loop
      vertex 258.414 4.58579 -12
      vertex 257.765 4.15224 0
      vertex 258.414 4.58579 0
    endloop
  endfacet
  facet normal -0.555483 0.831528 0
    outer loop
      vertex 257.765 4.15224 0
      vertex 258.414 4.58579 -12
      vertex 257.765 4.15224 -12
    endloop
  endfacet
  facet normal -0.555483 -0.831528 0
    outer loop
      vertex 257.765 7.84776 -12
      vertex 258.414 7.41421 0
      vertex 257.765 7.84776 0
    endloop
  endfacet
  facet normal -0.555483 -0.831528 -0
    outer loop
      vertex 258.414 7.41421 0
      vertex 257.765 7.84776 -12
      vertex 258.414 7.41421 -12
    endloop
  endfacet
  facet normal 0.831198 -0.555977 0
    outer loop
      vertex 255.152 6.76537 0
      vertex 255.586 7.41421 -12
      vertex 255.586 7.41421 0
    endloop
  endfacet
  facet normal 0.831198 -0.555977 0
    outer loop
      vertex 255.586 7.41421 -12
      vertex 255.152 6.76537 0
      vertex 255.152 6.76537 -12
    endloop
  endfacet
  facet normal 0.555483 -0.831528 0
    outer loop
      vertex 255.586 7.41421 -12
      vertex 256.235 7.84776 0
      vertex 255.586 7.41421 0
    endloop
  endfacet
  facet normal 0.555483 -0.831528 0
    outer loop
      vertex 256.235 7.84776 0
      vertex 255.586 7.41421 -12
      vertex 256.235 7.84776 -12
    endloop
  endfacet
  facet normal 0.831198 0.555977 0
    outer loop
      vertex 255.586 4.58579 0
      vertex 255.152 5.23463 -12
      vertex 255.152 5.23463 0
    endloop
  endfacet
  facet normal 0.831198 0.555977 0
    outer loop
      vertex 255.152 5.23463 -12
      vertex 255.586 4.58579 0
      vertex 255.586 4.58579 -12
    endloop
  endfacet
  facet normal -0.195179 -0.980768 0
    outer loop
      vertex 257 8 -12
      vertex 257.765 7.84776 0
      vertex 257 8 0
    endloop
  endfacet
  facet normal -0.195179 -0.980768 -0
    outer loop
      vertex 257.765 7.84776 0
      vertex 257 8 -12
      vertex 257.765 7.84776 -12
    endloop
  endfacet
  facet normal 0.980844 -0.194793 0
    outer loop
      vertex 255 6 0
      vertex 255.152 6.76537 -12
      vertex 255.152 6.76537 0
    endloop
  endfacet
  facet normal 0.980844 -0.194793 0
    outer loop
      vertex 255.152 6.76537 -12
      vertex 255 6 0
      vertex 255 6 -12
    endloop
  endfacet
  facet normal 0.980844 0.194793 0
    outer loop
      vertex 255.152 5.23463 0
      vertex 255 6 -12
      vertex 255 6 0
    endloop
  endfacet
  facet normal 0.980844 0.194793 0
    outer loop
      vertex 255 6 -12
      vertex 255.152 5.23463 0
      vertex 255.152 5.23463 -12
    endloop
  endfacet
  facet normal -0.831198 0.555977 0
    outer loop
      vertex 258.414 4.58579 -12
      vertex 258.848 5.23463 0
      vertex 258.848 5.23463 -12
    endloop
  endfacet
  facet normal -0.831198 0.555977 0
    outer loop
      vertex 258.848 5.23463 0
      vertex 258.414 4.58579 -12
      vertex 258.414 4.58579 0
    endloop
  endfacet
  facet normal -0.980844 0.194793 0
    outer loop
      vertex 258.848 5.23463 -12
      vertex 259 6 0
      vertex 259 6 -12
    endloop
  endfacet
  facet normal -0.980844 0.194793 0
    outer loop
      vertex 259 6 0
      vertex 258.848 5.23463 -12
      vertex 258.848 5.23463 0
    endloop
  endfacet
  facet normal 0.195179 0.980768 -0
    outer loop
      vertex 257 4 -12
      vertex 256.235 4.15224 0
      vertex 257 4 0
    endloop
  endfacet
  facet normal 0.195179 0.980768 0
    outer loop
      vertex 256.235 4.15224 0
      vertex 257 4 -12
      vertex 256.235 4.15224 -12
    endloop
  endfacet
  facet normal -0.195179 0.980768 0
    outer loop
      vertex 257.765 4.15224 -12
      vertex 257 4 0
      vertex 257.765 4.15224 0
    endloop
  endfacet
  facet normal -0.195179 0.980768 0
    outer loop
      vertex 257 4 0
      vertex 257.765 4.15224 -12
      vertex 257 4 -12
    endloop
  endfacet
  facet normal 0.555483 0.831528 -0
    outer loop
      vertex 256.235 4.15224 -12
      vertex 255.586 4.58579 0
      vertex 256.235 4.15224 0
    endloop
  endfacet
  facet normal 0.555483 0.831528 0
    outer loop
      vertex 255.586 4.58579 0
      vertex 256.235 4.15224 -12
      vertex 255.586 4.58579 -12
    endloop
  endfacet
  facet normal -0.980844 -0.194793 0
    outer loop
      vertex 466 6 -12
      vertex 465.848 6.76537 0
      vertex 465.848 6.76537 -12
    endloop
  endfacet
  facet normal -0.980844 -0.194793 0
    outer loop
      vertex 465.848 6.76537 0
      vertex 466 6 -12
      vertex 466 6 0
    endloop
  endfacet
  facet normal -0.831198 -0.555977 0
    outer loop
      vertex 465.848 6.76537 -12
      vertex 465.414 7.41421 0
      vertex 465.414 7.41421 -12
    endloop
  endfacet
  facet normal -0.831198 -0.555977 0
    outer loop
      vertex 465.414 7.41421 0
      vertex 465.848 6.76537 -12
      vertex 465.848 6.76537 0
    endloop
  endfacet
  facet normal 0.195179 -0.980768 0
    outer loop
      vertex 463.235 7.84776 -12
      vertex 464 8 0
      vertex 463.235 7.84776 0
    endloop
  endfacet
  facet normal 0.195179 -0.980768 0
    outer loop
      vertex 464 8 0
      vertex 463.235 7.84776 -12
      vertex 464 8 -12
    endloop
  endfacet
  facet normal -0.555483 0.831528 0
    outer loop
      vertex 465.414 4.58579 -12
      vertex 464.765 4.15224 0
      vertex 465.414 4.58579 0
    endloop
  endfacet
  facet normal -0.555483 0.831528 0
    outer loop
      vertex 464.765 4.15224 0
      vertex 465.414 4.58579 -12
      vertex 464.765 4.15224 -12
    endloop
  endfacet
  facet normal -0.555483 -0.831528 0
    outer loop
      vertex 464.765 7.84776 -12
      vertex 465.414 7.41421 0
      vertex 464.765 7.84776 0
    endloop
  endfacet
  facet normal -0.555483 -0.831528 -0
    outer loop
      vertex 465.414 7.41421 0
      vertex 464.765 7.84776 -12
      vertex 465.414 7.41421 -12
    endloop
  endfacet
  facet normal 0.831198 -0.555977 0
    outer loop
      vertex 462.152 6.76537 0
      vertex 462.586 7.41421 -12
      vertex 462.586 7.41421 0
    endloop
  endfacet
  facet normal 0.831198 -0.555977 0
    outer loop
      vertex 462.586 7.41421 -12
      vertex 462.152 6.76537 0
      vertex 462.152 6.76537 -12
    endloop
  endfacet
  facet normal 0.555483 -0.831528 0
    outer loop
      vertex 462.586 7.41421 -12
      vertex 463.235 7.84776 0
      vertex 462.586 7.41421 0
    endloop
  endfacet
  facet normal 0.555483 -0.831528 0
    outer loop
      vertex 463.235 7.84776 0
      vertex 462.586 7.41421 -12
      vertex 463.235 7.84776 -12
    endloop
  endfacet
  facet normal 0.831198 0.555977 0
    outer loop
      vertex 462.586 4.58579 0
      vertex 462.152 5.23463 -12
      vertex 462.152 5.23463 0
    endloop
  endfacet
  facet normal 0.831198 0.555977 0
    outer loop
      vertex 462.152 5.23463 -12
      vertex 462.586 4.58579 0
      vertex 462.586 4.58579 -12
    endloop
  endfacet
  facet normal -0.195179 -0.980768 0
    outer loop
      vertex 464 8 -12
      vertex 464.765 7.84776 0
      vertex 464 8 0
    endloop
  endfacet
  facet normal -0.195179 -0.980768 -0
    outer loop
      vertex 464.765 7.84776 0
      vertex 464 8 -12
      vertex 464.765 7.84776 -12
    endloop
  endfacet
  facet normal 0.980844 -0.194793 0
    outer loop
      vertex 462 6 0
      vertex 462.152 6.76537 -12
      vertex 462.152 6.76537 0
    endloop
  endfacet
  facet normal 0.980844 -0.194793 0
    outer loop
      vertex 462.152 6.76537 -12
      vertex 462 6 0
      vertex 462 6 -12
    endloop
  endfacet
  facet normal 0.980844 0.194793 0
    outer loop
      vertex 462.152 5.23463 0
      vertex 462 6 -12
      vertex 462 6 0
    endloop
  endfacet
  facet normal 0.980844 0.194793 0
    outer loop
      vertex 462 6 -12
      vertex 462.152 5.23463 0
      vertex 462.152 5.23463 -12
    endloop
  endfacet
  facet normal -0.831198 0.555977 0
    outer loop
      vertex 465.414 4.58579 -12
      vertex 465.848 5.23463 0
      vertex 465.848 5.23463 -12
    endloop
  endfacet
  facet normal -0.831198 0.555977 0
    outer loop
      vertex 465.848 5.23463 0
      vertex 465.414 4.58579 -12
      vertex 465.414 4.58579 0
    endloop
  endfacet
  facet normal -0.980844 0.194793 0
    outer loop
      vertex 465.848 5.23463 -12
      vertex 466 6 0
      vertex 466 6 -12
    endloop
  endfacet
  facet normal -0.980844 0.194793 0
    outer loop
      vertex 466 6 0
      vertex 465.848 5.23463 -12
      vertex 465.848 5.23463 0
    endloop
  endfacet
  facet normal 0.195179 0.980768 -0
    outer loop
      vertex 464 4 -12
      vertex 463.235 4.15224 0
      vertex 464 4 0
    endloop
  endfacet
  facet normal 0.195179 0.980768 0
    outer loop
      vertex 463.235 4.15224 0
      vertex 464 4 -12
      vertex 463.235 4.15224 -12
    endloop
  endfacet
  facet normal -0.195179 0.980768 0
    outer loop
      vertex 464.765 4.15224 -12
      vertex 464 4 0
      vertex 464.765 4.15224 0
    endloop
  endfacet
  facet normal -0.195179 0.980768 0
    outer loop
      vertex 464 4 0
      vertex 464.765 4.15224 -12
      vertex 464 4 -12
    endloop
  endfacet
  facet normal 0.555483 0.831528 -0
    outer loop
      vertex 463.235 4.15224 -12
      vertex 462.586 4.58579 0
      vertex 463.235 4.15224 0
    endloop
  endfacet
  facet normal 0.555483 0.831528 0
    outer loop
      vertex 462.586 4.58579 0
      vertex 463.235 4.15224 -12
      vertex 462.586 4.58579 -12
    endloop
  endfacet
  facet normal 0 1 -0
    outer loop
      vertex 514 200 -12
      vertex 0 200 0
      vertex 514 200 0
    endloop
  endfacet
  facet normal 0 1 0
    outer loop
      vertex 0 200 0
      vertex 514 200 -12
      vertex 0 200 -12
    endloop
  endfacet
  facet normal 0 -1 0
    outer loop
      vertex 0 0 -12
      vertex 514 0 0
      vertex 0 0 0
    endloop
  endfacet
  facet normal 0 -1 -0
    outer loop
      vertex 514 0 0
      vertex 0 0 -12
      vertex 514 0 -12
    endloop
  endfacet
endsolid OpenSCAD_Model
