solid OpenSCAD_Model
  facet normal 0 -0.980795 -0.195039
    outer loop
      vertex 0 17 9
      vertex 31 16.8478 9.76537
      vertex 0 16.8478 9.76537
    endloop
  endfacet
  facet normal 0 -0.980795 -0.195039
    outer loop
      vertex 31 16.8478 9.76537
      vertex 0 17 9
      vertex 31 17 9
    endloop
  endfacet
  facet normal 0 0.980795 -0.195039
    outer loop
      vertex 31 13 9
      vertex 0 13.1522 9.76537
      vertex 31 13.1522 9.76537
    endloop
  endfacet
  facet normal 0 0.980795 -0.195039
    outer loop
      vertex 0 13.1522 9.76537
      vertex 31 13 9
      vertex 0 13 9
    endloop
  endfacet
  facet normal 0 -0.831431 -0.555628
    outer loop
      vertex 0 16.8478 9.76537
      vertex 31 16.4142 10.4142
      vertex 0 16.4142 10.4142
    endloop
  endfacet
  facet normal 0 -0.831431 -0.555628
    outer loop
      vertex 31 16.4142 10.4142
      vertex 0 16.8478 9.76537
      vertex 31 16.8478 9.76537
    endloop
  endfacet
  facet normal 0 -0.195081 0.980787
    outer loop
      vertex 0 15.7654 7.15224
      vertex 31 15 7
      vertex 31 15.7654 7.15224
    endloop
  endfacet
  facet normal 0 -0.195081 0.980787
    outer loop
      vertex 31 15 7
      vertex 0 15.7654 7.15224
      vertex 0 15 7
    endloop
  endfacet
  facet normal 0 -0.555602 0.831448
    outer loop
      vertex 0 16.4142 7.58579
      vertex 31 15.7654 7.15224
      vertex 31 16.4142 7.58579
    endloop
  endfacet
  facet normal 0 -0.555602 0.831448
    outer loop
      vertex 31 15.7654 7.15224
      vertex 0 16.4142 7.58579
      vertex 0 15.7654 7.15224
    endloop
  endfacet
  facet normal 0 -0.555646 -0.831419
    outer loop
      vertex 0 15.7654 10.8478
      vertex 31 16.4142 10.4142
      vertex 31 15.7654 10.8478
    endloop
  endfacet
  facet normal -0 -0.555646 -0.831419
    outer loop
      vertex 31 16.4142 10.4142
      vertex 0 15.7654 10.8478
      vertex 0 16.4142 10.4142
    endloop
  endfacet
  facet normal 0 0.555646 -0.831419
    outer loop
      vertex 0 13.5858 10.4142
      vertex 31 14.2346 10.8478
      vertex 31 13.5858 10.4142
    endloop
  endfacet
  facet normal 0 0.555646 -0.831419
    outer loop
      vertex 31 14.2346 10.8478
      vertex 0 13.5858 10.4142
      vertex 0 14.2346 10.8478
    endloop
  endfacet
  facet normal 0 0.831431 -0.555628
    outer loop
      vertex 31 13.1522 9.76537
      vertex 0 13.5858 10.4142
      vertex 31 13.5858 10.4142
    endloop
  endfacet
  facet normal 0 0.831431 -0.555628
    outer loop
      vertex 0 13.5858 10.4142
      vertex 31 13.1522 9.76537
      vertex 0 13.1522 9.76537
    endloop
  endfacet
  facet normal 0 0.195032 -0.980797
    outer loop
      vertex 0 14.2346 10.8478
      vertex 31 15 11
      vertex 31 14.2346 10.8478
    endloop
  endfacet
  facet normal 0 0.195032 -0.980797
    outer loop
      vertex 31 15 11
      vertex 0 14.2346 10.8478
      vertex 0 15 11
    endloop
  endfacet
  facet normal 0 -0.980795 0.195039
    outer loop
      vertex 0 16.8478 8.23463
      vertex 31 17 9
      vertex 0 17 9
    endloop
  endfacet
  facet normal 0 -0.980795 0.195039
    outer loop
      vertex 31 17 9
      vertex 0 16.8478 8.23463
      vertex 31 16.8478 8.23463
    endloop
  endfacet
  facet normal 0 -0.195032 -0.980797
    outer loop
      vertex 0 15 11
      vertex 31 15.7654 10.8478
      vertex 31 15 11
    endloop
  endfacet
  facet normal -0 -0.195032 -0.980797
    outer loop
      vertex 31 15.7654 10.8478
      vertex 0 15 11
      vertex 0 15.7654 10.8478
    endloop
  endfacet
  facet normal 0 -0.831435 0.555622
    outer loop
      vertex 0 16.4142 7.58579
      vertex 31 16.8478 8.23463
      vertex 0 16.8478 8.23463
    endloop
  endfacet
  facet normal 0 -0.831435 0.555622
    outer loop
      vertex 31 16.8478 8.23463
      vertex 0 16.4142 7.58579
      vertex 31 16.4142 7.58579
    endloop
  endfacet
  facet normal -1 0 0
    outer loop
      vertex 31 16.8478 8.23463
      vertex 31 16.8478 9.76537
      vertex 31 17 9
    endloop
  endfacet
  facet normal -1 0 0
    outer loop
      vertex 31 16.4142 7.58579
      vertex 31 16.8478 9.76537
      vertex 31 16.8478 8.23463
    endloop
  endfacet
  facet normal -1 0 0
    outer loop
      vertex 31 16.4142 7.58579
      vertex 31 16.4142 10.4142
      vertex 31 16.8478 9.76537
    endloop
  endfacet
  facet normal -1 0 0
    outer loop
      vertex 31 15.7654 7.15224
      vertex 31 16.4142 10.4142
      vertex 31 16.4142 7.58579
    endloop
  endfacet
  facet normal -1 0 0
    outer loop
      vertex 31 15.7654 7.15224
      vertex 31 15.7654 10.8478
      vertex 31 16.4142 10.4142
    endloop
  endfacet
  facet normal -1 0 0
    outer loop
      vertex 31 15 7
      vertex 31 15.7654 10.8478
      vertex 31 15.7654 7.15224
    endloop
  endfacet
  facet normal -1 0 0
    outer loop
      vertex 31 15 7
      vertex 31 15 11
      vertex 31 15.7654 10.8478
    endloop
  endfacet
  facet normal -1 0 0
    outer loop
      vertex 31 14.2346 7.15224
      vertex 31 15 11
      vertex 31 15 7
    endloop
  endfacet
  facet normal -1 0 0
    outer loop
      vertex 31 14.2346 7.15224
      vertex 31 14.2346 10.8478
      vertex 31 15 11
    endloop
  endfacet
  facet normal -1 0 0
    outer loop
      vertex 31 13.5858 7.58579
      vertex 31 14.2346 10.8478
      vertex 31 14.2346 7.15224
    endloop
  endfacet
  facet normal -1 0 0
    outer loop
      vertex 31 13.5858 7.58579
      vertex 31 13.5858 10.4142
      vertex 31 14.2346 10.8478
    endloop
  endfacet
  facet normal -1 0 0
    outer loop
      vertex 31 13.1522 8.23463
      vertex 31 13.5858 10.4142
      vertex 31 13.5858 7.58579
    endloop
  endfacet
  facet normal -1 0 0
    outer loop
      vertex 31 13.1522 8.23463
      vertex 31 13.1522 9.76537
      vertex 31 13.5858 10.4142
    endloop
  endfacet
  facet normal -1 0 -0
    outer loop
      vertex 31 13.1522 9.76537
      vertex 31 13.1522 8.23463
      vertex 31 13 9
    endloop
  endfacet
  facet normal -1 0 0
    outer loop
      vertex 0 30 0
      vertex 0 17 9
      vertex 0 30 18
    endloop
  endfacet
  facet normal -1 0 0
    outer loop
      vertex 0 30 0
      vertex 0 16.8478 8.23463
      vertex 0 17 9
    endloop
  endfacet
  facet normal -1 0 0
    outer loop
      vertex 0 30 0
      vertex 0 16.4142 7.58579
      vertex 0 16.8478 8.23463
    endloop
  endfacet
  facet normal -1 0 0
    outer loop
      vertex 0 30 0
      vertex 0 15.7654 7.15224
      vertex 0 16.4142 7.58579
    endloop
  endfacet
  facet normal -1 0 0
    outer loop
      vertex 0 30 0
      vertex 0 15 7
      vertex 0 15.7654 7.15224
    endloop
  endfacet
  facet normal -1 0 0
    outer loop
      vertex 0 0 0
      vertex 0 15 7
      vertex 0 30 0
    endloop
  endfacet
  facet normal -1 -0 0
    outer loop
      vertex 0 13.1522 8.23463
      vertex 0 0 0
      vertex 0 13 9
    endloop
  endfacet
  facet normal -1 -0 0
    outer loop
      vertex 0 13.5858 7.58579
      vertex 0 0 0
      vertex 0 13.1522 8.23463
    endloop
  endfacet
  facet normal -1 -0 0
    outer loop
      vertex 0 14.2346 7.15224
      vertex 0 0 0
      vertex 0 13.5858 7.58579
    endloop
  endfacet
  facet normal -1 -0 0
    outer loop
      vertex 0 15 7
      vertex 0 0 0
      vertex 0 14.2346 7.15224
    endloop
  endfacet
  facet normal -1 0 0
    outer loop
      vertex 0 16.8478 9.76537
      vertex 0 30 18
      vertex 0 17 9
    endloop
  endfacet
  facet normal -1 0 0
    outer loop
      vertex 0 16.4142 10.4142
      vertex 0 30 18
      vertex 0 16.8478 9.76537
    endloop
  endfacet
  facet normal -1 0 0
    outer loop
      vertex 0 15.7654 10.8478
      vertex 0 30 18
      vertex 0 16.4142 10.4142
    endloop
  endfacet
  facet normal -1 0 0
    outer loop
      vertex 0 15 11
      vertex 0 30 18
      vertex 0 15.7654 10.8478
    endloop
  endfacet
  facet normal -1 0 0
    outer loop
      vertex 0 0 18
      vertex 0 15 11
      vertex 0 14.2346 10.8478
    endloop
  endfacet
  facet normal -1 0 0
    outer loop
      vertex 0 0 18
      vertex 0 13 9
      vertex 0 0 0
    endloop
  endfacet
  facet normal -1 0 0
    outer loop
      vertex 0 13 9
      vertex 0 0 18
      vertex 0 13.1522 9.76537
    endloop
  endfacet
  facet normal -1 0 0
    outer loop
      vertex 0 15 11
      vertex 0 0 18
      vertex 0 30 18
    endloop
  endfacet
  facet normal -1 0 0
    outer loop
      vertex 0 13.5858 10.4142
      vertex 0 0 18
      vertex 0 14.2346 10.8478
    endloop
  endfacet
  facet normal -1 0 0
    outer loop
      vertex 0 13.1522 9.76537
      vertex 0 0 18
      vertex 0 13.5858 10.4142
    endloop
  endfacet
  facet normal 0 0.831435 0.555622
    outer loop
      vertex 31 13.5858 7.58579
      vertex 0 13.1522 8.23463
      vertex 31 13.1522 8.23463
    endloop
  endfacet
  facet normal 0 0.831435 0.555622
    outer loop
      vertex 0 13.1522 8.23463
      vertex 31 13.5858 7.58579
      vertex 0 13.5858 7.58579
    endloop
  endfacet
  facet normal 0 0.980795 0.195039
    outer loop
      vertex 31 13.1522 8.23463
      vertex 0 13 9
      vertex 31 13 9
    endloop
  endfacet
  facet normal 0 0.980795 0.195039
    outer loop
      vertex 0 13 9
      vertex 31 13.1522 8.23463
      vertex 0 13.1522 8.23463
    endloop
  endfacet
  facet normal -0 0.195081 0.980787
    outer loop
      vertex 0 15 7
      vertex 31 14.2346 7.15224
      vertex 31 15 7
    endloop
  endfacet
  facet normal 0 0.195081 0.980787
    outer loop
      vertex 31 14.2346 7.15224
      vertex 0 15 7
      vertex 0 14.2346 7.15224
    endloop
  endfacet
  facet normal -0 0.555602 0.831448
    outer loop
      vertex 0 14.2346 7.15224
      vertex 31 13.5858 7.58579
      vertex 31 14.2346 7.15224
    endloop
  endfacet
  facet normal 0 0.555602 0.831448
    outer loop
      vertex 31 13.5858 7.58579
      vertex 0 14.2346 7.15224
      vertex 0 13.5858 7.58579
    endloop
  endfacet
  facet normal 0 0.980795 -0.195039
    outer loop
      vertex 564 13 9
      vertex 533 13.1522 9.76537
      vertex 564 13.1522 9.76537
    endloop
  endfacet
  facet normal 0 0.980795 -0.195039
    outer loop
      vertex 533 13.1522 9.76537
      vertex 564 13 9
      vertex 533 13 9
    endloop
  endfacet
  facet normal 0 0.831431 -0.555628
    outer loop
      vertex 564 13.1522 9.76537
      vertex 533 13.5858 10.4142
      vertex 564 13.5858 10.4142
    endloop
  endfacet
  facet normal 0 0.831431 -0.555628
    outer loop
      vertex 533 13.5858 10.4142
      vertex 564 13.1522 9.76537
      vertex 533 13.1522 9.76537
    endloop
  endfacet
  facet normal 0 -0.980795 0.195039
    outer loop
      vertex 533 16.8478 8.23463
      vertex 564 17 9
      vertex 533 17 9
    endloop
  endfacet
  facet normal 0 -0.980795 0.195039
    outer loop
      vertex 564 17 9
      vertex 533 16.8478 8.23463
      vertex 564 16.8478 8.23463
    endloop
  endfacet
  facet normal 0 -0.195032 -0.980797
    outer loop
      vertex 533 15 11
      vertex 564 15.7654 10.8478
      vertex 564 15 11
    endloop
  endfacet
  facet normal -0 -0.195032 -0.980797
    outer loop
      vertex 564 15.7654 10.8478
      vertex 533 15 11
      vertex 533 15.7654 10.8478
    endloop
  endfacet
  facet normal -0 0.555602 0.831448
    outer loop
      vertex 533 14.2346 7.15224
      vertex 564 13.5858 7.58579
      vertex 564 14.2346 7.15224
    endloop
  endfacet
  facet normal 0 0.555602 0.831448
    outer loop
      vertex 564 13.5858 7.58579
      vertex 533 14.2346 7.15224
      vertex 533 13.5858 7.58579
    endloop
  endfacet
  facet normal 0 -0.555602 0.831448
    outer loop
      vertex 533 16.4142 7.58579
      vertex 564 15.7654 7.15224
      vertex 564 16.4142 7.58579
    endloop
  endfacet
  facet normal 0 -0.555602 0.831448
    outer loop
      vertex 564 15.7654 7.15224
      vertex 533 16.4142 7.58579
      vertex 533 15.7654 7.15224
    endloop
  endfacet
  facet normal 0 -0.831431 -0.555628
    outer loop
      vertex 533 16.8478 9.76537
      vertex 564 16.4142 10.4142
      vertex 533 16.4142 10.4142
    endloop
  endfacet
  facet normal 0 -0.831431 -0.555628
    outer loop
      vertex 564 16.4142 10.4142
      vertex 533 16.8478 9.76537
      vertex 564 16.8478 9.76537
    endloop
  endfacet
  facet normal 0 -0.555646 -0.831419
    outer loop
      vertex 533 15.7654 10.8478
      vertex 564 16.4142 10.4142
      vertex 564 15.7654 10.8478
    endloop
  endfacet
  facet normal -0 -0.555646 -0.831419
    outer loop
      vertex 564 16.4142 10.4142
      vertex 533 15.7654 10.8478
      vertex 533 16.4142 10.4142
    endloop
  endfacet
  facet normal 1 0 0
    outer loop
      vertex 564 30 18
      vertex 564 17 9
      vertex 564 30 0
    endloop
  endfacet
  facet normal 1 0 0
    outer loop
      vertex 564 30 18
      vertex 564 16.8478 9.76537
      vertex 564 17 9
    endloop
  endfacet
  facet normal 1 0 0
    outer loop
      vertex 564 30 18
      vertex 564 16.4142 10.4142
      vertex 564 16.8478 9.76537
    endloop
  endfacet
  facet normal 1 0 0
    outer loop
      vertex 564 30 18
      vertex 564 15.7654 10.8478
      vertex 564 16.4142 10.4142
    endloop
  endfacet
  facet normal 1 0 0
    outer loop
      vertex 564 30 18
      vertex 564 15 11
      vertex 564 15.7654 10.8478
    endloop
  endfacet
  facet normal 1 -0 0
    outer loop
      vertex 564 0 18
      vertex 564 15 11
      vertex 564 30 18
    endloop
  endfacet
  facet normal 1 0 0
    outer loop
      vertex 564 13.1522 9.76537
      vertex 564 0 18
      vertex 564 13 9
    endloop
  endfacet
  facet normal 1 0 0
    outer loop
      vertex 564 13.5858 10.4142
      vertex 564 0 18
      vertex 564 13.1522 9.76537
    endloop
  endfacet
  facet normal 1 0 0
    outer loop
      vertex 564 14.2346 10.8478
      vertex 564 0 18
      vertex 564 13.5858 10.4142
    endloop
  endfacet
  facet normal 1 0 0
    outer loop
      vertex 564 15 11
      vertex 564 0 18
      vertex 564 14.2346 10.8478
    endloop
  endfacet
  facet normal 1 -0 0
    outer loop
      vertex 564 16.8478 8.23463
      vertex 564 30 0
      vertex 564 17 9
    endloop
  endfacet
  facet normal 1 -0 0
    outer loop
      vertex 564 16.4142 7.58579
      vertex 564 30 0
      vertex 564 16.8478 8.23463
    endloop
  endfacet
  facet normal 1 -0 0
    outer loop
      vertex 564 15.7654 7.15224
      vertex 564 30 0
      vertex 564 16.4142 7.58579
    endloop
  endfacet
  facet normal 1 -0 0
    outer loop
      vertex 564 15 7
      vertex 564 30 0
      vertex 564 15.7654 7.15224
    endloop
  endfacet
  facet normal 1 0 0
    outer loop
      vertex 564 0 0
      vertex 564 15 7
      vertex 564 14.2346 7.15224
    endloop
  endfacet
  facet normal 1 0 0
    outer loop
      vertex 564 0 0
      vertex 564 13 9
      vertex 564 0 18
    endloop
  endfacet
  facet normal 1 0 0
    outer loop
      vertex 564 13 9
      vertex 564 0 0
      vertex 564 13.1522 8.23463
    endloop
  endfacet
  facet normal 1 0 0
    outer loop
      vertex 564 15 7
      vertex 564 0 0
      vertex 564 30 0
    endloop
  endfacet
  facet normal 1 0 0
    outer loop
      vertex 564 13.5858 7.58579
      vertex 564 0 0
      vertex 564 14.2346 7.15224
    endloop
  endfacet
  facet normal 1 0 0
    outer loop
      vertex 564 13.1522 8.23463
      vertex 564 0 0
      vertex 564 13.5858 7.58579
    endloop
  endfacet
  facet normal 1 0 0
    outer loop
      vertex 533 16.8478 9.76537
      vertex 533 16.8478 8.23463
      vertex 533 17 9
    endloop
  endfacet
  facet normal 1 0 0
    outer loop
      vertex 533 16.4142 10.4142
      vertex 533 16.8478 8.23463
      vertex 533 16.8478 9.76537
    endloop
  endfacet
  facet normal 1 0 0
    outer loop
      vertex 533 16.4142 10.4142
      vertex 533 16.4142 7.58579
      vertex 533 16.8478 8.23463
    endloop
  endfacet
  facet normal 1 0 0
    outer loop
      vertex 533 15.7654 10.8478
      vertex 533 16.4142 7.58579
      vertex 533 16.4142 10.4142
    endloop
  endfacet
  facet normal 1 0 0
    outer loop
      vertex 533 15.7654 10.8478
      vertex 533 15.7654 7.15224
      vertex 533 16.4142 7.58579
    endloop
  endfacet
  facet normal 1 0 0
    outer loop
      vertex 533 15 11
      vertex 533 15.7654 7.15224
      vertex 533 15.7654 10.8478
    endloop
  endfacet
  facet normal 1 0 0
    outer loop
      vertex 533 15 11
      vertex 533 15 7
      vertex 533 15.7654 7.15224
    endloop
  endfacet
  facet normal 1 -0 0
    outer loop
      vertex 533 14.2346 10.8478
      vertex 533 15 7
      vertex 533 15 11
    endloop
  endfacet
  facet normal 1 0 0
    outer loop
      vertex 533 14.2346 10.8478
      vertex 533 14.2346 7.15224
      vertex 533 15 7
    endloop
  endfacet
  facet normal 1 -0 0
    outer loop
      vertex 533 13.5858 10.4142
      vertex 533 14.2346 7.15224
      vertex 533 14.2346 10.8478
    endloop
  endfacet
  facet normal 1 0 0
    outer loop
      vertex 533 13.5858 10.4142
      vertex 533 13.5858 7.58579
      vertex 533 14.2346 7.15224
    endloop
  endfacet
  facet normal 1 -0 0
    outer loop
      vertex 533 13.1522 9.76537
      vertex 533 13.5858 7.58579
      vertex 533 13.5858 10.4142
    endloop
  endfacet
  facet normal 1 0 0
    outer loop
      vertex 533 13.1522 9.76537
      vertex 533 13.1522 8.23463
      vertex 533 13.5858 7.58579
    endloop
  endfacet
  facet normal 1 0 -0
    outer loop
      vertex 533 13.1522 8.23463
      vertex 533 13.1522 9.76537
      vertex 533 13 9
    endloop
  endfacet
  facet normal 0 -0.831435 0.555622
    outer loop
      vertex 533 16.4142 7.58579
      vertex 564 16.8478 8.23463
      vertex 533 16.8478 8.23463
    endloop
  endfacet
  facet normal 0 -0.831435 0.555622
    outer loop
      vertex 564 16.8478 8.23463
      vertex 533 16.4142 7.58579
      vertex 564 16.4142 7.58579
    endloop
  endfacet
  facet normal 0 0.555646 -0.831419
    outer loop
      vertex 533 13.5858 10.4142
      vertex 564 14.2346 10.8478
      vertex 564 13.5858 10.4142
    endloop
  endfacet
  facet normal 0 0.555646 -0.831419
    outer loop
      vertex 564 14.2346 10.8478
      vertex 533 13.5858 10.4142
      vertex 533 14.2346 10.8478
    endloop
  endfacet
  facet normal 0 0.195032 -0.980797
    outer loop
      vertex 533 14.2346 10.8478
      vertex 564 15 11
      vertex 564 14.2346 10.8478
    endloop
  endfacet
  facet normal 0 0.195032 -0.980797
    outer loop
      vertex 564 15 11
      vertex 533 14.2346 10.8478
      vertex 533 15 11
    endloop
  endfacet
  facet normal 0 -0.980795 -0.195039
    outer loop
      vertex 533 17 9
      vertex 564 16.8478 9.76537
      vertex 533 16.8478 9.76537
    endloop
  endfacet
  facet normal 0 -0.980795 -0.195039
    outer loop
      vertex 564 16.8478 9.76537
      vertex 533 17 9
      vertex 564 17 9
    endloop
  endfacet
  facet normal 0 0.831435 0.555622
    outer loop
      vertex 564 13.5858 7.58579
      vertex 533 13.1522 8.23463
      vertex 564 13.1522 8.23463
    endloop
  endfacet
  facet normal 0 0.831435 0.555622
    outer loop
      vertex 533 13.1522 8.23463
      vertex 564 13.5858 7.58579
      vertex 533 13.5858 7.58579
    endloop
  endfacet
  facet normal 0 0.980795 0.195039
    outer loop
      vertex 564 13.1522 8.23463
      vertex 533 13 9
      vertex 564 13 9
    endloop
  endfacet
  facet normal 0 0.980795 0.195039
    outer loop
      vertex 533 13 9
      vertex 564 13.1522 8.23463
      vertex 533 13.1522 8.23463
    endloop
  endfacet
  facet normal 0 -0.195081 0.980787
    outer loop
      vertex 533 15.7654 7.15224
      vertex 564 15 7
      vertex 564 15.7654 7.15224
    endloop
  endfacet
  facet normal 0 -0.195081 0.980787
    outer loop
      vertex 564 15 7
      vertex 533 15.7654 7.15224
      vertex 533 15 7
    endloop
  endfacet
  facet normal -0 0.195081 0.980787
    outer loop
      vertex 533 15 7
      vertex 564 14.2346 7.15224
      vertex 564 15 7
    endloop
  endfacet
  facet normal 0 0.195081 0.980787
    outer loop
      vertex 564 14.2346 7.15224
      vertex 533 15 7
      vertex 533 14.2346 7.15224
    endloop
  endfacet
  facet normal 0 -1 0
    outer loop
      vertex 0 0 0
      vertex 564 0 18
      vertex 0 0 18
    endloop
  endfacet
  facet normal 0 -1 -0
    outer loop
      vertex 564 0 18
      vertex 0 0 0
      vertex 564 0 0
    endloop
  endfacet
  facet normal 0 1 -0
    outer loop
      vertex 564 30 0
      vertex 0 30 18
      vertex 564 30 18
    endloop
  endfacet
  facet normal 0 1 0
    outer loop
      vertex 0 30 18
      vertex 564 30 0
      vertex 0 30 0
    endloop
  endfacet
  facet normal 0 0 -1
    outer loop
      vertex 0 0 0
      vertex 564 30 0
      vertex 564 0 0
    endloop
  endfacet
  facet normal -0 0 -1
    outer loop
      vertex 564 30 0
      vertex 0 0 0
      vertex 0 30 0
    endloop
  endfacet
  facet normal -0 0 1
    outer loop
      vertex 0 30 18
      vertex 564 0 18
      vertex 564 30 18
    endloop
  endfacet
  facet normal 0 0 1
    outer loop
      vertex 564 0 18
      vertex 0 30 18
      vertex 0 0 18
    endloop
  endfacet
endsolid OpenSCAD_Model
