  0
SECTION
  2
BLOCKS
  0
ENDSEC
  0
SECTION
  2
ENTITIES
  0
LINE
  8
0
 10
0
 20
0
 11
2300
 21
0
  0
LINE
  8
0
 10
2300
 20
0
 11
2300
 21
230
  0
LINE
  8
0
 10
2300
 20
230
 11
0
 21
230
  0
LINE
  8
0
 10
0
 20
230
 11
0
 21
0
  0
LINE
  8
0
 10
7
 20
50
 11
7.15224
 21
50.7654
  0
LINE
  8
0
 10
7.15224
 20
50.7654
 11
7.58579
 21
51.4142
  0
LINE
  8
0
 10
7.58579
 20
51.4142
 11
8.23463
 21
51.8478
  0
LINE
  8
0
 10
8.23463
 20
51.8478
 11
9
 21
52
  0
LINE
  8
0
 10
9
 20
52
 11
9.76537
 21
51.8478
  0
LINE
  8
0
 10
9.76537
 20
51.8478
 11
10.4142
 21
51.4142
  0
LINE
  8
0
 10
10.4142
 20
51.4142
 11
10.8478
 21
50.7654
  0
LINE
  8
0
 10
10.8478
 20
50.7654
 11
11
 21
50
  0
LINE
  8
0
 10
11
 20
50
 11
10.8478
 21
49.2346
  0
LINE
  8
0
 10
10.8478
 20
49.2346
 11
10.4142
 21
48.5858
  0
LINE
  8
0
 10
10.4142
 20
48.5858
 11
9.76537
 21
48.1522
  0
LINE
  8
0
 10
9.76537
 20
48.1522
 11
9
 21
48
  0
LINE
  8
0
 10
9
 20
48
 11
8.23463
 21
48.1522
  0
LINE
  8
0
 10
8.23463
 20
48.1522
 11
7.58579
 21
48.5858
  0
LINE
  8
0
 10
7.58579
 20
48.5858
 11
7.15224
 21
49.2346
  0
LINE
  8
0
 10
7.15224
 20
49.2346
 11
7
 21
50
  0
LINE
  8
0
 10
7
 20
180
 11
7.15224
 21
180.765
  0
LINE
  8
0
 10
7.15224
 20
180.765
 11
7.58579
 21
181.414
  0
LINE
  8
0
 10
7.58579
 20
181.414
 11
8.23463
 21
181.848
  0
LINE
  8
0
 10
8.23463
 20
181.848
 11
9
 21
182
  0
LINE
  8
0
 10
9
 20
182
 11
9.76537
 21
181.848
  0
LINE
  8
0
 10
9.76537
 20
181.848
 11
10.4142
 21
181.414
  0
LINE
  8
0
 10
10.4142
 20
181.414
 11
10.8478
 21
180.765
  0
LINE
  8
0
 10
10.8478
 20
180.765
 11
11
 21
180
  0
LINE
  8
0
 10
11
 20
180
 11
10.8478
 21
179.235
  0
LINE
  8
0
 10
10.8478
 20
179.235
 11
10.4142
 21
178.586
  0
LINE
  8
0
 10
10.4142
 20
178.586
 11
9.76537
 21
178.152
  0
LINE
  8
0
 10
9.76537
 20
178.152
 11
9
 21
178
  0
LINE
  8
0
 10
9
 20
178
 11
8.23463
 21
178.152
  0
LINE
  8
0
 10
8.23463
 20
178.152
 11
7.58579
 21
178.586
  0
LINE
  8
0
 10
7.58579
 20
178.586
 11
7.15224
 21
179.235
  0
LINE
  8
0
 10
7.15224
 20
179.235
 11
7
 21
180
  0
LINE
  8
0
 10
99.25
 20
6.5
 11
99.3451
 21
6.97835
  0
LINE
  8
0
 10
99.3451
 20
6.97835
 11
99.6161
 21
7.38388
  0
LINE
  8
0
 10
99.6161
 20
7.38388
 11
100.022
 21
7.65485
  0
LINE
  8
0
 10
100.022
 20
7.65485
 11
100.5
 21
7.75
  0
LINE
  8
0
 10
100.5
 20
7.75
 11
100.978
 21
7.65485
  0
LINE
  8
0
 10
100.978
 20
7.65485
 11
101.384
 21
7.38388
  0
LINE
  8
0
 10
101.384
 20
7.38388
 11
101.655
 21
6.97835
  0
LINE
  8
0
 10
101.655
 20
6.97835
 11
101.75
 21
6.5
  0
LINE
  8
0
 10
101.75
 20
6.5
 11
101.655
 21
6.02165
  0
LINE
  8
0
 10
101.655
 20
6.02165
 11
101.384
 21
5.61612
  0
LINE
  8
0
 10
101.384
 20
5.61612
 11
100.978
 21
5.34515
  0
LINE
  8
0
 10
100.978
 20
5.34515
 11
100.5
 21
5.25
  0
LINE
  8
0
 10
100.5
 20
5.25
 11
100.022
 21
5.34515
  0
LINE
  8
0
 10
100.022
 20
5.34515
 11
99.6161
 21
5.61612
  0
LINE
  8
0
 10
99.6161
 20
5.61612
 11
99.3451
 21
6.02165
  0
LINE
  8
0
 10
99.3451
 20
6.02165
 11
99.25
 21
6.5
  0
LINE
  8
0
 10
99.25
 20
35
 11
99.3451
 21
35.4784
  0
LINE
  8
0
 10
99.3451
 20
35.4784
 11
99.6161
 21
35.8839
  0
LINE
  8
0
 10
99.6161
 20
35.8839
 11
100.022
 21
36.1548
  0
LINE
  8
0
 10
100.022
 20
36.1548
 11
100.5
 21
36.25
  0
LINE
  8
0
 10
100.5
 20
36.25
 11
100.978
 21
36.1548
  0
LINE
  8
0
 10
100.978
 20
36.1548
 11
101.384
 21
35.8839
  0
LINE
  8
0
 10
101.384
 20
35.8839
 11
101.655
 21
35.4784
  0
LINE
  8
0
 10
101.655
 20
35.4784
 11
101.75
 21
35
  0
LINE
  8
0
 10
101.75
 20
35
 11
101.655
 21
34.5216
  0
LINE
  8
0
 10
101.655
 20
34.5216
 11
101.384
 21
34.1161
  0
LINE
  8
0
 10
101.384
 20
34.1161
 11
100.978
 21
33.8451
  0
LINE
  8
0
 10
100.978
 20
33.8451
 11
100.5
 21
33.75
  0
LINE
  8
0
 10
100.5
 20
33.75
 11
100.022
 21
33.8451
  0
LINE
  8
0
 10
100.022
 20
33.8451
 11
99.6161
 21
34.1161
  0
LINE
  8
0
 10
99.6161
 20
34.1161
 11
99.3451
 21
34.5216
  0
LINE
  8
0
 10
99.3451
 20
34.5216
 11
99.25
 21
35
  0
LINE
  8
0
 10
99.25
 20
51
 11
99.3451
 21
51.4784
  0
LINE
  8
0
 10
99.3451
 20
51.4784
 11
99.6161
 21
51.8839
  0
LINE
  8
0
 10
99.6161
 20
51.8839
 11
100.022
 21
52.1548
  0
LINE
  8
0
 10
100.022
 20
52.1548
 11
100.5
 21
52.25
  0
LINE
  8
0
 10
100.5
 20
52.25
 11
100.978
 21
52.1548
  0
LINE
  8
0
 10
100.978
 20
52.1548
 11
101.384
 21
51.8839
  0
LINE
  8
0
 10
101.384
 20
51.8839
 11
101.655
 21
51.4784
  0
LINE
  8
0
 10
101.655
 20
51.4784
 11
101.75
 21
51
  0
LINE
  8
0
 10
101.75
 20
51
 11
101.655
 21
50.5216
  0
LINE
  8
0
 10
101.655
 20
50.5216
 11
101.384
 21
50.1161
  0
LINE
  8
0
 10
101.384
 20
50.1161
 11
100.978
 21
49.8451
  0
LINE
  8
0
 10
100.978
 20
49.8451
 11
100.5
 21
49.75
  0
LINE
  8
0
 10
100.5
 20
49.75
 11
100.022
 21
49.8451
  0
LINE
  8
0
 10
100.022
 20
49.8451
 11
99.6161
 21
50.1161
  0
LINE
  8
0
 10
99.6161
 20
50.1161
 11
99.3451
 21
50.5216
  0
LINE
  8
0
 10
99.3451
 20
50.5216
 11
99.25
 21
51
  0
LINE
  8
0
 10
99.25
 20
76
 11
99.3451
 21
76.4784
  0
LINE
  8
0
 10
99.3451
 20
76.4784
 11
99.6161
 21
76.8839
  0
LINE
  8
0
 10
99.6161
 20
76.8839
 11
100.022
 21
77.1548
  0
LINE
  8
0
 10
100.022
 20
77.1548
 11
100.5
 21
77.25
  0
LINE
  8
0
 10
100.5
 20
77.25
 11
100.978
 21
77.1548
  0
LINE
  8
0
 10
100.978
 20
77.1548
 11
101.384
 21
76.8839
  0
LINE
  8
0
 10
101.384
 20
76.8839
 11
101.655
 21
76.4784
  0
LINE
  8
0
 10
101.655
 20
76.4784
 11
101.75
 21
76
  0
LINE
  8
0
 10
101.75
 20
76
 11
101.655
 21
75.5216
  0
LINE
  8
0
 10
101.655
 20
75.5216
 11
101.384
 21
75.1161
  0
LINE
  8
0
 10
101.384
 20
75.1161
 11
100.978
 21
74.8451
  0
LINE
  8
0
 10
100.978
 20
74.8451
 11
100.5
 21
74.75
  0
LINE
  8
0
 10
100.5
 20
74.75
 11
100.022
 21
74.8451
  0
LINE
  8
0
 10
100.022
 20
74.8451
 11
99.6161
 21
75.1161
  0
LINE
  8
0
 10
99.6161
 20
75.1161
 11
99.3451
 21
75.5216
  0
LINE
  8
0
 10
99.3451
 20
75.5216
 11
99.25
 21
76
  0
LINE
  8
0
 10
99.25
 20
99
 11
99.3451
 21
99.4784
  0
LINE
  8
0
 10
99.3451
 20
99.4784
 11
99.6161
 21
99.8839
  0
LINE
  8
0
 10
99.6161
 20
99.8839
 11
100.022
 21
100.155
  0
LINE
  8
0
 10
100.022
 20
100.155
 11
100.5
 21
100.25
  0
LINE
  8
0
 10
100.5
 20
100.25
 11
100.978
 21
100.155
  0
LINE
  8
0
 10
100.978
 20
100.155
 11
101.384
 21
99.8839
  0
LINE
  8
0
 10
101.384
 20
99.8839
 11
101.655
 21
99.4784
  0
LINE
  8
0
 10
101.655
 20
99.4784
 11
101.75
 21
99
  0
LINE
  8
0
 10
101.75
 20
99
 11
101.655
 21
98.5216
  0
LINE
  8
0
 10
101.655
 20
98.5216
 11
101.384
 21
98.1161
  0
LINE
  8
0
 10
101.384
 20
98.1161
 11
100.978
 21
97.8451
  0
LINE
  8
0
 10
100.978
 20
97.8451
 11
100.5
 21
97.75
  0
LINE
  8
0
 10
100.5
 20
97.75
 11
100.022
 21
97.8451
  0
LINE
  8
0
 10
100.022
 20
97.8451
 11
99.6161
 21
98.1161
  0
LINE
  8
0
 10
99.6161
 20
98.1161
 11
99.3451
 21
98.5216
  0
LINE
  8
0
 10
99.3451
 20
98.5216
 11
99.25
 21
99
  0
LINE
  8
0
 10
99.25
 20
115
 11
99.3451
 21
115.478
  0
LINE
  8
0
 10
99.3451
 20
115.478
 11
99.6161
 21
115.884
  0
LINE
  8
0
 10
99.6161
 20
115.884
 11
100.022
 21
116.155
  0
LINE
  8
0
 10
100.022
 20
116.155
 11
100.5
 21
116.25
  0
LINE
  8
0
 10
100.5
 20
116.25
 11
100.978
 21
116.155
  0
LINE
  8
0
 10
100.978
 20
116.155
 11
101.384
 21
115.884
  0
LINE
  8
0
 10
101.384
 20
115.884
 11
101.655
 21
115.478
  0
LINE
  8
0
 10
101.655
 20
115.478
 11
101.75
 21
115
  0
LINE
  8
0
 10
101.75
 20
115
 11
101.655
 21
114.522
  0
LINE
  8
0
 10
101.655
 20
114.522
 11
101.384
 21
114.116
  0
LINE
  8
0
 10
101.384
 20
114.116
 11
100.978
 21
113.845
  0
LINE
  8
0
 10
100.978
 20
113.845
 11
100.5
 21
113.75
  0
LINE
  8
0
 10
100.5
 20
113.75
 11
100.022
 21
113.845
  0
LINE
  8
0
 10
100.022
 20
113.845
 11
99.6161
 21
114.116
  0
LINE
  8
0
 10
99.6161
 20
114.116
 11
99.3451
 21
114.522
  0
LINE
  8
0
 10
99.3451
 20
114.522
 11
99.25
 21
115
  0
LINE
  8
0
 10
309.25
 20
6.5
 11
309.345
 21
6.97835
  0
LINE
  8
0
 10
309.345
 20
6.97835
 11
309.616
 21
7.38388
  0
LINE
  8
0
 10
309.616
 20
7.38388
 11
310.022
 21
7.65485
  0
LINE
  8
0
 10
310.022
 20
7.65485
 11
310.5
 21
7.75
  0
LINE
  8
0
 10
310.5
 20
7.75
 11
310.978
 21
7.65485
  0
LINE
  8
0
 10
310.978
 20
7.65485
 11
311.384
 21
7.38388
  0
LINE
  8
0
 10
311.384
 20
7.38388
 11
311.655
 21
6.97835
  0
LINE
  8
0
 10
311.655
 20
6.97835
 11
311.75
 21
6.5
  0
LINE
  8
0
 10
311.75
 20
6.5
 11
311.655
 21
6.02165
  0
LINE
  8
0
 10
311.655
 20
6.02165
 11
311.384
 21
5.61612
  0
LINE
  8
0
 10
311.384
 20
5.61612
 11
310.978
 21
5.34515
  0
LINE
  8
0
 10
310.978
 20
5.34515
 11
310.5
 21
5.25
  0
LINE
  8
0
 10
310.5
 20
5.25
 11
310.022
 21
5.34515
  0
LINE
  8
0
 10
310.022
 20
5.34515
 11
309.616
 21
5.61612
  0
LINE
  8
0
 10
309.616
 20
5.61612
 11
309.345
 21
6.02165
  0
LINE
  8
0
 10
309.345
 20
6.02165
 11
309.25
 21
6.5
  0
LINE
  8
0
 10
309.25
 20
35
 11
309.345
 21
35.4784
  0
LINE
  8
0
 10
309.345
 20
35.4784
 11
309.616
 21
35.8839
  0
LINE
  8
0
 10
309.616
 20
35.8839
 11
310.022
 21
36.1548
  0
LINE
  8
0
 10
310.022
 20
36.1548
 11
310.5
 21
36.25
  0
LINE
  8
0
 10
310.5
 20
36.25
 11
310.978
 21
36.1548
  0
LINE
  8
0
 10
310.978
 20
36.1548
 11
311.384
 21
35.8839
  0
LINE
  8
0
 10
311.384
 20
35.8839
 11
311.655
 21
35.4784
  0
LINE
  8
0
 10
311.655
 20
35.4784
 11
311.75
 21
35
  0
LINE
  8
0
 10
311.75
 20
35
 11
311.655
 21
34.5216
  0
LINE
  8
0
 10
311.655
 20
34.5216
 11
311.384
 21
34.1161
  0
LINE
  8
0
 10
311.384
 20
34.1161
 11
310.978
 21
33.8451
  0
LINE
  8
0
 10
310.978
 20
33.8451
 11
310.5
 21
33.75
  0
LINE
  8
0
 10
310.5
 20
33.75
 11
310.022
 21
33.8451
  0
LINE
  8
0
 10
310.022
 20
33.8451
 11
309.616
 21
34.1161
  0
LINE
  8
0
 10
309.616
 20
34.1161
 11
309.345
 21
34.5216
  0
LINE
  8
0
 10
309.345
 20
34.5216
 11
309.25
 21
35
  0
LINE
  8
0
 10
309.25
 20
51
 11
309.345
 21
51.4784
  0
LINE
  8
0
 10
309.345
 20
51.4784
 11
309.616
 21
51.8839
  0
LINE
  8
0
 10
309.616
 20
51.8839
 11
310.022
 21
52.1548
  0
LINE
  8
0
 10
310.022
 20
52.1548
 11
310.5
 21
52.25
  0
LINE
  8
0
 10
310.5
 20
52.25
 11
310.978
 21
52.1548
  0
LINE
  8
0
 10
310.978
 20
52.1548
 11
311.384
 21
51.8839
  0
LINE
  8
0
 10
311.384
 20
51.8839
 11
311.655
 21
51.4784
  0
LINE
  8
0
 10
311.655
 20
51.4784
 11
311.75
 21
51
  0
LINE
  8
0
 10
311.75
 20
51
 11
311.655
 21
50.5216
  0
LINE
  8
0
 10
311.655
 20
50.5216
 11
311.384
 21
50.1161
  0
LINE
  8
0
 10
311.384
 20
50.1161
 11
310.978
 21
49.8451
  0
LINE
  8
0
 10
310.978
 20
49.8451
 11
310.5
 21
49.75
  0
LINE
  8
0
 10
310.5
 20
49.75
 11
310.022
 21
49.8451
  0
LINE
  8
0
 10
310.022
 20
49.8451
 11
309.616
 21
50.1161
  0
LINE
  8
0
 10
309.616
 20
50.1161
 11
309.345
 21
50.5216
  0
LINE
  8
0
 10
309.345
 20
50.5216
 11
309.25
 21
51
  0
LINE
  8
0
 10
309.25
 20
76
 11
309.345
 21
76.4784
  0
LINE
  8
0
 10
309.345
 20
76.4784
 11
309.616
 21
76.8839
  0
LINE
  8
0
 10
309.616
 20
76.8839
 11
310.022
 21
77.1548
  0
LINE
  8
0
 10
310.022
 20
77.1548
 11
310.5
 21
77.25
  0
LINE
  8
0
 10
310.5
 20
77.25
 11
310.978
 21
77.1548
  0
LINE
  8
0
 10
310.978
 20
77.1548
 11
311.384
 21
76.8839
  0
LINE
  8
0
 10
311.384
 20
76.8839
 11
311.655
 21
76.4784
  0
LINE
  8
0
 10
311.655
 20
76.4784
 11
311.75
 21
76
  0
LINE
  8
0
 10
311.75
 20
76
 11
311.655
 21
75.5216
  0
LINE
  8
0
 10
311.655
 20
75.5216
 11
311.384
 21
75.1161
  0
LINE
  8
0
 10
311.384
 20
75.1161
 11
310.978
 21
74.8451
  0
LINE
  8
0
 10
310.978
 20
74.8451
 11
310.5
 21
74.75
  0
LINE
  8
0
 10
310.5
 20
74.75
 11
310.022
 21
74.8451
  0
LINE
  8
0
 10
310.022
 20
74.8451
 11
309.616
 21
75.1161
  0
LINE
  8
0
 10
309.616
 20
75.1161
 11
309.345
 21
75.5216
  0
LINE
  8
0
 10
309.345
 20
75.5216
 11
309.25
 21
76
  0
LINE
  8
0
 10
309.25
 20
99
 11
309.345
 21
99.4784
  0
LINE
  8
0
 10
309.345
 20
99.4784
 11
309.616
 21
99.8839
  0
LINE
  8
0
 10
309.616
 20
99.8839
 11
310.022
 21
100.155
  0
LINE
  8
0
 10
310.022
 20
100.155
 11
310.5
 21
100.25
  0
LINE
  8
0
 10
310.5
 20
100.25
 11
310.978
 21
100.155
  0
LINE
  8
0
 10
310.978
 20
100.155
 11
311.384
 21
99.8839
  0
LINE
  8
0
 10
311.384
 20
99.8839
 11
311.655
 21
99.4784
  0
LINE
  8
0
 10
311.655
 20
99.4784
 11
311.75
 21
99
  0
LINE
  8
0
 10
311.75
 20
99
 11
311.655
 21
98.5216
  0
LINE
  8
0
 10
311.655
 20
98.5216
 11
311.384
 21
98.1161
  0
LINE
  8
0
 10
311.384
 20
98.1161
 11
310.978
 21
97.8451
  0
LINE
  8
0
 10
310.978
 20
97.8451
 11
310.5
 21
97.75
  0
LINE
  8
0
 10
310.5
 20
97.75
 11
310.022
 21
97.8451
  0
LINE
  8
0
 10
310.022
 20
97.8451
 11
309.616
 21
98.1161
  0
LINE
  8
0
 10
309.616
 20
98.1161
 11
309.345
 21
98.5216
  0
LINE
  8
0
 10
309.345
 20
98.5216
 11
309.25
 21
99
  0
LINE
  8
0
 10
309.25
 20
115
 11
309.345
 21
115.478
  0
LINE
  8
0
 10
309.345
 20
115.478
 11
309.616
 21
115.884
  0
LINE
  8
0
 10
309.616
 20
115.884
 11
310.022
 21
116.155
  0
LINE
  8
0
 10
310.022
 20
116.155
 11
310.5
 21
116.25
  0
LINE
  8
0
 10
310.5
 20
116.25
 11
310.978
 21
116.155
  0
LINE
  8
0
 10
310.978
 20
116.155
 11
311.384
 21
115.884
  0
LINE
  8
0
 10
311.384
 20
115.884
 11
311.655
 21
115.478
  0
LINE
  8
0
 10
311.655
 20
115.478
 11
311.75
 21
115
  0
LINE
  8
0
 10
311.75
 20
115
 11
311.655
 21
114.522
  0
LINE
  8
0
 10
311.655
 20
114.522
 11
311.384
 21
114.116
  0
LINE
  8
0
 10
311.384
 20
114.116
 11
310.978
 21
113.845
  0
LINE
  8
0
 10
310.978
 20
113.845
 11
310.5
 21
113.75
  0
LINE
  8
0
 10
310.5
 20
113.75
 11
310.022
 21
113.845
  0
LINE
  8
0
 10
310.022
 20
113.845
 11
309.616
 21
114.116
  0
LINE
  8
0
 10
309.616
 20
114.116
 11
309.345
 21
114.522
  0
LINE
  8
0
 10
309.345
 20
114.522
 11
309.25
 21
115
  0
LINE
  8
0
 10
519.25
 20
6.5
 11
519.345
 21
6.97835
  0
LINE
  8
0
 10
519.345
 20
6.97835
 11
519.616
 21
7.38388
  0
LINE
  8
0
 10
519.616
 20
7.38388
 11
520.022
 21
7.65485
  0
LINE
  8
0
 10
520.022
 20
7.65485
 11
520.5
 21
7.75
  0
LINE
  8
0
 10
520.5
 20
7.75
 11
520.978
 21
7.65485
  0
LINE
  8
0
 10
520.978
 20
7.65485
 11
521.384
 21
7.38388
  0
LINE
  8
0
 10
521.384
 20
7.38388
 11
521.655
 21
6.97835
  0
LINE
  8
0
 10
521.655
 20
6.97835
 11
521.75
 21
6.5
  0
LINE
  8
0
 10
521.75
 20
6.5
 11
521.655
 21
6.02165
  0
LINE
  8
0
 10
521.655
 20
6.02165
 11
521.384
 21
5.61612
  0
LINE
  8
0
 10
521.384
 20
5.61612
 11
520.978
 21
5.34515
  0
LINE
  8
0
 10
520.978
 20
5.34515
 11
520.5
 21
5.25
  0
LINE
  8
0
 10
520.5
 20
5.25
 11
520.022
 21
5.34515
  0
LINE
  8
0
 10
520.022
 20
5.34515
 11
519.616
 21
5.61612
  0
LINE
  8
0
 10
519.616
 20
5.61612
 11
519.345
 21
6.02165
  0
LINE
  8
0
 10
519.345
 20
6.02165
 11
519.25
 21
6.5
  0
LINE
  8
0
 10
519.25
 20
35
 11
519.345
 21
35.4784
  0
LINE
  8
0
 10
519.345
 20
35.4784
 11
519.616
 21
35.8839
  0
LINE
  8
0
 10
519.616
 20
35.8839
 11
520.022
 21
36.1548
  0
LINE
  8
0
 10
520.022
 20
36.1548
 11
520.5
 21
36.25
  0
LINE
  8
0
 10
520.5
 20
36.25
 11
520.978
 21
36.1548
  0
LINE
  8
0
 10
520.978
 20
36.1548
 11
521.384
 21
35.8839
  0
LINE
  8
0
 10
521.384
 20
35.8839
 11
521.655
 21
35.4784
  0
LINE
  8
0
 10
521.655
 20
35.4784
 11
521.75
 21
35
  0
LINE
  8
0
 10
521.75
 20
35
 11
521.655
 21
34.5216
  0
LINE
  8
0
 10
521.655
 20
34.5216
 11
521.384
 21
34.1161
  0
LINE
  8
0
 10
521.384
 20
34.1161
 11
520.978
 21
33.8451
  0
LINE
  8
0
 10
520.978
 20
33.8451
 11
520.5
 21
33.75
  0
LINE
  8
0
 10
520.5
 20
33.75
 11
520.022
 21
33.8451
  0
LINE
  8
0
 10
520.022
 20
33.8451
 11
519.616
 21
34.1161
  0
LINE
  8
0
 10
519.616
 20
34.1161
 11
519.345
 21
34.5216
  0
LINE
  8
0
 10
519.345
 20
34.5216
 11
519.25
 21
35
  0
LINE
  8
0
 10
519.25
 20
51
 11
519.345
 21
51.4784
  0
LINE
  8
0
 10
519.345
 20
51.4784
 11
519.616
 21
51.8839
  0
LINE
  8
0
 10
519.616
 20
51.8839
 11
520.022
 21
52.1548
  0
LINE
  8
0
 10
520.022
 20
52.1548
 11
520.5
 21
52.25
  0
LINE
  8
0
 10
520.5
 20
52.25
 11
520.978
 21
52.1548
  0
LINE
  8
0
 10
520.978
 20
52.1548
 11
521.384
 21
51.8839
  0
LINE
  8
0
 10
521.384
 20
51.8839
 11
521.655
 21
51.4784
  0
LINE
  8
0
 10
521.655
 20
51.4784
 11
521.75
 21
51
  0
LINE
  8
0
 10
521.75
 20
51
 11
521.655
 21
50.5216
  0
LINE
  8
0
 10
521.655
 20
50.5216
 11
521.384
 21
50.1161
  0
LINE
  8
0
 10
521.384
 20
50.1161
 11
520.978
 21
49.8451
  0
LINE
  8
0
 10
520.978
 20
49.8451
 11
520.5
 21
49.75
  0
LINE
  8
0
 10
520.5
 20
49.75
 11
520.022
 21
49.8451
  0
LINE
  8
0
 10
520.022
 20
49.8451
 11
519.616
 21
50.1161
  0
LINE
  8
0
 10
519.616
 20
50.1161
 11
519.345
 21
50.5216
  0
LINE
  8
0
 10
519.345
 20
50.5216
 11
519.25
 21
51
  0
LINE
  8
0
 10
519.25
 20
76
 11
519.345
 21
76.4784
  0
LINE
  8
0
 10
519.345
 20
76.4784
 11
519.616
 21
76.8839
  0
LINE
  8
0
 10
519.616
 20
76.8839
 11
520.022
 21
77.1548
  0
LINE
  8
0
 10
520.022
 20
77.1548
 11
520.5
 21
77.25
  0
LINE
  8
0
 10
520.5
 20
77.25
 11
520.978
 21
77.1548
  0
LINE
  8
0
 10
520.978
 20
77.1548
 11
521.384
 21
76.8839
  0
LINE
  8
0
 10
521.384
 20
76.8839
 11
521.655
 21
76.4784
  0
LINE
  8
0
 10
521.655
 20
76.4784
 11
521.75
 21
76
  0
LINE
  8
0
 10
521.75
 20
76
 11
521.655
 21
75.5216
  0
LINE
  8
0
 10
521.655
 20
75.5216
 11
521.384
 21
75.1161
  0
LINE
  8
0
 10
521.384
 20
75.1161
 11
520.978
 21
74.8451
  0
LINE
  8
0
 10
520.978
 20
74.8451
 11
520.5
 21
74.75
  0
LINE
  8
0
 10
520.5
 20
74.75
 11
520.022
 21
74.8451
  0
LINE
  8
0
 10
520.022
 20
74.8451
 11
519.616
 21
75.1161
  0
LINE
  8
0
 10
519.616
 20
75.1161
 11
519.345
 21
75.5216
  0
LINE
  8
0
 10
519.345
 20
75.5216
 11
519.25
 21
76
  0
LINE
  8
0
 10
519.25
 20
99
 11
519.345
 21
99.4784
  0
LINE
  8
0
 10
519.345
 20
99.4784
 11
519.616
 21
99.8839
  0
LINE
  8
0
 10
519.616
 20
99.8839
 11
520.022
 21
100.155
  0
LINE
  8
0
 10
520.022
 20
100.155
 11
520.5
 21
100.25
  0
LINE
  8
0
 10
520.5
 20
100.25
 11
520.978
 21
100.155
  0
LINE
  8
0
 10
520.978
 20
100.155
 11
521.384
 21
99.8839
  0
LINE
  8
0
 10
521.384
 20
99.8839
 11
521.655
 21
99.4784
  0
LINE
  8
0
 10
521.655
 20
99.4784
 11
521.75
 21
99
  0
LINE
  8
0
 10
521.75
 20
99
 11
521.655
 21
98.5216
  0
LINE
  8
0
 10
521.655
 20
98.5216
 11
521.384
 21
98.1161
  0
LINE
  8
0
 10
521.384
 20
98.1161
 11
520.978
 21
97.8451
  0
LINE
  8
0
 10
520.978
 20
97.8451
 11
520.5
 21
97.75
  0
LINE
  8
0
 10
520.5
 20
97.75
 11
520.022
 21
97.8451
  0
LINE
  8
0
 10
520.022
 20
97.8451
 11
519.616
 21
98.1161
  0
LINE
  8
0
 10
519.616
 20
98.1161
 11
519.345
 21
98.5216
  0
LINE
  8
0
 10
519.345
 20
98.5216
 11
519.25
 21
99
  0
LINE
  8
0
 10
519.25
 20
115
 11
519.345
 21
115.478
  0
LINE
  8
0
 10
519.345
 20
115.478
 11
519.616
 21
115.884
  0
LINE
  8
0
 10
519.616
 20
115.884
 11
520.022
 21
116.155
  0
LINE
  8
0
 10
520.022
 20
116.155
 11
520.5
 21
116.25
  0
LINE
  8
0
 10
520.5
 20
116.25
 11
520.978
 21
116.155
  0
LINE
  8
0
 10
520.978
 20
116.155
 11
521.384
 21
115.884
  0
LINE
  8
0
 10
521.384
 20
115.884
 11
521.655
 21
115.478
  0
LINE
  8
0
 10
521.655
 20
115.478
 11
521.75
 21
115
  0
LINE
  8
0
 10
521.75
 20
115
 11
521.655
 21
114.522
  0
LINE
  8
0
 10
521.655
 20
114.522
 11
521.384
 21
114.116
  0
LINE
  8
0
 10
521.384
 20
114.116
 11
520.978
 21
113.845
  0
LINE
  8
0
 10
520.978
 20
113.845
 11
520.5
 21
113.75
  0
LINE
  8
0
 10
520.5
 20
113.75
 11
520.022
 21
113.845
  0
LINE
  8
0
 10
520.022
 20
113.845
 11
519.616
 21
114.116
  0
LINE
  8
0
 10
519.616
 20
114.116
 11
519.345
 21
114.522
  0
LINE
  8
0
 10
519.345
 20
114.522
 11
519.25
 21
115
  0
LINE
  8
0
 10
729.25
 20
6.5
 11
729.345
 21
6.97835
  0
LINE
  8
0
 10
729.345
 20
6.97835
 11
729.616
 21
7.38388
  0
LINE
  8
0
 10
729.616
 20
7.38388
 11
730.022
 21
7.65485
  0
LINE
  8
0
 10
730.022
 20
7.65485
 11
730.5
 21
7.75
  0
LINE
  8
0
 10
730.5
 20
7.75
 11
730.978
 21
7.65485
  0
LINE
  8
0
 10
730.978
 20
7.65485
 11
731.384
 21
7.38388
  0
LINE
  8
0
 10
731.384
 20
7.38388
 11
731.655
 21
6.97835
  0
LINE
  8
0
 10
731.655
 20
6.97835
 11
731.75
 21
6.5
  0
LINE
  8
0
 10
731.75
 20
6.5
 11
731.655
 21
6.02165
  0
LINE
  8
0
 10
731.655
 20
6.02165
 11
731.384
 21
5.61612
  0
LINE
  8
0
 10
731.384
 20
5.61612
 11
730.978
 21
5.34515
  0
LINE
  8
0
 10
730.978
 20
5.34515
 11
730.5
 21
5.25
  0
LINE
  8
0
 10
730.5
 20
5.25
 11
730.022
 21
5.34515
  0
LINE
  8
0
 10
730.022
 20
5.34515
 11
729.616
 21
5.61612
  0
LINE
  8
0
 10
729.616
 20
5.61612
 11
729.345
 21
6.02165
  0
LINE
  8
0
 10
729.345
 20
6.02165
 11
729.25
 21
6.5
  0
LINE
  8
0
 10
729.25
 20
35
 11
729.345
 21
35.4784
  0
LINE
  8
0
 10
729.345
 20
35.4784
 11
729.616
 21
35.8839
  0
LINE
  8
0
 10
729.616
 20
35.8839
 11
730.022
 21
36.1548
  0
LINE
  8
0
 10
730.022
 20
36.1548
 11
730.5
 21
36.25
  0
LINE
  8
0
 10
730.5
 20
36.25
 11
730.978
 21
36.1548
  0
LINE
  8
0
 10
730.978
 20
36.1548
 11
731.384
 21
35.8839
  0
LINE
  8
0
 10
731.384
 20
35.8839
 11
731.655
 21
35.4784
  0
LINE
  8
0
 10
731.655
 20
35.4784
 11
731.75
 21
35
  0
LINE
  8
0
 10
731.75
 20
35
 11
731.655
 21
34.5216
  0
LINE
  8
0
 10
731.655
 20
34.5216
 11
731.384
 21
34.1161
  0
LINE
  8
0
 10
731.384
 20
34.1161
 11
730.978
 21
33.8451
  0
LINE
  8
0
 10
730.978
 20
33.8451
 11
730.5
 21
33.75
  0
LINE
  8
0
 10
730.5
 20
33.75
 11
730.022
 21
33.8451
  0
LINE
  8
0
 10
730.022
 20
33.8451
 11
729.616
 21
34.1161
  0
LINE
  8
0
 10
729.616
 20
34.1161
 11
729.345
 21
34.5216
  0
LINE
  8
0
 10
729.345
 20
34.5216
 11
729.25
 21
35
  0
LINE
  8
0
 10
729.25
 20
51
 11
729.345
 21
51.4784
  0
LINE
  8
0
 10
729.345
 20
51.4784
 11
729.616
 21
51.8839
  0
LINE
  8
0
 10
729.616
 20
51.8839
 11
730.022
 21
52.1548
  0
LINE
  8
0
 10
730.022
 20
52.1548
 11
730.5
 21
52.25
  0
LINE
  8
0
 10
730.5
 20
52.25
 11
730.978
 21
52.1548
  0
LINE
  8
0
 10
730.978
 20
52.1548
 11
731.384
 21
51.8839
  0
LINE
  8
0
 10
731.384
 20
51.8839
 11
731.655
 21
51.4784
  0
LINE
  8
0
 10
731.655
 20
51.4784
 11
731.75
 21
51
  0
LINE
  8
0
 10
731.75
 20
51
 11
731.655
 21
50.5216
  0
LINE
  8
0
 10
731.655
 20
50.5216
 11
731.384
 21
50.1161
  0
LINE
  8
0
 10
731.384
 20
50.1161
 11
730.978
 21
49.8451
  0
LINE
  8
0
 10
730.978
 20
49.8451
 11
730.5
 21
49.75
  0
LINE
  8
0
 10
730.5
 20
49.75
 11
730.022
 21
49.8451
  0
LINE
  8
0
 10
730.022
 20
49.8451
 11
729.616
 21
50.1161
  0
LINE
  8
0
 10
729.616
 20
50.1161
 11
729.345
 21
50.5216
  0
LINE
  8
0
 10
729.345
 20
50.5216
 11
729.25
 21
51
  0
LINE
  8
0
 10
729.25
 20
76
 11
729.345
 21
76.4784
  0
LINE
  8
0
 10
729.345
 20
76.4784
 11
729.616
 21
76.8839
  0
LINE
  8
0
 10
729.616
 20
76.8839
 11
730.022
 21
77.1548
  0
LINE
  8
0
 10
730.022
 20
77.1548
 11
730.5
 21
77.25
  0
LINE
  8
0
 10
730.5
 20
77.25
 11
730.978
 21
77.1548
  0
LINE
  8
0
 10
730.978
 20
77.1548
 11
731.384
 21
76.8839
  0
LINE
  8
0
 10
731.384
 20
76.8839
 11
731.655
 21
76.4784
  0
LINE
  8
0
 10
731.655
 20
76.4784
 11
731.75
 21
76
  0
LINE
  8
0
 10
731.75
 20
76
 11
731.655
 21
75.5216
  0
LINE
  8
0
 10
731.655
 20
75.5216
 11
731.384
 21
75.1161
  0
LINE
  8
0
 10
731.384
 20
75.1161
 11
730.978
 21
74.8451
  0
LINE
  8
0
 10
730.978
 20
74.8451
 11
730.5
 21
74.75
  0
LINE
  8
0
 10
730.5
 20
74.75
 11
730.022
 21
74.8451
  0
LINE
  8
0
 10
730.022
 20
74.8451
 11
729.616
 21
75.1161
  0
LINE
  8
0
 10
729.616
 20
75.1161
 11
729.345
 21
75.5216
  0
LINE
  8
0
 10
729.345
 20
75.5216
 11
729.25
 21
76
  0
LINE
  8
0
 10
729.25
 20
99
 11
729.345
 21
99.4784
  0
LINE
  8
0
 10
729.345
 20
99.4784
 11
729.616
 21
99.8839
  0
LINE
  8
0
 10
729.616
 20
99.8839
 11
730.022
 21
100.155
  0
LINE
  8
0
 10
730.022
 20
100.155
 11
730.5
 21
100.25
  0
LINE
  8
0
 10
730.5
 20
100.25
 11
730.978
 21
100.155
  0
LINE
  8
0
 10
730.978
 20
100.155
 11
731.384
 21
99.8839
  0
LINE
  8
0
 10
731.384
 20
99.8839
 11
731.655
 21
99.4784
  0
LINE
  8
0
 10
731.655
 20
99.4784
 11
731.75
 21
99
  0
LINE
  8
0
 10
731.75
 20
99
 11
731.655
 21
98.5216
  0
LINE
  8
0
 10
731.655
 20
98.5216
 11
731.384
 21
98.1161
  0
LINE
  8
0
 10
731.384
 20
98.1161
 11
730.978
 21
97.8451
  0
LINE
  8
0
 10
730.978
 20
97.8451
 11
730.5
 21
97.75
  0
LINE
  8
0
 10
730.5
 20
97.75
 11
730.022
 21
97.8451
  0
LINE
  8
0
 10
730.022
 20
97.8451
 11
729.616
 21
98.1161
  0
LINE
  8
0
 10
729.616
 20
98.1161
 11
729.345
 21
98.5216
  0
LINE
  8
0
 10
729.345
 20
98.5216
 11
729.25
 21
99
  0
LINE
  8
0
 10
729.25
 20
115
 11
729.345
 21
115.478
  0
LINE
  8
0
 10
729.345
 20
115.478
 11
729.616
 21
115.884
  0
LINE
  8
0
 10
729.616
 20
115.884
 11
730.022
 21
116.155
  0
LINE
  8
0
 10
730.022
 20
116.155
 11
730.5
 21
116.25
  0
LINE
  8
0
 10
730.5
 20
116.25
 11
730.978
 21
116.155
  0
LINE
  8
0
 10
730.978
 20
116.155
 11
731.384
 21
115.884
  0
LINE
  8
0
 10
731.384
 20
115.884
 11
731.655
 21
115.478
  0
LINE
  8
0
 10
731.655
 20
115.478
 11
731.75
 21
115
  0
LINE
  8
0
 10
731.75
 20
115
 11
731.655
 21
114.522
  0
LINE
  8
0
 10
731.655
 20
114.522
 11
731.384
 21
114.116
  0
LINE
  8
0
 10
731.384
 20
114.116
 11
730.978
 21
113.845
  0
LINE
  8
0
 10
730.978
 20
113.845
 11
730.5
 21
113.75
  0
LINE
  8
0
 10
730.5
 20
113.75
 11
730.022
 21
113.845
  0
LINE
  8
0
 10
730.022
 20
113.845
 11
729.616
 21
114.116
  0
LINE
  8
0
 10
729.616
 20
114.116
 11
729.345
 21
114.522
  0
LINE
  8
0
 10
729.345
 20
114.522
 11
729.25
 21
115
  0
LINE
  8
0
 10
939.25
 20
6.5
 11
939.345
 21
6.97835
  0
LINE
  8
0
 10
939.345
 20
6.97835
 11
939.616
 21
7.38388
  0
LINE
  8
0
 10
939.616
 20
7.38388
 11
940.022
 21
7.65485
  0
LINE
  8
0
 10
940.022
 20
7.65485
 11
940.5
 21
7.75
  0
LINE
  8
0
 10
940.5
 20
7.75
 11
940.978
 21
7.65485
  0
LINE
  8
0
 10
940.978
 20
7.65485
 11
941.384
 21
7.38388
  0
LINE
  8
0
 10
941.384
 20
7.38388
 11
941.655
 21
6.97835
  0
LINE
  8
0
 10
941.655
 20
6.97835
 11
941.75
 21
6.5
  0
LINE
  8
0
 10
941.75
 20
6.5
 11
941.655
 21
6.02165
  0
LINE
  8
0
 10
941.655
 20
6.02165
 11
941.384
 21
5.61612
  0
LINE
  8
0
 10
941.384
 20
5.61612
 11
940.978
 21
5.34515
  0
LINE
  8
0
 10
940.978
 20
5.34515
 11
940.5
 21
5.25
  0
LINE
  8
0
 10
940.5
 20
5.25
 11
940.022
 21
5.34515
  0
LINE
  8
0
 10
940.022
 20
5.34515
 11
939.616
 21
5.61612
  0
LINE
  8
0
 10
939.616
 20
5.61612
 11
939.345
 21
6.02165
  0
LINE
  8
0
 10
939.345
 20
6.02165
 11
939.25
 21
6.5
  0
LINE
  8
0
 10
939.25
 20
35
 11
939.345
 21
35.4784
  0
LINE
  8
0
 10
939.345
 20
35.4784
 11
939.616
 21
35.8839
  0
LINE
  8
0
 10
939.616
 20
35.8839
 11
940.022
 21
36.1548
  0
LINE
  8
0
 10
940.022
 20
36.1548
 11
940.5
 21
36.25
  0
LINE
  8
0
 10
940.5
 20
36.25
 11
940.978
 21
36.1548
  0
LINE
  8
0
 10
940.978
 20
36.1548
 11
941.384
 21
35.8839
  0
LINE
  8
0
 10
941.384
 20
35.8839
 11
941.655
 21
35.4784
  0
LINE
  8
0
 10
941.655
 20
35.4784
 11
941.75
 21
35
  0
LINE
  8
0
 10
941.75
 20
35
 11
941.655
 21
34.5216
  0
LINE
  8
0
 10
941.655
 20
34.5216
 11
941.384
 21
34.1161
  0
LINE
  8
0
 10
941.384
 20
34.1161
 11
940.978
 21
33.8451
  0
LINE
  8
0
 10
940.978
 20
33.8451
 11
940.5
 21
33.75
  0
LINE
  8
0
 10
940.5
 20
33.75
 11
940.022
 21
33.8451
  0
LINE
  8
0
 10
940.022
 20
33.8451
 11
939.616
 21
34.1161
  0
LINE
  8
0
 10
939.616
 20
34.1161
 11
939.345
 21
34.5216
  0
LINE
  8
0
 10
939.345
 20
34.5216
 11
939.25
 21
35
  0
LINE
  8
0
 10
939.25
 20
51
 11
939.345
 21
51.4784
  0
LINE
  8
0
 10
939.345
 20
51.4784
 11
939.616
 21
51.8839
  0
LINE
  8
0
 10
939.616
 20
51.8839
 11
940.022
 21
52.1548
  0
LINE
  8
0
 10
940.022
 20
52.1548
 11
940.5
 21
52.25
  0
LINE
  8
0
 10
940.5
 20
52.25
 11
940.978
 21
52.1548
  0
LINE
  8
0
 10
940.978
 20
52.1548
 11
941.384
 21
51.8839
  0
LINE
  8
0
 10
941.384
 20
51.8839
 11
941.655
 21
51.4784
  0
LINE
  8
0
 10
941.655
 20
51.4784
 11
941.75
 21
51
  0
LINE
  8
0
 10
941.75
 20
51
 11
941.655
 21
50.5216
  0
LINE
  8
0
 10
941.655
 20
50.5216
 11
941.384
 21
50.1161
  0
LINE
  8
0
 10
941.384
 20
50.1161
 11
940.978
 21
49.8451
  0
LINE
  8
0
 10
940.978
 20
49.8451
 11
940.5
 21
49.75
  0
LINE
  8
0
 10
940.5
 20
49.75
 11
940.022
 21
49.8451
  0
LINE
  8
0
 10
940.022
 20
49.8451
 11
939.616
 21
50.1161
  0
LINE
  8
0
 10
939.616
 20
50.1161
 11
939.345
 21
50.5216
  0
LINE
  8
0
 10
939.345
 20
50.5216
 11
939.25
 21
51
  0
LINE
  8
0
 10
939.25
 20
76
 11
939.345
 21
76.4784
  0
LINE
  8
0
 10
939.345
 20
76.4784
 11
939.616
 21
76.8839
  0
LINE
  8
0
 10
939.616
 20
76.8839
 11
940.022
 21
77.1548
  0
LINE
  8
0
 10
940.022
 20
77.1548
 11
940.5
 21
77.25
  0
LINE
  8
0
 10
940.5
 20
77.25
 11
940.978
 21
77.1548
  0
LINE
  8
0
 10
940.978
 20
77.1548
 11
941.384
 21
76.8839
  0
LINE
  8
0
 10
941.384
 20
76.8839
 11
941.655
 21
76.4784
  0
LINE
  8
0
 10
941.655
 20
76.4784
 11
941.75
 21
76
  0
LINE
  8
0
 10
941.75
 20
76
 11
941.655
 21
75.5216
  0
LINE
  8
0
 10
941.655
 20
75.5216
 11
941.384
 21
75.1161
  0
LINE
  8
0
 10
941.384
 20
75.1161
 11
940.978
 21
74.8451
  0
LINE
  8
0
 10
940.978
 20
74.8451
 11
940.5
 21
74.75
  0
LINE
  8
0
 10
940.5
 20
74.75
 11
940.022
 21
74.8451
  0
LINE
  8
0
 10
940.022
 20
74.8451
 11
939.616
 21
75.1161
  0
LINE
  8
0
 10
939.616
 20
75.1161
 11
939.345
 21
75.5216
  0
LINE
  8
0
 10
939.345
 20
75.5216
 11
939.25
 21
76
  0
LINE
  8
0
 10
939.25
 20
99
 11
939.345
 21
99.4784
  0
LINE
  8
0
 10
939.345
 20
99.4784
 11
939.616
 21
99.8839
  0
LINE
  8
0
 10
939.616
 20
99.8839
 11
940.022
 21
100.155
  0
LINE
  8
0
 10
940.022
 20
100.155
 11
940.5
 21
100.25
  0
LINE
  8
0
 10
940.5
 20
100.25
 11
940.978
 21
100.155
  0
LINE
  8
0
 10
940.978
 20
100.155
 11
941.384
 21
99.8839
  0
LINE
  8
0
 10
941.384
 20
99.8839
 11
941.655
 21
99.4784
  0
LINE
  8
0
 10
941.655
 20
99.4784
 11
941.75
 21
99
  0
LINE
  8
0
 10
941.75
 20
99
 11
941.655
 21
98.5216
  0
LINE
  8
0
 10
941.655
 20
98.5216
 11
941.384
 21
98.1161
  0
LINE
  8
0
 10
941.384
 20
98.1161
 11
940.978
 21
97.8451
  0
LINE
  8
0
 10
940.978
 20
97.8451
 11
940.5
 21
97.75
  0
LINE
  8
0
 10
940.5
 20
97.75
 11
940.022
 21
97.8451
  0
LINE
  8
0
 10
940.022
 20
97.8451
 11
939.616
 21
98.1161
  0
LINE
  8
0
 10
939.616
 20
98.1161
 11
939.345
 21
98.5216
  0
LINE
  8
0
 10
939.345
 20
98.5216
 11
939.25
 21
99
  0
LINE
  8
0
 10
939.25
 20
115
 11
939.345
 21
115.478
  0
LINE
  8
0
 10
939.345
 20
115.478
 11
939.616
 21
115.884
  0
LINE
  8
0
 10
939.616
 20
115.884
 11
940.022
 21
116.155
  0
LINE
  8
0
 10
940.022
 20
116.155
 11
940.5
 21
116.25
  0
LINE
  8
0
 10
940.5
 20
116.25
 11
940.978
 21
116.155
  0
LINE
  8
0
 10
940.978
 20
116.155
 11
941.384
 21
115.884
  0
LINE
  8
0
 10
941.384
 20
115.884
 11
941.655
 21
115.478
  0
LINE
  8
0
 10
941.655
 20
115.478
 11
941.75
 21
115
  0
LINE
  8
0
 10
941.75
 20
115
 11
941.655
 21
114.522
  0
LINE
  8
0
 10
941.655
 20
114.522
 11
941.384
 21
114.116
  0
LINE
  8
0
 10
941.384
 20
114.116
 11
940.978
 21
113.845
  0
LINE
  8
0
 10
940.978
 20
113.845
 11
940.5
 21
113.75
  0
LINE
  8
0
 10
940.5
 20
113.75
 11
940.022
 21
113.845
  0
LINE
  8
0
 10
940.022
 20
113.845
 11
939.616
 21
114.116
  0
LINE
  8
0
 10
939.616
 20
114.116
 11
939.345
 21
114.522
  0
LINE
  8
0
 10
939.345
 20
114.522
 11
939.25
 21
115
  0
LINE
  8
0
 10
1149.25
 20
6.5
 11
1149.35
 21
6.97835
  0
LINE
  8
0
 10
1149.35
 20
6.97835
 11
1149.62
 21
7.38388
  0
LINE
  8
0
 10
1149.62
 20
7.38388
 11
1150.02
 21
7.65485
  0
LINE
  8
0
 10
1150.02
 20
7.65485
 11
1150.5
 21
7.75
  0
LINE
  8
0
 10
1150.5
 20
7.75
 11
1150.98
 21
7.65485
  0
LINE
  8
0
 10
1150.98
 20
7.65485
 11
1151.38
 21
7.38388
  0
LINE
  8
0
 10
1151.38
 20
7.38388
 11
1151.65
 21
6.97835
  0
LINE
  8
0
 10
1151.65
 20
6.97835
 11
1151.75
 21
6.5
  0
LINE
  8
0
 10
1151.75
 20
6.5
 11
1151.65
 21
6.02165
  0
LINE
  8
0
 10
1151.65
 20
6.02165
 11
1151.38
 21
5.61612
  0
LINE
  8
0
 10
1151.38
 20
5.61612
 11
1150.98
 21
5.34515
  0
LINE
  8
0
 10
1150.98
 20
5.34515
 11
1150.5
 21
5.25
  0
LINE
  8
0
 10
1150.5
 20
5.25
 11
1150.02
 21
5.34515
  0
LINE
  8
0
 10
1150.02
 20
5.34515
 11
1149.62
 21
5.61612
  0
LINE
  8
0
 10
1149.62
 20
5.61612
 11
1149.35
 21
6.02165
  0
LINE
  8
0
 10
1149.35
 20
6.02165
 11
1149.25
 21
6.5
  0
LINE
  8
0
 10
1149.25
 20
35
 11
1149.35
 21
35.4784
  0
LINE
  8
0
 10
1149.35
 20
35.4784
 11
1149.62
 21
35.8839
  0
LINE
  8
0
 10
1149.62
 20
35.8839
 11
1150.02
 21
36.1548
  0
LINE
  8
0
 10
1150.02
 20
36.1548
 11
1150.5
 21
36.25
  0
LINE
  8
0
 10
1150.5
 20
36.25
 11
1150.98
 21
36.1548
  0
LINE
  8
0
 10
1150.98
 20
36.1548
 11
1151.38
 21
35.8839
  0
LINE
  8
0
 10
1151.38
 20
35.8839
 11
1151.65
 21
35.4784
  0
LINE
  8
0
 10
1151.65
 20
35.4784
 11
1151.75
 21
35
  0
LINE
  8
0
 10
1151.75
 20
35
 11
1151.65
 21
34.5216
  0
LINE
  8
0
 10
1151.65
 20
34.5216
 11
1151.38
 21
34.1161
  0
LINE
  8
0
 10
1151.38
 20
34.1161
 11
1150.98
 21
33.8451
  0
LINE
  8
0
 10
1150.98
 20
33.8451
 11
1150.5
 21
33.75
  0
LINE
  8
0
 10
1150.5
 20
33.75
 11
1150.02
 21
33.8451
  0
LINE
  8
0
 10
1150.02
 20
33.8451
 11
1149.62
 21
34.1161
  0
LINE
  8
0
 10
1149.62
 20
34.1161
 11
1149.35
 21
34.5216
  0
LINE
  8
0
 10
1149.35
 20
34.5216
 11
1149.25
 21
35
  0
LINE
  8
0
 10
1149.25
 20
51
 11
1149.35
 21
51.4784
  0
LINE
  8
0
 10
1149.35
 20
51.4784
 11
1149.62
 21
51.8839
  0
LINE
  8
0
 10
1149.62
 20
51.8839
 11
1150.02
 21
52.1548
  0
LINE
  8
0
 10
1150.02
 20
52.1548
 11
1150.5
 21
52.25
  0
LINE
  8
0
 10
1150.5
 20
52.25
 11
1150.98
 21
52.1548
  0
LINE
  8
0
 10
1150.98
 20
52.1548
 11
1151.38
 21
51.8839
  0
LINE
  8
0
 10
1151.38
 20
51.8839
 11
1151.65
 21
51.4784
  0
LINE
  8
0
 10
1151.65
 20
51.4784
 11
1151.75
 21
51
  0
LINE
  8
0
 10
1151.75
 20
51
 11
1151.65
 21
50.5216
  0
LINE
  8
0
 10
1151.65
 20
50.5216
 11
1151.38
 21
50.1161
  0
LINE
  8
0
 10
1151.38
 20
50.1161
 11
1150.98
 21
49.8451
  0
LINE
  8
0
 10
1150.98
 20
49.8451
 11
1150.5
 21
49.75
  0
LINE
  8
0
 10
1150.5
 20
49.75
 11
1150.02
 21
49.8451
  0
LINE
  8
0
 10
1150.02
 20
49.8451
 11
1149.62
 21
50.1161
  0
LINE
  8
0
 10
1149.62
 20
50.1161
 11
1149.35
 21
50.5216
  0
LINE
  8
0
 10
1149.35
 20
50.5216
 11
1149.25
 21
51
  0
LINE
  8
0
 10
1149.25
 20
76
 11
1149.35
 21
76.4784
  0
LINE
  8
0
 10
1149.35
 20
76.4784
 11
1149.62
 21
76.8839
  0
LINE
  8
0
 10
1149.62
 20
76.8839
 11
1150.02
 21
77.1548
  0
LINE
  8
0
 10
1150.02
 20
77.1548
 11
1150.5
 21
77.25
  0
LINE
  8
0
 10
1150.5
 20
77.25
 11
1150.98
 21
77.1548
  0
LINE
  8
0
 10
1150.98
 20
77.1548
 11
1151.38
 21
76.8839
  0
LINE
  8
0
 10
1151.38
 20
76.8839
 11
1151.65
 21
76.4784
  0
LINE
  8
0
 10
1151.65
 20
76.4784
 11
1151.75
 21
76
  0
LINE
  8
0
 10
1151.75
 20
76
 11
1151.65
 21
75.5216
  0
LINE
  8
0
 10
1151.65
 20
75.5216
 11
1151.38
 21
75.1161
  0
LINE
  8
0
 10
1151.38
 20
75.1161
 11
1150.98
 21
74.8451
  0
LINE
  8
0
 10
1150.98
 20
74.8451
 11
1150.5
 21
74.75
  0
LINE
  8
0
 10
1150.5
 20
74.75
 11
1150.02
 21
74.8451
  0
LINE
  8
0
 10
1150.02
 20
74.8451
 11
1149.62
 21
75.1161
  0
LINE
  8
0
 10
1149.62
 20
75.1161
 11
1149.35
 21
75.5216
  0
LINE
  8
0
 10
1149.35
 20
75.5216
 11
1149.25
 21
76
  0
LINE
  8
0
 10
1149.25
 20
99
 11
1149.35
 21
99.4784
  0
LINE
  8
0
 10
1149.35
 20
99.4784
 11
1149.62
 21
99.8839
  0
LINE
  8
0
 10
1149.62
 20
99.8839
 11
1150.02
 21
100.155
  0
LINE
  8
0
 10
1150.02
 20
100.155
 11
1150.5
 21
100.25
  0
LINE
  8
0
 10
1150.5
 20
100.25
 11
1150.98
 21
100.155
  0
LINE
  8
0
 10
1150.98
 20
100.155
 11
1151.38
 21
99.8839
  0
LINE
  8
0
 10
1151.38
 20
99.8839
 11
1151.65
 21
99.4784
  0
LINE
  8
0
 10
1151.65
 20
99.4784
 11
1151.75
 21
99
  0
LINE
  8
0
 10
1151.75
 20
99
 11
1151.65
 21
98.5216
  0
LINE
  8
0
 10
1151.65
 20
98.5216
 11
1151.38
 21
98.1161
  0
LINE
  8
0
 10
1151.38
 20
98.1161
 11
1150.98
 21
97.8451
  0
LINE
  8
0
 10
1150.98
 20
97.8451
 11
1150.5
 21
97.75
  0
LINE
  8
0
 10
1150.5
 20
97.75
 11
1150.02
 21
97.8451
  0
LINE
  8
0
 10
1150.02
 20
97.8451
 11
1149.62
 21
98.1161
  0
LINE
  8
0
 10
1149.62
 20
98.1161
 11
1149.35
 21
98.5216
  0
LINE
  8
0
 10
1149.35
 20
98.5216
 11
1149.25
 21
99
  0
LINE
  8
0
 10
1149.25
 20
115
 11
1149.35
 21
115.478
  0
LINE
  8
0
 10
1149.35
 20
115.478
 11
1149.62
 21
115.884
  0
LINE
  8
0
 10
1149.62
 20
115.884
 11
1150.02
 21
116.155
  0
LINE
  8
0
 10
1150.02
 20
116.155
 11
1150.5
 21
116.25
  0
LINE
  8
0
 10
1150.5
 20
116.25
 11
1150.98
 21
116.155
  0
LINE
  8
0
 10
1150.98
 20
116.155
 11
1151.38
 21
115.884
  0
LINE
  8
0
 10
1151.38
 20
115.884
 11
1151.65
 21
115.478
  0
LINE
  8
0
 10
1151.65
 20
115.478
 11
1151.75
 21
115
  0
LINE
  8
0
 10
1151.75
 20
115
 11
1151.65
 21
114.522
  0
LINE
  8
0
 10
1151.65
 20
114.522
 11
1151.38
 21
114.116
  0
LINE
  8
0
 10
1151.38
 20
114.116
 11
1150.98
 21
113.845
  0
LINE
  8
0
 10
1150.98
 20
113.845
 11
1150.5
 21
113.75
  0
LINE
  8
0
 10
1150.5
 20
113.75
 11
1150.02
 21
113.845
  0
LINE
  8
0
 10
1150.02
 20
113.845
 11
1149.62
 21
114.116
  0
LINE
  8
0
 10
1149.62
 20
114.116
 11
1149.35
 21
114.522
  0
LINE
  8
0
 10
1149.35
 20
114.522
 11
1149.25
 21
115
  0
LINE
  8
0
 10
1295
 20
50
 11
1295.15
 21
50.7654
  0
LINE
  8
0
 10
1295.15
 20
50.7654
 11
1295.59
 21
51.4142
  0
LINE
  8
0
 10
1295.59
 20
51.4142
 11
1296.23
 21
51.8478
  0
LINE
  8
0
 10
1296.23
 20
51.8478
 11
1297
 21
52
  0
LINE
  8
0
 10
1297
 20
52
 11
1297.77
 21
51.8478
  0
LINE
  8
0
 10
1297.77
 20
51.8478
 11
1298.41
 21
51.4142
  0
LINE
  8
0
 10
1298.41
 20
51.4142
 11
1298.85
 21
50.7654
  0
LINE
  8
0
 10
1298.85
 20
50.7654
 11
1299
 21
50
  0
LINE
  8
0
 10
1299
 20
50
 11
1298.85
 21
49.2346
  0
LINE
  8
0
 10
1298.85
 20
49.2346
 11
1298.41
 21
48.5858
  0
LINE
  8
0
 10
1298.41
 20
48.5858
 11
1297.77
 21
48.1522
  0
LINE
  8
0
 10
1297.77
 20
48.1522
 11
1297
 21
48
  0
LINE
  8
0
 10
1297
 20
48
 11
1296.23
 21
48.1522
  0
LINE
  8
0
 10
1296.23
 20
48.1522
 11
1295.59
 21
48.5858
  0
LINE
  8
0
 10
1295.59
 20
48.5858
 11
1295.15
 21
49.2346
  0
LINE
  8
0
 10
1295.15
 20
49.2346
 11
1295
 21
50
  0
LINE
  8
0
 10
1295
 20
180
 11
1295.15
 21
180.765
  0
LINE
  8
0
 10
1295.15
 20
180.765
 11
1295.59
 21
181.414
  0
LINE
  8
0
 10
1295.59
 20
181.414
 11
1296.23
 21
181.848
  0
LINE
  8
0
 10
1296.23
 20
181.848
 11
1297
 21
182
  0
LINE
  8
0
 10
1297
 20
182
 11
1297.77
 21
181.848
  0
LINE
  8
0
 10
1297.77
 20
181.848
 11
1298.41
 21
181.414
  0
LINE
  8
0
 10
1298.41
 20
181.414
 11
1298.85
 21
180.765
  0
LINE
  8
0
 10
1298.85
 20
180.765
 11
1299
 21
180
  0
LINE
  8
0
 10
1299
 20
180
 11
1298.85
 21
179.235
  0
LINE
  8
0
 10
1298.85
 20
179.235
 11
1298.41
 21
178.586
  0
LINE
  8
0
 10
1298.41
 20
178.586
 11
1297.77
 21
178.152
  0
LINE
  8
0
 10
1297.77
 20
178.152
 11
1297
 21
178
  0
LINE
  8
0
 10
1297
 20
178
 11
1296.23
 21
178.152
  0
LINE
  8
0
 10
1296.23
 20
178.152
 11
1295.59
 21
178.586
  0
LINE
  8
0
 10
1295.59
 20
178.586
 11
1295.15
 21
179.235
  0
LINE
  8
0
 10
1295.15
 20
179.235
 11
1295
 21
180
  0
LINE
  8
0
 10
1626.33
 20
50
 11
1626.49
 21
50.7654
  0
LINE
  8
0
 10
1626.49
 20
50.7654
 11
1626.92
 21
51.4142
  0
LINE
  8
0
 10
1626.92
 20
51.4142
 11
1627.57
 21
51.8478
  0
LINE
  8
0
 10
1627.57
 20
51.8478
 11
1628.33
 21
52
  0
LINE
  8
0
 10
1628.33
 20
52
 11
1629.1
 21
51.8478
  0
LINE
  8
0
 10
1629.1
 20
51.8478
 11
1629.75
 21
51.4142
  0
LINE
  8
0
 10
1629.75
 20
51.4142
 11
1630.18
 21
50.7654
  0
LINE
  8
0
 10
1630.18
 20
50.7654
 11
1630.33
 21
50
  0
LINE
  8
0
 10
1630.33
 20
50
 11
1630.18
 21
49.2346
  0
LINE
  8
0
 10
1630.18
 20
49.2346
 11
1629.75
 21
48.5858
  0
LINE
  8
0
 10
1629.75
 20
48.5858
 11
1629.1
 21
48.1522
  0
LINE
  8
0
 10
1629.1
 20
48.1522
 11
1628.33
 21
48
  0
LINE
  8
0
 10
1628.33
 20
48
 11
1627.57
 21
48.1522
  0
LINE
  8
0
 10
1627.57
 20
48.1522
 11
1626.92
 21
48.5858
  0
LINE
  8
0
 10
1626.92
 20
48.5858
 11
1626.49
 21
49.2346
  0
LINE
  8
0
 10
1626.49
 20
49.2346
 11
1626.33
 21
50
  0
LINE
  8
0
 10
1626.33
 20
180
 11
1626.49
 21
180.765
  0
LINE
  8
0
 10
1626.49
 20
180.765
 11
1626.92
 21
181.414
  0
LINE
  8
0
 10
1626.92
 20
181.414
 11
1627.57
 21
181.848
  0
LINE
  8
0
 10
1627.57
 20
181.848
 11
1628.33
 21
182
  0
LINE
  8
0
 10
1628.33
 20
182
 11
1629.1
 21
181.848
  0
LINE
  8
0
 10
1629.1
 20
181.848
 11
1629.75
 21
181.414
  0
LINE
  8
0
 10
1629.75
 20
181.414
 11
1630.18
 21
180.765
  0
LINE
  8
0
 10
1630.18
 20
180.765
 11
1630.33
 21
180
  0
LINE
  8
0
 10
1630.33
 20
180
 11
1630.18
 21
179.235
  0
LINE
  8
0
 10
1630.18
 20
179.235
 11
1629.75
 21
178.586
  0
LINE
  8
0
 10
1629.75
 20
178.586
 11
1629.1
 21
178.152
  0
LINE
  8
0
 10
1629.1
 20
178.152
 11
1628.33
 21
178
  0
LINE
  8
0
 10
1628.33
 20
178
 11
1627.57
 21
178.152
  0
LINE
  8
0
 10
1627.57
 20
178.152
 11
1626.92
 21
178.586
  0
LINE
  8
0
 10
1626.92
 20
178.586
 11
1626.49
 21
179.235
  0
LINE
  8
0
 10
1626.49
 20
179.235
 11
1626.33
 21
180
  0
LINE
  8
0
 10
1957.67
 20
50
 11
1957.82
 21
50.7654
  0
LINE
  8
0
 10
1957.82
 20
50.7654
 11
1958.25
 21
51.4142
  0
LINE
  8
0
 10
1958.25
 20
51.4142
 11
1958.9
 21
51.8478
  0
LINE
  8
0
 10
1958.9
 20
51.8478
 11
1959.67
 21
52
  0
LINE
  8
0
 10
1959.67
 20
52
 11
1960.43
 21
51.8478
  0
LINE
  8
0
 10
1960.43
 20
51.8478
 11
1961.08
 21
51.4142
  0
LINE
  8
0
 10
1961.08
 20
51.4142
 11
1961.51
 21
50.7654
  0
LINE
  8
0
 10
1961.51
 20
50.7654
 11
1961.67
 21
50
  0
LINE
  8
0
 10
1961.67
 20
50
 11
1961.51
 21
49.2346
  0
LINE
  8
0
 10
1961.51
 20
49.2346
 11
1961.08
 21
48.5858
  0
LINE
  8
0
 10
1961.08
 20
48.5858
 11
1960.43
 21
48.1522
  0
LINE
  8
0
 10
1960.43
 20
48.1522
 11
1959.67
 21
48
  0
LINE
  8
0
 10
1959.67
 20
48
 11
1958.9
 21
48.1522
  0
LINE
  8
0
 10
1958.9
 20
48.1522
 11
1958.25
 21
48.5858
  0
LINE
  8
0
 10
1958.25
 20
48.5858
 11
1957.82
 21
49.2346
  0
LINE
  8
0
 10
1957.82
 20
49.2346
 11
1957.67
 21
50
  0
LINE
  8
0
 10
1957.67
 20
180
 11
1957.82
 21
180.765
  0
LINE
  8
0
 10
1957.82
 20
180.765
 11
1958.25
 21
181.414
  0
LINE
  8
0
 10
1958.25
 20
181.414
 11
1958.9
 21
181.848
  0
LINE
  8
0
 10
1958.9
 20
181.848
 11
1959.67
 21
182
  0
LINE
  8
0
 10
1959.67
 20
182
 11
1960.43
 21
181.848
  0
LINE
  8
0
 10
1960.43
 20
181.848
 11
1961.08
 21
181.414
  0
LINE
  8
0
 10
1961.08
 20
181.414
 11
1961.51
 21
180.765
  0
LINE
  8
0
 10
1961.51
 20
180.765
 11
1961.67
 21
180
  0
LINE
  8
0
 10
1961.67
 20
180
 11
1961.51
 21
179.235
  0
LINE
  8
0
 10
1961.51
 20
179.235
 11
1961.08
 21
178.586
  0
LINE
  8
0
 10
1961.08
 20
178.586
 11
1960.43
 21
178.152
  0
LINE
  8
0
 10
1960.43
 20
178.152
 11
1959.67
 21
178
  0
LINE
  8
0
 10
1959.67
 20
178
 11
1958.9
 21
178.152
  0
LINE
  8
0
 10
1958.9
 20
178.152
 11
1958.25
 21
178.586
  0
LINE
  8
0
 10
1958.25
 20
178.586
 11
1957.82
 21
179.235
  0
LINE
  8
0
 10
1957.82
 20
179.235
 11
1957.67
 21
180
  0
LINE
  8
0
 10
2289
 20
50
 11
2289.15
 21
50.7654
  0
LINE
  8
0
 10
2289.15
 20
50.7654
 11
2289.59
 21
51.4142
  0
LINE
  8
0
 10
2289.59
 20
51.4142
 11
2290.23
 21
51.8478
  0
LINE
  8
0
 10
2290.23
 20
51.8478
 11
2291
 21
52
  0
LINE
  8
0
 10
2291
 20
52
 11
2291.77
 21
51.8478
  0
LINE
  8
0
 10
2291.77
 20
51.8478
 11
2292.41
 21
51.4142
  0
LINE
  8
0
 10
2292.41
 20
51.4142
 11
2292.85
 21
50.7654
  0
LINE
  8
0
 10
2292.85
 20
50.7654
 11
2293
 21
50
  0
LINE
  8
0
 10
2293
 20
50
 11
2292.85
 21
49.2346
  0
LINE
  8
0
 10
2292.85
 20
49.2346
 11
2292.41
 21
48.5858
  0
LINE
  8
0
 10
2292.41
 20
48.5858
 11
2291.77
 21
48.1522
  0
LINE
  8
0
 10
2291.77
 20
48.1522
 11
2291
 21
48
  0
LINE
  8
0
 10
2291
 20
48
 11
2290.23
 21
48.1522
  0
LINE
  8
0
 10
2290.23
 20
48.1522
 11
2289.59
 21
48.5858
  0
LINE
  8
0
 10
2289.59
 20
48.5858
 11
2289.15
 21
49.2346
  0
LINE
  8
0
 10
2289.15
 20
49.2346
 11
2289
 21
50
  0
LINE
  8
0
 10
2289
 20
180
 11
2289.15
 21
180.765
  0
LINE
  8
0
 10
2289.15
 20
180.765
 11
2289.59
 21
181.414
  0
LINE
  8
0
 10
2289.59
 20
181.414
 11
2290.23
 21
181.848
  0
LINE
  8
0
 10
2290.23
 20
181.848
 11
2291
 21
182
  0
LINE
  8
0
 10
2291
 20
182
 11
2291.77
 21
181.848
  0
LINE
  8
0
 10
2291.77
 20
181.848
 11
2292.41
 21
181.414
  0
LINE
  8
0
 10
2292.41
 20
181.414
 11
2292.85
 21
180.765
  0
LINE
  8
0
 10
2292.85
 20
180.765
 11
2293
 21
180
  0
LINE
  8
0
 10
2293
 20
180
 11
2292.85
 21
179.235
  0
LINE
  8
0
 10
2292.85
 20
179.235
 11
2292.41
 21
178.586
  0
LINE
  8
0
 10
2292.41
 20
178.586
 11
2291.77
 21
178.152
  0
LINE
  8
0
 10
2291.77
 20
178.152
 11
2291
 21
178
  0
LINE
  8
0
 10
2291
 20
178
 11
2290.23
 21
178.152
  0
LINE
  8
0
 10
2290.23
 20
178.152
 11
2289.59
 21
178.586
  0
LINE
  8
0
 10
2289.59
 20
178.586
 11
2289.15
 21
179.235
  0
LINE
  8
0
 10
2289.15
 20
179.235
 11
2289
 21
180
  0
ENDSEC
  0
SECTION
  2
OBJECTS
  0
DICTIONARY
  0
ENDSEC
  0
EOF
