  0
SECTION
  2
BLOCKS
  0
ENDSEC
  0
SECTION
  2
ENTITIES
  0
LINE
  8
0
 10
0
 20
0
 11
2300
 21
0
  0
LINE
  8
0
 10
2300
 20
0
 11
2300
 21
230
  0
LINE
  8
0
 10
2300
 20
230
 11
0
 21
230
  0
LINE
  8
0
 10
0
 20
230
 11
0
 21
0
  0
LINE
  8
0
 10
7
 20
50
 11
7.15224
 21
50.7654
  0
LINE
  8
0
 10
7.15224
 20
50.7654
 11
7.58579
 21
51.4142
  0
LINE
  8
0
 10
7.58579
 20
51.4142
 11
8.23463
 21
51.8478
  0
LINE
  8
0
 10
8.23463
 20
51.8478
 11
9
 21
52
  0
LINE
  8
0
 10
9
 20
52
 11
9.76537
 21
51.8478
  0
LINE
  8
0
 10
9.76537
 20
51.8478
 11
10.4142
 21
51.4142
  0
LINE
  8
0
 10
10.4142
 20
51.4142
 11
10.8478
 21
50.7654
  0
LINE
  8
0
 10
10.8478
 20
50.7654
 11
11
 21
50
  0
LINE
  8
0
 10
11
 20
50
 11
10.8478
 21
49.2346
  0
LINE
  8
0
 10
10.8478
 20
49.2346
 11
10.4142
 21
48.5858
  0
LINE
  8
0
 10
10.4142
 20
48.5858
 11
9.76537
 21
48.1522
  0
LINE
  8
0
 10
9.76537
 20
48.1522
 11
9
 21
48
  0
LINE
  8
0
 10
9
 20
48
 11
8.23463
 21
48.1522
  0
LINE
  8
0
 10
8.23463
 20
48.1522
 11
7.58579
 21
48.5858
  0
LINE
  8
0
 10
7.58579
 20
48.5858
 11
7.15224
 21
49.2346
  0
LINE
  8
0
 10
7.15224
 20
49.2346
 11
7
 21
50
  0
LINE
  8
0
 10
7
 20
180
 11
7.15224
 21
180.765
  0
LINE
  8
0
 10
7.15224
 20
180.765
 11
7.58579
 21
181.414
  0
LINE
  8
0
 10
7.58579
 20
181.414
 11
8.23463
 21
181.848
  0
LINE
  8
0
 10
8.23463
 20
181.848
 11
9
 21
182
  0
LINE
  8
0
 10
9
 20
182
 11
9.76537
 21
181.848
  0
LINE
  8
0
 10
9.76537
 20
181.848
 11
10.4142
 21
181.414
  0
LINE
  8
0
 10
10.4142
 20
181.414
 11
10.8478
 21
180.765
  0
LINE
  8
0
 10
10.8478
 20
180.765
 11
11
 21
180
  0
LINE
  8
0
 10
11
 20
180
 11
10.8478
 21
179.235
  0
LINE
  8
0
 10
10.8478
 20
179.235
 11
10.4142
 21
178.586
  0
LINE
  8
0
 10
10.4142
 20
178.586
 11
9.76537
 21
178.152
  0
LINE
  8
0
 10
9.76537
 20
178.152
 11
9
 21
178
  0
LINE
  8
0
 10
9
 20
178
 11
8.23463
 21
178.152
  0
LINE
  8
0
 10
8.23463
 20
178.152
 11
7.58579
 21
178.586
  0
LINE
  8
0
 10
7.58579
 20
178.586
 11
7.15224
 21
179.235
  0
LINE
  8
0
 10
7.15224
 20
179.235
 11
7
 21
180
  0
LINE
  8
0
 10
338.333
 20
50
 11
338.486
 21
50.7654
  0
LINE
  8
0
 10
338.486
 20
50.7654
 11
338.919
 21
51.4142
  0
LINE
  8
0
 10
338.919
 20
51.4142
 11
339.568
 21
51.8478
  0
LINE
  8
0
 10
339.568
 20
51.8478
 11
340.333
 21
52
  0
LINE
  8
0
 10
340.333
 20
52
 11
341.099
 21
51.8478
  0
LINE
  8
0
 10
341.099
 20
51.8478
 11
341.748
 21
51.4142
  0
LINE
  8
0
 10
341.748
 20
51.4142
 11
342.181
 21
50.7654
  0
LINE
  8
0
 10
342.181
 20
50.7654
 11
342.333
 21
50
  0
LINE
  8
0
 10
342.333
 20
50
 11
342.181
 21
49.2346
  0
LINE
  8
0
 10
342.181
 20
49.2346
 11
341.748
 21
48.5858
  0
LINE
  8
0
 10
341.748
 20
48.5858
 11
341.099
 21
48.1522
  0
LINE
  8
0
 10
341.099
 20
48.1522
 11
340.333
 21
48
  0
LINE
  8
0
 10
340.333
 20
48
 11
339.568
 21
48.1522
  0
LINE
  8
0
 10
339.568
 20
48.1522
 11
338.919
 21
48.5858
  0
LINE
  8
0
 10
338.919
 20
48.5858
 11
338.486
 21
49.2346
  0
LINE
  8
0
 10
338.486
 20
49.2346
 11
338.333
 21
50
  0
LINE
  8
0
 10
338.333
 20
180
 11
338.486
 21
180.765
  0
LINE
  8
0
 10
338.486
 20
180.765
 11
338.919
 21
181.414
  0
LINE
  8
0
 10
338.919
 20
181.414
 11
339.568
 21
181.848
  0
LINE
  8
0
 10
339.568
 20
181.848
 11
340.333
 21
182
  0
LINE
  8
0
 10
340.333
 20
182
 11
341.099
 21
181.848
  0
LINE
  8
0
 10
341.099
 20
181.848
 11
341.748
 21
181.414
  0
LINE
  8
0
 10
341.748
 20
181.414
 11
342.181
 21
180.765
  0
LINE
  8
0
 10
342.181
 20
180.765
 11
342.333
 21
180
  0
LINE
  8
0
 10
342.333
 20
180
 11
342.181
 21
179.235
  0
LINE
  8
0
 10
342.181
 20
179.235
 11
341.748
 21
178.586
  0
LINE
  8
0
 10
341.748
 20
178.586
 11
341.099
 21
178.152
  0
LINE
  8
0
 10
341.099
 20
178.152
 11
340.333
 21
178
  0
LINE
  8
0
 10
340.333
 20
178
 11
339.568
 21
178.152
  0
LINE
  8
0
 10
339.568
 20
178.152
 11
338.919
 21
178.586
  0
LINE
  8
0
 10
338.919
 20
178.586
 11
338.486
 21
179.235
  0
LINE
  8
0
 10
338.486
 20
179.235
 11
338.333
 21
180
  0
LINE
  8
0
 10
669.667
 20
50
 11
669.819
 21
50.7654
  0
LINE
  8
0
 10
669.819
 20
50.7654
 11
670.252
 21
51.4142
  0
LINE
  8
0
 10
670.252
 20
51.4142
 11
670.901
 21
51.8478
  0
LINE
  8
0
 10
670.901
 20
51.8478
 11
671.667
 21
52
  0
LINE
  8
0
 10
671.667
 20
52
 11
672.432
 21
51.8478
  0
LINE
  8
0
 10
672.432
 20
51.8478
 11
673.081
 21
51.4142
  0
LINE
  8
0
 10
673.081
 20
51.4142
 11
673.514
 21
50.7654
  0
LINE
  8
0
 10
673.514
 20
50.7654
 11
673.667
 21
50
  0
LINE
  8
0
 10
673.667
 20
50
 11
673.514
 21
49.2346
  0
LINE
  8
0
 10
673.514
 20
49.2346
 11
673.081
 21
48.5858
  0
LINE
  8
0
 10
673.081
 20
48.5858
 11
672.432
 21
48.1522
  0
LINE
  8
0
 10
672.432
 20
48.1522
 11
671.667
 21
48
  0
LINE
  8
0
 10
671.667
 20
48
 11
670.901
 21
48.1522
  0
LINE
  8
0
 10
670.901
 20
48.1522
 11
670.252
 21
48.5858
  0
LINE
  8
0
 10
670.252
 20
48.5858
 11
669.819
 21
49.2346
  0
LINE
  8
0
 10
669.819
 20
49.2346
 11
669.667
 21
50
  0
LINE
  8
0
 10
669.667
 20
180
 11
669.819
 21
180.765
  0
LINE
  8
0
 10
669.819
 20
180.765
 11
670.252
 21
181.414
  0
LINE
  8
0
 10
670.252
 20
181.414
 11
670.901
 21
181.848
  0
LINE
  8
0
 10
670.901
 20
181.848
 11
671.667
 21
182
  0
LINE
  8
0
 10
671.667
 20
182
 11
672.432
 21
181.848
  0
LINE
  8
0
 10
672.432
 20
181.848
 11
673.081
 21
181.414
  0
LINE
  8
0
 10
673.081
 20
181.414
 11
673.514
 21
180.765
  0
LINE
  8
0
 10
673.514
 20
180.765
 11
673.667
 21
180
  0
LINE
  8
0
 10
673.667
 20
180
 11
673.514
 21
179.235
  0
LINE
  8
0
 10
673.514
 20
179.235
 11
673.081
 21
178.586
  0
LINE
  8
0
 10
673.081
 20
178.586
 11
672.432
 21
178.152
  0
LINE
  8
0
 10
672.432
 20
178.152
 11
671.667
 21
178
  0
LINE
  8
0
 10
671.667
 20
178
 11
670.901
 21
178.152
  0
LINE
  8
0
 10
670.901
 20
178.152
 11
670.252
 21
178.586
  0
LINE
  8
0
 10
670.252
 20
178.586
 11
669.819
 21
179.235
  0
LINE
  8
0
 10
669.819
 20
179.235
 11
669.667
 21
180
  0
LINE
  8
0
 10
1001
 20
50
 11
1001.15
 21
50.7654
  0
LINE
  8
0
 10
1001.15
 20
50.7654
 11
1001.59
 21
51.4142
  0
LINE
  8
0
 10
1001.59
 20
51.4142
 11
1002.23
 21
51.8478
  0
LINE
  8
0
 10
1002.23
 20
51.8478
 11
1003
 21
52
  0
LINE
  8
0
 10
1003
 20
52
 11
1003.77
 21
51.8478
  0
LINE
  8
0
 10
1003.77
 20
51.8478
 11
1004.41
 21
51.4142
  0
LINE
  8
0
 10
1004.41
 20
51.4142
 11
1004.85
 21
50.7654
  0
LINE
  8
0
 10
1004.85
 20
50.7654
 11
1005
 21
50
  0
LINE
  8
0
 10
1005
 20
50
 11
1004.85
 21
49.2346
  0
LINE
  8
0
 10
1004.85
 20
49.2346
 11
1004.41
 21
48.5858
  0
LINE
  8
0
 10
1004.41
 20
48.5858
 11
1003.77
 21
48.1522
  0
LINE
  8
0
 10
1003.77
 20
48.1522
 11
1003
 21
48
  0
LINE
  8
0
 10
1003
 20
48
 11
1002.23
 21
48.1522
  0
LINE
  8
0
 10
1002.23
 20
48.1522
 11
1001.59
 21
48.5858
  0
LINE
  8
0
 10
1001.59
 20
48.5858
 11
1001.15
 21
49.2346
  0
LINE
  8
0
 10
1001.15
 20
49.2346
 11
1001
 21
50
  0
LINE
  8
0
 10
1001
 20
180
 11
1001.15
 21
180.765
  0
LINE
  8
0
 10
1001.15
 20
180.765
 11
1001.59
 21
181.414
  0
LINE
  8
0
 10
1001.59
 20
181.414
 11
1002.23
 21
181.848
  0
LINE
  8
0
 10
1002.23
 20
181.848
 11
1003
 21
182
  0
LINE
  8
0
 10
1003
 20
182
 11
1003.77
 21
181.848
  0
LINE
  8
0
 10
1003.77
 20
181.848
 11
1004.41
 21
181.414
  0
LINE
  8
0
 10
1004.41
 20
181.414
 11
1004.85
 21
180.765
  0
LINE
  8
0
 10
1004.85
 20
180.765
 11
1005
 21
180
  0
LINE
  8
0
 10
1005
 20
180
 11
1004.85
 21
179.235
  0
LINE
  8
0
 10
1004.85
 20
179.235
 11
1004.41
 21
178.586
  0
LINE
  8
0
 10
1004.41
 20
178.586
 11
1003.77
 21
178.152
  0
LINE
  8
0
 10
1003.77
 20
178.152
 11
1003
 21
178
  0
LINE
  8
0
 10
1003
 20
178
 11
1002.23
 21
178.152
  0
LINE
  8
0
 10
1002.23
 20
178.152
 11
1001.59
 21
178.586
  0
LINE
  8
0
 10
1001.59
 20
178.586
 11
1001.15
 21
179.235
  0
LINE
  8
0
 10
1001.15
 20
179.235
 11
1001
 21
180
  0
LINE
  8
0
 10
1148.25
 20
6.5
 11
1148.35
 21
6.97835
  0
LINE
  8
0
 10
1148.35
 20
6.97835
 11
1148.62
 21
7.38388
  0
LINE
  8
0
 10
1148.62
 20
7.38388
 11
1149.02
 21
7.65485
  0
LINE
  8
0
 10
1149.02
 20
7.65485
 11
1149.5
 21
7.75
  0
LINE
  8
0
 10
1149.5
 20
7.75
 11
1149.98
 21
7.65485
  0
LINE
  8
0
 10
1149.98
 20
7.65485
 11
1150.38
 21
7.38388
  0
LINE
  8
0
 10
1150.38
 20
7.38388
 11
1150.65
 21
6.97835
  0
LINE
  8
0
 10
1150.65
 20
6.97835
 11
1150.75
 21
6.5
  0
LINE
  8
0
 10
1150.75
 20
6.5
 11
1150.65
 21
6.02165
  0
LINE
  8
0
 10
1150.65
 20
6.02165
 11
1150.38
 21
5.61612
  0
LINE
  8
0
 10
1150.38
 20
5.61612
 11
1149.98
 21
5.34515
  0
LINE
  8
0
 10
1149.98
 20
5.34515
 11
1149.5
 21
5.25
  0
LINE
  8
0
 10
1149.5
 20
5.25
 11
1149.02
 21
5.34515
  0
LINE
  8
0
 10
1149.02
 20
5.34515
 11
1148.62
 21
5.61612
  0
LINE
  8
0
 10
1148.62
 20
5.61612
 11
1148.35
 21
6.02165
  0
LINE
  8
0
 10
1148.35
 20
6.02165
 11
1148.25
 21
6.5
  0
LINE
  8
0
 10
1148.25
 20
35
 11
1148.35
 21
35.4784
  0
LINE
  8
0
 10
1148.35
 20
35.4784
 11
1148.62
 21
35.8839
  0
LINE
  8
0
 10
1148.62
 20
35.8839
 11
1149.02
 21
36.1548
  0
LINE
  8
0
 10
1149.02
 20
36.1548
 11
1149.5
 21
36.25
  0
LINE
  8
0
 10
1149.5
 20
36.25
 11
1149.98
 21
36.1548
  0
LINE
  8
0
 10
1149.98
 20
36.1548
 11
1150.38
 21
35.8839
  0
LINE
  8
0
 10
1150.38
 20
35.8839
 11
1150.65
 21
35.4784
  0
LINE
  8
0
 10
1150.65
 20
35.4784
 11
1150.75
 21
35
  0
LINE
  8
0
 10
1150.75
 20
35
 11
1150.65
 21
34.5216
  0
LINE
  8
0
 10
1150.65
 20
34.5216
 11
1150.38
 21
34.1161
  0
LINE
  8
0
 10
1150.38
 20
34.1161
 11
1149.98
 21
33.8451
  0
LINE
  8
0
 10
1149.98
 20
33.8451
 11
1149.5
 21
33.75
  0
LINE
  8
0
 10
1149.5
 20
33.75
 11
1149.02
 21
33.8451
  0
LINE
  8
0
 10
1149.02
 20
33.8451
 11
1148.62
 21
34.1161
  0
LINE
  8
0
 10
1148.62
 20
34.1161
 11
1148.35
 21
34.5216
  0
LINE
  8
0
 10
1148.35
 20
34.5216
 11
1148.25
 21
35
  0
LINE
  8
0
 10
1148.25
 20
51
 11
1148.35
 21
51.4784
  0
LINE
  8
0
 10
1148.35
 20
51.4784
 11
1148.62
 21
51.8839
  0
LINE
  8
0
 10
1148.62
 20
51.8839
 11
1149.02
 21
52.1548
  0
LINE
  8
0
 10
1149.02
 20
52.1548
 11
1149.5
 21
52.25
  0
LINE
  8
0
 10
1149.5
 20
52.25
 11
1149.98
 21
52.1548
  0
LINE
  8
0
 10
1149.98
 20
52.1548
 11
1150.38
 21
51.8839
  0
LINE
  8
0
 10
1150.38
 20
51.8839
 11
1150.65
 21
51.4784
  0
LINE
  8
0
 10
1150.65
 20
51.4784
 11
1150.75
 21
51
  0
LINE
  8
0
 10
1150.75
 20
51
 11
1150.65
 21
50.5216
  0
LINE
  8
0
 10
1150.65
 20
50.5216
 11
1150.38
 21
50.1161
  0
LINE
  8
0
 10
1150.38
 20
50.1161
 11
1149.98
 21
49.8451
  0
LINE
  8
0
 10
1149.98
 20
49.8451
 11
1149.5
 21
49.75
  0
LINE
  8
0
 10
1149.5
 20
49.75
 11
1149.02
 21
49.8451
  0
LINE
  8
0
 10
1149.02
 20
49.8451
 11
1148.62
 21
50.1161
  0
LINE
  8
0
 10
1148.62
 20
50.1161
 11
1148.35
 21
50.5216
  0
LINE
  8
0
 10
1148.35
 20
50.5216
 11
1148.25
 21
51
  0
LINE
  8
0
 10
1148.25
 20
76
 11
1148.35
 21
76.4784
  0
LINE
  8
0
 10
1148.35
 20
76.4784
 11
1148.62
 21
76.8839
  0
LINE
  8
0
 10
1148.62
 20
76.8839
 11
1149.02
 21
77.1548
  0
LINE
  8
0
 10
1149.02
 20
77.1548
 11
1149.5
 21
77.25
  0
LINE
  8
0
 10
1149.5
 20
77.25
 11
1149.98
 21
77.1548
  0
LINE
  8
0
 10
1149.98
 20
77.1548
 11
1150.38
 21
76.8839
  0
LINE
  8
0
 10
1150.38
 20
76.8839
 11
1150.65
 21
76.4784
  0
LINE
  8
0
 10
1150.65
 20
76.4784
 11
1150.75
 21
76
  0
LINE
  8
0
 10
1150.75
 20
76
 11
1150.65
 21
75.5216
  0
LINE
  8
0
 10
1150.65
 20
75.5216
 11
1150.38
 21
75.1161
  0
LINE
  8
0
 10
1150.38
 20
75.1161
 11
1149.98
 21
74.8451
  0
LINE
  8
0
 10
1149.98
 20
74.8451
 11
1149.5
 21
74.75
  0
LINE
  8
0
 10
1149.5
 20
74.75
 11
1149.02
 21
74.8451
  0
LINE
  8
0
 10
1149.02
 20
74.8451
 11
1148.62
 21
75.1161
  0
LINE
  8
0
 10
1148.62
 20
75.1161
 11
1148.35
 21
75.5216
  0
LINE
  8
0
 10
1148.35
 20
75.5216
 11
1148.25
 21
76
  0
LINE
  8
0
 10
1148.25
 20
99
 11
1148.35
 21
99.4784
  0
LINE
  8
0
 10
1148.35
 20
99.4784
 11
1148.62
 21
99.8839
  0
LINE
  8
0
 10
1148.62
 20
99.8839
 11
1149.02
 21
100.155
  0
LINE
  8
0
 10
1149.02
 20
100.155
 11
1149.5
 21
100.25
  0
LINE
  8
0
 10
1149.5
 20
100.25
 11
1149.98
 21
100.155
  0
LINE
  8
0
 10
1149.98
 20
100.155
 11
1150.38
 21
99.8839
  0
LINE
  8
0
 10
1150.38
 20
99.8839
 11
1150.65
 21
99.4784
  0
LINE
  8
0
 10
1150.65
 20
99.4784
 11
1150.75
 21
99
  0
LINE
  8
0
 10
1150.75
 20
99
 11
1150.65
 21
98.5216
  0
LINE
  8
0
 10
1150.65
 20
98.5216
 11
1150.38
 21
98.1161
  0
LINE
  8
0
 10
1150.38
 20
98.1161
 11
1149.98
 21
97.8451
  0
LINE
  8
0
 10
1149.98
 20
97.8451
 11
1149.5
 21
97.75
  0
LINE
  8
0
 10
1149.5
 20
97.75
 11
1149.02
 21
97.8451
  0
LINE
  8
0
 10
1149.02
 20
97.8451
 11
1148.62
 21
98.1161
  0
LINE
  8
0
 10
1148.62
 20
98.1161
 11
1148.35
 21
98.5216
  0
LINE
  8
0
 10
1148.35
 20
98.5216
 11
1148.25
 21
99
  0
LINE
  8
0
 10
1148.25
 20
115
 11
1148.35
 21
115.478
  0
LINE
  8
0
 10
1148.35
 20
115.478
 11
1148.62
 21
115.884
  0
LINE
  8
0
 10
1148.62
 20
115.884
 11
1149.02
 21
116.155
  0
LINE
  8
0
 10
1149.02
 20
116.155
 11
1149.5
 21
116.25
  0
LINE
  8
0
 10
1149.5
 20
116.25
 11
1149.98
 21
116.155
  0
LINE
  8
0
 10
1149.98
 20
116.155
 11
1150.38
 21
115.884
  0
LINE
  8
0
 10
1150.38
 20
115.884
 11
1150.65
 21
115.478
  0
LINE
  8
0
 10
1150.65
 20
115.478
 11
1150.75
 21
115
  0
LINE
  8
0
 10
1150.75
 20
115
 11
1150.65
 21
114.522
  0
LINE
  8
0
 10
1150.65
 20
114.522
 11
1150.38
 21
114.116
  0
LINE
  8
0
 10
1150.38
 20
114.116
 11
1149.98
 21
113.845
  0
LINE
  8
0
 10
1149.98
 20
113.845
 11
1149.5
 21
113.75
  0
LINE
  8
0
 10
1149.5
 20
113.75
 11
1149.02
 21
113.845
  0
LINE
  8
0
 10
1149.02
 20
113.845
 11
1148.62
 21
114.116
  0
LINE
  8
0
 10
1148.62
 20
114.116
 11
1148.35
 21
114.522
  0
LINE
  8
0
 10
1148.35
 20
114.522
 11
1148.25
 21
115
  0
LINE
  8
0
 10
1358.25
 20
6.5
 11
1358.35
 21
6.97835
  0
LINE
  8
0
 10
1358.35
 20
6.97835
 11
1358.62
 21
7.38388
  0
LINE
  8
0
 10
1358.62
 20
7.38388
 11
1359.02
 21
7.65485
  0
LINE
  8
0
 10
1359.02
 20
7.65485
 11
1359.5
 21
7.75
  0
LINE
  8
0
 10
1359.5
 20
7.75
 11
1359.98
 21
7.65485
  0
LINE
  8
0
 10
1359.98
 20
7.65485
 11
1360.38
 21
7.38388
  0
LINE
  8
0
 10
1360.38
 20
7.38388
 11
1360.65
 21
6.97835
  0
LINE
  8
0
 10
1360.65
 20
6.97835
 11
1360.75
 21
6.5
  0
LINE
  8
0
 10
1360.75
 20
6.5
 11
1360.65
 21
6.02165
  0
LINE
  8
0
 10
1360.65
 20
6.02165
 11
1360.38
 21
5.61612
  0
LINE
  8
0
 10
1360.38
 20
5.61612
 11
1359.98
 21
5.34515
  0
LINE
  8
0
 10
1359.98
 20
5.34515
 11
1359.5
 21
5.25
  0
LINE
  8
0
 10
1359.5
 20
5.25
 11
1359.02
 21
5.34515
  0
LINE
  8
0
 10
1359.02
 20
5.34515
 11
1358.62
 21
5.61612
  0
LINE
  8
0
 10
1358.62
 20
5.61612
 11
1358.35
 21
6.02165
  0
LINE
  8
0
 10
1358.35
 20
6.02165
 11
1358.25
 21
6.5
  0
LINE
  8
0
 10
1358.25
 20
35
 11
1358.35
 21
35.4784
  0
LINE
  8
0
 10
1358.35
 20
35.4784
 11
1358.62
 21
35.8839
  0
LINE
  8
0
 10
1358.62
 20
35.8839
 11
1359.02
 21
36.1548
  0
LINE
  8
0
 10
1359.02
 20
36.1548
 11
1359.5
 21
36.25
  0
LINE
  8
0
 10
1359.5
 20
36.25
 11
1359.98
 21
36.1548
  0
LINE
  8
0
 10
1359.98
 20
36.1548
 11
1360.38
 21
35.8839
  0
LINE
  8
0
 10
1360.38
 20
35.8839
 11
1360.65
 21
35.4784
  0
LINE
  8
0
 10
1360.65
 20
35.4784
 11
1360.75
 21
35
  0
LINE
  8
0
 10
1360.75
 20
35
 11
1360.65
 21
34.5216
  0
LINE
  8
0
 10
1360.65
 20
34.5216
 11
1360.38
 21
34.1161
  0
LINE
  8
0
 10
1360.38
 20
34.1161
 11
1359.98
 21
33.8451
  0
LINE
  8
0
 10
1359.98
 20
33.8451
 11
1359.5
 21
33.75
  0
LINE
  8
0
 10
1359.5
 20
33.75
 11
1359.02
 21
33.8451
  0
LINE
  8
0
 10
1359.02
 20
33.8451
 11
1358.62
 21
34.1161
  0
LINE
  8
0
 10
1358.62
 20
34.1161
 11
1358.35
 21
34.5216
  0
LINE
  8
0
 10
1358.35
 20
34.5216
 11
1358.25
 21
35
  0
LINE
  8
0
 10
1358.25
 20
51
 11
1358.35
 21
51.4784
  0
LINE
  8
0
 10
1358.35
 20
51.4784
 11
1358.62
 21
51.8839
  0
LINE
  8
0
 10
1358.62
 20
51.8839
 11
1359.02
 21
52.1548
  0
LINE
  8
0
 10
1359.02
 20
52.1548
 11
1359.5
 21
52.25
  0
LINE
  8
0
 10
1359.5
 20
52.25
 11
1359.98
 21
52.1548
  0
LINE
  8
0
 10
1359.98
 20
52.1548
 11
1360.38
 21
51.8839
  0
LINE
  8
0
 10
1360.38
 20
51.8839
 11
1360.65
 21
51.4784
  0
LINE
  8
0
 10
1360.65
 20
51.4784
 11
1360.75
 21
51
  0
LINE
  8
0
 10
1360.75
 20
51
 11
1360.65
 21
50.5216
  0
LINE
  8
0
 10
1360.65
 20
50.5216
 11
1360.38
 21
50.1161
  0
LINE
  8
0
 10
1360.38
 20
50.1161
 11
1359.98
 21
49.8451
  0
LINE
  8
0
 10
1359.98
 20
49.8451
 11
1359.5
 21
49.75
  0
LINE
  8
0
 10
1359.5
 20
49.75
 11
1359.02
 21
49.8451
  0
LINE
  8
0
 10
1359.02
 20
49.8451
 11
1358.62
 21
50.1161
  0
LINE
  8
0
 10
1358.62
 20
50.1161
 11
1358.35
 21
50.5216
  0
LINE
  8
0
 10
1358.35
 20
50.5216
 11
1358.25
 21
51
  0
LINE
  8
0
 10
1358.25
 20
76
 11
1358.35
 21
76.4784
  0
LINE
  8
0
 10
1358.35
 20
76.4784
 11
1358.62
 21
76.8839
  0
LINE
  8
0
 10
1358.62
 20
76.8839
 11
1359.02
 21
77.1548
  0
LINE
  8
0
 10
1359.02
 20
77.1548
 11
1359.5
 21
77.25
  0
LINE
  8
0
 10
1359.5
 20
77.25
 11
1359.98
 21
77.1548
  0
LINE
  8
0
 10
1359.98
 20
77.1548
 11
1360.38
 21
76.8839
  0
LINE
  8
0
 10
1360.38
 20
76.8839
 11
1360.65
 21
76.4784
  0
LINE
  8
0
 10
1360.65
 20
76.4784
 11
1360.75
 21
76
  0
LINE
  8
0
 10
1360.75
 20
76
 11
1360.65
 21
75.5216
  0
LINE
  8
0
 10
1360.65
 20
75.5216
 11
1360.38
 21
75.1161
  0
LINE
  8
0
 10
1360.38
 20
75.1161
 11
1359.98
 21
74.8451
  0
LINE
  8
0
 10
1359.98
 20
74.8451
 11
1359.5
 21
74.75
  0
LINE
  8
0
 10
1359.5
 20
74.75
 11
1359.02
 21
74.8451
  0
LINE
  8
0
 10
1359.02
 20
74.8451
 11
1358.62
 21
75.1161
  0
LINE
  8
0
 10
1358.62
 20
75.1161
 11
1358.35
 21
75.5216
  0
LINE
  8
0
 10
1358.35
 20
75.5216
 11
1358.25
 21
76
  0
LINE
  8
0
 10
1358.25
 20
99
 11
1358.35
 21
99.4784
  0
LINE
  8
0
 10
1358.35
 20
99.4784
 11
1358.62
 21
99.8839
  0
LINE
  8
0
 10
1358.62
 20
99.8839
 11
1359.02
 21
100.155
  0
LINE
  8
0
 10
1359.02
 20
100.155
 11
1359.5
 21
100.25
  0
LINE
  8
0
 10
1359.5
 20
100.25
 11
1359.98
 21
100.155
  0
LINE
  8
0
 10
1359.98
 20
100.155
 11
1360.38
 21
99.8839
  0
LINE
  8
0
 10
1360.38
 20
99.8839
 11
1360.65
 21
99.4784
  0
LINE
  8
0
 10
1360.65
 20
99.4784
 11
1360.75
 21
99
  0
LINE
  8
0
 10
1360.75
 20
99
 11
1360.65
 21
98.5216
  0
LINE
  8
0
 10
1360.65
 20
98.5216
 11
1360.38
 21
98.1161
  0
LINE
  8
0
 10
1360.38
 20
98.1161
 11
1359.98
 21
97.8451
  0
LINE
  8
0
 10
1359.98
 20
97.8451
 11
1359.5
 21
97.75
  0
LINE
  8
0
 10
1359.5
 20
97.75
 11
1359.02
 21
97.8451
  0
LINE
  8
0
 10
1359.02
 20
97.8451
 11
1358.62
 21
98.1161
  0
LINE
  8
0
 10
1358.62
 20
98.1161
 11
1358.35
 21
98.5216
  0
LINE
  8
0
 10
1358.35
 20
98.5216
 11
1358.25
 21
99
  0
LINE
  8
0
 10
1358.25
 20
115
 11
1358.35
 21
115.478
  0
LINE
  8
0
 10
1358.35
 20
115.478
 11
1358.62
 21
115.884
  0
LINE
  8
0
 10
1358.62
 20
115.884
 11
1359.02
 21
116.155
  0
LINE
  8
0
 10
1359.02
 20
116.155
 11
1359.5
 21
116.25
  0
LINE
  8
0
 10
1359.5
 20
116.25
 11
1359.98
 21
116.155
  0
LINE
  8
0
 10
1359.98
 20
116.155
 11
1360.38
 21
115.884
  0
LINE
  8
0
 10
1360.38
 20
115.884
 11
1360.65
 21
115.478
  0
LINE
  8
0
 10
1360.65
 20
115.478
 11
1360.75
 21
115
  0
LINE
  8
0
 10
1360.75
 20
115
 11
1360.65
 21
114.522
  0
LINE
  8
0
 10
1360.65
 20
114.522
 11
1360.38
 21
114.116
  0
LINE
  8
0
 10
1360.38
 20
114.116
 11
1359.98
 21
113.845
  0
LINE
  8
0
 10
1359.98
 20
113.845
 11
1359.5
 21
113.75
  0
LINE
  8
0
 10
1359.5
 20
113.75
 11
1359.02
 21
113.845
  0
LINE
  8
0
 10
1359.02
 20
113.845
 11
1358.62
 21
114.116
  0
LINE
  8
0
 10
1358.62
 20
114.116
 11
1358.35
 21
114.522
  0
LINE
  8
0
 10
1358.35
 20
114.522
 11
1358.25
 21
115
  0
LINE
  8
0
 10
1568.25
 20
6.5
 11
1568.35
 21
6.97835
  0
LINE
  8
0
 10
1568.35
 20
6.97835
 11
1568.62
 21
7.38388
  0
LINE
  8
0
 10
1568.62
 20
7.38388
 11
1569.02
 21
7.65485
  0
LINE
  8
0
 10
1569.02
 20
7.65485
 11
1569.5
 21
7.75
  0
LINE
  8
0
 10
1569.5
 20
7.75
 11
1569.98
 21
7.65485
  0
LINE
  8
0
 10
1569.98
 20
7.65485
 11
1570.38
 21
7.38388
  0
LINE
  8
0
 10
1570.38
 20
7.38388
 11
1570.65
 21
6.97835
  0
LINE
  8
0
 10
1570.65
 20
6.97835
 11
1570.75
 21
6.5
  0
LINE
  8
0
 10
1570.75
 20
6.5
 11
1570.65
 21
6.02165
  0
LINE
  8
0
 10
1570.65
 20
6.02165
 11
1570.38
 21
5.61612
  0
LINE
  8
0
 10
1570.38
 20
5.61612
 11
1569.98
 21
5.34515
  0
LINE
  8
0
 10
1569.98
 20
5.34515
 11
1569.5
 21
5.25
  0
LINE
  8
0
 10
1569.5
 20
5.25
 11
1569.02
 21
5.34515
  0
LINE
  8
0
 10
1569.02
 20
5.34515
 11
1568.62
 21
5.61612
  0
LINE
  8
0
 10
1568.62
 20
5.61612
 11
1568.35
 21
6.02165
  0
LINE
  8
0
 10
1568.35
 20
6.02165
 11
1568.25
 21
6.5
  0
LINE
  8
0
 10
1568.25
 20
35
 11
1568.35
 21
35.4784
  0
LINE
  8
0
 10
1568.35
 20
35.4784
 11
1568.62
 21
35.8839
  0
LINE
  8
0
 10
1568.62
 20
35.8839
 11
1569.02
 21
36.1548
  0
LINE
  8
0
 10
1569.02
 20
36.1548
 11
1569.5
 21
36.25
  0
LINE
  8
0
 10
1569.5
 20
36.25
 11
1569.98
 21
36.1548
  0
LINE
  8
0
 10
1569.98
 20
36.1548
 11
1570.38
 21
35.8839
  0
LINE
  8
0
 10
1570.38
 20
35.8839
 11
1570.65
 21
35.4784
  0
LINE
  8
0
 10
1570.65
 20
35.4784
 11
1570.75
 21
35
  0
LINE
  8
0
 10
1570.75
 20
35
 11
1570.65
 21
34.5216
  0
LINE
  8
0
 10
1570.65
 20
34.5216
 11
1570.38
 21
34.1161
  0
LINE
  8
0
 10
1570.38
 20
34.1161
 11
1569.98
 21
33.8451
  0
LINE
  8
0
 10
1569.98
 20
33.8451
 11
1569.5
 21
33.75
  0
LINE
  8
0
 10
1569.5
 20
33.75
 11
1569.02
 21
33.8451
  0
LINE
  8
0
 10
1569.02
 20
33.8451
 11
1568.62
 21
34.1161
  0
LINE
  8
0
 10
1568.62
 20
34.1161
 11
1568.35
 21
34.5216
  0
LINE
  8
0
 10
1568.35
 20
34.5216
 11
1568.25
 21
35
  0
LINE
  8
0
 10
1568.25
 20
51
 11
1568.35
 21
51.4784
  0
LINE
  8
0
 10
1568.35
 20
51.4784
 11
1568.62
 21
51.8839
  0
LINE
  8
0
 10
1568.62
 20
51.8839
 11
1569.02
 21
52.1548
  0
LINE
  8
0
 10
1569.02
 20
52.1548
 11
1569.5
 21
52.25
  0
LINE
  8
0
 10
1569.5
 20
52.25
 11
1569.98
 21
52.1548
  0
LINE
  8
0
 10
1569.98
 20
52.1548
 11
1570.38
 21
51.8839
  0
LINE
  8
0
 10
1570.38
 20
51.8839
 11
1570.65
 21
51.4784
  0
LINE
  8
0
 10
1570.65
 20
51.4784
 11
1570.75
 21
51
  0
LINE
  8
0
 10
1570.75
 20
51
 11
1570.65
 21
50.5216
  0
LINE
  8
0
 10
1570.65
 20
50.5216
 11
1570.38
 21
50.1161
  0
LINE
  8
0
 10
1570.38
 20
50.1161
 11
1569.98
 21
49.8451
  0
LINE
  8
0
 10
1569.98
 20
49.8451
 11
1569.5
 21
49.75
  0
LINE
  8
0
 10
1569.5
 20
49.75
 11
1569.02
 21
49.8451
  0
LINE
  8
0
 10
1569.02
 20
49.8451
 11
1568.62
 21
50.1161
  0
LINE
  8
0
 10
1568.62
 20
50.1161
 11
1568.35
 21
50.5216
  0
LINE
  8
0
 10
1568.35
 20
50.5216
 11
1568.25
 21
51
  0
LINE
  8
0
 10
1568.25
 20
76
 11
1568.35
 21
76.4784
  0
LINE
  8
0
 10
1568.35
 20
76.4784
 11
1568.62
 21
76.8839
  0
LINE
  8
0
 10
1568.62
 20
76.8839
 11
1569.02
 21
77.1548
  0
LINE
  8
0
 10
1569.02
 20
77.1548
 11
1569.5
 21
77.25
  0
LINE
  8
0
 10
1569.5
 20
77.25
 11
1569.98
 21
77.1548
  0
LINE
  8
0
 10
1569.98
 20
77.1548
 11
1570.38
 21
76.8839
  0
LINE
  8
0
 10
1570.38
 20
76.8839
 11
1570.65
 21
76.4784
  0
LINE
  8
0
 10
1570.65
 20
76.4784
 11
1570.75
 21
76
  0
LINE
  8
0
 10
1570.75
 20
76
 11
1570.65
 21
75.5216
  0
LINE
  8
0
 10
1570.65
 20
75.5216
 11
1570.38
 21
75.1161
  0
LINE
  8
0
 10
1570.38
 20
75.1161
 11
1569.98
 21
74.8451
  0
LINE
  8
0
 10
1569.98
 20
74.8451
 11
1569.5
 21
74.75
  0
LINE
  8
0
 10
1569.5
 20
74.75
 11
1569.02
 21
74.8451
  0
LINE
  8
0
 10
1569.02
 20
74.8451
 11
1568.62
 21
75.1161
  0
LINE
  8
0
 10
1568.62
 20
75.1161
 11
1568.35
 21
75.5216
  0
LINE
  8
0
 10
1568.35
 20
75.5216
 11
1568.25
 21
76
  0
LINE
  8
0
 10
1568.25
 20
99
 11
1568.35
 21
99.4784
  0
LINE
  8
0
 10
1568.35
 20
99.4784
 11
1568.62
 21
99.8839
  0
LINE
  8
0
 10
1568.62
 20
99.8839
 11
1569.02
 21
100.155
  0
LINE
  8
0
 10
1569.02
 20
100.155
 11
1569.5
 21
100.25
  0
LINE
  8
0
 10
1569.5
 20
100.25
 11
1569.98
 21
100.155
  0
LINE
  8
0
 10
1569.98
 20
100.155
 11
1570.38
 21
99.8839
  0
LINE
  8
0
 10
1570.38
 20
99.8839
 11
1570.65
 21
99.4784
  0
LINE
  8
0
 10
1570.65
 20
99.4784
 11
1570.75
 21
99
  0
LINE
  8
0
 10
1570.75
 20
99
 11
1570.65
 21
98.5216
  0
LINE
  8
0
 10
1570.65
 20
98.5216
 11
1570.38
 21
98.1161
  0
LINE
  8
0
 10
1570.38
 20
98.1161
 11
1569.98
 21
97.8451
  0
LINE
  8
0
 10
1569.98
 20
97.8451
 11
1569.5
 21
97.75
  0
LINE
  8
0
 10
1569.5
 20
97.75
 11
1569.02
 21
97.8451
  0
LINE
  8
0
 10
1569.02
 20
97.8451
 11
1568.62
 21
98.1161
  0
LINE
  8
0
 10
1568.62
 20
98.1161
 11
1568.35
 21
98.5216
  0
LINE
  8
0
 10
1568.35
 20
98.5216
 11
1568.25
 21
99
  0
LINE
  8
0
 10
1568.25
 20
115
 11
1568.35
 21
115.478
  0
LINE
  8
0
 10
1568.35
 20
115.478
 11
1568.62
 21
115.884
  0
LINE
  8
0
 10
1568.62
 20
115.884
 11
1569.02
 21
116.155
  0
LINE
  8
0
 10
1569.02
 20
116.155
 11
1569.5
 21
116.25
  0
LINE
  8
0
 10
1569.5
 20
116.25
 11
1569.98
 21
116.155
  0
LINE
  8
0
 10
1569.98
 20
116.155
 11
1570.38
 21
115.884
  0
LINE
  8
0
 10
1570.38
 20
115.884
 11
1570.65
 21
115.478
  0
LINE
  8
0
 10
1570.65
 20
115.478
 11
1570.75
 21
115
  0
LINE
  8
0
 10
1570.75
 20
115
 11
1570.65
 21
114.522
  0
LINE
  8
0
 10
1570.65
 20
114.522
 11
1570.38
 21
114.116
  0
LINE
  8
0
 10
1570.38
 20
114.116
 11
1569.98
 21
113.845
  0
LINE
  8
0
 10
1569.98
 20
113.845
 11
1569.5
 21
113.75
  0
LINE
  8
0
 10
1569.5
 20
113.75
 11
1569.02
 21
113.845
  0
LINE
  8
0
 10
1569.02
 20
113.845
 11
1568.62
 21
114.116
  0
LINE
  8
0
 10
1568.62
 20
114.116
 11
1568.35
 21
114.522
  0
LINE
  8
0
 10
1568.35
 20
114.522
 11
1568.25
 21
115
  0
LINE
  8
0
 10
1778.25
 20
6.5
 11
1778.35
 21
6.97835
  0
LINE
  8
0
 10
1778.35
 20
6.97835
 11
1778.62
 21
7.38388
  0
LINE
  8
0
 10
1778.62
 20
7.38388
 11
1779.02
 21
7.65485
  0
LINE
  8
0
 10
1779.02
 20
7.65485
 11
1779.5
 21
7.75
  0
LINE
  8
0
 10
1779.5
 20
7.75
 11
1779.98
 21
7.65485
  0
LINE
  8
0
 10
1779.98
 20
7.65485
 11
1780.38
 21
7.38388
  0
LINE
  8
0
 10
1780.38
 20
7.38388
 11
1780.65
 21
6.97835
  0
LINE
  8
0
 10
1780.65
 20
6.97835
 11
1780.75
 21
6.5
  0
LINE
  8
0
 10
1780.75
 20
6.5
 11
1780.65
 21
6.02165
  0
LINE
  8
0
 10
1780.65
 20
6.02165
 11
1780.38
 21
5.61612
  0
LINE
  8
0
 10
1780.38
 20
5.61612
 11
1779.98
 21
5.34515
  0
LINE
  8
0
 10
1779.98
 20
5.34515
 11
1779.5
 21
5.25
  0
LINE
  8
0
 10
1779.5
 20
5.25
 11
1779.02
 21
5.34515
  0
LINE
  8
0
 10
1779.02
 20
5.34515
 11
1778.62
 21
5.61612
  0
LINE
  8
0
 10
1778.62
 20
5.61612
 11
1778.35
 21
6.02165
  0
LINE
  8
0
 10
1778.35
 20
6.02165
 11
1778.25
 21
6.5
  0
LINE
  8
0
 10
1778.25
 20
35
 11
1778.35
 21
35.4784
  0
LINE
  8
0
 10
1778.35
 20
35.4784
 11
1778.62
 21
35.8839
  0
LINE
  8
0
 10
1778.62
 20
35.8839
 11
1779.02
 21
36.1548
  0
LINE
  8
0
 10
1779.02
 20
36.1548
 11
1779.5
 21
36.25
  0
LINE
  8
0
 10
1779.5
 20
36.25
 11
1779.98
 21
36.1548
  0
LINE
  8
0
 10
1779.98
 20
36.1548
 11
1780.38
 21
35.8839
  0
LINE
  8
0
 10
1780.38
 20
35.8839
 11
1780.65
 21
35.4784
  0
LINE
  8
0
 10
1780.65
 20
35.4784
 11
1780.75
 21
35
  0
LINE
  8
0
 10
1780.75
 20
35
 11
1780.65
 21
34.5216
  0
LINE
  8
0
 10
1780.65
 20
34.5216
 11
1780.38
 21
34.1161
  0
LINE
  8
0
 10
1780.38
 20
34.1161
 11
1779.98
 21
33.8451
  0
LINE
  8
0
 10
1779.98
 20
33.8451
 11
1779.5
 21
33.75
  0
LINE
  8
0
 10
1779.5
 20
33.75
 11
1779.02
 21
33.8451
  0
LINE
  8
0
 10
1779.02
 20
33.8451
 11
1778.62
 21
34.1161
  0
LINE
  8
0
 10
1778.62
 20
34.1161
 11
1778.35
 21
34.5216
  0
LINE
  8
0
 10
1778.35
 20
34.5216
 11
1778.25
 21
35
  0
LINE
  8
0
 10
1778.25
 20
51
 11
1778.35
 21
51.4784
  0
LINE
  8
0
 10
1778.35
 20
51.4784
 11
1778.62
 21
51.8839
  0
LINE
  8
0
 10
1778.62
 20
51.8839
 11
1779.02
 21
52.1548
  0
LINE
  8
0
 10
1779.02
 20
52.1548
 11
1779.5
 21
52.25
  0
LINE
  8
0
 10
1779.5
 20
52.25
 11
1779.98
 21
52.1548
  0
LINE
  8
0
 10
1779.98
 20
52.1548
 11
1780.38
 21
51.8839
  0
LINE
  8
0
 10
1780.38
 20
51.8839
 11
1780.65
 21
51.4784
  0
LINE
  8
0
 10
1780.65
 20
51.4784
 11
1780.75
 21
51
  0
LINE
  8
0
 10
1780.75
 20
51
 11
1780.65
 21
50.5216
  0
LINE
  8
0
 10
1780.65
 20
50.5216
 11
1780.38
 21
50.1161
  0
LINE
  8
0
 10
1780.38
 20
50.1161
 11
1779.98
 21
49.8451
  0
LINE
  8
0
 10
1779.98
 20
49.8451
 11
1779.5
 21
49.75
  0
LINE
  8
0
 10
1779.5
 20
49.75
 11
1779.02
 21
49.8451
  0
LINE
  8
0
 10
1779.02
 20
49.8451
 11
1778.62
 21
50.1161
  0
LINE
  8
0
 10
1778.62
 20
50.1161
 11
1778.35
 21
50.5216
  0
LINE
  8
0
 10
1778.35
 20
50.5216
 11
1778.25
 21
51
  0
LINE
  8
0
 10
1778.25
 20
76
 11
1778.35
 21
76.4784
  0
LINE
  8
0
 10
1778.35
 20
76.4784
 11
1778.62
 21
76.8839
  0
LINE
  8
0
 10
1778.62
 20
76.8839
 11
1779.02
 21
77.1548
  0
LINE
  8
0
 10
1779.02
 20
77.1548
 11
1779.5
 21
77.25
  0
LINE
  8
0
 10
1779.5
 20
77.25
 11
1779.98
 21
77.1548
  0
LINE
  8
0
 10
1779.98
 20
77.1548
 11
1780.38
 21
76.8839
  0
LINE
  8
0
 10
1780.38
 20
76.8839
 11
1780.65
 21
76.4784
  0
LINE
  8
0
 10
1780.65
 20
76.4784
 11
1780.75
 21
76
  0
LINE
  8
0
 10
1780.75
 20
76
 11
1780.65
 21
75.5216
  0
LINE
  8
0
 10
1780.65
 20
75.5216
 11
1780.38
 21
75.1161
  0
LINE
  8
0
 10
1780.38
 20
75.1161
 11
1779.98
 21
74.8451
  0
LINE
  8
0
 10
1779.98
 20
74.8451
 11
1779.5
 21
74.75
  0
LINE
  8
0
 10
1779.5
 20
74.75
 11
1779.02
 21
74.8451
  0
LINE
  8
0
 10
1779.02
 20
74.8451
 11
1778.62
 21
75.1161
  0
LINE
  8
0
 10
1778.62
 20
75.1161
 11
1778.35
 21
75.5216
  0
LINE
  8
0
 10
1778.35
 20
75.5216
 11
1778.25
 21
76
  0
LINE
  8
0
 10
1778.25
 20
99
 11
1778.35
 21
99.4784
  0
LINE
  8
0
 10
1778.35
 20
99.4784
 11
1778.62
 21
99.8839
  0
LINE
  8
0
 10
1778.62
 20
99.8839
 11
1779.02
 21
100.155
  0
LINE
  8
0
 10
1779.02
 20
100.155
 11
1779.5
 21
100.25
  0
LINE
  8
0
 10
1779.5
 20
100.25
 11
1779.98
 21
100.155
  0
LINE
  8
0
 10
1779.98
 20
100.155
 11
1780.38
 21
99.8839
  0
LINE
  8
0
 10
1780.38
 20
99.8839
 11
1780.65
 21
99.4784
  0
LINE
  8
0
 10
1780.65
 20
99.4784
 11
1780.75
 21
99
  0
LINE
  8
0
 10
1780.75
 20
99
 11
1780.65
 21
98.5216
  0
LINE
  8
0
 10
1780.65
 20
98.5216
 11
1780.38
 21
98.1161
  0
LINE
  8
0
 10
1780.38
 20
98.1161
 11
1779.98
 21
97.8451
  0
LINE
  8
0
 10
1779.98
 20
97.8451
 11
1779.5
 21
97.75
  0
LINE
  8
0
 10
1779.5
 20
97.75
 11
1779.02
 21
97.8451
  0
LINE
  8
0
 10
1779.02
 20
97.8451
 11
1778.62
 21
98.1161
  0
LINE
  8
0
 10
1778.62
 20
98.1161
 11
1778.35
 21
98.5216
  0
LINE
  8
0
 10
1778.35
 20
98.5216
 11
1778.25
 21
99
  0
LINE
  8
0
 10
1778.25
 20
115
 11
1778.35
 21
115.478
  0
LINE
  8
0
 10
1778.35
 20
115.478
 11
1778.62
 21
115.884
  0
LINE
  8
0
 10
1778.62
 20
115.884
 11
1779.02
 21
116.155
  0
LINE
  8
0
 10
1779.02
 20
116.155
 11
1779.5
 21
116.25
  0
LINE
  8
0
 10
1779.5
 20
116.25
 11
1779.98
 21
116.155
  0
LINE
  8
0
 10
1779.98
 20
116.155
 11
1780.38
 21
115.884
  0
LINE
  8
0
 10
1780.38
 20
115.884
 11
1780.65
 21
115.478
  0
LINE
  8
0
 10
1780.65
 20
115.478
 11
1780.75
 21
115
  0
LINE
  8
0
 10
1780.75
 20
115
 11
1780.65
 21
114.522
  0
LINE
  8
0
 10
1780.65
 20
114.522
 11
1780.38
 21
114.116
  0
LINE
  8
0
 10
1780.38
 20
114.116
 11
1779.98
 21
113.845
  0
LINE
  8
0
 10
1779.98
 20
113.845
 11
1779.5
 21
113.75
  0
LINE
  8
0
 10
1779.5
 20
113.75
 11
1779.02
 21
113.845
  0
LINE
  8
0
 10
1779.02
 20
113.845
 11
1778.62
 21
114.116
  0
LINE
  8
0
 10
1778.62
 20
114.116
 11
1778.35
 21
114.522
  0
LINE
  8
0
 10
1778.35
 20
114.522
 11
1778.25
 21
115
  0
LINE
  8
0
 10
1988.25
 20
6.5
 11
1988.35
 21
6.97835
  0
LINE
  8
0
 10
1988.35
 20
6.97835
 11
1988.62
 21
7.38388
  0
LINE
  8
0
 10
1988.62
 20
7.38388
 11
1989.02
 21
7.65485
  0
LINE
  8
0
 10
1989.02
 20
7.65485
 11
1989.5
 21
7.75
  0
LINE
  8
0
 10
1989.5
 20
7.75
 11
1989.98
 21
7.65485
  0
LINE
  8
0
 10
1989.98
 20
7.65485
 11
1990.38
 21
7.38388
  0
LINE
  8
0
 10
1990.38
 20
7.38388
 11
1990.65
 21
6.97835
  0
LINE
  8
0
 10
1990.65
 20
6.97835
 11
1990.75
 21
6.5
  0
LINE
  8
0
 10
1990.75
 20
6.5
 11
1990.65
 21
6.02165
  0
LINE
  8
0
 10
1990.65
 20
6.02165
 11
1990.38
 21
5.61612
  0
LINE
  8
0
 10
1990.38
 20
5.61612
 11
1989.98
 21
5.34515
  0
LINE
  8
0
 10
1989.98
 20
5.34515
 11
1989.5
 21
5.25
  0
LINE
  8
0
 10
1989.5
 20
5.25
 11
1989.02
 21
5.34515
  0
LINE
  8
0
 10
1989.02
 20
5.34515
 11
1988.62
 21
5.61612
  0
LINE
  8
0
 10
1988.62
 20
5.61612
 11
1988.35
 21
6.02165
  0
LINE
  8
0
 10
1988.35
 20
6.02165
 11
1988.25
 21
6.5
  0
LINE
  8
0
 10
1988.25
 20
35
 11
1988.35
 21
35.4784
  0
LINE
  8
0
 10
1988.35
 20
35.4784
 11
1988.62
 21
35.8839
  0
LINE
  8
0
 10
1988.62
 20
35.8839
 11
1989.02
 21
36.1548
  0
LINE
  8
0
 10
1989.02
 20
36.1548
 11
1989.5
 21
36.25
  0
LINE
  8
0
 10
1989.5
 20
36.25
 11
1989.98
 21
36.1548
  0
LINE
  8
0
 10
1989.98
 20
36.1548
 11
1990.38
 21
35.8839
  0
LINE
  8
0
 10
1990.38
 20
35.8839
 11
1990.65
 21
35.4784
  0
LINE
  8
0
 10
1990.65
 20
35.4784
 11
1990.75
 21
35
  0
LINE
  8
0
 10
1990.75
 20
35
 11
1990.65
 21
34.5216
  0
LINE
  8
0
 10
1990.65
 20
34.5216
 11
1990.38
 21
34.1161
  0
LINE
  8
0
 10
1990.38
 20
34.1161
 11
1989.98
 21
33.8451
  0
LINE
  8
0
 10
1989.98
 20
33.8451
 11
1989.5
 21
33.75
  0
LINE
  8
0
 10
1989.5
 20
33.75
 11
1989.02
 21
33.8451
  0
LINE
  8
0
 10
1989.02
 20
33.8451
 11
1988.62
 21
34.1161
  0
LINE
  8
0
 10
1988.62
 20
34.1161
 11
1988.35
 21
34.5216
  0
LINE
  8
0
 10
1988.35
 20
34.5216
 11
1988.25
 21
35
  0
LINE
  8
0
 10
1988.25
 20
51
 11
1988.35
 21
51.4784
  0
LINE
  8
0
 10
1988.35
 20
51.4784
 11
1988.62
 21
51.8839
  0
LINE
  8
0
 10
1988.62
 20
51.8839
 11
1989.02
 21
52.1548
  0
LINE
  8
0
 10
1989.02
 20
52.1548
 11
1989.5
 21
52.25
  0
LINE
  8
0
 10
1989.5
 20
52.25
 11
1989.98
 21
52.1548
  0
LINE
  8
0
 10
1989.98
 20
52.1548
 11
1990.38
 21
51.8839
  0
LINE
  8
0
 10
1990.38
 20
51.8839
 11
1990.65
 21
51.4784
  0
LINE
  8
0
 10
1990.65
 20
51.4784
 11
1990.75
 21
51
  0
LINE
  8
0
 10
1990.75
 20
51
 11
1990.65
 21
50.5216
  0
LINE
  8
0
 10
1990.65
 20
50.5216
 11
1990.38
 21
50.1161
  0
LINE
  8
0
 10
1990.38
 20
50.1161
 11
1989.98
 21
49.8451
  0
LINE
  8
0
 10
1989.98
 20
49.8451
 11
1989.5
 21
49.75
  0
LINE
  8
0
 10
1989.5
 20
49.75
 11
1989.02
 21
49.8451
  0
LINE
  8
0
 10
1989.02
 20
49.8451
 11
1988.62
 21
50.1161
  0
LINE
  8
0
 10
1988.62
 20
50.1161
 11
1988.35
 21
50.5216
  0
LINE
  8
0
 10
1988.35
 20
50.5216
 11
1988.25
 21
51
  0
LINE
  8
0
 10
1988.25
 20
76
 11
1988.35
 21
76.4784
  0
LINE
  8
0
 10
1988.35
 20
76.4784
 11
1988.62
 21
76.8839
  0
LINE
  8
0
 10
1988.62
 20
76.8839
 11
1989.02
 21
77.1548
  0
LINE
  8
0
 10
1989.02
 20
77.1548
 11
1989.5
 21
77.25
  0
LINE
  8
0
 10
1989.5
 20
77.25
 11
1989.98
 21
77.1548
  0
LINE
  8
0
 10
1989.98
 20
77.1548
 11
1990.38
 21
76.8839
  0
LINE
  8
0
 10
1990.38
 20
76.8839
 11
1990.65
 21
76.4784
  0
LINE
  8
0
 10
1990.65
 20
76.4784
 11
1990.75
 21
76
  0
LINE
  8
0
 10
1990.75
 20
76
 11
1990.65
 21
75.5216
  0
LINE
  8
0
 10
1990.65
 20
75.5216
 11
1990.38
 21
75.1161
  0
LINE
  8
0
 10
1990.38
 20
75.1161
 11
1989.98
 21
74.8451
  0
LINE
  8
0
 10
1989.98
 20
74.8451
 11
1989.5
 21
74.75
  0
LINE
  8
0
 10
1989.5
 20
74.75
 11
1989.02
 21
74.8451
  0
LINE
  8
0
 10
1989.02
 20
74.8451
 11
1988.62
 21
75.1161
  0
LINE
  8
0
 10
1988.62
 20
75.1161
 11
1988.35
 21
75.5216
  0
LINE
  8
0
 10
1988.35
 20
75.5216
 11
1988.25
 21
76
  0
LINE
  8
0
 10
1988.25
 20
99
 11
1988.35
 21
99.4784
  0
LINE
  8
0
 10
1988.35
 20
99.4784
 11
1988.62
 21
99.8839
  0
LINE
  8
0
 10
1988.62
 20
99.8839
 11
1989.02
 21
100.155
  0
LINE
  8
0
 10
1989.02
 20
100.155
 11
1989.5
 21
100.25
  0
LINE
  8
0
 10
1989.5
 20
100.25
 11
1989.98
 21
100.155
  0
LINE
  8
0
 10
1989.98
 20
100.155
 11
1990.38
 21
99.8839
  0
LINE
  8
0
 10
1990.38
 20
99.8839
 11
1990.65
 21
99.4784
  0
LINE
  8
0
 10
1990.65
 20
99.4784
 11
1990.75
 21
99
  0
LINE
  8
0
 10
1990.75
 20
99
 11
1990.65
 21
98.5216
  0
LINE
  8
0
 10
1990.65
 20
98.5216
 11
1990.38
 21
98.1161
  0
LINE
  8
0
 10
1990.38
 20
98.1161
 11
1989.98
 21
97.8451
  0
LINE
  8
0
 10
1989.98
 20
97.8451
 11
1989.5
 21
97.75
  0
LINE
  8
0
 10
1989.5
 20
97.75
 11
1989.02
 21
97.8451
  0
LINE
  8
0
 10
1989.02
 20
97.8451
 11
1988.62
 21
98.1161
  0
LINE
  8
0
 10
1988.62
 20
98.1161
 11
1988.35
 21
98.5216
  0
LINE
  8
0
 10
1988.35
 20
98.5216
 11
1988.25
 21
99
  0
LINE
  8
0
 10
1988.25
 20
115
 11
1988.35
 21
115.478
  0
LINE
  8
0
 10
1988.35
 20
115.478
 11
1988.62
 21
115.884
  0
LINE
  8
0
 10
1988.62
 20
115.884
 11
1989.02
 21
116.155
  0
LINE
  8
0
 10
1989.02
 20
116.155
 11
1989.5
 21
116.25
  0
LINE
  8
0
 10
1989.5
 20
116.25
 11
1989.98
 21
116.155
  0
LINE
  8
0
 10
1989.98
 20
116.155
 11
1990.38
 21
115.884
  0
LINE
  8
0
 10
1990.38
 20
115.884
 11
1990.65
 21
115.478
  0
LINE
  8
0
 10
1990.65
 20
115.478
 11
1990.75
 21
115
  0
LINE
  8
0
 10
1990.75
 20
115
 11
1990.65
 21
114.522
  0
LINE
  8
0
 10
1990.65
 20
114.522
 11
1990.38
 21
114.116
  0
LINE
  8
0
 10
1990.38
 20
114.116
 11
1989.98
 21
113.845
  0
LINE
  8
0
 10
1989.98
 20
113.845
 11
1989.5
 21
113.75
  0
LINE
  8
0
 10
1989.5
 20
113.75
 11
1989.02
 21
113.845
  0
LINE
  8
0
 10
1989.02
 20
113.845
 11
1988.62
 21
114.116
  0
LINE
  8
0
 10
1988.62
 20
114.116
 11
1988.35
 21
114.522
  0
LINE
  8
0
 10
1988.35
 20
114.522
 11
1988.25
 21
115
  0
LINE
  8
0
 10
2198.25
 20
6.5
 11
2198.35
 21
6.97835
  0
LINE
  8
0
 10
2198.35
 20
6.97835
 11
2198.62
 21
7.38388
  0
LINE
  8
0
 10
2198.62
 20
7.38388
 11
2199.02
 21
7.65485
  0
LINE
  8
0
 10
2199.02
 20
7.65485
 11
2199.5
 21
7.75
  0
LINE
  8
0
 10
2199.5
 20
7.75
 11
2199.98
 21
7.65485
  0
LINE
  8
0
 10
2199.98
 20
7.65485
 11
2200.38
 21
7.38388
  0
LINE
  8
0
 10
2200.38
 20
7.38388
 11
2200.65
 21
6.97835
  0
LINE
  8
0
 10
2200.65
 20
6.97835
 11
2200.75
 21
6.5
  0
LINE
  8
0
 10
2200.75
 20
6.5
 11
2200.65
 21
6.02165
  0
LINE
  8
0
 10
2200.65
 20
6.02165
 11
2200.38
 21
5.61612
  0
LINE
  8
0
 10
2200.38
 20
5.61612
 11
2199.98
 21
5.34515
  0
LINE
  8
0
 10
2199.98
 20
5.34515
 11
2199.5
 21
5.25
  0
LINE
  8
0
 10
2199.5
 20
5.25
 11
2199.02
 21
5.34515
  0
LINE
  8
0
 10
2199.02
 20
5.34515
 11
2198.62
 21
5.61612
  0
LINE
  8
0
 10
2198.62
 20
5.61612
 11
2198.35
 21
6.02165
  0
LINE
  8
0
 10
2198.35
 20
6.02165
 11
2198.25
 21
6.5
  0
LINE
  8
0
 10
2198.25
 20
35
 11
2198.35
 21
35.4784
  0
LINE
  8
0
 10
2198.35
 20
35.4784
 11
2198.62
 21
35.8839
  0
LINE
  8
0
 10
2198.62
 20
35.8839
 11
2199.02
 21
36.1548
  0
LINE
  8
0
 10
2199.02
 20
36.1548
 11
2199.5
 21
36.25
  0
LINE
  8
0
 10
2199.5
 20
36.25
 11
2199.98
 21
36.1548
  0
LINE
  8
0
 10
2199.98
 20
36.1548
 11
2200.38
 21
35.8839
  0
LINE
  8
0
 10
2200.38
 20
35.8839
 11
2200.65
 21
35.4784
  0
LINE
  8
0
 10
2200.65
 20
35.4784
 11
2200.75
 21
35
  0
LINE
  8
0
 10
2200.75
 20
35
 11
2200.65
 21
34.5216
  0
LINE
  8
0
 10
2200.65
 20
34.5216
 11
2200.38
 21
34.1161
  0
LINE
  8
0
 10
2200.38
 20
34.1161
 11
2199.98
 21
33.8451
  0
LINE
  8
0
 10
2199.98
 20
33.8451
 11
2199.5
 21
33.75
  0
LINE
  8
0
 10
2199.5
 20
33.75
 11
2199.02
 21
33.8451
  0
LINE
  8
0
 10
2199.02
 20
33.8451
 11
2198.62
 21
34.1161
  0
LINE
  8
0
 10
2198.62
 20
34.1161
 11
2198.35
 21
34.5216
  0
LINE
  8
0
 10
2198.35
 20
34.5216
 11
2198.25
 21
35
  0
LINE
  8
0
 10
2198.25
 20
51
 11
2198.35
 21
51.4784
  0
LINE
  8
0
 10
2198.35
 20
51.4784
 11
2198.62
 21
51.8839
  0
LINE
  8
0
 10
2198.62
 20
51.8839
 11
2199.02
 21
52.1548
  0
LINE
  8
0
 10
2199.02
 20
52.1548
 11
2199.5
 21
52.25
  0
LINE
  8
0
 10
2199.5
 20
52.25
 11
2199.98
 21
52.1548
  0
LINE
  8
0
 10
2199.98
 20
52.1548
 11
2200.38
 21
51.8839
  0
LINE
  8
0
 10
2200.38
 20
51.8839
 11
2200.65
 21
51.4784
  0
LINE
  8
0
 10
2200.65
 20
51.4784
 11
2200.75
 21
51
  0
LINE
  8
0
 10
2200.75
 20
51
 11
2200.65
 21
50.5216
  0
LINE
  8
0
 10
2200.65
 20
50.5216
 11
2200.38
 21
50.1161
  0
LINE
  8
0
 10
2200.38
 20
50.1161
 11
2199.98
 21
49.8451
  0
LINE
  8
0
 10
2199.98
 20
49.8451
 11
2199.5
 21
49.75
  0
LINE
  8
0
 10
2199.5
 20
49.75
 11
2199.02
 21
49.8451
  0
LINE
  8
0
 10
2199.02
 20
49.8451
 11
2198.62
 21
50.1161
  0
LINE
  8
0
 10
2198.62
 20
50.1161
 11
2198.35
 21
50.5216
  0
LINE
  8
0
 10
2198.35
 20
50.5216
 11
2198.25
 21
51
  0
LINE
  8
0
 10
2198.25
 20
76
 11
2198.35
 21
76.4784
  0
LINE
  8
0
 10
2198.35
 20
76.4784
 11
2198.62
 21
76.8839
  0
LINE
  8
0
 10
2198.62
 20
76.8839
 11
2199.02
 21
77.1548
  0
LINE
  8
0
 10
2199.02
 20
77.1548
 11
2199.5
 21
77.25
  0
LINE
  8
0
 10
2199.5
 20
77.25
 11
2199.98
 21
77.1548
  0
LINE
  8
0
 10
2199.98
 20
77.1548
 11
2200.38
 21
76.8839
  0
LINE
  8
0
 10
2200.38
 20
76.8839
 11
2200.65
 21
76.4784
  0
LINE
  8
0
 10
2200.65
 20
76.4784
 11
2200.75
 21
76
  0
LINE
  8
0
 10
2200.75
 20
76
 11
2200.65
 21
75.5216
  0
LINE
  8
0
 10
2200.65
 20
75.5216
 11
2200.38
 21
75.1161
  0
LINE
  8
0
 10
2200.38
 20
75.1161
 11
2199.98
 21
74.8451
  0
LINE
  8
0
 10
2199.98
 20
74.8451
 11
2199.5
 21
74.75
  0
LINE
  8
0
 10
2199.5
 20
74.75
 11
2199.02
 21
74.8451
  0
LINE
  8
0
 10
2199.02
 20
74.8451
 11
2198.62
 21
75.1161
  0
LINE
  8
0
 10
2198.62
 20
75.1161
 11
2198.35
 21
75.5216
  0
LINE
  8
0
 10
2198.35
 20
75.5216
 11
2198.25
 21
76
  0
LINE
  8
0
 10
2198.25
 20
99
 11
2198.35
 21
99.4784
  0
LINE
  8
0
 10
2198.35
 20
99.4784
 11
2198.62
 21
99.8839
  0
LINE
  8
0
 10
2198.62
 20
99.8839
 11
2199.02
 21
100.155
  0
LINE
  8
0
 10
2199.02
 20
100.155
 11
2199.5
 21
100.25
  0
LINE
  8
0
 10
2199.5
 20
100.25
 11
2199.98
 21
100.155
  0
LINE
  8
0
 10
2199.98
 20
100.155
 11
2200.38
 21
99.8839
  0
LINE
  8
0
 10
2200.38
 20
99.8839
 11
2200.65
 21
99.4784
  0
LINE
  8
0
 10
2200.65
 20
99.4784
 11
2200.75
 21
99
  0
LINE
  8
0
 10
2200.75
 20
99
 11
2200.65
 21
98.5216
  0
LINE
  8
0
 10
2200.65
 20
98.5216
 11
2200.38
 21
98.1161
  0
LINE
  8
0
 10
2200.38
 20
98.1161
 11
2199.98
 21
97.8451
  0
LINE
  8
0
 10
2199.98
 20
97.8451
 11
2199.5
 21
97.75
  0
LINE
  8
0
 10
2199.5
 20
97.75
 11
2199.02
 21
97.8451
  0
LINE
  8
0
 10
2199.02
 20
97.8451
 11
2198.62
 21
98.1161
  0
LINE
  8
0
 10
2198.62
 20
98.1161
 11
2198.35
 21
98.5216
  0
LINE
  8
0
 10
2198.35
 20
98.5216
 11
2198.25
 21
99
  0
LINE
  8
0
 10
2198.25
 20
115
 11
2198.35
 21
115.478
  0
LINE
  8
0
 10
2198.35
 20
115.478
 11
2198.62
 21
115.884
  0
LINE
  8
0
 10
2198.62
 20
115.884
 11
2199.02
 21
116.155
  0
LINE
  8
0
 10
2199.02
 20
116.155
 11
2199.5
 21
116.25
  0
LINE
  8
0
 10
2199.5
 20
116.25
 11
2199.98
 21
116.155
  0
LINE
  8
0
 10
2199.98
 20
116.155
 11
2200.38
 21
115.884
  0
LINE
  8
0
 10
2200.38
 20
115.884
 11
2200.65
 21
115.478
  0
LINE
  8
0
 10
2200.65
 20
115.478
 11
2200.75
 21
115
  0
LINE
  8
0
 10
2200.75
 20
115
 11
2200.65
 21
114.522
  0
LINE
  8
0
 10
2200.65
 20
114.522
 11
2200.38
 21
114.116
  0
LINE
  8
0
 10
2200.38
 20
114.116
 11
2199.98
 21
113.845
  0
LINE
  8
0
 10
2199.98
 20
113.845
 11
2199.5
 21
113.75
  0
LINE
  8
0
 10
2199.5
 20
113.75
 11
2199.02
 21
113.845
  0
LINE
  8
0
 10
2199.02
 20
113.845
 11
2198.62
 21
114.116
  0
LINE
  8
0
 10
2198.62
 20
114.116
 11
2198.35
 21
114.522
  0
LINE
  8
0
 10
2198.35
 20
114.522
 11
2198.25
 21
115
  0
LINE
  8
0
 10
2289
 20
50
 11
2289.15
 21
50.7654
  0
LINE
  8
0
 10
2289.15
 20
50.7654
 11
2289.59
 21
51.4142
  0
LINE
  8
0
 10
2289.59
 20
51.4142
 11
2290.23
 21
51.8478
  0
LINE
  8
0
 10
2290.23
 20
51.8478
 11
2291
 21
52
  0
LINE
  8
0
 10
2291
 20
52
 11
2291.77
 21
51.8478
  0
LINE
  8
0
 10
2291.77
 20
51.8478
 11
2292.41
 21
51.4142
  0
LINE
  8
0
 10
2292.41
 20
51.4142
 11
2292.85
 21
50.7654
  0
LINE
  8
0
 10
2292.85
 20
50.7654
 11
2293
 21
50
  0
LINE
  8
0
 10
2293
 20
50
 11
2292.85
 21
49.2346
  0
LINE
  8
0
 10
2292.85
 20
49.2346
 11
2292.41
 21
48.5858
  0
LINE
  8
0
 10
2292.41
 20
48.5858
 11
2291.77
 21
48.1522
  0
LINE
  8
0
 10
2291.77
 20
48.1522
 11
2291
 21
48
  0
LINE
  8
0
 10
2291
 20
48
 11
2290.23
 21
48.1522
  0
LINE
  8
0
 10
2290.23
 20
48.1522
 11
2289.59
 21
48.5858
  0
LINE
  8
0
 10
2289.59
 20
48.5858
 11
2289.15
 21
49.2346
  0
LINE
  8
0
 10
2289.15
 20
49.2346
 11
2289
 21
50
  0
LINE
  8
0
 10
2289
 20
180
 11
2289.15
 21
180.765
  0
LINE
  8
0
 10
2289.15
 20
180.765
 11
2289.59
 21
181.414
  0
LINE
  8
0
 10
2289.59
 20
181.414
 11
2290.23
 21
181.848
  0
LINE
  8
0
 10
2290.23
 20
181.848
 11
2291
 21
182
  0
LINE
  8
0
 10
2291
 20
182
 11
2291.77
 21
181.848
  0
LINE
  8
0
 10
2291.77
 20
181.848
 11
2292.41
 21
181.414
  0
LINE
  8
0
 10
2292.41
 20
181.414
 11
2292.85
 21
180.765
  0
LINE
  8
0
 10
2292.85
 20
180.765
 11
2293
 21
180
  0
LINE
  8
0
 10
2293
 20
180
 11
2292.85
 21
179.235
  0
LINE
  8
0
 10
2292.85
 20
179.235
 11
2292.41
 21
178.586
  0
LINE
  8
0
 10
2292.41
 20
178.586
 11
2291.77
 21
178.152
  0
LINE
  8
0
 10
2291.77
 20
178.152
 11
2291
 21
178
  0
LINE
  8
0
 10
2291
 20
178
 11
2290.23
 21
178.152
  0
LINE
  8
0
 10
2290.23
 20
178.152
 11
2289.59
 21
178.586
  0
LINE
  8
0
 10
2289.59
 20
178.586
 11
2289.15
 21
179.235
  0
LINE
  8
0
 10
2289.15
 20
179.235
 11
2289
 21
180
  0
ENDSEC
  0
SECTION
  2
OBJECTS
  0
DICTIONARY
  0
ENDSEC
  0
EOF
