  0
SECTION
  2
BLOCKS
  0
ENDSEC
  0
SECTION
  2
ENTITIES
  0
LINE
  8
0
 10
0
 20
0
 11
514
 21
0
  0
LINE
  8
0
 10
514
 20
0
 11
514
 21
200
  0
LINE
  8
0
 10
514
 20
200
 11
0
 21
200
  0
LINE
  8
0
 10
0
 20
200
 11
0
 21
0
  0
LINE
  8
0
 10
48
 20
6
 11
48.1522
 21
6.76537
  0
LINE
  8
0
 10
48.1522
 20
6.76537
 11
48.5858
 21
7.41421
  0
LINE
  8
0
 10
48.5858
 20
7.41421
 11
49.2346
 21
7.84776
  0
LINE
  8
0
 10
49.2346
 20
7.84776
 11
50
 21
8
  0
LINE
  8
0
 10
50
 20
8
 11
50.7654
 21
7.84776
  0
LINE
  8
0
 10
50.7654
 20
7.84776
 11
51.4142
 21
7.41421
  0
LINE
  8
0
 10
51.4142
 20
7.41421
 11
51.8478
 21
6.76537
  0
LINE
  8
0
 10
51.8478
 20
6.76537
 11
52
 21
6
  0
LINE
  8
0
 10
52
 20
6
 11
51.8478
 21
5.23463
  0
LINE
  8
0
 10
51.8478
 20
5.23463
 11
51.4142
 21
4.58579
  0
LINE
  8
0
 10
51.4142
 20
4.58579
 11
50.7654
 21
4.15224
  0
LINE
  8
0
 10
50.7654
 20
4.15224
 11
50
 21
4
  0
LINE
  8
0
 10
50
 20
4
 11
49.2346
 21
4.15224
  0
LINE
  8
0
 10
49.2346
 20
4.15224
 11
48.5858
 21
4.58579
  0
LINE
  8
0
 10
48.5858
 20
4.58579
 11
48.1522
 21
5.23463
  0
LINE
  8
0
 10
48.1522
 20
5.23463
 11
48
 21
6
  0
LINE
  8
0
 10
255
 20
6
 11
255.152
 21
6.76537
  0
LINE
  8
0
 10
255.152
 20
6.76537
 11
255.586
 21
7.41421
  0
LINE
  8
0
 10
255.586
 20
7.41421
 11
256.235
 21
7.84776
  0
LINE
  8
0
 10
256.235
 20
7.84776
 11
257
 21
8
  0
LINE
  8
0
 10
257
 20
8
 11
257.765
 21
7.84776
  0
LINE
  8
0
 10
257.765
 20
7.84776
 11
258.414
 21
7.41421
  0
LINE
  8
0
 10
258.414
 20
7.41421
 11
258.848
 21
6.76537
  0
LINE
  8
0
 10
258.848
 20
6.76537
 11
259
 21
6
  0
LINE
  8
0
 10
259
 20
6
 11
258.848
 21
5.23463
  0
LINE
  8
0
 10
258.848
 20
5.23463
 11
258.414
 21
4.58579
  0
LINE
  8
0
 10
258.414
 20
4.58579
 11
257.765
 21
4.15224
  0
LINE
  8
0
 10
257.765
 20
4.15224
 11
257
 21
4
  0
LINE
  8
0
 10
257
 20
4
 11
256.235
 21
4.15224
  0
LINE
  8
0
 10
256.235
 20
4.15224
 11
255.586
 21
4.58579
  0
LINE
  8
0
 10
255.586
 20
4.58579
 11
255.152
 21
5.23463
  0
LINE
  8
0
 10
255.152
 20
5.23463
 11
255
 21
6
  0
LINE
  8
0
 10
462
 20
6
 11
462.152
 21
6.76537
  0
LINE
  8
0
 10
462.152
 20
6.76537
 11
462.586
 21
7.41421
  0
LINE
  8
0
 10
462.586
 20
7.41421
 11
463.235
 21
7.84776
  0
LINE
  8
0
 10
463.235
 20
7.84776
 11
464
 21
8
  0
LINE
  8
0
 10
464
 20
8
 11
464.765
 21
7.84776
  0
LINE
  8
0
 10
464.765
 20
7.84776
 11
465.414
 21
7.41421
  0
LINE
  8
0
 10
465.414
 20
7.41421
 11
465.848
 21
6.76537
  0
LINE
  8
0
 10
465.848
 20
6.76537
 11
466
 21
6
  0
LINE
  8
0
 10
466
 20
6
 11
465.848
 21
5.23463
  0
LINE
  8
0
 10
465.848
 20
5.23463
 11
465.414
 21
4.58579
  0
LINE
  8
0
 10
465.414
 20
4.58579
 11
464.765
 21
4.15224
  0
LINE
  8
0
 10
464.765
 20
4.15224
 11
464
 21
4
  0
LINE
  8
0
 10
464
 20
4
 11
463.235
 21
4.15224
  0
LINE
  8
0
 10
463.235
 20
4.15224
 11
462.586
 21
4.58579
  0
LINE
  8
0
 10
462.586
 20
4.58579
 11
462.152
 21
5.23463
  0
LINE
  8
0
 10
462.152
 20
5.23463
 11
462
 21
6
  0
ENDSEC
  0
SECTION
  2
OBJECTS
  0
DICTIONARY
  0
ENDSEC
  0
EOF
