  0
SECTION
  2
BLOCKS
  0
ENDSEC
  0
SECTION
  2
ENTITIES
  0
LINE
  8
0
 10
0
 20
0
 11
225
 21
0
  0
LINE
  8
0
 10
225
 20
0
 11
225
 21
200
  0
LINE
  8
0
 10
225
 20
200
 11
0
 21
200
  0
LINE
  8
0
 10
0
 20
200
 11
0
 21
0
  0
LINE
  8
0
 10
4
 20
50
 11
4.15224
 21
50.7654
  0
LINE
  8
0
 10
4.15224
 20
50.7654
 11
4.58579
 21
51.4142
  0
LINE
  8
0
 10
4.58579
 20
51.4142
 11
5.23463
 21
51.8478
  0
LINE
  8
0
 10
5.23463
 20
51.8478
 11
6
 21
52
  0
LINE
  8
0
 10
6
 20
52
 11
6.76537
 21
51.8478
  0
LINE
  8
0
 10
6.76537
 20
51.8478
 11
7.41421
 21
51.4142
  0
LINE
  8
0
 10
7.41421
 20
51.4142
 11
7.84776
 21
50.7654
  0
LINE
  8
0
 10
7.84776
 20
50.7654
 11
8
 21
50
  0
LINE
  8
0
 10
8
 20
50
 11
7.84776
 21
49.2346
  0
LINE
  8
0
 10
7.84776
 20
49.2346
 11
7.41421
 21
48.5858
  0
LINE
  8
0
 10
7.41421
 20
48.5858
 11
6.76537
 21
48.1522
  0
LINE
  8
0
 10
6.76537
 20
48.1522
 11
6
 21
48
  0
LINE
  8
0
 10
6
 20
48
 11
5.23463
 21
48.1522
  0
LINE
  8
0
 10
5.23463
 20
48.1522
 11
4.58579
 21
48.5858
  0
LINE
  8
0
 10
4.58579
 20
48.5858
 11
4.15224
 21
49.2346
  0
LINE
  8
0
 10
4.15224
 20
49.2346
 11
4
 21
50
  0
LINE
  8
0
 10
4
 20
150
 11
4.15224
 21
150.765
  0
LINE
  8
0
 10
4.15224
 20
150.765
 11
4.58579
 21
151.414
  0
LINE
  8
0
 10
4.58579
 20
151.414
 11
5.23463
 21
151.848
  0
LINE
  8
0
 10
5.23463
 20
151.848
 11
6
 21
152
  0
LINE
  8
0
 10
6
 20
152
 11
6.76537
 21
151.848
  0
LINE
  8
0
 10
6.76537
 20
151.848
 11
7.41421
 21
151.414
  0
LINE
  8
0
 10
7.41421
 20
151.414
 11
7.84776
 21
150.765
  0
LINE
  8
0
 10
7.84776
 20
150.765
 11
8
 21
150
  0
LINE
  8
0
 10
8
 20
150
 11
7.84776
 21
149.235
  0
LINE
  8
0
 10
7.84776
 20
149.235
 11
7.41421
 21
148.586
  0
LINE
  8
0
 10
7.41421
 20
148.586
 11
6.76537
 21
148.152
  0
LINE
  8
0
 10
6.76537
 20
148.152
 11
6
 21
148
  0
LINE
  8
0
 10
6
 20
148
 11
5.23463
 21
148.152
  0
LINE
  8
0
 10
5.23463
 20
148.152
 11
4.58579
 21
148.586
  0
LINE
  8
0
 10
4.58579
 20
148.586
 11
4.15224
 21
149.235
  0
LINE
  8
0
 10
4.15224
 20
149.235
 11
4
 21
150
  0
LINE
  8
0
 10
48
 20
6
 11
48.1522
 21
6.76537
  0
LINE
  8
0
 10
48.1522
 20
6.76537
 11
48.5858
 21
7.41421
  0
LINE
  8
0
 10
48.5858
 20
7.41421
 11
49.2346
 21
7.84776
  0
LINE
  8
0
 10
49.2346
 20
7.84776
 11
50
 21
8
  0
LINE
  8
0
 10
50
 20
8
 11
50.7654
 21
7.84776
  0
LINE
  8
0
 10
50.7654
 20
7.84776
 11
51.4142
 21
7.41421
  0
LINE
  8
0
 10
51.4142
 20
7.41421
 11
51.8478
 21
6.76537
  0
LINE
  8
0
 10
51.8478
 20
6.76537
 11
52
 21
6
  0
LINE
  8
0
 10
52
 20
6
 11
51.8478
 21
5.23463
  0
LINE
  8
0
 10
51.8478
 20
5.23463
 11
51.4142
 21
4.58579
  0
LINE
  8
0
 10
51.4142
 20
4.58579
 11
50.7654
 21
4.15224
  0
LINE
  8
0
 10
50.7654
 20
4.15224
 11
50
 21
4
  0
LINE
  8
0
 10
50
 20
4
 11
49.2346
 21
4.15224
  0
LINE
  8
0
 10
49.2346
 20
4.15224
 11
48.5858
 21
4.58579
  0
LINE
  8
0
 10
48.5858
 20
4.58579
 11
48.1522
 21
5.23463
  0
LINE
  8
0
 10
48.1522
 20
5.23463
 11
48
 21
6
  0
LINE
  8
0
 10
60.75
 20
72.5
 11
60.8452
 21
72.9784
  0
LINE
  8
0
 10
60.8452
 20
72.9784
 11
61.1161
 21
73.3839
  0
LINE
  8
0
 10
61.1161
 20
73.3839
 11
61.5216
 21
73.6548
  0
LINE
  8
0
 10
61.5216
 20
73.6548
 11
62
 21
73.75
  0
LINE
  8
0
 10
62
 20
73.75
 11
62.4784
 21
73.6548
  0
LINE
  8
0
 10
62.4784
 20
73.6548
 11
62.8839
 21
73.3839
  0
LINE
  8
0
 10
62.8839
 20
73.3839
 11
63.1549
 21
72.9784
  0
LINE
  8
0
 10
63.1549
 20
72.9784
 11
63.25
 21
72.5
  0
LINE
  8
0
 10
63.25
 20
72.5
 11
63.1549
 21
72.0216
  0
LINE
  8
0
 10
63.1549
 20
72.0216
 11
62.8839
 21
71.6161
  0
LINE
  8
0
 10
62.8839
 20
71.6161
 11
62.4784
 21
71.3451
  0
LINE
  8
0
 10
62.4784
 20
71.3451
 11
62
 21
71.25
  0
LINE
  8
0
 10
62
 20
71.25
 11
61.5216
 21
71.3451
  0
LINE
  8
0
 10
61.5216
 20
71.3451
 11
61.1161
 21
71.6161
  0
LINE
  8
0
 10
61.1161
 20
71.6161
 11
60.8452
 21
72.0216
  0
LINE
  8
0
 10
60.8452
 20
72.0216
 11
60.75
 21
72.5
  0
LINE
  8
0
 10
173
 20
6
 11
173.152
 21
6.76537
  0
LINE
  8
0
 10
173.152
 20
6.76537
 11
173.586
 21
7.41421
  0
LINE
  8
0
 10
173.586
 20
7.41421
 11
174.235
 21
7.84776
  0
LINE
  8
0
 10
174.235
 20
7.84776
 11
175
 21
8
  0
LINE
  8
0
 10
175
 20
8
 11
175.765
 21
7.84776
  0
LINE
  8
0
 10
175.765
 20
7.84776
 11
176.414
 21
7.41421
  0
LINE
  8
0
 10
176.414
 20
7.41421
 11
176.848
 21
6.76537
  0
LINE
  8
0
 10
176.848
 20
6.76537
 11
177
 21
6
  0
LINE
  8
0
 10
177
 20
6
 11
176.848
 21
5.23463
  0
LINE
  8
0
 10
176.848
 20
5.23463
 11
176.414
 21
4.58579
  0
LINE
  8
0
 10
176.414
 20
4.58579
 11
175.765
 21
4.15224
  0
LINE
  8
0
 10
175.765
 20
4.15224
 11
175
 21
4
  0
LINE
  8
0
 10
175
 20
4
 11
174.235
 21
4.15224
  0
LINE
  8
0
 10
174.235
 20
4.15224
 11
173.586
 21
4.58579
  0
LINE
  8
0
 10
173.586
 20
4.58579
 11
173.152
 21
5.23463
  0
LINE
  8
0
 10
173.152
 20
5.23463
 11
173
 21
6
  0
LINE
  8
0
 10
188.75
 20
72.5
 11
188.845
 21
72.9784
  0
LINE
  8
0
 10
188.845
 20
72.9784
 11
189.116
 21
73.3839
  0
LINE
  8
0
 10
189.116
 20
73.3839
 11
189.522
 21
73.6548
  0
LINE
  8
0
 10
189.522
 20
73.6548
 11
190
 21
73.75
  0
LINE
  8
0
 10
190
 20
73.75
 11
190.478
 21
73.6548
  0
LINE
  8
0
 10
190.478
 20
73.6548
 11
190.884
 21
73.3839
  0
LINE
  8
0
 10
190.884
 20
73.3839
 11
191.155
 21
72.9784
  0
LINE
  8
0
 10
191.155
 20
72.9784
 11
191.25
 21
72.5
  0
LINE
  8
0
 10
191.25
 20
72.5
 11
191.155
 21
72.0216
  0
LINE
  8
0
 10
191.155
 20
72.0216
 11
190.884
 21
71.6161
  0
LINE
  8
0
 10
190.884
 20
71.6161
 11
190.478
 21
71.3451
  0
LINE
  8
0
 10
190.478
 20
71.3451
 11
190
 21
71.25
  0
LINE
  8
0
 10
190
 20
71.25
 11
189.522
 21
71.3451
  0
LINE
  8
0
 10
189.522
 20
71.3451
 11
189.116
 21
71.6161
  0
LINE
  8
0
 10
189.116
 20
71.6161
 11
188.845
 21
72.0216
  0
LINE
  8
0
 10
188.845
 20
72.0216
 11
188.75
 21
72.5
  0
ENDSEC
  0
SECTION
  2
OBJECTS
  0
DICTIONARY
  0
ENDSEC
  0
EOF
