  0
SECTION
  2
BLOCKS
  0
ENDSEC
  0
SECTION
  2
ENTITIES
  0
LINE
  8
0
 10
0
 20
0
 11
597
 21
0
  0
LINE
  8
0
 10
597
 20
0
 11
597
 21
232
  0
LINE
  8
0
 10
597
 20
232
 11
0
 21
232
  0
LINE
  8
0
 10
0
 20
232
 11
0
 21
0
  0
LINE
  8
0
 10
38.5
 20
50
 11
38.7284
 21
51.148
  0
LINE
  8
0
 10
38.7284
 20
51.148
 11
39.3787
 21
52.1213
  0
LINE
  8
0
 10
39.3787
 20
52.1213
 11
40.3519
 21
52.7716
  0
LINE
  8
0
 10
40.3519
 20
52.7716
 11
41.5
 21
53
  0
LINE
  8
0
 10
41.5
 20
53
 11
42.648
 21
52.7716
  0
LINE
  8
0
 10
42.648
 20
52.7716
 11
43.6213
 21
52.1213
  0
LINE
  8
0
 10
43.6213
 20
52.1213
 11
44.2716
 21
51.148
  0
LINE
  8
0
 10
44.2716
 20
51.148
 11
44.5
 21
50
  0
LINE
  8
0
 10
44.5
 20
50
 11
44.2716
 21
48.8519
  0
LINE
  8
0
 10
44.2716
 20
48.8519
 11
43.6213
 21
47.8787
  0
LINE
  8
0
 10
43.6213
 20
47.8787
 11
42.648
 21
47.2284
  0
LINE
  8
0
 10
42.648
 20
47.2284
 11
41.5
 21
47
  0
LINE
  8
0
 10
41.5
 20
47
 11
40.3519
 21
47.2284
  0
LINE
  8
0
 10
40.3519
 20
47.2284
 11
39.3787
 21
47.8787
  0
LINE
  8
0
 10
39.3787
 20
47.8787
 11
38.7284
 21
48.8519
  0
LINE
  8
0
 10
38.7284
 20
48.8519
 11
38.5
 21
50
  0
LINE
  8
0
 10
38.5
 20
182
 11
38.7284
 21
183.148
  0
LINE
  8
0
 10
38.7284
 20
183.148
 11
39.3787
 21
184.121
  0
LINE
  8
0
 10
39.3787
 20
184.121
 11
40.3519
 21
184.772
  0
LINE
  8
0
 10
40.3519
 20
184.772
 11
41.5
 21
185
  0
LINE
  8
0
 10
41.5
 20
185
 11
42.648
 21
184.772
  0
LINE
  8
0
 10
42.648
 20
184.772
 11
43.6213
 21
184.121
  0
LINE
  8
0
 10
43.6213
 20
184.121
 11
44.2716
 21
183.148
  0
LINE
  8
0
 10
44.2716
 20
183.148
 11
44.5
 21
182
  0
LINE
  8
0
 10
44.5
 20
182
 11
44.2716
 21
180.852
  0
LINE
  8
0
 10
44.2716
 20
180.852
 11
43.6213
 21
179.879
  0
LINE
  8
0
 10
43.6213
 20
179.879
 11
42.648
 21
179.228
  0
LINE
  8
0
 10
42.648
 20
179.228
 11
41.5
 21
179
  0
LINE
  8
0
 10
41.5
 20
179
 11
40.3519
 21
179.228
  0
LINE
  8
0
 10
40.3519
 20
179.228
 11
39.3787
 21
179.879
  0
LINE
  8
0
 10
39.3787
 20
179.879
 11
38.7284
 21
180.852
  0
LINE
  8
0
 10
38.7284
 20
180.852
 11
38.5
 21
182
  0
LINE
  8
0
 10
88.5
 20
6
 11
88.7284
 21
7.14805
  0
LINE
  8
0
 10
88.7284
 20
7.14805
 11
89.3787
 21
8.12132
  0
LINE
  8
0
 10
89.3787
 20
8.12132
 11
90.3519
 21
8.77164
  0
LINE
  8
0
 10
90.3519
 20
8.77164
 11
91.5
 21
9
  0
LINE
  8
0
 10
91.5
 20
9
 11
92.648
 21
8.77164
  0
LINE
  8
0
 10
92.648
 20
8.77164
 11
93.6213
 21
8.12132
  0
LINE
  8
0
 10
93.6213
 20
8.12132
 11
94.2716
 21
7.14805
  0
LINE
  8
0
 10
94.2716
 20
7.14805
 11
94.5
 21
6
  0
LINE
  8
0
 10
94.5
 20
6
 11
94.2716
 21
4.85195
  0
LINE
  8
0
 10
94.2716
 20
4.85195
 11
93.6213
 21
3.87868
  0
LINE
  8
0
 10
93.6213
 20
3.87868
 11
92.648
 21
3.22836
  0
LINE
  8
0
 10
92.648
 20
3.22836
 11
91.5
 21
3
  0
LINE
  8
0
 10
91.5
 20
3
 11
90.3519
 21
3.22836
  0
LINE
  8
0
 10
90.3519
 20
3.22836
 11
89.3787
 21
3.87868
  0
LINE
  8
0
 10
89.3787
 20
3.87868
 11
88.7284
 21
4.85195
  0
LINE
  8
0
 10
88.7284
 20
4.85195
 11
88.5
 21
6
  0
LINE
  8
0
 10
216.5
 20
128
 11
216.652
 21
128.765
  0
LINE
  8
0
 10
216.652
 20
128.765
 11
217.086
 21
129.414
  0
LINE
  8
0
 10
217.086
 20
129.414
 11
217.735
 21
129.848
  0
LINE
  8
0
 10
217.735
 20
129.848
 11
218.5
 21
130
  0
LINE
  8
0
 10
218.5
 20
130
 11
219.265
 21
129.848
  0
LINE
  8
0
 10
219.265
 20
129.848
 11
219.914
 21
129.414
  0
LINE
  8
0
 10
219.914
 20
129.414
 11
220.348
 21
128.765
  0
LINE
  8
0
 10
220.348
 20
128.765
 11
220.5
 21
128
  0
LINE
  8
0
 10
220.5
 20
128
 11
220.348
 21
127.235
  0
LINE
  8
0
 10
220.348
 20
127.235
 11
219.914
 21
126.586
  0
LINE
  8
0
 10
219.914
 20
126.586
 11
219.265
 21
126.152
  0
LINE
  8
0
 10
219.265
 20
126.152
 11
218.5
 21
126
  0
LINE
  8
0
 10
218.5
 20
126
 11
217.735
 21
126.152
  0
LINE
  8
0
 10
217.735
 20
126.152
 11
217.086
 21
126.586
  0
LINE
  8
0
 10
217.086
 20
126.586
 11
216.652
 21
127.235
  0
LINE
  8
0
 10
216.652
 20
127.235
 11
216.5
 21
128
  0
LINE
  8
0
 10
226.5
 20
6
 11
226.728
 21
7.14805
  0
LINE
  8
0
 10
226.728
 20
7.14805
 11
227.379
 21
8.12132
  0
LINE
  8
0
 10
227.379
 20
8.12132
 11
228.352
 21
8.77164
  0
LINE
  8
0
 10
228.352
 20
8.77164
 11
229.5
 21
9
  0
LINE
  8
0
 10
229.5
 20
9
 11
230.648
 21
8.77164
  0
LINE
  8
0
 10
230.648
 20
8.77164
 11
231.621
 21
8.12132
  0
LINE
  8
0
 10
231.621
 20
8.12132
 11
232.272
 21
7.14805
  0
LINE
  8
0
 10
232.272
 20
7.14805
 11
232.5
 21
6
  0
LINE
  8
0
 10
232.5
 20
6
 11
232.272
 21
4.85195
  0
LINE
  8
0
 10
232.272
 20
4.85195
 11
231.621
 21
3.87868
  0
LINE
  8
0
 10
231.621
 20
3.87868
 11
230.648
 21
3.22836
  0
LINE
  8
0
 10
230.648
 20
3.22836
 11
229.5
 21
3
  0
LINE
  8
0
 10
229.5
 20
3
 11
228.352
 21
3.22836
  0
LINE
  8
0
 10
228.352
 20
3.22836
 11
227.379
 21
3.87868
  0
LINE
  8
0
 10
227.379
 20
3.87868
 11
226.728
 21
4.85195
  0
LINE
  8
0
 10
226.728
 20
4.85195
 11
226.5
 21
6
  0
LINE
  8
0
 10
364.5
 20
6
 11
364.728
 21
7.14805
  0
LINE
  8
0
 10
364.728
 20
7.14805
 11
365.379
 21
8.12132
  0
LINE
  8
0
 10
365.379
 20
8.12132
 11
366.352
 21
8.77164
  0
LINE
  8
0
 10
366.352
 20
8.77164
 11
367.5
 21
9
  0
LINE
  8
0
 10
367.5
 20
9
 11
368.648
 21
8.77164
  0
LINE
  8
0
 10
368.648
 20
8.77164
 11
369.621
 21
8.12132
  0
LINE
  8
0
 10
369.621
 20
8.12132
 11
370.272
 21
7.14805
  0
LINE
  8
0
 10
370.272
 20
7.14805
 11
370.5
 21
6
  0
LINE
  8
0
 10
370.5
 20
6
 11
370.272
 21
4.85195
  0
LINE
  8
0
 10
370.272
 20
4.85195
 11
369.621
 21
3.87868
  0
LINE
  8
0
 10
369.621
 20
3.87868
 11
368.648
 21
3.22836
  0
LINE
  8
0
 10
368.648
 20
3.22836
 11
367.5
 21
3
  0
LINE
  8
0
 10
367.5
 20
3
 11
366.352
 21
3.22836
  0
LINE
  8
0
 10
366.352
 20
3.22836
 11
365.379
 21
3.87868
  0
LINE
  8
0
 10
365.379
 20
3.87868
 11
364.728
 21
4.85195
  0
LINE
  8
0
 10
364.728
 20
4.85195
 11
364.5
 21
6
  0
LINE
  8
0
 10
376.5
 20
128
 11
376.652
 21
128.765
  0
LINE
  8
0
 10
376.652
 20
128.765
 11
377.086
 21
129.414
  0
LINE
  8
0
 10
377.086
 20
129.414
 11
377.735
 21
129.848
  0
LINE
  8
0
 10
377.735
 20
129.848
 11
378.5
 21
130
  0
LINE
  8
0
 10
378.5
 20
130
 11
379.265
 21
129.848
  0
LINE
  8
0
 10
379.265
 20
129.848
 11
379.914
 21
129.414
  0
LINE
  8
0
 10
379.914
 20
129.414
 11
380.348
 21
128.765
  0
LINE
  8
0
 10
380.348
 20
128.765
 11
380.5
 21
128
  0
LINE
  8
0
 10
380.5
 20
128
 11
380.348
 21
127.235
  0
LINE
  8
0
 10
380.348
 20
127.235
 11
379.914
 21
126.586
  0
LINE
  8
0
 10
379.914
 20
126.586
 11
379.265
 21
126.152
  0
LINE
  8
0
 10
379.265
 20
126.152
 11
378.5
 21
126
  0
LINE
  8
0
 10
378.5
 20
126
 11
377.735
 21
126.152
  0
LINE
  8
0
 10
377.735
 20
126.152
 11
377.086
 21
126.586
  0
LINE
  8
0
 10
377.086
 20
126.586
 11
376.652
 21
127.235
  0
LINE
  8
0
 10
376.652
 20
127.235
 11
376.5
 21
128
  0
LINE
  8
0
 10
502.5
 20
6
 11
502.728
 21
7.14805
  0
LINE
  8
0
 10
502.728
 20
7.14805
 11
503.379
 21
8.12132
  0
LINE
  8
0
 10
503.379
 20
8.12132
 11
504.352
 21
8.77164
  0
LINE
  8
0
 10
504.352
 20
8.77164
 11
505.5
 21
9
  0
LINE
  8
0
 10
505.5
 20
9
 11
506.648
 21
8.77164
  0
LINE
  8
0
 10
506.648
 20
8.77164
 11
507.621
 21
8.12132
  0
LINE
  8
0
 10
507.621
 20
8.12132
 11
508.272
 21
7.14805
  0
LINE
  8
0
 10
508.272
 20
7.14805
 11
508.5
 21
6
  0
LINE
  8
0
 10
508.5
 20
6
 11
508.272
 21
4.85195
  0
LINE
  8
0
 10
508.272
 20
4.85195
 11
507.621
 21
3.87868
  0
LINE
  8
0
 10
507.621
 20
3.87868
 11
506.648
 21
3.22836
  0
LINE
  8
0
 10
506.648
 20
3.22836
 11
505.5
 21
3
  0
LINE
  8
0
 10
505.5
 20
3
 11
504.352
 21
3.22836
  0
LINE
  8
0
 10
504.352
 20
3.22836
 11
503.379
 21
3.87868
  0
LINE
  8
0
 10
503.379
 20
3.87868
 11
502.728
 21
4.85195
  0
LINE
  8
0
 10
502.728
 20
4.85195
 11
502.5
 21
6
  0
LINE
  8
0
 10
552.5
 20
50
 11
552.728
 21
51.148
  0
LINE
  8
0
 10
552.728
 20
51.148
 11
553.379
 21
52.1213
  0
LINE
  8
0
 10
553.379
 20
52.1213
 11
554.352
 21
52.7716
  0
LINE
  8
0
 10
554.352
 20
52.7716
 11
555.5
 21
53
  0
LINE
  8
0
 10
555.5
 20
53
 11
556.648
 21
52.7716
  0
LINE
  8
0
 10
556.648
 20
52.7716
 11
557.621
 21
52.1213
  0
LINE
  8
0
 10
557.621
 20
52.1213
 11
558.272
 21
51.148
  0
LINE
  8
0
 10
558.272
 20
51.148
 11
558.5
 21
50
  0
LINE
  8
0
 10
558.5
 20
50
 11
558.272
 21
48.8519
  0
LINE
  8
0
 10
558.272
 20
48.8519
 11
557.621
 21
47.8787
  0
LINE
  8
0
 10
557.621
 20
47.8787
 11
556.648
 21
47.2284
  0
LINE
  8
0
 10
556.648
 20
47.2284
 11
555.5
 21
47
  0
LINE
  8
0
 10
555.5
 20
47
 11
554.352
 21
47.2284
  0
LINE
  8
0
 10
554.352
 20
47.2284
 11
553.379
 21
47.8787
  0
LINE
  8
0
 10
553.379
 20
47.8787
 11
552.728
 21
48.8519
  0
LINE
  8
0
 10
552.728
 20
48.8519
 11
552.5
 21
50
  0
LINE
  8
0
 10
552.5
 20
182
 11
552.728
 21
183.148
  0
LINE
  8
0
 10
552.728
 20
183.148
 11
553.379
 21
184.121
  0
LINE
  8
0
 10
553.379
 20
184.121
 11
554.352
 21
184.772
  0
LINE
  8
0
 10
554.352
 20
184.772
 11
555.5
 21
185
  0
LINE
  8
0
 10
555.5
 20
185
 11
556.648
 21
184.772
  0
LINE
  8
0
 10
556.648
 20
184.772
 11
557.621
 21
184.121
  0
LINE
  8
0
 10
557.621
 20
184.121
 11
558.272
 21
183.148
  0
LINE
  8
0
 10
558.272
 20
183.148
 11
558.5
 21
182
  0
LINE
  8
0
 10
558.5
 20
182
 11
558.272
 21
180.852
  0
LINE
  8
0
 10
558.272
 20
180.852
 11
557.621
 21
179.879
  0
LINE
  8
0
 10
557.621
 20
179.879
 11
556.648
 21
179.228
  0
LINE
  8
0
 10
556.648
 20
179.228
 11
555.5
 21
179
  0
LINE
  8
0
 10
555.5
 20
179
 11
554.352
 21
179.228
  0
LINE
  8
0
 10
554.352
 20
179.228
 11
553.379
 21
179.879
  0
LINE
  8
0
 10
553.379
 20
179.879
 11
552.728
 21
180.852
  0
LINE
  8
0
 10
552.728
 20
180.852
 11
552.5
 21
182
  0
ENDSEC
  0
SECTION
  2
OBJECTS
  0
DICTIONARY
  0
ENDSEC
  0
EOF
