  0
SECTION
  2
BLOCKS
  0
ENDSEC
  0
SECTION
  2
ENTITIES
  0
LINE
  8
0
 10
0
 20
0
 11
225
 21
0
  0
LINE
  8
0
 10
225
 20
0
 11
225
 21
200
  0
LINE
  8
0
 10
225
 20
200
 11
0
 21
200
  0
LINE
  8
0
 10
0
 20
200
 11
0
 21
0
  0
LINE
  8
0
 10
4
 20
50
 11
4.00395
 21
50.1256
  0
LINE
  8
0
 10
4.00395
 20
50.1256
 11
4.01577
 21
50.2507
  0
LINE
  8
0
 10
4.01577
 20
50.2507
 11
4.03543
 21
50.3748
  0
LINE
  8
0
 10
4.03543
 20
50.3748
 11
4.06283
 21
50.4974
  0
LINE
  8
0
 10
4.06283
 20
50.4974
 11
4.09789
 21
50.618
  0
LINE
  8
0
 10
4.09789
 20
50.618
 11
4.14045
 21
50.7362
  0
LINE
  8
0
 10
4.14045
 20
50.7362
 11
4.19035
 21
50.8516
  0
LINE
  8
0
 10
4.19035
 20
50.8516
 11
4.24739
 21
50.9635
  0
LINE
  8
0
 10
4.24739
 20
50.9635
 11
4.31135
 21
51.0717
  0
LINE
  8
0
 10
4.31135
 20
51.0717
 11
4.38197
 21
51.1756
  0
LINE
  8
0
 10
4.38197
 20
51.1756
 11
4.45897
 21
51.2748
  0
LINE
  8
0
 10
4.45897
 20
51.2748
 11
4.54206
 21
51.3691
  0
LINE
  8
0
 10
4.54206
 20
51.3691
 11
4.63091
 21
51.4579
  0
LINE
  8
0
 10
4.63091
 20
51.4579
 11
4.72515
 21
51.541
  0
LINE
  8
0
 10
4.72515
 20
51.541
 11
4.82443
 21
51.618
  0
LINE
  8
0
 10
4.82443
 20
51.618
 11
4.92835
 21
51.6887
  0
LINE
  8
0
 10
4.92835
 20
51.6887
 11
5.03649
 21
51.7526
  0
LINE
  8
0
 10
5.03649
 20
51.7526
 11
5.14844
 21
51.8097
  0
LINE
  8
0
 10
5.14844
 20
51.8097
 11
5.26375
 21
51.8596
  0
LINE
  8
0
 10
5.26375
 20
51.8596
 11
5.38197
 21
51.9021
  0
LINE
  8
0
 10
5.38197
 20
51.9021
 11
5.50262
 21
51.9372
  0
LINE
  8
0
 10
5.50262
 20
51.9372
 11
5.62524
 21
51.9646
  0
LINE
  8
0
 10
5.62524
 20
51.9646
 11
5.74933
 21
51.9842
  0
LINE
  8
0
 10
5.74933
 20
51.9842
 11
5.87442
 21
51.9961
  0
LINE
  8
0
 10
5.87442
 20
51.9961
 11
6
 21
52
  0
LINE
  8
0
 10
6
 20
52
 11
6.12558
 21
51.9961
  0
LINE
  8
0
 10
6.12558
 20
51.9961
 11
6.25067
 21
51.9842
  0
LINE
  8
0
 10
6.25067
 20
51.9842
 11
6.37476
 21
51.9646
  0
LINE
  8
0
 10
6.37476
 20
51.9646
 11
6.49738
 21
51.9372
  0
LINE
  8
0
 10
6.49738
 20
51.9372
 11
6.61803
 21
51.9021
  0
LINE
  8
0
 10
6.61803
 20
51.9021
 11
6.73625
 21
51.8596
  0
LINE
  8
0
 10
6.73625
 20
51.8596
 11
6.85156
 21
51.8097
  0
LINE
  8
0
 10
6.85156
 20
51.8097
 11
6.96351
 21
51.7526
  0
LINE
  8
0
 10
6.96351
 20
51.7526
 11
7.07165
 21
51.6887
  0
LINE
  8
0
 10
7.07165
 20
51.6887
 11
7.17557
 21
51.618
  0
LINE
  8
0
 10
7.17557
 20
51.618
 11
7.27485
 21
51.541
  0
LINE
  8
0
 10
7.27485
 20
51.541
 11
7.36909
 21
51.4579
  0
LINE
  8
0
 10
7.36909
 20
51.4579
 11
7.45794
 21
51.3691
  0
LINE
  8
0
 10
7.45794
 20
51.3691
 11
7.54103
 21
51.2748
  0
LINE
  8
0
 10
7.54103
 20
51.2748
 11
7.61803
 21
51.1756
  0
LINE
  8
0
 10
7.61803
 20
51.1756
 11
7.68866
 21
51.0717
  0
LINE
  8
0
 10
7.68866
 20
51.0717
 11
7.75261
 21
50.9635
  0
LINE
  8
0
 10
7.75261
 20
50.9635
 11
7.80965
 21
50.8516
  0
LINE
  8
0
 10
7.80965
 20
50.8516
 11
7.85955
 21
50.7362
  0
LINE
  8
0
 10
7.85955
 20
50.7362
 11
7.90211
 21
50.618
  0
LINE
  8
0
 10
7.90211
 20
50.618
 11
7.93717
 21
50.4974
  0
LINE
  8
0
 10
7.93717
 20
50.4974
 11
7.96457
 21
50.3748
  0
LINE
  8
0
 10
7.96457
 20
50.3748
 11
7.98423
 21
50.2507
  0
LINE
  8
0
 10
7.98423
 20
50.2507
 11
7.99605
 21
50.1256
  0
LINE
  8
0
 10
7.99605
 20
50.1256
 11
8
 21
50
  0
LINE
  8
0
 10
8
 20
50
 11
7.99605
 21
49.8744
  0
LINE
  8
0
 10
7.99605
 20
49.8744
 11
7.98423
 21
49.7493
  0
LINE
  8
0
 10
7.98423
 20
49.7493
 11
7.96457
 21
49.6252
  0
LINE
  8
0
 10
7.96457
 20
49.6252
 11
7.93717
 21
49.5026
  0
LINE
  8
0
 10
7.93717
 20
49.5026
 11
7.90211
 21
49.382
  0
LINE
  8
0
 10
7.90211
 20
49.382
 11
7.85955
 21
49.2638
  0
LINE
  8
0
 10
7.85955
 20
49.2638
 11
7.80965
 21
49.1484
  0
LINE
  8
0
 10
7.80965
 20
49.1484
 11
7.75261
 21
49.0365
  0
LINE
  8
0
 10
7.75261
 20
49.0365
 11
7.68866
 21
48.9283
  0
LINE
  8
0
 10
7.68866
 20
48.9283
 11
7.61803
 21
48.8244
  0
LINE
  8
0
 10
7.61803
 20
48.8244
 11
7.54103
 21
48.7252
  0
LINE
  8
0
 10
7.54103
 20
48.7252
 11
7.45794
 21
48.6309
  0
LINE
  8
0
 10
7.45794
 20
48.6309
 11
7.36909
 21
48.5421
  0
LINE
  8
0
 10
7.36909
 20
48.5421
 11
7.27485
 21
48.459
  0
LINE
  8
0
 10
7.27485
 20
48.459
 11
7.17557
 21
48.382
  0
LINE
  8
0
 10
7.17557
 20
48.382
 11
7.07165
 21
48.3113
  0
LINE
  8
0
 10
7.07165
 20
48.3113
 11
6.96351
 21
48.2474
  0
LINE
  8
0
 10
6.96351
 20
48.2474
 11
6.85156
 21
48.1903
  0
LINE
  8
0
 10
6.85156
 20
48.1903
 11
6.73625
 21
48.1404
  0
LINE
  8
0
 10
6.73625
 20
48.1404
 11
6.61803
 21
48.0979
  0
LINE
  8
0
 10
6.61803
 20
48.0979
 11
6.49738
 21
48.0628
  0
LINE
  8
0
 10
6.49738
 20
48.0628
 11
6.37476
 21
48.0354
  0
LINE
  8
0
 10
6.37476
 20
48.0354
 11
6.25067
 21
48.0158
  0
LINE
  8
0
 10
6.25067
 20
48.0158
 11
6.12558
 21
48.0039
  0
LINE
  8
0
 10
6.12558
 20
48.0039
 11
6
 21
48
  0
LINE
  8
0
 10
6
 20
48
 11
5.87442
 21
48.0039
  0
LINE
  8
0
 10
5.87442
 20
48.0039
 11
5.74933
 21
48.0158
  0
LINE
  8
0
 10
5.74933
 20
48.0158
 11
5.62524
 21
48.0354
  0
LINE
  8
0
 10
5.62524
 20
48.0354
 11
5.50262
 21
48.0628
  0
LINE
  8
0
 10
5.50262
 20
48.0628
 11
5.38197
 21
48.0979
  0
LINE
  8
0
 10
5.38197
 20
48.0979
 11
5.26375
 21
48.1404
  0
LINE
  8
0
 10
5.26375
 20
48.1404
 11
5.14844
 21
48.1903
  0
LINE
  8
0
 10
5.14844
 20
48.1903
 11
5.03649
 21
48.2474
  0
LINE
  8
0
 10
5.03649
 20
48.2474
 11
4.92835
 21
48.3113
  0
LINE
  8
0
 10
4.92835
 20
48.3113
 11
4.82443
 21
48.382
  0
LINE
  8
0
 10
4.82443
 20
48.382
 11
4.72515
 21
48.459
  0
LINE
  8
0
 10
4.72515
 20
48.459
 11
4.63091
 21
48.5421
  0
LINE
  8
0
 10
4.63091
 20
48.5421
 11
4.54206
 21
48.6309
  0
LINE
  8
0
 10
4.54206
 20
48.6309
 11
4.45897
 21
48.7252
  0
LINE
  8
0
 10
4.45897
 20
48.7252
 11
4.38197
 21
48.8244
  0
LINE
  8
0
 10
4.38197
 20
48.8244
 11
4.31135
 21
48.9283
  0
LINE
  8
0
 10
4.31135
 20
48.9283
 11
4.24739
 21
49.0365
  0
LINE
  8
0
 10
4.24739
 20
49.0365
 11
4.19035
 21
49.1484
  0
LINE
  8
0
 10
4.19035
 20
49.1484
 11
4.14045
 21
49.2638
  0
LINE
  8
0
 10
4.14045
 20
49.2638
 11
4.09789
 21
49.382
  0
LINE
  8
0
 10
4.09789
 20
49.382
 11
4.06283
 21
49.5026
  0
LINE
  8
0
 10
4.06283
 20
49.5026
 11
4.03543
 21
49.6252
  0
LINE
  8
0
 10
4.03543
 20
49.6252
 11
4.01577
 21
49.7493
  0
LINE
  8
0
 10
4.01577
 20
49.7493
 11
4.00395
 21
49.8744
  0
LINE
  8
0
 10
4.00395
 20
49.8744
 11
4
 21
50
  0
LINE
  8
0
 10
4
 20
150
 11
4.00395
 21
150.126
  0
LINE
  8
0
 10
4.00395
 20
150.126
 11
4.01577
 21
150.251
  0
LINE
  8
0
 10
4.01577
 20
150.251
 11
4.03543
 21
150.375
  0
LINE
  8
0
 10
4.03543
 20
150.375
 11
4.06283
 21
150.497
  0
LINE
  8
0
 10
4.06283
 20
150.497
 11
4.09789
 21
150.618
  0
LINE
  8
0
 10
4.09789
 20
150.618
 11
4.14045
 21
150.736
  0
LINE
  8
0
 10
4.14045
 20
150.736
 11
4.19035
 21
150.852
  0
LINE
  8
0
 10
4.19035
 20
150.852
 11
4.24739
 21
150.964
  0
LINE
  8
0
 10
4.24739
 20
150.964
 11
4.31135
 21
151.072
  0
LINE
  8
0
 10
4.31135
 20
151.072
 11
4.38197
 21
151.176
  0
LINE
  8
0
 10
4.38197
 20
151.176
 11
4.45897
 21
151.275
  0
LINE
  8
0
 10
4.45897
 20
151.275
 11
4.54206
 21
151.369
  0
LINE
  8
0
 10
4.54206
 20
151.369
 11
4.63091
 21
151.458
  0
LINE
  8
0
 10
4.63091
 20
151.458
 11
4.72515
 21
151.541
  0
LINE
  8
0
 10
4.72515
 20
151.541
 11
4.82443
 21
151.618
  0
LINE
  8
0
 10
4.82443
 20
151.618
 11
4.92835
 21
151.689
  0
LINE
  8
0
 10
4.92835
 20
151.689
 11
5.03649
 21
151.753
  0
LINE
  8
0
 10
5.03649
 20
151.753
 11
5.14844
 21
151.81
  0
LINE
  8
0
 10
5.14844
 20
151.81
 11
5.26375
 21
151.86
  0
LINE
  8
0
 10
5.26375
 20
151.86
 11
5.38197
 21
151.902
  0
LINE
  8
0
 10
5.38197
 20
151.902
 11
5.50262
 21
151.937
  0
LINE
  8
0
 10
5.50262
 20
151.937
 11
5.62524
 21
151.965
  0
LINE
  8
0
 10
5.62524
 20
151.965
 11
5.74933
 21
151.984
  0
LINE
  8
0
 10
5.74933
 20
151.984
 11
5.87442
 21
151.996
  0
LINE
  8
0
 10
5.87442
 20
151.996
 11
6
 21
152
  0
LINE
  8
0
 10
6
 20
152
 11
6.12558
 21
151.996
  0
LINE
  8
0
 10
6.12558
 20
151.996
 11
6.25067
 21
151.984
  0
LINE
  8
0
 10
6.25067
 20
151.984
 11
6.37476
 21
151.965
  0
LINE
  8
0
 10
6.37476
 20
151.965
 11
6.49738
 21
151.937
  0
LINE
  8
0
 10
6.49738
 20
151.937
 11
6.61803
 21
151.902
  0
LINE
  8
0
 10
6.61803
 20
151.902
 11
6.73625
 21
151.86
  0
LINE
  8
0
 10
6.73625
 20
151.86
 11
6.85156
 21
151.81
  0
LINE
  8
0
 10
6.85156
 20
151.81
 11
6.96351
 21
151.753
  0
LINE
  8
0
 10
6.96351
 20
151.753
 11
7.07165
 21
151.689
  0
LINE
  8
0
 10
7.07165
 20
151.689
 11
7.17557
 21
151.618
  0
LINE
  8
0
 10
7.17557
 20
151.618
 11
7.27485
 21
151.541
  0
LINE
  8
0
 10
7.27485
 20
151.541
 11
7.36909
 21
151.458
  0
LINE
  8
0
 10
7.36909
 20
151.458
 11
7.45794
 21
151.369
  0
LINE
  8
0
 10
7.45794
 20
151.369
 11
7.54103
 21
151.275
  0
LINE
  8
0
 10
7.54103
 20
151.275
 11
7.61803
 21
151.176
  0
LINE
  8
0
 10
7.61803
 20
151.176
 11
7.68866
 21
151.072
  0
LINE
  8
0
 10
7.68866
 20
151.072
 11
7.75261
 21
150.964
  0
LINE
  8
0
 10
7.75261
 20
150.964
 11
7.80965
 21
150.852
  0
LINE
  8
0
 10
7.80965
 20
150.852
 11
7.85955
 21
150.736
  0
LINE
  8
0
 10
7.85955
 20
150.736
 11
7.90211
 21
150.618
  0
LINE
  8
0
 10
7.90211
 20
150.618
 11
7.93717
 21
150.497
  0
LINE
  8
0
 10
7.93717
 20
150.497
 11
7.96457
 21
150.375
  0
LINE
  8
0
 10
7.96457
 20
150.375
 11
7.98423
 21
150.251
  0
LINE
  8
0
 10
7.98423
 20
150.251
 11
7.99605
 21
150.126
  0
LINE
  8
0
 10
7.99605
 20
150.126
 11
8
 21
150
  0
LINE
  8
0
 10
8
 20
150
 11
7.99605
 21
149.874
  0
LINE
  8
0
 10
7.99605
 20
149.874
 11
7.98423
 21
149.749
  0
LINE
  8
0
 10
7.98423
 20
149.749
 11
7.96457
 21
149.625
  0
LINE
  8
0
 10
7.96457
 20
149.625
 11
7.93717
 21
149.503
  0
LINE
  8
0
 10
7.93717
 20
149.503
 11
7.90211
 21
149.382
  0
LINE
  8
0
 10
7.90211
 20
149.382
 11
7.85955
 21
149.264
  0
LINE
  8
0
 10
7.85955
 20
149.264
 11
7.80965
 21
149.148
  0
LINE
  8
0
 10
7.80965
 20
149.148
 11
7.75261
 21
149.036
  0
LINE
  8
0
 10
7.75261
 20
149.036
 11
7.68866
 21
148.928
  0
LINE
  8
0
 10
7.68866
 20
148.928
 11
7.61803
 21
148.824
  0
LINE
  8
0
 10
7.61803
 20
148.824
 11
7.54103
 21
148.725
  0
LINE
  8
0
 10
7.54103
 20
148.725
 11
7.45794
 21
148.631
  0
LINE
  8
0
 10
7.45794
 20
148.631
 11
7.36909
 21
148.542
  0
LINE
  8
0
 10
7.36909
 20
148.542
 11
7.27485
 21
148.459
  0
LINE
  8
0
 10
7.27485
 20
148.459
 11
7.17557
 21
148.382
  0
LINE
  8
0
 10
7.17557
 20
148.382
 11
7.07165
 21
148.311
  0
LINE
  8
0
 10
7.07165
 20
148.311
 11
6.96351
 21
148.247
  0
LINE
  8
0
 10
6.96351
 20
148.247
 11
6.85156
 21
148.19
  0
LINE
  8
0
 10
6.85156
 20
148.19
 11
6.73625
 21
148.14
  0
LINE
  8
0
 10
6.73625
 20
148.14
 11
6.61803
 21
148.098
  0
LINE
  8
0
 10
6.61803
 20
148.098
 11
6.49738
 21
148.063
  0
LINE
  8
0
 10
6.49738
 20
148.063
 11
6.37476
 21
148.035
  0
LINE
  8
0
 10
6.37476
 20
148.035
 11
6.25067
 21
148.016
  0
LINE
  8
0
 10
6.25067
 20
148.016
 11
6.12558
 21
148.004
  0
LINE
  8
0
 10
6.12558
 20
148.004
 11
6
 21
148
  0
LINE
  8
0
 10
6
 20
148
 11
5.87442
 21
148.004
  0
LINE
  8
0
 10
5.87442
 20
148.004
 11
5.74933
 21
148.016
  0
LINE
  8
0
 10
5.74933
 20
148.016
 11
5.62524
 21
148.035
  0
LINE
  8
0
 10
5.62524
 20
148.035
 11
5.50262
 21
148.063
  0
LINE
  8
0
 10
5.50262
 20
148.063
 11
5.38197
 21
148.098
  0
LINE
  8
0
 10
5.38197
 20
148.098
 11
5.26375
 21
148.14
  0
LINE
  8
0
 10
5.26375
 20
148.14
 11
5.14844
 21
148.19
  0
LINE
  8
0
 10
5.14844
 20
148.19
 11
5.03649
 21
148.247
  0
LINE
  8
0
 10
5.03649
 20
148.247
 11
4.92835
 21
148.311
  0
LINE
  8
0
 10
4.92835
 20
148.311
 11
4.82443
 21
148.382
  0
LINE
  8
0
 10
4.82443
 20
148.382
 11
4.72515
 21
148.459
  0
LINE
  8
0
 10
4.72515
 20
148.459
 11
4.63091
 21
148.542
  0
LINE
  8
0
 10
4.63091
 20
148.542
 11
4.54206
 21
148.631
  0
LINE
  8
0
 10
4.54206
 20
148.631
 11
4.45897
 21
148.725
  0
LINE
  8
0
 10
4.45897
 20
148.725
 11
4.38197
 21
148.824
  0
LINE
  8
0
 10
4.38197
 20
148.824
 11
4.31135
 21
148.928
  0
LINE
  8
0
 10
4.31135
 20
148.928
 11
4.24739
 21
149.036
  0
LINE
  8
0
 10
4.24739
 20
149.036
 11
4.19035
 21
149.148
  0
LINE
  8
0
 10
4.19035
 20
149.148
 11
4.14045
 21
149.264
  0
LINE
  8
0
 10
4.14045
 20
149.264
 11
4.09789
 21
149.382
  0
LINE
  8
0
 10
4.09789
 20
149.382
 11
4.06283
 21
149.503
  0
LINE
  8
0
 10
4.06283
 20
149.503
 11
4.03543
 21
149.625
  0
LINE
  8
0
 10
4.03543
 20
149.625
 11
4.01577
 21
149.749
  0
LINE
  8
0
 10
4.01577
 20
149.749
 11
4.00395
 21
149.874
  0
LINE
  8
0
 10
4.00395
 20
149.874
 11
4
 21
150
  0
LINE
  8
0
 10
48
 20
6
 11
48.0039
 21
6.12558
  0
LINE
  8
0
 10
48.0039
 20
6.12558
 11
48.0158
 21
6.25067
  0
LINE
  8
0
 10
48.0158
 20
6.25067
 11
48.0354
 21
6.37476
  0
LINE
  8
0
 10
48.0354
 20
6.37476
 11
48.0628
 21
6.49738
  0
LINE
  8
0
 10
48.0628
 20
6.49738
 11
48.0979
 21
6.61803
  0
LINE
  8
0
 10
48.0979
 20
6.61803
 11
48.1404
 21
6.73625
  0
LINE
  8
0
 10
48.1404
 20
6.73625
 11
48.1903
 21
6.85156
  0
LINE
  8
0
 10
48.1903
 20
6.85156
 11
48.2474
 21
6.96351
  0
LINE
  8
0
 10
48.2474
 20
6.96351
 11
48.3113
 21
7.07165
  0
LINE
  8
0
 10
48.3113
 20
7.07165
 11
48.382
 21
7.17557
  0
LINE
  8
0
 10
48.382
 20
7.17557
 11
48.459
 21
7.27485
  0
LINE
  8
0
 10
48.459
 20
7.27485
 11
48.5421
 21
7.36909
  0
LINE
  8
0
 10
48.5421
 20
7.36909
 11
48.6309
 21
7.45794
  0
LINE
  8
0
 10
48.6309
 20
7.45794
 11
48.7252
 21
7.54103
  0
LINE
  8
0
 10
48.7252
 20
7.54103
 11
48.8244
 21
7.61803
  0
LINE
  8
0
 10
48.8244
 20
7.61803
 11
48.9283
 21
7.68865
  0
LINE
  8
0
 10
48.9283
 20
7.68865
 11
49.0365
 21
7.75261
  0
LINE
  8
0
 10
49.0365
 20
7.75261
 11
49.1484
 21
7.80965
  0
LINE
  8
0
 10
49.1484
 20
7.80965
 11
49.2638
 21
7.85955
  0
LINE
  8
0
 10
49.2638
 20
7.85955
 11
49.382
 21
7.90211
  0
LINE
  8
0
 10
49.382
 20
7.90211
 11
49.5026
 21
7.93717
  0
LINE
  8
0
 10
49.5026
 20
7.93717
 11
49.6252
 21
7.96457
  0
LINE
  8
0
 10
49.6252
 20
7.96457
 11
49.7493
 21
7.98423
  0
LINE
  8
0
 10
49.7493
 20
7.98423
 11
49.8744
 21
7.99605
  0
LINE
  8
0
 10
49.8744
 20
7.99605
 11
50
 21
8
  0
LINE
  8
0
 10
50
 20
8
 11
50.1256
 21
7.99605
  0
LINE
  8
0
 10
50.1256
 20
7.99605
 11
50.2507
 21
7.98423
  0
LINE
  8
0
 10
50.2507
 20
7.98423
 11
50.3748
 21
7.96457
  0
LINE
  8
0
 10
50.3748
 20
7.96457
 11
50.4974
 21
7.93717
  0
LINE
  8
0
 10
50.4974
 20
7.93717
 11
50.618
 21
7.90211
  0
LINE
  8
0
 10
50.618
 20
7.90211
 11
50.7362
 21
7.85955
  0
LINE
  8
0
 10
50.7362
 20
7.85955
 11
50.8516
 21
7.80965
  0
LINE
  8
0
 10
50.8516
 20
7.80965
 11
50.9635
 21
7.75261
  0
LINE
  8
0
 10
50.9635
 20
7.75261
 11
51.0717
 21
7.68865
  0
LINE
  8
0
 10
51.0717
 20
7.68865
 11
51.1756
 21
7.61803
  0
LINE
  8
0
 10
51.1756
 20
7.61803
 11
51.2748
 21
7.54103
  0
LINE
  8
0
 10
51.2748
 20
7.54103
 11
51.3691
 21
7.45794
  0
LINE
  8
0
 10
51.3691
 20
7.45794
 11
51.4579
 21
7.36909
  0
LINE
  8
0
 10
51.4579
 20
7.36909
 11
51.541
 21
7.27485
  0
LINE
  8
0
 10
51.541
 20
7.27485
 11
51.618
 21
7.17557
  0
LINE
  8
0
 10
51.618
 20
7.17557
 11
51.6887
 21
7.07165
  0
LINE
  8
0
 10
51.6887
 20
7.07165
 11
51.7526
 21
6.96351
  0
LINE
  8
0
 10
51.7526
 20
6.96351
 11
51.8097
 21
6.85156
  0
LINE
  8
0
 10
51.8097
 20
6.85156
 11
51.8596
 21
6.73625
  0
LINE
  8
0
 10
51.8596
 20
6.73625
 11
51.9021
 21
6.61803
  0
LINE
  8
0
 10
51.9021
 20
6.61803
 11
51.9372
 21
6.49738
  0
LINE
  8
0
 10
51.9372
 20
6.49738
 11
51.9646
 21
6.37476
  0
LINE
  8
0
 10
51.9646
 20
6.37476
 11
51.9842
 21
6.25067
  0
LINE
  8
0
 10
51.9842
 20
6.25067
 11
51.9961
 21
6.12558
  0
LINE
  8
0
 10
51.9961
 20
6.12558
 11
52
 21
6
  0
LINE
  8
0
 10
52
 20
6
 11
51.9961
 21
5.87442
  0
LINE
  8
0
 10
51.9961
 20
5.87442
 11
51.9842
 21
5.74933
  0
LINE
  8
0
 10
51.9842
 20
5.74933
 11
51.9646
 21
5.62524
  0
LINE
  8
0
 10
51.9646
 20
5.62524
 11
51.9372
 21
5.50262
  0
LINE
  8
0
 10
51.9372
 20
5.50262
 11
51.9021
 21
5.38197
  0
LINE
  8
0
 10
51.9021
 20
5.38197
 11
51.8596
 21
5.26375
  0
LINE
  8
0
 10
51.8596
 20
5.26375
 11
51.8097
 21
5.14844
  0
LINE
  8
0
 10
51.8097
 20
5.14844
 11
51.7526
 21
5.03649
  0
LINE
  8
0
 10
51.7526
 20
5.03649
 11
51.6887
 21
4.92835
  0
LINE
  8
0
 10
51.6887
 20
4.92835
 11
51.618
 21
4.82443
  0
LINE
  8
0
 10
51.618
 20
4.82443
 11
51.541
 21
4.72515
  0
LINE
  8
0
 10
51.541
 20
4.72515
 11
51.4579
 21
4.63091
  0
LINE
  8
0
 10
51.4579
 20
4.63091
 11
51.3691
 21
4.54206
  0
LINE
  8
0
 10
51.3691
 20
4.54206
 11
51.2748
 21
4.45897
  0
LINE
  8
0
 10
51.2748
 20
4.45897
 11
51.1756
 21
4.38197
  0
LINE
  8
0
 10
51.1756
 20
4.38197
 11
51.0717
 21
4.31134
  0
LINE
  8
0
 10
51.0717
 20
4.31134
 11
50.9635
 21
4.24739
  0
LINE
  8
0
 10
50.9635
 20
4.24739
 11
50.8516
 21
4.19035
  0
LINE
  8
0
 10
50.8516
 20
4.19035
 11
50.7362
 21
4.14045
  0
LINE
  8
0
 10
50.7362
 20
4.14045
 11
50.618
 21
4.09789
  0
LINE
  8
0
 10
50.618
 20
4.09789
 11
50.4974
 21
4.06283
  0
LINE
  8
0
 10
50.4974
 20
4.06283
 11
50.3748
 21
4.03543
  0
LINE
  8
0
 10
50.3748
 20
4.03543
 11
50.2507
 21
4.01577
  0
LINE
  8
0
 10
50.2507
 20
4.01577
 11
50.1256
 21
4.00395
  0
LINE
  8
0
 10
50.1256
 20
4.00395
 11
50
 21
4
  0
LINE
  8
0
 10
50
 20
4
 11
49.8744
 21
4.00395
  0
LINE
  8
0
 10
49.8744
 20
4.00395
 11
49.7493
 21
4.01577
  0
LINE
  8
0
 10
49.7493
 20
4.01577
 11
49.6252
 21
4.03543
  0
LINE
  8
0
 10
49.6252
 20
4.03543
 11
49.5026
 21
4.06283
  0
LINE
  8
0
 10
49.5026
 20
4.06283
 11
49.382
 21
4.09789
  0
LINE
  8
0
 10
49.382
 20
4.09789
 11
49.2638
 21
4.14045
  0
LINE
  8
0
 10
49.2638
 20
4.14045
 11
49.1484
 21
4.19035
  0
LINE
  8
0
 10
49.1484
 20
4.19035
 11
49.0365
 21
4.24739
  0
LINE
  8
0
 10
49.0365
 20
4.24739
 11
48.9283
 21
4.31134
  0
LINE
  8
0
 10
48.9283
 20
4.31134
 11
48.8244
 21
4.38197
  0
LINE
  8
0
 10
48.8244
 20
4.38197
 11
48.7252
 21
4.45897
  0
LINE
  8
0
 10
48.7252
 20
4.45897
 11
48.6309
 21
4.54206
  0
LINE
  8
0
 10
48.6309
 20
4.54206
 11
48.5421
 21
4.63091
  0
LINE
  8
0
 10
48.5421
 20
4.63091
 11
48.459
 21
4.72515
  0
LINE
  8
0
 10
48.459
 20
4.72515
 11
48.382
 21
4.82443
  0
LINE
  8
0
 10
48.382
 20
4.82443
 11
48.3113
 21
4.92835
  0
LINE
  8
0
 10
48.3113
 20
4.92835
 11
48.2474
 21
5.03649
  0
LINE
  8
0
 10
48.2474
 20
5.03649
 11
48.1903
 21
5.14844
  0
LINE
  8
0
 10
48.1903
 20
5.14844
 11
48.1404
 21
5.26375
  0
LINE
  8
0
 10
48.1404
 20
5.26375
 11
48.0979
 21
5.38197
  0
LINE
  8
0
 10
48.0979
 20
5.38197
 11
48.0628
 21
5.50262
  0
LINE
  8
0
 10
48.0628
 20
5.50262
 11
48.0354
 21
5.62524
  0
LINE
  8
0
 10
48.0354
 20
5.62524
 11
48.0158
 21
5.74933
  0
LINE
  8
0
 10
48.0158
 20
5.74933
 11
48.0039
 21
5.87442
  0
LINE
  8
0
 10
48.0039
 20
5.87442
 11
48
 21
6
  0
LINE
  8
0
 10
60.75
 20
72.5
 11
60.7525
 21
72.5785
  0
LINE
  8
0
 10
60.7525
 20
72.5785
 11
60.7599
 21
72.6567
  0
LINE
  8
0
 10
60.7599
 20
72.6567
 11
60.7721
 21
72.7342
  0
LINE
  8
0
 10
60.7721
 20
72.7342
 11
60.7893
 21
72.8109
  0
LINE
  8
0
 10
60.7893
 20
72.8109
 11
60.8112
 21
72.8863
  0
LINE
  8
0
 10
60.8112
 20
72.8863
 11
60.8378
 21
72.9602
  0
LINE
  8
0
 10
60.8378
 20
72.9602
 11
60.869
 21
73.0322
  0
LINE
  8
0
 10
60.869
 20
73.0322
 11
60.9046
 21
73.1022
  0
LINE
  8
0
 10
60.9046
 20
73.1022
 11
60.9446
 21
73.1698
  0
LINE
  8
0
 10
60.9446
 20
73.1698
 11
60.9887
 21
73.2347
  0
LINE
  8
0
 10
60.9887
 20
73.2347
 11
61.0369
 21
73.2968
  0
LINE
  8
0
 10
61.0369
 20
73.2968
 11
61.0888
 21
73.3557
  0
LINE
  8
0
 10
61.0888
 20
73.3557
 11
61.1443
 21
73.4112
  0
LINE
  8
0
 10
61.1443
 20
73.4112
 11
61.2032
 21
73.4631
  0
LINE
  8
0
 10
61.2032
 20
73.4631
 11
61.2653
 21
73.5113
  0
LINE
  8
0
 10
61.2653
 20
73.5113
 11
61.3302
 21
73.5554
  0
LINE
  8
0
 10
61.3302
 20
73.5554
 11
61.3978
 21
73.5954
  0
LINE
  8
0
 10
61.3978
 20
73.5954
 11
61.4678
 21
73.631
  0
LINE
  8
0
 10
61.4678
 20
73.631
 11
61.5398
 21
73.6622
  0
LINE
  8
0
 10
61.5398
 20
73.6622
 11
61.6137
 21
73.6888
  0
LINE
  8
0
 10
61.6137
 20
73.6888
 11
61.6891
 21
73.7107
  0
LINE
  8
0
 10
61.6891
 20
73.7107
 11
61.7658
 21
73.7279
  0
LINE
  8
0
 10
61.7658
 20
73.7279
 11
61.8433
 21
73.7401
  0
LINE
  8
0
 10
61.8433
 20
73.7401
 11
61.9215
 21
73.7475
  0
LINE
  8
0
 10
61.9215
 20
73.7475
 11
62
 21
73.75
  0
LINE
  8
0
 10
62
 20
73.75
 11
62.0785
 21
73.7475
  0
LINE
  8
0
 10
62.0785
 20
73.7475
 11
62.1567
 21
73.7401
  0
LINE
  8
0
 10
62.1567
 20
73.7401
 11
62.2342
 21
73.7279
  0
LINE
  8
0
 10
62.2342
 20
73.7279
 11
62.3109
 21
73.7107
  0
LINE
  8
0
 10
62.3109
 20
73.7107
 11
62.3863
 21
73.6888
  0
LINE
  8
0
 10
62.3863
 20
73.6888
 11
62.4602
 21
73.6622
  0
LINE
  8
0
 10
62.4602
 20
73.6622
 11
62.5322
 21
73.631
  0
LINE
  8
0
 10
62.5322
 20
73.631
 11
62.6022
 21
73.5954
  0
LINE
  8
0
 10
62.6022
 20
73.5954
 11
62.6698
 21
73.5554
  0
LINE
  8
0
 10
62.6698
 20
73.5554
 11
62.7347
 21
73.5113
  0
LINE
  8
0
 10
62.7347
 20
73.5113
 11
62.7968
 21
73.4631
  0
LINE
  8
0
 10
62.7968
 20
73.4631
 11
62.8557
 21
73.4112
  0
LINE
  8
0
 10
62.8557
 20
73.4112
 11
62.9112
 21
73.3557
  0
LINE
  8
0
 10
62.9112
 20
73.3557
 11
62.9631
 21
73.2968
  0
LINE
  8
0
 10
62.9631
 20
73.2968
 11
63.0113
 21
73.2347
  0
LINE
  8
0
 10
63.0113
 20
73.2347
 11
63.0554
 21
73.1698
  0
LINE
  8
0
 10
63.0554
 20
73.1698
 11
63.0954
 21
73.1022
  0
LINE
  8
0
 10
63.0954
 20
73.1022
 11
63.131
 21
73.0322
  0
LINE
  8
0
 10
63.131
 20
73.0322
 11
63.1622
 21
72.9602
  0
LINE
  8
0
 10
63.1622
 20
72.9602
 11
63.1888
 21
72.8863
  0
LINE
  8
0
 10
63.1888
 20
72.8863
 11
63.2107
 21
72.8109
  0
LINE
  8
0
 10
63.2107
 20
72.8109
 11
63.2279
 21
72.7342
  0
LINE
  8
0
 10
63.2279
 20
72.7342
 11
63.2401
 21
72.6567
  0
LINE
  8
0
 10
63.2401
 20
72.6567
 11
63.2475
 21
72.5785
  0
LINE
  8
0
 10
63.2475
 20
72.5785
 11
63.25
 21
72.5
  0
LINE
  8
0
 10
63.25
 20
72.5
 11
63.2475
 21
72.4215
  0
LINE
  8
0
 10
63.2475
 20
72.4215
 11
63.2401
 21
72.3433
  0
LINE
  8
0
 10
63.2401
 20
72.3433
 11
63.2279
 21
72.2658
  0
LINE
  8
0
 10
63.2279
 20
72.2658
 11
63.2107
 21
72.1891
  0
LINE
  8
0
 10
63.2107
 20
72.1891
 11
63.1888
 21
72.1137
  0
LINE
  8
0
 10
63.1888
 20
72.1137
 11
63.1622
 21
72.0398
  0
LINE
  8
0
 10
63.1622
 20
72.0398
 11
63.131
 21
71.9678
  0
LINE
  8
0
 10
63.131
 20
71.9678
 11
63.0954
 21
71.8978
  0
LINE
  8
0
 10
63.0954
 20
71.8978
 11
63.0554
 21
71.8302
  0
LINE
  8
0
 10
63.0554
 20
71.8302
 11
63.0113
 21
71.7653
  0
LINE
  8
0
 10
63.0113
 20
71.7653
 11
62.9631
 21
71.7032
  0
LINE
  8
0
 10
62.9631
 20
71.7032
 11
62.9112
 21
71.6443
  0
LINE
  8
0
 10
62.9112
 20
71.6443
 11
62.8557
 21
71.5888
  0
LINE
  8
0
 10
62.8557
 20
71.5888
 11
62.7968
 21
71.5369
  0
LINE
  8
0
 10
62.7968
 20
71.5369
 11
62.7347
 21
71.4887
  0
LINE
  8
0
 10
62.7347
 20
71.4887
 11
62.6698
 21
71.4446
  0
LINE
  8
0
 10
62.6698
 20
71.4446
 11
62.6022
 21
71.4046
  0
LINE
  8
0
 10
62.6022
 20
71.4046
 11
62.5322
 21
71.369
  0
LINE
  8
0
 10
62.5322
 20
71.369
 11
62.4602
 21
71.3378
  0
LINE
  8
0
 10
62.4602
 20
71.3378
 11
62.3863
 21
71.3112
  0
LINE
  8
0
 10
62.3863
 20
71.3112
 11
62.3109
 21
71.2893
  0
LINE
  8
0
 10
62.3109
 20
71.2893
 11
62.2342
 21
71.2721
  0
LINE
  8
0
 10
62.2342
 20
71.2721
 11
62.1567
 21
71.2599
  0
LINE
  8
0
 10
62.1567
 20
71.2599
 11
62.0785
 21
71.2525
  0
LINE
  8
0
 10
62.0785
 20
71.2525
 11
62
 21
71.25
  0
LINE
  8
0
 10
62
 20
71.25
 11
61.9215
 21
71.2525
  0
LINE
  8
0
 10
61.9215
 20
71.2525
 11
61.8433
 21
71.2599
  0
LINE
  8
0
 10
61.8433
 20
71.2599
 11
61.7658
 21
71.2721
  0
LINE
  8
0
 10
61.7658
 20
71.2721
 11
61.6891
 21
71.2893
  0
LINE
  8
0
 10
61.6891
 20
71.2893
 11
61.6137
 21
71.3112
  0
LINE
  8
0
 10
61.6137
 20
71.3112
 11
61.5398
 21
71.3378
  0
LINE
  8
0
 10
61.5398
 20
71.3378
 11
61.4678
 21
71.369
  0
LINE
  8
0
 10
61.4678
 20
71.369
 11
61.3978
 21
71.4046
  0
LINE
  8
0
 10
61.3978
 20
71.4046
 11
61.3302
 21
71.4446
  0
LINE
  8
0
 10
61.3302
 20
71.4446
 11
61.2653
 21
71.4887
  0
LINE
  8
0
 10
61.2653
 20
71.4887
 11
61.2032
 21
71.5369
  0
LINE
  8
0
 10
61.2032
 20
71.5369
 11
61.1443
 21
71.5888
  0
LINE
  8
0
 10
61.1443
 20
71.5888
 11
61.0888
 21
71.6443
  0
LINE
  8
0
 10
61.0888
 20
71.6443
 11
61.0369
 21
71.7032
  0
LINE
  8
0
 10
61.0369
 20
71.7032
 11
60.9887
 21
71.7653
  0
LINE
  8
0
 10
60.9887
 20
71.7653
 11
60.9446
 21
71.8302
  0
LINE
  8
0
 10
60.9446
 20
71.8302
 11
60.9046
 21
71.8978
  0
LINE
  8
0
 10
60.9046
 20
71.8978
 11
60.869
 21
71.9678
  0
LINE
  8
0
 10
60.869
 20
71.9678
 11
60.8378
 21
72.0398
  0
LINE
  8
0
 10
60.8378
 20
72.0398
 11
60.8112
 21
72.1137
  0
LINE
  8
0
 10
60.8112
 20
72.1137
 11
60.7893
 21
72.1891
  0
LINE
  8
0
 10
60.7893
 20
72.1891
 11
60.7721
 21
72.2658
  0
LINE
  8
0
 10
60.7721
 20
72.2658
 11
60.7599
 21
72.3433
  0
LINE
  8
0
 10
60.7599
 20
72.3433
 11
60.7525
 21
72.4215
  0
LINE
  8
0
 10
60.7525
 20
72.4215
 11
60.75
 21
72.5
  0
LINE
  8
0
 10
173
 20
6
 11
173.004
 21
6.12558
  0
LINE
  8
0
 10
173.004
 20
6.12558
 11
173.016
 21
6.25067
  0
LINE
  8
0
 10
173.016
 20
6.25067
 11
173.035
 21
6.37476
  0
LINE
  8
0
 10
173.035
 20
6.37476
 11
173.063
 21
6.49738
  0
LINE
  8
0
 10
173.063
 20
6.49738
 11
173.098
 21
6.61803
  0
LINE
  8
0
 10
173.098
 20
6.61803
 11
173.14
 21
6.73625
  0
LINE
  8
0
 10
173.14
 20
6.73625
 11
173.19
 21
6.85156
  0
LINE
  8
0
 10
173.19
 20
6.85156
 11
173.247
 21
6.96351
  0
LINE
  8
0
 10
173.247
 20
6.96351
 11
173.311
 21
7.07165
  0
LINE
  8
0
 10
173.311
 20
7.07165
 11
173.382
 21
7.17557
  0
LINE
  8
0
 10
173.382
 20
7.17557
 11
173.459
 21
7.27485
  0
LINE
  8
0
 10
173.459
 20
7.27485
 11
173.542
 21
7.36909
  0
LINE
  8
0
 10
173.542
 20
7.36909
 11
173.631
 21
7.45794
  0
LINE
  8
0
 10
173.631
 20
7.45794
 11
173.725
 21
7.54103
  0
LINE
  8
0
 10
173.725
 20
7.54103
 11
173.824
 21
7.61803
  0
LINE
  8
0
 10
173.824
 20
7.61803
 11
173.928
 21
7.68865
  0
LINE
  8
0
 10
173.928
 20
7.68865
 11
174.036
 21
7.75261
  0
LINE
  8
0
 10
174.036
 20
7.75261
 11
174.148
 21
7.80965
  0
LINE
  8
0
 10
174.148
 20
7.80965
 11
174.264
 21
7.85955
  0
LINE
  8
0
 10
174.264
 20
7.85955
 11
174.382
 21
7.90211
  0
LINE
  8
0
 10
174.382
 20
7.90211
 11
174.503
 21
7.93717
  0
LINE
  8
0
 10
174.503
 20
7.93717
 11
174.625
 21
7.96457
  0
LINE
  8
0
 10
174.625
 20
7.96457
 11
174.749
 21
7.98423
  0
LINE
  8
0
 10
174.749
 20
7.98423
 11
174.874
 21
7.99605
  0
LINE
  8
0
 10
174.874
 20
7.99605
 11
175
 21
8
  0
LINE
  8
0
 10
175
 20
8
 11
175.126
 21
7.99605
  0
LINE
  8
0
 10
175.126
 20
7.99605
 11
175.251
 21
7.98423
  0
LINE
  8
0
 10
175.251
 20
7.98423
 11
175.375
 21
7.96457
  0
LINE
  8
0
 10
175.375
 20
7.96457
 11
175.497
 21
7.93717
  0
LINE
  8
0
 10
175.497
 20
7.93717
 11
175.618
 21
7.90211
  0
LINE
  8
0
 10
175.618
 20
7.90211
 11
175.736
 21
7.85955
  0
LINE
  8
0
 10
175.736
 20
7.85955
 11
175.852
 21
7.80965
  0
LINE
  8
0
 10
175.852
 20
7.80965
 11
175.964
 21
7.75261
  0
LINE
  8
0
 10
175.964
 20
7.75261
 11
176.072
 21
7.68865
  0
LINE
  8
0
 10
176.072
 20
7.68865
 11
176.176
 21
7.61803
  0
LINE
  8
0
 10
176.176
 20
7.61803
 11
176.275
 21
7.54103
  0
LINE
  8
0
 10
176.275
 20
7.54103
 11
176.369
 21
7.45794
  0
LINE
  8
0
 10
176.369
 20
7.45794
 11
176.458
 21
7.36909
  0
LINE
  8
0
 10
176.458
 20
7.36909
 11
176.541
 21
7.27485
  0
LINE
  8
0
 10
176.541
 20
7.27485
 11
176.618
 21
7.17557
  0
LINE
  8
0
 10
176.618
 20
7.17557
 11
176.689
 21
7.07165
  0
LINE
  8
0
 10
176.689
 20
7.07165
 11
176.753
 21
6.96351
  0
LINE
  8
0
 10
176.753
 20
6.96351
 11
176.81
 21
6.85156
  0
LINE
  8
0
 10
176.81
 20
6.85156
 11
176.86
 21
6.73625
  0
LINE
  8
0
 10
176.86
 20
6.73625
 11
176.902
 21
6.61803
  0
LINE
  8
0
 10
176.902
 20
6.61803
 11
176.937
 21
6.49738
  0
LINE
  8
0
 10
176.937
 20
6.49738
 11
176.965
 21
6.37476
  0
LINE
  8
0
 10
176.965
 20
6.37476
 11
176.984
 21
6.25067
  0
LINE
  8
0
 10
176.984
 20
6.25067
 11
176.996
 21
6.12558
  0
LINE
  8
0
 10
176.996
 20
6.12558
 11
177
 21
6
  0
LINE
  8
0
 10
177
 20
6
 11
176.996
 21
5.87442
  0
LINE
  8
0
 10
176.996
 20
5.87442
 11
176.984
 21
5.74933
  0
LINE
  8
0
 10
176.984
 20
5.74933
 11
176.965
 21
5.62524
  0
LINE
  8
0
 10
176.965
 20
5.62524
 11
176.937
 21
5.50262
  0
LINE
  8
0
 10
176.937
 20
5.50262
 11
176.902
 21
5.38197
  0
LINE
  8
0
 10
176.902
 20
5.38197
 11
176.86
 21
5.26375
  0
LINE
  8
0
 10
176.86
 20
5.26375
 11
176.81
 21
5.14844
  0
LINE
  8
0
 10
176.81
 20
5.14844
 11
176.753
 21
5.03649
  0
LINE
  8
0
 10
176.753
 20
5.03649
 11
176.689
 21
4.92835
  0
LINE
  8
0
 10
176.689
 20
4.92835
 11
176.618
 21
4.82443
  0
LINE
  8
0
 10
176.618
 20
4.82443
 11
176.541
 21
4.72515
  0
LINE
  8
0
 10
176.541
 20
4.72515
 11
176.458
 21
4.63091
  0
LINE
  8
0
 10
176.458
 20
4.63091
 11
176.369
 21
4.54206
  0
LINE
  8
0
 10
176.369
 20
4.54206
 11
176.275
 21
4.45897
  0
LINE
  8
0
 10
176.275
 20
4.45897
 11
176.176
 21
4.38197
  0
LINE
  8
0
 10
176.176
 20
4.38197
 11
176.072
 21
4.31134
  0
LINE
  8
0
 10
176.072
 20
4.31134
 11
175.964
 21
4.24739
  0
LINE
  8
0
 10
175.964
 20
4.24739
 11
175.852
 21
4.19035
  0
LINE
  8
0
 10
175.852
 20
4.19035
 11
175.736
 21
4.14045
  0
LINE
  8
0
 10
175.736
 20
4.14045
 11
175.618
 21
4.09789
  0
LINE
  8
0
 10
175.618
 20
4.09789
 11
175.497
 21
4.06283
  0
LINE
  8
0
 10
175.497
 20
4.06283
 11
175.375
 21
4.03543
  0
LINE
  8
0
 10
175.375
 20
4.03543
 11
175.251
 21
4.01577
  0
LINE
  8
0
 10
175.251
 20
4.01577
 11
175.126
 21
4.00395
  0
LINE
  8
0
 10
175.126
 20
4.00395
 11
175
 21
4
  0
LINE
  8
0
 10
175
 20
4
 11
174.874
 21
4.00395
  0
LINE
  8
0
 10
174.874
 20
4.00395
 11
174.749
 21
4.01577
  0
LINE
  8
0
 10
174.749
 20
4.01577
 11
174.625
 21
4.03543
  0
LINE
  8
0
 10
174.625
 20
4.03543
 11
174.503
 21
4.06283
  0
LINE
  8
0
 10
174.503
 20
4.06283
 11
174.382
 21
4.09789
  0
LINE
  8
0
 10
174.382
 20
4.09789
 11
174.264
 21
4.14045
  0
LINE
  8
0
 10
174.264
 20
4.14045
 11
174.148
 21
4.19035
  0
LINE
  8
0
 10
174.148
 20
4.19035
 11
174.036
 21
4.24739
  0
LINE
  8
0
 10
174.036
 20
4.24739
 11
173.928
 21
4.31134
  0
LINE
  8
0
 10
173.928
 20
4.31134
 11
173.824
 21
4.38197
  0
LINE
  8
0
 10
173.824
 20
4.38197
 11
173.725
 21
4.45897
  0
LINE
  8
0
 10
173.725
 20
4.45897
 11
173.631
 21
4.54206
  0
LINE
  8
0
 10
173.631
 20
4.54206
 11
173.542
 21
4.63091
  0
LINE
  8
0
 10
173.542
 20
4.63091
 11
173.459
 21
4.72515
  0
LINE
  8
0
 10
173.459
 20
4.72515
 11
173.382
 21
4.82443
  0
LINE
  8
0
 10
173.382
 20
4.82443
 11
173.311
 21
4.92835
  0
LINE
  8
0
 10
173.311
 20
4.92835
 11
173.247
 21
5.03649
  0
LINE
  8
0
 10
173.247
 20
5.03649
 11
173.19
 21
5.14844
  0
LINE
  8
0
 10
173.19
 20
5.14844
 11
173.14
 21
5.26375
  0
LINE
  8
0
 10
173.14
 20
5.26375
 11
173.098
 21
5.38197
  0
LINE
  8
0
 10
173.098
 20
5.38197
 11
173.063
 21
5.50262
  0
LINE
  8
0
 10
173.063
 20
5.50262
 11
173.035
 21
5.62524
  0
LINE
  8
0
 10
173.035
 20
5.62524
 11
173.016
 21
5.74933
  0
LINE
  8
0
 10
173.016
 20
5.74933
 11
173.004
 21
5.87442
  0
LINE
  8
0
 10
173.004
 20
5.87442
 11
173
 21
6
  0
LINE
  8
0
 10
188.75
 20
72.5
 11
188.752
 21
72.5785
  0
LINE
  8
0
 10
188.752
 20
72.5785
 11
188.76
 21
72.6567
  0
LINE
  8
0
 10
188.76
 20
72.6567
 11
188.772
 21
72.7342
  0
LINE
  8
0
 10
188.772
 20
72.7342
 11
188.789
 21
72.8109
  0
LINE
  8
0
 10
188.789
 20
72.8109
 11
188.811
 21
72.8863
  0
LINE
  8
0
 10
188.811
 20
72.8863
 11
188.838
 21
72.9602
  0
LINE
  8
0
 10
188.838
 20
72.9602
 11
188.869
 21
73.0322
  0
LINE
  8
0
 10
188.869
 20
73.0322
 11
188.905
 21
73.1022
  0
LINE
  8
0
 10
188.905
 20
73.1022
 11
188.945
 21
73.1698
  0
LINE
  8
0
 10
188.945
 20
73.1698
 11
188.989
 21
73.2347
  0
LINE
  8
0
 10
188.989
 20
73.2347
 11
189.037
 21
73.2968
  0
LINE
  8
0
 10
189.037
 20
73.2968
 11
189.089
 21
73.3557
  0
LINE
  8
0
 10
189.089
 20
73.3557
 11
189.144
 21
73.4112
  0
LINE
  8
0
 10
189.144
 20
73.4112
 11
189.203
 21
73.4631
  0
LINE
  8
0
 10
189.203
 20
73.4631
 11
189.265
 21
73.5113
  0
LINE
  8
0
 10
189.265
 20
73.5113
 11
189.33
 21
73.5554
  0
LINE
  8
0
 10
189.33
 20
73.5554
 11
189.398
 21
73.5954
  0
LINE
  8
0
 10
189.398
 20
73.5954
 11
189.468
 21
73.631
  0
LINE
  8
0
 10
189.468
 20
73.631
 11
189.54
 21
73.6622
  0
LINE
  8
0
 10
189.54
 20
73.6622
 11
189.614
 21
73.6888
  0
LINE
  8
0
 10
189.614
 20
73.6888
 11
189.689
 21
73.7107
  0
LINE
  8
0
 10
189.689
 20
73.7107
 11
189.766
 21
73.7279
  0
LINE
  8
0
 10
189.766
 20
73.7279
 11
189.843
 21
73.7401
  0
LINE
  8
0
 10
189.843
 20
73.7401
 11
189.922
 21
73.7475
  0
LINE
  8
0
 10
189.922
 20
73.7475
 11
190
 21
73.75
  0
LINE
  8
0
 10
190
 20
73.75
 11
190.078
 21
73.7475
  0
LINE
  8
0
 10
190.078
 20
73.7475
 11
190.157
 21
73.7401
  0
LINE
  8
0
 10
190.157
 20
73.7401
 11
190.234
 21
73.7279
  0
LINE
  8
0
 10
190.234
 20
73.7279
 11
190.311
 21
73.7107
  0
LINE
  8
0
 10
190.311
 20
73.7107
 11
190.386
 21
73.6888
  0
LINE
  8
0
 10
190.386
 20
73.6888
 11
190.46
 21
73.6622
  0
LINE
  8
0
 10
190.46
 20
73.6622
 11
190.532
 21
73.631
  0
LINE
  8
0
 10
190.532
 20
73.631
 11
190.602
 21
73.5954
  0
LINE
  8
0
 10
190.602
 20
73.5954
 11
190.67
 21
73.5554
  0
LINE
  8
0
 10
190.67
 20
73.5554
 11
190.735
 21
73.5113
  0
LINE
  8
0
 10
190.735
 20
73.5113
 11
190.797
 21
73.4631
  0
LINE
  8
0
 10
190.797
 20
73.4631
 11
190.856
 21
73.4112
  0
LINE
  8
0
 10
190.856
 20
73.4112
 11
190.911
 21
73.3557
  0
LINE
  8
0
 10
190.911
 20
73.3557
 11
190.963
 21
73.2968
  0
LINE
  8
0
 10
190.963
 20
73.2968
 11
191.011
 21
73.2347
  0
LINE
  8
0
 10
191.011
 20
73.2347
 11
191.055
 21
73.1698
  0
LINE
  8
0
 10
191.055
 20
73.1698
 11
191.095
 21
73.1022
  0
LINE
  8
0
 10
191.095
 20
73.1022
 11
191.131
 21
73.0322
  0
LINE
  8
0
 10
191.131
 20
73.0322
 11
191.162
 21
72.9602
  0
LINE
  8
0
 10
191.162
 20
72.9602
 11
191.189
 21
72.8863
  0
LINE
  8
0
 10
191.189
 20
72.8863
 11
191.211
 21
72.8109
  0
LINE
  8
0
 10
191.211
 20
72.8109
 11
191.228
 21
72.7342
  0
LINE
  8
0
 10
191.228
 20
72.7342
 11
191.24
 21
72.6567
  0
LINE
  8
0
 10
191.24
 20
72.6567
 11
191.248
 21
72.5785
  0
LINE
  8
0
 10
191.248
 20
72.5785
 11
191.25
 21
72.5
  0
LINE
  8
0
 10
191.25
 20
72.5
 11
191.248
 21
72.4215
  0
LINE
  8
0
 10
191.248
 20
72.4215
 11
191.24
 21
72.3433
  0
LINE
  8
0
 10
191.24
 20
72.3433
 11
191.228
 21
72.2658
  0
LINE
  8
0
 10
191.228
 20
72.2658
 11
191.211
 21
72.1891
  0
LINE
  8
0
 10
191.211
 20
72.1891
 11
191.189
 21
72.1137
  0
LINE
  8
0
 10
191.189
 20
72.1137
 11
191.162
 21
72.0398
  0
LINE
  8
0
 10
191.162
 20
72.0398
 11
191.131
 21
71.9678
  0
LINE
  8
0
 10
191.131
 20
71.9678
 11
191.095
 21
71.8978
  0
LINE
  8
0
 10
191.095
 20
71.8978
 11
191.055
 21
71.8302
  0
LINE
  8
0
 10
191.055
 20
71.8302
 11
191.011
 21
71.7653
  0
LINE
  8
0
 10
191.011
 20
71.7653
 11
190.963
 21
71.7032
  0
LINE
  8
0
 10
190.963
 20
71.7032
 11
190.911
 21
71.6443
  0
LINE
  8
0
 10
190.911
 20
71.6443
 11
190.856
 21
71.5888
  0
LINE
  8
0
 10
190.856
 20
71.5888
 11
190.797
 21
71.5369
  0
LINE
  8
0
 10
190.797
 20
71.5369
 11
190.735
 21
71.4887
  0
LINE
  8
0
 10
190.735
 20
71.4887
 11
190.67
 21
71.4446
  0
LINE
  8
0
 10
190.67
 20
71.4446
 11
190.602
 21
71.4046
  0
LINE
  8
0
 10
190.602
 20
71.4046
 11
190.532
 21
71.369
  0
LINE
  8
0
 10
190.532
 20
71.369
 11
190.46
 21
71.3378
  0
LINE
  8
0
 10
190.46
 20
71.3378
 11
190.386
 21
71.3112
  0
LINE
  8
0
 10
190.386
 20
71.3112
 11
190.311
 21
71.2893
  0
LINE
  8
0
 10
190.311
 20
71.2893
 11
190.234
 21
71.2721
  0
LINE
  8
0
 10
190.234
 20
71.2721
 11
190.157
 21
71.2599
  0
LINE
  8
0
 10
190.157
 20
71.2599
 11
190.078
 21
71.2525
  0
LINE
  8
0
 10
190.078
 20
71.2525
 11
190
 21
71.25
  0
LINE
  8
0
 10
190
 20
71.25
 11
189.922
 21
71.2525
  0
LINE
  8
0
 10
189.922
 20
71.2525
 11
189.843
 21
71.2599
  0
LINE
  8
0
 10
189.843
 20
71.2599
 11
189.766
 21
71.2721
  0
LINE
  8
0
 10
189.766
 20
71.2721
 11
189.689
 21
71.2893
  0
LINE
  8
0
 10
189.689
 20
71.2893
 11
189.614
 21
71.3112
  0
LINE
  8
0
 10
189.614
 20
71.3112
 11
189.54
 21
71.3378
  0
LINE
  8
0
 10
189.54
 20
71.3378
 11
189.468
 21
71.369
  0
LINE
  8
0
 10
189.468
 20
71.369
 11
189.398
 21
71.4046
  0
LINE
  8
0
 10
189.398
 20
71.4046
 11
189.33
 21
71.4446
  0
LINE
  8
0
 10
189.33
 20
71.4446
 11
189.265
 21
71.4887
  0
LINE
  8
0
 10
189.265
 20
71.4887
 11
189.203
 21
71.5369
  0
LINE
  8
0
 10
189.203
 20
71.5369
 11
189.144
 21
71.5888
  0
LINE
  8
0
 10
189.144
 20
71.5888
 11
189.089
 21
71.6443
  0
LINE
  8
0
 10
189.089
 20
71.6443
 11
189.037
 21
71.7032
  0
LINE
  8
0
 10
189.037
 20
71.7032
 11
188.989
 21
71.7653
  0
LINE
  8
0
 10
188.989
 20
71.7653
 11
188.945
 21
71.8302
  0
LINE
  8
0
 10
188.945
 20
71.8302
 11
188.905
 21
71.8978
  0
LINE
  8
0
 10
188.905
 20
71.8978
 11
188.869
 21
71.9678
  0
LINE
  8
0
 10
188.869
 20
71.9678
 11
188.838
 21
72.0398
  0
LINE
  8
0
 10
188.838
 20
72.0398
 11
188.811
 21
72.1137
  0
LINE
  8
0
 10
188.811
 20
72.1137
 11
188.789
 21
72.1891
  0
LINE
  8
0
 10
188.789
 20
72.1891
 11
188.772
 21
72.2658
  0
LINE
  8
0
 10
188.772
 20
72.2658
 11
188.76
 21
72.3433
  0
LINE
  8
0
 10
188.76
 20
72.3433
 11
188.752
 21
72.4215
  0
LINE
  8
0
 10
188.752
 20
72.4215
 11
188.75
 21
72.5
  0
ENDSEC
  0
SECTION
  2
OBJECTS
  0
DICTIONARY
  0
ENDSEC
  0
EOF
