  0
SECTION
  2
BLOCKS
  0
ENDSEC
  0
SECTION
  2
ENTITIES
  0
LINE
  8
0
 10
0
 20
0
 11
514
 21
0
  0
LINE
  8
0
 10
514
 20
0
 11
514
 21
200
  0
LINE
  8
0
 10
514
 20
200
 11
0
 21
200
  0
LINE
  8
0
 10
0
 20
200
 11
0
 21
0
  0
LINE
  8
0
 10
48
 20
6
 11
48.0039
 21
6.12558
  0
LINE
  8
0
 10
48.0039
 20
6.12558
 11
48.0158
 21
6.25067
  0
LINE
  8
0
 10
48.0158
 20
6.25067
 11
48.0354
 21
6.37476
  0
LINE
  8
0
 10
48.0354
 20
6.37476
 11
48.0628
 21
6.49738
  0
LINE
  8
0
 10
48.0628
 20
6.49738
 11
48.0979
 21
6.61803
  0
LINE
  8
0
 10
48.0979
 20
6.61803
 11
48.1404
 21
6.73625
  0
LINE
  8
0
 10
48.1404
 20
6.73625
 11
48.1903
 21
6.85156
  0
LINE
  8
0
 10
48.1903
 20
6.85156
 11
48.2474
 21
6.96351
  0
LINE
  8
0
 10
48.2474
 20
6.96351
 11
48.3113
 21
7.07165
  0
LINE
  8
0
 10
48.3113
 20
7.07165
 11
48.382
 21
7.17557
  0
LINE
  8
0
 10
48.382
 20
7.17557
 11
48.459
 21
7.27485
  0
LINE
  8
0
 10
48.459
 20
7.27485
 11
48.5421
 21
7.36909
  0
LINE
  8
0
 10
48.5421
 20
7.36909
 11
48.6309
 21
7.45794
  0
LINE
  8
0
 10
48.6309
 20
7.45794
 11
48.7252
 21
7.54103
  0
LINE
  8
0
 10
48.7252
 20
7.54103
 11
48.8244
 21
7.61803
  0
LINE
  8
0
 10
48.8244
 20
7.61803
 11
48.9283
 21
7.68865
  0
LINE
  8
0
 10
48.9283
 20
7.68865
 11
49.0365
 21
7.75261
  0
LINE
  8
0
 10
49.0365
 20
7.75261
 11
49.1484
 21
7.80965
  0
LINE
  8
0
 10
49.1484
 20
7.80965
 11
49.2638
 21
7.85955
  0
LINE
  8
0
 10
49.2638
 20
7.85955
 11
49.382
 21
7.90211
  0
LINE
  8
0
 10
49.382
 20
7.90211
 11
49.5026
 21
7.93717
  0
LINE
  8
0
 10
49.5026
 20
7.93717
 11
49.6252
 21
7.96457
  0
LINE
  8
0
 10
49.6252
 20
7.96457
 11
49.7493
 21
7.98423
  0
LINE
  8
0
 10
49.7493
 20
7.98423
 11
49.8744
 21
7.99605
  0
LINE
  8
0
 10
49.8744
 20
7.99605
 11
50
 21
8
  0
LINE
  8
0
 10
50
 20
8
 11
50.1256
 21
7.99605
  0
LINE
  8
0
 10
50.1256
 20
7.99605
 11
50.2507
 21
7.98423
  0
LINE
  8
0
 10
50.2507
 20
7.98423
 11
50.3748
 21
7.96457
  0
LINE
  8
0
 10
50.3748
 20
7.96457
 11
50.4974
 21
7.93717
  0
LINE
  8
0
 10
50.4974
 20
7.93717
 11
50.618
 21
7.90211
  0
LINE
  8
0
 10
50.618
 20
7.90211
 11
50.7362
 21
7.85955
  0
LINE
  8
0
 10
50.7362
 20
7.85955
 11
50.8516
 21
7.80965
  0
LINE
  8
0
 10
50.8516
 20
7.80965
 11
50.9635
 21
7.75261
  0
LINE
  8
0
 10
50.9635
 20
7.75261
 11
51.0717
 21
7.68865
  0
LINE
  8
0
 10
51.0717
 20
7.68865
 11
51.1756
 21
7.61803
  0
LINE
  8
0
 10
51.1756
 20
7.61803
 11
51.2748
 21
7.54103
  0
LINE
  8
0
 10
51.2748
 20
7.54103
 11
51.3691
 21
7.45794
  0
LINE
  8
0
 10
51.3691
 20
7.45794
 11
51.4579
 21
7.36909
  0
LINE
  8
0
 10
51.4579
 20
7.36909
 11
51.541
 21
7.27485
  0
LINE
  8
0
 10
51.541
 20
7.27485
 11
51.618
 21
7.17557
  0
LINE
  8
0
 10
51.618
 20
7.17557
 11
51.6887
 21
7.07165
  0
LINE
  8
0
 10
51.6887
 20
7.07165
 11
51.7526
 21
6.96351
  0
LINE
  8
0
 10
51.7526
 20
6.96351
 11
51.8097
 21
6.85156
  0
LINE
  8
0
 10
51.8097
 20
6.85156
 11
51.8596
 21
6.73625
  0
LINE
  8
0
 10
51.8596
 20
6.73625
 11
51.9021
 21
6.61803
  0
LINE
  8
0
 10
51.9021
 20
6.61803
 11
51.9372
 21
6.49738
  0
LINE
  8
0
 10
51.9372
 20
6.49738
 11
51.9646
 21
6.37476
  0
LINE
  8
0
 10
51.9646
 20
6.37476
 11
51.9842
 21
6.25067
  0
LINE
  8
0
 10
51.9842
 20
6.25067
 11
51.9961
 21
6.12558
  0
LINE
  8
0
 10
51.9961
 20
6.12558
 11
52
 21
6
  0
LINE
  8
0
 10
52
 20
6
 11
51.9961
 21
5.87442
  0
LINE
  8
0
 10
51.9961
 20
5.87442
 11
51.9842
 21
5.74933
  0
LINE
  8
0
 10
51.9842
 20
5.74933
 11
51.9646
 21
5.62524
  0
LINE
  8
0
 10
51.9646
 20
5.62524
 11
51.9372
 21
5.50262
  0
LINE
  8
0
 10
51.9372
 20
5.50262
 11
51.9021
 21
5.38197
  0
LINE
  8
0
 10
51.9021
 20
5.38197
 11
51.8596
 21
5.26375
  0
LINE
  8
0
 10
51.8596
 20
5.26375
 11
51.8097
 21
5.14844
  0
LINE
  8
0
 10
51.8097
 20
5.14844
 11
51.7526
 21
5.03649
  0
LINE
  8
0
 10
51.7526
 20
5.03649
 11
51.6887
 21
4.92835
  0
LINE
  8
0
 10
51.6887
 20
4.92835
 11
51.618
 21
4.82443
  0
LINE
  8
0
 10
51.618
 20
4.82443
 11
51.541
 21
4.72515
  0
LINE
  8
0
 10
51.541
 20
4.72515
 11
51.4579
 21
4.63091
  0
LINE
  8
0
 10
51.4579
 20
4.63091
 11
51.3691
 21
4.54206
  0
LINE
  8
0
 10
51.3691
 20
4.54206
 11
51.2748
 21
4.45897
  0
LINE
  8
0
 10
51.2748
 20
4.45897
 11
51.1756
 21
4.38197
  0
LINE
  8
0
 10
51.1756
 20
4.38197
 11
51.0717
 21
4.31134
  0
LINE
  8
0
 10
51.0717
 20
4.31134
 11
50.9635
 21
4.24739
  0
LINE
  8
0
 10
50.9635
 20
4.24739
 11
50.8516
 21
4.19035
  0
LINE
  8
0
 10
50.8516
 20
4.19035
 11
50.7362
 21
4.14045
  0
LINE
  8
0
 10
50.7362
 20
4.14045
 11
50.618
 21
4.09789
  0
LINE
  8
0
 10
50.618
 20
4.09789
 11
50.4974
 21
4.06283
  0
LINE
  8
0
 10
50.4974
 20
4.06283
 11
50.3748
 21
4.03543
  0
LINE
  8
0
 10
50.3748
 20
4.03543
 11
50.2507
 21
4.01577
  0
LINE
  8
0
 10
50.2507
 20
4.01577
 11
50.1256
 21
4.00395
  0
LINE
  8
0
 10
50.1256
 20
4.00395
 11
50
 21
4
  0
LINE
  8
0
 10
50
 20
4
 11
49.8744
 21
4.00395
  0
LINE
  8
0
 10
49.8744
 20
4.00395
 11
49.7493
 21
4.01577
  0
LINE
  8
0
 10
49.7493
 20
4.01577
 11
49.6252
 21
4.03543
  0
LINE
  8
0
 10
49.6252
 20
4.03543
 11
49.5026
 21
4.06283
  0
LINE
  8
0
 10
49.5026
 20
4.06283
 11
49.382
 21
4.09789
  0
LINE
  8
0
 10
49.382
 20
4.09789
 11
49.2638
 21
4.14045
  0
LINE
  8
0
 10
49.2638
 20
4.14045
 11
49.1484
 21
4.19035
  0
LINE
  8
0
 10
49.1484
 20
4.19035
 11
49.0365
 21
4.24739
  0
LINE
  8
0
 10
49.0365
 20
4.24739
 11
48.9283
 21
4.31134
  0
LINE
  8
0
 10
48.9283
 20
4.31134
 11
48.8244
 21
4.38197
  0
LINE
  8
0
 10
48.8244
 20
4.38197
 11
48.7252
 21
4.45897
  0
LINE
  8
0
 10
48.7252
 20
4.45897
 11
48.6309
 21
4.54206
  0
LINE
  8
0
 10
48.6309
 20
4.54206
 11
48.5421
 21
4.63091
  0
LINE
  8
0
 10
48.5421
 20
4.63091
 11
48.459
 21
4.72515
  0
LINE
  8
0
 10
48.459
 20
4.72515
 11
48.382
 21
4.82443
  0
LINE
  8
0
 10
48.382
 20
4.82443
 11
48.3113
 21
4.92835
  0
LINE
  8
0
 10
48.3113
 20
4.92835
 11
48.2474
 21
5.03649
  0
LINE
  8
0
 10
48.2474
 20
5.03649
 11
48.1903
 21
5.14844
  0
LINE
  8
0
 10
48.1903
 20
5.14844
 11
48.1404
 21
5.26375
  0
LINE
  8
0
 10
48.1404
 20
5.26375
 11
48.0979
 21
5.38197
  0
LINE
  8
0
 10
48.0979
 20
5.38197
 11
48.0628
 21
5.50262
  0
LINE
  8
0
 10
48.0628
 20
5.50262
 11
48.0354
 21
5.62524
  0
LINE
  8
0
 10
48.0354
 20
5.62524
 11
48.0158
 21
5.74933
  0
LINE
  8
0
 10
48.0158
 20
5.74933
 11
48.0039
 21
5.87442
  0
LINE
  8
0
 10
48.0039
 20
5.87442
 11
48
 21
6
  0
LINE
  8
0
 10
255
 20
6
 11
255.004
 21
6.12558
  0
LINE
  8
0
 10
255.004
 20
6.12558
 11
255.016
 21
6.25067
  0
LINE
  8
0
 10
255.016
 20
6.25067
 11
255.035
 21
6.37476
  0
LINE
  8
0
 10
255.035
 20
6.37476
 11
255.063
 21
6.49738
  0
LINE
  8
0
 10
255.063
 20
6.49738
 11
255.098
 21
6.61803
  0
LINE
  8
0
 10
255.098
 20
6.61803
 11
255.14
 21
6.73625
  0
LINE
  8
0
 10
255.14
 20
6.73625
 11
255.19
 21
6.85156
  0
LINE
  8
0
 10
255.19
 20
6.85156
 11
255.247
 21
6.96351
  0
LINE
  8
0
 10
255.247
 20
6.96351
 11
255.311
 21
7.07165
  0
LINE
  8
0
 10
255.311
 20
7.07165
 11
255.382
 21
7.17557
  0
LINE
  8
0
 10
255.382
 20
7.17557
 11
255.459
 21
7.27485
  0
LINE
  8
0
 10
255.459
 20
7.27485
 11
255.542
 21
7.36909
  0
LINE
  8
0
 10
255.542
 20
7.36909
 11
255.631
 21
7.45794
  0
LINE
  8
0
 10
255.631
 20
7.45794
 11
255.725
 21
7.54103
  0
LINE
  8
0
 10
255.725
 20
7.54103
 11
255.824
 21
7.61803
  0
LINE
  8
0
 10
255.824
 20
7.61803
 11
255.928
 21
7.68865
  0
LINE
  8
0
 10
255.928
 20
7.68865
 11
256.036
 21
7.75261
  0
LINE
  8
0
 10
256.036
 20
7.75261
 11
256.148
 21
7.80965
  0
LINE
  8
0
 10
256.148
 20
7.80965
 11
256.264
 21
7.85955
  0
LINE
  8
0
 10
256.264
 20
7.85955
 11
256.382
 21
7.90211
  0
LINE
  8
0
 10
256.382
 20
7.90211
 11
256.503
 21
7.93717
  0
LINE
  8
0
 10
256.503
 20
7.93717
 11
256.625
 21
7.96457
  0
LINE
  8
0
 10
256.625
 20
7.96457
 11
256.749
 21
7.98423
  0
LINE
  8
0
 10
256.749
 20
7.98423
 11
256.874
 21
7.99605
  0
LINE
  8
0
 10
256.874
 20
7.99605
 11
257
 21
8
  0
LINE
  8
0
 10
257
 20
8
 11
257.126
 21
7.99605
  0
LINE
  8
0
 10
257.126
 20
7.99605
 11
257.251
 21
7.98423
  0
LINE
  8
0
 10
257.251
 20
7.98423
 11
257.375
 21
7.96457
  0
LINE
  8
0
 10
257.375
 20
7.96457
 11
257.497
 21
7.93717
  0
LINE
  8
0
 10
257.497
 20
7.93717
 11
257.618
 21
7.90211
  0
LINE
  8
0
 10
257.618
 20
7.90211
 11
257.736
 21
7.85955
  0
LINE
  8
0
 10
257.736
 20
7.85955
 11
257.852
 21
7.80965
  0
LINE
  8
0
 10
257.852
 20
7.80965
 11
257.964
 21
7.75261
  0
LINE
  8
0
 10
257.964
 20
7.75261
 11
258.072
 21
7.68865
  0
LINE
  8
0
 10
258.072
 20
7.68865
 11
258.176
 21
7.61803
  0
LINE
  8
0
 10
258.176
 20
7.61803
 11
258.275
 21
7.54103
  0
LINE
  8
0
 10
258.275
 20
7.54103
 11
258.369
 21
7.45794
  0
LINE
  8
0
 10
258.369
 20
7.45794
 11
258.458
 21
7.36909
  0
LINE
  8
0
 10
258.458
 20
7.36909
 11
258.541
 21
7.27485
  0
LINE
  8
0
 10
258.541
 20
7.27485
 11
258.618
 21
7.17557
  0
LINE
  8
0
 10
258.618
 20
7.17557
 11
258.689
 21
7.07165
  0
LINE
  8
0
 10
258.689
 20
7.07165
 11
258.753
 21
6.96351
  0
LINE
  8
0
 10
258.753
 20
6.96351
 11
258.81
 21
6.85156
  0
LINE
  8
0
 10
258.81
 20
6.85156
 11
258.86
 21
6.73625
  0
LINE
  8
0
 10
258.86
 20
6.73625
 11
258.902
 21
6.61803
  0
LINE
  8
0
 10
258.902
 20
6.61803
 11
258.937
 21
6.49738
  0
LINE
  8
0
 10
258.937
 20
6.49738
 11
258.965
 21
6.37476
  0
LINE
  8
0
 10
258.965
 20
6.37476
 11
258.984
 21
6.25067
  0
LINE
  8
0
 10
258.984
 20
6.25067
 11
258.996
 21
6.12558
  0
LINE
  8
0
 10
258.996
 20
6.12558
 11
259
 21
6
  0
LINE
  8
0
 10
259
 20
6
 11
258.996
 21
5.87442
  0
LINE
  8
0
 10
258.996
 20
5.87442
 11
258.984
 21
5.74933
  0
LINE
  8
0
 10
258.984
 20
5.74933
 11
258.965
 21
5.62524
  0
LINE
  8
0
 10
258.965
 20
5.62524
 11
258.937
 21
5.50262
  0
LINE
  8
0
 10
258.937
 20
5.50262
 11
258.902
 21
5.38197
  0
LINE
  8
0
 10
258.902
 20
5.38197
 11
258.86
 21
5.26375
  0
LINE
  8
0
 10
258.86
 20
5.26375
 11
258.81
 21
5.14844
  0
LINE
  8
0
 10
258.81
 20
5.14844
 11
258.753
 21
5.03649
  0
LINE
  8
0
 10
258.753
 20
5.03649
 11
258.689
 21
4.92835
  0
LINE
  8
0
 10
258.689
 20
4.92835
 11
258.618
 21
4.82443
  0
LINE
  8
0
 10
258.618
 20
4.82443
 11
258.541
 21
4.72515
  0
LINE
  8
0
 10
258.541
 20
4.72515
 11
258.458
 21
4.63091
  0
LINE
  8
0
 10
258.458
 20
4.63091
 11
258.369
 21
4.54206
  0
LINE
  8
0
 10
258.369
 20
4.54206
 11
258.275
 21
4.45897
  0
LINE
  8
0
 10
258.275
 20
4.45897
 11
258.176
 21
4.38197
  0
LINE
  8
0
 10
258.176
 20
4.38197
 11
258.072
 21
4.31134
  0
LINE
  8
0
 10
258.072
 20
4.31134
 11
257.964
 21
4.24739
  0
LINE
  8
0
 10
257.964
 20
4.24739
 11
257.852
 21
4.19035
  0
LINE
  8
0
 10
257.852
 20
4.19035
 11
257.736
 21
4.14045
  0
LINE
  8
0
 10
257.736
 20
4.14045
 11
257.618
 21
4.09789
  0
LINE
  8
0
 10
257.618
 20
4.09789
 11
257.497
 21
4.06283
  0
LINE
  8
0
 10
257.497
 20
4.06283
 11
257.375
 21
4.03543
  0
LINE
  8
0
 10
257.375
 20
4.03543
 11
257.251
 21
4.01577
  0
LINE
  8
0
 10
257.251
 20
4.01577
 11
257.126
 21
4.00395
  0
LINE
  8
0
 10
257.126
 20
4.00395
 11
257
 21
4
  0
LINE
  8
0
 10
257
 20
4
 11
256.874
 21
4.00395
  0
LINE
  8
0
 10
256.874
 20
4.00395
 11
256.749
 21
4.01577
  0
LINE
  8
0
 10
256.749
 20
4.01577
 11
256.625
 21
4.03543
  0
LINE
  8
0
 10
256.625
 20
4.03543
 11
256.503
 21
4.06283
  0
LINE
  8
0
 10
256.503
 20
4.06283
 11
256.382
 21
4.09789
  0
LINE
  8
0
 10
256.382
 20
4.09789
 11
256.264
 21
4.14045
  0
LINE
  8
0
 10
256.264
 20
4.14045
 11
256.148
 21
4.19035
  0
LINE
  8
0
 10
256.148
 20
4.19035
 11
256.036
 21
4.24739
  0
LINE
  8
0
 10
256.036
 20
4.24739
 11
255.928
 21
4.31134
  0
LINE
  8
0
 10
255.928
 20
4.31134
 11
255.824
 21
4.38197
  0
LINE
  8
0
 10
255.824
 20
4.38197
 11
255.725
 21
4.45897
  0
LINE
  8
0
 10
255.725
 20
4.45897
 11
255.631
 21
4.54206
  0
LINE
  8
0
 10
255.631
 20
4.54206
 11
255.542
 21
4.63091
  0
LINE
  8
0
 10
255.542
 20
4.63091
 11
255.459
 21
4.72515
  0
LINE
  8
0
 10
255.459
 20
4.72515
 11
255.382
 21
4.82443
  0
LINE
  8
0
 10
255.382
 20
4.82443
 11
255.311
 21
4.92835
  0
LINE
  8
0
 10
255.311
 20
4.92835
 11
255.247
 21
5.03649
  0
LINE
  8
0
 10
255.247
 20
5.03649
 11
255.19
 21
5.14844
  0
LINE
  8
0
 10
255.19
 20
5.14844
 11
255.14
 21
5.26375
  0
LINE
  8
0
 10
255.14
 20
5.26375
 11
255.098
 21
5.38197
  0
LINE
  8
0
 10
255.098
 20
5.38197
 11
255.063
 21
5.50262
  0
LINE
  8
0
 10
255.063
 20
5.50262
 11
255.035
 21
5.62524
  0
LINE
  8
0
 10
255.035
 20
5.62524
 11
255.016
 21
5.74933
  0
LINE
  8
0
 10
255.016
 20
5.74933
 11
255.004
 21
5.87442
  0
LINE
  8
0
 10
255.004
 20
5.87442
 11
255
 21
6
  0
LINE
  8
0
 10
462
 20
6
 11
462.004
 21
6.12558
  0
LINE
  8
0
 10
462.004
 20
6.12558
 11
462.016
 21
6.25067
  0
LINE
  8
0
 10
462.016
 20
6.25067
 11
462.035
 21
6.37476
  0
LINE
  8
0
 10
462.035
 20
6.37476
 11
462.063
 21
6.49738
  0
LINE
  8
0
 10
462.063
 20
6.49738
 11
462.098
 21
6.61803
  0
LINE
  8
0
 10
462.098
 20
6.61803
 11
462.14
 21
6.73625
  0
LINE
  8
0
 10
462.14
 20
6.73625
 11
462.19
 21
6.85156
  0
LINE
  8
0
 10
462.19
 20
6.85156
 11
462.247
 21
6.96351
  0
LINE
  8
0
 10
462.247
 20
6.96351
 11
462.311
 21
7.07165
  0
LINE
  8
0
 10
462.311
 20
7.07165
 11
462.382
 21
7.17557
  0
LINE
  8
0
 10
462.382
 20
7.17557
 11
462.459
 21
7.27485
  0
LINE
  8
0
 10
462.459
 20
7.27485
 11
462.542
 21
7.36909
  0
LINE
  8
0
 10
462.542
 20
7.36909
 11
462.631
 21
7.45794
  0
LINE
  8
0
 10
462.631
 20
7.45794
 11
462.725
 21
7.54103
  0
LINE
  8
0
 10
462.725
 20
7.54103
 11
462.824
 21
7.61803
  0
LINE
  8
0
 10
462.824
 20
7.61803
 11
462.928
 21
7.68865
  0
LINE
  8
0
 10
462.928
 20
7.68865
 11
463.036
 21
7.75261
  0
LINE
  8
0
 10
463.036
 20
7.75261
 11
463.148
 21
7.80965
  0
LINE
  8
0
 10
463.148
 20
7.80965
 11
463.264
 21
7.85955
  0
LINE
  8
0
 10
463.264
 20
7.85955
 11
463.382
 21
7.90211
  0
LINE
  8
0
 10
463.382
 20
7.90211
 11
463.503
 21
7.93717
  0
LINE
  8
0
 10
463.503
 20
7.93717
 11
463.625
 21
7.96457
  0
LINE
  8
0
 10
463.625
 20
7.96457
 11
463.749
 21
7.98423
  0
LINE
  8
0
 10
463.749
 20
7.98423
 11
463.874
 21
7.99605
  0
LINE
  8
0
 10
463.874
 20
7.99605
 11
464
 21
8
  0
LINE
  8
0
 10
464
 20
8
 11
464.126
 21
7.99605
  0
LINE
  8
0
 10
464.126
 20
7.99605
 11
464.251
 21
7.98423
  0
LINE
  8
0
 10
464.251
 20
7.98423
 11
464.375
 21
7.96457
  0
LINE
  8
0
 10
464.375
 20
7.96457
 11
464.497
 21
7.93717
  0
LINE
  8
0
 10
464.497
 20
7.93717
 11
464.618
 21
7.90211
  0
LINE
  8
0
 10
464.618
 20
7.90211
 11
464.736
 21
7.85955
  0
LINE
  8
0
 10
464.736
 20
7.85955
 11
464.852
 21
7.80965
  0
LINE
  8
0
 10
464.852
 20
7.80965
 11
464.964
 21
7.75261
  0
LINE
  8
0
 10
464.964
 20
7.75261
 11
465.072
 21
7.68865
  0
LINE
  8
0
 10
465.072
 20
7.68865
 11
465.176
 21
7.61803
  0
LINE
  8
0
 10
465.176
 20
7.61803
 11
465.275
 21
7.54103
  0
LINE
  8
0
 10
465.275
 20
7.54103
 11
465.369
 21
7.45794
  0
LINE
  8
0
 10
465.369
 20
7.45794
 11
465.458
 21
7.36909
  0
LINE
  8
0
 10
465.458
 20
7.36909
 11
465.541
 21
7.27485
  0
LINE
  8
0
 10
465.541
 20
7.27485
 11
465.618
 21
7.17557
  0
LINE
  8
0
 10
465.618
 20
7.17557
 11
465.689
 21
7.07165
  0
LINE
  8
0
 10
465.689
 20
7.07165
 11
465.753
 21
6.96351
  0
LINE
  8
0
 10
465.753
 20
6.96351
 11
465.81
 21
6.85156
  0
LINE
  8
0
 10
465.81
 20
6.85156
 11
465.86
 21
6.73625
  0
LINE
  8
0
 10
465.86
 20
6.73625
 11
465.902
 21
6.61803
  0
LINE
  8
0
 10
465.902
 20
6.61803
 11
465.937
 21
6.49738
  0
LINE
  8
0
 10
465.937
 20
6.49738
 11
465.965
 21
6.37476
  0
LINE
  8
0
 10
465.965
 20
6.37476
 11
465.984
 21
6.25067
  0
LINE
  8
0
 10
465.984
 20
6.25067
 11
465.996
 21
6.12558
  0
LINE
  8
0
 10
465.996
 20
6.12558
 11
466
 21
6
  0
LINE
  8
0
 10
466
 20
6
 11
465.996
 21
5.87442
  0
LINE
  8
0
 10
465.996
 20
5.87442
 11
465.984
 21
5.74933
  0
LINE
  8
0
 10
465.984
 20
5.74933
 11
465.965
 21
5.62524
  0
LINE
  8
0
 10
465.965
 20
5.62524
 11
465.937
 21
5.50262
  0
LINE
  8
0
 10
465.937
 20
5.50262
 11
465.902
 21
5.38197
  0
LINE
  8
0
 10
465.902
 20
5.38197
 11
465.86
 21
5.26375
  0
LINE
  8
0
 10
465.86
 20
5.26375
 11
465.81
 21
5.14844
  0
LINE
  8
0
 10
465.81
 20
5.14844
 11
465.753
 21
5.03649
  0
LINE
  8
0
 10
465.753
 20
5.03649
 11
465.689
 21
4.92835
  0
LINE
  8
0
 10
465.689
 20
4.92835
 11
465.618
 21
4.82443
  0
LINE
  8
0
 10
465.618
 20
4.82443
 11
465.541
 21
4.72515
  0
LINE
  8
0
 10
465.541
 20
4.72515
 11
465.458
 21
4.63091
  0
LINE
  8
0
 10
465.458
 20
4.63091
 11
465.369
 21
4.54206
  0
LINE
  8
0
 10
465.369
 20
4.54206
 11
465.275
 21
4.45897
  0
LINE
  8
0
 10
465.275
 20
4.45897
 11
465.176
 21
4.38197
  0
LINE
  8
0
 10
465.176
 20
4.38197
 11
465.072
 21
4.31134
  0
LINE
  8
0
 10
465.072
 20
4.31134
 11
464.964
 21
4.24739
  0
LINE
  8
0
 10
464.964
 20
4.24739
 11
464.852
 21
4.19035
  0
LINE
  8
0
 10
464.852
 20
4.19035
 11
464.736
 21
4.14045
  0
LINE
  8
0
 10
464.736
 20
4.14045
 11
464.618
 21
4.09789
  0
LINE
  8
0
 10
464.618
 20
4.09789
 11
464.497
 21
4.06283
  0
LINE
  8
0
 10
464.497
 20
4.06283
 11
464.375
 21
4.03543
  0
LINE
  8
0
 10
464.375
 20
4.03543
 11
464.251
 21
4.01577
  0
LINE
  8
0
 10
464.251
 20
4.01577
 11
464.126
 21
4.00395
  0
LINE
  8
0
 10
464.126
 20
4.00395
 11
464
 21
4
  0
LINE
  8
0
 10
464
 20
4
 11
463.874
 21
4.00395
  0
LINE
  8
0
 10
463.874
 20
4.00395
 11
463.749
 21
4.01577
  0
LINE
  8
0
 10
463.749
 20
4.01577
 11
463.625
 21
4.03543
  0
LINE
  8
0
 10
463.625
 20
4.03543
 11
463.503
 21
4.06283
  0
LINE
  8
0
 10
463.503
 20
4.06283
 11
463.382
 21
4.09789
  0
LINE
  8
0
 10
463.382
 20
4.09789
 11
463.264
 21
4.14045
  0
LINE
  8
0
 10
463.264
 20
4.14045
 11
463.148
 21
4.19035
  0
LINE
  8
0
 10
463.148
 20
4.19035
 11
463.036
 21
4.24739
  0
LINE
  8
0
 10
463.036
 20
4.24739
 11
462.928
 21
4.31134
  0
LINE
  8
0
 10
462.928
 20
4.31134
 11
462.824
 21
4.38197
  0
LINE
  8
0
 10
462.824
 20
4.38197
 11
462.725
 21
4.45897
  0
LINE
  8
0
 10
462.725
 20
4.45897
 11
462.631
 21
4.54206
  0
LINE
  8
0
 10
462.631
 20
4.54206
 11
462.542
 21
4.63091
  0
LINE
  8
0
 10
462.542
 20
4.63091
 11
462.459
 21
4.72515
  0
LINE
  8
0
 10
462.459
 20
4.72515
 11
462.382
 21
4.82443
  0
LINE
  8
0
 10
462.382
 20
4.82443
 11
462.311
 21
4.92835
  0
LINE
  8
0
 10
462.311
 20
4.92835
 11
462.247
 21
5.03649
  0
LINE
  8
0
 10
462.247
 20
5.03649
 11
462.19
 21
5.14844
  0
LINE
  8
0
 10
462.19
 20
5.14844
 11
462.14
 21
5.26375
  0
LINE
  8
0
 10
462.14
 20
5.26375
 11
462.098
 21
5.38197
  0
LINE
  8
0
 10
462.098
 20
5.38197
 11
462.063
 21
5.50262
  0
LINE
  8
0
 10
462.063
 20
5.50262
 11
462.035
 21
5.62524
  0
LINE
  8
0
 10
462.035
 20
5.62524
 11
462.016
 21
5.74933
  0
LINE
  8
0
 10
462.016
 20
5.74933
 11
462.004
 21
5.87442
  0
LINE
  8
0
 10
462.004
 20
5.87442
 11
462
 21
6
  0
ENDSEC
  0
SECTION
  2
OBJECTS
  0
DICTIONARY
  0
ENDSEC
  0
EOF
