  0
SECTION
  2
BLOCKS
  0
ENDSEC
  0
SECTION
  2
ENTITIES
  0
LINE
  8
0
 10
0
 20
0
 11
225
 21
0
  0
LINE
  8
0
 10
225
 20
0
 11
225
 21
200
  0
LINE
  8
0
 10
225
 20
200
 11
0
 21
200
  0
LINE
  8
0
 10
0
 20
200
 11
0
 21
0
  0
LINE
  8
0
 10
33.75
 20
72.5
 11
33.8451
 21
72.9784
  0
LINE
  8
0
 10
33.8451
 20
72.9784
 11
34.1161
 21
73.3839
  0
LINE
  8
0
 10
34.1161
 20
73.3839
 11
34.5216
 21
73.6548
  0
LINE
  8
0
 10
34.5216
 20
73.6548
 11
35
 21
73.75
  0
LINE
  8
0
 10
35
 20
73.75
 11
35.4784
 21
73.6548
  0
LINE
  8
0
 10
35.4784
 20
73.6548
 11
35.8839
 21
73.3839
  0
LINE
  8
0
 10
35.8839
 20
73.3839
 11
36.1548
 21
72.9784
  0
LINE
  8
0
 10
36.1548
 20
72.9784
 11
36.25
 21
72.5
  0
LINE
  8
0
 10
36.25
 20
72.5
 11
36.1548
 21
72.0216
  0
LINE
  8
0
 10
36.1548
 20
72.0216
 11
35.8839
 21
71.6161
  0
LINE
  8
0
 10
35.8839
 20
71.6161
 11
35.4784
 21
71.3451
  0
LINE
  8
0
 10
35.4784
 20
71.3451
 11
35
 21
71.25
  0
LINE
  8
0
 10
35
 20
71.25
 11
34.5216
 21
71.3451
  0
LINE
  8
0
 10
34.5216
 20
71.3451
 11
34.1161
 21
71.6161
  0
LINE
  8
0
 10
34.1161
 20
71.6161
 11
33.8451
 21
72.0216
  0
LINE
  8
0
 10
33.8451
 20
72.0216
 11
33.75
 21
72.5
  0
LINE
  8
0
 10
48
 20
6
 11
48.1522
 21
6.76537
  0
LINE
  8
0
 10
48.1522
 20
6.76537
 11
48.5858
 21
7.41421
  0
LINE
  8
0
 10
48.5858
 20
7.41421
 11
49.2346
 21
7.84776
  0
LINE
  8
0
 10
49.2346
 20
7.84776
 11
50
 21
8
  0
LINE
  8
0
 10
50
 20
8
 11
50.7654
 21
7.84776
  0
LINE
  8
0
 10
50.7654
 20
7.84776
 11
51.4142
 21
7.41421
  0
LINE
  8
0
 10
51.4142
 20
7.41421
 11
51.8478
 21
6.76537
  0
LINE
  8
0
 10
51.8478
 20
6.76537
 11
52
 21
6
  0
LINE
  8
0
 10
52
 20
6
 11
51.8478
 21
5.23463
  0
LINE
  8
0
 10
51.8478
 20
5.23463
 11
51.4142
 21
4.58579
  0
LINE
  8
0
 10
51.4142
 20
4.58579
 11
50.7654
 21
4.15224
  0
LINE
  8
0
 10
50.7654
 20
4.15224
 11
50
 21
4
  0
LINE
  8
0
 10
50
 20
4
 11
49.2346
 21
4.15224
  0
LINE
  8
0
 10
49.2346
 20
4.15224
 11
48.5858
 21
4.58579
  0
LINE
  8
0
 10
48.5858
 20
4.58579
 11
48.1522
 21
5.23463
  0
LINE
  8
0
 10
48.1522
 20
5.23463
 11
48
 21
6
  0
LINE
  8
0
 10
161.75
 20
72.5
 11
161.845
 21
72.9784
  0
LINE
  8
0
 10
161.845
 20
72.9784
 11
162.116
 21
73.3839
  0
LINE
  8
0
 10
162.116
 20
73.3839
 11
162.522
 21
73.6548
  0
LINE
  8
0
 10
162.522
 20
73.6548
 11
163
 21
73.75
  0
LINE
  8
0
 10
163
 20
73.75
 11
163.478
 21
73.6548
  0
LINE
  8
0
 10
163.478
 20
73.6548
 11
163.884
 21
73.3839
  0
LINE
  8
0
 10
163.884
 20
73.3839
 11
164.155
 21
72.9784
  0
LINE
  8
0
 10
164.155
 20
72.9784
 11
164.25
 21
72.5
  0
LINE
  8
0
 10
164.25
 20
72.5
 11
164.155
 21
72.0216
  0
LINE
  8
0
 10
164.155
 20
72.0216
 11
163.884
 21
71.6161
  0
LINE
  8
0
 10
163.884
 20
71.6161
 11
163.478
 21
71.3451
  0
LINE
  8
0
 10
163.478
 20
71.3451
 11
163
 21
71.25
  0
LINE
  8
0
 10
163
 20
71.25
 11
162.522
 21
71.3451
  0
LINE
  8
0
 10
162.522
 20
71.3451
 11
162.116
 21
71.6161
  0
LINE
  8
0
 10
162.116
 20
71.6161
 11
161.845
 21
72.0216
  0
LINE
  8
0
 10
161.845
 20
72.0216
 11
161.75
 21
72.5
  0
LINE
  8
0
 10
173
 20
6
 11
173.152
 21
6.76537
  0
LINE
  8
0
 10
173.152
 20
6.76537
 11
173.586
 21
7.41421
  0
LINE
  8
0
 10
173.586
 20
7.41421
 11
174.235
 21
7.84776
  0
LINE
  8
0
 10
174.235
 20
7.84776
 11
175
 21
8
  0
LINE
  8
0
 10
175
 20
8
 11
175.765
 21
7.84776
  0
LINE
  8
0
 10
175.765
 20
7.84776
 11
176.414
 21
7.41421
  0
LINE
  8
0
 10
176.414
 20
7.41421
 11
176.848
 21
6.76537
  0
LINE
  8
0
 10
176.848
 20
6.76537
 11
177
 21
6
  0
LINE
  8
0
 10
177
 20
6
 11
176.848
 21
5.23463
  0
LINE
  8
0
 10
176.848
 20
5.23463
 11
176.414
 21
4.58579
  0
LINE
  8
0
 10
176.414
 20
4.58579
 11
175.765
 21
4.15224
  0
LINE
  8
0
 10
175.765
 20
4.15224
 11
175
 21
4
  0
LINE
  8
0
 10
175
 20
4
 11
174.235
 21
4.15224
  0
LINE
  8
0
 10
174.235
 20
4.15224
 11
173.586
 21
4.58579
  0
LINE
  8
0
 10
173.586
 20
4.58579
 11
173.152
 21
5.23463
  0
LINE
  8
0
 10
173.152
 20
5.23463
 11
173
 21
6
  0
LINE
  8
0
 10
217
 20
50
 11
217.152
 21
50.7654
  0
LINE
  8
0
 10
217.152
 20
50.7654
 11
217.586
 21
51.4142
  0
LINE
  8
0
 10
217.586
 20
51.4142
 11
218.235
 21
51.8478
  0
LINE
  8
0
 10
218.235
 20
51.8478
 11
219
 21
52
  0
LINE
  8
0
 10
219
 20
52
 11
219.765
 21
51.8478
  0
LINE
  8
0
 10
219.765
 20
51.8478
 11
220.414
 21
51.4142
  0
LINE
  8
0
 10
220.414
 20
51.4142
 11
220.848
 21
50.7654
  0
LINE
  8
0
 10
220.848
 20
50.7654
 11
221
 21
50
  0
LINE
  8
0
 10
221
 20
50
 11
220.848
 21
49.2346
  0
LINE
  8
0
 10
220.848
 20
49.2346
 11
220.414
 21
48.5858
  0
LINE
  8
0
 10
220.414
 20
48.5858
 11
219.765
 21
48.1522
  0
LINE
  8
0
 10
219.765
 20
48.1522
 11
219
 21
48
  0
LINE
  8
0
 10
219
 20
48
 11
218.235
 21
48.1522
  0
LINE
  8
0
 10
218.235
 20
48.1522
 11
217.586
 21
48.5858
  0
LINE
  8
0
 10
217.586
 20
48.5858
 11
217.152
 21
49.2346
  0
LINE
  8
0
 10
217.152
 20
49.2346
 11
217
 21
50
  0
LINE
  8
0
 10
217
 20
150
 11
217.152
 21
150.765
  0
LINE
  8
0
 10
217.152
 20
150.765
 11
217.586
 21
151.414
  0
LINE
  8
0
 10
217.586
 20
151.414
 11
218.235
 21
151.848
  0
LINE
  8
0
 10
218.235
 20
151.848
 11
219
 21
152
  0
LINE
  8
0
 10
219
 20
152
 11
219.765
 21
151.848
  0
LINE
  8
0
 10
219.765
 20
151.848
 11
220.414
 21
151.414
  0
LINE
  8
0
 10
220.414
 20
151.414
 11
220.848
 21
150.765
  0
LINE
  8
0
 10
220.848
 20
150.765
 11
221
 21
150
  0
LINE
  8
0
 10
221
 20
150
 11
220.848
 21
149.235
  0
LINE
  8
0
 10
220.848
 20
149.235
 11
220.414
 21
148.586
  0
LINE
  8
0
 10
220.414
 20
148.586
 11
219.765
 21
148.152
  0
LINE
  8
0
 10
219.765
 20
148.152
 11
219
 21
148
  0
LINE
  8
0
 10
219
 20
148
 11
218.235
 21
148.152
  0
LINE
  8
0
 10
218.235
 20
148.152
 11
217.586
 21
148.586
  0
LINE
  8
0
 10
217.586
 20
148.586
 11
217.152
 21
149.235
  0
LINE
  8
0
 10
217.152
 20
149.235
 11
217
 21
150
  0
ENDSEC
  0
SECTION
  2
OBJECTS
  0
DICTIONARY
  0
ENDSEC
  0
EOF
