  0
SECTION
  2
BLOCKS
  0
ENDSEC
  0
SECTION
  2
ENTITIES
  0
LINE
  8
0
 10
0
 20
0
 11
597
 21
0
  0
LINE
  8
0
 10
597
 20
0
 11
597
 21
232
  0
LINE
  8
0
 10
597
 20
232
 11
0
 21
232
  0
LINE
  8
0
 10
0
 20
232
 11
0
 21
0
  0
LINE
  8
0
 10
38.5
 20
50
 11
38.5059
 21
50.1884
  0
LINE
  8
0
 10
38.5059
 20
50.1884
 11
38.5237
 21
50.376
  0
LINE
  8
0
 10
38.5237
 20
50.376
 11
38.5531
 21
50.5621
  0
LINE
  8
0
 10
38.5531
 20
50.5621
 11
38.5942
 21
50.7461
  0
LINE
  8
0
 10
38.5942
 20
50.7461
 11
38.6468
 21
50.9271
  0
LINE
  8
0
 10
38.6468
 20
50.9271
 11
38.7107
 21
51.1044
  0
LINE
  8
0
 10
38.7107
 20
51.1044
 11
38.7855
 21
51.2773
  0
LINE
  8
0
 10
38.7855
 20
51.2773
 11
38.8711
 21
51.4453
  0
LINE
  8
0
 10
38.8711
 20
51.4453
 11
38.967
 21
51.6075
  0
LINE
  8
0
 10
38.967
 20
51.6075
 11
39.0729
 21
51.7634
  0
LINE
  8
0
 10
39.0729
 20
51.7634
 11
39.1885
 21
51.9123
  0
LINE
  8
0
 10
39.1885
 20
51.9123
 11
39.3131
 21
52.0536
  0
LINE
  8
0
 10
39.3131
 20
52.0536
 11
39.4464
 21
52.1869
  0
LINE
  8
0
 10
39.4464
 20
52.1869
 11
39.5877
 21
52.3115
  0
LINE
  8
0
 10
39.5877
 20
52.3115
 11
39.7366
 21
52.4271
  0
LINE
  8
0
 10
39.7366
 20
52.4271
 11
39.8925
 21
52.533
  0
LINE
  8
0
 10
39.8925
 20
52.533
 11
40.0547
 21
52.6289
  0
LINE
  8
0
 10
40.0547
 20
52.6289
 11
40.2227
 21
52.7145
  0
LINE
  8
0
 10
40.2227
 20
52.7145
 11
40.3956
 21
52.7893
  0
LINE
  8
0
 10
40.3956
 20
52.7893
 11
40.5729
 21
52.8532
  0
LINE
  8
0
 10
40.5729
 20
52.8532
 11
40.7539
 21
52.9057
  0
LINE
  8
0
 10
40.7539
 20
52.9057
 11
40.9379
 21
52.9469
  0
LINE
  8
0
 10
40.9379
 20
52.9469
 11
41.124
 21
52.9763
  0
LINE
  8
0
 10
41.124
 20
52.9763
 11
41.3116
 21
52.9941
  0
LINE
  8
0
 10
41.3116
 20
52.9941
 11
41.5
 21
53
  0
LINE
  8
0
 10
41.5
 20
53
 11
41.6884
 21
52.9941
  0
LINE
  8
0
 10
41.6884
 20
52.9941
 11
41.876
 21
52.9763
  0
LINE
  8
0
 10
41.876
 20
52.9763
 11
42.0621
 21
52.9469
  0
LINE
  8
0
 10
42.0621
 20
52.9469
 11
42.2461
 21
52.9057
  0
LINE
  8
0
 10
42.2461
 20
52.9057
 11
42.4271
 21
52.8532
  0
LINE
  8
0
 10
42.4271
 20
52.8532
 11
42.6044
 21
52.7893
  0
LINE
  8
0
 10
42.6044
 20
52.7893
 11
42.7773
 21
52.7145
  0
LINE
  8
0
 10
42.7773
 20
52.7145
 11
42.9453
 21
52.6289
  0
LINE
  8
0
 10
42.9453
 20
52.6289
 11
43.1075
 21
52.533
  0
LINE
  8
0
 10
43.1075
 20
52.533
 11
43.2634
 21
52.4271
  0
LINE
  8
0
 10
43.2634
 20
52.4271
 11
43.4123
 21
52.3115
  0
LINE
  8
0
 10
43.4123
 20
52.3115
 11
43.5536
 21
52.1869
  0
LINE
  8
0
 10
43.5536
 20
52.1869
 11
43.6869
 21
52.0536
  0
LINE
  8
0
 10
43.6869
 20
52.0536
 11
43.8115
 21
51.9123
  0
LINE
  8
0
 10
43.8115
 20
51.9123
 11
43.9271
 21
51.7634
  0
LINE
  8
0
 10
43.9271
 20
51.7634
 11
44.033
 21
51.6075
  0
LINE
  8
0
 10
44.033
 20
51.6075
 11
44.1289
 21
51.4453
  0
LINE
  8
0
 10
44.1289
 20
51.4453
 11
44.2145
 21
51.2773
  0
LINE
  8
0
 10
44.2145
 20
51.2773
 11
44.2893
 21
51.1044
  0
LINE
  8
0
 10
44.2893
 20
51.1044
 11
44.3532
 21
50.9271
  0
LINE
  8
0
 10
44.3532
 20
50.9271
 11
44.4057
 21
50.7461
  0
LINE
  8
0
 10
44.4057
 20
50.7461
 11
44.4469
 21
50.5621
  0
LINE
  8
0
 10
44.4469
 20
50.5621
 11
44.4763
 21
50.376
  0
LINE
  8
0
 10
44.4763
 20
50.376
 11
44.4941
 21
50.1884
  0
LINE
  8
0
 10
44.4941
 20
50.1884
 11
44.5
 21
50
  0
LINE
  8
0
 10
44.5
 20
50
 11
44.4941
 21
49.8116
  0
LINE
  8
0
 10
44.4941
 20
49.8116
 11
44.4763
 21
49.624
  0
LINE
  8
0
 10
44.4763
 20
49.624
 11
44.4469
 21
49.4379
  0
LINE
  8
0
 10
44.4469
 20
49.4379
 11
44.4057
 21
49.2539
  0
LINE
  8
0
 10
44.4057
 20
49.2539
 11
44.3532
 21
49.0729
  0
LINE
  8
0
 10
44.3532
 20
49.0729
 11
44.2893
 21
48.8956
  0
LINE
  8
0
 10
44.2893
 20
48.8956
 11
44.2145
 21
48.7227
  0
LINE
  8
0
 10
44.2145
 20
48.7227
 11
44.1289
 21
48.5547
  0
LINE
  8
0
 10
44.1289
 20
48.5547
 11
44.033
 21
48.3925
  0
LINE
  8
0
 10
44.033
 20
48.3925
 11
43.9271
 21
48.2366
  0
LINE
  8
0
 10
43.9271
 20
48.2366
 11
43.8115
 21
48.0877
  0
LINE
  8
0
 10
43.8115
 20
48.0877
 11
43.6869
 21
47.9464
  0
LINE
  8
0
 10
43.6869
 20
47.9464
 11
43.5536
 21
47.8131
  0
LINE
  8
0
 10
43.5536
 20
47.8131
 11
43.4123
 21
47.6885
  0
LINE
  8
0
 10
43.4123
 20
47.6885
 11
43.2634
 21
47.5729
  0
LINE
  8
0
 10
43.2634
 20
47.5729
 11
43.1075
 21
47.467
  0
LINE
  8
0
 10
43.1075
 20
47.467
 11
42.9453
 21
47.3711
  0
LINE
  8
0
 10
42.9453
 20
47.3711
 11
42.7773
 21
47.2855
  0
LINE
  8
0
 10
42.7773
 20
47.2855
 11
42.6044
 21
47.2107
  0
LINE
  8
0
 10
42.6044
 20
47.2107
 11
42.4271
 21
47.1468
  0
LINE
  8
0
 10
42.4271
 20
47.1468
 11
42.2461
 21
47.0942
  0
LINE
  8
0
 10
42.2461
 20
47.0942
 11
42.0621
 21
47.0531
  0
LINE
  8
0
 10
42.0621
 20
47.0531
 11
41.876
 21
47.0237
  0
LINE
  8
0
 10
41.876
 20
47.0237
 11
41.6884
 21
47.0059
  0
LINE
  8
0
 10
41.6884
 20
47.0059
 11
41.5
 21
47
  0
LINE
  8
0
 10
41.5
 20
47
 11
41.3116
 21
47.0059
  0
LINE
  8
0
 10
41.3116
 20
47.0059
 11
41.124
 21
47.0237
  0
LINE
  8
0
 10
41.124
 20
47.0237
 11
40.9379
 21
47.0531
  0
LINE
  8
0
 10
40.9379
 20
47.0531
 11
40.7539
 21
47.0942
  0
LINE
  8
0
 10
40.7539
 20
47.0942
 11
40.5729
 21
47.1468
  0
LINE
  8
0
 10
40.5729
 20
47.1468
 11
40.3956
 21
47.2107
  0
LINE
  8
0
 10
40.3956
 20
47.2107
 11
40.2227
 21
47.2855
  0
LINE
  8
0
 10
40.2227
 20
47.2855
 11
40.0547
 21
47.3711
  0
LINE
  8
0
 10
40.0547
 20
47.3711
 11
39.8925
 21
47.467
  0
LINE
  8
0
 10
39.8925
 20
47.467
 11
39.7366
 21
47.5729
  0
LINE
  8
0
 10
39.7366
 20
47.5729
 11
39.5877
 21
47.6885
  0
LINE
  8
0
 10
39.5877
 20
47.6885
 11
39.4464
 21
47.8131
  0
LINE
  8
0
 10
39.4464
 20
47.8131
 11
39.3131
 21
47.9464
  0
LINE
  8
0
 10
39.3131
 20
47.9464
 11
39.1885
 21
48.0877
  0
LINE
  8
0
 10
39.1885
 20
48.0877
 11
39.0729
 21
48.2366
  0
LINE
  8
0
 10
39.0729
 20
48.2366
 11
38.967
 21
48.3925
  0
LINE
  8
0
 10
38.967
 20
48.3925
 11
38.8711
 21
48.5547
  0
LINE
  8
0
 10
38.8711
 20
48.5547
 11
38.7855
 21
48.7227
  0
LINE
  8
0
 10
38.7855
 20
48.7227
 11
38.7107
 21
48.8956
  0
LINE
  8
0
 10
38.7107
 20
48.8956
 11
38.6468
 21
49.0729
  0
LINE
  8
0
 10
38.6468
 20
49.0729
 11
38.5942
 21
49.2539
  0
LINE
  8
0
 10
38.5942
 20
49.2539
 11
38.5531
 21
49.4379
  0
LINE
  8
0
 10
38.5531
 20
49.4379
 11
38.5237
 21
49.624
  0
LINE
  8
0
 10
38.5237
 20
49.624
 11
38.5059
 21
49.8116
  0
LINE
  8
0
 10
38.5059
 20
49.8116
 11
38.5
 21
50
  0
LINE
  8
0
 10
38.5
 20
182
 11
38.5059
 21
182.188
  0
LINE
  8
0
 10
38.5059
 20
182.188
 11
38.5237
 21
182.376
  0
LINE
  8
0
 10
38.5237
 20
182.376
 11
38.5531
 21
182.562
  0
LINE
  8
0
 10
38.5531
 20
182.562
 11
38.5942
 21
182.746
  0
LINE
  8
0
 10
38.5942
 20
182.746
 11
38.6468
 21
182.927
  0
LINE
  8
0
 10
38.6468
 20
182.927
 11
38.7107
 21
183.104
  0
LINE
  8
0
 10
38.7107
 20
183.104
 11
38.7855
 21
183.277
  0
LINE
  8
0
 10
38.7855
 20
183.277
 11
38.8711
 21
183.445
  0
LINE
  8
0
 10
38.8711
 20
183.445
 11
38.967
 21
183.607
  0
LINE
  8
0
 10
38.967
 20
183.607
 11
39.0729
 21
183.763
  0
LINE
  8
0
 10
39.0729
 20
183.763
 11
39.1885
 21
183.912
  0
LINE
  8
0
 10
39.1885
 20
183.912
 11
39.3131
 21
184.054
  0
LINE
  8
0
 10
39.3131
 20
184.054
 11
39.4464
 21
184.187
  0
LINE
  8
0
 10
39.4464
 20
184.187
 11
39.5877
 21
184.312
  0
LINE
  8
0
 10
39.5877
 20
184.312
 11
39.7366
 21
184.427
  0
LINE
  8
0
 10
39.7366
 20
184.427
 11
39.8925
 21
184.533
  0
LINE
  8
0
 10
39.8925
 20
184.533
 11
40.0547
 21
184.629
  0
LINE
  8
0
 10
40.0547
 20
184.629
 11
40.2227
 21
184.714
  0
LINE
  8
0
 10
40.2227
 20
184.714
 11
40.3956
 21
184.789
  0
LINE
  8
0
 10
40.3956
 20
184.789
 11
40.5729
 21
184.853
  0
LINE
  8
0
 10
40.5729
 20
184.853
 11
40.7539
 21
184.906
  0
LINE
  8
0
 10
40.7539
 20
184.906
 11
40.9379
 21
184.947
  0
LINE
  8
0
 10
40.9379
 20
184.947
 11
41.124
 21
184.976
  0
LINE
  8
0
 10
41.124
 20
184.976
 11
41.3116
 21
184.994
  0
LINE
  8
0
 10
41.3116
 20
184.994
 11
41.5
 21
185
  0
LINE
  8
0
 10
41.5
 20
185
 11
41.6884
 21
184.994
  0
LINE
  8
0
 10
41.6884
 20
184.994
 11
41.876
 21
184.976
  0
LINE
  8
0
 10
41.876
 20
184.976
 11
42.0621
 21
184.947
  0
LINE
  8
0
 10
42.0621
 20
184.947
 11
42.2461
 21
184.906
  0
LINE
  8
0
 10
42.2461
 20
184.906
 11
42.4271
 21
184.853
  0
LINE
  8
0
 10
42.4271
 20
184.853
 11
42.6044
 21
184.789
  0
LINE
  8
0
 10
42.6044
 20
184.789
 11
42.7773
 21
184.714
  0
LINE
  8
0
 10
42.7773
 20
184.714
 11
42.9453
 21
184.629
  0
LINE
  8
0
 10
42.9453
 20
184.629
 11
43.1075
 21
184.533
  0
LINE
  8
0
 10
43.1075
 20
184.533
 11
43.2634
 21
184.427
  0
LINE
  8
0
 10
43.2634
 20
184.427
 11
43.4123
 21
184.312
  0
LINE
  8
0
 10
43.4123
 20
184.312
 11
43.5536
 21
184.187
  0
LINE
  8
0
 10
43.5536
 20
184.187
 11
43.6869
 21
184.054
  0
LINE
  8
0
 10
43.6869
 20
184.054
 11
43.8115
 21
183.912
  0
LINE
  8
0
 10
43.8115
 20
183.912
 11
43.9271
 21
183.763
  0
LINE
  8
0
 10
43.9271
 20
183.763
 11
44.033
 21
183.607
  0
LINE
  8
0
 10
44.033
 20
183.607
 11
44.1289
 21
183.445
  0
LINE
  8
0
 10
44.1289
 20
183.445
 11
44.2145
 21
183.277
  0
LINE
  8
0
 10
44.2145
 20
183.277
 11
44.2893
 21
183.104
  0
LINE
  8
0
 10
44.2893
 20
183.104
 11
44.3532
 21
182.927
  0
LINE
  8
0
 10
44.3532
 20
182.927
 11
44.4057
 21
182.746
  0
LINE
  8
0
 10
44.4057
 20
182.746
 11
44.4469
 21
182.562
  0
LINE
  8
0
 10
44.4469
 20
182.562
 11
44.4763
 21
182.376
  0
LINE
  8
0
 10
44.4763
 20
182.376
 11
44.4941
 21
182.188
  0
LINE
  8
0
 10
44.4941
 20
182.188
 11
44.5
 21
182
  0
LINE
  8
0
 10
44.5
 20
182
 11
44.4941
 21
181.812
  0
LINE
  8
0
 10
44.4941
 20
181.812
 11
44.4763
 21
181.624
  0
LINE
  8
0
 10
44.4763
 20
181.624
 11
44.4469
 21
181.438
  0
LINE
  8
0
 10
44.4469
 20
181.438
 11
44.4057
 21
181.254
  0
LINE
  8
0
 10
44.4057
 20
181.254
 11
44.3532
 21
181.073
  0
LINE
  8
0
 10
44.3532
 20
181.073
 11
44.2893
 21
180.896
  0
LINE
  8
0
 10
44.2893
 20
180.896
 11
44.2145
 21
180.723
  0
LINE
  8
0
 10
44.2145
 20
180.723
 11
44.1289
 21
180.555
  0
LINE
  8
0
 10
44.1289
 20
180.555
 11
44.033
 21
180.393
  0
LINE
  8
0
 10
44.033
 20
180.393
 11
43.9271
 21
180.237
  0
LINE
  8
0
 10
43.9271
 20
180.237
 11
43.8115
 21
180.088
  0
LINE
  8
0
 10
43.8115
 20
180.088
 11
43.6869
 21
179.946
  0
LINE
  8
0
 10
43.6869
 20
179.946
 11
43.5536
 21
179.813
  0
LINE
  8
0
 10
43.5536
 20
179.813
 11
43.4123
 21
179.688
  0
LINE
  8
0
 10
43.4123
 20
179.688
 11
43.2634
 21
179.573
  0
LINE
  8
0
 10
43.2634
 20
179.573
 11
43.1075
 21
179.467
  0
LINE
  8
0
 10
43.1075
 20
179.467
 11
42.9453
 21
179.371
  0
LINE
  8
0
 10
42.9453
 20
179.371
 11
42.7773
 21
179.286
  0
LINE
  8
0
 10
42.7773
 20
179.286
 11
42.6044
 21
179.211
  0
LINE
  8
0
 10
42.6044
 20
179.211
 11
42.4271
 21
179.147
  0
LINE
  8
0
 10
42.4271
 20
179.147
 11
42.2461
 21
179.094
  0
LINE
  8
0
 10
42.2461
 20
179.094
 11
42.0621
 21
179.053
  0
LINE
  8
0
 10
42.0621
 20
179.053
 11
41.876
 21
179.024
  0
LINE
  8
0
 10
41.876
 20
179.024
 11
41.6884
 21
179.006
  0
LINE
  8
0
 10
41.6884
 20
179.006
 11
41.5
 21
179
  0
LINE
  8
0
 10
41.5
 20
179
 11
41.3116
 21
179.006
  0
LINE
  8
0
 10
41.3116
 20
179.006
 11
41.124
 21
179.024
  0
LINE
  8
0
 10
41.124
 20
179.024
 11
40.9379
 21
179.053
  0
LINE
  8
0
 10
40.9379
 20
179.053
 11
40.7539
 21
179.094
  0
LINE
  8
0
 10
40.7539
 20
179.094
 11
40.5729
 21
179.147
  0
LINE
  8
0
 10
40.5729
 20
179.147
 11
40.3956
 21
179.211
  0
LINE
  8
0
 10
40.3956
 20
179.211
 11
40.2227
 21
179.286
  0
LINE
  8
0
 10
40.2227
 20
179.286
 11
40.0547
 21
179.371
  0
LINE
  8
0
 10
40.0547
 20
179.371
 11
39.8925
 21
179.467
  0
LINE
  8
0
 10
39.8925
 20
179.467
 11
39.7366
 21
179.573
  0
LINE
  8
0
 10
39.7366
 20
179.573
 11
39.5877
 21
179.688
  0
LINE
  8
0
 10
39.5877
 20
179.688
 11
39.4464
 21
179.813
  0
LINE
  8
0
 10
39.4464
 20
179.813
 11
39.3131
 21
179.946
  0
LINE
  8
0
 10
39.3131
 20
179.946
 11
39.1885
 21
180.088
  0
LINE
  8
0
 10
39.1885
 20
180.088
 11
39.0729
 21
180.237
  0
LINE
  8
0
 10
39.0729
 20
180.237
 11
38.967
 21
180.393
  0
LINE
  8
0
 10
38.967
 20
180.393
 11
38.8711
 21
180.555
  0
LINE
  8
0
 10
38.8711
 20
180.555
 11
38.7855
 21
180.723
  0
LINE
  8
0
 10
38.7855
 20
180.723
 11
38.7107
 21
180.896
  0
LINE
  8
0
 10
38.7107
 20
180.896
 11
38.6468
 21
181.073
  0
LINE
  8
0
 10
38.6468
 20
181.073
 11
38.5942
 21
181.254
  0
LINE
  8
0
 10
38.5942
 20
181.254
 11
38.5531
 21
181.438
  0
LINE
  8
0
 10
38.5531
 20
181.438
 11
38.5237
 21
181.624
  0
LINE
  8
0
 10
38.5237
 20
181.624
 11
38.5059
 21
181.812
  0
LINE
  8
0
 10
38.5059
 20
181.812
 11
38.5
 21
182
  0
LINE
  8
0
 10
88.5
 20
6
 11
88.5059
 21
6.18837
  0
LINE
  8
0
 10
88.5059
 20
6.18837
 11
88.5237
 21
6.376
  0
LINE
  8
0
 10
88.5237
 20
6.376
 11
88.5531
 21
6.56214
  0
LINE
  8
0
 10
88.5531
 20
6.56214
 11
88.5942
 21
6.74607
  0
LINE
  8
0
 10
88.5942
 20
6.74607
 11
88.6468
 21
6.92705
  0
LINE
  8
0
 10
88.6468
 20
6.92705
 11
88.7107
 21
7.10437
  0
LINE
  8
0
 10
88.7107
 20
7.10437
 11
88.7855
 21
7.27734
  0
LINE
  8
0
 10
88.7855
 20
7.27734
 11
88.8711
 21
7.44526
  0
LINE
  8
0
 10
88.8711
 20
7.44526
 11
88.967
 21
7.60748
  0
LINE
  8
0
 10
88.967
 20
7.60748
 11
89.0729
 21
7.76336
  0
LINE
  8
0
 10
89.0729
 20
7.76336
 11
89.1885
 21
7.91227
  0
LINE
  8
0
 10
89.1885
 20
7.91227
 11
89.3131
 21
8.05364
  0
LINE
  8
0
 10
89.3131
 20
8.05364
 11
89.4464
 21
8.18691
  0
LINE
  8
0
 10
89.4464
 20
8.18691
 11
89.5877
 21
8.31154
  0
LINE
  8
0
 10
89.5877
 20
8.31154
 11
89.7366
 21
8.42705
  0
LINE
  8
0
 10
89.7366
 20
8.42705
 11
89.8925
 21
8.53298
  0
LINE
  8
0
 10
89.8925
 20
8.53298
 11
90.0547
 21
8.62892
  0
LINE
  8
0
 10
90.0547
 20
8.62892
 11
90.2227
 21
8.71448
  0
LINE
  8
0
 10
90.2227
 20
8.71448
 11
90.3956
 21
8.78933
  0
LINE
  8
0
 10
90.3956
 20
8.78933
 11
90.5729
 21
8.85317
  0
LINE
  8
0
 10
90.5729
 20
8.85317
 11
90.7539
 21
8.90575
  0
LINE
  8
0
 10
90.7539
 20
8.90575
 11
90.9379
 21
8.94686
  0
LINE
  8
0
 10
90.9379
 20
8.94686
 11
91.124
 21
8.97634
  0
LINE
  8
0
 10
91.124
 20
8.97634
 11
91.3116
 21
8.99408
  0
LINE
  8
0
 10
91.3116
 20
8.99408
 11
91.5
 21
9
  0
LINE
  8
0
 10
91.5
 20
9
 11
91.6884
 21
8.99408
  0
LINE
  8
0
 10
91.6884
 20
8.99408
 11
91.876
 21
8.97634
  0
LINE
  8
0
 10
91.876
 20
8.97634
 11
92.0621
 21
8.94686
  0
LINE
  8
0
 10
92.0621
 20
8.94686
 11
92.2461
 21
8.90575
  0
LINE
  8
0
 10
92.2461
 20
8.90575
 11
92.4271
 21
8.85317
  0
LINE
  8
0
 10
92.4271
 20
8.85317
 11
92.6044
 21
8.78933
  0
LINE
  8
0
 10
92.6044
 20
8.78933
 11
92.7773
 21
8.71448
  0
LINE
  8
0
 10
92.7773
 20
8.71448
 11
92.9453
 21
8.62892
  0
LINE
  8
0
 10
92.9453
 20
8.62892
 11
93.1075
 21
8.53298
  0
LINE
  8
0
 10
93.1075
 20
8.53298
 11
93.2634
 21
8.42705
  0
LINE
  8
0
 10
93.2634
 20
8.42705
 11
93.4123
 21
8.31154
  0
LINE
  8
0
 10
93.4123
 20
8.31154
 11
93.5536
 21
8.18691
  0
LINE
  8
0
 10
93.5536
 20
8.18691
 11
93.6869
 21
8.05364
  0
LINE
  8
0
 10
93.6869
 20
8.05364
 11
93.8115
 21
7.91227
  0
LINE
  8
0
 10
93.8115
 20
7.91227
 11
93.9271
 21
7.76336
  0
LINE
  8
0
 10
93.9271
 20
7.76336
 11
94.033
 21
7.60748
  0
LINE
  8
0
 10
94.033
 20
7.60748
 11
94.1289
 21
7.44526
  0
LINE
  8
0
 10
94.1289
 20
7.44526
 11
94.2145
 21
7.27734
  0
LINE
  8
0
 10
94.2145
 20
7.27734
 11
94.2893
 21
7.10437
  0
LINE
  8
0
 10
94.2893
 20
7.10437
 11
94.3532
 21
6.92705
  0
LINE
  8
0
 10
94.3532
 20
6.92705
 11
94.4057
 21
6.74607
  0
LINE
  8
0
 10
94.4057
 20
6.74607
 11
94.4469
 21
6.56214
  0
LINE
  8
0
 10
94.4469
 20
6.56214
 11
94.4763
 21
6.376
  0
LINE
  8
0
 10
94.4763
 20
6.376
 11
94.4941
 21
6.18837
  0
LINE
  8
0
 10
94.4941
 20
6.18837
 11
94.5
 21
6
  0
LINE
  8
0
 10
94.5
 20
6
 11
94.4941
 21
5.81163
  0
LINE
  8
0
 10
94.4941
 20
5.81163
 11
94.4763
 21
5.624
  0
LINE
  8
0
 10
94.4763
 20
5.624
 11
94.4469
 21
5.43786
  0
LINE
  8
0
 10
94.4469
 20
5.43786
 11
94.4057
 21
5.25393
  0
LINE
  8
0
 10
94.4057
 20
5.25393
 11
94.3532
 21
5.07295
  0
LINE
  8
0
 10
94.3532
 20
5.07295
 11
94.2893
 21
4.89563
  0
LINE
  8
0
 10
94.2893
 20
4.89563
 11
94.2145
 21
4.72266
  0
LINE
  8
0
 10
94.2145
 20
4.72266
 11
94.1289
 21
4.55474
  0
LINE
  8
0
 10
94.1289
 20
4.55474
 11
94.033
 21
4.39252
  0
LINE
  8
0
 10
94.033
 20
4.39252
 11
93.9271
 21
4.23664
  0
LINE
  8
0
 10
93.9271
 20
4.23664
 11
93.8115
 21
4.08773
  0
LINE
  8
0
 10
93.8115
 20
4.08773
 11
93.6869
 21
3.94636
  0
LINE
  8
0
 10
93.6869
 20
3.94636
 11
93.5536
 21
3.81309
  0
LINE
  8
0
 10
93.5536
 20
3.81309
 11
93.4123
 21
3.68846
  0
LINE
  8
0
 10
93.4123
 20
3.68846
 11
93.2634
 21
3.57295
  0
LINE
  8
0
 10
93.2634
 20
3.57295
 11
93.1075
 21
3.46702
  0
LINE
  8
0
 10
93.1075
 20
3.46702
 11
92.9453
 21
3.37108
  0
LINE
  8
0
 10
92.9453
 20
3.37108
 11
92.7773
 21
3.28552
  0
LINE
  8
0
 10
92.7773
 20
3.28552
 11
92.6044
 21
3.21067
  0
LINE
  8
0
 10
92.6044
 20
3.21067
 11
92.4271
 21
3.14683
  0
LINE
  8
0
 10
92.4271
 20
3.14683
 11
92.2461
 21
3.09425
  0
LINE
  8
0
 10
92.2461
 20
3.09425
 11
92.0621
 21
3.05314
  0
LINE
  8
0
 10
92.0621
 20
3.05314
 11
91.876
 21
3.02366
  0
LINE
  8
0
 10
91.876
 20
3.02366
 11
91.6884
 21
3.00592
  0
LINE
  8
0
 10
91.6884
 20
3.00592
 11
91.5
 21
3
  0
LINE
  8
0
 10
91.5
 20
3
 11
91.3116
 21
3.00592
  0
LINE
  8
0
 10
91.3116
 20
3.00592
 11
91.124
 21
3.02366
  0
LINE
  8
0
 10
91.124
 20
3.02366
 11
90.9379
 21
3.05314
  0
LINE
  8
0
 10
90.9379
 20
3.05314
 11
90.7539
 21
3.09425
  0
LINE
  8
0
 10
90.7539
 20
3.09425
 11
90.5729
 21
3.14683
  0
LINE
  8
0
 10
90.5729
 20
3.14683
 11
90.3956
 21
3.21067
  0
LINE
  8
0
 10
90.3956
 20
3.21067
 11
90.2227
 21
3.28552
  0
LINE
  8
0
 10
90.2227
 20
3.28552
 11
90.0547
 21
3.37108
  0
LINE
  8
0
 10
90.0547
 20
3.37108
 11
89.8925
 21
3.46702
  0
LINE
  8
0
 10
89.8925
 20
3.46702
 11
89.7366
 21
3.57295
  0
LINE
  8
0
 10
89.7366
 20
3.57295
 11
89.5877
 21
3.68846
  0
LINE
  8
0
 10
89.5877
 20
3.68846
 11
89.4464
 21
3.81309
  0
LINE
  8
0
 10
89.4464
 20
3.81309
 11
89.3131
 21
3.94636
  0
LINE
  8
0
 10
89.3131
 20
3.94636
 11
89.1885
 21
4.08773
  0
LINE
  8
0
 10
89.1885
 20
4.08773
 11
89.0729
 21
4.23664
  0
LINE
  8
0
 10
89.0729
 20
4.23664
 11
88.967
 21
4.39252
  0
LINE
  8
0
 10
88.967
 20
4.39252
 11
88.8711
 21
4.55474
  0
LINE
  8
0
 10
88.8711
 20
4.55474
 11
88.7855
 21
4.72266
  0
LINE
  8
0
 10
88.7855
 20
4.72266
 11
88.7107
 21
4.89563
  0
LINE
  8
0
 10
88.7107
 20
4.89563
 11
88.6468
 21
5.07295
  0
LINE
  8
0
 10
88.6468
 20
5.07295
 11
88.5942
 21
5.25393
  0
LINE
  8
0
 10
88.5942
 20
5.25393
 11
88.5531
 21
5.43786
  0
LINE
  8
0
 10
88.5531
 20
5.43786
 11
88.5237
 21
5.624
  0
LINE
  8
0
 10
88.5237
 20
5.624
 11
88.5059
 21
5.81163
  0
LINE
  8
0
 10
88.5059
 20
5.81163
 11
88.5
 21
6
  0
LINE
  8
0
 10
216.5
 20
128
 11
216.504
 21
128.126
  0
LINE
  8
0
 10
216.504
 20
128.126
 11
216.516
 21
128.251
  0
LINE
  8
0
 10
216.516
 20
128.251
 11
216.535
 21
128.375
  0
LINE
  8
0
 10
216.535
 20
128.375
 11
216.563
 21
128.497
  0
LINE
  8
0
 10
216.563
 20
128.497
 11
216.598
 21
128.618
  0
LINE
  8
0
 10
216.598
 20
128.618
 11
216.64
 21
128.736
  0
LINE
  8
0
 10
216.64
 20
128.736
 11
216.69
 21
128.852
  0
LINE
  8
0
 10
216.69
 20
128.852
 11
216.747
 21
128.964
  0
LINE
  8
0
 10
216.747
 20
128.964
 11
216.811
 21
129.072
  0
LINE
  8
0
 10
216.811
 20
129.072
 11
216.882
 21
129.176
  0
LINE
  8
0
 10
216.882
 20
129.176
 11
216.959
 21
129.275
  0
LINE
  8
0
 10
216.959
 20
129.275
 11
217.042
 21
129.369
  0
LINE
  8
0
 10
217.042
 20
129.369
 11
217.131
 21
129.458
  0
LINE
  8
0
 10
217.131
 20
129.458
 11
217.225
 21
129.541
  0
LINE
  8
0
 10
217.225
 20
129.541
 11
217.324
 21
129.618
  0
LINE
  8
0
 10
217.324
 20
129.618
 11
217.428
 21
129.689
  0
LINE
  8
0
 10
217.428
 20
129.689
 11
217.536
 21
129.753
  0
LINE
  8
0
 10
217.536
 20
129.753
 11
217.648
 21
129.81
  0
LINE
  8
0
 10
217.648
 20
129.81
 11
217.764
 21
129.86
  0
LINE
  8
0
 10
217.764
 20
129.86
 11
217.882
 21
129.902
  0
LINE
  8
0
 10
217.882
 20
129.902
 11
218.003
 21
129.937
  0
LINE
  8
0
 10
218.003
 20
129.937
 11
218.125
 21
129.965
  0
LINE
  8
0
 10
218.125
 20
129.965
 11
218.249
 21
129.984
  0
LINE
  8
0
 10
218.249
 20
129.984
 11
218.374
 21
129.996
  0
LINE
  8
0
 10
218.374
 20
129.996
 11
218.5
 21
130
  0
LINE
  8
0
 10
218.5
 20
130
 11
218.626
 21
129.996
  0
LINE
  8
0
 10
218.626
 20
129.996
 11
218.751
 21
129.984
  0
LINE
  8
0
 10
218.751
 20
129.984
 11
218.875
 21
129.965
  0
LINE
  8
0
 10
218.875
 20
129.965
 11
218.997
 21
129.937
  0
LINE
  8
0
 10
218.997
 20
129.937
 11
219.118
 21
129.902
  0
LINE
  8
0
 10
219.118
 20
129.902
 11
219.236
 21
129.86
  0
LINE
  8
0
 10
219.236
 20
129.86
 11
219.352
 21
129.81
  0
LINE
  8
0
 10
219.352
 20
129.81
 11
219.464
 21
129.753
  0
LINE
  8
0
 10
219.464
 20
129.753
 11
219.572
 21
129.689
  0
LINE
  8
0
 10
219.572
 20
129.689
 11
219.676
 21
129.618
  0
LINE
  8
0
 10
219.676
 20
129.618
 11
219.775
 21
129.541
  0
LINE
  8
0
 10
219.775
 20
129.541
 11
219.869
 21
129.458
  0
LINE
  8
0
 10
219.869
 20
129.458
 11
219.958
 21
129.369
  0
LINE
  8
0
 10
219.958
 20
129.369
 11
220.041
 21
129.275
  0
LINE
  8
0
 10
220.041
 20
129.275
 11
220.118
 21
129.176
  0
LINE
  8
0
 10
220.118
 20
129.176
 11
220.189
 21
129.072
  0
LINE
  8
0
 10
220.189
 20
129.072
 11
220.253
 21
128.964
  0
LINE
  8
0
 10
220.253
 20
128.964
 11
220.31
 21
128.852
  0
LINE
  8
0
 10
220.31
 20
128.852
 11
220.36
 21
128.736
  0
LINE
  8
0
 10
220.36
 20
128.736
 11
220.402
 21
128.618
  0
LINE
  8
0
 10
220.402
 20
128.618
 11
220.437
 21
128.497
  0
LINE
  8
0
 10
220.437
 20
128.497
 11
220.465
 21
128.375
  0
LINE
  8
0
 10
220.465
 20
128.375
 11
220.484
 21
128.251
  0
LINE
  8
0
 10
220.484
 20
128.251
 11
220.496
 21
128.126
  0
LINE
  8
0
 10
220.496
 20
128.126
 11
220.5
 21
128
  0
LINE
  8
0
 10
220.5
 20
128
 11
220.496
 21
127.874
  0
LINE
  8
0
 10
220.496
 20
127.874
 11
220.484
 21
127.749
  0
LINE
  8
0
 10
220.484
 20
127.749
 11
220.465
 21
127.625
  0
LINE
  8
0
 10
220.465
 20
127.625
 11
220.437
 21
127.503
  0
LINE
  8
0
 10
220.437
 20
127.503
 11
220.402
 21
127.382
  0
LINE
  8
0
 10
220.402
 20
127.382
 11
220.36
 21
127.264
  0
LINE
  8
0
 10
220.36
 20
127.264
 11
220.31
 21
127.148
  0
LINE
  8
0
 10
220.31
 20
127.148
 11
220.253
 21
127.036
  0
LINE
  8
0
 10
220.253
 20
127.036
 11
220.189
 21
126.928
  0
LINE
  8
0
 10
220.189
 20
126.928
 11
220.118
 21
126.824
  0
LINE
  8
0
 10
220.118
 20
126.824
 11
220.041
 21
126.725
  0
LINE
  8
0
 10
220.041
 20
126.725
 11
219.958
 21
126.631
  0
LINE
  8
0
 10
219.958
 20
126.631
 11
219.869
 21
126.542
  0
LINE
  8
0
 10
219.869
 20
126.542
 11
219.775
 21
126.459
  0
LINE
  8
0
 10
219.775
 20
126.459
 11
219.676
 21
126.382
  0
LINE
  8
0
 10
219.676
 20
126.382
 11
219.572
 21
126.311
  0
LINE
  8
0
 10
219.572
 20
126.311
 11
219.464
 21
126.247
  0
LINE
  8
0
 10
219.464
 20
126.247
 11
219.352
 21
126.19
  0
LINE
  8
0
 10
219.352
 20
126.19
 11
219.236
 21
126.14
  0
LINE
  8
0
 10
219.236
 20
126.14
 11
219.118
 21
126.098
  0
LINE
  8
0
 10
219.118
 20
126.098
 11
218.997
 21
126.063
  0
LINE
  8
0
 10
218.997
 20
126.063
 11
218.875
 21
126.035
  0
LINE
  8
0
 10
218.875
 20
126.035
 11
218.751
 21
126.016
  0
LINE
  8
0
 10
218.751
 20
126.016
 11
218.626
 21
126.004
  0
LINE
  8
0
 10
218.626
 20
126.004
 11
218.5
 21
126
  0
LINE
  8
0
 10
218.5
 20
126
 11
218.374
 21
126.004
  0
LINE
  8
0
 10
218.374
 20
126.004
 11
218.249
 21
126.016
  0
LINE
  8
0
 10
218.249
 20
126.016
 11
218.125
 21
126.035
  0
LINE
  8
0
 10
218.125
 20
126.035
 11
218.003
 21
126.063
  0
LINE
  8
0
 10
218.003
 20
126.063
 11
217.882
 21
126.098
  0
LINE
  8
0
 10
217.882
 20
126.098
 11
217.764
 21
126.14
  0
LINE
  8
0
 10
217.764
 20
126.14
 11
217.648
 21
126.19
  0
LINE
  8
0
 10
217.648
 20
126.19
 11
217.536
 21
126.247
  0
LINE
  8
0
 10
217.536
 20
126.247
 11
217.428
 21
126.311
  0
LINE
  8
0
 10
217.428
 20
126.311
 11
217.324
 21
126.382
  0
LINE
  8
0
 10
217.324
 20
126.382
 11
217.225
 21
126.459
  0
LINE
  8
0
 10
217.225
 20
126.459
 11
217.131
 21
126.542
  0
LINE
  8
0
 10
217.131
 20
126.542
 11
217.042
 21
126.631
  0
LINE
  8
0
 10
217.042
 20
126.631
 11
216.959
 21
126.725
  0
LINE
  8
0
 10
216.959
 20
126.725
 11
216.882
 21
126.824
  0
LINE
  8
0
 10
216.882
 20
126.824
 11
216.811
 21
126.928
  0
LINE
  8
0
 10
216.811
 20
126.928
 11
216.747
 21
127.036
  0
LINE
  8
0
 10
216.747
 20
127.036
 11
216.69
 21
127.148
  0
LINE
  8
0
 10
216.69
 20
127.148
 11
216.64
 21
127.264
  0
LINE
  8
0
 10
216.64
 20
127.264
 11
216.598
 21
127.382
  0
LINE
  8
0
 10
216.598
 20
127.382
 11
216.563
 21
127.503
  0
LINE
  8
0
 10
216.563
 20
127.503
 11
216.535
 21
127.625
  0
LINE
  8
0
 10
216.535
 20
127.625
 11
216.516
 21
127.749
  0
LINE
  8
0
 10
216.516
 20
127.749
 11
216.504
 21
127.874
  0
LINE
  8
0
 10
216.504
 20
127.874
 11
216.5
 21
128
  0
LINE
  8
0
 10
226.5
 20
6
 11
226.506
 21
6.18837
  0
LINE
  8
0
 10
226.506
 20
6.18837
 11
226.524
 21
6.376
  0
LINE
  8
0
 10
226.524
 20
6.376
 11
226.553
 21
6.56214
  0
LINE
  8
0
 10
226.553
 20
6.56214
 11
226.594
 21
6.74607
  0
LINE
  8
0
 10
226.594
 20
6.74607
 11
226.647
 21
6.92705
  0
LINE
  8
0
 10
226.647
 20
6.92705
 11
226.711
 21
7.10437
  0
LINE
  8
0
 10
226.711
 20
7.10437
 11
226.786
 21
7.27734
  0
LINE
  8
0
 10
226.786
 20
7.27734
 11
226.871
 21
7.44526
  0
LINE
  8
0
 10
226.871
 20
7.44526
 11
226.967
 21
7.60748
  0
LINE
  8
0
 10
226.967
 20
7.60748
 11
227.073
 21
7.76336
  0
LINE
  8
0
 10
227.073
 20
7.76336
 11
227.188
 21
7.91227
  0
LINE
  8
0
 10
227.188
 20
7.91227
 11
227.313
 21
8.05364
  0
LINE
  8
0
 10
227.313
 20
8.05364
 11
227.446
 21
8.18691
  0
LINE
  8
0
 10
227.446
 20
8.18691
 11
227.588
 21
8.31154
  0
LINE
  8
0
 10
227.588
 20
8.31154
 11
227.737
 21
8.42705
  0
LINE
  8
0
 10
227.737
 20
8.42705
 11
227.893
 21
8.53298
  0
LINE
  8
0
 10
227.893
 20
8.53298
 11
228.055
 21
8.62892
  0
LINE
  8
0
 10
228.055
 20
8.62892
 11
228.223
 21
8.71448
  0
LINE
  8
0
 10
228.223
 20
8.71448
 11
228.396
 21
8.78933
  0
LINE
  8
0
 10
228.396
 20
8.78933
 11
228.573
 21
8.85317
  0
LINE
  8
0
 10
228.573
 20
8.85317
 11
228.754
 21
8.90575
  0
LINE
  8
0
 10
228.754
 20
8.90575
 11
228.938
 21
8.94686
  0
LINE
  8
0
 10
228.938
 20
8.94686
 11
229.124
 21
8.97634
  0
LINE
  8
0
 10
229.124
 20
8.97634
 11
229.312
 21
8.99408
  0
LINE
  8
0
 10
229.312
 20
8.99408
 11
229.5
 21
9
  0
LINE
  8
0
 10
229.5
 20
9
 11
229.688
 21
8.99408
  0
LINE
  8
0
 10
229.688
 20
8.99408
 11
229.876
 21
8.97634
  0
LINE
  8
0
 10
229.876
 20
8.97634
 11
230.062
 21
8.94686
  0
LINE
  8
0
 10
230.062
 20
8.94686
 11
230.246
 21
8.90575
  0
LINE
  8
0
 10
230.246
 20
8.90575
 11
230.427
 21
8.85317
  0
LINE
  8
0
 10
230.427
 20
8.85317
 11
230.604
 21
8.78933
  0
LINE
  8
0
 10
230.604
 20
8.78933
 11
230.777
 21
8.71448
  0
LINE
  8
0
 10
230.777
 20
8.71448
 11
230.945
 21
8.62892
  0
LINE
  8
0
 10
230.945
 20
8.62892
 11
231.107
 21
8.53298
  0
LINE
  8
0
 10
231.107
 20
8.53298
 11
231.263
 21
8.42705
  0
LINE
  8
0
 10
231.263
 20
8.42705
 11
231.412
 21
8.31154
  0
LINE
  8
0
 10
231.412
 20
8.31154
 11
231.554
 21
8.18691
  0
LINE
  8
0
 10
231.554
 20
8.18691
 11
231.687
 21
8.05364
  0
LINE
  8
0
 10
231.687
 20
8.05364
 11
231.812
 21
7.91227
  0
LINE
  8
0
 10
231.812
 20
7.91227
 11
231.927
 21
7.76336
  0
LINE
  8
0
 10
231.927
 20
7.76336
 11
232.033
 21
7.60748
  0
LINE
  8
0
 10
232.033
 20
7.60748
 11
232.129
 21
7.44526
  0
LINE
  8
0
 10
232.129
 20
7.44526
 11
232.214
 21
7.27734
  0
LINE
  8
0
 10
232.214
 20
7.27734
 11
232.289
 21
7.10437
  0
LINE
  8
0
 10
232.289
 20
7.10437
 11
232.353
 21
6.92705
  0
LINE
  8
0
 10
232.353
 20
6.92705
 11
232.406
 21
6.74607
  0
LINE
  8
0
 10
232.406
 20
6.74607
 11
232.447
 21
6.56214
  0
LINE
  8
0
 10
232.447
 20
6.56214
 11
232.476
 21
6.376
  0
LINE
  8
0
 10
232.476
 20
6.376
 11
232.494
 21
6.18837
  0
LINE
  8
0
 10
232.494
 20
6.18837
 11
232.5
 21
6
  0
LINE
  8
0
 10
232.5
 20
6
 11
232.494
 21
5.81163
  0
LINE
  8
0
 10
232.494
 20
5.81163
 11
232.476
 21
5.624
  0
LINE
  8
0
 10
232.476
 20
5.624
 11
232.447
 21
5.43786
  0
LINE
  8
0
 10
232.447
 20
5.43786
 11
232.406
 21
5.25393
  0
LINE
  8
0
 10
232.406
 20
5.25393
 11
232.353
 21
5.07295
  0
LINE
  8
0
 10
232.353
 20
5.07295
 11
232.289
 21
4.89563
  0
LINE
  8
0
 10
232.289
 20
4.89563
 11
232.214
 21
4.72266
  0
LINE
  8
0
 10
232.214
 20
4.72266
 11
232.129
 21
4.55474
  0
LINE
  8
0
 10
232.129
 20
4.55474
 11
232.033
 21
4.39252
  0
LINE
  8
0
 10
232.033
 20
4.39252
 11
231.927
 21
4.23664
  0
LINE
  8
0
 10
231.927
 20
4.23664
 11
231.812
 21
4.08773
  0
LINE
  8
0
 10
231.812
 20
4.08773
 11
231.687
 21
3.94636
  0
LINE
  8
0
 10
231.687
 20
3.94636
 11
231.554
 21
3.81309
  0
LINE
  8
0
 10
231.554
 20
3.81309
 11
231.412
 21
3.68846
  0
LINE
  8
0
 10
231.412
 20
3.68846
 11
231.263
 21
3.57295
  0
LINE
  8
0
 10
231.263
 20
3.57295
 11
231.107
 21
3.46702
  0
LINE
  8
0
 10
231.107
 20
3.46702
 11
230.945
 21
3.37108
  0
LINE
  8
0
 10
230.945
 20
3.37108
 11
230.777
 21
3.28552
  0
LINE
  8
0
 10
230.777
 20
3.28552
 11
230.604
 21
3.21067
  0
LINE
  8
0
 10
230.604
 20
3.21067
 11
230.427
 21
3.14683
  0
LINE
  8
0
 10
230.427
 20
3.14683
 11
230.246
 21
3.09425
  0
LINE
  8
0
 10
230.246
 20
3.09425
 11
230.062
 21
3.05314
  0
LINE
  8
0
 10
230.062
 20
3.05314
 11
229.876
 21
3.02366
  0
LINE
  8
0
 10
229.876
 20
3.02366
 11
229.688
 21
3.00592
  0
LINE
  8
0
 10
229.688
 20
3.00592
 11
229.5
 21
3
  0
LINE
  8
0
 10
229.5
 20
3
 11
229.312
 21
3.00592
  0
LINE
  8
0
 10
229.312
 20
3.00592
 11
229.124
 21
3.02366
  0
LINE
  8
0
 10
229.124
 20
3.02366
 11
228.938
 21
3.05314
  0
LINE
  8
0
 10
228.938
 20
3.05314
 11
228.754
 21
3.09425
  0
LINE
  8
0
 10
228.754
 20
3.09425
 11
228.573
 21
3.14683
  0
LINE
  8
0
 10
228.573
 20
3.14683
 11
228.396
 21
3.21067
  0
LINE
  8
0
 10
228.396
 20
3.21067
 11
228.223
 21
3.28552
  0
LINE
  8
0
 10
228.223
 20
3.28552
 11
228.055
 21
3.37108
  0
LINE
  8
0
 10
228.055
 20
3.37108
 11
227.893
 21
3.46702
  0
LINE
  8
0
 10
227.893
 20
3.46702
 11
227.737
 21
3.57295
  0
LINE
  8
0
 10
227.737
 20
3.57295
 11
227.588
 21
3.68846
  0
LINE
  8
0
 10
227.588
 20
3.68846
 11
227.446
 21
3.81309
  0
LINE
  8
0
 10
227.446
 20
3.81309
 11
227.313
 21
3.94636
  0
LINE
  8
0
 10
227.313
 20
3.94636
 11
227.188
 21
4.08773
  0
LINE
  8
0
 10
227.188
 20
4.08773
 11
227.073
 21
4.23664
  0
LINE
  8
0
 10
227.073
 20
4.23664
 11
226.967
 21
4.39252
  0
LINE
  8
0
 10
226.967
 20
4.39252
 11
226.871
 21
4.55474
  0
LINE
  8
0
 10
226.871
 20
4.55474
 11
226.786
 21
4.72266
  0
LINE
  8
0
 10
226.786
 20
4.72266
 11
226.711
 21
4.89563
  0
LINE
  8
0
 10
226.711
 20
4.89563
 11
226.647
 21
5.07295
  0
LINE
  8
0
 10
226.647
 20
5.07295
 11
226.594
 21
5.25393
  0
LINE
  8
0
 10
226.594
 20
5.25393
 11
226.553
 21
5.43786
  0
LINE
  8
0
 10
226.553
 20
5.43786
 11
226.524
 21
5.624
  0
LINE
  8
0
 10
226.524
 20
5.624
 11
226.506
 21
5.81163
  0
LINE
  8
0
 10
226.506
 20
5.81163
 11
226.5
 21
6
  0
LINE
  8
0
 10
364.5
 20
6
 11
364.506
 21
6.18837
  0
LINE
  8
0
 10
364.506
 20
6.18837
 11
364.524
 21
6.376
  0
LINE
  8
0
 10
364.524
 20
6.376
 11
364.553
 21
6.56214
  0
LINE
  8
0
 10
364.553
 20
6.56214
 11
364.594
 21
6.74607
  0
LINE
  8
0
 10
364.594
 20
6.74607
 11
364.647
 21
6.92705
  0
LINE
  8
0
 10
364.647
 20
6.92705
 11
364.711
 21
7.10437
  0
LINE
  8
0
 10
364.711
 20
7.10437
 11
364.786
 21
7.27734
  0
LINE
  8
0
 10
364.786
 20
7.27734
 11
364.871
 21
7.44526
  0
LINE
  8
0
 10
364.871
 20
7.44526
 11
364.967
 21
7.60748
  0
LINE
  8
0
 10
364.967
 20
7.60748
 11
365.073
 21
7.76336
  0
LINE
  8
0
 10
365.073
 20
7.76336
 11
365.188
 21
7.91227
  0
LINE
  8
0
 10
365.188
 20
7.91227
 11
365.313
 21
8.05364
  0
LINE
  8
0
 10
365.313
 20
8.05364
 11
365.446
 21
8.18691
  0
LINE
  8
0
 10
365.446
 20
8.18691
 11
365.588
 21
8.31154
  0
LINE
  8
0
 10
365.588
 20
8.31154
 11
365.737
 21
8.42705
  0
LINE
  8
0
 10
365.737
 20
8.42705
 11
365.893
 21
8.53298
  0
LINE
  8
0
 10
365.893
 20
8.53298
 11
366.055
 21
8.62892
  0
LINE
  8
0
 10
366.055
 20
8.62892
 11
366.223
 21
8.71448
  0
LINE
  8
0
 10
366.223
 20
8.71448
 11
366.396
 21
8.78933
  0
LINE
  8
0
 10
366.396
 20
8.78933
 11
366.573
 21
8.85317
  0
LINE
  8
0
 10
366.573
 20
8.85317
 11
366.754
 21
8.90575
  0
LINE
  8
0
 10
366.754
 20
8.90575
 11
366.938
 21
8.94686
  0
LINE
  8
0
 10
366.938
 20
8.94686
 11
367.124
 21
8.97634
  0
LINE
  8
0
 10
367.124
 20
8.97634
 11
367.312
 21
8.99408
  0
LINE
  8
0
 10
367.312
 20
8.99408
 11
367.5
 21
9
  0
LINE
  8
0
 10
367.5
 20
9
 11
367.688
 21
8.99408
  0
LINE
  8
0
 10
367.688
 20
8.99408
 11
367.876
 21
8.97634
  0
LINE
  8
0
 10
367.876
 20
8.97634
 11
368.062
 21
8.94686
  0
LINE
  8
0
 10
368.062
 20
8.94686
 11
368.246
 21
8.90575
  0
LINE
  8
0
 10
368.246
 20
8.90575
 11
368.427
 21
8.85317
  0
LINE
  8
0
 10
368.427
 20
8.85317
 11
368.604
 21
8.78933
  0
LINE
  8
0
 10
368.604
 20
8.78933
 11
368.777
 21
8.71448
  0
LINE
  8
0
 10
368.777
 20
8.71448
 11
368.945
 21
8.62892
  0
LINE
  8
0
 10
368.945
 20
8.62892
 11
369.107
 21
8.53298
  0
LINE
  8
0
 10
369.107
 20
8.53298
 11
369.263
 21
8.42705
  0
LINE
  8
0
 10
369.263
 20
8.42705
 11
369.412
 21
8.31154
  0
LINE
  8
0
 10
369.412
 20
8.31154
 11
369.554
 21
8.18691
  0
LINE
  8
0
 10
369.554
 20
8.18691
 11
369.687
 21
8.05364
  0
LINE
  8
0
 10
369.687
 20
8.05364
 11
369.812
 21
7.91227
  0
LINE
  8
0
 10
369.812
 20
7.91227
 11
369.927
 21
7.76336
  0
LINE
  8
0
 10
369.927
 20
7.76336
 11
370.033
 21
7.60748
  0
LINE
  8
0
 10
370.033
 20
7.60748
 11
370.129
 21
7.44526
  0
LINE
  8
0
 10
370.129
 20
7.44526
 11
370.214
 21
7.27734
  0
LINE
  8
0
 10
370.214
 20
7.27734
 11
370.289
 21
7.10437
  0
LINE
  8
0
 10
370.289
 20
7.10437
 11
370.353
 21
6.92705
  0
LINE
  8
0
 10
370.353
 20
6.92705
 11
370.406
 21
6.74607
  0
LINE
  8
0
 10
370.406
 20
6.74607
 11
370.447
 21
6.56214
  0
LINE
  8
0
 10
370.447
 20
6.56214
 11
370.476
 21
6.376
  0
LINE
  8
0
 10
370.476
 20
6.376
 11
370.494
 21
6.18837
  0
LINE
  8
0
 10
370.494
 20
6.18837
 11
370.5
 21
6
  0
LINE
  8
0
 10
370.5
 20
6
 11
370.494
 21
5.81163
  0
LINE
  8
0
 10
370.494
 20
5.81163
 11
370.476
 21
5.624
  0
LINE
  8
0
 10
370.476
 20
5.624
 11
370.447
 21
5.43786
  0
LINE
  8
0
 10
370.447
 20
5.43786
 11
370.406
 21
5.25393
  0
LINE
  8
0
 10
370.406
 20
5.25393
 11
370.353
 21
5.07295
  0
LINE
  8
0
 10
370.353
 20
5.07295
 11
370.289
 21
4.89563
  0
LINE
  8
0
 10
370.289
 20
4.89563
 11
370.214
 21
4.72266
  0
LINE
  8
0
 10
370.214
 20
4.72266
 11
370.129
 21
4.55474
  0
LINE
  8
0
 10
370.129
 20
4.55474
 11
370.033
 21
4.39252
  0
LINE
  8
0
 10
370.033
 20
4.39252
 11
369.927
 21
4.23664
  0
LINE
  8
0
 10
369.927
 20
4.23664
 11
369.812
 21
4.08773
  0
LINE
  8
0
 10
369.812
 20
4.08773
 11
369.687
 21
3.94636
  0
LINE
  8
0
 10
369.687
 20
3.94636
 11
369.554
 21
3.81309
  0
LINE
  8
0
 10
369.554
 20
3.81309
 11
369.412
 21
3.68846
  0
LINE
  8
0
 10
369.412
 20
3.68846
 11
369.263
 21
3.57295
  0
LINE
  8
0
 10
369.263
 20
3.57295
 11
369.107
 21
3.46702
  0
LINE
  8
0
 10
369.107
 20
3.46702
 11
368.945
 21
3.37108
  0
LINE
  8
0
 10
368.945
 20
3.37108
 11
368.777
 21
3.28552
  0
LINE
  8
0
 10
368.777
 20
3.28552
 11
368.604
 21
3.21067
  0
LINE
  8
0
 10
368.604
 20
3.21067
 11
368.427
 21
3.14683
  0
LINE
  8
0
 10
368.427
 20
3.14683
 11
368.246
 21
3.09425
  0
LINE
  8
0
 10
368.246
 20
3.09425
 11
368.062
 21
3.05314
  0
LINE
  8
0
 10
368.062
 20
3.05314
 11
367.876
 21
3.02366
  0
LINE
  8
0
 10
367.876
 20
3.02366
 11
367.688
 21
3.00592
  0
LINE
  8
0
 10
367.688
 20
3.00592
 11
367.5
 21
3
  0
LINE
  8
0
 10
367.5
 20
3
 11
367.312
 21
3.00592
  0
LINE
  8
0
 10
367.312
 20
3.00592
 11
367.124
 21
3.02366
  0
LINE
  8
0
 10
367.124
 20
3.02366
 11
366.938
 21
3.05314
  0
LINE
  8
0
 10
366.938
 20
3.05314
 11
366.754
 21
3.09425
  0
LINE
  8
0
 10
366.754
 20
3.09425
 11
366.573
 21
3.14683
  0
LINE
  8
0
 10
366.573
 20
3.14683
 11
366.396
 21
3.21067
  0
LINE
  8
0
 10
366.396
 20
3.21067
 11
366.223
 21
3.28552
  0
LINE
  8
0
 10
366.223
 20
3.28552
 11
366.055
 21
3.37108
  0
LINE
  8
0
 10
366.055
 20
3.37108
 11
365.893
 21
3.46702
  0
LINE
  8
0
 10
365.893
 20
3.46702
 11
365.737
 21
3.57295
  0
LINE
  8
0
 10
365.737
 20
3.57295
 11
365.588
 21
3.68846
  0
LINE
  8
0
 10
365.588
 20
3.68846
 11
365.446
 21
3.81309
  0
LINE
  8
0
 10
365.446
 20
3.81309
 11
365.313
 21
3.94636
  0
LINE
  8
0
 10
365.313
 20
3.94636
 11
365.188
 21
4.08773
  0
LINE
  8
0
 10
365.188
 20
4.08773
 11
365.073
 21
4.23664
  0
LINE
  8
0
 10
365.073
 20
4.23664
 11
364.967
 21
4.39252
  0
LINE
  8
0
 10
364.967
 20
4.39252
 11
364.871
 21
4.55474
  0
LINE
  8
0
 10
364.871
 20
4.55474
 11
364.786
 21
4.72266
  0
LINE
  8
0
 10
364.786
 20
4.72266
 11
364.711
 21
4.89563
  0
LINE
  8
0
 10
364.711
 20
4.89563
 11
364.647
 21
5.07295
  0
LINE
  8
0
 10
364.647
 20
5.07295
 11
364.594
 21
5.25393
  0
LINE
  8
0
 10
364.594
 20
5.25393
 11
364.553
 21
5.43786
  0
LINE
  8
0
 10
364.553
 20
5.43786
 11
364.524
 21
5.624
  0
LINE
  8
0
 10
364.524
 20
5.624
 11
364.506
 21
5.81163
  0
LINE
  8
0
 10
364.506
 20
5.81163
 11
364.5
 21
6
  0
LINE
  8
0
 10
376.5
 20
128
 11
376.504
 21
128.126
  0
LINE
  8
0
 10
376.504
 20
128.126
 11
376.516
 21
128.251
  0
LINE
  8
0
 10
376.516
 20
128.251
 11
376.535
 21
128.375
  0
LINE
  8
0
 10
376.535
 20
128.375
 11
376.563
 21
128.497
  0
LINE
  8
0
 10
376.563
 20
128.497
 11
376.598
 21
128.618
  0
LINE
  8
0
 10
376.598
 20
128.618
 11
376.64
 21
128.736
  0
LINE
  8
0
 10
376.64
 20
128.736
 11
376.69
 21
128.852
  0
LINE
  8
0
 10
376.69
 20
128.852
 11
376.747
 21
128.964
  0
LINE
  8
0
 10
376.747
 20
128.964
 11
376.811
 21
129.072
  0
LINE
  8
0
 10
376.811
 20
129.072
 11
376.882
 21
129.176
  0
LINE
  8
0
 10
376.882
 20
129.176
 11
376.959
 21
129.275
  0
LINE
  8
0
 10
376.959
 20
129.275
 11
377.042
 21
129.369
  0
LINE
  8
0
 10
377.042
 20
129.369
 11
377.131
 21
129.458
  0
LINE
  8
0
 10
377.131
 20
129.458
 11
377.225
 21
129.541
  0
LINE
  8
0
 10
377.225
 20
129.541
 11
377.324
 21
129.618
  0
LINE
  8
0
 10
377.324
 20
129.618
 11
377.428
 21
129.689
  0
LINE
  8
0
 10
377.428
 20
129.689
 11
377.536
 21
129.753
  0
LINE
  8
0
 10
377.536
 20
129.753
 11
377.648
 21
129.81
  0
LINE
  8
0
 10
377.648
 20
129.81
 11
377.764
 21
129.86
  0
LINE
  8
0
 10
377.764
 20
129.86
 11
377.882
 21
129.902
  0
LINE
  8
0
 10
377.882
 20
129.902
 11
378.003
 21
129.937
  0
LINE
  8
0
 10
378.003
 20
129.937
 11
378.125
 21
129.965
  0
LINE
  8
0
 10
378.125
 20
129.965
 11
378.249
 21
129.984
  0
LINE
  8
0
 10
378.249
 20
129.984
 11
378.374
 21
129.996
  0
LINE
  8
0
 10
378.374
 20
129.996
 11
378.5
 21
130
  0
LINE
  8
0
 10
378.5
 20
130
 11
378.626
 21
129.996
  0
LINE
  8
0
 10
378.626
 20
129.996
 11
378.751
 21
129.984
  0
LINE
  8
0
 10
378.751
 20
129.984
 11
378.875
 21
129.965
  0
LINE
  8
0
 10
378.875
 20
129.965
 11
378.997
 21
129.937
  0
LINE
  8
0
 10
378.997
 20
129.937
 11
379.118
 21
129.902
  0
LINE
  8
0
 10
379.118
 20
129.902
 11
379.236
 21
129.86
  0
LINE
  8
0
 10
379.236
 20
129.86
 11
379.352
 21
129.81
  0
LINE
  8
0
 10
379.352
 20
129.81
 11
379.464
 21
129.753
  0
LINE
  8
0
 10
379.464
 20
129.753
 11
379.572
 21
129.689
  0
LINE
  8
0
 10
379.572
 20
129.689
 11
379.676
 21
129.618
  0
LINE
  8
0
 10
379.676
 20
129.618
 11
379.775
 21
129.541
  0
LINE
  8
0
 10
379.775
 20
129.541
 11
379.869
 21
129.458
  0
LINE
  8
0
 10
379.869
 20
129.458
 11
379.958
 21
129.369
  0
LINE
  8
0
 10
379.958
 20
129.369
 11
380.041
 21
129.275
  0
LINE
  8
0
 10
380.041
 20
129.275
 11
380.118
 21
129.176
  0
LINE
  8
0
 10
380.118
 20
129.176
 11
380.189
 21
129.072
  0
LINE
  8
0
 10
380.189
 20
129.072
 11
380.253
 21
128.964
  0
LINE
  8
0
 10
380.253
 20
128.964
 11
380.31
 21
128.852
  0
LINE
  8
0
 10
380.31
 20
128.852
 11
380.36
 21
128.736
  0
LINE
  8
0
 10
380.36
 20
128.736
 11
380.402
 21
128.618
  0
LINE
  8
0
 10
380.402
 20
128.618
 11
380.437
 21
128.497
  0
LINE
  8
0
 10
380.437
 20
128.497
 11
380.465
 21
128.375
  0
LINE
  8
0
 10
380.465
 20
128.375
 11
380.484
 21
128.251
  0
LINE
  8
0
 10
380.484
 20
128.251
 11
380.496
 21
128.126
  0
LINE
  8
0
 10
380.496
 20
128.126
 11
380.5
 21
128
  0
LINE
  8
0
 10
380.5
 20
128
 11
380.496
 21
127.874
  0
LINE
  8
0
 10
380.496
 20
127.874
 11
380.484
 21
127.749
  0
LINE
  8
0
 10
380.484
 20
127.749
 11
380.465
 21
127.625
  0
LINE
  8
0
 10
380.465
 20
127.625
 11
380.437
 21
127.503
  0
LINE
  8
0
 10
380.437
 20
127.503
 11
380.402
 21
127.382
  0
LINE
  8
0
 10
380.402
 20
127.382
 11
380.36
 21
127.264
  0
LINE
  8
0
 10
380.36
 20
127.264
 11
380.31
 21
127.148
  0
LINE
  8
0
 10
380.31
 20
127.148
 11
380.253
 21
127.036
  0
LINE
  8
0
 10
380.253
 20
127.036
 11
380.189
 21
126.928
  0
LINE
  8
0
 10
380.189
 20
126.928
 11
380.118
 21
126.824
  0
LINE
  8
0
 10
380.118
 20
126.824
 11
380.041
 21
126.725
  0
LINE
  8
0
 10
380.041
 20
126.725
 11
379.958
 21
126.631
  0
LINE
  8
0
 10
379.958
 20
126.631
 11
379.869
 21
126.542
  0
LINE
  8
0
 10
379.869
 20
126.542
 11
379.775
 21
126.459
  0
LINE
  8
0
 10
379.775
 20
126.459
 11
379.676
 21
126.382
  0
LINE
  8
0
 10
379.676
 20
126.382
 11
379.572
 21
126.311
  0
LINE
  8
0
 10
379.572
 20
126.311
 11
379.464
 21
126.247
  0
LINE
  8
0
 10
379.464
 20
126.247
 11
379.352
 21
126.19
  0
LINE
  8
0
 10
379.352
 20
126.19
 11
379.236
 21
126.14
  0
LINE
  8
0
 10
379.236
 20
126.14
 11
379.118
 21
126.098
  0
LINE
  8
0
 10
379.118
 20
126.098
 11
378.997
 21
126.063
  0
LINE
  8
0
 10
378.997
 20
126.063
 11
378.875
 21
126.035
  0
LINE
  8
0
 10
378.875
 20
126.035
 11
378.751
 21
126.016
  0
LINE
  8
0
 10
378.751
 20
126.016
 11
378.626
 21
126.004
  0
LINE
  8
0
 10
378.626
 20
126.004
 11
378.5
 21
126
  0
LINE
  8
0
 10
378.5
 20
126
 11
378.374
 21
126.004
  0
LINE
  8
0
 10
378.374
 20
126.004
 11
378.249
 21
126.016
  0
LINE
  8
0
 10
378.249
 20
126.016
 11
378.125
 21
126.035
  0
LINE
  8
0
 10
378.125
 20
126.035
 11
378.003
 21
126.063
  0
LINE
  8
0
 10
378.003
 20
126.063
 11
377.882
 21
126.098
  0
LINE
  8
0
 10
377.882
 20
126.098
 11
377.764
 21
126.14
  0
LINE
  8
0
 10
377.764
 20
126.14
 11
377.648
 21
126.19
  0
LINE
  8
0
 10
377.648
 20
126.19
 11
377.536
 21
126.247
  0
LINE
  8
0
 10
377.536
 20
126.247
 11
377.428
 21
126.311
  0
LINE
  8
0
 10
377.428
 20
126.311
 11
377.324
 21
126.382
  0
LINE
  8
0
 10
377.324
 20
126.382
 11
377.225
 21
126.459
  0
LINE
  8
0
 10
377.225
 20
126.459
 11
377.131
 21
126.542
  0
LINE
  8
0
 10
377.131
 20
126.542
 11
377.042
 21
126.631
  0
LINE
  8
0
 10
377.042
 20
126.631
 11
376.959
 21
126.725
  0
LINE
  8
0
 10
376.959
 20
126.725
 11
376.882
 21
126.824
  0
LINE
  8
0
 10
376.882
 20
126.824
 11
376.811
 21
126.928
  0
LINE
  8
0
 10
376.811
 20
126.928
 11
376.747
 21
127.036
  0
LINE
  8
0
 10
376.747
 20
127.036
 11
376.69
 21
127.148
  0
LINE
  8
0
 10
376.69
 20
127.148
 11
376.64
 21
127.264
  0
LINE
  8
0
 10
376.64
 20
127.264
 11
376.598
 21
127.382
  0
LINE
  8
0
 10
376.598
 20
127.382
 11
376.563
 21
127.503
  0
LINE
  8
0
 10
376.563
 20
127.503
 11
376.535
 21
127.625
  0
LINE
  8
0
 10
376.535
 20
127.625
 11
376.516
 21
127.749
  0
LINE
  8
0
 10
376.516
 20
127.749
 11
376.504
 21
127.874
  0
LINE
  8
0
 10
376.504
 20
127.874
 11
376.5
 21
128
  0
LINE
  8
0
 10
502.5
 20
6
 11
502.506
 21
6.18837
  0
LINE
  8
0
 10
502.506
 20
6.18837
 11
502.524
 21
6.376
  0
LINE
  8
0
 10
502.524
 20
6.376
 11
502.553
 21
6.56214
  0
LINE
  8
0
 10
502.553
 20
6.56214
 11
502.594
 21
6.74607
  0
LINE
  8
0
 10
502.594
 20
6.74607
 11
502.647
 21
6.92705
  0
LINE
  8
0
 10
502.647
 20
6.92705
 11
502.711
 21
7.10437
  0
LINE
  8
0
 10
502.711
 20
7.10437
 11
502.786
 21
7.27734
  0
LINE
  8
0
 10
502.786
 20
7.27734
 11
502.871
 21
7.44526
  0
LINE
  8
0
 10
502.871
 20
7.44526
 11
502.967
 21
7.60748
  0
LINE
  8
0
 10
502.967
 20
7.60748
 11
503.073
 21
7.76336
  0
LINE
  8
0
 10
503.073
 20
7.76336
 11
503.188
 21
7.91227
  0
LINE
  8
0
 10
503.188
 20
7.91227
 11
503.313
 21
8.05364
  0
LINE
  8
0
 10
503.313
 20
8.05364
 11
503.446
 21
8.18691
  0
LINE
  8
0
 10
503.446
 20
8.18691
 11
503.588
 21
8.31154
  0
LINE
  8
0
 10
503.588
 20
8.31154
 11
503.737
 21
8.42705
  0
LINE
  8
0
 10
503.737
 20
8.42705
 11
503.893
 21
8.53298
  0
LINE
  8
0
 10
503.893
 20
8.53298
 11
504.055
 21
8.62892
  0
LINE
  8
0
 10
504.055
 20
8.62892
 11
504.223
 21
8.71448
  0
LINE
  8
0
 10
504.223
 20
8.71448
 11
504.396
 21
8.78933
  0
LINE
  8
0
 10
504.396
 20
8.78933
 11
504.573
 21
8.85317
  0
LINE
  8
0
 10
504.573
 20
8.85317
 11
504.754
 21
8.90575
  0
LINE
  8
0
 10
504.754
 20
8.90575
 11
504.938
 21
8.94686
  0
LINE
  8
0
 10
504.938
 20
8.94686
 11
505.124
 21
8.97634
  0
LINE
  8
0
 10
505.124
 20
8.97634
 11
505.312
 21
8.99408
  0
LINE
  8
0
 10
505.312
 20
8.99408
 11
505.5
 21
9
  0
LINE
  8
0
 10
505.5
 20
9
 11
505.688
 21
8.99408
  0
LINE
  8
0
 10
505.688
 20
8.99408
 11
505.876
 21
8.97634
  0
LINE
  8
0
 10
505.876
 20
8.97634
 11
506.062
 21
8.94686
  0
LINE
  8
0
 10
506.062
 20
8.94686
 11
506.246
 21
8.90575
  0
LINE
  8
0
 10
506.246
 20
8.90575
 11
506.427
 21
8.85317
  0
LINE
  8
0
 10
506.427
 20
8.85317
 11
506.604
 21
8.78933
  0
LINE
  8
0
 10
506.604
 20
8.78933
 11
506.777
 21
8.71448
  0
LINE
  8
0
 10
506.777
 20
8.71448
 11
506.945
 21
8.62892
  0
LINE
  8
0
 10
506.945
 20
8.62892
 11
507.107
 21
8.53298
  0
LINE
  8
0
 10
507.107
 20
8.53298
 11
507.263
 21
8.42705
  0
LINE
  8
0
 10
507.263
 20
8.42705
 11
507.412
 21
8.31154
  0
LINE
  8
0
 10
507.412
 20
8.31154
 11
507.554
 21
8.18691
  0
LINE
  8
0
 10
507.554
 20
8.18691
 11
507.687
 21
8.05364
  0
LINE
  8
0
 10
507.687
 20
8.05364
 11
507.812
 21
7.91227
  0
LINE
  8
0
 10
507.812
 20
7.91227
 11
507.927
 21
7.76336
  0
LINE
  8
0
 10
507.927
 20
7.76336
 11
508.033
 21
7.60748
  0
LINE
  8
0
 10
508.033
 20
7.60748
 11
508.129
 21
7.44526
  0
LINE
  8
0
 10
508.129
 20
7.44526
 11
508.214
 21
7.27734
  0
LINE
  8
0
 10
508.214
 20
7.27734
 11
508.289
 21
7.10437
  0
LINE
  8
0
 10
508.289
 20
7.10437
 11
508.353
 21
6.92705
  0
LINE
  8
0
 10
508.353
 20
6.92705
 11
508.406
 21
6.74607
  0
LINE
  8
0
 10
508.406
 20
6.74607
 11
508.447
 21
6.56214
  0
LINE
  8
0
 10
508.447
 20
6.56214
 11
508.476
 21
6.376
  0
LINE
  8
0
 10
508.476
 20
6.376
 11
508.494
 21
6.18837
  0
LINE
  8
0
 10
508.494
 20
6.18837
 11
508.5
 21
6
  0
LINE
  8
0
 10
508.5
 20
6
 11
508.494
 21
5.81163
  0
LINE
  8
0
 10
508.494
 20
5.81163
 11
508.476
 21
5.624
  0
LINE
  8
0
 10
508.476
 20
5.624
 11
508.447
 21
5.43786
  0
LINE
  8
0
 10
508.447
 20
5.43786
 11
508.406
 21
5.25393
  0
LINE
  8
0
 10
508.406
 20
5.25393
 11
508.353
 21
5.07295
  0
LINE
  8
0
 10
508.353
 20
5.07295
 11
508.289
 21
4.89563
  0
LINE
  8
0
 10
508.289
 20
4.89563
 11
508.214
 21
4.72266
  0
LINE
  8
0
 10
508.214
 20
4.72266
 11
508.129
 21
4.55474
  0
LINE
  8
0
 10
508.129
 20
4.55474
 11
508.033
 21
4.39252
  0
LINE
  8
0
 10
508.033
 20
4.39252
 11
507.927
 21
4.23664
  0
LINE
  8
0
 10
507.927
 20
4.23664
 11
507.812
 21
4.08773
  0
LINE
  8
0
 10
507.812
 20
4.08773
 11
507.687
 21
3.94636
  0
LINE
  8
0
 10
507.687
 20
3.94636
 11
507.554
 21
3.81309
  0
LINE
  8
0
 10
507.554
 20
3.81309
 11
507.412
 21
3.68846
  0
LINE
  8
0
 10
507.412
 20
3.68846
 11
507.263
 21
3.57295
  0
LINE
  8
0
 10
507.263
 20
3.57295
 11
507.107
 21
3.46702
  0
LINE
  8
0
 10
507.107
 20
3.46702
 11
506.945
 21
3.37108
  0
LINE
  8
0
 10
506.945
 20
3.37108
 11
506.777
 21
3.28552
  0
LINE
  8
0
 10
506.777
 20
3.28552
 11
506.604
 21
3.21067
  0
LINE
  8
0
 10
506.604
 20
3.21067
 11
506.427
 21
3.14683
  0
LINE
  8
0
 10
506.427
 20
3.14683
 11
506.246
 21
3.09425
  0
LINE
  8
0
 10
506.246
 20
3.09425
 11
506.062
 21
3.05314
  0
LINE
  8
0
 10
506.062
 20
3.05314
 11
505.876
 21
3.02366
  0
LINE
  8
0
 10
505.876
 20
3.02366
 11
505.688
 21
3.00592
  0
LINE
  8
0
 10
505.688
 20
3.00592
 11
505.5
 21
3
  0
LINE
  8
0
 10
505.5
 20
3
 11
505.312
 21
3.00592
  0
LINE
  8
0
 10
505.312
 20
3.00592
 11
505.124
 21
3.02366
  0
LINE
  8
0
 10
505.124
 20
3.02366
 11
504.938
 21
3.05314
  0
LINE
  8
0
 10
504.938
 20
3.05314
 11
504.754
 21
3.09425
  0
LINE
  8
0
 10
504.754
 20
3.09425
 11
504.573
 21
3.14683
  0
LINE
  8
0
 10
504.573
 20
3.14683
 11
504.396
 21
3.21067
  0
LINE
  8
0
 10
504.396
 20
3.21067
 11
504.223
 21
3.28552
  0
LINE
  8
0
 10
504.223
 20
3.28552
 11
504.055
 21
3.37108
  0
LINE
  8
0
 10
504.055
 20
3.37108
 11
503.893
 21
3.46702
  0
LINE
  8
0
 10
503.893
 20
3.46702
 11
503.737
 21
3.57295
  0
LINE
  8
0
 10
503.737
 20
3.57295
 11
503.588
 21
3.68846
  0
LINE
  8
0
 10
503.588
 20
3.68846
 11
503.446
 21
3.81309
  0
LINE
  8
0
 10
503.446
 20
3.81309
 11
503.313
 21
3.94636
  0
LINE
  8
0
 10
503.313
 20
3.94636
 11
503.188
 21
4.08773
  0
LINE
  8
0
 10
503.188
 20
4.08773
 11
503.073
 21
4.23664
  0
LINE
  8
0
 10
503.073
 20
4.23664
 11
502.967
 21
4.39252
  0
LINE
  8
0
 10
502.967
 20
4.39252
 11
502.871
 21
4.55474
  0
LINE
  8
0
 10
502.871
 20
4.55474
 11
502.786
 21
4.72266
  0
LINE
  8
0
 10
502.786
 20
4.72266
 11
502.711
 21
4.89563
  0
LINE
  8
0
 10
502.711
 20
4.89563
 11
502.647
 21
5.07295
  0
LINE
  8
0
 10
502.647
 20
5.07295
 11
502.594
 21
5.25393
  0
LINE
  8
0
 10
502.594
 20
5.25393
 11
502.553
 21
5.43786
  0
LINE
  8
0
 10
502.553
 20
5.43786
 11
502.524
 21
5.624
  0
LINE
  8
0
 10
502.524
 20
5.624
 11
502.506
 21
5.81163
  0
LINE
  8
0
 10
502.506
 20
5.81163
 11
502.5
 21
6
  0
LINE
  8
0
 10
552.5
 20
50
 11
552.506
 21
50.1884
  0
LINE
  8
0
 10
552.506
 20
50.1884
 11
552.524
 21
50.376
  0
LINE
  8
0
 10
552.524
 20
50.376
 11
552.553
 21
50.5621
  0
LINE
  8
0
 10
552.553
 20
50.5621
 11
552.594
 21
50.7461
  0
LINE
  8
0
 10
552.594
 20
50.7461
 11
552.647
 21
50.9271
  0
LINE
  8
0
 10
552.647
 20
50.9271
 11
552.711
 21
51.1044
  0
LINE
  8
0
 10
552.711
 20
51.1044
 11
552.786
 21
51.2773
  0
LINE
  8
0
 10
552.786
 20
51.2773
 11
552.871
 21
51.4453
  0
LINE
  8
0
 10
552.871
 20
51.4453
 11
552.967
 21
51.6075
  0
LINE
  8
0
 10
552.967
 20
51.6075
 11
553.073
 21
51.7634
  0
LINE
  8
0
 10
553.073
 20
51.7634
 11
553.188
 21
51.9123
  0
LINE
  8
0
 10
553.188
 20
51.9123
 11
553.313
 21
52.0536
  0
LINE
  8
0
 10
553.313
 20
52.0536
 11
553.446
 21
52.1869
  0
LINE
  8
0
 10
553.446
 20
52.1869
 11
553.588
 21
52.3115
  0
LINE
  8
0
 10
553.588
 20
52.3115
 11
553.737
 21
52.4271
  0
LINE
  8
0
 10
553.737
 20
52.4271
 11
553.893
 21
52.533
  0
LINE
  8
0
 10
553.893
 20
52.533
 11
554.055
 21
52.6289
  0
LINE
  8
0
 10
554.055
 20
52.6289
 11
554.223
 21
52.7145
  0
LINE
  8
0
 10
554.223
 20
52.7145
 11
554.396
 21
52.7893
  0
LINE
  8
0
 10
554.396
 20
52.7893
 11
554.573
 21
52.8532
  0
LINE
  8
0
 10
554.573
 20
52.8532
 11
554.754
 21
52.9057
  0
LINE
  8
0
 10
554.754
 20
52.9057
 11
554.938
 21
52.9469
  0
LINE
  8
0
 10
554.938
 20
52.9469
 11
555.124
 21
52.9763
  0
LINE
  8
0
 10
555.124
 20
52.9763
 11
555.312
 21
52.9941
  0
LINE
  8
0
 10
555.312
 20
52.9941
 11
555.5
 21
53
  0
LINE
  8
0
 10
555.5
 20
53
 11
555.688
 21
52.9941
  0
LINE
  8
0
 10
555.688
 20
52.9941
 11
555.876
 21
52.9763
  0
LINE
  8
0
 10
555.876
 20
52.9763
 11
556.062
 21
52.9469
  0
LINE
  8
0
 10
556.062
 20
52.9469
 11
556.246
 21
52.9057
  0
LINE
  8
0
 10
556.246
 20
52.9057
 11
556.427
 21
52.8532
  0
LINE
  8
0
 10
556.427
 20
52.8532
 11
556.604
 21
52.7893
  0
LINE
  8
0
 10
556.604
 20
52.7893
 11
556.777
 21
52.7145
  0
LINE
  8
0
 10
556.777
 20
52.7145
 11
556.945
 21
52.6289
  0
LINE
  8
0
 10
556.945
 20
52.6289
 11
557.107
 21
52.533
  0
LINE
  8
0
 10
557.107
 20
52.533
 11
557.263
 21
52.4271
  0
LINE
  8
0
 10
557.263
 20
52.4271
 11
557.412
 21
52.3115
  0
LINE
  8
0
 10
557.412
 20
52.3115
 11
557.554
 21
52.1869
  0
LINE
  8
0
 10
557.554
 20
52.1869
 11
557.687
 21
52.0536
  0
LINE
  8
0
 10
557.687
 20
52.0536
 11
557.812
 21
51.9123
  0
LINE
  8
0
 10
557.812
 20
51.9123
 11
557.927
 21
51.7634
  0
LINE
  8
0
 10
557.927
 20
51.7634
 11
558.033
 21
51.6075
  0
LINE
  8
0
 10
558.033
 20
51.6075
 11
558.129
 21
51.4453
  0
LINE
  8
0
 10
558.129
 20
51.4453
 11
558.214
 21
51.2773
  0
LINE
  8
0
 10
558.214
 20
51.2773
 11
558.289
 21
51.1044
  0
LINE
  8
0
 10
558.289
 20
51.1044
 11
558.353
 21
50.9271
  0
LINE
  8
0
 10
558.353
 20
50.9271
 11
558.406
 21
50.7461
  0
LINE
  8
0
 10
558.406
 20
50.7461
 11
558.447
 21
50.5621
  0
LINE
  8
0
 10
558.447
 20
50.5621
 11
558.476
 21
50.376
  0
LINE
  8
0
 10
558.476
 20
50.376
 11
558.494
 21
50.1884
  0
LINE
  8
0
 10
558.494
 20
50.1884
 11
558.5
 21
50
  0
LINE
  8
0
 10
558.5
 20
50
 11
558.494
 21
49.8116
  0
LINE
  8
0
 10
558.494
 20
49.8116
 11
558.476
 21
49.624
  0
LINE
  8
0
 10
558.476
 20
49.624
 11
558.447
 21
49.4379
  0
LINE
  8
0
 10
558.447
 20
49.4379
 11
558.406
 21
49.2539
  0
LINE
  8
0
 10
558.406
 20
49.2539
 11
558.353
 21
49.0729
  0
LINE
  8
0
 10
558.353
 20
49.0729
 11
558.289
 21
48.8956
  0
LINE
  8
0
 10
558.289
 20
48.8956
 11
558.214
 21
48.7227
  0
LINE
  8
0
 10
558.214
 20
48.7227
 11
558.129
 21
48.5547
  0
LINE
  8
0
 10
558.129
 20
48.5547
 11
558.033
 21
48.3925
  0
LINE
  8
0
 10
558.033
 20
48.3925
 11
557.927
 21
48.2366
  0
LINE
  8
0
 10
557.927
 20
48.2366
 11
557.812
 21
48.0877
  0
LINE
  8
0
 10
557.812
 20
48.0877
 11
557.687
 21
47.9464
  0
LINE
  8
0
 10
557.687
 20
47.9464
 11
557.554
 21
47.8131
  0
LINE
  8
0
 10
557.554
 20
47.8131
 11
557.412
 21
47.6885
  0
LINE
  8
0
 10
557.412
 20
47.6885
 11
557.263
 21
47.5729
  0
LINE
  8
0
 10
557.263
 20
47.5729
 11
557.107
 21
47.467
  0
LINE
  8
0
 10
557.107
 20
47.467
 11
556.945
 21
47.3711
  0
LINE
  8
0
 10
556.945
 20
47.3711
 11
556.777
 21
47.2855
  0
LINE
  8
0
 10
556.777
 20
47.2855
 11
556.604
 21
47.2107
  0
LINE
  8
0
 10
556.604
 20
47.2107
 11
556.427
 21
47.1468
  0
LINE
  8
0
 10
556.427
 20
47.1468
 11
556.246
 21
47.0942
  0
LINE
  8
0
 10
556.246
 20
47.0942
 11
556.062
 21
47.0531
  0
LINE
  8
0
 10
556.062
 20
47.0531
 11
555.876
 21
47.0237
  0
LINE
  8
0
 10
555.876
 20
47.0237
 11
555.688
 21
47.0059
  0
LINE
  8
0
 10
555.688
 20
47.0059
 11
555.5
 21
47
  0
LINE
  8
0
 10
555.5
 20
47
 11
555.312
 21
47.0059
  0
LINE
  8
0
 10
555.312
 20
47.0059
 11
555.124
 21
47.0237
  0
LINE
  8
0
 10
555.124
 20
47.0237
 11
554.938
 21
47.0531
  0
LINE
  8
0
 10
554.938
 20
47.0531
 11
554.754
 21
47.0942
  0
LINE
  8
0
 10
554.754
 20
47.0942
 11
554.573
 21
47.1468
  0
LINE
  8
0
 10
554.573
 20
47.1468
 11
554.396
 21
47.2107
  0
LINE
  8
0
 10
554.396
 20
47.2107
 11
554.223
 21
47.2855
  0
LINE
  8
0
 10
554.223
 20
47.2855
 11
554.055
 21
47.3711
  0
LINE
  8
0
 10
554.055
 20
47.3711
 11
553.893
 21
47.467
  0
LINE
  8
0
 10
553.893
 20
47.467
 11
553.737
 21
47.5729
  0
LINE
  8
0
 10
553.737
 20
47.5729
 11
553.588
 21
47.6885
  0
LINE
  8
0
 10
553.588
 20
47.6885
 11
553.446
 21
47.8131
  0
LINE
  8
0
 10
553.446
 20
47.8131
 11
553.313
 21
47.9464
  0
LINE
  8
0
 10
553.313
 20
47.9464
 11
553.188
 21
48.0877
  0
LINE
  8
0
 10
553.188
 20
48.0877
 11
553.073
 21
48.2366
  0
LINE
  8
0
 10
553.073
 20
48.2366
 11
552.967
 21
48.3925
  0
LINE
  8
0
 10
552.967
 20
48.3925
 11
552.871
 21
48.5547
  0
LINE
  8
0
 10
552.871
 20
48.5547
 11
552.786
 21
48.7227
  0
LINE
  8
0
 10
552.786
 20
48.7227
 11
552.711
 21
48.8956
  0
LINE
  8
0
 10
552.711
 20
48.8956
 11
552.647
 21
49.0729
  0
LINE
  8
0
 10
552.647
 20
49.0729
 11
552.594
 21
49.2539
  0
LINE
  8
0
 10
552.594
 20
49.2539
 11
552.553
 21
49.4379
  0
LINE
  8
0
 10
552.553
 20
49.4379
 11
552.524
 21
49.624
  0
LINE
  8
0
 10
552.524
 20
49.624
 11
552.506
 21
49.8116
  0
LINE
  8
0
 10
552.506
 20
49.8116
 11
552.5
 21
50
  0
LINE
  8
0
 10
552.5
 20
182
 11
552.506
 21
182.188
  0
LINE
  8
0
 10
552.506
 20
182.188
 11
552.524
 21
182.376
  0
LINE
  8
0
 10
552.524
 20
182.376
 11
552.553
 21
182.562
  0
LINE
  8
0
 10
552.553
 20
182.562
 11
552.594
 21
182.746
  0
LINE
  8
0
 10
552.594
 20
182.746
 11
552.647
 21
182.927
  0
LINE
  8
0
 10
552.647
 20
182.927
 11
552.711
 21
183.104
  0
LINE
  8
0
 10
552.711
 20
183.104
 11
552.786
 21
183.277
  0
LINE
  8
0
 10
552.786
 20
183.277
 11
552.871
 21
183.445
  0
LINE
  8
0
 10
552.871
 20
183.445
 11
552.967
 21
183.607
  0
LINE
  8
0
 10
552.967
 20
183.607
 11
553.073
 21
183.763
  0
LINE
  8
0
 10
553.073
 20
183.763
 11
553.188
 21
183.912
  0
LINE
  8
0
 10
553.188
 20
183.912
 11
553.313
 21
184.054
  0
LINE
  8
0
 10
553.313
 20
184.054
 11
553.446
 21
184.187
  0
LINE
  8
0
 10
553.446
 20
184.187
 11
553.588
 21
184.312
  0
LINE
  8
0
 10
553.588
 20
184.312
 11
553.737
 21
184.427
  0
LINE
  8
0
 10
553.737
 20
184.427
 11
553.893
 21
184.533
  0
LINE
  8
0
 10
553.893
 20
184.533
 11
554.055
 21
184.629
  0
LINE
  8
0
 10
554.055
 20
184.629
 11
554.223
 21
184.714
  0
LINE
  8
0
 10
554.223
 20
184.714
 11
554.396
 21
184.789
  0
LINE
  8
0
 10
554.396
 20
184.789
 11
554.573
 21
184.853
  0
LINE
  8
0
 10
554.573
 20
184.853
 11
554.754
 21
184.906
  0
LINE
  8
0
 10
554.754
 20
184.906
 11
554.938
 21
184.947
  0
LINE
  8
0
 10
554.938
 20
184.947
 11
555.124
 21
184.976
  0
LINE
  8
0
 10
555.124
 20
184.976
 11
555.312
 21
184.994
  0
LINE
  8
0
 10
555.312
 20
184.994
 11
555.5
 21
185
  0
LINE
  8
0
 10
555.5
 20
185
 11
555.688
 21
184.994
  0
LINE
  8
0
 10
555.688
 20
184.994
 11
555.876
 21
184.976
  0
LINE
  8
0
 10
555.876
 20
184.976
 11
556.062
 21
184.947
  0
LINE
  8
0
 10
556.062
 20
184.947
 11
556.246
 21
184.906
  0
LINE
  8
0
 10
556.246
 20
184.906
 11
556.427
 21
184.853
  0
LINE
  8
0
 10
556.427
 20
184.853
 11
556.604
 21
184.789
  0
LINE
  8
0
 10
556.604
 20
184.789
 11
556.777
 21
184.714
  0
LINE
  8
0
 10
556.777
 20
184.714
 11
556.945
 21
184.629
  0
LINE
  8
0
 10
556.945
 20
184.629
 11
557.107
 21
184.533
  0
LINE
  8
0
 10
557.107
 20
184.533
 11
557.263
 21
184.427
  0
LINE
  8
0
 10
557.263
 20
184.427
 11
557.412
 21
184.312
  0
LINE
  8
0
 10
557.412
 20
184.312
 11
557.554
 21
184.187
  0
LINE
  8
0
 10
557.554
 20
184.187
 11
557.687
 21
184.054
  0
LINE
  8
0
 10
557.687
 20
184.054
 11
557.812
 21
183.912
  0
LINE
  8
0
 10
557.812
 20
183.912
 11
557.927
 21
183.763
  0
LINE
  8
0
 10
557.927
 20
183.763
 11
558.033
 21
183.607
  0
LINE
  8
0
 10
558.033
 20
183.607
 11
558.129
 21
183.445
  0
LINE
  8
0
 10
558.129
 20
183.445
 11
558.214
 21
183.277
  0
LINE
  8
0
 10
558.214
 20
183.277
 11
558.289
 21
183.104
  0
LINE
  8
0
 10
558.289
 20
183.104
 11
558.353
 21
182.927
  0
LINE
  8
0
 10
558.353
 20
182.927
 11
558.406
 21
182.746
  0
LINE
  8
0
 10
558.406
 20
182.746
 11
558.447
 21
182.562
  0
LINE
  8
0
 10
558.447
 20
182.562
 11
558.476
 21
182.376
  0
LINE
  8
0
 10
558.476
 20
182.376
 11
558.494
 21
182.188
  0
LINE
  8
0
 10
558.494
 20
182.188
 11
558.5
 21
182
  0
LINE
  8
0
 10
558.5
 20
182
 11
558.494
 21
181.812
  0
LINE
  8
0
 10
558.494
 20
181.812
 11
558.476
 21
181.624
  0
LINE
  8
0
 10
558.476
 20
181.624
 11
558.447
 21
181.438
  0
LINE
  8
0
 10
558.447
 20
181.438
 11
558.406
 21
181.254
  0
LINE
  8
0
 10
558.406
 20
181.254
 11
558.353
 21
181.073
  0
LINE
  8
0
 10
558.353
 20
181.073
 11
558.289
 21
180.896
  0
LINE
  8
0
 10
558.289
 20
180.896
 11
558.214
 21
180.723
  0
LINE
  8
0
 10
558.214
 20
180.723
 11
558.129
 21
180.555
  0
LINE
  8
0
 10
558.129
 20
180.555
 11
558.033
 21
180.393
  0
LINE
  8
0
 10
558.033
 20
180.393
 11
557.927
 21
180.237
  0
LINE
  8
0
 10
557.927
 20
180.237
 11
557.812
 21
180.088
  0
LINE
  8
0
 10
557.812
 20
180.088
 11
557.687
 21
179.946
  0
LINE
  8
0
 10
557.687
 20
179.946
 11
557.554
 21
179.813
  0
LINE
  8
0
 10
557.554
 20
179.813
 11
557.412
 21
179.688
  0
LINE
  8
0
 10
557.412
 20
179.688
 11
557.263
 21
179.573
  0
LINE
  8
0
 10
557.263
 20
179.573
 11
557.107
 21
179.467
  0
LINE
  8
0
 10
557.107
 20
179.467
 11
556.945
 21
179.371
  0
LINE
  8
0
 10
556.945
 20
179.371
 11
556.777
 21
179.286
  0
LINE
  8
0
 10
556.777
 20
179.286
 11
556.604
 21
179.211
  0
LINE
  8
0
 10
556.604
 20
179.211
 11
556.427
 21
179.147
  0
LINE
  8
0
 10
556.427
 20
179.147
 11
556.246
 21
179.094
  0
LINE
  8
0
 10
556.246
 20
179.094
 11
556.062
 21
179.053
  0
LINE
  8
0
 10
556.062
 20
179.053
 11
555.876
 21
179.024
  0
LINE
  8
0
 10
555.876
 20
179.024
 11
555.688
 21
179.006
  0
LINE
  8
0
 10
555.688
 20
179.006
 11
555.5
 21
179
  0
LINE
  8
0
 10
555.5
 20
179
 11
555.312
 21
179.006
  0
LINE
  8
0
 10
555.312
 20
179.006
 11
555.124
 21
179.024
  0
LINE
  8
0
 10
555.124
 20
179.024
 11
554.938
 21
179.053
  0
LINE
  8
0
 10
554.938
 20
179.053
 11
554.754
 21
179.094
  0
LINE
  8
0
 10
554.754
 20
179.094
 11
554.573
 21
179.147
  0
LINE
  8
0
 10
554.573
 20
179.147
 11
554.396
 21
179.211
  0
LINE
  8
0
 10
554.396
 20
179.211
 11
554.223
 21
179.286
  0
LINE
  8
0
 10
554.223
 20
179.286
 11
554.055
 21
179.371
  0
LINE
  8
0
 10
554.055
 20
179.371
 11
553.893
 21
179.467
  0
LINE
  8
0
 10
553.893
 20
179.467
 11
553.737
 21
179.573
  0
LINE
  8
0
 10
553.737
 20
179.573
 11
553.588
 21
179.688
  0
LINE
  8
0
 10
553.588
 20
179.688
 11
553.446
 21
179.813
  0
LINE
  8
0
 10
553.446
 20
179.813
 11
553.313
 21
179.946
  0
LINE
  8
0
 10
553.313
 20
179.946
 11
553.188
 21
180.088
  0
LINE
  8
0
 10
553.188
 20
180.088
 11
553.073
 21
180.237
  0
LINE
  8
0
 10
553.073
 20
180.237
 11
552.967
 21
180.393
  0
LINE
  8
0
 10
552.967
 20
180.393
 11
552.871
 21
180.555
  0
LINE
  8
0
 10
552.871
 20
180.555
 11
552.786
 21
180.723
  0
LINE
  8
0
 10
552.786
 20
180.723
 11
552.711
 21
180.896
  0
LINE
  8
0
 10
552.711
 20
180.896
 11
552.647
 21
181.073
  0
LINE
  8
0
 10
552.647
 20
181.073
 11
552.594
 21
181.254
  0
LINE
  8
0
 10
552.594
 20
181.254
 11
552.553
 21
181.438
  0
LINE
  8
0
 10
552.553
 20
181.438
 11
552.524
 21
181.624
  0
LINE
  8
0
 10
552.524
 20
181.624
 11
552.506
 21
181.812
  0
LINE
  8
0
 10
552.506
 20
181.812
 11
552.5
 21
182
  0
ENDSEC
  0
SECTION
  2
OBJECTS
  0
DICTIONARY
  0
ENDSEC
  0
EOF
