  0
SECTION
  2
BLOCKS
  0
ENDSEC
  0
SECTION
  2
ENTITIES
  0
LINE
  8
0
 10
0
 20
0
 11
30
 21
0
  0
LINE
  8
0
 10
30
 20
0
 11
30
 21
230
  0
LINE
  8
0
 10
30
 20
230
 11
0
 21
230
  0
LINE
  8
0
 10
0
 20
230
 11
0
 21
0
  0
LINE
  8
0
 10
13
 20
9
 11
13.1522
 21
9.76537
  0
LINE
  8
0
 10
13.1522
 20
9.76537
 11
13.5858
 21
10.4142
  0
LINE
  8
0
 10
13.5858
 20
10.4142
 11
14.2346
 21
10.8478
  0
LINE
  8
0
 10
14.2346
 20
10.8478
 11
15
 21
11
  0
LINE
  8
0
 10
15
 20
11
 11
15.7654
 21
10.8478
  0
LINE
  8
0
 10
15.7654
 20
10.8478
 11
16.4142
 21
10.4142
  0
LINE
  8
0
 10
16.4142
 20
10.4142
 11
16.8478
 21
9.76537
  0
LINE
  8
0
 10
16.8478
 20
9.76537
 11
17
 21
9
  0
LINE
  8
0
 10
17
 20
9
 11
16.8478
 21
8.23463
  0
LINE
  8
0
 10
16.8478
 20
8.23463
 11
16.4142
 21
7.58579
  0
LINE
  8
0
 10
16.4142
 20
7.58579
 11
15.7654
 21
7.15224
  0
LINE
  8
0
 10
15.7654
 20
7.15224
 11
15
 21
7
  0
LINE
  8
0
 10
15
 20
7
 11
14.2346
 21
7.15224
  0
LINE
  8
0
 10
14.2346
 20
7.15224
 11
13.5858
 21
7.58579
  0
LINE
  8
0
 10
13.5858
 20
7.58579
 11
13.1522
 21
8.23463
  0
LINE
  8
0
 10
13.1522
 20
8.23463
 11
13
 21
9
  0
LINE
  8
0
 10
13
 20
221
 11
13.1522
 21
221.765
  0
LINE
  8
0
 10
13.1522
 20
221.765
 11
13.5858
 21
222.414
  0
LINE
  8
0
 10
13.5858
 20
222.414
 11
14.2346
 21
222.848
  0
LINE
  8
0
 10
14.2346
 20
222.848
 11
15
 21
223
  0
LINE
  8
0
 10
15
 20
223
 11
15.7654
 21
222.848
  0
LINE
  8
0
 10
15.7654
 20
222.848
 11
16.4142
 21
222.414
  0
LINE
  8
0
 10
16.4142
 20
222.414
 11
16.8478
 21
221.765
  0
LINE
  8
0
 10
16.8478
 20
221.765
 11
17
 21
221
  0
LINE
  8
0
 10
17
 20
221
 11
16.8478
 21
220.235
  0
LINE
  8
0
 10
16.8478
 20
220.235
 11
16.4142
 21
219.586
  0
LINE
  8
0
 10
16.4142
 20
219.586
 11
15.7654
 21
219.152
  0
LINE
  8
0
 10
15.7654
 20
219.152
 11
15
 21
219
  0
LINE
  8
0
 10
15
 20
219
 11
14.2346
 21
219.152
  0
LINE
  8
0
 10
14.2346
 20
219.152
 11
13.5858
 21
219.586
  0
LINE
  8
0
 10
13.5858
 20
219.586
 11
13.1522
 21
220.235
  0
LINE
  8
0
 10
13.1522
 20
220.235
 11
13
 21
221
  0
ENDSEC
  0
SECTION
  2
OBJECTS
  0
DICTIONARY
  0
ENDSEC
  0
EOF
