  0
SECTION
  2
BLOCKS
  0
ENDSEC
  0
SECTION
  2
ENTITIES
  0
LINE
  8
0
 10
0
 20
0
 11
30
 21
0
  0
LINE
  8
0
 10
30
 20
0
 11
30
 21
230
  0
LINE
  8
0
 10
30
 20
230
 11
0
 21
230
  0
LINE
  8
0
 10
0
 20
230
 11
0
 21
0
  0
LINE
  8
0
 10
13
 20
9
 11
13.0039
 21
9.12558
  0
LINE
  8
0
 10
13.0039
 20
9.12558
 11
13.0158
 21
9.25067
  0
LINE
  8
0
 10
13.0158
 20
9.25067
 11
13.0354
 21
9.37476
  0
LINE
  8
0
 10
13.0354
 20
9.37476
 11
13.0628
 21
9.49738
  0
LINE
  8
0
 10
13.0628
 20
9.49738
 11
13.0979
 21
9.61803
  0
LINE
  8
0
 10
13.0979
 20
9.61803
 11
13.1404
 21
9.73625
  0
LINE
  8
0
 10
13.1404
 20
9.73625
 11
13.1903
 21
9.85156
  0
LINE
  8
0
 10
13.1903
 20
9.85156
 11
13.2474
 21
9.96351
  0
LINE
  8
0
 10
13.2474
 20
9.96351
 11
13.3113
 21
10.0717
  0
LINE
  8
0
 10
13.3113
 20
10.0717
 11
13.382
 21
10.1756
  0
LINE
  8
0
 10
13.382
 20
10.1756
 11
13.459
 21
10.2748
  0
LINE
  8
0
 10
13.459
 20
10.2748
 11
13.5421
 21
10.3691
  0
LINE
  8
0
 10
13.5421
 20
10.3691
 11
13.6309
 21
10.4579
  0
LINE
  8
0
 10
13.6309
 20
10.4579
 11
13.7252
 21
10.541
  0
LINE
  8
0
 10
13.7252
 20
10.541
 11
13.8244
 21
10.618
  0
LINE
  8
0
 10
13.8244
 20
10.618
 11
13.9283
 21
10.6887
  0
LINE
  8
0
 10
13.9283
 20
10.6887
 11
14.0365
 21
10.7526
  0
LINE
  8
0
 10
14.0365
 20
10.7526
 11
14.1484
 21
10.8097
  0
LINE
  8
0
 10
14.1484
 20
10.8097
 11
14.2638
 21
10.8596
  0
LINE
  8
0
 10
14.2638
 20
10.8596
 11
14.382
 21
10.9021
  0
LINE
  8
0
 10
14.382
 20
10.9021
 11
14.5026
 21
10.9372
  0
LINE
  8
0
 10
14.5026
 20
10.9372
 11
14.6252
 21
10.9646
  0
LINE
  8
0
 10
14.6252
 20
10.9646
 11
14.7493
 21
10.9842
  0
LINE
  8
0
 10
14.7493
 20
10.9842
 11
14.8744
 21
10.9961
  0
LINE
  8
0
 10
14.8744
 20
10.9961
 11
15
 21
11
  0
LINE
  8
0
 10
15
 20
11
 11
15.1256
 21
10.9961
  0
LINE
  8
0
 10
15.1256
 20
10.9961
 11
15.2507
 21
10.9842
  0
LINE
  8
0
 10
15.2507
 20
10.9842
 11
15.3748
 21
10.9646
  0
LINE
  8
0
 10
15.3748
 20
10.9646
 11
15.4974
 21
10.9372
  0
LINE
  8
0
 10
15.4974
 20
10.9372
 11
15.618
 21
10.9021
  0
LINE
  8
0
 10
15.618
 20
10.9021
 11
15.7362
 21
10.8596
  0
LINE
  8
0
 10
15.7362
 20
10.8596
 11
15.8516
 21
10.8097
  0
LINE
  8
0
 10
15.8516
 20
10.8097
 11
15.9635
 21
10.7526
  0
LINE
  8
0
 10
15.9635
 20
10.7526
 11
16.0717
 21
10.6887
  0
LINE
  8
0
 10
16.0717
 20
10.6887
 11
16.1756
 21
10.618
  0
LINE
  8
0
 10
16.1756
 20
10.618
 11
16.2748
 21
10.541
  0
LINE
  8
0
 10
16.2748
 20
10.541
 11
16.3691
 21
10.4579
  0
LINE
  8
0
 10
16.3691
 20
10.4579
 11
16.4579
 21
10.3691
  0
LINE
  8
0
 10
16.4579
 20
10.3691
 11
16.541
 21
10.2748
  0
LINE
  8
0
 10
16.541
 20
10.2748
 11
16.618
 21
10.1756
  0
LINE
  8
0
 10
16.618
 20
10.1756
 11
16.6887
 21
10.0717
  0
LINE
  8
0
 10
16.6887
 20
10.0717
 11
16.7526
 21
9.96351
  0
LINE
  8
0
 10
16.7526
 20
9.96351
 11
16.8097
 21
9.85156
  0
LINE
  8
0
 10
16.8097
 20
9.85156
 11
16.8596
 21
9.73625
  0
LINE
  8
0
 10
16.8596
 20
9.73625
 11
16.9021
 21
9.61803
  0
LINE
  8
0
 10
16.9021
 20
9.61803
 11
16.9372
 21
9.49738
  0
LINE
  8
0
 10
16.9372
 20
9.49738
 11
16.9646
 21
9.37476
  0
LINE
  8
0
 10
16.9646
 20
9.37476
 11
16.9842
 21
9.25067
  0
LINE
  8
0
 10
16.9842
 20
9.25067
 11
16.9961
 21
9.12558
  0
LINE
  8
0
 10
16.9961
 20
9.12558
 11
17
 21
9
  0
LINE
  8
0
 10
17
 20
9
 11
16.9961
 21
8.87442
  0
LINE
  8
0
 10
16.9961
 20
8.87442
 11
16.9842
 21
8.74933
  0
LINE
  8
0
 10
16.9842
 20
8.74933
 11
16.9646
 21
8.62524
  0
LINE
  8
0
 10
16.9646
 20
8.62524
 11
16.9372
 21
8.50262
  0
LINE
  8
0
 10
16.9372
 20
8.50262
 11
16.9021
 21
8.38197
  0
LINE
  8
0
 10
16.9021
 20
8.38197
 11
16.8596
 21
8.26375
  0
LINE
  8
0
 10
16.8596
 20
8.26375
 11
16.8097
 21
8.14844
  0
LINE
  8
0
 10
16.8097
 20
8.14844
 11
16.7526
 21
8.03649
  0
LINE
  8
0
 10
16.7526
 20
8.03649
 11
16.6887
 21
7.92835
  0
LINE
  8
0
 10
16.6887
 20
7.92835
 11
16.618
 21
7.82443
  0
LINE
  8
0
 10
16.618
 20
7.82443
 11
16.541
 21
7.72515
  0
LINE
  8
0
 10
16.541
 20
7.72515
 11
16.4579
 21
7.63091
  0
LINE
  8
0
 10
16.4579
 20
7.63091
 11
16.3691
 21
7.54206
  0
LINE
  8
0
 10
16.3691
 20
7.54206
 11
16.2748
 21
7.45897
  0
LINE
  8
0
 10
16.2748
 20
7.45897
 11
16.1756
 21
7.38197
  0
LINE
  8
0
 10
16.1756
 20
7.38197
 11
16.0717
 21
7.31134
  0
LINE
  8
0
 10
16.0717
 20
7.31134
 11
15.9635
 21
7.24739
  0
LINE
  8
0
 10
15.9635
 20
7.24739
 11
15.8516
 21
7.19035
  0
LINE
  8
0
 10
15.8516
 20
7.19035
 11
15.7362
 21
7.14045
  0
LINE
  8
0
 10
15.7362
 20
7.14045
 11
15.618
 21
7.09789
  0
LINE
  8
0
 10
15.618
 20
7.09789
 11
15.4974
 21
7.06283
  0
LINE
  8
0
 10
15.4974
 20
7.06283
 11
15.3748
 21
7.03543
  0
LINE
  8
0
 10
15.3748
 20
7.03543
 11
15.2507
 21
7.01577
  0
LINE
  8
0
 10
15.2507
 20
7.01577
 11
15.1256
 21
7.00395
  0
LINE
  8
0
 10
15.1256
 20
7.00395
 11
15
 21
7
  0
LINE
  8
0
 10
15
 20
7
 11
14.8744
 21
7.00395
  0
LINE
  8
0
 10
14.8744
 20
7.00395
 11
14.7493
 21
7.01577
  0
LINE
  8
0
 10
14.7493
 20
7.01577
 11
14.6252
 21
7.03543
  0
LINE
  8
0
 10
14.6252
 20
7.03543
 11
14.5026
 21
7.06283
  0
LINE
  8
0
 10
14.5026
 20
7.06283
 11
14.382
 21
7.09789
  0
LINE
  8
0
 10
14.382
 20
7.09789
 11
14.2638
 21
7.14045
  0
LINE
  8
0
 10
14.2638
 20
7.14045
 11
14.1484
 21
7.19035
  0
LINE
  8
0
 10
14.1484
 20
7.19035
 11
14.0365
 21
7.24739
  0
LINE
  8
0
 10
14.0365
 20
7.24739
 11
13.9283
 21
7.31134
  0
LINE
  8
0
 10
13.9283
 20
7.31134
 11
13.8244
 21
7.38197
  0
LINE
  8
0
 10
13.8244
 20
7.38197
 11
13.7252
 21
7.45897
  0
LINE
  8
0
 10
13.7252
 20
7.45897
 11
13.6309
 21
7.54206
  0
LINE
  8
0
 10
13.6309
 20
7.54206
 11
13.5421
 21
7.63091
  0
LINE
  8
0
 10
13.5421
 20
7.63091
 11
13.459
 21
7.72515
  0
LINE
  8
0
 10
13.459
 20
7.72515
 11
13.382
 21
7.82443
  0
LINE
  8
0
 10
13.382
 20
7.82443
 11
13.3113
 21
7.92835
  0
LINE
  8
0
 10
13.3113
 20
7.92835
 11
13.2474
 21
8.03649
  0
LINE
  8
0
 10
13.2474
 20
8.03649
 11
13.1903
 21
8.14844
  0
LINE
  8
0
 10
13.1903
 20
8.14844
 11
13.1404
 21
8.26375
  0
LINE
  8
0
 10
13.1404
 20
8.26375
 11
13.0979
 21
8.38197
  0
LINE
  8
0
 10
13.0979
 20
8.38197
 11
13.0628
 21
8.50262
  0
LINE
  8
0
 10
13.0628
 20
8.50262
 11
13.0354
 21
8.62524
  0
LINE
  8
0
 10
13.0354
 20
8.62524
 11
13.0158
 21
8.74933
  0
LINE
  8
0
 10
13.0158
 20
8.74933
 11
13.0039
 21
8.87442
  0
LINE
  8
0
 10
13.0039
 20
8.87442
 11
13
 21
9
  0
LINE
  8
0
 10
13
 20
221
 11
13.0039
 21
221.126
  0
LINE
  8
0
 10
13.0039
 20
221.126
 11
13.0158
 21
221.251
  0
LINE
  8
0
 10
13.0158
 20
221.251
 11
13.0354
 21
221.375
  0
LINE
  8
0
 10
13.0354
 20
221.375
 11
13.0628
 21
221.497
  0
LINE
  8
0
 10
13.0628
 20
221.497
 11
13.0979
 21
221.618
  0
LINE
  8
0
 10
13.0979
 20
221.618
 11
13.1404
 21
221.736
  0
LINE
  8
0
 10
13.1404
 20
221.736
 11
13.1903
 21
221.852
  0
LINE
  8
0
 10
13.1903
 20
221.852
 11
13.2474
 21
221.964
  0
LINE
  8
0
 10
13.2474
 20
221.964
 11
13.3113
 21
222.072
  0
LINE
  8
0
 10
13.3113
 20
222.072
 11
13.382
 21
222.176
  0
LINE
  8
0
 10
13.382
 20
222.176
 11
13.459
 21
222.275
  0
LINE
  8
0
 10
13.459
 20
222.275
 11
13.5421
 21
222.369
  0
LINE
  8
0
 10
13.5421
 20
222.369
 11
13.6309
 21
222.458
  0
LINE
  8
0
 10
13.6309
 20
222.458
 11
13.7252
 21
222.541
  0
LINE
  8
0
 10
13.7252
 20
222.541
 11
13.8244
 21
222.618
  0
LINE
  8
0
 10
13.8244
 20
222.618
 11
13.9283
 21
222.689
  0
LINE
  8
0
 10
13.9283
 20
222.689
 11
14.0365
 21
222.753
  0
LINE
  8
0
 10
14.0365
 20
222.753
 11
14.1484
 21
222.81
  0
LINE
  8
0
 10
14.1484
 20
222.81
 11
14.2638
 21
222.86
  0
LINE
  8
0
 10
14.2638
 20
222.86
 11
14.382
 21
222.902
  0
LINE
  8
0
 10
14.382
 20
222.902
 11
14.5026
 21
222.937
  0
LINE
  8
0
 10
14.5026
 20
222.937
 11
14.6252
 21
222.965
  0
LINE
  8
0
 10
14.6252
 20
222.965
 11
14.7493
 21
222.984
  0
LINE
  8
0
 10
14.7493
 20
222.984
 11
14.8744
 21
222.996
  0
LINE
  8
0
 10
14.8744
 20
222.996
 11
15
 21
223
  0
LINE
  8
0
 10
15
 20
223
 11
15.1256
 21
222.996
  0
LINE
  8
0
 10
15.1256
 20
222.996
 11
15.2507
 21
222.984
  0
LINE
  8
0
 10
15.2507
 20
222.984
 11
15.3748
 21
222.965
  0
LINE
  8
0
 10
15.3748
 20
222.965
 11
15.4974
 21
222.937
  0
LINE
  8
0
 10
15.4974
 20
222.937
 11
15.618
 21
222.902
  0
LINE
  8
0
 10
15.618
 20
222.902
 11
15.7362
 21
222.86
  0
LINE
  8
0
 10
15.7362
 20
222.86
 11
15.8516
 21
222.81
  0
LINE
  8
0
 10
15.8516
 20
222.81
 11
15.9635
 21
222.753
  0
LINE
  8
0
 10
15.9635
 20
222.753
 11
16.0717
 21
222.689
  0
LINE
  8
0
 10
16.0717
 20
222.689
 11
16.1756
 21
222.618
  0
LINE
  8
0
 10
16.1756
 20
222.618
 11
16.2748
 21
222.541
  0
LINE
  8
0
 10
16.2748
 20
222.541
 11
16.3691
 21
222.458
  0
LINE
  8
0
 10
16.3691
 20
222.458
 11
16.4579
 21
222.369
  0
LINE
  8
0
 10
16.4579
 20
222.369
 11
16.541
 21
222.275
  0
LINE
  8
0
 10
16.541
 20
222.275
 11
16.618
 21
222.176
  0
LINE
  8
0
 10
16.618
 20
222.176
 11
16.6887
 21
222.072
  0
LINE
  8
0
 10
16.6887
 20
222.072
 11
16.7526
 21
221.964
  0
LINE
  8
0
 10
16.7526
 20
221.964
 11
16.8097
 21
221.852
  0
LINE
  8
0
 10
16.8097
 20
221.852
 11
16.8596
 21
221.736
  0
LINE
  8
0
 10
16.8596
 20
221.736
 11
16.9021
 21
221.618
  0
LINE
  8
0
 10
16.9021
 20
221.618
 11
16.9372
 21
221.497
  0
LINE
  8
0
 10
16.9372
 20
221.497
 11
16.9646
 21
221.375
  0
LINE
  8
0
 10
16.9646
 20
221.375
 11
16.9842
 21
221.251
  0
LINE
  8
0
 10
16.9842
 20
221.251
 11
16.9961
 21
221.126
  0
LINE
  8
0
 10
16.9961
 20
221.126
 11
17
 21
221
  0
LINE
  8
0
 10
17
 20
221
 11
16.9961
 21
220.874
  0
LINE
  8
0
 10
16.9961
 20
220.874
 11
16.9842
 21
220.749
  0
LINE
  8
0
 10
16.9842
 20
220.749
 11
16.9646
 21
220.625
  0
LINE
  8
0
 10
16.9646
 20
220.625
 11
16.9372
 21
220.503
  0
LINE
  8
0
 10
16.9372
 20
220.503
 11
16.9021
 21
220.382
  0
LINE
  8
0
 10
16.9021
 20
220.382
 11
16.8596
 21
220.264
  0
LINE
  8
0
 10
16.8596
 20
220.264
 11
16.8097
 21
220.148
  0
LINE
  8
0
 10
16.8097
 20
220.148
 11
16.7526
 21
220.036
  0
LINE
  8
0
 10
16.7526
 20
220.036
 11
16.6887
 21
219.928
  0
LINE
  8
0
 10
16.6887
 20
219.928
 11
16.618
 21
219.824
  0
LINE
  8
0
 10
16.618
 20
219.824
 11
16.541
 21
219.725
  0
LINE
  8
0
 10
16.541
 20
219.725
 11
16.4579
 21
219.631
  0
LINE
  8
0
 10
16.4579
 20
219.631
 11
16.3691
 21
219.542
  0
LINE
  8
0
 10
16.3691
 20
219.542
 11
16.2748
 21
219.459
  0
LINE
  8
0
 10
16.2748
 20
219.459
 11
16.1756
 21
219.382
  0
LINE
  8
0
 10
16.1756
 20
219.382
 11
16.0717
 21
219.311
  0
LINE
  8
0
 10
16.0717
 20
219.311
 11
15.9635
 21
219.247
  0
LINE
  8
0
 10
15.9635
 20
219.247
 11
15.8516
 21
219.19
  0
LINE
  8
0
 10
15.8516
 20
219.19
 11
15.7362
 21
219.14
  0
LINE
  8
0
 10
15.7362
 20
219.14
 11
15.618
 21
219.098
  0
LINE
  8
0
 10
15.618
 20
219.098
 11
15.4974
 21
219.063
  0
LINE
  8
0
 10
15.4974
 20
219.063
 11
15.3748
 21
219.035
  0
LINE
  8
0
 10
15.3748
 20
219.035
 11
15.2507
 21
219.016
  0
LINE
  8
0
 10
15.2507
 20
219.016
 11
15.1256
 21
219.004
  0
LINE
  8
0
 10
15.1256
 20
219.004
 11
15
 21
219
  0
LINE
  8
0
 10
15
 20
219
 11
14.8744
 21
219.004
  0
LINE
  8
0
 10
14.8744
 20
219.004
 11
14.7493
 21
219.016
  0
LINE
  8
0
 10
14.7493
 20
219.016
 11
14.6252
 21
219.035
  0
LINE
  8
0
 10
14.6252
 20
219.035
 11
14.5026
 21
219.063
  0
LINE
  8
0
 10
14.5026
 20
219.063
 11
14.382
 21
219.098
  0
LINE
  8
0
 10
14.382
 20
219.098
 11
14.2638
 21
219.14
  0
LINE
  8
0
 10
14.2638
 20
219.14
 11
14.1484
 21
219.19
  0
LINE
  8
0
 10
14.1484
 20
219.19
 11
14.0365
 21
219.247
  0
LINE
  8
0
 10
14.0365
 20
219.247
 11
13.9283
 21
219.311
  0
LINE
  8
0
 10
13.9283
 20
219.311
 11
13.8244
 21
219.382
  0
LINE
  8
0
 10
13.8244
 20
219.382
 11
13.7252
 21
219.459
  0
LINE
  8
0
 10
13.7252
 20
219.459
 11
13.6309
 21
219.542
  0
LINE
  8
0
 10
13.6309
 20
219.542
 11
13.5421
 21
219.631
  0
LINE
  8
0
 10
13.5421
 20
219.631
 11
13.459
 21
219.725
  0
LINE
  8
0
 10
13.459
 20
219.725
 11
13.382
 21
219.824
  0
LINE
  8
0
 10
13.382
 20
219.824
 11
13.3113
 21
219.928
  0
LINE
  8
0
 10
13.3113
 20
219.928
 11
13.2474
 21
220.036
  0
LINE
  8
0
 10
13.2474
 20
220.036
 11
13.1903
 21
220.148
  0
LINE
  8
0
 10
13.1903
 20
220.148
 11
13.1404
 21
220.264
  0
LINE
  8
0
 10
13.1404
 20
220.264
 11
13.0979
 21
220.382
  0
LINE
  8
0
 10
13.0979
 20
220.382
 11
13.0628
 21
220.503
  0
LINE
  8
0
 10
13.0628
 20
220.503
 11
13.0354
 21
220.625
  0
LINE
  8
0
 10
13.0354
 20
220.625
 11
13.0158
 21
220.749
  0
LINE
  8
0
 10
13.0158
 20
220.749
 11
13.0039
 21
220.874
  0
LINE
  8
0
 10
13.0039
 20
220.874
 11
13
 21
221
  0
ENDSEC
  0
SECTION
  2
OBJECTS
  0
DICTIONARY
  0
ENDSEC
  0
EOF
