solid OpenSCAD_Model
  facet normal 0 -0.19509040787318935 0.9807852633251952
    outer loop
      vertex 0 50.76536560058594 7.652240753173828
      vertex 30 50 7.5
      vertex 30 50.76536560058594 7.652240753173828
    endloop
  endfacet
  facet normal 0 -0.19509040787318935 0.9807852633251952
    outer loop
      vertex 30 50 7.5
      vertex 0 50.76536560058594 7.652240753173828
      vertex 0 50 7.5
    endloop
  endfacet
  facet normal 0 -0.980785309838386 -0.19509017403555015
    outer loop
      vertex 0 52 9.5
      vertex 30 51.84775924682617 10.265366554260254
      vertex 0 51.84775924682617 10.265366554260254
    endloop
  endfacet
  facet normal 0 -0.980785309838386 -0.19509017403555015
    outer loop
      vertex 30 51.84775924682617 10.265366554260254
      vertex 0 52 9.5
      vertex 30 52 9.5
    endloop
  endfacet
  facet normal 0 -0.19509158345481067 -0.9807850294866326
    outer loop
      vertex 0 50 11.5
      vertex 30 50.76536560058594 11.347758293151855
      vertex 30 50 11.5
    endloop
  endfacet
  facet normal 0 -0.19509158345481067 -0.9807850294866326
    outer loop
      vertex 30 50.76536560058594 11.347758293151855
      vertex 0 50 11.5
      vertex 0 50.76536560058594 11.347758293151855
    endloop
  endfacet
  facet normal 0 -0.9807853563514094 0.1950899401984604
    outer loop
      vertex 0 51.84775924682617 8.73463249206543
      vertex 30 52 9.5
      vertex 0 52 9.5
    endloop
  endfacet
  facet normal 0 -0.9807853563514094 0.1950899401984604
    outer loop
      vertex 30 52 9.5
      vertex 0 51.84775924682617 8.73463249206543
      vertex 30 51.84775924682617 8.73463249206543
    endloop
  endfacet
  facet normal 0 0.19509040787318935 0.9807852633251952
    outer loop
      vertex 0 50 7.5
      vertex 30 49.23463439941406 7.652240753173828
      vertex 30 50 7.5
    endloop
  endfacet
  facet normal 0 0.19509040787318935 0.9807852633251952
    outer loop
      vertex 30 49.23463439941406 7.652240753173828
      vertex 0 50 7.5
      vertex 0 49.23463439941406 7.652240753173828
    endloop
  endfacet
  facet normal 0 0.8314703794967792 -0.5555690848305744
    outer loop
      vertex 30 48.15224075317383 10.265366554260254
      vertex 0 48.585784912109375 10.914213180541992
      vertex 30 48.585784912109375 10.914213180541992
    endloop
  endfacet
  facet normal 0 0.8314703794967792 -0.5555690848305744
    outer loop
      vertex 0 48.585784912109375 10.914213180541992
      vertex 30 48.15224075317383 10.265366554260254
      vertex 0 48.15224075317383 10.265366554260254
    endloop
  endfacet
  facet normal 0 0.9807853563514094 0.1950899401984604
    outer loop
      vertex 30 48.15224075317383 8.73463249206543
      vertex 0 48 9.5
      vertex 30 48 9.5
    endloop
  endfacet
  facet normal 0 0.9807853563514094 0.1950899401984604
    outer loop
      vertex 0 48 9.5
      vertex 30 48.15224075317383 8.73463249206543
      vertex 0 48.15224075317383 8.73463249206543
    endloop
  endfacet
  facet normal 0 -0.8314703794967792 -0.5555690848305744
    outer loop
      vertex 0 51.84775924682617 10.265366554260254
      vertex 30 51.414215087890625 10.914213180541992
      vertex 0 51.414215087890625 10.914213180541992
    endloop
  endfacet
  facet normal 0 -0.8314703794967792 -0.5555690848305744
    outer loop
      vertex 30 51.414215087890625 10.914213180541992
      vertex 0 51.84775924682617 10.265366554260254
      vertex 30 51.84775924682617 10.265366554260254
    endloop
  endfacet
  facet normal 0 -0.5555682361196549 0.8314709465849636
    outer loop
      vertex 0 51.414215087890625 8.085785865783691
      vertex 30 50.76536560058594 7.652240753173828
      vertex 30 51.414215087890625 8.085785865783691
    endloop
  endfacet
  facet normal 0 -0.5555682361196549 0.8314709465849636
    outer loop
      vertex 30 50.76536560058594 7.652240753173828
      vertex 0 51.414215087890625 8.085785865783691
      vertex 0 50.76536560058594 7.652240753173828
    endloop
  endfacet
  facet normal 0 0.8314703794967792 0.5555690848305744
    outer loop
      vertex 30 48.585784912109375 8.085785865783691
      vertex 0 48.15224075317383 8.73463249206543
      vertex 30 48.15224075317383 8.73463249206543
    endloop
  endfacet
  facet normal 0 0.8314703794967792 0.5555690848305744
    outer loop
      vertex 0 48.15224075317383 8.73463249206543
      vertex 30 48.585784912109375 8.085785865783691
      vertex 0 48.585784912109375 8.085785865783691
    endloop
  endfacet
  facet normal -1 0 0
    outer loop
      vertex 0 230 0
      vertex 0 182 9.5
      vertex 0 230 19
    endloop
  endfacet
  facet normal -1 0 0
    outer loop
      vertex 0 230 0
      vertex 0 181.84776306152344 8.73463249206543
      vertex 0 182 9.5
    endloop
  endfacet
  facet normal -1 0 0
    outer loop
      vertex 0 230 0
      vertex 0 181.41421508789062 8.085785865783691
      vertex 0 181.84776306152344 8.73463249206543
    endloop
  endfacet
  facet normal -1 0 0
    outer loop
      vertex 0 230 0
      vertex 0 180.76536560058594 7.652240753173828
      vertex 0 181.41421508789062 8.085785865783691
    endloop
  endfacet
  facet normal -1 0 0
    outer loop
      vertex 0 230 0
      vertex 0 180 7.5
      vertex 0 180.76536560058594 7.652240753173828
    endloop
  endfacet
  facet normal -1 0 0
    outer loop
      vertex 0 178.15223693847656 8.73463249206543
      vertex 0 52 9.5
      vertex 0 178 9.5
    endloop
  endfacet
  facet normal -1 0 0
    outer loop
      vertex 0 51.84775924682617 8.73463249206543
      vertex 0 178.15223693847656 8.73463249206543
      vertex 0 178.58578491210938 8.085785865783691
    endloop
  endfacet
  facet normal -1 0 0
    outer loop
      vertex 0 51.414215087890625 8.085785865783691
      vertex 0 178.58578491210938 8.085785865783691
      vertex 0 179.23463439941406 7.652240753173828
    endloop
  endfacet
  facet normal -1 0 0
    outer loop
      vertex 0 50.76536560058594 7.652240753173828
      vertex 0 179.23463439941406 7.652240753173828
      vertex 0 180 7.5
    endloop
  endfacet
  facet normal -1 0 0
    outer loop
      vertex 0 50 7.5
      vertex 0 180 7.5
      vertex 0 230 0
    endloop
  endfacet
  facet normal -1 0 0
    outer loop
      vertex 0 178.15223693847656 8.73463249206543
      vertex 0 51.84775924682617 8.73463249206543
      vertex 0 52 9.5
    endloop
  endfacet
  facet normal -1 0 0
    outer loop
      vertex 0 178.58578491210938 8.085785865783691
      vertex 0 51.414215087890625 8.085785865783691
      vertex 0 51.84775924682617 8.73463249206543
    endloop
  endfacet
  facet normal -1 0 0
    outer loop
      vertex 0 179.23463439941406 7.652240753173828
      vertex 0 50.76536560058594 7.652240753173828
      vertex 0 51.414215087890625 8.085785865783691
    endloop
  endfacet
  facet normal -1 0 0
    outer loop
      vertex 0 180 7.5
      vertex 0 50 7.5
      vertex 0 50.76536560058594 7.652240753173828
    endloop
  endfacet
  facet normal -1 0 0
    outer loop
      vertex 0 48.15224075317383 8.73463249206543
      vertex 0 0 0
      vertex 0 48 9.5
    endloop
  endfacet
  facet normal -1 0 0
    outer loop
      vertex 0 48.585784912109375 8.085785865783691
      vertex 0 0 0
      vertex 0 48.15224075317383 8.73463249206543
    endloop
  endfacet
  facet normal -1 0 0
    outer loop
      vertex 0 49.23463439941406 7.652240753173828
      vertex 0 0 0
      vertex 0 48.585784912109375 8.085785865783691
    endloop
  endfacet
  facet normal -1 0 0
    outer loop
      vertex 0 50 7.5
      vertex 0 0 0
      vertex 0 49.23463439941406 7.652240753173828
    endloop
  endfacet
  facet normal -1 0 0
    outer loop
      vertex 0 0 0
      vertex 0 50 7.5
      vertex 0 230 0
    endloop
  endfacet
  facet normal -1 0 0
    outer loop
      vertex 0 181.84776306152344 10.265366554260254
      vertex 0 230 19
      vertex 0 182 9.5
    endloop
  endfacet
  facet normal -1 0 0
    outer loop
      vertex 0 181.41421508789062 10.914213180541992
      vertex 0 230 19
      vertex 0 181.84776306152344 10.265366554260254
    endloop
  endfacet
  facet normal -1 0 0
    outer loop
      vertex 0 180.76536560058594 11.347758293151855
      vertex 0 230 19
      vertex 0 181.41421508789062 10.914213180541992
    endloop
  endfacet
  facet normal -1 0 0
    outer loop
      vertex 0 180 11.5
      vertex 0 230 19
      vertex 0 180.76536560058594 11.347758293151855
    endloop
  endfacet
  facet normal -1 0 0
    outer loop
      vertex 0 52 9.5
      vertex 0 178.15223693847656 10.265366554260254
      vertex 0 178 9.5
    endloop
  endfacet
  facet normal -1 0 0
    outer loop
      vertex 0 51.84775924682617 10.265366554260254
      vertex 0 178.15223693847656 10.265366554260254
      vertex 0 52 9.5
    endloop
  endfacet
  facet normal -1 0 0
    outer loop
      vertex 0 178.15223693847656 10.265366554260254
      vertex 0 51.84775924682617 10.265366554260254
      vertex 0 178.58578491210938 10.914213180541992
    endloop
  endfacet
  facet normal -1 0 0
    outer loop
      vertex 0 51.414215087890625 10.914213180541992
      vertex 0 178.58578491210938 10.914213180541992
      vertex 0 51.84775924682617 10.265366554260254
    endloop
  endfacet
  facet normal -1 0 0
    outer loop
      vertex 0 178.58578491210938 10.914213180541992
      vertex 0 51.414215087890625 10.914213180541992
      vertex 0 179.23463439941406 11.347758293151855
    endloop
  endfacet
  facet normal -1 0 0
    outer loop
      vertex 0 50.76536560058594 11.347758293151855
      vertex 0 179.23463439941406 11.347758293151855
      vertex 0 51.414215087890625 10.914213180541992
    endloop
  endfacet
  facet normal -1 0 0
    outer loop
      vertex 0 179.23463439941406 11.347758293151855
      vertex 0 50.76536560058594 11.347758293151855
      vertex 0 180 11.5
    endloop
  endfacet
  facet normal -1 0 0
    outer loop
      vertex 0 50 11.5
      vertex 0 180 11.5
      vertex 0 50.76536560058594 11.347758293151855
    endloop
  endfacet
  facet normal -1 0 0
    outer loop
      vertex 0 180 11.5
      vertex 0 50 11.5
      vertex 0 230 19
    endloop
  endfacet
  facet normal -1 0 0
    outer loop
      vertex 0 0 19
      vertex 0 48 9.5
      vertex 0 0 0
    endloop
  endfacet
  facet normal -1 0 0
    outer loop
      vertex 0 48 9.5
      vertex 0 0 19
      vertex 0 48.15224075317383 10.265366554260254
    endloop
  endfacet
  facet normal -1 0 0
    outer loop
      vertex 0 48.15224075317383 10.265366554260254
      vertex 0 0 19
      vertex 0 48.585784912109375 10.914213180541992
    endloop
  endfacet
  facet normal -1 0 0
    outer loop
      vertex 0 50 11.5
      vertex 0 0 19
      vertex 0 230 19
    endloop
  endfacet
  facet normal -1 0 0
    outer loop
      vertex 0 49.23463439941406 11.347758293151855
      vertex 0 0 19
      vertex 0 50 11.5
    endloop
  endfacet
  facet normal -1 0 0
    outer loop
      vertex 0 48.585784912109375 10.914213180541992
      vertex 0 0 19
      vertex 0 49.23463439941406 11.347758293151855
    endloop
  endfacet
  facet normal 0 0.980785309838386 -0.19509017403555015
    outer loop
      vertex 30 48 9.5
      vertex 0 48.15224075317383 10.265366554260254
      vertex 30 48.15224075317383 10.265366554260254
    endloop
  endfacet
  facet normal 0 0.980785309838386 -0.19509017403555015
    outer loop
      vertex 0 48.15224075317383 10.265366554260254
      vertex 30 48 9.5
      vertex 0 48 9.5
    endloop
  endfacet
  facet normal 0 0.5555682361196549 0.8314709465849636
    outer loop
      vertex 0 49.23463439941406 7.652240753173828
      vertex 30 48.585784912109375 8.085785865783691
      vertex 30 49.23463439941406 7.652240753173828
    endloop
  endfacet
  facet normal 0 0.5555682361196549 0.8314709465849636
    outer loop
      vertex 30 48.585784912109375 8.085785865783691
      vertex 0 49.23463439941406 7.652240753173828
      vertex 0 48.585784912109375 8.085785865783691
    endloop
  endfacet
  facet normal 0 -0.8314703794967792 0.5555690848305744
    outer loop
      vertex 0 51.414215087890625 8.085785865783691
      vertex 30 51.84775924682617 8.73463249206543
      vertex 0 51.84775924682617 8.73463249206543
    endloop
  endfacet
  facet normal 0 -0.8314703794967792 0.5555690848305744
    outer loop
      vertex 30 51.84775924682617 8.73463249206543
      vertex 0 51.414215087890625 8.085785865783691
      vertex 30 51.414215087890625 8.085785865783691
    endloop
  endfacet
  facet normal 0 0.5555682361196549 -0.8314709465849636
    outer loop
      vertex 0 48.585784912109375 10.914213180541992
      vertex 30 49.23463439941406 11.347758293151855
      vertex 30 48.585784912109375 10.914213180541992
    endloop
  endfacet
  facet normal 0 0.5555682361196549 -0.8314709465849636
    outer loop
      vertex 30 49.23463439941406 11.347758293151855
      vertex 0 48.585784912109375 10.914213180541992
      vertex 0 49.23463439941406 11.347758293151855
    endloop
  endfacet
  facet normal 0 -0.5555682361196549 -0.8314709465849636
    outer loop
      vertex 0 50.76536560058594 11.347758293151855
      vertex 30 51.414215087890625 10.914213180541992
      vertex 30 50.76536560058594 11.347758293151855
    endloop
  endfacet
  facet normal 0 -0.5555682361196549 -0.8314709465849636
    outer loop
      vertex 30 51.414215087890625 10.914213180541992
      vertex 0 50.76536560058594 11.347758293151855
      vertex 0 51.414215087890625 10.914213180541992
    endloop
  endfacet
  facet normal 0 0.19509158345481067 -0.9807850294866326
    outer loop
      vertex 0 49.23463439941406 11.347758293151855
      vertex 30 50 11.5
      vertex 30 49.23463439941406 11.347758293151855
    endloop
  endfacet
  facet normal 0 0.19509158345481067 -0.9807850294866326
    outer loop
      vertex 30 50 11.5
      vertex 0 49.23463439941406 11.347758293151855
      vertex 0 50 11.5
    endloop
  endfacet
  facet normal -1 0 0
    outer loop
      vertex 30 51.84775924682617 8.73463249206543
      vertex 30 51.84775924682617 10.265366554260254
      vertex 30 52 9.5
    endloop
  endfacet
  facet normal -1 0 0
    outer loop
      vertex 30 51.414215087890625 8.085785865783691
      vertex 30 51.84775924682617 10.265366554260254
      vertex 30 51.84775924682617 8.73463249206543
    endloop
  endfacet
  facet normal -1 0 0
    outer loop
      vertex 30 51.414215087890625 8.085785865783691
      vertex 30 51.414215087890625 10.914213180541992
      vertex 30 51.84775924682617 10.265366554260254
    endloop
  endfacet
  facet normal -1 0 0
    outer loop
      vertex 30 50.76536560058594 7.652240753173828
      vertex 30 51.414215087890625 10.914213180541992
      vertex 30 51.414215087890625 8.085785865783691
    endloop
  endfacet
  facet normal -1 0 0
    outer loop
      vertex 30 50.76536560058594 7.652240753173828
      vertex 30 50.76536560058594 11.347758293151855
      vertex 30 51.414215087890625 10.914213180541992
    endloop
  endfacet
  facet normal -1 0 0
    outer loop
      vertex 30 50 7.5
      vertex 30 50.76536560058594 11.347758293151855
      vertex 30 50.76536560058594 7.652240753173828
    endloop
  endfacet
  facet normal -1 0 0
    outer loop
      vertex 30 50 7.5
      vertex 30 50 11.5
      vertex 30 50.76536560058594 11.347758293151855
    endloop
  endfacet
  facet normal -1 0 0
    outer loop
      vertex 30 49.23463439941406 7.652240753173828
      vertex 30 50 11.5
      vertex 30 50 7.5
    endloop
  endfacet
  facet normal -1 0 0
    outer loop
      vertex 30 49.23463439941406 7.652240753173828
      vertex 30 49.23463439941406 11.347758293151855
      vertex 30 50 11.5
    endloop
  endfacet
  facet normal -1 0 0
    outer loop
      vertex 30 48.585784912109375 8.085785865783691
      vertex 30 49.23463439941406 11.347758293151855
      vertex 30 49.23463439941406 7.652240753173828
    endloop
  endfacet
  facet normal -1 0 0
    outer loop
      vertex 30 48.585784912109375 8.085785865783691
      vertex 30 48.585784912109375 10.914213180541992
      vertex 30 49.23463439941406 11.347758293151855
    endloop
  endfacet
  facet normal -1 0 0
    outer loop
      vertex 30 48.15224075317383 8.73463249206543
      vertex 30 48.585784912109375 10.914213180541992
      vertex 30 48.585784912109375 8.085785865783691
    endloop
  endfacet
  facet normal -1 0 0
    outer loop
      vertex 30 48.15224075317383 8.73463249206543
      vertex 30 48.15224075317383 10.265366554260254
      vertex 30 48.585784912109375 10.914213180541992
    endloop
  endfacet
  facet normal -1 0 0
    outer loop
      vertex 30 48.15224075317383 10.265366554260254
      vertex 30 48.15224075317383 8.73463249206543
      vertex 30 48 9.5
    endloop
  endfacet
  facet normal 0 -0.19509040787318935 0.9807852633251952
    outer loop
      vertex 0 180.76536560058594 7.652240753173828
      vertex 30 180 7.5
      vertex 30 180.76536560058594 7.652240753173828
    endloop
  endfacet
  facet normal 0 -0.19509040787318935 0.9807852633251952
    outer loop
      vertex 30 180 7.5
      vertex 0 180.76536560058594 7.652240753173828
      vertex 0 180 7.5
    endloop
  endfacet
  facet normal 0 -0.9807862451774634 -0.1950854717058468
    outer loop
      vertex 0 182 9.5
      vertex 30 181.84776306152344 10.265366554260254
      vertex 0 181.84776306152344 10.265366554260254
    endloop
  endfacet
  facet normal 0 -0.9807862451774634 -0.1950854717058468
    outer loop
      vertex 30 181.84776306152344 10.265366554260254
      vertex 0 182 9.5
      vertex 30 182 9.5
    endloop
  endfacet
  facet normal 0 -0.19509158345481067 -0.9807850294866326
    outer loop
      vertex 0 180 11.5
      vertex 30 180.76536560058594 11.347758293151855
      vertex 30 180 11.5
    endloop
  endfacet
  facet normal 0 -0.19509158345481067 -0.9807850294866326
    outer loop
      vertex 30 180.76536560058594 11.347758293151855
      vertex 0 180 11.5
      vertex 0 180.76536560058594 11.347758293151855
    endloop
  endfacet
  facet normal 0 -0.980786291688289 0.19508523787394735
    outer loop
      vertex 0 181.84776306152344 8.73463249206543
      vertex 30 182 9.5
      vertex 0 182 9.5
    endloop
  endfacet
  facet normal 0 -0.980786291688289 0.19508523787394735
    outer loop
      vertex 30 182 9.5
      vertex 0 181.84776306152344 8.73463249206543
      vertex 30 181.84776306152344 8.73463249206543
    endloop
  endfacet
  facet normal 0 0.19509040787318935 0.9807852633251952
    outer loop
      vertex 0 180 7.5
      vertex 30 179.23463439941406 7.652240753173828
      vertex 30 180 7.5
    endloop
  endfacet
  facet normal 0 0.19509040787318935 0.9807852633251952
    outer loop
      vertex 30 179.23463439941406 7.652240753173828
      vertex 0 180 7.5
      vertex 0 179.23463439941406 7.652240753173828
    endloop
  endfacet
  facet normal 0 0.831468121362287 -0.5555724643629031
    outer loop
      vertex 30 178.15223693847656 10.265366554260254
      vertex 0 178.58578491210938 10.914213180541992
      vertex 30 178.58578491210938 10.914213180541992
    endloop
  endfacet
  facet normal 0 0.831468121362287 -0.5555724643629031
    outer loop
      vertex 0 178.58578491210938 10.914213180541992
      vertex 30 178.15223693847656 10.265366554260254
      vertex 0 178.15223693847656 10.265366554260254
    endloop
  endfacet
  facet normal 0 0.980786291688289 0.19508523787394735
    outer loop
      vertex 30 178.15223693847656 8.73463249206543
      vertex 0 178 9.5
      vertex 30 178 9.5
    endloop
  endfacet
  facet normal 0 0.980786291688289 0.19508523787394735
    outer loop
      vertex 0 178 9.5
      vertex 30 178.15223693847656 8.73463249206543
      vertex 0 178.15223693847656 8.73463249206543
    endloop
  endfacet
  facet normal 0 -0.831468121362287 -0.5555724643629031
    outer loop
      vertex 0 181.84776306152344 10.265366554260254
      vertex 30 181.41421508789062 10.914213180541992
      vertex 0 181.41421508789062 10.914213180541992
    endloop
  endfacet
  facet normal 0 -0.831468121362287 -0.5555724643629031
    outer loop
      vertex 30 181.41421508789062 10.914213180541992
      vertex 0 181.84776306152344 10.265366554260254
      vertex 30 181.84776306152344 10.265366554260254
    endloop
  endfacet
  facet normal 0 -0.5555682361196549 0.8314709465849636
    outer loop
      vertex 0 181.41421508789062 8.085785865783691
      vertex 30 180.76536560058594 7.652240753173828
      vertex 30 181.41421508789062 8.085785865783691
    endloop
  endfacet
  facet normal 0 -0.5555682361196549 0.8314709465849636
    outer loop
      vertex 30 180.76536560058594 7.652240753173828
      vertex 0 181.41421508789062 8.085785865783691
      vertex 0 180.76536560058594 7.652240753173828
    endloop
  endfacet
  facet normal 0 0.831468121362287 0.5555724643629031
    outer loop
      vertex 30 178.58578491210938 8.085785865783691
      vertex 0 178.15223693847656 8.73463249206543
      vertex 30 178.15223693847656 8.73463249206543
    endloop
  endfacet
  facet normal 0 0.831468121362287 0.5555724643629031
    outer loop
      vertex 0 178.15223693847656 8.73463249206543
      vertex 30 178.58578491210938 8.085785865783691
      vertex 0 178.58578491210938 8.085785865783691
    endloop
  endfacet
  facet normal 0 0.9807862451774634 -0.1950854717058468
    outer loop
      vertex 30 178 9.5
      vertex 0 178.15223693847656 10.265366554260254
      vertex 30 178.15223693847656 10.265366554260254
    endloop
  endfacet
  facet normal 0 0.9807862451774634 -0.1950854717058468
    outer loop
      vertex 0 178.15223693847656 10.265366554260254
      vertex 30 178 9.5
      vertex 0 178 9.5
    endloop
  endfacet
  facet normal 0 0.5555682361196549 0.8314709465849636
    outer loop
      vertex 0 179.23463439941406 7.652240753173828
      vertex 30 178.58578491210938 8.085785865783691
      vertex 30 179.23463439941406 7.652240753173828
    endloop
  endfacet
  facet normal 0 0.5555682361196549 0.8314709465849636
    outer loop
      vertex 30 178.58578491210938 8.085785865783691
      vertex 0 179.23463439941406 7.652240753173828
      vertex 0 178.58578491210938 8.085785865783691
    endloop
  endfacet
  facet normal 0 -0.831468121362287 0.5555724643629031
    outer loop
      vertex 0 181.41421508789062 8.085785865783691
      vertex 30 181.84776306152344 8.73463249206543
      vertex 0 181.84776306152344 8.73463249206543
    endloop
  endfacet
  facet normal 0 -0.831468121362287 0.5555724643629031
    outer loop
      vertex 30 181.84776306152344 8.73463249206543
      vertex 0 181.41421508789062 8.085785865783691
      vertex 30 181.41421508789062 8.085785865783691
    endloop
  endfacet
  facet normal 0 0.5555682361196549 -0.8314709465849636
    outer loop
      vertex 0 178.58578491210938 10.914213180541992
      vertex 30 179.23463439941406 11.347758293151855
      vertex 30 178.58578491210938 10.914213180541992
    endloop
  endfacet
  facet normal 0 0.5555682361196549 -0.8314709465849636
    outer loop
      vertex 30 179.23463439941406 11.347758293151855
      vertex 0 178.58578491210938 10.914213180541992
      vertex 0 179.23463439941406 11.347758293151855
    endloop
  endfacet
  facet normal 0 -0.5555682361196549 -0.8314709465849636
    outer loop
      vertex 0 180.76536560058594 11.347758293151855
      vertex 30 181.41421508789062 10.914213180541992
      vertex 30 180.76536560058594 11.347758293151855
    endloop
  endfacet
  facet normal 0 -0.5555682361196549 -0.8314709465849636
    outer loop
      vertex 30 181.41421508789062 10.914213180541992
      vertex 0 180.76536560058594 11.347758293151855
      vertex 0 181.41421508789062 10.914213180541992
    endloop
  endfacet
  facet normal 0 0.19509158345481067 -0.9807850294866326
    outer loop
      vertex 0 179.23463439941406 11.347758293151855
      vertex 30 180 11.5
      vertex 30 179.23463439941406 11.347758293151855
    endloop
  endfacet
  facet normal 0 0.19509158345481067 -0.9807850294866326
    outer loop
      vertex 30 180 11.5
      vertex 0 179.23463439941406 11.347758293151855
      vertex 0 180 11.5
    endloop
  endfacet
  facet normal -1 0 0
    outer loop
      vertex 30 181.84776306152344 8.73463249206543
      vertex 30 181.84776306152344 10.265366554260254
      vertex 30 182 9.5
    endloop
  endfacet
  facet normal -1 0 0
    outer loop
      vertex 30 181.41421508789062 8.085785865783691
      vertex 30 181.84776306152344 10.265366554260254
      vertex 30 181.84776306152344 8.73463249206543
    endloop
  endfacet
  facet normal -1 0 0
    outer loop
      vertex 30 181.41421508789062 8.085785865783691
      vertex 30 181.41421508789062 10.914213180541992
      vertex 30 181.84776306152344 10.265366554260254
    endloop
  endfacet
  facet normal -1 0 0
    outer loop
      vertex 30 180.76536560058594 7.652240753173828
      vertex 30 181.41421508789062 10.914213180541992
      vertex 30 181.41421508789062 8.085785865783691
    endloop
  endfacet
  facet normal -1 0 0
    outer loop
      vertex 30 180.76536560058594 7.652240753173828
      vertex 30 180.76536560058594 11.347758293151855
      vertex 30 181.41421508789062 10.914213180541992
    endloop
  endfacet
  facet normal -1 0 0
    outer loop
      vertex 30 180 7.5
      vertex 30 180.76536560058594 11.347758293151855
      vertex 30 180.76536560058594 7.652240753173828
    endloop
  endfacet
  facet normal -1 0 0
    outer loop
      vertex 30 180 7.5
      vertex 30 180 11.5
      vertex 30 180.76536560058594 11.347758293151855
    endloop
  endfacet
  facet normal -1 0 0
    outer loop
      vertex 30 179.23463439941406 7.652240753173828
      vertex 30 180 11.5
      vertex 30 180 7.5
    endloop
  endfacet
  facet normal -1 0 0
    outer loop
      vertex 30 179.23463439941406 7.652240753173828
      vertex 30 179.23463439941406 11.347758293151855
      vertex 30 180 11.5
    endloop
  endfacet
  facet normal -1 0 0
    outer loop
      vertex 30 178.58578491210938 8.085785865783691
      vertex 30 179.23463439941406 11.347758293151855
      vertex 30 179.23463439941406 7.652240753173828
    endloop
  endfacet
  facet normal -1 0 0
    outer loop
      vertex 30 178.58578491210938 8.085785865783691
      vertex 30 178.58578491210938 10.914213180541992
      vertex 30 179.23463439941406 11.347758293151855
    endloop
  endfacet
  facet normal -1 0 0
    outer loop
      vertex 30 178.15223693847656 8.73463249206543
      vertex 30 178.58578491210938 10.914213180541992
      vertex 30 178.58578491210938 8.085785865783691
    endloop
  endfacet
  facet normal -1 0 0
    outer loop
      vertex 30 178.15223693847656 8.73463249206543
      vertex 30 178.15223693847656 10.265366554260254
      vertex 30 178.58578491210938 10.914213180541992
    endloop
  endfacet
  facet normal -1 0 0
    outer loop
      vertex 30 178.15223693847656 10.265366554260254
      vertex 30 178.15223693847656 8.73463249206543
      vertex 30 178 9.5
    endloop
  endfacet
  facet normal 0 -0.5555682361196549 0.8314709465849636
    outer loop
      vertex 732 51.414215087890625 8.085785865783691
      vertex 762 50.76536560058594 7.652240753173828
      vertex 762 51.414215087890625 8.085785865783691
    endloop
  endfacet
  facet normal 0 -0.5555682361196549 0.8314709465849636
    outer loop
      vertex 762 50.76536560058594 7.652240753173828
      vertex 732 51.414215087890625 8.085785865783691
      vertex 732 50.76536560058594 7.652240753173828
    endloop
  endfacet
  facet normal 0 0.8314703794967792 -0.5555690848305744
    outer loop
      vertex 762 48.15224075317383 10.265366554260254
      vertex 732 48.585784912109375 10.914213180541992
      vertex 762 48.585784912109375 10.914213180541992
    endloop
  endfacet
  facet normal 0 0.8314703794967792 -0.5555690848305744
    outer loop
      vertex 732 48.585784912109375 10.914213180541992
      vertex 762 48.15224075317383 10.265366554260254
      vertex 732 48.15224075317383 10.265366554260254
    endloop
  endfacet
  facet normal 0 -0.8314703794967792 -0.5555690848305744
    outer loop
      vertex 732 51.84775924682617 10.265366554260254
      vertex 762 51.414215087890625 10.914213180541992
      vertex 732 51.414215087890625 10.914213180541992
    endloop
  endfacet
  facet normal 0 -0.8314703794967792 -0.5555690848305744
    outer loop
      vertex 762 51.414215087890625 10.914213180541992
      vertex 732 51.84775924682617 10.265366554260254
      vertex 762 51.84775924682617 10.265366554260254
    endloop
  endfacet
  facet normal 0 0.9807853563514094 0.1950899401984604
    outer loop
      vertex 762 48.15224075317383 8.73463249206543
      vertex 732 48 9.5
      vertex 762 48 9.5
    endloop
  endfacet
  facet normal 0 0.9807853563514094 0.1950899401984604
    outer loop
      vertex 732 48 9.5
      vertex 762 48.15224075317383 8.73463249206543
      vertex 732 48.15224075317383 8.73463249206543
    endloop
  endfacet
  facet normal 0 0.8314703794967792 0.5555690848305744
    outer loop
      vertex 762 48.585784912109375 8.085785865783691
      vertex 732 48.15224075317383 8.73463249206543
      vertex 762 48.15224075317383 8.73463249206543
    endloop
  endfacet
  facet normal 0 0.8314703794967792 0.5555690848305744
    outer loop
      vertex 732 48.15224075317383 8.73463249206543
      vertex 762 48.585784912109375 8.085785865783691
      vertex 732 48.585784912109375 8.085785865783691
    endloop
  endfacet
  facet normal 0 -0.19509158345481067 -0.9807850294866326
    outer loop
      vertex 732 50 11.5
      vertex 762 50.76536560058594 11.347758293151855
      vertex 762 50 11.5
    endloop
  endfacet
  facet normal 0 -0.19509158345481067 -0.9807850294866326
    outer loop
      vertex 762 50.76536560058594 11.347758293151855
      vertex 732 50 11.5
      vertex 732 50.76536560058594 11.347758293151855
    endloop
  endfacet
  facet normal 0 -0.9807853563514094 0.1950899401984604
    outer loop
      vertex 732 51.84775924682617 8.73463249206543
      vertex 762 52 9.5
      vertex 732 52 9.5
    endloop
  endfacet
  facet normal 0 -0.9807853563514094 0.1950899401984604
    outer loop
      vertex 762 52 9.5
      vertex 732 51.84775924682617 8.73463249206543
      vertex 762 51.84775924682617 8.73463249206543
    endloop
  endfacet
  facet normal 0 0.19509158345481067 -0.9807850294866326
    outer loop
      vertex 732 49.23463439941406 11.347758293151855
      vertex 762 50 11.5
      vertex 762 49.23463439941406 11.347758293151855
    endloop
  endfacet
  facet normal 0 0.19509158345481067 -0.9807850294866326
    outer loop
      vertex 762 50 11.5
      vertex 732 49.23463439941406 11.347758293151855
      vertex 732 50 11.5
    endloop
  endfacet
  facet normal 0 -0.980785309838386 -0.19509017403555015
    outer loop
      vertex 732 52 9.5
      vertex 762 51.84775924682617 10.265366554260254
      vertex 732 51.84775924682617 10.265366554260254
    endloop
  endfacet
  facet normal 0 -0.980785309838386 -0.19509017403555015
    outer loop
      vertex 762 51.84775924682617 10.265366554260254
      vertex 732 52 9.5
      vertex 762 52 9.5
    endloop
  endfacet
  facet normal 0 0.5555682361196549 -0.8314709465849636
    outer loop
      vertex 732 48.585784912109375 10.914213180541992
      vertex 762 49.23463439941406 11.347758293151855
      vertex 762 48.585784912109375 10.914213180541992
    endloop
  endfacet
  facet normal 0 0.5555682361196549 -0.8314709465849636
    outer loop
      vertex 762 49.23463439941406 11.347758293151855
      vertex 732 48.585784912109375 10.914213180541992
      vertex 732 49.23463439941406 11.347758293151855
    endloop
  endfacet
  facet normal 0 0.980785309838386 -0.19509017403555015
    outer loop
      vertex 762 48 9.5
      vertex 732 48.15224075317383 10.265366554260254
      vertex 762 48.15224075317383 10.265366554260254
    endloop
  endfacet
  facet normal 0 0.980785309838386 -0.19509017403555015
    outer loop
      vertex 732 48.15224075317383 10.265366554260254
      vertex 762 48 9.5
      vertex 732 48 9.5
    endloop
  endfacet
  facet normal 0 -0.5555682361196549 -0.8314709465849636
    outer loop
      vertex 732 50.76536560058594 11.347758293151855
      vertex 762 51.414215087890625 10.914213180541992
      vertex 762 50.76536560058594 11.347758293151855
    endloop
  endfacet
  facet normal 0 -0.5555682361196549 -0.8314709465849636
    outer loop
      vertex 762 51.414215087890625 10.914213180541992
      vertex 732 50.76536560058594 11.347758293151855
      vertex 732 51.414215087890625 10.914213180541992
    endloop
  endfacet
  facet normal 1 0 0
    outer loop
      vertex 762 230 19
      vertex 762 182 9.5
      vertex 762 230 0
    endloop
  endfacet
  facet normal 1 0 0
    outer loop
      vertex 762 230 19
      vertex 762 181.84776306152344 10.265366554260254
      vertex 762 182 9.5
    endloop
  endfacet
  facet normal 1 0 0
    outer loop
      vertex 762 230 19
      vertex 762 181.41421508789062 10.914213180541992
      vertex 762 181.84776306152344 10.265366554260254
    endloop
  endfacet
  facet normal 1 0 0
    outer loop
      vertex 762 230 19
      vertex 762 180.76536560058594 11.347758293151855
      vertex 762 181.41421508789062 10.914213180541992
    endloop
  endfacet
  facet normal 1 0 0
    outer loop
      vertex 762 230 19
      vertex 762 180 11.5
      vertex 762 180.76536560058594 11.347758293151855
    endloop
  endfacet
  facet normal 1 0 0
    outer loop
      vertex 762 178.15223693847656 10.265366554260254
      vertex 762 52 9.5
      vertex 762 178 9.5
    endloop
  endfacet
  facet normal 1 0 0
    outer loop
      vertex 762 51.84775924682617 10.265366554260254
      vertex 762 178.15223693847656 10.265366554260254
      vertex 762 178.58578491210938 10.914213180541992
    endloop
  endfacet
  facet normal 1 0 0
    outer loop
      vertex 762 51.414215087890625 10.914213180541992
      vertex 762 178.58578491210938 10.914213180541992
      vertex 762 179.23463439941406 11.347758293151855
    endloop
  endfacet
  facet normal 1 0 0
    outer loop
      vertex 762 50.76536560058594 11.347758293151855
      vertex 762 179.23463439941406 11.347758293151855
      vertex 762 180 11.5
    endloop
  endfacet
  facet normal 1 0 0
    outer loop
      vertex 762 50 11.5
      vertex 762 180 11.5
      vertex 762 230 19
    endloop
  endfacet
  facet normal 1 0 0
    outer loop
      vertex 762 178.15223693847656 10.265366554260254
      vertex 762 51.84775924682617 10.265366554260254
      vertex 762 52 9.5
    endloop
  endfacet
  facet normal 1 0 0
    outer loop
      vertex 762 178.58578491210938 10.914213180541992
      vertex 762 51.414215087890625 10.914213180541992
      vertex 762 51.84775924682617 10.265366554260254
    endloop
  endfacet
  facet normal 1 0 0
    outer loop
      vertex 762 179.23463439941406 11.347758293151855
      vertex 762 50.76536560058594 11.347758293151855
      vertex 762 51.414215087890625 10.914213180541992
    endloop
  endfacet
  facet normal 1 0 0
    outer loop
      vertex 762 180 11.5
      vertex 762 50 11.5
      vertex 762 50.76536560058594 11.347758293151855
    endloop
  endfacet
  facet normal 1 0 0
    outer loop
      vertex 762 48.15224075317383 10.265366554260254
      vertex 762 0 19
      vertex 762 48 9.5
    endloop
  endfacet
  facet normal 1 0 0
    outer loop
      vertex 762 48.585784912109375 10.914213180541992
      vertex 762 0 19
      vertex 762 48.15224075317383 10.265366554260254
    endloop
  endfacet
  facet normal 1 0 0
    outer loop
      vertex 762 49.23463439941406 11.347758293151855
      vertex 762 0 19
      vertex 762 48.585784912109375 10.914213180541992
    endloop
  endfacet
  facet normal 1 0 0
    outer loop
      vertex 762 50 11.5
      vertex 762 0 19
      vertex 762 49.23463439941406 11.347758293151855
    endloop
  endfacet
  facet normal 1 0 0
    outer loop
      vertex 762 0 19
      vertex 762 50 11.5
      vertex 762 230 19
    endloop
  endfacet
  facet normal 1 0 0
    outer loop
      vertex 762 181.84776306152344 8.73463249206543
      vertex 762 230 0
      vertex 762 182 9.5
    endloop
  endfacet
  facet normal 1 0 0
    outer loop
      vertex 762 181.41421508789062 8.085785865783691
      vertex 762 230 0
      vertex 762 181.84776306152344 8.73463249206543
    endloop
  endfacet
  facet normal 1 0 0
    outer loop
      vertex 762 180.76536560058594 7.652240753173828
      vertex 762 230 0
      vertex 762 181.41421508789062 8.085785865783691
    endloop
  endfacet
  facet normal 1 0 0
    outer loop
      vertex 762 180 7.5
      vertex 762 230 0
      vertex 762 180.76536560058594 7.652240753173828
    endloop
  endfacet
  facet normal 1 0 0
    outer loop
      vertex 762 52 9.5
      vertex 762 178.15223693847656 8.73463249206543
      vertex 762 178 9.5
    endloop
  endfacet
  facet normal 1 0 0
    outer loop
      vertex 762 51.84775924682617 8.73463249206543
      vertex 762 178.15223693847656 8.73463249206543
      vertex 762 52 9.5
    endloop
  endfacet
  facet normal 1 0 0
    outer loop
      vertex 762 178.15223693847656 8.73463249206543
      vertex 762 51.84775924682617 8.73463249206543
      vertex 762 178.58578491210938 8.085785865783691
    endloop
  endfacet
  facet normal 1 0 0
    outer loop
      vertex 762 51.414215087890625 8.085785865783691
      vertex 762 178.58578491210938 8.085785865783691
      vertex 762 51.84775924682617 8.73463249206543
    endloop
  endfacet
  facet normal 1 0 0
    outer loop
      vertex 762 178.58578491210938 8.085785865783691
      vertex 762 51.414215087890625 8.085785865783691
      vertex 762 179.23463439941406 7.652240753173828
    endloop
  endfacet
  facet normal 1 0 0
    outer loop
      vertex 762 50.76536560058594 7.652240753173828
      vertex 762 179.23463439941406 7.652240753173828
      vertex 762 51.414215087890625 8.085785865783691
    endloop
  endfacet
  facet normal 1 0 0
    outer loop
      vertex 762 179.23463439941406 7.652240753173828
      vertex 762 50.76536560058594 7.652240753173828
      vertex 762 180 7.5
    endloop
  endfacet
  facet normal 1 0 0
    outer loop
      vertex 762 50 7.5
      vertex 762 180 7.5
      vertex 762 50.76536560058594 7.652240753173828
    endloop
  endfacet
  facet normal 1 0 0
    outer loop
      vertex 762 180 7.5
      vertex 762 50 7.5
      vertex 762 230 0
    endloop
  endfacet
  facet normal 1 0 0
    outer loop
      vertex 762 0 0
      vertex 762 48 9.5
      vertex 762 0 19
    endloop
  endfacet
  facet normal 1 0 0
    outer loop
      vertex 762 48 9.5
      vertex 762 0 0
      vertex 762 48.15224075317383 8.73463249206543
    endloop
  endfacet
  facet normal 1 0 0
    outer loop
      vertex 762 48.15224075317383 8.73463249206543
      vertex 762 0 0
      vertex 762 48.585784912109375 8.085785865783691
    endloop
  endfacet
  facet normal 1 0 0
    outer loop
      vertex 762 50 7.5
      vertex 762 0 0
      vertex 762 230 0
    endloop
  endfacet
  facet normal 1 0 0
    outer loop
      vertex 762 49.23463439941406 7.652240753173828
      vertex 762 0 0
      vertex 762 50 7.5
    endloop
  endfacet
  facet normal 1 0 0
    outer loop
      vertex 762 48.585784912109375 8.085785865783691
      vertex 762 0 0
      vertex 762 49.23463439941406 7.652240753173828
    endloop
  endfacet
  facet normal 0 -0.8314703794967792 0.5555690848305744
    outer loop
      vertex 732 51.414215087890625 8.085785865783691
      vertex 762 51.84775924682617 8.73463249206543
      vertex 732 51.84775924682617 8.73463249206543
    endloop
  endfacet
  facet normal 0 -0.8314703794967792 0.5555690848305744
    outer loop
      vertex 762 51.84775924682617 8.73463249206543
      vertex 732 51.414215087890625 8.085785865783691
      vertex 762 51.414215087890625 8.085785865783691
    endloop
  endfacet
  facet normal 1 0 0
    outer loop
      vertex 732 51.84775924682617 10.265366554260254
      vertex 732 51.84775924682617 8.73463249206543
      vertex 732 52 9.5
    endloop
  endfacet
  facet normal 1 0 0
    outer loop
      vertex 732 51.414215087890625 10.914213180541992
      vertex 732 51.84775924682617 8.73463249206543
      vertex 732 51.84775924682617 10.265366554260254
    endloop
  endfacet
  facet normal 1 0 0
    outer loop
      vertex 732 51.414215087890625 10.914213180541992
      vertex 732 51.414215087890625 8.085785865783691
      vertex 732 51.84775924682617 8.73463249206543
    endloop
  endfacet
  facet normal 1 0 0
    outer loop
      vertex 732 50.76536560058594 11.347758293151855
      vertex 732 51.414215087890625 8.085785865783691
      vertex 732 51.414215087890625 10.914213180541992
    endloop
  endfacet
  facet normal 1 0 0
    outer loop
      vertex 732 50.76536560058594 11.347758293151855
      vertex 732 50.76536560058594 7.652240753173828
      vertex 732 51.414215087890625 8.085785865783691
    endloop
  endfacet
  facet normal 1 0 0
    outer loop
      vertex 732 50 11.5
      vertex 732 50.76536560058594 7.652240753173828
      vertex 732 50.76536560058594 11.347758293151855
    endloop
  endfacet
  facet normal 1 0 0
    outer loop
      vertex 732 50 11.5
      vertex 732 50 7.5
      vertex 732 50.76536560058594 7.652240753173828
    endloop
  endfacet
  facet normal 1 0 0
    outer loop
      vertex 732 49.23463439941406 11.347758293151855
      vertex 732 50 7.5
      vertex 732 50 11.5
    endloop
  endfacet
  facet normal 1 0 0
    outer loop
      vertex 732 49.23463439941406 11.347758293151855
      vertex 732 49.23463439941406 7.652240753173828
      vertex 732 50 7.5
    endloop
  endfacet
  facet normal 1 0 0
    outer loop
      vertex 732 48.585784912109375 10.914213180541992
      vertex 732 49.23463439941406 7.652240753173828
      vertex 732 49.23463439941406 11.347758293151855
    endloop
  endfacet
  facet normal 1 0 0
    outer loop
      vertex 732 48.585784912109375 10.914213180541992
      vertex 732 48.585784912109375 8.085785865783691
      vertex 732 49.23463439941406 7.652240753173828
    endloop
  endfacet
  facet normal 1 0 0
    outer loop
      vertex 732 48.15224075317383 10.265366554260254
      vertex 732 48.585784912109375 8.085785865783691
      vertex 732 48.585784912109375 10.914213180541992
    endloop
  endfacet
  facet normal 1 0 0
    outer loop
      vertex 732 48.15224075317383 10.265366554260254
      vertex 732 48.15224075317383 8.73463249206543
      vertex 732 48.585784912109375 8.085785865783691
    endloop
  endfacet
  facet normal 1 0 0
    outer loop
      vertex 732 48.15224075317383 8.73463249206543
      vertex 732 48.15224075317383 10.265366554260254
      vertex 732 48 9.5
    endloop
  endfacet
  facet normal 0 -0.19509040787318935 0.9807852633251952
    outer loop
      vertex 732 50.76536560058594 7.652240753173828
      vertex 762 50 7.5
      vertex 762 50.76536560058594 7.652240753173828
    endloop
  endfacet
  facet normal 0 -0.19509040787318935 0.9807852633251952
    outer loop
      vertex 762 50 7.5
      vertex 732 50.76536560058594 7.652240753173828
      vertex 732 50 7.5
    endloop
  endfacet
  facet normal 0 0.19509040787318935 0.9807852633251952
    outer loop
      vertex 732 50 7.5
      vertex 762 49.23463439941406 7.652240753173828
      vertex 762 50 7.5
    endloop
  endfacet
  facet normal 0 0.19509040787318935 0.9807852633251952
    outer loop
      vertex 762 49.23463439941406 7.652240753173828
      vertex 732 50 7.5
      vertex 732 49.23463439941406 7.652240753173828
    endloop
  endfacet
  facet normal 0 0.5555682361196549 0.8314709465849636
    outer loop
      vertex 732 49.23463439941406 7.652240753173828
      vertex 762 48.585784912109375 8.085785865783691
      vertex 762 49.23463439941406 7.652240753173828
    endloop
  endfacet
  facet normal 0 0.5555682361196549 0.8314709465849636
    outer loop
      vertex 762 48.585784912109375 8.085785865783691
      vertex 732 49.23463439941406 7.652240753173828
      vertex 732 48.585784912109375 8.085785865783691
    endloop
  endfacet
  facet normal 0 -0.5555682361196549 0.8314709465849636
    outer loop
      vertex 732 181.41421508789062 8.085785865783691
      vertex 762 180.76536560058594 7.652240753173828
      vertex 762 181.41421508789062 8.085785865783691
    endloop
  endfacet
  facet normal 0 -0.5555682361196549 0.8314709465849636
    outer loop
      vertex 762 180.76536560058594 7.652240753173828
      vertex 732 181.41421508789062 8.085785865783691
      vertex 732 180.76536560058594 7.652240753173828
    endloop
  endfacet
  facet normal 0 0.831468121362287 -0.5555724643629031
    outer loop
      vertex 762 178.15223693847656 10.265366554260254
      vertex 732 178.58578491210938 10.914213180541992
      vertex 762 178.58578491210938 10.914213180541992
    endloop
  endfacet
  facet normal 0 0.831468121362287 -0.5555724643629031
    outer loop
      vertex 732 178.58578491210938 10.914213180541992
      vertex 762 178.15223693847656 10.265366554260254
      vertex 732 178.15223693847656 10.265366554260254
    endloop
  endfacet
  facet normal 0 -0.831468121362287 -0.5555724643629031
    outer loop
      vertex 732 181.84776306152344 10.265366554260254
      vertex 762 181.41421508789062 10.914213180541992
      vertex 732 181.41421508789062 10.914213180541992
    endloop
  endfacet
  facet normal 0 -0.831468121362287 -0.5555724643629031
    outer loop
      vertex 762 181.41421508789062 10.914213180541992
      vertex 732 181.84776306152344 10.265366554260254
      vertex 762 181.84776306152344 10.265366554260254
    endloop
  endfacet
  facet normal 0 0.980786291688289 0.19508523787394735
    outer loop
      vertex 762 178.15223693847656 8.73463249206543
      vertex 732 178 9.5
      vertex 762 178 9.5
    endloop
  endfacet
  facet normal 0 0.980786291688289 0.19508523787394735
    outer loop
      vertex 732 178 9.5
      vertex 762 178.15223693847656 8.73463249206543
      vertex 732 178.15223693847656 8.73463249206543
    endloop
  endfacet
  facet normal 0 -0.19509158345481067 -0.9807850294866326
    outer loop
      vertex 732 180 11.5
      vertex 762 180.76536560058594 11.347758293151855
      vertex 762 180 11.5
    endloop
  endfacet
  facet normal 0 -0.19509158345481067 -0.9807850294866326
    outer loop
      vertex 762 180.76536560058594 11.347758293151855
      vertex 732 180 11.5
      vertex 732 180.76536560058594 11.347758293151855
    endloop
  endfacet
  facet normal 0 -0.980786291688289 0.19508523787394735
    outer loop
      vertex 732 181.84776306152344 8.73463249206543
      vertex 762 182 9.5
      vertex 732 182 9.5
    endloop
  endfacet
  facet normal 0 -0.980786291688289 0.19508523787394735
    outer loop
      vertex 762 182 9.5
      vertex 732 181.84776306152344 8.73463249206543
      vertex 762 181.84776306152344 8.73463249206543
    endloop
  endfacet
  facet normal 0 0.19509158345481067 -0.9807850294866326
    outer loop
      vertex 732 179.23463439941406 11.347758293151855
      vertex 762 180 11.5
      vertex 762 179.23463439941406 11.347758293151855
    endloop
  endfacet
  facet normal 0 0.19509158345481067 -0.9807850294866326
    outer loop
      vertex 762 180 11.5
      vertex 732 179.23463439941406 11.347758293151855
      vertex 732 180 11.5
    endloop
  endfacet
  facet normal 0 -0.9807862451774634 -0.1950854717058468
    outer loop
      vertex 732 182 9.5
      vertex 762 181.84776306152344 10.265366554260254
      vertex 732 181.84776306152344 10.265366554260254
    endloop
  endfacet
  facet normal 0 -0.9807862451774634 -0.1950854717058468
    outer loop
      vertex 762 181.84776306152344 10.265366554260254
      vertex 732 182 9.5
      vertex 762 182 9.5
    endloop
  endfacet
  facet normal 0 0.5555682361196549 -0.8314709465849636
    outer loop
      vertex 732 178.58578491210938 10.914213180541992
      vertex 762 179.23463439941406 11.347758293151855
      vertex 762 178.58578491210938 10.914213180541992
    endloop
  endfacet
  facet normal 0 0.5555682361196549 -0.8314709465849636
    outer loop
      vertex 762 179.23463439941406 11.347758293151855
      vertex 732 178.58578491210938 10.914213180541992
      vertex 732 179.23463439941406 11.347758293151855
    endloop
  endfacet
  facet normal 0 0.9807862451774634 -0.1950854717058468
    outer loop
      vertex 762 178 9.5
      vertex 732 178.15223693847656 10.265366554260254
      vertex 762 178.15223693847656 10.265366554260254
    endloop
  endfacet
  facet normal 0 0.9807862451774634 -0.1950854717058468
    outer loop
      vertex 732 178.15223693847656 10.265366554260254
      vertex 762 178 9.5
      vertex 732 178 9.5
    endloop
  endfacet
  facet normal 1 0 0
    outer loop
      vertex 732 181.84776306152344 10.265366554260254
      vertex 732 181.84776306152344 8.73463249206543
      vertex 732 182 9.5
    endloop
  endfacet
  facet normal 1 0 0
    outer loop
      vertex 732 181.41421508789062 10.914213180541992
      vertex 732 181.84776306152344 8.73463249206543
      vertex 732 181.84776306152344 10.265366554260254
    endloop
  endfacet
  facet normal 1 0 0
    outer loop
      vertex 732 181.41421508789062 10.914213180541992
      vertex 732 181.41421508789062 8.085785865783691
      vertex 732 181.84776306152344 8.73463249206543
    endloop
  endfacet
  facet normal 1 0 0
    outer loop
      vertex 732 180.76536560058594 11.347758293151855
      vertex 732 181.41421508789062 8.085785865783691
      vertex 732 181.41421508789062 10.914213180541992
    endloop
  endfacet
  facet normal 1 0 0
    outer loop
      vertex 732 180.76536560058594 11.347758293151855
      vertex 732 180.76536560058594 7.652240753173828
      vertex 732 181.41421508789062 8.085785865783691
    endloop
  endfacet
  facet normal 1 0 0
    outer loop
      vertex 732 180 11.5
      vertex 732 180.76536560058594 7.652240753173828
      vertex 732 180.76536560058594 11.347758293151855
    endloop
  endfacet
  facet normal 1 0 0
    outer loop
      vertex 732 180 11.5
      vertex 732 180 7.5
      vertex 732 180.76536560058594 7.652240753173828
    endloop
  endfacet
  facet normal 1 0 0
    outer loop
      vertex 732 179.23463439941406 11.347758293151855
      vertex 732 180 7.5
      vertex 732 180 11.5
    endloop
  endfacet
  facet normal 1 0 0
    outer loop
      vertex 732 179.23463439941406 11.347758293151855
      vertex 732 179.23463439941406 7.652240753173828
      vertex 732 180 7.5
    endloop
  endfacet
  facet normal 1 0 0
    outer loop
      vertex 732 178.58578491210938 10.914213180541992
      vertex 732 179.23463439941406 7.652240753173828
      vertex 732 179.23463439941406 11.347758293151855
    endloop
  endfacet
  facet normal 1 0 0
    outer loop
      vertex 732 178.58578491210938 10.914213180541992
      vertex 732 178.58578491210938 8.085785865783691
      vertex 732 179.23463439941406 7.652240753173828
    endloop
  endfacet
  facet normal 1 0 0
    outer loop
      vertex 732 178.15223693847656 10.265366554260254
      vertex 732 178.58578491210938 8.085785865783691
      vertex 732 178.58578491210938 10.914213180541992
    endloop
  endfacet
  facet normal 1 0 0
    outer loop
      vertex 732 178.15223693847656 10.265366554260254
      vertex 732 178.15223693847656 8.73463249206543
      vertex 732 178.58578491210938 8.085785865783691
    endloop
  endfacet
  facet normal 1 0 0
    outer loop
      vertex 732 178.15223693847656 8.73463249206543
      vertex 732 178.15223693847656 10.265366554260254
      vertex 732 178 9.5
    endloop
  endfacet
  facet normal 0 -0.5555682361196549 -0.8314709465849636
    outer loop
      vertex 732 180.76536560058594 11.347758293151855
      vertex 762 181.41421508789062 10.914213180541992
      vertex 762 180.76536560058594 11.347758293151855
    endloop
  endfacet
  facet normal 0 -0.5555682361196549 -0.8314709465849636
    outer loop
      vertex 762 181.41421508789062 10.914213180541992
      vertex 732 180.76536560058594 11.347758293151855
      vertex 732 181.41421508789062 10.914213180541992
    endloop
  endfacet
  facet normal 0 -0.831468121362287 0.5555724643629031
    outer loop
      vertex 732 181.41421508789062 8.085785865783691
      vertex 762 181.84776306152344 8.73463249206543
      vertex 732 181.84776306152344 8.73463249206543
    endloop
  endfacet
  facet normal 0 -0.831468121362287 0.5555724643629031
    outer loop
      vertex 762 181.84776306152344 8.73463249206543
      vertex 732 181.41421508789062 8.085785865783691
      vertex 762 181.41421508789062 8.085785865783691
    endloop
  endfacet
  facet normal 0 -0.19509040787318935 0.9807852633251952
    outer loop
      vertex 732 180.76536560058594 7.652240753173828
      vertex 762 180 7.5
      vertex 762 180.76536560058594 7.652240753173828
    endloop
  endfacet
  facet normal 0 -0.19509040787318935 0.9807852633251952
    outer loop
      vertex 762 180 7.5
      vertex 732 180.76536560058594 7.652240753173828
      vertex 732 180 7.5
    endloop
  endfacet
  facet normal 0 0.19509040787318935 0.9807852633251952
    outer loop
      vertex 732 180 7.5
      vertex 762 179.23463439941406 7.652240753173828
      vertex 762 180 7.5
    endloop
  endfacet
  facet normal 0 0.19509040787318935 0.9807852633251952
    outer loop
      vertex 762 179.23463439941406 7.652240753173828
      vertex 732 180 7.5
      vertex 732 179.23463439941406 7.652240753173828
    endloop
  endfacet
  facet normal 0 0.5555682361196549 0.8314709465849636
    outer loop
      vertex 732 179.23463439941406 7.652240753173828
      vertex 762 178.58578491210938 8.085785865783691
      vertex 762 179.23463439941406 7.652240753173828
    endloop
  endfacet
  facet normal 0 0.5555682361196549 0.8314709465849636
    outer loop
      vertex 762 178.58578491210938 8.085785865783691
      vertex 732 179.23463439941406 7.652240753173828
      vertex 732 178.58578491210938 8.085785865783691
    endloop
  endfacet
  facet normal 0 0.831468121362287 0.5555724643629031
    outer loop
      vertex 762 178.58578491210938 8.085785865783691
      vertex 732 178.15223693847656 8.73463249206543
      vertex 762 178.15223693847656 8.73463249206543
    endloop
  endfacet
  facet normal 0 0.831468121362287 0.5555724643629031
    outer loop
      vertex 732 178.15223693847656 8.73463249206543
      vertex 762 178.58578491210938 8.085785865783691
      vertex 732 178.58578491210938 8.085785865783691
    endloop
  endfacet
  facet normal 0 0 1
    outer loop
      vertex 0 230 19
      vertex 762 0 19
      vertex 762 230 19
    endloop
  endfacet
  facet normal 0 0 1
    outer loop
      vertex 762 0 19
      vertex 0 230 19
      vertex 0 0 19
    endloop
  endfacet
  facet normal 0 0 -1
    outer loop
      vertex 0 0 0
      vertex 762 230 0
      vertex 762 0 0
    endloop
  endfacet
  facet normal 0 0 -1
    outer loop
      vertex 762 230 0
      vertex 0 0 0
      vertex 0 230 0
    endloop
  endfacet
  facet normal 0 1 0
    outer loop
      vertex 762 230 0
      vertex 0 230 19
      vertex 762 230 19
    endloop
  endfacet
  facet normal 0 1 0
    outer loop
      vertex 0 230 19
      vertex 762 230 0
      vertex 0 230 0
    endloop
  endfacet
  facet normal 0 -1 0
    outer loop
      vertex 0 0 0
      vertex 762 0 19
      vertex 0 0 19
    endloop
  endfacet
  facet normal 0 -1 0
    outer loop
      vertex 762 0 19
      vertex 0 0 0
      vertex 762 0 0
    endloop
  endfacet
endsolid OpenSCAD_Model
