solid OpenSCAD_Model
  facet normal -1 0 0
    outer loop
      vertex 0 0 0
      vertex 0 230 19
      vertex 0 230 0
    endloop
  endfacet
  facet normal -1 0 0
    outer loop
      vertex 0 230 19
      vertex 0 0 0
      vertex 0 0 19
    endloop
  endfacet
  facet normal 1 0 0
    outer loop
      vertex 762 0 19
      vertex 762 230 0
      vertex 762 230 19
    endloop
  endfacet
  facet normal 1 0 0
    outer loop
      vertex 762 230 0
      vertex 762 0 19
      vertex 762 0 0
    endloop
  endfacet
  facet normal 0 0 1
    outer loop
      vertex 0 230 19
      vertex 762 0 19
      vertex 762 230 19
    endloop
  endfacet
  facet normal 0 0 1
    outer loop
      vertex 762 0 19
      vertex 0 230 19
      vertex 0 0 19
    endloop
  endfacet
  facet normal 0 0 -1
    outer loop
      vertex 0 0 0
      vertex 762 230 0
      vertex 762 0 0
    endloop
  endfacet
  facet normal 0 0 -1
    outer loop
      vertex 762 230 0
      vertex 0 0 0
      vertex 0 230 0
    endloop
  endfacet
  facet normal 0 1 0
    outer loop
      vertex 762 230 0
      vertex 0 230 19
      vertex 762 230 19
    endloop
  endfacet
  facet normal 0 1 0
    outer loop
      vertex 0 230 19
      vertex 762 230 0
      vertex 0 230 0
    endloop
  endfacet
  facet normal 0 -1 0
    outer loop
      vertex 0 0 0
      vertex 762 0 19
      vertex 0 0 19
    endloop
  endfacet
  facet normal 0 -1 0
    outer loop
      vertex 762 0 19
      vertex 0 0 0
      vertex 762 0 0
    endloop
  endfacet
endsolid OpenSCAD_Model
