solid OpenSCAD_Model
  facet normal 0 0 -1
    outer loop
      vertex 45.271636962890625 181.85194396972656 0
      vertex 93.6480484008789 8.771637916564941 0
      vertex 45.271636962890625 51.148048400878906 0
    endloop
  endfacet
  facet normal 0 0 -1
    outer loop
      vertex 93.6480484008789 8.771637916564941 0
      vertex 45.271636962890625 181.85194396972656 0
      vertex 45.5 183 0
    endloop
  endfacet
  facet normal 0 0 -1
    outer loop
      vertex 44.62131881713867 52.12131881713867 0
      vertex 45.271636962890625 181.85194396972656 0
      vertex 45.271636962890625 51.148048400878906 0
    endloop
  endfacet
  facet normal 0 0 -1
    outer loop
      vertex 44.62131881713867 52.12131881713867 0
      vertex 44.62131881713867 180.87867736816406 0
      vertex 45.271636962890625 181.85194396972656 0
    endloop
  endfacet
  facet normal 0 0 -1
    outer loop
      vertex 43.648048400878906 52.771636962890625 0
      vertex 44.62131881713867 180.87867736816406 0
      vertex 44.62131881713867 52.12131881713867 0
    endloop
  endfacet
  facet normal 0 0 -1
    outer loop
      vertex 43.648048400878906 52.771636962890625 0
      vertex 43.648048400878906 180.22836303710938 0
      vertex 44.62131881713867 180.87867736816406 0
    endloop
  endfacet
  facet normal 0 0 -1
    outer loop
      vertex 42.5 53 0
      vertex 43.648048400878906 180.22836303710938 0
      vertex 43.648048400878906 52.771636962890625 0
    endloop
  endfacet
  facet normal 0 0 -1
    outer loop
      vertex 42.5 53 0
      vertex 42.5 180 0
      vertex 43.648048400878906 180.22836303710938 0
    endloop
  endfacet
  facet normal 0 0 -1
    outer loop
      vertex 41.351951599121094 52.771636962890625 0
      vertex 42.5 180 0
      vertex 42.5 53 0
    endloop
  endfacet
  facet normal 0 0 -1
    outer loop
      vertex 41.351951599121094 52.771636962890625 0
      vertex 41.351951599121094 180.22836303710938 0
      vertex 42.5 180 0
    endloop
  endfacet
  facet normal 0 0 -1
    outer loop
      vertex 40.37867736816406 52.12131881713867 0
      vertex 41.351951599121094 180.22836303710938 0
      vertex 41.351951599121094 52.771636962890625 0
    endloop
  endfacet
  facet normal 0 0 -1
    outer loop
      vertex 40.37867736816406 52.12131881713867 0
      vertex 40.37867736816406 180.87867736816406 0
      vertex 41.351951599121094 180.22836303710938 0
    endloop
  endfacet
  facet normal 0 0 -1
    outer loop
      vertex 39.728363037109375 51.148048400878906 0
      vertex 40.37867736816406 180.87867736816406 0
      vertex 40.37867736816406 52.12131881713867 0
    endloop
  endfacet
  facet normal 0 0 -1
    outer loop
      vertex 39.728363037109375 51.148048400878906 0
      vertex 39.728363037109375 181.85194396972656 0
      vertex 40.37867736816406 180.87867736816406 0
    endloop
  endfacet
  facet normal 0 0 -1
    outer loop
      vertex 0 0 0
      vertex 39.728363037109375 51.148048400878906 0
      vertex 39.5 50 0
    endloop
  endfacet
  facet normal 0 0 -1
    outer loop
      vertex 39.728363037109375 51.148048400878906 0
      vertex 0 0 0
      vertex 39.728363037109375 181.85194396972656 0
    endloop
  endfacet
  facet normal 0 0 -1
    outer loop
      vertex 757.2716674804688 181.85194396972656 0
      vertex 797 233 0
      vertex 757.2716674804688 51.148048400878906 0
    endloop
  endfacet
  facet normal 0 0 -1
    outer loop
      vertex 797 233 0
      vertex 757.2716674804688 181.85194396972656 0
      vertex 757.5 183 0
    endloop
  endfacet
  facet normal 0 0 -1
    outer loop
      vertex 756.621337890625 52.12131881713867 0
      vertex 757.2716674804688 181.85194396972656 0
      vertex 757.2716674804688 51.148048400878906 0
    endloop
  endfacet
  facet normal 0 0 -1
    outer loop
      vertex 756.621337890625 52.12131881713867 0
      vertex 756.621337890625 180.87867736816406 0
      vertex 757.2716674804688 181.85194396972656 0
    endloop
  endfacet
  facet normal 0 0 -1
    outer loop
      vertex 755.6480712890625 52.771636962890625 0
      vertex 756.621337890625 180.87867736816406 0
      vertex 756.621337890625 52.12131881713867 0
    endloop
  endfacet
  facet normal 0 0 -1
    outer loop
      vertex 755.6480712890625 52.771636962890625 0
      vertex 755.6480712890625 180.22836303710938 0
      vertex 756.621337890625 180.87867736816406 0
    endloop
  endfacet
  facet normal 0 0 -1
    outer loop
      vertex 754.5 53 0
      vertex 755.6480712890625 180.22836303710938 0
      vertex 755.6480712890625 52.771636962890625 0
    endloop
  endfacet
  facet normal 0 0 -1
    outer loop
      vertex 754.5 53 0
      vertex 754.5 180 0
      vertex 755.6480712890625 180.22836303710938 0
    endloop
  endfacet
  facet normal 0 0 -1
    outer loop
      vertex 753.3519287109375 52.771636962890625 0
      vertex 754.5 180 0
      vertex 754.5 53 0
    endloop
  endfacet
  facet normal 0 0 -1
    outer loop
      vertex 753.3519287109375 52.771636962890625 0
      vertex 753.3519287109375 180.22836303710938 0
      vertex 754.5 180 0
    endloop
  endfacet
  facet normal 0 0 -1
    outer loop
      vertex 752.378662109375 52.12131881713867 0
      vertex 753.3519287109375 180.22836303710938 0
      vertex 753.3519287109375 52.771636962890625 0
    endloop
  endfacet
  facet normal 0 0 -1
    outer loop
      vertex 752.378662109375 52.12131881713867 0
      vertex 752.378662109375 180.87867736816406 0
      vertex 753.3519287109375 180.22836303710938 0
    endloop
  endfacet
  facet normal 0 0 -1
    outer loop
      vertex 751.7283325195312 51.148048400878906 0
      vertex 752.378662109375 180.87867736816406 0
      vertex 752.378662109375 52.12131881713867 0
    endloop
  endfacet
  facet normal 0 0 -1
    outer loop
      vertex 751.7283325195312 51.148048400878906 0
      vertex 751.7283325195312 181.85194396972656 0
      vertex 752.378662109375 180.87867736816406 0
    endloop
  endfacet
  facet normal 0 0 -1
    outer loop
      vertex 704.5 9 0
      vertex 751.7283325195312 51.148048400878906 0
      vertex 751.5 50 0
    endloop
  endfacet
  facet normal 0 0 -1
    outer loop
      vertex 751.7283325195312 51.148048400878906 0
      vertex 703.3519287109375 8.771637916564941 0
      vertex 751.7283325195312 181.85194396972656 0
    endloop
  endfacet
  facet normal 0 0 -1
    outer loop
      vertex 757.2716674804688 51.148048400878906 0
      vertex 797 0 0
      vertex 757.5 50 0
    endloop
  endfacet
  facet normal 0 0 -1
    outer loop
      vertex 797 0 0
      vertex 757.2716674804688 48.851951599121094 0
      vertex 757.5 50 0
    endloop
  endfacet
  facet normal 0 0 -1
    outer loop
      vertex 797 0 0
      vertex 756.621337890625 47.87867736816406 0
      vertex 757.2716674804688 48.851951599121094 0
    endloop
  endfacet
  facet normal 0 0 -1
    outer loop
      vertex 797 0 0
      vertex 755.6480712890625 47.228363037109375 0
      vertex 756.621337890625 47.87867736816406 0
    endloop
  endfacet
  facet normal 0 0 -1
    outer loop
      vertex 797 0 0
      vertex 754.5 47 0
      vertex 755.6480712890625 47.228363037109375 0
    endloop
  endfacet
  facet normal 0 0 -1
    outer loop
      vertex 707.5 6 0
      vertex 754.5 47 0
      vertex 797 0 0
    endloop
  endfacet
  facet normal 0 0 -1
    outer loop
      vertex 754.5 47 0
      vertex 707.5 6 0
      vertex 753.3519287109375 47.228363037109375 0
    endloop
  endfacet
  facet normal 0 0 -1
    outer loop
      vertex 752.378662109375 47.87867736816406 0
      vertex 706.621337890625 8.121319770812988 0
      vertex 751.7283325195312 48.851951599121094 0
    endloop
  endfacet
  facet normal 0 0 -1
    outer loop
      vertex 706.621337890625 8.121319770812988 0
      vertex 752.378662109375 47.87867736816406 0
      vertex 707.2716674804688 7.148049354553223 0
    endloop
  endfacet
  facet normal 0 0 -1
    outer loop
      vertex 753.3519287109375 47.228363037109375 0
      vertex 707.2716674804688 7.148049354553223 0
      vertex 752.378662109375 47.87867736816406 0
    endloop
  endfacet
  facet normal 0 0 -1
    outer loop
      vertex 707.2716674804688 7.148049354553223 0
      vertex 753.3519287109375 47.228363037109375 0
      vertex 707.5 6 0
    endloop
  endfacet
  facet normal 0 0 -1
    outer loop
      vertex 797 0 0
      vertex 707.2716674804688 4.851949691772461 0
      vertex 707.5 6 0
    endloop
  endfacet
  facet normal 0 0 -1
    outer loop
      vertex 797 0 0
      vertex 706.621337890625 3.8786792755126953 0
      vertex 707.2716674804688 4.851949691772461 0
    endloop
  endfacet
  facet normal 0 0 -1
    outer loop
      vertex 797 0 0
      vertex 705.6480712890625 3.228361129760742 0
      vertex 706.621337890625 3.8786792755126953 0
    endloop
  endfacet
  facet normal 0 0 -1
    outer loop
      vertex 797 0 0
      vertex 704.5 3 0
      vertex 705.6480712890625 3.228361129760742 0
    endloop
  endfacet
  facet normal 0 0 -1
    outer loop
      vertex 701.7283325195312 4.851949691772461 0
      vertex 503.5 6 0
      vertex 701.5 6 0
    endloop
  endfacet
  facet normal 0 0 -1
    outer loop
      vertex 503.2716369628906 4.851949691772461 0
      vertex 701.7283325195312 4.851949691772461 0
      vertex 702.378662109375 3.8786792755126953 0
    endloop
  endfacet
  facet normal 0 0 -1
    outer loop
      vertex 502.6213073730469 3.8786792755126953 0
      vertex 702.378662109375 3.8786792755126953 0
      vertex 703.3519287109375 3.228361129760742 0
    endloop
  endfacet
  facet normal 0 0 -1
    outer loop
      vertex 501.6480407714844 3.228361129760742 0
      vertex 703.3519287109375 3.228361129760742 0
      vertex 704.5 3 0
    endloop
  endfacet
  facet normal 0 0 -1
    outer loop
      vertex 500.5 3 0
      vertex 704.5 3 0
      vertex 797 0 0
    endloop
  endfacet
  facet normal 0 0 -1
    outer loop
      vertex 701.7283325195312 4.851949691772461 0
      vertex 503.2716369628906 4.851949691772461 0
      vertex 503.5 6 0
    endloop
  endfacet
  facet normal 0 0 -1
    outer loop
      vertex 702.378662109375 3.8786792755126953 0
      vertex 502.6213073730469 3.8786792755126953 0
      vertex 503.2716369628906 4.851949691772461 0
    endloop
  endfacet
  facet normal 0 0 -1
    outer loop
      vertex 703.3519287109375 3.228361129760742 0
      vertex 501.6480407714844 3.228361129760742 0
      vertex 502.6213073730469 3.8786792755126953 0
    endloop
  endfacet
  facet normal 0 0 -1
    outer loop
      vertex 704.5 3 0
      vertex 500.5 3 0
      vertex 501.6480407714844 3.228361129760742 0
    endloop
  endfacet
  facet normal 0 0 -1
    outer loop
      vertex 702.378662109375 8.121319770812988 0
      vertex 480.3477478027344 128.23463439941406 0
      vertex 480.5 129 0
    endloop
  endfacet
  facet normal 0 0 -1
    outer loop
      vertex 497.7283630371094 7.148049354553223 0
      vertex 479.9142150878906 127.58578491210938 0
      vertex 480.3477478027344 128.23463439941406 0
    endloop
  endfacet
  facet normal 0 0 -1
    outer loop
      vertex 497.7283630371094 7.148049354553223 0
      vertex 479.265380859375 127.15223693847656 0
      vertex 479.9142150878906 127.58578491210938 0
    endloop
  endfacet
  facet normal 0 0 -1
    outer loop
      vertex 497.7283630371094 7.148049354553223 0
      vertex 478.5 127 0
      vertex 479.265380859375 127.15223693847656 0
    endloop
  endfacet
  facet normal 0 0 -1
    outer loop
      vertex 497.7283630371094 7.148049354553223 0
      vertex 477.734619140625 127.15223693847656 0
      vertex 478.5 127 0
    endloop
  endfacet
  facet normal 0 0 -1
    outer loop
      vertex 497.7283630371094 7.148049354553223 0
      vertex 477.0857849121094 127.58578491210938 0
      vertex 477.734619140625 127.15223693847656 0
    endloop
  endfacet
  facet normal 0 0 -1
    outer loop
      vertex 497.7283630371094 7.148049354553223 0
      vertex 319.9142150878906 127.58578491210938 0
      vertex 477.0857849121094 127.58578491210938 0
    endloop
  endfacet
  facet normal 0 0 -1
    outer loop
      vertex 477.0857849121094 127.58578491210938 0
      vertex 319.9142150878906 127.58578491210938 0
      vertex 476.6522521972656 128.23463439941406 0
    endloop
  endfacet
  facet normal 0 0 -1
    outer loop
      vertex 320.3477478027344 128.23463439941406 0
      vertex 476.6522521972656 128.23463439941406 0
      vertex 319.9142150878906 127.58578491210938 0
    endloop
  endfacet
  facet normal 0 0 -1
    outer loop
      vertex 299.5 6 0
      vertex 497.5 6 0
      vertex 497.7283630371094 4.851949691772461 0
    endloop
  endfacet
  facet normal 0 0 -1
    outer loop
      vertex 299.2716369628906 4.851949691772461 0
      vertex 497.7283630371094 4.851949691772461 0
      vertex 498.3786926269531 3.8786792755126953 0
    endloop
  endfacet
  facet normal 0 0 -1
    outer loop
      vertex 476.5 129 0
      vertex 320.3477478027344 128.23463439941406 0
      vertex 320.5 129 0
    endloop
  endfacet
  facet normal 0 0 -1
    outer loop
      vertex 476.6522521972656 128.23463439941406 0
      vertex 320.3477478027344 128.23463439941406 0
      vertex 476.5 129 0
    endloop
  endfacet
  facet normal 0 0 -1
    outer loop
      vertex 497.7283630371094 7.148049354553223 0
      vertex 299.2716369628906 7.148049354553223 0
      vertex 319.9142150878906 127.58578491210938 0
    endloop
  endfacet
  facet normal 0 0 -1
    outer loop
      vertex 298.6213073730469 8.121319770812988 0
      vertex 319.9142150878906 127.58578491210938 0
      vertex 299.2716369628906 7.148049354553223 0
    endloop
  endfacet
  facet normal 0 0 -1
    outer loop
      vertex 319.9142150878906 127.58578491210938 0
      vertex 298.6213073730469 8.121319770812988 0
      vertex 319.265380859375 127.15223693847656 0
    endloop
  endfacet
  facet normal 0 0 -1
    outer loop
      vertex 297.6480407714844 8.771637916564941 0
      vertex 319.265380859375 127.15223693847656 0
      vertex 298.6213073730469 8.121319770812988 0
    endloop
  endfacet
  facet normal 0 0 -1
    outer loop
      vertex 296.5 9 0
      vertex 318.5 127 0
      vertex 297.6480407714844 8.771637916564941 0
    endloop
  endfacet
  facet normal 0 0 -1
    outer loop
      vertex 319.265380859375 127.15223693847656 0
      vertex 297.6480407714844 8.771637916564941 0
      vertex 318.5 127 0
    endloop
  endfacet
  facet normal 0 0 -1
    outer loop
      vertex 497.5 6 0
      vertex 299.5 6 0
      vertex 299.2716369628906 7.148049354553223 0
    endloop
  endfacet
  facet normal 0 0 -1
    outer loop
      vertex 298.6213073730469 3.8786792755126953 0
      vertex 498.3786926269531 3.8786792755126953 0
      vertex 499.3519592285156 3.228361129760742 0
    endloop
  endfacet
  facet normal 0 0 -1
    outer loop
      vertex 297.6480407714844 3.228361129760742 0
      vertex 499.3519592285156 3.228361129760742 0
      vertex 500.5 3 0
    endloop
  endfacet
  facet normal 0 0 -1
    outer loop
      vertex 497.7283630371094 4.851949691772461 0
      vertex 299.2716369628906 4.851949691772461 0
      vertex 299.5 6 0
    endloop
  endfacet
  facet normal 0 0 -1
    outer loop
      vertex 296.5 3 0
      vertex 500.5 3 0
      vertex 797 0 0
    endloop
  endfacet
  facet normal 0 0 -1
    outer loop
      vertex 498.3786926269531 3.8786792755126953 0
      vertex 298.6213073730469 3.8786792755126953 0
      vertex 299.2716369628906 4.851949691772461 0
    endloop
  endfacet
  facet normal 0 0 -1
    outer loop
      vertex 499.3519592285156 3.228361129760742 0
      vertex 297.6480407714844 3.228361129760742 0
      vertex 298.6213073730469 3.8786792755126953 0
    endloop
  endfacet
  facet normal 0 0 -1
    outer loop
      vertex 500.5 3 0
      vertex 296.5 3 0
      vertex 297.6480407714844 3.228361129760742 0
    endloop
  endfacet
  facet normal 0 0 -1
    outer loop
      vertex 293.7283630371094 4.851949691772461 0
      vertex 95.5 6 0
      vertex 293.5 6 0
    endloop
  endfacet
  facet normal 0 0 -1
    outer loop
      vertex 95.27163696289062 4.851949691772461 0
      vertex 293.7283630371094 4.851949691772461 0
      vertex 294.3786926269531 3.8786792755126953 0
    endloop
  endfacet
  facet normal 0 0 -1
    outer loop
      vertex 94.62132263183594 3.8786792755126953 0
      vertex 294.3786926269531 3.8786792755126953 0
      vertex 295.3519592285156 3.228361129760742 0
    endloop
  endfacet
  facet normal 0 0 -1
    outer loop
      vertex 93.6480484008789 3.228361129760742 0
      vertex 295.3519592285156 3.228361129760742 0
      vertex 296.5 3 0
    endloop
  endfacet
  facet normal 0 0 -1
    outer loop
      vertex 293.7283630371094 4.851949691772461 0
      vertex 95.27163696289062 4.851949691772461 0
      vertex 95.5 6 0
    endloop
  endfacet
  facet normal 0 0 -1
    outer loop
      vertex 294.3786926269531 3.8786792755126953 0
      vertex 94.62132263183594 3.8786792755126953 0
      vertex 95.27163696289062 4.851949691772461 0
    endloop
  endfacet
  facet normal 0 0 -1
    outer loop
      vertex 0 0 0
      vertex 296.5 3 0
      vertex 797 0 0
    endloop
  endfacet
  facet normal 0 0 -1
    outer loop
      vertex 295.3519592285156 3.228361129760742 0
      vertex 93.6480484008789 3.228361129760742 0
      vertex 94.62132263183594 3.8786792755126953 0
    endloop
  endfacet
  facet normal 0 0 -1
    outer loop
      vertex 296.5 3 0
      vertex 92.5 3 0
      vertex 93.6480484008789 3.228361129760742 0
    endloop
  endfacet
  facet normal 0 0 -1
    outer loop
      vertex 0 0 0
      vertex 89.5 6 0
      vertex 89.72836303710938 4.851949691772461 0
    endloop
  endfacet
  facet normal 0 0 -1
    outer loop
      vertex 0 0 0
      vertex 89.72836303710938 4.851949691772461 0
      vertex 90.37867736816406 3.8786792755126953 0
    endloop
  endfacet
  facet normal 0 0 -1
    outer loop
      vertex 89.5 6 0
      vertex 45.271636962890625 48.851951599121094 0
      vertex 45.5 50 0
    endloop
  endfacet
  facet normal 0 0 -1
    outer loop
      vertex 89.5 6 0
      vertex 44.62131881713867 47.87867736816406 0
      vertex 45.271636962890625 48.851951599121094 0
    endloop
  endfacet
  facet normal 0 0 -1
    outer loop
      vertex 89.5 6 0
      vertex 43.648048400878906 47.228363037109375 0
      vertex 44.62131881713867 47.87867736816406 0
    endloop
  endfacet
  facet normal 0 0 -1
    outer loop
      vertex 89.5 6 0
      vertex 42.5 47 0
      vertex 43.648048400878906 47.228363037109375 0
    endloop
  endfacet
  facet normal 0 0 -1
    outer loop
      vertex 89.5 6 0
      vertex 0 0 0
      vertex 42.5 47 0
    endloop
  endfacet
  facet normal 0 0 -1
    outer loop
      vertex 42.5 47 0
      vertex 0 0 0
      vertex 41.351951599121094 47.228363037109375 0
    endloop
  endfacet
  facet normal 0 0 -1
    outer loop
      vertex 0 233 0
      vertex 39.728363037109375 181.85194396972656 0
      vertex 0 0 0
    endloop
  endfacet
  facet normal 0 0 -1
    outer loop
      vertex 39.728363037109375 48.851951599121094 0
      vertex 0 0 0
      vertex 39.5 50 0
    endloop
  endfacet
  facet normal 0 0 -1
    outer loop
      vertex 40.37867736816406 47.87867736816406 0
      vertex 0 0 0
      vertex 39.728363037109375 48.851951599121094 0
    endloop
  endfacet
  facet normal 0 0 -1
    outer loop
      vertex 41.351951599121094 47.228363037109375 0
      vertex 0 0 0
      vertex 40.37867736816406 47.87867736816406 0
    endloop
  endfacet
  facet normal 0 0 -1
    outer loop
      vertex 91.3519515991211 3.228361129760742 0
      vertex 0 0 0
      vertex 90.37867736816406 3.8786792755126953 0
    endloop
  endfacet
  facet normal 0 0 -1
    outer loop
      vertex 92.5 3 0
      vertex 0 0 0
      vertex 91.3519515991211 3.228361129760742 0
    endloop
  endfacet
  facet normal 0 0 -1
    outer loop
      vertex 296.5 3 0
      vertex 0 0 0
      vertex 92.5 3 0
    endloop
  endfacet
  facet normal 0 0 -1
    outer loop
      vertex 797 0 0
      vertex 757.2716674804688 51.148048400878906 0
      vertex 797 233 0
    endloop
  endfacet
  facet normal 0 0 -1
    outer loop
      vertex 757.2716674804688 184.14805603027344 0
      vertex 797 233 0
      vertex 757.5 183 0
    endloop
  endfacet
  facet normal 0 0 -1
    outer loop
      vertex 756.621337890625 185.12132263183594 0
      vertex 797 233 0
      vertex 757.2716674804688 184.14805603027344 0
    endloop
  endfacet
  facet normal 0 0 -1
    outer loop
      vertex 755.6480712890625 185.77163696289062 0
      vertex 797 233 0
      vertex 756.621337890625 185.12132263183594 0
    endloop
  endfacet
  facet normal 0 0 -1
    outer loop
      vertex 754.5 186 0
      vertex 797 233 0
      vertex 755.6480712890625 185.77163696289062 0
    endloop
  endfacet
  facet normal 0 0 -1
    outer loop
      vertex 753.3519287109375 185.77163696289062 0
      vertex 797 233 0
      vertex 754.5 186 0
    endloop
  endfacet
  facet normal 0 0 -1
    outer loop
      vertex 752.378662109375 185.12132263183594 0
      vertex 797 233 0
      vertex 753.3519287109375 185.77163696289062 0
    endloop
  endfacet
  facet normal 0 0 -1
    outer loop
      vertex 705.6480712890625 8.771637916564941 0
      vertex 751.7283325195312 48.851951599121094 0
      vertex 706.621337890625 8.121319770812988 0
    endloop
  endfacet
  facet normal 0 0 -1
    outer loop
      vertex 751.7283325195312 48.851951599121094 0
      vertex 705.6480712890625 8.771637916564941 0
      vertex 751.5 50 0
    endloop
  endfacet
  facet normal 0 0 -1
    outer loop
      vertex 704.5 9 0
      vertex 751.5 50 0
      vertex 705.6480712890625 8.771637916564941 0
    endloop
  endfacet
  facet normal 0 0 -1
    outer loop
      vertex 751.7283325195312 51.148048400878906 0
      vertex 704.5 9 0
      vertex 703.3519287109375 8.771637916564941 0
    endloop
  endfacet
  facet normal 0 0 -1
    outer loop
      vertex 702.378662109375 8.121319770812988 0
      vertex 751.7283325195312 181.85194396972656 0
      vertex 703.3519287109375 8.771637916564941 0
    endloop
  endfacet
  facet normal 0 0 -1
    outer loop
      vertex 480.5 129 0
      vertex 751.7283325195312 181.85194396972656 0
      vertex 702.378662109375 8.121319770812988 0
    endloop
  endfacet
  facet normal 0 0 -1
    outer loop
      vertex 751.7283325195312 181.85194396972656 0
      vertex 480.5 129 0
      vertex 751.5 183 0
    endloop
  endfacet
  facet normal 0 0 -1
    outer loop
      vertex 502.6213073730469 8.121319770812988 0
      vertex 702.378662109375 8.121319770812988 0
      vertex 701.7283325195312 7.148049354553223 0
    endloop
  endfacet
  facet normal 0 0 -1
    outer loop
      vertex 503.5 6 0
      vertex 701.7283325195312 7.148049354553223 0
      vertex 701.5 6 0
    endloop
  endfacet
  facet normal 0 0 -1
    outer loop
      vertex 503.2716369628906 7.148049354553223 0
      vertex 701.7283325195312 7.148049354553223 0
      vertex 503.5 6 0
    endloop
  endfacet
  facet normal 0 0 -1
    outer loop
      vertex 502.6213073730469 8.121319770812988 0
      vertex 701.7283325195312 7.148049354553223 0
      vertex 503.2716369628906 7.148049354553223 0
    endloop
  endfacet
  facet normal 0 0 -1
    outer loop
      vertex 480.3477478027344 128.23463439941406 0
      vertex 702.378662109375 8.121319770812988 0
      vertex 502.6213073730469 8.121319770812988 0
    endloop
  endfacet
  facet normal 0 0 -1
    outer loop
      vertex 751.5 183 0
      vertex 480.3477478027344 129.76536560058594 0
      vertex 751.7283325195312 184.14805603027344 0
    endloop
  endfacet
  facet normal 0 0 -1
    outer loop
      vertex 480.3477478027344 129.76536560058594 0
      vertex 751.5 183 0
      vertex 480.5 129 0
    endloop
  endfacet
  facet normal 0 0 -1
    outer loop
      vertex 480.3477478027344 128.23463439941406 0
      vertex 502.6213073730469 8.121319770812988 0
      vertex 501.6480407714844 8.771637916564941 0
    endloop
  endfacet
  facet normal 0 0 -1
    outer loop
      vertex 480.3477478027344 128.23463439941406 0
      vertex 501.6480407714844 8.771637916564941 0
      vertex 500.5 9 0
    endloop
  endfacet
  facet normal 0 0 -1
    outer loop
      vertex 480.3477478027344 128.23463439941406 0
      vertex 500.5 9 0
      vertex 499.3519592285156 8.771637916564941 0
    endloop
  endfacet
  facet normal 0 0 -1
    outer loop
      vertex 480.3477478027344 128.23463439941406 0
      vertex 499.3519592285156 8.771637916564941 0
      vertex 498.3786926269531 8.121319770812988 0
    endloop
  endfacet
  facet normal 0 0 -1
    outer loop
      vertex 299.2716369628906 7.148049354553223 0
      vertex 497.7283630371094 7.148049354553223 0
      vertex 497.5 6 0
    endloop
  endfacet
  facet normal 0 0 -1
    outer loop
      vertex 480.3477478027344 128.23463439941406 0
      vertex 498.3786926269531 8.121319770812988 0
      vertex 497.7283630371094 7.148049354553223 0
    endloop
  endfacet
  facet normal 0 0 -1
    outer loop
      vertex 479.9142150878906 130.41421508789062 0
      vertex 751.7283325195312 184.14805603027344 0
      vertex 480.3477478027344 129.76536560058594 0
    endloop
  endfacet
  facet normal 0 0 -1
    outer loop
      vertex 751.7283325195312 184.14805603027344 0
      vertex 479.9142150878906 130.41421508789062 0
      vertex 752.378662109375 185.12132263183594 0
    endloop
  endfacet
  facet normal 0 0 -1
    outer loop
      vertex 479.265380859375 130.84776306152344 0
      vertex 752.378662109375 185.12132263183594 0
      vertex 479.9142150878906 130.41421508789062 0
    endloop
  endfacet
  facet normal 0 0 -1
    outer loop
      vertex 752.378662109375 185.12132263183594 0
      vertex 479.265380859375 130.84776306152344 0
      vertex 797 233 0
    endloop
  endfacet
  facet normal 0 0 -1
    outer loop
      vertex 478.5 131 0
      vertex 797 233 0
      vertex 479.265380859375 130.84776306152344 0
    endloop
  endfacet
  facet normal 0 0 -1
    outer loop
      vertex 318.5 131 0
      vertex 478.5 131 0
      vertex 477.734619140625 130.84776306152344 0
    endloop
  endfacet
  facet normal 0 0 -1
    outer loop
      vertex 320.5 129 0
      vertex 476.6522521972656 129.76536560058594 0
      vertex 476.5 129 0
    endloop
  endfacet
  facet normal 0 0 -1
    outer loop
      vertex 320.3477478027344 129.76536560058594 0
      vertex 476.6522521972656 129.76536560058594 0
      vertex 320.5 129 0
    endloop
  endfacet
  facet normal 0 0 -1
    outer loop
      vertex 476.6522521972656 129.76536560058594 0
      vertex 320.3477478027344 129.76536560058594 0
      vertex 477.0857849121094 130.41421508789062 0
    endloop
  endfacet
  facet normal 0 0 -1
    outer loop
      vertex 319.9142150878906 130.41421508789062 0
      vertex 477.0857849121094 130.41421508789062 0
      vertex 320.3477478027344 129.76536560058594 0
    endloop
  endfacet
  facet normal 0 0 -1
    outer loop
      vertex 477.0857849121094 130.41421508789062 0
      vertex 319.9142150878906 130.41421508789062 0
      vertex 477.734619140625 130.84776306152344 0
    endloop
  endfacet
  facet normal 0 0 -1
    outer loop
      vertex 319.265380859375 130.84776306152344 0
      vertex 477.734619140625 130.84776306152344 0
      vertex 319.9142150878906 130.41421508789062 0
    endloop
  endfacet
  facet normal 0 0 -1
    outer loop
      vertex 318.5 131 0
      vertex 477.734619140625 130.84776306152344 0
      vertex 319.265380859375 130.84776306152344 0
    endloop
  endfacet
  facet normal 0 0 -1
    outer loop
      vertex 478.5 131 0
      vertex 318.5 131 0
      vertex 797 233 0
    endloop
  endfacet
  facet normal 0 0 -1
    outer loop
      vertex 0 233 0
      vertex 318.5 131 0
      vertex 317.734619140625 130.84776306152344 0
    endloop
  endfacet
  facet normal 0 0 -1
    outer loop
      vertex 318.5 127 0
      vertex 296.5 9 0
      vertex 317.734619140625 127.15223693847656 0
    endloop
  endfacet
  facet normal 0 0 -1
    outer loop
      vertex 295.3519592285156 8.771637916564941 0
      vertex 317.734619140625 127.15223693847656 0
      vertex 296.5 9 0
    endloop
  endfacet
  facet normal 0 0 -1
    outer loop
      vertex 317.734619140625 127.15223693847656 0
      vertex 295.3519592285156 8.771637916564941 0
      vertex 317.0857849121094 127.58578491210938 0
    endloop
  endfacet
  facet normal 0 0 -1
    outer loop
      vertex 294.3786926269531 8.121319770812988 0
      vertex 317.0857849121094 127.58578491210938 0
      vertex 295.3519592285156 8.771637916564941 0
    endloop
  endfacet
  facet normal 0 0 -1
    outer loop
      vertex 317.0857849121094 127.58578491210938 0
      vertex 294.3786926269531 8.121319770812988 0
      vertex 316.6522521972656 128.23463439941406 0
    endloop
  endfacet
  facet normal 0 0 -1
    outer loop
      vertex 94.62132263183594 8.121319770812988 0
      vertex 316.6522521972656 128.23463439941406 0
      vertex 294.3786926269531 8.121319770812988 0
    endloop
  endfacet
  facet normal 0 0 -1
    outer loop
      vertex 94.62132263183594 8.121319770812988 0
      vertex 294.3786926269531 8.121319770812988 0
      vertex 293.7283630371094 7.148049354553223 0
    endloop
  endfacet
  facet normal 0 0 -1
    outer loop
      vertex 95.27163696289062 7.148049354553223 0
      vertex 293.7283630371094 7.148049354553223 0
      vertex 293.5 6 0
    endloop
  endfacet
  facet normal 0 0 -1
    outer loop
      vertex 95.27163696289062 7.148049354553223 0
      vertex 293.5 6 0
      vertex 95.5 6 0
    endloop
  endfacet
  facet normal 0 0 -1
    outer loop
      vertex 293.7283630371094 7.148049354553223 0
      vertex 95.27163696289062 7.148049354553223 0
      vertex 94.62132263183594 8.121319770812988 0
    endloop
  endfacet
  facet normal 0 0 -1
    outer loop
      vertex 316.6522521972656 128.23463439941406 0
      vertex 94.62132263183594 8.121319770812988 0
      vertex 316.5 129 0
    endloop
  endfacet
  facet normal 0 0 -1
    outer loop
      vertex 45.5 183 0
      vertex 316.5 129 0
      vertex 94.62132263183594 8.121319770812988 0
    endloop
  endfacet
  facet normal 0 0 -1
    outer loop
      vertex 316.5 129 0
      vertex 45.5 183 0
      vertex 316.6522521972656 129.76536560058594 0
    endloop
  endfacet
  facet normal 0 0 -1
    outer loop
      vertex 316.6522521972656 129.76536560058594 0
      vertex 45.5 183 0
      vertex 317.0857849121094 130.41421508789062 0
    endloop
  endfacet
  facet normal 0 0 -1
    outer loop
      vertex 45.5 183 0
      vertex 94.62132263183594 8.121319770812988 0
      vertex 93.6480484008789 8.771637916564941 0
    endloop
  endfacet
  facet normal 0 0 -1
    outer loop
      vertex 45.271636962890625 51.148048400878906 0
      vertex 92.5 9 0
      vertex 45.5 50 0
    endloop
  endfacet
  facet normal 0 0 -1
    outer loop
      vertex 45.5 50 0
      vertex 92.5 9 0
      vertex 91.3519515991211 8.771637916564941 0
    endloop
  endfacet
  facet normal 0 0 -1
    outer loop
      vertex 45.5 50 0
      vertex 89.72836303710938 7.148049354553223 0
      vertex 89.5 6 0
    endloop
  endfacet
  facet normal 0 0 -1
    outer loop
      vertex 45.5 50 0
      vertex 90.37867736816406 8.121319770812988 0
      vertex 89.72836303710938 7.148049354553223 0
    endloop
  endfacet
  facet normal 0 0 -1
    outer loop
      vertex 45.5 50 0
      vertex 91.3519515991211 8.771637916564941 0
      vertex 90.37867736816406 8.121319770812988 0
    endloop
  endfacet
  facet normal 0 0 -1
    outer loop
      vertex 92.5 9 0
      vertex 45.271636962890625 51.148048400878906 0
      vertex 93.6480484008789 8.771637916564941 0
    endloop
  endfacet
  facet normal 0 0 -1
    outer loop
      vertex 45.271636962890625 184.14805603027344 0
      vertex 317.0857849121094 130.41421508789062 0
      vertex 45.5 183 0
    endloop
  endfacet
  facet normal 0 0 -1
    outer loop
      vertex 317.0857849121094 130.41421508789062 0
      vertex 45.271636962890625 184.14805603027344 0
      vertex 317.734619140625 130.84776306152344 0
    endloop
  endfacet
  facet normal 0 0 -1
    outer loop
      vertex 44.62131881713867 185.12132263183594 0
      vertex 317.734619140625 130.84776306152344 0
      vertex 45.271636962890625 184.14805603027344 0
    endloop
  endfacet
  facet normal 0 0 -1
    outer loop
      vertex 0 233 0
      vertex 317.734619140625 130.84776306152344 0
      vertex 44.62131881713867 185.12132263183594 0
    endloop
  endfacet
  facet normal 0 0 -1
    outer loop
      vertex 0 233 0
      vertex 44.62131881713867 185.12132263183594 0
      vertex 43.648048400878906 185.77163696289062 0
    endloop
  endfacet
  facet normal 0 0 -1
    outer loop
      vertex 0 233 0
      vertex 43.648048400878906 185.77163696289062 0
      vertex 42.5 186 0
    endloop
  endfacet
  facet normal 0 0 -1
    outer loop
      vertex 39.728363037109375 181.85194396972656 0
      vertex 0 233 0
      vertex 39.5 183 0
    endloop
  endfacet
  facet normal 0 0 -1
    outer loop
      vertex 318.5 131 0
      vertex 0 233 0
      vertex 797 233 0
    endloop
  endfacet
  facet normal 0 0 -1
    outer loop
      vertex 41.351951599121094 185.77163696289062 0
      vertex 0 233 0
      vertex 42.5 186 0
    endloop
  endfacet
  facet normal 0 0 -1
    outer loop
      vertex 40.37867736816406 185.12132263183594 0
      vertex 0 233 0
      vertex 41.351951599121094 185.77163696289062 0
    endloop
  endfacet
  facet normal 0 0 -1
    outer loop
      vertex 39.728363037109375 184.14805603027344 0
      vertex 0 233 0
      vertex 40.37867736816406 185.12132263183594 0
    endloop
  endfacet
  facet normal 0 0 -1
    outer loop
      vertex 39.5 183 0
      vertex 0 233 0
      vertex 39.728363037109375 184.14805603027344 0
    endloop
  endfacet
  facet normal 0 0 -1
    outer loop
      vertex 95.27163696289062 4.851949691772461 0
      vertex 95.27163696289062 7.148049354553223 0
      vertex 95.5 6 0
    endloop
  endfacet
  facet normal 0 0 -1
    outer loop
      vertex 94.62132263183594 3.8786792755126953 0
      vertex 95.27163696289062 7.148049354553223 0
      vertex 95.27163696289062 4.851949691772461 0
    endloop
  endfacet
  facet normal 0 0 -1
    outer loop
      vertex 94.62132263183594 3.8786792755126953 0
      vertex 94.62132263183594 8.121319770812988 0
      vertex 95.27163696289062 7.148049354553223 0
    endloop
  endfacet
  facet normal 0 0 -1
    outer loop
      vertex 93.6480484008789 3.228361129760742 0
      vertex 94.62132263183594 8.121319770812988 0
      vertex 94.62132263183594 3.8786792755126953 0
    endloop
  endfacet
  facet normal 0 0 -1
    outer loop
      vertex 93.6480484008789 3.228361129760742 0
      vertex 93.6480484008789 8.771637916564941 0
      vertex 94.62132263183594 8.121319770812988 0
    endloop
  endfacet
  facet normal 0 0 -1
    outer loop
      vertex 92.5 3 0
      vertex 93.6480484008789 8.771637916564941 0
      vertex 93.6480484008789 3.228361129760742 0
    endloop
  endfacet
  facet normal 0 0 -1
    outer loop
      vertex 92.5 3 0
      vertex 92.5 9 0
      vertex 93.6480484008789 8.771637916564941 0
    endloop
  endfacet
  facet normal 0 0 -1
    outer loop
      vertex 91.3519515991211 3.228361129760742 0
      vertex 92.5 9 0
      vertex 92.5 3 0
    endloop
  endfacet
  facet normal 0 0 -1
    outer loop
      vertex 91.3519515991211 3.228361129760742 0
      vertex 91.3519515991211 8.771637916564941 0
      vertex 92.5 9 0
    endloop
  endfacet
  facet normal 0 0 -1
    outer loop
      vertex 90.37867736816406 3.8786792755126953 0
      vertex 91.3519515991211 8.771637916564941 0
      vertex 91.3519515991211 3.228361129760742 0
    endloop
  endfacet
  facet normal 0 0 -1
    outer loop
      vertex 90.37867736816406 3.8786792755126953 0
      vertex 90.37867736816406 8.121319770812988 0
      vertex 91.3519515991211 8.771637916564941 0
    endloop
  endfacet
  facet normal 0 0 -1
    outer loop
      vertex 89.72836303710938 4.851949691772461 0
      vertex 90.37867736816406 8.121319770812988 0
      vertex 90.37867736816406 3.8786792755126953 0
    endloop
  endfacet
  facet normal 0 0 -1
    outer loop
      vertex 89.72836303710938 4.851949691772461 0
      vertex 89.72836303710938 7.148049354553223 0
      vertex 90.37867736816406 8.121319770812988 0
    endloop
  endfacet
  facet normal 0 0 -1
    outer loop
      vertex 89.72836303710938 7.148049354553223 0
      vertex 89.72836303710938 4.851949691772461 0
      vertex 89.5 6 0
    endloop
  endfacet
  facet normal 0 0 -1
    outer loop
      vertex 757.2716674804688 181.85194396972656 0
      vertex 757.2716674804688 184.14805603027344 0
      vertex 757.5 183 0
    endloop
  endfacet
  facet normal 0 0 -1
    outer loop
      vertex 756.621337890625 180.87867736816406 0
      vertex 757.2716674804688 184.14805603027344 0
      vertex 757.2716674804688 181.85194396972656 0
    endloop
  endfacet
  facet normal 0 0 -1
    outer loop
      vertex 756.621337890625 180.87867736816406 0
      vertex 756.621337890625 185.12132263183594 0
      vertex 757.2716674804688 184.14805603027344 0
    endloop
  endfacet
  facet normal 0 0 -1
    outer loop
      vertex 755.6480712890625 180.22836303710938 0
      vertex 756.621337890625 185.12132263183594 0
      vertex 756.621337890625 180.87867736816406 0
    endloop
  endfacet
  facet normal 0 0 -1
    outer loop
      vertex 755.6480712890625 180.22836303710938 0
      vertex 755.6480712890625 185.77163696289062 0
      vertex 756.621337890625 185.12132263183594 0
    endloop
  endfacet
  facet normal 0 0 -1
    outer loop
      vertex 754.5 180 0
      vertex 755.6480712890625 185.77163696289062 0
      vertex 755.6480712890625 180.22836303710938 0
    endloop
  endfacet
  facet normal 0 0 -1
    outer loop
      vertex 754.5 180 0
      vertex 754.5 186 0
      vertex 755.6480712890625 185.77163696289062 0
    endloop
  endfacet
  facet normal 0 0 -1
    outer loop
      vertex 753.3519287109375 180.22836303710938 0
      vertex 754.5 186 0
      vertex 754.5 180 0
    endloop
  endfacet
  facet normal 0 0 -1
    outer loop
      vertex 753.3519287109375 180.22836303710938 0
      vertex 753.3519287109375 185.77163696289062 0
      vertex 754.5 186 0
    endloop
  endfacet
  facet normal 0 0 -1
    outer loop
      vertex 752.378662109375 180.87867736816406 0
      vertex 753.3519287109375 185.77163696289062 0
      vertex 753.3519287109375 180.22836303710938 0
    endloop
  endfacet
  facet normal 0 0 -1
    outer loop
      vertex 752.378662109375 180.87867736816406 0
      vertex 752.378662109375 185.12132263183594 0
      vertex 753.3519287109375 185.77163696289062 0
    endloop
  endfacet
  facet normal 0 0 -1
    outer loop
      vertex 751.7283325195312 181.85194396972656 0
      vertex 752.378662109375 185.12132263183594 0
      vertex 752.378662109375 180.87867736816406 0
    endloop
  endfacet
  facet normal 0 0 -1
    outer loop
      vertex 751.7283325195312 181.85194396972656 0
      vertex 751.7283325195312 184.14805603027344 0
      vertex 752.378662109375 185.12132263183594 0
    endloop
  endfacet
  facet normal 0 0 -1
    outer loop
      vertex 751.7283325195312 184.14805603027344 0
      vertex 751.7283325195312 181.85194396972656 0
      vertex 751.5 183 0
    endloop
  endfacet
  facet normal 0 0 -1
    outer loop
      vertex 707.2716674804688 4.851949691772461 0
      vertex 707.2716674804688 7.148049354553223 0
      vertex 707.5 6 0
    endloop
  endfacet
  facet normal 0 0 -1
    outer loop
      vertex 706.621337890625 3.8786792755126953 0
      vertex 707.2716674804688 7.148049354553223 0
      vertex 707.2716674804688 4.851949691772461 0
    endloop
  endfacet
  facet normal 0 0 -1
    outer loop
      vertex 706.621337890625 3.8786792755126953 0
      vertex 706.621337890625 8.121319770812988 0
      vertex 707.2716674804688 7.148049354553223 0
    endloop
  endfacet
  facet normal 0 0 -1
    outer loop
      vertex 705.6480712890625 3.228361129760742 0
      vertex 706.621337890625 8.121319770812988 0
      vertex 706.621337890625 3.8786792755126953 0
    endloop
  endfacet
  facet normal 0 0 -1
    outer loop
      vertex 705.6480712890625 3.228361129760742 0
      vertex 705.6480712890625 8.771637916564941 0
      vertex 706.621337890625 8.121319770812988 0
    endloop
  endfacet
  facet normal 0 0 -1
    outer loop
      vertex 704.5 3 0
      vertex 705.6480712890625 8.771637916564941 0
      vertex 705.6480712890625 3.228361129760742 0
    endloop
  endfacet
  facet normal 0 0 -1
    outer loop
      vertex 704.5 3 0
      vertex 704.5 9 0
      vertex 705.6480712890625 8.771637916564941 0
    endloop
  endfacet
  facet normal 0 0 -1
    outer loop
      vertex 703.3519287109375 3.228361129760742 0
      vertex 704.5 9 0
      vertex 704.5 3 0
    endloop
  endfacet
  facet normal 0 0 -1
    outer loop
      vertex 703.3519287109375 3.228361129760742 0
      vertex 703.3519287109375 8.771637916564941 0
      vertex 704.5 9 0
    endloop
  endfacet
  facet normal 0 0 -1
    outer loop
      vertex 702.378662109375 3.8786792755126953 0
      vertex 703.3519287109375 8.771637916564941 0
      vertex 703.3519287109375 3.228361129760742 0
    endloop
  endfacet
  facet normal 0 0 -1
    outer loop
      vertex 702.378662109375 3.8786792755126953 0
      vertex 702.378662109375 8.121319770812988 0
      vertex 703.3519287109375 8.771637916564941 0
    endloop
  endfacet
  facet normal 0 0 -1
    outer loop
      vertex 701.7283325195312 4.851949691772461 0
      vertex 702.378662109375 8.121319770812988 0
      vertex 702.378662109375 3.8786792755126953 0
    endloop
  endfacet
  facet normal 0 0 -1
    outer loop
      vertex 701.7283325195312 4.851949691772461 0
      vertex 701.7283325195312 7.148049354553223 0
      vertex 702.378662109375 8.121319770812988 0
    endloop
  endfacet
  facet normal 0 0 -1
    outer loop
      vertex 701.7283325195312 7.148049354553223 0
      vertex 701.7283325195312 4.851949691772461 0
      vertex 701.5 6 0
    endloop
  endfacet
  facet normal 0 0 -1
    outer loop
      vertex 299.2716369628906 4.851949691772461 0
      vertex 299.2716369628906 7.148049354553223 0
      vertex 299.5 6 0
    endloop
  endfacet
  facet normal 0 0 -1
    outer loop
      vertex 298.6213073730469 3.8786792755126953 0
      vertex 299.2716369628906 7.148049354553223 0
      vertex 299.2716369628906 4.851949691772461 0
    endloop
  endfacet
  facet normal 0 0 -1
    outer loop
      vertex 298.6213073730469 3.8786792755126953 0
      vertex 298.6213073730469 8.121319770812988 0
      vertex 299.2716369628906 7.148049354553223 0
    endloop
  endfacet
  facet normal 0 0 -1
    outer loop
      vertex 297.6480407714844 3.228361129760742 0
      vertex 298.6213073730469 8.121319770812988 0
      vertex 298.6213073730469 3.8786792755126953 0
    endloop
  endfacet
  facet normal 0 0 -1
    outer loop
      vertex 297.6480407714844 3.228361129760742 0
      vertex 297.6480407714844 8.771637916564941 0
      vertex 298.6213073730469 8.121319770812988 0
    endloop
  endfacet
  facet normal 0 0 -1
    outer loop
      vertex 296.5 3 0
      vertex 297.6480407714844 8.771637916564941 0
      vertex 297.6480407714844 3.228361129760742 0
    endloop
  endfacet
  facet normal 0 0 -1
    outer loop
      vertex 296.5 3 0
      vertex 296.5 9 0
      vertex 297.6480407714844 8.771637916564941 0
    endloop
  endfacet
  facet normal 0 0 -1
    outer loop
      vertex 295.3519592285156 3.228361129760742 0
      vertex 296.5 9 0
      vertex 296.5 3 0
    endloop
  endfacet
  facet normal 0 0 -1
    outer loop
      vertex 295.3519592285156 3.228361129760742 0
      vertex 295.3519592285156 8.771637916564941 0
      vertex 296.5 9 0
    endloop
  endfacet
  facet normal 0 0 -1
    outer loop
      vertex 294.3786926269531 3.8786792755126953 0
      vertex 295.3519592285156 8.771637916564941 0
      vertex 295.3519592285156 3.228361129760742 0
    endloop
  endfacet
  facet normal 0 0 -1
    outer loop
      vertex 294.3786926269531 3.8786792755126953 0
      vertex 294.3786926269531 8.121319770812988 0
      vertex 295.3519592285156 8.771637916564941 0
    endloop
  endfacet
  facet normal 0 0 -1
    outer loop
      vertex 293.7283630371094 4.851949691772461 0
      vertex 294.3786926269531 8.121319770812988 0
      vertex 294.3786926269531 3.8786792755126953 0
    endloop
  endfacet
  facet normal 0 0 -1
    outer loop
      vertex 293.7283630371094 4.851949691772461 0
      vertex 293.7283630371094 7.148049354553223 0
      vertex 294.3786926269531 8.121319770812988 0
    endloop
  endfacet
  facet normal 0 0 -1
    outer loop
      vertex 293.7283630371094 7.148049354553223 0
      vertex 293.7283630371094 4.851949691772461 0
      vertex 293.5 6 0
    endloop
  endfacet
  facet normal 0 0 -1
    outer loop
      vertex 503.2716369628906 4.851949691772461 0
      vertex 503.2716369628906 7.148049354553223 0
      vertex 503.5 6 0
    endloop
  endfacet
  facet normal 0 0 -1
    outer loop
      vertex 502.6213073730469 3.8786792755126953 0
      vertex 503.2716369628906 7.148049354553223 0
      vertex 503.2716369628906 4.851949691772461 0
    endloop
  endfacet
  facet normal 0 0 -1
    outer loop
      vertex 502.6213073730469 3.8786792755126953 0
      vertex 502.6213073730469 8.121319770812988 0
      vertex 503.2716369628906 7.148049354553223 0
    endloop
  endfacet
  facet normal 0 0 -1
    outer loop
      vertex 501.6480407714844 3.228361129760742 0
      vertex 502.6213073730469 8.121319770812988 0
      vertex 502.6213073730469 3.8786792755126953 0
    endloop
  endfacet
  facet normal 0 0 -1
    outer loop
      vertex 501.6480407714844 3.228361129760742 0
      vertex 501.6480407714844 8.771637916564941 0
      vertex 502.6213073730469 8.121319770812988 0
    endloop
  endfacet
  facet normal 0 0 -1
    outer loop
      vertex 500.5 3 0
      vertex 501.6480407714844 8.771637916564941 0
      vertex 501.6480407714844 3.228361129760742 0
    endloop
  endfacet
  facet normal 0 0 -1
    outer loop
      vertex 500.5 3 0
      vertex 500.5 9 0
      vertex 501.6480407714844 8.771637916564941 0
    endloop
  endfacet
  facet normal 0 0 -1
    outer loop
      vertex 499.3519592285156 3.228361129760742 0
      vertex 500.5 9 0
      vertex 500.5 3 0
    endloop
  endfacet
  facet normal 0 0 -1
    outer loop
      vertex 499.3519592285156 3.228361129760742 0
      vertex 499.3519592285156 8.771637916564941 0
      vertex 500.5 9 0
    endloop
  endfacet
  facet normal 0 0 -1
    outer loop
      vertex 498.3786926269531 3.8786792755126953 0
      vertex 499.3519592285156 8.771637916564941 0
      vertex 499.3519592285156 3.228361129760742 0
    endloop
  endfacet
  facet normal 0 0 -1
    outer loop
      vertex 498.3786926269531 3.8786792755126953 0
      vertex 498.3786926269531 8.121319770812988 0
      vertex 499.3519592285156 8.771637916564941 0
    endloop
  endfacet
  facet normal 0 0 -1
    outer loop
      vertex 497.7283630371094 4.851949691772461 0
      vertex 498.3786926269531 8.121319770812988 0
      vertex 498.3786926269531 3.8786792755126953 0
    endloop
  endfacet
  facet normal 0 0 -1
    outer loop
      vertex 497.7283630371094 4.851949691772461 0
      vertex 497.7283630371094 7.148049354553223 0
      vertex 498.3786926269531 8.121319770812988 0
    endloop
  endfacet
  facet normal 0 0 -1
    outer loop
      vertex 497.7283630371094 7.148049354553223 0
      vertex 497.7283630371094 4.851949691772461 0
      vertex 497.5 6 0
    endloop
  endfacet
  facet normal 0 0 -1
    outer loop
      vertex 45.271636962890625 48.851951599121094 0
      vertex 45.271636962890625 51.148048400878906 0
      vertex 45.5 50 0
    endloop
  endfacet
  facet normal 0 0 -1
    outer loop
      vertex 44.62131881713867 47.87867736816406 0
      vertex 45.271636962890625 51.148048400878906 0
      vertex 45.271636962890625 48.851951599121094 0
    endloop
  endfacet
  facet normal 0 0 -1
    outer loop
      vertex 44.62131881713867 47.87867736816406 0
      vertex 44.62131881713867 52.12131881713867 0
      vertex 45.271636962890625 51.148048400878906 0
    endloop
  endfacet
  facet normal 0 0 -1
    outer loop
      vertex 43.648048400878906 47.228363037109375 0
      vertex 44.62131881713867 52.12131881713867 0
      vertex 44.62131881713867 47.87867736816406 0
    endloop
  endfacet
  facet normal 0 0 -1
    outer loop
      vertex 43.648048400878906 47.228363037109375 0
      vertex 43.648048400878906 52.771636962890625 0
      vertex 44.62131881713867 52.12131881713867 0
    endloop
  endfacet
  facet normal 0 0 -1
    outer loop
      vertex 42.5 47 0
      vertex 43.648048400878906 52.771636962890625 0
      vertex 43.648048400878906 47.228363037109375 0
    endloop
  endfacet
  facet normal 0 0 -1
    outer loop
      vertex 42.5 47 0
      vertex 42.5 53 0
      vertex 43.648048400878906 52.771636962890625 0
    endloop
  endfacet
  facet normal 0 0 -1
    outer loop
      vertex 41.351951599121094 47.228363037109375 0
      vertex 42.5 53 0
      vertex 42.5 47 0
    endloop
  endfacet
  facet normal 0 0 -1
    outer loop
      vertex 41.351951599121094 47.228363037109375 0
      vertex 41.351951599121094 52.771636962890625 0
      vertex 42.5 53 0
    endloop
  endfacet
  facet normal 0 0 -1
    outer loop
      vertex 40.37867736816406 47.87867736816406 0
      vertex 41.351951599121094 52.771636962890625 0
      vertex 41.351951599121094 47.228363037109375 0
    endloop
  endfacet
  facet normal 0 0 -1
    outer loop
      vertex 40.37867736816406 47.87867736816406 0
      vertex 40.37867736816406 52.12131881713867 0
      vertex 41.351951599121094 52.771636962890625 0
    endloop
  endfacet
  facet normal 0 0 -1
    outer loop
      vertex 39.728363037109375 48.851951599121094 0
      vertex 40.37867736816406 52.12131881713867 0
      vertex 40.37867736816406 47.87867736816406 0
    endloop
  endfacet
  facet normal 0 0 -1
    outer loop
      vertex 39.728363037109375 48.851951599121094 0
      vertex 39.728363037109375 51.148048400878906 0
      vertex 40.37867736816406 52.12131881713867 0
    endloop
  endfacet
  facet normal 0 0 -1
    outer loop
      vertex 39.728363037109375 51.148048400878906 0
      vertex 39.728363037109375 48.851951599121094 0
      vertex 39.5 50 0
    endloop
  endfacet
  facet normal 0 0 -1
    outer loop
      vertex 757.2716674804688 48.851951599121094 0
      vertex 757.2716674804688 51.148048400878906 0
      vertex 757.5 50 0
    endloop
  endfacet
  facet normal 0 0 -1
    outer loop
      vertex 756.621337890625 47.87867736816406 0
      vertex 757.2716674804688 51.148048400878906 0
      vertex 757.2716674804688 48.851951599121094 0
    endloop
  endfacet
  facet normal 0 0 -1
    outer loop
      vertex 756.621337890625 47.87867736816406 0
      vertex 756.621337890625 52.12131881713867 0
      vertex 757.2716674804688 51.148048400878906 0
    endloop
  endfacet
  facet normal 0 0 -1
    outer loop
      vertex 755.6480712890625 47.228363037109375 0
      vertex 756.621337890625 52.12131881713867 0
      vertex 756.621337890625 47.87867736816406 0
    endloop
  endfacet
  facet normal 0 0 -1
    outer loop
      vertex 755.6480712890625 47.228363037109375 0
      vertex 755.6480712890625 52.771636962890625 0
      vertex 756.621337890625 52.12131881713867 0
    endloop
  endfacet
  facet normal 0 0 -1
    outer loop
      vertex 754.5 47 0
      vertex 755.6480712890625 52.771636962890625 0
      vertex 755.6480712890625 47.228363037109375 0
    endloop
  endfacet
  facet normal 0 0 -1
    outer loop
      vertex 754.5 47 0
      vertex 754.5 53 0
      vertex 755.6480712890625 52.771636962890625 0
    endloop
  endfacet
  facet normal 0 0 -1
    outer loop
      vertex 753.3519287109375 47.228363037109375 0
      vertex 754.5 53 0
      vertex 754.5 47 0
    endloop
  endfacet
  facet normal 0 0 -1
    outer loop
      vertex 753.3519287109375 47.228363037109375 0
      vertex 753.3519287109375 52.771636962890625 0
      vertex 754.5 53 0
    endloop
  endfacet
  facet normal 0 0 -1
    outer loop
      vertex 752.378662109375 47.87867736816406 0
      vertex 753.3519287109375 52.771636962890625 0
      vertex 753.3519287109375 47.228363037109375 0
    endloop
  endfacet
  facet normal 0 0 -1
    outer loop
      vertex 752.378662109375 47.87867736816406 0
      vertex 752.378662109375 52.12131881713867 0
      vertex 753.3519287109375 52.771636962890625 0
    endloop
  endfacet
  facet normal 0 0 -1
    outer loop
      vertex 751.7283325195312 48.851951599121094 0
      vertex 752.378662109375 52.12131881713867 0
      vertex 752.378662109375 47.87867736816406 0
    endloop
  endfacet
  facet normal 0 0 -1
    outer loop
      vertex 751.7283325195312 48.851951599121094 0
      vertex 751.7283325195312 51.148048400878906 0
      vertex 752.378662109375 52.12131881713867 0
    endloop
  endfacet
  facet normal 0 0 -1
    outer loop
      vertex 751.7283325195312 51.148048400878906 0
      vertex 751.7283325195312 48.851951599121094 0
      vertex 751.5 50 0
    endloop
  endfacet
  facet normal 0 0 -1
    outer loop
      vertex 45.271636962890625 181.85194396972656 0
      vertex 45.271636962890625 184.14805603027344 0
      vertex 45.5 183 0
    endloop
  endfacet
  facet normal 0 0 -1
    outer loop
      vertex 44.62131881713867 180.87867736816406 0
      vertex 45.271636962890625 184.14805603027344 0
      vertex 45.271636962890625 181.85194396972656 0
    endloop
  endfacet
  facet normal 0 0 -1
    outer loop
      vertex 44.62131881713867 180.87867736816406 0
      vertex 44.62131881713867 185.12132263183594 0
      vertex 45.271636962890625 184.14805603027344 0
    endloop
  endfacet
  facet normal 0 0 -1
    outer loop
      vertex 43.648048400878906 180.22836303710938 0
      vertex 44.62131881713867 185.12132263183594 0
      vertex 44.62131881713867 180.87867736816406 0
    endloop
  endfacet
  facet normal 0 0 -1
    outer loop
      vertex 43.648048400878906 180.22836303710938 0
      vertex 43.648048400878906 185.77163696289062 0
      vertex 44.62131881713867 185.12132263183594 0
    endloop
  endfacet
  facet normal 0 0 -1
    outer loop
      vertex 42.5 180 0
      vertex 43.648048400878906 185.77163696289062 0
      vertex 43.648048400878906 180.22836303710938 0
    endloop
  endfacet
  facet normal 0 0 -1
    outer loop
      vertex 42.5 180 0
      vertex 42.5 186 0
      vertex 43.648048400878906 185.77163696289062 0
    endloop
  endfacet
  facet normal 0 0 -1
    outer loop
      vertex 41.351951599121094 180.22836303710938 0
      vertex 42.5 186 0
      vertex 42.5 180 0
    endloop
  endfacet
  facet normal 0 0 -1
    outer loop
      vertex 41.351951599121094 180.22836303710938 0
      vertex 41.351951599121094 185.77163696289062 0
      vertex 42.5 186 0
    endloop
  endfacet
  facet normal 0 0 -1
    outer loop
      vertex 40.37867736816406 180.87867736816406 0
      vertex 41.351951599121094 185.77163696289062 0
      vertex 41.351951599121094 180.22836303710938 0
    endloop
  endfacet
  facet normal 0 0 -1
    outer loop
      vertex 40.37867736816406 180.87867736816406 0
      vertex 40.37867736816406 185.12132263183594 0
      vertex 41.351951599121094 185.77163696289062 0
    endloop
  endfacet
  facet normal 0 0 -1
    outer loop
      vertex 39.728363037109375 181.85194396972656 0
      vertex 40.37867736816406 185.12132263183594 0
      vertex 40.37867736816406 180.87867736816406 0
    endloop
  endfacet
  facet normal 0 0 -1
    outer loop
      vertex 39.728363037109375 181.85194396972656 0
      vertex 39.728363037109375 184.14805603027344 0
      vertex 40.37867736816406 185.12132263183594 0
    endloop
  endfacet
  facet normal 0 0 -1
    outer loop
      vertex 39.728363037109375 184.14805603027344 0
      vertex 39.728363037109375 181.85194396972656 0
      vertex 39.5 183 0
    endloop
  endfacet
  facet normal 0.8314782854783428 -0.5555572524753822 0
    outer loop
      vertex 316.6522521972656 129.76536560058594 19
      vertex 317.0857849121094 130.41421508789062 0
      vertex 317.0857849121094 130.41421508789062 19
    endloop
  endfacet
  facet normal 0.8314782854783428 -0.5555572524753822 0
    outer loop
      vertex 317.0857849121094 130.41421508789062 0
      vertex 316.6522521972656 129.76536560058594 19
      vertex 316.6522521972656 129.76536560058594 0
    endloop
  endfacet
  facet normal -0.8314782854783428 -0.5555572524753822 0
    outer loop
      vertex 320.3477478027344 129.76536560058594 0
      vertex 319.9142150878906 130.41421508789062 19
      vertex 319.9142150878906 130.41421508789062 0
    endloop
  endfacet
  facet normal -0.8314782854783428 -0.5555572524753822 0
    outer loop
      vertex 319.9142150878906 130.41421508789062 19
      vertex 320.3477478027344 129.76536560058594 0
      vertex 320.3477478027344 129.76536560058594 19
    endloop
  endfacet
  facet normal 0.980782457176804 0.19510451479714808 0
    outer loop
      vertex 316.6522521972656 128.23463439941406 19
      vertex 316.5 129 0
      vertex 316.5 129 19
    endloop
  endfacet
  facet normal 0.980782457176804 0.19510451479714808 0
    outer loop
      vertex 316.5 129 0
      vertex 316.6522521972656 128.23463439941406 19
      vertex 316.6522521972656 128.23463439941406 0
    endloop
  endfacet
  facet normal -0.5555798033776967 0.8314632175140401 0
    outer loop
      vertex 319.9142150878906 127.58578491210938 0
      vertex 319.265380859375 127.15223693847656 19
      vertex 319.9142150878906 127.58578491210938 19
    endloop
  endfacet
  facet normal -0.5555798033776967 0.8314632175140401 0
    outer loop
      vertex 319.265380859375 127.15223693847656 19
      vertex 319.9142150878906 127.58578491210938 0
      vertex 319.265380859375 127.15223693847656 0
    endloop
  endfacet
  facet normal -0.5555798033776967 -0.8314632175140401 0
    outer loop
      vertex 319.265380859375 130.84776306152344 0
      vertex 319.9142150878906 130.41421508789062 19
      vertex 319.265380859375 130.84776306152344 19
    endloop
  endfacet
  facet normal -0.5555798033776967 -0.8314632175140401 0
    outer loop
      vertex 319.9142150878906 130.41421508789062 19
      vertex 319.265380859375 130.84776306152344 0
      vertex 319.9142150878906 130.41421508789062 0
    endloop
  endfacet
  facet normal 0.19508196428504695 0.9807869428222868 0
    outer loop
      vertex 318.5 127 0
      vertex 317.734619140625 127.15223693847656 19
      vertex 318.5 127 19
    endloop
  endfacet
  facet normal 0.19508196428504695 0.9807869428222868 0
    outer loop
      vertex 317.734619140625 127.15223693847656 19
      vertex 318.5 127 0
      vertex 317.734619140625 127.15223693847656 0
    endloop
  endfacet
  facet normal -0.980782457176804 -0.19510451479714808 0
    outer loop
      vertex 320.5 129 0
      vertex 320.3477478027344 129.76536560058594 19
      vertex 320.3477478027344 129.76536560058594 0
    endloop
  endfacet
  facet normal -0.980782457176804 -0.19510451479714808 0
    outer loop
      vertex 320.3477478027344 129.76536560058594 19
      vertex 320.5 129 0
      vertex 320.5 129 19
    endloop
  endfacet
  facet normal 0.19508196428504695 -0.9807869428222868 0
    outer loop
      vertex 317.734619140625 130.84776306152344 0
      vertex 318.5 131 19
      vertex 317.734619140625 130.84776306152344 19
    endloop
  endfacet
  facet normal 0.19508196428504695 -0.9807869428222868 0
    outer loop
      vertex 318.5 131 19
      vertex 317.734619140625 130.84776306152344 0
      vertex 318.5 131 0
    endloop
  endfacet
  facet normal -0.980782457176804 0.19510451479714808 0
    outer loop
      vertex 320.3477478027344 128.23463439941406 0
      vertex 320.5 129 19
      vertex 320.5 129 0
    endloop
  endfacet
  facet normal -0.980782457176804 0.19510451479714808 0
    outer loop
      vertex 320.5 129 19
      vertex 320.3477478027344 128.23463439941406 0
      vertex 320.3477478027344 128.23463439941406 19
    endloop
  endfacet
  facet normal -0.19508196428504695 -0.9807869428222868 0
    outer loop
      vertex 318.5 131 0
      vertex 319.265380859375 130.84776306152344 19
      vertex 318.5 131 19
    endloop
  endfacet
  facet normal -0.19508196428504695 -0.9807869428222868 0
    outer loop
      vertex 319.265380859375 130.84776306152344 19
      vertex 318.5 131 0
      vertex 319.265380859375 130.84776306152344 0
    endloop
  endfacet
  facet normal -0.8314782854783428 0.5555572524753822 0
    outer loop
      vertex 319.9142150878906 127.58578491210938 0
      vertex 320.3477478027344 128.23463439941406 19
      vertex 320.3477478027344 128.23463439941406 0
    endloop
  endfacet
  facet normal -0.8314782854783428 0.5555572524753822 0
    outer loop
      vertex 320.3477478027344 128.23463439941406 19
      vertex 319.9142150878906 127.58578491210938 0
      vertex 319.9142150878906 127.58578491210938 19
    endloop
  endfacet
  facet normal 0.5555798033776967 -0.8314632175140401 0
    outer loop
      vertex 317.0857849121094 130.41421508789062 0
      vertex 317.734619140625 130.84776306152344 19
      vertex 317.0857849121094 130.41421508789062 19
    endloop
  endfacet
  facet normal 0.5555798033776967 -0.8314632175140401 0
    outer loop
      vertex 317.734619140625 130.84776306152344 19
      vertex 317.0857849121094 130.41421508789062 0
      vertex 317.734619140625 130.84776306152344 0
    endloop
  endfacet
  facet normal 0.980782457176804 -0.19510451479714808 0
    outer loop
      vertex 316.5 129 19
      vertex 316.6522521972656 129.76536560058594 0
      vertex 316.6522521972656 129.76536560058594 19
    endloop
  endfacet
  facet normal 0.980782457176804 -0.19510451479714808 0
    outer loop
      vertex 316.6522521972656 129.76536560058594 0
      vertex 316.5 129 19
      vertex 316.5 129 0
    endloop
  endfacet
  facet normal 0.8314782854783428 0.5555572524753822 0
    outer loop
      vertex 317.0857849121094 127.58578491210938 19
      vertex 316.6522521972656 128.23463439941406 0
      vertex 316.6522521972656 128.23463439941406 19
    endloop
  endfacet
  facet normal 0.8314782854783428 0.5555572524753822 0
    outer loop
      vertex 316.6522521972656 128.23463439941406 0
      vertex 317.0857849121094 127.58578491210938 19
      vertex 317.0857849121094 127.58578491210938 0
    endloop
  endfacet
  facet normal 0.5555798033776967 0.8314632175140401 0
    outer loop
      vertex 317.734619140625 127.15223693847656 0
      vertex 317.0857849121094 127.58578491210938 19
      vertex 317.734619140625 127.15223693847656 19
    endloop
  endfacet
  facet normal 0.5555798033776967 0.8314632175140401 0
    outer loop
      vertex 317.0857849121094 127.58578491210938 19
      vertex 317.734619140625 127.15223693847656 0
      vertex 317.0857849121094 127.58578491210938 0
    endloop
  endfacet
  facet normal -0.19508196428504695 0.9807869428222868 0
    outer loop
      vertex 319.265380859375 127.15223693847656 0
      vertex 318.5 127 19
      vertex 319.265380859375 127.15223693847656 19
    endloop
  endfacet
  facet normal -0.19508196428504695 0.9807869428222868 0
    outer loop
      vertex 318.5 127 19
      vertex 319.265380859375 127.15223693847656 0
      vertex 318.5 127 0
    endloop
  endfacet
  facet normal 0 0 1
    outer loop
      vertex 797 233 19
      vertex 480.5 129 19
      vertex 797 0 19
    endloop
  endfacet
  facet normal 0 0 1
    outer loop
      vertex 797 233 19
      vertex 480.3477478027344 129.76536560058594 19
      vertex 480.5 129 19
    endloop
  endfacet
  facet normal 0 0 1
    outer loop
      vertex 797 233 19
      vertex 479.9142150878906 130.41421508789062 19
      vertex 480.3477478027344 129.76536560058594 19
    endloop
  endfacet
  facet normal 0 0 1
    outer loop
      vertex 797 233 19
      vertex 479.265380859375 130.84776306152344 19
      vertex 479.9142150878906 130.41421508789062 19
    endloop
  endfacet
  facet normal 0 0 1
    outer loop
      vertex 797 233 19
      vertex 478.5 131 19
      vertex 479.265380859375 130.84776306152344 19
    endloop
  endfacet
  facet normal 0 0 1
    outer loop
      vertex 318.5 131 19
      vertex 478.5 131 19
      vertex 797 233 19
    endloop
  endfacet
  facet normal 0 0 1
    outer loop
      vertex 476.6522521972656 129.76536560058594 19
      vertex 320.5 129 19
      vertex 476.5 129 19
    endloop
  endfacet
  facet normal 0 0 1
    outer loop
      vertex 320.3477478027344 129.76536560058594 19
      vertex 476.6522521972656 129.76536560058594 19
      vertex 477.0857849121094 130.41421508789062 19
    endloop
  endfacet
  facet normal 0 0 1
    outer loop
      vertex 319.9142150878906 130.41421508789062 19
      vertex 477.0857849121094 130.41421508789062 19
      vertex 477.734619140625 130.84776306152344 19
    endloop
  endfacet
  facet normal 0 0 1
    outer loop
      vertex 478.5 131 19
      vertex 318.5 131 19
      vertex 477.734619140625 130.84776306152344 19
    endloop
  endfacet
  facet normal 0 0 1
    outer loop
      vertex 476.6522521972656 129.76536560058594 19
      vertex 320.3477478027344 129.76536560058594 19
      vertex 320.5 129 19
    endloop
  endfacet
  facet normal 0 0 1
    outer loop
      vertex 477.0857849121094 130.41421508789062 19
      vertex 319.9142150878906 130.41421508789062 19
      vertex 320.3477478027344 129.76536560058594 19
    endloop
  endfacet
  facet normal 0 0 1
    outer loop
      vertex 477.734619140625 130.84776306152344 19
      vertex 319.265380859375 130.84776306152344 19
      vertex 319.9142150878906 130.41421508789062 19
    endloop
  endfacet
  facet normal 0 0 1
    outer loop
      vertex 477.734619140625 130.84776306152344 19
      vertex 318.5 131 19
      vertex 319.265380859375 130.84776306152344 19
    endloop
  endfacet
  facet normal 0 0 1
    outer loop
      vertex 0 233 19
      vertex 318.5 131 19
      vertex 797 233 19
    endloop
  endfacet
  facet normal 0 0 1
    outer loop
      vertex 316.6522521972656 129.76536560058594 19
      vertex 0 233 19
      vertex 316.5 129 19
    endloop
  endfacet
  facet normal 0 0 1
    outer loop
      vertex 317.0857849121094 130.41421508789062 19
      vertex 0 233 19
      vertex 316.6522521972656 129.76536560058594 19
    endloop
  endfacet
  facet normal 0 0 1
    outer loop
      vertex 317.734619140625 130.84776306152344 19
      vertex 0 233 19
      vertex 317.0857849121094 130.41421508789062 19
    endloop
  endfacet
  facet normal 0 0 1
    outer loop
      vertex 318.5 131 19
      vertex 0 233 19
      vertex 317.734619140625 130.84776306152344 19
    endloop
  endfacet
  facet normal 0 0 1
    outer loop
      vertex 480.3477478027344 128.23463439941406 19
      vertex 797 0 19
      vertex 480.5 129 19
    endloop
  endfacet
  facet normal 0 0 1
    outer loop
      vertex 479.9142150878906 127.58578491210938 19
      vertex 797 0 19
      vertex 480.3477478027344 128.23463439941406 19
    endloop
  endfacet
  facet normal 0 0 1
    outer loop
      vertex 479.265380859375 127.15223693847656 19
      vertex 797 0 19
      vertex 479.9142150878906 127.58578491210938 19
    endloop
  endfacet
  facet normal 0 0 1
    outer loop
      vertex 478.5 127 19
      vertex 797 0 19
      vertex 479.265380859375 127.15223693847656 19
    endloop
  endfacet
  facet normal 0 0 1
    outer loop
      vertex 318.5 127 19
      vertex 478.5 127 19
      vertex 477.734619140625 127.15223693847656 19
    endloop
  endfacet
  facet normal 0 0 1
    outer loop
      vertex 320.5 129 19
      vertex 476.6522521972656 128.23463439941406 19
      vertex 476.5 129 19
    endloop
  endfacet
  facet normal 0 0 1
    outer loop
      vertex 320.3477478027344 128.23463439941406 19
      vertex 476.6522521972656 128.23463439941406 19
      vertex 320.5 129 19
    endloop
  endfacet
  facet normal 0 0 1
    outer loop
      vertex 476.6522521972656 128.23463439941406 19
      vertex 320.3477478027344 128.23463439941406 19
      vertex 477.0857849121094 127.58578491210938 19
    endloop
  endfacet
  facet normal 0 0 1
    outer loop
      vertex 319.9142150878906 127.58578491210938 19
      vertex 477.0857849121094 127.58578491210938 19
      vertex 320.3477478027344 128.23463439941406 19
    endloop
  endfacet
  facet normal 0 0 1
    outer loop
      vertex 477.0857849121094 127.58578491210938 19
      vertex 319.9142150878906 127.58578491210938 19
      vertex 477.734619140625 127.15223693847656 19
    endloop
  endfacet
  facet normal 0 0 1
    outer loop
      vertex 319.265380859375 127.15223693847656 19
      vertex 477.734619140625 127.15223693847656 19
      vertex 319.9142150878906 127.58578491210938 19
    endloop
  endfacet
  facet normal 0 0 1
    outer loop
      vertex 318.5 127 19
      vertex 477.734619140625 127.15223693847656 19
      vertex 319.265380859375 127.15223693847656 19
    endloop
  endfacet
  facet normal 0 0 1
    outer loop
      vertex 478.5 127 19
      vertex 318.5 127 19
      vertex 797 0 19
    endloop
  endfacet
  facet normal 0 0 1
    outer loop
      vertex 0 0 19
      vertex 318.5 127 19
      vertex 317.734619140625 127.15223693847656 19
    endloop
  endfacet
  facet normal 0 0 1
    outer loop
      vertex 0 0 19
      vertex 316.5 129 19
      vertex 0 233 19
    endloop
  endfacet
  facet normal 0 0 1
    outer loop
      vertex 316.5 129 19
      vertex 0 0 19
      vertex 316.6522521972656 128.23463439941406 19
    endloop
  endfacet
  facet normal 0 0 1
    outer loop
      vertex 316.6522521972656 128.23463439941406 19
      vertex 0 0 19
      vertex 317.0857849121094 127.58578491210938 19
    endloop
  endfacet
  facet normal 0 0 1
    outer loop
      vertex 318.5 127 19
      vertex 0 0 19
      vertex 797 0 19
    endloop
  endfacet
  facet normal 0 0 1
    outer loop
      vertex 317.0857849121094 127.58578491210938 19
      vertex 0 0 19
      vertex 317.734619140625 127.15223693847656 19
    endloop
  endfacet
  facet normal 0.5555798033776967 -0.8314632175140401 0
    outer loop
      vertex 477.0857849121094 130.41421508789062 0
      vertex 477.734619140625 130.84776306152344 19
      vertex 477.0857849121094 130.41421508789062 19
    endloop
  endfacet
  facet normal 0.5555798033776967 -0.8314632175140401 0
    outer loop
      vertex 477.734619140625 130.84776306152344 19
      vertex 477.0857849121094 130.41421508789062 0
      vertex 477.734619140625 130.84776306152344 0
    endloop
  endfacet
  facet normal -0.19508196428504695 -0.9807869428222868 0
    outer loop
      vertex 478.5 131 0
      vertex 479.265380859375 130.84776306152344 19
      vertex 478.5 131 19
    endloop
  endfacet
  facet normal -0.19508196428504695 -0.9807869428222868 0
    outer loop
      vertex 479.265380859375 130.84776306152344 19
      vertex 478.5 131 0
      vertex 479.265380859375 130.84776306152344 0
    endloop
  endfacet
  facet normal -0.5555798033776967 -0.8314632175140401 0
    outer loop
      vertex 479.265380859375 130.84776306152344 0
      vertex 479.9142150878906 130.41421508789062 19
      vertex 479.265380859375 130.84776306152344 19
    endloop
  endfacet
  facet normal -0.5555798033776967 -0.8314632175140401 0
    outer loop
      vertex 479.9142150878906 130.41421508789062 19
      vertex 479.265380859375 130.84776306152344 0
      vertex 479.9142150878906 130.41421508789062 0
    endloop
  endfacet
  facet normal -0.5555798033776967 0.8314632175140401 0
    outer loop
      vertex 479.9142150878906 127.58578491210938 0
      vertex 479.265380859375 127.15223693847656 19
      vertex 479.9142150878906 127.58578491210938 19
    endloop
  endfacet
  facet normal -0.5555798033776967 0.8314632175140401 0
    outer loop
      vertex 479.265380859375 127.15223693847656 19
      vertex 479.9142150878906 127.58578491210938 0
      vertex 479.265380859375 127.15223693847656 0
    endloop
  endfacet
  facet normal -0.980782457176804 -0.19510451479714808 0
    outer loop
      vertex 480.5 129 0
      vertex 480.3477478027344 129.76536560058594 19
      vertex 480.3477478027344 129.76536560058594 0
    endloop
  endfacet
  facet normal -0.980782457176804 -0.19510451479714808 0
    outer loop
      vertex 480.3477478027344 129.76536560058594 19
      vertex 480.5 129 0
      vertex 480.5 129 19
    endloop
  endfacet
  facet normal 0.980782457176804 0.19510451479714808 0
    outer loop
      vertex 476.6522521972656 128.23463439941406 19
      vertex 476.5 129 0
      vertex 476.5 129 19
    endloop
  endfacet
  facet normal 0.980782457176804 0.19510451479714808 0
    outer loop
      vertex 476.5 129 0
      vertex 476.6522521972656 128.23463439941406 19
      vertex 476.6522521972656 128.23463439941406 0
    endloop
  endfacet
  facet normal 0.8314782854783428 0.5555572524753822 0
    outer loop
      vertex 477.0857849121094 127.58578491210938 19
      vertex 476.6522521972656 128.23463439941406 0
      vertex 476.6522521972656 128.23463439941406 19
    endloop
  endfacet
  facet normal 0.8314782854783428 0.5555572524753822 0
    outer loop
      vertex 476.6522521972656 128.23463439941406 0
      vertex 477.0857849121094 127.58578491210938 19
      vertex 477.0857849121094 127.58578491210938 0
    endloop
  endfacet
  facet normal 0.980782457176804 -0.19510451479714808 0
    outer loop
      vertex 476.5 129 19
      vertex 476.6522521972656 129.76536560058594 0
      vertex 476.6522521972656 129.76536560058594 19
    endloop
  endfacet
  facet normal 0.980782457176804 -0.19510451479714808 0
    outer loop
      vertex 476.6522521972656 129.76536560058594 0
      vertex 476.5 129 19
      vertex 476.5 129 0
    endloop
  endfacet
  facet normal -0.8314782854783428 0.5555572524753822 0
    outer loop
      vertex 479.9142150878906 127.58578491210938 0
      vertex 480.3477478027344 128.23463439941406 19
      vertex 480.3477478027344 128.23463439941406 0
    endloop
  endfacet
  facet normal -0.8314782854783428 0.5555572524753822 0
    outer loop
      vertex 480.3477478027344 128.23463439941406 19
      vertex 479.9142150878906 127.58578491210938 0
      vertex 479.9142150878906 127.58578491210938 19
    endloop
  endfacet
  facet normal 0.19508196428504695 -0.9807869428222868 0
    outer loop
      vertex 477.734619140625 130.84776306152344 0
      vertex 478.5 131 19
      vertex 477.734619140625 130.84776306152344 19
    endloop
  endfacet
  facet normal 0.19508196428504695 -0.9807869428222868 0
    outer loop
      vertex 478.5 131 19
      vertex 477.734619140625 130.84776306152344 0
      vertex 478.5 131 0
    endloop
  endfacet
  facet normal -0.8314782854783428 -0.5555572524753822 0
    outer loop
      vertex 480.3477478027344 129.76536560058594 0
      vertex 479.9142150878906 130.41421508789062 19
      vertex 479.9142150878906 130.41421508789062 0
    endloop
  endfacet
  facet normal -0.8314782854783428 -0.5555572524753822 0
    outer loop
      vertex 479.9142150878906 130.41421508789062 19
      vertex 480.3477478027344 129.76536560058594 0
      vertex 480.3477478027344 129.76536560058594 19
    endloop
  endfacet
  facet normal 0.8314782854783428 -0.5555572524753822 0
    outer loop
      vertex 476.6522521972656 129.76536560058594 19
      vertex 477.0857849121094 130.41421508789062 0
      vertex 477.0857849121094 130.41421508789062 19
    endloop
  endfacet
  facet normal 0.8314782854783428 -0.5555572524753822 0
    outer loop
      vertex 477.0857849121094 130.41421508789062 0
      vertex 476.6522521972656 129.76536560058594 19
      vertex 476.6522521972656 129.76536560058594 0
    endloop
  endfacet
  facet normal 0.19508196428504695 0.9807869428222868 0
    outer loop
      vertex 478.5 127 0
      vertex 477.734619140625 127.15223693847656 19
      vertex 478.5 127 19
    endloop
  endfacet
  facet normal 0.19508196428504695 0.9807869428222868 0
    outer loop
      vertex 477.734619140625 127.15223693847656 19
      vertex 478.5 127 0
      vertex 477.734619140625 127.15223693847656 0
    endloop
  endfacet
  facet normal 0.5555798033776967 0.8314632175140401 0
    outer loop
      vertex 477.734619140625 127.15223693847656 0
      vertex 477.0857849121094 127.58578491210938 19
      vertex 477.734619140625 127.15223693847656 19
    endloop
  endfacet
  facet normal 0.5555798033776967 0.8314632175140401 0
    outer loop
      vertex 477.0857849121094 127.58578491210938 19
      vertex 477.734619140625 127.15223693847656 0
      vertex 477.0857849121094 127.58578491210938 0
    endloop
  endfacet
  facet normal -0.980782457176804 0.19510451479714808 0
    outer loop
      vertex 480.3477478027344 128.23463439941406 0
      vertex 480.5 129 19
      vertex 480.5 129 0
    endloop
  endfacet
  facet normal -0.980782457176804 0.19510451479714808 0
    outer loop
      vertex 480.5 129 19
      vertex 480.3477478027344 128.23463439941406 0
      vertex 480.3477478027344 128.23463439941406 19
    endloop
  endfacet
  facet normal -0.19508196428504695 0.9807869428222868 0
    outer loop
      vertex 479.265380859375 127.15223693847656 0
      vertex 478.5 127 19
      vertex 479.265380859375 127.15223693847656 19
    endloop
  endfacet
  facet normal -0.19508196428504695 0.9807869428222868 0
    outer loop
      vertex 478.5 127 19
      vertex 479.265380859375 127.15223693847656 0
      vertex 478.5 127 0
    endloop
  endfacet
  facet normal 1 0 0
    outer loop
      vertex 797 0 19
      vertex 797 233 0
      vertex 797 233 19
    endloop
  endfacet
  facet normal 1 0 0
    outer loop
      vertex 797 233 0
      vertex 797 0 19
      vertex 797 0 0
    endloop
  endfacet
  facet normal 0 1 0
    outer loop
      vertex 797 233 0
      vertex 0 233 19
      vertex 797 233 19
    endloop
  endfacet
  facet normal 0 1 0
    outer loop
      vertex 0 233 19
      vertex 797 233 0
      vertex 0 233 0
    endloop
  endfacet
  facet normal 0 -1 0
    outer loop
      vertex 0 0 0
      vertex 797 0 19
      vertex 0 0 19
    endloop
  endfacet
  facet normal 0 -1 0
    outer loop
      vertex 797 0 19
      vertex 0 0 0
      vertex 797 0 0
    endloop
  endfacet
  facet normal -1 0 0
    outer loop
      vertex 0 0 0
      vertex 0 233 19
      vertex 0 233 0
    endloop
  endfacet
  facet normal -1 0 0
    outer loop
      vertex 0 233 19
      vertex 0 0 0
      vertex 0 0 19
    endloop
  endfacet
endsolid OpenSCAD_Model
