solid OpenSCAD_Model
  facet normal -0.8314698524282215 -0.5555698736459633 0
    outer loop
      vertex -71.34515380859375 35.478355407714844 -2
      vertex -71.61611938476562 35.88388442993164 0
      vertex -71.61611938476562 35.88388442993164 -2
    endloop
  endfacet
  facet normal -0.8314698524282215 -0.5555698736459633 0
    outer loop
      vertex -71.61611938476562 35.88388442993164 0
      vertex -71.34515380859375 35.478355407714844 -2
      vertex -71.34515380859375 35.478355407714844 0
    endloop
  endfacet
  facet normal 0.555573486679837 0.8314674382670731 0
    outer loop
      vertex -72.97835540771484 33.845149993896484 -2
      vertex -73.38388061523438 34.11611557006836 0
      vertex -72.97835540771484 33.845149993896484 0
    endloop
  endfacet
  facet normal 0.555573486679837 0.8314674382670731 0
    outer loop
      vertex -73.38388061523438 34.11611557006836 0
      vertex -72.97835540771484 33.845149993896484 -2
      vertex -73.38388061523438 34.11611557006836 -2
    endloop
  endfacet
  facet normal 0.555573486679837 -0.8314674382670731 0
    outer loop
      vertex -73.38388061523438 35.88388442993164 -2
      vertex -72.97835540771484 36.154850006103516 0
      vertex -73.38388061523438 35.88388442993164 0
    endloop
  endfacet
  facet normal 0.555573486679837 -0.8314674382670731 0
    outer loop
      vertex -72.97835540771484 36.154850006103516 0
      vertex -73.38388061523438 35.88388442993164 -2
      vertex -72.97835540771484 36.154850006103516 -2
    endloop
  endfacet
  facet normal -0.555573486679837 0.8314674382670731 0
    outer loop
      vertex -71.61611938476562 34.11611557006836 -2
      vertex -72.02164459228516 33.845149993896484 0
      vertex -71.61611938476562 34.11611557006836 0
    endloop
  endfacet
  facet normal -0.555573486679837 0.8314674382670731 0
    outer loop
      vertex -72.02164459228516 33.845149993896484 0
      vertex -71.61611938476562 34.11611557006836 -2
      vertex -72.02164459228516 33.845149993896484 -2
    endloop
  endfacet
  facet normal 0.9807841026639996 -0.19509624281767496 0
    outer loop
      vertex -73.75 35 0
      vertex -73.65484619140625 35.478355407714844 -2
      vertex -73.65484619140625 35.478355407714844 0
    endloop
  endfacet
  facet normal 0.9807841026639996 -0.19509624281767496 0
    outer loop
      vertex -73.65484619140625 35.478355407714844 -2
      vertex -73.75 35 0
      vertex -73.75 35 -2
    endloop
  endfacet
  facet normal 0 0 1
    outer loop
      vertex -71.34515380859375 35.478355407714844 -2
      vertex -71.34515380859375 34.521644592285156 -2
      vertex -71.25 35 -2
    endloop
  endfacet
  facet normal 0 0 1
    outer loop
      vertex -71.61611938476562 35.88388442993164 -2
      vertex -71.34515380859375 34.521644592285156 -2
      vertex -71.34515380859375 35.478355407714844 -2
    endloop
  endfacet
  facet normal 0 0 1
    outer loop
      vertex -71.61611938476562 35.88388442993164 -2
      vertex -71.61611938476562 34.11611557006836 -2
      vertex -71.34515380859375 34.521644592285156 -2
    endloop
  endfacet
  facet normal 0 0 1
    outer loop
      vertex -72.02164459228516 36.154850006103516 -2
      vertex -71.61611938476562 34.11611557006836 -2
      vertex -71.61611938476562 35.88388442993164 -2
    endloop
  endfacet
  facet normal 0 0 1
    outer loop
      vertex -72.02164459228516 36.154850006103516 -2
      vertex -72.02164459228516 33.845149993896484 -2
      vertex -71.61611938476562 34.11611557006836 -2
    endloop
  endfacet
  facet normal 0 0 1
    outer loop
      vertex -72.5 36.25 -2
      vertex -72.02164459228516 33.845149993896484 -2
      vertex -72.02164459228516 36.154850006103516 -2
    endloop
  endfacet
  facet normal 0 0 1
    outer loop
      vertex -72.5 36.25 -2
      vertex -72.5 33.75 -2
      vertex -72.02164459228516 33.845149993896484 -2
    endloop
  endfacet
  facet normal 0 0 1
    outer loop
      vertex -72.97835540771484 36.154850006103516 -2
      vertex -72.5 33.75 -2
      vertex -72.5 36.25 -2
    endloop
  endfacet
  facet normal 0 0 1
    outer loop
      vertex -72.97835540771484 36.154850006103516 -2
      vertex -72.97835540771484 33.845149993896484 -2
      vertex -72.5 33.75 -2
    endloop
  endfacet
  facet normal 0 0 1
    outer loop
      vertex -73.38388061523438 35.88388442993164 -2
      vertex -72.97835540771484 33.845149993896484 -2
      vertex -72.97835540771484 36.154850006103516 -2
    endloop
  endfacet
  facet normal 0 0 1
    outer loop
      vertex -73.38388061523438 35.88388442993164 -2
      vertex -73.38388061523438 34.11611557006836 -2
      vertex -72.97835540771484 33.845149993896484 -2
    endloop
  endfacet
  facet normal 0 0 1
    outer loop
      vertex -73.65484619140625 35.478355407714844 -2
      vertex -73.38388061523438 34.11611557006836 -2
      vertex -73.38388061523438 35.88388442993164 -2
    endloop
  endfacet
  facet normal 0 0 1
    outer loop
      vertex -73.65484619140625 35.478355407714844 -2
      vertex -73.65484619140625 34.521644592285156 -2
      vertex -73.38388061523438 34.11611557006836 -2
    endloop
  endfacet
  facet normal 0 0 1
    outer loop
      vertex -73.65484619140625 34.521644592285156 -2
      vertex -73.65484619140625 35.478355407714844 -2
      vertex -73.75 35 -2
    endloop
  endfacet
  facet normal -0.19508871913209733 -0.9807855992353262 0
    outer loop
      vertex -72.5 36.25 -2
      vertex -72.02164459228516 36.154850006103516 0
      vertex -72.5 36.25 0
    endloop
  endfacet
  facet normal -0.19508871913209733 -0.9807855992353262 0
    outer loop
      vertex -72.02164459228516 36.154850006103516 0
      vertex -72.5 36.25 -2
      vertex -72.02164459228516 36.154850006103516 -2
    endloop
  endfacet
  facet normal 0.9807841026639996 0.19509624281767496 0
    outer loop
      vertex -73.65484619140625 34.521644592285156 0
      vertex -73.75 35 -2
      vertex -73.75 35 0
    endloop
  endfacet
  facet normal 0.9807841026639996 0.19509624281767496 0
    outer loop
      vertex -73.75 35 -2
      vertex -73.65484619140625 34.521644592285156 0
      vertex -73.65484619140625 34.521644592285156 -2
    endloop
  endfacet
  facet normal 0.19508871913209733 -0.9807855992353262 0
    outer loop
      vertex -72.97835540771484 36.154850006103516 -2
      vertex -72.5 36.25 0
      vertex -72.97835540771484 36.154850006103516 0
    endloop
  endfacet
  facet normal 0.19508871913209733 -0.9807855992353262 0
    outer loop
      vertex -72.5 36.25 0
      vertex -72.97835540771484 36.154850006103516 -2
      vertex -72.5 36.25 -2
    endloop
  endfacet
  facet normal 0.8314698524282215 0.5555698736459633 0
    outer loop
      vertex -73.38388061523438 34.11611557006836 0
      vertex -73.65484619140625 34.521644592285156 -2
      vertex -73.65484619140625 34.521644592285156 0
    endloop
  endfacet
  facet normal 0.8314698524282215 0.5555698736459633 0
    outer loop
      vertex -73.65484619140625 34.521644592285156 -2
      vertex -73.38388061523438 34.11611557006836 0
      vertex -73.38388061523438 34.11611557006836 -2
    endloop
  endfacet
  facet normal 0.19508871913209733 0.9807855992353262 0
    outer loop
      vertex -72.5 33.75 -2
      vertex -72.97835540771484 33.845149993896484 0
      vertex -72.5 33.75 0
    endloop
  endfacet
  facet normal 0.19508871913209733 0.9807855992353262 0
    outer loop
      vertex -72.97835540771484 33.845149993896484 0
      vertex -72.5 33.75 -2
      vertex -72.97835540771484 33.845149993896484 -2
    endloop
  endfacet
  facet normal 0.8314698524282215 -0.5555698736459633 0
    outer loop
      vertex -73.65484619140625 35.478355407714844 0
      vertex -73.38388061523438 35.88388442993164 -2
      vertex -73.38388061523438 35.88388442993164 0
    endloop
  endfacet
  facet normal 0.8314698524282215 -0.5555698736459633 0
    outer loop
      vertex -73.38388061523438 35.88388442993164 -2
      vertex -73.65484619140625 35.478355407714844 0
      vertex -73.65484619140625 35.478355407714844 -2
    endloop
  endfacet
  facet normal 0 0 1
    outer loop
      vertex -6.765366554260254 161.15223693847656 0
      vertex -72.02164459228516 161.84515380859375 0
      vertex -6.765366554260254 51.84775924682617 0
    endloop
  endfacet
  facet normal 0 0 1
    outer loop
      vertex -7.414213180541992 51.414215087890625 0
      vertex -71.34515380859375 35.478355407714844 0
      vertex -71.25 35 0
    endloop
  endfacet
  facet normal 0 0 1
    outer loop
      vertex -6.765366554260254 51.84775924682617 0
      vertex -72.02164459228516 161.84515380859375 0
      vertex -7.414213180541992 51.414215087890625 0
    endloop
  endfacet
  facet normal 0 0 1
    outer loop
      vertex -7.414213180541992 51.414215087890625 0
      vertex -71.61611938476562 35.88388442993164 0
      vertex -71.34515380859375 35.478355407714844 0
    endloop
  endfacet
  facet normal 0 0 1
    outer loop
      vertex -72.02164459228516 36.154850006103516 0
      vertex -7.414213180541992 51.414215087890625 0
      vertex -72.02164459228516 161.84515380859375 0
    endloop
  endfacet
  facet normal 0 0 1
    outer loop
      vertex -7.414213180541992 51.414215087890625 0
      vertex -72.02164459228516 36.154850006103516 0
      vertex -71.61611938476562 35.88388442993164 0
    endloop
  endfacet
  facet normal 0 0 1
    outer loop
      vertex -72.5 161.75 0
      vertex -72.02164459228516 36.154850006103516 0
      vertex -72.02164459228516 161.84515380859375 0
    endloop
  endfacet
  facet normal 0 0 1
    outer loop
      vertex -72.5 161.75 0
      vertex -72.5 36.25 0
      vertex -72.02164459228516 36.154850006103516 0
    endloop
  endfacet
  facet normal 0 0 1
    outer loop
      vertex -72.97835540771484 161.84515380859375 0
      vertex -72.5 36.25 0
      vertex -72.5 161.75 0
    endloop
  endfacet
  facet normal 0 0 1
    outer loop
      vertex -72.97835540771484 161.84515380859375 0
      vertex -72.97835540771484 36.154850006103516 0
      vertex -72.5 36.25 0
    endloop
  endfacet
  facet normal 0 0 1
    outer loop
      vertex -73.38388061523438 162.11611938476562 0
      vertex -72.97835540771484 36.154850006103516 0
      vertex -72.97835540771484 161.84515380859375 0
    endloop
  endfacet
  facet normal 0 0 1
    outer loop
      vertex -73.38388061523438 162.11611938476562 0
      vertex -73.38388061523438 35.88388442993164 0
      vertex -72.97835540771484 36.154850006103516 0
    endloop
  endfacet
  facet normal 0 0 1
    outer loop
      vertex -200 0 0
      vertex -73.38388061523438 162.11611938476562 0
      vertex -73.65484619140625 162.5216522216797 0
    endloop
  endfacet
  facet normal 0 0 1
    outer loop
      vertex -73.38388061523438 162.11611938476562 0
      vertex -200 0 0
      vertex -73.38388061523438 35.88388442993164 0
    endloop
  endfacet
  facet normal 0 0 1
    outer loop
      vertex -150 217 0
      vertex -73.65484619140625 162.5216522216797 0
      vertex -73.75 163 0
    endloop
  endfacet
  facet normal 0 0 1
    outer loop
      vertex -73.38388061523438 35.88388442993164 0
      vertex -200 0 0
      vertex -73.65484619140625 35.478355407714844 0
    endloop
  endfacet
  facet normal 0 0 1
    outer loop
      vertex -4.152240753173828 162.23463439941406 0
      vertex -4 50 0
      vertex -4 163 0
    endloop
  endfacet
  facet normal 0 0 1
    outer loop
      vertex -4.152240753173828 162.23463439941406 0
      vertex -4.152240753173828 50.76536560058594 0
      vertex -4 50 0
    endloop
  endfacet
  facet normal 0 0 1
    outer loop
      vertex -4.585785865783691 161.58578491210938 0
      vertex -4.152240753173828 50.76536560058594 0
      vertex -4.152240753173828 162.23463439941406 0
    endloop
  endfacet
  facet normal 0 0 1
    outer loop
      vertex -4.585785865783691 161.58578491210938 0
      vertex -4.585785865783691 51.414215087890625 0
      vertex -4.152240753173828 50.76536560058594 0
    endloop
  endfacet
  facet normal 0 0 1
    outer loop
      vertex -5.23463249206543 161.15223693847656 0
      vertex -4.585785865783691 51.414215087890625 0
      vertex -4.585785865783691 161.58578491210938 0
    endloop
  endfacet
  facet normal 0 0 1
    outer loop
      vertex -5.23463249206543 161.15223693847656 0
      vertex -5.23463249206543 51.84775924682617 0
      vertex -4.585785865783691 51.414215087890625 0
    endloop
  endfacet
  facet normal 0 0 1
    outer loop
      vertex -6 161 0
      vertex -5.23463249206543 51.84775924682617 0
      vertex -5.23463249206543 161.15223693847656 0
    endloop
  endfacet
  facet normal 0 0 1
    outer loop
      vertex -6 161 0
      vertex -6 52 0
      vertex -5.23463249206543 51.84775924682617 0
    endloop
  endfacet
  facet normal 0 0 1
    outer loop
      vertex -6.765366554260254 161.15223693847656 0
      vertex -6 52 0
      vertex -6 161 0
    endloop
  endfacet
  facet normal 0 0 1
    outer loop
      vertex -6.765366554260254 161.15223693847656 0
      vertex -6.765366554260254 51.84775924682617 0
      vertex -6 52 0
    endloop
  endfacet
  facet normal 0 0 1
    outer loop
      vertex -71.61611938476562 162.11611938476562 0
      vertex -7.8477582931518555 162.23463439941406 0
      vertex -71.34515380859375 162.5216522216797 0
    endloop
  endfacet
  facet normal 0 0 1
    outer loop
      vertex -7.8477582931518555 162.23463439941406 0
      vertex -71.61611938476562 162.11611938476562 0
      vertex -7.414213180541992 161.58578491210938 0
    endloop
  endfacet
  facet normal 0 0 1
    outer loop
      vertex -71.34515380859375 162.5216522216797 0
      vertex -7.8477582931518555 162.23463439941406 0
      vertex -71.25 163 0
    endloop
  endfacet
  facet normal 0 0 1
    outer loop
      vertex -72.02164459228516 161.84515380859375 0
      vertex -7.414213180541992 161.58578491210938 0
      vertex -71.61611938476562 162.11611938476562 0
    endloop
  endfacet
  facet normal 0 0 1
    outer loop
      vertex -71.25 163 0
      vertex -7.8477582931518555 162.23463439941406 0
      vertex -8 163 0
    endloop
  endfacet
  facet normal 0 0 1
    outer loop
      vertex -7.414213180541992 161.58578491210938 0
      vertex -72.02164459228516 161.84515380859375 0
      vertex -6.765366554260254 161.15223693847656 0
    endloop
  endfacet
  facet normal 0 0 1
    outer loop
      vertex 0 225 0
      vertex -4 163 0
      vertex 0 0 0
    endloop
  endfacet
  facet normal 0 0 1
    outer loop
      vertex 0 225 0
      vertex -4.152240753173828 163.76536560058594 0
      vertex -4 163 0
    endloop
  endfacet
  facet normal 0 0 1
    outer loop
      vertex 0 225 0
      vertex -4.585785865783691 164.41421508789062 0
      vertex -4.152240753173828 163.76536560058594 0
    endloop
  endfacet
  facet normal 0 0 1
    outer loop
      vertex 0 225 0
      vertex -5.23463249206543 164.84776306152344 0
      vertex -4.585785865783691 164.41421508789062 0
    endloop
  endfacet
  facet normal 0 0 1
    outer loop
      vertex 0 225 0
      vertex -6 165 0
      vertex -5.23463249206543 164.84776306152344 0
    endloop
  endfacet
  facet normal 0 0 1
    outer loop
      vertex 0 225 0
      vertex -6.765366554260254 164.84776306152344 0
      vertex -6 165 0
    endloop
  endfacet
  facet normal 0 0 1
    outer loop
      vertex -48.585784912109375 217.58578491210938 0
      vertex -6.765366554260254 164.84776306152344 0
      vertex 0 225 0
    endloop
  endfacet
  facet normal 0 0 1
    outer loop
      vertex -6.765366554260254 164.84776306152344 0
      vertex -48.585784912109375 217.58578491210938 0
      vertex -7.414213180541992 164.41421508789062 0
    endloop
  endfacet
  facet normal 0 0 1
    outer loop
      vertex -49.23463439941406 217.15223693847656 0
      vertex -7.414213180541992 164.41421508789062 0
      vertex -48.585784912109375 217.58578491210938 0
    endloop
  endfacet
  facet normal 0 0 1
    outer loop
      vertex -48.585784912109375 217.58578491210938 0
      vertex 0 225 0
      vertex -48.15224075317383 218.23463439941406 0
    endloop
  endfacet
  facet normal 0 0 1
    outer loop
      vertex -48.15224075317383 218.23463439941406 0
      vertex 0 225 0
      vertex -48 219 0
    endloop
  endfacet
  facet normal 0 0 1
    outer loop
      vertex 0 225 0
      vertex -48.15224075317383 219.76536560058594 0
      vertex -48 219 0
    endloop
  endfacet
  facet normal 0 0 1
    outer loop
      vertex 0 225 0
      vertex -48.585784912109375 220.41421508789062 0
      vertex -48.15224075317383 219.76536560058594 0
    endloop
  endfacet
  facet normal 0 0 1
    outer loop
      vertex 0 225 0
      vertex -49.23463439941406 220.84776306152344 0
      vertex -48.585784912109375 220.41421508789062 0
    endloop
  endfacet
  facet normal 0 0 1
    outer loop
      vertex 0 225 0
      vertex -50 221 0
      vertex -49.23463439941406 220.84776306152344 0
    endloop
  endfacet
  facet normal 0 0 1
    outer loop
      vertex -148 219 0
      vertex -52 219 0
      vertex -51.84775924682617 219.76536560058594 0
    endloop
  endfacet
  facet normal 0 0 1
    outer loop
      vertex -52 219 0
      vertex -71.34515380859375 163.4783477783203 0
      vertex -71.25 163 0
    endloop
  endfacet
  facet normal 0 0 1
    outer loop
      vertex -52 219 0
      vertex -71.61611938476562 163.88388061523438 0
      vertex -71.34515380859375 163.4783477783203 0
    endloop
  endfacet
  facet normal 0 0 1
    outer loop
      vertex -52 219 0
      vertex -72.02164459228516 164.15484619140625 0
      vertex -71.61611938476562 163.88388061523438 0
    endloop
  endfacet
  facet normal 0 0 1
    outer loop
      vertex -52 219 0
      vertex -72.5 164.25 0
      vertex -72.02164459228516 164.15484619140625 0
    endloop
  endfacet
  facet normal 0 0 1
    outer loop
      vertex -52 219 0
      vertex -72.97835540771484 164.15484619140625 0
      vertex -72.5 164.25 0
    endloop
  endfacet
  facet normal 0 0 1
    outer loop
      vertex -52 219 0
      vertex -148.15223693847656 218.23463439941406 0
      vertex -72.97835540771484 164.15484619140625 0
    endloop
  endfacet
  facet normal 0 0 1
    outer loop
      vertex -72.97835540771484 164.15484619140625 0
      vertex -148.15223693847656 218.23463439941406 0
      vertex -73.38388061523438 163.88388061523438 0
    endloop
  endfacet
  facet normal 0 0 1
    outer loop
      vertex -73.38388061523438 163.88388061523438 0
      vertex -148.58578491210938 217.58578491210938 0
      vertex -73.65484619140625 163.4783477783203 0
    endloop
  endfacet
  facet normal 0 0 1
    outer loop
      vertex -148.58578491210938 217.58578491210938 0
      vertex -73.38388061523438 163.88388061523438 0
      vertex -148.15223693847656 218.23463439941406 0
    endloop
  endfacet
  facet normal 0 0 1
    outer loop
      vertex -52 219 0
      vertex -148 219 0
      vertex -148.15223693847656 218.23463439941406 0
    endloop
  endfacet
  facet normal 0 0 1
    outer loop
      vertex -148.15223693847656 219.76536560058594 0
      vertex -51.84775924682617 219.76536560058594 0
      vertex -51.414215087890625 220.41421508789062 0
    endloop
  endfacet
  facet normal 0 0 1
    outer loop
      vertex -148.58578491210938 220.41421508789062 0
      vertex -51.414215087890625 220.41421508789062 0
      vertex -50.76536560058594 220.84776306152344 0
    endloop
  endfacet
  facet normal 0 0 1
    outer loop
      vertex -149.23463439941406 220.84776306152344 0
      vertex -50.76536560058594 220.84776306152344 0
      vertex -50 221 0
    endloop
  endfacet
  facet normal 0 0 1
    outer loop
      vertex -150 221 0
      vertex -50 221 0
      vertex 0 225 0
    endloop
  endfacet
  facet normal 0 0 1
    outer loop
      vertex -51.84775924682617 219.76536560058594 0
      vertex -148.15223693847656 219.76536560058594 0
      vertex -148 219 0
    endloop
  endfacet
  facet normal 0 0 1
    outer loop
      vertex -51.414215087890625 220.41421508789062 0
      vertex -148.58578491210938 220.41421508789062 0
      vertex -148.15223693847656 219.76536560058594 0
    endloop
  endfacet
  facet normal 0 0 1
    outer loop
      vertex -50.76536560058594 220.84776306152344 0
      vertex -149.23463439941406 220.84776306152344 0
      vertex -148.58578491210938 220.41421508789062 0
    endloop
  endfacet
  facet normal 0 0 1
    outer loop
      vertex -50 221 0
      vertex -150 221 0
      vertex -149.23463439941406 220.84776306152344 0
    endloop
  endfacet
  facet normal 0 0 1
    outer loop
      vertex -151.84776306152344 219.76536560058594 0
      vertex -200 225 0
      vertex -152 219 0
    endloop
  endfacet
  facet normal 0 0 1
    outer loop
      vertex -151.41421508789062 220.41421508789062 0
      vertex -200 225 0
      vertex -151.84776306152344 219.76536560058594 0
    endloop
  endfacet
  facet normal 0 0 1
    outer loop
      vertex -150.76536560058594 220.84776306152344 0
      vertex -200 225 0
      vertex -151.41421508789062 220.41421508789062 0
    endloop
  endfacet
  facet normal 0 0 1
    outer loop
      vertex -150 221 0
      vertex -200 225 0
      vertex -150.76536560058594 220.84776306152344 0
    endloop
  endfacet
  facet normal 0 0 1
    outer loop
      vertex -200 225 0
      vertex -150 221 0
      vertex 0 225 0
    endloop
  endfacet
  facet normal 0 0 1
    outer loop
      vertex -4 50 0
      vertex 0 0 0
      vertex -4 163 0
    endloop
  endfacet
  facet normal 0 0 1
    outer loop
      vertex -4.152240753173828 49.23463439941406 0
      vertex 0 0 0
      vertex -4 50 0
    endloop
  endfacet
  facet normal 0 0 1
    outer loop
      vertex -4.585785865783691 48.585784912109375 0
      vertex 0 0 0
      vertex -4.152240753173828 49.23463439941406 0
    endloop
  endfacet
  facet normal 0 0 1
    outer loop
      vertex -5.23463249206543 48.15224075317383 0
      vertex 0 0 0
      vertex -4.585785865783691 48.585784912109375 0
    endloop
  endfacet
  facet normal 0 0 1
    outer loop
      vertex -6 48 0
      vertex 0 0 0
      vertex -5.23463249206543 48.15224075317383 0
    endloop
  endfacet
  facet normal 0 0 1
    outer loop
      vertex -6.765366554260254 48.15224075317383 0
      vertex 0 0 0
      vertex -6 48 0
    endloop
  endfacet
  facet normal 0 0 1
    outer loop
      vertex -7.414213180541992 48.585784912109375 0
      vertex 0 0 0
      vertex -6.765366554260254 48.15224075317383 0
    endloop
  endfacet
  facet normal 0 0 1
    outer loop
      vertex -71.25 35 0
      vertex -7.414213180541992 48.585784912109375 0
      vertex -7.8477582931518555 49.23463439941406 0
    endloop
  endfacet
  facet normal 0 0 1
    outer loop
      vertex -71.25 35 0
      vertex -7.8477582931518555 49.23463439941406 0
      vertex -8 50 0
    endloop
  endfacet
  facet normal 0 0 1
    outer loop
      vertex -7.414213180541992 164.41421508789062 0
      vertex -49.23463439941406 217.15223693847656 0
      vertex -7.8477582931518555 163.76536560058594 0
    endloop
  endfacet
  facet normal 0 0 1
    outer loop
      vertex -71.25 163 0
      vertex -7.8477582931518555 163.76536560058594 0
      vertex -49.23463439941406 217.15223693847656 0
    endloop
  endfacet
  facet normal 0 0 1
    outer loop
      vertex -7.414213180541992 51.414215087890625 0
      vertex -71.25 35 0
      vertex -7.8477582931518555 50.76536560058594 0
    endloop
  endfacet
  facet normal 0 0 1
    outer loop
      vertex -7.8477582931518555 163.76536560058594 0
      vertex -71.25 163 0
      vertex -8 163 0
    endloop
  endfacet
  facet normal 0 0 1
    outer loop
      vertex -71.25 163 0
      vertex -49.23463439941406 217.15223693847656 0
      vertex -50 217 0
    endloop
  endfacet
  facet normal 0 0 1
    outer loop
      vertex -71.25 163 0
      vertex -50 217 0
      vertex -50.76536560058594 217.15223693847656 0
    endloop
  endfacet
  facet normal 0 0 1
    outer loop
      vertex -71.25 163 0
      vertex -50.76536560058594 217.15223693847656 0
      vertex -51.414215087890625 217.58578491210938 0
    endloop
  endfacet
  facet normal 0 0 1
    outer loop
      vertex -71.25 163 0
      vertex -51.414215087890625 217.58578491210938 0
      vertex -51.84775924682617 218.23463439941406 0
    endloop
  endfacet
  facet normal 0 0 1
    outer loop
      vertex -71.25 163 0
      vertex -51.84775924682617 218.23463439941406 0
      vertex -52 219 0
    endloop
  endfacet
  facet normal 0 0 1
    outer loop
      vertex -7.8477582931518555 50.76536560058594 0
      vertex -71.25 35 0
      vertex -8 50 0
    endloop
  endfacet
  facet normal 0 0 1
    outer loop
      vertex -7.414213180541992 48.585784912109375 0
      vertex -71.25 35 0
      vertex -71.34515380859375 34.521644592285156 0
    endloop
  endfacet
  facet normal 0 0 1
    outer loop
      vertex -7.414213180541992 48.585784912109375 0
      vertex -71.34515380859375 34.521644592285156 0
      vertex 0 0 0
    endloop
  endfacet
  facet normal 0 0 1
    outer loop
      vertex -71.61611938476562 34.11611557006836 0
      vertex 0 0 0
      vertex -71.34515380859375 34.521644592285156 0
    endloop
  endfacet
  facet normal 0 0 1
    outer loop
      vertex -72.02164459228516 33.845149993896484 0
      vertex 0 0 0
      vertex -71.61611938476562 34.11611557006836 0
    endloop
  endfacet
  facet normal 0 0 1
    outer loop
      vertex -72.5 33.75 0
      vertex 0 0 0
      vertex -72.02164459228516 33.845149993896484 0
    endloop
  endfacet
  facet normal 0 0 1
    outer loop
      vertex -200 0 0
      vertex -72.5 33.75 0
      vertex -72.97835540771484 33.845149993896484 0
    endloop
  endfacet
  facet normal 0 0 1
    outer loop
      vertex -149.23463439941406 217.15223693847656 0
      vertex -73.65484619140625 163.4783477783203 0
      vertex -148.58578491210938 217.58578491210938 0
    endloop
  endfacet
  facet normal 0 0 1
    outer loop
      vertex -73.65484619140625 163.4783477783203 0
      vertex -149.23463439941406 217.15223693847656 0
      vertex -73.75 163 0
    endloop
  endfacet
  facet normal 0 0 1
    outer loop
      vertex -150 217 0
      vertex -73.75 163 0
      vertex -149.23463439941406 217.15223693847656 0
    endloop
  endfacet
  facet normal 0 0 1
    outer loop
      vertex -73.65484619140625 162.5216522216797 0
      vertex -150 217 0
      vertex -200 0 0
    endloop
  endfacet
  facet normal 0 0 1
    outer loop
      vertex -73.65484619140625 35.478355407714844 0
      vertex -200 0 0
      vertex -73.75 35 0
    endloop
  endfacet
  facet normal 0 0 1
    outer loop
      vertex -200 0 0
      vertex -150 217 0
      vertex -150.76536560058594 217.15223693847656 0
    endloop
  endfacet
  facet normal 0 0 1
    outer loop
      vertex -200 225 0
      vertex -150.76536560058594 217.15223693847656 0
      vertex -151.41421508789062 217.58578491210938 0
    endloop
  endfacet
  facet normal 0 0 1
    outer loop
      vertex -200 225 0
      vertex -151.41421508789062 217.58578491210938 0
      vertex -151.84776306152344 218.23463439941406 0
    endloop
  endfacet
  facet normal 0 0 1
    outer loop
      vertex -200 225 0
      vertex -151.84776306152344 218.23463439941406 0
      vertex -152 219 0
    endloop
  endfacet
  facet normal 0 0 1
    outer loop
      vertex -150.76536560058594 217.15223693847656 0
      vertex -200 225 0
      vertex -200 0 0
    endloop
  endfacet
  facet normal 0 0 1
    outer loop
      vertex -72.5 33.75 0
      vertex -200 0 0
      vertex 0 0 0
    endloop
  endfacet
  facet normal 0 0 1
    outer loop
      vertex -73.38388061523438 34.11611557006836 0
      vertex -200 0 0
      vertex -72.97835540771484 33.845149993896484 0
    endloop
  endfacet
  facet normal 0 0 1
    outer loop
      vertex -73.65484619140625 34.521644592285156 0
      vertex -200 0 0
      vertex -73.38388061523438 34.11611557006836 0
    endloop
  endfacet
  facet normal 0 0 1
    outer loop
      vertex -73.75 35 0
      vertex -200 0 0
      vertex -73.65484619140625 34.521644592285156 0
    endloop
  endfacet
  facet normal -0.555573486679837 -0.8314674382670731 0
    outer loop
      vertex -72.02164459228516 36.154850006103516 -2
      vertex -71.61611938476562 35.88388442993164 0
      vertex -72.02164459228516 36.154850006103516 0
    endloop
  endfacet
  facet normal -0.555573486679837 -0.8314674382670731 0
    outer loop
      vertex -71.61611938476562 35.88388442993164 0
      vertex -72.02164459228516 36.154850006103516 -2
      vertex -71.61611938476562 35.88388442993164 -2
    endloop
  endfacet
  facet normal -0.9807841026639996 -0.19509624281767496 0
    outer loop
      vertex -71.25 35 -2
      vertex -71.34515380859375 35.478355407714844 0
      vertex -71.34515380859375 35.478355407714844 -2
    endloop
  endfacet
  facet normal -0.9807841026639996 -0.19509624281767496 0
    outer loop
      vertex -71.34515380859375 35.478355407714844 0
      vertex -71.25 35 -2
      vertex -71.25 35 0
    endloop
  endfacet
  facet normal -0.9807841026639996 0.19509624281767496 0
    outer loop
      vertex -71.34515380859375 34.521644592285156 -2
      vertex -71.25 35 0
      vertex -71.25 35 -2
    endloop
  endfacet
  facet normal -0.9807841026639996 0.19509624281767496 0
    outer loop
      vertex -71.25 35 0
      vertex -71.34515380859375 34.521644592285156 -2
      vertex -71.34515380859375 34.521644592285156 0
    endloop
  endfacet
  facet normal -0.19508871913209733 0.9807855992353262 0
    outer loop
      vertex -72.02164459228516 33.845149993896484 -2
      vertex -72.5 33.75 0
      vertex -72.02164459228516 33.845149993896484 0
    endloop
  endfacet
  facet normal -0.19508871913209733 0.9807855992353262 0
    outer loop
      vertex -72.5 33.75 0
      vertex -72.02164459228516 33.845149993896484 -2
      vertex -72.5 33.75 -2
    endloop
  endfacet
  facet normal -0.8314698524282215 0.5555698736459633 0
    outer loop
      vertex -71.61611938476562 34.11611557006836 -2
      vertex -71.34515380859375 34.521644592285156 0
      vertex -71.34515380859375 34.521644592285156 -2
    endloop
  endfacet
  facet normal -0.8314698524282215 0.5555698736459633 0
    outer loop
      vertex -71.34515380859375 34.521644592285156 0
      vertex -71.61611938476562 34.11611557006836 -2
      vertex -71.61611938476562 34.11611557006836 0
    endloop
  endfacet
  facet normal -0.8314722665422704 -0.5555662606485923 0
    outer loop
      vertex -71.34515380859375 163.4783477783203 -2
      vertex -71.61611938476562 163.88388061523438 0
      vertex -71.61611938476562 163.88388061523438 -2
    endloop
  endfacet
  facet normal -0.8314722665422704 -0.5555662606485923 0
    outer loop
      vertex -71.61611938476562 163.88388061523438 0
      vertex -71.34515380859375 163.4783477783203 -2
      vertex -71.34515380859375 163.4783477783203 0
    endloop
  endfacet
  facet normal 0.555573486679837 0.8314674382670731 0
    outer loop
      vertex -72.97835540771484 161.84515380859375 -2
      vertex -73.38388061523438 162.11611938476562 0
      vertex -72.97835540771484 161.84515380859375 0
    endloop
  endfacet
  facet normal 0.555573486679837 0.8314674382670731 0
    outer loop
      vertex -73.38388061523438 162.11611938476562 0
      vertex -72.97835540771484 161.84515380859375 -2
      vertex -73.38388061523438 162.11611938476562 -2
    endloop
  endfacet
  facet normal 0.555573486679837 -0.8314674382670731 0
    outer loop
      vertex -73.38388061523438 163.88388061523438 -2
      vertex -72.97835540771484 164.15484619140625 0
      vertex -73.38388061523438 163.88388061523438 0
    endloop
  endfacet
  facet normal 0.555573486679837 -0.8314674382670731 0
    outer loop
      vertex -72.97835540771484 164.15484619140625 0
      vertex -73.38388061523438 163.88388061523438 -2
      vertex -72.97835540771484 164.15484619140625 -2
    endloop
  endfacet
  facet normal -0.19509624281767496 0.9807841026639996 0
    outer loop
      vertex -72.02164459228516 161.84515380859375 -2
      vertex -72.5 161.75 0
      vertex -72.02164459228516 161.84515380859375 0
    endloop
  endfacet
  facet normal -0.19509624281767496 0.9807841026639996 0
    outer loop
      vertex -72.5 161.75 0
      vertex -72.02164459228516 161.84515380859375 -2
      vertex -72.5 161.75 -2
    endloop
  endfacet
  facet normal -0.555573486679837 0.8314674382670731 0
    outer loop
      vertex -71.61611938476562 162.11611938476562 -2
      vertex -72.02164459228516 161.84515380859375 0
      vertex -71.61611938476562 162.11611938476562 0
    endloop
  endfacet
  facet normal -0.555573486679837 0.8314674382670731 0
    outer loop
      vertex -72.02164459228516 161.84515380859375 0
      vertex -71.61611938476562 162.11611938476562 -2
      vertex -72.02164459228516 161.84515380859375 -2
    endloop
  endfacet
  facet normal 0.9807835072478501 -0.1950992360584897 0
    outer loop
      vertex -73.75 163 0
      vertex -73.65484619140625 163.4783477783203 -2
      vertex -73.65484619140625 163.4783477783203 0
    endloop
  endfacet
  facet normal 0.9807835072478501 -0.1950992360584897 0
    outer loop
      vertex -73.65484619140625 163.4783477783203 -2
      vertex -73.75 163 0
      vertex -73.75 163 -2
    endloop
  endfacet
  facet normal 0.9807835072478501 0.1950992360584897 0
    outer loop
      vertex -73.65484619140625 162.5216522216797 0
      vertex -73.75 163 -2
      vertex -73.75 163 0
    endloop
  endfacet
  facet normal 0.9807835072478501 0.1950992360584897 0
    outer loop
      vertex -73.75 163 -2
      vertex -73.65484619140625 162.5216522216797 0
      vertex -73.65484619140625 162.5216522216797 -2
    endloop
  endfacet
  facet normal 0.19509624281767496 -0.9807841026639996 0
    outer loop
      vertex -72.97835540771484 164.15484619140625 -2
      vertex -72.5 164.25 0
      vertex -72.97835540771484 164.15484619140625 0
    endloop
  endfacet
  facet normal 0.19509624281767496 -0.9807841026639996 0
    outer loop
      vertex -72.5 164.25 0
      vertex -72.97835540771484 164.15484619140625 -2
      vertex -72.5 164.25 -2
    endloop
  endfacet
  facet normal 0.8314722665422704 0.5555662606485923 0
    outer loop
      vertex -73.38388061523438 162.11611938476562 0
      vertex -73.65484619140625 162.5216522216797 -2
      vertex -73.65484619140625 162.5216522216797 0
    endloop
  endfacet
  facet normal 0.8314722665422704 0.5555662606485923 0
    outer loop
      vertex -73.65484619140625 162.5216522216797 -2
      vertex -73.38388061523438 162.11611938476562 0
      vertex -73.38388061523438 162.11611938476562 -2
    endloop
  endfacet
  facet normal 0.8314722665422704 -0.5555662606485923 0
    outer loop
      vertex -73.65484619140625 163.4783477783203 0
      vertex -73.38388061523438 163.88388061523438 -2
      vertex -73.38388061523438 163.88388061523438 0
    endloop
  endfacet
  facet normal 0.8314722665422704 -0.5555662606485923 0
    outer loop
      vertex -73.38388061523438 163.88388061523438 -2
      vertex -73.65484619140625 163.4783477783203 0
      vertex -73.65484619140625 163.4783477783203 -2
    endloop
  endfacet
  facet normal -0.555573486679837 -0.8314674382670731 0
    outer loop
      vertex -72.02164459228516 164.15484619140625 -2
      vertex -71.61611938476562 163.88388061523438 0
      vertex -72.02164459228516 164.15484619140625 0
    endloop
  endfacet
  facet normal -0.555573486679837 -0.8314674382670731 0
    outer loop
      vertex -71.61611938476562 163.88388061523438 0
      vertex -72.02164459228516 164.15484619140625 -2
      vertex -71.61611938476562 163.88388061523438 -2
    endloop
  endfacet
  facet normal -0.19509624281767496 -0.9807841026639996 0
    outer loop
      vertex -72.5 164.25 -2
      vertex -72.02164459228516 164.15484619140625 0
      vertex -72.5 164.25 0
    endloop
  endfacet
  facet normal -0.19509624281767496 -0.9807841026639996 0
    outer loop
      vertex -72.02164459228516 164.15484619140625 0
      vertex -72.5 164.25 -2
      vertex -72.02164459228516 164.15484619140625 -2
    endloop
  endfacet
  facet normal -0.9807835072478501 -0.1950992360584897 0
    outer loop
      vertex -71.25 163 -2
      vertex -71.34515380859375 163.4783477783203 0
      vertex -71.34515380859375 163.4783477783203 -2
    endloop
  endfacet
  facet normal -0.9807835072478501 -0.1950992360584897 0
    outer loop
      vertex -71.34515380859375 163.4783477783203 0
      vertex -71.25 163 -2
      vertex -71.25 163 0
    endloop
  endfacet
  facet normal -0.9807835072478501 0.1950992360584897 0
    outer loop
      vertex -71.34515380859375 162.5216522216797 -2
      vertex -71.25 163 0
      vertex -71.25 163 -2
    endloop
  endfacet
  facet normal -0.9807835072478501 0.1950992360584897 0
    outer loop
      vertex -71.25 163 0
      vertex -71.34515380859375 162.5216522216797 -2
      vertex -71.34515380859375 162.5216522216797 0
    endloop
  endfacet
  facet normal -0.8314722665422704 0.5555662606485923 0
    outer loop
      vertex -71.61611938476562 162.11611938476562 -2
      vertex -71.34515380859375 162.5216522216797 0
      vertex -71.34515380859375 162.5216522216797 -2
    endloop
  endfacet
  facet normal -0.8314722665422704 0.5555662606485923 0
    outer loop
      vertex -71.34515380859375 162.5216522216797 0
      vertex -71.61611938476562 162.11611938476562 -2
      vertex -71.61611938476562 162.11611938476562 0
    endloop
  endfacet
  facet normal 0.19509624281767496 0.9807841026639996 0
    outer loop
      vertex -72.5 161.75 -2
      vertex -72.97835540771484 161.84515380859375 0
      vertex -72.5 161.75 0
    endloop
  endfacet
  facet normal 0.19509624281767496 0.9807841026639996 0
    outer loop
      vertex -72.97835540771484 161.84515380859375 0
      vertex -72.5 161.75 -2
      vertex -72.97835540771484 161.84515380859375 -2
    endloop
  endfacet
  facet normal 0 0 1
    outer loop
      vertex -71.34515380859375 163.4783477783203 -2
      vertex -71.34515380859375 162.5216522216797 -2
      vertex -71.25 163 -2
    endloop
  endfacet
  facet normal 0 0 1
    outer loop
      vertex -71.61611938476562 163.88388061523438 -2
      vertex -71.34515380859375 162.5216522216797 -2
      vertex -71.34515380859375 163.4783477783203 -2
    endloop
  endfacet
  facet normal 0 0 1
    outer loop
      vertex -71.61611938476562 163.88388061523438 -2
      vertex -71.61611938476562 162.11611938476562 -2
      vertex -71.34515380859375 162.5216522216797 -2
    endloop
  endfacet
  facet normal 0 0 1
    outer loop
      vertex -72.02164459228516 164.15484619140625 -2
      vertex -71.61611938476562 162.11611938476562 -2
      vertex -71.61611938476562 163.88388061523438 -2
    endloop
  endfacet
  facet normal 0 0 1
    outer loop
      vertex -72.02164459228516 164.15484619140625 -2
      vertex -72.02164459228516 161.84515380859375 -2
      vertex -71.61611938476562 162.11611938476562 -2
    endloop
  endfacet
  facet normal 0 0 1
    outer loop
      vertex -72.5 164.25 -2
      vertex -72.02164459228516 161.84515380859375 -2
      vertex -72.02164459228516 164.15484619140625 -2
    endloop
  endfacet
  facet normal 0 0 1
    outer loop
      vertex -72.5 164.25 -2
      vertex -72.5 161.75 -2
      vertex -72.02164459228516 161.84515380859375 -2
    endloop
  endfacet
  facet normal 0 0 1
    outer loop
      vertex -72.97835540771484 164.15484619140625 -2
      vertex -72.5 161.75 -2
      vertex -72.5 164.25 -2
    endloop
  endfacet
  facet normal 0 0 1
    outer loop
      vertex -72.97835540771484 164.15484619140625 -2
      vertex -72.97835540771484 161.84515380859375 -2
      vertex -72.5 161.75 -2
    endloop
  endfacet
  facet normal 0 0 1
    outer loop
      vertex -73.38388061523438 163.88388061523438 -2
      vertex -72.97835540771484 161.84515380859375 -2
      vertex -72.97835540771484 164.15484619140625 -2
    endloop
  endfacet
  facet normal 0 0 1
    outer loop
      vertex -73.38388061523438 163.88388061523438 -2
      vertex -73.38388061523438 162.11611938476562 -2
      vertex -72.97835540771484 161.84515380859375 -2
    endloop
  endfacet
  facet normal 0 0 1
    outer loop
      vertex -73.65484619140625 163.4783477783203 -2
      vertex -73.38388061523438 162.11611938476562 -2
      vertex -73.38388061523438 163.88388061523438 -2
    endloop
  endfacet
  facet normal 0 0 1
    outer loop
      vertex -73.65484619140625 163.4783477783203 -2
      vertex -73.65484619140625 162.5216522216797 -2
      vertex -73.38388061523438 162.11611938476562 -2
    endloop
  endfacet
  facet normal 0 0 1
    outer loop
      vertex -73.65484619140625 162.5216522216797 -2
      vertex -73.65484619140625 163.4783477783203 -2
      vertex -73.75 163 -2
    endloop
  endfacet
  facet normal -0.9807852633251952 -0.19509040787318935 0
    outer loop
      vertex -48 219 -12
      vertex -48.15224075317383 219.76536560058594 0
      vertex -48.15224075317383 219.76536560058594 -12
    endloop
  endfacet
  facet normal -0.9807852633251952 -0.19509040787318935 0
    outer loop
      vertex -48.15224075317383 219.76536560058594 0
      vertex -48 219 -12
      vertex -48 219 0
    endloop
  endfacet
  facet normal 0.19508570553829574 -0.9807861986664704 0
    outer loop
      vertex -50.76536560058594 220.84776306152344 -12
      vertex -50 221 0
      vertex -50.76536560058594 220.84776306152344 0
    endloop
  endfacet
  facet normal 0.19508570553829574 -0.9807861986664704 0
    outer loop
      vertex -50 221 0
      vertex -50.76536560058594 220.84776306152344 -12
      vertex -50 221 -12
    endloop
  endfacet
  facet normal 0.9807852633251952 -0.19509040787318935 0
    outer loop
      vertex -52 219 0
      vertex -51.84775924682617 219.76536560058594 -12
      vertex -51.84775924682617 219.76536560058594 0
    endloop
  endfacet
  facet normal 0.9807852633251952 -0.19509040787318935 0
    outer loop
      vertex -51.84775924682617 219.76536560058594 -12
      vertex -52 219 0
      vertex -52 219 -12
    endloop
  endfacet
  facet normal -0.19508570553829574 -0.9807861986664704 0
    outer loop
      vertex -50 221 -12
      vertex -49.23463439941406 220.84776306152344 0
      vertex -50 221 0
    endloop
  endfacet
  facet normal -0.19508570553829574 -0.9807861986664704 0
    outer loop
      vertex -49.23463439941406 220.84776306152344 0
      vertex -50 221 -12
      vertex -49.23463439941406 220.84776306152344 -12
    endloop
  endfacet
  facet normal -0.9807852633251952 0.19509040787318935 0
    outer loop
      vertex -48.15224075317383 218.23463439941406 -12
      vertex -48 219 0
      vertex -48 219 -12
    endloop
  endfacet
  facet normal -0.9807852633251952 0.19509040787318935 0
    outer loop
      vertex -48 219 0
      vertex -48.15224075317383 218.23463439941406 -12
      vertex -48.15224075317383 218.23463439941406 0
    endloop
  endfacet
  facet normal 0.5555707707654927 0.8314692529919772 0
    outer loop
      vertex -50.76536560058594 217.15223693847656 -12
      vertex -51.414215087890625 217.58578491210938 0
      vertex -50.76536560058594 217.15223693847656 0
    endloop
  endfacet
  facet normal 0.5555707707654927 0.8314692529919772 0
    outer loop
      vertex -51.414215087890625 217.58578491210938 0
      vertex -50.76536560058594 217.15223693847656 -12
      vertex -51.414215087890625 217.58578491210938 -12
    endloop
  endfacet
  facet normal -0.19508570553829574 0.9807861986664704 0
    outer loop
      vertex -49.23463439941406 217.15223693847656 -12
      vertex -50 217 0
      vertex -49.23463439941406 217.15223693847656 0
    endloop
  endfacet
  facet normal -0.19508570553829574 0.9807861986664704 0
    outer loop
      vertex -50 217 0
      vertex -49.23463439941406 217.15223693847656 -12
      vertex -50 217 -12
    endloop
  endfacet
  facet normal 0.5555707707654927 -0.8314692529919772 0
    outer loop
      vertex -51.414215087890625 220.41421508789062 -12
      vertex -50.76536560058594 220.84776306152344 0
      vertex -51.414215087890625 220.41421508789062 0
    endloop
  endfacet
  facet normal 0.5555707707654927 -0.8314692529919772 0
    outer loop
      vertex -50.76536560058594 220.84776306152344 0
      vertex -51.414215087890625 220.41421508789062 -12
      vertex -50.76536560058594 220.84776306152344 -12
    endloop
  endfacet
  facet normal -0.8314715111157752 -0.5555673912342671 0
    outer loop
      vertex -48.15224075317383 219.76536560058594 -12
      vertex -48.585784912109375 220.41421508789062 0
      vertex -48.585784912109375 220.41421508789062 -12
    endloop
  endfacet
  facet normal -0.8314715111157752 -0.5555673912342671 0
    outer loop
      vertex -48.585784912109375 220.41421508789062 0
      vertex -48.15224075317383 219.76536560058594 -12
      vertex -48.15224075317383 219.76536560058594 0
    endloop
  endfacet
  facet normal -0.5555707707654927 0.8314692529919772 0
    outer loop
      vertex -48.585784912109375 217.58578491210938 -12
      vertex -49.23463439941406 217.15223693847656 0
      vertex -48.585784912109375 217.58578491210938 0
    endloop
  endfacet
  facet normal -0.5555707707654927 0.8314692529919772 0
    outer loop
      vertex -49.23463439941406 217.15223693847656 0
      vertex -48.585784912109375 217.58578491210938 -12
      vertex -49.23463439941406 217.15223693847656 -12
    endloop
  endfacet
  facet normal 0.19508570553829574 0.9807861986664704 0
    outer loop
      vertex -50 217 -12
      vertex -50.76536560058594 217.15223693847656 0
      vertex -50 217 0
    endloop
  endfacet
  facet normal 0.19508570553829574 0.9807861986664704 0
    outer loop
      vertex -50.76536560058594 217.15223693847656 0
      vertex -50 217 -12
      vertex -50.76536560058594 217.15223693847656 -12
    endloop
  endfacet
  facet normal -0.8314715111157752 0.5555673912342671 0
    outer loop
      vertex -48.585784912109375 217.58578491210938 -12
      vertex -48.15224075317383 218.23463439941406 0
      vertex -48.15224075317383 218.23463439941406 -12
    endloop
  endfacet
  facet normal -0.8314715111157752 0.5555673912342671 0
    outer loop
      vertex -48.15224075317383 218.23463439941406 0
      vertex -48.585784912109375 217.58578491210938 -12
      vertex -48.585784912109375 217.58578491210938 0
    endloop
  endfacet
  facet normal -0.5555707707654927 -0.8314692529919772 0
    outer loop
      vertex -49.23463439941406 220.84776306152344 -12
      vertex -48.585784912109375 220.41421508789062 0
      vertex -49.23463439941406 220.84776306152344 0
    endloop
  endfacet
  facet normal -0.5555707707654927 -0.8314692529919772 0
    outer loop
      vertex -48.585784912109375 220.41421508789062 0
      vertex -49.23463439941406 220.84776306152344 -12
      vertex -48.585784912109375 220.41421508789062 -12
    endloop
  endfacet
  facet normal 0.8314715111157752 0.5555673912342671 0
    outer loop
      vertex -51.414215087890625 217.58578491210938 0
      vertex -51.84775924682617 218.23463439941406 -12
      vertex -51.84775924682617 218.23463439941406 0
    endloop
  endfacet
  facet normal 0.8314715111157752 0.5555673912342671 0
    outer loop
      vertex -51.84775924682617 218.23463439941406 -12
      vertex -51.414215087890625 217.58578491210938 0
      vertex -51.414215087890625 217.58578491210938 -12
    endloop
  endfacet
  facet normal 0.8314715111157752 -0.5555673912342671 0
    outer loop
      vertex -51.84775924682617 219.76536560058594 0
      vertex -51.414215087890625 220.41421508789062 -12
      vertex -51.414215087890625 220.41421508789062 0
    endloop
  endfacet
  facet normal 0.8314715111157752 -0.5555673912342671 0
    outer loop
      vertex -51.414215087890625 220.41421508789062 -12
      vertex -51.84775924682617 219.76536560058594 0
      vertex -51.84775924682617 219.76536560058594 -12
    endloop
  endfacet
  facet normal 0.9807852633251952 0.19509040787318935 0
    outer loop
      vertex -51.84775924682617 218.23463439941406 0
      vertex -52 219 -12
      vertex -52 219 0
    endloop
  endfacet
  facet normal 0.9807852633251952 0.19509040787318935 0
    outer loop
      vertex -52 219 -12
      vertex -51.84775924682617 218.23463439941406 0
      vertex -51.84775924682617 218.23463439941406 -12
    endloop
  endfacet
  facet normal 0 0 -1
    outer loop
      vertex -4.152240753173828 50.76536560058594 -12
      vertex -4 163 -12
      vertex -4 50 -12
    endloop
  endfacet
  facet normal 0 0 -1
    outer loop
      vertex -4.152240753173828 50.76536560058594 -12
      vertex -4.152240753173828 162.23463439941406 -12
      vertex -4 163 -12
    endloop
  endfacet
  facet normal 0 0 -1
    outer loop
      vertex -4.585785865783691 51.414215087890625 -12
      vertex -4.152240753173828 162.23463439941406 -12
      vertex -4.152240753173828 50.76536560058594 -12
    endloop
  endfacet
  facet normal 0 0 -1
    outer loop
      vertex -4.585785865783691 51.414215087890625 -12
      vertex -4.585785865783691 161.58578491210938 -12
      vertex -4.152240753173828 162.23463439941406 -12
    endloop
  endfacet
  facet normal 0 0 -1
    outer loop
      vertex -5.23463249206543 51.84775924682617 -12
      vertex -4.585785865783691 161.58578491210938 -12
      vertex -4.585785865783691 51.414215087890625 -12
    endloop
  endfacet
  facet normal 0 0 -1
    outer loop
      vertex -5.23463249206543 51.84775924682617 -12
      vertex -5.23463249206543 161.15223693847656 -12
      vertex -4.585785865783691 161.58578491210938 -12
    endloop
  endfacet
  facet normal 0 0 -1
    outer loop
      vertex -6 52 -12
      vertex -5.23463249206543 161.15223693847656 -12
      vertex -5.23463249206543 51.84775924682617 -12
    endloop
  endfacet
  facet normal 0 0 -1
    outer loop
      vertex -6 52 -12
      vertex -6 161 -12
      vertex -5.23463249206543 161.15223693847656 -12
    endloop
  endfacet
  facet normal 0 0 -1
    outer loop
      vertex -6.765366554260254 51.84775924682617 -12
      vertex -6 161 -12
      vertex -6 52 -12
    endloop
  endfacet
  facet normal 0 0 -1
    outer loop
      vertex -6.765366554260254 51.84775924682617 -12
      vertex -6.765366554260254 161.15223693847656 -12
      vertex -6 161 -12
    endloop
  endfacet
  facet normal 0 0 -1
    outer loop
      vertex -7.414213180541992 51.414215087890625 -12
      vertex -6.765366554260254 161.15223693847656 -12
      vertex -6.765366554260254 51.84775924682617 -12
    endloop
  endfacet
  facet normal 0 0 -1
    outer loop
      vertex -7.414213180541992 51.414215087890625 -12
      vertex -7.414213180541992 161.58578491210938 -12
      vertex -6.765366554260254 161.15223693847656 -12
    endloop
  endfacet
  facet normal 0 0 -1
    outer loop
      vertex -7.8477582931518555 50.76536560058594 -12
      vertex -7.414213180541992 161.58578491210938 -12
      vertex -7.414213180541992 51.414215087890625 -12
    endloop
  endfacet
  facet normal 0 0 -1
    outer loop
      vertex -7.8477582931518555 50.76536560058594 -12
      vertex -7.8477582931518555 162.23463439941406 -12
      vertex -7.414213180541992 161.58578491210938 -12
    endloop
  endfacet
  facet normal 0 0 -1
    outer loop
      vertex -200 0 -12
      vertex -7.8477582931518555 50.76536560058594 -12
      vertex -8 50 -12
    endloop
  endfacet
  facet normal 0 0 -1
    outer loop
      vertex -7.8477582931518555 50.76536560058594 -12
      vertex -149.23463439941406 217.15223693847656 -12
      vertex -7.8477582931518555 162.23463439941406 -12
    endloop
  endfacet
  facet normal 0 0 -1
    outer loop
      vertex -4 163 -12
      vertex 0 0 -12
      vertex -4 50 -12
    endloop
  endfacet
  facet normal 0 0 -1
    outer loop
      vertex 0 0 -12
      vertex -4.152240753173828 49.23463439941406 -12
      vertex -4 50 -12
    endloop
  endfacet
  facet normal 0 0 -1
    outer loop
      vertex 0 0 -12
      vertex -4.585785865783691 48.585784912109375 -12
      vertex -4.152240753173828 49.23463439941406 -12
    endloop
  endfacet
  facet normal 0 0 -1
    outer loop
      vertex 0 0 -12
      vertex -5.23463249206543 48.15224075317383 -12
      vertex -4.585785865783691 48.585784912109375 -12
    endloop
  endfacet
  facet normal 0 0 -1
    outer loop
      vertex 0 0 -12
      vertex -6 48 -12
      vertex -5.23463249206543 48.15224075317383 -12
    endloop
  endfacet
  facet normal 0 0 -1
    outer loop
      vertex 0 0 -12
      vertex -6.765366554260254 48.15224075317383 -12
      vertex -6 48 -12
    endloop
  endfacet
  facet normal 0 0 -1
    outer loop
      vertex 0 0 -12
      vertex -7.414213180541992 48.585784912109375 -12
      vertex -6.765366554260254 48.15224075317383 -12
    endloop
  endfacet
  facet normal 0 0 -1
    outer loop
      vertex 0 0 -12
      vertex -7.8477582931518555 49.23463439941406 -12
      vertex -7.414213180541992 48.585784912109375 -12
    endloop
  endfacet
  facet normal 0 0 -1
    outer loop
      vertex -200 0 -12
      vertex -7.8477582931518555 49.23463439941406 -12
      vertex 0 0 -12
    endloop
  endfacet
  facet normal 0 0 -1
    outer loop
      vertex -50.76536560058594 217.15223693847656 -12
      vertex -7.8477582931518555 162.23463439941406 -12
      vertex -149.23463439941406 217.15223693847656 -12
    endloop
  endfacet
  facet normal 0 0 -1
    outer loop
      vertex -7.8477582931518555 49.23463439941406 -12
      vertex -200 0 -12
      vertex -8 50 -12
    endloop
  endfacet
  facet normal 0 0 -1
    outer loop
      vertex -8 163 -12
      vertex -48.15224075317383 218.23463439941406 -12
      vertex -48 219 -12
    endloop
  endfacet
  facet normal 0 0 -1
    outer loop
      vertex -8 163 -12
      vertex -48.585784912109375 217.58578491210938 -12
      vertex -48.15224075317383 218.23463439941406 -12
    endloop
  endfacet
  facet normal 0 0 -1
    outer loop
      vertex -8 163 -12
      vertex -49.23463439941406 217.15223693847656 -12
      vertex -48.585784912109375 217.58578491210938 -12
    endloop
  endfacet
  facet normal 0 0 -1
    outer loop
      vertex -8 163 -12
      vertex -50 217 -12
      vertex -49.23463439941406 217.15223693847656 -12
    endloop
  endfacet
  facet normal 0 0 -1
    outer loop
      vertex -8 163 -12
      vertex -50.76536560058594 217.15223693847656 -12
      vertex -50 217 -12
    endloop
  endfacet
  facet normal 0 0 -1
    outer loop
      vertex -7.8477582931518555 162.23463439941406 -12
      vertex -50.76536560058594 217.15223693847656 -12
      vertex -8 163 -12
    endloop
  endfacet
  facet normal 0 0 -1
    outer loop
      vertex -50.76536560058594 217.15223693847656 -12
      vertex -149.23463439941406 217.15223693847656 -12
      vertex -51.414215087890625 217.58578491210938 -12
    endloop
  endfacet
  facet normal 0 0 -1
    outer loop
      vertex -51.84775924682617 218.23463439941406 -12
      vertex -148 219 -12
      vertex -52 219 -12
    endloop
  endfacet
  facet normal 0 0 -1
    outer loop
      vertex -148.58578491210938 217.58578491210938 -12
      vertex -51.414215087890625 217.58578491210938 -12
      vertex -149.23463439941406 217.15223693847656 -12
    endloop
  endfacet
  facet normal 0 0 -1
    outer loop
      vertex -51.84775924682617 218.23463439941406 -12
      vertex -148.15223693847656 218.23463439941406 -12
      vertex -148 219 -12
    endloop
  endfacet
  facet normal 0 0 -1
    outer loop
      vertex -51.84775924682617 218.23463439941406 -12
      vertex -148.58578491210938 217.58578491210938 -12
      vertex -148.15223693847656 218.23463439941406 -12
    endloop
  endfacet
  facet normal 0 0 -1
    outer loop
      vertex -51.414215087890625 217.58578491210938 -12
      vertex -148.58578491210938 217.58578491210938 -12
      vertex -51.84775924682617 218.23463439941406 -12
    endloop
  endfacet
  facet normal 0 0 -1
    outer loop
      vertex -7.8477582931518555 50.76536560058594 -12
      vertex -200 0 -12
      vertex -149.23463439941406 217.15223693847656 -12
    endloop
  endfacet
  facet normal 0 0 -1
    outer loop
      vertex -149.23463439941406 217.15223693847656 -12
      vertex -200 0 -12
      vertex -150 217 -12
    endloop
  endfacet
  facet normal 0 0 -1
    outer loop
      vertex -150 217 -12
      vertex -200 0 -12
      vertex -150.76536560058594 217.15223693847656 -12
    endloop
  endfacet
  facet normal 0 0 -1
    outer loop
      vertex -151.41421508789062 217.58578491210938 -12
      vertex -200 225 -12
      vertex -151.84776306152344 218.23463439941406 -12
    endloop
  endfacet
  facet normal 0 0 -1
    outer loop
      vertex -150.76536560058594 217.15223693847656 -12
      vertex -200 225 -12
      vertex -151.41421508789062 217.58578491210938 -12
    endloop
  endfacet
  facet normal 0 0 -1
    outer loop
      vertex -200 225 -12
      vertex -150.76536560058594 217.15223693847656 -12
      vertex -200 0 -12
    endloop
  endfacet
  facet normal 0 0 -1
    outer loop
      vertex 0 0 -12
      vertex -4 163 -12
      vertex 0 225 -12
    endloop
  endfacet
  facet normal 0 0 -1
    outer loop
      vertex -4.152240753173828 163.76536560058594 -12
      vertex 0 225 -12
      vertex -4 163 -12
    endloop
  endfacet
  facet normal 0 0 -1
    outer loop
      vertex -4.585785865783691 164.41421508789062 -12
      vertex 0 225 -12
      vertex -4.152240753173828 163.76536560058594 -12
    endloop
  endfacet
  facet normal 0 0 -1
    outer loop
      vertex -5.23463249206543 164.84776306152344 -12
      vertex 0 225 -12
      vertex -4.585785865783691 164.41421508789062 -12
    endloop
  endfacet
  facet normal 0 0 -1
    outer loop
      vertex -6 165 -12
      vertex 0 225 -12
      vertex -5.23463249206543 164.84776306152344 -12
    endloop
  endfacet
  facet normal 0 0 -1
    outer loop
      vertex -6.765366554260254 164.84776306152344 -12
      vertex 0 225 -12
      vertex -6 165 -12
    endloop
  endfacet
  facet normal 0 0 -1
    outer loop
      vertex -48 219 -12
      vertex -6.765366554260254 164.84776306152344 -12
      vertex -7.414213180541992 164.41421508789062 -12
    endloop
  endfacet
  facet normal 0 0 -1
    outer loop
      vertex -48 219 -12
      vertex -7.414213180541992 164.41421508789062 -12
      vertex -7.8477582931518555 163.76536560058594 -12
    endloop
  endfacet
  facet normal 0 0 -1
    outer loop
      vertex -48 219 -12
      vertex -7.8477582931518555 163.76536560058594 -12
      vertex -8 163 -12
    endloop
  endfacet
  facet normal 0 0 -1
    outer loop
      vertex -6.765366554260254 164.84776306152344 -12
      vertex -48 219 -12
      vertex 0 225 -12
    endloop
  endfacet
  facet normal 0 0 -1
    outer loop
      vertex -48.15224075317383 219.76536560058594 -12
      vertex 0 225 -12
      vertex -48 219 -12
    endloop
  endfacet
  facet normal 0 0 -1
    outer loop
      vertex -48.585784912109375 220.41421508789062 -12
      vertex 0 225 -12
      vertex -48.15224075317383 219.76536560058594 -12
    endloop
  endfacet
  facet normal 0 0 -1
    outer loop
      vertex -49.23463439941406 220.84776306152344 -12
      vertex 0 225 -12
      vertex -48.585784912109375 220.41421508789062 -12
    endloop
  endfacet
  facet normal 0 0 -1
    outer loop
      vertex -50 221 -12
      vertex 0 225 -12
      vertex -49.23463439941406 220.84776306152344 -12
    endloop
  endfacet
  facet normal 0 0 -1
    outer loop
      vertex -148 219 -12
      vertex -51.84775924682617 219.76536560058594 -12
      vertex -52 219 -12
    endloop
  endfacet
  facet normal 0 0 -1
    outer loop
      vertex -148.15223693847656 219.76536560058594 -12
      vertex -51.84775924682617 219.76536560058594 -12
      vertex -148 219 -12
    endloop
  endfacet
  facet normal 0 0 -1
    outer loop
      vertex -51.84775924682617 219.76536560058594 -12
      vertex -148.15223693847656 219.76536560058594 -12
      vertex -51.414215087890625 220.41421508789062 -12
    endloop
  endfacet
  facet normal 0 0 -1
    outer loop
      vertex -148.58578491210938 220.41421508789062 -12
      vertex -51.414215087890625 220.41421508789062 -12
      vertex -148.15223693847656 219.76536560058594 -12
    endloop
  endfacet
  facet normal 0 0 -1
    outer loop
      vertex -51.414215087890625 220.41421508789062 -12
      vertex -148.58578491210938 220.41421508789062 -12
      vertex -50.76536560058594 220.84776306152344 -12
    endloop
  endfacet
  facet normal 0 0 -1
    outer loop
      vertex -149.23463439941406 220.84776306152344 -12
      vertex -50.76536560058594 220.84776306152344 -12
      vertex -148.58578491210938 220.41421508789062 -12
    endloop
  endfacet
  facet normal 0 0 -1
    outer loop
      vertex -50.76536560058594 220.84776306152344 -12
      vertex -149.23463439941406 220.84776306152344 -12
      vertex -50 221 -12
    endloop
  endfacet
  facet normal 0 0 -1
    outer loop
      vertex -150 221 -12
      vertex -50 221 -12
      vertex -149.23463439941406 220.84776306152344 -12
    endloop
  endfacet
  facet normal 0 0 -1
    outer loop
      vertex -50 221 -12
      vertex -150 221 -12
      vertex 0 225 -12
    endloop
  endfacet
  facet normal 0 0 -1
    outer loop
      vertex -151.84776306152344 218.23463439941406 -12
      vertex -200 225 -12
      vertex -152 219 -12
    endloop
  endfacet
  facet normal 0 0 -1
    outer loop
      vertex -150 221 -12
      vertex -200 225 -12
      vertex 0 225 -12
    endloop
  endfacet
  facet normal 0 0 -1
    outer loop
      vertex -150.76536560058594 220.84776306152344 -12
      vertex -200 225 -12
      vertex -150 221 -12
    endloop
  endfacet
  facet normal 0 0 -1
    outer loop
      vertex -151.41421508789062 220.41421508789062 -12
      vertex -200 225 -12
      vertex -150.76536560058594 220.84776306152344 -12
    endloop
  endfacet
  facet normal 0 0 -1
    outer loop
      vertex -151.84776306152344 219.76536560058594 -12
      vertex -200 225 -12
      vertex -151.41421508789062 220.41421508789062 -12
    endloop
  endfacet
  facet normal 0 0 -1
    outer loop
      vertex -152 219 -12
      vertex -200 225 -12
      vertex -151.84776306152344 219.76536560058594 -12
    endloop
  endfacet
  facet normal -0.9807861986664704 -0.19508570553829574 0
    outer loop
      vertex -148 219 -12
      vertex -148.15223693847656 219.76536560058594 0
      vertex -148.15223693847656 219.76536560058594 -12
    endloop
  endfacet
  facet normal -0.9807861986664704 -0.19508570553829574 0
    outer loop
      vertex -148.15223693847656 219.76536560058594 0
      vertex -148 219 -12
      vertex -148 219 0
    endloop
  endfacet
  facet normal 0.19508570553829574 -0.9807861986664704 0
    outer loop
      vertex -150.76536560058594 220.84776306152344 -12
      vertex -150 221 0
      vertex -150.76536560058594 220.84776306152344 0
    endloop
  endfacet
  facet normal 0.19508570553829574 -0.9807861986664704 0
    outer loop
      vertex -150 221 0
      vertex -150.76536560058594 220.84776306152344 -12
      vertex -150 221 -12
    endloop
  endfacet
  facet normal 0.9807861986664704 -0.19508570553829574 0
    outer loop
      vertex -152 219 0
      vertex -151.84776306152344 219.76536560058594 -12
      vertex -151.84776306152344 219.76536560058594 0
    endloop
  endfacet
  facet normal 0.9807861986664704 -0.19508570553829574 0
    outer loop
      vertex -151.84776306152344 219.76536560058594 -12
      vertex -152 219 0
      vertex -152 219 -12
    endloop
  endfacet
  facet normal -0.19508570553829574 -0.9807861986664704 0
    outer loop
      vertex -150 221 -12
      vertex -149.23463439941406 220.84776306152344 0
      vertex -150 221 0
    endloop
  endfacet
  facet normal -0.19508570553829574 -0.9807861986664704 0
    outer loop
      vertex -149.23463439941406 220.84776306152344 0
      vertex -150 221 -12
      vertex -149.23463439941406 220.84776306152344 -12
    endloop
  endfacet
  facet normal -0.9807861986664704 0.19508570553829574 0
    outer loop
      vertex -148.15223693847656 218.23463439941406 -12
      vertex -148 219 0
      vertex -148 219 -12
    endloop
  endfacet
  facet normal -0.9807861986664704 0.19508570553829574 0
    outer loop
      vertex -148 219 0
      vertex -148.15223693847656 218.23463439941406 -12
      vertex -148.15223693847656 218.23463439941406 0
    endloop
  endfacet
  facet normal 0.5555707707654927 0.8314692529919772 0
    outer loop
      vertex -150.76536560058594 217.15223693847656 -12
      vertex -151.41421508789062 217.58578491210938 0
      vertex -150.76536560058594 217.15223693847656 0
    endloop
  endfacet
  facet normal 0.5555707707654927 0.8314692529919772 0
    outer loop
      vertex -151.41421508789062 217.58578491210938 0
      vertex -150.76536560058594 217.15223693847656 -12
      vertex -151.41421508789062 217.58578491210938 -12
    endloop
  endfacet
  facet normal -0.19508570553829574 0.9807861986664704 0
    outer loop
      vertex -149.23463439941406 217.15223693847656 -12
      vertex -150 217 0
      vertex -149.23463439941406 217.15223693847656 0
    endloop
  endfacet
  facet normal -0.19508570553829574 0.9807861986664704 0
    outer loop
      vertex -150 217 0
      vertex -149.23463439941406 217.15223693847656 -12
      vertex -150 217 -12
    endloop
  endfacet
  facet normal 0.5555707707654927 -0.8314692529919772 0
    outer loop
      vertex -151.41421508789062 220.41421508789062 -12
      vertex -150.76536560058594 220.84776306152344 0
      vertex -151.41421508789062 220.41421508789062 0
    endloop
  endfacet
  facet normal 0.5555707707654927 -0.8314692529919772 0
    outer loop
      vertex -150.76536560058594 220.84776306152344 0
      vertex -151.41421508789062 220.41421508789062 -12
      vertex -150.76536560058594 220.84776306152344 -12
    endloop
  endfacet
  facet normal -0.8314692529919772 -0.5555707707654927 0
    outer loop
      vertex -148.15223693847656 219.76536560058594 -12
      vertex -148.58578491210938 220.41421508789062 0
      vertex -148.58578491210938 220.41421508789062 -12
    endloop
  endfacet
  facet normal -0.8314692529919772 -0.5555707707654927 0
    outer loop
      vertex -148.58578491210938 220.41421508789062 0
      vertex -148.15223693847656 219.76536560058594 -12
      vertex -148.15223693847656 219.76536560058594 0
    endloop
  endfacet
  facet normal -0.5555707707654927 0.8314692529919772 0
    outer loop
      vertex -148.58578491210938 217.58578491210938 -12
      vertex -149.23463439941406 217.15223693847656 0
      vertex -148.58578491210938 217.58578491210938 0
    endloop
  endfacet
  facet normal -0.5555707707654927 0.8314692529919772 0
    outer loop
      vertex -149.23463439941406 217.15223693847656 0
      vertex -148.58578491210938 217.58578491210938 -12
      vertex -149.23463439941406 217.15223693847656 -12
    endloop
  endfacet
  facet normal 0.19508570553829574 0.9807861986664704 0
    outer loop
      vertex -150 217 -12
      vertex -150.76536560058594 217.15223693847656 0
      vertex -150 217 0
    endloop
  endfacet
  facet normal 0.19508570553829574 0.9807861986664704 0
    outer loop
      vertex -150.76536560058594 217.15223693847656 0
      vertex -150 217 -12
      vertex -150.76536560058594 217.15223693847656 -12
    endloop
  endfacet
  facet normal -0.8314692529919772 0.5555707707654927 0
    outer loop
      vertex -148.58578491210938 217.58578491210938 -12
      vertex -148.15223693847656 218.23463439941406 0
      vertex -148.15223693847656 218.23463439941406 -12
    endloop
  endfacet
  facet normal -0.8314692529919772 0.5555707707654927 0
    outer loop
      vertex -148.15223693847656 218.23463439941406 0
      vertex -148.58578491210938 217.58578491210938 -12
      vertex -148.58578491210938 217.58578491210938 0
    endloop
  endfacet
  facet normal -0.5555707707654927 -0.8314692529919772 0
    outer loop
      vertex -149.23463439941406 220.84776306152344 -12
      vertex -148.58578491210938 220.41421508789062 0
      vertex -149.23463439941406 220.84776306152344 0
    endloop
  endfacet
  facet normal -0.5555707707654927 -0.8314692529919772 0
    outer loop
      vertex -148.58578491210938 220.41421508789062 0
      vertex -149.23463439941406 220.84776306152344 -12
      vertex -148.58578491210938 220.41421508789062 -12
    endloop
  endfacet
  facet normal 0.8314692529919772 0.5555707707654927 0
    outer loop
      vertex -151.41421508789062 217.58578491210938 0
      vertex -151.84776306152344 218.23463439941406 -12
      vertex -151.84776306152344 218.23463439941406 0
    endloop
  endfacet
  facet normal 0.8314692529919772 0.5555707707654927 0
    outer loop
      vertex -151.84776306152344 218.23463439941406 -12
      vertex -151.41421508789062 217.58578491210938 0
      vertex -151.41421508789062 217.58578491210938 -12
    endloop
  endfacet
  facet normal 0.8314692529919772 -0.5555707707654927 0
    outer loop
      vertex -151.84776306152344 219.76536560058594 0
      vertex -151.41421508789062 220.41421508789062 -12
      vertex -151.41421508789062 220.41421508789062 0
    endloop
  endfacet
  facet normal 0.8314692529919772 -0.5555707707654927 0
    outer loop
      vertex -151.41421508789062 220.41421508789062 -12
      vertex -151.84776306152344 219.76536560058594 0
      vertex -151.84776306152344 219.76536560058594 -12
    endloop
  endfacet
  facet normal 0.9807861986664704 0.19508570553829574 0
    outer loop
      vertex -151.84776306152344 218.23463439941406 0
      vertex -152 219 -12
      vertex -152 219 0
    endloop
  endfacet
  facet normal 0.9807861986664704 0.19508570553829574 0
    outer loop
      vertex -152 219 -12
      vertex -151.84776306152344 218.23463439941406 0
      vertex -151.84776306152344 218.23463439941406 -12
    endloop
  endfacet
  facet normal -0.9807852633251952 -0.19509040787318935 0
    outer loop
      vertex -4 50 -12
      vertex -4.152240753173828 50.76536560058594 0
      vertex -4.152240753173828 50.76536560058594 -12
    endloop
  endfacet
  facet normal -0.9807852633251952 -0.19509040787318935 0
    outer loop
      vertex -4.152240753173828 50.76536560058594 0
      vertex -4 50 -12
      vertex -4 50 0
    endloop
  endfacet
  facet normal 0.19509017403555015 -0.9807853098383861 0
    outer loop
      vertex -6.765366554260254 51.84775924682617 -12
      vertex -6 52 0
      vertex -6.765366554260254 51.84775924682617 0
    endloop
  endfacet
  facet normal 0.19509017403555015 -0.9807853098383861 0
    outer loop
      vertex -6 52 0
      vertex -6.765366554260254 51.84775924682617 -12
      vertex -6 52 -12
    endloop
  endfacet
  facet normal 0.9807850294866326 -0.19509158345481065 0
    outer loop
      vertex -8 50 0
      vertex -7.8477582931518555 50.76536560058594 -12
      vertex -7.8477582931518555 50.76536560058594 0
    endloop
  endfacet
  facet normal 0.9807850294866326 -0.19509158345481065 0
    outer loop
      vertex -7.8477582931518555 50.76536560058594 -12
      vertex -8 50 0
      vertex -8 50 -12
    endloop
  endfacet
  facet normal -0.1950899401984604 -0.9807853563514095 0
    outer loop
      vertex -6 52 -12
      vertex -5.23463249206543 51.84775924682617 0
      vertex -6 52 0
    endloop
  endfacet
  facet normal -0.1950899401984604 -0.9807853563514095 0
    outer loop
      vertex -5.23463249206543 51.84775924682617 0
      vertex -6 52 -12
      vertex -5.23463249206543 51.84775924682617 -12
    endloop
  endfacet
  facet normal -0.9807852633251952 0.19509040787318935 0
    outer loop
      vertex -4.152240753173828 49.23463439941406 -12
      vertex -4 50 0
      vertex -4 50 -12
    endloop
  endfacet
  facet normal -0.9807852633251952 0.19509040787318935 0
    outer loop
      vertex -4 50 0
      vertex -4.152240753173828 49.23463439941406 -12
      vertex -4.152240753173828 49.23463439941406 0
    endloop
  endfacet
  facet normal 0.5555690848305745 0.8314703794967793 0
    outer loop
      vertex -6.765366554260254 48.15224075317383 -12
      vertex -7.414213180541992 48.585784912109375 0
      vertex -6.765366554260254 48.15224075317383 0
    endloop
  endfacet
  facet normal 0.5555690848305745 0.8314703794967793 0
    outer loop
      vertex -7.414213180541992 48.585784912109375 0
      vertex -6.765366554260254 48.15224075317383 -12
      vertex -7.414213180541992 48.585784912109375 -12
    endloop
  endfacet
  facet normal -0.1950899401984604 0.9807853563514095 0
    outer loop
      vertex -5.23463249206543 48.15224075317383 -12
      vertex -6 48 0
      vertex -5.23463249206543 48.15224075317383 0
    endloop
  endfacet
  facet normal -0.1950899401984604 0.9807853563514095 0
    outer loop
      vertex -6 48 0
      vertex -5.23463249206543 48.15224075317383 -12
      vertex -6 48 -12
    endloop
  endfacet
  facet normal 0.5555690848305745 -0.8314703794967793 0
    outer loop
      vertex -7.414213180541992 51.414215087890625 -12
      vertex -6.765366554260254 51.84775924682617 0
      vertex -7.414213180541992 51.414215087890625 0
    endloop
  endfacet
  facet normal 0.5555690848305745 -0.8314703794967793 0
    outer loop
      vertex -6.765366554260254 51.84775924682617 0
      vertex -7.414213180541992 51.414215087890625 -12
      vertex -6.765366554260254 51.84775924682617 -12
    endloop
  endfacet
  facet normal -0.8314709465849636 -0.5555682361196549 0
    outer loop
      vertex -4.152240753173828 50.76536560058594 -12
      vertex -4.585785865783691 51.414215087890625 0
      vertex -4.585785865783691 51.414215087890625 -12
    endloop
  endfacet
  facet normal -0.8314709465849636 -0.5555682361196549 0
    outer loop
      vertex -4.585785865783691 51.414215087890625 0
      vertex -4.152240753173828 50.76536560058594 -12
      vertex -4.152240753173828 50.76536560058594 0
    endloop
  endfacet
  facet normal -0.5555690848305745 0.8314703794967793 0
    outer loop
      vertex -4.585785865783691 48.585784912109375 -12
      vertex -5.23463249206543 48.15224075317383 0
      vertex -4.585785865783691 48.585784912109375 0
    endloop
  endfacet
  facet normal -0.5555690848305745 0.8314703794967793 0
    outer loop
      vertex -5.23463249206543 48.15224075317383 0
      vertex -4.585785865783691 48.585784912109375 -12
      vertex -5.23463249206543 48.15224075317383 -12
    endloop
  endfacet
  facet normal 0.19509017403555015 0.9807853098383861 0
    outer loop
      vertex -6 48 -12
      vertex -6.765366554260254 48.15224075317383 0
      vertex -6 48 0
    endloop
  endfacet
  facet normal 0.19509017403555015 0.9807853098383861 0
    outer loop
      vertex -6.765366554260254 48.15224075317383 0
      vertex -6 48 -12
      vertex -6.765366554260254 48.15224075317383 -12
    endloop
  endfacet
  facet normal -0.8314709465849636 0.5555682361196549 0
    outer loop
      vertex -4.585785865783691 48.585784912109375 -12
      vertex -4.152240753173828 49.23463439941406 0
      vertex -4.152240753173828 49.23463439941406 -12
    endloop
  endfacet
  facet normal -0.8314709465849636 0.5555682361196549 0
    outer loop
      vertex -4.152240753173828 49.23463439941406 0
      vertex -4.585785865783691 48.585784912109375 -12
      vertex -4.585785865783691 48.585784912109375 0
    endloop
  endfacet
  facet normal -0.5555690848305745 -0.8314703794967793 0
    outer loop
      vertex -5.23463249206543 51.84775924682617 -12
      vertex -4.585785865783691 51.414215087890625 0
      vertex -5.23463249206543 51.84775924682617 0
    endloop
  endfacet
  facet normal -0.5555690848305745 -0.8314703794967793 0
    outer loop
      vertex -4.585785865783691 51.414215087890625 0
      vertex -5.23463249206543 51.84775924682617 -12
      vertex -4.585785865783691 51.414215087890625 -12
    endloop
  endfacet
  facet normal 0.8314709465849636 0.5555682361196549 0
    outer loop
      vertex -7.414213180541992 48.585784912109375 0
      vertex -7.8477582931518555 49.23463439941406 -12
      vertex -7.8477582931518555 49.23463439941406 0
    endloop
  endfacet
  facet normal 0.8314709465849636 0.5555682361196549 0
    outer loop
      vertex -7.8477582931518555 49.23463439941406 -12
      vertex -7.414213180541992 48.585784912109375 0
      vertex -7.414213180541992 48.585784912109375 -12
    endloop
  endfacet
  facet normal 0.8314709465849636 -0.5555682361196549 0
    outer loop
      vertex -7.8477582931518555 50.76536560058594 0
      vertex -7.414213180541992 51.414215087890625 -12
      vertex -7.414213180541992 51.414215087890625 0
    endloop
  endfacet
  facet normal 0.8314709465849636 -0.5555682361196549 0
    outer loop
      vertex -7.414213180541992 51.414215087890625 -12
      vertex -7.8477582931518555 50.76536560058594 0
      vertex -7.8477582931518555 50.76536560058594 -12
    endloop
  endfacet
  facet normal 0.9807850294866326 0.19509158345481065 0
    outer loop
      vertex -7.8477582931518555 49.23463439941406 0
      vertex -8 50 -12
      vertex -8 50 0
    endloop
  endfacet
  facet normal 0.9807850294866326 0.19509158345481065 0
    outer loop
      vertex -8 50 -12
      vertex -7.8477582931518555 49.23463439941406 0
      vertex -7.8477582931518555 49.23463439941406 -12
    endloop
  endfacet
  facet normal -0.9807852633251952 -0.19509040787318935 0
    outer loop
      vertex -4 163 -12
      vertex -4.152240753173828 163.76536560058594 0
      vertex -4.152240753173828 163.76536560058594 -12
    endloop
  endfacet
  facet normal -0.9807852633251952 -0.19509040787318935 0
    outer loop
      vertex -4.152240753173828 163.76536560058594 0
      vertex -4 163 -12
      vertex -4 163 0
    endloop
  endfacet
  facet normal 0.1950854717058468 -0.9807862451774633 0
    outer loop
      vertex -6.765366554260254 164.84776306152344 -12
      vertex -6 165 0
      vertex -6.765366554260254 164.84776306152344 0
    endloop
  endfacet
  facet normal 0.1950854717058468 -0.9807862451774633 0
    outer loop
      vertex -6 165 0
      vertex -6.765366554260254 164.84776306152344 -12
      vertex -6 165 -12
    endloop
  endfacet
  facet normal 0.9807850294866326 -0.19509158345481065 0
    outer loop
      vertex -8 163 0
      vertex -7.8477582931518555 163.76536560058594 -12
      vertex -7.8477582931518555 163.76536560058594 0
    endloop
  endfacet
  facet normal 0.9807850294866326 -0.19509158345481065 0
    outer loop
      vertex -7.8477582931518555 163.76536560058594 -12
      vertex -8 163 0
      vertex -8 163 -12
    endloop
  endfacet
  facet normal -0.19508523787394733 -0.9807862916882889 0
    outer loop
      vertex -6 165 -12
      vertex -5.23463249206543 164.84776306152344 0
      vertex -6 165 0
    endloop
  endfacet
  facet normal -0.19508523787394733 -0.9807862916882889 0
    outer loop
      vertex -5.23463249206543 164.84776306152344 0
      vertex -6 165 -12
      vertex -5.23463249206543 164.84776306152344 -12
    endloop
  endfacet
  facet normal -0.9807852633251952 0.19509040787318935 0
    outer loop
      vertex -4.152240753173828 162.23463439941406 -12
      vertex -4 163 0
      vertex -4 163 -12
    endloop
  endfacet
  facet normal -0.9807852633251952 0.19509040787318935 0
    outer loop
      vertex -4 163 0
      vertex -4.152240753173828 162.23463439941406 -12
      vertex -4.152240753173828 162.23463439941406 0
    endloop
  endfacet
  facet normal 0.5555724643629031 0.8314681213622871 0
    outer loop
      vertex -6.765366554260254 161.15223693847656 -12
      vertex -7.414213180541992 161.58578491210938 0
      vertex -6.765366554260254 161.15223693847656 0
    endloop
  endfacet
  facet normal 0.5555724643629031 0.8314681213622871 0
    outer loop
      vertex -7.414213180541992 161.58578491210938 0
      vertex -6.765366554260254 161.15223693847656 -12
      vertex -7.414213180541992 161.58578491210938 -12
    endloop
  endfacet
  facet normal -0.19508523787394733 0.9807862916882889 0
    outer loop
      vertex -5.23463249206543 161.15223693847656 -12
      vertex -6 161 0
      vertex -5.23463249206543 161.15223693847656 0
    endloop
  endfacet
  facet normal -0.19508523787394733 0.9807862916882889 0
    outer loop
      vertex -6 161 0
      vertex -5.23463249206543 161.15223693847656 -12
      vertex -6 161 -12
    endloop
  endfacet
  facet normal 0.5555724643629031 -0.8314681213622871 0
    outer loop
      vertex -7.414213180541992 164.41421508789062 -12
      vertex -6.765366554260254 164.84776306152344 0
      vertex -7.414213180541992 164.41421508789062 0
    endloop
  endfacet
  facet normal 0.5555724643629031 -0.8314681213622871 0
    outer loop
      vertex -6.765366554260254 164.84776306152344 0
      vertex -7.414213180541992 164.41421508789062 -12
      vertex -6.765366554260254 164.84776306152344 -12
    endloop
  endfacet
  facet normal -0.8314709465849636 -0.5555682361196549 0
    outer loop
      vertex -4.152240753173828 163.76536560058594 -12
      vertex -4.585785865783691 164.41421508789062 0
      vertex -4.585785865783691 164.41421508789062 -12
    endloop
  endfacet
  facet normal -0.8314709465849636 -0.5555682361196549 0
    outer loop
      vertex -4.585785865783691 164.41421508789062 0
      vertex -4.152240753173828 163.76536560058594 -12
      vertex -4.152240753173828 163.76536560058594 0
    endloop
  endfacet
  facet normal -0.5555724643629031 0.8314681213622871 0
    outer loop
      vertex -4.585785865783691 161.58578491210938 -12
      vertex -5.23463249206543 161.15223693847656 0
      vertex -4.585785865783691 161.58578491210938 0
    endloop
  endfacet
  facet normal -0.5555724643629031 0.8314681213622871 0
    outer loop
      vertex -5.23463249206543 161.15223693847656 0
      vertex -4.585785865783691 161.58578491210938 -12
      vertex -5.23463249206543 161.15223693847656 -12
    endloop
  endfacet
  facet normal 0.1950854717058468 0.9807862451774633 0
    outer loop
      vertex -6 161 -12
      vertex -6.765366554260254 161.15223693847656 0
      vertex -6 161 0
    endloop
  endfacet
  facet normal 0.1950854717058468 0.9807862451774633 0
    outer loop
      vertex -6.765366554260254 161.15223693847656 0
      vertex -6 161 -12
      vertex -6.765366554260254 161.15223693847656 -12
    endloop
  endfacet
  facet normal -0.8314709465849636 0.5555682361196549 0
    outer loop
      vertex -4.585785865783691 161.58578491210938 -12
      vertex -4.152240753173828 162.23463439941406 0
      vertex -4.152240753173828 162.23463439941406 -12
    endloop
  endfacet
  facet normal -0.8314709465849636 0.5555682361196549 0
    outer loop
      vertex -4.152240753173828 162.23463439941406 0
      vertex -4.585785865783691 161.58578491210938 -12
      vertex -4.585785865783691 161.58578491210938 0
    endloop
  endfacet
  facet normal -0.5555724643629031 -0.8314681213622871 0
    outer loop
      vertex -5.23463249206543 164.84776306152344 -12
      vertex -4.585785865783691 164.41421508789062 0
      vertex -5.23463249206543 164.84776306152344 0
    endloop
  endfacet
  facet normal -0.5555724643629031 -0.8314681213622871 0
    outer loop
      vertex -4.585785865783691 164.41421508789062 0
      vertex -5.23463249206543 164.84776306152344 -12
      vertex -4.585785865783691 164.41421508789062 -12
    endloop
  endfacet
  facet normal 0.8314709465849636 0.5555682361196549 0
    outer loop
      vertex -7.414213180541992 161.58578491210938 0
      vertex -7.8477582931518555 162.23463439941406 -12
      vertex -7.8477582931518555 162.23463439941406 0
    endloop
  endfacet
  facet normal 0.8314709465849636 0.5555682361196549 0
    outer loop
      vertex -7.8477582931518555 162.23463439941406 -12
      vertex -7.414213180541992 161.58578491210938 0
      vertex -7.414213180541992 161.58578491210938 -12
    endloop
  endfacet
  facet normal 0.8314709465849636 -0.5555682361196549 0
    outer loop
      vertex -7.8477582931518555 163.76536560058594 0
      vertex -7.414213180541992 164.41421508789062 -12
      vertex -7.414213180541992 164.41421508789062 0
    endloop
  endfacet
  facet normal 0.8314709465849636 -0.5555682361196549 0
    outer loop
      vertex -7.414213180541992 164.41421508789062 -12
      vertex -7.8477582931518555 163.76536560058594 0
      vertex -7.8477582931518555 163.76536560058594 -12
    endloop
  endfacet
  facet normal 0.9807850294866326 0.19509158345481065 0
    outer loop
      vertex -7.8477582931518555 162.23463439941406 0
      vertex -8 163 -12
      vertex -8 163 0
    endloop
  endfacet
  facet normal 0.9807850294866326 0.19509158345481065 0
    outer loop
      vertex -8 163 -12
      vertex -7.8477582931518555 162.23463439941406 0
      vertex -7.8477582931518555 162.23463439941406 -12
    endloop
  endfacet
  facet normal 0 -1 0
    outer loop
      vertex -148.85194396972656 0 -3.2283620834350586
      vertex -50 0 -3
      vertex -150 0 -3
    endloop
  endfacet
  facet normal 0 -1 0
    outer loop
      vertex -148.85194396972656 0 -3.2283620834350586
      vertex -51.148048400878906 0 -3.2283620834350586
      vertex -50 0 -3
    endloop
  endfacet
  facet normal 0 -1 0
    outer loop
      vertex -147.87867736816406 0 -3.8786802291870117
      vertex -51.148048400878906 0 -3.2283620834350586
      vertex -148.85194396972656 0 -3.2283620834350586
    endloop
  endfacet
  facet normal 0 -1 0
    outer loop
      vertex -147.87867736816406 0 -3.8786802291870117
      vertex -52.12131881713867 0 -3.8786802291870117
      vertex -51.148048400878906 0 -3.2283620834350586
    endloop
  endfacet
  facet normal 0 -1 0
    outer loop
      vertex -147.22836303710938 0 -4.851950645446777
      vertex -52.12131881713867 0 -3.8786802291870117
      vertex -147.87867736816406 0 -3.8786802291870117
    endloop
  endfacet
  facet normal 0 -1 0
    outer loop
      vertex -147.22836303710938 0 -4.851950645446777
      vertex -52.771636962890625 0 -4.851950645446777
      vertex -52.12131881713867 0 -3.8786802291870117
    endloop
  endfacet
  facet normal 0 -1 0
    outer loop
      vertex -147 0 -6
      vertex -52.771636962890625 0 -4.851950645446777
      vertex -147.22836303710938 0 -4.851950645446777
    endloop
  endfacet
  facet normal 0 -1 0
    outer loop
      vertex -147 0 -6
      vertex -53 0 -6
      vertex -52.771636962890625 0 -4.851950645446777
    endloop
  endfacet
  facet normal 0 -1 0
    outer loop
      vertex -147.22836303710938 0 -7.148050308227539
      vertex -53 0 -6
      vertex -147 0 -6
    endloop
  endfacet
  facet normal 0 -1 0
    outer loop
      vertex -147.22836303710938 0 -7.148050308227539
      vertex -52.771636962890625 0 -7.148050308227539
      vertex -53 0 -6
    endloop
  endfacet
  facet normal 0 -1 0
    outer loop
      vertex -147.87867736816406 0 -8.121320724487305
      vertex -52.771636962890625 0 -7.148050308227539
      vertex -147.22836303710938 0 -7.148050308227539
    endloop
  endfacet
  facet normal 0 -1 0
    outer loop
      vertex -147.87867736816406 0 -8.121320724487305
      vertex -52.12131881713867 0 -8.121320724487305
      vertex -52.771636962890625 0 -7.148050308227539
    endloop
  endfacet
  facet normal 0 -1 0
    outer loop
      vertex -148.85194396972656 0 -8.771638870239258
      vertex -52.12131881713867 0 -8.121320724487305
      vertex -147.87867736816406 0 -8.121320724487305
    endloop
  endfacet
  facet normal 0 -1 0
    outer loop
      vertex -148.85194396972656 0 -8.771638870239258
      vertex -51.148048400878906 0 -8.771638870239258
      vertex -52.12131881713867 0 -8.121320724487305
    endloop
  endfacet
  facet normal 0 -1 0
    outer loop
      vertex -150 0 -9
      vertex -51.148048400878906 0 -8.771638870239258
      vertex -148.85194396972656 0 -8.771638870239258
    endloop
  endfacet
  facet normal 0 -1 0
    outer loop
      vertex -51.148048400878906 0 -8.771638870239258
      vertex -150 0 -9
      vertex -50 0 -9
    endloop
  endfacet
  facet normal 0 -1 0
    outer loop
      vertex -200 0 0
      vertex -150 0 -3
      vertex 0 0 0
    endloop
  endfacet
  facet normal 0 -1 0
    outer loop
      vertex -200 0 0
      vertex -151.14805603027344 0 -3.2283620834350586
      vertex -150 0 -3
    endloop
  endfacet
  facet normal 0 -1 0
    outer loop
      vertex -200 0 0
      vertex -152.12132263183594 0 -3.8786802291870117
      vertex -151.14805603027344 0 -3.2283620834350586
    endloop
  endfacet
  facet normal 0 -1 0
    outer loop
      vertex -200 0 0
      vertex -152.77163696289062 0 -4.851950645446777
      vertex -152.12132263183594 0 -3.8786802291870117
    endloop
  endfacet
  facet normal 0 -1 0
    outer loop
      vertex -200 0 0
      vertex -153 0 -6
      vertex -152.77163696289062 0 -4.851950645446777
    endloop
  endfacet
  facet normal 0 -1 0
    outer loop
      vertex -200 0 -12
      vertex -153 0 -6
      vertex -200 0 0
    endloop
  endfacet
  facet normal 0 -1 0
    outer loop
      vertex -153 0 -6
      vertex -200 0 -12
      vertex -152.77163696289062 0 -7.148050308227539
    endloop
  endfacet
  facet normal 0 -1 0
    outer loop
      vertex -152.77163696289062 0 -7.148050308227539
      vertex -200 0 -12
      vertex -152.12132263183594 0 -8.121320724487305
    endloop
  endfacet
  facet normal 0 -1 0
    outer loop
      vertex -152.12132263183594 0 -8.121320724487305
      vertex -200 0 -12
      vertex -151.14805603027344 0 -8.771638870239258
    endloop
  endfacet
  facet normal 0 -1 0
    outer loop
      vertex -150 0 -9
      vertex -200 0 -12
      vertex -50 0 -9
    endloop
  endfacet
  facet normal 0 -1 0
    outer loop
      vertex -151.14805603027344 0 -8.771638870239258
      vertex -200 0 -12
      vertex -150 0 -9
    endloop
  endfacet
  facet normal 0 -1 0
    outer loop
      vertex -50 0 -3
      vertex 0 0 0
      vertex -150 0 -3
    endloop
  endfacet
  facet normal 0 -1 0
    outer loop
      vertex -48.851951599121094 0 -3.2283620834350586
      vertex 0 0 0
      vertex -50 0 -3
    endloop
  endfacet
  facet normal 0 -1 0
    outer loop
      vertex -47.87867736816406 0 -3.8786802291870117
      vertex 0 0 0
      vertex -48.851951599121094 0 -3.2283620834350586
    endloop
  endfacet
  facet normal 0 -1 0
    outer loop
      vertex -47.228363037109375 0 -4.851950645446777
      vertex 0 0 0
      vertex -47.87867736816406 0 -3.8786802291870117
    endloop
  endfacet
  facet normal 0 -1 0
    outer loop
      vertex -47 0 -6
      vertex 0 0 0
      vertex -47.228363037109375 0 -4.851950645446777
    endloop
  endfacet
  facet normal 0 -1 0
    outer loop
      vertex 0 0 -12
      vertex -47 0 -6
      vertex -47.228363037109375 0 -7.148050308227539
    endloop
  endfacet
  facet normal 0 -1 0
    outer loop
      vertex 0 0 -12
      vertex -47.228363037109375 0 -7.148050308227539
      vertex -47.87867736816406 0 -8.121320724487305
    endloop
  endfacet
  facet normal 0 -1 0
    outer loop
      vertex 0 0 -12
      vertex -47.87867736816406 0 -8.121320724487305
      vertex -48.851951599121094 0 -8.771638870239258
    endloop
  endfacet
  facet normal 0 -1 0
    outer loop
      vertex 0 0 -12
      vertex -48.851951599121094 0 -8.771638870239258
      vertex -50 0 -9
    endloop
  endfacet
  facet normal 0 -1 0
    outer loop
      vertex -47 0 -6
      vertex 0 0 -12
      vertex 0 0 0
    endloop
  endfacet
  facet normal 0 -1 0
    outer loop
      vertex 0 0 -12
      vertex -50 0 -9
      vertex -200 0 -12
    endloop
  endfacet
  facet normal 0 -1 0
    outer loop
      vertex -151.14805603027344 0 -3.2283620834350586
      vertex -148.85194396972656 0 -3.2283620834350586
      vertex -150 0 -3
    endloop
  endfacet
  facet normal 0 -1 0
    outer loop
      vertex -152.12132263183594 0 -3.8786802291870117
      vertex -148.85194396972656 0 -3.2283620834350586
      vertex -151.14805603027344 0 -3.2283620834350586
    endloop
  endfacet
  facet normal 0 -1 0
    outer loop
      vertex -152.12132263183594 0 -3.8786802291870117
      vertex -147.87867736816406 0 -3.8786802291870117
      vertex -148.85194396972656 0 -3.2283620834350586
    endloop
  endfacet
  facet normal 0 -1 0
    outer loop
      vertex -152.77163696289062 0 -4.851950645446777
      vertex -147.87867736816406 0 -3.8786802291870117
      vertex -152.12132263183594 0 -3.8786802291870117
    endloop
  endfacet
  facet normal 0 -1 0
    outer loop
      vertex -152.77163696289062 0 -4.851950645446777
      vertex -147.22836303710938 0 -4.851950645446777
      vertex -147.87867736816406 0 -3.8786802291870117
    endloop
  endfacet
  facet normal 0 -1 0
    outer loop
      vertex -153 0 -6
      vertex -147.22836303710938 0 -4.851950645446777
      vertex -152.77163696289062 0 -4.851950645446777
    endloop
  endfacet
  facet normal 0 -1 0
    outer loop
      vertex -153 0 -6
      vertex -147 0 -6
      vertex -147.22836303710938 0 -4.851950645446777
    endloop
  endfacet
  facet normal 0 -1 0
    outer loop
      vertex -152.77163696289062 0 -7.148050308227539
      vertex -147 0 -6
      vertex -153 0 -6
    endloop
  endfacet
  facet normal 0 -1 0
    outer loop
      vertex -152.77163696289062 0 -7.148050308227539
      vertex -147.22836303710938 0 -7.148050308227539
      vertex -147 0 -6
    endloop
  endfacet
  facet normal 0 -1 0
    outer loop
      vertex -152.12132263183594 0 -8.121320724487305
      vertex -147.22836303710938 0 -7.148050308227539
      vertex -152.77163696289062 0 -7.148050308227539
    endloop
  endfacet
  facet normal 0 -1 0
    outer loop
      vertex -152.12132263183594 0 -8.121320724487305
      vertex -147.87867736816406 0 -8.121320724487305
      vertex -147.22836303710938 0 -7.148050308227539
    endloop
  endfacet
  facet normal 0 -1 0
    outer loop
      vertex -151.14805603027344 0 -8.771638870239258
      vertex -147.87867736816406 0 -8.121320724487305
      vertex -152.12132263183594 0 -8.121320724487305
    endloop
  endfacet
  facet normal 0 -1 0
    outer loop
      vertex -151.14805603027344 0 -8.771638870239258
      vertex -148.85194396972656 0 -8.771638870239258
      vertex -147.87867736816406 0 -8.121320724487305
    endloop
  endfacet
  facet normal 0 -1 0
    outer loop
      vertex -148.85194396972656 0 -8.771638870239258
      vertex -151.14805603027344 0 -8.771638870239258
      vertex -150 0 -9
    endloop
  endfacet
  facet normal 0 -1 0
    outer loop
      vertex -51.148048400878906 0 -3.2283620834350586
      vertex -48.851951599121094 0 -3.2283620834350586
      vertex -50 0 -3
    endloop
  endfacet
  facet normal 0 -1 0
    outer loop
      vertex -52.12131881713867 0 -3.8786802291870117
      vertex -48.851951599121094 0 -3.2283620834350586
      vertex -51.148048400878906 0 -3.2283620834350586
    endloop
  endfacet
  facet normal 0 -1 0
    outer loop
      vertex -52.12131881713867 0 -3.8786802291870117
      vertex -47.87867736816406 0 -3.8786802291870117
      vertex -48.851951599121094 0 -3.2283620834350586
    endloop
  endfacet
  facet normal 0 -1 0
    outer loop
      vertex -52.771636962890625 0 -4.851950645446777
      vertex -47.87867736816406 0 -3.8786802291870117
      vertex -52.12131881713867 0 -3.8786802291870117
    endloop
  endfacet
  facet normal 0 -1 0
    outer loop
      vertex -52.771636962890625 0 -4.851950645446777
      vertex -47.228363037109375 0 -4.851950645446777
      vertex -47.87867736816406 0 -3.8786802291870117
    endloop
  endfacet
  facet normal 0 -1 0
    outer loop
      vertex -53 0 -6
      vertex -47.228363037109375 0 -4.851950645446777
      vertex -52.771636962890625 0 -4.851950645446777
    endloop
  endfacet
  facet normal 0 -1 0
    outer loop
      vertex -53 0 -6
      vertex -47 0 -6
      vertex -47.228363037109375 0 -4.851950645446777
    endloop
  endfacet
  facet normal 0 -1 0
    outer loop
      vertex -52.771636962890625 0 -7.148050308227539
      vertex -47 0 -6
      vertex -53 0 -6
    endloop
  endfacet
  facet normal 0 -1 0
    outer loop
      vertex -52.771636962890625 0 -7.148050308227539
      vertex -47.228363037109375 0 -7.148050308227539
      vertex -47 0 -6
    endloop
  endfacet
  facet normal 0 -1 0
    outer loop
      vertex -52.12131881713867 0 -8.121320724487305
      vertex -47.228363037109375 0 -7.148050308227539
      vertex -52.771636962890625 0 -7.148050308227539
    endloop
  endfacet
  facet normal 0 -1 0
    outer loop
      vertex -52.12131881713867 0 -8.121320724487305
      vertex -47.87867736816406 0 -8.121320724487305
      vertex -47.228363037109375 0 -7.148050308227539
    endloop
  endfacet
  facet normal 0 -1 0
    outer loop
      vertex -51.148048400878906 0 -8.771638870239258
      vertex -47.87867736816406 0 -8.121320724487305
      vertex -52.12131881713867 0 -8.121320724487305
    endloop
  endfacet
  facet normal 0 -1 0
    outer loop
      vertex -51.148048400878906 0 -8.771638870239258
      vertex -48.851951599121094 0 -8.771638870239258
      vertex -47.87867736816406 0 -8.121320724487305
    endloop
  endfacet
  facet normal 0 -1 0
    outer loop
      vertex -48.851951599121094 0 -8.771638870239258
      vertex -51.148048400878906 0 -8.771638870239258
      vertex -50 0 -9
    endloop
  endfacet
  facet normal -1 0 0
    outer loop
      vertex -200 0 -12
      vertex -200 225 0
      vertex -200 225 -12
    endloop
  endfacet
  facet normal -1 0 0
    outer loop
      vertex -200 225 0
      vertex -200 0 -12
      vertex -200 0 0
    endloop
  endfacet
  facet normal 1 0 0
    outer loop
      vertex 0 0 0
      vertex 0 225 -12
      vertex 0 225 0
    endloop
  endfacet
  facet normal 1 0 0
    outer loop
      vertex 0 225 -12
      vertex 0 0 0
      vertex 0 0 -12
    endloop
  endfacet
  facet normal 0 1 0
    outer loop
      vertex 0 225 -12
      vertex -200 225 0
      vertex 0 225 0
    endloop
  endfacet
  facet normal 0 1 0
    outer loop
      vertex -200 225 0
      vertex 0 225 -12
      vertex -200 225 -12
    endloop
  endfacet
endsolid OpenSCAD_Model
