solid OpenSCAD_Model
  facet normal -1 0 0
    outer loop
      vertex 0 -200 0
      vertex 0 0 12
      vertex 0 0 0
    endloop
  endfacet
  facet normal -1 0 0
    outer loop
      vertex 0 0 12
      vertex 0 -200 0
      vertex 0 -200 12
    endloop
  endfacet
  facet normal 1 0 0
    outer loop
      vertex 712 -200 12
      vertex 712 0 0
      vertex 712 0 12
    endloop
  endfacet
  facet normal 1 0 0
    outer loop
      vertex 712 0 0
      vertex 712 -200 12
      vertex 712 -200 0
    endloop
  endfacet
  facet normal 0 0 1
    outer loop
      vertex 0 0 12
      vertex 712 -200 12
      vertex 712 0 12
    endloop
  endfacet
  facet normal 0 0 1
    outer loop
      vertex 712 -200 12
      vertex 0 0 12
      vertex 0 -200 12
    endloop
  endfacet
  facet normal 0 0 -1
    outer loop
      vertex 0 -200 0
      vertex 712 0 0
      vertex 712 -200 0
    endloop
  endfacet
  facet normal 0 0 -1
    outer loop
      vertex 712 0 0
      vertex 0 -200 0
      vertex 0 0 0
    endloop
  endfacet
  facet normal 0 -1 0
    outer loop
      vertex 0 -200 0
      vertex 712 -200 12
      vertex 0 -200 12
    endloop
  endfacet
  facet normal 0 -1 0
    outer loop
      vertex 712 -200 12
      vertex 0 -200 0
      vertex 712 -200 0
    endloop
  endfacet
  facet normal 0 1 0
    outer loop
      vertex 712 0 0
      vertex 0 0 12
      vertex 712 0 12
    endloop
  endfacet
  facet normal 0 1 0
    outer loop
      vertex 0 0 12
      vertex 712 0 0
      vertex 0 0 0
    endloop
  endfacet
endsolid OpenSCAD_Model
