solid OpenSCAD_Model
  facet normal 0 -0.980785309838386 -0.19509017403555015
    outer loop
      vertex 0 -13 9.5
      vertex 30 -13.152240753173828 10.265366554260254
      vertex 0 -13.152240753173828 10.265366554260254
    endloop
  endfacet
  facet normal 0 -0.980785309838386 -0.19509017403555015
    outer loop
      vertex 30 -13.152240753173828 10.265366554260254
      vertex 0 -13 9.5
      vertex 30 -13 9.5
    endloop
  endfacet
  facet normal 0 0.19509134961587385 -0.9807850760003727
    outer loop
      vertex 0 -15.765366554260254 11.347758293151855
      vertex 30 -15 11.5
      vertex 30 -15.765366554260254 11.347758293151855
    endloop
  endfacet
  facet normal 0 0.19509134961587385 -0.9807850760003727
    outer loop
      vertex 30 -15 11.5
      vertex 0 -15.765366554260254 11.347758293151855
      vertex 0 -15 11.5
    endloop
  endfacet
  facet normal 0 0.980785309838386 -0.19509017403555015
    outer loop
      vertex 30 -17 9.5
      vertex 0 -16.847759246826172 10.265366554260254
      vertex 30 -16.847759246826172 10.265366554260254
    endloop
  endfacet
  facet normal 0 0.980785309838386 -0.19509017403555015
    outer loop
      vertex 0 -16.847759246826172 10.265366554260254
      vertex 30 -17 9.5
      vertex 0 -17 9.5
    endloop
  endfacet
  facet normal 0 -0.19509111577748658 -0.9807851225139457
    outer loop
      vertex 0 -15 11.5
      vertex 30 -14.23463249206543 11.347758293151855
      vertex 30 -15 11.5
    endloop
  endfacet
  facet normal 0 -0.19509111577748658 -0.9807851225139457
    outer loop
      vertex 30 -14.23463249206543 11.347758293151855
      vertex 0 -15 11.5
      vertex 0 -14.23463249206543 11.347758293151855
    endloop
  endfacet
  facet normal 0 -0.9807853563514094 0.1950899401984604
    outer loop
      vertex 0 -13.152240753173828 8.73463249206543
      vertex 30 -13 9.5
      vertex 0 -13 9.5
    endloop
  endfacet
  facet normal 0 -0.9807853563514094 0.1950899401984604
    outer loop
      vertex 30 -13 9.5
      vertex 0 -13.152240753173828 8.73463249206543
      vertex 30 -13.152240753173828 8.73463249206543
    endloop
  endfacet
  facet normal 0 0.555569929716238 0.831469814963294
    outer loop
      vertex 0 -15.765366554260254 7.652240753173828
      vertex 30 -16.414213180541992 8.085785865783691
      vertex 30 -15.765366554260254 7.652240753173828
    endloop
  endfacet
  facet normal 0 0.555569929716238 0.831469814963294
    outer loop
      vertex 30 -16.414213180541992 8.085785865783691
      vertex 0 -15.765366554260254 7.652240753173828
      vertex 0 -16.414213180541992 8.085785865783691
    endloop
  endfacet
  facet normal 0 -0.1950899401984604 0.9807853563514094
    outer loop
      vertex 0 -14.23463249206543 7.652240753173828
      vertex 30 -15 7.5
      vertex 30 -14.23463249206543 7.652240753173828
    endloop
  endfacet
  facet normal 0 -0.1950899401984604 0.9807853563514094
    outer loop
      vertex 30 -15 7.5
      vertex 0 -14.23463249206543 7.652240753173828
      vertex 0 -15 7.5
    endloop
  endfacet
  facet normal 0 0.555569929716238 -0.831469814963294
    outer loop
      vertex 0 -16.414213180541992 10.914213180541992
      vertex 30 -15.765366554260254 11.347758293151855
      vertex 30 -16.414213180541992 10.914213180541992
    endloop
  endfacet
  facet normal 0 0.555569929716238 -0.831469814963294
    outer loop
      vertex 30 -15.765366554260254 11.347758293151855
      vertex 0 -16.414213180541992 10.914213180541992
      vertex 0 -15.765366554260254 11.347758293151855
    endloop
  endfacet
  facet normal 0 -0.831469814963294 -0.555569929716238
    outer loop
      vertex 0 -13.152240753173828 10.265366554260254
      vertex 30 -13.585785865783691 10.914213180541992
      vertex 0 -13.585785865783691 10.914213180541992
    endloop
  endfacet
  facet normal 0 -0.831469814963294 -0.555569929716238
    outer loop
      vertex 30 -13.585785865783691 10.914213180541992
      vertex 0 -13.152240753173828 10.265366554260254
      vertex 30 -13.152240753173828 10.265366554260254
    endloop
  endfacet
  facet normal 0 -0.555569929716238 0.831469814963294
    outer loop
      vertex 0 -13.585785865783691 8.085785865783691
      vertex 30 -14.23463249206543 7.652240753173828
      vertex 30 -13.585785865783691 8.085785865783691
    endloop
  endfacet
  facet normal 0 -0.555569929716238 0.831469814963294
    outer loop
      vertex 30 -14.23463249206543 7.652240753173828
      vertex 0 -13.585785865783691 8.085785865783691
      vertex 0 -14.23463249206543 7.652240753173828
    endloop
  endfacet
  facet normal -1 0 0
    outer loop
      vertex 0 0 0
      vertex 0 -13 9.5
      vertex 0 0 19
    endloop
  endfacet
  facet normal -1 0 0
    outer loop
      vertex 0 0 0
      vertex 0 -13.152240753173828 8.73463249206543
      vertex 0 -13 9.5
    endloop
  endfacet
  facet normal -1 0 0
    outer loop
      vertex 0 0 0
      vertex 0 -13.585785865783691 8.085785865783691
      vertex 0 -13.152240753173828 8.73463249206543
    endloop
  endfacet
  facet normal -1 0 0
    outer loop
      vertex 0 0 0
      vertex 0 -14.23463249206543 7.652240753173828
      vertex 0 -13.585785865783691 8.085785865783691
    endloop
  endfacet
  facet normal -1 0 0
    outer loop
      vertex 0 0 0
      vertex 0 -15 7.5
      vertex 0 -14.23463249206543 7.652240753173828
    endloop
  endfacet
  facet normal -1 0 0
    outer loop
      vertex 0 -30 0
      vertex 0 -15 7.5
      vertex 0 0 0
    endloop
  endfacet
  facet normal -1 0 0
    outer loop
      vertex 0 -16.847759246826172 8.73463249206543
      vertex 0 -30 0
      vertex 0 -17 9.5
    endloop
  endfacet
  facet normal -1 0 0
    outer loop
      vertex 0 -16.414213180541992 8.085785865783691
      vertex 0 -30 0
      vertex 0 -16.847759246826172 8.73463249206543
    endloop
  endfacet
  facet normal -1 0 0
    outer loop
      vertex 0 -15.765366554260254 7.652240753173828
      vertex 0 -30 0
      vertex 0 -16.414213180541992 8.085785865783691
    endloop
  endfacet
  facet normal -1 0 0
    outer loop
      vertex 0 -15 7.5
      vertex 0 -30 0
      vertex 0 -15.765366554260254 7.652240753173828
    endloop
  endfacet
  facet normal -1 0 0
    outer loop
      vertex 0 -13.152240753173828 10.265366554260254
      vertex 0 0 19
      vertex 0 -13 9.5
    endloop
  endfacet
  facet normal -1 0 0
    outer loop
      vertex 0 -13.585785865783691 10.914213180541992
      vertex 0 0 19
      vertex 0 -13.152240753173828 10.265366554260254
    endloop
  endfacet
  facet normal -1 0 0
    outer loop
      vertex 0 -14.23463249206543 11.347758293151855
      vertex 0 0 19
      vertex 0 -13.585785865783691 10.914213180541992
    endloop
  endfacet
  facet normal -1 0 0
    outer loop
      vertex 0 -15 11.5
      vertex 0 0 19
      vertex 0 -14.23463249206543 11.347758293151855
    endloop
  endfacet
  facet normal -1 0 0
    outer loop
      vertex 0 -30 19
      vertex 0 -15 11.5
      vertex 0 -15.765366554260254 11.347758293151855
    endloop
  endfacet
  facet normal -1 0 0
    outer loop
      vertex 0 -30 19
      vertex 0 -17 9.5
      vertex 0 -30 0
    endloop
  endfacet
  facet normal -1 0 0
    outer loop
      vertex 0 -17 9.5
      vertex 0 -30 19
      vertex 0 -16.847759246826172 10.265366554260254
    endloop
  endfacet
  facet normal -1 0 0
    outer loop
      vertex 0 -15 11.5
      vertex 0 -30 19
      vertex 0 0 19
    endloop
  endfacet
  facet normal -1 0 0
    outer loop
      vertex 0 -16.414213180541992 10.914213180541992
      vertex 0 -30 19
      vertex 0 -15.765366554260254 11.347758293151855
    endloop
  endfacet
  facet normal -1 0 0
    outer loop
      vertex 0 -16.847759246826172 10.265366554260254
      vertex 0 -30 19
      vertex 0 -16.414213180541992 10.914213180541992
    endloop
  endfacet
  facet normal 0 0.19509017403555015 0.980785309838386
    outer loop
      vertex 0 -15 7.5
      vertex 30 -15.765366554260254 7.652240753173828
      vertex 30 -15 7.5
    endloop
  endfacet
  facet normal 0 0.19509017403555015 0.980785309838386
    outer loop
      vertex 30 -15.765366554260254 7.652240753173828
      vertex 0 -15 7.5
      vertex 0 -15.765366554260254 7.652240753173828
    endloop
  endfacet
  facet normal 0 -0.831469814963294 0.555569929716238
    outer loop
      vertex 0 -13.585785865783691 8.085785865783691
      vertex 30 -13.152240753173828 8.73463249206543
      vertex 0 -13.152240753173828 8.73463249206543
    endloop
  endfacet
  facet normal 0 -0.831469814963294 0.555569929716238
    outer loop
      vertex 30 -13.152240753173828 8.73463249206543
      vertex 0 -13.585785865783691 8.085785865783691
      vertex 30 -13.585785865783691 8.085785865783691
    endloop
  endfacet
  facet normal 0 -0.555569929716238 -0.831469814963294
    outer loop
      vertex 0 -14.23463249206543 11.347758293151855
      vertex 30 -13.585785865783691 10.914213180541992
      vertex 30 -14.23463249206543 11.347758293151855
    endloop
  endfacet
  facet normal 0 -0.555569929716238 -0.831469814963294
    outer loop
      vertex 30 -13.585785865783691 10.914213180541992
      vertex 0 -14.23463249206543 11.347758293151855
      vertex 0 -13.585785865783691 10.914213180541992
    endloop
  endfacet
  facet normal 0 0.831469250429717 0.5555707746001807
    outer loop
      vertex 30 -16.414213180541992 8.085785865783691
      vertex 0 -16.847759246826172 8.73463249206543
      vertex 30 -16.847759246826172 8.73463249206543
    endloop
  endfacet
  facet normal 0 0.831469250429717 0.5555707746001807
    outer loop
      vertex 0 -16.847759246826172 8.73463249206543
      vertex 30 -16.414213180541992 8.085785865783691
      vertex 0 -16.414213180541992 8.085785865783691
    endloop
  endfacet
  facet normal 0 0.831469250429717 -0.5555707746001807
    outer loop
      vertex 30 -16.847759246826172 10.265366554260254
      vertex 0 -16.414213180541992 10.914213180541992
      vertex 30 -16.414213180541992 10.914213180541992
    endloop
  endfacet
  facet normal 0 0.831469250429717 -0.5555707746001807
    outer loop
      vertex 0 -16.414213180541992 10.914213180541992
      vertex 30 -16.847759246826172 10.265366554260254
      vertex 0 -16.847759246826172 10.265366554260254
    endloop
  endfacet
  facet normal 0 0.9807853563514094 0.1950899401984604
    outer loop
      vertex 30 -16.847759246826172 8.73463249206543
      vertex 0 -17 9.5
      vertex 30 -17 9.5
    endloop
  endfacet
  facet normal 0 0.9807853563514094 0.1950899401984604
    outer loop
      vertex 0 -17 9.5
      vertex 30 -16.847759246826172 8.73463249206543
      vertex 0 -16.847759246826172 8.73463249206543
    endloop
  endfacet
  facet normal -1 0 0
    outer loop
      vertex 30 -13.152240753173828 8.73463249206543
      vertex 30 -13.152240753173828 10.265366554260254
      vertex 30 -13 9.5
    endloop
  endfacet
  facet normal -1 0 0
    outer loop
      vertex 30 -13.585785865783691 8.085785865783691
      vertex 30 -13.152240753173828 10.265366554260254
      vertex 30 -13.152240753173828 8.73463249206543
    endloop
  endfacet
  facet normal -1 0 0
    outer loop
      vertex 30 -13.585785865783691 8.085785865783691
      vertex 30 -13.585785865783691 10.914213180541992
      vertex 30 -13.152240753173828 10.265366554260254
    endloop
  endfacet
  facet normal -1 0 0
    outer loop
      vertex 30 -14.23463249206543 7.652240753173828
      vertex 30 -13.585785865783691 10.914213180541992
      vertex 30 -13.585785865783691 8.085785865783691
    endloop
  endfacet
  facet normal -1 0 0
    outer loop
      vertex 30 -14.23463249206543 7.652240753173828
      vertex 30 -14.23463249206543 11.347758293151855
      vertex 30 -13.585785865783691 10.914213180541992
    endloop
  endfacet
  facet normal -1 0 0
    outer loop
      vertex 30 -15 7.5
      vertex 30 -14.23463249206543 11.347758293151855
      vertex 30 -14.23463249206543 7.652240753173828
    endloop
  endfacet
  facet normal -1 0 0
    outer loop
      vertex 30 -15 7.5
      vertex 30 -15 11.5
      vertex 30 -14.23463249206543 11.347758293151855
    endloop
  endfacet
  facet normal -1 0 0
    outer loop
      vertex 30 -15.765366554260254 7.652240753173828
      vertex 30 -15 11.5
      vertex 30 -15 7.5
    endloop
  endfacet
  facet normal -1 0 0
    outer loop
      vertex 30 -15.765366554260254 7.652240753173828
      vertex 30 -15.765366554260254 11.347758293151855
      vertex 30 -15 11.5
    endloop
  endfacet
  facet normal -1 0 0
    outer loop
      vertex 30 -16.414213180541992 8.085785865783691
      vertex 30 -15.765366554260254 11.347758293151855
      vertex 30 -15.765366554260254 7.652240753173828
    endloop
  endfacet
  facet normal -1 0 0
    outer loop
      vertex 30 -16.414213180541992 8.085785865783691
      vertex 30 -16.414213180541992 10.914213180541992
      vertex 30 -15.765366554260254 11.347758293151855
    endloop
  endfacet
  facet normal -1 0 0
    outer loop
      vertex 30 -16.847759246826172 8.73463249206543
      vertex 30 -16.414213180541992 10.914213180541992
      vertex 30 -16.414213180541992 8.085785865783691
    endloop
  endfacet
  facet normal -1 0 0
    outer loop
      vertex 30 -16.847759246826172 8.73463249206543
      vertex 30 -16.847759246826172 10.265366554260254
      vertex 30 -16.414213180541992 10.914213180541992
    endloop
  endfacet
  facet normal -1 0 0
    outer loop
      vertex 30 -16.847759246826172 10.265366554260254
      vertex 30 -16.847759246826172 8.73463249206543
      vertex 30 -17 9.5
    endloop
  endfacet
  facet normal 0 -0.831469814963294 -0.555569929716238
    outer loop
      vertex 732 -13.152240753173828 10.265366554260254
      vertex 762 -13.585785865783691 10.914213180541992
      vertex 732 -13.585785865783691 10.914213180541992
    endloop
  endfacet
  facet normal 0 -0.831469814963294 -0.555569929716238
    outer loop
      vertex 762 -13.585785865783691 10.914213180541992
      vertex 732 -13.152240753173828 10.265366554260254
      vertex 762 -13.152240753173828 10.265366554260254
    endloop
  endfacet
  facet normal 0 0.555569929716238 0.831469814963294
    outer loop
      vertex 732 -15.765366554260254 7.652240753173828
      vertex 762 -16.414213180541992 8.085785865783691
      vertex 762 -15.765366554260254 7.652240753173828
    endloop
  endfacet
  facet normal 0 0.555569929716238 0.831469814963294
    outer loop
      vertex 762 -16.414213180541992 8.085785865783691
      vertex 732 -15.765366554260254 7.652240753173828
      vertex 732 -16.414213180541992 8.085785865783691
    endloop
  endfacet
  facet normal 0 0.555569929716238 -0.831469814963294
    outer loop
      vertex 732 -16.414213180541992 10.914213180541992
      vertex 762 -15.765366554260254 11.347758293151855
      vertex 762 -16.414213180541992 10.914213180541992
    endloop
  endfacet
  facet normal 0 0.555569929716238 -0.831469814963294
    outer loop
      vertex 762 -15.765366554260254 11.347758293151855
      vertex 732 -16.414213180541992 10.914213180541992
      vertex 732 -15.765366554260254 11.347758293151855
    endloop
  endfacet
  facet normal 0 -0.1950899401984604 0.9807853563514094
    outer loop
      vertex 732 -14.23463249206543 7.652240753173828
      vertex 762 -15 7.5
      vertex 762 -14.23463249206543 7.652240753173828
    endloop
  endfacet
  facet normal 0 -0.1950899401984604 0.9807853563514094
    outer loop
      vertex 762 -15 7.5
      vertex 732 -14.23463249206543 7.652240753173828
      vertex 732 -15 7.5
    endloop
  endfacet
  facet normal 0 -0.555569929716238 0.831469814963294
    outer loop
      vertex 732 -13.585785865783691 8.085785865783691
      vertex 762 -14.23463249206543 7.652240753173828
      vertex 762 -13.585785865783691 8.085785865783691
    endloop
  endfacet
  facet normal 0 -0.555569929716238 0.831469814963294
    outer loop
      vertex 762 -14.23463249206543 7.652240753173828
      vertex 732 -13.585785865783691 8.085785865783691
      vertex 732 -14.23463249206543 7.652240753173828
    endloop
  endfacet
  facet normal 0 0.980785309838386 -0.19509017403555015
    outer loop
      vertex 762 -17 9.5
      vertex 732 -16.847759246826172 10.265366554260254
      vertex 762 -16.847759246826172 10.265366554260254
    endloop
  endfacet
  facet normal 0 0.980785309838386 -0.19509017403555015
    outer loop
      vertex 732 -16.847759246826172 10.265366554260254
      vertex 762 -17 9.5
      vertex 732 -17 9.5
    endloop
  endfacet
  facet normal 0 -0.19509111577748658 -0.9807851225139457
    outer loop
      vertex 732 -15 11.5
      vertex 762 -14.23463249206543 11.347758293151855
      vertex 762 -15 11.5
    endloop
  endfacet
  facet normal 0 -0.19509111577748658 -0.9807851225139457
    outer loop
      vertex 762 -14.23463249206543 11.347758293151855
      vertex 732 -15 11.5
      vertex 732 -14.23463249206543 11.347758293151855
    endloop
  endfacet
  facet normal 0 0.9807853563514094 0.1950899401984604
    outer loop
      vertex 762 -16.847759246826172 8.73463249206543
      vertex 732 -17 9.5
      vertex 762 -17 9.5
    endloop
  endfacet
  facet normal 0 0.9807853563514094 0.1950899401984604
    outer loop
      vertex 732 -17 9.5
      vertex 762 -16.847759246826172 8.73463249206543
      vertex 732 -16.847759246826172 8.73463249206543
    endloop
  endfacet
  facet normal 0 0.19509134961587385 -0.9807850760003727
    outer loop
      vertex 732 -15.765366554260254 11.347758293151855
      vertex 762 -15 11.5
      vertex 762 -15.765366554260254 11.347758293151855
    endloop
  endfacet
  facet normal 0 0.19509134961587385 -0.9807850760003727
    outer loop
      vertex 762 -15 11.5
      vertex 732 -15.765366554260254 11.347758293151855
      vertex 732 -15 11.5
    endloop
  endfacet
  facet normal 0 0.831469250429717 0.5555707746001807
    outer loop
      vertex 762 -16.414213180541992 8.085785865783691
      vertex 732 -16.847759246826172 8.73463249206543
      vertex 762 -16.847759246826172 8.73463249206543
    endloop
  endfacet
  facet normal 0 0.831469250429717 0.5555707746001807
    outer loop
      vertex 732 -16.847759246826172 8.73463249206543
      vertex 762 -16.414213180541992 8.085785865783691
      vertex 732 -16.414213180541992 8.085785865783691
    endloop
  endfacet
  facet normal 0 0.19509017403555015 0.980785309838386
    outer loop
      vertex 732 -15 7.5
      vertex 762 -15.765366554260254 7.652240753173828
      vertex 762 -15 7.5
    endloop
  endfacet
  facet normal 0 0.19509017403555015 0.980785309838386
    outer loop
      vertex 762 -15.765366554260254 7.652240753173828
      vertex 732 -15 7.5
      vertex 732 -15.765366554260254 7.652240753173828
    endloop
  endfacet
  facet normal 0 0.831469250429717 -0.5555707746001807
    outer loop
      vertex 762 -16.847759246826172 10.265366554260254
      vertex 732 -16.414213180541992 10.914213180541992
      vertex 762 -16.414213180541992 10.914213180541992
    endloop
  endfacet
  facet normal 0 0.831469250429717 -0.5555707746001807
    outer loop
      vertex 732 -16.414213180541992 10.914213180541992
      vertex 762 -16.847759246826172 10.265366554260254
      vertex 732 -16.847759246826172 10.265366554260254
    endloop
  endfacet
  facet normal 1 0 0
    outer loop
      vertex 762 0 19
      vertex 762 -13 9.5
      vertex 762 0 0
    endloop
  endfacet
  facet normal 1 0 0
    outer loop
      vertex 762 0 19
      vertex 762 -13.152240753173828 10.265366554260254
      vertex 762 -13 9.5
    endloop
  endfacet
  facet normal 1 0 0
    outer loop
      vertex 762 0 19
      vertex 762 -13.585785865783691 10.914213180541992
      vertex 762 -13.152240753173828 10.265366554260254
    endloop
  endfacet
  facet normal 1 0 0
    outer loop
      vertex 762 0 19
      vertex 762 -14.23463249206543 11.347758293151855
      vertex 762 -13.585785865783691 10.914213180541992
    endloop
  endfacet
  facet normal 1 0 0
    outer loop
      vertex 762 0 19
      vertex 762 -15 11.5
      vertex 762 -14.23463249206543 11.347758293151855
    endloop
  endfacet
  facet normal 1 0 0
    outer loop
      vertex 762 -30 19
      vertex 762 -15 11.5
      vertex 762 0 19
    endloop
  endfacet
  facet normal 1 0 0
    outer loop
      vertex 762 -16.847759246826172 10.265366554260254
      vertex 762 -30 19
      vertex 762 -17 9.5
    endloop
  endfacet
  facet normal 1 0 0
    outer loop
      vertex 762 -16.414213180541992 10.914213180541992
      vertex 762 -30 19
      vertex 762 -16.847759246826172 10.265366554260254
    endloop
  endfacet
  facet normal 1 0 0
    outer loop
      vertex 762 -15.765366554260254 11.347758293151855
      vertex 762 -30 19
      vertex 762 -16.414213180541992 10.914213180541992
    endloop
  endfacet
  facet normal 1 0 0
    outer loop
      vertex 762 -15 11.5
      vertex 762 -30 19
      vertex 762 -15.765366554260254 11.347758293151855
    endloop
  endfacet
  facet normal 1 0 0
    outer loop
      vertex 762 -13.152240753173828 8.73463249206543
      vertex 762 0 0
      vertex 762 -13 9.5
    endloop
  endfacet
  facet normal 1 0 0
    outer loop
      vertex 762 -13.585785865783691 8.085785865783691
      vertex 762 0 0
      vertex 762 -13.152240753173828 8.73463249206543
    endloop
  endfacet
  facet normal 1 0 0
    outer loop
      vertex 762 -14.23463249206543 7.652240753173828
      vertex 762 0 0
      vertex 762 -13.585785865783691 8.085785865783691
    endloop
  endfacet
  facet normal 1 0 0
    outer loop
      vertex 762 -15 7.5
      vertex 762 0 0
      vertex 762 -14.23463249206543 7.652240753173828
    endloop
  endfacet
  facet normal 1 0 0
    outer loop
      vertex 762 -30 0
      vertex 762 -15 7.5
      vertex 762 -15.765366554260254 7.652240753173828
    endloop
  endfacet
  facet normal 1 0 0
    outer loop
      vertex 762 -30 0
      vertex 762 -17 9.5
      vertex 762 -30 19
    endloop
  endfacet
  facet normal 1 0 0
    outer loop
      vertex 762 -17 9.5
      vertex 762 -30 0
      vertex 762 -16.847759246826172 8.73463249206543
    endloop
  endfacet
  facet normal 1 0 0
    outer loop
      vertex 762 -15 7.5
      vertex 762 -30 0
      vertex 762 0 0
    endloop
  endfacet
  facet normal 1 0 0
    outer loop
      vertex 762 -16.414213180541992 8.085785865783691
      vertex 762 -30 0
      vertex 762 -15.765366554260254 7.652240753173828
    endloop
  endfacet
  facet normal 1 0 0
    outer loop
      vertex 762 -16.847759246826172 8.73463249206543
      vertex 762 -30 0
      vertex 762 -16.414213180541992 8.085785865783691
    endloop
  endfacet
  facet normal 0 -0.555569929716238 -0.831469814963294
    outer loop
      vertex 732 -14.23463249206543 11.347758293151855
      vertex 762 -13.585785865783691 10.914213180541992
      vertex 762 -14.23463249206543 11.347758293151855
    endloop
  endfacet
  facet normal 0 -0.555569929716238 -0.831469814963294
    outer loop
      vertex 762 -13.585785865783691 10.914213180541992
      vertex 732 -14.23463249206543 11.347758293151855
      vertex 732 -13.585785865783691 10.914213180541992
    endloop
  endfacet
  facet normal 1 0 0
    outer loop
      vertex 732 -13.152240753173828 10.265366554260254
      vertex 732 -13.152240753173828 8.73463249206543
      vertex 732 -13 9.5
    endloop
  endfacet
  facet normal 1 0 0
    outer loop
      vertex 732 -13.585785865783691 10.914213180541992
      vertex 732 -13.152240753173828 8.73463249206543
      vertex 732 -13.152240753173828 10.265366554260254
    endloop
  endfacet
  facet normal 1 0 0
    outer loop
      vertex 732 -13.585785865783691 10.914213180541992
      vertex 732 -13.585785865783691 8.085785865783691
      vertex 732 -13.152240753173828 8.73463249206543
    endloop
  endfacet
  facet normal 1 0 0
    outer loop
      vertex 732 -14.23463249206543 11.347758293151855
      vertex 732 -13.585785865783691 8.085785865783691
      vertex 732 -13.585785865783691 10.914213180541992
    endloop
  endfacet
  facet normal 1 0 0
    outer loop
      vertex 732 -14.23463249206543 11.347758293151855
      vertex 732 -14.23463249206543 7.652240753173828
      vertex 732 -13.585785865783691 8.085785865783691
    endloop
  endfacet
  facet normal 1 0 0
    outer loop
      vertex 732 -15 11.5
      vertex 732 -14.23463249206543 7.652240753173828
      vertex 732 -14.23463249206543 11.347758293151855
    endloop
  endfacet
  facet normal 1 0 0
    outer loop
      vertex 732 -15 11.5
      vertex 732 -15 7.5
      vertex 732 -14.23463249206543 7.652240753173828
    endloop
  endfacet
  facet normal 1 0 0
    outer loop
      vertex 732 -15.765366554260254 11.347758293151855
      vertex 732 -15 7.5
      vertex 732 -15 11.5
    endloop
  endfacet
  facet normal 1 0 0
    outer loop
      vertex 732 -15.765366554260254 11.347758293151855
      vertex 732 -15.765366554260254 7.652240753173828
      vertex 732 -15 7.5
    endloop
  endfacet
  facet normal 1 0 0
    outer loop
      vertex 732 -16.414213180541992 10.914213180541992
      vertex 732 -15.765366554260254 7.652240753173828
      vertex 732 -15.765366554260254 11.347758293151855
    endloop
  endfacet
  facet normal 1 0 0
    outer loop
      vertex 732 -16.414213180541992 10.914213180541992
      vertex 732 -16.414213180541992 8.085785865783691
      vertex 732 -15.765366554260254 7.652240753173828
    endloop
  endfacet
  facet normal 1 0 0
    outer loop
      vertex 732 -16.847759246826172 10.265366554260254
      vertex 732 -16.414213180541992 8.085785865783691
      vertex 732 -16.414213180541992 10.914213180541992
    endloop
  endfacet
  facet normal 1 0 0
    outer loop
      vertex 732 -16.847759246826172 10.265366554260254
      vertex 732 -16.847759246826172 8.73463249206543
      vertex 732 -16.414213180541992 8.085785865783691
    endloop
  endfacet
  facet normal 1 0 0
    outer loop
      vertex 732 -16.847759246826172 8.73463249206543
      vertex 732 -16.847759246826172 10.265366554260254
      vertex 732 -17 9.5
    endloop
  endfacet
  facet normal 0 -0.980785309838386 -0.19509017403555015
    outer loop
      vertex 732 -13 9.5
      vertex 762 -13.152240753173828 10.265366554260254
      vertex 732 -13.152240753173828 10.265366554260254
    endloop
  endfacet
  facet normal 0 -0.980785309838386 -0.19509017403555015
    outer loop
      vertex 762 -13.152240753173828 10.265366554260254
      vertex 732 -13 9.5
      vertex 762 -13 9.5
    endloop
  endfacet
  facet normal 0 -0.9807853563514094 0.1950899401984604
    outer loop
      vertex 732 -13.152240753173828 8.73463249206543
      vertex 762 -13 9.5
      vertex 732 -13 9.5
    endloop
  endfacet
  facet normal 0 -0.9807853563514094 0.1950899401984604
    outer loop
      vertex 762 -13 9.5
      vertex 732 -13.152240753173828 8.73463249206543
      vertex 762 -13.152240753173828 8.73463249206543
    endloop
  endfacet
  facet normal 0 -0.831469814963294 0.555569929716238
    outer loop
      vertex 732 -13.585785865783691 8.085785865783691
      vertex 762 -13.152240753173828 8.73463249206543
      vertex 732 -13.152240753173828 8.73463249206543
    endloop
  endfacet
  facet normal 0 -0.831469814963294 0.555569929716238
    outer loop
      vertex 762 -13.152240753173828 8.73463249206543
      vertex 732 -13.585785865783691 8.085785865783691
      vertex 762 -13.585785865783691 8.085785865783691
    endloop
  endfacet
  facet normal 0 -1 0
    outer loop
      vertex 0 -30 0
      vertex 762 -30 19
      vertex 0 -30 19
    endloop
  endfacet
  facet normal 0 -1 0
    outer loop
      vertex 762 -30 19
      vertex 0 -30 0
      vertex 762 -30 0
    endloop
  endfacet
  facet normal 0 1 0
    outer loop
      vertex 762 0 0
      vertex 0 0 19
      vertex 762 0 19
    endloop
  endfacet
  facet normal 0 1 0
    outer loop
      vertex 0 0 19
      vertex 762 0 0
      vertex 0 0 0
    endloop
  endfacet
  facet normal 0 0 1
    outer loop
      vertex 0 0 19
      vertex 762 -30 19
      vertex 762 0 19
    endloop
  endfacet
  facet normal 0 0 1
    outer loop
      vertex 762 -30 19
      vertex 0 0 19
      vertex 0 -30 19
    endloop
  endfacet
  facet normal 0 0 -1
    outer loop
      vertex 0 -30 0
      vertex 762 0 0
      vertex 762 -30 0
    endloop
  endfacet
  facet normal 0 0 -1
    outer loop
      vertex 762 0 0
      vertex 0 -30 0
      vertex 0 0 0
    endloop
  endfacet
endsolid OpenSCAD_Model
