<?xml version="1.0" standalone="no"?>
<!DOCTYPE svg PUBLIC "-//W3C//DTD SVG 1.1//EN" "http://www.w3.org/Graphics/SVG/1.1/DTD/svg11.dtd">
<svg width="2302mm" height="232mm" viewBox="-1 -231 2302 232" xmlns="http://www.w3.org/2000/svg" version="1.1">
<title>OpenSCAD Model</title>
<path d="
M 0,-0 L 2300,-0 L 2300,-230 L 0,-230 z
M 7.5,-50 L 7.65224,-50.7654 L 8.08579,-51.4142 L 8.73463,-51.8478 L 9.5,-52 L 10.2654,-51.8478
 L 10.9142,-51.4142 L 11.3478,-50.7654 L 11.5,-50 L 11.3478,-49.2346 L 10.9142,-48.5858 L 10.2654,-48.1522
 L 9.5,-48 L 8.73463,-48.1522 L 8.08579,-48.5858 L 7.65224,-49.2346 z
M 7.5,-180 L 7.65224,-180.765 L 8.08579,-181.414 L 8.73463,-181.848 L 9.5,-182 L 10.2654,-181.848
 L 10.9142,-181.414 L 11.3478,-180.765 L 11.5,-180 L 11.3478,-179.235 L 10.9142,-178.586 L 10.2654,-178.152
 L 9.5,-178 L 8.73463,-178.152 L 8.08579,-178.586 L 7.65224,-179.235 z
M 1296.5,-50 L 1296.65,-50.7654 L 1297.09,-51.4142 L 1297.73,-51.8478 L 1298.5,-52 L 1299.27,-51.8478
 L 1299.91,-51.4142 L 1300.35,-50.7654 L 1300.5,-50 L 1300.35,-49.2346 L 1299.91,-48.5858 L 1299.27,-48.1522
 L 1298.5,-48 L 1297.73,-48.1522 L 1297.09,-48.5858 L 1296.65,-49.2346 z
M 1296.5,-180 L 1296.65,-180.765 L 1297.09,-181.414 L 1297.73,-181.848 L 1298.5,-182 L 1299.27,-181.848
 L 1299.91,-181.414 L 1300.35,-180.765 L 1300.5,-180 L 1300.35,-179.235 L 1299.91,-178.586 L 1299.27,-178.152
 L 1298.5,-178 L 1297.73,-178.152 L 1297.09,-178.586 L 1296.65,-179.235 z
M 1627.17,-50 L 1627.32,-50.7654 L 1627.75,-51.4142 L 1628.4,-51.8478 L 1629.17,-52 L 1629.93,-51.8478
 L 1630.58,-51.4142 L 1631.01,-50.7654 L 1631.17,-50 L 1631.01,-49.2346 L 1630.58,-48.5858 L 1629.93,-48.1522
 L 1629.17,-48 L 1628.4,-48.1522 L 1627.75,-48.5858 L 1627.32,-49.2346 z
M 1627.17,-180 L 1627.32,-180.765 L 1627.75,-181.414 L 1628.4,-181.848 L 1629.17,-182 L 1629.93,-181.848
 L 1630.58,-181.414 L 1631.01,-180.765 L 1631.17,-180 L 1631.01,-179.235 L 1630.58,-178.586 L 1629.93,-178.152
 L 1629.17,-178 L 1628.4,-178.152 L 1627.75,-178.586 L 1627.32,-179.235 z
M 1957.83,-50 L 1957.99,-50.7654 L 1958.42,-51.4142 L 1959.07,-51.8478 L 1959.83,-52 L 1960.6,-51.8478
 L 1961.25,-51.4142 L 1961.68,-50.7654 L 1961.83,-50 L 1961.68,-49.2346 L 1961.25,-48.5858 L 1960.6,-48.1522
 L 1959.83,-48 L 1959.07,-48.1522 L 1958.42,-48.5858 L 1957.99,-49.2346 z
M 1957.83,-180 L 1957.99,-180.765 L 1958.42,-181.414 L 1959.07,-181.848 L 1959.83,-182 L 1960.6,-181.848
 L 1961.25,-181.414 L 1961.68,-180.765 L 1961.83,-180 L 1961.68,-179.235 L 1961.25,-178.586 L 1960.6,-178.152
 L 1959.83,-178 L 1959.07,-178.152 L 1958.42,-178.586 L 1957.99,-179.235 z
M 2288.5,-50 L 2288.65,-50.7654 L 2289.09,-51.4142 L 2289.73,-51.8478 L 2290.5,-52 L 2291.27,-51.8478
 L 2291.91,-51.4142 L 2292.35,-50.7654 L 2292.5,-50 L 2292.35,-49.2346 L 2291.91,-48.5858 L 2291.27,-48.1522
 L 2290.5,-48 L 2289.73,-48.1522 L 2289.09,-48.5858 L 2288.65,-49.2346 z
M 2288.5,-180 L 2288.65,-180.765 L 2289.09,-181.414 L 2289.73,-181.848 L 2290.5,-182 L 2291.27,-181.848
 L 2291.91,-181.414 L 2292.35,-180.765 L 2292.5,-180 L 2292.35,-179.235 L 2291.91,-178.586 L 2291.27,-178.152
 L 2290.5,-178 L 2289.73,-178.152 L 2289.09,-178.586 L 2288.65,-179.235 z
" stroke="black" fill="none" stroke-width="0.35"/>
</svg>
