<?xml version="1.0" standalone="no"?>
<!DOCTYPE svg PUBLIC "-//W3C//DTD SVG 1.1//EN" "http://www.w3.org/Graphics/SVG/1.1/DTD/svg11.dtd">
<svg width="799mm" height="218mm" viewBox="-1 -217 799 218" xmlns="http://www.w3.org/2000/svg" version="1.1">
<title>OpenSCAD Model</title>
<path d="
M 0,-0 L 797,-0 L 797,-216 L 0,-216 z
M 39.5,-50 L 39.7284,-51.148 L 40.3787,-52.1213 L 41.3519,-52.7716 L 42.5,-53 L 43.648,-52.7716
 L 44.6213,-52.1213 L 45.2716,-51.148 L 45.5,-50 L 45.2716,-48.8519 L 44.6213,-47.8787 L 43.648,-47.2284
 L 42.5,-47 L 41.3519,-47.2284 L 40.3787,-47.8787 L 39.7284,-48.8519 z
M 39.5,-166 L 39.7284,-167.148 L 40.3787,-168.121 L 41.3519,-168.772 L 42.5,-169 L 43.648,-168.772
 L 44.6213,-168.121 L 45.2716,-167.148 L 45.5,-166 L 45.2716,-164.852 L 44.6213,-163.879 L 43.648,-163.228
 L 42.5,-163 L 41.3519,-163.228 L 40.3787,-163.879 L 39.7284,-164.852 z
M 89.5,-6 L 89.7284,-7.14805 L 90.3787,-8.12132 L 91.3519,-8.77164 L 92.5,-9 L 93.648,-8.77164
 L 94.6213,-8.12132 L 95.2716,-7.14805 L 95.5,-6 L 95.2716,-4.85195 L 94.6213,-3.87868 L 93.648,-3.22836
 L 92.5,-3 L 91.3519,-3.22836 L 90.3787,-3.87868 L 89.7284,-4.85195 z
M 293.5,-6 L 293.728,-7.14805 L 294.379,-8.12132 L 295.352,-8.77164 L 296.5,-9 L 297.648,-8.77164
 L 298.621,-8.12132 L 299.272,-7.14805 L 299.5,-6 L 299.272,-4.85195 L 298.621,-3.87868 L 297.648,-3.22836
 L 296.5,-3 L 295.352,-3.22836 L 294.379,-3.87868 L 293.728,-4.85195 z
M 316.5,-103 L 316.652,-103.765 L 317.086,-104.414 L 317.735,-104.848 L 318.5,-105 L 319.265,-104.848
 L 319.914,-104.414 L 320.348,-103.765 L 320.5,-103 L 320.348,-102.235 L 319.914,-101.586 L 319.265,-101.152
 L 318.5,-101 L 317.735,-101.152 L 317.086,-101.586 L 316.652,-102.235 z
M 476.5,-103 L 476.652,-103.765 L 477.086,-104.414 L 477.735,-104.848 L 478.5,-105 L 479.265,-104.848
 L 479.914,-104.414 L 480.348,-103.765 L 480.5,-103 L 480.348,-102.235 L 479.914,-101.586 L 479.265,-101.152
 L 478.5,-101 L 477.735,-101.152 L 477.086,-101.586 L 476.652,-102.235 z
M 497.5,-6 L 497.728,-7.14805 L 498.379,-8.12132 L 499.352,-8.77164 L 500.5,-9 L 501.648,-8.77164
 L 502.621,-8.12132 L 503.272,-7.14805 L 503.5,-6 L 503.272,-4.85195 L 502.621,-3.87868 L 501.648,-3.22836
 L 500.5,-3 L 499.352,-3.22836 L 498.379,-3.87868 L 497.728,-4.85195 z
M 701.5,-6 L 701.728,-7.14805 L 702.379,-8.12132 L 703.352,-8.77164 L 704.5,-9 L 705.648,-8.77164
 L 706.621,-8.12132 L 707.272,-7.14805 L 707.5,-6 L 707.272,-4.85195 L 706.621,-3.87868 L 705.648,-3.22836
 L 704.5,-3 L 703.352,-3.22836 L 702.379,-3.87868 L 701.728,-4.85195 z
M 751.5,-50 L 751.728,-51.148 L 752.379,-52.1213 L 753.352,-52.7716 L 754.5,-53 L 755.648,-52.7716
 L 756.621,-52.1213 L 757.272,-51.148 L 757.5,-50 L 757.272,-48.8519 L 756.621,-47.8787 L 755.648,-47.2284
 L 754.5,-47 L 753.352,-47.2284 L 752.379,-47.8787 L 751.728,-48.8519 z
M 751.5,-166 L 751.728,-167.148 L 752.379,-168.121 L 753.352,-168.772 L 754.5,-169 L 755.648,-168.772
 L 756.621,-168.121 L 757.272,-167.148 L 757.5,-166 L 757.272,-164.852 L 756.621,-163.879 L 755.648,-163.228
 L 754.5,-163 L 753.352,-163.228 L 752.379,-163.879 L 751.728,-164.852 z
" stroke="black" fill="none" stroke-width="0.35"/>
</svg>
