<?xml version="1.0" standalone="no"?>
<!DOCTYPE svg PUBLIC "-//W3C//DTD SVG 1.1//EN" "http://www.w3.org/Graphics/SVG/1.1/DTD/svg11.dtd">
<svg width="202mm" height="227mm" viewBox="-201 -226 202 227" xmlns="http://www.w3.org/2000/svg" version="1.1">
<title>OpenSCAD Model</title>
<path d="
M -200,-0 L 0,-0 L 0,-225 L -200,-225 z
M -152,-219 L -151.848,-219.765 L -151.414,-220.414 L -150.765,-220.848 L -150,-221 L -149.235,-220.848
 L -148.586,-220.414 L -148.152,-219.765 L -148,-219 L -148.152,-218.235 L -148.586,-217.586 L -149.235,-217.152
 L -150,-217 L -150.765,-217.152 L -151.414,-217.586 L -151.848,-218.235 z
M -73.75,-35 L -73.6548,-35.4784 L -73.3839,-35.8839 L -72.9784,-36.1548 L -72.5,-36.25 L -72.0216,-36.1548
 L -71.6161,-35.8839 L -71.3451,-35.4784 L -71.25,-35 L -71.3451,-34.5216 L -71.6161,-34.1161 L -72.0216,-33.8451
 L -72.5,-33.75 L -72.9784,-33.8451 L -73.3839,-34.1161 L -73.6548,-34.5216 z
M -73.75,-163 L -73.6548,-163.478 L -73.3839,-163.884 L -72.9784,-164.155 L -72.5,-164.25 L -72.0216,-164.155
 L -71.6161,-163.884 L -71.3451,-163.478 L -71.25,-163 L -71.3451,-162.522 L -71.6161,-162.116 L -72.0216,-161.845
 L -72.5,-161.75 L -72.9784,-161.845 L -73.3839,-162.116 L -73.6548,-162.522 z
M -52,-219 L -51.8478,-219.765 L -51.4142,-220.414 L -50.7654,-220.848 L -50,-221 L -49.2346,-220.848
 L -48.5858,-220.414 L -48.1522,-219.765 L -48,-219 L -48.1522,-218.235 L -48.5858,-217.586 L -49.2346,-217.152
 L -50,-217 L -50.7654,-217.152 L -51.4142,-217.586 L -51.8478,-218.235 z
M -8,-50 L -7.84776,-50.7654 L -7.41421,-51.4142 L -6.76537,-51.8478 L -6,-52 L -5.23463,-51.8478
 L -4.58579,-51.4142 L -4.15224,-50.7654 L -4,-50 L -4.15224,-49.2346 L -4.58579,-48.5858 L -5.23463,-48.1522
 L -6,-48 L -6.76537,-48.1522 L -7.41421,-48.5858 L -7.84776,-49.2346 z
M -8,-163 L -7.84776,-163.765 L -7.41421,-164.414 L -6.76537,-164.848 L -6,-165 L -5.23463,-164.848
 L -4.58579,-164.414 L -4.15224,-163.765 L -4,-163 L -4.15224,-162.235 L -4.58579,-161.586 L -5.23463,-161.152
 L -6,-161 L -6.76537,-161.152 L -7.41421,-161.586 L -7.84776,-162.235 z
" stroke="black" fill="none" stroke-width="0.35"/>
</svg>
