<?xml version="1.0" standalone="no"?>
<!DOCTYPE svg PUBLIC "-//W3C//DTD SVG 1.1//EN" "http://www.w3.org/Graphics/SVG/1.1/DTD/svg11.dtd">
<svg width="714mm" height="202mm" viewBox="-1 -1 714 202" xmlns="http://www.w3.org/2000/svg" version="1.1">
<title>OpenSCAD Model</title>
<path d="
M 0,200 L 712,200 L 712,-0 L 0,-0 z
M 48,6 L 48.1522,5.23463 L 48.5858,4.58579 L 49.2346,4.15224 L 50,4 L 50.7654,4.15224
 L 51.4142,4.58579 L 51.8478,5.23463 L 52,6 L 51.8478,6.76537 L 51.4142,7.41421 L 50.7654,7.84776
 L 50,8 L 49.2346,7.84776 L 48.5858,7.41421 L 48.1522,6.76537 z
M 354,6 L 354.152,5.23463 L 354.586,4.58579 L 355.235,4.15224 L 356,4 L 356.765,4.15224
 L 357.414,4.58579 L 357.848,5.23463 L 358,6 L 357.848,6.76537 L 357.414,7.41421 L 356.765,7.84776
 L 356,8 L 355.235,7.84776 L 354.586,7.41421 L 354.152,6.76537 z
M 660,6 L 660.152,5.23463 L 660.586,4.58579 L 661.235,4.15224 L 662,4 L 662.765,4.15224
 L 663.414,4.58579 L 663.848,5.23463 L 664,6 L 663.848,6.76537 L 663.414,7.41421 L 662.765,7.84776
 L 662,8 L 661.235,7.84776 L 660.586,7.41421 L 660.152,6.76537 z
" stroke="black" fill="none" stroke-width="0.35"/>
</svg>
