<?xml version="1.0" standalone="no"?>
<!DOCTYPE svg PUBLIC "-//W3C//DTD SVG 1.1//EN" "http://www.w3.org/Graphics/SVG/1.1/DTD/svg11.dtd">
<svg width="714mm" height="202mm" viewBox="-1 -201 714 202" xmlns="http://www.w3.org/2000/svg" version="1.1">
<title>OpenSCAD Model</title>
<path d="
M 0,-0 L 712,-0 L 712,-200 L 0,-200 z
M 48,-194 L 48.1522,-194.765 L 48.5858,-195.414 L 49.2346,-195.848 L 50,-196 L 50.7654,-195.848
 L 51.4142,-195.414 L 51.8478,-194.765 L 52,-194 L 51.8478,-193.235 L 51.4142,-192.586 L 50.7654,-192.152
 L 50,-192 L 49.2346,-192.152 L 48.5858,-192.586 L 48.1522,-193.235 z
M 354,-194 L 354.152,-194.765 L 354.586,-195.414 L 355.235,-195.848 L 356,-196 L 356.765,-195.848
 L 357.414,-195.414 L 357.848,-194.765 L 358,-194 L 357.848,-193.235 L 357.414,-192.586 L 356.765,-192.152
 L 356,-192 L 355.235,-192.152 L 354.586,-192.586 L 354.152,-193.235 z
M 660,-194 L 660.152,-194.765 L 660.586,-195.414 L 661.235,-195.848 L 662,-196 L 662.765,-195.848
 L 663.414,-195.414 L 663.848,-194.765 L 664,-194 L 663.848,-193.235 L 663.414,-192.586 L 662.765,-192.152
 L 662,-192 L 661.235,-192.152 L 660.586,-192.586 L 660.152,-193.235 z
" stroke="black" fill="none" stroke-width="0.35"/>
</svg>
