<?xml version="1.0" standalone="no"?>
<!DOCTYPE svg PUBLIC "-//W3C//DTD SVG 1.1//EN" "http://www.w3.org/Graphics/SVG/1.1/DTD/svg11.dtd">
<svg width="2300mm" height="230mm" viewBox="0 -230 2300 230" xmlns="http://www.w3.org/2000/svg" version="1.1">
<title>OpenSCAD Model</title>
<path d="
M 0,-0 L 2300,-0 L 2300,-230 L 0,-230 z
M 7,-50 L 7.15224,-50.7654 L 7.58579,-51.4142 L 8.23463,-51.8478 L 9,-52 L 9.76537,-51.8478
 L 10.4142,-51.4142 L 10.8478,-50.7654 L 11,-50 L 10.8478,-49.2346 L 10.4142,-48.5858 L 9.76537,-48.1522
 L 9,-48 L 8.23463,-48.1522 L 7.58579,-48.5858 L 7.15224,-49.2346 z
M 7,-180 L 7.15224,-180.765 L 7.58579,-181.414 L 8.23463,-181.848 L 9,-182 L 9.76537,-181.848
 L 10.4142,-181.414 L 10.8478,-180.765 L 11,-180 L 10.8478,-179.235 L 10.4142,-178.586 L 9.76537,-178.152
 L 9,-178 L 8.23463,-178.152 L 7.58579,-178.586 L 7.15224,-179.235 z
M 99.25,-6.5 L 99.3451,-6.97835 L 99.6161,-7.38388 L 100.022,-7.65485 L 100.5,-7.75 L 100.978,-7.65485
 L 101.384,-7.38388 L 101.655,-6.97835 L 101.75,-6.5 L 101.655,-6.02165 L 101.384,-5.61612 L 100.978,-5.34515
 L 100.5,-5.25 L 100.022,-5.34515 L 99.6161,-5.61612 L 99.3451,-6.02165 z
M 99.25,-35 L 99.3451,-35.4784 L 99.6161,-35.8839 L 100.022,-36.1548 L 100.5,-36.25 L 100.978,-36.1548
 L 101.384,-35.8839 L 101.655,-35.4784 L 101.75,-35 L 101.655,-34.5216 L 101.384,-34.1161 L 100.978,-33.8451
 L 100.5,-33.75 L 100.022,-33.8451 L 99.6161,-34.1161 L 99.3451,-34.5216 z
M 99.25,-51 L 99.3451,-51.4784 L 99.6161,-51.8839 L 100.022,-52.1548 L 100.5,-52.25 L 100.978,-52.1548
 L 101.384,-51.8839 L 101.655,-51.4784 L 101.75,-51 L 101.655,-50.5216 L 101.384,-50.1161 L 100.978,-49.8451
 L 100.5,-49.75 L 100.022,-49.8451 L 99.6161,-50.1161 L 99.3451,-50.5216 z
M 99.25,-76 L 99.3451,-76.4784 L 99.6161,-76.8839 L 100.022,-77.1548 L 100.5,-77.25 L 100.978,-77.1548
 L 101.384,-76.8839 L 101.655,-76.4784 L 101.75,-76 L 101.655,-75.5216 L 101.384,-75.1161 L 100.978,-74.8451
 L 100.5,-74.75 L 100.022,-74.8451 L 99.6161,-75.1161 L 99.3451,-75.5216 z
M 99.25,-99 L 99.3451,-99.4784 L 99.6161,-99.8839 L 100.022,-100.155 L 100.5,-100.25 L 100.978,-100.155
 L 101.384,-99.8839 L 101.655,-99.4784 L 101.75,-99 L 101.655,-98.5216 L 101.384,-98.1161 L 100.978,-97.8451
 L 100.5,-97.75 L 100.022,-97.8451 L 99.6161,-98.1161 L 99.3451,-98.5216 z
M 99.25,-115 L 99.3451,-115.478 L 99.6161,-115.884 L 100.022,-116.155 L 100.5,-116.25 L 100.978,-116.155
 L 101.384,-115.884 L 101.655,-115.478 L 101.75,-115 L 101.655,-114.522 L 101.384,-114.116 L 100.978,-113.845
 L 100.5,-113.75 L 100.022,-113.845 L 99.6161,-114.116 L 99.3451,-114.522 z
M 309.25,-6.5 L 309.345,-6.97835 L 309.616,-7.38388 L 310.022,-7.65485 L 310.5,-7.75 L 310.978,-7.65485
 L 311.384,-7.38388 L 311.655,-6.97835 L 311.75,-6.5 L 311.655,-6.02165 L 311.384,-5.61612 L 310.978,-5.34515
 L 310.5,-5.25 L 310.022,-5.34515 L 309.616,-5.61612 L 309.345,-6.02165 z
M 309.25,-35 L 309.345,-35.4784 L 309.616,-35.8839 L 310.022,-36.1548 L 310.5,-36.25 L 310.978,-36.1548
 L 311.384,-35.8839 L 311.655,-35.4784 L 311.75,-35 L 311.655,-34.5216 L 311.384,-34.1161 L 310.978,-33.8451
 L 310.5,-33.75 L 310.022,-33.8451 L 309.616,-34.1161 L 309.345,-34.5216 z
M 309.25,-51 L 309.345,-51.4784 L 309.616,-51.8839 L 310.022,-52.1548 L 310.5,-52.25 L 310.978,-52.1548
 L 311.384,-51.8839 L 311.655,-51.4784 L 311.75,-51 L 311.655,-50.5216 L 311.384,-50.1161 L 310.978,-49.8451
 L 310.5,-49.75 L 310.022,-49.8451 L 309.616,-50.1161 L 309.345,-50.5216 z
M 309.25,-76 L 309.345,-76.4784 L 309.616,-76.8839 L 310.022,-77.1548 L 310.5,-77.25 L 310.978,-77.1548
 L 311.384,-76.8839 L 311.655,-76.4784 L 311.75,-76 L 311.655,-75.5216 L 311.384,-75.1161 L 310.978,-74.8451
 L 310.5,-74.75 L 310.022,-74.8451 L 309.616,-75.1161 L 309.345,-75.5216 z
M 309.25,-99 L 309.345,-99.4784 L 309.616,-99.8839 L 310.022,-100.155 L 310.5,-100.25 L 310.978,-100.155
 L 311.384,-99.8839 L 311.655,-99.4784 L 311.75,-99 L 311.655,-98.5216 L 311.384,-98.1161 L 310.978,-97.8451
 L 310.5,-97.75 L 310.022,-97.8451 L 309.616,-98.1161 L 309.345,-98.5216 z
M 309.25,-115 L 309.345,-115.478 L 309.616,-115.884 L 310.022,-116.155 L 310.5,-116.25 L 310.978,-116.155
 L 311.384,-115.884 L 311.655,-115.478 L 311.75,-115 L 311.655,-114.522 L 311.384,-114.116 L 310.978,-113.845
 L 310.5,-113.75 L 310.022,-113.845 L 309.616,-114.116 L 309.345,-114.522 z
M 519.25,-6.5 L 519.345,-6.97835 L 519.616,-7.38388 L 520.022,-7.65485 L 520.5,-7.75 L 520.978,-7.65485
 L 521.384,-7.38388 L 521.655,-6.97835 L 521.75,-6.5 L 521.655,-6.02165 L 521.384,-5.61612 L 520.978,-5.34515
 L 520.5,-5.25 L 520.022,-5.34515 L 519.616,-5.61612 L 519.345,-6.02165 z
M 519.25,-35 L 519.345,-35.4784 L 519.616,-35.8839 L 520.022,-36.1548 L 520.5,-36.25 L 520.978,-36.1548
 L 521.384,-35.8839 L 521.655,-35.4784 L 521.75,-35 L 521.655,-34.5216 L 521.384,-34.1161 L 520.978,-33.8451
 L 520.5,-33.75 L 520.022,-33.8451 L 519.616,-34.1161 L 519.345,-34.5216 z
M 519.25,-51 L 519.345,-51.4784 L 519.616,-51.8839 L 520.022,-52.1548 L 520.5,-52.25 L 520.978,-52.1548
 L 521.384,-51.8839 L 521.655,-51.4784 L 521.75,-51 L 521.655,-50.5216 L 521.384,-50.1161 L 520.978,-49.8451
 L 520.5,-49.75 L 520.022,-49.8451 L 519.616,-50.1161 L 519.345,-50.5216 z
M 519.25,-76 L 519.345,-76.4784 L 519.616,-76.8839 L 520.022,-77.1548 L 520.5,-77.25 L 520.978,-77.1548
 L 521.384,-76.8839 L 521.655,-76.4784 L 521.75,-76 L 521.655,-75.5216 L 521.384,-75.1161 L 520.978,-74.8451
 L 520.5,-74.75 L 520.022,-74.8451 L 519.616,-75.1161 L 519.345,-75.5216 z
M 519.25,-99 L 519.345,-99.4784 L 519.616,-99.8839 L 520.022,-100.155 L 520.5,-100.25 L 520.978,-100.155
 L 521.384,-99.8839 L 521.655,-99.4784 L 521.75,-99 L 521.655,-98.5216 L 521.384,-98.1161 L 520.978,-97.8451
 L 520.5,-97.75 L 520.022,-97.8451 L 519.616,-98.1161 L 519.345,-98.5216 z
M 519.25,-115 L 519.345,-115.478 L 519.616,-115.884 L 520.022,-116.155 L 520.5,-116.25 L 520.978,-116.155
 L 521.384,-115.884 L 521.655,-115.478 L 521.75,-115 L 521.655,-114.522 L 521.384,-114.116 L 520.978,-113.845
 L 520.5,-113.75 L 520.022,-113.845 L 519.616,-114.116 L 519.345,-114.522 z
M 729.25,-6.5 L 729.345,-6.97835 L 729.616,-7.38388 L 730.022,-7.65485 L 730.5,-7.75 L 730.978,-7.65485
 L 731.384,-7.38388 L 731.655,-6.97835 L 731.75,-6.5 L 731.655,-6.02165 L 731.384,-5.61612 L 730.978,-5.34515
 L 730.5,-5.25 L 730.022,-5.34515 L 729.616,-5.61612 L 729.345,-6.02165 z
M 729.25,-35 L 729.345,-35.4784 L 729.616,-35.8839 L 730.022,-36.1548 L 730.5,-36.25 L 730.978,-36.1548
 L 731.384,-35.8839 L 731.655,-35.4784 L 731.75,-35 L 731.655,-34.5216 L 731.384,-34.1161 L 730.978,-33.8451
 L 730.5,-33.75 L 730.022,-33.8451 L 729.616,-34.1161 L 729.345,-34.5216 z
M 729.25,-51 L 729.345,-51.4784 L 729.616,-51.8839 L 730.022,-52.1548 L 730.5,-52.25 L 730.978,-52.1548
 L 731.384,-51.8839 L 731.655,-51.4784 L 731.75,-51 L 731.655,-50.5216 L 731.384,-50.1161 L 730.978,-49.8451
 L 730.5,-49.75 L 730.022,-49.8451 L 729.616,-50.1161 L 729.345,-50.5216 z
M 729.25,-76 L 729.345,-76.4784 L 729.616,-76.8839 L 730.022,-77.1548 L 730.5,-77.25 L 730.978,-77.1548
 L 731.384,-76.8839 L 731.655,-76.4784 L 731.75,-76 L 731.655,-75.5216 L 731.384,-75.1161 L 730.978,-74.8451
 L 730.5,-74.75 L 730.022,-74.8451 L 729.616,-75.1161 L 729.345,-75.5216 z
M 729.25,-99 L 729.345,-99.4784 L 729.616,-99.8839 L 730.022,-100.155 L 730.5,-100.25 L 730.978,-100.155
 L 731.384,-99.8839 L 731.655,-99.4784 L 731.75,-99 L 731.655,-98.5216 L 731.384,-98.1161 L 730.978,-97.8451
 L 730.5,-97.75 L 730.022,-97.8451 L 729.616,-98.1161 L 729.345,-98.5216 z
M 729.25,-115 L 729.345,-115.478 L 729.616,-115.884 L 730.022,-116.155 L 730.5,-116.25 L 730.978,-116.155
 L 731.384,-115.884 L 731.655,-115.478 L 731.75,-115 L 731.655,-114.522 L 731.384,-114.116 L 730.978,-113.845
 L 730.5,-113.75 L 730.022,-113.845 L 729.616,-114.116 L 729.345,-114.522 z
M 939.25,-6.5 L 939.345,-6.97835 L 939.616,-7.38388 L 940.022,-7.65485 L 940.5,-7.75 L 940.978,-7.65485
 L 941.384,-7.38388 L 941.655,-6.97835 L 941.75,-6.5 L 941.655,-6.02165 L 941.384,-5.61612 L 940.978,-5.34515
 L 940.5,-5.25 L 940.022,-5.34515 L 939.616,-5.61612 L 939.345,-6.02165 z
M 939.25,-35 L 939.345,-35.4784 L 939.616,-35.8839 L 940.022,-36.1548 L 940.5,-36.25 L 940.978,-36.1548
 L 941.384,-35.8839 L 941.655,-35.4784 L 941.75,-35 L 941.655,-34.5216 L 941.384,-34.1161 L 940.978,-33.8451
 L 940.5,-33.75 L 940.022,-33.8451 L 939.616,-34.1161 L 939.345,-34.5216 z
M 939.25,-51 L 939.345,-51.4784 L 939.616,-51.8839 L 940.022,-52.1548 L 940.5,-52.25 L 940.978,-52.1548
 L 941.384,-51.8839 L 941.655,-51.4784 L 941.75,-51 L 941.655,-50.5216 L 941.384,-50.1161 L 940.978,-49.8451
 L 940.5,-49.75 L 940.022,-49.8451 L 939.616,-50.1161 L 939.345,-50.5216 z
M 939.25,-76 L 939.345,-76.4784 L 939.616,-76.8839 L 940.022,-77.1548 L 940.5,-77.25 L 940.978,-77.1548
 L 941.384,-76.8839 L 941.655,-76.4784 L 941.75,-76 L 941.655,-75.5216 L 941.384,-75.1161 L 940.978,-74.8451
 L 940.5,-74.75 L 940.022,-74.8451 L 939.616,-75.1161 L 939.345,-75.5216 z
M 939.25,-99 L 939.345,-99.4784 L 939.616,-99.8839 L 940.022,-100.155 L 940.5,-100.25 L 940.978,-100.155
 L 941.384,-99.8839 L 941.655,-99.4784 L 941.75,-99 L 941.655,-98.5216 L 941.384,-98.1161 L 940.978,-97.8451
 L 940.5,-97.75 L 940.022,-97.8451 L 939.616,-98.1161 L 939.345,-98.5216 z
M 939.25,-115 L 939.345,-115.478 L 939.616,-115.884 L 940.022,-116.155 L 940.5,-116.25 L 940.978,-116.155
 L 941.384,-115.884 L 941.655,-115.478 L 941.75,-115 L 941.655,-114.522 L 941.384,-114.116 L 940.978,-113.845
 L 940.5,-113.75 L 940.022,-113.845 L 939.616,-114.116 L 939.345,-114.522 z
M 1149.25,-6.5 L 1149.35,-6.97835 L 1149.62,-7.38388 L 1150.02,-7.65485 L 1150.5,-7.75 L 1150.98,-7.65485
 L 1151.38,-7.38388 L 1151.65,-6.97835 L 1151.75,-6.5 L 1151.65,-6.02165 L 1151.38,-5.61612 L 1150.98,-5.34515
 L 1150.5,-5.25 L 1150.02,-5.34515 L 1149.62,-5.61612 L 1149.35,-6.02165 z
M 1149.25,-35 L 1149.35,-35.4784 L 1149.62,-35.8839 L 1150.02,-36.1548 L 1150.5,-36.25 L 1150.98,-36.1548
 L 1151.38,-35.8839 L 1151.65,-35.4784 L 1151.75,-35 L 1151.65,-34.5216 L 1151.38,-34.1161 L 1150.98,-33.8451
 L 1150.5,-33.75 L 1150.02,-33.8451 L 1149.62,-34.1161 L 1149.35,-34.5216 z
M 1149.25,-51 L 1149.35,-51.4784 L 1149.62,-51.8839 L 1150.02,-52.1548 L 1150.5,-52.25 L 1150.98,-52.1548
 L 1151.38,-51.8839 L 1151.65,-51.4784 L 1151.75,-51 L 1151.65,-50.5216 L 1151.38,-50.1161 L 1150.98,-49.8451
 L 1150.5,-49.75 L 1150.02,-49.8451 L 1149.62,-50.1161 L 1149.35,-50.5216 z
M 1149.25,-76 L 1149.35,-76.4784 L 1149.62,-76.8839 L 1150.02,-77.1548 L 1150.5,-77.25 L 1150.98,-77.1548
 L 1151.38,-76.8839 L 1151.65,-76.4784 L 1151.75,-76 L 1151.65,-75.5216 L 1151.38,-75.1161 L 1150.98,-74.8451
 L 1150.5,-74.75 L 1150.02,-74.8451 L 1149.62,-75.1161 L 1149.35,-75.5216 z
M 1149.25,-99 L 1149.35,-99.4784 L 1149.62,-99.8839 L 1150.02,-100.155 L 1150.5,-100.25 L 1150.98,-100.155
 L 1151.38,-99.8839 L 1151.65,-99.4784 L 1151.75,-99 L 1151.65,-98.5216 L 1151.38,-98.1161 L 1150.98,-97.8451
 L 1150.5,-97.75 L 1150.02,-97.8451 L 1149.62,-98.1161 L 1149.35,-98.5216 z
M 1149.25,-115 L 1149.35,-115.478 L 1149.62,-115.884 L 1150.02,-116.155 L 1150.5,-116.25 L 1150.98,-116.155
 L 1151.38,-115.884 L 1151.65,-115.478 L 1151.75,-115 L 1151.65,-114.522 L 1151.38,-114.116 L 1150.98,-113.845
 L 1150.5,-113.75 L 1150.02,-113.845 L 1149.62,-114.116 L 1149.35,-114.522 z
M 1295,-50 L 1295.15,-50.7654 L 1295.59,-51.4142 L 1296.23,-51.8478 L 1297,-52 L 1297.77,-51.8478
 L 1298.41,-51.4142 L 1298.85,-50.7654 L 1299,-50 L 1298.85,-49.2346 L 1298.41,-48.5858 L 1297.77,-48.1522
 L 1297,-48 L 1296.23,-48.1522 L 1295.59,-48.5858 L 1295.15,-49.2346 z
M 1295,-180 L 1295.15,-180.765 L 1295.59,-181.414 L 1296.23,-181.848 L 1297,-182 L 1297.77,-181.848
 L 1298.41,-181.414 L 1298.85,-180.765 L 1299,-180 L 1298.85,-179.235 L 1298.41,-178.586 L 1297.77,-178.152
 L 1297,-178 L 1296.23,-178.152 L 1295.59,-178.586 L 1295.15,-179.235 z
M 1626.33,-50 L 1626.49,-50.7654 L 1626.92,-51.4142 L 1627.57,-51.8478 L 1628.33,-52 L 1629.1,-51.8478
 L 1629.75,-51.4142 L 1630.18,-50.7654 L 1630.33,-50 L 1630.18,-49.2346 L 1629.75,-48.5858 L 1629.1,-48.1522
 L 1628.33,-48 L 1627.57,-48.1522 L 1626.92,-48.5858 L 1626.49,-49.2346 z
M 1626.33,-180 L 1626.49,-180.765 L 1626.92,-181.414 L 1627.57,-181.848 L 1628.33,-182 L 1629.1,-181.848
 L 1629.75,-181.414 L 1630.18,-180.765 L 1630.33,-180 L 1630.18,-179.235 L 1629.75,-178.586 L 1629.1,-178.152
 L 1628.33,-178 L 1627.57,-178.152 L 1626.92,-178.586 L 1626.49,-179.235 z
M 1957.67,-50 L 1957.82,-50.7654 L 1958.25,-51.4142 L 1958.9,-51.8478 L 1959.67,-52 L 1960.43,-51.8478
 L 1961.08,-51.4142 L 1961.51,-50.7654 L 1961.67,-50 L 1961.51,-49.2346 L 1961.08,-48.5858 L 1960.43,-48.1522
 L 1959.67,-48 L 1958.9,-48.1522 L 1958.25,-48.5858 L 1957.82,-49.2346 z
M 1957.67,-180 L 1957.82,-180.765 L 1958.25,-181.414 L 1958.9,-181.848 L 1959.67,-182 L 1960.43,-181.848
 L 1961.08,-181.414 L 1961.51,-180.765 L 1961.67,-180 L 1961.51,-179.235 L 1961.08,-178.586 L 1960.43,-178.152
 L 1959.67,-178 L 1958.9,-178.152 L 1958.25,-178.586 L 1957.82,-179.235 z
M 2289,-50 L 2289.15,-50.7654 L 2289.59,-51.4142 L 2290.23,-51.8478 L 2291,-52 L 2291.77,-51.8478
 L 2292.41,-51.4142 L 2292.85,-50.7654 L 2293,-50 L 2292.85,-49.2346 L 2292.41,-48.5858 L 2291.77,-48.1522
 L 2291,-48 L 2290.23,-48.1522 L 2289.59,-48.5858 L 2289.15,-49.2346 z
M 2289,-180 L 2289.15,-180.765 L 2289.59,-181.414 L 2290.23,-181.848 L 2291,-182 L 2291.77,-181.848
 L 2292.41,-181.414 L 2292.85,-180.765 L 2293,-180 L 2292.85,-179.235 L 2292.41,-178.586 L 2291.77,-178.152
 L 2291,-178 L 2290.23,-178.152 L 2289.59,-178.586 L 2289.15,-179.235 z
" stroke="black" fill="lightgray" stroke-width="0.5"/>
</svg>
