<?xml version="1.0" standalone="no"?>
<!DOCTYPE svg PUBLIC "-//W3C//DTD SVG 1.1//EN" "http://www.w3.org/Graphics/SVG/1.1/DTD/svg11.dtd">
<svg width="2300mm" height="230mm" viewBox="0 -230 2300 230" xmlns="http://www.w3.org/2000/svg" version="1.1">
<title>OpenSCAD Model</title>
<path d="
M 0,-0 L 2300,-0 L 2300,-230 L 0,-230 z
M 7,-50 L 7.15224,-50.7654 L 7.58579,-51.4142 L 8.23463,-51.8478 L 9,-52 L 9.76537,-51.8478
 L 10.4142,-51.4142 L 10.8478,-50.7654 L 11,-50 L 10.8478,-49.2346 L 10.4142,-48.5858 L 9.76537,-48.1522
 L 9,-48 L 8.23463,-48.1522 L 7.58579,-48.5858 L 7.15224,-49.2346 z
M 7,-180 L 7.15224,-180.765 L 7.58579,-181.414 L 8.23463,-181.848 L 9,-182 L 9.76537,-181.848
 L 10.4142,-181.414 L 10.8478,-180.765 L 11,-180 L 10.8478,-179.235 L 10.4142,-178.586 L 9.76537,-178.152
 L 9,-178 L 8.23463,-178.152 L 7.58579,-178.586 L 7.15224,-179.235 z
M 338.333,-50 L 338.486,-50.7654 L 338.919,-51.4142 L 339.568,-51.8478 L 340.333,-52 L 341.099,-51.8478
 L 341.748,-51.4142 L 342.181,-50.7654 L 342.333,-50 L 342.181,-49.2346 L 341.748,-48.5858 L 341.099,-48.1522
 L 340.333,-48 L 339.568,-48.1522 L 338.919,-48.5858 L 338.486,-49.2346 z
M 338.333,-180 L 338.486,-180.765 L 338.919,-181.414 L 339.568,-181.848 L 340.333,-182 L 341.099,-181.848
 L 341.748,-181.414 L 342.181,-180.765 L 342.333,-180 L 342.181,-179.235 L 341.748,-178.586 L 341.099,-178.152
 L 340.333,-178 L 339.568,-178.152 L 338.919,-178.586 L 338.486,-179.235 z
M 669.667,-50 L 669.819,-50.7654 L 670.252,-51.4142 L 670.901,-51.8478 L 671.667,-52 L 672.432,-51.8478
 L 673.081,-51.4142 L 673.514,-50.7654 L 673.667,-50 L 673.514,-49.2346 L 673.081,-48.5858 L 672.432,-48.1522
 L 671.667,-48 L 670.901,-48.1522 L 670.252,-48.5858 L 669.819,-49.2346 z
M 669.667,-180 L 669.819,-180.765 L 670.252,-181.414 L 670.901,-181.848 L 671.667,-182 L 672.432,-181.848
 L 673.081,-181.414 L 673.514,-180.765 L 673.667,-180 L 673.514,-179.235 L 673.081,-178.586 L 672.432,-178.152
 L 671.667,-178 L 670.901,-178.152 L 670.252,-178.586 L 669.819,-179.235 z
M 1001,-50 L 1001.15,-50.7654 L 1001.59,-51.4142 L 1002.23,-51.8478 L 1003,-52 L 1003.77,-51.8478
 L 1004.41,-51.4142 L 1004.85,-50.7654 L 1005,-50 L 1004.85,-49.2346 L 1004.41,-48.5858 L 1003.77,-48.1522
 L 1003,-48 L 1002.23,-48.1522 L 1001.59,-48.5858 L 1001.15,-49.2346 z
M 1001,-180 L 1001.15,-180.765 L 1001.59,-181.414 L 1002.23,-181.848 L 1003,-182 L 1003.77,-181.848
 L 1004.41,-181.414 L 1004.85,-180.765 L 1005,-180 L 1004.85,-179.235 L 1004.41,-178.586 L 1003.77,-178.152
 L 1003,-178 L 1002.23,-178.152 L 1001.59,-178.586 L 1001.15,-179.235 z
M 1148.25,-6.5 L 1148.35,-6.97835 L 1148.62,-7.38388 L 1149.02,-7.65485 L 1149.5,-7.75 L 1149.98,-7.65485
 L 1150.38,-7.38388 L 1150.65,-6.97835 L 1150.75,-6.5 L 1150.65,-6.02165 L 1150.38,-5.61612 L 1149.98,-5.34515
 L 1149.5,-5.25 L 1149.02,-5.34515 L 1148.62,-5.61612 L 1148.35,-6.02165 z
M 1148.25,-35 L 1148.35,-35.4784 L 1148.62,-35.8839 L 1149.02,-36.1548 L 1149.5,-36.25 L 1149.98,-36.1548
 L 1150.38,-35.8839 L 1150.65,-35.4784 L 1150.75,-35 L 1150.65,-34.5216 L 1150.38,-34.1161 L 1149.98,-33.8451
 L 1149.5,-33.75 L 1149.02,-33.8451 L 1148.62,-34.1161 L 1148.35,-34.5216 z
M 1148.25,-51 L 1148.35,-51.4784 L 1148.62,-51.8839 L 1149.02,-52.1548 L 1149.5,-52.25 L 1149.98,-52.1548
 L 1150.38,-51.8839 L 1150.65,-51.4784 L 1150.75,-51 L 1150.65,-50.5216 L 1150.38,-50.1161 L 1149.98,-49.8451
 L 1149.5,-49.75 L 1149.02,-49.8451 L 1148.62,-50.1161 L 1148.35,-50.5216 z
M 1148.25,-76 L 1148.35,-76.4784 L 1148.62,-76.8839 L 1149.02,-77.1548 L 1149.5,-77.25 L 1149.98,-77.1548
 L 1150.38,-76.8839 L 1150.65,-76.4784 L 1150.75,-76 L 1150.65,-75.5216 L 1150.38,-75.1161 L 1149.98,-74.8451
 L 1149.5,-74.75 L 1149.02,-74.8451 L 1148.62,-75.1161 L 1148.35,-75.5216 z
M 1148.25,-99 L 1148.35,-99.4784 L 1148.62,-99.8839 L 1149.02,-100.155 L 1149.5,-100.25 L 1149.98,-100.155
 L 1150.38,-99.8839 L 1150.65,-99.4784 L 1150.75,-99 L 1150.65,-98.5216 L 1150.38,-98.1161 L 1149.98,-97.8451
 L 1149.5,-97.75 L 1149.02,-97.8451 L 1148.62,-98.1161 L 1148.35,-98.5216 z
M 1148.25,-115 L 1148.35,-115.478 L 1148.62,-115.884 L 1149.02,-116.155 L 1149.5,-116.25 L 1149.98,-116.155
 L 1150.38,-115.884 L 1150.65,-115.478 L 1150.75,-115 L 1150.65,-114.522 L 1150.38,-114.116 L 1149.98,-113.845
 L 1149.5,-113.75 L 1149.02,-113.845 L 1148.62,-114.116 L 1148.35,-114.522 z
M 1358.25,-6.5 L 1358.35,-6.97835 L 1358.62,-7.38388 L 1359.02,-7.65485 L 1359.5,-7.75 L 1359.98,-7.65485
 L 1360.38,-7.38388 L 1360.65,-6.97835 L 1360.75,-6.5 L 1360.65,-6.02165 L 1360.38,-5.61612 L 1359.98,-5.34515
 L 1359.5,-5.25 L 1359.02,-5.34515 L 1358.62,-5.61612 L 1358.35,-6.02165 z
M 1358.25,-35 L 1358.35,-35.4784 L 1358.62,-35.8839 L 1359.02,-36.1548 L 1359.5,-36.25 L 1359.98,-36.1548
 L 1360.38,-35.8839 L 1360.65,-35.4784 L 1360.75,-35 L 1360.65,-34.5216 L 1360.38,-34.1161 L 1359.98,-33.8451
 L 1359.5,-33.75 L 1359.02,-33.8451 L 1358.62,-34.1161 L 1358.35,-34.5216 z
M 1358.25,-51 L 1358.35,-51.4784 L 1358.62,-51.8839 L 1359.02,-52.1548 L 1359.5,-52.25 L 1359.98,-52.1548
 L 1360.38,-51.8839 L 1360.65,-51.4784 L 1360.75,-51 L 1360.65,-50.5216 L 1360.38,-50.1161 L 1359.98,-49.8451
 L 1359.5,-49.75 L 1359.02,-49.8451 L 1358.62,-50.1161 L 1358.35,-50.5216 z
M 1358.25,-76 L 1358.35,-76.4784 L 1358.62,-76.8839 L 1359.02,-77.1548 L 1359.5,-77.25 L 1359.98,-77.1548
 L 1360.38,-76.8839 L 1360.65,-76.4784 L 1360.75,-76 L 1360.65,-75.5216 L 1360.38,-75.1161 L 1359.98,-74.8451
 L 1359.5,-74.75 L 1359.02,-74.8451 L 1358.62,-75.1161 L 1358.35,-75.5216 z
M 1358.25,-99 L 1358.35,-99.4784 L 1358.62,-99.8839 L 1359.02,-100.155 L 1359.5,-100.25 L 1359.98,-100.155
 L 1360.38,-99.8839 L 1360.65,-99.4784 L 1360.75,-99 L 1360.65,-98.5216 L 1360.38,-98.1161 L 1359.98,-97.8451
 L 1359.5,-97.75 L 1359.02,-97.8451 L 1358.62,-98.1161 L 1358.35,-98.5216 z
M 1358.25,-115 L 1358.35,-115.478 L 1358.62,-115.884 L 1359.02,-116.155 L 1359.5,-116.25 L 1359.98,-116.155
 L 1360.38,-115.884 L 1360.65,-115.478 L 1360.75,-115 L 1360.65,-114.522 L 1360.38,-114.116 L 1359.98,-113.845
 L 1359.5,-113.75 L 1359.02,-113.845 L 1358.62,-114.116 L 1358.35,-114.522 z
M 1568.25,-6.5 L 1568.35,-6.97835 L 1568.62,-7.38388 L 1569.02,-7.65485 L 1569.5,-7.75 L 1569.98,-7.65485
 L 1570.38,-7.38388 L 1570.65,-6.97835 L 1570.75,-6.5 L 1570.65,-6.02165 L 1570.38,-5.61612 L 1569.98,-5.34515
 L 1569.5,-5.25 L 1569.02,-5.34515 L 1568.62,-5.61612 L 1568.35,-6.02165 z
M 1568.25,-35 L 1568.35,-35.4784 L 1568.62,-35.8839 L 1569.02,-36.1548 L 1569.5,-36.25 L 1569.98,-36.1548
 L 1570.38,-35.8839 L 1570.65,-35.4784 L 1570.75,-35 L 1570.65,-34.5216 L 1570.38,-34.1161 L 1569.98,-33.8451
 L 1569.5,-33.75 L 1569.02,-33.8451 L 1568.62,-34.1161 L 1568.35,-34.5216 z
M 1568.25,-51 L 1568.35,-51.4784 L 1568.62,-51.8839 L 1569.02,-52.1548 L 1569.5,-52.25 L 1569.98,-52.1548
 L 1570.38,-51.8839 L 1570.65,-51.4784 L 1570.75,-51 L 1570.65,-50.5216 L 1570.38,-50.1161 L 1569.98,-49.8451
 L 1569.5,-49.75 L 1569.02,-49.8451 L 1568.62,-50.1161 L 1568.35,-50.5216 z
M 1568.25,-76 L 1568.35,-76.4784 L 1568.62,-76.8839 L 1569.02,-77.1548 L 1569.5,-77.25 L 1569.98,-77.1548
 L 1570.38,-76.8839 L 1570.65,-76.4784 L 1570.75,-76 L 1570.65,-75.5216 L 1570.38,-75.1161 L 1569.98,-74.8451
 L 1569.5,-74.75 L 1569.02,-74.8451 L 1568.62,-75.1161 L 1568.35,-75.5216 z
M 1568.25,-99 L 1568.35,-99.4784 L 1568.62,-99.8839 L 1569.02,-100.155 L 1569.5,-100.25 L 1569.98,-100.155
 L 1570.38,-99.8839 L 1570.65,-99.4784 L 1570.75,-99 L 1570.65,-98.5216 L 1570.38,-98.1161 L 1569.98,-97.8451
 L 1569.5,-97.75 L 1569.02,-97.8451 L 1568.62,-98.1161 L 1568.35,-98.5216 z
M 1568.25,-115 L 1568.35,-115.478 L 1568.62,-115.884 L 1569.02,-116.155 L 1569.5,-116.25 L 1569.98,-116.155
 L 1570.38,-115.884 L 1570.65,-115.478 L 1570.75,-115 L 1570.65,-114.522 L 1570.38,-114.116 L 1569.98,-113.845
 L 1569.5,-113.75 L 1569.02,-113.845 L 1568.62,-114.116 L 1568.35,-114.522 z
M 1778.25,-6.5 L 1778.35,-6.97835 L 1778.62,-7.38388 L 1779.02,-7.65485 L 1779.5,-7.75 L 1779.98,-7.65485
 L 1780.38,-7.38388 L 1780.65,-6.97835 L 1780.75,-6.5 L 1780.65,-6.02165 L 1780.38,-5.61612 L 1779.98,-5.34515
 L 1779.5,-5.25 L 1779.02,-5.34515 L 1778.62,-5.61612 L 1778.35,-6.02165 z
M 1778.25,-35 L 1778.35,-35.4784 L 1778.62,-35.8839 L 1779.02,-36.1548 L 1779.5,-36.25 L 1779.98,-36.1548
 L 1780.38,-35.8839 L 1780.65,-35.4784 L 1780.75,-35 L 1780.65,-34.5216 L 1780.38,-34.1161 L 1779.98,-33.8451
 L 1779.5,-33.75 L 1779.02,-33.8451 L 1778.62,-34.1161 L 1778.35,-34.5216 z
M 1778.25,-51 L 1778.35,-51.4784 L 1778.62,-51.8839 L 1779.02,-52.1548 L 1779.5,-52.25 L 1779.98,-52.1548
 L 1780.38,-51.8839 L 1780.65,-51.4784 L 1780.75,-51 L 1780.65,-50.5216 L 1780.38,-50.1161 L 1779.98,-49.8451
 L 1779.5,-49.75 L 1779.02,-49.8451 L 1778.62,-50.1161 L 1778.35,-50.5216 z
M 1778.25,-76 L 1778.35,-76.4784 L 1778.62,-76.8839 L 1779.02,-77.1548 L 1779.5,-77.25 L 1779.98,-77.1548
 L 1780.38,-76.8839 L 1780.65,-76.4784 L 1780.75,-76 L 1780.65,-75.5216 L 1780.38,-75.1161 L 1779.98,-74.8451
 L 1779.5,-74.75 L 1779.02,-74.8451 L 1778.62,-75.1161 L 1778.35,-75.5216 z
M 1778.25,-99 L 1778.35,-99.4784 L 1778.62,-99.8839 L 1779.02,-100.155 L 1779.5,-100.25 L 1779.98,-100.155
 L 1780.38,-99.8839 L 1780.65,-99.4784 L 1780.75,-99 L 1780.65,-98.5216 L 1780.38,-98.1161 L 1779.98,-97.8451
 L 1779.5,-97.75 L 1779.02,-97.8451 L 1778.62,-98.1161 L 1778.35,-98.5216 z
M 1778.25,-115 L 1778.35,-115.478 L 1778.62,-115.884 L 1779.02,-116.155 L 1779.5,-116.25 L 1779.98,-116.155
 L 1780.38,-115.884 L 1780.65,-115.478 L 1780.75,-115 L 1780.65,-114.522 L 1780.38,-114.116 L 1779.98,-113.845
 L 1779.5,-113.75 L 1779.02,-113.845 L 1778.62,-114.116 L 1778.35,-114.522 z
M 1988.25,-6.5 L 1988.35,-6.97835 L 1988.62,-7.38388 L 1989.02,-7.65485 L 1989.5,-7.75 L 1989.98,-7.65485
 L 1990.38,-7.38388 L 1990.65,-6.97835 L 1990.75,-6.5 L 1990.65,-6.02165 L 1990.38,-5.61612 L 1989.98,-5.34515
 L 1989.5,-5.25 L 1989.02,-5.34515 L 1988.62,-5.61612 L 1988.35,-6.02165 z
M 1988.25,-35 L 1988.35,-35.4784 L 1988.62,-35.8839 L 1989.02,-36.1548 L 1989.5,-36.25 L 1989.98,-36.1548
 L 1990.38,-35.8839 L 1990.65,-35.4784 L 1990.75,-35 L 1990.65,-34.5216 L 1990.38,-34.1161 L 1989.98,-33.8451
 L 1989.5,-33.75 L 1989.02,-33.8451 L 1988.62,-34.1161 L 1988.35,-34.5216 z
M 1988.25,-51 L 1988.35,-51.4784 L 1988.62,-51.8839 L 1989.02,-52.1548 L 1989.5,-52.25 L 1989.98,-52.1548
 L 1990.38,-51.8839 L 1990.65,-51.4784 L 1990.75,-51 L 1990.65,-50.5216 L 1990.38,-50.1161 L 1989.98,-49.8451
 L 1989.5,-49.75 L 1989.02,-49.8451 L 1988.62,-50.1161 L 1988.35,-50.5216 z
M 1988.25,-76 L 1988.35,-76.4784 L 1988.62,-76.8839 L 1989.02,-77.1548 L 1989.5,-77.25 L 1989.98,-77.1548
 L 1990.38,-76.8839 L 1990.65,-76.4784 L 1990.75,-76 L 1990.65,-75.5216 L 1990.38,-75.1161 L 1989.98,-74.8451
 L 1989.5,-74.75 L 1989.02,-74.8451 L 1988.62,-75.1161 L 1988.35,-75.5216 z
M 1988.25,-99 L 1988.35,-99.4784 L 1988.62,-99.8839 L 1989.02,-100.155 L 1989.5,-100.25 L 1989.98,-100.155
 L 1990.38,-99.8839 L 1990.65,-99.4784 L 1990.75,-99 L 1990.65,-98.5216 L 1990.38,-98.1161 L 1989.98,-97.8451
 L 1989.5,-97.75 L 1989.02,-97.8451 L 1988.62,-98.1161 L 1988.35,-98.5216 z
M 1988.25,-115 L 1988.35,-115.478 L 1988.62,-115.884 L 1989.02,-116.155 L 1989.5,-116.25 L 1989.98,-116.155
 L 1990.38,-115.884 L 1990.65,-115.478 L 1990.75,-115 L 1990.65,-114.522 L 1990.38,-114.116 L 1989.98,-113.845
 L 1989.5,-113.75 L 1989.02,-113.845 L 1988.62,-114.116 L 1988.35,-114.522 z
M 2198.25,-6.5 L 2198.35,-6.97835 L 2198.62,-7.38388 L 2199.02,-7.65485 L 2199.5,-7.75 L 2199.98,-7.65485
 L 2200.38,-7.38388 L 2200.65,-6.97835 L 2200.75,-6.5 L 2200.65,-6.02165 L 2200.38,-5.61612 L 2199.98,-5.34515
 L 2199.5,-5.25 L 2199.02,-5.34515 L 2198.62,-5.61612 L 2198.35,-6.02165 z
M 2198.25,-35 L 2198.35,-35.4784 L 2198.62,-35.8839 L 2199.02,-36.1548 L 2199.5,-36.25 L 2199.98,-36.1548
 L 2200.38,-35.8839 L 2200.65,-35.4784 L 2200.75,-35 L 2200.65,-34.5216 L 2200.38,-34.1161 L 2199.98,-33.8451
 L 2199.5,-33.75 L 2199.02,-33.8451 L 2198.62,-34.1161 L 2198.35,-34.5216 z
M 2198.25,-51 L 2198.35,-51.4784 L 2198.62,-51.8839 L 2199.02,-52.1548 L 2199.5,-52.25 L 2199.98,-52.1548
 L 2200.38,-51.8839 L 2200.65,-51.4784 L 2200.75,-51 L 2200.65,-50.5216 L 2200.38,-50.1161 L 2199.98,-49.8451
 L 2199.5,-49.75 L 2199.02,-49.8451 L 2198.62,-50.1161 L 2198.35,-50.5216 z
M 2198.25,-76 L 2198.35,-76.4784 L 2198.62,-76.8839 L 2199.02,-77.1548 L 2199.5,-77.25 L 2199.98,-77.1548
 L 2200.38,-76.8839 L 2200.65,-76.4784 L 2200.75,-76 L 2200.65,-75.5216 L 2200.38,-75.1161 L 2199.98,-74.8451
 L 2199.5,-74.75 L 2199.02,-74.8451 L 2198.62,-75.1161 L 2198.35,-75.5216 z
M 2198.25,-99 L 2198.35,-99.4784 L 2198.62,-99.8839 L 2199.02,-100.155 L 2199.5,-100.25 L 2199.98,-100.155
 L 2200.38,-99.8839 L 2200.65,-99.4784 L 2200.75,-99 L 2200.65,-98.5216 L 2200.38,-98.1161 L 2199.98,-97.8451
 L 2199.5,-97.75 L 2199.02,-97.8451 L 2198.62,-98.1161 L 2198.35,-98.5216 z
M 2198.25,-115 L 2198.35,-115.478 L 2198.62,-115.884 L 2199.02,-116.155 L 2199.5,-116.25 L 2199.98,-116.155
 L 2200.38,-115.884 L 2200.65,-115.478 L 2200.75,-115 L 2200.65,-114.522 L 2200.38,-114.116 L 2199.98,-113.845
 L 2199.5,-113.75 L 2199.02,-113.845 L 2198.62,-114.116 L 2198.35,-114.522 z
M 2289,-50 L 2289.15,-50.7654 L 2289.59,-51.4142 L 2290.23,-51.8478 L 2291,-52 L 2291.77,-51.8478
 L 2292.41,-51.4142 L 2292.85,-50.7654 L 2293,-50 L 2292.85,-49.2346 L 2292.41,-48.5858 L 2291.77,-48.1522
 L 2291,-48 L 2290.23,-48.1522 L 2289.59,-48.5858 L 2289.15,-49.2346 z
M 2289,-180 L 2289.15,-180.765 L 2289.59,-181.414 L 2290.23,-181.848 L 2291,-182 L 2291.77,-181.848
 L 2292.41,-181.414 L 2292.85,-180.765 L 2293,-180 L 2292.85,-179.235 L 2292.41,-178.586 L 2291.77,-178.152
 L 2291,-178 L 2290.23,-178.152 L 2289.59,-178.586 L 2289.15,-179.235 z
" stroke="black" fill="lightgray" stroke-width="0.5"/>
</svg>
