<?xml version="1.0" standalone="no"?>
<!DOCTYPE svg PUBLIC "-//W3C//DTD SVG 1.1//EN" "http://www.w3.org/Graphics/SVG/1.1/DTD/svg11.dtd">
<svg width="514mm" height="200mm" viewBox="0 -200 514 200" xmlns="http://www.w3.org/2000/svg" version="1.1">
<title>OpenSCAD Model</title>
<path d="
M 0,-0 L 514,-0 L 514,-200 L 0,-200 z
M 48,-6 L 48.1522,-6.76537 L 48.5858,-7.41421 L 49.2346,-7.84776 L 50,-8 L 50.7654,-7.84776
 L 51.4142,-7.41421 L 51.8478,-6.76537 L 52,-6 L 51.8478,-5.23463 L 51.4142,-4.58579 L 50.7654,-4.15224
 L 50,-4 L 49.2346,-4.15224 L 48.5858,-4.58579 L 48.1522,-5.23463 z
M 255,-6 L 255.152,-6.76537 L 255.586,-7.41421 L 256.235,-7.84776 L 257,-8 L 257.765,-7.84776
 L 258.414,-7.41421 L 258.848,-6.76537 L 259,-6 L 258.848,-5.23463 L 258.414,-4.58579 L 257.765,-4.15224
 L 257,-4 L 256.235,-4.15224 L 255.586,-4.58579 L 255.152,-5.23463 z
M 462,-6 L 462.152,-6.76537 L 462.586,-7.41421 L 463.235,-7.84776 L 464,-8 L 464.765,-7.84776
 L 465.414,-7.41421 L 465.848,-6.76537 L 466,-6 L 465.848,-5.23463 L 465.414,-4.58579 L 464.765,-4.15224
 L 464,-4 L 463.235,-4.15224 L 462.586,-4.58579 L 462.152,-5.23463 z
" stroke="black" fill="lightgray" stroke-width="0.5"/>
</svg>
