<?xml version="1.0" standalone="no"?>
<!DOCTYPE svg PUBLIC "-//W3C//DTD SVG 1.1//EN" "http://www.w3.org/Graphics/SVG/1.1/DTD/svg11.dtd">
<svg width="225mm" height="200mm" viewBox="0 -200 225 200" xmlns="http://www.w3.org/2000/svg" version="1.1">
<title>OpenSCAD Model</title>
<path d="
M 0,-0 L 225,-0 L 225,-200 L 0,-200 z
M 33.75,-72.5 L 33.8451,-72.9784 L 34.1161,-73.3839 L 34.5216,-73.6548 L 35,-73.75 L 35.4784,-73.6548
 L 35.8839,-73.3839 L 36.1548,-72.9784 L 36.25,-72.5 L 36.1548,-72.0216 L 35.8839,-71.6161 L 35.4784,-71.3451
 L 35,-71.25 L 34.5216,-71.3451 L 34.1161,-71.6161 L 33.8451,-72.0216 z
M 48,-6 L 48.1522,-6.76537 L 48.5858,-7.41421 L 49.2346,-7.84776 L 50,-8 L 50.7654,-7.84776
 L 51.4142,-7.41421 L 51.8478,-6.76537 L 52,-6 L 51.8478,-5.23463 L 51.4142,-4.58579 L 50.7654,-4.15224
 L 50,-4 L 49.2346,-4.15224 L 48.5858,-4.58579 L 48.1522,-5.23463 z
M 161.75,-72.5 L 161.845,-72.9784 L 162.116,-73.3839 L 162.522,-73.6548 L 163,-73.75 L 163.478,-73.6548
 L 163.884,-73.3839 L 164.155,-72.9784 L 164.25,-72.5 L 164.155,-72.0216 L 163.884,-71.6161 L 163.478,-71.3451
 L 163,-71.25 L 162.522,-71.3451 L 162.116,-71.6161 L 161.845,-72.0216 z
M 173,-6 L 173.152,-6.76537 L 173.586,-7.41421 L 174.235,-7.84776 L 175,-8 L 175.765,-7.84776
 L 176.414,-7.41421 L 176.848,-6.76537 L 177,-6 L 176.848,-5.23463 L 176.414,-4.58579 L 175.765,-4.15224
 L 175,-4 L 174.235,-4.15224 L 173.586,-4.58579 L 173.152,-5.23463 z
M 217,-50 L 217.152,-50.7654 L 217.586,-51.4142 L 218.235,-51.8478 L 219,-52 L 219.765,-51.8478
 L 220.414,-51.4142 L 220.848,-50.7654 L 221,-50 L 220.848,-49.2346 L 220.414,-48.5858 L 219.765,-48.1522
 L 219,-48 L 218.235,-48.1522 L 217.586,-48.5858 L 217.152,-49.2346 z
M 217,-150 L 217.152,-150.765 L 217.586,-151.414 L 218.235,-151.848 L 219,-152 L 219.765,-151.848
 L 220.414,-151.414 L 220.848,-150.765 L 221,-150 L 220.848,-149.235 L 220.414,-148.586 L 219.765,-148.152
 L 219,-148 L 218.235,-148.152 L 217.586,-148.586 L 217.152,-149.235 z
" stroke="black" fill="lightgray" stroke-width="0.5"/>
</svg>
