<?xml version="1.0" standalone="no"?>
<!DOCTYPE svg PUBLIC "-//W3C//DTD SVG 1.1//EN" "http://www.w3.org/Graphics/SVG/1.1/DTD/svg11.dtd">
<svg width="597mm" height="216mm" viewBox="0 -216 597 216" xmlns="http://www.w3.org/2000/svg" version="1.1">
<title>OpenSCAD Model</title>
<path d="
M 0,-0 L 597,-0 L 597,-216 L 0,-216 z
M 38.5,-50 L 38.7284,-51.148 L 39.3787,-52.1213 L 40.3519,-52.7716 L 41.5,-53 L 42.648,-52.7716
 L 43.6213,-52.1213 L 44.2716,-51.148 L 44.5,-50 L 44.2716,-48.8519 L 43.6213,-47.8787 L 42.648,-47.2284
 L 41.5,-47 L 40.3519,-47.2284 L 39.3787,-47.8787 L 38.7284,-48.8519 z
M 38.5,-166 L 38.7284,-167.148 L 39.3787,-168.121 L 40.3519,-168.772 L 41.5,-169 L 42.648,-168.772
 L 43.6213,-168.121 L 44.2716,-167.148 L 44.5,-166 L 44.2716,-164.852 L 43.6213,-163.879 L 42.648,-163.228
 L 41.5,-163 L 40.3519,-163.228 L 39.3787,-163.879 L 38.7284,-164.852 z
M 88.5,-6 L 88.7284,-7.14805 L 89.3787,-8.12132 L 90.3519,-8.77164 L 91.5,-9 L 92.648,-8.77164
 L 93.6213,-8.12132 L 94.2716,-7.14805 L 94.5,-6 L 94.2716,-4.85195 L 93.6213,-3.87868 L 92.648,-3.22836
 L 91.5,-3 L 90.3519,-3.22836 L 89.3787,-3.87868 L 88.7284,-4.85195 z
M 216.5,-103 L 216.652,-103.765 L 217.086,-104.414 L 217.735,-104.848 L 218.5,-105 L 219.265,-104.848
 L 219.914,-104.414 L 220.348,-103.765 L 220.5,-103 L 220.348,-102.235 L 219.914,-101.586 L 219.265,-101.152
 L 218.5,-101 L 217.735,-101.152 L 217.086,-101.586 L 216.652,-102.235 z
M 226.5,-6 L 226.728,-7.14805 L 227.379,-8.12132 L 228.352,-8.77164 L 229.5,-9 L 230.648,-8.77164
 L 231.621,-8.12132 L 232.272,-7.14805 L 232.5,-6 L 232.272,-4.85195 L 231.621,-3.87868 L 230.648,-3.22836
 L 229.5,-3 L 228.352,-3.22836 L 227.379,-3.87868 L 226.728,-4.85195 z
M 364.5,-6 L 364.728,-7.14805 L 365.379,-8.12132 L 366.352,-8.77164 L 367.5,-9 L 368.648,-8.77164
 L 369.621,-8.12132 L 370.272,-7.14805 L 370.5,-6 L 370.272,-4.85195 L 369.621,-3.87868 L 368.648,-3.22836
 L 367.5,-3 L 366.352,-3.22836 L 365.379,-3.87868 L 364.728,-4.85195 z
M 376.5,-103 L 376.652,-103.765 L 377.086,-104.414 L 377.735,-104.848 L 378.5,-105 L 379.265,-104.848
 L 379.914,-104.414 L 380.348,-103.765 L 380.5,-103 L 380.348,-102.235 L 379.914,-101.586 L 379.265,-101.152
 L 378.5,-101 L 377.735,-101.152 L 377.086,-101.586 L 376.652,-102.235 z
M 502.5,-6 L 502.728,-7.14805 L 503.379,-8.12132 L 504.352,-8.77164 L 505.5,-9 L 506.648,-8.77164
 L 507.621,-8.12132 L 508.272,-7.14805 L 508.5,-6 L 508.272,-4.85195 L 507.621,-3.87868 L 506.648,-3.22836
 L 505.5,-3 L 504.352,-3.22836 L 503.379,-3.87868 L 502.728,-4.85195 z
M 552.5,-50 L 552.728,-51.148 L 553.379,-52.1213 L 554.352,-52.7716 L 555.5,-53 L 556.648,-52.7716
 L 557.621,-52.1213 L 558.272,-51.148 L 558.5,-50 L 558.272,-48.8519 L 557.621,-47.8787 L 556.648,-47.2284
 L 555.5,-47 L 554.352,-47.2284 L 553.379,-47.8787 L 552.728,-48.8519 z
M 552.5,-166 L 552.728,-167.148 L 553.379,-168.121 L 554.352,-168.772 L 555.5,-169 L 556.648,-168.772
 L 557.621,-168.121 L 558.272,-167.148 L 558.5,-166 L 558.272,-164.852 L 557.621,-163.879 L 556.648,-163.228
 L 555.5,-163 L 554.352,-163.228 L 553.379,-163.879 L 552.728,-164.852 z
" stroke="black" fill="lightgray" stroke-width="0.5"/>
</svg>
