<?xml version="1.0" standalone="no"?>
<!DOCTYPE svg PUBLIC "-//W3C//DTD SVG 1.1//EN" "http://www.w3.org/Graphics/SVG/1.1/DTD/svg11.dtd">
<svg width="225mm" height="200mm" viewBox="0 -200 225 200" xmlns="http://www.w3.org/2000/svg" version="1.1">
<title>OpenSCAD Model</title>
<path d="
M 0,-0 L 225,-0 L 225,-200 L 0,-200 z
M 4,-50 L 4.15224,-50.7654 L 4.58579,-51.4142 L 5.23463,-51.8478 L 6,-52 L 6.76537,-51.8478
 L 7.41421,-51.4142 L 7.84776,-50.7654 L 8,-50 L 7.84776,-49.2346 L 7.41421,-48.5858 L 6.76537,-48.1522
 L 6,-48 L 5.23463,-48.1522 L 4.58579,-48.5858 L 4.15224,-49.2346 z
M 4,-150 L 4.15224,-150.765 L 4.58579,-151.414 L 5.23463,-151.848 L 6,-152 L 6.76537,-151.848
 L 7.41421,-151.414 L 7.84776,-150.765 L 8,-150 L 7.84776,-149.235 L 7.41421,-148.586 L 6.76537,-148.152
 L 6,-148 L 5.23463,-148.152 L 4.58579,-148.586 L 4.15224,-149.235 z
M 48,-6 L 48.1522,-6.76537 L 48.5858,-7.41421 L 49.2346,-7.84776 L 50,-8 L 50.7654,-7.84776
 L 51.4142,-7.41421 L 51.8478,-6.76537 L 52,-6 L 51.8478,-5.23463 L 51.4142,-4.58579 L 50.7654,-4.15224
 L 50,-4 L 49.2346,-4.15224 L 48.5858,-4.58579 L 48.1522,-5.23463 z
M 60.75,-72.5 L 60.8452,-72.9784 L 61.1161,-73.3839 L 61.5216,-73.6548 L 62,-73.75 L 62.4784,-73.6548
 L 62.8839,-73.3839 L 63.1549,-72.9784 L 63.25,-72.5 L 63.1549,-72.0216 L 62.8839,-71.6161 L 62.4784,-71.3451
 L 62,-71.25 L 61.5216,-71.3451 L 61.1161,-71.6161 L 60.8452,-72.0216 z
M 173,-6 L 173.152,-6.76537 L 173.586,-7.41421 L 174.235,-7.84776 L 175,-8 L 175.765,-7.84776
 L 176.414,-7.41421 L 176.848,-6.76537 L 177,-6 L 176.848,-5.23463 L 176.414,-4.58579 L 175.765,-4.15224
 L 175,-4 L 174.235,-4.15224 L 173.586,-4.58579 L 173.152,-5.23463 z
M 188.75,-72.5 L 188.845,-72.9784 L 189.116,-73.3839 L 189.522,-73.6548 L 190,-73.75 L 190.478,-73.6548
 L 190.884,-73.3839 L 191.155,-72.9784 L 191.25,-72.5 L 191.155,-72.0216 L 190.884,-71.6161 L 190.478,-71.3451
 L 190,-71.25 L 189.522,-71.3451 L 189.116,-71.6161 L 188.845,-72.0216 z
" stroke="black" fill="lightgray" stroke-width="0.5"/>
</svg>
