<?xml version="1.0" standalone="no"?>
<!DOCTYPE svg PUBLIC "-//W3C//DTD SVG 1.1//EN" "http://www.w3.org/Graphics/SVG/1.1/DTD/svg11.dtd">
<svg width="30mm" height="230mm" viewBox="0 -230 30 230" xmlns="http://www.w3.org/2000/svg" version="1.1">
<title>OpenSCAD Model</title>
<path d="
M 0,-0 L 30,-0 L 30,-230 L 0,-230 z
M 13,-9 L 13.1522,-9.76537 L 13.5858,-10.4142 L 14.2346,-10.8478 L 15,-11 L 15.7654,-10.8478
 L 16.4142,-10.4142 L 16.8478,-9.76537 L 17,-9 L 16.8478,-8.23463 L 16.4142,-7.58579 L 15.7654,-7.15224
 L 15,-7 L 14.2346,-7.15224 L 13.5858,-7.58579 L 13.1522,-8.23463 z
M 13,-221 L 13.1522,-221.765 L 13.5858,-222.414 L 14.2346,-222.848 L 15,-223 L 15.7654,-222.848
 L 16.4142,-222.414 L 16.8478,-221.765 L 17,-221 L 16.8478,-220.235 L 16.4142,-219.586 L 15.7654,-219.152
 L 15,-219 L 14.2346,-219.152 L 13.5858,-219.586 L 13.1522,-220.235 z
" stroke="black" fill="lightgray" stroke-width="0.5"/>
</svg>
