solid OpenSCAD_Model
  facet normal 0 -0.195081 0.980787
    outer loop
      vertex 0 50.7654 7.65224
      vertex 30 50 7.5
      vertex 30 50.7654 7.65224
    endloop
  endfacet
  facet normal 0 -0.195081 0.980787
    outer loop
      vertex 30 50 7.5
      vertex 0 50.7654 7.65224
      vertex 0 50 7.5
    endloop
  endfacet
  facet normal 0 -0.195032 -0.980797
    outer loop
      vertex 0 50 11.5
      vertex 30 50.7654 11.3478
      vertex 30 50 11.5
    endloop
  endfacet
  facet normal -0 -0.195032 -0.980797
    outer loop
      vertex 30 50.7654 11.3478
      vertex 0 50 11.5
      vertex 0 50.7654 11.3478
    endloop
  endfacet
  facet normal 0 -0.555602 0.831448
    outer loop
      vertex 0 51.4142 8.08579
      vertex 30 50.7654 7.65224
      vertex 30 51.4142 8.08579
    endloop
  endfacet
  facet normal 0 -0.555602 0.831448
    outer loop
      vertex 30 50.7654 7.65224
      vertex 0 51.4142 8.08579
      vertex 0 50.7654 7.65224
    endloop
  endfacet
  facet normal 0 0.980795 0.195039
    outer loop
      vertex 30 48.1522 8.73463
      vertex 0 48 9.5
      vertex 30 48 9.5
    endloop
  endfacet
  facet normal 0 0.980795 0.195039
    outer loop
      vertex 0 48 9.5
      vertex 30 48.1522 8.73463
      vertex 0 48.1522 8.73463
    endloop
  endfacet
  facet normal 0 0.831435 0.555622
    outer loop
      vertex 30 48.5858 8.08579
      vertex 0 48.1522 8.73463
      vertex 30 48.1522 8.73463
    endloop
  endfacet
  facet normal 0 0.831435 0.555622
    outer loop
      vertex 0 48.1522 8.73463
      vertex 30 48.5858 8.08579
      vertex 0 48.5858 8.08579
    endloop
  endfacet
  facet normal 0 -0.831435 0.555622
    outer loop
      vertex 0 51.4142 8.08579
      vertex 30 51.8478 8.73463
      vertex 0 51.8478 8.73463
    endloop
  endfacet
  facet normal 0 -0.831435 0.555622
    outer loop
      vertex 30 51.8478 8.73463
      vertex 0 51.4142 8.08579
      vertex 30 51.4142 8.08579
    endloop
  endfacet
  facet normal 0 -0.831419 -0.555646
    outer loop
      vertex 0 51.8478 10.2654
      vertex 30 51.4142 10.9142
      vertex 0 51.4142 10.9142
    endloop
  endfacet
  facet normal 0 -0.831419 -0.555646
    outer loop
      vertex 30 51.4142 10.9142
      vertex 0 51.8478 10.2654
      vertex 30 51.8478 10.2654
    endloop
  endfacet
  facet normal 0 -0.555646 -0.831419
    outer loop
      vertex 0 50.7654 11.3478
      vertex 30 51.4142 10.9142
      vertex 30 50.7654 11.3478
    endloop
  endfacet
  facet normal -0 -0.555646 -0.831419
    outer loop
      vertex 30 51.4142 10.9142
      vertex 0 50.7654 11.3478
      vertex 0 51.4142 10.9142
    endloop
  endfacet
  facet normal 0 -0.980797 -0.195032
    outer loop
      vertex 0 52 9.5
      vertex 30 51.8478 10.2654
      vertex 0 51.8478 10.2654
    endloop
  endfacet
  facet normal 0 -0.980797 -0.195032
    outer loop
      vertex 30 51.8478 10.2654
      vertex 0 52 9.5
      vertex 30 52 9.5
    endloop
  endfacet
  facet normal -0 0.195081 0.980787
    outer loop
      vertex 0 50 7.5
      vertex 30 49.2346 7.65224
      vertex 30 50 7.5
    endloop
  endfacet
  facet normal 0 0.195081 0.980787
    outer loop
      vertex 30 49.2346 7.65224
      vertex 0 50 7.5
      vertex 0 49.2346 7.65224
    endloop
  endfacet
  facet normal 0 -0.980795 0.195039
    outer loop
      vertex 0 51.8478 8.73463
      vertex 30 52 9.5
      vertex 0 52 9.5
    endloop
  endfacet
  facet normal 0 -0.980795 0.195039
    outer loop
      vertex 30 52 9.5
      vertex 0 51.8478 8.73463
      vertex 30 51.8478 8.73463
    endloop
  endfacet
  facet normal -0 0.555602 0.831448
    outer loop
      vertex 0 49.2346 7.65224
      vertex 30 48.5858 8.08579
      vertex 30 49.2346 7.65224
    endloop
  endfacet
  facet normal 0 0.555602 0.831448
    outer loop
      vertex 30 48.5858 8.08579
      vertex 0 49.2346 7.65224
      vertex 0 48.5858 8.08579
    endloop
  endfacet
  facet normal -1 0 0
    outer loop
      vertex 30 51.8478 8.73463
      vertex 30 51.8478 10.2654
      vertex 30 52 9.5
    endloop
  endfacet
  facet normal -1 0 0
    outer loop
      vertex 30 51.4142 8.08579
      vertex 30 51.8478 10.2654
      vertex 30 51.8478 8.73463
    endloop
  endfacet
  facet normal -1 0 0
    outer loop
      vertex 30 51.4142 8.08579
      vertex 30 51.4142 10.9142
      vertex 30 51.8478 10.2654
    endloop
  endfacet
  facet normal -1 0 0
    outer loop
      vertex 30 50.7654 7.65224
      vertex 30 51.4142 10.9142
      vertex 30 51.4142 8.08579
    endloop
  endfacet
  facet normal -1 0 0
    outer loop
      vertex 30 50.7654 7.65224
      vertex 30 50.7654 11.3478
      vertex 30 51.4142 10.9142
    endloop
  endfacet
  facet normal -1 0 0
    outer loop
      vertex 30 50 7.5
      vertex 30 50.7654 11.3478
      vertex 30 50.7654 7.65224
    endloop
  endfacet
  facet normal -1 0 0
    outer loop
      vertex 30 50 7.5
      vertex 30 50 11.5
      vertex 30 50.7654 11.3478
    endloop
  endfacet
  facet normal -1 0 0
    outer loop
      vertex 30 49.2346 7.65224
      vertex 30 50 11.5
      vertex 30 50 7.5
    endloop
  endfacet
  facet normal -1 0 0
    outer loop
      vertex 30 49.2346 7.65224
      vertex 30 49.2346 11.3478
      vertex 30 50 11.5
    endloop
  endfacet
  facet normal -1 0 0
    outer loop
      vertex 30 48.5858 8.08579
      vertex 30 49.2346 11.3478
      vertex 30 49.2346 7.65224
    endloop
  endfacet
  facet normal -1 0 0
    outer loop
      vertex 30 48.5858 8.08579
      vertex 30 48.5858 10.9142
      vertex 30 49.2346 11.3478
    endloop
  endfacet
  facet normal -1 0 0
    outer loop
      vertex 30 48.1522 8.73463
      vertex 30 48.5858 10.9142
      vertex 30 48.5858 8.08579
    endloop
  endfacet
  facet normal -1 0 0
    outer loop
      vertex 30 48.1522 8.73463
      vertex 30 48.1522 10.2654
      vertex 30 48.5858 10.9142
    endloop
  endfacet
  facet normal -1 0 -0
    outer loop
      vertex 30 48.1522 10.2654
      vertex 30 48.1522 8.73463
      vertex 30 48 9.5
    endloop
  endfacet
  facet normal -1 0 0
    outer loop
      vertex 0 230 0
      vertex 0 182 9.5
      vertex 0 230 19
    endloop
  endfacet
  facet normal -1 0 0
    outer loop
      vertex 0 230 0
      vertex 0 181.848 8.73463
      vertex 0 182 9.5
    endloop
  endfacet
  facet normal -1 0 0
    outer loop
      vertex 0 230 0
      vertex 0 181.414 8.08579
      vertex 0 181.848 8.73463
    endloop
  endfacet
  facet normal -1 0 0
    outer loop
      vertex 0 230 0
      vertex 0 180.765 7.65224
      vertex 0 181.414 8.08579
    endloop
  endfacet
  facet normal -1 0 0
    outer loop
      vertex 0 230 0
      vertex 0 180 7.5
      vertex 0 180.765 7.65224
    endloop
  endfacet
  facet normal -1 0 0
    outer loop
      vertex 0 178.152 8.73463
      vertex 0 52 9.5
      vertex 0 178 9.5
    endloop
  endfacet
  facet normal -1 0 0
    outer loop
      vertex 0 51.8478 8.73463
      vertex 0 178.152 8.73463
      vertex 0 178.586 8.08579
    endloop
  endfacet
  facet normal -1 0 0
    outer loop
      vertex 0 51.4142 8.08579
      vertex 0 178.586 8.08579
      vertex 0 179.235 7.65224
    endloop
  endfacet
  facet normal -1 0 0
    outer loop
      vertex 0 50.7654 7.65224
      vertex 0 179.235 7.65224
      vertex 0 180 7.5
    endloop
  endfacet
  facet normal -1 0 0
    outer loop
      vertex 0 50 7.5
      vertex 0 180 7.5
      vertex 0 230 0
    endloop
  endfacet
  facet normal -1 0 0
    outer loop
      vertex 0 178.152 8.73463
      vertex 0 51.8478 8.73463
      vertex 0 52 9.5
    endloop
  endfacet
  facet normal -1 0 0
    outer loop
      vertex 0 178.586 8.08579
      vertex 0 51.4142 8.08579
      vertex 0 51.8478 8.73463
    endloop
  endfacet
  facet normal -1 0 0
    outer loop
      vertex 0 179.235 7.65224
      vertex 0 50.7654 7.65224
      vertex 0 51.4142 8.08579
    endloop
  endfacet
  facet normal -1 0 0
    outer loop
      vertex 0 180 7.5
      vertex 0 50 7.5
      vertex 0 50.7654 7.65224
    endloop
  endfacet
  facet normal -1 -0 0
    outer loop
      vertex 0 48.1522 8.73463
      vertex 0 0 0
      vertex 0 48 9.5
    endloop
  endfacet
  facet normal -1 -0 0
    outer loop
      vertex 0 48.5858 8.08579
      vertex 0 0 0
      vertex 0 48.1522 8.73463
    endloop
  endfacet
  facet normal -1 -0 0
    outer loop
      vertex 0 49.2346 7.65224
      vertex 0 0 0
      vertex 0 48.5858 8.08579
    endloop
  endfacet
  facet normal -1 -0 0
    outer loop
      vertex 0 50 7.5
      vertex 0 0 0
      vertex 0 49.2346 7.65224
    endloop
  endfacet
  facet normal -1 0 0
    outer loop
      vertex 0 0 0
      vertex 0 50 7.5
      vertex 0 230 0
    endloop
  endfacet
  facet normal -1 0 0
    outer loop
      vertex 0 181.848 10.2654
      vertex 0 230 19
      vertex 0 182 9.5
    endloop
  endfacet
  facet normal -1 0 0
    outer loop
      vertex 0 181.414 10.9142
      vertex 0 230 19
      vertex 0 181.848 10.2654
    endloop
  endfacet
  facet normal -1 0 0
    outer loop
      vertex 0 180.765 11.3478
      vertex 0 230 19
      vertex 0 181.414 10.9142
    endloop
  endfacet
  facet normal -1 0 0
    outer loop
      vertex 0 180 11.5
      vertex 0 230 19
      vertex 0 180.765 11.3478
    endloop
  endfacet
  facet normal -1 0 0
    outer loop
      vertex 0 52 9.5
      vertex 0 178.152 10.2654
      vertex 0 178 9.5
    endloop
  endfacet
  facet normal -1 0 0
    outer loop
      vertex 0 51.8478 10.2654
      vertex 0 178.152 10.2654
      vertex 0 52 9.5
    endloop
  endfacet
  facet normal -1 0 0
    outer loop
      vertex 0 178.152 10.2654
      vertex 0 51.8478 10.2654
      vertex 0 178.586 10.9142
    endloop
  endfacet
  facet normal -1 0 0
    outer loop
      vertex 0 51.4142 10.9142
      vertex 0 178.586 10.9142
      vertex 0 51.8478 10.2654
    endloop
  endfacet
  facet normal -1 0 0
    outer loop
      vertex 0 178.586 10.9142
      vertex 0 51.4142 10.9142
      vertex 0 179.235 11.3478
    endloop
  endfacet
  facet normal -1 0 0
    outer loop
      vertex 0 50.7654 11.3478
      vertex 0 179.235 11.3478
      vertex 0 51.4142 10.9142
    endloop
  endfacet
  facet normal -1 0 0
    outer loop
      vertex 0 179.235 11.3478
      vertex 0 50.7654 11.3478
      vertex 0 180 11.5
    endloop
  endfacet
  facet normal -1 0 0
    outer loop
      vertex 0 50 11.5
      vertex 0 180 11.5
      vertex 0 50.7654 11.3478
    endloop
  endfacet
  facet normal -1 0 0
    outer loop
      vertex 0 180 11.5
      vertex 0 50 11.5
      vertex 0 230 19
    endloop
  endfacet
  facet normal -1 0 0
    outer loop
      vertex 0 0 19
      vertex 0 48 9.5
      vertex 0 0 0
    endloop
  endfacet
  facet normal -1 0 0
    outer loop
      vertex 0 48 9.5
      vertex 0 0 19
      vertex 0 48.1522 10.2654
    endloop
  endfacet
  facet normal -1 0 0
    outer loop
      vertex 0 48.1522 10.2654
      vertex 0 0 19
      vertex 0 48.5858 10.9142
    endloop
  endfacet
  facet normal -1 0 0
    outer loop
      vertex 0 50 11.5
      vertex 0 0 19
      vertex 0 230 19
    endloop
  endfacet
  facet normal -1 0 0
    outer loop
      vertex 0 49.2346 11.3478
      vertex 0 0 19
      vertex 0 50 11.5
    endloop
  endfacet
  facet normal -1 0 0
    outer loop
      vertex 0 48.5858 10.9142
      vertex 0 0 19
      vertex 0 49.2346 11.3478
    endloop
  endfacet
  facet normal 0 0.555646 -0.831419
    outer loop
      vertex 0 48.5858 10.9142
      vertex 30 49.2346 11.3478
      vertex 30 48.5858 10.9142
    endloop
  endfacet
  facet normal 0 0.555646 -0.831419
    outer loop
      vertex 30 49.2346 11.3478
      vertex 0 48.5858 10.9142
      vertex 0 49.2346 11.3478
    endloop
  endfacet
  facet normal 0 0.195032 -0.980797
    outer loop
      vertex 0 49.2346 11.3478
      vertex 30 50 11.5
      vertex 30 49.2346 11.3478
    endloop
  endfacet
  facet normal 0 0.195032 -0.980797
    outer loop
      vertex 30 50 11.5
      vertex 0 49.2346 11.3478
      vertex 0 50 11.5
    endloop
  endfacet
  facet normal 0 0.980797 -0.195032
    outer loop
      vertex 30 48 9.5
      vertex 0 48.1522 10.2654
      vertex 30 48.1522 10.2654
    endloop
  endfacet
  facet normal 0 0.980797 -0.195032
    outer loop
      vertex 0 48.1522 10.2654
      vertex 30 48 9.5
      vertex 0 48 9.5
    endloop
  endfacet
  facet normal 0 0.831419 -0.555646
    outer loop
      vertex 30 48.1522 10.2654
      vertex 0 48.5858 10.9142
      vertex 30 48.5858 10.9142
    endloop
  endfacet
  facet normal 0 0.831419 -0.555646
    outer loop
      vertex 0 48.5858 10.9142
      vertex 30 48.1522 10.2654
      vertex 0 48.1522 10.2654
    endloop
  endfacet
  facet normal 0 -0.195179 0.980768
    outer loop
      vertex 0 180.765 7.65224
      vertex 30 180 7.5
      vertex 30 180.765 7.65224
    endloop
  endfacet
  facet normal 0 -0.195179 0.980768
    outer loop
      vertex 30 180 7.5
      vertex 0 180.765 7.65224
      vertex 0 180 7.5
    endloop
  endfacet
  facet normal 0 -0.19513 -0.980777
    outer loop
      vertex 0 180 11.5
      vertex 30 180.765 11.3478
      vertex 30 180 11.5
    endloop
  endfacet
  facet normal -0 -0.19513 -0.980777
    outer loop
      vertex 30 180.765 11.3478
      vertex 0 180 11.5
      vertex 0 180.765 11.3478
    endloop
  endfacet
  facet normal 0 -0.555483 0.831528
    outer loop
      vertex 0 181.414 8.08579
      vertex 30 180.765 7.65224
      vertex 30 181.414 8.08579
    endloop
  endfacet
  facet normal 0 -0.555483 0.831528
    outer loop
      vertex 30 180.765 7.65224
      vertex 0 181.414 8.08579
      vertex 0 180.765 7.65224
    endloop
  endfacet
  facet normal 0 -0.831198 0.555977
    outer loop
      vertex 0 181.414 8.08579
      vertex 30 181.848 8.73463
      vertex 0 181.848 8.73463
    endloop
  endfacet
  facet normal 0 -0.831198 0.555977
    outer loop
      vertex 30 181.848 8.73463
      vertex 0 181.414 8.08579
      vertex 30 181.414 8.08579
    endloop
  endfacet
  facet normal 0 -0.980846 -0.194785
    outer loop
      vertex 0 182 9.5
      vertex 30 181.848 10.2654
      vertex 0 181.848 10.2654
    endloop
  endfacet
  facet normal 0 -0.980846 -0.194785
    outer loop
      vertex 30 181.848 10.2654
      vertex 0 182 9.5
      vertex 30 182 9.5
    endloop
  endfacet
  facet normal 0 -0.555528 -0.831498
    outer loop
      vertex 0 180.765 11.3478
      vertex 30 181.414 10.9142
      vertex 30 180.765 11.3478
    endloop
  endfacet
  facet normal -0 -0.555528 -0.831498
    outer loop
      vertex 30 181.414 10.9142
      vertex 0 180.765 11.3478
      vertex 0 181.414 10.9142
    endloop
  endfacet
  facet normal 0 -0.831182 -0.556
    outer loop
      vertex 0 181.848 10.2654
      vertex 30 181.414 10.9142
      vertex 0 181.414 10.9142
    endloop
  endfacet
  facet normal 0 -0.831182 -0.556
    outer loop
      vertex 30 181.414 10.9142
      vertex 0 181.848 10.2654
      vertex 30 181.848 10.2654
    endloop
  endfacet
  facet normal 0 -0.980844 0.194793
    outer loop
      vertex 0 181.848 8.73463
      vertex 30 182 9.5
      vertex 0 182 9.5
    endloop
  endfacet
  facet normal 0 -0.980844 0.194793
    outer loop
      vertex 30 182 9.5
      vertex 0 181.848 8.73463
      vertex 30 181.848 8.73463
    endloop
  endfacet
  facet normal 0 0.831198 0.555977
    outer loop
      vertex 30 178.586 8.08579
      vertex 0 178.152 8.73463
      vertex 30 178.152 8.73463
    endloop
  endfacet
  facet normal 0 0.831198 0.555977
    outer loop
      vertex 0 178.152 8.73463
      vertex 30 178.586 8.08579
      vertex 0 178.586 8.08579
    endloop
  endfacet
  facet normal -0 0.555483 0.831528
    outer loop
      vertex 0 179.235 7.65224
      vertex 30 178.586 8.08579
      vertex 30 179.235 7.65224
    endloop
  endfacet
  facet normal 0 0.555483 0.831528
    outer loop
      vertex 30 178.586 8.08579
      vertex 0 179.235 7.65224
      vertex 0 178.586 8.08579
    endloop
  endfacet
  facet normal -0 0.195179 0.980768
    outer loop
      vertex 0 180 7.5
      vertex 30 179.235 7.65224
      vertex 30 180 7.5
    endloop
  endfacet
  facet normal 0 0.195179 0.980768
    outer loop
      vertex 30 179.235 7.65224
      vertex 0 180 7.5
      vertex 0 179.235 7.65224
    endloop
  endfacet
  facet normal 0 0.555528 -0.831498
    outer loop
      vertex 0 178.586 10.9142
      vertex 30 179.235 11.3478
      vertex 30 178.586 10.9142
    endloop
  endfacet
  facet normal 0 0.555528 -0.831498
    outer loop
      vertex 30 179.235 11.3478
      vertex 0 178.586 10.9142
      vertex 0 179.235 11.3478
    endloop
  endfacet
  facet normal 0 0.980844 0.194793
    outer loop
      vertex 30 178.152 8.73463
      vertex 0 178 9.5
      vertex 30 178 9.5
    endloop
  endfacet
  facet normal 0 0.980844 0.194793
    outer loop
      vertex 0 178 9.5
      vertex 30 178.152 8.73463
      vertex 0 178.152 8.73463
    endloop
  endfacet
  facet normal -1 0 0
    outer loop
      vertex 30 181.848 8.73463
      vertex 30 181.848 10.2654
      vertex 30 182 9.5
    endloop
  endfacet
  facet normal -1 0 0
    outer loop
      vertex 30 181.414 8.08579
      vertex 30 181.848 10.2654
      vertex 30 181.848 8.73463
    endloop
  endfacet
  facet normal -1 0 0
    outer loop
      vertex 30 181.414 8.08579
      vertex 30 181.414 10.9142
      vertex 30 181.848 10.2654
    endloop
  endfacet
  facet normal -1 0 0
    outer loop
      vertex 30 180.765 7.65224
      vertex 30 181.414 10.9142
      vertex 30 181.414 8.08579
    endloop
  endfacet
  facet normal -1 0 0
    outer loop
      vertex 30 180.765 7.65224
      vertex 30 180.765 11.3478
      vertex 30 181.414 10.9142
    endloop
  endfacet
  facet normal -1 0 0
    outer loop
      vertex 30 180 7.5
      vertex 30 180.765 11.3478
      vertex 30 180.765 7.65224
    endloop
  endfacet
  facet normal -1 0 0
    outer loop
      vertex 30 180 7.5
      vertex 30 180 11.5
      vertex 30 180.765 11.3478
    endloop
  endfacet
  facet normal -1 0 0
    outer loop
      vertex 30 179.235 7.65224
      vertex 30 180 11.5
      vertex 30 180 7.5
    endloop
  endfacet
  facet normal -1 0 0
    outer loop
      vertex 30 179.235 7.65224
      vertex 30 179.235 11.3478
      vertex 30 180 11.5
    endloop
  endfacet
  facet normal -1 0 0
    outer loop
      vertex 30 178.586 8.08579
      vertex 30 179.235 11.3478
      vertex 30 179.235 7.65224
    endloop
  endfacet
  facet normal -1 0 0
    outer loop
      vertex 30 178.586 8.08579
      vertex 30 178.586 10.9142
      vertex 30 179.235 11.3478
    endloop
  endfacet
  facet normal -1 0 0
    outer loop
      vertex 30 178.152 8.73463
      vertex 30 178.586 10.9142
      vertex 30 178.586 8.08579
    endloop
  endfacet
  facet normal -1 0 0
    outer loop
      vertex 30 178.152 8.73463
      vertex 30 178.152 10.2654
      vertex 30 178.586 10.9142
    endloop
  endfacet
  facet normal -1 0 -0
    outer loop
      vertex 30 178.152 10.2654
      vertex 30 178.152 8.73463
      vertex 30 178 9.5
    endloop
  endfacet
  facet normal 0 0.19513 -0.980777
    outer loop
      vertex 0 179.235 11.3478
      vertex 30 180 11.5
      vertex 30 179.235 11.3478
    endloop
  endfacet
  facet normal 0 0.19513 -0.980777
    outer loop
      vertex 30 180 11.5
      vertex 0 179.235 11.3478
      vertex 0 180 11.5
    endloop
  endfacet
  facet normal 0 0.980846 -0.194785
    outer loop
      vertex 30 178 9.5
      vertex 0 178.152 10.2654
      vertex 30 178.152 10.2654
    endloop
  endfacet
  facet normal 0 0.980846 -0.194785
    outer loop
      vertex 0 178.152 10.2654
      vertex 30 178 9.5
      vertex 0 178 9.5
    endloop
  endfacet
  facet normal 0 0.831182 -0.556
    outer loop
      vertex 30 178.152 10.2654
      vertex 0 178.586 10.9142
      vertex 30 178.586 10.9142
    endloop
  endfacet
  facet normal 0 0.831182 -0.556
    outer loop
      vertex 0 178.586 10.9142
      vertex 30 178.152 10.2654
      vertex 0 178.152 10.2654
    endloop
  endfacet
  facet normal 0 -0.195032 -0.980797
    outer loop
      vertex 532 50 11.5
      vertex 562 50.7654 11.3478
      vertex 562 50 11.5
    endloop
  endfacet
  facet normal -0 -0.195032 -0.980797
    outer loop
      vertex 562 50.7654 11.3478
      vertex 532 50 11.5
      vertex 532 50.7654 11.3478
    endloop
  endfacet
  facet normal 0 -0.555646 -0.831419
    outer loop
      vertex 532 50.7654 11.3478
      vertex 562 51.4142 10.9142
      vertex 562 50.7654 11.3478
    endloop
  endfacet
  facet normal -0 -0.555646 -0.831419
    outer loop
      vertex 562 51.4142 10.9142
      vertex 532 50.7654 11.3478
      vertex 532 51.4142 10.9142
    endloop
  endfacet
  facet normal -0 0.195081 0.980787
    outer loop
      vertex 532 50 7.5
      vertex 562 49.2346 7.65224
      vertex 562 50 7.5
    endloop
  endfacet
  facet normal 0 0.195081 0.980787
    outer loop
      vertex 562 49.2346 7.65224
      vertex 532 50 7.5
      vertex 532 49.2346 7.65224
    endloop
  endfacet
  facet normal 0 -0.980795 0.195039
    outer loop
      vertex 532 51.8478 8.73463
      vertex 562 52 9.5
      vertex 532 52 9.5
    endloop
  endfacet
  facet normal 0 -0.980795 0.195039
    outer loop
      vertex 562 52 9.5
      vertex 532 51.8478 8.73463
      vertex 562 51.8478 8.73463
    endloop
  endfacet
  facet normal 0 0.831419 -0.555646
    outer loop
      vertex 562 48.1522 10.2654
      vertex 532 48.5858 10.9142
      vertex 562 48.5858 10.9142
    endloop
  endfacet
  facet normal 0 0.831419 -0.555646
    outer loop
      vertex 532 48.5858 10.9142
      vertex 562 48.1522 10.2654
      vertex 532 48.1522 10.2654
    endloop
  endfacet
  facet normal 0 0.831435 0.555622
    outer loop
      vertex 562 48.5858 8.08579
      vertex 532 48.1522 8.73463
      vertex 562 48.1522 8.73463
    endloop
  endfacet
  facet normal 0 0.831435 0.555622
    outer loop
      vertex 532 48.1522 8.73463
      vertex 562 48.5858 8.08579
      vertex 532 48.5858 8.08579
    endloop
  endfacet
  facet normal 0 -0.555602 0.831448
    outer loop
      vertex 532 51.4142 8.08579
      vertex 562 50.7654 7.65224
      vertex 562 51.4142 8.08579
    endloop
  endfacet
  facet normal 0 -0.555602 0.831448
    outer loop
      vertex 562 50.7654 7.65224
      vertex 532 51.4142 8.08579
      vertex 532 50.7654 7.65224
    endloop
  endfacet
  facet normal 0 -0.831435 0.555622
    outer loop
      vertex 532 51.4142 8.08579
      vertex 562 51.8478 8.73463
      vertex 532 51.8478 8.73463
    endloop
  endfacet
  facet normal 0 -0.831435 0.555622
    outer loop
      vertex 562 51.8478 8.73463
      vertex 532 51.4142 8.08579
      vertex 562 51.4142 8.08579
    endloop
  endfacet
  facet normal 1 0 0
    outer loop
      vertex 562 230 19
      vertex 562 182 9.5
      vertex 562 230 0
    endloop
  endfacet
  facet normal 1 0 0
    outer loop
      vertex 562 230 19
      vertex 562 181.848 10.2654
      vertex 562 182 9.5
    endloop
  endfacet
  facet normal 1 0 0
    outer loop
      vertex 562 230 19
      vertex 562 181.414 10.9142
      vertex 562 181.848 10.2654
    endloop
  endfacet
  facet normal 1 0 0
    outer loop
      vertex 562 230 19
      vertex 562 180.765 11.3478
      vertex 562 181.414 10.9142
    endloop
  endfacet
  facet normal 1 0 0
    outer loop
      vertex 562 230 19
      vertex 562 180 11.5
      vertex 562 180.765 11.3478
    endloop
  endfacet
  facet normal 1 0 0
    outer loop
      vertex 562 178.152 10.2654
      vertex 562 52 9.5
      vertex 562 178 9.5
    endloop
  endfacet
  facet normal 1 0 0
    outer loop
      vertex 562 51.8478 10.2654
      vertex 562 178.152 10.2654
      vertex 562 178.586 10.9142
    endloop
  endfacet
  facet normal 1 0 0
    outer loop
      vertex 562 51.4142 10.9142
      vertex 562 178.586 10.9142
      vertex 562 179.235 11.3478
    endloop
  endfacet
  facet normal 1 0 0
    outer loop
      vertex 562 50.7654 11.3478
      vertex 562 179.235 11.3478
      vertex 562 180 11.5
    endloop
  endfacet
  facet normal 1 0 0
    outer loop
      vertex 562 50 11.5
      vertex 562 180 11.5
      vertex 562 230 19
    endloop
  endfacet
  facet normal 1 0 0
    outer loop
      vertex 562 178.152 10.2654
      vertex 562 51.8478 10.2654
      vertex 562 52 9.5
    endloop
  endfacet
  facet normal 1 0 0
    outer loop
      vertex 562 178.586 10.9142
      vertex 562 51.4142 10.9142
      vertex 562 51.8478 10.2654
    endloop
  endfacet
  facet normal 1 0 0
    outer loop
      vertex 562 179.235 11.3478
      vertex 562 50.7654 11.3478
      vertex 562 51.4142 10.9142
    endloop
  endfacet
  facet normal 1 0 0
    outer loop
      vertex 562 180 11.5
      vertex 562 50 11.5
      vertex 562 50.7654 11.3478
    endloop
  endfacet
  facet normal 1 0 0
    outer loop
      vertex 562 48.1522 10.2654
      vertex 562 0 19
      vertex 562 48 9.5
    endloop
  endfacet
  facet normal 1 0 0
    outer loop
      vertex 562 48.5858 10.9142
      vertex 562 0 19
      vertex 562 48.1522 10.2654
    endloop
  endfacet
  facet normal 1 0 0
    outer loop
      vertex 562 49.2346 11.3478
      vertex 562 0 19
      vertex 562 48.5858 10.9142
    endloop
  endfacet
  facet normal 1 0 0
    outer loop
      vertex 562 50 11.5
      vertex 562 0 19
      vertex 562 49.2346 11.3478
    endloop
  endfacet
  facet normal 1 -0 0
    outer loop
      vertex 562 0 19
      vertex 562 50 11.5
      vertex 562 230 19
    endloop
  endfacet
  facet normal 1 -0 0
    outer loop
      vertex 562 181.848 8.73463
      vertex 562 230 0
      vertex 562 182 9.5
    endloop
  endfacet
  facet normal 1 -0 0
    outer loop
      vertex 562 181.414 8.08579
      vertex 562 230 0
      vertex 562 181.848 8.73463
    endloop
  endfacet
  facet normal 1 -0 0
    outer loop
      vertex 562 180.765 7.65224
      vertex 562 230 0
      vertex 562 181.414 8.08579
    endloop
  endfacet
  facet normal 1 -0 0
    outer loop
      vertex 562 180 7.5
      vertex 562 230 0
      vertex 562 180.765 7.65224
    endloop
  endfacet
  facet normal 1 -0 0
    outer loop
      vertex 562 52 9.5
      vertex 562 178.152 8.73463
      vertex 562 178 9.5
    endloop
  endfacet
  facet normal 1 0 0
    outer loop
      vertex 562 51.8478 8.73463
      vertex 562 178.152 8.73463
      vertex 562 52 9.5
    endloop
  endfacet
  facet normal 1 0 0
    outer loop
      vertex 562 178.152 8.73463
      vertex 562 51.8478 8.73463
      vertex 562 178.586 8.08579
    endloop
  endfacet
  facet normal 1 0 0
    outer loop
      vertex 562 51.4142 8.08579
      vertex 562 178.586 8.08579
      vertex 562 51.8478 8.73463
    endloop
  endfacet
  facet normal 1 0 0
    outer loop
      vertex 562 178.586 8.08579
      vertex 562 51.4142 8.08579
      vertex 562 179.235 7.65224
    endloop
  endfacet
  facet normal 1 0 0
    outer loop
      vertex 562 50.7654 7.65224
      vertex 562 179.235 7.65224
      vertex 562 51.4142 8.08579
    endloop
  endfacet
  facet normal 1 0 0
    outer loop
      vertex 562 179.235 7.65224
      vertex 562 50.7654 7.65224
      vertex 562 180 7.5
    endloop
  endfacet
  facet normal 1 0 0
    outer loop
      vertex 562 50 7.5
      vertex 562 180 7.5
      vertex 562 50.7654 7.65224
    endloop
  endfacet
  facet normal 1 0 0
    outer loop
      vertex 562 180 7.5
      vertex 562 50 7.5
      vertex 562 230 0
    endloop
  endfacet
  facet normal 1 0 0
    outer loop
      vertex 562 0 0
      vertex 562 48 9.5
      vertex 562 0 19
    endloop
  endfacet
  facet normal 1 0 0
    outer loop
      vertex 562 48 9.5
      vertex 562 0 0
      vertex 562 48.1522 8.73463
    endloop
  endfacet
  facet normal 1 0 0
    outer loop
      vertex 562 48.1522 8.73463
      vertex 562 0 0
      vertex 562 48.5858 8.08579
    endloop
  endfacet
  facet normal 1 0 0
    outer loop
      vertex 562 50 7.5
      vertex 562 0 0
      vertex 562 230 0
    endloop
  endfacet
  facet normal 1 0 0
    outer loop
      vertex 562 49.2346 7.65224
      vertex 562 0 0
      vertex 562 50 7.5
    endloop
  endfacet
  facet normal 1 0 0
    outer loop
      vertex 562 48.5858 8.08579
      vertex 562 0 0
      vertex 562 49.2346 7.65224
    endloop
  endfacet
  facet normal 1 0 0
    outer loop
      vertex 532 51.8478 10.2654
      vertex 532 51.8478 8.73463
      vertex 532 52 9.5
    endloop
  endfacet
  facet normal 1 0 0
    outer loop
      vertex 532 51.4142 10.9142
      vertex 532 51.8478 8.73463
      vertex 532 51.8478 10.2654
    endloop
  endfacet
  facet normal 1 0 0
    outer loop
      vertex 532 51.4142 10.9142
      vertex 532 51.4142 8.08579
      vertex 532 51.8478 8.73463
    endloop
  endfacet
  facet normal 1 0 0
    outer loop
      vertex 532 50.7654 11.3478
      vertex 532 51.4142 8.08579
      vertex 532 51.4142 10.9142
    endloop
  endfacet
  facet normal 1 0 0
    outer loop
      vertex 532 50.7654 11.3478
      vertex 532 50.7654 7.65224
      vertex 532 51.4142 8.08579
    endloop
  endfacet
  facet normal 1 0 0
    outer loop
      vertex 532 50 11.5
      vertex 532 50.7654 7.65224
      vertex 532 50.7654 11.3478
    endloop
  endfacet
  facet normal 1 0 0
    outer loop
      vertex 532 50 11.5
      vertex 532 50 7.5
      vertex 532 50.7654 7.65224
    endloop
  endfacet
  facet normal 1 -0 0
    outer loop
      vertex 532 49.2346 11.3478
      vertex 532 50 7.5
      vertex 532 50 11.5
    endloop
  endfacet
  facet normal 1 0 0
    outer loop
      vertex 532 49.2346 11.3478
      vertex 532 49.2346 7.65224
      vertex 532 50 7.5
    endloop
  endfacet
  facet normal 1 -0 0
    outer loop
      vertex 532 48.5858 10.9142
      vertex 532 49.2346 7.65224
      vertex 532 49.2346 11.3478
    endloop
  endfacet
  facet normal 1 0 0
    outer loop
      vertex 532 48.5858 10.9142
      vertex 532 48.5858 8.08579
      vertex 532 49.2346 7.65224
    endloop
  endfacet
  facet normal 1 -0 0
    outer loop
      vertex 532 48.1522 10.2654
      vertex 532 48.5858 8.08579
      vertex 532 48.5858 10.9142
    endloop
  endfacet
  facet normal 1 0 0
    outer loop
      vertex 532 48.1522 10.2654
      vertex 532 48.1522 8.73463
      vertex 532 48.5858 8.08579
    endloop
  endfacet
  facet normal 1 0 -0
    outer loop
      vertex 532 48.1522 8.73463
      vertex 532 48.1522 10.2654
      vertex 532 48 9.5
    endloop
  endfacet
  facet normal -0 0.555602 0.831448
    outer loop
      vertex 532 49.2346 7.65224
      vertex 562 48.5858 8.08579
      vertex 562 49.2346 7.65224
    endloop
  endfacet
  facet normal 0 0.555602 0.831448
    outer loop
      vertex 562 48.5858 8.08579
      vertex 532 49.2346 7.65224
      vertex 532 48.5858 8.08579
    endloop
  endfacet
  facet normal 0 -0.831419 -0.555646
    outer loop
      vertex 532 51.8478 10.2654
      vertex 562 51.4142 10.9142
      vertex 532 51.4142 10.9142
    endloop
  endfacet
  facet normal 0 -0.831419 -0.555646
    outer loop
      vertex 562 51.4142 10.9142
      vertex 532 51.8478 10.2654
      vertex 562 51.8478 10.2654
    endloop
  endfacet
  facet normal 0 -0.980797 -0.195032
    outer loop
      vertex 532 52 9.5
      vertex 562 51.8478 10.2654
      vertex 532 51.8478 10.2654
    endloop
  endfacet
  facet normal 0 -0.980797 -0.195032
    outer loop
      vertex 562 51.8478 10.2654
      vertex 532 52 9.5
      vertex 562 52 9.5
    endloop
  endfacet
  facet normal 0 -0.195081 0.980787
    outer loop
      vertex 532 50.7654 7.65224
      vertex 562 50 7.5
      vertex 562 50.7654 7.65224
    endloop
  endfacet
  facet normal 0 -0.195081 0.980787
    outer loop
      vertex 562 50 7.5
      vertex 532 50.7654 7.65224
      vertex 532 50 7.5
    endloop
  endfacet
  facet normal 0 0.555646 -0.831419
    outer loop
      vertex 532 48.5858 10.9142
      vertex 562 49.2346 11.3478
      vertex 562 48.5858 10.9142
    endloop
  endfacet
  facet normal 0 0.555646 -0.831419
    outer loop
      vertex 562 49.2346 11.3478
      vertex 532 48.5858 10.9142
      vertex 532 49.2346 11.3478
    endloop
  endfacet
  facet normal 0 0.195032 -0.980797
    outer loop
      vertex 532 49.2346 11.3478
      vertex 562 50 11.5
      vertex 562 49.2346 11.3478
    endloop
  endfacet
  facet normal 0 0.195032 -0.980797
    outer loop
      vertex 562 50 11.5
      vertex 532 49.2346 11.3478
      vertex 532 50 11.5
    endloop
  endfacet
  facet normal 0 0.980795 0.195039
    outer loop
      vertex 562 48.1522 8.73463
      vertex 532 48 9.5
      vertex 562 48 9.5
    endloop
  endfacet
  facet normal 0 0.980795 0.195039
    outer loop
      vertex 532 48 9.5
      vertex 562 48.1522 8.73463
      vertex 532 48.1522 8.73463
    endloop
  endfacet
  facet normal 0 0.980797 -0.195032
    outer loop
      vertex 562 48 9.5
      vertex 532 48.1522 10.2654
      vertex 562 48.1522 10.2654
    endloop
  endfacet
  facet normal 0 0.980797 -0.195032
    outer loop
      vertex 532 48.1522 10.2654
      vertex 562 48 9.5
      vertex 532 48 9.5
    endloop
  endfacet
  facet normal 0 -0.19513 -0.980777
    outer loop
      vertex 532 180 11.5
      vertex 562 180.765 11.3478
      vertex 562 180 11.5
    endloop
  endfacet
  facet normal -0 -0.19513 -0.980777
    outer loop
      vertex 562 180.765 11.3478
      vertex 532 180 11.5
      vertex 532 180.765 11.3478
    endloop
  endfacet
  facet normal -0 0.195179 0.980768
    outer loop
      vertex 532 180 7.5
      vertex 562 179.235 7.65224
      vertex 562 180 7.5
    endloop
  endfacet
  facet normal 0 0.195179 0.980768
    outer loop
      vertex 562 179.235 7.65224
      vertex 532 180 7.5
      vertex 532 179.235 7.65224
    endloop
  endfacet
  facet normal 0 0.831182 -0.556
    outer loop
      vertex 562 178.152 10.2654
      vertex 532 178.586 10.9142
      vertex 562 178.586 10.9142
    endloop
  endfacet
  facet normal 0 0.831182 -0.556
    outer loop
      vertex 532 178.586 10.9142
      vertex 562 178.152 10.2654
      vertex 532 178.152 10.2654
    endloop
  endfacet
  facet normal 0 0.980846 -0.194785
    outer loop
      vertex 562 178 9.5
      vertex 532 178.152 10.2654
      vertex 562 178.152 10.2654
    endloop
  endfacet
  facet normal 0 0.980846 -0.194785
    outer loop
      vertex 532 178.152 10.2654
      vertex 562 178 9.5
      vertex 532 178 9.5
    endloop
  endfacet
  facet normal 0 -0.980844 0.194793
    outer loop
      vertex 532 181.848 8.73463
      vertex 562 182 9.5
      vertex 532 182 9.5
    endloop
  endfacet
  facet normal 0 -0.980844 0.194793
    outer loop
      vertex 562 182 9.5
      vertex 532 181.848 8.73463
      vertex 562 181.848 8.73463
    endloop
  endfacet
  facet normal 0 -0.980846 -0.194785
    outer loop
      vertex 532 182 9.5
      vertex 562 181.848 10.2654
      vertex 532 181.848 10.2654
    endloop
  endfacet
  facet normal 0 -0.980846 -0.194785
    outer loop
      vertex 562 181.848 10.2654
      vertex 532 182 9.5
      vertex 562 182 9.5
    endloop
  endfacet
  facet normal 0 0.555528 -0.831498
    outer loop
      vertex 532 178.586 10.9142
      vertex 562 179.235 11.3478
      vertex 562 178.586 10.9142
    endloop
  endfacet
  facet normal 0 0.555528 -0.831498
    outer loop
      vertex 562 179.235 11.3478
      vertex 532 178.586 10.9142
      vertex 532 179.235 11.3478
    endloop
  endfacet
  facet normal 0 0.831198 0.555977
    outer loop
      vertex 562 178.586 8.08579
      vertex 532 178.152 8.73463
      vertex 562 178.152 8.73463
    endloop
  endfacet
  facet normal 0 0.831198 0.555977
    outer loop
      vertex 532 178.152 8.73463
      vertex 562 178.586 8.08579
      vertex 532 178.586 8.08579
    endloop
  endfacet
  facet normal 0 -0.555528 -0.831498
    outer loop
      vertex 532 180.765 11.3478
      vertex 562 181.414 10.9142
      vertex 562 180.765 11.3478
    endloop
  endfacet
  facet normal -0 -0.555528 -0.831498
    outer loop
      vertex 562 181.414 10.9142
      vertex 532 180.765 11.3478
      vertex 532 181.414 10.9142
    endloop
  endfacet
  facet normal 0 -0.831182 -0.556
    outer loop
      vertex 532 181.848 10.2654
      vertex 562 181.414 10.9142
      vertex 532 181.414 10.9142
    endloop
  endfacet
  facet normal 0 -0.831182 -0.556
    outer loop
      vertex 562 181.414 10.9142
      vertex 532 181.848 10.2654
      vertex 562 181.848 10.2654
    endloop
  endfacet
  facet normal 0 -0.195179 0.980768
    outer loop
      vertex 532 180.765 7.65224
      vertex 562 180 7.5
      vertex 562 180.765 7.65224
    endloop
  endfacet
  facet normal 0 -0.195179 0.980768
    outer loop
      vertex 562 180 7.5
      vertex 532 180.765 7.65224
      vertex 532 180 7.5
    endloop
  endfacet
  facet normal 0 -0.831198 0.555977
    outer loop
      vertex 532 181.414 8.08579
      vertex 562 181.848 8.73463
      vertex 532 181.848 8.73463
    endloop
  endfacet
  facet normal 0 -0.831198 0.555977
    outer loop
      vertex 562 181.848 8.73463
      vertex 532 181.414 8.08579
      vertex 562 181.414 8.08579
    endloop
  endfacet
  facet normal 0 -0.555483 0.831528
    outer loop
      vertex 532 181.414 8.08579
      vertex 562 180.765 7.65224
      vertex 562 181.414 8.08579
    endloop
  endfacet
  facet normal 0 -0.555483 0.831528
    outer loop
      vertex 562 180.765 7.65224
      vertex 532 181.414 8.08579
      vertex 532 180.765 7.65224
    endloop
  endfacet
  facet normal 0 0.19513 -0.980777
    outer loop
      vertex 532 179.235 11.3478
      vertex 562 180 11.5
      vertex 562 179.235 11.3478
    endloop
  endfacet
  facet normal 0 0.19513 -0.980777
    outer loop
      vertex 562 180 11.5
      vertex 532 179.235 11.3478
      vertex 532 180 11.5
    endloop
  endfacet
  facet normal 1 0 0
    outer loop
      vertex 532 181.848 10.2654
      vertex 532 181.848 8.73463
      vertex 532 182 9.5
    endloop
  endfacet
  facet normal 1 0 0
    outer loop
      vertex 532 181.414 10.9142
      vertex 532 181.848 8.73463
      vertex 532 181.848 10.2654
    endloop
  endfacet
  facet normal 1 0 0
    outer loop
      vertex 532 181.414 10.9142
      vertex 532 181.414 8.08579
      vertex 532 181.848 8.73463
    endloop
  endfacet
  facet normal 1 0 0
    outer loop
      vertex 532 180.765 11.3478
      vertex 532 181.414 8.08579
      vertex 532 181.414 10.9142
    endloop
  endfacet
  facet normal 1 0 0
    outer loop
      vertex 532 180.765 11.3478
      vertex 532 180.765 7.65224
      vertex 532 181.414 8.08579
    endloop
  endfacet
  facet normal 1 0 0
    outer loop
      vertex 532 180 11.5
      vertex 532 180.765 7.65224
      vertex 532 180.765 11.3478
    endloop
  endfacet
  facet normal 1 0 0
    outer loop
      vertex 532 180 11.5
      vertex 532 180 7.5
      vertex 532 180.765 7.65224
    endloop
  endfacet
  facet normal 1 -0 0
    outer loop
      vertex 532 179.235 11.3478
      vertex 532 180 7.5
      vertex 532 180 11.5
    endloop
  endfacet
  facet normal 1 0 0
    outer loop
      vertex 532 179.235 11.3478
      vertex 532 179.235 7.65224
      vertex 532 180 7.5
    endloop
  endfacet
  facet normal 1 -0 0
    outer loop
      vertex 532 178.586 10.9142
      vertex 532 179.235 7.65224
      vertex 532 179.235 11.3478
    endloop
  endfacet
  facet normal 1 0 0
    outer loop
      vertex 532 178.586 10.9142
      vertex 532 178.586 8.08579
      vertex 532 179.235 7.65224
    endloop
  endfacet
  facet normal 1 -0 0
    outer loop
      vertex 532 178.152 10.2654
      vertex 532 178.586 8.08579
      vertex 532 178.586 10.9142
    endloop
  endfacet
  facet normal 1 0 0
    outer loop
      vertex 532 178.152 10.2654
      vertex 532 178.152 8.73463
      vertex 532 178.586 8.08579
    endloop
  endfacet
  facet normal 1 0 -0
    outer loop
      vertex 532 178.152 8.73463
      vertex 532 178.152 10.2654
      vertex 532 178 9.5
    endloop
  endfacet
  facet normal 0 0.980844 0.194793
    outer loop
      vertex 562 178.152 8.73463
      vertex 532 178 9.5
      vertex 562 178 9.5
    endloop
  endfacet
  facet normal 0 0.980844 0.194793
    outer loop
      vertex 532 178 9.5
      vertex 562 178.152 8.73463
      vertex 532 178.152 8.73463
    endloop
  endfacet
  facet normal -0 0.555483 0.831528
    outer loop
      vertex 532 179.235 7.65224
      vertex 562 178.586 8.08579
      vertex 562 179.235 7.65224
    endloop
  endfacet
  facet normal 0 0.555483 0.831528
    outer loop
      vertex 562 178.586 8.08579
      vertex 532 179.235 7.65224
      vertex 532 178.586 8.08579
    endloop
  endfacet
  facet normal -0 0 1
    outer loop
      vertex 0 230 19
      vertex 562 0 19
      vertex 562 230 19
    endloop
  endfacet
  facet normal 0 0 1
    outer loop
      vertex 562 0 19
      vertex 0 230 19
      vertex 0 0 19
    endloop
  endfacet
  facet normal 0 1 -0
    outer loop
      vertex 562 230 0
      vertex 0 230 19
      vertex 562 230 19
    endloop
  endfacet
  facet normal 0 1 0
    outer loop
      vertex 0 230 19
      vertex 562 230 0
      vertex 0 230 0
    endloop
  endfacet
  facet normal 0 0 -1
    outer loop
      vertex 0 0 0
      vertex 562 230 0
      vertex 562 0 0
    endloop
  endfacet
  facet normal -0 0 -1
    outer loop
      vertex 562 230 0
      vertex 0 0 0
      vertex 0 230 0
    endloop
  endfacet
  facet normal 0 -1 0
    outer loop
      vertex 0 0 0
      vertex 562 0 19
      vertex 0 0 19
    endloop
  endfacet
  facet normal 0 -1 -0
    outer loop
      vertex 562 0 19
      vertex 0 0 0
      vertex 562 0 0
    endloop
  endfacet
endsolid OpenSCAD_Model
