solid OpenSCAD_Model
  facet normal 0 -1 0
    outer loop
      vertex 325.815 0 8.77164
      vertex 462 0 9
      vertex 324.667 0 9
    endloop
  endfacet
  facet normal 0 -1 0
    outer loop
      vertex 325.815 0 8.77164
      vertex 460.852 0 8.77164
      vertex 462 0 9
    endloop
  endfacet
  facet normal 0 -1 0
    outer loop
      vertex 326.788 0 8.12132
      vertex 460.852 0 8.77164
      vertex 325.815 0 8.77164
    endloop
  endfacet
  facet normal 0 -1 0
    outer loop
      vertex 326.788 0 8.12132
      vertex 459.879 0 8.12132
      vertex 460.852 0 8.77164
    endloop
  endfacet
  facet normal 0 -1 0
    outer loop
      vertex 327.438 0 7.14805
      vertex 459.879 0 8.12132
      vertex 326.788 0 8.12132
    endloop
  endfacet
  facet normal 0 -1 0
    outer loop
      vertex 327.438 0 7.14805
      vertex 459.228 0 7.14805
      vertex 459.879 0 8.12132
    endloop
  endfacet
  facet normal 0 -1 0
    outer loop
      vertex 327.667 0 6
      vertex 459.228 0 7.14805
      vertex 327.438 0 7.14805
    endloop
  endfacet
  facet normal 0 -1 0
    outer loop
      vertex 327.667 0 6
      vertex 459 0 6
      vertex 459.228 0 7.14805
    endloop
  endfacet
  facet normal 0 -1 0
    outer loop
      vertex 327.438 0 4.85195
      vertex 459 0 6
      vertex 327.667 0 6
    endloop
  endfacet
  facet normal 0 -1 0
    outer loop
      vertex 327.438 0 4.85195
      vertex 459.228 0 4.85195
      vertex 459 0 6
    endloop
  endfacet
  facet normal 0 -1 0
    outer loop
      vertex 326.788 0 3.87868
      vertex 459.228 0 4.85195
      vertex 327.438 0 4.85195
    endloop
  endfacet
  facet normal 0 -1 0
    outer loop
      vertex 326.788 0 3.87868
      vertex 459.879 0 3.87868
      vertex 459.228 0 4.85195
    endloop
  endfacet
  facet normal 0 -1 0
    outer loop
      vertex 325.815 0 3.22836
      vertex 459.879 0 3.87868
      vertex 326.788 0 3.87868
    endloop
  endfacet
  facet normal 0 -1 0
    outer loop
      vertex 325.815 0 3.22836
      vertex 460.852 0 3.22836
      vertex 459.879 0 3.87868
    endloop
  endfacet
  facet normal 0 -1 0
    outer loop
      vertex 324.667 0 3
      vertex 460.852 0 3.22836
      vertex 325.815 0 3.22836
    endloop
  endfacet
  facet normal 0 -1 -0
    outer loop
      vertex 460.852 0 3.22836
      vertex 324.667 0 3
      vertex 462 0 3
    endloop
  endfacet
  facet normal 0 -1 0
    outer loop
      vertex 188.481 0 8.77164
      vertex 324.667 0 9
      vertex 187.333 0 9
    endloop
  endfacet
  facet normal 0 -1 0
    outer loop
      vertex 188.481 0 8.77164
      vertex 323.519 0 8.77164
      vertex 324.667 0 9
    endloop
  endfacet
  facet normal 0 -1 0
    outer loop
      vertex 189.455 0 8.12132
      vertex 323.519 0 8.77164
      vertex 188.481 0 8.77164
    endloop
  endfacet
  facet normal 0 -1 0
    outer loop
      vertex 189.455 0 8.12132
      vertex 322.545 0 8.12132
      vertex 323.519 0 8.77164
    endloop
  endfacet
  facet normal 0 -1 0
    outer loop
      vertex 190.105 0 7.14805
      vertex 322.545 0 8.12132
      vertex 189.455 0 8.12132
    endloop
  endfacet
  facet normal 0 -1 0
    outer loop
      vertex 190.105 0 7.14805
      vertex 321.895 0 7.14805
      vertex 322.545 0 8.12132
    endloop
  endfacet
  facet normal 0 -1 0
    outer loop
      vertex 190.333 0 6
      vertex 321.895 0 7.14805
      vertex 190.105 0 7.14805
    endloop
  endfacet
  facet normal 0 -1 0
    outer loop
      vertex 190.333 0 6
      vertex 321.667 0 6
      vertex 321.895 0 7.14805
    endloop
  endfacet
  facet normal 0 -1 0
    outer loop
      vertex 190.105 0 4.85195
      vertex 321.667 0 6
      vertex 190.333 0 6
    endloop
  endfacet
  facet normal 0 -1 0
    outer loop
      vertex 190.105 0 4.85195
      vertex 321.895 0 4.85195
      vertex 321.667 0 6
    endloop
  endfacet
  facet normal 0 -1 0
    outer loop
      vertex 189.455 0 3.87868
      vertex 321.895 0 4.85195
      vertex 190.105 0 4.85195
    endloop
  endfacet
  facet normal 0 -1 0
    outer loop
      vertex 189.455 0 3.87868
      vertex 322.545 0 3.87868
      vertex 321.895 0 4.85195
    endloop
  endfacet
  facet normal 0 -1 0
    outer loop
      vertex 188.481 0 3.22836
      vertex 322.545 0 3.87868
      vertex 189.455 0 3.87868
    endloop
  endfacet
  facet normal 0 -1 0
    outer loop
      vertex 188.481 0 3.22836
      vertex 323.519 0 3.22836
      vertex 322.545 0 3.87868
    endloop
  endfacet
  facet normal 0 -1 0
    outer loop
      vertex 187.333 0 3
      vertex 323.519 0 3.22836
      vertex 188.481 0 3.22836
    endloop
  endfacet
  facet normal 0 -1 -0
    outer loop
      vertex 323.519 0 3.22836
      vertex 187.333 0 3
      vertex 324.667 0 3
    endloop
  endfacet
  facet normal 0 -1 0
    outer loop
      vertex 51.148 0 8.77164
      vertex 187.333 0 9
      vertex 50 0 9
    endloop
  endfacet
  facet normal 0 -1 0
    outer loop
      vertex 51.148 0 8.77164
      vertex 186.185 0 8.77164
      vertex 187.333 0 9
    endloop
  endfacet
  facet normal 0 -1 0
    outer loop
      vertex 52.1213 0 8.12132
      vertex 186.185 0 8.77164
      vertex 51.148 0 8.77164
    endloop
  endfacet
  facet normal 0 -1 0
    outer loop
      vertex 52.1213 0 8.12132
      vertex 185.212 0 8.12132
      vertex 186.185 0 8.77164
    endloop
  endfacet
  facet normal 0 -1 0
    outer loop
      vertex 52.7716 0 7.14805
      vertex 185.212 0 8.12132
      vertex 52.1213 0 8.12132
    endloop
  endfacet
  facet normal 0 -1 0
    outer loop
      vertex 52.7716 0 7.14805
      vertex 184.562 0 7.14805
      vertex 185.212 0 8.12132
    endloop
  endfacet
  facet normal 0 -1 0
    outer loop
      vertex 53 0 6
      vertex 184.562 0 7.14805
      vertex 52.7716 0 7.14805
    endloop
  endfacet
  facet normal 0 -1 0
    outer loop
      vertex 53 0 6
      vertex 184.333 0 6
      vertex 184.562 0 7.14805
    endloop
  endfacet
  facet normal 0 -1 0
    outer loop
      vertex 52.7716 0 4.85195
      vertex 184.333 0 6
      vertex 53 0 6
    endloop
  endfacet
  facet normal 0 -1 0
    outer loop
      vertex 52.7716 0 4.85195
      vertex 184.562 0 4.85195
      vertex 184.333 0 6
    endloop
  endfacet
  facet normal 0 -1 0
    outer loop
      vertex 52.1213 0 3.87868
      vertex 184.562 0 4.85195
      vertex 52.7716 0 4.85195
    endloop
  endfacet
  facet normal 0 -1 0
    outer loop
      vertex 52.1213 0 3.87868
      vertex 185.212 0 3.87868
      vertex 184.562 0 4.85195
    endloop
  endfacet
  facet normal 0 -1 0
    outer loop
      vertex 51.148 0 3.22836
      vertex 185.212 0 3.87868
      vertex 52.1213 0 3.87868
    endloop
  endfacet
  facet normal 0 -1 0
    outer loop
      vertex 51.148 0 3.22836
      vertex 186.185 0 3.22836
      vertex 185.212 0 3.87868
    endloop
  endfacet
  facet normal 0 -1 0
    outer loop
      vertex 50 0 3
      vertex 186.185 0 3.22836
      vertex 51.148 0 3.22836
    endloop
  endfacet
  facet normal 0 -1 -0
    outer loop
      vertex 186.185 0 3.22836
      vertex 50 0 3
      vertex 187.333 0 3
    endloop
  endfacet
  facet normal 0 -1 0
    outer loop
      vertex 187.333 0 9
      vertex 0 0 12
      vertex 50 0 9
    endloop
  endfacet
  facet normal 0 -1 0
    outer loop
      vertex 0 0 12
      vertex 48.852 0 8.77164
      vertex 50 0 9
    endloop
  endfacet
  facet normal 0 -1 0
    outer loop
      vertex 0 0 12
      vertex 47.8787 0 8.12132
      vertex 48.852 0 8.77164
    endloop
  endfacet
  facet normal 0 -1 0
    outer loop
      vertex 0 0 12
      vertex 47.2284 0 7.14805
      vertex 47.8787 0 8.12132
    endloop
  endfacet
  facet normal 0 -1 0
    outer loop
      vertex 0 0 12
      vertex 47 0 6
      vertex 47.2284 0 7.14805
    endloop
  endfacet
  facet normal 0 -1 0
    outer loop
      vertex 0 0 0
      vertex 47 0 6
      vertex 0 0 12
    endloop
  endfacet
  facet normal 0 -1 -0
    outer loop
      vertex 47 0 6
      vertex 0 0 0
      vertex 47.2284 0 4.85195
    endloop
  endfacet
  facet normal 0 -1 -0
    outer loop
      vertex 47.2284 0 4.85195
      vertex 0 0 0
      vertex 47.8787 0 3.87868
    endloop
  endfacet
  facet normal 0 -1 -0
    outer loop
      vertex 47.8787 0 3.87868
      vertex 0 0 0
      vertex 48.852 0 3.22836
    endloop
  endfacet
  facet normal 0 -1 0
    outer loop
      vertex 0 0 0
      vertex 187.333 0 3
      vertex 50 0 3
    endloop
  endfacet
  facet normal 0 -1 -0
    outer loop
      vertex 187.333 0 3
      vertex 0 0 0
      vertex 324.667 0 3
    endloop
  endfacet
  facet normal 0 -1 0
    outer loop
      vertex 512 0 0
      vertex 324.667 0 3
      vertex 0 0 0
    endloop
  endfacet
  facet normal 0 -1 -0
    outer loop
      vertex 48.852 0 3.22836
      vertex 0 0 0
      vertex 50 0 3
    endloop
  endfacet
  facet normal 0 -1 0
    outer loop
      vertex 0 0 12
      vertex 187.333 0 9
      vertex 512 0 12
    endloop
  endfacet
  facet normal 0 -1 0
    outer loop
      vertex 324.667 0 9
      vertex 512 0 12
      vertex 187.333 0 9
    endloop
  endfacet
  facet normal 0 -1 0
    outer loop
      vertex 462 0 9
      vertex 512 0 12
      vertex 324.667 0 9
    endloop
  endfacet
  facet normal 0 -1 0
    outer loop
      vertex 463.148 0 8.77164
      vertex 512 0 12
      vertex 462 0 9
    endloop
  endfacet
  facet normal 0 -1 0
    outer loop
      vertex 464.121 0 8.12132
      vertex 512 0 12
      vertex 463.148 0 8.77164
    endloop
  endfacet
  facet normal 0 -1 0
    outer loop
      vertex 464.772 0 7.14805
      vertex 512 0 12
      vertex 464.121 0 8.12132
    endloop
  endfacet
  facet normal 0 -1 0
    outer loop
      vertex 465 0 6
      vertex 512 0 12
      vertex 464.772 0 7.14805
    endloop
  endfacet
  facet normal 0 -1 0
    outer loop
      vertex 512 0 0
      vertex 465 0 6
      vertex 464.772 0 4.85195
    endloop
  endfacet
  facet normal 0 -1 0
    outer loop
      vertex 512 0 0
      vertex 464.772 0 4.85195
      vertex 464.121 0 3.87868
    endloop
  endfacet
  facet normal 0 -1 0
    outer loop
      vertex 512 0 0
      vertex 464.121 0 3.87868
      vertex 463.148 0 3.22836
    endloop
  endfacet
  facet normal 0 -1 0
    outer loop
      vertex 512 0 0
      vertex 463.148 0 3.22836
      vertex 462 0 3
    endloop
  endfacet
  facet normal 0 -1 0
    outer loop
      vertex 465 0 6
      vertex 512 0 0
      vertex 512 0 12
    endloop
  endfacet
  facet normal 0 -1 0
    outer loop
      vertex 324.667 0 3
      vertex 512 0 0
      vertex 462 0 3
    endloop
  endfacet
  facet normal 0 -1 0
    outer loop
      vertex 186.185 0 8.77164
      vertex 188.481 0 8.77164
      vertex 187.333 0 9
    endloop
  endfacet
  facet normal 0 -1 0
    outer loop
      vertex 185.212 0 8.12132
      vertex 188.481 0 8.77164
      vertex 186.185 0 8.77164
    endloop
  endfacet
  facet normal 0 -1 0
    outer loop
      vertex 185.212 0 8.12132
      vertex 189.455 0 8.12132
      vertex 188.481 0 8.77164
    endloop
  endfacet
  facet normal 0 -1 0
    outer loop
      vertex 184.562 0 7.14805
      vertex 189.455 0 8.12132
      vertex 185.212 0 8.12132
    endloop
  endfacet
  facet normal 0 -1 0
    outer loop
      vertex 184.562 0 7.14805
      vertex 190.105 0 7.14805
      vertex 189.455 0 8.12132
    endloop
  endfacet
  facet normal 0 -1 0
    outer loop
      vertex 184.333 0 6
      vertex 190.105 0 7.14805
      vertex 184.562 0 7.14805
    endloop
  endfacet
  facet normal 0 -1 0
    outer loop
      vertex 184.333 0 6
      vertex 190.333 0 6
      vertex 190.105 0 7.14805
    endloop
  endfacet
  facet normal 0 -1 0
    outer loop
      vertex 184.562 0 4.85195
      vertex 190.333 0 6
      vertex 184.333 0 6
    endloop
  endfacet
  facet normal 0 -1 0
    outer loop
      vertex 184.562 0 4.85195
      vertex 190.105 0 4.85195
      vertex 190.333 0 6
    endloop
  endfacet
  facet normal 0 -1 0
    outer loop
      vertex 185.212 0 3.87868
      vertex 190.105 0 4.85195
      vertex 184.562 0 4.85195
    endloop
  endfacet
  facet normal 0 -1 0
    outer loop
      vertex 185.212 0 3.87868
      vertex 189.455 0 3.87868
      vertex 190.105 0 4.85195
    endloop
  endfacet
  facet normal 0 -1 0
    outer loop
      vertex 186.185 0 3.22836
      vertex 189.455 0 3.87868
      vertex 185.212 0 3.87868
    endloop
  endfacet
  facet normal 0 -1 0
    outer loop
      vertex 186.185 0 3.22836
      vertex 188.481 0 3.22836
      vertex 189.455 0 3.87868
    endloop
  endfacet
  facet normal -0 -1 0
    outer loop
      vertex 188.481 0 3.22836
      vertex 186.185 0 3.22836
      vertex 187.333 0 3
    endloop
  endfacet
  facet normal 0 -1 0
    outer loop
      vertex 323.519 0 8.77164
      vertex 325.815 0 8.77164
      vertex 324.667 0 9
    endloop
  endfacet
  facet normal 0 -1 0
    outer loop
      vertex 322.545 0 8.12132
      vertex 325.815 0 8.77164
      vertex 323.519 0 8.77164
    endloop
  endfacet
  facet normal 0 -1 0
    outer loop
      vertex 322.545 0 8.12132
      vertex 326.788 0 8.12132
      vertex 325.815 0 8.77164
    endloop
  endfacet
  facet normal 0 -1 0
    outer loop
      vertex 321.895 0 7.14805
      vertex 326.788 0 8.12132
      vertex 322.545 0 8.12132
    endloop
  endfacet
  facet normal 0 -1 0
    outer loop
      vertex 321.895 0 7.14805
      vertex 327.438 0 7.14805
      vertex 326.788 0 8.12132
    endloop
  endfacet
  facet normal 0 -1 0
    outer loop
      vertex 321.667 0 6
      vertex 327.438 0 7.14805
      vertex 321.895 0 7.14805
    endloop
  endfacet
  facet normal 0 -1 0
    outer loop
      vertex 321.667 0 6
      vertex 327.667 0 6
      vertex 327.438 0 7.14805
    endloop
  endfacet
  facet normal 0 -1 0
    outer loop
      vertex 321.895 0 4.85195
      vertex 327.667 0 6
      vertex 321.667 0 6
    endloop
  endfacet
  facet normal 0 -1 0
    outer loop
      vertex 321.895 0 4.85195
      vertex 327.438 0 4.85195
      vertex 327.667 0 6
    endloop
  endfacet
  facet normal 0 -1 0
    outer loop
      vertex 322.545 0 3.87868
      vertex 327.438 0 4.85195
      vertex 321.895 0 4.85195
    endloop
  endfacet
  facet normal 0 -1 0
    outer loop
      vertex 322.545 0 3.87868
      vertex 326.788 0 3.87868
      vertex 327.438 0 4.85195
    endloop
  endfacet
  facet normal 0 -1 0
    outer loop
      vertex 323.519 0 3.22836
      vertex 326.788 0 3.87868
      vertex 322.545 0 3.87868
    endloop
  endfacet
  facet normal 0 -1 0
    outer loop
      vertex 323.519 0 3.22836
      vertex 325.815 0 3.22836
      vertex 326.788 0 3.87868
    endloop
  endfacet
  facet normal -0 -1 0
    outer loop
      vertex 325.815 0 3.22836
      vertex 323.519 0 3.22836
      vertex 324.667 0 3
    endloop
  endfacet
  facet normal 0 -1 0
    outer loop
      vertex 460.852 0 8.77164
      vertex 463.148 0 8.77164
      vertex 462 0 9
    endloop
  endfacet
  facet normal 0 -1 0
    outer loop
      vertex 459.879 0 8.12132
      vertex 463.148 0 8.77164
      vertex 460.852 0 8.77164
    endloop
  endfacet
  facet normal 0 -1 0
    outer loop
      vertex 459.879 0 8.12132
      vertex 464.121 0 8.12132
      vertex 463.148 0 8.77164
    endloop
  endfacet
  facet normal 0 -1 0
    outer loop
      vertex 459.228 0 7.14805
      vertex 464.121 0 8.12132
      vertex 459.879 0 8.12132
    endloop
  endfacet
  facet normal 0 -1 0
    outer loop
      vertex 459.228 0 7.14805
      vertex 464.772 0 7.14805
      vertex 464.121 0 8.12132
    endloop
  endfacet
  facet normal 0 -1 0
    outer loop
      vertex 459 0 6
      vertex 464.772 0 7.14805
      vertex 459.228 0 7.14805
    endloop
  endfacet
  facet normal 0 -1 0
    outer loop
      vertex 459 0 6
      vertex 465 0 6
      vertex 464.772 0 7.14805
    endloop
  endfacet
  facet normal 0 -1 0
    outer loop
      vertex 459.228 0 4.85195
      vertex 465 0 6
      vertex 459 0 6
    endloop
  endfacet
  facet normal 0 -1 0
    outer loop
      vertex 459.228 0 4.85195
      vertex 464.772 0 4.85195
      vertex 465 0 6
    endloop
  endfacet
  facet normal 0 -1 0
    outer loop
      vertex 459.879 0 3.87868
      vertex 464.772 0 4.85195
      vertex 459.228 0 4.85195
    endloop
  endfacet
  facet normal 0 -1 0
    outer loop
      vertex 459.879 0 3.87868
      vertex 464.121 0 3.87868
      vertex 464.772 0 4.85195
    endloop
  endfacet
  facet normal 0 -1 0
    outer loop
      vertex 460.852 0 3.22836
      vertex 464.121 0 3.87868
      vertex 459.879 0 3.87868
    endloop
  endfacet
  facet normal 0 -1 0
    outer loop
      vertex 460.852 0 3.22836
      vertex 463.148 0 3.22836
      vertex 464.121 0 3.87868
    endloop
  endfacet
  facet normal -0 -1 0
    outer loop
      vertex 463.148 0 3.22836
      vertex 460.852 0 3.22836
      vertex 462 0 3
    endloop
  endfacet
  facet normal 0 -1 0
    outer loop
      vertex 48.852 0 8.77164
      vertex 51.148 0 8.77164
      vertex 50 0 9
    endloop
  endfacet
  facet normal 0 -1 0
    outer loop
      vertex 47.8787 0 8.12132
      vertex 51.148 0 8.77164
      vertex 48.852 0 8.77164
    endloop
  endfacet
  facet normal 0 -1 0
    outer loop
      vertex 47.8787 0 8.12132
      vertex 52.1213 0 8.12132
      vertex 51.148 0 8.77164
    endloop
  endfacet
  facet normal 0 -1 0
    outer loop
      vertex 47.2284 0 7.14805
      vertex 52.1213 0 8.12132
      vertex 47.8787 0 8.12132
    endloop
  endfacet
  facet normal 0 -1 0
    outer loop
      vertex 47.2284 0 7.14805
      vertex 52.7716 0 7.14805
      vertex 52.1213 0 8.12132
    endloop
  endfacet
  facet normal 0 -1 0
    outer loop
      vertex 47 0 6
      vertex 52.7716 0 7.14805
      vertex 47.2284 0 7.14805
    endloop
  endfacet
  facet normal 0 -1 0
    outer loop
      vertex 47 0 6
      vertex 53 0 6
      vertex 52.7716 0 7.14805
    endloop
  endfacet
  facet normal 0 -1 0
    outer loop
      vertex 47.2284 0 4.85195
      vertex 53 0 6
      vertex 47 0 6
    endloop
  endfacet
  facet normal 0 -1 0
    outer loop
      vertex 47.2284 0 4.85195
      vertex 52.7716 0 4.85195
      vertex 53 0 6
    endloop
  endfacet
  facet normal 0 -1 0
    outer loop
      vertex 47.8787 0 3.87868
      vertex 52.7716 0 4.85195
      vertex 47.2284 0 4.85195
    endloop
  endfacet
  facet normal 0 -1 0
    outer loop
      vertex 47.8787 0 3.87868
      vertex 52.1213 0 3.87868
      vertex 52.7716 0 4.85195
    endloop
  endfacet
  facet normal 0 -1 0
    outer loop
      vertex 48.852 0 3.22836
      vertex 52.1213 0 3.87868
      vertex 47.8787 0 3.87868
    endloop
  endfacet
  facet normal 0 -1 0
    outer loop
      vertex 48.852 0 3.22836
      vertex 51.148 0 3.22836
      vertex 52.1213 0 3.87868
    endloop
  endfacet
  facet normal -0 -1 0
    outer loop
      vertex 51.148 0 3.22836
      vertex 48.852 0 3.22836
      vertex 50 0 3
    endloop
  endfacet
  facet normal 0 -0.195081 0.980787
    outer loop
      vertex 0 50.7654 4.15224
      vertex 37 50 4
      vertex 37 50.7654 4.15224
    endloop
  endfacet
  facet normal 0 -0.195081 0.980787
    outer loop
      vertex 37 50 4
      vertex 0 50.7654 4.15224
      vertex 0 50 4
    endloop
  endfacet
  facet normal 0 -0.195081 -0.980787
    outer loop
      vertex 0 50 8
      vertex 37 50.7654 7.84776
      vertex 37 50 8
    endloop
  endfacet
  facet normal -0 -0.195081 -0.980787
    outer loop
      vertex 37 50.7654 7.84776
      vertex 0 50 8
      vertex 0 50.7654 7.84776
    endloop
  endfacet
  facet normal 0 -0.555602 0.831448
    outer loop
      vertex 0 51.4142 4.58579
      vertex 37 50.7654 4.15224
      vertex 37 51.4142 4.58579
    endloop
  endfacet
  facet normal 0 -0.555602 0.831448
    outer loop
      vertex 37 50.7654 4.15224
      vertex 0 51.4142 4.58579
      vertex 0 50.7654 4.15224
    endloop
  endfacet
  facet normal 0 0.980795 0.195039
    outer loop
      vertex 37 48.1522 5.23463
      vertex 0 48 6
      vertex 37 48 6
    endloop
  endfacet
  facet normal 0 0.980795 0.195039
    outer loop
      vertex 0 48 6
      vertex 37 48.1522 5.23463
      vertex 0 48.1522 5.23463
    endloop
  endfacet
  facet normal 0 0.831435 0.555622
    outer loop
      vertex 37 48.5858 4.58579
      vertex 0 48.1522 5.23463
      vertex 37 48.1522 5.23463
    endloop
  endfacet
  facet normal 0 0.831435 0.555622
    outer loop
      vertex 0 48.1522 5.23463
      vertex 37 48.5858 4.58579
      vertex 0 48.5858 4.58579
    endloop
  endfacet
  facet normal 0 -0.831435 0.555622
    outer loop
      vertex 0 51.4142 4.58579
      vertex 37 51.8478 5.23463
      vertex 0 51.8478 5.23463
    endloop
  endfacet
  facet normal 0 -0.831435 0.555622
    outer loop
      vertex 37 51.8478 5.23463
      vertex 0 51.4142 4.58579
      vertex 37 51.4142 4.58579
    endloop
  endfacet
  facet normal 0 -0.831435 -0.555622
    outer loop
      vertex 0 51.8478 6.76537
      vertex 37 51.4142 7.41421
      vertex 0 51.4142 7.41421
    endloop
  endfacet
  facet normal 0 -0.831435 -0.555622
    outer loop
      vertex 37 51.4142 7.41421
      vertex 0 51.8478 6.76537
      vertex 37 51.8478 6.76537
    endloop
  endfacet
  facet normal 0 -0.555602 -0.831448
    outer loop
      vertex 0 50.7654 7.84776
      vertex 37 51.4142 7.41421
      vertex 37 50.7654 7.84776
    endloop
  endfacet
  facet normal -0 -0.555602 -0.831448
    outer loop
      vertex 37 51.4142 7.41421
      vertex 0 50.7654 7.84776
      vertex 0 51.4142 7.41421
    endloop
  endfacet
  facet normal 0 -0.980795 -0.195039
    outer loop
      vertex 0 52 6
      vertex 37 51.8478 6.76537
      vertex 0 51.8478 6.76537
    endloop
  endfacet
  facet normal 0 -0.980795 -0.195039
    outer loop
      vertex 37 51.8478 6.76537
      vertex 0 52 6
      vertex 37 52 6
    endloop
  endfacet
  facet normal 0 -0.980795 0.195039
    outer loop
      vertex 0 51.8478 5.23463
      vertex 37 52 6
      vertex 0 52 6
    endloop
  endfacet
  facet normal 0 -0.980795 0.195039
    outer loop
      vertex 37 52 6
      vertex 0 51.8478 5.23463
      vertex 37 51.8478 5.23463
    endloop
  endfacet
  facet normal -0 0.555602 0.831448
    outer loop
      vertex 0 49.2346 4.15224
      vertex 37 48.5858 4.58579
      vertex 37 49.2346 4.15224
    endloop
  endfacet
  facet normal 0 0.555602 0.831448
    outer loop
      vertex 37 48.5858 4.58579
      vertex 0 49.2346 4.15224
      vertex 0 48.5858 4.58579
    endloop
  endfacet
  facet normal -0 0.195081 0.980787
    outer loop
      vertex 0 50 4
      vertex 37 49.2346 4.15224
      vertex 37 50 4
    endloop
  endfacet
  facet normal 0 0.195081 0.980787
    outer loop
      vertex 37 49.2346 4.15224
      vertex 0 50 4
      vertex 0 49.2346 4.15224
    endloop
  endfacet
  facet normal -1 0 0
    outer loop
      vertex 37 51.8478 5.23463
      vertex 37 51.8478 6.76537
      vertex 37 52 6
    endloop
  endfacet
  facet normal -1 0 0
    outer loop
      vertex 37 51.4142 4.58579
      vertex 37 51.8478 6.76537
      vertex 37 51.8478 5.23463
    endloop
  endfacet
  facet normal -1 0 0
    outer loop
      vertex 37 51.4142 4.58579
      vertex 37 51.4142 7.41421
      vertex 37 51.8478 6.76537
    endloop
  endfacet
  facet normal -1 0 0
    outer loop
      vertex 37 50.7654 4.15224
      vertex 37 51.4142 7.41421
      vertex 37 51.4142 4.58579
    endloop
  endfacet
  facet normal -1 0 0
    outer loop
      vertex 37 50.7654 4.15224
      vertex 37 50.7654 7.84776
      vertex 37 51.4142 7.41421
    endloop
  endfacet
  facet normal -1 0 0
    outer loop
      vertex 37 50 4
      vertex 37 50.7654 7.84776
      vertex 37 50.7654 4.15224
    endloop
  endfacet
  facet normal -1 0 0
    outer loop
      vertex 37 50 4
      vertex 37 50 8
      vertex 37 50.7654 7.84776
    endloop
  endfacet
  facet normal -1 0 0
    outer loop
      vertex 37 49.2346 4.15224
      vertex 37 50 8
      vertex 37 50 4
    endloop
  endfacet
  facet normal -1 0 0
    outer loop
      vertex 37 49.2346 4.15224
      vertex 37 49.2346 7.84776
      vertex 37 50 8
    endloop
  endfacet
  facet normal -1 0 0
    outer loop
      vertex 37 48.5858 4.58579
      vertex 37 49.2346 7.84776
      vertex 37 49.2346 4.15224
    endloop
  endfacet
  facet normal -1 0 0
    outer loop
      vertex 37 48.5858 4.58579
      vertex 37 48.5858 7.41421
      vertex 37 49.2346 7.84776
    endloop
  endfacet
  facet normal -1 0 0
    outer loop
      vertex 37 48.1522 5.23463
      vertex 37 48.5858 7.41421
      vertex 37 48.5858 4.58579
    endloop
  endfacet
  facet normal -1 0 0
    outer loop
      vertex 37 48.1522 5.23463
      vertex 37 48.1522 6.76537
      vertex 37 48.5858 7.41421
    endloop
  endfacet
  facet normal -1 0 -0
    outer loop
      vertex 37 48.1522 6.76537
      vertex 37 48.1522 5.23463
      vertex 37 48 6
    endloop
  endfacet
  facet normal -1 0 0
    outer loop
      vertex 0 213 0
      vertex 0 165 6
      vertex 0 213 12
    endloop
  endfacet
  facet normal -1 0 0
    outer loop
      vertex 0 213 0
      vertex 0 164.848 5.23463
      vertex 0 165 6
    endloop
  endfacet
  facet normal -1 0 0
    outer loop
      vertex 0 213 0
      vertex 0 164.414 4.58579
      vertex 0 164.848 5.23463
    endloop
  endfacet
  facet normal -1 0 0
    outer loop
      vertex 0 213 0
      vertex 0 163.765 4.15224
      vertex 0 164.414 4.58579
    endloop
  endfacet
  facet normal -1 0 0
    outer loop
      vertex 0 213 0
      vertex 0 163 4
      vertex 0 163.765 4.15224
    endloop
  endfacet
  facet normal -1 0 0
    outer loop
      vertex 0 161.152 5.23463
      vertex 0 52 6
      vertex 0 161 6
    endloop
  endfacet
  facet normal -1 0 0
    outer loop
      vertex 0 51.8478 5.23463
      vertex 0 161.152 5.23463
      vertex 0 161.586 4.58579
    endloop
  endfacet
  facet normal -1 0 0
    outer loop
      vertex 0 51.4142 4.58579
      vertex 0 161.586 4.58579
      vertex 0 162.235 4.15224
    endloop
  endfacet
  facet normal -1 0 0
    outer loop
      vertex 0 50.7654 4.15224
      vertex 0 162.235 4.15224
      vertex 0 163 4
    endloop
  endfacet
  facet normal -1 0 0
    outer loop
      vertex 0 50 4
      vertex 0 163 4
      vertex 0 213 0
    endloop
  endfacet
  facet normal -1 0 0
    outer loop
      vertex 0 161.152 5.23463
      vertex 0 51.8478 5.23463
      vertex 0 52 6
    endloop
  endfacet
  facet normal -1 0 0
    outer loop
      vertex 0 161.586 4.58579
      vertex 0 51.4142 4.58579
      vertex 0 51.8478 5.23463
    endloop
  endfacet
  facet normal -1 0 0
    outer loop
      vertex 0 162.235 4.15224
      vertex 0 50.7654 4.15224
      vertex 0 51.4142 4.58579
    endloop
  endfacet
  facet normal -1 0 0
    outer loop
      vertex 0 163 4
      vertex 0 50 4
      vertex 0 50.7654 4.15224
    endloop
  endfacet
  facet normal -1 -0 0
    outer loop
      vertex 0 48.1522 5.23463
      vertex 0 0 0
      vertex 0 48 6
    endloop
  endfacet
  facet normal -1 -0 0
    outer loop
      vertex 0 48.5858 4.58579
      vertex 0 0 0
      vertex 0 48.1522 5.23463
    endloop
  endfacet
  facet normal -1 -0 0
    outer loop
      vertex 0 49.2346 4.15224
      vertex 0 0 0
      vertex 0 48.5858 4.58579
    endloop
  endfacet
  facet normal -1 -0 0
    outer loop
      vertex 0 50 4
      vertex 0 0 0
      vertex 0 49.2346 4.15224
    endloop
  endfacet
  facet normal -1 0 0
    outer loop
      vertex 0 0 0
      vertex 0 50 4
      vertex 0 213 0
    endloop
  endfacet
  facet normal -1 0 0
    outer loop
      vertex 0 164.848 6.76537
      vertex 0 213 12
      vertex 0 165 6
    endloop
  endfacet
  facet normal -1 0 0
    outer loop
      vertex 0 164.414 7.41421
      vertex 0 213 12
      vertex 0 164.848 6.76537
    endloop
  endfacet
  facet normal -1 0 0
    outer loop
      vertex 0 163.765 7.84776
      vertex 0 213 12
      vertex 0 164.414 7.41421
    endloop
  endfacet
  facet normal -1 0 0
    outer loop
      vertex 0 163 8
      vertex 0 213 12
      vertex 0 163.765 7.84776
    endloop
  endfacet
  facet normal -1 0 0
    outer loop
      vertex 0 52 6
      vertex 0 161.152 6.76537
      vertex 0 161 6
    endloop
  endfacet
  facet normal -1 0 0
    outer loop
      vertex 0 51.8478 6.76537
      vertex 0 161.152 6.76537
      vertex 0 52 6
    endloop
  endfacet
  facet normal -1 0 0
    outer loop
      vertex 0 161.152 6.76537
      vertex 0 51.8478 6.76537
      vertex 0 161.586 7.41421
    endloop
  endfacet
  facet normal -1 0 0
    outer loop
      vertex 0 51.4142 7.41421
      vertex 0 161.586 7.41421
      vertex 0 51.8478 6.76537
    endloop
  endfacet
  facet normal -1 0 0
    outer loop
      vertex 0 161.586 7.41421
      vertex 0 51.4142 7.41421
      vertex 0 162.235 7.84776
    endloop
  endfacet
  facet normal -1 0 0
    outer loop
      vertex 0 50.7654 7.84776
      vertex 0 162.235 7.84776
      vertex 0 51.4142 7.41421
    endloop
  endfacet
  facet normal -1 0 0
    outer loop
      vertex 0 162.235 7.84776
      vertex 0 50.7654 7.84776
      vertex 0 163 8
    endloop
  endfacet
  facet normal -1 0 0
    outer loop
      vertex 0 50 8
      vertex 0 163 8
      vertex 0 50.7654 7.84776
    endloop
  endfacet
  facet normal -1 0 0
    outer loop
      vertex 0 163 8
      vertex 0 50 8
      vertex 0 213 12
    endloop
  endfacet
  facet normal -1 0 0
    outer loop
      vertex 0 0 12
      vertex 0 48 6
      vertex 0 0 0
    endloop
  endfacet
  facet normal -1 0 0
    outer loop
      vertex 0 48 6
      vertex 0 0 12
      vertex 0 48.1522 6.76537
    endloop
  endfacet
  facet normal -1 0 0
    outer loop
      vertex 0 48.1522 6.76537
      vertex 0 0 12
      vertex 0 48.5858 7.41421
    endloop
  endfacet
  facet normal -1 0 0
    outer loop
      vertex 0 48.5858 7.41421
      vertex 0 0 12
      vertex 0 49.2346 7.84776
    endloop
  endfacet
  facet normal -1 0 0
    outer loop
      vertex 0 50 8
      vertex 0 0 12
      vertex 0 213 12
    endloop
  endfacet
  facet normal -1 0 0
    outer loop
      vertex 0 49.2346 7.84776
      vertex 0 0 12
      vertex 0 50 8
    endloop
  endfacet
  facet normal 0 0.555602 -0.831448
    outer loop
      vertex 0 48.5858 7.41421
      vertex 37 49.2346 7.84776
      vertex 37 48.5858 7.41421
    endloop
  endfacet
  facet normal 0 0.555602 -0.831448
    outer loop
      vertex 37 49.2346 7.84776
      vertex 0 48.5858 7.41421
      vertex 0 49.2346 7.84776
    endloop
  endfacet
  facet normal 0 0.195081 -0.980787
    outer loop
      vertex 0 49.2346 7.84776
      vertex 37 50 8
      vertex 37 49.2346 7.84776
    endloop
  endfacet
  facet normal 0 0.195081 -0.980787
    outer loop
      vertex 37 50 8
      vertex 0 49.2346 7.84776
      vertex 0 50 8
    endloop
  endfacet
  facet normal 0 0.980795 -0.195039
    outer loop
      vertex 37 48 6
      vertex 0 48.1522 6.76537
      vertex 37 48.1522 6.76537
    endloop
  endfacet
  facet normal 0 0.980795 -0.195039
    outer loop
      vertex 0 48.1522 6.76537
      vertex 37 48 6
      vertex 0 48 6
    endloop
  endfacet
  facet normal 0 0.831435 -0.555622
    outer loop
      vertex 37 48.1522 6.76537
      vertex 0 48.5858 7.41421
      vertex 37 48.5858 7.41421
    endloop
  endfacet
  facet normal 0 0.831435 -0.555622
    outer loop
      vertex 0 48.5858 7.41421
      vertex 37 48.1522 6.76537
      vertex 0 48.1522 6.76537
    endloop
  endfacet
  facet normal 0 -0.195179 0.980768
    outer loop
      vertex 0 163.765 4.15224
      vertex 37 163 4
      vertex 37 163.765 4.15224
    endloop
  endfacet
  facet normal 0 -0.195179 0.980768
    outer loop
      vertex 37 163 4
      vertex 0 163.765 4.15224
      vertex 0 163 4
    endloop
  endfacet
  facet normal 0 -0.195179 -0.980768
    outer loop
      vertex 0 163 8
      vertex 37 163.765 7.84776
      vertex 37 163 8
    endloop
  endfacet
  facet normal -0 -0.195179 -0.980768
    outer loop
      vertex 37 163.765 7.84776
      vertex 0 163 8
      vertex 0 163.765 7.84776
    endloop
  endfacet
  facet normal 0 -0.555483 0.831528
    outer loop
      vertex 0 164.414 4.58579
      vertex 37 163.765 4.15224
      vertex 37 164.414 4.58579
    endloop
  endfacet
  facet normal 0 -0.555483 0.831528
    outer loop
      vertex 37 163.765 4.15224
      vertex 0 164.414 4.58579
      vertex 0 163.765 4.15224
    endloop
  endfacet
  facet normal 0 0.980844 0.194793
    outer loop
      vertex 37 161.152 5.23463
      vertex 0 161 6
      vertex 37 161 6
    endloop
  endfacet
  facet normal 0 0.980844 0.194793
    outer loop
      vertex 0 161 6
      vertex 37 161.152 5.23463
      vertex 0 161.152 5.23463
    endloop
  endfacet
  facet normal 0 0.831198 0.555977
    outer loop
      vertex 37 161.586 4.58579
      vertex 0 161.152 5.23463
      vertex 37 161.152 5.23463
    endloop
  endfacet
  facet normal 0 0.831198 0.555977
    outer loop
      vertex 0 161.152 5.23463
      vertex 37 161.586 4.58579
      vertex 0 161.586 4.58579
    endloop
  endfacet
  facet normal 0 -0.831198 0.555977
    outer loop
      vertex 0 164.414 4.58579
      vertex 37 164.848 5.23463
      vertex 0 164.848 5.23463
    endloop
  endfacet
  facet normal 0 -0.831198 0.555977
    outer loop
      vertex 37 164.848 5.23463
      vertex 0 164.414 4.58579
      vertex 37 164.414 4.58579
    endloop
  endfacet
  facet normal 0 -0.831198 -0.555977
    outer loop
      vertex 0 164.848 6.76537
      vertex 37 164.414 7.41421
      vertex 0 164.414 7.41421
    endloop
  endfacet
  facet normal 0 -0.831198 -0.555977
    outer loop
      vertex 37 164.414 7.41421
      vertex 0 164.848 6.76537
      vertex 37 164.848 6.76537
    endloop
  endfacet
  facet normal 0 -0.555483 -0.831528
    outer loop
      vertex 0 163.765 7.84776
      vertex 37 164.414 7.41421
      vertex 37 163.765 7.84776
    endloop
  endfacet
  facet normal -0 -0.555483 -0.831528
    outer loop
      vertex 37 164.414 7.41421
      vertex 0 163.765 7.84776
      vertex 0 164.414 7.41421
    endloop
  endfacet
  facet normal 0 -0.980844 -0.194793
    outer loop
      vertex 0 165 6
      vertex 37 164.848 6.76537
      vertex 0 164.848 6.76537
    endloop
  endfacet
  facet normal 0 -0.980844 -0.194793
    outer loop
      vertex 37 164.848 6.76537
      vertex 0 165 6
      vertex 37 165 6
    endloop
  endfacet
  facet normal -0 0.195179 0.980768
    outer loop
      vertex 0 163 4
      vertex 37 162.235 4.15224
      vertex 37 163 4
    endloop
  endfacet
  facet normal 0 0.195179 0.980768
    outer loop
      vertex 37 162.235 4.15224
      vertex 0 163 4
      vertex 0 162.235 4.15224
    endloop
  endfacet
  facet normal 0 -0.980844 0.194793
    outer loop
      vertex 0 164.848 5.23463
      vertex 37 165 6
      vertex 0 165 6
    endloop
  endfacet
  facet normal 0 -0.980844 0.194793
    outer loop
      vertex 37 165 6
      vertex 0 164.848 5.23463
      vertex 37 164.848 5.23463
    endloop
  endfacet
  facet normal -0 0.555483 0.831528
    outer loop
      vertex 0 162.235 4.15224
      vertex 37 161.586 4.58579
      vertex 37 162.235 4.15224
    endloop
  endfacet
  facet normal 0 0.555483 0.831528
    outer loop
      vertex 37 161.586 4.58579
      vertex 0 162.235 4.15224
      vertex 0 161.586 4.58579
    endloop
  endfacet
  facet normal -1 0 0
    outer loop
      vertex 37 164.848 5.23463
      vertex 37 164.848 6.76537
      vertex 37 165 6
    endloop
  endfacet
  facet normal -1 0 0
    outer loop
      vertex 37 164.414 4.58579
      vertex 37 164.848 6.76537
      vertex 37 164.848 5.23463
    endloop
  endfacet
  facet normal -1 0 0
    outer loop
      vertex 37 164.414 4.58579
      vertex 37 164.414 7.41421
      vertex 37 164.848 6.76537
    endloop
  endfacet
  facet normal -1 0 0
    outer loop
      vertex 37 163.765 4.15224
      vertex 37 164.414 7.41421
      vertex 37 164.414 4.58579
    endloop
  endfacet
  facet normal -1 0 0
    outer loop
      vertex 37 163.765 4.15224
      vertex 37 163.765 7.84776
      vertex 37 164.414 7.41421
    endloop
  endfacet
  facet normal -1 0 0
    outer loop
      vertex 37 163 4
      vertex 37 163.765 7.84776
      vertex 37 163.765 4.15224
    endloop
  endfacet
  facet normal -1 0 0
    outer loop
      vertex 37 163 4
      vertex 37 163 8
      vertex 37 163.765 7.84776
    endloop
  endfacet
  facet normal -1 0 0
    outer loop
      vertex 37 162.235 4.15224
      vertex 37 163 8
      vertex 37 163 4
    endloop
  endfacet
  facet normal -1 0 0
    outer loop
      vertex 37 162.235 4.15224
      vertex 37 162.235 7.84776
      vertex 37 163 8
    endloop
  endfacet
  facet normal -1 0 0
    outer loop
      vertex 37 161.586 4.58579
      vertex 37 162.235 7.84776
      vertex 37 162.235 4.15224
    endloop
  endfacet
  facet normal -1 0 0
    outer loop
      vertex 37 161.586 4.58579
      vertex 37 161.586 7.41421
      vertex 37 162.235 7.84776
    endloop
  endfacet
  facet normal -1 0 0
    outer loop
      vertex 37 161.152 5.23463
      vertex 37 161.586 7.41421
      vertex 37 161.586 4.58579
    endloop
  endfacet
  facet normal -1 0 0
    outer loop
      vertex 37 161.152 5.23463
      vertex 37 161.152 6.76537
      vertex 37 161.586 7.41421
    endloop
  endfacet
  facet normal -1 0 -0
    outer loop
      vertex 37 161.152 6.76537
      vertex 37 161.152 5.23463
      vertex 37 161 6
    endloop
  endfacet
  facet normal 0 0.555483 -0.831528
    outer loop
      vertex 0 161.586 7.41421
      vertex 37 162.235 7.84776
      vertex 37 161.586 7.41421
    endloop
  endfacet
  facet normal 0 0.555483 -0.831528
    outer loop
      vertex 37 162.235 7.84776
      vertex 0 161.586 7.41421
      vertex 0 162.235 7.84776
    endloop
  endfacet
  facet normal 0 0.195179 -0.980768
    outer loop
      vertex 0 162.235 7.84776
      vertex 37 163 8
      vertex 37 162.235 7.84776
    endloop
  endfacet
  facet normal 0 0.195179 -0.980768
    outer loop
      vertex 37 163 8
      vertex 0 162.235 7.84776
      vertex 0 163 8
    endloop
  endfacet
  facet normal 0 0.980844 -0.194793
    outer loop
      vertex 37 161 6
      vertex 0 161.152 6.76537
      vertex 37 161.152 6.76537
    endloop
  endfacet
  facet normal 0 0.980844 -0.194793
    outer loop
      vertex 0 161.152 6.76537
      vertex 37 161 6
      vertex 0 161 6
    endloop
  endfacet
  facet normal 0 0.831198 -0.555977
    outer loop
      vertex 37 161.152 6.76537
      vertex 0 161.586 7.41421
      vertex 37 161.586 7.41421
    endloop
  endfacet
  facet normal 0 0.831198 -0.555977
    outer loop
      vertex 0 161.586 7.41421
      vertex 37 161.152 6.76537
      vertex 0 161.152 6.76537
    endloop
  endfacet
  facet normal 0 -0.195081 -0.980787
    outer loop
      vertex 475 50 8
      vertex 512 50.7654 7.84776
      vertex 512 50 8
    endloop
  endfacet
  facet normal -0 -0.195081 -0.980787
    outer loop
      vertex 512 50.7654 7.84776
      vertex 475 50 8
      vertex 475 50.7654 7.84776
    endloop
  endfacet
  facet normal 0 -0.555602 -0.831448
    outer loop
      vertex 475 50.7654 7.84776
      vertex 512 51.4142 7.41421
      vertex 512 50.7654 7.84776
    endloop
  endfacet
  facet normal -0 -0.555602 -0.831448
    outer loop
      vertex 512 51.4142 7.41421
      vertex 475 50.7654 7.84776
      vertex 475 51.4142 7.41421
    endloop
  endfacet
  facet normal -0 0.195081 0.980787
    outer loop
      vertex 475 50 4
      vertex 512 49.2346 4.15224
      vertex 512 50 4
    endloop
  endfacet
  facet normal 0 0.195081 0.980787
    outer loop
      vertex 512 49.2346 4.15224
      vertex 475 50 4
      vertex 475 49.2346 4.15224
    endloop
  endfacet
  facet normal 0 -0.980795 0.195039
    outer loop
      vertex 475 51.8478 5.23463
      vertex 512 52 6
      vertex 475 52 6
    endloop
  endfacet
  facet normal 0 -0.980795 0.195039
    outer loop
      vertex 512 52 6
      vertex 475 51.8478 5.23463
      vertex 512 51.8478 5.23463
    endloop
  endfacet
  facet normal 0 0.831435 -0.555622
    outer loop
      vertex 512 48.1522 6.76537
      vertex 475 48.5858 7.41421
      vertex 512 48.5858 7.41421
    endloop
  endfacet
  facet normal 0 0.831435 -0.555622
    outer loop
      vertex 475 48.5858 7.41421
      vertex 512 48.1522 6.76537
      vertex 475 48.1522 6.76537
    endloop
  endfacet
  facet normal 0 0.831435 0.555622
    outer loop
      vertex 512 48.5858 4.58579
      vertex 475 48.1522 5.23463
      vertex 512 48.1522 5.23463
    endloop
  endfacet
  facet normal 0 0.831435 0.555622
    outer loop
      vertex 475 48.1522 5.23463
      vertex 512 48.5858 4.58579
      vertex 475 48.5858 4.58579
    endloop
  endfacet
  facet normal 0 -0.555602 0.831448
    outer loop
      vertex 475 51.4142 4.58579
      vertex 512 50.7654 4.15224
      vertex 512 51.4142 4.58579
    endloop
  endfacet
  facet normal 0 -0.555602 0.831448
    outer loop
      vertex 512 50.7654 4.15224
      vertex 475 51.4142 4.58579
      vertex 475 50.7654 4.15224
    endloop
  endfacet
  facet normal 0 -0.831435 0.555622
    outer loop
      vertex 475 51.4142 4.58579
      vertex 512 51.8478 5.23463
      vertex 475 51.8478 5.23463
    endloop
  endfacet
  facet normal 0 -0.831435 0.555622
    outer loop
      vertex 512 51.8478 5.23463
      vertex 475 51.4142 4.58579
      vertex 512 51.4142 4.58579
    endloop
  endfacet
  facet normal 1 0 0
    outer loop
      vertex 512 213 12
      vertex 512 165 6
      vertex 512 213 0
    endloop
  endfacet
  facet normal 1 0 0
    outer loop
      vertex 512 213 12
      vertex 512 164.848 6.76537
      vertex 512 165 6
    endloop
  endfacet
  facet normal 1 0 0
    outer loop
      vertex 512 213 12
      vertex 512 164.414 7.41421
      vertex 512 164.848 6.76537
    endloop
  endfacet
  facet normal 1 0 0
    outer loop
      vertex 512 213 12
      vertex 512 163.765 7.84776
      vertex 512 164.414 7.41421
    endloop
  endfacet
  facet normal 1 0 0
    outer loop
      vertex 512 213 12
      vertex 512 163 8
      vertex 512 163.765 7.84776
    endloop
  endfacet
  facet normal 1 0 0
    outer loop
      vertex 512 161.152 6.76537
      vertex 512 52 6
      vertex 512 161 6
    endloop
  endfacet
  facet normal 1 0 0
    outer loop
      vertex 512 51.8478 6.76537
      vertex 512 161.152 6.76537
      vertex 512 161.586 7.41421
    endloop
  endfacet
  facet normal 1 0 0
    outer loop
      vertex 512 51.4142 7.41421
      vertex 512 161.586 7.41421
      vertex 512 162.235 7.84776
    endloop
  endfacet
  facet normal 1 0 0
    outer loop
      vertex 512 50.7654 7.84776
      vertex 512 162.235 7.84776
      vertex 512 163 8
    endloop
  endfacet
  facet normal 1 0 0
    outer loop
      vertex 512 50 8
      vertex 512 163 8
      vertex 512 213 12
    endloop
  endfacet
  facet normal 1 0 0
    outer loop
      vertex 512 161.152 6.76537
      vertex 512 51.8478 6.76537
      vertex 512 52 6
    endloop
  endfacet
  facet normal 1 0 0
    outer loop
      vertex 512 161.586 7.41421
      vertex 512 51.4142 7.41421
      vertex 512 51.8478 6.76537
    endloop
  endfacet
  facet normal 1 0 0
    outer loop
      vertex 512 162.235 7.84776
      vertex 512 50.7654 7.84776
      vertex 512 51.4142 7.41421
    endloop
  endfacet
  facet normal 1 0 0
    outer loop
      vertex 512 163 8
      vertex 512 50 8
      vertex 512 50.7654 7.84776
    endloop
  endfacet
  facet normal 1 0 0
    outer loop
      vertex 512 48.1522 6.76537
      vertex 512 0 12
      vertex 512 48 6
    endloop
  endfacet
  facet normal 1 0 0
    outer loop
      vertex 512 48.5858 7.41421
      vertex 512 0 12
      vertex 512 48.1522 6.76537
    endloop
  endfacet
  facet normal 1 0 0
    outer loop
      vertex 512 49.2346 7.84776
      vertex 512 0 12
      vertex 512 48.5858 7.41421
    endloop
  endfacet
  facet normal 1 0 0
    outer loop
      vertex 512 50 8
      vertex 512 0 12
      vertex 512 49.2346 7.84776
    endloop
  endfacet
  facet normal 1 -0 0
    outer loop
      vertex 512 0 12
      vertex 512 50 8
      vertex 512 213 12
    endloop
  endfacet
  facet normal 1 -0 0
    outer loop
      vertex 512 164.848 5.23463
      vertex 512 213 0
      vertex 512 165 6
    endloop
  endfacet
  facet normal 1 -0 0
    outer loop
      vertex 512 164.414 4.58579
      vertex 512 213 0
      vertex 512 164.848 5.23463
    endloop
  endfacet
  facet normal 1 -0 0
    outer loop
      vertex 512 163.765 4.15224
      vertex 512 213 0
      vertex 512 164.414 4.58579
    endloop
  endfacet
  facet normal 1 -0 0
    outer loop
      vertex 512 163 4
      vertex 512 213 0
      vertex 512 163.765 4.15224
    endloop
  endfacet
  facet normal 1 -0 0
    outer loop
      vertex 512 52 6
      vertex 512 161.152 5.23463
      vertex 512 161 6
    endloop
  endfacet
  facet normal 1 0 0
    outer loop
      vertex 512 51.8478 5.23463
      vertex 512 161.152 5.23463
      vertex 512 52 6
    endloop
  endfacet
  facet normal 1 0 0
    outer loop
      vertex 512 161.152 5.23463
      vertex 512 51.8478 5.23463
      vertex 512 161.586 4.58579
    endloop
  endfacet
  facet normal 1 0 0
    outer loop
      vertex 512 51.4142 4.58579
      vertex 512 161.586 4.58579
      vertex 512 51.8478 5.23463
    endloop
  endfacet
  facet normal 1 0 0
    outer loop
      vertex 512 161.586 4.58579
      vertex 512 51.4142 4.58579
      vertex 512 162.235 4.15224
    endloop
  endfacet
  facet normal 1 0 0
    outer loop
      vertex 512 50.7654 4.15224
      vertex 512 162.235 4.15224
      vertex 512 51.4142 4.58579
    endloop
  endfacet
  facet normal 1 0 0
    outer loop
      vertex 512 162.235 4.15224
      vertex 512 50.7654 4.15224
      vertex 512 163 4
    endloop
  endfacet
  facet normal 1 0 0
    outer loop
      vertex 512 50 4
      vertex 512 163 4
      vertex 512 50.7654 4.15224
    endloop
  endfacet
  facet normal 1 0 0
    outer loop
      vertex 512 163 4
      vertex 512 50 4
      vertex 512 213 0
    endloop
  endfacet
  facet normal 1 0 0
    outer loop
      vertex 512 0 0
      vertex 512 48 6
      vertex 512 0 12
    endloop
  endfacet
  facet normal 1 0 0
    outer loop
      vertex 512 48 6
      vertex 512 0 0
      vertex 512 48.1522 5.23463
    endloop
  endfacet
  facet normal 1 0 0
    outer loop
      vertex 512 48.1522 5.23463
      vertex 512 0 0
      vertex 512 48.5858 4.58579
    endloop
  endfacet
  facet normal 1 0 0
    outer loop
      vertex 512 48.5858 4.58579
      vertex 512 0 0
      vertex 512 49.2346 4.15224
    endloop
  endfacet
  facet normal 1 0 0
    outer loop
      vertex 512 50 4
      vertex 512 0 0
      vertex 512 213 0
    endloop
  endfacet
  facet normal 1 0 0
    outer loop
      vertex 512 49.2346 4.15224
      vertex 512 0 0
      vertex 512 50 4
    endloop
  endfacet
  facet normal 1 0 0
    outer loop
      vertex 475 51.8478 6.76537
      vertex 475 51.8478 5.23463
      vertex 475 52 6
    endloop
  endfacet
  facet normal 1 0 0
    outer loop
      vertex 475 51.4142 7.41421
      vertex 475 51.8478 5.23463
      vertex 475 51.8478 6.76537
    endloop
  endfacet
  facet normal 1 0 0
    outer loop
      vertex 475 51.4142 7.41421
      vertex 475 51.4142 4.58579
      vertex 475 51.8478 5.23463
    endloop
  endfacet
  facet normal 1 0 0
    outer loop
      vertex 475 50.7654 7.84776
      vertex 475 51.4142 4.58579
      vertex 475 51.4142 7.41421
    endloop
  endfacet
  facet normal 1 0 0
    outer loop
      vertex 475 50.7654 7.84776
      vertex 475 50.7654 4.15224
      vertex 475 51.4142 4.58579
    endloop
  endfacet
  facet normal 1 0 0
    outer loop
      vertex 475 50 8
      vertex 475 50.7654 4.15224
      vertex 475 50.7654 7.84776
    endloop
  endfacet
  facet normal 1 0 0
    outer loop
      vertex 475 50 8
      vertex 475 50 4
      vertex 475 50.7654 4.15224
    endloop
  endfacet
  facet normal 1 -0 0
    outer loop
      vertex 475 49.2346 7.84776
      vertex 475 50 4
      vertex 475 50 8
    endloop
  endfacet
  facet normal 1 0 0
    outer loop
      vertex 475 49.2346 7.84776
      vertex 475 49.2346 4.15224
      vertex 475 50 4
    endloop
  endfacet
  facet normal 1 -0 0
    outer loop
      vertex 475 48.5858 7.41421
      vertex 475 49.2346 4.15224
      vertex 475 49.2346 7.84776
    endloop
  endfacet
  facet normal 1 0 0
    outer loop
      vertex 475 48.5858 7.41421
      vertex 475 48.5858 4.58579
      vertex 475 49.2346 4.15224
    endloop
  endfacet
  facet normal 1 -0 0
    outer loop
      vertex 475 48.1522 6.76537
      vertex 475 48.5858 4.58579
      vertex 475 48.5858 7.41421
    endloop
  endfacet
  facet normal 1 0 0
    outer loop
      vertex 475 48.1522 6.76537
      vertex 475 48.1522 5.23463
      vertex 475 48.5858 4.58579
    endloop
  endfacet
  facet normal 1 0 -0
    outer loop
      vertex 475 48.1522 5.23463
      vertex 475 48.1522 6.76537
      vertex 475 48 6
    endloop
  endfacet
  facet normal -0 0.555602 0.831448
    outer loop
      vertex 475 49.2346 4.15224
      vertex 512 48.5858 4.58579
      vertex 512 49.2346 4.15224
    endloop
  endfacet
  facet normal 0 0.555602 0.831448
    outer loop
      vertex 512 48.5858 4.58579
      vertex 475 49.2346 4.15224
      vertex 475 48.5858 4.58579
    endloop
  endfacet
  facet normal 0 -0.831435 -0.555622
    outer loop
      vertex 475 51.8478 6.76537
      vertex 512 51.4142 7.41421
      vertex 475 51.4142 7.41421
    endloop
  endfacet
  facet normal 0 -0.831435 -0.555622
    outer loop
      vertex 512 51.4142 7.41421
      vertex 475 51.8478 6.76537
      vertex 512 51.8478 6.76537
    endloop
  endfacet
  facet normal 0 -0.980795 -0.195039
    outer loop
      vertex 475 52 6
      vertex 512 51.8478 6.76537
      vertex 475 51.8478 6.76537
    endloop
  endfacet
  facet normal 0 -0.980795 -0.195039
    outer loop
      vertex 512 51.8478 6.76537
      vertex 475 52 6
      vertex 512 52 6
    endloop
  endfacet
  facet normal 0 -0.195081 0.980787
    outer loop
      vertex 475 50.7654 4.15224
      vertex 512 50 4
      vertex 512 50.7654 4.15224
    endloop
  endfacet
  facet normal 0 -0.195081 0.980787
    outer loop
      vertex 512 50 4
      vertex 475 50.7654 4.15224
      vertex 475 50 4
    endloop
  endfacet
  facet normal 0 0.555602 -0.831448
    outer loop
      vertex 475 48.5858 7.41421
      vertex 512 49.2346 7.84776
      vertex 512 48.5858 7.41421
    endloop
  endfacet
  facet normal 0 0.555602 -0.831448
    outer loop
      vertex 512 49.2346 7.84776
      vertex 475 48.5858 7.41421
      vertex 475 49.2346 7.84776
    endloop
  endfacet
  facet normal 0 0.195081 -0.980787
    outer loop
      vertex 475 49.2346 7.84776
      vertex 512 50 8
      vertex 512 49.2346 7.84776
    endloop
  endfacet
  facet normal 0 0.195081 -0.980787
    outer loop
      vertex 512 50 8
      vertex 475 49.2346 7.84776
      vertex 475 50 8
    endloop
  endfacet
  facet normal 0 0.980795 0.195039
    outer loop
      vertex 512 48.1522 5.23463
      vertex 475 48 6
      vertex 512 48 6
    endloop
  endfacet
  facet normal 0 0.980795 0.195039
    outer loop
      vertex 475 48 6
      vertex 512 48.1522 5.23463
      vertex 475 48.1522 5.23463
    endloop
  endfacet
  facet normal 0 0.980795 -0.195039
    outer loop
      vertex 512 48 6
      vertex 475 48.1522 6.76537
      vertex 512 48.1522 6.76537
    endloop
  endfacet
  facet normal 0 0.980795 -0.195039
    outer loop
      vertex 475 48.1522 6.76537
      vertex 512 48 6
      vertex 475 48 6
    endloop
  endfacet
  facet normal 0 -0.195179 -0.980768
    outer loop
      vertex 475 163 8
      vertex 512 163.765 7.84776
      vertex 512 163 8
    endloop
  endfacet
  facet normal -0 -0.195179 -0.980768
    outer loop
      vertex 512 163.765 7.84776
      vertex 475 163 8
      vertex 475 163.765 7.84776
    endloop
  endfacet
  facet normal 0 -0.555483 -0.831528
    outer loop
      vertex 475 163.765 7.84776
      vertex 512 164.414 7.41421
      vertex 512 163.765 7.84776
    endloop
  endfacet
  facet normal -0 -0.555483 -0.831528
    outer loop
      vertex 512 164.414 7.41421
      vertex 475 163.765 7.84776
      vertex 475 164.414 7.41421
    endloop
  endfacet
  facet normal -0 0.195179 0.980768
    outer loop
      vertex 475 163 4
      vertex 512 162.235 4.15224
      vertex 512 163 4
    endloop
  endfacet
  facet normal 0 0.195179 0.980768
    outer loop
      vertex 512 162.235 4.15224
      vertex 475 163 4
      vertex 475 162.235 4.15224
    endloop
  endfacet
  facet normal 0 -0.980844 0.194793
    outer loop
      vertex 475 164.848 5.23463
      vertex 512 165 6
      vertex 475 165 6
    endloop
  endfacet
  facet normal 0 -0.980844 0.194793
    outer loop
      vertex 512 165 6
      vertex 475 164.848 5.23463
      vertex 512 164.848 5.23463
    endloop
  endfacet
  facet normal 0 0.831198 -0.555977
    outer loop
      vertex 512 161.152 6.76537
      vertex 475 161.586 7.41421
      vertex 512 161.586 7.41421
    endloop
  endfacet
  facet normal 0 0.831198 -0.555977
    outer loop
      vertex 475 161.586 7.41421
      vertex 512 161.152 6.76537
      vertex 475 161.152 6.76537
    endloop
  endfacet
  facet normal 0 0.831198 0.555977
    outer loop
      vertex 512 161.586 4.58579
      vertex 475 161.152 5.23463
      vertex 512 161.152 5.23463
    endloop
  endfacet
  facet normal 0 0.831198 0.555977
    outer loop
      vertex 475 161.152 5.23463
      vertex 512 161.586 4.58579
      vertex 475 161.586 4.58579
    endloop
  endfacet
  facet normal 0 -0.555483 0.831528
    outer loop
      vertex 475 164.414 4.58579
      vertex 512 163.765 4.15224
      vertex 512 164.414 4.58579
    endloop
  endfacet
  facet normal 0 -0.555483 0.831528
    outer loop
      vertex 512 163.765 4.15224
      vertex 475 164.414 4.58579
      vertex 475 163.765 4.15224
    endloop
  endfacet
  facet normal 0 -0.831198 0.555977
    outer loop
      vertex 475 164.414 4.58579
      vertex 512 164.848 5.23463
      vertex 475 164.848 5.23463
    endloop
  endfacet
  facet normal 0 -0.831198 0.555977
    outer loop
      vertex 512 164.848 5.23463
      vertex 475 164.414 4.58579
      vertex 512 164.414 4.58579
    endloop
  endfacet
  facet normal 1 0 0
    outer loop
      vertex 475 164.848 6.76537
      vertex 475 164.848 5.23463
      vertex 475 165 6
    endloop
  endfacet
  facet normal 1 0 0
    outer loop
      vertex 475 164.414 7.41421
      vertex 475 164.848 5.23463
      vertex 475 164.848 6.76537
    endloop
  endfacet
  facet normal 1 0 0
    outer loop
      vertex 475 164.414 7.41421
      vertex 475 164.414 4.58579
      vertex 475 164.848 5.23463
    endloop
  endfacet
  facet normal 1 0 0
    outer loop
      vertex 475 163.765 7.84776
      vertex 475 164.414 4.58579
      vertex 475 164.414 7.41421
    endloop
  endfacet
  facet normal 1 0 0
    outer loop
      vertex 475 163.765 7.84776
      vertex 475 163.765 4.15224
      vertex 475 164.414 4.58579
    endloop
  endfacet
  facet normal 1 0 0
    outer loop
      vertex 475 163 8
      vertex 475 163.765 4.15224
      vertex 475 163.765 7.84776
    endloop
  endfacet
  facet normal 1 0 0
    outer loop
      vertex 475 163 8
      vertex 475 163 4
      vertex 475 163.765 4.15224
    endloop
  endfacet
  facet normal 1 -0 0
    outer loop
      vertex 475 162.235 7.84776
      vertex 475 163 4
      vertex 475 163 8
    endloop
  endfacet
  facet normal 1 0 0
    outer loop
      vertex 475 162.235 7.84776
      vertex 475 162.235 4.15224
      vertex 475 163 4
    endloop
  endfacet
  facet normal 1 -0 0
    outer loop
      vertex 475 161.586 7.41421
      vertex 475 162.235 4.15224
      vertex 475 162.235 7.84776
    endloop
  endfacet
  facet normal 1 0 0
    outer loop
      vertex 475 161.586 7.41421
      vertex 475 161.586 4.58579
      vertex 475 162.235 4.15224
    endloop
  endfacet
  facet normal 1 -0 0
    outer loop
      vertex 475 161.152 6.76537
      vertex 475 161.586 4.58579
      vertex 475 161.586 7.41421
    endloop
  endfacet
  facet normal 1 0 0
    outer loop
      vertex 475 161.152 6.76537
      vertex 475 161.152 5.23463
      vertex 475 161.586 4.58579
    endloop
  endfacet
  facet normal 1 0 -0
    outer loop
      vertex 475 161.152 5.23463
      vertex 475 161.152 6.76537
      vertex 475 161 6
    endloop
  endfacet
  facet normal -0 0.555483 0.831528
    outer loop
      vertex 475 162.235 4.15224
      vertex 512 161.586 4.58579
      vertex 512 162.235 4.15224
    endloop
  endfacet
  facet normal 0 0.555483 0.831528
    outer loop
      vertex 512 161.586 4.58579
      vertex 475 162.235 4.15224
      vertex 475 161.586 4.58579
    endloop
  endfacet
  facet normal 0 -0.831198 -0.555977
    outer loop
      vertex 475 164.848 6.76537
      vertex 512 164.414 7.41421
      vertex 475 164.414 7.41421
    endloop
  endfacet
  facet normal 0 -0.831198 -0.555977
    outer loop
      vertex 512 164.414 7.41421
      vertex 475 164.848 6.76537
      vertex 512 164.848 6.76537
    endloop
  endfacet
  facet normal 0 -0.980844 -0.194793
    outer loop
      vertex 475 165 6
      vertex 512 164.848 6.76537
      vertex 475 164.848 6.76537
    endloop
  endfacet
  facet normal 0 -0.980844 -0.194793
    outer loop
      vertex 512 164.848 6.76537
      vertex 475 165 6
      vertex 512 165 6
    endloop
  endfacet
  facet normal 0 -0.195179 0.980768
    outer loop
      vertex 475 163.765 4.15224
      vertex 512 163 4
      vertex 512 163.765 4.15224
    endloop
  endfacet
  facet normal 0 -0.195179 0.980768
    outer loop
      vertex 512 163 4
      vertex 475 163.765 4.15224
      vertex 475 163 4
    endloop
  endfacet
  facet normal 0 0.555483 -0.831528
    outer loop
      vertex 475 161.586 7.41421
      vertex 512 162.235 7.84776
      vertex 512 161.586 7.41421
    endloop
  endfacet
  facet normal 0 0.555483 -0.831528
    outer loop
      vertex 512 162.235 7.84776
      vertex 475 161.586 7.41421
      vertex 475 162.235 7.84776
    endloop
  endfacet
  facet normal 0 0.195179 -0.980768
    outer loop
      vertex 475 162.235 7.84776
      vertex 512 163 8
      vertex 512 162.235 7.84776
    endloop
  endfacet
  facet normal 0 0.195179 -0.980768
    outer loop
      vertex 512 163 8
      vertex 475 162.235 7.84776
      vertex 475 163 8
    endloop
  endfacet
  facet normal 0 0.980844 0.194793
    outer loop
      vertex 512 161.152 5.23463
      vertex 475 161 6
      vertex 512 161 6
    endloop
  endfacet
  facet normal 0 0.980844 0.194793
    outer loop
      vertex 475 161 6
      vertex 512 161.152 5.23463
      vertex 475 161.152 5.23463
    endloop
  endfacet
  facet normal 0 0.980844 -0.194793
    outer loop
      vertex 512 161 6
      vertex 475 161.152 6.76537
      vertex 512 161.152 6.76537
    endloop
  endfacet
  facet normal 0 0.980844 -0.194793
    outer loop
      vertex 475 161.152 6.76537
      vertex 512 161 6
      vertex 475 161 6
    endloop
  endfacet
  facet normal -0.980795 0 -0.195039
    outer loop
      vertex 52 176 6
      vertex 51.8478 213 6.76537
      vertex 52 213 6
    endloop
  endfacet
  facet normal -0.980795 -0 -0.195039
    outer loop
      vertex 51.8478 213 6.76537
      vertex 52 176 6
      vertex 51.8478 176 6.76537
    endloop
  endfacet
  facet normal 0.980795 -0 0.195039
    outer loop
      vertex 48 176 6
      vertex 48.1522 213 5.23463
      vertex 48 213 6
    endloop
  endfacet
  facet normal 0.980795 0 0.195039
    outer loop
      vertex 48.1522 213 5.23463
      vertex 48 176 6
      vertex 48.1522 176 5.23463
    endloop
  endfacet
  facet normal -0.555602 0 0.831448
    outer loop
      vertex 50.7654 213 4.15224
      vertex 51.4142 176 4.58579
      vertex 51.4142 213 4.58579
    endloop
  endfacet
  facet normal -0.555602 0 0.831448
    outer loop
      vertex 51.4142 176 4.58579
      vertex 50.7654 213 4.15224
      vertex 50.7654 176 4.15224
    endloop
  endfacet
  facet normal -0.195081 0 0.980787
    outer loop
      vertex 50 213 4
      vertex 50.7654 176 4.15224
      vertex 50.7654 213 4.15224
    endloop
  endfacet
  facet normal -0.195081 0 0.980787
    outer loop
      vertex 50.7654 176 4.15224
      vertex 50 213 4
      vertex 50 176 4
    endloop
  endfacet
  facet normal -0.555602 0 -0.831448
    outer loop
      vertex 50.7654 176 7.84776
      vertex 51.4142 213 7.41421
      vertex 51.4142 176 7.41421
    endloop
  endfacet
  facet normal -0.555602 0 -0.831448
    outer loop
      vertex 51.4142 213 7.41421
      vertex 50.7654 176 7.84776
      vertex 50.7654 213 7.84776
    endloop
  endfacet
  facet normal 0.195081 0 -0.980787
    outer loop
      vertex 49.2346 176 7.84776
      vertex 50 213 8
      vertex 50 176 8
    endloop
  endfacet
  facet normal 0.195081 0 -0.980787
    outer loop
      vertex 50 213 8
      vertex 49.2346 176 7.84776
      vertex 49.2346 213 7.84776
    endloop
  endfacet
  facet normal -0.195081 0 -0.980787
    outer loop
      vertex 50 176 8
      vertex 50.7654 213 7.84776
      vertex 50.7654 176 7.84776
    endloop
  endfacet
  facet normal -0.195081 0 -0.980787
    outer loop
      vertex 50.7654 213 7.84776
      vertex 50 176 8
      vertex 50 213 8
    endloop
  endfacet
  facet normal 0 1 -0
    outer loop
      vertex 255.235 213 7.84776
      vertex 50 213 8
      vertex 256 213 8
    endloop
  endfacet
  facet normal 0 1 0
    outer loop
      vertex 255.235 213 7.84776
      vertex 50.7654 213 7.84776
      vertex 50 213 8
    endloop
  endfacet
  facet normal 0 1 -0
    outer loop
      vertex 254.586 213 7.41421
      vertex 50.7654 213 7.84776
      vertex 255.235 213 7.84776
    endloop
  endfacet
  facet normal 0 1 0
    outer loop
      vertex 254.586 213 7.41421
      vertex 51.4142 213 7.41421
      vertex 50.7654 213 7.84776
    endloop
  endfacet
  facet normal 0 1 -0
    outer loop
      vertex 254.152 213 6.76537
      vertex 51.4142 213 7.41421
      vertex 254.586 213 7.41421
    endloop
  endfacet
  facet normal 0 1 0
    outer loop
      vertex 254.152 213 6.76537
      vertex 51.8478 213 6.76537
      vertex 51.4142 213 7.41421
    endloop
  endfacet
  facet normal 0 1 -0
    outer loop
      vertex 254 213 6
      vertex 51.8478 213 6.76537
      vertex 254.152 213 6.76537
    endloop
  endfacet
  facet normal 0 1 0
    outer loop
      vertex 254 213 6
      vertex 52 213 6
      vertex 51.8478 213 6.76537
    endloop
  endfacet
  facet normal 0 1 0
    outer loop
      vertex 254.152 213 5.23463
      vertex 52 213 6
      vertex 254 213 6
    endloop
  endfacet
  facet normal 0 1 0
    outer loop
      vertex 254.152 213 5.23463
      vertex 51.8478 213 5.23463
      vertex 52 213 6
    endloop
  endfacet
  facet normal 0 1 0
    outer loop
      vertex 254.586 213 4.58579
      vertex 51.8478 213 5.23463
      vertex 254.152 213 5.23463
    endloop
  endfacet
  facet normal 0 1 0
    outer loop
      vertex 254.586 213 4.58579
      vertex 51.4142 213 4.58579
      vertex 51.8478 213 5.23463
    endloop
  endfacet
  facet normal 0 1 0
    outer loop
      vertex 255.235 213 4.15224
      vertex 51.4142 213 4.58579
      vertex 254.586 213 4.58579
    endloop
  endfacet
  facet normal 0 1 0
    outer loop
      vertex 255.235 213 4.15224
      vertex 50.7654 213 4.15224
      vertex 51.4142 213 4.58579
    endloop
  endfacet
  facet normal 0 1 0
    outer loop
      vertex 256 213 4
      vertex 50.7654 213 4.15224
      vertex 255.235 213 4.15224
    endloop
  endfacet
  facet normal 0 1 0
    outer loop
      vertex 50.7654 213 4.15224
      vertex 256 213 4
      vertex 50 213 4
    endloop
  endfacet
  facet normal 0 1 -0
    outer loop
      vertex 461.235 213 7.84776
      vertex 256 213 8
      vertex 462 213 8
    endloop
  endfacet
  facet normal 0 1 0
    outer loop
      vertex 461.235 213 7.84776
      vertex 256.765 213 7.84776
      vertex 256 213 8
    endloop
  endfacet
  facet normal 0 1 -0
    outer loop
      vertex 460.586 213 7.41421
      vertex 256.765 213 7.84776
      vertex 461.235 213 7.84776
    endloop
  endfacet
  facet normal 0 1 0
    outer loop
      vertex 460.586 213 7.41421
      vertex 257.414 213 7.41421
      vertex 256.765 213 7.84776
    endloop
  endfacet
  facet normal 0 1 -0
    outer loop
      vertex 460.152 213 6.76537
      vertex 257.414 213 7.41421
      vertex 460.586 213 7.41421
    endloop
  endfacet
  facet normal 0 1 0
    outer loop
      vertex 460.152 213 6.76537
      vertex 257.848 213 6.76537
      vertex 257.414 213 7.41421
    endloop
  endfacet
  facet normal 0 1 -0
    outer loop
      vertex 460 213 6
      vertex 257.848 213 6.76537
      vertex 460.152 213 6.76537
    endloop
  endfacet
  facet normal 0 1 0
    outer loop
      vertex 460 213 6
      vertex 258 213 6
      vertex 257.848 213 6.76537
    endloop
  endfacet
  facet normal 0 1 0
    outer loop
      vertex 460.152 213 5.23463
      vertex 258 213 6
      vertex 460 213 6
    endloop
  endfacet
  facet normal 0 1 0
    outer loop
      vertex 460.152 213 5.23463
      vertex 257.848 213 5.23463
      vertex 258 213 6
    endloop
  endfacet
  facet normal 0 1 0
    outer loop
      vertex 460.586 213 4.58579
      vertex 257.848 213 5.23463
      vertex 460.152 213 5.23463
    endloop
  endfacet
  facet normal 0 1 0
    outer loop
      vertex 460.586 213 4.58579
      vertex 257.414 213 4.58579
      vertex 257.848 213 5.23463
    endloop
  endfacet
  facet normal 0 1 0
    outer loop
      vertex 461.235 213 4.15224
      vertex 257.414 213 4.58579
      vertex 460.586 213 4.58579
    endloop
  endfacet
  facet normal 0 1 0
    outer loop
      vertex 461.235 213 4.15224
      vertex 256.765 213 4.15224
      vertex 257.414 213 4.58579
    endloop
  endfacet
  facet normal 0 1 0
    outer loop
      vertex 462 213 4
      vertex 256.765 213 4.15224
      vertex 461.235 213 4.15224
    endloop
  endfacet
  facet normal 0 1 0
    outer loop
      vertex 256.765 213 4.15224
      vertex 462 213 4
      vertex 256 213 4
    endloop
  endfacet
  facet normal 0 1 0
    outer loop
      vertex 256 213 8
      vertex 512 213 12
      vertex 462 213 8
    endloop
  endfacet
  facet normal 0 1 0
    outer loop
      vertex 512 213 12
      vertex 462.765 213 7.84776
      vertex 462 213 8
    endloop
  endfacet
  facet normal 0 1 0
    outer loop
      vertex 512 213 12
      vertex 463.414 213 7.41421
      vertex 462.765 213 7.84776
    endloop
  endfacet
  facet normal 0 1 0
    outer loop
      vertex 512 213 12
      vertex 463.848 213 6.76537
      vertex 463.414 213 7.41421
    endloop
  endfacet
  facet normal 0 1 0
    outer loop
      vertex 512 213 12
      vertex 464 213 6
      vertex 463.848 213 6.76537
    endloop
  endfacet
  facet normal 0 1 -0
    outer loop
      vertex 512 213 0
      vertex 464 213 6
      vertex 512 213 12
    endloop
  endfacet
  facet normal 0 1 0
    outer loop
      vertex 464 213 6
      vertex 512 213 0
      vertex 463.848 213 5.23463
    endloop
  endfacet
  facet normal 0 1 0
    outer loop
      vertex 463.848 213 5.23463
      vertex 512 213 0
      vertex 463.414 213 4.58579
    endloop
  endfacet
  facet normal 0 1 0
    outer loop
      vertex 463.414 213 4.58579
      vertex 512 213 0
      vertex 462.765 213 4.15224
    endloop
  endfacet
  facet normal 0 1 0
    outer loop
      vertex 512 213 0
      vertex 256 213 4
      vertex 462 213 4
    endloop
  endfacet
  facet normal 0 1 0
    outer loop
      vertex 0 213 0
      vertex 256 213 4
      vertex 512 213 0
    endloop
  endfacet
  facet normal 0 1 0
    outer loop
      vertex 462.765 213 4.15224
      vertex 512 213 0
      vertex 462 213 4
    endloop
  endfacet
  facet normal 0 1 0
    outer loop
      vertex 512 213 12
      vertex 256 213 8
      vertex 0 213 12
    endloop
  endfacet
  facet normal 0 1 -0
    outer loop
      vertex 50 213 8
      vertex 0 213 12
      vertex 256 213 8
    endloop
  endfacet
  facet normal 0 1 -0
    outer loop
      vertex 49.2346 213 7.84776
      vertex 0 213 12
      vertex 50 213 8
    endloop
  endfacet
  facet normal 0 1 -0
    outer loop
      vertex 48.5858 213 7.41421
      vertex 0 213 12
      vertex 49.2346 213 7.84776
    endloop
  endfacet
  facet normal 0 1 -0
    outer loop
      vertex 48.1522 213 6.76537
      vertex 0 213 12
      vertex 48.5858 213 7.41421
    endloop
  endfacet
  facet normal 0 1 -0
    outer loop
      vertex 48 213 6
      vertex 0 213 12
      vertex 48.1522 213 6.76537
    endloop
  endfacet
  facet normal 0 1 0
    outer loop
      vertex 0 213 0
      vertex 48 213 6
      vertex 48.1522 213 5.23463
    endloop
  endfacet
  facet normal 0 1 0
    outer loop
      vertex 0 213 0
      vertex 48.1522 213 5.23463
      vertex 48.5858 213 4.58579
    endloop
  endfacet
  facet normal 0 1 0
    outer loop
      vertex 0 213 0
      vertex 48.5858 213 4.58579
      vertex 49.2346 213 4.15224
    endloop
  endfacet
  facet normal 0 1 0
    outer loop
      vertex 0 213 0
      vertex 49.2346 213 4.15224
      vertex 50 213 4
    endloop
  endfacet
  facet normal 0 1 0
    outer loop
      vertex 48 213 6
      vertex 0 213 0
      vertex 0 213 12
    endloop
  endfacet
  facet normal 0 1 0
    outer loop
      vertex 256 213 4
      vertex 0 213 0
      vertex 50 213 4
    endloop
  endfacet
  facet normal -0.831435 0 0.555622
    outer loop
      vertex 51.4142 176 4.58579
      vertex 51.8478 213 5.23463
      vertex 51.4142 213 4.58579
    endloop
  endfacet
  facet normal -0.831435 0 0.555622
    outer loop
      vertex 51.8478 213 5.23463
      vertex 51.4142 176 4.58579
      vertex 51.8478 176 5.23463
    endloop
  endfacet
  facet normal 0.195081 0 0.980787
    outer loop
      vertex 49.2346 213 4.15224
      vertex 50 176 4
      vertex 50 213 4
    endloop
  endfacet
  facet normal 0.195081 0 0.980787
    outer loop
      vertex 50 176 4
      vertex 49.2346 213 4.15224
      vertex 49.2346 176 4.15224
    endloop
  endfacet
  facet normal -0.831435 0 -0.555622
    outer loop
      vertex 51.8478 176 6.76537
      vertex 51.4142 213 7.41421
      vertex 51.8478 213 6.76537
    endloop
  endfacet
  facet normal -0.831435 -0 -0.555622
    outer loop
      vertex 51.4142 213 7.41421
      vertex 51.8478 176 6.76537
      vertex 51.4142 176 7.41421
    endloop
  endfacet
  facet normal 0 1 0
    outer loop
      vertex 50.7654 176 7.84776
      vertex 49.2346 176 7.84776
      vertex 50 176 8
    endloop
  endfacet
  facet normal 0 1 0
    outer loop
      vertex 51.4142 176 7.41421
      vertex 49.2346 176 7.84776
      vertex 50.7654 176 7.84776
    endloop
  endfacet
  facet normal 0 1 0
    outer loop
      vertex 51.4142 176 7.41421
      vertex 48.5858 176 7.41421
      vertex 49.2346 176 7.84776
    endloop
  endfacet
  facet normal 0 1 0
    outer loop
      vertex 51.8478 176 6.76537
      vertex 48.5858 176 7.41421
      vertex 51.4142 176 7.41421
    endloop
  endfacet
  facet normal 0 1 0
    outer loop
      vertex 51.8478 176 6.76537
      vertex 48.1522 176 6.76537
      vertex 48.5858 176 7.41421
    endloop
  endfacet
  facet normal 0 1 0
    outer loop
      vertex 52 176 6
      vertex 48.1522 176 6.76537
      vertex 51.8478 176 6.76537
    endloop
  endfacet
  facet normal 0 1 0
    outer loop
      vertex 52 176 6
      vertex 48 176 6
      vertex 48.1522 176 6.76537
    endloop
  endfacet
  facet normal 0 1 -0
    outer loop
      vertex 51.8478 176 5.23463
      vertex 48 176 6
      vertex 52 176 6
    endloop
  endfacet
  facet normal 0 1 0
    outer loop
      vertex 51.8478 176 5.23463
      vertex 48.1522 176 5.23463
      vertex 48 176 6
    endloop
  endfacet
  facet normal 0 1 -0
    outer loop
      vertex 51.4142 176 4.58579
      vertex 48.1522 176 5.23463
      vertex 51.8478 176 5.23463
    endloop
  endfacet
  facet normal 0 1 0
    outer loop
      vertex 51.4142 176 4.58579
      vertex 48.5858 176 4.58579
      vertex 48.1522 176 5.23463
    endloop
  endfacet
  facet normal 0 1 -0
    outer loop
      vertex 50.7654 176 4.15224
      vertex 48.5858 176 4.58579
      vertex 51.4142 176 4.58579
    endloop
  endfacet
  facet normal 0 1 0
    outer loop
      vertex 50.7654 176 4.15224
      vertex 49.2346 176 4.15224
      vertex 48.5858 176 4.58579
    endloop
  endfacet
  facet normal -0 1 0
    outer loop
      vertex 49.2346 176 4.15224
      vertex 50.7654 176 4.15224
      vertex 50 176 4
    endloop
  endfacet
  facet normal 0.980795 0 -0.195039
    outer loop
      vertex 48.1522 176 6.76537
      vertex 48 213 6
      vertex 48.1522 213 6.76537
    endloop
  endfacet
  facet normal 0.980795 0 -0.195039
    outer loop
      vertex 48 213 6
      vertex 48.1522 176 6.76537
      vertex 48 176 6
    endloop
  endfacet
  facet normal 0.555602 0 -0.831448
    outer loop
      vertex 48.5858 176 7.41421
      vertex 49.2346 213 7.84776
      vertex 49.2346 176 7.84776
    endloop
  endfacet
  facet normal 0.555602 0 -0.831448
    outer loop
      vertex 49.2346 213 7.84776
      vertex 48.5858 176 7.41421
      vertex 48.5858 213 7.41421
    endloop
  endfacet
  facet normal 0.831435 0 -0.555622
    outer loop
      vertex 48.5858 176 7.41421
      vertex 48.1522 213 6.76537
      vertex 48.5858 213 7.41421
    endloop
  endfacet
  facet normal 0.831435 0 -0.555622
    outer loop
      vertex 48.1522 213 6.76537
      vertex 48.5858 176 7.41421
      vertex 48.1522 176 6.76537
    endloop
  endfacet
  facet normal -0.980795 0 0.195039
    outer loop
      vertex 51.8478 176 5.23463
      vertex 52 213 6
      vertex 51.8478 213 5.23463
    endloop
  endfacet
  facet normal -0.980795 0 0.195039
    outer loop
      vertex 52 213 6
      vertex 51.8478 176 5.23463
      vertex 52 176 6
    endloop
  endfacet
  facet normal 0.831435 -0 0.555622
    outer loop
      vertex 48.1522 176 5.23463
      vertex 48.5858 213 4.58579
      vertex 48.1522 213 5.23463
    endloop
  endfacet
  facet normal 0.831435 0 0.555622
    outer loop
      vertex 48.5858 213 4.58579
      vertex 48.1522 176 5.23463
      vertex 48.5858 176 4.58579
    endloop
  endfacet
  facet normal 0.555602 0 0.831448
    outer loop
      vertex 48.5858 213 4.58579
      vertex 49.2346 176 4.15224
      vertex 49.2346 213 4.15224
    endloop
  endfacet
  facet normal 0.555602 0 0.831448
    outer loop
      vertex 49.2346 176 4.15224
      vertex 48.5858 213 4.58579
      vertex 48.5858 176 4.58579
    endloop
  endfacet
  facet normal -0.980844 0 -0.194793
    outer loop
      vertex 258 176 6
      vertex 257.848 213 6.76537
      vertex 258 213 6
    endloop
  endfacet
  facet normal -0.980844 -0 -0.194793
    outer loop
      vertex 257.848 213 6.76537
      vertex 258 176 6
      vertex 257.848 176 6.76537
    endloop
  endfacet
  facet normal -0.831198 0 -0.555977
    outer loop
      vertex 257.848 176 6.76537
      vertex 257.414 213 7.41421
      vertex 257.848 213 6.76537
    endloop
  endfacet
  facet normal -0.831198 -0 -0.555977
    outer loop
      vertex 257.414 213 7.41421
      vertex 257.848 176 6.76537
      vertex 257.414 176 7.41421
    endloop
  endfacet
  facet normal 0.195179 0 -0.980768
    outer loop
      vertex 255.235 176 7.84776
      vertex 256 213 8
      vertex 256 176 8
    endloop
  endfacet
  facet normal 0.195179 0 -0.980768
    outer loop
      vertex 256 213 8
      vertex 255.235 176 7.84776
      vertex 255.235 213 7.84776
    endloop
  endfacet
  facet normal -0.555483 0 0.831528
    outer loop
      vertex 256.765 213 4.15224
      vertex 257.414 176 4.58579
      vertex 257.414 213 4.58579
    endloop
  endfacet
  facet normal -0.555483 0 0.831528
    outer loop
      vertex 257.414 176 4.58579
      vertex 256.765 213 4.15224
      vertex 256.765 176 4.15224
    endloop
  endfacet
  facet normal -0.555483 0 -0.831528
    outer loop
      vertex 256.765 176 7.84776
      vertex 257.414 213 7.41421
      vertex 257.414 176 7.41421
    endloop
  endfacet
  facet normal -0.555483 0 -0.831528
    outer loop
      vertex 257.414 213 7.41421
      vertex 256.765 176 7.84776
      vertex 256.765 213 7.84776
    endloop
  endfacet
  facet normal 0.831198 0 -0.555977
    outer loop
      vertex 254.586 176 7.41421
      vertex 254.152 213 6.76537
      vertex 254.586 213 7.41421
    endloop
  endfacet
  facet normal 0.831198 0 -0.555977
    outer loop
      vertex 254.152 213 6.76537
      vertex 254.586 176 7.41421
      vertex 254.152 176 6.76537
    endloop
  endfacet
  facet normal 0 1 0
    outer loop
      vertex 256.765 176 7.84776
      vertex 255.235 176 7.84776
      vertex 256 176 8
    endloop
  endfacet
  facet normal 0 1 0
    outer loop
      vertex 257.414 176 7.41421
      vertex 255.235 176 7.84776
      vertex 256.765 176 7.84776
    endloop
  endfacet
  facet normal 0 1 0
    outer loop
      vertex 257.414 176 7.41421
      vertex 254.586 176 7.41421
      vertex 255.235 176 7.84776
    endloop
  endfacet
  facet normal 0 1 0
    outer loop
      vertex 257.848 176 6.76537
      vertex 254.586 176 7.41421
      vertex 257.414 176 7.41421
    endloop
  endfacet
  facet normal 0 1 0
    outer loop
      vertex 257.848 176 6.76537
      vertex 254.152 176 6.76537
      vertex 254.586 176 7.41421
    endloop
  endfacet
  facet normal 0 1 0
    outer loop
      vertex 258 176 6
      vertex 254.152 176 6.76537
      vertex 257.848 176 6.76537
    endloop
  endfacet
  facet normal 0 1 0
    outer loop
      vertex 258 176 6
      vertex 254 176 6
      vertex 254.152 176 6.76537
    endloop
  endfacet
  facet normal 0 1 -0
    outer loop
      vertex 257.848 176 5.23463
      vertex 254 176 6
      vertex 258 176 6
    endloop
  endfacet
  facet normal 0 1 0
    outer loop
      vertex 257.848 176 5.23463
      vertex 254.152 176 5.23463
      vertex 254 176 6
    endloop
  endfacet
  facet normal 0 1 -0
    outer loop
      vertex 257.414 176 4.58579
      vertex 254.152 176 5.23463
      vertex 257.848 176 5.23463
    endloop
  endfacet
  facet normal 0 1 0
    outer loop
      vertex 257.414 176 4.58579
      vertex 254.586 176 4.58579
      vertex 254.152 176 5.23463
    endloop
  endfacet
  facet normal 0 1 -0
    outer loop
      vertex 256.765 176 4.15224
      vertex 254.586 176 4.58579
      vertex 257.414 176 4.58579
    endloop
  endfacet
  facet normal 0 1 0
    outer loop
      vertex 256.765 176 4.15224
      vertex 255.235 176 4.15224
      vertex 254.586 176 4.58579
    endloop
  endfacet
  facet normal -0 1 0
    outer loop
      vertex 255.235 176 4.15224
      vertex 256.765 176 4.15224
      vertex 256 176 4
    endloop
  endfacet
  facet normal 0.555483 0 -0.831528
    outer loop
      vertex 254.586 176 7.41421
      vertex 255.235 213 7.84776
      vertex 255.235 176 7.84776
    endloop
  endfacet
  facet normal 0.555483 0 -0.831528
    outer loop
      vertex 255.235 213 7.84776
      vertex 254.586 176 7.41421
      vertex 254.586 213 7.41421
    endloop
  endfacet
  facet normal 0.831198 -0 0.555977
    outer loop
      vertex 254.152 176 5.23463
      vertex 254.586 213 4.58579
      vertex 254.152 213 5.23463
    endloop
  endfacet
  facet normal 0.831198 0 0.555977
    outer loop
      vertex 254.586 213 4.58579
      vertex 254.152 176 5.23463
      vertex 254.586 176 4.58579
    endloop
  endfacet
  facet normal -0.195179 0 -0.980768
    outer loop
      vertex 256 176 8
      vertex 256.765 213 7.84776
      vertex 256.765 176 7.84776
    endloop
  endfacet
  facet normal -0.195179 0 -0.980768
    outer loop
      vertex 256.765 213 7.84776
      vertex 256 176 8
      vertex 256 213 8
    endloop
  endfacet
  facet normal 0.980844 0 -0.194793
    outer loop
      vertex 254.152 176 6.76537
      vertex 254 213 6
      vertex 254.152 213 6.76537
    endloop
  endfacet
  facet normal 0.980844 0 -0.194793
    outer loop
      vertex 254 213 6
      vertex 254.152 176 6.76537
      vertex 254 176 6
    endloop
  endfacet
  facet normal 0.980844 -0 0.194793
    outer loop
      vertex 254 176 6
      vertex 254.152 213 5.23463
      vertex 254 213 6
    endloop
  endfacet
  facet normal 0.980844 0 0.194793
    outer loop
      vertex 254.152 213 5.23463
      vertex 254 176 6
      vertex 254.152 176 5.23463
    endloop
  endfacet
  facet normal -0.831198 0 0.555977
    outer loop
      vertex 257.414 176 4.58579
      vertex 257.848 213 5.23463
      vertex 257.414 213 4.58579
    endloop
  endfacet
  facet normal -0.831198 0 0.555977
    outer loop
      vertex 257.848 213 5.23463
      vertex 257.414 176 4.58579
      vertex 257.848 176 5.23463
    endloop
  endfacet
  facet normal -0.980844 0 0.194793
    outer loop
      vertex 257.848 176 5.23463
      vertex 258 213 6
      vertex 257.848 213 5.23463
    endloop
  endfacet
  facet normal -0.980844 0 0.194793
    outer loop
      vertex 258 213 6
      vertex 257.848 176 5.23463
      vertex 258 176 6
    endloop
  endfacet
  facet normal 0.195179 0 0.980768
    outer loop
      vertex 255.235 213 4.15224
      vertex 256 176 4
      vertex 256 213 4
    endloop
  endfacet
  facet normal 0.195179 0 0.980768
    outer loop
      vertex 256 176 4
      vertex 255.235 213 4.15224
      vertex 255.235 176 4.15224
    endloop
  endfacet
  facet normal -0.195179 0 0.980768
    outer loop
      vertex 256 213 4
      vertex 256.765 176 4.15224
      vertex 256.765 213 4.15224
    endloop
  endfacet
  facet normal -0.195179 0 0.980768
    outer loop
      vertex 256.765 176 4.15224
      vertex 256 213 4
      vertex 256 176 4
    endloop
  endfacet
  facet normal 0.555483 0 0.831528
    outer loop
      vertex 254.586 213 4.58579
      vertex 255.235 176 4.15224
      vertex 255.235 213 4.15224
    endloop
  endfacet
  facet normal 0.555483 0 0.831528
    outer loop
      vertex 255.235 176 4.15224
      vertex 254.586 213 4.58579
      vertex 254.586 176 4.58579
    endloop
  endfacet
  facet normal -0.980844 0 -0.194793
    outer loop
      vertex 464 176 6
      vertex 463.848 213 6.76537
      vertex 464 213 6
    endloop
  endfacet
  facet normal -0.980844 -0 -0.194793
    outer loop
      vertex 463.848 213 6.76537
      vertex 464 176 6
      vertex 463.848 176 6.76537
    endloop
  endfacet
  facet normal -0.831198 0 -0.555977
    outer loop
      vertex 463.848 176 6.76537
      vertex 463.414 213 7.41421
      vertex 463.848 213 6.76537
    endloop
  endfacet
  facet normal -0.831198 -0 -0.555977
    outer loop
      vertex 463.414 213 7.41421
      vertex 463.848 176 6.76537
      vertex 463.414 176 7.41421
    endloop
  endfacet
  facet normal 0.195179 0 -0.980768
    outer loop
      vertex 461.235 176 7.84776
      vertex 462 213 8
      vertex 462 176 8
    endloop
  endfacet
  facet normal 0.195179 0 -0.980768
    outer loop
      vertex 462 213 8
      vertex 461.235 176 7.84776
      vertex 461.235 213 7.84776
    endloop
  endfacet
  facet normal -0.555483 0 0.831528
    outer loop
      vertex 462.765 213 4.15224
      vertex 463.414 176 4.58579
      vertex 463.414 213 4.58579
    endloop
  endfacet
  facet normal -0.555483 0 0.831528
    outer loop
      vertex 463.414 176 4.58579
      vertex 462.765 213 4.15224
      vertex 462.765 176 4.15224
    endloop
  endfacet
  facet normal -0.555483 0 -0.831528
    outer loop
      vertex 462.765 176 7.84776
      vertex 463.414 213 7.41421
      vertex 463.414 176 7.41421
    endloop
  endfacet
  facet normal -0.555483 0 -0.831528
    outer loop
      vertex 463.414 213 7.41421
      vertex 462.765 176 7.84776
      vertex 462.765 213 7.84776
    endloop
  endfacet
  facet normal 0.831198 0 -0.555977
    outer loop
      vertex 460.586 176 7.41421
      vertex 460.152 213 6.76537
      vertex 460.586 213 7.41421
    endloop
  endfacet
  facet normal 0.831198 0 -0.555977
    outer loop
      vertex 460.152 213 6.76537
      vertex 460.586 176 7.41421
      vertex 460.152 176 6.76537
    endloop
  endfacet
  facet normal 0 1 0
    outer loop
      vertex 462.765 176 7.84776
      vertex 461.235 176 7.84776
      vertex 462 176 8
    endloop
  endfacet
  facet normal 0 1 0
    outer loop
      vertex 463.414 176 7.41421
      vertex 461.235 176 7.84776
      vertex 462.765 176 7.84776
    endloop
  endfacet
  facet normal 0 1 0
    outer loop
      vertex 463.414 176 7.41421
      vertex 460.586 176 7.41421
      vertex 461.235 176 7.84776
    endloop
  endfacet
  facet normal 0 1 0
    outer loop
      vertex 463.848 176 6.76537
      vertex 460.586 176 7.41421
      vertex 463.414 176 7.41421
    endloop
  endfacet
  facet normal 0 1 0
    outer loop
      vertex 463.848 176 6.76537
      vertex 460.152 176 6.76537
      vertex 460.586 176 7.41421
    endloop
  endfacet
  facet normal 0 1 0
    outer loop
      vertex 464 176 6
      vertex 460.152 176 6.76537
      vertex 463.848 176 6.76537
    endloop
  endfacet
  facet normal 0 1 0
    outer loop
      vertex 464 176 6
      vertex 460 176 6
      vertex 460.152 176 6.76537
    endloop
  endfacet
  facet normal 0 1 -0
    outer loop
      vertex 463.848 176 5.23463
      vertex 460 176 6
      vertex 464 176 6
    endloop
  endfacet
  facet normal 0 1 0
    outer loop
      vertex 463.848 176 5.23463
      vertex 460.152 176 5.23463
      vertex 460 176 6
    endloop
  endfacet
  facet normal 0 1 -0
    outer loop
      vertex 463.414 176 4.58579
      vertex 460.152 176 5.23463
      vertex 463.848 176 5.23463
    endloop
  endfacet
  facet normal 0 1 0
    outer loop
      vertex 463.414 176 4.58579
      vertex 460.586 176 4.58579
      vertex 460.152 176 5.23463
    endloop
  endfacet
  facet normal 0 1 -0
    outer loop
      vertex 462.765 176 4.15224
      vertex 460.586 176 4.58579
      vertex 463.414 176 4.58579
    endloop
  endfacet
  facet normal 0 1 0
    outer loop
      vertex 462.765 176 4.15224
      vertex 461.235 176 4.15224
      vertex 460.586 176 4.58579
    endloop
  endfacet
  facet normal -0 1 0
    outer loop
      vertex 461.235 176 4.15224
      vertex 462.765 176 4.15224
      vertex 462 176 4
    endloop
  endfacet
  facet normal 0.555483 0 -0.831528
    outer loop
      vertex 460.586 176 7.41421
      vertex 461.235 213 7.84776
      vertex 461.235 176 7.84776
    endloop
  endfacet
  facet normal 0.555483 0 -0.831528
    outer loop
      vertex 461.235 213 7.84776
      vertex 460.586 176 7.41421
      vertex 460.586 213 7.41421
    endloop
  endfacet
  facet normal 0.831198 -0 0.555977
    outer loop
      vertex 460.152 176 5.23463
      vertex 460.586 213 4.58579
      vertex 460.152 213 5.23463
    endloop
  endfacet
  facet normal 0.831198 0 0.555977
    outer loop
      vertex 460.586 213 4.58579
      vertex 460.152 176 5.23463
      vertex 460.586 176 4.58579
    endloop
  endfacet
  facet normal -0.195179 0 -0.980768
    outer loop
      vertex 462 176 8
      vertex 462.765 213 7.84776
      vertex 462.765 176 7.84776
    endloop
  endfacet
  facet normal -0.195179 0 -0.980768
    outer loop
      vertex 462.765 213 7.84776
      vertex 462 176 8
      vertex 462 213 8
    endloop
  endfacet
  facet normal 0.980844 0 -0.194793
    outer loop
      vertex 460.152 176 6.76537
      vertex 460 213 6
      vertex 460.152 213 6.76537
    endloop
  endfacet
  facet normal 0.980844 0 -0.194793
    outer loop
      vertex 460 213 6
      vertex 460.152 176 6.76537
      vertex 460 176 6
    endloop
  endfacet
  facet normal 0.980844 -0 0.194793
    outer loop
      vertex 460 176 6
      vertex 460.152 213 5.23463
      vertex 460 213 6
    endloop
  endfacet
  facet normal 0.980844 0 0.194793
    outer loop
      vertex 460.152 213 5.23463
      vertex 460 176 6
      vertex 460.152 176 5.23463
    endloop
  endfacet
  facet normal -0.831198 0 0.555977
    outer loop
      vertex 463.414 176 4.58579
      vertex 463.848 213 5.23463
      vertex 463.414 213 4.58579
    endloop
  endfacet
  facet normal -0.831198 0 0.555977
    outer loop
      vertex 463.848 213 5.23463
      vertex 463.414 176 4.58579
      vertex 463.848 176 5.23463
    endloop
  endfacet
  facet normal -0.980844 0 0.194793
    outer loop
      vertex 463.848 176 5.23463
      vertex 464 213 6
      vertex 463.848 213 5.23463
    endloop
  endfacet
  facet normal -0.980844 0 0.194793
    outer loop
      vertex 464 213 6
      vertex 463.848 176 5.23463
      vertex 464 176 6
    endloop
  endfacet
  facet normal 0.195179 0 0.980768
    outer loop
      vertex 461.235 213 4.15224
      vertex 462 176 4
      vertex 462 213 4
    endloop
  endfacet
  facet normal 0.195179 0 0.980768
    outer loop
      vertex 462 176 4
      vertex 461.235 213 4.15224
      vertex 461.235 176 4.15224
    endloop
  endfacet
  facet normal -0.195179 0 0.980768
    outer loop
      vertex 462 213 4
      vertex 462.765 176 4.15224
      vertex 462.765 213 4.15224
    endloop
  endfacet
  facet normal -0.195179 0 0.980768
    outer loop
      vertex 462.765 176 4.15224
      vertex 462 213 4
      vertex 462 176 4
    endloop
  endfacet
  facet normal 0.555483 0 0.831528
    outer loop
      vertex 460.586 213 4.58579
      vertex 461.235 176 4.15224
      vertex 461.235 213 4.15224
    endloop
  endfacet
  facet normal 0.555483 0 0.831528
    outer loop
      vertex 461.235 176 4.15224
      vertex 460.586 213 4.58579
      vertex 460.586 176 4.58579
    endloop
  endfacet
  facet normal -0 0 1
    outer loop
      vertex 0 213 12
      vertex 512 0 12
      vertex 512 213 12
    endloop
  endfacet
  facet normal 0 0 1
    outer loop
      vertex 512 0 12
      vertex 0 213 12
      vertex 0 0 12
    endloop
  endfacet
  facet normal 0 0 -1
    outer loop
      vertex 0 0 0
      vertex 512 213 0
      vertex 512 0 0
    endloop
  endfacet
  facet normal -0 0 -1
    outer loop
      vertex 512 213 0
      vertex 0 0 0
      vertex 0 213 0
    endloop
  endfacet
endsolid OpenSCAD_Model
