solid OpenSCAD_Model
  facet normal -0 0 -1
    outer loop
      vertex 216.652 128.235 0
      vertex 44.6213 52.1213 0
      vertex 216.5 129 0
    endloop
  endfacet
  facet normal 0 0 -1
    outer loop
      vertex 216.5 129 0
      vertex 45.2716 181.852 0
      vertex 45.5 183 0
    endloop
  endfacet
  facet normal 0 0 -1
    outer loop
      vertex 44.6213 180.879 0
      vertex 216.5 129 0
      vertex 44.6213 52.1213 0
    endloop
  endfacet
  facet normal 0 0 -1
    outer loop
      vertex 216.5 129 0
      vertex 44.6213 180.879 0
      vertex 45.2716 181.852 0
    endloop
  endfacet
  facet normal 0 0 -1
    outer loop
      vertex 43.648 52.7716 0
      vertex 44.6213 180.879 0
      vertex 44.6213 52.1213 0
    endloop
  endfacet
  facet normal 0 0 -1
    outer loop
      vertex 43.648 52.7716 0
      vertex 43.648 180.228 0
      vertex 44.6213 180.879 0
    endloop
  endfacet
  facet normal 0 0 -1
    outer loop
      vertex 42.5 53 0
      vertex 43.648 180.228 0
      vertex 43.648 52.7716 0
    endloop
  endfacet
  facet normal 0 0 -1
    outer loop
      vertex 42.5 53 0
      vertex 42.5 180 0
      vertex 43.648 180.228 0
    endloop
  endfacet
  facet normal 0 0 -1
    outer loop
      vertex 41.352 52.7716 0
      vertex 42.5 180 0
      vertex 42.5 53 0
    endloop
  endfacet
  facet normal 0 0 -1
    outer loop
      vertex 41.352 52.7716 0
      vertex 41.352 180.228 0
      vertex 42.5 180 0
    endloop
  endfacet
  facet normal 0 0 -1
    outer loop
      vertex 40.3787 52.1213 0
      vertex 41.352 180.228 0
      vertex 41.352 52.7716 0
    endloop
  endfacet
  facet normal 0 0 -1
    outer loop
      vertex 40.3787 52.1213 0
      vertex 40.3787 180.879 0
      vertex 41.352 180.228 0
    endloop
  endfacet
  facet normal 0 0 -1
    outer loop
      vertex 39.7284 51.148 0
      vertex 40.3787 180.879 0
      vertex 40.3787 52.1213 0
    endloop
  endfacet
  facet normal 0 0 -1
    outer loop
      vertex 39.7284 51.148 0
      vertex 39.7284 181.852 0
      vertex 40.3787 180.879 0
    endloop
  endfacet
  facet normal 0 0 -1
    outer loop
      vertex 0 0 0
      vertex 39.7284 51.148 0
      vertex 39.5 50 0
    endloop
  endfacet
  facet normal -0 0 -1
    outer loop
      vertex 39.7284 51.148 0
      vertex 0 0 0
      vertex 39.7284 181.852 0
    endloop
  endfacet
  facet normal 0 0 -1
    outer loop
      vertex 557.272 181.852 0
      vertex 597 233 0
      vertex 557.272 51.148 0
    endloop
  endfacet
  facet normal 0 0 -1
    outer loop
      vertex 597 233 0
      vertex 557.272 181.852 0
      vertex 557.5 183 0
    endloop
  endfacet
  facet normal 0 0 -1
    outer loop
      vertex 556.621 52.1213 0
      vertex 557.272 181.852 0
      vertex 557.272 51.148 0
    endloop
  endfacet
  facet normal 0 0 -1
    outer loop
      vertex 556.621 52.1213 0
      vertex 556.621 180.879 0
      vertex 557.272 181.852 0
    endloop
  endfacet
  facet normal 0 0 -1
    outer loop
      vertex 555.648 52.7716 0
      vertex 556.621 180.879 0
      vertex 556.621 52.1213 0
    endloop
  endfacet
  facet normal 0 0 -1
    outer loop
      vertex 555.648 52.7716 0
      vertex 555.648 180.228 0
      vertex 556.621 180.879 0
    endloop
  endfacet
  facet normal 0 0 -1
    outer loop
      vertex 554.5 53 0
      vertex 555.648 180.228 0
      vertex 555.648 52.7716 0
    endloop
  endfacet
  facet normal 0 0 -1
    outer loop
      vertex 554.5 53 0
      vertex 554.5 180 0
      vertex 555.648 180.228 0
    endloop
  endfacet
  facet normal 0 0 -1
    outer loop
      vertex 553.352 52.7716 0
      vertex 554.5 180 0
      vertex 554.5 53 0
    endloop
  endfacet
  facet normal 0 0 -1
    outer loop
      vertex 553.352 52.7716 0
      vertex 553.352 180.228 0
      vertex 554.5 180 0
    endloop
  endfacet
  facet normal 0 0 -1
    outer loop
      vertex 552.379 52.1213 0
      vertex 553.352 180.228 0
      vertex 553.352 52.7716 0
    endloop
  endfacet
  facet normal 0 0 -1
    outer loop
      vertex 552.379 52.1213 0
      vertex 552.379 180.879 0
      vertex 553.352 180.228 0
    endloop
  endfacet
  facet normal 0 0 -1
    outer loop
      vertex 380.5 129 0
      vertex 552.379 52.1213 0
      vertex 551.728 51.148 0
    endloop
  endfacet
  facet normal 0 0 -1
    outer loop
      vertex 552.379 52.1213 0
      vertex 380.5 129 0
      vertex 552.379 180.879 0
    endloop
  endfacet
  facet normal 0 0 -1
    outer loop
      vertex 504.5 9 0
      vertex 551.728 51.148 0
      vertex 551.5 50 0
    endloop
  endfacet
  facet normal -0 0 -1
    outer loop
      vertex 552.379 180.879 0
      vertex 380.5 129 0
      vertex 551.728 181.852 0
    endloop
  endfacet
  facet normal 0 0 -1
    outer loop
      vertex 557.272 51.148 0
      vertex 597 0 0
      vertex 557.5 50 0
    endloop
  endfacet
  facet normal 0 0 -1
    outer loop
      vertex 597 0 0
      vertex 557.272 48.852 0
      vertex 557.5 50 0
    endloop
  endfacet
  facet normal 0 0 -1
    outer loop
      vertex 597 0 0
      vertex 556.621 47.8787 0
      vertex 557.272 48.852 0
    endloop
  endfacet
  facet normal 0 0 -1
    outer loop
      vertex 597 0 0
      vertex 555.648 47.2284 0
      vertex 556.621 47.8787 0
    endloop
  endfacet
  facet normal 0 0 -1
    outer loop
      vertex 597 0 0
      vertex 554.5 47 0
      vertex 555.648 47.2284 0
    endloop
  endfacet
  facet normal 0 0 -1
    outer loop
      vertex 507.5 6 0
      vertex 554.5 47 0
      vertex 597 0 0
    endloop
  endfacet
  facet normal -0 0 -1
    outer loop
      vertex 554.5 47 0
      vertex 507.5 6 0
      vertex 553.352 47.2284 0
    endloop
  endfacet
  facet normal -0 0 -1
    outer loop
      vertex 552.379 47.8787 0
      vertex 506.621 8.12132 0
      vertex 551.728 48.852 0
    endloop
  endfacet
  facet normal 0 0 -1
    outer loop
      vertex 506.621 8.12132 0
      vertex 552.379 47.8787 0
      vertex 507.272 7.14805 0
    endloop
  endfacet
  facet normal -0 0 -1
    outer loop
      vertex 553.352 47.2284 0
      vertex 507.272 7.14805 0
      vertex 552.379 47.8787 0
    endloop
  endfacet
  facet normal 0 0 -1
    outer loop
      vertex 507.272 7.14805 0
      vertex 553.352 47.2284 0
      vertex 507.5 6 0
    endloop
  endfacet
  facet normal 0 0 -1
    outer loop
      vertex 597 0 0
      vertex 507.272 4.85195 0
      vertex 507.5 6 0
    endloop
  endfacet
  facet normal 0 0 -1
    outer loop
      vertex 597 0 0
      vertex 506.621 3.87868 0
      vertex 507.272 4.85195 0
    endloop
  endfacet
  facet normal 0 0 -1
    outer loop
      vertex 597 0 0
      vertex 505.648 3.22836 0
      vertex 506.621 3.87868 0
    endloop
  endfacet
  facet normal 0 0 -1
    outer loop
      vertex 597 0 0
      vertex 504.5 3 0
      vertex 505.648 3.22836 0
    endloop
  endfacet
  facet normal 0 0 -1
    outer loop
      vertex 370.167 6 0
      vertex 501.5 6 0
      vertex 501.728 4.85195 0
    endloop
  endfacet
  facet normal 0 0 -1
    outer loop
      vertex 369.938 4.85195 0
      vertex 501.728 4.85195 0
      vertex 502.379 3.87868 0
    endloop
  endfacet
  facet normal 0 0 -1
    outer loop
      vertex 501.5 6 0
      vertex 380.348 128.235 0
      vertex 380.5 129 0
    endloop
  endfacet
  facet normal 0 0 -1
    outer loop
      vertex 501.5 6 0
      vertex 379.914 127.586 0
      vertex 380.348 128.235 0
    endloop
  endfacet
  facet normal 0 0 -1
    outer loop
      vertex 501.5 6 0
      vertex 369.288 8.12132 0
      vertex 379.914 127.586 0
    endloop
  endfacet
  facet normal 0 0 -1
    outer loop
      vertex 379.914 127.586 0
      vertex 369.288 8.12132 0
      vertex 379.265 127.152 0
    endloop
  endfacet
  facet normal 0 0 -1
    outer loop
      vertex 368.315 8.77164 0
      vertex 379.265 127.152 0
      vertex 369.288 8.12132 0
    endloop
  endfacet
  facet normal 0 0 -1
    outer loop
      vertex 379.265 127.152 0
      vertex 368.315 8.77164 0
      vertex 378.5 127 0
    endloop
  endfacet
  facet normal 0 0 -1
    outer loop
      vertex 367.167 9 0
      vertex 378.5 127 0
      vertex 368.315 8.77164 0
    endloop
  endfacet
  facet normal 0 0 -1
    outer loop
      vertex 501.5 6 0
      vertex 369.938 7.14805 0
      vertex 369.288 8.12132 0
    endloop
  endfacet
  facet normal 0 0 -1
    outer loop
      vertex 501.5 6 0
      vertex 370.167 6 0
      vertex 369.938 7.14805 0
    endloop
  endfacet
  facet normal 0 0 -1
    outer loop
      vertex 369.288 3.87868 0
      vertex 502.379 3.87868 0
      vertex 503.352 3.22836 0
    endloop
  endfacet
  facet normal 0 0 -1
    outer loop
      vertex 368.315 3.22836 0
      vertex 503.352 3.22836 0
      vertex 504.5 3 0
    endloop
  endfacet
  facet normal 0 0 -1
    outer loop
      vertex 367.167 3 0
      vertex 504.5 3 0
      vertex 597 0 0
    endloop
  endfacet
  facet normal 0 0 -1
    outer loop
      vertex 501.728 4.85195 0
      vertex 369.938 4.85195 0
      vertex 370.167 6 0
    endloop
  endfacet
  facet normal 0 0 -1
    outer loop
      vertex 502.379 3.87868 0
      vertex 369.288 3.87868 0
      vertex 369.938 4.85195 0
    endloop
  endfacet
  facet normal 0 0 -1
    outer loop
      vertex 503.352 3.22836 0
      vertex 368.315 3.22836 0
      vertex 369.288 3.87868 0
    endloop
  endfacet
  facet normal 0 0 -1
    outer loop
      vertex 504.5 3 0
      vertex 367.167 3 0
      vertex 368.315 3.22836 0
    endloop
  endfacet
  facet normal 0 0 -1
    outer loop
      vertex 364.395 4.85195 0
      vertex 232.833 6 0
      vertex 364.167 6 0
    endloop
  endfacet
  facet normal 0 0 -1
    outer loop
      vertex 232.605 4.85195 0
      vertex 364.395 4.85195 0
      vertex 365.045 3.87868 0
    endloop
  endfacet
  facet normal 0 0 -1
    outer loop
      vertex 231.955 3.87868 0
      vertex 365.045 3.87868 0
      vertex 366.019 3.22836 0
    endloop
  endfacet
  facet normal 0 0 -1
    outer loop
      vertex 230.981 3.22836 0
      vertex 366.019 3.22836 0
      vertex 367.167 3 0
    endloop
  endfacet
  facet normal 0 0 -1
    outer loop
      vertex 364.395 4.85195 0
      vertex 232.605 4.85195 0
      vertex 232.833 6 0
    endloop
  endfacet
  facet normal 0 0 -1
    outer loop
      vertex 365.045 3.87868 0
      vertex 231.955 3.87868 0
      vertex 232.605 4.85195 0
    endloop
  endfacet
  facet normal 0 0 -1
    outer loop
      vertex 229.833 3 0
      vertex 367.167 3 0
      vertex 597 0 0
    endloop
  endfacet
  facet normal 0 0 -1
    outer loop
      vertex 366.019 3.22836 0
      vertex 230.981 3.22836 0
      vertex 231.955 3.87868 0
    endloop
  endfacet
  facet normal 0 0 -1
    outer loop
      vertex 367.167 3 0
      vertex 229.833 3 0
      vertex 230.981 3.22836 0
    endloop
  endfacet
  facet normal -0 0 -1
    outer loop
      vertex 376.5 129 0
      vertex 220.348 128.235 0
      vertex 220.5 129 0
    endloop
  endfacet
  facet normal 0 0 -1
    outer loop
      vertex 227.062 7.14805 0
      vertex 219.914 127.586 0
      vertex 220.348 128.235 0
    endloop
  endfacet
  facet normal 0 0 -1
    outer loop
      vertex 227.062 7.14805 0
      vertex 219.265 127.152 0
      vertex 219.914 127.586 0
    endloop
  endfacet
  facet normal 0 0 -1
    outer loop
      vertex 227.062 7.14805 0
      vertex 218.5 127 0
      vertex 219.265 127.152 0
    endloop
  endfacet
  facet normal 0 0 -1
    outer loop
      vertex 227.062 7.14805 0
      vertex 217.735 127.152 0
      vertex 218.5 127 0
    endloop
  endfacet
  facet normal 0 0 -1
    outer loop
      vertex 227.062 7.14805 0
      vertex 217.086 127.586 0
      vertex 217.735 127.152 0
    endloop
  endfacet
  facet normal 0 0 -1
    outer loop
      vertex 227.062 7.14805 0
      vertex 94.6213 8.12132 0
      vertex 217.086 127.586 0
    endloop
  endfacet
  facet normal -0 0 -1
    outer loop
      vertex 217.086 127.586 0
      vertex 94.6213 8.12132 0
      vertex 216.652 128.235 0
    endloop
  endfacet
  facet normal 0 0 -1
    outer loop
      vertex 95.2716 7.14805 0
      vertex 226.833 6 0
      vertex 95.5 6 0
    endloop
  endfacet
  facet normal 0 0 -1
    outer loop
      vertex 227.062 4.85195 0
      vertex 95.5 6 0
      vertex 226.833 6 0
    endloop
  endfacet
  facet normal 0 0 -1
    outer loop
      vertex 95.2716 4.85195 0
      vertex 227.062 4.85195 0
      vertex 227.712 3.87868 0
    endloop
  endfacet
  facet normal 0 0 -1
    outer loop
      vertex 94.6213 3.87868 0
      vertex 227.712 3.87868 0
      vertex 228.685 3.22836 0
    endloop
  endfacet
  facet normal 0 0 -1
    outer loop
      vertex 93.648 3.22836 0
      vertex 228.685 3.22836 0
      vertex 229.833 3 0
    endloop
  endfacet
  facet normal 0 0 -1
    outer loop
      vertex 227.062 4.85195 0
      vertex 95.2716 4.85195 0
      vertex 95.5 6 0
    endloop
  endfacet
  facet normal 0 0 -1
    outer loop
      vertex 227.712 3.87868 0
      vertex 94.6213 3.87868 0
      vertex 95.2716 4.85195 0
    endloop
  endfacet
  facet normal 0 0 -1
    outer loop
      vertex 0 0 0
      vertex 229.833 3 0
      vertex 597 0 0
    endloop
  endfacet
  facet normal 0 0 -1
    outer loop
      vertex 228.685 3.22836 0
      vertex 93.648 3.22836 0
      vertex 94.6213 3.87868 0
    endloop
  endfacet
  facet normal 0 0 -1
    outer loop
      vertex 229.833 3 0
      vertex 92.5 3 0
      vertex 93.648 3.22836 0
    endloop
  endfacet
  facet normal 0 0 -1
    outer loop
      vertex 0 0 0
      vertex 89.5 6 0
      vertex 89.7284 4.85195 0
    endloop
  endfacet
  facet normal 0 0 -1
    outer loop
      vertex 0 0 0
      vertex 89.7284 4.85195 0
      vertex 90.3787 3.87868 0
    endloop
  endfacet
  facet normal 0 0 -1
    outer loop
      vertex 89.5 6 0
      vertex 45.2716 48.852 0
      vertex 45.5 50 0
    endloop
  endfacet
  facet normal 0 0 -1
    outer loop
      vertex 89.5 6 0
      vertex 44.6213 47.8787 0
      vertex 45.2716 48.852 0
    endloop
  endfacet
  facet normal 0 0 -1
    outer loop
      vertex 89.5 6 0
      vertex 43.648 47.2284 0
      vertex 44.6213 47.8787 0
    endloop
  endfacet
  facet normal 0 0 -1
    outer loop
      vertex 89.5 6 0
      vertex 42.5 47 0
      vertex 43.648 47.2284 0
    endloop
  endfacet
  facet normal -0 0 -1
    outer loop
      vertex 89.5 6 0
      vertex 0 0 0
      vertex 42.5 47 0
    endloop
  endfacet
  facet normal -0 0 -1
    outer loop
      vertex 42.5 47 0
      vertex 0 0 0
      vertex 41.352 47.2284 0
    endloop
  endfacet
  facet normal 0 0 -1
    outer loop
      vertex 0 233 0
      vertex 39.7284 181.852 0
      vertex 0 0 0
    endloop
  endfacet
  facet normal -0 0 -1
    outer loop
      vertex 39.7284 48.852 0
      vertex 0 0 0
      vertex 39.5 50 0
    endloop
  endfacet
  facet normal -0 0 -1
    outer loop
      vertex 40.3787 47.8787 0
      vertex 0 0 0
      vertex 39.7284 48.852 0
    endloop
  endfacet
  facet normal -0 0 -1
    outer loop
      vertex 41.352 47.2284 0
      vertex 0 0 0
      vertex 40.3787 47.8787 0
    endloop
  endfacet
  facet normal -0 0 -1
    outer loop
      vertex 91.352 3.22836 0
      vertex 0 0 0
      vertex 90.3787 3.87868 0
    endloop
  endfacet
  facet normal -0 0 -1
    outer loop
      vertex 92.5 3 0
      vertex 0 0 0
      vertex 91.352 3.22836 0
    endloop
  endfacet
  facet normal -0 0 -1
    outer loop
      vertex 229.833 3 0
      vertex 0 0 0
      vertex 92.5 3 0
    endloop
  endfacet
  facet normal 0 0 -1
    outer loop
      vertex 597 0 0
      vertex 557.272 51.148 0
      vertex 597 233 0
    endloop
  endfacet
  facet normal 0 0 -1
    outer loop
      vertex 557.272 184.148 0
      vertex 597 233 0
      vertex 557.5 183 0
    endloop
  endfacet
  facet normal 0 0 -1
    outer loop
      vertex 556.621 185.121 0
      vertex 597 233 0
      vertex 557.272 184.148 0
    endloop
  endfacet
  facet normal 0 0 -1
    outer loop
      vertex 555.648 185.772 0
      vertex 597 233 0
      vertex 556.621 185.121 0
    endloop
  endfacet
  facet normal 0 0 -1
    outer loop
      vertex 554.5 186 0
      vertex 597 233 0
      vertex 555.648 185.772 0
    endloop
  endfacet
  facet normal 0 0 -1
    outer loop
      vertex 553.352 185.772 0
      vertex 597 233 0
      vertex 554.5 186 0
    endloop
  endfacet
  facet normal 0 0 -1
    outer loop
      vertex 552.379 185.121 0
      vertex 597 233 0
      vertex 553.352 185.772 0
    endloop
  endfacet
  facet normal 0 0 -1
    outer loop
      vertex 505.648 8.77164 0
      vertex 551.728 48.852 0
      vertex 506.621 8.12132 0
    endloop
  endfacet
  facet normal -0 0 -1
    outer loop
      vertex 551.728 48.852 0
      vertex 505.648 8.77164 0
      vertex 551.5 50 0
    endloop
  endfacet
  facet normal 0 0 -1
    outer loop
      vertex 504.5 9 0
      vertex 551.5 50 0
      vertex 505.648 8.77164 0
    endloop
  endfacet
  facet normal 0 0 -1
    outer loop
      vertex 551.728 51.148 0
      vertex 504.5 9 0
      vertex 503.352 8.77164 0
    endloop
  endfacet
  facet normal -0 0 -1
    outer loop
      vertex 551.728 51.148 0
      vertex 503.352 8.77164 0
      vertex 380.5 129 0
    endloop
  endfacet
  facet normal 0 0 -1
    outer loop
      vertex 380.348 129.765 0
      vertex 551.728 181.852 0
      vertex 380.5 129 0
    endloop
  endfacet
  facet normal 0 0 -1
    outer loop
      vertex 380.5 129 0
      vertex 503.352 8.77164 0
      vertex 502.379 8.12132 0
    endloop
  endfacet
  facet normal 0 0 -1
    outer loop
      vertex 380.5 129 0
      vertex 502.379 8.12132 0
      vertex 501.728 7.14805 0
    endloop
  endfacet
  facet normal 0 0 -1
    outer loop
      vertex 380.5 129 0
      vertex 501.728 7.14805 0
      vertex 501.5 6 0
    endloop
  endfacet
  facet normal -0 0 -1
    outer loop
      vertex 551.728 181.852 0
      vertex 380.348 129.765 0
      vertex 551.5 183 0
    endloop
  endfacet
  facet normal 0 0 -1
    outer loop
      vertex 379.914 130.414 0
      vertex 551.5 183 0
      vertex 380.348 129.765 0
    endloop
  endfacet
  facet normal -0 0 -1
    outer loop
      vertex 551.5 183 0
      vertex 379.914 130.414 0
      vertex 551.728 184.148 0
    endloop
  endfacet
  facet normal 0 0 -1
    outer loop
      vertex 379.265 130.848 0
      vertex 551.728 184.148 0
      vertex 379.914 130.414 0
    endloop
  endfacet
  facet normal -0 0 -1
    outer loop
      vertex 551.728 184.148 0
      vertex 379.265 130.848 0
      vertex 552.379 185.121 0
    endloop
  endfacet
  facet normal 0 0 -1
    outer loop
      vertex 378.5 131 0
      vertex 552.379 185.121 0
      vertex 379.265 130.848 0
    endloop
  endfacet
  facet normal -0 0 -1
    outer loop
      vertex 552.379 185.121 0
      vertex 378.5 131 0
      vertex 597 233 0
    endloop
  endfacet
  facet normal 0 0 -1
    outer loop
      vertex 218.5 131 0
      vertex 378.5 131 0
      vertex 377.735 130.848 0
    endloop
  endfacet
  facet normal -0 0 -1
    outer loop
      vertex 378.5 127 0
      vertex 367.167 9 0
      vertex 377.735 127.152 0
    endloop
  endfacet
  facet normal 0 0 -1
    outer loop
      vertex 366.019 8.77164 0
      vertex 377.735 127.152 0
      vertex 367.167 9 0
    endloop
  endfacet
  facet normal -0 0 -1
    outer loop
      vertex 377.735 127.152 0
      vertex 366.019 8.77164 0
      vertex 377.086 127.586 0
    endloop
  endfacet
  facet normal 0 0 -1
    outer loop
      vertex 365.045 8.12132 0
      vertex 377.086 127.586 0
      vertex 366.019 8.77164 0
    endloop
  endfacet
  facet normal -0 0 -1
    outer loop
      vertex 377.086 127.586 0
      vertex 365.045 8.12132 0
      vertex 376.652 128.235 0
    endloop
  endfacet
  facet normal 0 0 -1
    outer loop
      vertex 231.955 8.12132 0
      vertex 376.652 128.235 0
      vertex 365.045 8.12132 0
    endloop
  endfacet
  facet normal 0 0 -1
    outer loop
      vertex 231.955 8.12132 0
      vertex 365.045 8.12132 0
      vertex 364.395 7.14805 0
    endloop
  endfacet
  facet normal 0 0 -1
    outer loop
      vertex 232.605 7.14805 0
      vertex 364.395 7.14805 0
      vertex 364.167 6 0
    endloop
  endfacet
  facet normal 0 0 -1
    outer loop
      vertex 232.605 7.14805 0
      vertex 364.167 6 0
      vertex 232.833 6 0
    endloop
  endfacet
  facet normal 0 0 -1
    outer loop
      vertex 364.395 7.14805 0
      vertex 232.605 7.14805 0
      vertex 231.955 8.12132 0
    endloop
  endfacet
  facet normal 0 0 -1
    outer loop
      vertex 220.348 128.235 0
      vertex 376.652 128.235 0
      vertex 231.955 8.12132 0
    endloop
  endfacet
  facet normal 0 0 -1
    outer loop
      vertex 376.652 128.235 0
      vertex 220.348 128.235 0
      vertex 376.5 129 0
    endloop
  endfacet
  facet normal 0 0 -1
    outer loop
      vertex 376.5 129 0
      vertex 220.5 129 0
      vertex 376.652 129.765 0
    endloop
  endfacet
  facet normal 0 0 -1
    outer loop
      vertex 220.348 128.235 0
      vertex 231.955 8.12132 0
      vertex 230.981 8.77164 0
    endloop
  endfacet
  facet normal 0 0 -1
    outer loop
      vertex 220.348 128.235 0
      vertex 230.981 8.77164 0
      vertex 229.833 9 0
    endloop
  endfacet
  facet normal 0 0 -1
    outer loop
      vertex 220.348 128.235 0
      vertex 229.833 9 0
      vertex 228.685 8.77164 0
    endloop
  endfacet
  facet normal 0 0 -1
    outer loop
      vertex 220.348 128.235 0
      vertex 228.685 8.77164 0
      vertex 227.712 8.12132 0
    endloop
  endfacet
  facet normal 0 0 -1
    outer loop
      vertex 95.2716 7.14805 0
      vertex 227.062 7.14805 0
      vertex 226.833 6 0
    endloop
  endfacet
  facet normal 0 0 -1
    outer loop
      vertex 220.348 128.235 0
      vertex 227.712 8.12132 0
      vertex 227.062 7.14805 0
    endloop
  endfacet
  facet normal 0 0 -1
    outer loop
      vertex 220.348 129.765 0
      vertex 376.652 129.765 0
      vertex 220.5 129 0
    endloop
  endfacet
  facet normal 0 0 -1
    outer loop
      vertex 376.652 129.765 0
      vertex 220.348 129.765 0
      vertex 377.086 130.414 0
    endloop
  endfacet
  facet normal 0 0 -1
    outer loop
      vertex 219.914 130.414 0
      vertex 377.086 130.414 0
      vertex 220.348 129.765 0
    endloop
  endfacet
  facet normal 0 0 -1
    outer loop
      vertex 377.086 130.414 0
      vertex 219.914 130.414 0
      vertex 377.735 130.848 0
    endloop
  endfacet
  facet normal 0 0 -1
    outer loop
      vertex 219.265 130.848 0
      vertex 377.735 130.848 0
      vertex 219.914 130.414 0
    endloop
  endfacet
  facet normal 0 0 -1
    outer loop
      vertex 218.5 131 0
      vertex 377.735 130.848 0
      vertex 219.265 130.848 0
    endloop
  endfacet
  facet normal 0 0 -1
    outer loop
      vertex 378.5 131 0
      vertex 218.5 131 0
      vertex 597 233 0
    endloop
  endfacet
  facet normal 0 0 -1
    outer loop
      vertex 44.6213 185.121 0
      vertex 218.5 131 0
      vertex 217.735 130.848 0
    endloop
  endfacet
  facet normal 0 0 -1
    outer loop
      vertex 227.062 7.14805 0
      vertex 95.2716 7.14805 0
      vertex 94.6213 8.12132 0
    endloop
  endfacet
  facet normal 0 0 -1
    outer loop
      vertex 93.648 8.77164 0
      vertex 216.652 128.235 0
      vertex 94.6213 8.12132 0
    endloop
  endfacet
  facet normal 0 0 -1
    outer loop
      vertex 92.5 9 0
      vertex 45.2716 51.148 0
      vertex 93.648 8.77164 0
    endloop
  endfacet
  facet normal 0 0 -1
    outer loop
      vertex 93.648 8.77164 0
      vertex 45.2716 51.148 0
      vertex 216.652 128.235 0
    endloop
  endfacet
  facet normal 0 0 -1
    outer loop
      vertex 44.6213 52.1213 0
      vertex 216.652 128.235 0
      vertex 45.2716 51.148 0
    endloop
  endfacet
  facet normal 0 0 -1
    outer loop
      vertex 45.2716 51.148 0
      vertex 92.5 9 0
      vertex 45.5 50 0
    endloop
  endfacet
  facet normal 0 0 -1
    outer loop
      vertex 45.5 50 0
      vertex 92.5 9 0
      vertex 91.352 8.77164 0
    endloop
  endfacet
  facet normal 0 0 -1
    outer loop
      vertex 45.5 50 0
      vertex 91.352 8.77164 0
      vertex 90.3787 8.12132 0
    endloop
  endfacet
  facet normal 0 0 -1
    outer loop
      vertex 45.5 50 0
      vertex 89.7284 7.14805 0
      vertex 89.5 6 0
    endloop
  endfacet
  facet normal 0 0 -1
    outer loop
      vertex 45.5 50 0
      vertex 90.3787 8.12132 0
      vertex 89.7284 7.14805 0
    endloop
  endfacet
  facet normal 0 0 -1
    outer loop
      vertex 216.5 129 0
      vertex 45.5 183 0
      vertex 216.652 129.765 0
    endloop
  endfacet
  facet normal 0 0 -1
    outer loop
      vertex 216.652 129.765 0
      vertex 45.5 183 0
      vertex 217.086 130.414 0
    endloop
  endfacet
  facet normal 0 0 -1
    outer loop
      vertex 45.2716 184.148 0
      vertex 217.086 130.414 0
      vertex 45.5 183 0
    endloop
  endfacet
  facet normal 0 0 -1
    outer loop
      vertex 217.086 130.414 0
      vertex 45.2716 184.148 0
      vertex 217.735 130.848 0
    endloop
  endfacet
  facet normal 0 0 -1
    outer loop
      vertex 44.6213 185.121 0
      vertex 217.735 130.848 0
      vertex 45.2716 184.148 0
    endloop
  endfacet
  facet normal 0 0 -1
    outer loop
      vertex 218.5 131 0
      vertex 44.6213 185.121 0
      vertex 0 233 0
    endloop
  endfacet
  facet normal 0 0 -1
    outer loop
      vertex 0 233 0
      vertex 44.6213 185.121 0
      vertex 43.648 185.772 0
    endloop
  endfacet
  facet normal 0 0 -1
    outer loop
      vertex 0 233 0
      vertex 43.648 185.772 0
      vertex 42.5 186 0
    endloop
  endfacet
  facet normal 0 0 -1
    outer loop
      vertex 39.7284 181.852 0
      vertex 0 233 0
      vertex 39.5 183 0
    endloop
  endfacet
  facet normal 0 0 -1
    outer loop
      vertex 218.5 131 0
      vertex 0 233 0
      vertex 597 233 0
    endloop
  endfacet
  facet normal 0 0 -1
    outer loop
      vertex 41.352 185.772 0
      vertex 0 233 0
      vertex 42.5 186 0
    endloop
  endfacet
  facet normal 0 0 -1
    outer loop
      vertex 40.3787 185.121 0
      vertex 0 233 0
      vertex 41.352 185.772 0
    endloop
  endfacet
  facet normal 0 0 -1
    outer loop
      vertex 39.7284 184.148 0
      vertex 0 233 0
      vertex 40.3787 185.121 0
    endloop
  endfacet
  facet normal 0 0 -1
    outer loop
      vertex 39.5 183 0
      vertex 0 233 0
      vertex 39.7284 184.148 0
    endloop
  endfacet
  facet normal 0 0 -1
    outer loop
      vertex 95.2716 4.85195 0
      vertex 95.2716 7.14805 0
      vertex 95.5 6 0
    endloop
  endfacet
  facet normal 0 0 -1
    outer loop
      vertex 94.6213 3.87868 0
      vertex 95.2716 7.14805 0
      vertex 95.2716 4.85195 0
    endloop
  endfacet
  facet normal 0 0 -1
    outer loop
      vertex 94.6213 3.87868 0
      vertex 94.6213 8.12132 0
      vertex 95.2716 7.14805 0
    endloop
  endfacet
  facet normal 0 0 -1
    outer loop
      vertex 93.648 3.22836 0
      vertex 94.6213 8.12132 0
      vertex 94.6213 3.87868 0
    endloop
  endfacet
  facet normal 0 0 -1
    outer loop
      vertex 93.648 3.22836 0
      vertex 93.648 8.77164 0
      vertex 94.6213 8.12132 0
    endloop
  endfacet
  facet normal 0 0 -1
    outer loop
      vertex 92.5 3 0
      vertex 93.648 8.77164 0
      vertex 93.648 3.22836 0
    endloop
  endfacet
  facet normal 0 0 -1
    outer loop
      vertex 92.5 3 0
      vertex 92.5 9 0
      vertex 93.648 8.77164 0
    endloop
  endfacet
  facet normal 0 0 -1
    outer loop
      vertex 91.352 3.22836 0
      vertex 92.5 9 0
      vertex 92.5 3 0
    endloop
  endfacet
  facet normal 0 0 -1
    outer loop
      vertex 91.352 3.22836 0
      vertex 91.352 8.77164 0
      vertex 92.5 9 0
    endloop
  endfacet
  facet normal 0 0 -1
    outer loop
      vertex 90.3787 3.87868 0
      vertex 91.352 8.77164 0
      vertex 91.352 3.22836 0
    endloop
  endfacet
  facet normal 0 0 -1
    outer loop
      vertex 90.3787 3.87868 0
      vertex 90.3787 8.12132 0
      vertex 91.352 8.77164 0
    endloop
  endfacet
  facet normal 0 0 -1
    outer loop
      vertex 89.7284 4.85195 0
      vertex 90.3787 8.12132 0
      vertex 90.3787 3.87868 0
    endloop
  endfacet
  facet normal 0 0 -1
    outer loop
      vertex 89.7284 4.85195 0
      vertex 89.7284 7.14805 0
      vertex 90.3787 8.12132 0
    endloop
  endfacet
  facet normal 0 -0 -1
    outer loop
      vertex 89.7284 7.14805 0
      vertex 89.7284 4.85195 0
      vertex 89.5 6 0
    endloop
  endfacet
  facet normal 0 0 -1
    outer loop
      vertex 557.272 181.852 0
      vertex 557.272 184.148 0
      vertex 557.5 183 0
    endloop
  endfacet
  facet normal 0 0 -1
    outer loop
      vertex 556.621 180.879 0
      vertex 557.272 184.148 0
      vertex 557.272 181.852 0
    endloop
  endfacet
  facet normal 0 0 -1
    outer loop
      vertex 556.621 180.879 0
      vertex 556.621 185.121 0
      vertex 557.272 184.148 0
    endloop
  endfacet
  facet normal 0 0 -1
    outer loop
      vertex 555.648 180.228 0
      vertex 556.621 185.121 0
      vertex 556.621 180.879 0
    endloop
  endfacet
  facet normal 0 0 -1
    outer loop
      vertex 555.648 180.228 0
      vertex 555.648 185.772 0
      vertex 556.621 185.121 0
    endloop
  endfacet
  facet normal 0 0 -1
    outer loop
      vertex 554.5 180 0
      vertex 555.648 185.772 0
      vertex 555.648 180.228 0
    endloop
  endfacet
  facet normal 0 0 -1
    outer loop
      vertex 554.5 180 0
      vertex 554.5 186 0
      vertex 555.648 185.772 0
    endloop
  endfacet
  facet normal 0 0 -1
    outer loop
      vertex 553.352 180.228 0
      vertex 554.5 186 0
      vertex 554.5 180 0
    endloop
  endfacet
  facet normal 0 0 -1
    outer loop
      vertex 553.352 180.228 0
      vertex 553.352 185.772 0
      vertex 554.5 186 0
    endloop
  endfacet
  facet normal 0 0 -1
    outer loop
      vertex 552.379 180.879 0
      vertex 553.352 185.772 0
      vertex 553.352 180.228 0
    endloop
  endfacet
  facet normal 0 0 -1
    outer loop
      vertex 552.379 180.879 0
      vertex 552.379 185.121 0
      vertex 553.352 185.772 0
    endloop
  endfacet
  facet normal 0 0 -1
    outer loop
      vertex 551.728 181.852 0
      vertex 552.379 185.121 0
      vertex 552.379 180.879 0
    endloop
  endfacet
  facet normal 0 0 -1
    outer loop
      vertex 551.728 181.852 0
      vertex 551.728 184.148 0
      vertex 552.379 185.121 0
    endloop
  endfacet
  facet normal 0 -0 -1
    outer loop
      vertex 551.728 184.148 0
      vertex 551.728 181.852 0
      vertex 551.5 183 0
    endloop
  endfacet
  facet normal 0 0 -1
    outer loop
      vertex 507.272 4.85195 0
      vertex 507.272 7.14805 0
      vertex 507.5 6 0
    endloop
  endfacet
  facet normal 0 0 -1
    outer loop
      vertex 506.621 3.87868 0
      vertex 507.272 7.14805 0
      vertex 507.272 4.85195 0
    endloop
  endfacet
  facet normal 0 0 -1
    outer loop
      vertex 506.621 3.87868 0
      vertex 506.621 8.12132 0
      vertex 507.272 7.14805 0
    endloop
  endfacet
  facet normal 0 0 -1
    outer loop
      vertex 505.648 3.22836 0
      vertex 506.621 8.12132 0
      vertex 506.621 3.87868 0
    endloop
  endfacet
  facet normal 0 0 -1
    outer loop
      vertex 505.648 3.22836 0
      vertex 505.648 8.77164 0
      vertex 506.621 8.12132 0
    endloop
  endfacet
  facet normal 0 0 -1
    outer loop
      vertex 504.5 3 0
      vertex 505.648 8.77164 0
      vertex 505.648 3.22836 0
    endloop
  endfacet
  facet normal 0 0 -1
    outer loop
      vertex 504.5 3 0
      vertex 504.5 9 0
      vertex 505.648 8.77164 0
    endloop
  endfacet
  facet normal 0 0 -1
    outer loop
      vertex 503.352 3.22836 0
      vertex 504.5 9 0
      vertex 504.5 3 0
    endloop
  endfacet
  facet normal 0 0 -1
    outer loop
      vertex 503.352 3.22836 0
      vertex 503.352 8.77164 0
      vertex 504.5 9 0
    endloop
  endfacet
  facet normal 0 0 -1
    outer loop
      vertex 502.379 3.87868 0
      vertex 503.352 8.77164 0
      vertex 503.352 3.22836 0
    endloop
  endfacet
  facet normal 0 0 -1
    outer loop
      vertex 502.379 3.87868 0
      vertex 502.379 8.12132 0
      vertex 503.352 8.77164 0
    endloop
  endfacet
  facet normal 0 0 -1
    outer loop
      vertex 501.728 4.85195 0
      vertex 502.379 8.12132 0
      vertex 502.379 3.87868 0
    endloop
  endfacet
  facet normal 0 0 -1
    outer loop
      vertex 501.728 4.85195 0
      vertex 501.728 7.14805 0
      vertex 502.379 8.12132 0
    endloop
  endfacet
  facet normal 0 -0 -1
    outer loop
      vertex 501.728 7.14805 0
      vertex 501.728 4.85195 0
      vertex 501.5 6 0
    endloop
  endfacet
  facet normal 0 0 -1
    outer loop
      vertex 232.605 4.85195 0
      vertex 232.605 7.14805 0
      vertex 232.833 6 0
    endloop
  endfacet
  facet normal 0 0 -1
    outer loop
      vertex 231.955 3.87868 0
      vertex 232.605 7.14805 0
      vertex 232.605 4.85195 0
    endloop
  endfacet
  facet normal 0 0 -1
    outer loop
      vertex 231.955 3.87868 0
      vertex 231.955 8.12132 0
      vertex 232.605 7.14805 0
    endloop
  endfacet
  facet normal 0 0 -1
    outer loop
      vertex 230.981 3.22836 0
      vertex 231.955 8.12132 0
      vertex 231.955 3.87868 0
    endloop
  endfacet
  facet normal 0 0 -1
    outer loop
      vertex 230.981 3.22836 0
      vertex 230.981 8.77164 0
      vertex 231.955 8.12132 0
    endloop
  endfacet
  facet normal 0 0 -1
    outer loop
      vertex 229.833 3 0
      vertex 230.981 8.77164 0
      vertex 230.981 3.22836 0
    endloop
  endfacet
  facet normal 0 0 -1
    outer loop
      vertex 229.833 3 0
      vertex 229.833 9 0
      vertex 230.981 8.77164 0
    endloop
  endfacet
  facet normal 0 0 -1
    outer loop
      vertex 228.685 3.22836 0
      vertex 229.833 9 0
      vertex 229.833 3 0
    endloop
  endfacet
  facet normal 0 0 -1
    outer loop
      vertex 228.685 3.22836 0
      vertex 228.685 8.77164 0
      vertex 229.833 9 0
    endloop
  endfacet
  facet normal 0 0 -1
    outer loop
      vertex 227.712 3.87868 0
      vertex 228.685 8.77164 0
      vertex 228.685 3.22836 0
    endloop
  endfacet
  facet normal 0 0 -1
    outer loop
      vertex 227.712 3.87868 0
      vertex 227.712 8.12132 0
      vertex 228.685 8.77164 0
    endloop
  endfacet
  facet normal 0 0 -1
    outer loop
      vertex 227.062 4.85195 0
      vertex 227.712 8.12132 0
      vertex 227.712 3.87868 0
    endloop
  endfacet
  facet normal 0 0 -1
    outer loop
      vertex 227.062 4.85195 0
      vertex 227.062 7.14805 0
      vertex 227.712 8.12132 0
    endloop
  endfacet
  facet normal 0 -0 -1
    outer loop
      vertex 227.062 7.14805 0
      vertex 227.062 4.85195 0
      vertex 226.833 6 0
    endloop
  endfacet
  facet normal 0 0 -1
    outer loop
      vertex 369.938 4.85195 0
      vertex 369.938 7.14805 0
      vertex 370.167 6 0
    endloop
  endfacet
  facet normal 0 0 -1
    outer loop
      vertex 369.288 3.87868 0
      vertex 369.938 7.14805 0
      vertex 369.938 4.85195 0
    endloop
  endfacet
  facet normal 0 0 -1
    outer loop
      vertex 369.288 3.87868 0
      vertex 369.288 8.12132 0
      vertex 369.938 7.14805 0
    endloop
  endfacet
  facet normal 0 0 -1
    outer loop
      vertex 368.315 3.22836 0
      vertex 369.288 8.12132 0
      vertex 369.288 3.87868 0
    endloop
  endfacet
  facet normal 0 0 -1
    outer loop
      vertex 368.315 3.22836 0
      vertex 368.315 8.77164 0
      vertex 369.288 8.12132 0
    endloop
  endfacet
  facet normal 0 0 -1
    outer loop
      vertex 367.167 3 0
      vertex 368.315 8.77164 0
      vertex 368.315 3.22836 0
    endloop
  endfacet
  facet normal 0 0 -1
    outer loop
      vertex 367.167 3 0
      vertex 367.167 9 0
      vertex 368.315 8.77164 0
    endloop
  endfacet
  facet normal 0 0 -1
    outer loop
      vertex 366.019 3.22836 0
      vertex 367.167 9 0
      vertex 367.167 3 0
    endloop
  endfacet
  facet normal 0 0 -1
    outer loop
      vertex 366.019 3.22836 0
      vertex 366.019 8.77164 0
      vertex 367.167 9 0
    endloop
  endfacet
  facet normal 0 0 -1
    outer loop
      vertex 365.045 3.87868 0
      vertex 366.019 8.77164 0
      vertex 366.019 3.22836 0
    endloop
  endfacet
  facet normal 0 0 -1
    outer loop
      vertex 365.045 3.87868 0
      vertex 365.045 8.12132 0
      vertex 366.019 8.77164 0
    endloop
  endfacet
  facet normal 0 0 -1
    outer loop
      vertex 364.395 4.85195 0
      vertex 365.045 8.12132 0
      vertex 365.045 3.87868 0
    endloop
  endfacet
  facet normal 0 0 -1
    outer loop
      vertex 364.395 4.85195 0
      vertex 364.395 7.14805 0
      vertex 365.045 8.12132 0
    endloop
  endfacet
  facet normal 0 -0 -1
    outer loop
      vertex 364.395 7.14805 0
      vertex 364.395 4.85195 0
      vertex 364.167 6 0
    endloop
  endfacet
  facet normal 0 0 -1
    outer loop
      vertex 45.2716 48.852 0
      vertex 45.2716 51.148 0
      vertex 45.5 50 0
    endloop
  endfacet
  facet normal 0 0 -1
    outer loop
      vertex 44.6213 47.8787 0
      vertex 45.2716 51.148 0
      vertex 45.2716 48.852 0
    endloop
  endfacet
  facet normal 0 0 -1
    outer loop
      vertex 44.6213 47.8787 0
      vertex 44.6213 52.1213 0
      vertex 45.2716 51.148 0
    endloop
  endfacet
  facet normal 0 0 -1
    outer loop
      vertex 43.648 47.2284 0
      vertex 44.6213 52.1213 0
      vertex 44.6213 47.8787 0
    endloop
  endfacet
  facet normal 0 0 -1
    outer loop
      vertex 43.648 47.2284 0
      vertex 43.648 52.7716 0
      vertex 44.6213 52.1213 0
    endloop
  endfacet
  facet normal 0 0 -1
    outer loop
      vertex 42.5 47 0
      vertex 43.648 52.7716 0
      vertex 43.648 47.2284 0
    endloop
  endfacet
  facet normal 0 0 -1
    outer loop
      vertex 42.5 47 0
      vertex 42.5 53 0
      vertex 43.648 52.7716 0
    endloop
  endfacet
  facet normal 0 0 -1
    outer loop
      vertex 41.352 47.2284 0
      vertex 42.5 53 0
      vertex 42.5 47 0
    endloop
  endfacet
  facet normal 0 0 -1
    outer loop
      vertex 41.352 47.2284 0
      vertex 41.352 52.7716 0
      vertex 42.5 53 0
    endloop
  endfacet
  facet normal 0 0 -1
    outer loop
      vertex 40.3787 47.8787 0
      vertex 41.352 52.7716 0
      vertex 41.352 47.2284 0
    endloop
  endfacet
  facet normal 0 0 -1
    outer loop
      vertex 40.3787 47.8787 0
      vertex 40.3787 52.1213 0
      vertex 41.352 52.7716 0
    endloop
  endfacet
  facet normal 0 0 -1
    outer loop
      vertex 39.7284 48.852 0
      vertex 40.3787 52.1213 0
      vertex 40.3787 47.8787 0
    endloop
  endfacet
  facet normal 0 0 -1
    outer loop
      vertex 39.7284 48.852 0
      vertex 39.7284 51.148 0
      vertex 40.3787 52.1213 0
    endloop
  endfacet
  facet normal 0 -0 -1
    outer loop
      vertex 39.7284 51.148 0
      vertex 39.7284 48.852 0
      vertex 39.5 50 0
    endloop
  endfacet
  facet normal 0 0 -1
    outer loop
      vertex 557.272 48.852 0
      vertex 557.272 51.148 0
      vertex 557.5 50 0
    endloop
  endfacet
  facet normal 0 0 -1
    outer loop
      vertex 556.621 47.8787 0
      vertex 557.272 51.148 0
      vertex 557.272 48.852 0
    endloop
  endfacet
  facet normal 0 0 -1
    outer loop
      vertex 556.621 47.8787 0
      vertex 556.621 52.1213 0
      vertex 557.272 51.148 0
    endloop
  endfacet
  facet normal 0 0 -1
    outer loop
      vertex 555.648 47.2284 0
      vertex 556.621 52.1213 0
      vertex 556.621 47.8787 0
    endloop
  endfacet
  facet normal 0 0 -1
    outer loop
      vertex 555.648 47.2284 0
      vertex 555.648 52.7716 0
      vertex 556.621 52.1213 0
    endloop
  endfacet
  facet normal 0 0 -1
    outer loop
      vertex 554.5 47 0
      vertex 555.648 52.7716 0
      vertex 555.648 47.2284 0
    endloop
  endfacet
  facet normal 0 0 -1
    outer loop
      vertex 554.5 47 0
      vertex 554.5 53 0
      vertex 555.648 52.7716 0
    endloop
  endfacet
  facet normal 0 0 -1
    outer loop
      vertex 553.352 47.2284 0
      vertex 554.5 53 0
      vertex 554.5 47 0
    endloop
  endfacet
  facet normal 0 0 -1
    outer loop
      vertex 553.352 47.2284 0
      vertex 553.352 52.7716 0
      vertex 554.5 53 0
    endloop
  endfacet
  facet normal 0 0 -1
    outer loop
      vertex 552.379 47.8787 0
      vertex 553.352 52.7716 0
      vertex 553.352 47.2284 0
    endloop
  endfacet
  facet normal 0 0 -1
    outer loop
      vertex 552.379 47.8787 0
      vertex 552.379 52.1213 0
      vertex 553.352 52.7716 0
    endloop
  endfacet
  facet normal 0 0 -1
    outer loop
      vertex 551.728 48.852 0
      vertex 552.379 52.1213 0
      vertex 552.379 47.8787 0
    endloop
  endfacet
  facet normal 0 0 -1
    outer loop
      vertex 551.728 48.852 0
      vertex 551.728 51.148 0
      vertex 552.379 52.1213 0
    endloop
  endfacet
  facet normal 0 -0 -1
    outer loop
      vertex 551.728 51.148 0
      vertex 551.728 48.852 0
      vertex 551.5 50 0
    endloop
  endfacet
  facet normal 0 0 -1
    outer loop
      vertex 45.2716 181.852 0
      vertex 45.2716 184.148 0
      vertex 45.5 183 0
    endloop
  endfacet
  facet normal 0 0 -1
    outer loop
      vertex 44.6213 180.879 0
      vertex 45.2716 184.148 0
      vertex 45.2716 181.852 0
    endloop
  endfacet
  facet normal 0 0 -1
    outer loop
      vertex 44.6213 180.879 0
      vertex 44.6213 185.121 0
      vertex 45.2716 184.148 0
    endloop
  endfacet
  facet normal 0 0 -1
    outer loop
      vertex 43.648 180.228 0
      vertex 44.6213 185.121 0
      vertex 44.6213 180.879 0
    endloop
  endfacet
  facet normal 0 0 -1
    outer loop
      vertex 43.648 180.228 0
      vertex 43.648 185.772 0
      vertex 44.6213 185.121 0
    endloop
  endfacet
  facet normal 0 0 -1
    outer loop
      vertex 42.5 180 0
      vertex 43.648 185.772 0
      vertex 43.648 180.228 0
    endloop
  endfacet
  facet normal 0 0 -1
    outer loop
      vertex 42.5 180 0
      vertex 42.5 186 0
      vertex 43.648 185.772 0
    endloop
  endfacet
  facet normal 0 0 -1
    outer loop
      vertex 41.352 180.228 0
      vertex 42.5 186 0
      vertex 42.5 180 0
    endloop
  endfacet
  facet normal 0 0 -1
    outer loop
      vertex 41.352 180.228 0
      vertex 41.352 185.772 0
      vertex 42.5 186 0
    endloop
  endfacet
  facet normal 0 0 -1
    outer loop
      vertex 40.3787 180.879 0
      vertex 41.352 185.772 0
      vertex 41.352 180.228 0
    endloop
  endfacet
  facet normal 0 0 -1
    outer loop
      vertex 40.3787 180.879 0
      vertex 40.3787 185.121 0
      vertex 41.352 185.772 0
    endloop
  endfacet
  facet normal 0 0 -1
    outer loop
      vertex 39.7284 181.852 0
      vertex 40.3787 185.121 0
      vertex 40.3787 180.879 0
    endloop
  endfacet
  facet normal 0 0 -1
    outer loop
      vertex 39.7284 181.852 0
      vertex 39.7284 184.148 0
      vertex 40.3787 185.121 0
    endloop
  endfacet
  facet normal 0 -0 -1
    outer loop
      vertex 39.7284 184.148 0
      vertex 39.7284 181.852 0
      vertex 39.5 183 0
    endloop
  endfacet
  facet normal -0.980826 -0.194883 0
    outer loop
      vertex 220.5 129 0
      vertex 220.348 129.765 19
      vertex 220.348 129.765 0
    endloop
  endfacet
  facet normal -0.980826 -0.194883 0
    outer loop
      vertex 220.348 129.765 19
      vertex 220.5 129 0
      vertex 220.5 129 19
    endloop
  endfacet
  facet normal -0.831261 -0.555882 0
    outer loop
      vertex 220.348 129.765 0
      vertex 219.914 130.414 19
      vertex 219.914 130.414 0
    endloop
  endfacet
  facet normal -0.831261 -0.555882 0
    outer loop
      vertex 219.914 130.414 19
      vertex 220.348 129.765 0
      vertex 220.348 129.765 19
    endloop
  endfacet
  facet normal 0.194883 -0.980826 0
    outer loop
      vertex 217.735 130.848 0
      vertex 218.5 131 19
      vertex 217.735 130.848 19
    endloop
  endfacet
  facet normal 0.194883 -0.980826 0
    outer loop
      vertex 218.5 131 19
      vertex 217.735 130.848 0
      vertex 218.5 131 0
    endloop
  endfacet
  facet normal -0.555882 0.831261 0
    outer loop
      vertex 219.914 127.586 0
      vertex 219.265 127.152 19
      vertex 219.914 127.586 19
    endloop
  endfacet
  facet normal -0.555882 0.831261 0
    outer loop
      vertex 219.265 127.152 19
      vertex 219.914 127.586 0
      vertex 219.265 127.152 0
    endloop
  endfacet
  facet normal -0.555882 -0.831261 0
    outer loop
      vertex 219.265 130.848 0
      vertex 219.914 130.414 19
      vertex 219.265 130.848 19
    endloop
  endfacet
  facet normal -0.555882 -0.831261 -0
    outer loop
      vertex 219.914 130.414 19
      vertex 219.265 130.848 0
      vertex 219.914 130.414 0
    endloop
  endfacet
  facet normal 0.831261 -0.555882 0
    outer loop
      vertex 216.652 129.765 19
      vertex 217.086 130.414 0
      vertex 217.086 130.414 19
    endloop
  endfacet
  facet normal 0.831261 -0.555882 0
    outer loop
      vertex 217.086 130.414 0
      vertex 216.652 129.765 19
      vertex 216.652 129.765 0
    endloop
  endfacet
  facet normal 0 0 1
    outer loop
      vertex 597 233 19
      vertex 380.5 129 19
      vertex 597 0 19
    endloop
  endfacet
  facet normal 0 0 1
    outer loop
      vertex 597 233 19
      vertex 380.348 129.765 19
      vertex 380.5 129 19
    endloop
  endfacet
  facet normal 0 0 1
    outer loop
      vertex 597 233 19
      vertex 379.914 130.414 19
      vertex 380.348 129.765 19
    endloop
  endfacet
  facet normal 0 0 1
    outer loop
      vertex 597 233 19
      vertex 379.265 130.848 19
      vertex 379.914 130.414 19
    endloop
  endfacet
  facet normal 0 0 1
    outer loop
      vertex 597 233 19
      vertex 378.5 131 19
      vertex 379.265 130.848 19
    endloop
  endfacet
  facet normal 0 0 1
    outer loop
      vertex 218.5 131 19
      vertex 378.5 131 19
      vertex 597 233 19
    endloop
  endfacet
  facet normal 0 0 1
    outer loop
      vertex 376.652 129.765 19
      vertex 220.5 129 19
      vertex 376.5 129 19
    endloop
  endfacet
  facet normal 0 0 1
    outer loop
      vertex 220.348 129.765 19
      vertex 376.652 129.765 19
      vertex 377.086 130.414 19
    endloop
  endfacet
  facet normal 0 0 1
    outer loop
      vertex 219.914 130.414 19
      vertex 377.086 130.414 19
      vertex 377.735 130.848 19
    endloop
  endfacet
  facet normal 0 0 1
    outer loop
      vertex 378.5 131 19
      vertex 218.5 131 19
      vertex 377.735 130.848 19
    endloop
  endfacet
  facet normal 0 0 1
    outer loop
      vertex 376.652 129.765 19
      vertex 220.348 129.765 19
      vertex 220.5 129 19
    endloop
  endfacet
  facet normal 0 0 1
    outer loop
      vertex 377.086 130.414 19
      vertex 219.914 130.414 19
      vertex 220.348 129.765 19
    endloop
  endfacet
  facet normal 0 0 1
    outer loop
      vertex 377.735 130.848 19
      vertex 219.265 130.848 19
      vertex 219.914 130.414 19
    endloop
  endfacet
  facet normal 0 0 1
    outer loop
      vertex 377.735 130.848 19
      vertex 218.5 131 19
      vertex 219.265 130.848 19
    endloop
  endfacet
  facet normal -0 0 1
    outer loop
      vertex 0 233 19
      vertex 218.5 131 19
      vertex 597 233 19
    endloop
  endfacet
  facet normal 0 0 1
    outer loop
      vertex 216.652 129.765 19
      vertex 0 233 19
      vertex 216.5 129 19
    endloop
  endfacet
  facet normal 0 0 1
    outer loop
      vertex 217.086 130.414 19
      vertex 0 233 19
      vertex 216.652 129.765 19
    endloop
  endfacet
  facet normal 0 0 1
    outer loop
      vertex 217.735 130.848 19
      vertex 0 233 19
      vertex 217.086 130.414 19
    endloop
  endfacet
  facet normal 0 0 1
    outer loop
      vertex 218.5 131 19
      vertex 0 233 19
      vertex 217.735 130.848 19
    endloop
  endfacet
  facet normal -0 0 1
    outer loop
      vertex 380.348 128.235 19
      vertex 597 0 19
      vertex 380.5 129 19
    endloop
  endfacet
  facet normal -0 0 1
    outer loop
      vertex 379.914 127.586 19
      vertex 597 0 19
      vertex 380.348 128.235 19
    endloop
  endfacet
  facet normal -0 0 1
    outer loop
      vertex 379.265 127.152 19
      vertex 597 0 19
      vertex 379.914 127.586 19
    endloop
  endfacet
  facet normal -0 0 1
    outer loop
      vertex 378.5 127 19
      vertex 597 0 19
      vertex 379.265 127.152 19
    endloop
  endfacet
  facet normal 0 0 1
    outer loop
      vertex 377.735 127.152 19
      vertex 597 0 19
      vertex 378.5 127 19
    endloop
  endfacet
  facet normal -0 0 1
    outer loop
      vertex 220.5 129 19
      vertex 376.652 128.235 19
      vertex 376.5 129 19
    endloop
  endfacet
  facet normal 0 0 1
    outer loop
      vertex 220.348 128.235 19
      vertex 376.652 128.235 19
      vertex 220.5 129 19
    endloop
  endfacet
  facet normal 0 0 1
    outer loop
      vertex 376.652 128.235 19
      vertex 220.348 128.235 19
      vertex 377.086 127.586 19
    endloop
  endfacet
  facet normal 0 0 1
    outer loop
      vertex 219.914 127.586 19
      vertex 377.086 127.586 19
      vertex 220.348 128.235 19
    endloop
  endfacet
  facet normal 0 0 1
    outer loop
      vertex 377.086 127.586 19
      vertex 219.914 127.586 19
      vertex 377.735 127.152 19
    endloop
  endfacet
  facet normal 0 0 1
    outer loop
      vertex 219.265 127.152 19
      vertex 377.735 127.152 19
      vertex 219.914 127.586 19
    endloop
  endfacet
  facet normal 0 0 1
    outer loop
      vertex 377.735 127.152 19
      vertex 219.265 127.152 19
      vertex 597 0 19
    endloop
  endfacet
  facet normal -0 0 1
    outer loop
      vertex 218.5 127 19
      vertex 597 0 19
      vertex 219.265 127.152 19
    endloop
  endfacet
  facet normal 0 0 1
    outer loop
      vertex 0 0 19
      vertex 218.5 127 19
      vertex 217.735 127.152 19
    endloop
  endfacet
  facet normal 0 0 1
    outer loop
      vertex 0 0 19
      vertex 216.5 129 19
      vertex 0 233 19
    endloop
  endfacet
  facet normal 0 0 1
    outer loop
      vertex 216.5 129 19
      vertex 0 0 19
      vertex 216.652 128.235 19
    endloop
  endfacet
  facet normal 0 0 1
    outer loop
      vertex 216.652 128.235 19
      vertex 0 0 19
      vertex 217.086 127.586 19
    endloop
  endfacet
  facet normal 0 0 1
    outer loop
      vertex 218.5 127 19
      vertex 0 0 19
      vertex 597 0 19
    endloop
  endfacet
  facet normal 0 0 1
    outer loop
      vertex 217.086 127.586 19
      vertex 0 0 19
      vertex 217.735 127.152 19
    endloop
  endfacet
  facet normal 0.555882 -0.831261 0
    outer loop
      vertex 217.086 130.414 0
      vertex 217.735 130.848 19
      vertex 217.086 130.414 19
    endloop
  endfacet
  facet normal 0.555882 -0.831261 0
    outer loop
      vertex 217.735 130.848 19
      vertex 217.086 130.414 0
      vertex 217.735 130.848 0
    endloop
  endfacet
  facet normal 0.831261 0.555882 0
    outer loop
      vertex 217.086 127.586 19
      vertex 216.652 128.235 0
      vertex 216.652 128.235 19
    endloop
  endfacet
  facet normal 0.831261 0.555882 0
    outer loop
      vertex 216.652 128.235 0
      vertex 217.086 127.586 19
      vertex 217.086 127.586 0
    endloop
  endfacet
  facet normal -0.194883 -0.980826 0
    outer loop
      vertex 218.5 131 0
      vertex 219.265 130.848 19
      vertex 218.5 131 19
    endloop
  endfacet
  facet normal -0.194883 -0.980826 -0
    outer loop
      vertex 219.265 130.848 19
      vertex 218.5 131 0
      vertex 219.265 130.848 0
    endloop
  endfacet
  facet normal 0.980826 -0.194883 0
    outer loop
      vertex 216.5 129 19
      vertex 216.652 129.765 0
      vertex 216.652 129.765 19
    endloop
  endfacet
  facet normal 0.980826 -0.194883 0
    outer loop
      vertex 216.652 129.765 0
      vertex 216.5 129 19
      vertex 216.5 129 0
    endloop
  endfacet
  facet normal 0.980826 0.194883 0
    outer loop
      vertex 216.652 128.235 19
      vertex 216.5 129 0
      vertex 216.5 129 19
    endloop
  endfacet
  facet normal 0.980826 0.194883 0
    outer loop
      vertex 216.5 129 0
      vertex 216.652 128.235 19
      vertex 216.652 128.235 0
    endloop
  endfacet
  facet normal -0.831261 0.555882 0
    outer loop
      vertex 219.914 127.586 0
      vertex 220.348 128.235 19
      vertex 220.348 128.235 0
    endloop
  endfacet
  facet normal -0.831261 0.555882 0
    outer loop
      vertex 220.348 128.235 19
      vertex 219.914 127.586 0
      vertex 219.914 127.586 19
    endloop
  endfacet
  facet normal -0.980826 0.194883 0
    outer loop
      vertex 220.348 128.235 0
      vertex 220.5 129 19
      vertex 220.5 129 0
    endloop
  endfacet
  facet normal -0.980826 0.194883 0
    outer loop
      vertex 220.5 129 19
      vertex 220.348 128.235 0
      vertex 220.348 128.235 19
    endloop
  endfacet
  facet normal 0.194883 0.980826 -0
    outer loop
      vertex 218.5 127 0
      vertex 217.735 127.152 19
      vertex 218.5 127 19
    endloop
  endfacet
  facet normal 0.194883 0.980826 0
    outer loop
      vertex 217.735 127.152 19
      vertex 218.5 127 0
      vertex 217.735 127.152 0
    endloop
  endfacet
  facet normal -0.194883 0.980826 0
    outer loop
      vertex 219.265 127.152 0
      vertex 218.5 127 19
      vertex 219.265 127.152 19
    endloop
  endfacet
  facet normal -0.194883 0.980826 0
    outer loop
      vertex 218.5 127 19
      vertex 219.265 127.152 0
      vertex 218.5 127 0
    endloop
  endfacet
  facet normal 0.555882 0.831261 -0
    outer loop
      vertex 217.735 127.152 0
      vertex 217.086 127.586 19
      vertex 217.735 127.152 19
    endloop
  endfacet
  facet normal 0.555882 0.831261 0
    outer loop
      vertex 217.086 127.586 19
      vertex 217.735 127.152 0
      vertex 217.086 127.586 0
    endloop
  endfacet
  facet normal -0.980826 -0.194883 0
    outer loop
      vertex 380.5 129 0
      vertex 380.348 129.765 19
      vertex 380.348 129.765 0
    endloop
  endfacet
  facet normal -0.980826 -0.194883 0
    outer loop
      vertex 380.348 129.765 19
      vertex 380.5 129 0
      vertex 380.5 129 19
    endloop
  endfacet
  facet normal 0.980826 0.194883 0
    outer loop
      vertex 376.652 128.235 19
      vertex 376.5 129 0
      vertex 376.5 129 19
    endloop
  endfacet
  facet normal 0.980826 0.194883 0
    outer loop
      vertex 376.5 129 0
      vertex 376.652 128.235 19
      vertex 376.652 128.235 0
    endloop
  endfacet
  facet normal -0.555882 0.831261 0
    outer loop
      vertex 379.914 127.586 0
      vertex 379.265 127.152 19
      vertex 379.914 127.586 19
    endloop
  endfacet
  facet normal -0.555882 0.831261 0
    outer loop
      vertex 379.265 127.152 19
      vertex 379.914 127.586 0
      vertex 379.265 127.152 0
    endloop
  endfacet
  facet normal -0.194883 0.980826 0
    outer loop
      vertex 379.265 127.152 0
      vertex 378.5 127 19
      vertex 379.265 127.152 19
    endloop
  endfacet
  facet normal -0.194883 0.980826 0
    outer loop
      vertex 378.5 127 19
      vertex 379.265 127.152 0
      vertex 378.5 127 0
    endloop
  endfacet
  facet normal -0.555882 -0.831261 0
    outer loop
      vertex 379.265 130.848 0
      vertex 379.914 130.414 19
      vertex 379.265 130.848 19
    endloop
  endfacet
  facet normal -0.555882 -0.831261 -0
    outer loop
      vertex 379.914 130.414 19
      vertex 379.265 130.848 0
      vertex 379.914 130.414 0
    endloop
  endfacet
  facet normal 0.194883 -0.980826 0
    outer loop
      vertex 377.735 130.848 0
      vertex 378.5 131 19
      vertex 377.735 130.848 19
    endloop
  endfacet
  facet normal 0.194883 -0.980826 0
    outer loop
      vertex 378.5 131 19
      vertex 377.735 130.848 0
      vertex 378.5 131 0
    endloop
  endfacet
  facet normal -0.194883 -0.980826 0
    outer loop
      vertex 378.5 131 0
      vertex 379.265 130.848 19
      vertex 378.5 131 19
    endloop
  endfacet
  facet normal -0.194883 -0.980826 -0
    outer loop
      vertex 379.265 130.848 19
      vertex 378.5 131 0
      vertex 379.265 130.848 0
    endloop
  endfacet
  facet normal -0.831261 0.555882 0
    outer loop
      vertex 379.914 127.586 0
      vertex 380.348 128.235 19
      vertex 380.348 128.235 0
    endloop
  endfacet
  facet normal -0.831261 0.555882 0
    outer loop
      vertex 380.348 128.235 19
      vertex 379.914 127.586 0
      vertex 379.914 127.586 19
    endloop
  endfacet
  facet normal 0.194883 0.980826 -0
    outer loop
      vertex 378.5 127 0
      vertex 377.735 127.152 19
      vertex 378.5 127 19
    endloop
  endfacet
  facet normal 0.194883 0.980826 0
    outer loop
      vertex 377.735 127.152 19
      vertex 378.5 127 0
      vertex 377.735 127.152 0
    endloop
  endfacet
  facet normal -0.831261 -0.555882 0
    outer loop
      vertex 380.348 129.765 0
      vertex 379.914 130.414 19
      vertex 379.914 130.414 0
    endloop
  endfacet
  facet normal -0.831261 -0.555882 0
    outer loop
      vertex 379.914 130.414 19
      vertex 380.348 129.765 0
      vertex 380.348 129.765 19
    endloop
  endfacet
  facet normal 0.980826 -0.194883 0
    outer loop
      vertex 376.5 129 19
      vertex 376.652 129.765 0
      vertex 376.652 129.765 19
    endloop
  endfacet
  facet normal 0.980826 -0.194883 0
    outer loop
      vertex 376.652 129.765 0
      vertex 376.5 129 19
      vertex 376.5 129 0
    endloop
  endfacet
  facet normal 0.555882 -0.831261 0
    outer loop
      vertex 377.086 130.414 0
      vertex 377.735 130.848 19
      vertex 377.086 130.414 19
    endloop
  endfacet
  facet normal 0.555882 -0.831261 0
    outer loop
      vertex 377.735 130.848 19
      vertex 377.086 130.414 0
      vertex 377.735 130.848 0
    endloop
  endfacet
  facet normal 0.831261 -0.555882 0
    outer loop
      vertex 376.652 129.765 19
      vertex 377.086 130.414 0
      vertex 377.086 130.414 19
    endloop
  endfacet
  facet normal 0.831261 -0.555882 0
    outer loop
      vertex 377.086 130.414 0
      vertex 376.652 129.765 19
      vertex 376.652 129.765 0
    endloop
  endfacet
  facet normal -0.980826 0.194883 0
    outer loop
      vertex 380.348 128.235 0
      vertex 380.5 129 19
      vertex 380.5 129 0
    endloop
  endfacet
  facet normal -0.980826 0.194883 0
    outer loop
      vertex 380.5 129 19
      vertex 380.348 128.235 0
      vertex 380.348 128.235 19
    endloop
  endfacet
  facet normal 0.831261 0.555882 0
    outer loop
      vertex 377.086 127.586 19
      vertex 376.652 128.235 0
      vertex 376.652 128.235 19
    endloop
  endfacet
  facet normal 0.831261 0.555882 0
    outer loop
      vertex 376.652 128.235 0
      vertex 377.086 127.586 19
      vertex 377.086 127.586 0
    endloop
  endfacet
  facet normal 0.555882 0.831261 -0
    outer loop
      vertex 377.735 127.152 0
      vertex 377.086 127.586 19
      vertex 377.735 127.152 19
    endloop
  endfacet
  facet normal 0.555882 0.831261 0
    outer loop
      vertex 377.086 127.586 19
      vertex 377.735 127.152 0
      vertex 377.086 127.586 0
    endloop
  endfacet
  facet normal -1 0 0
    outer loop
      vertex 0 0 0
      vertex 0 233 19
      vertex 0 233 0
    endloop
  endfacet
  facet normal -1 -0 0
    outer loop
      vertex 0 233 19
      vertex 0 0 0
      vertex 0 0 19
    endloop
  endfacet
  facet normal 0 1 -0
    outer loop
      vertex 597 233 0
      vertex 0 233 19
      vertex 597 233 19
    endloop
  endfacet
  facet normal 0 1 0
    outer loop
      vertex 0 233 19
      vertex 597 233 0
      vertex 0 233 0
    endloop
  endfacet
  facet normal 1 -0 0
    outer loop
      vertex 597 0 19
      vertex 597 233 0
      vertex 597 233 19
    endloop
  endfacet
  facet normal 1 0 0
    outer loop
      vertex 597 233 0
      vertex 597 0 19
      vertex 597 0 0
    endloop
  endfacet
  facet normal 0 -1 0
    outer loop
      vertex 0 0 0
      vertex 597 0 19
      vertex 0 0 19
    endloop
  endfacet
  facet normal 0 -1 -0
    outer loop
      vertex 597 0 19
      vertex 0 0 0
      vertex 597 0 0
    endloop
  endfacet
endsolid OpenSCAD_Model
