solid OpenSCAD_Model
  facet normal 0 -0.980844 -0.194793
    outer loop
      vertex 0 152 6
      vertex 37 151.848 6.76537
      vertex 0 151.848 6.76537
    endloop
  endfacet
  facet normal 0 -0.980844 -0.194793
    outer loop
      vertex 37 151.848 6.76537
      vertex 0 152 6
      vertex 37 152 6
    endloop
  endfacet
  facet normal 0 0.980844 -0.194793
    outer loop
      vertex 37 148 6
      vertex 0 148.152 6.76537
      vertex 37 148.152 6.76537
    endloop
  endfacet
  facet normal 0 0.980844 -0.194793
    outer loop
      vertex 0 148.152 6.76537
      vertex 37 148 6
      vertex 0 148 6
    endloop
  endfacet
  facet normal 0 -0.831198 -0.555977
    outer loop
      vertex 0 151.848 6.76537
      vertex 37 151.414 7.41421
      vertex 0 151.414 7.41421
    endloop
  endfacet
  facet normal 0 -0.831198 -0.555977
    outer loop
      vertex 37 151.414 7.41421
      vertex 0 151.848 6.76537
      vertex 37 151.848 6.76537
    endloop
  endfacet
  facet normal 0 -0.195179 0.980768
    outer loop
      vertex 0 150.765 4.15224
      vertex 37 150 4
      vertex 37 150.765 4.15224
    endloop
  endfacet
  facet normal 0 -0.195179 0.980768
    outer loop
      vertex 37 150 4
      vertex 0 150.765 4.15224
      vertex 0 150 4
    endloop
  endfacet
  facet normal 0 -0.555483 0.831528
    outer loop
      vertex 0 151.414 4.58579
      vertex 37 150.765 4.15224
      vertex 37 151.414 4.58579
    endloop
  endfacet
  facet normal 0 -0.555483 0.831528
    outer loop
      vertex 37 150.765 4.15224
      vertex 0 151.414 4.58579
      vertex 0 150.765 4.15224
    endloop
  endfacet
  facet normal 0 -0.555483 -0.831528
    outer loop
      vertex 0 150.765 7.84776
      vertex 37 151.414 7.41421
      vertex 37 150.765 7.84776
    endloop
  endfacet
  facet normal -0 -0.555483 -0.831528
    outer loop
      vertex 37 151.414 7.41421
      vertex 0 150.765 7.84776
      vertex 0 151.414 7.41421
    endloop
  endfacet
  facet normal 0 0.555483 -0.831528
    outer loop
      vertex 0 148.586 7.41421
      vertex 37 149.235 7.84776
      vertex 37 148.586 7.41421
    endloop
  endfacet
  facet normal 0 0.555483 -0.831528
    outer loop
      vertex 37 149.235 7.84776
      vertex 0 148.586 7.41421
      vertex 0 149.235 7.84776
    endloop
  endfacet
  facet normal 0 0.831198 -0.555977
    outer loop
      vertex 37 148.152 6.76537
      vertex 0 148.586 7.41421
      vertex 37 148.586 7.41421
    endloop
  endfacet
  facet normal 0 0.831198 -0.555977
    outer loop
      vertex 0 148.586 7.41421
      vertex 37 148.152 6.76537
      vertex 0 148.152 6.76537
    endloop
  endfacet
  facet normal 0 0.195179 -0.980768
    outer loop
      vertex 0 149.235 7.84776
      vertex 37 150 8
      vertex 37 149.235 7.84776
    endloop
  endfacet
  facet normal 0 0.195179 -0.980768
    outer loop
      vertex 37 150 8
      vertex 0 149.235 7.84776
      vertex 0 150 8
    endloop
  endfacet
  facet normal 0 -0.980844 0.194793
    outer loop
      vertex 0 151.848 5.23463
      vertex 37 152 6
      vertex 0 152 6
    endloop
  endfacet
  facet normal 0 -0.980844 0.194793
    outer loop
      vertex 37 152 6
      vertex 0 151.848 5.23463
      vertex 37 151.848 5.23463
    endloop
  endfacet
  facet normal 0 -0.195179 -0.980768
    outer loop
      vertex 0 150 8
      vertex 37 150.765 7.84776
      vertex 37 150 8
    endloop
  endfacet
  facet normal -0 -0.195179 -0.980768
    outer loop
      vertex 37 150.765 7.84776
      vertex 0 150 8
      vertex 0 150.765 7.84776
    endloop
  endfacet
  facet normal 0 -0.831198 0.555977
    outer loop
      vertex 0 151.414 4.58579
      vertex 37 151.848 5.23463
      vertex 0 151.848 5.23463
    endloop
  endfacet
  facet normal 0 -0.831198 0.555977
    outer loop
      vertex 37 151.848 5.23463
      vertex 0 151.414 4.58579
      vertex 37 151.414 4.58579
    endloop
  endfacet
  facet normal -1 0 0
    outer loop
      vertex 37 151.848 5.23463
      vertex 37 151.848 6.76537
      vertex 37 152 6
    endloop
  endfacet
  facet normal -1 0 0
    outer loop
      vertex 37 151.414 4.58579
      vertex 37 151.848 6.76537
      vertex 37 151.848 5.23463
    endloop
  endfacet
  facet normal -1 0 0
    outer loop
      vertex 37 151.414 4.58579
      vertex 37 151.414 7.41421
      vertex 37 151.848 6.76537
    endloop
  endfacet
  facet normal -1 0 0
    outer loop
      vertex 37 150.765 4.15224
      vertex 37 151.414 7.41421
      vertex 37 151.414 4.58579
    endloop
  endfacet
  facet normal -1 0 0
    outer loop
      vertex 37 150.765 4.15224
      vertex 37 150.765 7.84776
      vertex 37 151.414 7.41421
    endloop
  endfacet
  facet normal -1 0 0
    outer loop
      vertex 37 150 4
      vertex 37 150.765 7.84776
      vertex 37 150.765 4.15224
    endloop
  endfacet
  facet normal -1 0 0
    outer loop
      vertex 37 150 4
      vertex 37 150 8
      vertex 37 150.765 7.84776
    endloop
  endfacet
  facet normal -1 0 0
    outer loop
      vertex 37 149.235 4.15224
      vertex 37 150 8
      vertex 37 150 4
    endloop
  endfacet
  facet normal -1 0 0
    outer loop
      vertex 37 149.235 4.15224
      vertex 37 149.235 7.84776
      vertex 37 150 8
    endloop
  endfacet
  facet normal -1 0 0
    outer loop
      vertex 37 148.586 4.58579
      vertex 37 149.235 7.84776
      vertex 37 149.235 4.15224
    endloop
  endfacet
  facet normal -1 0 0
    outer loop
      vertex 37 148.586 4.58579
      vertex 37 148.586 7.41421
      vertex 37 149.235 7.84776
    endloop
  endfacet
  facet normal -1 0 0
    outer loop
      vertex 37 148.152 5.23463
      vertex 37 148.586 7.41421
      vertex 37 148.586 4.58579
    endloop
  endfacet
  facet normal -1 0 0
    outer loop
      vertex 37 148.152 5.23463
      vertex 37 148.152 6.76537
      vertex 37 148.586 7.41421
    endloop
  endfacet
  facet normal -1 0 -0
    outer loop
      vertex 37 148.152 6.76537
      vertex 37 148.152 5.23463
      vertex 37 148 6
    endloop
  endfacet
  facet normal -1 0 0
    outer loop
      vertex 0 200 0
      vertex 0 152 6
      vertex 0 200 12
    endloop
  endfacet
  facet normal -1 0 0
    outer loop
      vertex 0 200 0
      vertex 0 151.848 5.23463
      vertex 0 152 6
    endloop
  endfacet
  facet normal -1 0 0
    outer loop
      vertex 0 200 0
      vertex 0 151.414 4.58579
      vertex 0 151.848 5.23463
    endloop
  endfacet
  facet normal -1 0 0
    outer loop
      vertex 0 200 0
      vertex 0 150.765 4.15224
      vertex 0 151.414 4.58579
    endloop
  endfacet
  facet normal -1 0 0
    outer loop
      vertex 0 200 0
      vertex 0 150 4
      vertex 0 150.765 4.15224
    endloop
  endfacet
  facet normal -1 0 0
    outer loop
      vertex 0 148.152 5.23463
      vertex 0 52 6
      vertex 0 148 6
    endloop
  endfacet
  facet normal -1 0 0
    outer loop
      vertex 0 51.8478 5.23463
      vertex 0 148.152 5.23463
      vertex 0 148.586 4.58579
    endloop
  endfacet
  facet normal -1 0 0
    outer loop
      vertex 0 51.4142 4.58579
      vertex 0 148.586 4.58579
      vertex 0 149.235 4.15224
    endloop
  endfacet
  facet normal -1 0 0
    outer loop
      vertex 0 50.7654 4.15224
      vertex 0 149.235 4.15224
      vertex 0 150 4
    endloop
  endfacet
  facet normal -1 0 0
    outer loop
      vertex 0 50 4
      vertex 0 150 4
      vertex 0 200 0
    endloop
  endfacet
  facet normal -1 0 0
    outer loop
      vertex 0 148.152 5.23463
      vertex 0 51.8478 5.23463
      vertex 0 52 6
    endloop
  endfacet
  facet normal -1 0 0
    outer loop
      vertex 0 148.586 4.58579
      vertex 0 51.4142 4.58579
      vertex 0 51.8478 5.23463
    endloop
  endfacet
  facet normal -1 0 0
    outer loop
      vertex 0 149.235 4.15224
      vertex 0 50.7654 4.15224
      vertex 0 51.4142 4.58579
    endloop
  endfacet
  facet normal -1 0 0
    outer loop
      vertex 0 150 4
      vertex 0 50 4
      vertex 0 50.7654 4.15224
    endloop
  endfacet
  facet normal -1 -0 0
    outer loop
      vertex 0 48.1522 5.23463
      vertex 0 0 0
      vertex 0 48 6
    endloop
  endfacet
  facet normal -1 -0 0
    outer loop
      vertex 0 48.5858 4.58579
      vertex 0 0 0
      vertex 0 48.1522 5.23463
    endloop
  endfacet
  facet normal -1 -0 0
    outer loop
      vertex 0 49.2346 4.15224
      vertex 0 0 0
      vertex 0 48.5858 4.58579
    endloop
  endfacet
  facet normal -1 -0 0
    outer loop
      vertex 0 50 4
      vertex 0 0 0
      vertex 0 49.2346 4.15224
    endloop
  endfacet
  facet normal -1 0 0
    outer loop
      vertex 0 0 0
      vertex 0 50 4
      vertex 0 200 0
    endloop
  endfacet
  facet normal -1 0 0
    outer loop
      vertex 0 151.848 6.76537
      vertex 0 200 12
      vertex 0 152 6
    endloop
  endfacet
  facet normal -1 0 0
    outer loop
      vertex 0 151.414 7.41421
      vertex 0 200 12
      vertex 0 151.848 6.76537
    endloop
  endfacet
  facet normal -1 0 0
    outer loop
      vertex 0 150.765 7.84776
      vertex 0 200 12
      vertex 0 151.414 7.41421
    endloop
  endfacet
  facet normal -1 0 0
    outer loop
      vertex 0 150 8
      vertex 0 200 12
      vertex 0 150.765 7.84776
    endloop
  endfacet
  facet normal -1 0 0
    outer loop
      vertex 0 52 6
      vertex 0 148.152 6.76537
      vertex 0 148 6
    endloop
  endfacet
  facet normal -1 0 0
    outer loop
      vertex 0 51.8478 6.76537
      vertex 0 148.152 6.76537
      vertex 0 52 6
    endloop
  endfacet
  facet normal -1 0 0
    outer loop
      vertex 0 148.152 6.76537
      vertex 0 51.8478 6.76537
      vertex 0 148.586 7.41421
    endloop
  endfacet
  facet normal -1 0 0
    outer loop
      vertex 0 51.4142 7.41421
      vertex 0 148.586 7.41421
      vertex 0 51.8478 6.76537
    endloop
  endfacet
  facet normal -1 0 0
    outer loop
      vertex 0 148.586 7.41421
      vertex 0 51.4142 7.41421
      vertex 0 149.235 7.84776
    endloop
  endfacet
  facet normal -1 0 0
    outer loop
      vertex 0 50.7654 7.84776
      vertex 0 149.235 7.84776
      vertex 0 51.4142 7.41421
    endloop
  endfacet
  facet normal -1 0 0
    outer loop
      vertex 0 149.235 7.84776
      vertex 0 50.7654 7.84776
      vertex 0 150 8
    endloop
  endfacet
  facet normal -1 0 0
    outer loop
      vertex 0 50 8
      vertex 0 150 8
      vertex 0 50.7654 7.84776
    endloop
  endfacet
  facet normal -1 0 0
    outer loop
      vertex 0 150 8
      vertex 0 50 8
      vertex 0 200 12
    endloop
  endfacet
  facet normal -1 0 0
    outer loop
      vertex 0 0 12
      vertex 0 48 6
      vertex 0 0 0
    endloop
  endfacet
  facet normal -1 0 0
    outer loop
      vertex 0 48 6
      vertex 0 0 12
      vertex 0 48.1522 6.76537
    endloop
  endfacet
  facet normal -1 0 0
    outer loop
      vertex 0 48.1522 6.76537
      vertex 0 0 12
      vertex 0 48.5858 7.41421
    endloop
  endfacet
  facet normal -1 0 0
    outer loop
      vertex 0 48.5858 7.41421
      vertex 0 0 12
      vertex 0 49.2346 7.84776
    endloop
  endfacet
  facet normal -1 0 0
    outer loop
      vertex 0 50 8
      vertex 0 0 12
      vertex 0 200 12
    endloop
  endfacet
  facet normal -1 0 0
    outer loop
      vertex 0 49.2346 7.84776
      vertex 0 0 12
      vertex 0 50 8
    endloop
  endfacet
  facet normal 0 0.831198 0.555977
    outer loop
      vertex 37 148.586 4.58579
      vertex 0 148.152 5.23463
      vertex 37 148.152 5.23463
    endloop
  endfacet
  facet normal 0 0.831198 0.555977
    outer loop
      vertex 0 148.152 5.23463
      vertex 37 148.586 4.58579
      vertex 0 148.586 4.58579
    endloop
  endfacet
  facet normal 0 0.980844 0.194793
    outer loop
      vertex 37 148.152 5.23463
      vertex 0 148 6
      vertex 37 148 6
    endloop
  endfacet
  facet normal 0 0.980844 0.194793
    outer loop
      vertex 0 148 6
      vertex 37 148.152 5.23463
      vertex 0 148.152 5.23463
    endloop
  endfacet
  facet normal -0 0.195179 0.980768
    outer loop
      vertex 0 150 4
      vertex 37 149.235 4.15224
      vertex 37 150 4
    endloop
  endfacet
  facet normal 0 0.195179 0.980768
    outer loop
      vertex 37 149.235 4.15224
      vertex 0 150 4
      vertex 0 149.235 4.15224
    endloop
  endfacet
  facet normal -0 0.555483 0.831528
    outer loop
      vertex 0 149.235 4.15224
      vertex 37 148.586 4.58579
      vertex 37 149.235 4.15224
    endloop
  endfacet
  facet normal 0 0.555483 0.831528
    outer loop
      vertex 37 148.586 4.58579
      vertex 0 149.235 4.15224
      vertex 0 148.586 4.58579
    endloop
  endfacet
  facet normal 0 -0.980795 -0.195039
    outer loop
      vertex 0 52 6
      vertex 37 51.8478 6.76537
      vertex 0 51.8478 6.76537
    endloop
  endfacet
  facet normal 0 -0.980795 -0.195039
    outer loop
      vertex 37 51.8478 6.76537
      vertex 0 52 6
      vertex 37 52 6
    endloop
  endfacet
  facet normal 0 0.980795 -0.195039
    outer loop
      vertex 37 48 6
      vertex 0 48.1522 6.76537
      vertex 37 48.1522 6.76537
    endloop
  endfacet
  facet normal 0 0.980795 -0.195039
    outer loop
      vertex 0 48.1522 6.76537
      vertex 37 48 6
      vertex 0 48 6
    endloop
  endfacet
  facet normal 0 -0.831435 -0.555622
    outer loop
      vertex 0 51.8478 6.76537
      vertex 37 51.4142 7.41421
      vertex 0 51.4142 7.41421
    endloop
  endfacet
  facet normal 0 -0.831435 -0.555622
    outer loop
      vertex 37 51.4142 7.41421
      vertex 0 51.8478 6.76537
      vertex 37 51.8478 6.76537
    endloop
  endfacet
  facet normal 0 -0.555602 -0.831448
    outer loop
      vertex 0 50.7654 7.84776
      vertex 37 51.4142 7.41421
      vertex 37 50.7654 7.84776
    endloop
  endfacet
  facet normal -0 -0.555602 -0.831448
    outer loop
      vertex 37 51.4142 7.41421
      vertex 0 50.7654 7.84776
      vertex 0 51.4142 7.41421
    endloop
  endfacet
  facet normal 0 0.195081 -0.980787
    outer loop
      vertex 0 49.2346 7.84776
      vertex 37 50 8
      vertex 37 49.2346 7.84776
    endloop
  endfacet
  facet normal 0 0.195081 -0.980787
    outer loop
      vertex 37 50 8
      vertex 0 49.2346 7.84776
      vertex 0 50 8
    endloop
  endfacet
  facet normal 0 0.831435 -0.555622
    outer loop
      vertex 37 48.1522 6.76537
      vertex 0 48.5858 7.41421
      vertex 37 48.5858 7.41421
    endloop
  endfacet
  facet normal 0 0.831435 -0.555622
    outer loop
      vertex 0 48.5858 7.41421
      vertex 37 48.1522 6.76537
      vertex 0 48.1522 6.76537
    endloop
  endfacet
  facet normal 0 0.555602 -0.831448
    outer loop
      vertex 0 48.5858 7.41421
      vertex 37 49.2346 7.84776
      vertex 37 48.5858 7.41421
    endloop
  endfacet
  facet normal 0 0.555602 -0.831448
    outer loop
      vertex 37 49.2346 7.84776
      vertex 0 48.5858 7.41421
      vertex 0 49.2346 7.84776
    endloop
  endfacet
  facet normal -1 0 0
    outer loop
      vertex 37 51.8478 5.23463
      vertex 37 51.8478 6.76537
      vertex 37 52 6
    endloop
  endfacet
  facet normal -1 0 0
    outer loop
      vertex 37 51.4142 4.58579
      vertex 37 51.8478 6.76537
      vertex 37 51.8478 5.23463
    endloop
  endfacet
  facet normal -1 0 0
    outer loop
      vertex 37 51.4142 4.58579
      vertex 37 51.4142 7.41421
      vertex 37 51.8478 6.76537
    endloop
  endfacet
  facet normal -1 0 0
    outer loop
      vertex 37 50.7654 4.15224
      vertex 37 51.4142 7.41421
      vertex 37 51.4142 4.58579
    endloop
  endfacet
  facet normal -1 0 0
    outer loop
      vertex 37 50.7654 4.15224
      vertex 37 50.7654 7.84776
      vertex 37 51.4142 7.41421
    endloop
  endfacet
  facet normal -1 0 0
    outer loop
      vertex 37 50 4
      vertex 37 50.7654 7.84776
      vertex 37 50.7654 4.15224
    endloop
  endfacet
  facet normal -1 0 0
    outer loop
      vertex 37 50 4
      vertex 37 50 8
      vertex 37 50.7654 7.84776
    endloop
  endfacet
  facet normal -1 0 0
    outer loop
      vertex 37 49.2346 4.15224
      vertex 37 50 8
      vertex 37 50 4
    endloop
  endfacet
  facet normal -1 0 0
    outer loop
      vertex 37 49.2346 4.15224
      vertex 37 49.2346 7.84776
      vertex 37 50 8
    endloop
  endfacet
  facet normal -1 0 0
    outer loop
      vertex 37 48.5858 4.58579
      vertex 37 49.2346 7.84776
      vertex 37 49.2346 4.15224
    endloop
  endfacet
  facet normal -1 0 0
    outer loop
      vertex 37 48.5858 4.58579
      vertex 37 48.5858 7.41421
      vertex 37 49.2346 7.84776
    endloop
  endfacet
  facet normal -1 0 0
    outer loop
      vertex 37 48.1522 5.23463
      vertex 37 48.5858 7.41421
      vertex 37 48.5858 4.58579
    endloop
  endfacet
  facet normal -1 0 0
    outer loop
      vertex 37 48.1522 5.23463
      vertex 37 48.1522 6.76537
      vertex 37 48.5858 7.41421
    endloop
  endfacet
  facet normal -1 0 -0
    outer loop
      vertex 37 48.1522 6.76537
      vertex 37 48.1522 5.23463
      vertex 37 48 6
    endloop
  endfacet
  facet normal 0 -0.195081 -0.980787
    outer loop
      vertex 0 50 8
      vertex 37 50.7654 7.84776
      vertex 37 50 8
    endloop
  endfacet
  facet normal -0 -0.195081 -0.980787
    outer loop
      vertex 37 50.7654 7.84776
      vertex 0 50 8
      vertex 0 50.7654 7.84776
    endloop
  endfacet
  facet normal 0 -0.555602 0.831448
    outer loop
      vertex 0 51.4142 4.58579
      vertex 37 50.7654 4.15224
      vertex 37 51.4142 4.58579
    endloop
  endfacet
  facet normal 0 -0.555602 0.831448
    outer loop
      vertex 37 50.7654 4.15224
      vertex 0 51.4142 4.58579
      vertex 0 50.7654 4.15224
    endloop
  endfacet
  facet normal 0 -0.831435 0.555622
    outer loop
      vertex 0 51.4142 4.58579
      vertex 37 51.8478 5.23463
      vertex 0 51.8478 5.23463
    endloop
  endfacet
  facet normal 0 -0.831435 0.555622
    outer loop
      vertex 37 51.8478 5.23463
      vertex 0 51.4142 4.58579
      vertex 37 51.4142 4.58579
    endloop
  endfacet
  facet normal 0 -0.980795 0.195039
    outer loop
      vertex 0 51.8478 5.23463
      vertex 37 52 6
      vertex 0 52 6
    endloop
  endfacet
  facet normal 0 -0.980795 0.195039
    outer loop
      vertex 37 52 6
      vertex 0 51.8478 5.23463
      vertex 37 51.8478 5.23463
    endloop
  endfacet
  facet normal 0 0.831435 0.555622
    outer loop
      vertex 37 48.5858 4.58579
      vertex 0 48.1522 5.23463
      vertex 37 48.1522 5.23463
    endloop
  endfacet
  facet normal 0 0.831435 0.555622
    outer loop
      vertex 0 48.1522 5.23463
      vertex 37 48.5858 4.58579
      vertex 0 48.5858 4.58579
    endloop
  endfacet
  facet normal 0 -0.195081 0.980787
    outer loop
      vertex 0 50.7654 4.15224
      vertex 37 50 4
      vertex 37 50.7654 4.15224
    endloop
  endfacet
  facet normal 0 -0.195081 0.980787
    outer loop
      vertex 37 50 4
      vertex 0 50.7654 4.15224
      vertex 0 50 4
    endloop
  endfacet
  facet normal 0 0.980795 0.195039
    outer loop
      vertex 37 48.1522 5.23463
      vertex 0 48 6
      vertex 37 48 6
    endloop
  endfacet
  facet normal 0 0.980795 0.195039
    outer loop
      vertex 0 48 6
      vertex 37 48.1522 5.23463
      vertex 0 48.1522 5.23463
    endloop
  endfacet
  facet normal -0 0.195081 0.980787
    outer loop
      vertex 0 50 4
      vertex 37 49.2346 4.15224
      vertex 37 50 4
    endloop
  endfacet
  facet normal 0 0.195081 0.980787
    outer loop
      vertex 37 49.2346 4.15224
      vertex 0 50 4
      vertex 0 49.2346 4.15224
    endloop
  endfacet
  facet normal -0 0.555602 0.831448
    outer loop
      vertex 0 49.2346 4.15224
      vertex 37 48.5858 4.58579
      vertex 37 49.2346 4.15224
    endloop
  endfacet
  facet normal 0 0.555602 0.831448
    outer loop
      vertex 37 48.5858 4.58579
      vertex 0 49.2346 4.15224
      vertex 0 48.5858 4.58579
    endloop
  endfacet
  facet normal 0 0.980844 -0.194793
    outer loop
      vertex 512 148 6
      vertex 475 148.152 6.76537
      vertex 512 148.152 6.76537
    endloop
  endfacet
  facet normal 0 0.980844 -0.194793
    outer loop
      vertex 475 148.152 6.76537
      vertex 512 148 6
      vertex 475 148 6
    endloop
  endfacet
  facet normal 0 0.831198 -0.555977
    outer loop
      vertex 512 148.152 6.76537
      vertex 475 148.586 7.41421
      vertex 512 148.586 7.41421
    endloop
  endfacet
  facet normal 0 0.831198 -0.555977
    outer loop
      vertex 475 148.586 7.41421
      vertex 512 148.152 6.76537
      vertex 475 148.152 6.76537
    endloop
  endfacet
  facet normal 0 -0.980844 0.194793
    outer loop
      vertex 475 151.848 5.23463
      vertex 512 152 6
      vertex 475 152 6
    endloop
  endfacet
  facet normal 0 -0.980844 0.194793
    outer loop
      vertex 512 152 6
      vertex 475 151.848 5.23463
      vertex 512 151.848 5.23463
    endloop
  endfacet
  facet normal 0 -0.195179 -0.980768
    outer loop
      vertex 475 150 8
      vertex 512 150.765 7.84776
      vertex 512 150 8
    endloop
  endfacet
  facet normal -0 -0.195179 -0.980768
    outer loop
      vertex 512 150.765 7.84776
      vertex 475 150 8
      vertex 475 150.765 7.84776
    endloop
  endfacet
  facet normal -0 0.555483 0.831528
    outer loop
      vertex 475 149.235 4.15224
      vertex 512 148.586 4.58579
      vertex 512 149.235 4.15224
    endloop
  endfacet
  facet normal 0 0.555483 0.831528
    outer loop
      vertex 512 148.586 4.58579
      vertex 475 149.235 4.15224
      vertex 475 148.586 4.58579
    endloop
  endfacet
  facet normal 0 -0.555483 0.831528
    outer loop
      vertex 475 151.414 4.58579
      vertex 512 150.765 4.15224
      vertex 512 151.414 4.58579
    endloop
  endfacet
  facet normal 0 -0.555483 0.831528
    outer loop
      vertex 512 150.765 4.15224
      vertex 475 151.414 4.58579
      vertex 475 150.765 4.15224
    endloop
  endfacet
  facet normal 0 -0.831198 -0.555977
    outer loop
      vertex 475 151.848 6.76537
      vertex 512 151.414 7.41421
      vertex 475 151.414 7.41421
    endloop
  endfacet
  facet normal 0 -0.831198 -0.555977
    outer loop
      vertex 512 151.414 7.41421
      vertex 475 151.848 6.76537
      vertex 512 151.848 6.76537
    endloop
  endfacet
  facet normal 0 -0.555483 -0.831528
    outer loop
      vertex 475 150.765 7.84776
      vertex 512 151.414 7.41421
      vertex 512 150.765 7.84776
    endloop
  endfacet
  facet normal -0 -0.555483 -0.831528
    outer loop
      vertex 512 151.414 7.41421
      vertex 475 150.765 7.84776
      vertex 475 151.414 7.41421
    endloop
  endfacet
  facet normal 1 0 0
    outer loop
      vertex 512 200 12
      vertex 512 152 6
      vertex 512 200 0
    endloop
  endfacet
  facet normal 1 0 0
    outer loop
      vertex 512 200 12
      vertex 512 151.848 6.76537
      vertex 512 152 6
    endloop
  endfacet
  facet normal 1 0 0
    outer loop
      vertex 512 200 12
      vertex 512 151.414 7.41421
      vertex 512 151.848 6.76537
    endloop
  endfacet
  facet normal 1 0 0
    outer loop
      vertex 512 200 12
      vertex 512 150.765 7.84776
      vertex 512 151.414 7.41421
    endloop
  endfacet
  facet normal 1 0 0
    outer loop
      vertex 512 200 12
      vertex 512 150 8
      vertex 512 150.765 7.84776
    endloop
  endfacet
  facet normal 1 0 0
    outer loop
      vertex 512 148.152 6.76537
      vertex 512 52 6
      vertex 512 148 6
    endloop
  endfacet
  facet normal 1 0 0
    outer loop
      vertex 512 51.8478 6.76537
      vertex 512 148.152 6.76537
      vertex 512 148.586 7.41421
    endloop
  endfacet
  facet normal 1 0 0
    outer loop
      vertex 512 51.4142 7.41421
      vertex 512 148.586 7.41421
      vertex 512 149.235 7.84776
    endloop
  endfacet
  facet normal 1 0 0
    outer loop
      vertex 512 50.7654 7.84776
      vertex 512 149.235 7.84776
      vertex 512 150 8
    endloop
  endfacet
  facet normal 1 0 0
    outer loop
      vertex 512 50 8
      vertex 512 150 8
      vertex 512 200 12
    endloop
  endfacet
  facet normal 1 0 0
    outer loop
      vertex 512 148.152 6.76537
      vertex 512 51.8478 6.76537
      vertex 512 52 6
    endloop
  endfacet
  facet normal 1 0 0
    outer loop
      vertex 512 148.586 7.41421
      vertex 512 51.4142 7.41421
      vertex 512 51.8478 6.76537
    endloop
  endfacet
  facet normal 1 0 0
    outer loop
      vertex 512 149.235 7.84776
      vertex 512 50.7654 7.84776
      vertex 512 51.4142 7.41421
    endloop
  endfacet
  facet normal 1 0 0
    outer loop
      vertex 512 150 8
      vertex 512 50 8
      vertex 512 50.7654 7.84776
    endloop
  endfacet
  facet normal 1 0 0
    outer loop
      vertex 512 48.1522 6.76537
      vertex 512 0 12
      vertex 512 48 6
    endloop
  endfacet
  facet normal 1 0 0
    outer loop
      vertex 512 48.5858 7.41421
      vertex 512 0 12
      vertex 512 48.1522 6.76537
    endloop
  endfacet
  facet normal 1 0 0
    outer loop
      vertex 512 49.2346 7.84776
      vertex 512 0 12
      vertex 512 48.5858 7.41421
    endloop
  endfacet
  facet normal 1 0 0
    outer loop
      vertex 512 50 8
      vertex 512 0 12
      vertex 512 49.2346 7.84776
    endloop
  endfacet
  facet normal 1 -0 0
    outer loop
      vertex 512 0 12
      vertex 512 50 8
      vertex 512 200 12
    endloop
  endfacet
  facet normal 1 -0 0
    outer loop
      vertex 512 151.848 5.23463
      vertex 512 200 0
      vertex 512 152 6
    endloop
  endfacet
  facet normal 1 -0 0
    outer loop
      vertex 512 151.414 4.58579
      vertex 512 200 0
      vertex 512 151.848 5.23463
    endloop
  endfacet
  facet normal 1 -0 0
    outer loop
      vertex 512 150.765 4.15224
      vertex 512 200 0
      vertex 512 151.414 4.58579
    endloop
  endfacet
  facet normal 1 -0 0
    outer loop
      vertex 512 150 4
      vertex 512 200 0
      vertex 512 150.765 4.15224
    endloop
  endfacet
  facet normal 1 -0 0
    outer loop
      vertex 512 52 6
      vertex 512 148.152 5.23463
      vertex 512 148 6
    endloop
  endfacet
  facet normal 1 0 0
    outer loop
      vertex 512 51.8478 5.23463
      vertex 512 148.152 5.23463
      vertex 512 52 6
    endloop
  endfacet
  facet normal 1 0 0
    outer loop
      vertex 512 148.152 5.23463
      vertex 512 51.8478 5.23463
      vertex 512 148.586 4.58579
    endloop
  endfacet
  facet normal 1 0 0
    outer loop
      vertex 512 51.4142 4.58579
      vertex 512 148.586 4.58579
      vertex 512 51.8478 5.23463
    endloop
  endfacet
  facet normal 1 0 0
    outer loop
      vertex 512 148.586 4.58579
      vertex 512 51.4142 4.58579
      vertex 512 149.235 4.15224
    endloop
  endfacet
  facet normal 1 0 0
    outer loop
      vertex 512 50.7654 4.15224
      vertex 512 149.235 4.15224
      vertex 512 51.4142 4.58579
    endloop
  endfacet
  facet normal 1 0 0
    outer loop
      vertex 512 149.235 4.15224
      vertex 512 50.7654 4.15224
      vertex 512 150 4
    endloop
  endfacet
  facet normal 1 0 0
    outer loop
      vertex 512 50 4
      vertex 512 150 4
      vertex 512 50.7654 4.15224
    endloop
  endfacet
  facet normal 1 0 0
    outer loop
      vertex 512 150 4
      vertex 512 50 4
      vertex 512 200 0
    endloop
  endfacet
  facet normal 1 0 0
    outer loop
      vertex 512 0 0
      vertex 512 48 6
      vertex 512 0 12
    endloop
  endfacet
  facet normal 1 0 0
    outer loop
      vertex 512 48 6
      vertex 512 0 0
      vertex 512 48.1522 5.23463
    endloop
  endfacet
  facet normal 1 0 0
    outer loop
      vertex 512 48.1522 5.23463
      vertex 512 0 0
      vertex 512 48.5858 4.58579
    endloop
  endfacet
  facet normal 1 0 0
    outer loop
      vertex 512 48.5858 4.58579
      vertex 512 0 0
      vertex 512 49.2346 4.15224
    endloop
  endfacet
  facet normal 1 0 0
    outer loop
      vertex 512 50 4
      vertex 512 0 0
      vertex 512 200 0
    endloop
  endfacet
  facet normal 1 0 0
    outer loop
      vertex 512 49.2346 4.15224
      vertex 512 0 0
      vertex 512 50 4
    endloop
  endfacet
  facet normal 1 0 0
    outer loop
      vertex 475 151.848 6.76537
      vertex 475 151.848 5.23463
      vertex 475 152 6
    endloop
  endfacet
  facet normal 1 0 0
    outer loop
      vertex 475 151.414 7.41421
      vertex 475 151.848 5.23463
      vertex 475 151.848 6.76537
    endloop
  endfacet
  facet normal 1 0 0
    outer loop
      vertex 475 151.414 7.41421
      vertex 475 151.414 4.58579
      vertex 475 151.848 5.23463
    endloop
  endfacet
  facet normal 1 0 0
    outer loop
      vertex 475 150.765 7.84776
      vertex 475 151.414 4.58579
      vertex 475 151.414 7.41421
    endloop
  endfacet
  facet normal 1 0 0
    outer loop
      vertex 475 150.765 7.84776
      vertex 475 150.765 4.15224
      vertex 475 151.414 4.58579
    endloop
  endfacet
  facet normal 1 0 0
    outer loop
      vertex 475 150 8
      vertex 475 150.765 4.15224
      vertex 475 150.765 7.84776
    endloop
  endfacet
  facet normal 1 0 0
    outer loop
      vertex 475 150 8
      vertex 475 150 4
      vertex 475 150.765 4.15224
    endloop
  endfacet
  facet normal 1 -0 0
    outer loop
      vertex 475 149.235 7.84776
      vertex 475 150 4
      vertex 475 150 8
    endloop
  endfacet
  facet normal 1 0 0
    outer loop
      vertex 475 149.235 7.84776
      vertex 475 149.235 4.15224
      vertex 475 150 4
    endloop
  endfacet
  facet normal 1 -0 0
    outer loop
      vertex 475 148.586 7.41421
      vertex 475 149.235 4.15224
      vertex 475 149.235 7.84776
    endloop
  endfacet
  facet normal 1 0 0
    outer loop
      vertex 475 148.586 7.41421
      vertex 475 148.586 4.58579
      vertex 475 149.235 4.15224
    endloop
  endfacet
  facet normal 1 -0 0
    outer loop
      vertex 475 148.152 6.76537
      vertex 475 148.586 4.58579
      vertex 475 148.586 7.41421
    endloop
  endfacet
  facet normal 1 0 0
    outer loop
      vertex 475 148.152 6.76537
      vertex 475 148.152 5.23463
      vertex 475 148.586 4.58579
    endloop
  endfacet
  facet normal 1 0 -0
    outer loop
      vertex 475 148.152 5.23463
      vertex 475 148.152 6.76537
      vertex 475 148 6
    endloop
  endfacet
  facet normal 0 -0.831198 0.555977
    outer loop
      vertex 475 151.414 4.58579
      vertex 512 151.848 5.23463
      vertex 475 151.848 5.23463
    endloop
  endfacet
  facet normal 0 -0.831198 0.555977
    outer loop
      vertex 512 151.848 5.23463
      vertex 475 151.414 4.58579
      vertex 512 151.414 4.58579
    endloop
  endfacet
  facet normal 0 0.555483 -0.831528
    outer loop
      vertex 475 148.586 7.41421
      vertex 512 149.235 7.84776
      vertex 512 148.586 7.41421
    endloop
  endfacet
  facet normal 0 0.555483 -0.831528
    outer loop
      vertex 512 149.235 7.84776
      vertex 475 148.586 7.41421
      vertex 475 149.235 7.84776
    endloop
  endfacet
  facet normal 0 0.195179 -0.980768
    outer loop
      vertex 475 149.235 7.84776
      vertex 512 150 8
      vertex 512 149.235 7.84776
    endloop
  endfacet
  facet normal 0 0.195179 -0.980768
    outer loop
      vertex 512 150 8
      vertex 475 149.235 7.84776
      vertex 475 150 8
    endloop
  endfacet
  facet normal 0 -0.980844 -0.194793
    outer loop
      vertex 475 152 6
      vertex 512 151.848 6.76537
      vertex 475 151.848 6.76537
    endloop
  endfacet
  facet normal 0 -0.980844 -0.194793
    outer loop
      vertex 512 151.848 6.76537
      vertex 475 152 6
      vertex 512 152 6
    endloop
  endfacet
  facet normal 0 0.831198 0.555977
    outer loop
      vertex 512 148.586 4.58579
      vertex 475 148.152 5.23463
      vertex 512 148.152 5.23463
    endloop
  endfacet
  facet normal 0 0.831198 0.555977
    outer loop
      vertex 475 148.152 5.23463
      vertex 512 148.586 4.58579
      vertex 475 148.586 4.58579
    endloop
  endfacet
  facet normal 0 0.980844 0.194793
    outer loop
      vertex 512 148.152 5.23463
      vertex 475 148 6
      vertex 512 148 6
    endloop
  endfacet
  facet normal 0 0.980844 0.194793
    outer loop
      vertex 475 148 6
      vertex 512 148.152 5.23463
      vertex 475 148.152 5.23463
    endloop
  endfacet
  facet normal 0 -0.195179 0.980768
    outer loop
      vertex 475 150.765 4.15224
      vertex 512 150 4
      vertex 512 150.765 4.15224
    endloop
  endfacet
  facet normal 0 -0.195179 0.980768
    outer loop
      vertex 512 150 4
      vertex 475 150.765 4.15224
      vertex 475 150 4
    endloop
  endfacet
  facet normal -0 0.195179 0.980768
    outer loop
      vertex 475 150 4
      vertex 512 149.235 4.15224
      vertex 512 150 4
    endloop
  endfacet
  facet normal 0 0.195179 0.980768
    outer loop
      vertex 512 149.235 4.15224
      vertex 475 150 4
      vertex 475 149.235 4.15224
    endloop
  endfacet
  facet normal 0 0.980795 -0.195039
    outer loop
      vertex 512 48 6
      vertex 475 48.1522 6.76537
      vertex 512 48.1522 6.76537
    endloop
  endfacet
  facet normal 0 0.980795 -0.195039
    outer loop
      vertex 475 48.1522 6.76537
      vertex 512 48 6
      vertex 475 48 6
    endloop
  endfacet
  facet normal 0 0.831435 -0.555622
    outer loop
      vertex 512 48.1522 6.76537
      vertex 475 48.5858 7.41421
      vertex 512 48.5858 7.41421
    endloop
  endfacet
  facet normal 0 0.831435 -0.555622
    outer loop
      vertex 475 48.5858 7.41421
      vertex 512 48.1522 6.76537
      vertex 475 48.1522 6.76537
    endloop
  endfacet
  facet normal 0 -0.980795 0.195039
    outer loop
      vertex 475 51.8478 5.23463
      vertex 512 52 6
      vertex 475 52 6
    endloop
  endfacet
  facet normal 0 -0.980795 0.195039
    outer loop
      vertex 512 52 6
      vertex 475 51.8478 5.23463
      vertex 512 51.8478 5.23463
    endloop
  endfacet
  facet normal 0 -0.195081 -0.980787
    outer loop
      vertex 475 50 8
      vertex 512 50.7654 7.84776
      vertex 512 50 8
    endloop
  endfacet
  facet normal -0 -0.195081 -0.980787
    outer loop
      vertex 512 50.7654 7.84776
      vertex 475 50 8
      vertex 475 50.7654 7.84776
    endloop
  endfacet
  facet normal -0 0.555602 0.831448
    outer loop
      vertex 475 49.2346 4.15224
      vertex 512 48.5858 4.58579
      vertex 512 49.2346 4.15224
    endloop
  endfacet
  facet normal 0 0.555602 0.831448
    outer loop
      vertex 512 48.5858 4.58579
      vertex 475 49.2346 4.15224
      vertex 475 48.5858 4.58579
    endloop
  endfacet
  facet normal 0 -0.555602 0.831448
    outer loop
      vertex 475 51.4142 4.58579
      vertex 512 50.7654 4.15224
      vertex 512 51.4142 4.58579
    endloop
  endfacet
  facet normal 0 -0.555602 0.831448
    outer loop
      vertex 512 50.7654 4.15224
      vertex 475 51.4142 4.58579
      vertex 475 50.7654 4.15224
    endloop
  endfacet
  facet normal 0 -0.831435 -0.555622
    outer loop
      vertex 475 51.8478 6.76537
      vertex 512 51.4142 7.41421
      vertex 475 51.4142 7.41421
    endloop
  endfacet
  facet normal 0 -0.831435 -0.555622
    outer loop
      vertex 512 51.4142 7.41421
      vertex 475 51.8478 6.76537
      vertex 512 51.8478 6.76537
    endloop
  endfacet
  facet normal 0 -0.555602 -0.831448
    outer loop
      vertex 475 50.7654 7.84776
      vertex 512 51.4142 7.41421
      vertex 512 50.7654 7.84776
    endloop
  endfacet
  facet normal -0 -0.555602 -0.831448
    outer loop
      vertex 512 51.4142 7.41421
      vertex 475 50.7654 7.84776
      vertex 475 51.4142 7.41421
    endloop
  endfacet
  facet normal 1 0 0
    outer loop
      vertex 475 51.8478 6.76537
      vertex 475 51.8478 5.23463
      vertex 475 52 6
    endloop
  endfacet
  facet normal 1 0 0
    outer loop
      vertex 475 51.4142 7.41421
      vertex 475 51.8478 5.23463
      vertex 475 51.8478 6.76537
    endloop
  endfacet
  facet normal 1 0 0
    outer loop
      vertex 475 51.4142 7.41421
      vertex 475 51.4142 4.58579
      vertex 475 51.8478 5.23463
    endloop
  endfacet
  facet normal 1 0 0
    outer loop
      vertex 475 50.7654 7.84776
      vertex 475 51.4142 4.58579
      vertex 475 51.4142 7.41421
    endloop
  endfacet
  facet normal 1 0 0
    outer loop
      vertex 475 50.7654 7.84776
      vertex 475 50.7654 4.15224
      vertex 475 51.4142 4.58579
    endloop
  endfacet
  facet normal 1 0 0
    outer loop
      vertex 475 50 8
      vertex 475 50.7654 4.15224
      vertex 475 50.7654 7.84776
    endloop
  endfacet
  facet normal 1 0 0
    outer loop
      vertex 475 50 8
      vertex 475 50 4
      vertex 475 50.7654 4.15224
    endloop
  endfacet
  facet normal 1 -0 0
    outer loop
      vertex 475 49.2346 7.84776
      vertex 475 50 4
      vertex 475 50 8
    endloop
  endfacet
  facet normal 1 0 0
    outer loop
      vertex 475 49.2346 7.84776
      vertex 475 49.2346 4.15224
      vertex 475 50 4
    endloop
  endfacet
  facet normal 1 -0 0
    outer loop
      vertex 475 48.5858 7.41421
      vertex 475 49.2346 4.15224
      vertex 475 49.2346 7.84776
    endloop
  endfacet
  facet normal 1 0 0
    outer loop
      vertex 475 48.5858 7.41421
      vertex 475 48.5858 4.58579
      vertex 475 49.2346 4.15224
    endloop
  endfacet
  facet normal 1 -0 0
    outer loop
      vertex 475 48.1522 6.76537
      vertex 475 48.5858 4.58579
      vertex 475 48.5858 7.41421
    endloop
  endfacet
  facet normal 1 0 0
    outer loop
      vertex 475 48.1522 6.76537
      vertex 475 48.1522 5.23463
      vertex 475 48.5858 4.58579
    endloop
  endfacet
  facet normal 1 0 -0
    outer loop
      vertex 475 48.1522 5.23463
      vertex 475 48.1522 6.76537
      vertex 475 48 6
    endloop
  endfacet
  facet normal 0 -0.831435 0.555622
    outer loop
      vertex 475 51.4142 4.58579
      vertex 512 51.8478 5.23463
      vertex 475 51.8478 5.23463
    endloop
  endfacet
  facet normal 0 -0.831435 0.555622
    outer loop
      vertex 512 51.8478 5.23463
      vertex 475 51.4142 4.58579
      vertex 512 51.4142 4.58579
    endloop
  endfacet
  facet normal 0 0.555602 -0.831448
    outer loop
      vertex 475 48.5858 7.41421
      vertex 512 49.2346 7.84776
      vertex 512 48.5858 7.41421
    endloop
  endfacet
  facet normal 0 0.555602 -0.831448
    outer loop
      vertex 512 49.2346 7.84776
      vertex 475 48.5858 7.41421
      vertex 475 49.2346 7.84776
    endloop
  endfacet
  facet normal 0 0.195081 -0.980787
    outer loop
      vertex 475 49.2346 7.84776
      vertex 512 50 8
      vertex 512 49.2346 7.84776
    endloop
  endfacet
  facet normal 0 0.195081 -0.980787
    outer loop
      vertex 512 50 8
      vertex 475 49.2346 7.84776
      vertex 475 50 8
    endloop
  endfacet
  facet normal 0 -0.980795 -0.195039
    outer loop
      vertex 475 52 6
      vertex 512 51.8478 6.76537
      vertex 475 51.8478 6.76537
    endloop
  endfacet
  facet normal 0 -0.980795 -0.195039
    outer loop
      vertex 512 51.8478 6.76537
      vertex 475 52 6
      vertex 512 52 6
    endloop
  endfacet
  facet normal 0 0.831435 0.555622
    outer loop
      vertex 512 48.5858 4.58579
      vertex 475 48.1522 5.23463
      vertex 512 48.1522 5.23463
    endloop
  endfacet
  facet normal 0 0.831435 0.555622
    outer loop
      vertex 475 48.1522 5.23463
      vertex 512 48.5858 4.58579
      vertex 475 48.5858 4.58579
    endloop
  endfacet
  facet normal 0 0.980795 0.195039
    outer loop
      vertex 512 48.1522 5.23463
      vertex 475 48 6
      vertex 512 48 6
    endloop
  endfacet
  facet normal 0 0.980795 0.195039
    outer loop
      vertex 475 48 6
      vertex 512 48.1522 5.23463
      vertex 475 48.1522 5.23463
    endloop
  endfacet
  facet normal 0 -0.195081 0.980787
    outer loop
      vertex 475 50.7654 4.15224
      vertex 512 50 4
      vertex 512 50.7654 4.15224
    endloop
  endfacet
  facet normal 0 -0.195081 0.980787
    outer loop
      vertex 512 50 4
      vertex 475 50.7654 4.15224
      vertex 475 50 4
    endloop
  endfacet
  facet normal -0 0.195081 0.980787
    outer loop
      vertex 475 50 4
      vertex 512 49.2346 4.15224
      vertex 512 50 4
    endloop
  endfacet
  facet normal 0 0.195081 0.980787
    outer loop
      vertex 512 49.2346 4.15224
      vertex 475 50 4
      vertex 475 49.2346 4.15224
    endloop
  endfacet
  facet normal -0.980777 0.19513 0
    outer loop
      vertex 51.8478 193.235 0
      vertex 52 194 12
      vertex 52 194 0
    endloop
  endfacet
  facet normal -0.980777 0.19513 0
    outer loop
      vertex 52 194 12
      vertex 51.8478 193.235 0
      vertex 51.8478 193.235 12
    endloop
  endfacet
  facet normal -0.831498 0.555528 0
    outer loop
      vertex 51.4142 192.586 0
      vertex 51.8478 193.235 12
      vertex 51.8478 193.235 0
    endloop
  endfacet
  facet normal -0.831498 0.555528 0
    outer loop
      vertex 51.8478 193.235 12
      vertex 51.4142 192.586 0
      vertex 51.4142 192.586 12
    endloop
  endfacet
  facet normal 0.194785 0.980846 -0
    outer loop
      vertex 50 192 0
      vertex 49.2346 192.152 12
      vertex 50 192 12
    endloop
  endfacet
  facet normal 0.194785 0.980846 0
    outer loop
      vertex 49.2346 192.152 12
      vertex 50 192 0
      vertex 49.2346 192.152 0
    endloop
  endfacet
  facet normal -0.556 -0.831182 0
    outer loop
      vertex 50.7654 195.848 0
      vertex 51.4142 195.414 12
      vertex 50.7654 195.848 12
    endloop
  endfacet
  facet normal -0.556 -0.831182 -0
    outer loop
      vertex 51.4142 195.414 12
      vertex 50.7654 195.848 0
      vertex 51.4142 195.414 0
    endloop
  endfacet
  facet normal -0.556 0.831182 0
    outer loop
      vertex 51.4142 192.586 0
      vertex 50.7654 192.152 12
      vertex 51.4142 192.586 12
    endloop
  endfacet
  facet normal -0.556 0.831182 0
    outer loop
      vertex 50.7654 192.152 12
      vertex 51.4142 192.586 0
      vertex 50.7654 192.152 0
    endloop
  endfacet
  facet normal 0.831498 0.555528 0
    outer loop
      vertex 48.5858 192.586 12
      vertex 48.1522 193.235 0
      vertex 48.1522 193.235 12
    endloop
  endfacet
  facet normal 0.831498 0.555528 0
    outer loop
      vertex 48.1522 193.235 0
      vertex 48.5858 192.586 12
      vertex 48.5858 192.586 0
    endloop
  endfacet
  facet normal 0 0 1
    outer loop
      vertex 463.848 193.235 12
      vertex 512 200 12
      vertex 464 194 12
    endloop
  endfacet
  facet normal 0 0 1
    outer loop
      vertex 512 200 12
      vertex 463.848 194.765 12
      vertex 464 194 12
    endloop
  endfacet
  facet normal 0 0 1
    outer loop
      vertex 512 200 12
      vertex 463.414 195.414 12
      vertex 463.848 194.765 12
    endloop
  endfacet
  facet normal 0 0 1
    outer loop
      vertex 512 200 12
      vertex 462.765 195.848 12
      vertex 463.414 195.414 12
    endloop
  endfacet
  facet normal 0 0 1
    outer loop
      vertex 512 200 12
      vertex 462 196 12
      vertex 462.765 195.848 12
    endloop
  endfacet
  facet normal 0 0 1
    outer loop
      vertex 460.152 194.765 12
      vertex 258 194 12
      vertex 460 194 12
    endloop
  endfacet
  facet normal 0 0 1
    outer loop
      vertex 257.848 194.765 12
      vertex 460.152 194.765 12
      vertex 460.586 195.414 12
    endloop
  endfacet
  facet normal 0 0 1
    outer loop
      vertex 257.414 195.414 12
      vertex 460.586 195.414 12
      vertex 461.235 195.848 12
    endloop
  endfacet
  facet normal 0 0 1
    outer loop
      vertex 256.765 195.848 12
      vertex 461.235 195.848 12
      vertex 462 196 12
    endloop
  endfacet
  facet normal 0 0 1
    outer loop
      vertex 256 196 12
      vertex 462 196 12
      vertex 512 200 12
    endloop
  endfacet
  facet normal 0 0 1
    outer loop
      vertex 460.152 194.765 12
      vertex 257.848 194.765 12
      vertex 258 194 12
    endloop
  endfacet
  facet normal 0 0 1
    outer loop
      vertex 460.586 195.414 12
      vertex 257.414 195.414 12
      vertex 257.848 194.765 12
    endloop
  endfacet
  facet normal 0 0 1
    outer loop
      vertex 461.235 195.848 12
      vertex 256.765 195.848 12
      vertex 257.414 195.414 12
    endloop
  endfacet
  facet normal 0 0 1
    outer loop
      vertex 462 196 12
      vertex 256 196 12
      vertex 256.765 195.848 12
    endloop
  endfacet
  facet normal 0 0 1
    outer loop
      vertex 254.152 194.765 12
      vertex 52 194 12
      vertex 254 194 12
    endloop
  endfacet
  facet normal 0 0 1
    outer loop
      vertex 51.8478 194.765 12
      vertex 254.152 194.765 12
      vertex 254.586 195.414 12
    endloop
  endfacet
  facet normal 0 0 1
    outer loop
      vertex 51.4142 195.414 12
      vertex 254.586 195.414 12
      vertex 255.235 195.848 12
    endloop
  endfacet
  facet normal 0 0 1
    outer loop
      vertex 50.7654 195.848 12
      vertex 255.235 195.848 12
      vertex 256 196 12
    endloop
  endfacet
  facet normal -0 0 1
    outer loop
      vertex 0 200 12
      vertex 256 196 12
      vertex 512 200 12
    endloop
  endfacet
  facet normal 0 0 1
    outer loop
      vertex 254.152 194.765 12
      vertex 51.8478 194.765 12
      vertex 52 194 12
    endloop
  endfacet
  facet normal 0 0 1
    outer loop
      vertex 254.586 195.414 12
      vertex 51.4142 195.414 12
      vertex 51.8478 194.765 12
    endloop
  endfacet
  facet normal 0 0 1
    outer loop
      vertex 255.235 195.848 12
      vertex 50.7654 195.848 12
      vertex 51.4142 195.414 12
    endloop
  endfacet
  facet normal 0 0 1
    outer loop
      vertex 256 196 12
      vertex 50 196 12
      vertex 50.7654 195.848 12
    endloop
  endfacet
  facet normal 0 0 1
    outer loop
      vertex 48.1522 194.765 12
      vertex 0 200 12
      vertex 48 194 12
    endloop
  endfacet
  facet normal 0 0 1
    outer loop
      vertex 48.5858 195.414 12
      vertex 0 200 12
      vertex 48.1522 194.765 12
    endloop
  endfacet
  facet normal 0 0 1
    outer loop
      vertex 49.2346 195.848 12
      vertex 0 200 12
      vertex 48.5858 195.414 12
    endloop
  endfacet
  facet normal 0 0 1
    outer loop
      vertex 50 196 12
      vertex 0 200 12
      vertex 49.2346 195.848 12
    endloop
  endfacet
  facet normal 0 0 1
    outer loop
      vertex 256 196 12
      vertex 0 200 12
      vertex 50 196 12
    endloop
  endfacet
  facet normal 0 0 1
    outer loop
      vertex 463.414 192.586 12
      vertex 512 200 12
      vertex 463.848 193.235 12
    endloop
  endfacet
  facet normal 0 0 1
    outer loop
      vertex 462.765 192.152 12
      vertex 512 200 12
      vertex 463.414 192.586 12
    endloop
  endfacet
  facet normal 0 0 1
    outer loop
      vertex 512 200 12
      vertex 462.765 192.152 12
      vertex 512 0 12
    endloop
  endfacet
  facet normal -0 0 1
    outer loop
      vertex 462 192 12
      vertex 512 0 12
      vertex 462.765 192.152 12
    endloop
  endfacet
  facet normal 0 0 1
    outer loop
      vertex 461.235 192.152 12
      vertex 512 0 12
      vertex 462 192 12
    endloop
  endfacet
  facet normal 0 0 1
    outer loop
      vertex 460.586 192.586 12
      vertex 512 0 12
      vertex 461.235 192.152 12
    endloop
  endfacet
  facet normal 0 0 1
    outer loop
      vertex 257.414 192.586 12
      vertex 460.586 192.586 12
      vertex 460.152 193.235 12
    endloop
  endfacet
  facet normal -0 0 1
    outer loop
      vertex 258 194 12
      vertex 460.152 193.235 12
      vertex 460 194 12
    endloop
  endfacet
  facet normal 0 0 1
    outer loop
      vertex 257.848 193.235 12
      vertex 460.152 193.235 12
      vertex 258 194 12
    endloop
  endfacet
  facet normal 0 0 1
    outer loop
      vertex 257.414 192.586 12
      vertex 460.152 193.235 12
      vertex 257.848 193.235 12
    endloop
  endfacet
  facet normal 0 0 1
    outer loop
      vertex 460.586 192.586 12
      vertex 257.414 192.586 12
      vertex 512 0 12
    endloop
  endfacet
  facet normal -0 0 1
    outer loop
      vertex 256.765 192.152 12
      vertex 512 0 12
      vertex 257.414 192.586 12
    endloop
  endfacet
  facet normal -0 0 1
    outer loop
      vertex 256 192 12
      vertex 512 0 12
      vertex 256.765 192.152 12
    endloop
  endfacet
  facet normal 0 0 1
    outer loop
      vertex 0 0 12
      vertex 256 192 12
      vertex 255.235 192.152 12
    endloop
  endfacet
  facet normal 0 0 1
    outer loop
      vertex 0 0 12
      vertex 255.235 192.152 12
      vertex 254.586 192.586 12
    endloop
  endfacet
  facet normal -0 0 1
    outer loop
      vertex 52 194 12
      vertex 254.152 193.235 12
      vertex 254 194 12
    endloop
  endfacet
  facet normal 0 0 1
    outer loop
      vertex 51.8478 193.235 12
      vertex 254.152 193.235 12
      vertex 52 194 12
    endloop
  endfacet
  facet normal 0 0 1
    outer loop
      vertex 254.152 193.235 12
      vertex 51.8478 193.235 12
      vertex 254.586 192.586 12
    endloop
  endfacet
  facet normal 0 0 1
    outer loop
      vertex 51.4142 192.586 12
      vertex 254.586 192.586 12
      vertex 51.8478 193.235 12
    endloop
  endfacet
  facet normal 0 0 1
    outer loop
      vertex 0 0 12
      vertex 254.586 192.586 12
      vertex 51.4142 192.586 12
    endloop
  endfacet
  facet normal 0 0 1
    outer loop
      vertex 0 0 12
      vertex 51.4142 192.586 12
      vertex 50.7654 192.152 12
    endloop
  endfacet
  facet normal 0 0 1
    outer loop
      vertex 0 0 12
      vertex 50.7654 192.152 12
      vertex 50 192 12
    endloop
  endfacet
  facet normal 0 0 1
    outer loop
      vertex 0 0 12
      vertex 50 192 12
      vertex 49.2346 192.152 12
    endloop
  endfacet
  facet normal 0 0 1
    outer loop
      vertex 0 200 12
      vertex 48.1522 193.235 12
      vertex 48 194 12
    endloop
  endfacet
  facet normal 0 0 1
    outer loop
      vertex 0 200 12
      vertex 48.5858 192.586 12
      vertex 48.1522 193.235 12
    endloop
  endfacet
  facet normal 0 0 1
    outer loop
      vertex 0 200 12
      vertex 49.2346 192.152 12
      vertex 48.5858 192.586 12
    endloop
  endfacet
  facet normal 0 0 1
    outer loop
      vertex 0 0 12
      vertex 49.2346 192.152 12
      vertex 0 200 12
    endloop
  endfacet
  facet normal 0 0 1
    outer loop
      vertex 256 192 12
      vertex 0 0 12
      vertex 512 0 12
    endloop
  endfacet
  facet normal 0 0 -1
    outer loop
      vertex 462.765 192.152 0
      vertex 512 200 0
      vertex 512 0 0
    endloop
  endfacet
  facet normal 0 0 -1
    outer loop
      vertex 512 200 0
      vertex 463.848 193.235 0
      vertex 464 194 0
    endloop
  endfacet
  facet normal 0 0 -1
    outer loop
      vertex 512 200 0
      vertex 463.414 192.586 0
      vertex 463.848 193.235 0
    endloop
  endfacet
  facet normal 0 0 -1
    outer loop
      vertex 512 200 0
      vertex 462.765 192.152 0
      vertex 463.414 192.586 0
    endloop
  endfacet
  facet normal 0 0 -1
    outer loop
      vertex 512 0 0
      vertex 462 192 0
      vertex 462.765 192.152 0
    endloop
  endfacet
  facet normal 0 0 -1
    outer loop
      vertex 512 0 0
      vertex 461.235 192.152 0
      vertex 462 192 0
    endloop
  endfacet
  facet normal 0 0 -1
    outer loop
      vertex 512 0 0
      vertex 460.586 192.586 0
      vertex 461.235 192.152 0
    endloop
  endfacet
  facet normal 0 0 -1
    outer loop
      vertex 257.414 192.586 0
      vertex 460.586 192.586 0
      vertex 512 0 0
    endloop
  endfacet
  facet normal 0 0 -1
    outer loop
      vertex 460.152 193.235 0
      vertex 258 194 0
      vertex 460 194 0
    endloop
  endfacet
  facet normal 0 0 -1
    outer loop
      vertex 460.586 192.586 0
      vertex 257.414 192.586 0
      vertex 460.152 193.235 0
    endloop
  endfacet
  facet normal 0 0 -1
    outer loop
      vertex 460.152 193.235 0
      vertex 257.848 193.235 0
      vertex 258 194 0
    endloop
  endfacet
  facet normal -0 0 -1
    outer loop
      vertex 460.152 193.235 0
      vertex 257.414 192.586 0
      vertex 257.848 193.235 0
    endloop
  endfacet
  facet normal 0 0 -1
    outer loop
      vertex 512 0 0
      vertex 256.765 192.152 0
      vertex 257.414 192.586 0
    endloop
  endfacet
  facet normal 0 0 -1
    outer loop
      vertex 512 0 0
      vertex 256 192 0
      vertex 256.765 192.152 0
    endloop
  endfacet
  facet normal 0 0 -1
    outer loop
      vertex 0 0 0
      vertex 256 192 0
      vertex 512 0 0
    endloop
  endfacet
  facet normal -0 0 -1
    outer loop
      vertex 256 192 0
      vertex 0 0 0
      vertex 255.235 192.152 0
    endloop
  endfacet
  facet normal 0 0 -1
    outer loop
      vertex 254.152 193.235 0
      vertex 52 194 0
      vertex 254 194 0
    endloop
  endfacet
  facet normal 0 0 -1
    outer loop
      vertex 51.8478 193.235 0
      vertex 254.152 193.235 0
      vertex 254.586 192.586 0
    endloop
  endfacet
  facet normal -0 0 -1
    outer loop
      vertex 255.235 192.152 0
      vertex 0 0 0
      vertex 254.586 192.586 0
    endloop
  endfacet
  facet normal 0 0 -1
    outer loop
      vertex 254.152 193.235 0
      vertex 51.8478 193.235 0
      vertex 52 194 0
    endloop
  endfacet
  facet normal 0 0 -1
    outer loop
      vertex 254.586 192.586 0
      vertex 51.4142 192.586 0
      vertex 51.8478 193.235 0
    endloop
  endfacet
  facet normal -0 0 -1
    outer loop
      vertex 254.586 192.586 0
      vertex 0 0 0
      vertex 51.4142 192.586 0
    endloop
  endfacet
  facet normal 0 0 -1
    outer loop
      vertex 51.4142 192.586 0
      vertex 0 0 0
      vertex 50.7654 192.152 0
    endloop
  endfacet
  facet normal 0 0 -1
    outer loop
      vertex 50.7654 192.152 0
      vertex 0 0 0
      vertex 50 192 0
    endloop
  endfacet
  facet normal 0 0 -1
    outer loop
      vertex 48.5858 192.586 0
      vertex 0 200 0
      vertex 48.1522 193.235 0
    endloop
  endfacet
  facet normal 0 0 -1
    outer loop
      vertex 49.2346 192.152 0
      vertex 0 200 0
      vertex 48.5858 192.586 0
    endloop
  endfacet
  facet normal 0 0 -1
    outer loop
      vertex 0 200 0
      vertex 49.2346 192.152 0
      vertex 0 0 0
    endloop
  endfacet
  facet normal -0 0 -1
    outer loop
      vertex 50 192 0
      vertex 0 0 0
      vertex 49.2346 192.152 0
    endloop
  endfacet
  facet normal 0 0 -1
    outer loop
      vertex 463.848 194.765 0
      vertex 512 200 0
      vertex 464 194 0
    endloop
  endfacet
  facet normal 0 0 -1
    outer loop
      vertex 463.414 195.414 0
      vertex 512 200 0
      vertex 463.848 194.765 0
    endloop
  endfacet
  facet normal 0 0 -1
    outer loop
      vertex 462.765 195.848 0
      vertex 512 200 0
      vertex 463.414 195.414 0
    endloop
  endfacet
  facet normal 0 0 -1
    outer loop
      vertex 462 196 0
      vertex 512 200 0
      vertex 462.765 195.848 0
    endloop
  endfacet
  facet normal 0 0 -1
    outer loop
      vertex 258 194 0
      vertex 460.152 194.765 0
      vertex 460 194 0
    endloop
  endfacet
  facet normal 0 0 -1
    outer loop
      vertex 257.848 194.765 0
      vertex 460.152 194.765 0
      vertex 258 194 0
    endloop
  endfacet
  facet normal 0 0 -1
    outer loop
      vertex 460.152 194.765 0
      vertex 257.848 194.765 0
      vertex 460.586 195.414 0
    endloop
  endfacet
  facet normal 0 0 -1
    outer loop
      vertex 257.414 195.414 0
      vertex 460.586 195.414 0
      vertex 257.848 194.765 0
    endloop
  endfacet
  facet normal 0 0 -1
    outer loop
      vertex 460.586 195.414 0
      vertex 257.414 195.414 0
      vertex 461.235 195.848 0
    endloop
  endfacet
  facet normal 0 0 -1
    outer loop
      vertex 256.765 195.848 0
      vertex 461.235 195.848 0
      vertex 257.414 195.414 0
    endloop
  endfacet
  facet normal 0 0 -1
    outer loop
      vertex 461.235 195.848 0
      vertex 256.765 195.848 0
      vertex 462 196 0
    endloop
  endfacet
  facet normal 0 0 -1
    outer loop
      vertex 256 196 0
      vertex 462 196 0
      vertex 256.765 195.848 0
    endloop
  endfacet
  facet normal 0 0 -1
    outer loop
      vertex 462 196 0
      vertex 256 196 0
      vertex 512 200 0
    endloop
  endfacet
  facet normal 0 0 -1
    outer loop
      vertex 52 194 0
      vertex 254.152 194.765 0
      vertex 254 194 0
    endloop
  endfacet
  facet normal 0 0 -1
    outer loop
      vertex 51.8478 194.765 0
      vertex 254.152 194.765 0
      vertex 52 194 0
    endloop
  endfacet
  facet normal 0 0 -1
    outer loop
      vertex 254.152 194.765 0
      vertex 51.8478 194.765 0
      vertex 254.586 195.414 0
    endloop
  endfacet
  facet normal 0 0 -1
    outer loop
      vertex 51.4142 195.414 0
      vertex 254.586 195.414 0
      vertex 51.8478 194.765 0
    endloop
  endfacet
  facet normal 0 0 -1
    outer loop
      vertex 254.586 195.414 0
      vertex 51.4142 195.414 0
      vertex 255.235 195.848 0
    endloop
  endfacet
  facet normal 0 0 -1
    outer loop
      vertex 50.7654 195.848 0
      vertex 255.235 195.848 0
      vertex 51.4142 195.414 0
    endloop
  endfacet
  facet normal 0 0 -1
    outer loop
      vertex 255.235 195.848 0
      vertex 50.7654 195.848 0
      vertex 256 196 0
    endloop
  endfacet
  facet normal 0 0 -1
    outer loop
      vertex 50 196 0
      vertex 256 196 0
      vertex 50.7654 195.848 0
    endloop
  endfacet
  facet normal 0 0 -1
    outer loop
      vertex 0 200 0
      vertex 256 196 0
      vertex 50 196 0
    endloop
  endfacet
  facet normal 0 0 -1
    outer loop
      vertex 48.1522 193.235 0
      vertex 0 200 0
      vertex 48 194 0
    endloop
  endfacet
  facet normal 0 0 -1
    outer loop
      vertex 256 196 0
      vertex 0 200 0
      vertex 512 200 0
    endloop
  endfacet
  facet normal 0 0 -1
    outer loop
      vertex 49.2346 195.848 0
      vertex 0 200 0
      vertex 50 196 0
    endloop
  endfacet
  facet normal 0 0 -1
    outer loop
      vertex 48.5858 195.414 0
      vertex 0 200 0
      vertex 49.2346 195.848 0
    endloop
  endfacet
  facet normal 0 0 -1
    outer loop
      vertex 48.1522 194.765 0
      vertex 0 200 0
      vertex 48.5858 195.414 0
    endloop
  endfacet
  facet normal 0 0 -1
    outer loop
      vertex 48 194 0
      vertex 0 200 0
      vertex 48.1522 194.765 0
    endloop
  endfacet
  facet normal 0.556 0.831182 -0
    outer loop
      vertex 49.2346 192.152 0
      vertex 48.5858 192.586 12
      vertex 49.2346 192.152 12
    endloop
  endfacet
  facet normal 0.556 0.831182 0
    outer loop
      vertex 48.5858 192.586 12
      vertex 49.2346 192.152 0
      vertex 48.5858 192.586 0
    endloop
  endfacet
  facet normal 0.831498 -0.555528 0
    outer loop
      vertex 48.1522 194.765 12
      vertex 48.5858 195.414 0
      vertex 48.5858 195.414 12
    endloop
  endfacet
  facet normal 0.831498 -0.555528 0
    outer loop
      vertex 48.5858 195.414 0
      vertex 48.1522 194.765 12
      vertex 48.1522 194.765 0
    endloop
  endfacet
  facet normal -0.194785 0.980846 0
    outer loop
      vertex 50.7654 192.152 0
      vertex 50 192 12
      vertex 50.7654 192.152 12
    endloop
  endfacet
  facet normal -0.194785 0.980846 0
    outer loop
      vertex 50 192 12
      vertex 50.7654 192.152 0
      vertex 50 192 0
    endloop
  endfacet
  facet normal 0.980777 0.19513 0
    outer loop
      vertex 48.1522 193.235 12
      vertex 48 194 0
      vertex 48 194 12
    endloop
  endfacet
  facet normal 0.980777 0.19513 0
    outer loop
      vertex 48 194 0
      vertex 48.1522 193.235 12
      vertex 48.1522 193.235 0
    endloop
  endfacet
  facet normal 0.980777 -0.19513 0
    outer loop
      vertex 48 194 12
      vertex 48.1522 194.765 0
      vertex 48.1522 194.765 12
    endloop
  endfacet
  facet normal 0.980777 -0.19513 0
    outer loop
      vertex 48.1522 194.765 0
      vertex 48 194 12
      vertex 48 194 0
    endloop
  endfacet
  facet normal -0.831498 -0.555528 0
    outer loop
      vertex 51.8478 194.765 0
      vertex 51.4142 195.414 12
      vertex 51.4142 195.414 0
    endloop
  endfacet
  facet normal -0.831498 -0.555528 0
    outer loop
      vertex 51.4142 195.414 12
      vertex 51.8478 194.765 0
      vertex 51.8478 194.765 12
    endloop
  endfacet
  facet normal -0.980777 -0.19513 0
    outer loop
      vertex 52 194 0
      vertex 51.8478 194.765 12
      vertex 51.8478 194.765 0
    endloop
  endfacet
  facet normal -0.980777 -0.19513 0
    outer loop
      vertex 51.8478 194.765 12
      vertex 52 194 0
      vertex 52 194 12
    endloop
  endfacet
  facet normal 0.194785 -0.980846 0
    outer loop
      vertex 49.2346 195.848 0
      vertex 50 196 12
      vertex 49.2346 195.848 12
    endloop
  endfacet
  facet normal 0.194785 -0.980846 0
    outer loop
      vertex 50 196 12
      vertex 49.2346 195.848 0
      vertex 50 196 0
    endloop
  endfacet
  facet normal -0.194785 -0.980846 0
    outer loop
      vertex 50 196 0
      vertex 50.7654 195.848 12
      vertex 50 196 12
    endloop
  endfacet
  facet normal -0.194785 -0.980846 -0
    outer loop
      vertex 50.7654 195.848 12
      vertex 50 196 0
      vertex 50.7654 195.848 0
    endloop
  endfacet
  facet normal 0.556 -0.831182 0
    outer loop
      vertex 48.5858 195.414 0
      vertex 49.2346 195.848 12
      vertex 48.5858 195.414 12
    endloop
  endfacet
  facet normal 0.556 -0.831182 0
    outer loop
      vertex 49.2346 195.848 12
      vertex 48.5858 195.414 0
      vertex 49.2346 195.848 0
    endloop
  endfacet
  facet normal -0.980826 0.194883 0
    outer loop
      vertex 257.848 193.235 0
      vertex 258 194 12
      vertex 258 194 0
    endloop
  endfacet
  facet normal -0.980826 0.194883 0
    outer loop
      vertex 258 194 12
      vertex 257.848 193.235 0
      vertex 257.848 193.235 12
    endloop
  endfacet
  facet normal -0.831261 0.555882 0
    outer loop
      vertex 257.414 192.586 0
      vertex 257.848 193.235 12
      vertex 257.848 193.235 0
    endloop
  endfacet
  facet normal -0.831261 0.555882 0
    outer loop
      vertex 257.848 193.235 12
      vertex 257.414 192.586 0
      vertex 257.414 192.586 12
    endloop
  endfacet
  facet normal 0.194883 0.980826 -0
    outer loop
      vertex 256 192 0
      vertex 255.235 192.152 12
      vertex 256 192 12
    endloop
  endfacet
  facet normal 0.194883 0.980826 0
    outer loop
      vertex 255.235 192.152 12
      vertex 256 192 0
      vertex 255.235 192.152 0
    endloop
  endfacet
  facet normal -0.555882 -0.831261 0
    outer loop
      vertex 256.765 195.848 0
      vertex 257.414 195.414 12
      vertex 256.765 195.848 12
    endloop
  endfacet
  facet normal -0.555882 -0.831261 -0
    outer loop
      vertex 257.414 195.414 12
      vertex 256.765 195.848 0
      vertex 257.414 195.414 0
    endloop
  endfacet
  facet normal -0.555882 0.831261 0
    outer loop
      vertex 257.414 192.586 0
      vertex 256.765 192.152 12
      vertex 257.414 192.586 12
    endloop
  endfacet
  facet normal -0.555882 0.831261 0
    outer loop
      vertex 256.765 192.152 12
      vertex 257.414 192.586 0
      vertex 256.765 192.152 0
    endloop
  endfacet
  facet normal 0.831261 0.555882 0
    outer loop
      vertex 254.586 192.586 12
      vertex 254.152 193.235 0
      vertex 254.152 193.235 12
    endloop
  endfacet
  facet normal 0.831261 0.555882 0
    outer loop
      vertex 254.152 193.235 0
      vertex 254.586 192.586 12
      vertex 254.586 192.586 0
    endloop
  endfacet
  facet normal 0.555882 0.831261 -0
    outer loop
      vertex 255.235 192.152 0
      vertex 254.586 192.586 12
      vertex 255.235 192.152 12
    endloop
  endfacet
  facet normal 0.555882 0.831261 0
    outer loop
      vertex 254.586 192.586 12
      vertex 255.235 192.152 0
      vertex 254.586 192.586 0
    endloop
  endfacet
  facet normal 0.831261 -0.555882 0
    outer loop
      vertex 254.152 194.765 12
      vertex 254.586 195.414 0
      vertex 254.586 195.414 12
    endloop
  endfacet
  facet normal 0.831261 -0.555882 0
    outer loop
      vertex 254.586 195.414 0
      vertex 254.152 194.765 12
      vertex 254.152 194.765 0
    endloop
  endfacet
  facet normal -0.194883 0.980826 0
    outer loop
      vertex 256.765 192.152 0
      vertex 256 192 12
      vertex 256.765 192.152 12
    endloop
  endfacet
  facet normal -0.194883 0.980826 0
    outer loop
      vertex 256 192 12
      vertex 256.765 192.152 0
      vertex 256 192 0
    endloop
  endfacet
  facet normal 0.980826 0.194883 0
    outer loop
      vertex 254.152 193.235 12
      vertex 254 194 0
      vertex 254 194 12
    endloop
  endfacet
  facet normal 0.980826 0.194883 0
    outer loop
      vertex 254 194 0
      vertex 254.152 193.235 12
      vertex 254.152 193.235 0
    endloop
  endfacet
  facet normal 0.980826 -0.194883 0
    outer loop
      vertex 254 194 12
      vertex 254.152 194.765 0
      vertex 254.152 194.765 12
    endloop
  endfacet
  facet normal 0.980826 -0.194883 0
    outer loop
      vertex 254.152 194.765 0
      vertex 254 194 12
      vertex 254 194 0
    endloop
  endfacet
  facet normal -0.831261 -0.555882 0
    outer loop
      vertex 257.848 194.765 0
      vertex 257.414 195.414 12
      vertex 257.414 195.414 0
    endloop
  endfacet
  facet normal -0.831261 -0.555882 0
    outer loop
      vertex 257.414 195.414 12
      vertex 257.848 194.765 0
      vertex 257.848 194.765 12
    endloop
  endfacet
  facet normal -0.980826 -0.194883 0
    outer loop
      vertex 258 194 0
      vertex 257.848 194.765 12
      vertex 257.848 194.765 0
    endloop
  endfacet
  facet normal -0.980826 -0.194883 0
    outer loop
      vertex 257.848 194.765 12
      vertex 258 194 0
      vertex 258 194 12
    endloop
  endfacet
  facet normal 0.194883 -0.980826 0
    outer loop
      vertex 255.235 195.848 0
      vertex 256 196 12
      vertex 255.235 195.848 12
    endloop
  endfacet
  facet normal 0.194883 -0.980826 0
    outer loop
      vertex 256 196 12
      vertex 255.235 195.848 0
      vertex 256 196 0
    endloop
  endfacet
  facet normal -0.194883 -0.980826 0
    outer loop
      vertex 256 196 0
      vertex 256.765 195.848 12
      vertex 256 196 12
    endloop
  endfacet
  facet normal -0.194883 -0.980826 -0
    outer loop
      vertex 256.765 195.848 12
      vertex 256 196 0
      vertex 256.765 195.848 0
    endloop
  endfacet
  facet normal 0.555882 -0.831261 0
    outer loop
      vertex 254.586 195.414 0
      vertex 255.235 195.848 12
      vertex 254.586 195.414 12
    endloop
  endfacet
  facet normal 0.555882 -0.831261 0
    outer loop
      vertex 255.235 195.848 12
      vertex 254.586 195.414 0
      vertex 255.235 195.848 0
    endloop
  endfacet
  facet normal -0.980826 0.194883 0
    outer loop
      vertex 463.848 193.235 0
      vertex 464 194 12
      vertex 464 194 0
    endloop
  endfacet
  facet normal -0.980826 0.194883 0
    outer loop
      vertex 464 194 12
      vertex 463.848 193.235 0
      vertex 463.848 193.235 12
    endloop
  endfacet
  facet normal -0.831261 0.555882 0
    outer loop
      vertex 463.414 192.586 0
      vertex 463.848 193.235 12
      vertex 463.848 193.235 0
    endloop
  endfacet
  facet normal -0.831261 0.555882 0
    outer loop
      vertex 463.848 193.235 12
      vertex 463.414 192.586 0
      vertex 463.414 192.586 12
    endloop
  endfacet
  facet normal 0.194883 0.980826 -0
    outer loop
      vertex 462 192 0
      vertex 461.235 192.152 12
      vertex 462 192 12
    endloop
  endfacet
  facet normal 0.194883 0.980826 0
    outer loop
      vertex 461.235 192.152 12
      vertex 462 192 0
      vertex 461.235 192.152 0
    endloop
  endfacet
  facet normal -0.555882 -0.831261 0
    outer loop
      vertex 462.765 195.848 0
      vertex 463.414 195.414 12
      vertex 462.765 195.848 12
    endloop
  endfacet
  facet normal -0.555882 -0.831261 -0
    outer loop
      vertex 463.414 195.414 12
      vertex 462.765 195.848 0
      vertex 463.414 195.414 0
    endloop
  endfacet
  facet normal -0.555882 0.831261 0
    outer loop
      vertex 463.414 192.586 0
      vertex 462.765 192.152 12
      vertex 463.414 192.586 12
    endloop
  endfacet
  facet normal -0.555882 0.831261 0
    outer loop
      vertex 462.765 192.152 12
      vertex 463.414 192.586 0
      vertex 462.765 192.152 0
    endloop
  endfacet
  facet normal 0.831261 0.555882 0
    outer loop
      vertex 460.586 192.586 12
      vertex 460.152 193.235 0
      vertex 460.152 193.235 12
    endloop
  endfacet
  facet normal 0.831261 0.555882 0
    outer loop
      vertex 460.152 193.235 0
      vertex 460.586 192.586 12
      vertex 460.586 192.586 0
    endloop
  endfacet
  facet normal 0.555882 0.831261 -0
    outer loop
      vertex 461.235 192.152 0
      vertex 460.586 192.586 12
      vertex 461.235 192.152 12
    endloop
  endfacet
  facet normal 0.555882 0.831261 0
    outer loop
      vertex 460.586 192.586 12
      vertex 461.235 192.152 0
      vertex 460.586 192.586 0
    endloop
  endfacet
  facet normal 0.831261 -0.555882 0
    outer loop
      vertex 460.152 194.765 12
      vertex 460.586 195.414 0
      vertex 460.586 195.414 12
    endloop
  endfacet
  facet normal 0.831261 -0.555882 0
    outer loop
      vertex 460.586 195.414 0
      vertex 460.152 194.765 12
      vertex 460.152 194.765 0
    endloop
  endfacet
  facet normal -0.194883 0.980826 0
    outer loop
      vertex 462.765 192.152 0
      vertex 462 192 12
      vertex 462.765 192.152 12
    endloop
  endfacet
  facet normal -0.194883 0.980826 0
    outer loop
      vertex 462 192 12
      vertex 462.765 192.152 0
      vertex 462 192 0
    endloop
  endfacet
  facet normal 0.980826 0.194883 0
    outer loop
      vertex 460.152 193.235 12
      vertex 460 194 0
      vertex 460 194 12
    endloop
  endfacet
  facet normal 0.980826 0.194883 0
    outer loop
      vertex 460 194 0
      vertex 460.152 193.235 12
      vertex 460.152 193.235 0
    endloop
  endfacet
  facet normal 0.980826 -0.194883 0
    outer loop
      vertex 460 194 12
      vertex 460.152 194.765 0
      vertex 460.152 194.765 12
    endloop
  endfacet
  facet normal 0.980826 -0.194883 0
    outer loop
      vertex 460.152 194.765 0
      vertex 460 194 12
      vertex 460 194 0
    endloop
  endfacet
  facet normal -0.831261 -0.555882 0
    outer loop
      vertex 463.848 194.765 0
      vertex 463.414 195.414 12
      vertex 463.414 195.414 0
    endloop
  endfacet
  facet normal -0.831261 -0.555882 0
    outer loop
      vertex 463.414 195.414 12
      vertex 463.848 194.765 0
      vertex 463.848 194.765 12
    endloop
  endfacet
  facet normal -0.980826 -0.194883 0
    outer loop
      vertex 464 194 0
      vertex 463.848 194.765 12
      vertex 463.848 194.765 0
    endloop
  endfacet
  facet normal -0.980826 -0.194883 0
    outer loop
      vertex 463.848 194.765 12
      vertex 464 194 0
      vertex 464 194 12
    endloop
  endfacet
  facet normal 0.194883 -0.980826 0
    outer loop
      vertex 461.235 195.848 0
      vertex 462 196 12
      vertex 461.235 195.848 12
    endloop
  endfacet
  facet normal 0.194883 -0.980826 0
    outer loop
      vertex 462 196 12
      vertex 461.235 195.848 0
      vertex 462 196 0
    endloop
  endfacet
  facet normal -0.194883 -0.980826 0
    outer loop
      vertex 462 196 0
      vertex 462.765 195.848 12
      vertex 462 196 12
    endloop
  endfacet
  facet normal -0.194883 -0.980826 -0
    outer loop
      vertex 462.765 195.848 12
      vertex 462 196 0
      vertex 462.765 195.848 0
    endloop
  endfacet
  facet normal 0.555882 -0.831261 0
    outer loop
      vertex 460.586 195.414 0
      vertex 461.235 195.848 12
      vertex 460.586 195.414 12
    endloop
  endfacet
  facet normal 0.555882 -0.831261 0
    outer loop
      vertex 461.235 195.848 12
      vertex 460.586 195.414 0
      vertex 461.235 195.848 0
    endloop
  endfacet
  facet normal 0 -1 0
    outer loop
      vertex 0 0 0
      vertex 512 0 12
      vertex 0 0 12
    endloop
  endfacet
  facet normal 0 -1 -0
    outer loop
      vertex 512 0 12
      vertex 0 0 0
      vertex 512 0 0
    endloop
  endfacet
  facet normal 0 1 -0
    outer loop
      vertex 512 200 0
      vertex 0 200 12
      vertex 512 200 12
    endloop
  endfacet
  facet normal 0 1 0
    outer loop
      vertex 0 200 12
      vertex 512 200 0
      vertex 0 200 0
    endloop
  endfacet
endsolid OpenSCAD_Model
