solid OpenSCAD_Model
  facet normal 0.980797 -0.195032 0
    outer loop
      vertex 13 9.5 0
      vertex 13.1522 10.2654 -19
      vertex 13.1522 10.2654 0
    endloop
  endfacet
  facet normal 0.980797 -0.195032 0
    outer loop
      vertex 13.1522 10.2654 -19
      vertex 13 9.5 0
      vertex 13 9.5 -19
    endloop
  endfacet
  facet normal -0.980797 -0.195032 0
    outer loop
      vertex 17 9.5 -19
      vertex 16.8478 10.2654 0
      vertex 16.8478 10.2654 -19
    endloop
  endfacet
  facet normal -0.980797 -0.195032 0
    outer loop
      vertex 16.8478 10.2654 0
      vertex 17 9.5 -19
      vertex 17 9.5 0
    endloop
  endfacet
  facet normal 0.831419 -0.555646 0
    outer loop
      vertex 13.1522 10.2654 0
      vertex 13.5858 10.9142 -19
      vertex 13.5858 10.9142 0
    endloop
  endfacet
  facet normal 0.831419 -0.555646 0
    outer loop
      vertex 13.5858 10.9142 -19
      vertex 13.1522 10.2654 0
      vertex 13.1522 10.2654 -19
    endloop
  endfacet
  facet normal 0.195081 0.980787 -0
    outer loop
      vertex 15 7.5 -19
      vertex 14.2346 7.65224 0
      vertex 15 7.5 0
    endloop
  endfacet
  facet normal 0.195081 0.980787 0
    outer loop
      vertex 14.2346 7.65224 0
      vertex 15 7.5 -19
      vertex 14.2346 7.65224 -19
    endloop
  endfacet
  facet normal 0.555602 0.831448 -0
    outer loop
      vertex 14.2346 7.65224 -19
      vertex 13.5858 8.08579 0
      vertex 14.2346 7.65224 0
    endloop
  endfacet
  facet normal 0.555602 0.831448 0
    outer loop
      vertex 13.5858 8.08579 0
      vertex 14.2346 7.65224 -19
      vertex 13.5858 8.08579 -19
    endloop
  endfacet
  facet normal 0.555646 -0.831419 0
    outer loop
      vertex 13.5858 10.9142 -19
      vertex 14.2346 11.3478 0
      vertex 13.5858 10.9142 0
    endloop
  endfacet
  facet normal 0.555646 -0.831419 0
    outer loop
      vertex 14.2346 11.3478 0
      vertex 13.5858 10.9142 -19
      vertex 14.2346 11.3478 -19
    endloop
  endfacet
  facet normal -0.555646 -0.831419 0
    outer loop
      vertex 15.7654 11.3478 -19
      vertex 16.4142 10.9142 0
      vertex 15.7654 11.3478 0
    endloop
  endfacet
  facet normal -0.555646 -0.831419 -0
    outer loop
      vertex 16.4142 10.9142 0
      vertex 15.7654 11.3478 -19
      vertex 16.4142 10.9142 -19
    endloop
  endfacet
  facet normal -0.831419 -0.555646 0
    outer loop
      vertex 16.8478 10.2654 -19
      vertex 16.4142 10.9142 0
      vertex 16.4142 10.9142 -19
    endloop
  endfacet
  facet normal -0.831419 -0.555646 0
    outer loop
      vertex 16.4142 10.9142 0
      vertex 16.8478 10.2654 -19
      vertex 16.8478 10.2654 0
    endloop
  endfacet
  facet normal -0.195032 -0.980797 0
    outer loop
      vertex 15 11.5 -19
      vertex 15.7654 11.3478 0
      vertex 15 11.5 0
    endloop
  endfacet
  facet normal -0.195032 -0.980797 -0
    outer loop
      vertex 15.7654 11.3478 0
      vertex 15 11.5 -19
      vertex 15.7654 11.3478 -19
    endloop
  endfacet
  facet normal 0.980795 0.195039 0
    outer loop
      vertex 13.1522 8.73463 0
      vertex 13 9.5 -19
      vertex 13 9.5 0
    endloop
  endfacet
  facet normal 0.980795 0.195039 0
    outer loop
      vertex 13 9.5 -19
      vertex 13.1522 8.73463 0
      vertex 13.1522 8.73463 -19
    endloop
  endfacet
  facet normal 0.195032 -0.980797 0
    outer loop
      vertex 14.2346 11.3478 -19
      vertex 15 11.5 0
      vertex 14.2346 11.3478 0
    endloop
  endfacet
  facet normal 0.195032 -0.980797 0
    outer loop
      vertex 15 11.5 0
      vertex 14.2346 11.3478 -19
      vertex 15 11.5 -19
    endloop
  endfacet
  facet normal 0.831435 0.555622 0
    outer loop
      vertex 13.5858 8.08579 0
      vertex 13.1522 8.73463 -19
      vertex 13.1522 8.73463 0
    endloop
  endfacet
  facet normal 0.831435 0.555622 0
    outer loop
      vertex 13.1522 8.73463 -19
      vertex 13.5858 8.08579 0
      vertex 13.5858 8.08579 -19
    endloop
  endfacet
  facet normal 0 0 -1
    outer loop
      vertex 30 0 -19
      vertex 16.4142 10.9142 -19
      vertex 30 230 -19
    endloop
  endfacet
  facet normal 0 0 -1
    outer loop
      vertex 30 230 -19
      vertex 16.8478 219.735 -19
      vertex 17 220.5 -19
    endloop
  endfacet
  facet normal 0 0 -1
    outer loop
      vertex 16.4142 219.086 -19
      vertex 30 230 -19
      vertex 16.4142 10.9142 -19
    endloop
  endfacet
  facet normal 0 0 -1
    outer loop
      vertex 30 230 -19
      vertex 16.4142 219.086 -19
      vertex 16.8478 219.735 -19
    endloop
  endfacet
  facet normal 0 0 -1
    outer loop
      vertex 15.7654 11.3478 -19
      vertex 16.4142 219.086 -19
      vertex 16.4142 10.9142 -19
    endloop
  endfacet
  facet normal 0 0 -1
    outer loop
      vertex 15.7654 11.3478 -19
      vertex 15.7654 218.652 -19
      vertex 16.4142 219.086 -19
    endloop
  endfacet
  facet normal 0 0 -1
    outer loop
      vertex 15 11.5 -19
      vertex 15.7654 218.652 -19
      vertex 15.7654 11.3478 -19
    endloop
  endfacet
  facet normal 0 0 -1
    outer loop
      vertex 15 11.5 -19
      vertex 15 218.5 -19
      vertex 15.7654 218.652 -19
    endloop
  endfacet
  facet normal 0 0 -1
    outer loop
      vertex 14.2346 11.3478 -19
      vertex 15 218.5 -19
      vertex 15 11.5 -19
    endloop
  endfacet
  facet normal 0 0 -1
    outer loop
      vertex 14.2346 11.3478 -19
      vertex 14.2346 218.652 -19
      vertex 15 218.5 -19
    endloop
  endfacet
  facet normal 0 0 -1
    outer loop
      vertex 13.5858 10.9142 -19
      vertex 14.2346 218.652 -19
      vertex 14.2346 11.3478 -19
    endloop
  endfacet
  facet normal 0 0 -1
    outer loop
      vertex 13.5858 10.9142 -19
      vertex 13.5858 219.086 -19
      vertex 14.2346 218.652 -19
    endloop
  endfacet
  facet normal 0 0 -1
    outer loop
      vertex 0 0 -19
      vertex 13.5858 10.9142 -19
      vertex 13.1522 10.2654 -19
    endloop
  endfacet
  facet normal -0 0 -1
    outer loop
      vertex 13.5858 10.9142 -19
      vertex 0 0 -19
      vertex 13.5858 219.086 -19
    endloop
  endfacet
  facet normal 0 0 -1
    outer loop
      vertex 0 0 -19
      vertex 13.1522 10.2654 -19
      vertex 13 9.5 -19
    endloop
  endfacet
  facet normal 0 0 -1
    outer loop
      vertex 0 230 -19
      vertex 13.5858 219.086 -19
      vertex 0 0 -19
    endloop
  endfacet
  facet normal 0 0 -1
    outer loop
      vertex 16.8478 10.2654 -19
      vertex 30 0 -19
      vertex 17 9.5 -19
    endloop
  endfacet
  facet normal 0 0 -1
    outer loop
      vertex 30 0 -19
      vertex 16.8478 8.73463 -19
      vertex 17 9.5 -19
    endloop
  endfacet
  facet normal 0 0 -1
    outer loop
      vertex 30 0 -19
      vertex 16.4142 8.08579 -19
      vertex 16.8478 8.73463 -19
    endloop
  endfacet
  facet normal 0 0 -1
    outer loop
      vertex 30 0 -19
      vertex 15.7654 7.65224 -19
      vertex 16.4142 8.08579 -19
    endloop
  endfacet
  facet normal 0 0 -1
    outer loop
      vertex 30 0 -19
      vertex 15 7.5 -19
      vertex 15.7654 7.65224 -19
    endloop
  endfacet
  facet normal 0 0 -1
    outer loop
      vertex 0 0 -19
      vertex 15 7.5 -19
      vertex 30 0 -19
    endloop
  endfacet
  facet normal 0 0 -1
    outer loop
      vertex 13.5858 219.086 -19
      vertex 0 230 -19
      vertex 13.1522 219.735 -19
    endloop
  endfacet
  facet normal -0 0 -1
    outer loop
      vertex 13.1522 8.73463 -19
      vertex 0 0 -19
      vertex 13 9.5 -19
    endloop
  endfacet
  facet normal -0 0 -1
    outer loop
      vertex 13.5858 8.08579 -19
      vertex 0 0 -19
      vertex 13.1522 8.73463 -19
    endloop
  endfacet
  facet normal -0 0 -1
    outer loop
      vertex 14.2346 7.65224 -19
      vertex 0 0 -19
      vertex 13.5858 8.08579 -19
    endloop
  endfacet
  facet normal -0 0 -1
    outer loop
      vertex 15 7.5 -19
      vertex 0 0 -19
      vertex 14.2346 7.65224 -19
    endloop
  endfacet
  facet normal 0 0 -1
    outer loop
      vertex 16.4142 10.9142 -19
      vertex 30 0 -19
      vertex 16.8478 10.2654 -19
    endloop
  endfacet
  facet normal 0 0 -1
    outer loop
      vertex 16.8478 221.265 -19
      vertex 30 230 -19
      vertex 17 220.5 -19
    endloop
  endfacet
  facet normal 0 0 -1
    outer loop
      vertex 16.4142 221.914 -19
      vertex 30 230 -19
      vertex 16.8478 221.265 -19
    endloop
  endfacet
  facet normal 0 0 -1
    outer loop
      vertex 15.7654 222.348 -19
      vertex 30 230 -19
      vertex 16.4142 221.914 -19
    endloop
  endfacet
  facet normal 0 0 -1
    outer loop
      vertex 15 222.5 -19
      vertex 30 230 -19
      vertex 15.7654 222.348 -19
    endloop
  endfacet
  facet normal 0 0 -1
    outer loop
      vertex 0 230 -19
      vertex 15 222.5 -19
      vertex 14.2346 222.348 -19
    endloop
  endfacet
  facet normal 0 0 -1
    outer loop
      vertex 15 222.5 -19
      vertex 0 230 -19
      vertex 30 230 -19
    endloop
  endfacet
  facet normal 0 0 -1
    outer loop
      vertex 13.5858 221.914 -19
      vertex 0 230 -19
      vertex 14.2346 222.348 -19
    endloop
  endfacet
  facet normal 0 0 -1
    outer loop
      vertex 13.1522 221.265 -19
      vertex 0 230 -19
      vertex 13.5858 221.914 -19
    endloop
  endfacet
  facet normal 0 0 -1
    outer loop
      vertex 13 220.5 -19
      vertex 0 230 -19
      vertex 13.1522 221.265 -19
    endloop
  endfacet
  facet normal 0 0 -1
    outer loop
      vertex 13.1522 219.735 -19
      vertex 0 230 -19
      vertex 13 220.5 -19
    endloop
  endfacet
  facet normal 0 0 1
    outer loop
      vertex 30 230 0
      vertex 16.4142 219.086 0
      vertex 30 0 0
    endloop
  endfacet
  facet normal 0 0 1
    outer loop
      vertex 30 0 0
      vertex 16.8478 10.2654 0
      vertex 17 9.5 0
    endloop
  endfacet
  facet normal -0 0 1
    outer loop
      vertex 16.4142 10.9142 0
      vertex 30 0 0
      vertex 16.4142 219.086 0
    endloop
  endfacet
  facet normal 0 0 1
    outer loop
      vertex 30 0 0
      vertex 16.4142 10.9142 0
      vertex 16.8478 10.2654 0
    endloop
  endfacet
  facet normal -0 0 1
    outer loop
      vertex 15.7654 218.652 0
      vertex 16.4142 10.9142 0
      vertex 16.4142 219.086 0
    endloop
  endfacet
  facet normal 0 0 1
    outer loop
      vertex 15.7654 218.652 0
      vertex 15.7654 11.3478 0
      vertex 16.4142 10.9142 0
    endloop
  endfacet
  facet normal -0 0 1
    outer loop
      vertex 15 218.5 0
      vertex 15.7654 11.3478 0
      vertex 15.7654 218.652 0
    endloop
  endfacet
  facet normal 0 0 1
    outer loop
      vertex 15 218.5 0
      vertex 15 11.5 0
      vertex 15.7654 11.3478 0
    endloop
  endfacet
  facet normal 0 0 1
    outer loop
      vertex 14.2346 218.652 0
      vertex 15 11.5 0
      vertex 15 218.5 0
    endloop
  endfacet
  facet normal 0 0 1
    outer loop
      vertex 14.2346 218.652 0
      vertex 14.2346 11.3478 0
      vertex 15 11.5 0
    endloop
  endfacet
  facet normal 0 0 1
    outer loop
      vertex 13.5858 219.086 0
      vertex 14.2346 11.3478 0
      vertex 14.2346 218.652 0
    endloop
  endfacet
  facet normal 0 0 1
    outer loop
      vertex 13.5858 219.086 0
      vertex 13.5858 10.9142 0
      vertex 14.2346 11.3478 0
    endloop
  endfacet
  facet normal 0 0 1
    outer loop
      vertex 0 230 0
      vertex 13.5858 219.086 0
      vertex 13.1522 219.735 0
    endloop
  endfacet
  facet normal 0 0 1
    outer loop
      vertex 13.5858 219.086 0
      vertex 0 230 0
      vertex 13.5858 10.9142 0
    endloop
  endfacet
  facet normal 0 0 1
    outer loop
      vertex 0 230 0
      vertex 13.1522 219.735 0
      vertex 13 220.5 0
    endloop
  endfacet
  facet normal 0 0 1
    outer loop
      vertex 0 0 0
      vertex 13.5858 10.9142 0
      vertex 0 230 0
    endloop
  endfacet
  facet normal 0 0 1
    outer loop
      vertex 16.8478 219.735 0
      vertex 30 230 0
      vertex 17 220.5 0
    endloop
  endfacet
  facet normal 0 0 1
    outer loop
      vertex 30 230 0
      vertex 16.8478 221.265 0
      vertex 17 220.5 0
    endloop
  endfacet
  facet normal 0 0 1
    outer loop
      vertex 30 230 0
      vertex 16.4142 221.914 0
      vertex 16.8478 221.265 0
    endloop
  endfacet
  facet normal 0 0 1
    outer loop
      vertex 30 230 0
      vertex 15.7654 222.348 0
      vertex 16.4142 221.914 0
    endloop
  endfacet
  facet normal 0 0 1
    outer loop
      vertex 30 230 0
      vertex 15 222.5 0
      vertex 15.7654 222.348 0
    endloop
  endfacet
  facet normal -0 0 1
    outer loop
      vertex 0 230 0
      vertex 15 222.5 0
      vertex 30 230 0
    endloop
  endfacet
  facet normal 0 0 1
    outer loop
      vertex 13.5858 10.9142 0
      vertex 0 0 0
      vertex 13.1522 10.2654 0
    endloop
  endfacet
  facet normal 0 0 1
    outer loop
      vertex 13.1522 221.265 0
      vertex 0 230 0
      vertex 13 220.5 0
    endloop
  endfacet
  facet normal 0 0 1
    outer loop
      vertex 13.5858 221.914 0
      vertex 0 230 0
      vertex 13.1522 221.265 0
    endloop
  endfacet
  facet normal 0 0 1
    outer loop
      vertex 14.2346 222.348 0
      vertex 0 230 0
      vertex 13.5858 221.914 0
    endloop
  endfacet
  facet normal 0 0 1
    outer loop
      vertex 15 222.5 0
      vertex 0 230 0
      vertex 14.2346 222.348 0
    endloop
  endfacet
  facet normal 0 0 1
    outer loop
      vertex 16.4142 219.086 0
      vertex 30 230 0
      vertex 16.8478 219.735 0
    endloop
  endfacet
  facet normal -0 0 1
    outer loop
      vertex 16.8478 8.73463 0
      vertex 30 0 0
      vertex 17 9.5 0
    endloop
  endfacet
  facet normal -0 0 1
    outer loop
      vertex 16.4142 8.08579 0
      vertex 30 0 0
      vertex 16.8478 8.73463 0
    endloop
  endfacet
  facet normal -0 0 1
    outer loop
      vertex 15.7654 7.65224 0
      vertex 30 0 0
      vertex 16.4142 8.08579 0
    endloop
  endfacet
  facet normal -0 0 1
    outer loop
      vertex 15 7.5 0
      vertex 30 0 0
      vertex 15.7654 7.65224 0
    endloop
  endfacet
  facet normal 0 0 1
    outer loop
      vertex 0 0 0
      vertex 15 7.5 0
      vertex 14.2346 7.65224 0
    endloop
  endfacet
  facet normal 0 0 1
    outer loop
      vertex 15 7.5 0
      vertex 0 0 0
      vertex 30 0 0
    endloop
  endfacet
  facet normal 0 0 1
    outer loop
      vertex 13.5858 8.08579 0
      vertex 0 0 0
      vertex 14.2346 7.65224 0
    endloop
  endfacet
  facet normal 0 0 1
    outer loop
      vertex 13.1522 8.73463 0
      vertex 0 0 0
      vertex 13.5858 8.08579 0
    endloop
  endfacet
  facet normal 0 0 1
    outer loop
      vertex 13 9.5 0
      vertex 0 0 0
      vertex 13.1522 8.73463 0
    endloop
  endfacet
  facet normal 0 0 1
    outer loop
      vertex 13.1522 10.2654 0
      vertex 0 0 0
      vertex 13 9.5 0
    endloop
  endfacet
  facet normal -0.831435 0.555622 0
    outer loop
      vertex 16.4142 8.08579 -19
      vertex 16.8478 8.73463 0
      vertex 16.8478 8.73463 -19
    endloop
  endfacet
  facet normal -0.831435 0.555622 0
    outer loop
      vertex 16.8478 8.73463 0
      vertex 16.4142 8.08579 -19
      vertex 16.4142 8.08579 0
    endloop
  endfacet
  facet normal -0.980795 0.195039 0
    outer loop
      vertex 16.8478 8.73463 -19
      vertex 17 9.5 0
      vertex 17 9.5 -19
    endloop
  endfacet
  facet normal -0.980795 0.195039 0
    outer loop
      vertex 17 9.5 0
      vertex 16.8478 8.73463 -19
      vertex 16.8478 8.73463 0
    endloop
  endfacet
  facet normal -0.195081 0.980787 0
    outer loop
      vertex 15.7654 7.65224 -19
      vertex 15 7.5 0
      vertex 15.7654 7.65224 0
    endloop
  endfacet
  facet normal -0.195081 0.980787 0
    outer loop
      vertex 15 7.5 0
      vertex 15.7654 7.65224 -19
      vertex 15 7.5 -19
    endloop
  endfacet
  facet normal -0.555602 0.831448 0
    outer loop
      vertex 16.4142 8.08579 -19
      vertex 15.7654 7.65224 0
      vertex 16.4142 8.08579 0
    endloop
  endfacet
  facet normal -0.555602 0.831448 0
    outer loop
      vertex 15.7654 7.65224 0
      vertex 16.4142 8.08579 -19
      vertex 15.7654 7.65224 -19
    endloop
  endfacet
  facet normal 0.980777 -0.19513 0
    outer loop
      vertex 13 220.5 0
      vertex 13.1522 221.265 -19
      vertex 13.1522 221.265 0
    endloop
  endfacet
  facet normal 0.980777 -0.19513 0
    outer loop
      vertex 13.1522 221.265 -19
      vertex 13 220.5 0
      vertex 13 220.5 -19
    endloop
  endfacet
  facet normal -0.980777 -0.19513 0
    outer loop
      vertex 17 220.5 -19
      vertex 16.8478 221.265 0
      vertex 16.8478 221.265 -19
    endloop
  endfacet
  facet normal -0.980777 -0.19513 0
    outer loop
      vertex 16.8478 221.265 0
      vertex 17 220.5 -19
      vertex 17 220.5 0
    endloop
  endfacet
  facet normal 0.831498 -0.555528 0
    outer loop
      vertex 13.1522 221.265 0
      vertex 13.5858 221.914 -19
      vertex 13.5858 221.914 0
    endloop
  endfacet
  facet normal 0.831498 -0.555528 0
    outer loop
      vertex 13.5858 221.914 -19
      vertex 13.1522 221.265 0
      vertex 13.1522 221.265 -19
    endloop
  endfacet
  facet normal 0.194785 0.980846 -0
    outer loop
      vertex 15 218.5 -19
      vertex 14.2346 218.652 0
      vertex 15 218.5 0
    endloop
  endfacet
  facet normal 0.194785 0.980846 0
    outer loop
      vertex 14.2346 218.652 0
      vertex 15 218.5 -19
      vertex 14.2346 218.652 -19
    endloop
  endfacet
  facet normal 0.556 0.831182 -0
    outer loop
      vertex 14.2346 218.652 -19
      vertex 13.5858 219.086 0
      vertex 14.2346 218.652 0
    endloop
  endfacet
  facet normal 0.556 0.831182 0
    outer loop
      vertex 13.5858 219.086 0
      vertex 14.2346 218.652 -19
      vertex 13.5858 219.086 -19
    endloop
  endfacet
  facet normal 0.556 -0.831182 0
    outer loop
      vertex 13.5858 221.914 -19
      vertex 14.2346 222.348 0
      vertex 13.5858 221.914 0
    endloop
  endfacet
  facet normal 0.556 -0.831182 0
    outer loop
      vertex 14.2346 222.348 0
      vertex 13.5858 221.914 -19
      vertex 14.2346 222.348 -19
    endloop
  endfacet
  facet normal -0.556 -0.831182 0
    outer loop
      vertex 15.7654 222.348 -19
      vertex 16.4142 221.914 0
      vertex 15.7654 222.348 0
    endloop
  endfacet
  facet normal -0.556 -0.831182 -0
    outer loop
      vertex 16.4142 221.914 0
      vertex 15.7654 222.348 -19
      vertex 16.4142 221.914 -19
    endloop
  endfacet
  facet normal -0.831498 -0.555528 0
    outer loop
      vertex 16.8478 221.265 -19
      vertex 16.4142 221.914 0
      vertex 16.4142 221.914 -19
    endloop
  endfacet
  facet normal -0.831498 -0.555528 0
    outer loop
      vertex 16.4142 221.914 0
      vertex 16.8478 221.265 -19
      vertex 16.8478 221.265 0
    endloop
  endfacet
  facet normal -0.194785 -0.980846 0
    outer loop
      vertex 15 222.5 -19
      vertex 15.7654 222.348 0
      vertex 15 222.5 0
    endloop
  endfacet
  facet normal -0.194785 -0.980846 -0
    outer loop
      vertex 15.7654 222.348 0
      vertex 15 222.5 -19
      vertex 15.7654 222.348 -19
    endloop
  endfacet
  facet normal 0.194785 -0.980846 0
    outer loop
      vertex 14.2346 222.348 -19
      vertex 15 222.5 0
      vertex 14.2346 222.348 0
    endloop
  endfacet
  facet normal 0.194785 -0.980846 0
    outer loop
      vertex 15 222.5 0
      vertex 14.2346 222.348 -19
      vertex 15 222.5 -19
    endloop
  endfacet
  facet normal 0.831498 0.555528 0
    outer loop
      vertex 13.5858 219.086 0
      vertex 13.1522 219.735 -19
      vertex 13.1522 219.735 0
    endloop
  endfacet
  facet normal 0.831498 0.555528 0
    outer loop
      vertex 13.1522 219.735 -19
      vertex 13.5858 219.086 0
      vertex 13.5858 219.086 -19
    endloop
  endfacet
  facet normal 0.980777 0.19513 0
    outer loop
      vertex 13.1522 219.735 0
      vertex 13 220.5 -19
      vertex 13 220.5 0
    endloop
  endfacet
  facet normal 0.980777 0.19513 0
    outer loop
      vertex 13 220.5 -19
      vertex 13.1522 219.735 0
      vertex 13.1522 219.735 -19
    endloop
  endfacet
  facet normal -0.831498 0.555528 0
    outer loop
      vertex 16.4142 219.086 -19
      vertex 16.8478 219.735 0
      vertex 16.8478 219.735 -19
    endloop
  endfacet
  facet normal -0.831498 0.555528 0
    outer loop
      vertex 16.8478 219.735 0
      vertex 16.4142 219.086 -19
      vertex 16.4142 219.086 0
    endloop
  endfacet
  facet normal -0.980777 0.19513 0
    outer loop
      vertex 16.8478 219.735 -19
      vertex 17 220.5 0
      vertex 17 220.5 -19
    endloop
  endfacet
  facet normal -0.980777 0.19513 0
    outer loop
      vertex 17 220.5 0
      vertex 16.8478 219.735 -19
      vertex 16.8478 219.735 0
    endloop
  endfacet
  facet normal -0.194785 0.980846 0
    outer loop
      vertex 15.7654 218.652 -19
      vertex 15 218.5 0
      vertex 15.7654 218.652 0
    endloop
  endfacet
  facet normal -0.194785 0.980846 0
    outer loop
      vertex 15 218.5 0
      vertex 15.7654 218.652 -19
      vertex 15 218.5 -19
    endloop
  endfacet
  facet normal -0.556 0.831182 0
    outer loop
      vertex 16.4142 219.086 -19
      vertex 15.7654 218.652 0
      vertex 16.4142 219.086 0
    endloop
  endfacet
  facet normal -0.556 0.831182 0
    outer loop
      vertex 15.7654 218.652 0
      vertex 16.4142 219.086 -19
      vertex 15.7654 218.652 -19
    endloop
  endfacet
  facet normal 1 -0 0
    outer loop
      vertex 30 0 0
      vertex 30 230 -19
      vertex 30 230 0
    endloop
  endfacet
  facet normal 1 0 0
    outer loop
      vertex 30 230 -19
      vertex 30 0 0
      vertex 30 0 -19
    endloop
  endfacet
  facet normal 0 1 -0
    outer loop
      vertex 30 230 -19
      vertex 0 230 0
      vertex 30 230 0
    endloop
  endfacet
  facet normal 0 1 0
    outer loop
      vertex 0 230 0
      vertex 30 230 -19
      vertex 0 230 -19
    endloop
  endfacet
  facet normal -1 0 0
    outer loop
      vertex 0 0 -19
      vertex 0 230 0
      vertex 0 230 -19
    endloop
  endfacet
  facet normal -1 -0 0
    outer loop
      vertex 0 230 0
      vertex 0 0 -19
      vertex 0 0 0
    endloop
  endfacet
  facet normal 0 -1 0
    outer loop
      vertex 0 0 -19
      vertex 30 0 0
      vertex 0 0 0
    endloop
  endfacet
  facet normal 0 -1 -0
    outer loop
      vertex 30 0 0
      vertex 0 0 -19
      vertex 30 0 -19
    endloop
  endfacet
endsolid OpenSCAD_Model
