  0
SECTION
  2
HEADER
  9
$ACADVER
  1
AC1015
  9
$ACADMAINTVER
 70
6
  9
$DWGCODEPAGE
  3
ANSI_1252
  9
$INSBASE
 10
0.0
 20
0.0
 30
0.0
  9
$EXTMIN
 10
1e+20
 20
1e+20
 30
1e+20
  9
$EXTMAX
 10
-1e+20
 20
-1e+20
 30
-1e+20
  9
$LIMMIN
 10
0.0
 20
0.0
  9
$LIMMAX
 10
420.0
 20
297.0
  9
$ORTHOMODE
 70
0
  9
$REGENMODE
 70
1
  9
$FILLMODE
 70
1
  9
$QTEXTMODE
 70
0
  9
$MIRRTEXT
 70
1
  9
$LTSCALE
 40
1.0
  9
$ATTMODE
 70
1
  9
$TEXTSIZE
 40
2.5
  9
$TRACEWID
 40
1.0
  9
$TEXTSTYLE
  7
Standard
  9
$CLAYER
  8
0
  9
$CELTYPE
  6
ByLayer
  9
$CECOLOR
 62
256
  9
$CELTSCALE
 40
1.0
  9
$DISPSILH
 70
0
  9
$DIMSCALE
 40
1.0
  9
$DIMASZ
 40
2.5
  9
$DIMEXO
 40
0.625
  9
$DIMDLI
 40
3.75
  9
$DIMRND
 40
0.0
  9
$DIMDLE
 40
0.0
  9
$DIMEXE
 40
1.25
  9
$DIMTP
 40
0.0
  9
$DIMTM
 40
0.0
  9
$DIMTXT
 40
2.5
  9
$DIMCEN
 40
2.5
  9
$DIMTSZ
 40
0.0
  9
$DIMTOL
 70
0
  9
$DIMLIM
 70
0
  9
$DIMTIH
 70
0
  9
$DIMTOH
 70
0
  9
$DIMSE1
 70
0
  9
$DIMSE2
 70
0
  9
$DIMTAD
 70
1
  9
$DIMZIN
 70
8
  9
$DIMBLK
  1

  9
$DIMASO
 70
1
  9
$DIMSHO
 70
1
  9
$DIMPOST
  1

  9
$DIMAPOST
  1

  9
$DIMALT
 70
0
  9
$DIMALTD
 70
3
  9
$DIMALTF
 40
0.03937007874
  9
$DIMLFAC
 40
1.0
  9
$DIMTOFL
 70
1
  9
$DIMTVP
 40
0.0
  9
$DIMTIX
 70
0
  9
$DIMSOXD
 70
0
  9
$DIMSAH
 70
0
  9
$DIMBLK1
  1

  9
$DIMBLK2
  1

  9
$DIMSTYLE
  2
ISO-25
  9
$DIMCLRD
 70
0
  9
$DIMCLRE
 70
0
  9
$DIMCLRT
 70
0
  9
$DIMTFAC
 40
1.0
  9
$DIMGAP
 40
0.625
  9
$DIMJUST
 70
0
  9
$DIMSD1
 70
0
  9
$DIMSD2
 70
0
  9
$DIMTOLJ
 70
0
  9
$DIMTZIN
 70
8
  9
$DIMALTZ
 70
0
  9
$DIMALTTZ
 70
0
  9
$DIMUPT
 70
0
  9
$DIMDEC
 70
2
  9
$DIMTDEC
 70
2
  9
$DIMALTU
 70
2
  9
$DIMALTTD
 70
3
  9
$DIMTXSTY
  7
Standard
  9
$DIMAUNIT
 70
0
  9
$DIMADEC
 70
0
  9
$DIMALTRND
 40
0.0
  9
$DIMAZIN
 70
0
  9
$DIMDSEP
 70
44
  9
$DIMATFIT
 70
3
  9
$DIMFRAC
 70
0
  9
$DIMLDRBLK
  1

  9
$DIMLUNIT
 70
2
  9
$DIMLWD
 70
-2
  9
$DIMLWE
 70
-2
  9
$DIMTMOVE
 70
0
  9
$LUNITS
 70
2
  9
$LUPREC
 70
4
  9
$SKETCHINC
 40
1.0
  9
$FILLETRAD
 40
10.0
  9
$AUNITS
 70
0
  9
$AUPREC
 70
2
  9
$MENU
  1
.
  9
$ELEVATION
 40
0.0
  9
$PELEVATION
 40
0.0
  9
$THICKNESS
 40
0.0
  9
$LIMCHECK
 70
0
  9
$CHAMFERA
 40
0.0
  9
$CHAMFERB
 40
0.0
  9
$CHAMFERC
 40
0.0
  9
$CHAMFERD
 40
0.0
  9
$SKPOLY
 70
0
  9
$TDCREATE
 40
2460938.315925926
  9
$TDUCREATE
 40
2458532.153996898
  9
$TDUPDATE
 40
2460938.315925926
  9
$TDUUPDATE
 40
2458532.1544311
  9
$TDINDWG
 40
0.0
  9
$TDUSRTIMER
 40
0.0
  9
$USRTIMER
 70
1
  9
$ANGBASE
 50
0.0
  9
$ANGDIR
 70
0
  9
$PDMODE
 70
0
  9
$PDSIZE
 40
0.0
  9
$PLINEWID
 40
0.0
  9
$SPLFRAME
 70
0
  9
$SPLINETYPE
 70
6
  9
$SPLINESEGS
 70
8
  9
$HANDSEED
  5
431
  9
$SURFTAB1
 70
6
  9
$SURFTAB2
 70
6
  9
$SURFTYPE
 70
6
  9
$SURFU
 70
6
  9
$SURFV
 70
6
  9
$UCSBASE
  2

  9
$UCSNAME
  2

  9
$UCSORG
 10
0.0
 20
0.0
 30
0.0
  9
$UCSXDIR
 10
1.0
 20
0.0
 30
0.0
  9
$UCSYDIR
 10
0.0
 20
1.0
 30
0.0
  9
$UCSORTHOREF
  2

  9
$UCSORTHOVIEW
 70
0
  9
$UCSORGTOP
 10
0.0
 20
0.0
 30
0.0
  9
$UCSORGBOTTOM
 10
0.0
 20
0.0
 30
0.0
  9
$UCSORGLEFT
 10
0.0
 20
0.0
 30
0.0
  9
$UCSORGRIGHT
 10
0.0
 20
0.0
 30
0.0
  9
$UCSORGFRONT
 10
0.0
 20
0.0
 30
0.0
  9
$UCSORGBACK
 10
0.0
 20
0.0
 30
0.0
  9
$PUCSBASE
  2

  9
$PUCSNAME
  2

  9
$PUCSORG
 10
0.0
 20
0.0
 30
0.0
  9
$PUCSXDIR
 10
1.0
 20
0.0
 30
0.0
  9
$PUCSYDIR
 10
0.0
 20
1.0
 30
0.0
  9
$PUCSORTHOREF
  2

  9
$PUCSORTHOVIEW
 70
0
  9
$PUCSORGTOP
 10
0.0
 20
0.0
 30
0.0
  9
$PUCSORGBOTTOM
 10
0.0
 20
0.0
 30
0.0
  9
$PUCSORGLEFT
 10
0.0
 20
0.0
 30
0.0
  9
$PUCSORGRIGHT
 10
0.0
 20
0.0
 30
0.0
  9
$PUCSORGFRONT
 10
0.0
 20
0.0
 30
0.0
  9
$PUCSORGBACK
 10
0.0
 20
0.0
 30
0.0
  9
$USERI1
 70
0
  9
$USERI2
 70
0
  9
$USERI3
 70
0
  9
$USERI4
 70
0
  9
$USERI5
 70
0
  9
$USERR1
 40
0.0
  9
$USERR2
 40
0.0
  9
$USERR3
 40
0.0
  9
$USERR4
 40
0.0
  9
$USERR5
 40
0.0
  9
$WORLDVIEW
 70
1
  9
$SHADEDGE
 70
3
  9
$SHADEDIF
 70
70
  9
$TILEMODE
 70
1
  9
$MAXACTVP
 70
64
  9
$PINSBASE
 10
0.0
 20
0.0
 30
0.0
  9
$PLIMCHECK
 70
0
  9
$PEXTMIN
 10
1e+20
 20
1e+20
 30
1e+20
  9
$PEXTMAX
 10
-1e+20
 20
-1e+20
 30
-1e+20
  9
$PLIMMIN
 10
0.0
 20
0.0
  9
$PLIMMAX
 10
420.0
 20
297.0
  9
$UNITMODE
 70
0
  9
$VISRETAIN
 70
1
  9
$PLINEGEN
 70
0
  9
$PSLTSCALE
 70
1
  9
$TREEDEPTH
 70
3020
  9
$CMLSTYLE
  2
Standard
  9
$CMLJUST
 70
0
  9
$CMLSCALE
 40
20.0
  9
$PROXYGRAPHICS
 70
1
  9
$MEASUREMENT
 70
1
  9
$CELWEIGHT
370
-1
  9
$ENDCAPS
280
0
  9
$JOINSTYLE
280
0
  9
$LWDISPLAY
290
0
  9
$INSUNITS
 70
4
  9
$HYPERLINKBASE
  1

  9
$STYLESHEET
  1

  9
$XEDIT
290
1
  9
$CEPSNTYPE
380
0
  9
$PSTYLEMODE
290
1
  9
$FINGERPRINTGUID
  2
{99820B1C-FCBB-45B0-B270-9310351F8944}
  9
$VERSIONGUID
  2
{936F2020-8A28-4F1D-82A2-DCAC28EEEB86}
  9
$EXTNAMES
290
1
  9
$PSVPSCALE
 40
0.0
  9
$OLESTARTUP
290
0
  0
ENDSEC
  0
SECTION
  2
CLASSES
  0
CLASS
  1
ACDBDICTIONARYWDFLT
  2
AcDbDictionaryWithDefault
  3
ObjectDBX Classes
 90
0
280
0
281
0
  0
CLASS
  1
SUN
  2
AcDbSun
  3
SCENEOE
 90
1153
280
0
281
0
  0
CLASS
  1
VISUALSTYLE
  2
AcDbVisualStyle
  3
ObjectDBX Classes
 90
4095
280
0
281
0
  0
CLASS
  1
MATERIAL
  2
AcDbMaterial
  3
ObjectDBX Classes
 90
1153
280
0
281
0
  0
CLASS
  1
SCALE
  2
AcDbScale
  3
ObjectDBX Classes
 90
1153
280
0
281
0
  0
CLASS
  1
TABLESTYLE
  2
AcDbTableStyle
  3
ObjectDBX Classes
 90
4095
280
0
281
0
  0
CLASS
  1
MLEADERSTYLE
  2
AcDbMLeaderStyle
  3
ACDB_MLEADERSTYLE_CLASS
 90
4095
280
0
281
0
  0
CLASS
  1
DICTIONARYVAR
  2
AcDbDictionaryVar
  3
ObjectDBX Classes
 90
0
280
0
281
0
  0
CLASS
  1
CELLSTYLEMAP
  2
AcDbCellStyleMap
  3
ObjectDBX Classes
 90
1152
280
0
281
0
  0
CLASS
  1
MENTALRAYRENDERSETTINGS
  2
AcDbMentalRayRenderSettings
  3
SCENEOE
 90
1024
280
0
281
0
  0
CLASS
  1
ACDBDETAILVIEWSTYLE
  2
AcDbDetailViewStyle
  3
ObjectDBX Classes
 90
1025
280
0
281
0
  0
CLASS
  1
ACDBSECTIONVIEWSTYLE
  2
AcDbSectionViewStyle
  3
ObjectDBX Classes
 90
1025
280
0
281
0
  0
CLASS
  1
RASTERVARIABLES
  2
AcDbRasterVariables
  3
ISM
 90
0
280
0
281
0
  0
CLASS
  1
ACDBPLACEHOLDER
  2
AcDbPlaceHolder
  3
ObjectDBX Classes
 90
0
280
0
281
0
  0
CLASS
  1
LAYOUT
  2
AcDbLayout
  3
ObjectDBX Classes
 90
0
280
0
281
0
  0
ENDSEC
  0
SECTION
  2
TABLES
  0
TABLE
  2
VPORT
  5
8
330
0
100
AcDbSymbolTable
 70
1
  0
VPORT
  5
23
330
8
100
AcDbSymbolTableRecord
100
AcDbViewportTableRecord
  2
*Active
 70
0
 10
0.0
 20
0.0
 11
1.0
 21
1.0
 12
0.0
 22
0.0
 13
0.0
 23
0.0
 14
0.5
 24
0.5
 15
0.5
 25
0.5
 16
0.0
 26
0.0
 36
1.0
 17
0.0
 27
0.0
 37
0.0
 40
1000.0
 41
1.34
 42
50.0
 43
0.0
 44
0.0
 50
0.0
 51
0.0
 71
0
 72
1000
 73
1
 74
3
 75
0
 76
0
 77
0
 78
0
281
0
 65
0
146
0.0
  0
ENDTAB
  0
TABLE
  2
LTYPE
  5
2
330
0
100
AcDbSymbolTable
 70
3
  0
LTYPE
  5
24
330
2
100
AcDbSymbolTableRecord
100
AcDbLinetypeTableRecord
  2
ByBlock
 70
0
  3

 72
65
 73
0
 40
0.0
  0
LTYPE
  5
25
330
2
100
AcDbSymbolTableRecord
100
AcDbLinetypeTableRecord
  2
ByLayer
 70
0
  3

 72
65
 73
0
 40
0.0
  0
LTYPE
  5
26
330
2
100
AcDbSymbolTableRecord
100
AcDbLinetypeTableRecord
  2
Continuous
 70
0
  3

 72
65
 73
0
 40
0.0
  0
ENDTAB
  0
TABLE
  2
LAYER
  5
1
330
0
100
AcDbSymbolTable
 70
6
  0
LAYER
  5
27
330
1
100
AcDbSymbolTableRecord
100
AcDbLayerTableRecord
  2
0
 70
0
 62
7
  6
Continuous
370
-3
390
13
  0
LAYER
  5
28
330
1
100
AcDbSymbolTableRecord
100
AcDbLayerTableRecord
  2
Defpoints
 70
0
 62
7
  6
Continuous
290
0
370
-3
390
13
  0
LAYER
  5
2F
330
1
100
AcDbSymbolTableRecord
100
AcDbLayerTableRecord
  2
CUT
 70
0
 62
1
  6
CONTINUOUS
370
-3
390
13
  0
LAYER
  5
30
330
1
100
AcDbSymbolTableRecord
100
AcDbLayerTableRecord
  2
DRILL
 70
0
 62
5
  6
CONTINUOUS
370
-3
390
13
  0
LAYER
  5
31
330
1
100
AcDbSymbolTableRecord
100
AcDbLayerTableRecord
  2
DIMENSION
 70
0
 62
8
  6
CONTINUOUS
370
-3
390
13
  0
LAYER
  5
32
330
1
100
AcDbSymbolTableRecord
100
AcDbLayerTableRecord
  2
ANNOTATION
 70
0
 62
7
  6
CONTINUOUS
370
-3
390
13
  0
ENDTAB
  0
TABLE
  2
STYLE
  5
5
330
0
100
AcDbSymbolTable
 70
2
  0
STYLE
  5
29
330
5
100
AcDbSymbolTableRecord
100
AcDbTextStyleTableRecord
  2
Standard
 70
0
 40
0.0
 41
1.0
 50
0.0
 71
0
 42
2.5
  3
txt
  4

  0
STYLE
  5
426
330
5
100
AcDbSymbolTableRecord
100
AcDbTextStyleTableRecord
  2
Title
 70
0
 40
0.0
 41
1.0
 50
0.0
 71
0
 42
2.5
  3
ISOCPEUR.ttf
  4

  0
ENDTAB
  0
TABLE
  2
VIEW
  5
7
330
0
100
AcDbSymbolTable
 70
0
  0
ENDTAB
  0
TABLE
  2
UCS
  5
6
330
0
100
AcDbSymbolTable
 70
0
  0
ENDTAB
  0
TABLE
  2
APPID
  5
3
330
0
100
AcDbSymbolTable
 70
3
  0
APPID
  5
2A
330
3
100
AcDbSymbolTableRecord
100
AcDbRegAppTableRecord
  2
ACAD
 70
0
  0
APPID
  5
42E
330
3
100
AcDbSymbolTableRecord
100
AcDbRegAppTableRecord
  2
HATCHBACKGROUNDCOLOR
 70
0
  0
APPID
  5
42F
330
3
100
AcDbSymbolTableRecord
100
AcDbRegAppTableRecord
  2
EZDXF
 70
0
  0
ENDTAB
  0
TABLE
  2
DIMSTYLE
  5
4
330
0
100
AcDbSymbolTable
 70
1
100
AcDbDimStyleTable
  0
DIMSTYLE
105
2B
330
4
100
AcDbSymbolTableRecord
100
AcDbDimStyleTableRecord
  2
Standard
 70
0
  3

  4

 40
1.0
 41
2.5
 42
0.625
 43
3.75
 44
1.25
 45
0.0
 46
0.0
 47
0.0
 48
0.0
140
2.5
141
2.5
142
0.0
143
0.03937007874
144
1.0
145
0.0
146
1.0
147
0.625
148
0.0
 71
0
 72
0
 73
0
 74
0
 75
0
 76
0
 77
1
 78
8
 79
3
170
0
171
3
172
1
173
0
174
0
175
0
176
0
177
0
178
0
179
2
271
2
272
2
273
2
274
3
275
0
276
0
277
2
278
44
279
0
280
0
281
0
282
0
283
0
284
8
285
0
286
0
288
0
289
3
371
-2
372
-2
  0
ENDTAB
  0
TABLE
  2
BLOCK_RECORD
  5
9
330
0
100
AcDbSymbolTable
 70
24
  0
BLOCK_RECORD
  5
17
330
9
100
AcDbSymbolTableRecord
100
AcDbBlockTableRecord
  2
*Model_Space
340
1A
  0
BLOCK_RECORD
  5
1B
330
9
100
AcDbSymbolTableRecord
100
AcDbBlockTableRecord
  2
*Paper_Space
340
1E
  0
BLOCK_RECORD
  5
2A4
330
9
100
AcDbSymbolTableRecord
100
AcDbBlockTableRecord
  2
*D1
340
0
  0
BLOCK_RECORD
  5
2A9
330
9
100
AcDbSymbolTableRecord
100
AcDbBlockTableRecord
  2
_CLOSEDFILLED
340
0
  0
BLOCK_RECORD
  5
2B8
330
9
100
AcDbSymbolTableRecord
100
AcDbBlockTableRecord
  2
*D2
340
0
  0
BLOCK_RECORD
  5
2C8
330
9
100
AcDbSymbolTableRecord
100
AcDbBlockTableRecord
  2
*D3
340
0
  0
BLOCK_RECORD
  5
2D8
330
9
100
AcDbSymbolTableRecord
100
AcDbBlockTableRecord
  2
*D4
340
0
  0
BLOCK_RECORD
  5
2E8
330
9
100
AcDbSymbolTableRecord
100
AcDbBlockTableRecord
  2
*D5
340
0
  0
BLOCK_RECORD
  5
2F8
330
9
100
AcDbSymbolTableRecord
100
AcDbBlockTableRecord
  2
*D6
340
0
  0
BLOCK_RECORD
  5
308
330
9
100
AcDbSymbolTableRecord
100
AcDbBlockTableRecord
  2
*D7
340
0
  0
BLOCK_RECORD
  5
318
330
9
100
AcDbSymbolTableRecord
100
AcDbBlockTableRecord
  2
*D8
340
0
  0
BLOCK_RECORD
  5
328
330
9
100
AcDbSymbolTableRecord
100
AcDbBlockTableRecord
  2
*D9
340
0
  0
BLOCK_RECORD
  5
338
330
9
100
AcDbSymbolTableRecord
100
AcDbBlockTableRecord
  2
*D10
340
0
  0
BLOCK_RECORD
  5
348
330
9
100
AcDbSymbolTableRecord
100
AcDbBlockTableRecord
  2
*D11
340
0
  0
BLOCK_RECORD
  5
358
330
9
100
AcDbSymbolTableRecord
100
AcDbBlockTableRecord
  2
*D12
340
0
  0
BLOCK_RECORD
  5
368
330
9
100
AcDbSymbolTableRecord
100
AcDbBlockTableRecord
  2
*D13
340
0
  0
BLOCK_RECORD
  5
378
330
9
100
AcDbSymbolTableRecord
100
AcDbBlockTableRecord
  2
*D14
340
0
  0
BLOCK_RECORD
  5
388
330
9
100
AcDbSymbolTableRecord
100
AcDbBlockTableRecord
  2
*D15
340
0
  0
BLOCK_RECORD
  5
398
330
9
100
AcDbSymbolTableRecord
100
AcDbBlockTableRecord
  2
*D16
340
0
  0
BLOCK_RECORD
  5
3A8
330
9
100
AcDbSymbolTableRecord
100
AcDbBlockTableRecord
  2
*D17
340
0
  0
BLOCK_RECORD
  5
3B8
330
9
100
AcDbSymbolTableRecord
100
AcDbBlockTableRecord
  2
*D18
340
0
  0
BLOCK_RECORD
  5
3C8
330
9
100
AcDbSymbolTableRecord
100
AcDbBlockTableRecord
  2
*D19
340
0
  0
BLOCK_RECORD
  5
3D8
330
9
100
AcDbSymbolTableRecord
100
AcDbBlockTableRecord
  2
*D20
340
0
  0
BLOCK_RECORD
  5
428
330
9
100
AcDbSymbolTableRecord
100
AcDbBlockTableRecord
  2
*Paper_Space0
340
42B
  0
ENDTAB
  0
ENDSEC
  0
SECTION
  2
BLOCKS
  0
BLOCK
  5
18
330
17
100
AcDbEntity
  8
0
100
AcDbBlockBegin
  2
*Model_Space
 70
0
 10
0.0
 20
0.0
 30
0.0
  3
*Model_Space
  1

  0
ENDBLK
  5
19
330
17
100
AcDbEntity
  8
0
100
AcDbBlockEnd
  0
BLOCK
  5
1C
330
1B
100
AcDbEntity
  8
0
100
AcDbBlockBegin
  2
*Paper_Space
 70
0
 10
0.0
 20
0.0
 30
0.0
  3
*Paper_Space
  1

  0
ENDBLK
  5
1D
330
1B
100
AcDbEntity
  8
0
100
AcDbBlockEnd
  0
BLOCK
  5
2A5
330
2A4
100
AcDbEntity
  8
0
100
AcDbBlockBegin
  2
*D1
 70
1
 10
0.0
 20
0.0
 30
0.0
  3
*D1
  1

  0
LINE
  5
2A7
330
2A4
100
AcDbEntity
  8
0
100
AcDbLine
 10
0.0
 20
0.0
 30
0.0
 11
0.0
 21
-25.0
 31
0.0
  0
LINE
  5
2A8
330
2A4
100
AcDbEntity
  8
0
100
AcDbLine
 10
6.0
 20
0.0
 30
0.0
 11
6.0
 21
-25.0
 31
0.0
  0
INSERT
  5
2AD
330
2A4
100
AcDbEntity
  8
DIMENSION
100
AcDbBlockReference
  2
_CLOSEDFILLED
 10
0.0
 20
-25.0
 30
0.0
 41
0.25
 42
0.25
 50
180.0
  0
INSERT
  5
2AF
330
2A4
100
AcDbEntity
  8
DIMENSION
100
AcDbBlockReference
  2
_CLOSEDFILLED
 10
6.0
 20
-25.0
 30
0.0
 41
0.25
 42
0.25
  0
LINE
  5
2B1
330
2A4
100
AcDbEntity
  8
0
100
AcDbLine
 10
0.25
 20
-25.0
 30
0.0
 11
2.5
 21
-25.0
 31
0.0
  0
LINE
  5
2B2
330
2A4
100
AcDbEntity
  8
0
100
AcDbLine
 10
3.5
 20
-25.0
 30
0.0
 11
5.75
 21
-25.0
 31
0.0
  0
MTEXT
  5
2B3
330
2A4
100
AcDbEntity
  8
DIMENSION
100
AcDbMText
 10
3.0
 20
-25.0
 30
0.0
 40
1.0
 71
5
  1
6
  0
POINT
  5
2B4
330
2A4
100
AcDbEntity
  8
Defpoints
100
AcDbPoint
 10
0.0
 20
-25.0
 30
0.0
  0
POINT
  5
2B5
330
2A4
100
AcDbEntity
  8
Defpoints
100
AcDbPoint
 10
0.0
 20
0.0
 30
0.0
  0
POINT
  5
2B6
330
2A4
100
AcDbEntity
  8
Defpoints
100
AcDbPoint
 10
6.0
 20
0.0
 30
0.0
  0
ENDBLK
  5
2A6
330
2A4
100
AcDbEntity
  8
0
100
AcDbBlockEnd
  0
BLOCK
  5
2AA
330
2A9
100
AcDbEntity
  8
0
100
AcDbBlockBegin
  2
_CLOSEDFILLED
 70
0
 10
0.0
 20
0.0
 30
0.0
  3
_CLOSEDFILLED
  1

  0
SOLID
  5
2AC
330
2A9
100
AcDbEntity
  8
0
  6
BYBLOCK
 62
0
100
AcDbTrace
 10
-1.0
 20
0.16439898372402537
 30
0.0
 11
0.0
 21
0.0
 31
0.0
 12
-1.0
 22
-0.16439898372402537
 32
0.0
 13
-1.0
 23
-0.16439898372402537
 33
0.0
  0
ENDBLK
  5
2AB
330
2A9
100
AcDbEntity
  8
0
100
AcDbBlockEnd
  0
BLOCK
  5
2B9
330
2B8
100
AcDbEntity
  8
0
100
AcDbBlockBegin
  2
*D2
 70
1
 10
0.0
 20
0.0
 30
0.0
  3
*D2
  1

  0
LINE
  5
2BB
330
2B8
100
AcDbEntity
  8
0
100
AcDbLine
 10
0.0
 20
0.0
 30
0.0
 11
0.0
 21
-33.0
 31
0.0
  0
LINE
  5
2BC
330
2B8
100
AcDbEntity
  8
0
100
AcDbLine
 10
50.0
 20
0.0
 30
0.0
 11
50.0
 21
-33.0
 31
0.0
  0
INSERT
  5
2BD
330
2B8
100
AcDbEntity
  8
DIMENSION
100
AcDbBlockReference
  2
_CLOSEDFILLED
 10
0.0
 20
-33.0
 30
0.0
 41
0.25
 42
0.25
 50
180.0
  0
INSERT
  5
2BF
330
2B8
100
AcDbEntity
  8
DIMENSION
100
AcDbBlockReference
  2
_CLOSEDFILLED
 10
50.0
 20
-33.0
 30
0.0
 41
0.25
 42
0.25
  0
LINE
  5
2C1
330
2B8
100
AcDbEntity
  8
0
100
AcDbLine
 10
0.25
 20
-33.0
 30
0.0
 11
24.0
 21
-33.0
 31
0.0
  0
LINE
  5
2C2
330
2B8
100
AcDbEntity
  8
0
100
AcDbLine
 10
26.0
 20
-33.0
 30
0.0
 11
49.75
 21
-33.0
 31
0.0
  0
MTEXT
  5
2C3
330
2B8
100
AcDbEntity
  8
DIMENSION
100
AcDbMText
 10
25.0
 20
-33.0
 30
0.0
 40
1.0
 71
5
  1
50
  0
POINT
  5
2C4
330
2B8
100
AcDbEntity
  8
Defpoints
100
AcDbPoint
 10
0.0
 20
-33.0
 30
0.0
  0
POINT
  5
2C5
330
2B8
100
AcDbEntity
  8
Defpoints
100
AcDbPoint
 10
0.0
 20
0.0
 30
0.0
  0
POINT
  5
2C6
330
2B8
100
AcDbEntity
  8
Defpoints
100
AcDbPoint
 10
50.0
 20
0.0
 30
0.0
  0
ENDBLK
  5
2BA
330
2B8
100
AcDbEntity
  8
0
100
AcDbBlockEnd
  0
BLOCK
  5
2C9
330
2C8
100
AcDbEntity
  8
0
100
AcDbBlockBegin
  2
*D3
 70
1
 10
0.0
 20
0.0
 30
0.0
  3
*D3
  1

  0
LINE
  5
2CB
330
2C8
100
AcDbEntity
  8
0
100
AcDbLine
 10
0.0
 20
0.0
 30
0.0
 11
0.0
 21
-41.0
 31
0.0
  0
LINE
  5
2CC
330
2C8
100
AcDbEntity
  8
0
100
AcDbLine
 10
62.0
 20
0.0
 30
0.0
 11
62.0
 21
-41.0
 31
0.0
  0
INSERT
  5
2CD
330
2C8
100
AcDbEntity
  8
DIMENSION
100
AcDbBlockReference
  2
_CLOSEDFILLED
 10
0.0
 20
-41.0
 30
0.0
 41
0.25
 42
0.25
 50
180.0
  0
INSERT
  5
2CF
330
2C8
100
AcDbEntity
  8
DIMENSION
100
AcDbBlockReference
  2
_CLOSEDFILLED
 10
62.0
 20
-41.0
 30
0.0
 41
0.25
 42
0.25
  0
LINE
  5
2D1
330
2C8
100
AcDbEntity
  8
0
100
AcDbLine
 10
0.25
 20
-41.0
 30
0.0
 11
30.0
 21
-41.0
 31
0.0
  0
LINE
  5
2D2
330
2C8
100
AcDbEntity
  8
0
100
AcDbLine
 10
32.0
 20
-41.0
 30
0.0
 11
61.75
 21
-41.0
 31
0.0
  0
MTEXT
  5
2D3
330
2C8
100
AcDbEntity
  8
DIMENSION
100
AcDbMText
 10
31.0
 20
-41.0
 30
0.0
 40
1.0
 71
5
  1
62
  0
POINT
  5
2D4
330
2C8
100
AcDbEntity
  8
Defpoints
100
AcDbPoint
 10
0.0
 20
-41.0
 30
0.0
  0
POINT
  5
2D5
330
2C8
100
AcDbEntity
  8
Defpoints
100
AcDbPoint
 10
0.0
 20
0.0
 30
0.0
  0
POINT
  5
2D6
330
2C8
100
AcDbEntity
  8
Defpoints
100
AcDbPoint
 10
62.0
 20
0.0
 30
0.0
  0
ENDBLK
  5
2CA
330
2C8
100
AcDbEntity
  8
0
100
AcDbBlockEnd
  0
BLOCK
  5
2D9
330
2D8
100
AcDbEntity
  8
0
100
AcDbBlockBegin
  2
*D4
 70
1
 10
0.0
 20
0.0
 30
0.0
  3
*D4
  1

  0
LINE
  5
2DB
330
2D8
100
AcDbEntity
  8
0
100
AcDbLine
 10
0.0
 20
0.0
 30
0.0
 11
0.0
 21
-49.0
 31
0.0
  0
LINE
  5
2DC
330
2D8
100
AcDbEntity
  8
0
100
AcDbLine
 10
175.0
 20
0.0
 30
0.0
 11
175.0
 21
-49.0
 31
0.0
  0
INSERT
  5
2DD
330
2D8
100
AcDbEntity
  8
DIMENSION
100
AcDbBlockReference
  2
_CLOSEDFILLED
 10
0.0
 20
-49.0
 30
0.0
 41
0.25
 42
0.25
 50
180.0
  0
INSERT
  5
2DF
330
2D8
100
AcDbEntity
  8
DIMENSION
100
AcDbBlockReference
  2
_CLOSEDFILLED
 10
175.0
 20
-49.0
 30
0.0
 41
0.25
 42
0.25
  0
LINE
  5
2E1
330
2D8
100
AcDbEntity
  8
0
100
AcDbLine
 10
0.25
 20
-49.0
 30
0.0
 11
86.0
 21
-49.0
 31
0.0
  0
LINE
  5
2E2
330
2D8
100
AcDbEntity
  8
0
100
AcDbLine
 10
89.0
 20
-49.0
 30
0.0
 11
174.75
 21
-49.0
 31
0.0
  0
MTEXT
  5
2E3
330
2D8
100
AcDbEntity
  8
DIMENSION
100
AcDbMText
 10
87.5
 20
-49.0
 30
0.0
 40
1.0
 71
5
  1
175
  0
POINT
  5
2E4
330
2D8
100
AcDbEntity
  8
Defpoints
100
AcDbPoint
 10
0.0
 20
-49.0
 30
0.0
  0
POINT
  5
2E5
330
2D8
100
AcDbEntity
  8
Defpoints
100
AcDbPoint
 10
0.0
 20
0.0
 30
0.0
  0
POINT
  5
2E6
330
2D8
100
AcDbEntity
  8
Defpoints
100
AcDbPoint
 10
175.0
 20
0.0
 30
0.0
  0
ENDBLK
  5
2DA
330
2D8
100
AcDbEntity
  8
0
100
AcDbBlockEnd
  0
BLOCK
  5
2E9
330
2E8
100
AcDbEntity
  8
0
100
AcDbBlockBegin
  2
*D5
 70
1
 10
0.0
 20
0.0
 30
0.0
  3
*D5
  1

  0
LINE
  5
2EB
330
2E8
100
AcDbEntity
  8
0
100
AcDbLine
 10
0.0
 20
0.0
 30
0.0
 11
0.0
 21
-57.0
 31
0.0
  0
LINE
  5
2EC
330
2E8
100
AcDbEntity
  8
0
100
AcDbLine
 10
190.0
 20
0.0
 30
0.0
 11
190.0
 21
-57.0
 31
0.0
  0
INSERT
  5
2ED
330
2E8
100
AcDbEntity
  8
DIMENSION
100
AcDbBlockReference
  2
_CLOSEDFILLED
 10
0.0
 20
-57.0
 30
0.0
 41
0.25
 42
0.25
 50
180.0
  0
INSERT
  5
2EF
330
2E8
100
AcDbEntity
  8
DIMENSION
100
AcDbBlockReference
  2
_CLOSEDFILLED
 10
190.0
 20
-57.0
 30
0.0
 41
0.25
 42
0.25
  0
LINE
  5
2F1
330
2E8
100
AcDbEntity
  8
0
100
AcDbLine
 10
0.25
 20
-57.0
 30
0.0
 11
93.5
 21
-57.0
 31
0.0
  0
LINE
  5
2F2
330
2E8
100
AcDbEntity
  8
0
100
AcDbLine
 10
96.5
 20
-57.0
 30
0.0
 11
189.75
 21
-57.0
 31
0.0
  0
MTEXT
  5
2F3
330
2E8
100
AcDbEntity
  8
DIMENSION
100
AcDbMText
 10
95.0
 20
-57.0
 30
0.0
 40
1.0
 71
5
  1
190
  0
POINT
  5
2F4
330
2E8
100
AcDbEntity
  8
Defpoints
100
AcDbPoint
 10
0.0
 20
-57.0
 30
0.0
  0
POINT
  5
2F5
330
2E8
100
AcDbEntity
  8
Defpoints
100
AcDbPoint
 10
0.0
 20
0.0
 30
0.0
  0
POINT
  5
2F6
330
2E8
100
AcDbEntity
  8
Defpoints
100
AcDbPoint
 10
190.0
 20
0.0
 30
0.0
  0
ENDBLK
  5
2EA
330
2E8
100
AcDbEntity
  8
0
100
AcDbBlockEnd
  0
BLOCK
  5
2F9
330
2F8
100
AcDbEntity
  8
0
100
AcDbBlockBegin
  2
*D6
 70
1
 10
0.0
 20
0.0
 30
0.0
  3
*D6
  1

  0
LINE
  5
2FB
330
2F8
100
AcDbEntity
  8
0
100
AcDbLine
 10
0.0
 20
0.0
 30
0.0
 11
0.0
 21
-65.0
 31
0.0
  0
LINE
  5
2FC
330
2F8
100
AcDbEntity
  8
0
100
AcDbLine
 10
225.0
 20
0.0
 30
0.0
 11
225.0
 21
-65.0
 31
0.0
  0
INSERT
  5
2FD
330
2F8
100
AcDbEntity
  8
DIMENSION
100
AcDbBlockReference
  2
_CLOSEDFILLED
 10
0.0
 20
-65.0
 30
0.0
 41
0.25
 42
0.25
 50
180.0
  0
INSERT
  5
2FF
330
2F8
100
AcDbEntity
  8
DIMENSION
100
AcDbBlockReference
  2
_CLOSEDFILLED
 10
225.0
 20
-65.0
 30
0.0
 41
0.25
 42
0.25
  0
LINE
  5
301
330
2F8
100
AcDbEntity
  8
0
100
AcDbLine
 10
0.25
 20
-65.0
 30
0.0
 11
111.0
 21
-65.0
 31
0.0
  0
LINE
  5
302
330
2F8
100
AcDbEntity
  8
0
100
AcDbLine
 10
114.0
 20
-65.0
 30
0.0
 11
224.75
 21
-65.0
 31
0.0
  0
MTEXT
  5
303
330
2F8
100
AcDbEntity
  8
DIMENSION
100
AcDbMText
 10
112.5
 20
-65.0
 30
0.0
 40
1.0
 71
5
  1
225
  0
POINT
  5
304
330
2F8
100
AcDbEntity
  8
Defpoints
100
AcDbPoint
 10
0.0
 20
-65.0
 30
0.0
  0
POINT
  5
305
330
2F8
100
AcDbEntity
  8
Defpoints
100
AcDbPoint
 10
0.0
 20
0.0
 30
0.0
  0
POINT
  5
306
330
2F8
100
AcDbEntity
  8
Defpoints
100
AcDbPoint
 10
225.0
 20
0.0
 30
0.0
  0
ENDBLK
  5
2FA
330
2F8
100
AcDbEntity
  8
0
100
AcDbBlockEnd
  0
BLOCK
  5
309
330
308
100
AcDbEntity
  8
0
100
AcDbBlockBegin
  2
*D7
 70
1
 10
0.0
 20
0.0
 30
0.0
  3
*D7
  1

  0
LINE
  5
30B
330
308
100
AcDbEntity
  8
0
100
AcDbLine
 10
225.0
 20
200.0
 30
0.0
 11
225.0
 21
225.0
 31
0.0
  0
LINE
  5
30C
330
308
100
AcDbEntity
  8
0
100
AcDbLine
 10
190.0
 20
200.0
 30
0.0
 11
190.0
 21
225.0
 31
0.0
  0
INSERT
  5
30D
330
308
100
AcDbEntity
  8
DIMENSION
100
AcDbBlockReference
  2
_CLOSEDFILLED
 10
225.0
 20
225.0
 30
0.0
 41
0.25
 42
0.25
 50
180.0
  0
INSERT
  5
30F
330
308
100
AcDbEntity
  8
DIMENSION
100
AcDbBlockReference
  2
_CLOSEDFILLED
 10
190.0
 20
225.0
 30
0.0
 41
0.25
 42
0.25
  0
LINE
  5
311
330
308
100
AcDbEntity
  8
0
100
AcDbLine
 10
225.25
 20
225.0
 30
0.0
 11
208.5
 21
225.0
 31
0.0
  0
LINE
  5
312
330
308
100
AcDbEntity
  8
0
100
AcDbLine
 10
206.5
 20
225.0
 30
0.0
 11
189.75
 21
225.0
 31
0.0
  0
MTEXT
  5
313
330
308
100
AcDbEntity
  8
DIMENSION
100
AcDbMText
 10
207.5
 20
225.0
 30
0.0
 40
1.0
 71
5
  1
35
  0
POINT
  5
314
330
308
100
AcDbEntity
  8
Defpoints
100
AcDbPoint
 10
225.0
 20
225.0
 30
0.0
  0
POINT
  5
315
330
308
100
AcDbEntity
  8
Defpoints
100
AcDbPoint
 10
225.0
 20
200.0
 30
0.0
  0
POINT
  5
316
330
308
100
AcDbEntity
  8
Defpoints
100
AcDbPoint
 10
190.0
 20
200.0
 30
0.0
  0
ENDBLK
  5
30A
330
308
100
AcDbEntity
  8
0
100
AcDbBlockEnd
  0
BLOCK
  5
319
330
318
100
AcDbEntity
  8
0
100
AcDbBlockBegin
  2
*D8
 70
1
 10
0.0
 20
0.0
 30
0.0
  3
*D8
  1

  0
LINE
  5
31B
330
318
100
AcDbEntity
  8
0
100
AcDbLine
 10
225.0
 20
200.0
 30
0.0
 11
225.0
 21
233.0
 31
0.0
  0
LINE
  5
31C
330
318
100
AcDbEntity
  8
0
100
AcDbLine
 10
175.0
 20
200.0
 30
0.0
 11
175.0
 21
233.0
 31
0.0
  0
INSERT
  5
31D
330
318
100
AcDbEntity
  8
DIMENSION
100
AcDbBlockReference
  2
_CLOSEDFILLED
 10
225.0
 20
233.0
 30
0.0
 41
0.25
 42
0.25
 50
180.0
  0
INSERT
  5
31F
330
318
100
AcDbEntity
  8
DIMENSION
100
AcDbBlockReference
  2
_CLOSEDFILLED
 10
175.0
 20
233.0
 30
0.0
 41
0.25
 42
0.25
  0
LINE
  5
321
330
318
100
AcDbEntity
  8
0
100
AcDbLine
 10
225.25
 20
233.0
 30
0.0
 11
201.0
 21
233.0
 31
0.0
  0
LINE
  5
322
330
318
100
AcDbEntity
  8
0
100
AcDbLine
 10
199.0
 20
233.0
 30
0.0
 11
174.75
 21
233.0
 31
0.0
  0
MTEXT
  5
323
330
318
100
AcDbEntity
  8
DIMENSION
100
AcDbMText
 10
200.0
 20
233.0
 30
0.0
 40
1.0
 71
5
  1
50
  0
POINT
  5
324
330
318
100
AcDbEntity
  8
Defpoints
100
AcDbPoint
 10
225.0
 20
233.0
 30
0.0
  0
POINT
  5
325
330
318
100
AcDbEntity
  8
Defpoints
100
AcDbPoint
 10
225.0
 20
200.0
 30
0.0
  0
POINT
  5
326
330
318
100
AcDbEntity
  8
Defpoints
100
AcDbPoint
 10
175.0
 20
200.0
 30
0.0
  0
ENDBLK
  5
31A
330
318
100
AcDbEntity
  8
0
100
AcDbBlockEnd
  0
BLOCK
  5
329
330
328
100
AcDbEntity
  8
0
100
AcDbBlockBegin
  2
*D9
 70
1
 10
0.0
 20
0.0
 30
0.0
  3
*D9
  1

  0
LINE
  5
32B
330
328
100
AcDbEntity
  8
0
100
AcDbLine
 10
225.0
 20
200.0
 30
0.0
 11
225.0
 21
241.0
 31
0.0
  0
LINE
  5
32C
330
328
100
AcDbEntity
  8
0
100
AcDbLine
 10
62.0
 20
200.0
 30
0.0
 11
62.0
 21
241.0
 31
0.0
  0
INSERT
  5
32D
330
328
100
AcDbEntity
  8
DIMENSION
100
AcDbBlockReference
  2
_CLOSEDFILLED
 10
225.0
 20
241.0
 30
0.0
 41
0.25
 42
0.25
 50
180.0
  0
INSERT
  5
32F
330
328
100
AcDbEntity
  8
DIMENSION
100
AcDbBlockReference
  2
_CLOSEDFILLED
 10
62.0
 20
241.0
 30
0.0
 41
0.25
 42
0.25
  0
LINE
  5
331
330
328
100
AcDbEntity
  8
0
100
AcDbLine
 10
225.25
 20
241.0
 30
0.0
 11
145.0
 21
241.0
 31
0.0
  0
LINE
  5
332
330
328
100
AcDbEntity
  8
0
100
AcDbLine
 10
142.0
 20
241.0
 30
0.0
 11
61.75
 21
241.0
 31
0.0
  0
MTEXT
  5
333
330
328
100
AcDbEntity
  8
DIMENSION
100
AcDbMText
 10
143.5
 20
241.0
 30
0.0
 40
1.0
 71
5
  1
163
  0
POINT
  5
334
330
328
100
AcDbEntity
  8
Defpoints
100
AcDbPoint
 10
225.0
 20
241.0
 30
0.0
  0
POINT
  5
335
330
328
100
AcDbEntity
  8
Defpoints
100
AcDbPoint
 10
225.0
 20
200.0
 30
0.0
  0
POINT
  5
336
330
328
100
AcDbEntity
  8
Defpoints
100
AcDbPoint
 10
62.0
 20
200.0
 30
0.0
  0
ENDBLK
  5
32A
330
328
100
AcDbEntity
  8
0
100
AcDbBlockEnd
  0
BLOCK
  5
339
330
338
100
AcDbEntity
  8
0
100
AcDbBlockBegin
  2
*D10
 70
1
 10
0.0
 20
0.0
 30
0.0
  3
*D10
  1

  0
LINE
  5
33B
330
338
100
AcDbEntity
  8
0
100
AcDbLine
 10
225.0
 20
200.0
 30
0.0
 11
225.0
 21
249.0
 31
0.0
  0
LINE
  5
33C
330
338
100
AcDbEntity
  8
0
100
AcDbLine
 10
50.0
 20
200.0
 30
0.0
 11
50.0
 21
249.0
 31
0.0
  0
INSERT
  5
33D
330
338
100
AcDbEntity
  8
DIMENSION
100
AcDbBlockReference
  2
_CLOSEDFILLED
 10
225.0
 20
249.0
 30
0.0
 41
0.25
 42
0.25
 50
180.0
  0
INSERT
  5
33F
330
338
100
AcDbEntity
  8
DIMENSION
100
AcDbBlockReference
  2
_CLOSEDFILLED
 10
50.0
 20
249.0
 30
0.0
 41
0.25
 42
0.25
  0
LINE
  5
341
330
338
100
AcDbEntity
  8
0
100
AcDbLine
 10
225.25
 20
249.0
 30
0.0
 11
139.0
 21
249.0
 31
0.0
  0
LINE
  5
342
330
338
100
AcDbEntity
  8
0
100
AcDbLine
 10
136.0
 20
249.0
 30
0.0
 11
49.75
 21
249.0
 31
0.0
  0
MTEXT
  5
343
330
338
100
AcDbEntity
  8
DIMENSION
100
AcDbMText
 10
137.5
 20
249.0
 30
0.0
 40
1.0
 71
5
  1
175
  0
POINT
  5
344
330
338
100
AcDbEntity
  8
Defpoints
100
AcDbPoint
 10
225.0
 20
249.0
 30
0.0
  0
POINT
  5
345
330
338
100
AcDbEntity
  8
Defpoints
100
AcDbPoint
 10
225.0
 20
200.0
 30
0.0
  0
POINT
  5
346
330
338
100
AcDbEntity
  8
Defpoints
100
AcDbPoint
 10
50.0
 20
200.0
 30
0.0
  0
ENDBLK
  5
33A
330
338
100
AcDbEntity
  8
0
100
AcDbBlockEnd
  0
BLOCK
  5
349
330
348
100
AcDbEntity
  8
0
100
AcDbBlockBegin
  2
*D11
 70
1
 10
0.0
 20
0.0
 30
0.0
  3
*D11
  1

  0
LINE
  5
34B
330
348
100
AcDbEntity
  8
0
100
AcDbLine
 10
225.0
 20
200.0
 30
0.0
 11
225.0
 21
257.0
 31
0.0
  0
LINE
  5
34C
330
348
100
AcDbEntity
  8
0
100
AcDbLine
 10
6.0
 20
200.0
 30
0.0
 11
6.0
 21
257.0
 31
0.0
  0
INSERT
  5
34D
330
348
100
AcDbEntity
  8
DIMENSION
100
AcDbBlockReference
  2
_CLOSEDFILLED
 10
225.0
 20
257.0
 30
0.0
 41
0.25
 42
0.25
 50
180.0
  0
INSERT
  5
34F
330
348
100
AcDbEntity
  8
DIMENSION
100
AcDbBlockReference
  2
_CLOSEDFILLED
 10
6.0
 20
257.0
 30
0.0
 41
0.25
 42
0.25
  0
LINE
  5
351
330
348
100
AcDbEntity
  8
0
100
AcDbLine
 10
225.25
 20
257.0
 30
0.0
 11
117.0
 21
257.0
 31
0.0
  0
LINE
  5
352
330
348
100
AcDbEntity
  8
0
100
AcDbLine
 10
114.0
 20
257.0
 30
0.0
 11
5.75
 21
257.0
 31
0.0
  0
MTEXT
  5
353
330
348
100
AcDbEntity
  8
DIMENSION
100
AcDbMText
 10
115.5
 20
257.0
 30
0.0
 40
1.0
 71
5
  1
219
  0
POINT
  5
354
330
348
100
AcDbEntity
  8
Defpoints
100
AcDbPoint
 10
225.0
 20
257.0
 30
0.0
  0
POINT
  5
355
330
348
100
AcDbEntity
  8
Defpoints
100
AcDbPoint
 10
225.0
 20
200.0
 30
0.0
  0
POINT
  5
356
330
348
100
AcDbEntity
  8
Defpoints
100
AcDbPoint
 10
6.0
 20
200.0
 30
0.0
  0
ENDBLK
  5
34A
330
348
100
AcDbEntity
  8
0
100
AcDbBlockEnd
  0
BLOCK
  5
359
330
358
100
AcDbEntity
  8
0
100
AcDbBlockBegin
  2
*D12
 70
1
 10
0.0
 20
0.0
 30
0.0
  3
*D12
  1

  0
LINE
  5
35B
330
358
100
AcDbEntity
  8
0
100
AcDbLine
 10
0.0
 20
0.0
 30
0.0
 11
-25.0
 21
0.0
 31
0.0
  0
LINE
  5
35C
330
358
100
AcDbEntity
  8
0
100
AcDbLine
 10
0.0
 20
6.0
 30
0.0
 11
-25.0
 21
6.0
 31
0.0
  0
INSERT
  5
35D
330
358
100
AcDbEntity
  8
DIMENSION
100
AcDbBlockReference
  2
_CLOSEDFILLED
 10
-25.0
 20
0.0
 30
0.0
 41
0.25
 42
0.25
 50
270.0
  0
INSERT
  5
35F
330
358
100
AcDbEntity
  8
DIMENSION
100
AcDbBlockReference
  2
_CLOSEDFILLED
 10
-25.0
 20
6.0
 30
0.0
 41
0.25
 42
0.25
 50
90.0
  0
LINE
  5
361
330
358
100
AcDbEntity
  8
0
100
AcDbLine
 10
-25.0
 20
0.25
 30
0.0
 11
-25.0
 21
2.5
 31
0.0
  0
LINE
  5
362
330
358
100
AcDbEntity
  8
0
100
AcDbLine
 10
-25.0
 20
3.5
 30
0.0
 11
-25.0
 21
5.75
 31
0.0
  0
MTEXT
  5
363
330
358
100
AcDbEntity
  8
DIMENSION
100
AcDbMText
 10
-25.0
 20
3.0
 30
0.0
 40
1.0
 71
5
  1
6
 50
90.0
  0
POINT
  5
364
330
358
100
AcDbEntity
  8
Defpoints
100
AcDbPoint
 10
-25.0
 20
0.0
 30
0.0
  0
POINT
  5
365
330
358
100
AcDbEntity
  8
Defpoints
100
AcDbPoint
 10
0.0
 20
0.0
 30
0.0
  0
POINT
  5
366
330
358
100
AcDbEntity
  8
Defpoints
100
AcDbPoint
 10
0.0
 20
6.0
 30
0.0
  0
ENDBLK
  5
35A
330
358
100
AcDbEntity
  8
0
100
AcDbBlockEnd
  0
BLOCK
  5
369
330
368
100
AcDbEntity
  8
0
100
AcDbBlockBegin
  2
*D13
 70
1
 10
0.0
 20
0.0
 30
0.0
  3
*D13
  1

  0
LINE
  5
36B
330
368
100
AcDbEntity
  8
0
100
AcDbLine
 10
0.0
 20
0.0
 30
0.0
 11
-33.0
 21
0.0
 31
0.0
  0
LINE
  5
36C
330
368
100
AcDbEntity
  8
0
100
AcDbLine
 10
0.0
 20
50.0
 30
0.0
 11
-33.0
 21
50.0
 31
0.0
  0
INSERT
  5
36D
330
368
100
AcDbEntity
  8
DIMENSION
100
AcDbBlockReference
  2
_CLOSEDFILLED
 10
-33.0
 20
0.0
 30
0.0
 41
0.25
 42
0.25
 50
270.0
  0
INSERT
  5
36F
330
368
100
AcDbEntity
  8
DIMENSION
100
AcDbBlockReference
  2
_CLOSEDFILLED
 10
-33.0
 20
50.0
 30
0.0
 41
0.25
 42
0.25
 50
90.0
  0
LINE
  5
371
330
368
100
AcDbEntity
  8
0
100
AcDbLine
 10
-33.0
 20
0.25
 30
0.0
 11
-33.0
 21
24.0
 31
0.0
  0
LINE
  5
372
330
368
100
AcDbEntity
  8
0
100
AcDbLine
 10
-33.0
 20
26.0
 30
0.0
 11
-33.0
 21
49.75
 31
0.0
  0
MTEXT
  5
373
330
368
100
AcDbEntity
  8
DIMENSION
100
AcDbMText
 10
-33.0
 20
25.0
 30
0.0
 40
1.0
 71
5
  1
50
 50
90.0
  0
POINT
  5
374
330
368
100
AcDbEntity
  8
Defpoints
100
AcDbPoint
 10
-33.0
 20
0.0
 30
0.0
  0
POINT
  5
375
330
368
100
AcDbEntity
  8
Defpoints
100
AcDbPoint
 10
0.0
 20
0.0
 30
0.0
  0
POINT
  5
376
330
368
100
AcDbEntity
  8
Defpoints
100
AcDbPoint
 10
0.0
 20
50.0
 30
0.0
  0
ENDBLK
  5
36A
330
368
100
AcDbEntity
  8
0
100
AcDbBlockEnd
  0
BLOCK
  5
379
330
378
100
AcDbEntity
  8
0
100
AcDbBlockBegin
  2
*D14
 70
1
 10
0.0
 20
0.0
 30
0.0
  3
*D14
  1

  0
LINE
  5
37B
330
378
100
AcDbEntity
  8
0
100
AcDbLine
 10
0.0
 20
0.0
 30
0.0
 11
-41.0
 21
0.0
 31
0.0
  0
LINE
  5
37C
330
378
100
AcDbEntity
  8
0
100
AcDbLine
 10
0.0
 20
72.5
 30
0.0
 11
-41.0
 21
72.5
 31
0.0
  0
INSERT
  5
37D
330
378
100
AcDbEntity
  8
DIMENSION
100
AcDbBlockReference
  2
_CLOSEDFILLED
 10
-41.0
 20
0.0
 30
0.0
 41
0.25
 42
0.25
 50
270.0
  0
INSERT
  5
37F
330
378
100
AcDbEntity
  8
DIMENSION
100
AcDbBlockReference
  2
_CLOSEDFILLED
 10
-41.0
 20
72.5
 30
0.0
 41
0.25
 42
0.25
 50
90.0
  0
LINE
  5
381
330
378
100
AcDbEntity
  8
0
100
AcDbLine
 10
-41.0
 20
0.25
 30
0.0
 11
-41.0
 21
34.25
 31
0.0
  0
LINE
  5
382
330
378
100
AcDbEntity
  8
0
100
AcDbLine
 10
-41.0
 20
38.25
 30
0.0
 11
-41.0
 21
72.25
 31
0.0
  0
MTEXT
  5
383
330
378
100
AcDbEntity
  8
DIMENSION
100
AcDbMText
 10
-41.0
 20
36.25
 30
0.0
 40
1.0
 71
5
  1
72,5
 50
90.0
  0
POINT
  5
384
330
378
100
AcDbEntity
  8
Defpoints
100
AcDbPoint
 10
-41.0
 20
0.0
 30
0.0
  0
POINT
  5
385
330
378
100
AcDbEntity
  8
Defpoints
100
AcDbPoint
 10
0.0
 20
0.0
 30
0.0
  0
POINT
  5
386
330
378
100
AcDbEntity
  8
Defpoints
100
AcDbPoint
 10
0.0
 20
72.5
 30
0.0
  0
ENDBLK
  5
37A
330
378
100
AcDbEntity
  8
0
100
AcDbBlockEnd
  0
BLOCK
  5
389
330
388
100
AcDbEntity
  8
0
100
AcDbBlockBegin
  2
*D15
 70
1
 10
0.0
 20
0.0
 30
0.0
  3
*D15
  1

  0
LINE
  5
38B
330
388
100
AcDbEntity
  8
0
100
AcDbLine
 10
0.0
 20
0.0
 30
0.0
 11
-49.0
 21
0.0
 31
0.0
  0
LINE
  5
38C
330
388
100
AcDbEntity
  8
0
100
AcDbLine
 10
0.0
 20
150.0
 30
0.0
 11
-49.0
 21
150.0
 31
0.0
  0
INSERT
  5
38D
330
388
100
AcDbEntity
  8
DIMENSION
100
AcDbBlockReference
  2
_CLOSEDFILLED
 10
-49.0
 20
0.0
 30
0.0
 41
0.25
 42
0.25
 50
270.0
  0
INSERT
  5
38F
330
388
100
AcDbEntity
  8
DIMENSION
100
AcDbBlockReference
  2
_CLOSEDFILLED
 10
-49.0
 20
150.0
 30
0.0
 41
0.25
 42
0.25
 50
90.0
  0
LINE
  5
391
330
388
100
AcDbEntity
  8
0
100
AcDbLine
 10
-49.0
 20
0.25
 30
0.0
 11
-49.0
 21
73.5
 31
0.0
  0
LINE
  5
392
330
388
100
AcDbEntity
  8
0
100
AcDbLine
 10
-49.0
 20
76.5
 30
0.0
 11
-49.0
 21
149.75
 31
0.0
  0
MTEXT
  5
393
330
388
100
AcDbEntity
  8
DIMENSION
100
AcDbMText
 10
-49.0
 20
75.0
 30
0.0
 40
1.0
 71
5
  1
150
 50
90.0
  0
POINT
  5
394
330
388
100
AcDbEntity
  8
Defpoints
100
AcDbPoint
 10
-49.0
 20
0.0
 30
0.0
  0
POINT
  5
395
330
388
100
AcDbEntity
  8
Defpoints
100
AcDbPoint
 10
0.0
 20
0.0
 30
0.0
  0
POINT
  5
396
330
388
100
AcDbEntity
  8
Defpoints
100
AcDbPoint
 10
0.0
 20
150.0
 30
0.0
  0
ENDBLK
  5
38A
330
388
100
AcDbEntity
  8
0
100
AcDbBlockEnd
  0
BLOCK
  5
399
330
398
100
AcDbEntity
  8
0
100
AcDbBlockBegin
  2
*D16
 70
1
 10
0.0
 20
0.0
 30
0.0
  3
*D16
  1

  0
LINE
  5
39B
330
398
100
AcDbEntity
  8
0
100
AcDbLine
 10
0.0
 20
0.0
 30
0.0
 11
-57.0
 21
0.0
 31
0.0
  0
LINE
  5
39C
330
398
100
AcDbEntity
  8
0
100
AcDbLine
 10
0.0
 20
200.0
 30
0.0
 11
-57.0
 21
200.0
 31
0.0
  0
INSERT
  5
39D
330
398
100
AcDbEntity
  8
DIMENSION
100
AcDbBlockReference
  2
_CLOSEDFILLED
 10
-57.0
 20
0.0
 30
0.0
 41
0.25
 42
0.25
 50
270.0
  0
INSERT
  5
39F
330
398
100
AcDbEntity
  8
DIMENSION
100
AcDbBlockReference
  2
_CLOSEDFILLED
 10
-57.0
 20
200.0
 30
0.0
 41
0.25
 42
0.25
 50
90.0
  0
LINE
  5
3A1
330
398
100
AcDbEntity
  8
0
100
AcDbLine
 10
-57.0
 20
0.25
 30
0.0
 11
-57.0
 21
98.5
 31
0.0
  0
LINE
  5
3A2
330
398
100
AcDbEntity
  8
0
100
AcDbLine
 10
-57.0
 20
101.50000000000001
 30
0.0
 11
-57.0
 21
199.75
 31
0.0
  0
MTEXT
  5
3A3
330
398
100
AcDbEntity
  8
DIMENSION
100
AcDbMText
 10
-57.0
 20
100.0
 30
0.0
 40
1.0
 71
5
  1
200
 50
90.0
  0
POINT
  5
3A4
330
398
100
AcDbEntity
  8
Defpoints
100
AcDbPoint
 10
-57.0
 20
0.0
 30
0.0
  0
POINT
  5
3A5
330
398
100
AcDbEntity
  8
Defpoints
100
AcDbPoint
 10
0.0
 20
0.0
 30
0.0
  0
POINT
  5
3A6
330
398
100
AcDbEntity
  8
Defpoints
100
AcDbPoint
 10
0.0
 20
200.0
 30
0.0
  0
ENDBLK
  5
39A
330
398
100
AcDbEntity
  8
0
100
AcDbBlockEnd
  0
BLOCK
  5
3A9
330
3A8
100
AcDbEntity
  8
0
100
AcDbBlockBegin
  2
*D17
 70
1
 10
0.0
 20
0.0
 30
0.0
  3
*D17
  1

  0
LINE
  5
3AB
330
3A8
100
AcDbEntity
  8
0
100
AcDbLine
 10
225.0
 20
200.0
 30
0.0
 11
250.0
 21
200.0
 31
0.0
  0
LINE
  5
3AC
330
3A8
100
AcDbEntity
  8
0
100
AcDbLine
 10
225.0
 20
150.0
 30
0.0
 11
250.0
 21
150.0
 31
0.0
  0
INSERT
  5
3AD
330
3A8
100
AcDbEntity
  8
DIMENSION
100
AcDbBlockReference
  2
_CLOSEDFILLED
 10
250.0
 20
200.0
 30
0.0
 41
0.25
 42
0.25
 50
270.0
  0
INSERT
  5
3AF
330
3A8
100
AcDbEntity
  8
DIMENSION
100
AcDbBlockReference
  2
_CLOSEDFILLED
 10
250.0
 20
150.0
 30
0.0
 41
0.25
 42
0.25
 50
90.0
  0
LINE
  5
3B1
330
3A8
100
AcDbEntity
  8
0
100
AcDbLine
 10
250.0
 20
200.25
 30
0.0
 11
250.0
 21
176.0
 31
0.0
  0
LINE
  5
3B2
330
3A8
100
AcDbEntity
  8
0
100
AcDbLine
 10
250.0
 20
174.0
 30
0.0
 11
250.0
 21
149.75
 31
0.0
  0
MTEXT
  5
3B3
330
3A8
100
AcDbEntity
  8
DIMENSION
100
AcDbMText
 10
250.0
 20
175.0
 30
0.0
 40
1.0
 71
5
  1
50
 50
90.0
  0
POINT
  5
3B4
330
3A8
100
AcDbEntity
  8
Defpoints
100
AcDbPoint
 10
250.0
 20
200.0
 30
0.0
  0
POINT
  5
3B5
330
3A8
100
AcDbEntity
  8
Defpoints
100
AcDbPoint
 10
225.0
 20
200.0
 30
0.0
  0
POINT
  5
3B6
330
3A8
100
AcDbEntity
  8
Defpoints
100
AcDbPoint
 10
225.0
 20
150.0
 30
0.0
  0
ENDBLK
  5
3AA
330
3A8
100
AcDbEntity
  8
0
100
AcDbBlockEnd
  0
BLOCK
  5
3B9
330
3B8
100
AcDbEntity
  8
0
100
AcDbBlockBegin
  2
*D18
 70
1
 10
0.0
 20
0.0
 30
0.0
  3
*D18
  1

  0
LINE
  5
3BB
330
3B8
100
AcDbEntity
  8
0
100
AcDbLine
 10
225.0
 20
200.0
 30
0.0
 11
258.0
 21
200.0
 31
0.0
  0
LINE
  5
3BC
330
3B8
100
AcDbEntity
  8
0
100
AcDbLine
 10
225.0
 20
72.5
 30
0.0
 11
258.0
 21
72.5
 31
0.0
  0
INSERT
  5
3BD
330
3B8
100
AcDbEntity
  8
DIMENSION
100
AcDbBlockReference
  2
_CLOSEDFILLED
 10
258.0
 20
200.0
 30
0.0
 41
0.25
 42
0.25
 50
270.0
  0
INSERT
  5
3BF
330
3B8
100
AcDbEntity
  8
DIMENSION
100
AcDbBlockReference
  2
_CLOSEDFILLED
 10
258.0
 20
72.5
 30
0.0
 41
0.25
 42
0.25
 50
90.0
  0
LINE
  5
3C1
330
3B8
100
AcDbEntity
  8
0
100
AcDbLine
 10
258.0
 20
200.25
 30
0.0
 11
258.0
 21
138.75
 31
0.0
  0
LINE
  5
3C2
330
3B8
100
AcDbEntity
  8
0
100
AcDbLine
 10
258.0
 20
133.75
 30
0.0
 11
258.0
 21
72.25
 31
0.0
  0
MTEXT
  5
3C3
330
3B8
100
AcDbEntity
  8
DIMENSION
100
AcDbMText
 10
258.0
 20
136.25
 30
0.0
 40
1.0
 71
5
  1
127,5
 50
90.0
  0
POINT
  5
3C4
330
3B8
100
AcDbEntity
  8
Defpoints
100
AcDbPoint
 10
258.0
 20
200.0
 30
0.0
  0
POINT
  5
3C5
330
3B8
100
AcDbEntity
  8
Defpoints
100
AcDbPoint
 10
225.0
 20
200.0
 30
0.0
  0
POINT
  5
3C6
330
3B8
100
AcDbEntity
  8
Defpoints
100
AcDbPoint
 10
225.0
 20
72.5
 30
0.0
  0
ENDBLK
  5
3BA
330
3B8
100
AcDbEntity
  8
0
100
AcDbBlockEnd
  0
BLOCK
  5
3C9
330
3C8
100
AcDbEntity
  8
0
100
AcDbBlockBegin
  2
*D19
 70
1
 10
0.0
 20
0.0
 30
0.0
  3
*D19
  1

  0
LINE
  5
3CB
330
3C8
100
AcDbEntity
  8
0
100
AcDbLine
 10
225.0
 20
200.0
 30
0.0
 11
266.0
 21
200.0
 31
0.0
  0
LINE
  5
3CC
330
3C8
100
AcDbEntity
  8
0
100
AcDbLine
 10
225.0
 20
50.0
 30
0.0
 11
266.0
 21
50.0
 31
0.0
  0
INSERT
  5
3CD
330
3C8
100
AcDbEntity
  8
DIMENSION
100
AcDbBlockReference
  2
_CLOSEDFILLED
 10
266.0
 20
200.0
 30
0.0
 41
0.25
 42
0.25
 50
270.0
  0
INSERT
  5
3CF
330
3C8
100
AcDbEntity
  8
DIMENSION
100
AcDbBlockReference
  2
_CLOSEDFILLED
 10
266.0
 20
50.0
 30
0.0
 41
0.25
 42
0.25
 50
90.0
  0
LINE
  5
3D1
330
3C8
100
AcDbEntity
  8
0
100
AcDbLine
 10
266.0
 20
200.25
 30
0.0
 11
266.0
 21
126.5
 31
0.0
  0
LINE
  5
3D2
330
3C8
100
AcDbEntity
  8
0
100
AcDbLine
 10
266.0
 20
123.5
 30
0.0
 11
266.0
 21
49.75
 31
0.0
  0
MTEXT
  5
3D3
330
3C8
100
AcDbEntity
  8
DIMENSION
100
AcDbMText
 10
266.0
 20
125.0
 30
0.0
 40
1.0
 71
5
  1
150
 50
90.0
  0
POINT
  5
3D4
330
3C8
100
AcDbEntity
  8
Defpoints
100
AcDbPoint
 10
266.0
 20
200.0
 30
0.0
  0
POINT
  5
3D5
330
3C8
100
AcDbEntity
  8
Defpoints
100
AcDbPoint
 10
225.0
 20
200.0
 30
0.0
  0
POINT
  5
3D6
330
3C8
100
AcDbEntity
  8
Defpoints
100
AcDbPoint
 10
225.0
 20
50.0
 30
0.0
  0
ENDBLK
  5
3CA
330
3C8
100
AcDbEntity
  8
0
100
AcDbBlockEnd
  0
BLOCK
  5
3D9
330
3D8
100
AcDbEntity
  8
0
100
AcDbBlockBegin
  2
*D20
 70
1
 10
0.0
 20
0.0
 30
0.0
  3
*D20
  1

  0
LINE
  5
3DB
330
3D8
100
AcDbEntity
  8
0
100
AcDbLine
 10
225.0
 20
200.0
 30
0.0
 11
274.0
 21
200.0
 31
0.0
  0
LINE
  5
3DC
330
3D8
100
AcDbEntity
  8
0
100
AcDbLine
 10
225.0
 20
6.0
 30
0.0
 11
274.0
 21
6.0
 31
0.0
  0
INSERT
  5
3DD
330
3D8
100
AcDbEntity
  8
DIMENSION
100
AcDbBlockReference
  2
_CLOSEDFILLED
 10
274.0
 20
200.0
 30
0.0
 41
0.25
 42
0.25
 50
270.0
  0
INSERT
  5
3DF
330
3D8
100
AcDbEntity
  8
DIMENSION
100
AcDbBlockReference
  2
_CLOSEDFILLED
 10
274.0
 20
6.0
 30
0.0
 41
0.25
 42
0.25
 50
90.0
  0
LINE
  5
3E1
330
3D8
100
AcDbEntity
  8
0
100
AcDbLine
 10
274.0
 20
200.25
 30
0.0
 11
274.0
 21
104.5
 31
0.0
  0
LINE
  5
3E2
330
3D8
100
AcDbEntity
  8
0
100
AcDbLine
 10
274.0
 20
101.5
 30
0.0
 11
274.0
 21
5.75
 31
0.0
  0
MTEXT
  5
3E3
330
3D8
100
AcDbEntity
  8
DIMENSION
100
AcDbMText
 10
274.0
 20
103.0
 30
0.0
 40
1.0
 71
5
  1
194
 50
90.0
  0
POINT
  5
3E4
330
3D8
100
AcDbEntity
  8
Defpoints
100
AcDbPoint
 10
274.0
 20
200.0
 30
0.0
  0
POINT
  5
3E5
330
3D8
100
AcDbEntity
  8
Defpoints
100
AcDbPoint
 10
225.0
 20
200.0
 30
0.0
  0
POINT
  5
3E6
330
3D8
100
AcDbEntity
  8
Defpoints
100
AcDbPoint
 10
225.0
 20
6.0
 30
0.0
  0
ENDBLK
  5
3DA
330
3D8
100
AcDbEntity
  8
0
100
AcDbBlockEnd
  0
BLOCK
  5
429
330
428
100
AcDbEntity
  8
0
100
AcDbBlockBegin
  2
*Paper_Space0
 70
0
 10
0.0
 20
0.0
 30
0.0
  3
*Paper_Space0
  1

  0
VIEWPORT
  5
42C
330
428
100
AcDbEntity
 67
1
  8
VIEWPORTS
100
AcDbViewport
 10
138.5
 20
95.0
 30
0.0
 40
326.70000000000005
 41
231.00000000000003
 68
1
 69
1
 12
138.5
 22
95.0
 13
0.0
 23
0.0
 14
10.0
 24
10.0
 15
10.0
 25
10.0
 16
0.0
 26
0.0
 36
1.0
 17
0.0
 27
0.0
 37
0.0
 42
50.0
 43
0.0
 44
0.0
 45
231.00000000000003
 50
0.0
 51
0.0
 72
100
 90
557088
  1

281
0
 71
0
 74
0
110
0.0
120
0.0
130
0.0
111
1.0
121
0.0
131
0.0
112
0.0
122
1.0
132
0.0
 79
0
146
0.0
  0
VIEWPORT
  5
42D
330
428
100
AcDbEntity
 67
1
  8
VIEWPORTS
100
AcDbViewport
 10
148.5
 20
105.0
 30
0.0
 40
277.0
 41
190.0
 68
2
 69
3
 12
193.5
 22
72.875
 13
0.0
 23
0.0
 14
10.0
 24
10.0
 15
10.0
 25
10.0
 16
0.0
 26
0.0
 36
1.0
 17
0.0
 27
0.0
 37
0.0
 42
50.0
 43
0.0
 44
0.0
 45
479.32500000000005
 50
0.0
 51
0.0
 72
100
 90
0
  1

281
0
 71
0
 74
0
110
0.0
120
0.0
130
0.0
111
1.0
121
0.0
131
0.0
112
0.0
122
1.0
132
0.0
 79
0
146
0.0
  0
ENDBLK
  5
42A
330
428
100
AcDbEntity
  8
0
100
AcDbBlockEnd
  0
ENDSEC
  0
SECTION
  2
ENTITIES
  0
TEXT
  5
33
330
17
100
AcDbEntity
  8
ANNOTATION
100
AcDbText
 10
6.0
 20
60.0
 30
0.0
 40
2.5
  1
back_panel_1
100
AcDbText
  0
TEXT
  5
34
330
17
100
AcDbEntity
  8
ANNOTATION
100
AcDbText
 10
6.0
 20
55.0
 30
0.0
 40
2.5
  1
d4.0 h12.0
100
AcDbText
  0
TEXT
  5
35
330
17
100
AcDbEntity
  8
ANNOTATION
100
AcDbText
 10
6.0
 20
160.0
 30
0.0
 40
2.5
  1
back_panel_2
100
AcDbText
  0
TEXT
  5
36
330
17
100
AcDbEntity
  8
ANNOTATION
100
AcDbText
 10
6.0
 20
155.0
 30
0.0
 40
2.5
  1
d4.0 h12.0
100
AcDbText
  0
TEXT
  5
37
330
17
100
AcDbEntity
  8
ANNOTATION
100
AcDbText
 10
175.0
 20
16.0
 30
0.0
 40
2.5
  1
bottom_panel_1
100
AcDbText
  0
TEXT
  5
38
330
17
100
AcDbEntity
  8
ANNOTATION
100
AcDbText
 10
175.0
 20
11.0
 30
0.0
 40
2.5
  1
d4.0 h12.0
100
AcDbText
  0
TEXT
  5
39
330
17
100
AcDbEntity
  8
ANNOTATION
100
AcDbText
 10
50.0
 20
16.0
 30
0.0
 40
2.5
  1
bottom_panel_2
100
AcDbText
  0
TEXT
  5
3A
330
17
100
AcDbEntity
  8
ANNOTATION
100
AcDbText
 10
50.0
 20
11.0
 30
0.0
 40
2.5
  1
d4.0 h12.0
100
AcDbText
  0
LINE
  5
3B
330
17
100
AcDbEntity
  8
DRILL
 62
5
100
AcDbLine
 10
222.0
 20
50.0
 30
0.0
 11
228.0
 21
50.0
 31
0.0
  0
LINE
  5
3C
330
17
100
AcDbEntity
  8
DRILL
 62
5
100
AcDbLine
 10
225.0
 20
47.0
 30
0.0
 11
225.0
 21
53.0
 31
0.0
  0
TEXT
  5
3D
330
17
100
AcDbEntity
  8
ANNOTATION
100
AcDbText
 10
225.0
 20
60.0
 30
0.0
 40
2.5
  1
dowel_front_1
100
AcDbText
  0
TEXT
  5
3E
330
17
100
AcDbEntity
  8
ANNOTATION
100
AcDbText
 10
225.0
 20
55.0
 30
0.0
 40
2.5
  1
d6.0 h20.0 z6.0
100
AcDbText
  0
LINE
  5
3F
330
17
100
AcDbEntity
  8
DRILL
 62
5
100
AcDbLine
 10
222.0
 20
150.0
 30
0.0
 11
228.0
 21
150.0
 31
0.0
  0
LINE
  5
40
330
17
100
AcDbEntity
  8
DRILL
 62
5
100
AcDbLine
 10
225.0
 20
147.0
 30
0.0
 11
225.0
 21
153.0
 31
0.0
  0
TEXT
  5
41
330
17
100
AcDbEntity
  8
ANNOTATION
100
AcDbText
 10
225.0
 20
160.0
 30
0.0
 40
2.5
  1
dowel_front_2
100
AcDbText
  0
TEXT
  5
42
330
17
100
AcDbEntity
  8
ANNOTATION
100
AcDbText
 10
225.0
 20
155.0
 30
0.0
 40
2.5
  1
d6.0 h20.0 z6.0
100
AcDbText
  0
TEXT
  5
43
330
17
100
AcDbEntity
  8
ANNOTATION
100
AcDbText
 10
190.0
 20
82.5
 30
0.0
 40
2.5
  1
slide_pilot_35
100
AcDbText
  0
TEXT
  5
44
330
17
100
AcDbEntity
  8
ANNOTATION
100
AcDbText
 10
190.0
 20
77.5
 30
0.0
 40
2.5
  1
d2.5 h2.0
100
AcDbText
  0
TEXT
  5
45
330
17
100
AcDbEntity
  8
ANNOTATION
100
AcDbText
 10
62.0
 20
82.5
 30
0.0
 40
2.5
  1
slide_pilot_163
100
AcDbText
  0
TEXT
  5
46
330
17
100
AcDbEntity
  8
ANNOTATION
100
AcDbText
 10
62.0
 20
77.5
 30
0.0
 40
2.5
  1
d2.5 h2.0
100
AcDbText
  0
LINE
  5
47
330
17
100
AcDbEntity
  8
CUT
100
AcDbLine
 10
0.0
 20
0.0
 30
0.0
 11
225.0
 21
0.0
 31
0.0
  0
LINE
  5
48
330
17
100
AcDbEntity
  8
CUT
100
AcDbLine
 10
225.0
 20
0.0
 30
0.0
 11
225.0
 21
200.0
 31
0.0
  0
LINE
  5
49
330
17
100
AcDbEntity
  8
CUT
100
AcDbLine
 10
225.0
 20
200.0
 30
0.0
 11
0.0
 21
200.0
 31
0.0
  0
LINE
  5
4A
330
17
100
AcDbEntity
  8
CUT
100
AcDbLine
 10
0.0
 20
200.0
 30
0.0
 11
0.0
 21
0.0
 31
0.0
  0
LINE
  5
4B
330
17
100
AcDbEntity
  8
CUT
100
AcDbLine
 10
4.0
 20
50.0
 30
0.0
 11
4.00395
 21
50.1256
 31
0.0
  0
LINE
  5
4C
330
17
100
AcDbEntity
  8
CUT
100
AcDbLine
 10
4.00395
 20
50.1256
 30
0.0
 11
4.01577
 21
50.2507
 31
0.0
  0
LINE
  5
4D
330
17
100
AcDbEntity
  8
CUT
100
AcDbLine
 10
4.01577
 20
50.2507
 30
0.0
 11
4.03543
 21
50.3748
 31
0.0
  0
LINE
  5
4E
330
17
100
AcDbEntity
  8
CUT
100
AcDbLine
 10
4.03543
 20
50.3748
 30
0.0
 11
4.06283
 21
50.4974
 31
0.0
  0
LINE
  5
4F
330
17
100
AcDbEntity
  8
CUT
100
AcDbLine
 10
4.06283
 20
50.4974
 30
0.0
 11
4.09789
 21
50.618
 31
0.0
  0
LINE
  5
50
330
17
100
AcDbEntity
  8
CUT
100
AcDbLine
 10
4.09789
 20
50.618
 30
0.0
 11
4.14045
 21
50.7362
 31
0.0
  0
LINE
  5
51
330
17
100
AcDbEntity
  8
CUT
100
AcDbLine
 10
4.14045
 20
50.7362
 30
0.0
 11
4.19035
 21
50.8516
 31
0.0
  0
LINE
  5
52
330
17
100
AcDbEntity
  8
CUT
100
AcDbLine
 10
4.19035
 20
50.8516
 30
0.0
 11
4.24739
 21
50.9635
 31
0.0
  0
LINE
  5
53
330
17
100
AcDbEntity
  8
CUT
100
AcDbLine
 10
4.24739
 20
50.9635
 30
0.0
 11
4.31135
 21
51.0717
 31
0.0
  0
LINE
  5
54
330
17
100
AcDbEntity
  8
CUT
100
AcDbLine
 10
4.31135
 20
51.0717
 30
0.0
 11
4.38197
 21
51.1756
 31
0.0
  0
LINE
  5
55
330
17
100
AcDbEntity
  8
CUT
100
AcDbLine
 10
4.38197
 20
51.1756
 30
0.0
 11
4.45897
 21
51.2748
 31
0.0
  0
LINE
  5
56
330
17
100
AcDbEntity
  8
CUT
100
AcDbLine
 10
4.45897
 20
51.2748
 30
0.0
 11
4.54206
 21
51.3691
 31
0.0
  0
LINE
  5
57
330
17
100
AcDbEntity
  8
CUT
100
AcDbLine
 10
4.54206
 20
51.3691
 30
0.0
 11
4.63091
 21
51.4579
 31
0.0
  0
LINE
  5
58
330
17
100
AcDbEntity
  8
CUT
100
AcDbLine
 10
4.63091
 20
51.4579
 30
0.0
 11
4.72515
 21
51.541
 31
0.0
  0
LINE
  5
59
330
17
100
AcDbEntity
  8
CUT
100
AcDbLine
 10
4.72515
 20
51.541
 30
0.0
 11
4.82443
 21
51.618
 31
0.0
  0
LINE
  5
5A
330
17
100
AcDbEntity
  8
CUT
100
AcDbLine
 10
4.82443
 20
51.618
 30
0.0
 11
4.92835
 21
51.6887
 31
0.0
  0
LINE
  5
5B
330
17
100
AcDbEntity
  8
CUT
100
AcDbLine
 10
4.92835
 20
51.6887
 30
0.0
 11
5.03649
 21
51.7526
 31
0.0
  0
LINE
  5
5C
330
17
100
AcDbEntity
  8
CUT
100
AcDbLine
 10
5.03649
 20
51.7526
 30
0.0
 11
5.14844
 21
51.8097
 31
0.0
  0
LINE
  5
5D
330
17
100
AcDbEntity
  8
CUT
100
AcDbLine
 10
5.14844
 20
51.8097
 30
0.0
 11
5.26375
 21
51.8596
 31
0.0
  0
LINE
  5
5E
330
17
100
AcDbEntity
  8
CUT
100
AcDbLine
 10
5.26375
 20
51.8596
 30
0.0
 11
5.38197
 21
51.9021
 31
0.0
  0
LINE
  5
5F
330
17
100
AcDbEntity
  8
CUT
100
AcDbLine
 10
5.38197
 20
51.9021
 30
0.0
 11
5.50262
 21
51.9372
 31
0.0
  0
LINE
  5
60
330
17
100
AcDbEntity
  8
CUT
100
AcDbLine
 10
5.50262
 20
51.9372
 30
0.0
 11
5.62524
 21
51.9646
 31
0.0
  0
LINE
  5
61
330
17
100
AcDbEntity
  8
CUT
100
AcDbLine
 10
5.62524
 20
51.9646
 30
0.0
 11
5.74933
 21
51.9842
 31
0.0
  0
LINE
  5
62
330
17
100
AcDbEntity
  8
CUT
100
AcDbLine
 10
5.74933
 20
51.9842
 30
0.0
 11
5.87442
 21
51.9961
 31
0.0
  0
LINE
  5
63
330
17
100
AcDbEntity
  8
CUT
100
AcDbLine
 10
5.87442
 20
51.9961
 30
0.0
 11
6.0
 21
52.0
 31
0.0
  0
LINE
  5
64
330
17
100
AcDbEntity
  8
CUT
100
AcDbLine
 10
6.0
 20
52.0
 30
0.0
 11
6.12558
 21
51.9961
 31
0.0
  0
LINE
  5
65
330
17
100
AcDbEntity
  8
CUT
100
AcDbLine
 10
6.12558
 20
51.9961
 30
0.0
 11
6.25067
 21
51.9842
 31
0.0
  0
LINE
  5
66
330
17
100
AcDbEntity
  8
CUT
100
AcDbLine
 10
6.25067
 20
51.9842
 30
0.0
 11
6.37476
 21
51.9646
 31
0.0
  0
LINE
  5
67
330
17
100
AcDbEntity
  8
CUT
100
AcDbLine
 10
6.37476
 20
51.9646
 30
0.0
 11
6.49738
 21
51.9372
 31
0.0
  0
LINE
  5
68
330
17
100
AcDbEntity
  8
CUT
100
AcDbLine
 10
6.49738
 20
51.9372
 30
0.0
 11
6.61803
 21
51.9021
 31
0.0
  0
LINE
  5
69
330
17
100
AcDbEntity
  8
CUT
100
AcDbLine
 10
6.61803
 20
51.9021
 30
0.0
 11
6.73625
 21
51.8596
 31
0.0
  0
LINE
  5
6A
330
17
100
AcDbEntity
  8
CUT
100
AcDbLine
 10
6.73625
 20
51.8596
 30
0.0
 11
6.85156
 21
51.8097
 31
0.0
  0
LINE
  5
6B
330
17
100
AcDbEntity
  8
CUT
100
AcDbLine
 10
6.85156
 20
51.8097
 30
0.0
 11
6.96351
 21
51.7526
 31
0.0
  0
LINE
  5
6C
330
17
100
AcDbEntity
  8
CUT
100
AcDbLine
 10
6.96351
 20
51.7526
 30
0.0
 11
7.07165
 21
51.6887
 31
0.0
  0
LINE
  5
6D
330
17
100
AcDbEntity
  8
CUT
100
AcDbLine
 10
7.07165
 20
51.6887
 30
0.0
 11
7.17557
 21
51.618
 31
0.0
  0
LINE
  5
6E
330
17
100
AcDbEntity
  8
CUT
100
AcDbLine
 10
7.17557
 20
51.618
 30
0.0
 11
7.27485
 21
51.541
 31
0.0
  0
LINE
  5
6F
330
17
100
AcDbEntity
  8
CUT
100
AcDbLine
 10
7.27485
 20
51.541
 30
0.0
 11
7.36909
 21
51.4579
 31
0.0
  0
LINE
  5
70
330
17
100
AcDbEntity
  8
CUT
100
AcDbLine
 10
7.36909
 20
51.4579
 30
0.0
 11
7.45794
 21
51.3691
 31
0.0
  0
LINE
  5
71
330
17
100
AcDbEntity
  8
CUT
100
AcDbLine
 10
7.45794
 20
51.3691
 30
0.0
 11
7.54103
 21
51.2748
 31
0.0
  0
LINE
  5
72
330
17
100
AcDbEntity
  8
CUT
100
AcDbLine
 10
7.54103
 20
51.2748
 30
0.0
 11
7.61803
 21
51.1756
 31
0.0
  0
LINE
  5
73
330
17
100
AcDbEntity
  8
CUT
100
AcDbLine
 10
7.61803
 20
51.1756
 30
0.0
 11
7.68866
 21
51.0717
 31
0.0
  0
LINE
  5
74
330
17
100
AcDbEntity
  8
CUT
100
AcDbLine
 10
7.68866
 20
51.0717
 30
0.0
 11
7.75261
 21
50.9635
 31
0.0
  0
LINE
  5
75
330
17
100
AcDbEntity
  8
CUT
100
AcDbLine
 10
7.75261
 20
50.9635
 30
0.0
 11
7.80965
 21
50.8516
 31
0.0
  0
LINE
  5
76
330
17
100
AcDbEntity
  8
CUT
100
AcDbLine
 10
7.80965
 20
50.8516
 30
0.0
 11
7.85955
 21
50.7362
 31
0.0
  0
LINE
  5
77
330
17
100
AcDbEntity
  8
CUT
100
AcDbLine
 10
7.85955
 20
50.7362
 30
0.0
 11
7.90211
 21
50.618
 31
0.0
  0
LINE
  5
78
330
17
100
AcDbEntity
  8
CUT
100
AcDbLine
 10
7.90211
 20
50.618
 30
0.0
 11
7.93717
 21
50.4974
 31
0.0
  0
LINE
  5
79
330
17
100
AcDbEntity
  8
CUT
100
AcDbLine
 10
7.93717
 20
50.4974
 30
0.0
 11
7.96457
 21
50.3748
 31
0.0
  0
LINE
  5
7A
330
17
100
AcDbEntity
  8
CUT
100
AcDbLine
 10
7.96457
 20
50.3748
 30
0.0
 11
7.98423
 21
50.2507
 31
0.0
  0
LINE
  5
7B
330
17
100
AcDbEntity
  8
CUT
100
AcDbLine
 10
7.98423
 20
50.2507
 30
0.0
 11
7.99605
 21
50.1256
 31
0.0
  0
LINE
  5
7C
330
17
100
AcDbEntity
  8
CUT
100
AcDbLine
 10
7.99605
 20
50.1256
 30
0.0
 11
8.0
 21
50.0
 31
0.0
  0
LINE
  5
7D
330
17
100
AcDbEntity
  8
CUT
100
AcDbLine
 10
8.0
 20
50.0
 30
0.0
 11
7.99605
 21
49.8744
 31
0.0
  0
LINE
  5
7E
330
17
100
AcDbEntity
  8
CUT
100
AcDbLine
 10
7.99605
 20
49.8744
 30
0.0
 11
7.98423
 21
49.7493
 31
0.0
  0
LINE
  5
7F
330
17
100
AcDbEntity
  8
CUT
100
AcDbLine
 10
7.98423
 20
49.7493
 30
0.0
 11
7.96457
 21
49.6252
 31
0.0
  0
LINE
  5
80
330
17
100
AcDbEntity
  8
CUT
100
AcDbLine
 10
7.96457
 20
49.6252
 30
0.0
 11
7.93717
 21
49.5026
 31
0.0
  0
LINE
  5
81
330
17
100
AcDbEntity
  8
CUT
100
AcDbLine
 10
7.93717
 20
49.5026
 30
0.0
 11
7.90211
 21
49.382
 31
0.0
  0
LINE
  5
82
330
17
100
AcDbEntity
  8
CUT
100
AcDbLine
 10
7.90211
 20
49.382
 30
0.0
 11
7.85955
 21
49.2638
 31
0.0
  0
LINE
  5
83
330
17
100
AcDbEntity
  8
CUT
100
AcDbLine
 10
7.85955
 20
49.2638
 30
0.0
 11
7.80965
 21
49.1484
 31
0.0
  0
LINE
  5
84
330
17
100
AcDbEntity
  8
CUT
100
AcDbLine
 10
7.80965
 20
49.1484
 30
0.0
 11
7.75261
 21
49.0365
 31
0.0
  0
LINE
  5
85
330
17
100
AcDbEntity
  8
CUT
100
AcDbLine
 10
7.75261
 20
49.0365
 30
0.0
 11
7.68866
 21
48.9283
 31
0.0
  0
LINE
  5
86
330
17
100
AcDbEntity
  8
CUT
100
AcDbLine
 10
7.68866
 20
48.9283
 30
0.0
 11
7.61803
 21
48.8244
 31
0.0
  0
LINE
  5
87
330
17
100
AcDbEntity
  8
CUT
100
AcDbLine
 10
7.61803
 20
48.8244
 30
0.0
 11
7.54103
 21
48.7252
 31
0.0
  0
LINE
  5
88
330
17
100
AcDbEntity
  8
CUT
100
AcDbLine
 10
7.54103
 20
48.7252
 30
0.0
 11
7.45794
 21
48.6309
 31
0.0
  0
LINE
  5
89
330
17
100
AcDbEntity
  8
CUT
100
AcDbLine
 10
7.45794
 20
48.6309
 30
0.0
 11
7.36909
 21
48.5421
 31
0.0
  0
LINE
  5
8A
330
17
100
AcDbEntity
  8
CUT
100
AcDbLine
 10
7.36909
 20
48.5421
 30
0.0
 11
7.27485
 21
48.459
 31
0.0
  0
LINE
  5
8B
330
17
100
AcDbEntity
  8
CUT
100
AcDbLine
 10
7.27485
 20
48.459
 30
0.0
 11
7.17557
 21
48.382
 31
0.0
  0
LINE
  5
8C
330
17
100
AcDbEntity
  8
CUT
100
AcDbLine
 10
7.17557
 20
48.382
 30
0.0
 11
7.07165
 21
48.3113
 31
0.0
  0
LINE
  5
8D
330
17
100
AcDbEntity
  8
CUT
100
AcDbLine
 10
7.07165
 20
48.3113
 30
0.0
 11
6.96351
 21
48.2474
 31
0.0
  0
LINE
  5
8E
330
17
100
AcDbEntity
  8
CUT
100
AcDbLine
 10
6.96351
 20
48.2474
 30
0.0
 11
6.85156
 21
48.1903
 31
0.0
  0
LINE
  5
8F
330
17
100
AcDbEntity
  8
CUT
100
AcDbLine
 10
6.85156
 20
48.1903
 30
0.0
 11
6.73625
 21
48.1404
 31
0.0
  0
LINE
  5
90
330
17
100
AcDbEntity
  8
CUT
100
AcDbLine
 10
6.73625
 20
48.1404
 30
0.0
 11
6.61803
 21
48.0979
 31
0.0
  0
LINE
  5
91
330
17
100
AcDbEntity
  8
CUT
100
AcDbLine
 10
6.61803
 20
48.0979
 30
0.0
 11
6.49738
 21
48.0628
 31
0.0
  0
LINE
  5
92
330
17
100
AcDbEntity
  8
CUT
100
AcDbLine
 10
6.49738
 20
48.0628
 30
0.0
 11
6.37476
 21
48.0354
 31
0.0
  0
LINE
  5
93
330
17
100
AcDbEntity
  8
CUT
100
AcDbLine
 10
6.37476
 20
48.0354
 30
0.0
 11
6.25067
 21
48.0158
 31
0.0
  0
LINE
  5
94
330
17
100
AcDbEntity
  8
CUT
100
AcDbLine
 10
6.25067
 20
48.0158
 30
0.0
 11
6.12558
 21
48.0039
 31
0.0
  0
LINE
  5
95
330
17
100
AcDbEntity
  8
CUT
100
AcDbLine
 10
6.12558
 20
48.0039
 30
0.0
 11
6.0
 21
48.0
 31
0.0
  0
LINE
  5
96
330
17
100
AcDbEntity
  8
CUT
100
AcDbLine
 10
6.0
 20
48.0
 30
0.0
 11
5.87442
 21
48.0039
 31
0.0
  0
LINE
  5
97
330
17
100
AcDbEntity
  8
CUT
100
AcDbLine
 10
5.87442
 20
48.0039
 30
0.0
 11
5.74933
 21
48.0158
 31
0.0
  0
LINE
  5
98
330
17
100
AcDbEntity
  8
CUT
100
AcDbLine
 10
5.74933
 20
48.0158
 30
0.0
 11
5.62524
 21
48.0354
 31
0.0
  0
LINE
  5
99
330
17
100
AcDbEntity
  8
CUT
100
AcDbLine
 10
5.62524
 20
48.0354
 30
0.0
 11
5.50262
 21
48.0628
 31
0.0
  0
LINE
  5
9A
330
17
100
AcDbEntity
  8
CUT
100
AcDbLine
 10
5.50262
 20
48.0628
 30
0.0
 11
5.38197
 21
48.0979
 31
0.0
  0
LINE
  5
9B
330
17
100
AcDbEntity
  8
CUT
100
AcDbLine
 10
5.38197
 20
48.0979
 30
0.0
 11
5.26375
 21
48.1404
 31
0.0
  0
LINE
  5
9C
330
17
100
AcDbEntity
  8
CUT
100
AcDbLine
 10
5.26375
 20
48.1404
 30
0.0
 11
5.14844
 21
48.1903
 31
0.0
  0
LINE
  5
9D
330
17
100
AcDbEntity
  8
CUT
100
AcDbLine
 10
5.14844
 20
48.1903
 30
0.0
 11
5.03649
 21
48.2474
 31
0.0
  0
LINE
  5
9E
330
17
100
AcDbEntity
  8
CUT
100
AcDbLine
 10
5.03649
 20
48.2474
 30
0.0
 11
4.92835
 21
48.3113
 31
0.0
  0
LINE
  5
9F
330
17
100
AcDbEntity
  8
CUT
100
AcDbLine
 10
4.92835
 20
48.3113
 30
0.0
 11
4.82443
 21
48.382
 31
0.0
  0
LINE
  5
A0
330
17
100
AcDbEntity
  8
CUT
100
AcDbLine
 10
4.82443
 20
48.382
 30
0.0
 11
4.72515
 21
48.459
 31
0.0
  0
LINE
  5
A1
330
17
100
AcDbEntity
  8
CUT
100
AcDbLine
 10
4.72515
 20
48.459
 30
0.0
 11
4.63091
 21
48.5421
 31
0.0
  0
LINE
  5
A2
330
17
100
AcDbEntity
  8
CUT
100
AcDbLine
 10
4.63091
 20
48.5421
 30
0.0
 11
4.54206
 21
48.6309
 31
0.0
  0
LINE
  5
A3
330
17
100
AcDbEntity
  8
CUT
100
AcDbLine
 10
4.54206
 20
48.6309
 30
0.0
 11
4.45897
 21
48.7252
 31
0.0
  0
LINE
  5
A4
330
17
100
AcDbEntity
  8
CUT
100
AcDbLine
 10
4.45897
 20
48.7252
 30
0.0
 11
4.38197
 21
48.8244
 31
0.0
  0
LINE
  5
A5
330
17
100
AcDbEntity
  8
CUT
100
AcDbLine
 10
4.38197
 20
48.8244
 30
0.0
 11
4.31135
 21
48.9283
 31
0.0
  0
LINE
  5
A6
330
17
100
AcDbEntity
  8
CUT
100
AcDbLine
 10
4.31135
 20
48.9283
 30
0.0
 11
4.24739
 21
49.0365
 31
0.0
  0
LINE
  5
A7
330
17
100
AcDbEntity
  8
CUT
100
AcDbLine
 10
4.24739
 20
49.0365
 30
0.0
 11
4.19035
 21
49.1484
 31
0.0
  0
LINE
  5
A8
330
17
100
AcDbEntity
  8
CUT
100
AcDbLine
 10
4.19035
 20
49.1484
 30
0.0
 11
4.14045
 21
49.2638
 31
0.0
  0
LINE
  5
A9
330
17
100
AcDbEntity
  8
CUT
100
AcDbLine
 10
4.14045
 20
49.2638
 30
0.0
 11
4.09789
 21
49.382
 31
0.0
  0
LINE
  5
AA
330
17
100
AcDbEntity
  8
CUT
100
AcDbLine
 10
4.09789
 20
49.382
 30
0.0
 11
4.06283
 21
49.5026
 31
0.0
  0
LINE
  5
AB
330
17
100
AcDbEntity
  8
CUT
100
AcDbLine
 10
4.06283
 20
49.5026
 30
0.0
 11
4.03543
 21
49.6252
 31
0.0
  0
LINE
  5
AC
330
17
100
AcDbEntity
  8
CUT
100
AcDbLine
 10
4.03543
 20
49.6252
 30
0.0
 11
4.01577
 21
49.7493
 31
0.0
  0
LINE
  5
AD
330
17
100
AcDbEntity
  8
CUT
100
AcDbLine
 10
4.01577
 20
49.7493
 30
0.0
 11
4.00395
 21
49.8744
 31
0.0
  0
LINE
  5
AE
330
17
100
AcDbEntity
  8
CUT
100
AcDbLine
 10
4.00395
 20
49.8744
 30
0.0
 11
4.0
 21
50.0
 31
0.0
  0
LINE
  5
AF
330
17
100
AcDbEntity
  8
CUT
100
AcDbLine
 10
4.0
 20
150.0
 30
0.0
 11
4.00395
 21
150.126
 31
0.0
  0
LINE
  5
B0
330
17
100
AcDbEntity
  8
CUT
100
AcDbLine
 10
4.00395
 20
150.126
 30
0.0
 11
4.01577
 21
150.251
 31
0.0
  0
LINE
  5
B1
330
17
100
AcDbEntity
  8
CUT
100
AcDbLine
 10
4.01577
 20
150.251
 30
0.0
 11
4.03543
 21
150.375
 31
0.0
  0
LINE
  5
B2
330
17
100
AcDbEntity
  8
CUT
100
AcDbLine
 10
4.03543
 20
150.375
 30
0.0
 11
4.06283
 21
150.497
 31
0.0
  0
LINE
  5
B3
330
17
100
AcDbEntity
  8
CUT
100
AcDbLine
 10
4.06283
 20
150.497
 30
0.0
 11
4.09789
 21
150.618
 31
0.0
  0
LINE
  5
B4
330
17
100
AcDbEntity
  8
CUT
100
AcDbLine
 10
4.09789
 20
150.618
 30
0.0
 11
4.14045
 21
150.736
 31
0.0
  0
LINE
  5
B5
330
17
100
AcDbEntity
  8
CUT
100
AcDbLine
 10
4.14045
 20
150.736
 30
0.0
 11
4.19035
 21
150.852
 31
0.0
  0
LINE
  5
B6
330
17
100
AcDbEntity
  8
CUT
100
AcDbLine
 10
4.19035
 20
150.852
 30
0.0
 11
4.24739
 21
150.964
 31
0.0
  0
LINE
  5
B7
330
17
100
AcDbEntity
  8
CUT
100
AcDbLine
 10
4.24739
 20
150.964
 30
0.0
 11
4.31135
 21
151.072
 31
0.0
  0
LINE
  5
B8
330
17
100
AcDbEntity
  8
CUT
100
AcDbLine
 10
4.31135
 20
151.072
 30
0.0
 11
4.38197
 21
151.176
 31
0.0
  0
LINE
  5
B9
330
17
100
AcDbEntity
  8
CUT
100
AcDbLine
 10
4.38197
 20
151.176
 30
0.0
 11
4.45897
 21
151.275
 31
0.0
  0
LINE
  5
BA
330
17
100
AcDbEntity
  8
CUT
100
AcDbLine
 10
4.45897
 20
151.275
 30
0.0
 11
4.54206
 21
151.369
 31
0.0
  0
LINE
  5
BB
330
17
100
AcDbEntity
  8
CUT
100
AcDbLine
 10
4.54206
 20
151.369
 30
0.0
 11
4.63091
 21
151.458
 31
0.0
  0
LINE
  5
BC
330
17
100
AcDbEntity
  8
CUT
100
AcDbLine
 10
4.63091
 20
151.458
 30
0.0
 11
4.72515
 21
151.541
 31
0.0
  0
LINE
  5
BD
330
17
100
AcDbEntity
  8
CUT
100
AcDbLine
 10
4.72515
 20
151.541
 30
0.0
 11
4.82443
 21
151.618
 31
0.0
  0
LINE
  5
BE
330
17
100
AcDbEntity
  8
CUT
100
AcDbLine
 10
4.82443
 20
151.618
 30
0.0
 11
4.92835
 21
151.689
 31
0.0
  0
LINE
  5
BF
330
17
100
AcDbEntity
  8
CUT
100
AcDbLine
 10
4.92835
 20
151.689
 30
0.0
 11
5.03649
 21
151.753
 31
0.0
  0
LINE
  5
C0
330
17
100
AcDbEntity
  8
CUT
100
AcDbLine
 10
5.03649
 20
151.753
 30
0.0
 11
5.14844
 21
151.81
 31
0.0
  0
LINE
  5
C1
330
17
100
AcDbEntity
  8
CUT
100
AcDbLine
 10
5.14844
 20
151.81
 30
0.0
 11
5.26375
 21
151.86
 31
0.0
  0
LINE
  5
C2
330
17
100
AcDbEntity
  8
CUT
100
AcDbLine
 10
5.26375
 20
151.86
 30
0.0
 11
5.38197
 21
151.902
 31
0.0
  0
LINE
  5
C3
330
17
100
AcDbEntity
  8
CUT
100
AcDbLine
 10
5.38197
 20
151.902
 30
0.0
 11
5.50262
 21
151.937
 31
0.0
  0
LINE
  5
C4
330
17
100
AcDbEntity
  8
CUT
100
AcDbLine
 10
5.50262
 20
151.937
 30
0.0
 11
5.62524
 21
151.965
 31
0.0
  0
LINE
  5
C5
330
17
100
AcDbEntity
  8
CUT
100
AcDbLine
 10
5.62524
 20
151.965
 30
0.0
 11
5.74933
 21
151.984
 31
0.0
  0
LINE
  5
C6
330
17
100
AcDbEntity
  8
CUT
100
AcDbLine
 10
5.74933
 20
151.984
 30
0.0
 11
5.87442
 21
151.996
 31
0.0
  0
LINE
  5
C7
330
17
100
AcDbEntity
  8
CUT
100
AcDbLine
 10
5.87442
 20
151.996
 30
0.0
 11
6.0
 21
152.0
 31
0.0
  0
LINE
  5
C8
330
17
100
AcDbEntity
  8
CUT
100
AcDbLine
 10
6.0
 20
152.0
 30
0.0
 11
6.12558
 21
151.996
 31
0.0
  0
LINE
  5
C9
330
17
100
AcDbEntity
  8
CUT
100
AcDbLine
 10
6.12558
 20
151.996
 30
0.0
 11
6.25067
 21
151.984
 31
0.0
  0
LINE
  5
CA
330
17
100
AcDbEntity
  8
CUT
100
AcDbLine
 10
6.25067
 20
151.984
 30
0.0
 11
6.37476
 21
151.965
 31
0.0
  0
LINE
  5
CB
330
17
100
AcDbEntity
  8
CUT
100
AcDbLine
 10
6.37476
 20
151.965
 30
0.0
 11
6.49738
 21
151.937
 31
0.0
  0
LINE
  5
CC
330
17
100
AcDbEntity
  8
CUT
100
AcDbLine
 10
6.49738
 20
151.937
 30
0.0
 11
6.61803
 21
151.902
 31
0.0
  0
LINE
  5
CD
330
17
100
AcDbEntity
  8
CUT
100
AcDbLine
 10
6.61803
 20
151.902
 30
0.0
 11
6.73625
 21
151.86
 31
0.0
  0
LINE
  5
CE
330
17
100
AcDbEntity
  8
CUT
100
AcDbLine
 10
6.73625
 20
151.86
 30
0.0
 11
6.85156
 21
151.81
 31
0.0
  0
LINE
  5
CF
330
17
100
AcDbEntity
  8
CUT
100
AcDbLine
 10
6.85156
 20
151.81
 30
0.0
 11
6.96351
 21
151.753
 31
0.0
  0
LINE
  5
D0
330
17
100
AcDbEntity
  8
CUT
100
AcDbLine
 10
6.96351
 20
151.753
 30
0.0
 11
7.07165
 21
151.689
 31
0.0
  0
LINE
  5
D1
330
17
100
AcDbEntity
  8
CUT
100
AcDbLine
 10
7.07165
 20
151.689
 30
0.0
 11
7.17557
 21
151.618
 31
0.0
  0
LINE
  5
D2
330
17
100
AcDbEntity
  8
CUT
100
AcDbLine
 10
7.17557
 20
151.618
 30
0.0
 11
7.27485
 21
151.541
 31
0.0
  0
LINE
  5
D3
330
17
100
AcDbEntity
  8
CUT
100
AcDbLine
 10
7.27485
 20
151.541
 30
0.0
 11
7.36909
 21
151.458
 31
0.0
  0
LINE
  5
D4
330
17
100
AcDbEntity
  8
CUT
100
AcDbLine
 10
7.36909
 20
151.458
 30
0.0
 11
7.45794
 21
151.369
 31
0.0
  0
LINE
  5
D5
330
17
100
AcDbEntity
  8
CUT
100
AcDbLine
 10
7.45794
 20
151.369
 30
0.0
 11
7.54103
 21
151.275
 31
0.0
  0
LINE
  5
D6
330
17
100
AcDbEntity
  8
CUT
100
AcDbLine
 10
7.54103
 20
151.275
 30
0.0
 11
7.61803
 21
151.176
 31
0.0
  0
LINE
  5
D7
330
17
100
AcDbEntity
  8
CUT
100
AcDbLine
 10
7.61803
 20
151.176
 30
0.0
 11
7.68866
 21
151.072
 31
0.0
  0
LINE
  5
D8
330
17
100
AcDbEntity
  8
CUT
100
AcDbLine
 10
7.68866
 20
151.072
 30
0.0
 11
7.75261
 21
150.964
 31
0.0
  0
LINE
  5
D9
330
17
100
AcDbEntity
  8
CUT
100
AcDbLine
 10
7.75261
 20
150.964
 30
0.0
 11
7.80965
 21
150.852
 31
0.0
  0
LINE
  5
DA
330
17
100
AcDbEntity
  8
CUT
100
AcDbLine
 10
7.80965
 20
150.852
 30
0.0
 11
7.85955
 21
150.736
 31
0.0
  0
LINE
  5
DB
330
17
100
AcDbEntity
  8
CUT
100
AcDbLine
 10
7.85955
 20
150.736
 30
0.0
 11
7.90211
 21
150.618
 31
0.0
  0
LINE
  5
DC
330
17
100
AcDbEntity
  8
CUT
100
AcDbLine
 10
7.90211
 20
150.618
 30
0.0
 11
7.93717
 21
150.497
 31
0.0
  0
LINE
  5
DD
330
17
100
AcDbEntity
  8
CUT
100
AcDbLine
 10
7.93717
 20
150.497
 30
0.0
 11
7.96457
 21
150.375
 31
0.0
  0
LINE
  5
DE
330
17
100
AcDbEntity
  8
CUT
100
AcDbLine
 10
7.96457
 20
150.375
 30
0.0
 11
7.98423
 21
150.251
 31
0.0
  0
LINE
  5
DF
330
17
100
AcDbEntity
  8
CUT
100
AcDbLine
 10
7.98423
 20
150.251
 30
0.0
 11
7.99605
 21
150.126
 31
0.0
  0
LINE
  5
E0
330
17
100
AcDbEntity
  8
CUT
100
AcDbLine
 10
7.99605
 20
150.126
 30
0.0
 11
8.0
 21
150.0
 31
0.0
  0
LINE
  5
E1
330
17
100
AcDbEntity
  8
CUT
100
AcDbLine
 10
8.0
 20
150.0
 30
0.0
 11
7.99605
 21
149.874
 31
0.0
  0
LINE
  5
E2
330
17
100
AcDbEntity
  8
CUT
100
AcDbLine
 10
7.99605
 20
149.874
 30
0.0
 11
7.98423
 21
149.749
 31
0.0
  0
LINE
  5
E3
330
17
100
AcDbEntity
  8
CUT
100
AcDbLine
 10
7.98423
 20
149.749
 30
0.0
 11
7.96457
 21
149.625
 31
0.0
  0
LINE
  5
E4
330
17
100
AcDbEntity
  8
CUT
100
AcDbLine
 10
7.96457
 20
149.625
 30
0.0
 11
7.93717
 21
149.503
 31
0.0
  0
LINE
  5
E5
330
17
100
AcDbEntity
  8
CUT
100
AcDbLine
 10
7.93717
 20
149.503
 30
0.0
 11
7.90211
 21
149.382
 31
0.0
  0
LINE
  5
E6
330
17
100
AcDbEntity
  8
CUT
100
AcDbLine
 10
7.90211
 20
149.382
 30
0.0
 11
7.85955
 21
149.264
 31
0.0
  0
LINE
  5
E7
330
17
100
AcDbEntity
  8
CUT
100
AcDbLine
 10
7.85955
 20
149.264
 30
0.0
 11
7.80965
 21
149.148
 31
0.0
  0
LINE
  5
E8
330
17
100
AcDbEntity
  8
CUT
100
AcDbLine
 10
7.80965
 20
149.148
 30
0.0
 11
7.75261
 21
149.036
 31
0.0
  0
LINE
  5
E9
330
17
100
AcDbEntity
  8
CUT
100
AcDbLine
 10
7.75261
 20
149.036
 30
0.0
 11
7.68866
 21
148.928
 31
0.0
  0
LINE
  5
EA
330
17
100
AcDbEntity
  8
CUT
100
AcDbLine
 10
7.68866
 20
148.928
 30
0.0
 11
7.61803
 21
148.824
 31
0.0
  0
LINE
  5
EB
330
17
100
AcDbEntity
  8
CUT
100
AcDbLine
 10
7.61803
 20
148.824
 30
0.0
 11
7.54103
 21
148.725
 31
0.0
  0
LINE
  5
EC
330
17
100
AcDbEntity
  8
CUT
100
AcDbLine
 10
7.54103
 20
148.725
 30
0.0
 11
7.45794
 21
148.631
 31
0.0
  0
LINE
  5
ED
330
17
100
AcDbEntity
  8
CUT
100
AcDbLine
 10
7.45794
 20
148.631
 30
0.0
 11
7.36909
 21
148.542
 31
0.0
  0
LINE
  5
EE
330
17
100
AcDbEntity
  8
CUT
100
AcDbLine
 10
7.36909
 20
148.542
 30
0.0
 11
7.27485
 21
148.459
 31
0.0
  0
LINE
  5
EF
330
17
100
AcDbEntity
  8
CUT
100
AcDbLine
 10
7.27485
 20
148.459
 30
0.0
 11
7.17557
 21
148.382
 31
0.0
  0
LINE
  5
F0
330
17
100
AcDbEntity
  8
CUT
100
AcDbLine
 10
7.17557
 20
148.382
 30
0.0
 11
7.07165
 21
148.311
 31
0.0
  0
LINE
  5
F1
330
17
100
AcDbEntity
  8
CUT
100
AcDbLine
 10
7.07165
 20
148.311
 30
0.0
 11
6.96351
 21
148.247
 31
0.0
  0
LINE
  5
F2
330
17
100
AcDbEntity
  8
CUT
100
AcDbLine
 10
6.96351
 20
148.247
 30
0.0
 11
6.85156
 21
148.19
 31
0.0
  0
LINE
  5
F3
330
17
100
AcDbEntity
  8
CUT
100
AcDbLine
 10
6.85156
 20
148.19
 30
0.0
 11
6.73625
 21
148.14
 31
0.0
  0
LINE
  5
F4
330
17
100
AcDbEntity
  8
CUT
100
AcDbLine
 10
6.73625
 20
148.14
 30
0.0
 11
6.61803
 21
148.098
 31
0.0
  0
LINE
  5
F5
330
17
100
AcDbEntity
  8
CUT
100
AcDbLine
 10
6.61803
 20
148.098
 30
0.0
 11
6.49738
 21
148.063
 31
0.0
  0
LINE
  5
F6
330
17
100
AcDbEntity
  8
CUT
100
AcDbLine
 10
6.49738
 20
148.063
 30
0.0
 11
6.37476
 21
148.035
 31
0.0
  0
LINE
  5
F7
330
17
100
AcDbEntity
  8
CUT
100
AcDbLine
 10
6.37476
 20
148.035
 30
0.0
 11
6.25067
 21
148.016
 31
0.0
  0
LINE
  5
F8
330
17
100
AcDbEntity
  8
CUT
100
AcDbLine
 10
6.25067
 20
148.016
 30
0.0
 11
6.12558
 21
148.004
 31
0.0
  0
LINE
  5
F9
330
17
100
AcDbEntity
  8
CUT
100
AcDbLine
 10
6.12558
 20
148.004
 30
0.0
 11
6.0
 21
148.0
 31
0.0
  0
LINE
  5
FA
330
17
100
AcDbEntity
  8
CUT
100
AcDbLine
 10
6.0
 20
148.0
 30
0.0
 11
5.87442
 21
148.004
 31
0.0
  0
LINE
  5
FB
330
17
100
AcDbEntity
  8
CUT
100
AcDbLine
 10
5.87442
 20
148.004
 30
0.0
 11
5.74933
 21
148.016
 31
0.0
  0
LINE
  5
FC
330
17
100
AcDbEntity
  8
CUT
100
AcDbLine
 10
5.74933
 20
148.016
 30
0.0
 11
5.62524
 21
148.035
 31
0.0
  0
LINE
  5
FD
330
17
100
AcDbEntity
  8
CUT
100
AcDbLine
 10
5.62524
 20
148.035
 30
0.0
 11
5.50262
 21
148.063
 31
0.0
  0
LINE
  5
FE
330
17
100
AcDbEntity
  8
CUT
100
AcDbLine
 10
5.50262
 20
148.063
 30
0.0
 11
5.38197
 21
148.098
 31
0.0
  0
LINE
  5
FF
330
17
100
AcDbEntity
  8
CUT
100
AcDbLine
 10
5.38197
 20
148.098
 30
0.0
 11
5.26375
 21
148.14
 31
0.0
  0
LINE
  5
100
330
17
100
AcDbEntity
  8
CUT
100
AcDbLine
 10
5.26375
 20
148.14
 30
0.0
 11
5.14844
 21
148.19
 31
0.0
  0
LINE
  5
101
330
17
100
AcDbEntity
  8
CUT
100
AcDbLine
 10
5.14844
 20
148.19
 30
0.0
 11
5.03649
 21
148.247
 31
0.0
  0
LINE
  5
102
330
17
100
AcDbEntity
  8
CUT
100
AcDbLine
 10
5.03649
 20
148.247
 30
0.0
 11
4.92835
 21
148.311
 31
0.0
  0
LINE
  5
103
330
17
100
AcDbEntity
  8
CUT
100
AcDbLine
 10
4.92835
 20
148.311
 30
0.0
 11
4.82443
 21
148.382
 31
0.0
  0
LINE
  5
104
330
17
100
AcDbEntity
  8
CUT
100
AcDbLine
 10
4.82443
 20
148.382
 30
0.0
 11
4.72515
 21
148.459
 31
0.0
  0
LINE
  5
105
330
17
100
AcDbEntity
  8
CUT
100
AcDbLine
 10
4.72515
 20
148.459
 30
0.0
 11
4.63091
 21
148.542
 31
0.0
  0
LINE
  5
106
330
17
100
AcDbEntity
  8
CUT
100
AcDbLine
 10
4.63091
 20
148.542
 30
0.0
 11
4.54206
 21
148.631
 31
0.0
  0
LINE
  5
107
330
17
100
AcDbEntity
  8
CUT
100
AcDbLine
 10
4.54206
 20
148.631
 30
0.0
 11
4.45897
 21
148.725
 31
0.0
  0
LINE
  5
108
330
17
100
AcDbEntity
  8
CUT
100
AcDbLine
 10
4.45897
 20
148.725
 30
0.0
 11
4.38197
 21
148.824
 31
0.0
  0
LINE
  5
109
330
17
100
AcDbEntity
  8
CUT
100
AcDbLine
 10
4.38197
 20
148.824
 30
0.0
 11
4.31135
 21
148.928
 31
0.0
  0
LINE
  5
10A
330
17
100
AcDbEntity
  8
CUT
100
AcDbLine
 10
4.31135
 20
148.928
 30
0.0
 11
4.24739
 21
149.036
 31
0.0
  0
LINE
  5
10B
330
17
100
AcDbEntity
  8
CUT
100
AcDbLine
 10
4.24739
 20
149.036
 30
0.0
 11
4.19035
 21
149.148
 31
0.0
  0
LINE
  5
10C
330
17
100
AcDbEntity
  8
CUT
100
AcDbLine
 10
4.19035
 20
149.148
 30
0.0
 11
4.14045
 21
149.264
 31
0.0
  0
LINE
  5
10D
330
17
100
AcDbEntity
  8
CUT
100
AcDbLine
 10
4.14045
 20
149.264
 30
0.0
 11
4.09789
 21
149.382
 31
0.0
  0
LINE
  5
10E
330
17
100
AcDbEntity
  8
CUT
100
AcDbLine
 10
4.09789
 20
149.382
 30
0.0
 11
4.06283
 21
149.503
 31
0.0
  0
LINE
  5
10F
330
17
100
AcDbEntity
  8
CUT
100
AcDbLine
 10
4.06283
 20
149.503
 30
0.0
 11
4.03543
 21
149.625
 31
0.0
  0
LINE
  5
110
330
17
100
AcDbEntity
  8
CUT
100
AcDbLine
 10
4.03543
 20
149.625
 30
0.0
 11
4.01577
 21
149.749
 31
0.0
  0
LINE
  5
111
330
17
100
AcDbEntity
  8
CUT
100
AcDbLine
 10
4.01577
 20
149.749
 30
0.0
 11
4.00395
 21
149.874
 31
0.0
  0
LINE
  5
112
330
17
100
AcDbEntity
  8
CUT
100
AcDbLine
 10
4.00395
 20
149.874
 30
0.0
 11
4.0
 21
150.0
 31
0.0
  0
LINE
  5
113
330
17
100
AcDbEntity
  8
CUT
100
AcDbLine
 10
48.0
 20
6.0
 30
0.0
 11
48.0039
 21
6.12558
 31
0.0
  0
LINE
  5
114
330
17
100
AcDbEntity
  8
CUT
100
AcDbLine
 10
48.0039
 20
6.12558
 30
0.0
 11
48.0158
 21
6.25067
 31
0.0
  0
LINE
  5
115
330
17
100
AcDbEntity
  8
CUT
100
AcDbLine
 10
48.0158
 20
6.25067
 30
0.0
 11
48.0354
 21
6.37476
 31
0.0
  0
LINE
  5
116
330
17
100
AcDbEntity
  8
CUT
100
AcDbLine
 10
48.0354
 20
6.37476
 30
0.0
 11
48.0628
 21
6.49738
 31
0.0
  0
LINE
  5
117
330
17
100
AcDbEntity
  8
CUT
100
AcDbLine
 10
48.0628
 20
6.49738
 30
0.0
 11
48.0979
 21
6.61803
 31
0.0
  0
LINE
  5
118
330
17
100
AcDbEntity
  8
CUT
100
AcDbLine
 10
48.0979
 20
6.61803
 30
0.0
 11
48.1404
 21
6.73625
 31
0.0
  0
LINE
  5
119
330
17
100
AcDbEntity
  8
CUT
100
AcDbLine
 10
48.1404
 20
6.73625
 30
0.0
 11
48.1903
 21
6.85156
 31
0.0
  0
LINE
  5
11A
330
17
100
AcDbEntity
  8
CUT
100
AcDbLine
 10
48.1903
 20
6.85156
 30
0.0
 11
48.2474
 21
6.96351
 31
0.0
  0
LINE
  5
11B
330
17
100
AcDbEntity
  8
CUT
100
AcDbLine
 10
48.2474
 20
6.96351
 30
0.0
 11
48.3113
 21
7.07165
 31
0.0
  0
LINE
  5
11C
330
17
100
AcDbEntity
  8
CUT
100
AcDbLine
 10
48.3113
 20
7.07165
 30
0.0
 11
48.382
 21
7.17557
 31
0.0
  0
LINE
  5
11D
330
17
100
AcDbEntity
  8
CUT
100
AcDbLine
 10
48.382
 20
7.17557
 30
0.0
 11
48.459
 21
7.27485
 31
0.0
  0
LINE
  5
11E
330
17
100
AcDbEntity
  8
CUT
100
AcDbLine
 10
48.459
 20
7.27485
 30
0.0
 11
48.5421
 21
7.36909
 31
0.0
  0
LINE
  5
11F
330
17
100
AcDbEntity
  8
CUT
100
AcDbLine
 10
48.5421
 20
7.36909
 30
0.0
 11
48.6309
 21
7.45794
 31
0.0
  0
LINE
  5
120
330
17
100
AcDbEntity
  8
CUT
100
AcDbLine
 10
48.6309
 20
7.45794
 30
0.0
 11
48.7252
 21
7.54103
 31
0.0
  0
LINE
  5
121
330
17
100
AcDbEntity
  8
CUT
100
AcDbLine
 10
48.7252
 20
7.54103
 30
0.0
 11
48.8244
 21
7.61803
 31
0.0
  0
LINE
  5
122
330
17
100
AcDbEntity
  8
CUT
100
AcDbLine
 10
48.8244
 20
7.61803
 30
0.0
 11
48.9283
 21
7.68865
 31
0.0
  0
LINE
  5
123
330
17
100
AcDbEntity
  8
CUT
100
AcDbLine
 10
48.9283
 20
7.68865
 30
0.0
 11
49.0365
 21
7.75261
 31
0.0
  0
LINE
  5
124
330
17
100
AcDbEntity
  8
CUT
100
AcDbLine
 10
49.0365
 20
7.75261
 30
0.0
 11
49.1484
 21
7.80965
 31
0.0
  0
LINE
  5
125
330
17
100
AcDbEntity
  8
CUT
100
AcDbLine
 10
49.1484
 20
7.80965
 30
0.0
 11
49.2638
 21
7.85955
 31
0.0
  0
LINE
  5
126
330
17
100
AcDbEntity
  8
CUT
100
AcDbLine
 10
49.2638
 20
7.85955
 30
0.0
 11
49.382
 21
7.90211
 31
0.0
  0
LINE
  5
127
330
17
100
AcDbEntity
  8
CUT
100
AcDbLine
 10
49.382
 20
7.90211
 30
0.0
 11
49.5026
 21
7.93717
 31
0.0
  0
LINE
  5
128
330
17
100
AcDbEntity
  8
CUT
100
AcDbLine
 10
49.5026
 20
7.93717
 30
0.0
 11
49.6252
 21
7.96457
 31
0.0
  0
LINE
  5
129
330
17
100
AcDbEntity
  8
CUT
100
AcDbLine
 10
49.6252
 20
7.96457
 30
0.0
 11
49.7493
 21
7.98423
 31
0.0
  0
LINE
  5
12A
330
17
100
AcDbEntity
  8
CUT
100
AcDbLine
 10
49.7493
 20
7.98423
 30
0.0
 11
49.8744
 21
7.99605
 31
0.0
  0
LINE
  5
12B
330
17
100
AcDbEntity
  8
CUT
100
AcDbLine
 10
49.8744
 20
7.99605
 30
0.0
 11
50.0
 21
8.0
 31
0.0
  0
LINE
  5
12C
330
17
100
AcDbEntity
  8
CUT
100
AcDbLine
 10
50.0
 20
8.0
 30
0.0
 11
50.1256
 21
7.99605
 31
0.0
  0
LINE
  5
12D
330
17
100
AcDbEntity
  8
CUT
100
AcDbLine
 10
50.1256
 20
7.99605
 30
0.0
 11
50.2507
 21
7.98423
 31
0.0
  0
LINE
  5
12E
330
17
100
AcDbEntity
  8
CUT
100
AcDbLine
 10
50.2507
 20
7.98423
 30
0.0
 11
50.3748
 21
7.96457
 31
0.0
  0
LINE
  5
12F
330
17
100
AcDbEntity
  8
CUT
100
AcDbLine
 10
50.3748
 20
7.96457
 30
0.0
 11
50.4974
 21
7.93717
 31
0.0
  0
LINE
  5
130
330
17
100
AcDbEntity
  8
CUT
100
AcDbLine
 10
50.4974
 20
7.93717
 30
0.0
 11
50.618
 21
7.90211
 31
0.0
  0
LINE
  5
131
330
17
100
AcDbEntity
  8
CUT
100
AcDbLine
 10
50.618
 20
7.90211
 30
0.0
 11
50.7362
 21
7.85955
 31
0.0
  0
LINE
  5
132
330
17
100
AcDbEntity
  8
CUT
100
AcDbLine
 10
50.7362
 20
7.85955
 30
0.0
 11
50.8516
 21
7.80965
 31
0.0
  0
LINE
  5
133
330
17
100
AcDbEntity
  8
CUT
100
AcDbLine
 10
50.8516
 20
7.80965
 30
0.0
 11
50.9635
 21
7.75261
 31
0.0
  0
LINE
  5
134
330
17
100
AcDbEntity
  8
CUT
100
AcDbLine
 10
50.9635
 20
7.75261
 30
0.0
 11
51.0717
 21
7.68865
 31
0.0
  0
LINE
  5
135
330
17
100
AcDbEntity
  8
CUT
100
AcDbLine
 10
51.0717
 20
7.68865
 30
0.0
 11
51.1756
 21
7.61803
 31
0.0
  0
LINE
  5
136
330
17
100
AcDbEntity
  8
CUT
100
AcDbLine
 10
51.1756
 20
7.61803
 30
0.0
 11
51.2748
 21
7.54103
 31
0.0
  0
LINE
  5
137
330
17
100
AcDbEntity
  8
CUT
100
AcDbLine
 10
51.2748
 20
7.54103
 30
0.0
 11
51.3691
 21
7.45794
 31
0.0
  0
LINE
  5
138
330
17
100
AcDbEntity
  8
CUT
100
AcDbLine
 10
51.3691
 20
7.45794
 30
0.0
 11
51.4579
 21
7.36909
 31
0.0
  0
LINE
  5
139
330
17
100
AcDbEntity
  8
CUT
100
AcDbLine
 10
51.4579
 20
7.36909
 30
0.0
 11
51.541
 21
7.27485
 31
0.0
  0
LINE
  5
13A
330
17
100
AcDbEntity
  8
CUT
100
AcDbLine
 10
51.541
 20
7.27485
 30
0.0
 11
51.618
 21
7.17557
 31
0.0
  0
LINE
  5
13B
330
17
100
AcDbEntity
  8
CUT
100
AcDbLine
 10
51.618
 20
7.17557
 30
0.0
 11
51.6887
 21
7.07165
 31
0.0
  0
LINE
  5
13C
330
17
100
AcDbEntity
  8
CUT
100
AcDbLine
 10
51.6887
 20
7.07165
 30
0.0
 11
51.7526
 21
6.96351
 31
0.0
  0
LINE
  5
13D
330
17
100
AcDbEntity
  8
CUT
100
AcDbLine
 10
51.7526
 20
6.96351
 30
0.0
 11
51.8097
 21
6.85156
 31
0.0
  0
LINE
  5
13E
330
17
100
AcDbEntity
  8
CUT
100
AcDbLine
 10
51.8097
 20
6.85156
 30
0.0
 11
51.8596
 21
6.73625
 31
0.0
  0
LINE
  5
13F
330
17
100
AcDbEntity
  8
CUT
100
AcDbLine
 10
51.8596
 20
6.73625
 30
0.0
 11
51.9021
 21
6.61803
 31
0.0
  0
LINE
  5
140
330
17
100
AcDbEntity
  8
CUT
100
AcDbLine
 10
51.9021
 20
6.61803
 30
0.0
 11
51.9372
 21
6.49738
 31
0.0
  0
LINE
  5
141
330
17
100
AcDbEntity
  8
CUT
100
AcDbLine
 10
51.9372
 20
6.49738
 30
0.0
 11
51.9646
 21
6.37476
 31
0.0
  0
LINE
  5
142
330
17
100
AcDbEntity
  8
CUT
100
AcDbLine
 10
51.9646
 20
6.37476
 30
0.0
 11
51.9842
 21
6.25067
 31
0.0
  0
LINE
  5
143
330
17
100
AcDbEntity
  8
CUT
100
AcDbLine
 10
51.9842
 20
6.25067
 30
0.0
 11
51.9961
 21
6.12558
 31
0.0
  0
LINE
  5
144
330
17
100
AcDbEntity
  8
CUT
100
AcDbLine
 10
51.9961
 20
6.12558
 30
0.0
 11
52.0
 21
6.0
 31
0.0
  0
LINE
  5
145
330
17
100
AcDbEntity
  8
CUT
100
AcDbLine
 10
52.0
 20
6.0
 30
0.0
 11
51.9961
 21
5.87442
 31
0.0
  0
LINE
  5
146
330
17
100
AcDbEntity
  8
CUT
100
AcDbLine
 10
51.9961
 20
5.87442
 30
0.0
 11
51.9842
 21
5.74933
 31
0.0
  0
LINE
  5
147
330
17
100
AcDbEntity
  8
CUT
100
AcDbLine
 10
51.9842
 20
5.74933
 30
0.0
 11
51.9646
 21
5.62524
 31
0.0
  0
LINE
  5
148
330
17
100
AcDbEntity
  8
CUT
100
AcDbLine
 10
51.9646
 20
5.62524
 30
0.0
 11
51.9372
 21
5.50262
 31
0.0
  0
LINE
  5
149
330
17
100
AcDbEntity
  8
CUT
100
AcDbLine
 10
51.9372
 20
5.50262
 30
0.0
 11
51.9021
 21
5.38197
 31
0.0
  0
LINE
  5
14A
330
17
100
AcDbEntity
  8
CUT
100
AcDbLine
 10
51.9021
 20
5.38197
 30
0.0
 11
51.8596
 21
5.26375
 31
0.0
  0
LINE
  5
14B
330
17
100
AcDbEntity
  8
CUT
100
AcDbLine
 10
51.8596
 20
5.26375
 30
0.0
 11
51.8097
 21
5.14844
 31
0.0
  0
LINE
  5
14C
330
17
100
AcDbEntity
  8
CUT
100
AcDbLine
 10
51.8097
 20
5.14844
 30
0.0
 11
51.7526
 21
5.03649
 31
0.0
  0
LINE
  5
14D
330
17
100
AcDbEntity
  8
CUT
100
AcDbLine
 10
51.7526
 20
5.03649
 30
0.0
 11
51.6887
 21
4.92835
 31
0.0
  0
LINE
  5
14E
330
17
100
AcDbEntity
  8
CUT
100
AcDbLine
 10
51.6887
 20
4.92835
 30
0.0
 11
51.618
 21
4.82443
 31
0.0
  0
LINE
  5
14F
330
17
100
AcDbEntity
  8
CUT
100
AcDbLine
 10
51.618
 20
4.82443
 30
0.0
 11
51.541
 21
4.72515
 31
0.0
  0
LINE
  5
150
330
17
100
AcDbEntity
  8
CUT
100
AcDbLine
 10
51.541
 20
4.72515
 30
0.0
 11
51.4579
 21
4.63091
 31
0.0
  0
LINE
  5
151
330
17
100
AcDbEntity
  8
CUT
100
AcDbLine
 10
51.4579
 20
4.63091
 30
0.0
 11
51.3691
 21
4.54206
 31
0.0
  0
LINE
  5
152
330
17
100
AcDbEntity
  8
CUT
100
AcDbLine
 10
51.3691
 20
4.54206
 30
0.0
 11
51.2748
 21
4.45897
 31
0.0
  0
LINE
  5
153
330
17
100
AcDbEntity
  8
CUT
100
AcDbLine
 10
51.2748
 20
4.45897
 30
0.0
 11
51.1756
 21
4.38197
 31
0.0
  0
LINE
  5
154
330
17
100
AcDbEntity
  8
CUT
100
AcDbLine
 10
51.1756
 20
4.38197
 30
0.0
 11
51.0717
 21
4.31134
 31
0.0
  0
LINE
  5
155
330
17
100
AcDbEntity
  8
CUT
100
AcDbLine
 10
51.0717
 20
4.31134
 30
0.0
 11
50.9635
 21
4.24739
 31
0.0
  0
LINE
  5
156
330
17
100
AcDbEntity
  8
CUT
100
AcDbLine
 10
50.9635
 20
4.24739
 30
0.0
 11
50.8516
 21
4.19035
 31
0.0
  0
LINE
  5
157
330
17
100
AcDbEntity
  8
CUT
100
AcDbLine
 10
50.8516
 20
4.19035
 30
0.0
 11
50.7362
 21
4.14045
 31
0.0
  0
LINE
  5
158
330
17
100
AcDbEntity
  8
CUT
100
AcDbLine
 10
50.7362
 20
4.14045
 30
0.0
 11
50.618
 21
4.09789
 31
0.0
  0
LINE
  5
159
330
17
100
AcDbEntity
  8
CUT
100
AcDbLine
 10
50.618
 20
4.09789
 30
0.0
 11
50.4974
 21
4.06283
 31
0.0
  0
LINE
  5
15A
330
17
100
AcDbEntity
  8
CUT
100
AcDbLine
 10
50.4974
 20
4.06283
 30
0.0
 11
50.3748
 21
4.03543
 31
0.0
  0
LINE
  5
15B
330
17
100
AcDbEntity
  8
CUT
100
AcDbLine
 10
50.3748
 20
4.03543
 30
0.0
 11
50.2507
 21
4.01577
 31
0.0
  0
LINE
  5
15C
330
17
100
AcDbEntity
  8
CUT
100
AcDbLine
 10
50.2507
 20
4.01577
 30
0.0
 11
50.1256
 21
4.00395
 31
0.0
  0
LINE
  5
15D
330
17
100
AcDbEntity
  8
CUT
100
AcDbLine
 10
50.1256
 20
4.00395
 30
0.0
 11
50.0
 21
4.0
 31
0.0
  0
LINE
  5
15E
330
17
100
AcDbEntity
  8
CUT
100
AcDbLine
 10
50.0
 20
4.0
 30
0.0
 11
49.8744
 21
4.00395
 31
0.0
  0
LINE
  5
15F
330
17
100
AcDbEntity
  8
CUT
100
AcDbLine
 10
49.8744
 20
4.00395
 30
0.0
 11
49.7493
 21
4.01577
 31
0.0
  0
LINE
  5
160
330
17
100
AcDbEntity
  8
CUT
100
AcDbLine
 10
49.7493
 20
4.01577
 30
0.0
 11
49.6252
 21
4.03543
 31
0.0
  0
LINE
  5
161
330
17
100
AcDbEntity
  8
CUT
100
AcDbLine
 10
49.6252
 20
4.03543
 30
0.0
 11
49.5026
 21
4.06283
 31
0.0
  0
LINE
  5
162
330
17
100
AcDbEntity
  8
CUT
100
AcDbLine
 10
49.5026
 20
4.06283
 30
0.0
 11
49.382
 21
4.09789
 31
0.0
  0
LINE
  5
163
330
17
100
AcDbEntity
  8
CUT
100
AcDbLine
 10
49.382
 20
4.09789
 30
0.0
 11
49.2638
 21
4.14045
 31
0.0
  0
LINE
  5
164
330
17
100
AcDbEntity
  8
CUT
100
AcDbLine
 10
49.2638
 20
4.14045
 30
0.0
 11
49.1484
 21
4.19035
 31
0.0
  0
LINE
  5
165
330
17
100
AcDbEntity
  8
CUT
100
AcDbLine
 10
49.1484
 20
4.19035
 30
0.0
 11
49.0365
 21
4.24739
 31
0.0
  0
LINE
  5
166
330
17
100
AcDbEntity
  8
CUT
100
AcDbLine
 10
49.0365
 20
4.24739
 30
0.0
 11
48.9283
 21
4.31134
 31
0.0
  0
LINE
  5
167
330
17
100
AcDbEntity
  8
CUT
100
AcDbLine
 10
48.9283
 20
4.31134
 30
0.0
 11
48.8244
 21
4.38197
 31
0.0
  0
LINE
  5
168
330
17
100
AcDbEntity
  8
CUT
100
AcDbLine
 10
48.8244
 20
4.38197
 30
0.0
 11
48.7252
 21
4.45897
 31
0.0
  0
LINE
  5
169
330
17
100
AcDbEntity
  8
CUT
100
AcDbLine
 10
48.7252
 20
4.45897
 30
0.0
 11
48.6309
 21
4.54206
 31
0.0
  0
LINE
  5
16A
330
17
100
AcDbEntity
  8
CUT
100
AcDbLine
 10
48.6309
 20
4.54206
 30
0.0
 11
48.5421
 21
4.63091
 31
0.0
  0
LINE
  5
16B
330
17
100
AcDbEntity
  8
CUT
100
AcDbLine
 10
48.5421
 20
4.63091
 30
0.0
 11
48.459
 21
4.72515
 31
0.0
  0
LINE
  5
16C
330
17
100
AcDbEntity
  8
CUT
100
AcDbLine
 10
48.459
 20
4.72515
 30
0.0
 11
48.382
 21
4.82443
 31
0.0
  0
LINE
  5
16D
330
17
100
AcDbEntity
  8
CUT
100
AcDbLine
 10
48.382
 20
4.82443
 30
0.0
 11
48.3113
 21
4.92835
 31
0.0
  0
LINE
  5
16E
330
17
100
AcDbEntity
  8
CUT
100
AcDbLine
 10
48.3113
 20
4.92835
 30
0.0
 11
48.2474
 21
5.03649
 31
0.0
  0
LINE
  5
16F
330
17
100
AcDbEntity
  8
CUT
100
AcDbLine
 10
48.2474
 20
5.03649
 30
0.0
 11
48.1903
 21
5.14844
 31
0.0
  0
LINE
  5
170
330
17
100
AcDbEntity
  8
CUT
100
AcDbLine
 10
48.1903
 20
5.14844
 30
0.0
 11
48.1404
 21
5.26375
 31
0.0
  0
LINE
  5
171
330
17
100
AcDbEntity
  8
CUT
100
AcDbLine
 10
48.1404
 20
5.26375
 30
0.0
 11
48.0979
 21
5.38197
 31
0.0
  0
LINE
  5
172
330
17
100
AcDbEntity
  8
CUT
100
AcDbLine
 10
48.0979
 20
5.38197
 30
0.0
 11
48.0628
 21
5.50262
 31
0.0
  0
LINE
  5
173
330
17
100
AcDbEntity
  8
CUT
100
AcDbLine
 10
48.0628
 20
5.50262
 30
0.0
 11
48.0354
 21
5.62524
 31
0.0
  0
LINE
  5
174
330
17
100
AcDbEntity
  8
CUT
100
AcDbLine
 10
48.0354
 20
5.62524
 30
0.0
 11
48.0158
 21
5.74933
 31
0.0
  0
LINE
  5
175
330
17
100
AcDbEntity
  8
CUT
100
AcDbLine
 10
48.0158
 20
5.74933
 30
0.0
 11
48.0039
 21
5.87442
 31
0.0
  0
LINE
  5
176
330
17
100
AcDbEntity
  8
CUT
100
AcDbLine
 10
48.0039
 20
5.87442
 30
0.0
 11
48.0
 21
6.0
 31
0.0
  0
LINE
  5
177
330
17
100
AcDbEntity
  8
CUT
100
AcDbLine
 10
60.75
 20
72.5
 30
0.0
 11
60.7525
 21
72.5785
 31
0.0
  0
LINE
  5
178
330
17
100
AcDbEntity
  8
CUT
100
AcDbLine
 10
60.7525
 20
72.5785
 30
0.0
 11
60.7599
 21
72.6567
 31
0.0
  0
LINE
  5
179
330
17
100
AcDbEntity
  8
CUT
100
AcDbLine
 10
60.7599
 20
72.6567
 30
0.0
 11
60.7721
 21
72.7342
 31
0.0
  0
LINE
  5
17A
330
17
100
AcDbEntity
  8
CUT
100
AcDbLine
 10
60.7721
 20
72.7342
 30
0.0
 11
60.7893
 21
72.8109
 31
0.0
  0
LINE
  5
17B
330
17
100
AcDbEntity
  8
CUT
100
AcDbLine
 10
60.7893
 20
72.8109
 30
0.0
 11
60.8112
 21
72.8863
 31
0.0
  0
LINE
  5
17C
330
17
100
AcDbEntity
  8
CUT
100
AcDbLine
 10
60.8112
 20
72.8863
 30
0.0
 11
60.8378
 21
72.9602
 31
0.0
  0
LINE
  5
17D
330
17
100
AcDbEntity
  8
CUT
100
AcDbLine
 10
60.8378
 20
72.9602
 30
0.0
 11
60.869
 21
73.0322
 31
0.0
  0
LINE
  5
17E
330
17
100
AcDbEntity
  8
CUT
100
AcDbLine
 10
60.869
 20
73.0322
 30
0.0
 11
60.9046
 21
73.1022
 31
0.0
  0
LINE
  5
17F
330
17
100
AcDbEntity
  8
CUT
100
AcDbLine
 10
60.9046
 20
73.1022
 30
0.0
 11
60.9446
 21
73.1698
 31
0.0
  0
LINE
  5
180
330
17
100
AcDbEntity
  8
CUT
100
AcDbLine
 10
60.9446
 20
73.1698
 30
0.0
 11
60.9887
 21
73.2347
 31
0.0
  0
LINE
  5
181
330
17
100
AcDbEntity
  8
CUT
100
AcDbLine
 10
60.9887
 20
73.2347
 30
0.0
 11
61.0369
 21
73.2968
 31
0.0
  0
LINE
  5
182
330
17
100
AcDbEntity
  8
CUT
100
AcDbLine
 10
61.0369
 20
73.2968
 30
0.0
 11
61.0888
 21
73.3557
 31
0.0
  0
LINE
  5
183
330
17
100
AcDbEntity
  8
CUT
100
AcDbLine
 10
61.0888
 20
73.3557
 30
0.0
 11
61.1443
 21
73.4112
 31
0.0
  0
LINE
  5
184
330
17
100
AcDbEntity
  8
CUT
100
AcDbLine
 10
61.1443
 20
73.4112
 30
0.0
 11
61.2032
 21
73.4631
 31
0.0
  0
LINE
  5
185
330
17
100
AcDbEntity
  8
CUT
100
AcDbLine
 10
61.2032
 20
73.4631
 30
0.0
 11
61.2653
 21
73.5113
 31
0.0
  0
LINE
  5
186
330
17
100
AcDbEntity
  8
CUT
100
AcDbLine
 10
61.2653
 20
73.5113
 30
0.0
 11
61.3302
 21
73.5554
 31
0.0
  0
LINE
  5
187
330
17
100
AcDbEntity
  8
CUT
100
AcDbLine
 10
61.3302
 20
73.5554
 30
0.0
 11
61.3978
 21
73.5954
 31
0.0
  0
LINE
  5
188
330
17
100
AcDbEntity
  8
CUT
100
AcDbLine
 10
61.3978
 20
73.5954
 30
0.0
 11
61.4678
 21
73.631
 31
0.0
  0
LINE
  5
189
330
17
100
AcDbEntity
  8
CUT
100
AcDbLine
 10
61.4678
 20
73.631
 30
0.0
 11
61.5398
 21
73.6622
 31
0.0
  0
LINE
  5
18A
330
17
100
AcDbEntity
  8
CUT
100
AcDbLine
 10
61.5398
 20
73.6622
 30
0.0
 11
61.6137
 21
73.6888
 31
0.0
  0
LINE
  5
18B
330
17
100
AcDbEntity
  8
CUT
100
AcDbLine
 10
61.6137
 20
73.6888
 30
0.0
 11
61.6891
 21
73.7107
 31
0.0
  0
LINE
  5
18C
330
17
100
AcDbEntity
  8
CUT
100
AcDbLine
 10
61.6891
 20
73.7107
 30
0.0
 11
61.7658
 21
73.7279
 31
0.0
  0
LINE
  5
18D
330
17
100
AcDbEntity
  8
CUT
100
AcDbLine
 10
61.7658
 20
73.7279
 30
0.0
 11
61.8433
 21
73.7401
 31
0.0
  0
LINE
  5
18E
330
17
100
AcDbEntity
  8
CUT
100
AcDbLine
 10
61.8433
 20
73.7401
 30
0.0
 11
61.9215
 21
73.7475
 31
0.0
  0
LINE
  5
18F
330
17
100
AcDbEntity
  8
CUT
100
AcDbLine
 10
61.9215
 20
73.7475
 30
0.0
 11
62.0
 21
73.75
 31
0.0
  0
LINE
  5
190
330
17
100
AcDbEntity
  8
CUT
100
AcDbLine
 10
62.0
 20
73.75
 30
0.0
 11
62.0785
 21
73.7475
 31
0.0
  0
LINE
  5
191
330
17
100
AcDbEntity
  8
CUT
100
AcDbLine
 10
62.0785
 20
73.7475
 30
0.0
 11
62.1567
 21
73.7401
 31
0.0
  0
LINE
  5
192
330
17
100
AcDbEntity
  8
CUT
100
AcDbLine
 10
62.1567
 20
73.7401
 30
0.0
 11
62.2342
 21
73.7279
 31
0.0
  0
LINE
  5
193
330
17
100
AcDbEntity
  8
CUT
100
AcDbLine
 10
62.2342
 20
73.7279
 30
0.0
 11
62.3109
 21
73.7107
 31
0.0
  0
LINE
  5
194
330
17
100
AcDbEntity
  8
CUT
100
AcDbLine
 10
62.3109
 20
73.7107
 30
0.0
 11
62.3863
 21
73.6888
 31
0.0
  0
LINE
  5
195
330
17
100
AcDbEntity
  8
CUT
100
AcDbLine
 10
62.3863
 20
73.6888
 30
0.0
 11
62.4602
 21
73.6622
 31
0.0
  0
LINE
  5
196
330
17
100
AcDbEntity
  8
CUT
100
AcDbLine
 10
62.4602
 20
73.6622
 30
0.0
 11
62.5322
 21
73.631
 31
0.0
  0
LINE
  5
197
330
17
100
AcDbEntity
  8
CUT
100
AcDbLine
 10
62.5322
 20
73.631
 30
0.0
 11
62.6022
 21
73.5954
 31
0.0
  0
LINE
  5
198
330
17
100
AcDbEntity
  8
CUT
100
AcDbLine
 10
62.6022
 20
73.5954
 30
0.0
 11
62.6698
 21
73.5554
 31
0.0
  0
LINE
  5
199
330
17
100
AcDbEntity
  8
CUT
100
AcDbLine
 10
62.6698
 20
73.5554
 30
0.0
 11
62.7347
 21
73.5113
 31
0.0
  0
LINE
  5
19A
330
17
100
AcDbEntity
  8
CUT
100
AcDbLine
 10
62.7347
 20
73.5113
 30
0.0
 11
62.7968
 21
73.4631
 31
0.0
  0
LINE
  5
19B
330
17
100
AcDbEntity
  8
CUT
100
AcDbLine
 10
62.7968
 20
73.4631
 30
0.0
 11
62.8557
 21
73.4112
 31
0.0
  0
LINE
  5
19C
330
17
100
AcDbEntity
  8
CUT
100
AcDbLine
 10
62.8557
 20
73.4112
 30
0.0
 11
62.9112
 21
73.3557
 31
0.0
  0
LINE
  5
19D
330
17
100
AcDbEntity
  8
CUT
100
AcDbLine
 10
62.9112
 20
73.3557
 30
0.0
 11
62.9631
 21
73.2968
 31
0.0
  0
LINE
  5
19E
330
17
100
AcDbEntity
  8
CUT
100
AcDbLine
 10
62.9631
 20
73.2968
 30
0.0
 11
63.0113
 21
73.2347
 31
0.0
  0
LINE
  5
19F
330
17
100
AcDbEntity
  8
CUT
100
AcDbLine
 10
63.0113
 20
73.2347
 30
0.0
 11
63.0554
 21
73.1698
 31
0.0
  0
LINE
  5
1A0
330
17
100
AcDbEntity
  8
CUT
100
AcDbLine
 10
63.0554
 20
73.1698
 30
0.0
 11
63.0954
 21
73.1022
 31
0.0
  0
LINE
  5
1A1
330
17
100
AcDbEntity
  8
CUT
100
AcDbLine
 10
63.0954
 20
73.1022
 30
0.0
 11
63.131
 21
73.0322
 31
0.0
  0
LINE
  5
1A2
330
17
100
AcDbEntity
  8
CUT
100
AcDbLine
 10
63.131
 20
73.0322
 30
0.0
 11
63.1622
 21
72.9602
 31
0.0
  0
LINE
  5
1A3
330
17
100
AcDbEntity
  8
CUT
100
AcDbLine
 10
63.1622
 20
72.9602
 30
0.0
 11
63.1888
 21
72.8863
 31
0.0
  0
LINE
  5
1A4
330
17
100
AcDbEntity
  8
CUT
100
AcDbLine
 10
63.1888
 20
72.8863
 30
0.0
 11
63.2107
 21
72.8109
 31
0.0
  0
LINE
  5
1A5
330
17
100
AcDbEntity
  8
CUT
100
AcDbLine
 10
63.2107
 20
72.8109
 30
0.0
 11
63.2279
 21
72.7342
 31
0.0
  0
LINE
  5
1A6
330
17
100
AcDbEntity
  8
CUT
100
AcDbLine
 10
63.2279
 20
72.7342
 30
0.0
 11
63.2401
 21
72.6567
 31
0.0
  0
LINE
  5
1A7
330
17
100
AcDbEntity
  8
CUT
100
AcDbLine
 10
63.2401
 20
72.6567
 30
0.0
 11
63.2475
 21
72.5785
 31
0.0
  0
LINE
  5
1A8
330
17
100
AcDbEntity
  8
CUT
100
AcDbLine
 10
63.2475
 20
72.5785
 30
0.0
 11
63.25
 21
72.5
 31
0.0
  0
LINE
  5
1A9
330
17
100
AcDbEntity
  8
CUT
100
AcDbLine
 10
63.25
 20
72.5
 30
0.0
 11
63.2475
 21
72.4215
 31
0.0
  0
LINE
  5
1AA
330
17
100
AcDbEntity
  8
CUT
100
AcDbLine
 10
63.2475
 20
72.4215
 30
0.0
 11
63.2401
 21
72.3433
 31
0.0
  0
LINE
  5
1AB
330
17
100
AcDbEntity
  8
CUT
100
AcDbLine
 10
63.2401
 20
72.3433
 30
0.0
 11
63.2279
 21
72.2658
 31
0.0
  0
LINE
  5
1AC
330
17
100
AcDbEntity
  8
CUT
100
AcDbLine
 10
63.2279
 20
72.2658
 30
0.0
 11
63.2107
 21
72.1891
 31
0.0
  0
LINE
  5
1AD
330
17
100
AcDbEntity
  8
CUT
100
AcDbLine
 10
63.2107
 20
72.1891
 30
0.0
 11
63.1888
 21
72.1137
 31
0.0
  0
LINE
  5
1AE
330
17
100
AcDbEntity
  8
CUT
100
AcDbLine
 10
63.1888
 20
72.1137
 30
0.0
 11
63.1622
 21
72.0398
 31
0.0
  0
LINE
  5
1AF
330
17
100
AcDbEntity
  8
CUT
100
AcDbLine
 10
63.1622
 20
72.0398
 30
0.0
 11
63.131
 21
71.9678
 31
0.0
  0
LINE
  5
1B0
330
17
100
AcDbEntity
  8
CUT
100
AcDbLine
 10
63.131
 20
71.9678
 30
0.0
 11
63.0954
 21
71.8978
 31
0.0
  0
LINE
  5
1B1
330
17
100
AcDbEntity
  8
CUT
100
AcDbLine
 10
63.0954
 20
71.8978
 30
0.0
 11
63.0554
 21
71.8302
 31
0.0
  0
LINE
  5
1B2
330
17
100
AcDbEntity
  8
CUT
100
AcDbLine
 10
63.0554
 20
71.8302
 30
0.0
 11
63.0113
 21
71.7653
 31
0.0
  0
LINE
  5
1B3
330
17
100
AcDbEntity
  8
CUT
100
AcDbLine
 10
63.0113
 20
71.7653
 30
0.0
 11
62.9631
 21
71.7032
 31
0.0
  0
LINE
  5
1B4
330
17
100
AcDbEntity
  8
CUT
100
AcDbLine
 10
62.9631
 20
71.7032
 30
0.0
 11
62.9112
 21
71.6443
 31
0.0
  0
LINE
  5
1B5
330
17
100
AcDbEntity
  8
CUT
100
AcDbLine
 10
62.9112
 20
71.6443
 30
0.0
 11
62.8557
 21
71.5888
 31
0.0
  0
LINE
  5
1B6
330
17
100
AcDbEntity
  8
CUT
100
AcDbLine
 10
62.8557
 20
71.5888
 30
0.0
 11
62.7968
 21
71.5369
 31
0.0
  0
LINE
  5
1B7
330
17
100
AcDbEntity
  8
CUT
100
AcDbLine
 10
62.7968
 20
71.5369
 30
0.0
 11
62.7347
 21
71.4887
 31
0.0
  0
LINE
  5
1B8
330
17
100
AcDbEntity
  8
CUT
100
AcDbLine
 10
62.7347
 20
71.4887
 30
0.0
 11
62.6698
 21
71.4446
 31
0.0
  0
LINE
  5
1B9
330
17
100
AcDbEntity
  8
CUT
100
AcDbLine
 10
62.6698
 20
71.4446
 30
0.0
 11
62.6022
 21
71.4046
 31
0.0
  0
LINE
  5
1BA
330
17
100
AcDbEntity
  8
CUT
100
AcDbLine
 10
62.6022
 20
71.4046
 30
0.0
 11
62.5322
 21
71.369
 31
0.0
  0
LINE
  5
1BB
330
17
100
AcDbEntity
  8
CUT
100
AcDbLine
 10
62.5322
 20
71.369
 30
0.0
 11
62.4602
 21
71.3378
 31
0.0
  0
LINE
  5
1BC
330
17
100
AcDbEntity
  8
CUT
100
AcDbLine
 10
62.4602
 20
71.3378
 30
0.0
 11
62.3863
 21
71.3112
 31
0.0
  0
LINE
  5
1BD
330
17
100
AcDbEntity
  8
CUT
100
AcDbLine
 10
62.3863
 20
71.3112
 30
0.0
 11
62.3109
 21
71.2893
 31
0.0
  0
LINE
  5
1BE
330
17
100
AcDbEntity
  8
CUT
100
AcDbLine
 10
62.3109
 20
71.2893
 30
0.0
 11
62.2342
 21
71.2721
 31
0.0
  0
LINE
  5
1BF
330
17
100
AcDbEntity
  8
CUT
100
AcDbLine
 10
62.2342
 20
71.2721
 30
0.0
 11
62.1567
 21
71.2599
 31
0.0
  0
LINE
  5
1C0
330
17
100
AcDbEntity
  8
CUT
100
AcDbLine
 10
62.1567
 20
71.2599
 30
0.0
 11
62.0785
 21
71.2525
 31
0.0
  0
LINE
  5
1C1
330
17
100
AcDbEntity
  8
CUT
100
AcDbLine
 10
62.0785
 20
71.2525
 30
0.0
 11
62.0
 21
71.25
 31
0.0
  0
LINE
  5
1C2
330
17
100
AcDbEntity
  8
CUT
100
AcDbLine
 10
62.0
 20
71.25
 30
0.0
 11
61.9215
 21
71.2525
 31
0.0
  0
LINE
  5
1C3
330
17
100
AcDbEntity
  8
CUT
100
AcDbLine
 10
61.9215
 20
71.2525
 30
0.0
 11
61.8433
 21
71.2599
 31
0.0
  0
LINE
  5
1C4
330
17
100
AcDbEntity
  8
CUT
100
AcDbLine
 10
61.8433
 20
71.2599
 30
0.0
 11
61.7658
 21
71.2721
 31
0.0
  0
LINE
  5
1C5
330
17
100
AcDbEntity
  8
CUT
100
AcDbLine
 10
61.7658
 20
71.2721
 30
0.0
 11
61.6891
 21
71.2893
 31
0.0
  0
LINE
  5
1C6
330
17
100
AcDbEntity
  8
CUT
100
AcDbLine
 10
61.6891
 20
71.2893
 30
0.0
 11
61.6137
 21
71.3112
 31
0.0
  0
LINE
  5
1C7
330
17
100
AcDbEntity
  8
CUT
100
AcDbLine
 10
61.6137
 20
71.3112
 30
0.0
 11
61.5398
 21
71.3378
 31
0.0
  0
LINE
  5
1C8
330
17
100
AcDbEntity
  8
CUT
100
AcDbLine
 10
61.5398
 20
71.3378
 30
0.0
 11
61.4678
 21
71.369
 31
0.0
  0
LINE
  5
1C9
330
17
100
AcDbEntity
  8
CUT
100
AcDbLine
 10
61.4678
 20
71.369
 30
0.0
 11
61.3978
 21
71.4046
 31
0.0
  0
LINE
  5
1CA
330
17
100
AcDbEntity
  8
CUT
100
AcDbLine
 10
61.3978
 20
71.4046
 30
0.0
 11
61.3302
 21
71.4446
 31
0.0
  0
LINE
  5
1CB
330
17
100
AcDbEntity
  8
CUT
100
AcDbLine
 10
61.3302
 20
71.4446
 30
0.0
 11
61.2653
 21
71.4887
 31
0.0
  0
LINE
  5
1CC
330
17
100
AcDbEntity
  8
CUT
100
AcDbLine
 10
61.2653
 20
71.4887
 30
0.0
 11
61.2032
 21
71.5369
 31
0.0
  0
LINE
  5
1CD
330
17
100
AcDbEntity
  8
CUT
100
AcDbLine
 10
61.2032
 20
71.5369
 30
0.0
 11
61.1443
 21
71.5888
 31
0.0
  0
LINE
  5
1CE
330
17
100
AcDbEntity
  8
CUT
100
AcDbLine
 10
61.1443
 20
71.5888
 30
0.0
 11
61.0888
 21
71.6443
 31
0.0
  0
LINE
  5
1CF
330
17
100
AcDbEntity
  8
CUT
100
AcDbLine
 10
61.0888
 20
71.6443
 30
0.0
 11
61.0369
 21
71.7032
 31
0.0
  0
LINE
  5
1D0
330
17
100
AcDbEntity
  8
CUT
100
AcDbLine
 10
61.0369
 20
71.7032
 30
0.0
 11
60.9887
 21
71.7653
 31
0.0
  0
LINE
  5
1D1
330
17
100
AcDbEntity
  8
CUT
100
AcDbLine
 10
60.9887
 20
71.7653
 30
0.0
 11
60.9446
 21
71.8302
 31
0.0
  0
LINE
  5
1D2
330
17
100
AcDbEntity
  8
CUT
100
AcDbLine
 10
60.9446
 20
71.8302
 30
0.0
 11
60.9046
 21
71.8978
 31
0.0
  0
LINE
  5
1D3
330
17
100
AcDbEntity
  8
CUT
100
AcDbLine
 10
60.9046
 20
71.8978
 30
0.0
 11
60.869
 21
71.9678
 31
0.0
  0
LINE
  5
1D4
330
17
100
AcDbEntity
  8
CUT
100
AcDbLine
 10
60.869
 20
71.9678
 30
0.0
 11
60.8378
 21
72.0398
 31
0.0
  0
LINE
  5
1D5
330
17
100
AcDbEntity
  8
CUT
100
AcDbLine
 10
60.8378
 20
72.0398
 30
0.0
 11
60.8112
 21
72.1137
 31
0.0
  0
LINE
  5
1D6
330
17
100
AcDbEntity
  8
CUT
100
AcDbLine
 10
60.8112
 20
72.1137
 30
0.0
 11
60.7893
 21
72.1891
 31
0.0
  0
LINE
  5
1D7
330
17
100
AcDbEntity
  8
CUT
100
AcDbLine
 10
60.7893
 20
72.1891
 30
0.0
 11
60.7721
 21
72.2658
 31
0.0
  0
LINE
  5
1D8
330
17
100
AcDbEntity
  8
CUT
100
AcDbLine
 10
60.7721
 20
72.2658
 30
0.0
 11
60.7599
 21
72.3433
 31
0.0
  0
LINE
  5
1D9
330
17
100
AcDbEntity
  8
CUT
100
AcDbLine
 10
60.7599
 20
72.3433
 30
0.0
 11
60.7525
 21
72.4215
 31
0.0
  0
LINE
  5
1DA
330
17
100
AcDbEntity
  8
CUT
100
AcDbLine
 10
60.7525
 20
72.4215
 30
0.0
 11
60.75
 21
72.5
 31
0.0
  0
LINE
  5
1DB
330
17
100
AcDbEntity
  8
CUT
100
AcDbLine
 10
173.0
 20
6.0
 30
0.0
 11
173.004
 21
6.12558
 31
0.0
  0
LINE
  5
1DC
330
17
100
AcDbEntity
  8
CUT
100
AcDbLine
 10
173.004
 20
6.12558
 30
0.0
 11
173.016
 21
6.25067
 31
0.0
  0
LINE
  5
1DD
330
17
100
AcDbEntity
  8
CUT
100
AcDbLine
 10
173.016
 20
6.25067
 30
0.0
 11
173.035
 21
6.37476
 31
0.0
  0
LINE
  5
1DE
330
17
100
AcDbEntity
  8
CUT
100
AcDbLine
 10
173.035
 20
6.37476
 30
0.0
 11
173.063
 21
6.49738
 31
0.0
  0
LINE
  5
1DF
330
17
100
AcDbEntity
  8
CUT
100
AcDbLine
 10
173.063
 20
6.49738
 30
0.0
 11
173.098
 21
6.61803
 31
0.0
  0
LINE
  5
1E0
330
17
100
AcDbEntity
  8
CUT
100
AcDbLine
 10
173.098
 20
6.61803
 30
0.0
 11
173.14
 21
6.73625
 31
0.0
  0
LINE
  5
1E1
330
17
100
AcDbEntity
  8
CUT
100
AcDbLine
 10
173.14
 20
6.73625
 30
0.0
 11
173.19
 21
6.85156
 31
0.0
  0
LINE
  5
1E2
330
17
100
AcDbEntity
  8
CUT
100
AcDbLine
 10
173.19
 20
6.85156
 30
0.0
 11
173.247
 21
6.96351
 31
0.0
  0
LINE
  5
1E3
330
17
100
AcDbEntity
  8
CUT
100
AcDbLine
 10
173.247
 20
6.96351
 30
0.0
 11
173.311
 21
7.07165
 31
0.0
  0
LINE
  5
1E4
330
17
100
AcDbEntity
  8
CUT
100
AcDbLine
 10
173.311
 20
7.07165
 30
0.0
 11
173.382
 21
7.17557
 31
0.0
  0
LINE
  5
1E5
330
17
100
AcDbEntity
  8
CUT
100
AcDbLine
 10
173.382
 20
7.17557
 30
0.0
 11
173.459
 21
7.27485
 31
0.0
  0
LINE
  5
1E6
330
17
100
AcDbEntity
  8
CUT
100
AcDbLine
 10
173.459
 20
7.27485
 30
0.0
 11
173.542
 21
7.36909
 31
0.0
  0
LINE
  5
1E7
330
17
100
AcDbEntity
  8
CUT
100
AcDbLine
 10
173.542
 20
7.36909
 30
0.0
 11
173.631
 21
7.45794
 31
0.0
  0
LINE
  5
1E8
330
17
100
AcDbEntity
  8
CUT
100
AcDbLine
 10
173.631
 20
7.45794
 30
0.0
 11
173.725
 21
7.54103
 31
0.0
  0
LINE
  5
1E9
330
17
100
AcDbEntity
  8
CUT
100
AcDbLine
 10
173.725
 20
7.54103
 30
0.0
 11
173.824
 21
7.61803
 31
0.0
  0
LINE
  5
1EA
330
17
100
AcDbEntity
  8
CUT
100
AcDbLine
 10
173.824
 20
7.61803
 30
0.0
 11
173.928
 21
7.68865
 31
0.0
  0
LINE
  5
1EB
330
17
100
AcDbEntity
  8
CUT
100
AcDbLine
 10
173.928
 20
7.68865
 30
0.0
 11
174.036
 21
7.75261
 31
0.0
  0
LINE
  5
1EC
330
17
100
AcDbEntity
  8
CUT
100
AcDbLine
 10
174.036
 20
7.75261
 30
0.0
 11
174.148
 21
7.80965
 31
0.0
  0
LINE
  5
1ED
330
17
100
AcDbEntity
  8
CUT
100
AcDbLine
 10
174.148
 20
7.80965
 30
0.0
 11
174.264
 21
7.85955
 31
0.0
  0
LINE
  5
1EE
330
17
100
AcDbEntity
  8
CUT
100
AcDbLine
 10
174.264
 20
7.85955
 30
0.0
 11
174.382
 21
7.90211
 31
0.0
  0
LINE
  5
1EF
330
17
100
AcDbEntity
  8
CUT
100
AcDbLine
 10
174.382
 20
7.90211
 30
0.0
 11
174.503
 21
7.93717
 31
0.0
  0
LINE
  5
1F0
330
17
100
AcDbEntity
  8
CUT
100
AcDbLine
 10
174.503
 20
7.93717
 30
0.0
 11
174.625
 21
7.96457
 31
0.0
  0
LINE
  5
1F1
330
17
100
AcDbEntity
  8
CUT
100
AcDbLine
 10
174.625
 20
7.96457
 30
0.0
 11
174.749
 21
7.98423
 31
0.0
  0
LINE
  5
1F2
330
17
100
AcDbEntity
  8
CUT
100
AcDbLine
 10
174.749
 20
7.98423
 30
0.0
 11
174.874
 21
7.99605
 31
0.0
  0
LINE
  5
1F3
330
17
100
AcDbEntity
  8
CUT
100
AcDbLine
 10
174.874
 20
7.99605
 30
0.0
 11
175.0
 21
8.0
 31
0.0
  0
LINE
  5
1F4
330
17
100
AcDbEntity
  8
CUT
100
AcDbLine
 10
175.0
 20
8.0
 30
0.0
 11
175.126
 21
7.99605
 31
0.0
  0
LINE
  5
1F5
330
17
100
AcDbEntity
  8
CUT
100
AcDbLine
 10
175.126
 20
7.99605
 30
0.0
 11
175.251
 21
7.98423
 31
0.0
  0
LINE
  5
1F6
330
17
100
AcDbEntity
  8
CUT
100
AcDbLine
 10
175.251
 20
7.98423
 30
0.0
 11
175.375
 21
7.96457
 31
0.0
  0
LINE
  5
1F7
330
17
100
AcDbEntity
  8
CUT
100
AcDbLine
 10
175.375
 20
7.96457
 30
0.0
 11
175.497
 21
7.93717
 31
0.0
  0
LINE
  5
1F8
330
17
100
AcDbEntity
  8
CUT
100
AcDbLine
 10
175.497
 20
7.93717
 30
0.0
 11
175.618
 21
7.90211
 31
0.0
  0
LINE
  5
1F9
330
17
100
AcDbEntity
  8
CUT
100
AcDbLine
 10
175.618
 20
7.90211
 30
0.0
 11
175.736
 21
7.85955
 31
0.0
  0
LINE
  5
1FA
330
17
100
AcDbEntity
  8
CUT
100
AcDbLine
 10
175.736
 20
7.85955
 30
0.0
 11
175.852
 21
7.80965
 31
0.0
  0
LINE
  5
1FB
330
17
100
AcDbEntity
  8
CUT
100
AcDbLine
 10
175.852
 20
7.80965
 30
0.0
 11
175.964
 21
7.75261
 31
0.0
  0
LINE
  5
1FC
330
17
100
AcDbEntity
  8
CUT
100
AcDbLine
 10
175.964
 20
7.75261
 30
0.0
 11
176.072
 21
7.68865
 31
0.0
  0
LINE
  5
1FD
330
17
100
AcDbEntity
  8
CUT
100
AcDbLine
 10
176.072
 20
7.68865
 30
0.0
 11
176.176
 21
7.61803
 31
0.0
  0
LINE
  5
1FE
330
17
100
AcDbEntity
  8
CUT
100
AcDbLine
 10
176.176
 20
7.61803
 30
0.0
 11
176.275
 21
7.54103
 31
0.0
  0
LINE
  5
1FF
330
17
100
AcDbEntity
  8
CUT
100
AcDbLine
 10
176.275
 20
7.54103
 30
0.0
 11
176.369
 21
7.45794
 31
0.0
  0
LINE
  5
200
330
17
100
AcDbEntity
  8
CUT
100
AcDbLine
 10
176.369
 20
7.45794
 30
0.0
 11
176.458
 21
7.36909
 31
0.0
  0
LINE
  5
201
330
17
100
AcDbEntity
  8
CUT
100
AcDbLine
 10
176.458
 20
7.36909
 30
0.0
 11
176.541
 21
7.27485
 31
0.0
  0
LINE
  5
202
330
17
100
AcDbEntity
  8
CUT
100
AcDbLine
 10
176.541
 20
7.27485
 30
0.0
 11
176.618
 21
7.17557
 31
0.0
  0
LINE
  5
203
330
17
100
AcDbEntity
  8
CUT
100
AcDbLine
 10
176.618
 20
7.17557
 30
0.0
 11
176.689
 21
7.07165
 31
0.0
  0
LINE
  5
204
330
17
100
AcDbEntity
  8
CUT
100
AcDbLine
 10
176.689
 20
7.07165
 30
0.0
 11
176.753
 21
6.96351
 31
0.0
  0
LINE
  5
205
330
17
100
AcDbEntity
  8
CUT
100
AcDbLine
 10
176.753
 20
6.96351
 30
0.0
 11
176.81
 21
6.85156
 31
0.0
  0
LINE
  5
206
330
17
100
AcDbEntity
  8
CUT
100
AcDbLine
 10
176.81
 20
6.85156
 30
0.0
 11
176.86
 21
6.73625
 31
0.0
  0
LINE
  5
207
330
17
100
AcDbEntity
  8
CUT
100
AcDbLine
 10
176.86
 20
6.73625
 30
0.0
 11
176.902
 21
6.61803
 31
0.0
  0
LINE
  5
208
330
17
100
AcDbEntity
  8
CUT
100
AcDbLine
 10
176.902
 20
6.61803
 30
0.0
 11
176.937
 21
6.49738
 31
0.0
  0
LINE
  5
209
330
17
100
AcDbEntity
  8
CUT
100
AcDbLine
 10
176.937
 20
6.49738
 30
0.0
 11
176.965
 21
6.37476
 31
0.0
  0
LINE
  5
20A
330
17
100
AcDbEntity
  8
CUT
100
AcDbLine
 10
176.965
 20
6.37476
 30
0.0
 11
176.984
 21
6.25067
 31
0.0
  0
LINE
  5
20B
330
17
100
AcDbEntity
  8
CUT
100
AcDbLine
 10
176.984
 20
6.25067
 30
0.0
 11
176.996
 21
6.12558
 31
0.0
  0
LINE
  5
20C
330
17
100
AcDbEntity
  8
CUT
100
AcDbLine
 10
176.996
 20
6.12558
 30
0.0
 11
177.0
 21
6.0
 31
0.0
  0
LINE
  5
20D
330
17
100
AcDbEntity
  8
CUT
100
AcDbLine
 10
177.0
 20
6.0
 30
0.0
 11
176.996
 21
5.87442
 31
0.0
  0
LINE
  5
20E
330
17
100
AcDbEntity
  8
CUT
100
AcDbLine
 10
176.996
 20
5.87442
 30
0.0
 11
176.984
 21
5.74933
 31
0.0
  0
LINE
  5
20F
330
17
100
AcDbEntity
  8
CUT
100
AcDbLine
 10
176.984
 20
5.74933
 30
0.0
 11
176.965
 21
5.62524
 31
0.0
  0
LINE
  5
210
330
17
100
AcDbEntity
  8
CUT
100
AcDbLine
 10
176.965
 20
5.62524
 30
0.0
 11
176.937
 21
5.50262
 31
0.0
  0
LINE
  5
211
330
17
100
AcDbEntity
  8
CUT
100
AcDbLine
 10
176.937
 20
5.50262
 30
0.0
 11
176.902
 21
5.38197
 31
0.0
  0
LINE
  5
212
330
17
100
AcDbEntity
  8
CUT
100
AcDbLine
 10
176.902
 20
5.38197
 30
0.0
 11
176.86
 21
5.26375
 31
0.0
  0
LINE
  5
213
330
17
100
AcDbEntity
  8
CUT
100
AcDbLine
 10
176.86
 20
5.26375
 30
0.0
 11
176.81
 21
5.14844
 31
0.0
  0
LINE
  5
214
330
17
100
AcDbEntity
  8
CUT
100
AcDbLine
 10
176.81
 20
5.14844
 30
0.0
 11
176.753
 21
5.03649
 31
0.0
  0
LINE
  5
215
330
17
100
AcDbEntity
  8
CUT
100
AcDbLine
 10
176.753
 20
5.03649
 30
0.0
 11
176.689
 21
4.92835
 31
0.0
  0
LINE
  5
216
330
17
100
AcDbEntity
  8
CUT
100
AcDbLine
 10
176.689
 20
4.92835
 30
0.0
 11
176.618
 21
4.82443
 31
0.0
  0
LINE
  5
217
330
17
100
AcDbEntity
  8
CUT
100
AcDbLine
 10
176.618
 20
4.82443
 30
0.0
 11
176.541
 21
4.72515
 31
0.0
  0
LINE
  5
218
330
17
100
AcDbEntity
  8
CUT
100
AcDbLine
 10
176.541
 20
4.72515
 30
0.0
 11
176.458
 21
4.63091
 31
0.0
  0
LINE
  5
219
330
17
100
AcDbEntity
  8
CUT
100
AcDbLine
 10
176.458
 20
4.63091
 30
0.0
 11
176.369
 21
4.54206
 31
0.0
  0
LINE
  5
21A
330
17
100
AcDbEntity
  8
CUT
100
AcDbLine
 10
176.369
 20
4.54206
 30
0.0
 11
176.275
 21
4.45897
 31
0.0
  0
LINE
  5
21B
330
17
100
AcDbEntity
  8
CUT
100
AcDbLine
 10
176.275
 20
4.45897
 30
0.0
 11
176.176
 21
4.38197
 31
0.0
  0
LINE
  5
21C
330
17
100
AcDbEntity
  8
CUT
100
AcDbLine
 10
176.176
 20
4.38197
 30
0.0
 11
176.072
 21
4.31134
 31
0.0
  0
LINE
  5
21D
330
17
100
AcDbEntity
  8
CUT
100
AcDbLine
 10
176.072
 20
4.31134
 30
0.0
 11
175.964
 21
4.24739
 31
0.0
  0
LINE
  5
21E
330
17
100
AcDbEntity
  8
CUT
100
AcDbLine
 10
175.964
 20
4.24739
 30
0.0
 11
175.852
 21
4.19035
 31
0.0
  0
LINE
  5
21F
330
17
100
AcDbEntity
  8
CUT
100
AcDbLine
 10
175.852
 20
4.19035
 30
0.0
 11
175.736
 21
4.14045
 31
0.0
  0
LINE
  5
220
330
17
100
AcDbEntity
  8
CUT
100
AcDbLine
 10
175.736
 20
4.14045
 30
0.0
 11
175.618
 21
4.09789
 31
0.0
  0
LINE
  5
221
330
17
100
AcDbEntity
  8
CUT
100
AcDbLine
 10
175.618
 20
4.09789
 30
0.0
 11
175.497
 21
4.06283
 31
0.0
  0
LINE
  5
222
330
17
100
AcDbEntity
  8
CUT
100
AcDbLine
 10
175.497
 20
4.06283
 30
0.0
 11
175.375
 21
4.03543
 31
0.0
  0
LINE
  5
223
330
17
100
AcDbEntity
  8
CUT
100
AcDbLine
 10
175.375
 20
4.03543
 30
0.0
 11
175.251
 21
4.01577
 31
0.0
  0
LINE
  5
224
330
17
100
AcDbEntity
  8
CUT
100
AcDbLine
 10
175.251
 20
4.01577
 30
0.0
 11
175.126
 21
4.00395
 31
0.0
  0
LINE
  5
225
330
17
100
AcDbEntity
  8
CUT
100
AcDbLine
 10
175.126
 20
4.00395
 30
0.0
 11
175.0
 21
4.0
 31
0.0
  0
LINE
  5
226
330
17
100
AcDbEntity
  8
CUT
100
AcDbLine
 10
175.0
 20
4.0
 30
0.0
 11
174.874
 21
4.00395
 31
0.0
  0
LINE
  5
227
330
17
100
AcDbEntity
  8
CUT
100
AcDbLine
 10
174.874
 20
4.00395
 30
0.0
 11
174.749
 21
4.01577
 31
0.0
  0
LINE
  5
228
330
17
100
AcDbEntity
  8
CUT
100
AcDbLine
 10
174.749
 20
4.01577
 30
0.0
 11
174.625
 21
4.03543
 31
0.0
  0
LINE
  5
229
330
17
100
AcDbEntity
  8
CUT
100
AcDbLine
 10
174.625
 20
4.03543
 30
0.0
 11
174.503
 21
4.06283
 31
0.0
  0
LINE
  5
22A
330
17
100
AcDbEntity
  8
CUT
100
AcDbLine
 10
174.503
 20
4.06283
 30
0.0
 11
174.382
 21
4.09789
 31
0.0
  0
LINE
  5
22B
330
17
100
AcDbEntity
  8
CUT
100
AcDbLine
 10
174.382
 20
4.09789
 30
0.0
 11
174.264
 21
4.14045
 31
0.0
  0
LINE
  5
22C
330
17
100
AcDbEntity
  8
CUT
100
AcDbLine
 10
174.264
 20
4.14045
 30
0.0
 11
174.148
 21
4.19035
 31
0.0
  0
LINE
  5
22D
330
17
100
AcDbEntity
  8
CUT
100
AcDbLine
 10
174.148
 20
4.19035
 30
0.0
 11
174.036
 21
4.24739
 31
0.0
  0
LINE
  5
22E
330
17
100
AcDbEntity
  8
CUT
100
AcDbLine
 10
174.036
 20
4.24739
 30
0.0
 11
173.928
 21
4.31134
 31
0.0
  0
LINE
  5
22F
330
17
100
AcDbEntity
  8
CUT
100
AcDbLine
 10
173.928
 20
4.31134
 30
0.0
 11
173.824
 21
4.38197
 31
0.0
  0
LINE
  5
230
330
17
100
AcDbEntity
  8
CUT
100
AcDbLine
 10
173.824
 20
4.38197
 30
0.0
 11
173.725
 21
4.45897
 31
0.0
  0
LINE
  5
231
330
17
100
AcDbEntity
  8
CUT
100
AcDbLine
 10
173.725
 20
4.45897
 30
0.0
 11
173.631
 21
4.54206
 31
0.0
  0
LINE
  5
232
330
17
100
AcDbEntity
  8
CUT
100
AcDbLine
 10
173.631
 20
4.54206
 30
0.0
 11
173.542
 21
4.63091
 31
0.0
  0
LINE
  5
233
330
17
100
AcDbEntity
  8
CUT
100
AcDbLine
 10
173.542
 20
4.63091
 30
0.0
 11
173.459
 21
4.72515
 31
0.0
  0
LINE
  5
234
330
17
100
AcDbEntity
  8
CUT
100
AcDbLine
 10
173.459
 20
4.72515
 30
0.0
 11
173.382
 21
4.82443
 31
0.0
  0
LINE
  5
235
330
17
100
AcDbEntity
  8
CUT
100
AcDbLine
 10
173.382
 20
4.82443
 30
0.0
 11
173.311
 21
4.92835
 31
0.0
  0
LINE
  5
236
330
17
100
AcDbEntity
  8
CUT
100
AcDbLine
 10
173.311
 20
4.92835
 30
0.0
 11
173.247
 21
5.03649
 31
0.0
  0
LINE
  5
237
330
17
100
AcDbEntity
  8
CUT
100
AcDbLine
 10
173.247
 20
5.03649
 30
0.0
 11
173.19
 21
5.14844
 31
0.0
  0
LINE
  5
238
330
17
100
AcDbEntity
  8
CUT
100
AcDbLine
 10
173.19
 20
5.14844
 30
0.0
 11
173.14
 21
5.26375
 31
0.0
  0
LINE
  5
239
330
17
100
AcDbEntity
  8
CUT
100
AcDbLine
 10
173.14
 20
5.26375
 30
0.0
 11
173.098
 21
5.38197
 31
0.0
  0
LINE
  5
23A
330
17
100
AcDbEntity
  8
CUT
100
AcDbLine
 10
173.098
 20
5.38197
 30
0.0
 11
173.063
 21
5.50262
 31
0.0
  0
LINE
  5
23B
330
17
100
AcDbEntity
  8
CUT
100
AcDbLine
 10
173.063
 20
5.50262
 30
0.0
 11
173.035
 21
5.62524
 31
0.0
  0
LINE
  5
23C
330
17
100
AcDbEntity
  8
CUT
100
AcDbLine
 10
173.035
 20
5.62524
 30
0.0
 11
173.016
 21
5.74933
 31
0.0
  0
LINE
  5
23D
330
17
100
AcDbEntity
  8
CUT
100
AcDbLine
 10
173.016
 20
5.74933
 30
0.0
 11
173.004
 21
5.87442
 31
0.0
  0
LINE
  5
23E
330
17
100
AcDbEntity
  8
CUT
100
AcDbLine
 10
173.004
 20
5.87442
 30
0.0
 11
173.0
 21
6.0
 31
0.0
  0
LINE
  5
23F
330
17
100
AcDbEntity
  8
CUT
100
AcDbLine
 10
188.75
 20
72.5
 30
0.0
 11
188.752
 21
72.5785
 31
0.0
  0
LINE
  5
240
330
17
100
AcDbEntity
  8
CUT
100
AcDbLine
 10
188.752
 20
72.5785
 30
0.0
 11
188.76
 21
72.6567
 31
0.0
  0
LINE
  5
241
330
17
100
AcDbEntity
  8
CUT
100
AcDbLine
 10
188.76
 20
72.6567
 30
0.0
 11
188.772
 21
72.7342
 31
0.0
  0
LINE
  5
242
330
17
100
AcDbEntity
  8
CUT
100
AcDbLine
 10
188.772
 20
72.7342
 30
0.0
 11
188.789
 21
72.8109
 31
0.0
  0
LINE
  5
243
330
17
100
AcDbEntity
  8
CUT
100
AcDbLine
 10
188.789
 20
72.8109
 30
0.0
 11
188.811
 21
72.8863
 31
0.0
  0
LINE
  5
244
330
17
100
AcDbEntity
  8
CUT
100
AcDbLine
 10
188.811
 20
72.8863
 30
0.0
 11
188.838
 21
72.9602
 31
0.0
  0
LINE
  5
245
330
17
100
AcDbEntity
  8
CUT
100
AcDbLine
 10
188.838
 20
72.9602
 30
0.0
 11
188.869
 21
73.0322
 31
0.0
  0
LINE
  5
246
330
17
100
AcDbEntity
  8
CUT
100
AcDbLine
 10
188.869
 20
73.0322
 30
0.0
 11
188.905
 21
73.1022
 31
0.0
  0
LINE
  5
247
330
17
100
AcDbEntity
  8
CUT
100
AcDbLine
 10
188.905
 20
73.1022
 30
0.0
 11
188.945
 21
73.1698
 31
0.0
  0
LINE
  5
248
330
17
100
AcDbEntity
  8
CUT
100
AcDbLine
 10
188.945
 20
73.1698
 30
0.0
 11
188.989
 21
73.2347
 31
0.0
  0
LINE
  5
249
330
17
100
AcDbEntity
  8
CUT
100
AcDbLine
 10
188.989
 20
73.2347
 30
0.0
 11
189.037
 21
73.2968
 31
0.0
  0
LINE
  5
24A
330
17
100
AcDbEntity
  8
CUT
100
AcDbLine
 10
189.037
 20
73.2968
 30
0.0
 11
189.089
 21
73.3557
 31
0.0
  0
LINE
  5
24B
330
17
100
AcDbEntity
  8
CUT
100
AcDbLine
 10
189.089
 20
73.3557
 30
0.0
 11
189.144
 21
73.4112
 31
0.0
  0
LINE
  5
24C
330
17
100
AcDbEntity
  8
CUT
100
AcDbLine
 10
189.144
 20
73.4112
 30
0.0
 11
189.203
 21
73.4631
 31
0.0
  0
LINE
  5
24D
330
17
100
AcDbEntity
  8
CUT
100
AcDbLine
 10
189.203
 20
73.4631
 30
0.0
 11
189.265
 21
73.5113
 31
0.0
  0
LINE
  5
24E
330
17
100
AcDbEntity
  8
CUT
100
AcDbLine
 10
189.265
 20
73.5113
 30
0.0
 11
189.33
 21
73.5554
 31
0.0
  0
LINE
  5
24F
330
17
100
AcDbEntity
  8
CUT
100
AcDbLine
 10
189.33
 20
73.5554
 30
0.0
 11
189.398
 21
73.5954
 31
0.0
  0
LINE
  5
250
330
17
100
AcDbEntity
  8
CUT
100
AcDbLine
 10
189.398
 20
73.5954
 30
0.0
 11
189.468
 21
73.631
 31
0.0
  0
LINE
  5
251
330
17
100
AcDbEntity
  8
CUT
100
AcDbLine
 10
189.468
 20
73.631
 30
0.0
 11
189.54
 21
73.6622
 31
0.0
  0
LINE
  5
252
330
17
100
AcDbEntity
  8
CUT
100
AcDbLine
 10
189.54
 20
73.6622
 30
0.0
 11
189.614
 21
73.6888
 31
0.0
  0
LINE
  5
253
330
17
100
AcDbEntity
  8
CUT
100
AcDbLine
 10
189.614
 20
73.6888
 30
0.0
 11
189.689
 21
73.7107
 31
0.0
  0
LINE
  5
254
330
17
100
AcDbEntity
  8
CUT
100
AcDbLine
 10
189.689
 20
73.7107
 30
0.0
 11
189.766
 21
73.7279
 31
0.0
  0
LINE
  5
255
330
17
100
AcDbEntity
  8
CUT
100
AcDbLine
 10
189.766
 20
73.7279
 30
0.0
 11
189.843
 21
73.7401
 31
0.0
  0
LINE
  5
256
330
17
100
AcDbEntity
  8
CUT
100
AcDbLine
 10
189.843
 20
73.7401
 30
0.0
 11
189.922
 21
73.7475
 31
0.0
  0
LINE
  5
257
330
17
100
AcDbEntity
  8
CUT
100
AcDbLine
 10
189.922
 20
73.7475
 30
0.0
 11
190.0
 21
73.75
 31
0.0
  0
LINE
  5
258
330
17
100
AcDbEntity
  8
CUT
100
AcDbLine
 10
190.0
 20
73.75
 30
0.0
 11
190.078
 21
73.7475
 31
0.0
  0
LINE
  5
259
330
17
100
AcDbEntity
  8
CUT
100
AcDbLine
 10
190.078
 20
73.7475
 30
0.0
 11
190.157
 21
73.7401
 31
0.0
  0
LINE
  5
25A
330
17
100
AcDbEntity
  8
CUT
100
AcDbLine
 10
190.157
 20
73.7401
 30
0.0
 11
190.234
 21
73.7279
 31
0.0
  0
LINE
  5
25B
330
17
100
AcDbEntity
  8
CUT
100
AcDbLine
 10
190.234
 20
73.7279
 30
0.0
 11
190.311
 21
73.7107
 31
0.0
  0
LINE
  5
25C
330
17
100
AcDbEntity
  8
CUT
100
AcDbLine
 10
190.311
 20
73.7107
 30
0.0
 11
190.386
 21
73.6888
 31
0.0
  0
LINE
  5
25D
330
17
100
AcDbEntity
  8
CUT
100
AcDbLine
 10
190.386
 20
73.6888
 30
0.0
 11
190.46
 21
73.6622
 31
0.0
  0
LINE
  5
25E
330
17
100
AcDbEntity
  8
CUT
100
AcDbLine
 10
190.46
 20
73.6622
 30
0.0
 11
190.532
 21
73.631
 31
0.0
  0
LINE
  5
25F
330
17
100
AcDbEntity
  8
CUT
100
AcDbLine
 10
190.532
 20
73.631
 30
0.0
 11
190.602
 21
73.5954
 31
0.0
  0
LINE
  5
260
330
17
100
AcDbEntity
  8
CUT
100
AcDbLine
 10
190.602
 20
73.5954
 30
0.0
 11
190.67
 21
73.5554
 31
0.0
  0
LINE
  5
261
330
17
100
AcDbEntity
  8
CUT
100
AcDbLine
 10
190.67
 20
73.5554
 30
0.0
 11
190.735
 21
73.5113
 31
0.0
  0
LINE
  5
262
330
17
100
AcDbEntity
  8
CUT
100
AcDbLine
 10
190.735
 20
73.5113
 30
0.0
 11
190.797
 21
73.4631
 31
0.0
  0
LINE
  5
263
330
17
100
AcDbEntity
  8
CUT
100
AcDbLine
 10
190.797
 20
73.4631
 30
0.0
 11
190.856
 21
73.4112
 31
0.0
  0
LINE
  5
264
330
17
100
AcDbEntity
  8
CUT
100
AcDbLine
 10
190.856
 20
73.4112
 30
0.0
 11
190.911
 21
73.3557
 31
0.0
  0
LINE
  5
265
330
17
100
AcDbEntity
  8
CUT
100
AcDbLine
 10
190.911
 20
73.3557
 30
0.0
 11
190.963
 21
73.2968
 31
0.0
  0
LINE
  5
266
330
17
100
AcDbEntity
  8
CUT
100
AcDbLine
 10
190.963
 20
73.2968
 30
0.0
 11
191.011
 21
73.2347
 31
0.0
  0
LINE
  5
267
330
17
100
AcDbEntity
  8
CUT
100
AcDbLine
 10
191.011
 20
73.2347
 30
0.0
 11
191.055
 21
73.1698
 31
0.0
  0
LINE
  5
268
330
17
100
AcDbEntity
  8
CUT
100
AcDbLine
 10
191.055
 20
73.1698
 30
0.0
 11
191.095
 21
73.1022
 31
0.0
  0
LINE
  5
269
330
17
100
AcDbEntity
  8
CUT
100
AcDbLine
 10
191.095
 20
73.1022
 30
0.0
 11
191.131
 21
73.0322
 31
0.0
  0
LINE
  5
26A
330
17
100
AcDbEntity
  8
CUT
100
AcDbLine
 10
191.131
 20
73.0322
 30
0.0
 11
191.162
 21
72.9602
 31
0.0
  0
LINE
  5
26B
330
17
100
AcDbEntity
  8
CUT
100
AcDbLine
 10
191.162
 20
72.9602
 30
0.0
 11
191.189
 21
72.8863
 31
0.0
  0
LINE
  5
26C
330
17
100
AcDbEntity
  8
CUT
100
AcDbLine
 10
191.189
 20
72.8863
 30
0.0
 11
191.211
 21
72.8109
 31
0.0
  0
LINE
  5
26D
330
17
100
AcDbEntity
  8
CUT
100
AcDbLine
 10
191.211
 20
72.8109
 30
0.0
 11
191.228
 21
72.7342
 31
0.0
  0
LINE
  5
26E
330
17
100
AcDbEntity
  8
CUT
100
AcDbLine
 10
191.228
 20
72.7342
 30
0.0
 11
191.24
 21
72.6567
 31
0.0
  0
LINE
  5
26F
330
17
100
AcDbEntity
  8
CUT
100
AcDbLine
 10
191.24
 20
72.6567
 30
0.0
 11
191.248
 21
72.5785
 31
0.0
  0
LINE
  5
270
330
17
100
AcDbEntity
  8
CUT
100
AcDbLine
 10
191.248
 20
72.5785
 30
0.0
 11
191.25
 21
72.5
 31
0.0
  0
LINE
  5
271
330
17
100
AcDbEntity
  8
CUT
100
AcDbLine
 10
191.25
 20
72.5
 30
0.0
 11
191.248
 21
72.4215
 31
0.0
  0
LINE
  5
272
330
17
100
AcDbEntity
  8
CUT
100
AcDbLine
 10
191.248
 20
72.4215
 30
0.0
 11
191.24
 21
72.3433
 31
0.0
  0
LINE
  5
273
330
17
100
AcDbEntity
  8
CUT
100
AcDbLine
 10
191.24
 20
72.3433
 30
0.0
 11
191.228
 21
72.2658
 31
0.0
  0
LINE
  5
274
330
17
100
AcDbEntity
  8
CUT
100
AcDbLine
 10
191.228
 20
72.2658
 30
0.0
 11
191.211
 21
72.1891
 31
0.0
  0
LINE
  5
275
330
17
100
AcDbEntity
  8
CUT
100
AcDbLine
 10
191.211
 20
72.1891
 30
0.0
 11
191.189
 21
72.1137
 31
0.0
  0
LINE
  5
276
330
17
100
AcDbEntity
  8
CUT
100
AcDbLine
 10
191.189
 20
72.1137
 30
0.0
 11
191.162
 21
72.0398
 31
0.0
  0
LINE
  5
277
330
17
100
AcDbEntity
  8
CUT
100
AcDbLine
 10
191.162
 20
72.0398
 30
0.0
 11
191.131
 21
71.9678
 31
0.0
  0
LINE
  5
278
330
17
100
AcDbEntity
  8
CUT
100
AcDbLine
 10
191.131
 20
71.9678
 30
0.0
 11
191.095
 21
71.8978
 31
0.0
  0
LINE
  5
279
330
17
100
AcDbEntity
  8
CUT
100
AcDbLine
 10
191.095
 20
71.8978
 30
0.0
 11
191.055
 21
71.8302
 31
0.0
  0
LINE
  5
27A
330
17
100
AcDbEntity
  8
CUT
100
AcDbLine
 10
191.055
 20
71.8302
 30
0.0
 11
191.011
 21
71.7653
 31
0.0
  0
LINE
  5
27B
330
17
100
AcDbEntity
  8
CUT
100
AcDbLine
 10
191.011
 20
71.7653
 30
0.0
 11
190.963
 21
71.7032
 31
0.0
  0
LINE
  5
27C
330
17
100
AcDbEntity
  8
CUT
100
AcDbLine
 10
190.963
 20
71.7032
 30
0.0
 11
190.911
 21
71.6443
 31
0.0
  0
LINE
  5
27D
330
17
100
AcDbEntity
  8
CUT
100
AcDbLine
 10
190.911
 20
71.6443
 30
0.0
 11
190.856
 21
71.5888
 31
0.0
  0
LINE
  5
27E
330
17
100
AcDbEntity
  8
CUT
100
AcDbLine
 10
190.856
 20
71.5888
 30
0.0
 11
190.797
 21
71.5369
 31
0.0
  0
LINE
  5
27F
330
17
100
AcDbEntity
  8
CUT
100
AcDbLine
 10
190.797
 20
71.5369
 30
0.0
 11
190.735
 21
71.4887
 31
0.0
  0
LINE
  5
280
330
17
100
AcDbEntity
  8
CUT
100
AcDbLine
 10
190.735
 20
71.4887
 30
0.0
 11
190.67
 21
71.4446
 31
0.0
  0
LINE
  5
281
330
17
100
AcDbEntity
  8
CUT
100
AcDbLine
 10
190.67
 20
71.4446
 30
0.0
 11
190.602
 21
71.4046
 31
0.0
  0
LINE
  5
282
330
17
100
AcDbEntity
  8
CUT
100
AcDbLine
 10
190.602
 20
71.4046
 30
0.0
 11
190.532
 21
71.369
 31
0.0
  0
LINE
  5
283
330
17
100
AcDbEntity
  8
CUT
100
AcDbLine
 10
190.532
 20
71.369
 30
0.0
 11
190.46
 21
71.3378
 31
0.0
  0
LINE
  5
284
330
17
100
AcDbEntity
  8
CUT
100
AcDbLine
 10
190.46
 20
71.3378
 30
0.0
 11
190.386
 21
71.3112
 31
0.0
  0
LINE
  5
285
330
17
100
AcDbEntity
  8
CUT
100
AcDbLine
 10
190.386
 20
71.3112
 30
0.0
 11
190.311
 21
71.2893
 31
0.0
  0
LINE
  5
286
330
17
100
AcDbEntity
  8
CUT
100
AcDbLine
 10
190.311
 20
71.2893
 30
0.0
 11
190.234
 21
71.2721
 31
0.0
  0
LINE
  5
287
330
17
100
AcDbEntity
  8
CUT
100
AcDbLine
 10
190.234
 20
71.2721
 30
0.0
 11
190.157
 21
71.2599
 31
0.0
  0
LINE
  5
288
330
17
100
AcDbEntity
  8
CUT
100
AcDbLine
 10
190.157
 20
71.2599
 30
0.0
 11
190.078
 21
71.2525
 31
0.0
  0
LINE
  5
289
330
17
100
AcDbEntity
  8
CUT
100
AcDbLine
 10
190.078
 20
71.2525
 30
0.0
 11
190.0
 21
71.25
 31
0.0
  0
LINE
  5
28A
330
17
100
AcDbEntity
  8
CUT
100
AcDbLine
 10
190.0
 20
71.25
 30
0.0
 11
189.922
 21
71.2525
 31
0.0
  0
LINE
  5
28B
330
17
100
AcDbEntity
  8
CUT
100
AcDbLine
 10
189.922
 20
71.2525
 30
0.0
 11
189.843
 21
71.2599
 31
0.0
  0
LINE
  5
28C
330
17
100
AcDbEntity
  8
CUT
100
AcDbLine
 10
189.843
 20
71.2599
 30
0.0
 11
189.766
 21
71.2721
 31
0.0
  0
LINE
  5
28D
330
17
100
AcDbEntity
  8
CUT
100
AcDbLine
 10
189.766
 20
71.2721
 30
0.0
 11
189.689
 21
71.2893
 31
0.0
  0
LINE
  5
28E
330
17
100
AcDbEntity
  8
CUT
100
AcDbLine
 10
189.689
 20
71.2893
 30
0.0
 11
189.614
 21
71.3112
 31
0.0
  0
LINE
  5
28F
330
17
100
AcDbEntity
  8
CUT
100
AcDbLine
 10
189.614
 20
71.3112
 30
0.0
 11
189.54
 21
71.3378
 31
0.0
  0
LINE
  5
290
330
17
100
AcDbEntity
  8
CUT
100
AcDbLine
 10
189.54
 20
71.3378
 30
0.0
 11
189.468
 21
71.369
 31
0.0
  0
LINE
  5
291
330
17
100
AcDbEntity
  8
CUT
100
AcDbLine
 10
189.468
 20
71.369
 30
0.0
 11
189.398
 21
71.4046
 31
0.0
  0
LINE
  5
292
330
17
100
AcDbEntity
  8
CUT
100
AcDbLine
 10
189.398
 20
71.4046
 30
0.0
 11
189.33
 21
71.4446
 31
0.0
  0
LINE
  5
293
330
17
100
AcDbEntity
  8
CUT
100
AcDbLine
 10
189.33
 20
71.4446
 30
0.0
 11
189.265
 21
71.4887
 31
0.0
  0
LINE
  5
294
330
17
100
AcDbEntity
  8
CUT
100
AcDbLine
 10
189.265
 20
71.4887
 30
0.0
 11
189.203
 21
71.5369
 31
0.0
  0
LINE
  5
295
330
17
100
AcDbEntity
  8
CUT
100
AcDbLine
 10
189.203
 20
71.5369
 30
0.0
 11
189.144
 21
71.5888
 31
0.0
  0
LINE
  5
296
330
17
100
AcDbEntity
  8
CUT
100
AcDbLine
 10
189.144
 20
71.5888
 30
0.0
 11
189.089
 21
71.6443
 31
0.0
  0
LINE
  5
297
330
17
100
AcDbEntity
  8
CUT
100
AcDbLine
 10
189.089
 20
71.6443
 30
0.0
 11
189.037
 21
71.7032
 31
0.0
  0
LINE
  5
298
330
17
100
AcDbEntity
  8
CUT
100
AcDbLine
 10
189.037
 20
71.7032
 30
0.0
 11
188.989
 21
71.7653
 31
0.0
  0
LINE
  5
299
330
17
100
AcDbEntity
  8
CUT
100
AcDbLine
 10
188.989
 20
71.7653
 30
0.0
 11
188.945
 21
71.8302
 31
0.0
  0
LINE
  5
29A
330
17
100
AcDbEntity
  8
CUT
100
AcDbLine
 10
188.945
 20
71.8302
 30
0.0
 11
188.905
 21
71.8978
 31
0.0
  0
LINE
  5
29B
330
17
100
AcDbEntity
  8
CUT
100
AcDbLine
 10
188.905
 20
71.8978
 30
0.0
 11
188.869
 21
71.9678
 31
0.0
  0
LINE
  5
29C
330
17
100
AcDbEntity
  8
CUT
100
AcDbLine
 10
188.869
 20
71.9678
 30
0.0
 11
188.838
 21
72.0398
 31
0.0
  0
LINE
  5
29D
330
17
100
AcDbEntity
  8
CUT
100
AcDbLine
 10
188.838
 20
72.0398
 30
0.0
 11
188.811
 21
72.1137
 31
0.0
  0
LINE
  5
29E
330
17
100
AcDbEntity
  8
CUT
100
AcDbLine
 10
188.811
 20
72.1137
 30
0.0
 11
188.789
 21
72.1891
 31
0.0
  0
LINE
  5
29F
330
17
100
AcDbEntity
  8
CUT
100
AcDbLine
 10
188.789
 20
72.1891
 30
0.0
 11
188.772
 21
72.2658
 31
0.0
  0
LINE
  5
2A0
330
17
100
AcDbEntity
  8
CUT
100
AcDbLine
 10
188.772
 20
72.2658
 30
0.0
 11
188.76
 21
72.3433
 31
0.0
  0
LINE
  5
2A1
330
17
100
AcDbEntity
  8
CUT
100
AcDbLine
 10
188.76
 20
72.3433
 30
0.0
 11
188.752
 21
72.4215
 31
0.0
  0
LINE
  5
2A2
330
17
100
AcDbEntity
  8
CUT
100
AcDbLine
 10
188.752
 20
72.4215
 30
0.0
 11
188.75
 21
72.5
 31
0.0
  0
DIMENSION
  5
2A3
330
17
100
AcDbEntity
  8
DIMENSION
100
AcDbDimension
  2
*D1
  3
Standard
 10
0.0
 20
-25.0
 30
0.0
 11
3.0
 21
-25.0
 31
0.0
 70
32
 71
5
  1
<>
100
AcDbAlignedDimension
 13
0.0
 23
0.0
 33
0.0
 14
6.0
 24
0.0
 34
0.0
 50
0.0
100
AcDbRotatedDimension
  0
DIMENSION
  5
2B7
330
17
100
AcDbEntity
  8
DIMENSION
100
AcDbDimension
  2
*D2
  3
Standard
 10
0.0
 20
-33.0
 30
0.0
 11
25.0
 21
-33.0
 31
0.0
 70
32
 71
5
  1
<>
100
AcDbAlignedDimension
 13
0.0
 23
0.0
 33
0.0
 14
50.0
 24
0.0
 34
0.0
 50
0.0
100
AcDbRotatedDimension
  0
DIMENSION
  5
2C7
330
17
100
AcDbEntity
  8
DIMENSION
100
AcDbDimension
  2
*D3
  3
Standard
 10
0.0
 20
-41.0
 30
0.0
 11
31.0
 21
-41.0
 31
0.0
 70
32
 71
5
  1
<>
100
AcDbAlignedDimension
 13
0.0
 23
0.0
 33
0.0
 14
62.0
 24
0.0
 34
0.0
 50
0.0
100
AcDbRotatedDimension
  0
DIMENSION
  5
2D7
330
17
100
AcDbEntity
  8
DIMENSION
100
AcDbDimension
  2
*D4
  3
Standard
 10
0.0
 20
-49.0
 30
0.0
 11
87.5
 21
-49.0
 31
0.0
 70
32
 71
5
  1
<>
100
AcDbAlignedDimension
 13
0.0
 23
0.0
 33
0.0
 14
175.0
 24
0.0
 34
0.0
 50
0.0
100
AcDbRotatedDimension
  0
DIMENSION
  5
2E7
330
17
100
AcDbEntity
  8
DIMENSION
100
AcDbDimension
  2
*D5
  3
Standard
 10
0.0
 20
-57.0
 30
0.0
 11
95.0
 21
-57.0
 31
0.0
 70
32
 71
5
  1
<>
100
AcDbAlignedDimension
 13
0.0
 23
0.0
 33
0.0
 14
190.0
 24
0.0
 34
0.0
 50
0.0
100
AcDbRotatedDimension
  0
DIMENSION
  5
2F7
330
17
100
AcDbEntity
  8
DIMENSION
100
AcDbDimension
  2
*D6
  3
Standard
 10
0.0
 20
-65.0
 30
0.0
 11
112.5
 21
-65.0
 31
0.0
 70
32
 71
5
  1
<>
100
AcDbAlignedDimension
 13
0.0
 23
0.0
 33
0.0
 14
225.0
 24
0.0
 34
0.0
 50
0.0
100
AcDbRotatedDimension
  0
DIMENSION
  5
307
330
17
100
AcDbEntity
  8
DIMENSION
100
AcDbDimension
  2
*D7
  3
Standard
 10
225.0
 20
225.0
 30
0.0
 11
207.5
 21
225.0
 31
0.0
 70
32
 71
5
  1
<>
100
AcDbAlignedDimension
 13
225.0
 23
200.0
 33
0.0
 14
190.0
 24
200.0
 34
0.0
 50
0.0
100
AcDbRotatedDimension
  0
DIMENSION
  5
317
330
17
100
AcDbEntity
  8
DIMENSION
100
AcDbDimension
  2
*D8
  3
Standard
 10
225.0
 20
233.0
 30
0.0
 11
200.0
 21
233.0
 31
0.0
 70
32
 71
5
  1
<>
100
AcDbAlignedDimension
 13
225.0
 23
200.0
 33
0.0
 14
175.0
 24
200.0
 34
0.0
 50
0.0
100
AcDbRotatedDimension
  0
DIMENSION
  5
327
330
17
100
AcDbEntity
  8
DIMENSION
100
AcDbDimension
  2
*D9
  3
Standard
 10
225.0
 20
241.0
 30
0.0
 11
143.5
 21
241.0
 31
0.0
 70
32
 71
5
  1
<>
100
AcDbAlignedDimension
 13
225.0
 23
200.0
 33
0.0
 14
62.0
 24
200.0
 34
0.0
 50
0.0
100
AcDbRotatedDimension
  0
DIMENSION
  5
337
330
17
100
AcDbEntity
  8
DIMENSION
100
AcDbDimension
  2
*D10
  3
Standard
 10
225.0
 20
249.0
 30
0.0
 11
137.5
 21
249.0
 31
0.0
 70
32
 71
5
  1
<>
100
AcDbAlignedDimension
 13
225.0
 23
200.0
 33
0.0
 14
50.0
 24
200.0
 34
0.0
 50
0.0
100
AcDbRotatedDimension
  0
DIMENSION
  5
347
330
17
100
AcDbEntity
  8
DIMENSION
100
AcDbDimension
  2
*D11
  3
Standard
 10
225.0
 20
257.0
 30
0.0
 11
115.5
 21
257.0
 31
0.0
 70
32
 71
5
  1
<>
100
AcDbAlignedDimension
 13
225.0
 23
200.0
 33
0.0
 14
6.0
 24
200.0
 34
0.0
 50
0.0
100
AcDbRotatedDimension
  0
DIMENSION
  5
357
330
17
100
AcDbEntity
  8
DIMENSION
100
AcDbDimension
  2
*D12
  3
Standard
 10
-25.0
 20
0.0
 30
0.0
 11
-25.0
 21
3.0
 31
0.0
 70
32
 71
5
  1
<>
100
AcDbAlignedDimension
 13
0.0
 23
0.0
 33
0.0
 14
0.0
 24
6.0
 34
0.0
 50
90.0
100
AcDbRotatedDimension
  0
DIMENSION
  5
367
330
17
100
AcDbEntity
  8
DIMENSION
100
AcDbDimension
  2
*D13
  3
Standard
 10
-33.0
 20
0.0
 30
0.0
 11
-33.0
 21
25.0
 31
0.0
 70
32
 71
5
  1
<>
100
AcDbAlignedDimension
 13
0.0
 23
0.0
 33
0.0
 14
0.0
 24
50.0
 34
0.0
 50
90.0
100
AcDbRotatedDimension
  0
DIMENSION
  5
377
330
17
100
AcDbEntity
  8
DIMENSION
100
AcDbDimension
  2
*D14
  3
Standard
 10
-41.0
 20
0.0
 30
0.0
 11
-41.0
 21
36.25
 31
0.0
 70
32
 71
5
  1
<>
100
AcDbAlignedDimension
 13
0.0
 23
0.0
 33
0.0
 14
0.0
 24
72.5
 34
0.0
 50
90.0
100
AcDbRotatedDimension
  0
DIMENSION
  5
387
330
17
100
AcDbEntity
  8
DIMENSION
100
AcDbDimension
  2
*D15
  3
Standard
 10
-49.0
 20
0.0
 30
0.0
 11
-49.0
 21
75.0
 31
0.0
 70
32
 71
5
  1
<>
100
AcDbAlignedDimension
 13
0.0
 23
0.0
 33
0.0
 14
0.0
 24
150.0
 34
0.0
 50
90.0
100
AcDbRotatedDimension
  0
DIMENSION
  5
397
330
17
100
AcDbEntity
  8
DIMENSION
100
AcDbDimension
  2
*D16
  3
Standard
 10
-57.0
 20
0.0
 30
0.0
 11
-57.0
 21
100.0
 31
0.0
 70
32
 71
5
  1
<>
100
AcDbAlignedDimension
 13
0.0
 23
0.0
 33
0.0
 14
0.0
 24
200.0
 34
0.0
 50
90.0
100
AcDbRotatedDimension
  0
DIMENSION
  5
3A7
330
17
100
AcDbEntity
  8
DIMENSION
100
AcDbDimension
  2
*D17
  3
Standard
 10
250.0
 20
200.0
 30
0.0
 11
250.0
 21
175.0
 31
0.0
 70
32
 71
5
  1
<>
100
AcDbAlignedDimension
 13
225.0
 23
200.0
 33
0.0
 14
225.0
 24
150.0
 34
0.0
 50
90.0
100
AcDbRotatedDimension
  0
DIMENSION
  5
3B7
330
17
100
AcDbEntity
  8
DIMENSION
100
AcDbDimension
  2
*D18
  3
Standard
 10
258.0
 20
200.0
 30
0.0
 11
258.0
 21
136.25
 31
0.0
 70
32
 71
5
  1
<>
100
AcDbAlignedDimension
 13
225.0
 23
200.0
 33
0.0
 14
225.0
 24
72.5
 34
0.0
 50
90.0
100
AcDbRotatedDimension
  0
DIMENSION
  5
3C7
330
17
100
AcDbEntity
  8
DIMENSION
100
AcDbDimension
  2
*D19
  3
Standard
 10
266.0
 20
200.0
 30
0.0
 11
266.0
 21
125.0
 31
0.0
 70
32
 71
5
  1
<>
100
AcDbAlignedDimension
 13
225.0
 23
200.0
 33
0.0
 14
225.0
 24
50.0
 34
0.0
 50
90.0
100
AcDbRotatedDimension
  0
DIMENSION
  5
3D7
330
17
100
AcDbEntity
  8
DIMENSION
100
AcDbDimension
  2
*D20
  3
Standard
 10
274.0
 20
200.0
 30
0.0
 11
274.0
 21
103.0
 31
0.0
 70
32
 71
5
  1
<>
100
AcDbAlignedDimension
 13
225.0
 23
200.0
 33
0.0
 14
225.0
 24
6.0
 34
0.0
 50
90.0
100
AcDbRotatedDimension
  0
TEXT
  5
3E7
330
17
100
AcDbEntity
  8
ANNOTATION
100
AcDbText
 10
-57.0
 20
-85.0
 30
0.0
 40
5.0
  1
Legend:
100
AcDbText
  0
TEXT
  5
3E8
330
17
100
AcDbEntity
  8
ANNOTATION
100
AcDbText
 10
-57.0
 20
-95.0
 30
0.0
 40
5.0
  1
- CUT layer (red): Panel outline
100
AcDbText
  0
TEXT
  5
3E9
330
17
100
AcDbEntity
  8
ANNOTATION
100
AcDbText
 10
-57.0
 20
-105.0
 30
0.0
 40
5.0
  1
- DRILL layer (blue): Holes to be drilled
100
AcDbText
  0
TEXT
  5
3EA
330
17
100
AcDbEntity
  8
ANNOTATION
100
AcDbText
 10
-57.0
 20
-115.0
 30
0.0
 40
5.0
  1
- DIMENSION layer (grey): Panel and hole dimensions
100
AcDbText
  0
TEXT
  5
3EB
330
17
100
AcDbEntity
  8
ANNOTATION
100
AcDbText
 10
-57.0
 20
-125.0
 30
0.0
 40
5.0
  1
- ANNOTATION layer (black): Hole dimensions (d=diameter, h=depth).
100
AcDbText
  0
TEXT
  5
3EC
330
17
100
AcDbEntity
  8
ANNOTATION
100
AcDbText
 10
-57.0
 20
-135.0
 30
0.0
 40
5.0
  1
- For side-drilled holes, Z-coordinate is included (e.g., d10 h20 z9.5).
100
AcDbText
  0
TEXT
  5
3ED
330
17
100
AcDbEntity
  8
ANNOTATION
100
AcDbText
 10
-57.0
 20
-145.0
 30
0.0
 40
5.0
  1
- Side-drilled holes are also marked with a blue cross on the DRILL layer.
100
AcDbText
  0
TEXT
  5
3EE
330
17
100
AcDbEntity
  8
ANNOTATION
100
AcDbText
 10
294.0
 20
257.0
 30
0.0
 40
3.75
  1
Hole Schedule
100
AcDbText
  0
TEXT
  5
3EF
330
17
100
AcDbEntity
  8
ANNOTATION
100
AcDbText
 10
294.0
 20
249.5
 30
0.0
 40
2.5
  1
Hole Name
100
AcDbText
  0
TEXT
  5
3F0
330
17
100
AcDbEntity
  8
ANNOTATION
100
AcDbText
 10
344.0
 20
249.5
 30
0.0
 40
2.5
  1
X
100
AcDbText
  0
TEXT
  5
3F1
330
17
100
AcDbEntity
  8
ANNOTATION
100
AcDbText
 10
364.0
 20
249.5
 30
0.0
 40
2.5
  1
Y
100
AcDbText
  0
TEXT
  5
3F2
330
17
100
AcDbEntity
  8
ANNOTATION
100
AcDbText
 10
384.0
 20
249.5
 30
0.0
 40
2.5
  1
Z
100
AcDbText
  0
TEXT
  5
3F3
330
17
100
AcDbEntity
  8
ANNOTATION
100
AcDbText
 10
404.0
 20
249.5
 30
0.0
 40
2.5
  1
Dia
100
AcDbText
  0
TEXT
  5
3F4
330
17
100
AcDbEntity
  8
ANNOTATION
100
AcDbText
 10
424.0
 20
249.5
 30
0.0
 40
2.5
  1
Depth
100
AcDbText
  0
LINE
  5
3F5
330
17
100
AcDbEntity
  8
ANNOTATION
100
AcDbLine
 10
294.0
 20
248.25
 30
0.0
 11
444.0
 21
248.25
 31
0.0
  0
TEXT
  5
3F6
330
17
100
AcDbEntity
  8
ANNOTATION
100
AcDbText
 10
294.0
 20
243.875
 30
0.0
 40
2.5
  1
back_panel_1
100
AcDbText
  0
TEXT
  5
3F7
330
17
100
AcDbEntity
  8
ANNOTATION
100
AcDbText
 10
344.0
 20
243.875
 30
0.0
 40
2.5
  1
6.0
100
AcDbText
  0
TEXT
  5
3F8
330
17
100
AcDbEntity
  8
ANNOTATION
100
AcDbText
 10
364.0
 20
243.875
 30
0.0
 40
2.5
  1
50.0
100
AcDbText
  0
TEXT
  5
3F9
330
17
100
AcDbEntity
  8
ANNOTATION
100
AcDbText
 10
384.0
 20
243.875
 30
0.0
 40
2.5
  1
0.0
100
AcDbText
  0
TEXT
  5
3FA
330
17
100
AcDbEntity
  8
ANNOTATION
100
AcDbText
 10
404.0
 20
243.875
 30
0.0
 40
2.5
  1
4.0
100
AcDbText
  0
TEXT
  5
3FB
330
17
100
AcDbEntity
  8
ANNOTATION
100
AcDbText
 10
424.0
 20
243.875
 30
0.0
 40
2.5
  1
12.0
100
AcDbText
  0
TEXT
  5
3FC
330
17
100
AcDbEntity
  8
ANNOTATION
100
AcDbText
 10
294.0
 20
240.125
 30
0.0
 40
2.5
  1
back_panel_2
100
AcDbText
  0
TEXT
  5
3FD
330
17
100
AcDbEntity
  8
ANNOTATION
100
AcDbText
 10
344.0
 20
240.125
 30
0.0
 40
2.5
  1
6.0
100
AcDbText
  0
TEXT
  5
3FE
330
17
100
AcDbEntity
  8
ANNOTATION
100
AcDbText
 10
364.0
 20
240.125
 30
0.0
 40
2.5
  1
150.0
100
AcDbText
  0
TEXT
  5
3FF
330
17
100
AcDbEntity
  8
ANNOTATION
100
AcDbText
 10
384.0
 20
240.125
 30
0.0
 40
2.5
  1
0.0
100
AcDbText
  0
TEXT
  5
400
330
17
100
AcDbEntity
  8
ANNOTATION
100
AcDbText
 10
404.0
 20
240.125
 30
0.0
 40
2.5
  1
4.0
100
AcDbText
  0
TEXT
  5
401
330
17
100
AcDbEntity
  8
ANNOTATION
100
AcDbText
 10
424.0
 20
240.125
 30
0.0
 40
2.5
  1
12.0
100
AcDbText
  0
TEXT
  5
402
330
17
100
AcDbEntity
  8
ANNOTATION
100
AcDbText
 10
294.0
 20
236.375
 30
0.0
 40
2.5
  1
bottom_panel_1
100
AcDbText
  0
TEXT
  5
403
330
17
100
AcDbEntity
  8
ANNOTATION
100
AcDbText
 10
344.0
 20
236.375
 30
0.0
 40
2.5
  1
175.0
100
AcDbText
  0
TEXT
  5
404
330
17
100
AcDbEntity
  8
ANNOTATION
100
AcDbText
 10
364.0
 20
236.375
 30
0.0
 40
2.5
  1
6.0
100
AcDbText
  0
TEXT
  5
405
330
17
100
AcDbEntity
  8
ANNOTATION
100
AcDbText
 10
384.0
 20
236.375
 30
0.0
 40
2.5
  1
0.0
100
AcDbText
  0
TEXT
  5
406
330
17
100
AcDbEntity
  8
ANNOTATION
100
AcDbText
 10
404.0
 20
236.375
 30
0.0
 40
2.5
  1
4.0
100
AcDbText
  0
TEXT
  5
407
330
17
100
AcDbEntity
  8
ANNOTATION
100
AcDbText
 10
424.0
 20
236.375
 30
0.0
 40
2.5
  1
12.0
100
AcDbText
  0
TEXT
  5
408
330
17
100
AcDbEntity
  8
ANNOTATION
100
AcDbText
 10
294.0
 20
232.625
 30
0.0
 40
2.5
  1
bottom_panel_2
100
AcDbText
  0
TEXT
  5
409
330
17
100
AcDbEntity
  8
ANNOTATION
100
AcDbText
 10
344.0
 20
232.625
 30
0.0
 40
2.5
  1
50.0
100
AcDbText
  0
TEXT
  5
40A
330
17
100
AcDbEntity
  8
ANNOTATION
100
AcDbText
 10
364.0
 20
232.625
 30
0.0
 40
2.5
  1
6.0
100
AcDbText
  0
TEXT
  5
40B
330
17
100
AcDbEntity
  8
ANNOTATION
100
AcDbText
 10
384.0
 20
232.625
 30
0.0
 40
2.5
  1
0.0
100
AcDbText
  0
TEXT
  5
40C
330
17
100
AcDbEntity
  8
ANNOTATION
100
AcDbText
 10
404.0
 20
232.625
 30
0.0
 40
2.5
  1
4.0
100
AcDbText
  0
TEXT
  5
40D
330
17
100
AcDbEntity
  8
ANNOTATION
100
AcDbText
 10
424.0
 20
232.625
 30
0.0
 40
2.5
  1
12.0
100
AcDbText
  0
TEXT
  5
40E
330
17
100
AcDbEntity
  8
ANNOTATION
100
AcDbText
 10
294.0
 20
228.875
 30
0.0
 40
2.5
  1
dowel_front_1
100
AcDbText
  0
TEXT
  5
40F
330
17
100
AcDbEntity
  8
ANNOTATION
100
AcDbText
 10
344.0
 20
228.875
 30
0.0
 40
2.5
  1
225.0
100
AcDbText
  0
TEXT
  5
410
330
17
100
AcDbEntity
  8
ANNOTATION
100
AcDbText
 10
364.0
 20
228.875
 30
0.0
 40
2.5
  1
50.0
100
AcDbText
  0
TEXT
  5
411
330
17
100
AcDbEntity
  8
ANNOTATION
100
AcDbText
 10
384.0
 20
228.875
 30
0.0
 40
2.5
  1
6.0
100
AcDbText
  0
TEXT
  5
412
330
17
100
AcDbEntity
  8
ANNOTATION
100
AcDbText
 10
404.0
 20
228.875
 30
0.0
 40
2.5
  1
6.0
100
AcDbText
  0
TEXT
  5
413
330
17
100
AcDbEntity
  8
ANNOTATION
100
AcDbText
 10
424.0
 20
228.875
 30
0.0
 40
2.5
  1
20.0
100
AcDbText
  0
TEXT
  5
414
330
17
100
AcDbEntity
  8
ANNOTATION
100
AcDbText
 10
294.0
 20
225.125
 30
0.0
 40
2.5
  1
dowel_front_2
100
AcDbText
  0
TEXT
  5
415
330
17
100
AcDbEntity
  8
ANNOTATION
100
AcDbText
 10
344.0
 20
225.125
 30
0.0
 40
2.5
  1
225.0
100
AcDbText
  0
TEXT
  5
416
330
17
100
AcDbEntity
  8
ANNOTATION
100
AcDbText
 10
364.0
 20
225.125
 30
0.0
 40
2.5
  1
150.0
100
AcDbText
  0
TEXT
  5
417
330
17
100
AcDbEntity
  8
ANNOTATION
100
AcDbText
 10
384.0
 20
225.125
 30
0.0
 40
2.5
  1
6.0
100
AcDbText
  0
TEXT
  5
418
330
17
100
AcDbEntity
  8
ANNOTATION
100
AcDbText
 10
404.0
 20
225.125
 30
0.0
 40
2.5
  1
6.0
100
AcDbText
  0
TEXT
  5
419
330
17
100
AcDbEntity
  8
ANNOTATION
100
AcDbText
 10
424.0
 20
225.125
 30
0.0
 40
2.5
  1
20.0
100
AcDbText
  0
TEXT
  5
41A
330
17
100
AcDbEntity
  8
ANNOTATION
100
AcDbText
 10
294.0
 20
221.375
 30
0.0
 40
2.5
  1
slide_pilot_35
100
AcDbText
  0
TEXT
  5
41B
330
17
100
AcDbEntity
  8
ANNOTATION
100
AcDbText
 10
344.0
 20
221.375
 30
0.0
 40
2.5
  1
190.0
100
AcDbText
  0
TEXT
  5
41C
330
17
100
AcDbEntity
  8
ANNOTATION
100
AcDbText
 10
364.0
 20
221.375
 30
0.0
 40
2.5
  1
72.5
100
AcDbText
  0
TEXT
  5
41D
330
17
100
AcDbEntity
  8
ANNOTATION
100
AcDbText
 10
384.0
 20
221.375
 30
0.0
 40
2.5
  1
0.0
100
AcDbText
  0
TEXT
  5
41E
330
17
100
AcDbEntity
  8
ANNOTATION
100
AcDbText
 10
404.0
 20
221.375
 30
0.0
 40
2.5
  1
2.5
100
AcDbText
  0
TEXT
  5
41F
330
17
100
AcDbEntity
  8
ANNOTATION
100
AcDbText
 10
424.0
 20
221.375
 30
0.0
 40
2.5
  1
2.0
100
AcDbText
  0
TEXT
  5
420
330
17
100
AcDbEntity
  8
ANNOTATION
100
AcDbText
 10
294.0
 20
217.625
 30
0.0
 40
2.5
  1
slide_pilot_163
100
AcDbText
  0
TEXT
  5
421
330
17
100
AcDbEntity
  8
ANNOTATION
100
AcDbText
 10
344.0
 20
217.625
 30
0.0
 40
2.5
  1
62.0
100
AcDbText
  0
TEXT
  5
422
330
17
100
AcDbEntity
  8
ANNOTATION
100
AcDbText
 10
364.0
 20
217.625
 30
0.0
 40
2.5
  1
72.5
100
AcDbText
  0
TEXT
  5
423
330
17
100
AcDbEntity
  8
ANNOTATION
100
AcDbText
 10
384.0
 20
217.625
 30
0.0
 40
2.5
  1
0.0
100
AcDbText
  0
TEXT
  5
424
330
17
100
AcDbEntity
  8
ANNOTATION
100
AcDbText
 10
404.0
 20
217.625
 30
0.0
 40
2.5
  1
2.5
100
AcDbText
  0
TEXT
  5
425
330
17
100
AcDbEntity
  8
ANNOTATION
100
AcDbText
 10
424.0
 20
217.625
 30
0.0
 40
2.5
  1
2.0
100
AcDbText
  0
TEXT
  5
427
330
17
100
AcDbEntity
  8
ANNOTATION
100
AcDbText
 10
193.5
 20
280.75
 30
0.0
 40
10.0
  1
DrawerSideLeft
  7
Title
 72
1
 11
193.5
 21
280.75
 31
0.0
100
AcDbText
 73
2
  0
ENDSEC
  0
SECTION
  2
OBJECTS
  0
DICTIONARY
  5
A
330
0
100
AcDbDictionary
281
1
  3
ACAD_COLOR
350
B
  3
ACAD_GROUP
350
C
  3
ACAD_LAYOUT
350
D
  3
ACAD_MATERIAL
350
E
  3
ACAD_MLEADERSTYLE
350
F
  3
ACAD_MLINESTYLE
350
10
  3
ACAD_PLOTSETTINGS
350
11
  3
ACAD_PLOTSTYLENAME
350
12
  3
ACAD_SCALELIST
350
14
  3
ACAD_TABLESTYLE
350
15
  3
ACAD_VISUALSTYLE
350
16
  3
EZDXF_META
350
2D
  0
DICTIONARY
  5
B
330
A
100
AcDbDictionary
281
1
  0
DICTIONARY
  5
C
330
A
100
AcDbDictionary
281
1
  0
DICTIONARY
  5
D
330
A
100
AcDbDictionary
281
1
  3
Model
350
1A
  3
Layout1
350
1E
  3
A4 landscape
350
42B
  0
DICTIONARY
  5
E
330
A
100
AcDbDictionary
281
1
  3
ByBlock
350
1F
  3
ByLayer
350
20
  3
Global
350
21
  0
DICTIONARY
  5
F
330
A
100
AcDbDictionary
281
1
  3
Standard
350
2C
  0
DICTIONARY
  5
10
330
A
100
AcDbDictionary
281
1
  3
Standard
350
22
  0
DICTIONARY
  5
11
330
A
100
AcDbDictionary
281
1
  0
ACDBDICTIONARYWDFLT
  5
12
330
A
100
AcDbDictionary
281
1
  3
Normal
350
13
100
AcDbDictionaryWithDefault
340
13
  0
ACDBPLACEHOLDER
  5
13
330
12
  0
DICTIONARY
  5
14
330
A
100
AcDbDictionary
281
1
  0
DICTIONARY
  5
15
330
A
100
AcDbDictionary
281
1
  0
DICTIONARY
  5
16
330
A
100
AcDbDictionary
281
1
  0
LAYOUT
  5
1A
330
D
100
AcDbPlotSettings
  1

  4
A3
  6

 40
7.5
 41
20.0
 42
7.5
 43
20.0
 44
420.0
 45
297.0
 46
0.0
 47
0.0
 48
0.0
 49
0.0
140
0.0
141
0.0
142
1.0
143
1.0
 70
1024
 72
1
 73
0
 74
5
  7

 75
16
 76
0
 77
2
 78
300
147
1.0
148
0.0
149
0.0
100
AcDbLayout
  1
Model
 70
1
 71
0
 10
0.0
 20
0.0
 11
420.0
 21
297.0
 12
0.0
 22
0.0
 32
0.0
 14
1e+20
 24
1e+20
 34
1e+20
 15
-1e+20
 25
-1e+20
 35
-1e+20
146
0.0
 13
0.0
 23
0.0
 33
0.0
 16
1.0
 26
0.0
 36
0.0
 17
0.0
 27
1.0
 37
0.0
 76
1
330
17
  0
LAYOUT
  5
1E
330
D
100
AcDbPlotSettings
  1

  4
A3
  6

 40
7.5
 41
20.0
 42
7.5
 43
20.0
 44
420.0
 45
297.0
 46
0.0
 47
0.0
 48
0.0
 49
0.0
140
0.0
141
0.0
142
1.0
143
1.0
 70
0
 72
1
 73
0
 74
5
  7

 75
16
 76
0
 77
2
 78
300
147
1.0
148
0.0
149
0.0
100
AcDbLayout
  1
Layout1
 70
1
 71
1
 10
0.0
 20
0.0
 11
420.0
 21
297.0
 12
0.0
 22
0.0
 32
0.0
 14
1e+20
 24
1e+20
 34
1e+20
 15
-1e+20
 25
-1e+20
 35
-1e+20
146
0.0
 13
0.0
 23
0.0
 33
0.0
 16
1.0
 26
0.0
 36
0.0
 17
0.0
 27
1.0
 37
0.0
 76
1
330
1B
  0
MATERIAL
  5
1F
102
{ACAD_REACTORS
330
E
102
}
330
E
100
AcDbMaterial
  1
ByBlock
  2

 70
0
 40
1.0
 71
1
 41
1.0
 91
-1023410177
 42
1.0
 72
1
  3

 73
1
 74
1
 75
1
 44
0.5
 73
0
 45
1.0
 46
1.0
 77
1
  4

 78
1
 79
1
170
1
 48
1.0
171
1
  6

172
1
173
1
174
1
140
1.0
141
1.0
175
1
  7

176
1
177
1
178
1
143
1.0
179
1
  8

270
1
271
1
272
1
145
1.0
146
1.0
273
1
  9

274
1
275
1
276
1
 42
1.0
 72
1
  3

 73
1
 74
1
 75
1
 94
63
  0
MATERIAL
  5
20
102
{ACAD_REACTORS
330
E
102
}
330
E
100
AcDbMaterial
  1
ByLayer
  2

 70
0
 40
1.0
 71
1
 41
1.0
 91
-1023410177
 42
1.0
 72
1
  3

 73
1
 74
1
 75
1
 44
0.5
 73
0
 45
1.0
 46
1.0
 77
1
  4

 78
1
 79
1
170
1
 48
1.0
171
1
  6

172
1
173
1
174
1
140
1.0
141
1.0
175
1
  7

176
1
177
1
178
1
143
1.0
179
1
  8

270
1
271
1
272
1
145
1.0
146
1.0
273
1
  9

274
1
275
1
276
1
 42
1.0
 72
1
  3

 73
1
 74
1
 75
1
 94
63
  0
MATERIAL
  5
21
102
{ACAD_REACTORS
330
E
102
}
330
E
100
AcDbMaterial
  1
Global
  2

 70
0
 40
1.0
 71
1
 41
1.0
 91
-1023410177
 42
1.0
 72
1
  3

 73
1
 74
1
 75
1
 44
0.5
 73
0
 45
1.0
 46
1.0
 77
1
  4

 78
1
 79
1
170
1
 48
1.0
171
1
  6

172
1
173
1
174
1
140
1.0
141
1.0
175
1
  7

176
1
177
1
178
1
143
1.0
179
1
  8

270
1
271
1
272
1
145
1.0
146
1.0
273
1
  9

274
1
275
1
276
1
 42
1.0
 72
1
  3

 73
1
 74
1
 75
1
 94
63
  0
MLINESTYLE
  5
22
102
{ACAD_REACTORS
330
10
102
}
330
10
100
AcDbMlineStyle
  2
Standard
 70
0
  3

 62
256
 51
90.0
 52
90.0
 71
2
 49
0.5
 62
256
  6
BYLAYER
 49
-0.5
 62
256
  6
BYLAYER
  0
MLEADERSTYLE
  5
2C
102
{ACAD_REACTORS
330
F
102
}
330
F
100
AcDbMLeaderStyle
179
2
170
2
171
1
172
0
 90
2
 40
0.0
 41
0.0
173
1
 91
-1056964608
 92
-2
290
1
 42
2.0
291
1
 43
8.0
  3
Standard
 44
4.0
300

342
29
174
1
175
1
176
0
178
1
 93
-1056964608
 45
4.0
292
0
297
0
 46
4.0
 94
-1056964608
 47
1.0
 49
1.0
140
1.0
294
1
141
0.0
177
0
142
1.0
295
0
296
0
143
3.75
271
0
272
9
273
9
  0
DICTIONARY
  5
2D
330
A
100
AcDbDictionary
280
1
281
1
  3
CREATED_BY_EZDXF
350
2E
  3
WRITTEN_BY_EZDXF
350
430
  0
DICTIONARYVAR
  5
2E
330
2D
100
DictionaryVariables
280
0
  1
1.4.2 @ 2025-09-19T05:34:56.457852+00:00
  0
LAYOUT
  5
42B
330
D
100
AcDbPlotSettings
  1

  2
DWG to PDF.pc3
  4
ezdxf_(297.00_x_210.00_MM)
  6

 40
10.0
 41
10.0
 42
10.0
 43
10.0
 44
297.0
 45
210.0
 46
0.0
 47
0.0
 48
0.0
 49
0.0
140
0.0
141
0.0
142
1.0
143
1.0
 70
672
 72
1
 73
0
 74
5
  7

 75
16
 76
0
 77
2
 78
300
147
1.0
148
0.0
149
0.0
100
AcDbLayout
  1
A4 landscape
 70
1
 71
3
 10
-10.0
 20
-10.0
 11
287.0
 21
200.0
 12
0.0
 22
0.0
 32
0.0
 14
1e+20
 24
1e+20
 34
1e+20
 15
-1e+20
 25
-1e+20
 35
-1e+20
146
0.0
 13
0.0
 23
0.0
 33
0.0
 16
1.0
 26
0.0
 36
0.0
 17
0.0
 27
1.0
 37
0.0
 76
1
330
428
331
42C
  0
DICTIONARYVAR
  5
430
330
2D
100
DictionaryVariables
280
0
  1
1.4.2 @ 2025-09-19T05:34:56.507779+00:00
  0
ENDSEC
  0
EOF
