  0
SECTION
  2
HEADER
  9
$ACADVER
  1
AC1015
  9
$ACADMAINTVER
 70
6
  9
$DWGCODEPAGE
  3
ANSI_1252
  9
$INSBASE
 10
0.0
 20
0.0
 30
0.0
  9
$EXTMIN
 10
1e+20
 20
1e+20
 30
1e+20
  9
$EXTMAX
 10
-1e+20
 20
-1e+20
 30
-1e+20
  9
$LIMMIN
 10
0.0
 20
0.0
  9
$LIMMAX
 10
420.0
 20
297.0
  9
$ORTHOMODE
 70
0
  9
$REGENMODE
 70
1
  9
$FILLMODE
 70
1
  9
$QTEXTMODE
 70
0
  9
$MIRRTEXT
 70
1
  9
$LTSCALE
 40
1.0
  9
$ATTMODE
 70
1
  9
$TEXTSIZE
 40
2.5
  9
$TRACEWID
 40
1.0
  9
$TEXTSTYLE
  7
Standard
  9
$CLAYER
  8
0
  9
$CELTYPE
  6
ByLayer
  9
$CECOLOR
 62
256
  9
$CELTSCALE
 40
1.0
  9
$DISPSILH
 70
0
  9
$DIMSCALE
 40
1.0
  9
$DIMASZ
 40
2.5
  9
$DIMEXO
 40
0.625
  9
$DIMDLI
 40
3.75
  9
$DIMRND
 40
0.0
  9
$DIMDLE
 40
0.0
  9
$DIMEXE
 40
1.25
  9
$DIMTP
 40
0.0
  9
$DIMTM
 40
0.0
  9
$DIMTXT
 40
2.5
  9
$DIMCEN
 40
2.5
  9
$DIMTSZ
 40
0.0
  9
$DIMTOL
 70
0
  9
$DIMLIM
 70
0
  9
$DIMTIH
 70
0
  9
$DIMTOH
 70
0
  9
$DIMSE1
 70
0
  9
$DIMSE2
 70
0
  9
$DIMTAD
 70
1
  9
$DIMZIN
 70
8
  9
$DIMBLK
  1

  9
$DIMASO
 70
1
  9
$DIMSHO
 70
1
  9
$DIMPOST
  1

  9
$DIMAPOST
  1

  9
$DIMALT
 70
0
  9
$DIMALTD
 70
3
  9
$DIMALTF
 40
0.03937007874
  9
$DIMLFAC
 40
1.0
  9
$DIMTOFL
 70
1
  9
$DIMTVP
 40
0.0
  9
$DIMTIX
 70
0
  9
$DIMSOXD
 70
0
  9
$DIMSAH
 70
0
  9
$DIMBLK1
  1

  9
$DIMBLK2
  1

  9
$DIMSTYLE
  2
ISO-25
  9
$DIMCLRD
 70
0
  9
$DIMCLRE
 70
0
  9
$DIMCLRT
 70
0
  9
$DIMTFAC
 40
1.0
  9
$DIMGAP
 40
0.625
  9
$DIMJUST
 70
0
  9
$DIMSD1
 70
0
  9
$DIMSD2
 70
0
  9
$DIMTOLJ
 70
0
  9
$DIMTZIN
 70
8
  9
$DIMALTZ
 70
0
  9
$DIMALTTZ
 70
0
  9
$DIMUPT
 70
0
  9
$DIMDEC
 70
2
  9
$DIMTDEC
 70
2
  9
$DIMALTU
 70
2
  9
$DIMALTTD
 70
3
  9
$DIMTXSTY
  7
Standard
  9
$DIMAUNIT
 70
0
  9
$DIMADEC
 70
0
  9
$DIMALTRND
 40
0.0
  9
$DIMAZIN
 70
0
  9
$DIMDSEP
 70
44
  9
$DIMATFIT
 70
3
  9
$DIMFRAC
 70
0
  9
$DIMLDRBLK
  1

  9
$DIMLUNIT
 70
2
  9
$DIMLWD
 70
-2
  9
$DIMLWE
 70
-2
  9
$DIMTMOVE
 70
0
  9
$LUNITS
 70
2
  9
$LUPREC
 70
4
  9
$SKETCHINC
 40
1.0
  9
$FILLETRAD
 40
10.0
  9
$AUNITS
 70
0
  9
$AUPREC
 70
2
  9
$MENU
  1
.
  9
$ELEVATION
 40
0.0
  9
$PELEVATION
 40
0.0
  9
$THICKNESS
 40
0.0
  9
$LIMCHECK
 70
0
  9
$CHAMFERA
 40
0.0
  9
$CHAMFERB
 40
0.0
  9
$CHAMFERC
 40
0.0
  9
$CHAMFERD
 40
0.0
  9
$SKPOLY
 70
0
  9
$TDCREATE
 40
2460933.7338773147
  9
$TDUCREATE
 40
2458532.153996898
  9
$TDUPDATE
 40
2460933.7338773147
  9
$TDUUPDATE
 40
2458532.1544311
  9
$TDINDWG
 40
0.0
  9
$TDUSRTIMER
 40
0.0
  9
$USRTIMER
 70
1
  9
$ANGBASE
 50
0.0
  9
$ANGDIR
 70
0
  9
$PDMODE
 70
0
  9
$PDSIZE
 40
0.0
  9
$PLINEWID
 40
0.0
  9
$SPLFRAME
 70
0
  9
$SPLINETYPE
 70
6
  9
$SPLINESEGS
 70
8
  9
$HANDSEED
  5
2E5
  9
$SURFTAB1
 70
6
  9
$SURFTAB2
 70
6
  9
$SURFTYPE
 70
6
  9
$SURFU
 70
6
  9
$SURFV
 70
6
  9
$UCSBASE
  2

  9
$UCSNAME
  2

  9
$UCSORG
 10
0.0
 20
0.0
 30
0.0
  9
$UCSXDIR
 10
1.0
 20
0.0
 30
0.0
  9
$UCSYDIR
 10
0.0
 20
1.0
 30
0.0
  9
$UCSORTHOREF
  2

  9
$UCSORTHOVIEW
 70
0
  9
$UCSORGTOP
 10
0.0
 20
0.0
 30
0.0
  9
$UCSORGBOTTOM
 10
0.0
 20
0.0
 30
0.0
  9
$UCSORGLEFT
 10
0.0
 20
0.0
 30
0.0
  9
$UCSORGRIGHT
 10
0.0
 20
0.0
 30
0.0
  9
$UCSORGFRONT
 10
0.0
 20
0.0
 30
0.0
  9
$UCSORGBACK
 10
0.0
 20
0.0
 30
0.0
  9
$PUCSBASE
  2

  9
$PUCSNAME
  2

  9
$PUCSORG
 10
0.0
 20
0.0
 30
0.0
  9
$PUCSXDIR
 10
1.0
 20
0.0
 30
0.0
  9
$PUCSYDIR
 10
0.0
 20
1.0
 30
0.0
  9
$PUCSORTHOREF
  2

  9
$PUCSORTHOVIEW
 70
0
  9
$PUCSORGTOP
 10
0.0
 20
0.0
 30
0.0
  9
$PUCSORGBOTTOM
 10
0.0
 20
0.0
 30
0.0
  9
$PUCSORGLEFT
 10
0.0
 20
0.0
 30
0.0
  9
$PUCSORGRIGHT
 10
0.0
 20
0.0
 30
0.0
  9
$PUCSORGFRONT
 10
0.0
 20
0.0
 30
0.0
  9
$PUCSORGBACK
 10
0.0
 20
0.0
 30
0.0
  9
$USERI1
 70
0
  9
$USERI2
 70
0
  9
$USERI3
 70
0
  9
$USERI4
 70
0
  9
$USERI5
 70
0
  9
$USERR1
 40
0.0
  9
$USERR2
 40
0.0
  9
$USERR3
 40
0.0
  9
$USERR4
 40
0.0
  9
$USERR5
 40
0.0
  9
$WORLDVIEW
 70
1
  9
$SHADEDGE
 70
3
  9
$SHADEDIF
 70
70
  9
$TILEMODE
 70
1
  9
$MAXACTVP
 70
64
  9
$PINSBASE
 10
0.0
 20
0.0
 30
0.0
  9
$PLIMCHECK
 70
0
  9
$PEXTMIN
 10
1e+20
 20
1e+20
 30
1e+20
  9
$PEXTMAX
 10
-1e+20
 20
-1e+20
 30
-1e+20
  9
$PLIMMIN
 10
0.0
 20
0.0
  9
$PLIMMAX
 10
420.0
 20
297.0
  9
$UNITMODE
 70
0
  9
$VISRETAIN
 70
1
  9
$PLINEGEN
 70
0
  9
$PSLTSCALE
 70
1
  9
$TREEDEPTH
 70
3020
  9
$CMLSTYLE
  2
Standard
  9
$CMLJUST
 70
0
  9
$CMLSCALE
 40
20.0
  9
$PROXYGRAPHICS
 70
1
  9
$MEASUREMENT
 70
1
  9
$CELWEIGHT
370
-1
  9
$ENDCAPS
280
0
  9
$JOINSTYLE
280
0
  9
$LWDISPLAY
290
0
  9
$INSUNITS
 70
4
  9
$HYPERLINKBASE
  1

  9
$STYLESHEET
  1

  9
$XEDIT
290
1
  9
$CEPSNTYPE
380
0
  9
$PSTYLEMODE
290
1
  9
$FINGERPRINTGUID
  2
{EC18621F-7729-42D0-8B4F-0D28C3BFCC31}
  9
$VERSIONGUID
  2
{A3394D46-CC16-4173-8216-3D1C0123ED66}
  9
$EXTNAMES
290
1
  9
$PSVPSCALE
 40
0.0
  9
$OLESTARTUP
290
0
  0
ENDSEC
  0
SECTION
  2
CLASSES
  0
CLASS
  1
ACDBDICTIONARYWDFLT
  2
AcDbDictionaryWithDefault
  3
ObjectDBX Classes
 90
0
280
0
281
0
  0
CLASS
  1
SUN
  2
AcDbSun
  3
SCENEOE
 90
1153
280
0
281
0
  0
CLASS
  1
VISUALSTYLE
  2
AcDbVisualStyle
  3
ObjectDBX Classes
 90
4095
280
0
281
0
  0
CLASS
  1
MATERIAL
  2
AcDbMaterial
  3
ObjectDBX Classes
 90
1153
280
0
281
0
  0
CLASS
  1
SCALE
  2
AcDbScale
  3
ObjectDBX Classes
 90
1153
280
0
281
0
  0
CLASS
  1
TABLESTYLE
  2
AcDbTableStyle
  3
ObjectDBX Classes
 90
4095
280
0
281
0
  0
CLASS
  1
MLEADERSTYLE
  2
AcDbMLeaderStyle
  3
ACDB_MLEADERSTYLE_CLASS
 90
4095
280
0
281
0
  0
CLASS
  1
DICTIONARYVAR
  2
AcDbDictionaryVar
  3
ObjectDBX Classes
 90
0
280
0
281
0
  0
CLASS
  1
CELLSTYLEMAP
  2
AcDbCellStyleMap
  3
ObjectDBX Classes
 90
1152
280
0
281
0
  0
CLASS
  1
MENTALRAYRENDERSETTINGS
  2
AcDbMentalRayRenderSettings
  3
SCENEOE
 90
1024
280
0
281
0
  0
CLASS
  1
ACDBDETAILVIEWSTYLE
  2
AcDbDetailViewStyle
  3
ObjectDBX Classes
 90
1025
280
0
281
0
  0
CLASS
  1
ACDBSECTIONVIEWSTYLE
  2
AcDbSectionViewStyle
  3
ObjectDBX Classes
 90
1025
280
0
281
0
  0
CLASS
  1
RASTERVARIABLES
  2
AcDbRasterVariables
  3
ISM
 90
0
280
0
281
0
  0
CLASS
  1
ACDBPLACEHOLDER
  2
AcDbPlaceHolder
  3
ObjectDBX Classes
 90
0
280
0
281
0
  0
CLASS
  1
LAYOUT
  2
AcDbLayout
  3
ObjectDBX Classes
 90
0
280
0
281
0
  0
ENDSEC
  0
SECTION
  2
TABLES
  0
TABLE
  2
VPORT
  5
8
330
0
100
AcDbSymbolTable
 70
1
  0
VPORT
  5
23
330
8
100
AcDbSymbolTableRecord
100
AcDbViewportTableRecord
  2
*Active
 70
0
 10
0.0
 20
0.0
 11
1.0
 21
1.0
 12
0.0
 22
0.0
 13
0.0
 23
0.0
 14
0.5
 24
0.5
 15
0.5
 25
0.5
 16
0.0
 26
0.0
 36
1.0
 17
0.0
 27
0.0
 37
0.0
 40
1000.0
 41
1.34
 42
50.0
 43
0.0
 44
0.0
 50
0.0
 51
0.0
 71
0
 72
1000
 73
1
 74
3
 75
0
 76
0
 77
0
 78
0
281
0
 65
0
146
0.0
  0
ENDTAB
  0
TABLE
  2
LTYPE
  5
2
330
0
100
AcDbSymbolTable
 70
3
  0
LTYPE
  5
24
330
2
100
AcDbSymbolTableRecord
100
AcDbLinetypeTableRecord
  2
ByBlock
 70
0
  3

 72
65
 73
0
 40
0.0
  0
LTYPE
  5
25
330
2
100
AcDbSymbolTableRecord
100
AcDbLinetypeTableRecord
  2
ByLayer
 70
0
  3

 72
65
 73
0
 40
0.0
  0
LTYPE
  5
26
330
2
100
AcDbSymbolTableRecord
100
AcDbLinetypeTableRecord
  2
Continuous
 70
0
  3

 72
65
 73
0
 40
0.0
  0
ENDTAB
  0
TABLE
  2
LAYER
  5
1
330
0
100
AcDbSymbolTable
 70
6
  0
LAYER
  5
27
330
1
100
AcDbSymbolTableRecord
100
AcDbLayerTableRecord
  2
0
 70
0
 62
7
  6
Continuous
370
-3
390
13
  0
LAYER
  5
28
330
1
100
AcDbSymbolTableRecord
100
AcDbLayerTableRecord
  2
Defpoints
 70
0
 62
7
  6
Continuous
290
0
370
-3
390
13
  0
LAYER
  5
2F
330
1
100
AcDbSymbolTableRecord
100
AcDbLayerTableRecord
  2
CUT
 70
0
 62
1
  6
CONTINUOUS
370
-3
390
13
  0
LAYER
  5
30
330
1
100
AcDbSymbolTableRecord
100
AcDbLayerTableRecord
  2
DRILL
 70
0
 62
5
  6
CONTINUOUS
370
-3
390
13
  0
LAYER
  5
31
330
1
100
AcDbSymbolTableRecord
100
AcDbLayerTableRecord
  2
DIMENSION
 70
0
 62
3
  6
CONTINUOUS
370
-3
390
13
  0
LAYER
  5
32
330
1
100
AcDbSymbolTableRecord
100
AcDbLayerTableRecord
  2
ANNOTATION
 70
0
 62
6
  6
CONTINUOUS
370
-3
390
13
  0
ENDTAB
  0
TABLE
  2
STYLE
  5
5
330
0
100
AcDbSymbolTable
 70
2
  0
STYLE
  5
29
330
5
100
AcDbSymbolTableRecord
100
AcDbTextStyleTableRecord
  2
Standard
 70
0
 40
0.0
 41
1.0
 50
0.0
 71
0
 42
2.5
  3
txt
  4

  0
STYLE
  5
2DA
330
5
100
AcDbSymbolTableRecord
100
AcDbTextStyleTableRecord
  2
Title
 70
0
 40
0.0
 41
1.0
 50
0.0
 71
0
 42
2.5
  3
ISOCPEUR.ttf
  4

  0
ENDTAB
  0
TABLE
  2
VIEW
  5
7
330
0
100
AcDbSymbolTable
 70
0
  0
ENDTAB
  0
TABLE
  2
UCS
  5
6
330
0
100
AcDbSymbolTable
 70
0
  0
ENDTAB
  0
TABLE
  2
APPID
  5
3
330
0
100
AcDbSymbolTable
 70
3
  0
APPID
  5
2A
330
3
100
AcDbSymbolTableRecord
100
AcDbRegAppTableRecord
  2
ACAD
 70
0
  0
APPID
  5
2E2
330
3
100
AcDbSymbolTableRecord
100
AcDbRegAppTableRecord
  2
HATCHBACKGROUNDCOLOR
 70
0
  0
APPID
  5
2E3
330
3
100
AcDbSymbolTableRecord
100
AcDbRegAppTableRecord
  2
EZDXF
 70
0
  0
ENDTAB
  0
TABLE
  2
DIMSTYLE
  5
4
330
0
100
AcDbSymbolTable
 70
1
100
AcDbDimStyleTable
  0
DIMSTYLE
105
2B
330
4
100
AcDbSymbolTableRecord
100
AcDbDimStyleTableRecord
  2
Standard
 70
0
  3

  4

 40
1.0
 41
2.5
 42
0.625
 43
3.75
 44
1.25
 45
0.0
 46
0.0
 47
0.0
 48
0.0
140
2.5
141
2.5
142
0.0
143
0.03937007874
144
1.0
145
0.0
146
1.0
147
0.625
148
0.0
 71
0
 72
0
 73
0
 74
0
 75
0
 76
0
 77
1
 78
8
 79
3
170
0
171
3
172
1
173
0
174
0
175
0
176
0
177
0
178
0
179
2
271
2
272
2
273
2
274
3
275
0
276
0
277
2
278
44
279
0
280
0
281
0
282
0
283
0
284
8
285
0
286
0
288
0
289
3
371
-2
372
-2
  0
ENDTAB
  0
TABLE
  2
BLOCK_RECORD
  5
9
330
0
100
AcDbSymbolTable
 70
30
  0
BLOCK_RECORD
  5
17
330
9
100
AcDbSymbolTableRecord
100
AcDbBlockTableRecord
  2
*Model_Space
340
1A
  0
BLOCK_RECORD
  5
1B
330
9
100
AcDbSymbolTableRecord
100
AcDbBlockTableRecord
  2
*Paper_Space
340
1E
  0
BLOCK_RECORD
  5
EC
330
9
100
AcDbSymbolTableRecord
100
AcDbBlockTableRecord
  2
*D1
340
0
  0
BLOCK_RECORD
  5
F1
330
9
100
AcDbSymbolTableRecord
100
AcDbBlockTableRecord
  2
_CLOSEDFILLED
340
0
  0
BLOCK_RECORD
  5
100
330
9
100
AcDbSymbolTableRecord
100
AcDbBlockTableRecord
  2
*D2
340
0
  0
BLOCK_RECORD
  5
110
330
9
100
AcDbSymbolTableRecord
100
AcDbBlockTableRecord
  2
*D3
340
0
  0
BLOCK_RECORD
  5
120
330
9
100
AcDbSymbolTableRecord
100
AcDbBlockTableRecord
  2
*D4
340
0
  0
BLOCK_RECORD
  5
130
330
9
100
AcDbSymbolTableRecord
100
AcDbBlockTableRecord
  2
*D5
340
0
  0
BLOCK_RECORD
  5
140
330
9
100
AcDbSymbolTableRecord
100
AcDbBlockTableRecord
  2
*D6
340
0
  0
BLOCK_RECORD
  5
150
330
9
100
AcDbSymbolTableRecord
100
AcDbBlockTableRecord
  2
*D7
340
0
  0
BLOCK_RECORD
  5
160
330
9
100
AcDbSymbolTableRecord
100
AcDbBlockTableRecord
  2
*D8
340
0
  0
BLOCK_RECORD
  5
170
330
9
100
AcDbSymbolTableRecord
100
AcDbBlockTableRecord
  2
*D9
340
0
  0
BLOCK_RECORD
  5
180
330
9
100
AcDbSymbolTableRecord
100
AcDbBlockTableRecord
  2
*D10
340
0
  0
BLOCK_RECORD
  5
190
330
9
100
AcDbSymbolTableRecord
100
AcDbBlockTableRecord
  2
*D11
340
0
  0
BLOCK_RECORD
  5
1A0
330
9
100
AcDbSymbolTableRecord
100
AcDbBlockTableRecord
  2
*D12
340
0
  0
BLOCK_RECORD
  5
1B0
330
9
100
AcDbSymbolTableRecord
100
AcDbBlockTableRecord
  2
*D13
340
0
  0
BLOCK_RECORD
  5
1C0
330
9
100
AcDbSymbolTableRecord
100
AcDbBlockTableRecord
  2
*D14
340
0
  0
BLOCK_RECORD
  5
1D0
330
9
100
AcDbSymbolTableRecord
100
AcDbBlockTableRecord
  2
*D15
340
0
  0
BLOCK_RECORD
  5
1E0
330
9
100
AcDbSymbolTableRecord
100
AcDbBlockTableRecord
  2
*D16
340
0
  0
BLOCK_RECORD
  5
1F0
330
9
100
AcDbSymbolTableRecord
100
AcDbBlockTableRecord
  2
*D17
340
0
  0
BLOCK_RECORD
  5
200
330
9
100
AcDbSymbolTableRecord
100
AcDbBlockTableRecord
  2
*D18
340
0
  0
BLOCK_RECORD
  5
210
330
9
100
AcDbSymbolTableRecord
100
AcDbBlockTableRecord
  2
*D19
340
0
  0
BLOCK_RECORD
  5
220
330
9
100
AcDbSymbolTableRecord
100
AcDbBlockTableRecord
  2
*D20
340
0
  0
BLOCK_RECORD
  5
230
330
9
100
AcDbSymbolTableRecord
100
AcDbBlockTableRecord
  2
*D21
340
0
  0
BLOCK_RECORD
  5
240
330
9
100
AcDbSymbolTableRecord
100
AcDbBlockTableRecord
  2
*D22
340
0
  0
BLOCK_RECORD
  5
250
330
9
100
AcDbSymbolTableRecord
100
AcDbBlockTableRecord
  2
*D23
340
0
  0
BLOCK_RECORD
  5
260
330
9
100
AcDbSymbolTableRecord
100
AcDbBlockTableRecord
  2
*D24
340
0
  0
BLOCK_RECORD
  5
270
330
9
100
AcDbSymbolTableRecord
100
AcDbBlockTableRecord
  2
*D25
340
0
  0
BLOCK_RECORD
  5
280
330
9
100
AcDbSymbolTableRecord
100
AcDbBlockTableRecord
  2
*D26
340
0
  0
BLOCK_RECORD
  5
2DC
330
9
100
AcDbSymbolTableRecord
100
AcDbBlockTableRecord
  2
*Paper_Space0
340
2DF
  0
ENDTAB
  0
ENDSEC
  0
SECTION
  2
BLOCKS
  0
BLOCK
  5
18
330
17
100
AcDbEntity
  8
0
100
AcDbBlockBegin
  2
*Model_Space
 70
0
 10
0.0
 20
0.0
 30
0.0
  3
*Model_Space
  1

  0
ENDBLK
  5
19
330
17
100
AcDbEntity
  8
0
100
AcDbBlockEnd
  0
BLOCK
  5
1C
330
1B
100
AcDbEntity
  8
0
100
AcDbBlockBegin
  2
*Paper_Space
 70
0
 10
0.0
 20
0.0
 30
0.0
  3
*Paper_Space
  1

  0
ENDBLK
  5
1D
330
1B
100
AcDbEntity
  8
0
100
AcDbBlockEnd
  0
BLOCK
  5
ED
330
EC
100
AcDbEntity
  8
0
100
AcDbBlockBegin
  2
*D1
 70
1
 10
0.0
 20
0.0
 30
0.0
  3
*D1
  1

  0
LINE
  5
EF
330
EC
100
AcDbEntity
  8
0
100
AcDbLine
 10
0.0
 20
0.0
 30
0.0
 11
0.0
 21
-25.0
 31
0.0
  0
LINE
  5
F0
330
EC
100
AcDbEntity
  8
0
100
AcDbLine
 10
41.5
 20
0.0
 30
0.0
 11
41.5
 21
-25.0
 31
0.0
  0
INSERT
  5
F5
330
EC
100
AcDbEntity
  8
DIMENSION
100
AcDbBlockReference
  2
_CLOSEDFILLED
 10
0.0
 20
-25.0
 30
0.0
 41
0.25
 42
0.25
 50
180.0
  0
INSERT
  5
F7
330
EC
100
AcDbEntity
  8
DIMENSION
100
AcDbBlockReference
  2
_CLOSEDFILLED
 10
41.5
 20
-25.0
 30
0.0
 41
0.25
 42
0.25
  0
LINE
  5
F9
330
EC
100
AcDbEntity
  8
0
100
AcDbLine
 10
0.25
 20
-25.0
 30
0.0
 11
18.75
 21
-25.0
 31
0.0
  0
LINE
  5
FA
330
EC
100
AcDbEntity
  8
0
100
AcDbLine
 10
22.75
 20
-25.0
 30
0.0
 11
41.25
 21
-25.0
 31
0.0
  0
MTEXT
  5
FB
330
EC
100
AcDbEntity
  8
DIMENSION
100
AcDbMText
 10
20.75
 20
-25.0
 30
0.0
 40
1.0
 71
5
  1
41,5
  0
POINT
  5
FC
330
EC
100
AcDbEntity
  8
Defpoints
100
AcDbPoint
 10
0.0
 20
-25.0
 30
0.0
  0
POINT
  5
FD
330
EC
100
AcDbEntity
  8
Defpoints
100
AcDbPoint
 10
0.0
 20
0.0
 30
0.0
  0
POINT
  5
FE
330
EC
100
AcDbEntity
  8
Defpoints
100
AcDbPoint
 10
41.5
 20
0.0
 30
0.0
  0
ENDBLK
  5
EE
330
EC
100
AcDbEntity
  8
0
100
AcDbBlockEnd
  0
BLOCK
  5
F2
330
F1
100
AcDbEntity
  8
0
100
AcDbBlockBegin
  2
_CLOSEDFILLED
 70
0
 10
0.0
 20
0.0
 30
0.0
  3
_CLOSEDFILLED
  1

  0
SOLID
  5
F4
330
F1
100
AcDbEntity
  8
0
  6
BYBLOCK
 62
0
100
AcDbTrace
 10
-1.0
 20
0.16439898372402537
 30
0.0
 11
0.0
 21
0.0
 31
0.0
 12
-1.0
 22
-0.16439898372402537
 32
0.0
 13
-1.0
 23
-0.16439898372402537
 33
0.0
  0
ENDBLK
  5
F3
330
F1
100
AcDbEntity
  8
0
100
AcDbBlockEnd
  0
BLOCK
  5
101
330
100
100
AcDbEntity
  8
0
100
AcDbBlockBegin
  2
*D2
 70
1
 10
0.0
 20
0.0
 30
0.0
  3
*D2
  1

  0
LINE
  5
103
330
100
100
AcDbEntity
  8
0
100
AcDbLine
 10
0.0
 20
0.0
 30
0.0
 11
0.0
 21
-33.0
 31
0.0
  0
LINE
  5
104
330
100
100
AcDbEntity
  8
0
100
AcDbLine
 10
91.5
 20
0.0
 30
0.0
 11
91.5
 21
-33.0
 31
0.0
  0
INSERT
  5
105
330
100
100
AcDbEntity
  8
DIMENSION
100
AcDbBlockReference
  2
_CLOSEDFILLED
 10
0.0
 20
-33.0
 30
0.0
 41
0.25
 42
0.25
 50
180.0
  0
INSERT
  5
107
330
100
100
AcDbEntity
  8
DIMENSION
100
AcDbBlockReference
  2
_CLOSEDFILLED
 10
91.5
 20
-33.0
 30
0.0
 41
0.25
 42
0.25
  0
LINE
  5
109
330
100
100
AcDbEntity
  8
0
100
AcDbLine
 10
0.25
 20
-33.0
 30
0.0
 11
43.75
 21
-33.0
 31
0.0
  0
LINE
  5
10A
330
100
100
AcDbEntity
  8
0
100
AcDbLine
 10
47.75
 20
-33.0
 30
0.0
 11
91.25
 21
-33.0
 31
0.0
  0
MTEXT
  5
10B
330
100
100
AcDbEntity
  8
DIMENSION
100
AcDbMText
 10
45.75
 20
-33.0
 30
0.0
 40
1.0
 71
5
  1
91,5
  0
POINT
  5
10C
330
100
100
AcDbEntity
  8
Defpoints
100
AcDbPoint
 10
0.0
 20
-33.0
 30
0.0
  0
POINT
  5
10D
330
100
100
AcDbEntity
  8
Defpoints
100
AcDbPoint
 10
0.0
 20
0.0
 30
0.0
  0
POINT
  5
10E
330
100
100
AcDbEntity
  8
Defpoints
100
AcDbPoint
 10
91.5
 20
0.0
 30
0.0
  0
ENDBLK
  5
102
330
100
100
AcDbEntity
  8
0
100
AcDbBlockEnd
  0
BLOCK
  5
111
330
110
100
AcDbEntity
  8
0
100
AcDbBlockBegin
  2
*D3
 70
1
 10
0.0
 20
0.0
 30
0.0
  3
*D3
  1

  0
LINE
  5
113
330
110
100
AcDbEntity
  8
0
100
AcDbLine
 10
0.0
 20
0.0
 30
0.0
 11
0.0
 21
-41.0
 31
0.0
  0
LINE
  5
114
330
110
100
AcDbEntity
  8
0
100
AcDbLine
 10
218.5
 20
0.0
 30
0.0
 11
218.5
 21
-41.0
 31
0.0
  0
INSERT
  5
115
330
110
100
AcDbEntity
  8
DIMENSION
100
AcDbBlockReference
  2
_CLOSEDFILLED
 10
0.0
 20
-41.0
 30
0.0
 41
0.25
 42
0.25
 50
180.0
  0
INSERT
  5
117
330
110
100
AcDbEntity
  8
DIMENSION
100
AcDbBlockReference
  2
_CLOSEDFILLED
 10
218.5
 20
-41.0
 30
0.0
 41
0.25
 42
0.25
  0
LINE
  5
119
330
110
100
AcDbEntity
  8
0
100
AcDbLine
 10
0.25
 20
-41.0
 30
0.0
 11
106.75
 21
-41.0
 31
0.0
  0
LINE
  5
11A
330
110
100
AcDbEntity
  8
0
100
AcDbLine
 10
111.75
 20
-41.0
 30
0.0
 11
218.25
 21
-41.0
 31
0.0
  0
MTEXT
  5
11B
330
110
100
AcDbEntity
  8
DIMENSION
100
AcDbMText
 10
109.25
 20
-41.0
 30
0.0
 40
1.0
 71
5
  1
218,5
  0
POINT
  5
11C
330
110
100
AcDbEntity
  8
Defpoints
100
AcDbPoint
 10
0.0
 20
-41.0
 30
0.0
  0
POINT
  5
11D
330
110
100
AcDbEntity
  8
Defpoints
100
AcDbPoint
 10
0.0
 20
0.0
 30
0.0
  0
POINT
  5
11E
330
110
100
AcDbEntity
  8
Defpoints
100
AcDbPoint
 10
218.5
 20
0.0
 30
0.0
  0
ENDBLK
  5
112
330
110
100
AcDbEntity
  8
0
100
AcDbBlockEnd
  0
BLOCK
  5
121
330
120
100
AcDbEntity
  8
0
100
AcDbBlockBegin
  2
*D4
 70
1
 10
0.0
 20
0.0
 30
0.0
  3
*D4
  1

  0
LINE
  5
123
330
120
100
AcDbEntity
  8
0
100
AcDbLine
 10
0.0
 20
0.0
 30
0.0
 11
0.0
 21
-49.0
 31
0.0
  0
LINE
  5
124
330
120
100
AcDbEntity
  8
0
100
AcDbLine
 10
229.5
 20
0.0
 30
0.0
 11
229.5
 21
-49.0
 31
0.0
  0
INSERT
  5
125
330
120
100
AcDbEntity
  8
DIMENSION
100
AcDbBlockReference
  2
_CLOSEDFILLED
 10
0.0
 20
-49.0
 30
0.0
 41
0.25
 42
0.25
 50
180.0
  0
INSERT
  5
127
330
120
100
AcDbEntity
  8
DIMENSION
100
AcDbBlockReference
  2
_CLOSEDFILLED
 10
229.5
 20
-49.0
 30
0.0
 41
0.25
 42
0.25
  0
LINE
  5
129
330
120
100
AcDbEntity
  8
0
100
AcDbLine
 10
0.25
 20
-49.0
 30
0.0
 11
112.25
 21
-49.0
 31
0.0
  0
LINE
  5
12A
330
120
100
AcDbEntity
  8
0
100
AcDbLine
 10
117.25
 20
-49.0
 30
0.0
 11
229.25
 21
-49.0
 31
0.0
  0
MTEXT
  5
12B
330
120
100
AcDbEntity
  8
DIMENSION
100
AcDbMText
 10
114.75
 20
-49.0
 30
0.0
 40
1.0
 71
5
  1
229,5
  0
POINT
  5
12C
330
120
100
AcDbEntity
  8
Defpoints
100
AcDbPoint
 10
0.0
 20
-49.0
 30
0.0
  0
POINT
  5
12D
330
120
100
AcDbEntity
  8
Defpoints
100
AcDbPoint
 10
0.0
 20
0.0
 30
0.0
  0
POINT
  5
12E
330
120
100
AcDbEntity
  8
Defpoints
100
AcDbPoint
 10
229.5
 20
0.0
 30
0.0
  0
ENDBLK
  5
122
330
120
100
AcDbEntity
  8
0
100
AcDbBlockEnd
  0
BLOCK
  5
131
330
130
100
AcDbEntity
  8
0
100
AcDbBlockBegin
  2
*D5
 70
1
 10
0.0
 20
0.0
 30
0.0
  3
*D5
  1

  0
LINE
  5
133
330
130
100
AcDbEntity
  8
0
100
AcDbLine
 10
0.0
 20
0.0
 30
0.0
 11
0.0
 21
-57.0
 31
0.0
  0
LINE
  5
134
330
130
100
AcDbEntity
  8
0
100
AcDbLine
 10
367.5
 20
0.0
 30
0.0
 11
367.5
 21
-57.0
 31
0.0
  0
INSERT
  5
135
330
130
100
AcDbEntity
  8
DIMENSION
100
AcDbBlockReference
  2
_CLOSEDFILLED
 10
0.0
 20
-57.0
 30
0.0
 41
0.25
 42
0.25
 50
180.0
  0
INSERT
  5
137
330
130
100
AcDbEntity
  8
DIMENSION
100
AcDbBlockReference
  2
_CLOSEDFILLED
 10
367.5
 20
-57.0
 30
0.0
 41
0.25
 42
0.25
  0
LINE
  5
139
330
130
100
AcDbEntity
  8
0
100
AcDbLine
 10
0.25
 20
-57.0
 30
0.0
 11
181.25
 21
-57.0
 31
0.0
  0
LINE
  5
13A
330
130
100
AcDbEntity
  8
0
100
AcDbLine
 10
186.25000000000003
 20
-57.0
 30
0.0
 11
367.25
 21
-57.0
 31
0.0
  0
MTEXT
  5
13B
330
130
100
AcDbEntity
  8
DIMENSION
100
AcDbMText
 10
183.75
 20
-57.0
 30
0.0
 40
1.0
 71
5
  1
367,5
  0
POINT
  5
13C
330
130
100
AcDbEntity
  8
Defpoints
100
AcDbPoint
 10
0.0
 20
-57.0
 30
0.0
  0
POINT
  5
13D
330
130
100
AcDbEntity
  8
Defpoints
100
AcDbPoint
 10
0.0
 20
0.0
 30
0.0
  0
POINT
  5
13E
330
130
100
AcDbEntity
  8
Defpoints
100
AcDbPoint
 10
367.5
 20
0.0
 30
0.0
  0
ENDBLK
  5
132
330
130
100
AcDbEntity
  8
0
100
AcDbBlockEnd
  0
BLOCK
  5
141
330
140
100
AcDbEntity
  8
0
100
AcDbBlockBegin
  2
*D6
 70
1
 10
0.0
 20
0.0
 30
0.0
  3
*D6
  1

  0
LINE
  5
143
330
140
100
AcDbEntity
  8
0
100
AcDbLine
 10
0.0
 20
0.0
 30
0.0
 11
0.0
 21
-65.0
 31
0.0
  0
LINE
  5
144
330
140
100
AcDbEntity
  8
0
100
AcDbLine
 10
378.5
 20
0.0
 30
0.0
 11
378.5
 21
-65.0
 31
0.0
  0
INSERT
  5
145
330
140
100
AcDbEntity
  8
DIMENSION
100
AcDbBlockReference
  2
_CLOSEDFILLED
 10
0.0
 20
-65.0
 30
0.0
 41
0.25
 42
0.25
 50
180.0
  0
INSERT
  5
147
330
140
100
AcDbEntity
  8
DIMENSION
100
AcDbBlockReference
  2
_CLOSEDFILLED
 10
378.5
 20
-65.0
 30
0.0
 41
0.25
 42
0.25
  0
LINE
  5
149
330
140
100
AcDbEntity
  8
0
100
AcDbLine
 10
0.25
 20
-65.0
 30
0.0
 11
186.75
 21
-65.0
 31
0.0
  0
LINE
  5
14A
330
140
100
AcDbEntity
  8
0
100
AcDbLine
 10
191.75
 20
-65.0
 30
0.0
 11
378.25
 21
-65.0
 31
0.0
  0
MTEXT
  5
14B
330
140
100
AcDbEntity
  8
DIMENSION
100
AcDbMText
 10
189.25
 20
-65.0
 30
0.0
 40
1.0
 71
5
  1
378,5
  0
POINT
  5
14C
330
140
100
AcDbEntity
  8
Defpoints
100
AcDbPoint
 10
0.0
 20
-65.0
 30
0.0
  0
POINT
  5
14D
330
140
100
AcDbEntity
  8
Defpoints
100
AcDbPoint
 10
0.0
 20
0.0
 30
0.0
  0
POINT
  5
14E
330
140
100
AcDbEntity
  8
Defpoints
100
AcDbPoint
 10
378.5
 20
0.0
 30
0.0
  0
ENDBLK
  5
142
330
140
100
AcDbEntity
  8
0
100
AcDbBlockEnd
  0
BLOCK
  5
151
330
150
100
AcDbEntity
  8
0
100
AcDbBlockBegin
  2
*D7
 70
1
 10
0.0
 20
0.0
 30
0.0
  3
*D7
  1

  0
LINE
  5
153
330
150
100
AcDbEntity
  8
0
100
AcDbLine
 10
0.0
 20
0.0
 30
0.0
 11
0.0
 21
-73.0
 31
0.0
  0
LINE
  5
154
330
150
100
AcDbEntity
  8
0
100
AcDbLine
 10
505.5
 20
0.0
 30
0.0
 11
505.5
 21
-73.0
 31
0.0
  0
INSERT
  5
155
330
150
100
AcDbEntity
  8
DIMENSION
100
AcDbBlockReference
  2
_CLOSEDFILLED
 10
0.0
 20
-73.0
 30
0.0
 41
0.25
 42
0.25
 50
180.0
  0
INSERT
  5
157
330
150
100
AcDbEntity
  8
DIMENSION
100
AcDbBlockReference
  2
_CLOSEDFILLED
 10
505.5
 20
-73.0
 30
0.0
 41
0.25
 42
0.25
  0
LINE
  5
159
330
150
100
AcDbEntity
  8
0
100
AcDbLine
 10
0.25
 20
-73.0
 30
0.0
 11
250.25
 21
-73.0
 31
0.0
  0
LINE
  5
15A
330
150
100
AcDbEntity
  8
0
100
AcDbLine
 10
255.25
 20
-73.0
 30
0.0
 11
505.25
 21
-73.0
 31
0.0
  0
MTEXT
  5
15B
330
150
100
AcDbEntity
  8
DIMENSION
100
AcDbMText
 10
252.75
 20
-73.0
 30
0.0
 40
1.0
 71
5
  1
505,5
  0
POINT
  5
15C
330
150
100
AcDbEntity
  8
Defpoints
100
AcDbPoint
 10
0.0
 20
-73.0
 30
0.0
  0
POINT
  5
15D
330
150
100
AcDbEntity
  8
Defpoints
100
AcDbPoint
 10
0.0
 20
0.0
 30
0.0
  0
POINT
  5
15E
330
150
100
AcDbEntity
  8
Defpoints
100
AcDbPoint
 10
505.5
 20
0.0
 30
0.0
  0
ENDBLK
  5
152
330
150
100
AcDbEntity
  8
0
100
AcDbBlockEnd
  0
BLOCK
  5
161
330
160
100
AcDbEntity
  8
0
100
AcDbBlockBegin
  2
*D8
 70
1
 10
0.0
 20
0.0
 30
0.0
  3
*D8
  1

  0
LINE
  5
163
330
160
100
AcDbEntity
  8
0
100
AcDbLine
 10
0.0
 20
0.0
 30
0.0
 11
0.0
 21
-81.0
 31
0.0
  0
LINE
  5
164
330
160
100
AcDbEntity
  8
0
100
AcDbLine
 10
555.5
 20
0.0
 30
0.0
 11
555.5
 21
-81.0
 31
0.0
  0
INSERT
  5
165
330
160
100
AcDbEntity
  8
DIMENSION
100
AcDbBlockReference
  2
_CLOSEDFILLED
 10
0.0
 20
-81.0
 30
0.0
 41
0.25
 42
0.25
 50
180.0
  0
INSERT
  5
167
330
160
100
AcDbEntity
  8
DIMENSION
100
AcDbBlockReference
  2
_CLOSEDFILLED
 10
555.5
 20
-81.0
 30
0.0
 41
0.25
 42
0.25
  0
LINE
  5
169
330
160
100
AcDbEntity
  8
0
100
AcDbLine
 10
0.25
 20
-81.0
 30
0.0
 11
275.25
 21
-81.0
 31
0.0
  0
LINE
  5
16A
330
160
100
AcDbEntity
  8
0
100
AcDbLine
 10
280.25
 20
-81.0
 30
0.0
 11
555.25
 21
-81.0
 31
0.0
  0
MTEXT
  5
16B
330
160
100
AcDbEntity
  8
DIMENSION
100
AcDbMText
 10
277.75
 20
-81.0
 30
0.0
 40
1.0
 71
5
  1
555,5
  0
POINT
  5
16C
330
160
100
AcDbEntity
  8
Defpoints
100
AcDbPoint
 10
0.0
 20
-81.0
 30
0.0
  0
POINT
  5
16D
330
160
100
AcDbEntity
  8
Defpoints
100
AcDbPoint
 10
0.0
 20
0.0
 30
0.0
  0
POINT
  5
16E
330
160
100
AcDbEntity
  8
Defpoints
100
AcDbPoint
 10
555.5
 20
0.0
 30
0.0
  0
ENDBLK
  5
162
330
160
100
AcDbEntity
  8
0
100
AcDbBlockEnd
  0
BLOCK
  5
171
330
170
100
AcDbEntity
  8
0
100
AcDbBlockBegin
  2
*D9
 70
1
 10
0.0
 20
0.0
 30
0.0
  3
*D9
  1

  0
LINE
  5
173
330
170
100
AcDbEntity
  8
0
100
AcDbLine
 10
0.0
 20
0.0
 30
0.0
 11
0.0
 21
-89.0
 31
0.0
  0
LINE
  5
174
330
170
100
AcDbEntity
  8
0
100
AcDbLine
 10
597.0
 20
0.0
 30
0.0
 11
597.0
 21
-89.0
 31
0.0
  0
INSERT
  5
175
330
170
100
AcDbEntity
  8
DIMENSION
100
AcDbBlockReference
  2
_CLOSEDFILLED
 10
0.0
 20
-89.0
 30
0.0
 41
0.25
 42
0.25
 50
180.0
  0
INSERT
  5
177
330
170
100
AcDbEntity
  8
DIMENSION
100
AcDbBlockReference
  2
_CLOSEDFILLED
 10
597.0
 20
-89.0
 30
0.0
 41
0.25
 42
0.25
  0
LINE
  5
179
330
170
100
AcDbEntity
  8
0
100
AcDbLine
 10
0.25
 20
-89.0
 30
0.0
 11
297.0
 21
-89.0
 31
0.0
  0
LINE
  5
17A
330
170
100
AcDbEntity
  8
0
100
AcDbLine
 10
299.99999999999994
 20
-89.0
 30
0.0
 11
596.75
 21
-89.0
 31
0.0
  0
MTEXT
  5
17B
330
170
100
AcDbEntity
  8
DIMENSION
100
AcDbMText
 10
298.5
 20
-89.0
 30
0.0
 40
1.0
 71
5
  1
597
  0
POINT
  5
17C
330
170
100
AcDbEntity
  8
Defpoints
100
AcDbPoint
 10
0.0
 20
-89.0
 30
0.0
  0
POINT
  5
17D
330
170
100
AcDbEntity
  8
Defpoints
100
AcDbPoint
 10
0.0
 20
0.0
 30
0.0
  0
POINT
  5
17E
330
170
100
AcDbEntity
  8
Defpoints
100
AcDbPoint
 10
597.0
 20
0.0
 30
0.0
  0
ENDBLK
  5
172
330
170
100
AcDbEntity
  8
0
100
AcDbBlockEnd
  0
BLOCK
  5
181
330
180
100
AcDbEntity
  8
0
100
AcDbBlockBegin
  2
*D10
 70
1
 10
0.0
 20
0.0
 30
0.0
  3
*D10
  1

  0
LINE
  5
183
330
180
100
AcDbEntity
  8
0
100
AcDbLine
 10
597.0
 20
216.0
 30
0.0
 11
597.0
 21
241.0
 31
0.0
  0
LINE
  5
184
330
180
100
AcDbEntity
  8
0
100
AcDbLine
 10
555.5
 20
216.0
 30
0.0
 11
555.5
 21
241.0
 31
0.0
  0
INSERT
  5
185
330
180
100
AcDbEntity
  8
DIMENSION
100
AcDbBlockReference
  2
_CLOSEDFILLED
 10
597.0
 20
241.0
 30
0.0
 41
0.25
 42
0.25
 50
180.0
  0
INSERT
  5
187
330
180
100
AcDbEntity
  8
DIMENSION
100
AcDbBlockReference
  2
_CLOSEDFILLED
 10
555.5
 20
241.0
 30
0.0
 41
0.25
 42
0.25
  0
LINE
  5
189
330
180
100
AcDbEntity
  8
0
100
AcDbLine
 10
597.25
 20
241.0
 30
0.0
 11
578.25
 21
241.0
 31
0.0
  0
LINE
  5
18A
330
180
100
AcDbEntity
  8
0
100
AcDbLine
 10
574.25
 20
241.0
 30
0.0
 11
555.25
 21
241.0
 31
0.0
  0
MTEXT
  5
18B
330
180
100
AcDbEntity
  8
DIMENSION
100
AcDbMText
 10
576.25
 20
241.0
 30
0.0
 40
1.0
 71
5
  1
41,5
  0
POINT
  5
18C
330
180
100
AcDbEntity
  8
Defpoints
100
AcDbPoint
 10
597.0
 20
241.0
 30
0.0
  0
POINT
  5
18D
330
180
100
AcDbEntity
  8
Defpoints
100
AcDbPoint
 10
597.0
 20
216.0
 30
0.0
  0
POINT
  5
18E
330
180
100
AcDbEntity
  8
Defpoints
100
AcDbPoint
 10
555.5
 20
216.0
 30
0.0
  0
ENDBLK
  5
182
330
180
100
AcDbEntity
  8
0
100
AcDbBlockEnd
  0
BLOCK
  5
191
330
190
100
AcDbEntity
  8
0
100
AcDbBlockBegin
  2
*D11
 70
1
 10
0.0
 20
0.0
 30
0.0
  3
*D11
  1

  0
LINE
  5
193
330
190
100
AcDbEntity
  8
0
100
AcDbLine
 10
597.0
 20
216.0
 30
0.0
 11
597.0
 21
249.0
 31
0.0
  0
LINE
  5
194
330
190
100
AcDbEntity
  8
0
100
AcDbLine
 10
505.5
 20
216.0
 30
0.0
 11
505.5
 21
249.0
 31
0.0
  0
INSERT
  5
195
330
190
100
AcDbEntity
  8
DIMENSION
100
AcDbBlockReference
  2
_CLOSEDFILLED
 10
597.0
 20
249.0
 30
0.0
 41
0.25
 42
0.25
 50
180.0
  0
INSERT
  5
197
330
190
100
AcDbEntity
  8
DIMENSION
100
AcDbBlockReference
  2
_CLOSEDFILLED
 10
505.5
 20
249.0
 30
0.0
 41
0.25
 42
0.25
  0
LINE
  5
199
330
190
100
AcDbEntity
  8
0
100
AcDbLine
 10
597.25
 20
249.0
 30
0.0
 11
553.25
 21
249.0
 31
0.0
  0
LINE
  5
19A
330
190
100
AcDbEntity
  8
0
100
AcDbLine
 10
549.25
 20
249.0
 30
0.0
 11
505.25
 21
249.0
 31
0.0
  0
MTEXT
  5
19B
330
190
100
AcDbEntity
  8
DIMENSION
100
AcDbMText
 10
551.25
 20
249.0
 30
0.0
 40
1.0
 71
5
  1
91,5
  0
POINT
  5
19C
330
190
100
AcDbEntity
  8
Defpoints
100
AcDbPoint
 10
597.0
 20
249.0
 30
0.0
  0
POINT
  5
19D
330
190
100
AcDbEntity
  8
Defpoints
100
AcDbPoint
 10
597.0
 20
216.0
 30
0.0
  0
POINT
  5
19E
330
190
100
AcDbEntity
  8
Defpoints
100
AcDbPoint
 10
505.5
 20
216.0
 30
0.0
  0
ENDBLK
  5
192
330
190
100
AcDbEntity
  8
0
100
AcDbBlockEnd
  0
BLOCK
  5
1A1
330
1A0
100
AcDbEntity
  8
0
100
AcDbBlockBegin
  2
*D12
 70
1
 10
0.0
 20
0.0
 30
0.0
  3
*D12
  1

  0
LINE
  5
1A3
330
1A0
100
AcDbEntity
  8
0
100
AcDbLine
 10
597.0
 20
216.0
 30
0.0
 11
597.0
 21
257.0
 31
0.0
  0
LINE
  5
1A4
330
1A0
100
AcDbEntity
  8
0
100
AcDbLine
 10
378.5
 20
216.0
 30
0.0
 11
378.5
 21
257.0
 31
0.0
  0
INSERT
  5
1A5
330
1A0
100
AcDbEntity
  8
DIMENSION
100
AcDbBlockReference
  2
_CLOSEDFILLED
 10
597.0
 20
257.0
 30
0.0
 41
0.25
 42
0.25
 50
180.0
  0
INSERT
  5
1A7
330
1A0
100
AcDbEntity
  8
DIMENSION
100
AcDbBlockReference
  2
_CLOSEDFILLED
 10
378.5
 20
257.0
 30
0.0
 41
0.25
 42
0.25
  0
LINE
  5
1A9
330
1A0
100
AcDbEntity
  8
0
100
AcDbLine
 10
597.25
 20
257.0
 30
0.0
 11
490.25
 21
257.0
 31
0.0
  0
LINE
  5
1AA
330
1A0
100
AcDbEntity
  8
0
100
AcDbLine
 10
485.25
 20
257.0
 30
0.0
 11
378.25
 21
257.0
 31
0.0
  0
MTEXT
  5
1AB
330
1A0
100
AcDbEntity
  8
DIMENSION
100
AcDbMText
 10
487.75
 20
257.0
 30
0.0
 40
1.0
 71
5
  1
218,5
  0
POINT
  5
1AC
330
1A0
100
AcDbEntity
  8
Defpoints
100
AcDbPoint
 10
597.0
 20
257.0
 30
0.0
  0
POINT
  5
1AD
330
1A0
100
AcDbEntity
  8
Defpoints
100
AcDbPoint
 10
597.0
 20
216.0
 30
0.0
  0
POINT
  5
1AE
330
1A0
100
AcDbEntity
  8
Defpoints
100
AcDbPoint
 10
378.5
 20
216.0
 30
0.0
  0
ENDBLK
  5
1A2
330
1A0
100
AcDbEntity
  8
0
100
AcDbBlockEnd
  0
BLOCK
  5
1B1
330
1B0
100
AcDbEntity
  8
0
100
AcDbBlockBegin
  2
*D13
 70
1
 10
0.0
 20
0.0
 30
0.0
  3
*D13
  1

  0
LINE
  5
1B3
330
1B0
100
AcDbEntity
  8
0
100
AcDbLine
 10
597.0
 20
216.0
 30
0.0
 11
597.0
 21
265.0
 31
0.0
  0
LINE
  5
1B4
330
1B0
100
AcDbEntity
  8
0
100
AcDbLine
 10
367.5
 20
216.0
 30
0.0
 11
367.5
 21
265.0
 31
0.0
  0
INSERT
  5
1B5
330
1B0
100
AcDbEntity
  8
DIMENSION
100
AcDbBlockReference
  2
_CLOSEDFILLED
 10
597.0
 20
265.0
 30
0.0
 41
0.25
 42
0.25
 50
180.0
  0
INSERT
  5
1B7
330
1B0
100
AcDbEntity
  8
DIMENSION
100
AcDbBlockReference
  2
_CLOSEDFILLED
 10
367.5
 20
265.0
 30
0.0
 41
0.25
 42
0.25
  0
LINE
  5
1B9
330
1B0
100
AcDbEntity
  8
0
100
AcDbLine
 10
597.25
 20
265.0
 30
0.0
 11
484.75
 21
265.0
 31
0.0
  0
LINE
  5
1BA
330
1B0
100
AcDbEntity
  8
0
100
AcDbLine
 10
479.75
 20
265.0
 30
0.0
 11
367.25
 21
265.0
 31
0.0
  0
MTEXT
  5
1BB
330
1B0
100
AcDbEntity
  8
DIMENSION
100
AcDbMText
 10
482.25
 20
265.0
 30
0.0
 40
1.0
 71
5
  1
229,5
  0
POINT
  5
1BC
330
1B0
100
AcDbEntity
  8
Defpoints
100
AcDbPoint
 10
597.0
 20
265.0
 30
0.0
  0
POINT
  5
1BD
330
1B0
100
AcDbEntity
  8
Defpoints
100
AcDbPoint
 10
597.0
 20
216.0
 30
0.0
  0
POINT
  5
1BE
330
1B0
100
AcDbEntity
  8
Defpoints
100
AcDbPoint
 10
367.5
 20
216.0
 30
0.0
  0
ENDBLK
  5
1B2
330
1B0
100
AcDbEntity
  8
0
100
AcDbBlockEnd
  0
BLOCK
  5
1C1
330
1C0
100
AcDbEntity
  8
0
100
AcDbBlockBegin
  2
*D14
 70
1
 10
0.0
 20
0.0
 30
0.0
  3
*D14
  1

  0
LINE
  5
1C3
330
1C0
100
AcDbEntity
  8
0
100
AcDbLine
 10
597.0
 20
216.0
 30
0.0
 11
597.0
 21
273.0
 31
0.0
  0
LINE
  5
1C4
330
1C0
100
AcDbEntity
  8
0
100
AcDbLine
 10
229.5
 20
216.0
 30
0.0
 11
229.5
 21
273.0
 31
0.0
  0
INSERT
  5
1C5
330
1C0
100
AcDbEntity
  8
DIMENSION
100
AcDbBlockReference
  2
_CLOSEDFILLED
 10
597.0
 20
273.0
 30
0.0
 41
0.25
 42
0.25
 50
180.0
  0
INSERT
  5
1C7
330
1C0
100
AcDbEntity
  8
DIMENSION
100
AcDbBlockReference
  2
_CLOSEDFILLED
 10
229.5
 20
273.0
 30
0.0
 41
0.25
 42
0.25
  0
LINE
  5
1C9
330
1C0
100
AcDbEntity
  8
0
100
AcDbLine
 10
597.25
 20
273.0
 30
0.0
 11
415.75
 21
273.0
 31
0.0
  0
LINE
  5
1CA
330
1C0
100
AcDbEntity
  8
0
100
AcDbLine
 10
410.75
 20
273.0
 30
0.0
 11
229.25
 21
273.0
 31
0.0
  0
MTEXT
  5
1CB
330
1C0
100
AcDbEntity
  8
DIMENSION
100
AcDbMText
 10
413.25
 20
273.0
 30
0.0
 40
1.0
 71
5
  1
367,5
  0
POINT
  5
1CC
330
1C0
100
AcDbEntity
  8
Defpoints
100
AcDbPoint
 10
597.0
 20
273.0
 30
0.0
  0
POINT
  5
1CD
330
1C0
100
AcDbEntity
  8
Defpoints
100
AcDbPoint
 10
597.0
 20
216.0
 30
0.0
  0
POINT
  5
1CE
330
1C0
100
AcDbEntity
  8
Defpoints
100
AcDbPoint
 10
229.5
 20
216.0
 30
0.0
  0
ENDBLK
  5
1C2
330
1C0
100
AcDbEntity
  8
0
100
AcDbBlockEnd
  0
BLOCK
  5
1D1
330
1D0
100
AcDbEntity
  8
0
100
AcDbBlockBegin
  2
*D15
 70
1
 10
0.0
 20
0.0
 30
0.0
  3
*D15
  1

  0
LINE
  5
1D3
330
1D0
100
AcDbEntity
  8
0
100
AcDbLine
 10
597.0
 20
216.0
 30
0.0
 11
597.0
 21
281.0
 31
0.0
  0
LINE
  5
1D4
330
1D0
100
AcDbEntity
  8
0
100
AcDbLine
 10
218.5
 20
216.0
 30
0.0
 11
218.5
 21
281.0
 31
0.0
  0
INSERT
  5
1D5
330
1D0
100
AcDbEntity
  8
DIMENSION
100
AcDbBlockReference
  2
_CLOSEDFILLED
 10
597.0
 20
281.0
 30
0.0
 41
0.25
 42
0.25
 50
180.0
  0
INSERT
  5
1D7
330
1D0
100
AcDbEntity
  8
DIMENSION
100
AcDbBlockReference
  2
_CLOSEDFILLED
 10
218.5
 20
281.0
 30
0.0
 41
0.25
 42
0.25
  0
LINE
  5
1D9
330
1D0
100
AcDbEntity
  8
0
100
AcDbLine
 10
597.25
 20
281.0
 30
0.0
 11
410.25
 21
281.0
 31
0.0
  0
LINE
  5
1DA
330
1D0
100
AcDbEntity
  8
0
100
AcDbLine
 10
405.25
 20
281.0
 30
0.0
 11
218.25
 21
281.0
 31
0.0
  0
MTEXT
  5
1DB
330
1D0
100
AcDbEntity
  8
DIMENSION
100
AcDbMText
 10
407.75
 20
281.0
 30
0.0
 40
1.0
 71
5
  1
378,5
  0
POINT
  5
1DC
330
1D0
100
AcDbEntity
  8
Defpoints
100
AcDbPoint
 10
597.0
 20
281.0
 30
0.0
  0
POINT
  5
1DD
330
1D0
100
AcDbEntity
  8
Defpoints
100
AcDbPoint
 10
597.0
 20
216.0
 30
0.0
  0
POINT
  5
1DE
330
1D0
100
AcDbEntity
  8
Defpoints
100
AcDbPoint
 10
218.5
 20
216.0
 30
0.0
  0
ENDBLK
  5
1D2
330
1D0
100
AcDbEntity
  8
0
100
AcDbBlockEnd
  0
BLOCK
  5
1E1
330
1E0
100
AcDbEntity
  8
0
100
AcDbBlockBegin
  2
*D16
 70
1
 10
0.0
 20
0.0
 30
0.0
  3
*D16
  1

  0
LINE
  5
1E3
330
1E0
100
AcDbEntity
  8
0
100
AcDbLine
 10
597.0
 20
216.0
 30
0.0
 11
597.0
 21
289.0
 31
0.0
  0
LINE
  5
1E4
330
1E0
100
AcDbEntity
  8
0
100
AcDbLine
 10
91.5
 20
216.0
 30
0.0
 11
91.5
 21
289.0
 31
0.0
  0
INSERT
  5
1E5
330
1E0
100
AcDbEntity
  8
DIMENSION
100
AcDbBlockReference
  2
_CLOSEDFILLED
 10
597.0
 20
289.0
 30
0.0
 41
0.25
 42
0.25
 50
180.0
  0
INSERT
  5
1E7
330
1E0
100
AcDbEntity
  8
DIMENSION
100
AcDbBlockReference
  2
_CLOSEDFILLED
 10
91.5
 20
289.0
 30
0.0
 41
0.25
 42
0.25
  0
LINE
  5
1E9
330
1E0
100
AcDbEntity
  8
0
100
AcDbLine
 10
597.25
 20
289.0
 30
0.0
 11
346.75
 21
289.0
 31
0.0
  0
LINE
  5
1EA
330
1E0
100
AcDbEntity
  8
0
100
AcDbLine
 10
341.75
 20
289.0
 30
0.0
 11
91.25
 21
289.0
 31
0.0
  0
MTEXT
  5
1EB
330
1E0
100
AcDbEntity
  8
DIMENSION
100
AcDbMText
 10
344.25
 20
289.0
 30
0.0
 40
1.0
 71
5
  1
505,5
  0
POINT
  5
1EC
330
1E0
100
AcDbEntity
  8
Defpoints
100
AcDbPoint
 10
597.0
 20
289.0
 30
0.0
  0
POINT
  5
1ED
330
1E0
100
AcDbEntity
  8
Defpoints
100
AcDbPoint
 10
597.0
 20
216.0
 30
0.0
  0
POINT
  5
1EE
330
1E0
100
AcDbEntity
  8
Defpoints
100
AcDbPoint
 10
91.5
 20
216.0
 30
0.0
  0
ENDBLK
  5
1E2
330
1E0
100
AcDbEntity
  8
0
100
AcDbBlockEnd
  0
BLOCK
  5
1F1
330
1F0
100
AcDbEntity
  8
0
100
AcDbBlockBegin
  2
*D17
 70
1
 10
0.0
 20
0.0
 30
0.0
  3
*D17
  1

  0
LINE
  5
1F3
330
1F0
100
AcDbEntity
  8
0
100
AcDbLine
 10
597.0
 20
216.0
 30
0.0
 11
597.0
 21
297.0
 31
0.0
  0
LINE
  5
1F4
330
1F0
100
AcDbEntity
  8
0
100
AcDbLine
 10
41.5
 20
216.0
 30
0.0
 11
41.5
 21
297.0
 31
0.0
  0
INSERT
  5
1F5
330
1F0
100
AcDbEntity
  8
DIMENSION
100
AcDbBlockReference
  2
_CLOSEDFILLED
 10
597.0
 20
297.0
 30
0.0
 41
0.25
 42
0.25
 50
180.0
  0
INSERT
  5
1F7
330
1F0
100
AcDbEntity
  8
DIMENSION
100
AcDbBlockReference
  2
_CLOSEDFILLED
 10
41.5
 20
297.0
 30
0.0
 41
0.25
 42
0.25
  0
LINE
  5
1F9
330
1F0
100
AcDbEntity
  8
0
100
AcDbLine
 10
597.25
 20
297.0
 30
0.0
 11
321.75
 21
297.0
 31
0.0
  0
LINE
  5
1FA
330
1F0
100
AcDbEntity
  8
0
100
AcDbLine
 10
316.75
 20
297.0
 30
0.0
 11
41.25
 21
297.0
 31
0.0
  0
MTEXT
  5
1FB
330
1F0
100
AcDbEntity
  8
DIMENSION
100
AcDbMText
 10
319.25
 20
297.0
 30
0.0
 40
1.0
 71
5
  1
555,5
  0
POINT
  5
1FC
330
1F0
100
AcDbEntity
  8
Defpoints
100
AcDbPoint
 10
597.0
 20
297.0
 30
0.0
  0
POINT
  5
1FD
330
1F0
100
AcDbEntity
  8
Defpoints
100
AcDbPoint
 10
597.0
 20
216.0
 30
0.0
  0
POINT
  5
1FE
330
1F0
100
AcDbEntity
  8
Defpoints
100
AcDbPoint
 10
41.5
 20
216.0
 30
0.0
  0
ENDBLK
  5
1F2
330
1F0
100
AcDbEntity
  8
0
100
AcDbBlockEnd
  0
BLOCK
  5
201
330
200
100
AcDbEntity
  8
0
100
AcDbBlockBegin
  2
*D18
 70
1
 10
0.0
 20
0.0
 30
0.0
  3
*D18
  1

  0
LINE
  5
203
330
200
100
AcDbEntity
  8
0
100
AcDbLine
 10
0.0
 20
0.0
 30
0.0
 11
-25.0
 21
0.0
 31
0.0
  0
LINE
  5
204
330
200
100
AcDbEntity
  8
0
100
AcDbLine
 10
0.0
 20
6.0
 30
0.0
 11
-25.0
 21
6.0
 31
0.0
  0
INSERT
  5
205
330
200
100
AcDbEntity
  8
DIMENSION
100
AcDbBlockReference
  2
_CLOSEDFILLED
 10
-25.0
 20
0.0
 30
0.0
 41
0.25
 42
0.25
 50
270.0
  0
INSERT
  5
207
330
200
100
AcDbEntity
  8
DIMENSION
100
AcDbBlockReference
  2
_CLOSEDFILLED
 10
-25.0
 20
6.0
 30
0.0
 41
0.25
 42
0.25
 50
90.0
  0
LINE
  5
209
330
200
100
AcDbEntity
  8
0
100
AcDbLine
 10
-25.0
 20
0.25
 30
0.0
 11
-25.0
 21
2.5
 31
0.0
  0
LINE
  5
20A
330
200
100
AcDbEntity
  8
0
100
AcDbLine
 10
-25.0
 20
3.5
 30
0.0
 11
-25.0
 21
5.75
 31
0.0
  0
MTEXT
  5
20B
330
200
100
AcDbEntity
  8
DIMENSION
100
AcDbMText
 10
-25.0
 20
3.0
 30
0.0
 40
1.0
 71
5
  1
6
 50
90.0
  0
POINT
  5
20C
330
200
100
AcDbEntity
  8
Defpoints
100
AcDbPoint
 10
-25.0
 20
0.0
 30
0.0
  0
POINT
  5
20D
330
200
100
AcDbEntity
  8
Defpoints
100
AcDbPoint
 10
0.0
 20
0.0
 30
0.0
  0
POINT
  5
20E
330
200
100
AcDbEntity
  8
Defpoints
100
AcDbPoint
 10
0.0
 20
6.0
 30
0.0
  0
ENDBLK
  5
202
330
200
100
AcDbEntity
  8
0
100
AcDbBlockEnd
  0
BLOCK
  5
211
330
210
100
AcDbEntity
  8
0
100
AcDbBlockBegin
  2
*D19
 70
1
 10
0.0
 20
0.0
 30
0.0
  3
*D19
  1

  0
LINE
  5
213
330
210
100
AcDbEntity
  8
0
100
AcDbLine
 10
0.0
 20
0.0
 30
0.0
 11
-33.0
 21
0.0
 31
0.0
  0
LINE
  5
214
330
210
100
AcDbEntity
  8
0
100
AcDbLine
 10
0.0
 20
50.0
 30
0.0
 11
-33.0
 21
50.0
 31
0.0
  0
INSERT
  5
215
330
210
100
AcDbEntity
  8
DIMENSION
100
AcDbBlockReference
  2
_CLOSEDFILLED
 10
-33.0
 20
0.0
 30
0.0
 41
0.25
 42
0.25
 50
270.0
  0
INSERT
  5
217
330
210
100
AcDbEntity
  8
DIMENSION
100
AcDbBlockReference
  2
_CLOSEDFILLED
 10
-33.0
 20
50.0
 30
0.0
 41
0.25
 42
0.25
 50
90.0
  0
LINE
  5
219
330
210
100
AcDbEntity
  8
0
100
AcDbLine
 10
-33.0
 20
0.25
 30
0.0
 11
-33.0
 21
24.0
 31
0.0
  0
LINE
  5
21A
330
210
100
AcDbEntity
  8
0
100
AcDbLine
 10
-33.0
 20
26.0
 30
0.0
 11
-33.0
 21
49.75
 31
0.0
  0
MTEXT
  5
21B
330
210
100
AcDbEntity
  8
DIMENSION
100
AcDbMText
 10
-33.0
 20
25.0
 30
0.0
 40
1.0
 71
5
  1
50
 50
90.0
  0
POINT
  5
21C
330
210
100
AcDbEntity
  8
Defpoints
100
AcDbPoint
 10
-33.0
 20
0.0
 30
0.0
  0
POINT
  5
21D
330
210
100
AcDbEntity
  8
Defpoints
100
AcDbPoint
 10
0.0
 20
0.0
 30
0.0
  0
POINT
  5
21E
330
210
100
AcDbEntity
  8
Defpoints
100
AcDbPoint
 10
0.0
 20
50.0
 30
0.0
  0
ENDBLK
  5
212
330
210
100
AcDbEntity
  8
0
100
AcDbBlockEnd
  0
BLOCK
  5
221
330
220
100
AcDbEntity
  8
0
100
AcDbBlockBegin
  2
*D20
 70
1
 10
0.0
 20
0.0
 30
0.0
  3
*D20
  1

  0
LINE
  5
223
330
220
100
AcDbEntity
  8
0
100
AcDbLine
 10
0.0
 20
0.0
 30
0.0
 11
-41.0
 21
0.0
 31
0.0
  0
LINE
  5
224
330
220
100
AcDbEntity
  8
0
100
AcDbLine
 10
0.0
 20
103.0
 30
0.0
 11
-41.0
 21
103.0
 31
0.0
  0
INSERT
  5
225
330
220
100
AcDbEntity
  8
DIMENSION
100
AcDbBlockReference
  2
_CLOSEDFILLED
 10
-41.0
 20
0.0
 30
0.0
 41
0.25
 42
0.25
 50
270.0
  0
INSERT
  5
227
330
220
100
AcDbEntity
  8
DIMENSION
100
AcDbBlockReference
  2
_CLOSEDFILLED
 10
-41.0
 20
103.0
 30
0.0
 41
0.25
 42
0.25
 50
90.0
  0
LINE
  5
229
330
220
100
AcDbEntity
  8
0
100
AcDbLine
 10
-41.0
 20
0.25
 30
0.0
 11
-41.0
 21
50.0
 31
0.0
  0
LINE
  5
22A
330
220
100
AcDbEntity
  8
0
100
AcDbLine
 10
-41.0
 20
53.0
 30
0.0
 11
-41.0
 21
102.75
 31
0.0
  0
MTEXT
  5
22B
330
220
100
AcDbEntity
  8
DIMENSION
100
AcDbMText
 10
-41.0
 20
51.5
 30
0.0
 40
1.0
 71
5
  1
103
 50
90.0
  0
POINT
  5
22C
330
220
100
AcDbEntity
  8
Defpoints
100
AcDbPoint
 10
-41.0
 20
0.0
 30
0.0
  0
POINT
  5
22D
330
220
100
AcDbEntity
  8
Defpoints
100
AcDbPoint
 10
0.0
 20
0.0
 30
0.0
  0
POINT
  5
22E
330
220
100
AcDbEntity
  8
Defpoints
100
AcDbPoint
 10
0.0
 20
103.0
 30
0.0
  0
ENDBLK
  5
222
330
220
100
AcDbEntity
  8
0
100
AcDbBlockEnd
  0
BLOCK
  5
231
330
230
100
AcDbEntity
  8
0
100
AcDbBlockBegin
  2
*D21
 70
1
 10
0.0
 20
0.0
 30
0.0
  3
*D21
  1

  0
LINE
  5
233
330
230
100
AcDbEntity
  8
0
100
AcDbLine
 10
0.0
 20
0.0
 30
0.0
 11
-49.0
 21
0.0
 31
0.0
  0
LINE
  5
234
330
230
100
AcDbEntity
  8
0
100
AcDbLine
 10
0.0
 20
166.0
 30
0.0
 11
-49.0
 21
166.0
 31
0.0
  0
INSERT
  5
235
330
230
100
AcDbEntity
  8
DIMENSION
100
AcDbBlockReference
  2
_CLOSEDFILLED
 10
-49.0
 20
0.0
 30
0.0
 41
0.25
 42
0.25
 50
270.0
  0
INSERT
  5
237
330
230
100
AcDbEntity
  8
DIMENSION
100
AcDbBlockReference
  2
_CLOSEDFILLED
 10
-49.0
 20
166.0
 30
0.0
 41
0.25
 42
0.25
 50
90.0
  0
LINE
  5
239
330
230
100
AcDbEntity
  8
0
100
AcDbLine
 10
-49.0
 20
0.25
 30
0.0
 11
-49.0
 21
81.5
 31
0.0
  0
LINE
  5
23A
330
230
100
AcDbEntity
  8
0
100
AcDbLine
 10
-49.0
 20
84.5
 30
0.0
 11
-49.0
 21
165.75
 31
0.0
  0
MTEXT
  5
23B
330
230
100
AcDbEntity
  8
DIMENSION
100
AcDbMText
 10
-49.0
 20
83.0
 30
0.0
 40
1.0
 71
5
  1
166
 50
90.0
  0
POINT
  5
23C
330
230
100
AcDbEntity
  8
Defpoints
100
AcDbPoint
 10
-49.0
 20
0.0
 30
0.0
  0
POINT
  5
23D
330
230
100
AcDbEntity
  8
Defpoints
100
AcDbPoint
 10
0.0
 20
0.0
 30
0.0
  0
POINT
  5
23E
330
230
100
AcDbEntity
  8
Defpoints
100
AcDbPoint
 10
0.0
 20
166.0
 30
0.0
  0
ENDBLK
  5
232
330
230
100
AcDbEntity
  8
0
100
AcDbBlockEnd
  0
BLOCK
  5
241
330
240
100
AcDbEntity
  8
0
100
AcDbBlockBegin
  2
*D22
 70
1
 10
0.0
 20
0.0
 30
0.0
  3
*D22
  1

  0
LINE
  5
243
330
240
100
AcDbEntity
  8
0
100
AcDbLine
 10
0.0
 20
0.0
 30
0.0
 11
-57.0
 21
0.0
 31
0.0
  0
LINE
  5
244
330
240
100
AcDbEntity
  8
0
100
AcDbLine
 10
0.0
 20
216.0
 30
0.0
 11
-57.0
 21
216.0
 31
0.0
  0
INSERT
  5
245
330
240
100
AcDbEntity
  8
DIMENSION
100
AcDbBlockReference
  2
_CLOSEDFILLED
 10
-57.0
 20
0.0
 30
0.0
 41
0.25
 42
0.25
 50
270.0
  0
INSERT
  5
247
330
240
100
AcDbEntity
  8
DIMENSION
100
AcDbBlockReference
  2
_CLOSEDFILLED
 10
-57.0
 20
216.0
 30
0.0
 41
0.25
 42
0.25
 50
90.0
  0
LINE
  5
249
330
240
100
AcDbEntity
  8
0
100
AcDbLine
 10
-57.0
 20
0.25
 30
0.0
 11
-57.0
 21
106.5
 31
0.0
  0
LINE
  5
24A
330
240
100
AcDbEntity
  8
0
100
AcDbLine
 10
-57.0
 20
109.5
 30
0.0
 11
-57.0
 21
215.75
 31
0.0
  0
MTEXT
  5
24B
330
240
100
AcDbEntity
  8
DIMENSION
100
AcDbMText
 10
-57.0
 20
108.0
 30
0.0
 40
1.0
 71
5
  1
216
 50
90.0
  0
POINT
  5
24C
330
240
100
AcDbEntity
  8
Defpoints
100
AcDbPoint
 10
-57.0
 20
0.0
 30
0.0
  0
POINT
  5
24D
330
240
100
AcDbEntity
  8
Defpoints
100
AcDbPoint
 10
0.0
 20
0.0
 30
0.0
  0
POINT
  5
24E
330
240
100
AcDbEntity
  8
Defpoints
100
AcDbPoint
 10
0.0
 20
216.0
 30
0.0
  0
ENDBLK
  5
242
330
240
100
AcDbEntity
  8
0
100
AcDbBlockEnd
  0
BLOCK
  5
251
330
250
100
AcDbEntity
  8
0
100
AcDbBlockBegin
  2
*D23
 70
1
 10
0.0
 20
0.0
 30
0.0
  3
*D23
  1

  0
LINE
  5
253
330
250
100
AcDbEntity
  8
0
100
AcDbLine
 10
597.0
 20
216.0
 30
0.0
 11
622.0
 21
216.0
 31
0.0
  0
LINE
  5
254
330
250
100
AcDbEntity
  8
0
100
AcDbLine
 10
597.0
 20
166.0
 30
0.0
 11
622.0
 21
166.0
 31
0.0
  0
INSERT
  5
255
330
250
100
AcDbEntity
  8
DIMENSION
100
AcDbBlockReference
  2
_CLOSEDFILLED
 10
622.0
 20
216.0
 30
0.0
 41
0.25
 42
0.25
 50
270.0
  0
INSERT
  5
257
330
250
100
AcDbEntity
  8
DIMENSION
100
AcDbBlockReference
  2
_CLOSEDFILLED
 10
622.0
 20
166.0
 30
0.0
 41
0.25
 42
0.25
 50
90.0
  0
LINE
  5
259
330
250
100
AcDbEntity
  8
0
100
AcDbLine
 10
622.0
 20
216.25
 30
0.0
 11
622.0
 21
192.0
 31
0.0
  0
LINE
  5
25A
330
250
100
AcDbEntity
  8
0
100
AcDbLine
 10
622.0
 20
190.0
 30
0.0
 11
622.0
 21
165.75
 31
0.0
  0
MTEXT
  5
25B
330
250
100
AcDbEntity
  8
DIMENSION
100
AcDbMText
 10
622.0
 20
191.0
 30
0.0
 40
1.0
 71
5
  1
50
 50
90.0
  0
POINT
  5
25C
330
250
100
AcDbEntity
  8
Defpoints
100
AcDbPoint
 10
622.0
 20
216.0
 30
0.0
  0
POINT
  5
25D
330
250
100
AcDbEntity
  8
Defpoints
100
AcDbPoint
 10
597.0
 20
216.0
 30
0.0
  0
POINT
  5
25E
330
250
100
AcDbEntity
  8
Defpoints
100
AcDbPoint
 10
597.0
 20
166.0
 30
0.0
  0
ENDBLK
  5
252
330
250
100
AcDbEntity
  8
0
100
AcDbBlockEnd
  0
BLOCK
  5
261
330
260
100
AcDbEntity
  8
0
100
AcDbBlockBegin
  2
*D24
 70
1
 10
0.0
 20
0.0
 30
0.0
  3
*D24
  1

  0
LINE
  5
263
330
260
100
AcDbEntity
  8
0
100
AcDbLine
 10
597.0
 20
216.0
 30
0.0
 11
630.0
 21
216.0
 31
0.0
  0
LINE
  5
264
330
260
100
AcDbEntity
  8
0
100
AcDbLine
 10
597.0
 20
103.0
 30
0.0
 11
630.0
 21
103.0
 31
0.0
  0
INSERT
  5
265
330
260
100
AcDbEntity
  8
DIMENSION
100
AcDbBlockReference
  2
_CLOSEDFILLED
 10
630.0
 20
216.0
 30
0.0
 41
0.25
 42
0.25
 50
270.0
  0
INSERT
  5
267
330
260
100
AcDbEntity
  8
DIMENSION
100
AcDbBlockReference
  2
_CLOSEDFILLED
 10
630.0
 20
103.0
 30
0.0
 41
0.25
 42
0.25
 50
90.0
  0
LINE
  5
269
330
260
100
AcDbEntity
  8
0
100
AcDbLine
 10
630.0
 20
216.25
 30
0.0
 11
630.0
 21
161.0
 31
0.0
  0
LINE
  5
26A
330
260
100
AcDbEntity
  8
0
100
AcDbLine
 10
630.0
 20
158.0
 30
0.0
 11
630.0
 21
102.75
 31
0.0
  0
MTEXT
  5
26B
330
260
100
AcDbEntity
  8
DIMENSION
100
AcDbMText
 10
630.0
 20
159.5
 30
0.0
 40
1.0
 71
5
  1
113
 50
90.0
  0
POINT
  5
26C
330
260
100
AcDbEntity
  8
Defpoints
100
AcDbPoint
 10
630.0
 20
216.0
 30
0.0
  0
POINT
  5
26D
330
260
100
AcDbEntity
  8
Defpoints
100
AcDbPoint
 10
597.0
 20
216.0
 30
0.0
  0
POINT
  5
26E
330
260
100
AcDbEntity
  8
Defpoints
100
AcDbPoint
 10
597.0
 20
103.0
 30
0.0
  0
ENDBLK
  5
262
330
260
100
AcDbEntity
  8
0
100
AcDbBlockEnd
  0
BLOCK
  5
271
330
270
100
AcDbEntity
  8
0
100
AcDbBlockBegin
  2
*D25
 70
1
 10
0.0
 20
0.0
 30
0.0
  3
*D25
  1

  0
LINE
  5
273
330
270
100
AcDbEntity
  8
0
100
AcDbLine
 10
597.0
 20
216.0
 30
0.0
 11
638.0
 21
216.0
 31
0.0
  0
LINE
  5
274
330
270
100
AcDbEntity
  8
0
100
AcDbLine
 10
597.0
 20
50.0
 30
0.0
 11
638.0
 21
50.0
 31
0.0
  0
INSERT
  5
275
330
270
100
AcDbEntity
  8
DIMENSION
100
AcDbBlockReference
  2
_CLOSEDFILLED
 10
638.0
 20
216.0
 30
0.0
 41
0.25
 42
0.25
 50
270.0
  0
INSERT
  5
277
330
270
100
AcDbEntity
  8
DIMENSION
100
AcDbBlockReference
  2
_CLOSEDFILLED
 10
638.0
 20
50.0
 30
0.0
 41
0.25
 42
0.25
 50
90.0
  0
LINE
  5
279
330
270
100
AcDbEntity
  8
0
100
AcDbLine
 10
638.0
 20
216.25
 30
0.0
 11
638.0
 21
134.5
 31
0.0
  0
LINE
  5
27A
330
270
100
AcDbEntity
  8
0
100
AcDbLine
 10
638.0
 20
131.5
 30
0.0
 11
638.0
 21
49.75
 31
0.0
  0
MTEXT
  5
27B
330
270
100
AcDbEntity
  8
DIMENSION
100
AcDbMText
 10
638.0
 20
133.0
 30
0.0
 40
1.0
 71
5
  1
166
 50
90.0
  0
POINT
  5
27C
330
270
100
AcDbEntity
  8
Defpoints
100
AcDbPoint
 10
638.0
 20
216.0
 30
0.0
  0
POINT
  5
27D
330
270
100
AcDbEntity
  8
Defpoints
100
AcDbPoint
 10
597.0
 20
216.0
 30
0.0
  0
POINT
  5
27E
330
270
100
AcDbEntity
  8
Defpoints
100
AcDbPoint
 10
597.0
 20
50.0
 30
0.0
  0
ENDBLK
  5
272
330
270
100
AcDbEntity
  8
0
100
AcDbBlockEnd
  0
BLOCK
  5
281
330
280
100
AcDbEntity
  8
0
100
AcDbBlockBegin
  2
*D26
 70
1
 10
0.0
 20
0.0
 30
0.0
  3
*D26
  1

  0
LINE
  5
283
330
280
100
AcDbEntity
  8
0
100
AcDbLine
 10
597.0
 20
216.0
 30
0.0
 11
646.0
 21
216.0
 31
0.0
  0
LINE
  5
284
330
280
100
AcDbEntity
  8
0
100
AcDbLine
 10
597.0
 20
6.0
 30
0.0
 11
646.0
 21
6.0
 31
0.0
  0
INSERT
  5
285
330
280
100
AcDbEntity
  8
DIMENSION
100
AcDbBlockReference
  2
_CLOSEDFILLED
 10
646.0
 20
216.0
 30
0.0
 41
0.25
 42
0.25
 50
270.0
  0
INSERT
  5
287
330
280
100
AcDbEntity
  8
DIMENSION
100
AcDbBlockReference
  2
_CLOSEDFILLED
 10
646.0
 20
6.0
 30
0.0
 41
0.25
 42
0.25
 50
90.0
  0
LINE
  5
289
330
280
100
AcDbEntity
  8
0
100
AcDbLine
 10
646.0
 20
216.25
 30
0.0
 11
646.0
 21
112.5
 31
0.0
  0
LINE
  5
28A
330
280
100
AcDbEntity
  8
0
100
AcDbLine
 10
646.0
 20
109.5
 30
0.0
 11
646.0
 21
5.75
 31
0.0
  0
MTEXT
  5
28B
330
280
100
AcDbEntity
  8
DIMENSION
100
AcDbMText
 10
646.0
 20
111.0
 30
0.0
 40
1.0
 71
5
  1
210
 50
90.0
  0
POINT
  5
28C
330
280
100
AcDbEntity
  8
Defpoints
100
AcDbPoint
 10
646.0
 20
216.0
 30
0.0
  0
POINT
  5
28D
330
280
100
AcDbEntity
  8
Defpoints
100
AcDbPoint
 10
597.0
 20
216.0
 30
0.0
  0
POINT
  5
28E
330
280
100
AcDbEntity
  8
Defpoints
100
AcDbPoint
 10
597.0
 20
6.0
 30
0.0
  0
ENDBLK
  5
282
330
280
100
AcDbEntity
  8
0
100
AcDbBlockEnd
  0
BLOCK
  5
2DD
330
2DC
100
AcDbEntity
  8
0
100
AcDbBlockBegin
  2
*Paper_Space0
 70
0
 10
0.0
 20
0.0
 30
0.0
  3
*Paper_Space0
  1

  0
VIEWPORT
  5
2E0
330
2DC
100
AcDbEntity
 67
1
  8
VIEWPORTS
100
AcDbViewport
 10
138.5
 20
95.0
 30
0.0
 40
326.70000000000005
 41
231.00000000000003
 68
1
 69
1
 12
138.5
 22
95.0
 13
0.0
 23
0.0
 14
10.0
 24
10.0
 15
10.0
 25
10.0
 16
0.0
 26
0.0
 36
1.0
 17
0.0
 27
0.0
 37
0.0
 42
50.0
 43
0.0
 44
0.0
 45
231.00000000000003
 50
0.0
 51
0.0
 72
100
 90
557088
  1

281
0
 71
0
 74
0
110
0.0
120
0.0
130
0.0
111
1.0
121
0.0
131
0.0
112
0.0
122
1.0
132
0.0
 79
0
146
0.0
  0
VIEWPORT
  5
2E1
330
2DC
100
AcDbEntity
 67
1
  8
VIEWPORTS
100
AcDbViewport
 10
148.5
 20
105.0
 30
0.0
 40
277.0
 41
190.0
 68
2
 69
3
 12
379.5
 22
80.875
 13
0.0
 23
0.0
 14
10.0
 24
10.0
 15
10.0
 25
10.0
 16
0.0
 26
0.0
 36
1.0
 17
0.0
 27
0.0
 37
0.0
 42
50.0
 43
0.0
 44
0.0
 45
658.6895306859207
 50
0.0
 51
0.0
 72
100
 90
0
  1

281
0
 71
0
 74
0
110
0.0
120
0.0
130
0.0
111
1.0
121
0.0
131
0.0
112
0.0
122
1.0
132
0.0
 79
0
146
0.0
  0
ENDBLK
  5
2DE
330
2DC
100
AcDbEntity
  8
0
100
AcDbBlockEnd
  0
ENDSEC
  0
SECTION
  2
ENTITIES
  0
TEXT
  5
33
330
17
100
AcDbEntity
  8
ANNOTATION
100
AcDbText
 10
41.5
 20
60.0
 30
0.0
 40
2.5
  1
left_side_1
100
AcDbText
  0
TEXT
  5
34
330
17
100
AcDbEntity
  8
ANNOTATION
100
AcDbText
 10
41.5
 20
55.0
 30
0.0
 40
2.5
  1
d6.0 h10.0
100
AcDbText
  0
TEXT
  5
35
330
17
100
AcDbEntity
  8
ANNOTATION
100
AcDbText
 10
41.5
 20
176.0
 30
0.0
 40
2.5
  1
left_side_2
100
AcDbText
  0
TEXT
  5
36
330
17
100
AcDbEntity
  8
ANNOTATION
100
AcDbText
 10
41.5
 20
171.0
 30
0.0
 40
2.5
  1
d6.0 h10.0
100
AcDbText
  0
TEXT
  5
37
330
17
100
AcDbEntity
  8
ANNOTATION
100
AcDbText
 10
555.5
 20
60.0
 30
0.0
 40
2.5
  1
right_side_1
100
AcDbText
  0
TEXT
  5
38
330
17
100
AcDbEntity
  8
ANNOTATION
100
AcDbText
 10
555.5
 20
55.0
 30
0.0
 40
2.5
  1
d6.0 h10.0
100
AcDbText
  0
TEXT
  5
39
330
17
100
AcDbEntity
  8
ANNOTATION
100
AcDbText
 10
555.5
 20
176.0
 30
0.0
 40
2.5
  1
right_side_2
100
AcDbText
  0
TEXT
  5
3A
330
17
100
AcDbEntity
  8
ANNOTATION
100
AcDbText
 10
555.5
 20
171.0
 30
0.0
 40
2.5
  1
d6.0 h10.0
100
AcDbText
  0
TEXT
  5
3B
330
17
100
AcDbEntity
  8
ANNOTATION
100
AcDbText
 10
91.5
 20
16.0
 30
0.0
 40
2.5
  1
bottom_panel_1
100
AcDbText
  0
TEXT
  5
3C
330
17
100
AcDbEntity
  8
ANNOTATION
100
AcDbText
 10
91.5
 20
11.0
 30
0.0
 40
2.5
  1
d6.0 h10.0
100
AcDbText
  0
TEXT
  5
3D
330
17
100
AcDbEntity
  8
ANNOTATION
100
AcDbText
 10
505.5
 20
16.0
 30
0.0
 40
2.5
  1
bottom_panel_2
100
AcDbText
  0
TEXT
  5
3E
330
17
100
AcDbEntity
  8
ANNOTATION
100
AcDbText
 10
505.5
 20
11.0
 30
0.0
 40
2.5
  1
d6.0 h10.0
100
AcDbText
  0
TEXT
  5
3F
330
17
100
AcDbEntity
  8
ANNOTATION
100
AcDbText
 10
229.5
 20
16.0
 30
0.0
 40
2.5
  1
bottom_panel_3
100
AcDbText
  0
TEXT
  5
40
330
17
100
AcDbEntity
  8
ANNOTATION
100
AcDbText
 10
229.5
 20
11.0
 30
0.0
 40
2.5
  1
d6.0 h10.0
100
AcDbText
  0
TEXT
  5
41
330
17
100
AcDbEntity
  8
ANNOTATION
100
AcDbText
 10
367.5
 20
16.0
 30
0.0
 40
2.5
  1
bottom_panel_4
100
AcDbText
  0
TEXT
  5
42
330
17
100
AcDbEntity
  8
ANNOTATION
100
AcDbText
 10
367.5
 20
11.0
 30
0.0
 40
2.5
  1
d6.0 h10.0
100
AcDbText
  0
TEXT
  5
43
330
17
100
AcDbEntity
  8
ANNOTATION
100
AcDbText
 10
218.5
 20
113.0
 30
0.0
 40
2.5
  1
handle_1
100
AcDbText
  0
TEXT
  5
44
330
17
100
AcDbEntity
  8
ANNOTATION
100
AcDbText
 10
218.5
 20
108.0
 30
0.0
 40
2.5
  1
d4.0 h18.0
100
AcDbText
  0
TEXT
  5
45
330
17
100
AcDbEntity
  8
ANNOTATION
100
AcDbText
 10
378.5
 20
113.0
 30
0.0
 40
2.5
  1
handle_2
100
AcDbText
  0
TEXT
  5
46
330
17
100
AcDbEntity
  8
ANNOTATION
100
AcDbText
 10
378.5
 20
108.0
 30
0.0
 40
2.5
  1
d4.0 h18.0
100
AcDbText
  0
LINE
  5
47
330
17
100
AcDbEntity
  8
CUT
100
AcDbLine
 10
0.0
 20
0.0
 30
0.0
 11
597.0
 21
0.0
 31
0.0
  0
LINE
  5
48
330
17
100
AcDbEntity
  8
CUT
100
AcDbLine
 10
597.0
 20
0.0
 30
0.0
 11
597.0
 21
216.0
 31
0.0
  0
LINE
  5
49
330
17
100
AcDbEntity
  8
CUT
100
AcDbLine
 10
597.0
 20
216.0
 30
0.0
 11
0.0
 21
216.0
 31
0.0
  0
LINE
  5
4A
330
17
100
AcDbEntity
  8
CUT
100
AcDbLine
 10
0.0
 20
216.0
 30
0.0
 11
0.0
 21
0.0
 31
0.0
  0
LINE
  5
4B
330
17
100
AcDbEntity
  8
CUT
100
AcDbLine
 10
38.5
 20
50.0
 30
0.0
 11
38.7284
 21
51.148
 31
0.0
  0
LINE
  5
4C
330
17
100
AcDbEntity
  8
CUT
100
AcDbLine
 10
38.7284
 20
51.148
 30
0.0
 11
39.3787
 21
52.1213
 31
0.0
  0
LINE
  5
4D
330
17
100
AcDbEntity
  8
CUT
100
AcDbLine
 10
39.3787
 20
52.1213
 30
0.0
 11
40.3519
 21
52.7716
 31
0.0
  0
LINE
  5
4E
330
17
100
AcDbEntity
  8
CUT
100
AcDbLine
 10
40.3519
 20
52.7716
 30
0.0
 11
41.5
 21
53.0
 31
0.0
  0
LINE
  5
4F
330
17
100
AcDbEntity
  8
CUT
100
AcDbLine
 10
41.5
 20
53.0
 30
0.0
 11
42.648
 21
52.7716
 31
0.0
  0
LINE
  5
50
330
17
100
AcDbEntity
  8
CUT
100
AcDbLine
 10
42.648
 20
52.7716
 30
0.0
 11
43.6213
 21
52.1213
 31
0.0
  0
LINE
  5
51
330
17
100
AcDbEntity
  8
CUT
100
AcDbLine
 10
43.6213
 20
52.1213
 30
0.0
 11
44.2716
 21
51.148
 31
0.0
  0
LINE
  5
52
330
17
100
AcDbEntity
  8
CUT
100
AcDbLine
 10
44.2716
 20
51.148
 30
0.0
 11
44.5
 21
50.0
 31
0.0
  0
LINE
  5
53
330
17
100
AcDbEntity
  8
CUT
100
AcDbLine
 10
44.5
 20
50.0
 30
0.0
 11
44.2716
 21
48.8519
 31
0.0
  0
LINE
  5
54
330
17
100
AcDbEntity
  8
CUT
100
AcDbLine
 10
44.2716
 20
48.8519
 30
0.0
 11
43.6213
 21
47.8787
 31
0.0
  0
LINE
  5
55
330
17
100
AcDbEntity
  8
CUT
100
AcDbLine
 10
43.6213
 20
47.8787
 30
0.0
 11
42.648
 21
47.2284
 31
0.0
  0
LINE
  5
56
330
17
100
AcDbEntity
  8
CUT
100
AcDbLine
 10
42.648
 20
47.2284
 30
0.0
 11
41.5
 21
47.0
 31
0.0
  0
LINE
  5
57
330
17
100
AcDbEntity
  8
CUT
100
AcDbLine
 10
41.5
 20
47.0
 30
0.0
 11
40.3519
 21
47.2284
 31
0.0
  0
LINE
  5
58
330
17
100
AcDbEntity
  8
CUT
100
AcDbLine
 10
40.3519
 20
47.2284
 30
0.0
 11
39.3787
 21
47.8787
 31
0.0
  0
LINE
  5
59
330
17
100
AcDbEntity
  8
CUT
100
AcDbLine
 10
39.3787
 20
47.8787
 30
0.0
 11
38.7284
 21
48.8519
 31
0.0
  0
LINE
  5
5A
330
17
100
AcDbEntity
  8
CUT
100
AcDbLine
 10
38.7284
 20
48.8519
 30
0.0
 11
38.5
 21
50.0
 31
0.0
  0
LINE
  5
5B
330
17
100
AcDbEntity
  8
CUT
100
AcDbLine
 10
38.5
 20
166.0
 30
0.0
 11
38.7284
 21
167.148
 31
0.0
  0
LINE
  5
5C
330
17
100
AcDbEntity
  8
CUT
100
AcDbLine
 10
38.7284
 20
167.148
 30
0.0
 11
39.3787
 21
168.121
 31
0.0
  0
LINE
  5
5D
330
17
100
AcDbEntity
  8
CUT
100
AcDbLine
 10
39.3787
 20
168.121
 30
0.0
 11
40.3519
 21
168.772
 31
0.0
  0
LINE
  5
5E
330
17
100
AcDbEntity
  8
CUT
100
AcDbLine
 10
40.3519
 20
168.772
 30
0.0
 11
41.5
 21
169.0
 31
0.0
  0
LINE
  5
5F
330
17
100
AcDbEntity
  8
CUT
100
AcDbLine
 10
41.5
 20
169.0
 30
0.0
 11
42.648
 21
168.772
 31
0.0
  0
LINE
  5
60
330
17
100
AcDbEntity
  8
CUT
100
AcDbLine
 10
42.648
 20
168.772
 30
0.0
 11
43.6213
 21
168.121
 31
0.0
  0
LINE
  5
61
330
17
100
AcDbEntity
  8
CUT
100
AcDbLine
 10
43.6213
 20
168.121
 30
0.0
 11
44.2716
 21
167.148
 31
0.0
  0
LINE
  5
62
330
17
100
AcDbEntity
  8
CUT
100
AcDbLine
 10
44.2716
 20
167.148
 30
0.0
 11
44.5
 21
166.0
 31
0.0
  0
LINE
  5
63
330
17
100
AcDbEntity
  8
CUT
100
AcDbLine
 10
44.5
 20
166.0
 30
0.0
 11
44.2716
 21
164.852
 31
0.0
  0
LINE
  5
64
330
17
100
AcDbEntity
  8
CUT
100
AcDbLine
 10
44.2716
 20
164.852
 30
0.0
 11
43.6213
 21
163.879
 31
0.0
  0
LINE
  5
65
330
17
100
AcDbEntity
  8
CUT
100
AcDbLine
 10
43.6213
 20
163.879
 30
0.0
 11
42.648
 21
163.228
 31
0.0
  0
LINE
  5
66
330
17
100
AcDbEntity
  8
CUT
100
AcDbLine
 10
42.648
 20
163.228
 30
0.0
 11
41.5
 21
163.0
 31
0.0
  0
LINE
  5
67
330
17
100
AcDbEntity
  8
CUT
100
AcDbLine
 10
41.5
 20
163.0
 30
0.0
 11
40.3519
 21
163.228
 31
0.0
  0
LINE
  5
68
330
17
100
AcDbEntity
  8
CUT
100
AcDbLine
 10
40.3519
 20
163.228
 30
0.0
 11
39.3787
 21
163.879
 31
0.0
  0
LINE
  5
69
330
17
100
AcDbEntity
  8
CUT
100
AcDbLine
 10
39.3787
 20
163.879
 30
0.0
 11
38.7284
 21
164.852
 31
0.0
  0
LINE
  5
6A
330
17
100
AcDbEntity
  8
CUT
100
AcDbLine
 10
38.7284
 20
164.852
 30
0.0
 11
38.5
 21
166.0
 31
0.0
  0
LINE
  5
6B
330
17
100
AcDbEntity
  8
CUT
100
AcDbLine
 10
88.5
 20
6.0
 30
0.0
 11
88.7284
 21
7.14805
 31
0.0
  0
LINE
  5
6C
330
17
100
AcDbEntity
  8
CUT
100
AcDbLine
 10
88.7284
 20
7.14805
 30
0.0
 11
89.3787
 21
8.12132
 31
0.0
  0
LINE
  5
6D
330
17
100
AcDbEntity
  8
CUT
100
AcDbLine
 10
89.3787
 20
8.12132
 30
0.0
 11
90.3519
 21
8.77164
 31
0.0
  0
LINE
  5
6E
330
17
100
AcDbEntity
  8
CUT
100
AcDbLine
 10
90.3519
 20
8.77164
 30
0.0
 11
91.5
 21
9.0
 31
0.0
  0
LINE
  5
6F
330
17
100
AcDbEntity
  8
CUT
100
AcDbLine
 10
91.5
 20
9.0
 30
0.0
 11
92.648
 21
8.77164
 31
0.0
  0
LINE
  5
70
330
17
100
AcDbEntity
  8
CUT
100
AcDbLine
 10
92.648
 20
8.77164
 30
0.0
 11
93.6213
 21
8.12132
 31
0.0
  0
LINE
  5
71
330
17
100
AcDbEntity
  8
CUT
100
AcDbLine
 10
93.6213
 20
8.12132
 30
0.0
 11
94.2716
 21
7.14805
 31
0.0
  0
LINE
  5
72
330
17
100
AcDbEntity
  8
CUT
100
AcDbLine
 10
94.2716
 20
7.14805
 30
0.0
 11
94.5
 21
6.0
 31
0.0
  0
LINE
  5
73
330
17
100
AcDbEntity
  8
CUT
100
AcDbLine
 10
94.5
 20
6.0
 30
0.0
 11
94.2716
 21
4.85195
 31
0.0
  0
LINE
  5
74
330
17
100
AcDbEntity
  8
CUT
100
AcDbLine
 10
94.2716
 20
4.85195
 30
0.0
 11
93.6213
 21
3.87868
 31
0.0
  0
LINE
  5
75
330
17
100
AcDbEntity
  8
CUT
100
AcDbLine
 10
93.6213
 20
3.87868
 30
0.0
 11
92.648
 21
3.22836
 31
0.0
  0
LINE
  5
76
330
17
100
AcDbEntity
  8
CUT
100
AcDbLine
 10
92.648
 20
3.22836
 30
0.0
 11
91.5
 21
3.0
 31
0.0
  0
LINE
  5
77
330
17
100
AcDbEntity
  8
CUT
100
AcDbLine
 10
91.5
 20
3.0
 30
0.0
 11
90.3519
 21
3.22836
 31
0.0
  0
LINE
  5
78
330
17
100
AcDbEntity
  8
CUT
100
AcDbLine
 10
90.3519
 20
3.22836
 30
0.0
 11
89.3787
 21
3.87868
 31
0.0
  0
LINE
  5
79
330
17
100
AcDbEntity
  8
CUT
100
AcDbLine
 10
89.3787
 20
3.87868
 30
0.0
 11
88.7284
 21
4.85195
 31
0.0
  0
LINE
  5
7A
330
17
100
AcDbEntity
  8
CUT
100
AcDbLine
 10
88.7284
 20
4.85195
 30
0.0
 11
88.5
 21
6.0
 31
0.0
  0
LINE
  5
7B
330
17
100
AcDbEntity
  8
CUT
100
AcDbLine
 10
216.5
 20
103.0
 30
0.0
 11
216.652
 21
103.765
 31
0.0
  0
LINE
  5
7C
330
17
100
AcDbEntity
  8
CUT
100
AcDbLine
 10
216.652
 20
103.765
 30
0.0
 11
217.086
 21
104.414
 31
0.0
  0
LINE
  5
7D
330
17
100
AcDbEntity
  8
CUT
100
AcDbLine
 10
217.086
 20
104.414
 30
0.0
 11
217.735
 21
104.848
 31
0.0
  0
LINE
  5
7E
330
17
100
AcDbEntity
  8
CUT
100
AcDbLine
 10
217.735
 20
104.848
 30
0.0
 11
218.5
 21
105.0
 31
0.0
  0
LINE
  5
7F
330
17
100
AcDbEntity
  8
CUT
100
AcDbLine
 10
218.5
 20
105.0
 30
0.0
 11
219.265
 21
104.848
 31
0.0
  0
LINE
  5
80
330
17
100
AcDbEntity
  8
CUT
100
AcDbLine
 10
219.265
 20
104.848
 30
0.0
 11
219.914
 21
104.414
 31
0.0
  0
LINE
  5
81
330
17
100
AcDbEntity
  8
CUT
100
AcDbLine
 10
219.914
 20
104.414
 30
0.0
 11
220.348
 21
103.765
 31
0.0
  0
LINE
  5
82
330
17
100
AcDbEntity
  8
CUT
100
AcDbLine
 10
220.348
 20
103.765
 30
0.0
 11
220.5
 21
103.0
 31
0.0
  0
LINE
  5
83
330
17
100
AcDbEntity
  8
CUT
100
AcDbLine
 10
220.5
 20
103.0
 30
0.0
 11
220.348
 21
102.235
 31
0.0
  0
LINE
  5
84
330
17
100
AcDbEntity
  8
CUT
100
AcDbLine
 10
220.348
 20
102.235
 30
0.0
 11
219.914
 21
101.586
 31
0.0
  0
LINE
  5
85
330
17
100
AcDbEntity
  8
CUT
100
AcDbLine
 10
219.914
 20
101.586
 30
0.0
 11
219.265
 21
101.152
 31
0.0
  0
LINE
  5
86
330
17
100
AcDbEntity
  8
CUT
100
AcDbLine
 10
219.265
 20
101.152
 30
0.0
 11
218.5
 21
101.0
 31
0.0
  0
LINE
  5
87
330
17
100
AcDbEntity
  8
CUT
100
AcDbLine
 10
218.5
 20
101.0
 30
0.0
 11
217.735
 21
101.152
 31
0.0
  0
LINE
  5
88
330
17
100
AcDbEntity
  8
CUT
100
AcDbLine
 10
217.735
 20
101.152
 30
0.0
 11
217.086
 21
101.586
 31
0.0
  0
LINE
  5
89
330
17
100
AcDbEntity
  8
CUT
100
AcDbLine
 10
217.086
 20
101.586
 30
0.0
 11
216.652
 21
102.235
 31
0.0
  0
LINE
  5
8A
330
17
100
AcDbEntity
  8
CUT
100
AcDbLine
 10
216.652
 20
102.235
 30
0.0
 11
216.5
 21
103.0
 31
0.0
  0
LINE
  5
8B
330
17
100
AcDbEntity
  8
CUT
100
AcDbLine
 10
226.5
 20
6.0
 30
0.0
 11
226.728
 21
7.14805
 31
0.0
  0
LINE
  5
8C
330
17
100
AcDbEntity
  8
CUT
100
AcDbLine
 10
226.728
 20
7.14805
 30
0.0
 11
227.379
 21
8.12132
 31
0.0
  0
LINE
  5
8D
330
17
100
AcDbEntity
  8
CUT
100
AcDbLine
 10
227.379
 20
8.12132
 30
0.0
 11
228.352
 21
8.77164
 31
0.0
  0
LINE
  5
8E
330
17
100
AcDbEntity
  8
CUT
100
AcDbLine
 10
228.352
 20
8.77164
 30
0.0
 11
229.5
 21
9.0
 31
0.0
  0
LINE
  5
8F
330
17
100
AcDbEntity
  8
CUT
100
AcDbLine
 10
229.5
 20
9.0
 30
0.0
 11
230.648
 21
8.77164
 31
0.0
  0
LINE
  5
90
330
17
100
AcDbEntity
  8
CUT
100
AcDbLine
 10
230.648
 20
8.77164
 30
0.0
 11
231.621
 21
8.12132
 31
0.0
  0
LINE
  5
91
330
17
100
AcDbEntity
  8
CUT
100
AcDbLine
 10
231.621
 20
8.12132
 30
0.0
 11
232.272
 21
7.14805
 31
0.0
  0
LINE
  5
92
330
17
100
AcDbEntity
  8
CUT
100
AcDbLine
 10
232.272
 20
7.14805
 30
0.0
 11
232.5
 21
6.0
 31
0.0
  0
LINE
  5
93
330
17
100
AcDbEntity
  8
CUT
100
AcDbLine
 10
232.5
 20
6.0
 30
0.0
 11
232.272
 21
4.85195
 31
0.0
  0
LINE
  5
94
330
17
100
AcDbEntity
  8
CUT
100
AcDbLine
 10
232.272
 20
4.85195
 30
0.0
 11
231.621
 21
3.87868
 31
0.0
  0
LINE
  5
95
330
17
100
AcDbEntity
  8
CUT
100
AcDbLine
 10
231.621
 20
3.87868
 30
0.0
 11
230.648
 21
3.22836
 31
0.0
  0
LINE
  5
96
330
17
100
AcDbEntity
  8
CUT
100
AcDbLine
 10
230.648
 20
3.22836
 30
0.0
 11
229.5
 21
3.0
 31
0.0
  0
LINE
  5
97
330
17
100
AcDbEntity
  8
CUT
100
AcDbLine
 10
229.5
 20
3.0
 30
0.0
 11
228.352
 21
3.22836
 31
0.0
  0
LINE
  5
98
330
17
100
AcDbEntity
  8
CUT
100
AcDbLine
 10
228.352
 20
3.22836
 30
0.0
 11
227.379
 21
3.87868
 31
0.0
  0
LINE
  5
99
330
17
100
AcDbEntity
  8
CUT
100
AcDbLine
 10
227.379
 20
3.87868
 30
0.0
 11
226.728
 21
4.85195
 31
0.0
  0
LINE
  5
9A
330
17
100
AcDbEntity
  8
CUT
100
AcDbLine
 10
226.728
 20
4.85195
 30
0.0
 11
226.5
 21
6.0
 31
0.0
  0
LINE
  5
9B
330
17
100
AcDbEntity
  8
CUT
100
AcDbLine
 10
364.5
 20
6.0
 30
0.0
 11
364.728
 21
7.14805
 31
0.0
  0
LINE
  5
9C
330
17
100
AcDbEntity
  8
CUT
100
AcDbLine
 10
364.728
 20
7.14805
 30
0.0
 11
365.379
 21
8.12132
 31
0.0
  0
LINE
  5
9D
330
17
100
AcDbEntity
  8
CUT
100
AcDbLine
 10
365.379
 20
8.12132
 30
0.0
 11
366.352
 21
8.77164
 31
0.0
  0
LINE
  5
9E
330
17
100
AcDbEntity
  8
CUT
100
AcDbLine
 10
366.352
 20
8.77164
 30
0.0
 11
367.5
 21
9.0
 31
0.0
  0
LINE
  5
9F
330
17
100
AcDbEntity
  8
CUT
100
AcDbLine
 10
367.5
 20
9.0
 30
0.0
 11
368.648
 21
8.77164
 31
0.0
  0
LINE
  5
A0
330
17
100
AcDbEntity
  8
CUT
100
AcDbLine
 10
368.648
 20
8.77164
 30
0.0
 11
369.621
 21
8.12132
 31
0.0
  0
LINE
  5
A1
330
17
100
AcDbEntity
  8
CUT
100
AcDbLine
 10
369.621
 20
8.12132
 30
0.0
 11
370.272
 21
7.14805
 31
0.0
  0
LINE
  5
A2
330
17
100
AcDbEntity
  8
CUT
100
AcDbLine
 10
370.272
 20
7.14805
 30
0.0
 11
370.5
 21
6.0
 31
0.0
  0
LINE
  5
A3
330
17
100
AcDbEntity
  8
CUT
100
AcDbLine
 10
370.5
 20
6.0
 30
0.0
 11
370.272
 21
4.85195
 31
0.0
  0
LINE
  5
A4
330
17
100
AcDbEntity
  8
CUT
100
AcDbLine
 10
370.272
 20
4.85195
 30
0.0
 11
369.621
 21
3.87868
 31
0.0
  0
LINE
  5
A5
330
17
100
AcDbEntity
  8
CUT
100
AcDbLine
 10
369.621
 20
3.87868
 30
0.0
 11
368.648
 21
3.22836
 31
0.0
  0
LINE
  5
A6
330
17
100
AcDbEntity
  8
CUT
100
AcDbLine
 10
368.648
 20
3.22836
 30
0.0
 11
367.5
 21
3.0
 31
0.0
  0
LINE
  5
A7
330
17
100
AcDbEntity
  8
CUT
100
AcDbLine
 10
367.5
 20
3.0
 30
0.0
 11
366.352
 21
3.22836
 31
0.0
  0
LINE
  5
A8
330
17
100
AcDbEntity
  8
CUT
100
AcDbLine
 10
366.352
 20
3.22836
 30
0.0
 11
365.379
 21
3.87868
 31
0.0
  0
LINE
  5
A9
330
17
100
AcDbEntity
  8
CUT
100
AcDbLine
 10
365.379
 20
3.87868
 30
0.0
 11
364.728
 21
4.85195
 31
0.0
  0
LINE
  5
AA
330
17
100
AcDbEntity
  8
CUT
100
AcDbLine
 10
364.728
 20
4.85195
 30
0.0
 11
364.5
 21
6.0
 31
0.0
  0
LINE
  5
AB
330
17
100
AcDbEntity
  8
CUT
100
AcDbLine
 10
376.5
 20
103.0
 30
0.0
 11
376.652
 21
103.765
 31
0.0
  0
LINE
  5
AC
330
17
100
AcDbEntity
  8
CUT
100
AcDbLine
 10
376.652
 20
103.765
 30
0.0
 11
377.086
 21
104.414
 31
0.0
  0
LINE
  5
AD
330
17
100
AcDbEntity
  8
CUT
100
AcDbLine
 10
377.086
 20
104.414
 30
0.0
 11
377.735
 21
104.848
 31
0.0
  0
LINE
  5
AE
330
17
100
AcDbEntity
  8
CUT
100
AcDbLine
 10
377.735
 20
104.848
 30
0.0
 11
378.5
 21
105.0
 31
0.0
  0
LINE
  5
AF
330
17
100
AcDbEntity
  8
CUT
100
AcDbLine
 10
378.5
 20
105.0
 30
0.0
 11
379.265
 21
104.848
 31
0.0
  0
LINE
  5
B0
330
17
100
AcDbEntity
  8
CUT
100
AcDbLine
 10
379.265
 20
104.848
 30
0.0
 11
379.914
 21
104.414
 31
0.0
  0
LINE
  5
B1
330
17
100
AcDbEntity
  8
CUT
100
AcDbLine
 10
379.914
 20
104.414
 30
0.0
 11
380.348
 21
103.765
 31
0.0
  0
LINE
  5
B2
330
17
100
AcDbEntity
  8
CUT
100
AcDbLine
 10
380.348
 20
103.765
 30
0.0
 11
380.5
 21
103.0
 31
0.0
  0
LINE
  5
B3
330
17
100
AcDbEntity
  8
CUT
100
AcDbLine
 10
380.5
 20
103.0
 30
0.0
 11
380.348
 21
102.235
 31
0.0
  0
LINE
  5
B4
330
17
100
AcDbEntity
  8
CUT
100
AcDbLine
 10
380.348
 20
102.235
 30
0.0
 11
379.914
 21
101.586
 31
0.0
  0
LINE
  5
B5
330
17
100
AcDbEntity
  8
CUT
100
AcDbLine
 10
379.914
 20
101.586
 30
0.0
 11
379.265
 21
101.152
 31
0.0
  0
LINE
  5
B6
330
17
100
AcDbEntity
  8
CUT
100
AcDbLine
 10
379.265
 20
101.152
 30
0.0
 11
378.5
 21
101.0
 31
0.0
  0
LINE
  5
B7
330
17
100
AcDbEntity
  8
CUT
100
AcDbLine
 10
378.5
 20
101.0
 30
0.0
 11
377.735
 21
101.152
 31
0.0
  0
LINE
  5
B8
330
17
100
AcDbEntity
  8
CUT
100
AcDbLine
 10
377.735
 20
101.152
 30
0.0
 11
377.086
 21
101.586
 31
0.0
  0
LINE
  5
B9
330
17
100
AcDbEntity
  8
CUT
100
AcDbLine
 10
377.086
 20
101.586
 30
0.0
 11
376.652
 21
102.235
 31
0.0
  0
LINE
  5
BA
330
17
100
AcDbEntity
  8
CUT
100
AcDbLine
 10
376.652
 20
102.235
 30
0.0
 11
376.5
 21
103.0
 31
0.0
  0
LINE
  5
BB
330
17
100
AcDbEntity
  8
CUT
100
AcDbLine
 10
502.5
 20
6.0
 30
0.0
 11
502.728
 21
7.14805
 31
0.0
  0
LINE
  5
BC
330
17
100
AcDbEntity
  8
CUT
100
AcDbLine
 10
502.728
 20
7.14805
 30
0.0
 11
503.379
 21
8.12132
 31
0.0
  0
LINE
  5
BD
330
17
100
AcDbEntity
  8
CUT
100
AcDbLine
 10
503.379
 20
8.12132
 30
0.0
 11
504.352
 21
8.77164
 31
0.0
  0
LINE
  5
BE
330
17
100
AcDbEntity
  8
CUT
100
AcDbLine
 10
504.352
 20
8.77164
 30
0.0
 11
505.5
 21
9.0
 31
0.0
  0
LINE
  5
BF
330
17
100
AcDbEntity
  8
CUT
100
AcDbLine
 10
505.5
 20
9.0
 30
0.0
 11
506.648
 21
8.77164
 31
0.0
  0
LINE
  5
C0
330
17
100
AcDbEntity
  8
CUT
100
AcDbLine
 10
506.648
 20
8.77164
 30
0.0
 11
507.621
 21
8.12132
 31
0.0
  0
LINE
  5
C1
330
17
100
AcDbEntity
  8
CUT
100
AcDbLine
 10
507.621
 20
8.12132
 30
0.0
 11
508.272
 21
7.14805
 31
0.0
  0
LINE
  5
C2
330
17
100
AcDbEntity
  8
CUT
100
AcDbLine
 10
508.272
 20
7.14805
 30
0.0
 11
508.5
 21
6.0
 31
0.0
  0
LINE
  5
C3
330
17
100
AcDbEntity
  8
CUT
100
AcDbLine
 10
508.5
 20
6.0
 30
0.0
 11
508.272
 21
4.85195
 31
0.0
  0
LINE
  5
C4
330
17
100
AcDbEntity
  8
CUT
100
AcDbLine
 10
508.272
 20
4.85195
 30
0.0
 11
507.621
 21
3.87868
 31
0.0
  0
LINE
  5
C5
330
17
100
AcDbEntity
  8
CUT
100
AcDbLine
 10
507.621
 20
3.87868
 30
0.0
 11
506.648
 21
3.22836
 31
0.0
  0
LINE
  5
C6
330
17
100
AcDbEntity
  8
CUT
100
AcDbLine
 10
506.648
 20
3.22836
 30
0.0
 11
505.5
 21
3.0
 31
0.0
  0
LINE
  5
C7
330
17
100
AcDbEntity
  8
CUT
100
AcDbLine
 10
505.5
 20
3.0
 30
0.0
 11
504.352
 21
3.22836
 31
0.0
  0
LINE
  5
C8
330
17
100
AcDbEntity
  8
CUT
100
AcDbLine
 10
504.352
 20
3.22836
 30
0.0
 11
503.379
 21
3.87868
 31
0.0
  0
LINE
  5
C9
330
17
100
AcDbEntity
  8
CUT
100
AcDbLine
 10
503.379
 20
3.87868
 30
0.0
 11
502.728
 21
4.85195
 31
0.0
  0
LINE
  5
CA
330
17
100
AcDbEntity
  8
CUT
100
AcDbLine
 10
502.728
 20
4.85195
 30
0.0
 11
502.5
 21
6.0
 31
0.0
  0
LINE
  5
CB
330
17
100
AcDbEntity
  8
CUT
100
AcDbLine
 10
552.5
 20
50.0
 30
0.0
 11
552.728
 21
51.148
 31
0.0
  0
LINE
  5
CC
330
17
100
AcDbEntity
  8
CUT
100
AcDbLine
 10
552.728
 20
51.148
 30
0.0
 11
553.379
 21
52.1213
 31
0.0
  0
LINE
  5
CD
330
17
100
AcDbEntity
  8
CUT
100
AcDbLine
 10
553.379
 20
52.1213
 30
0.0
 11
554.352
 21
52.7716
 31
0.0
  0
LINE
  5
CE
330
17
100
AcDbEntity
  8
CUT
100
AcDbLine
 10
554.352
 20
52.7716
 30
0.0
 11
555.5
 21
53.0
 31
0.0
  0
LINE
  5
CF
330
17
100
AcDbEntity
  8
CUT
100
AcDbLine
 10
555.5
 20
53.0
 30
0.0
 11
556.648
 21
52.7716
 31
0.0
  0
LINE
  5
D0
330
17
100
AcDbEntity
  8
CUT
100
AcDbLine
 10
556.648
 20
52.7716
 30
0.0
 11
557.621
 21
52.1213
 31
0.0
  0
LINE
  5
D1
330
17
100
AcDbEntity
  8
CUT
100
AcDbLine
 10
557.621
 20
52.1213
 30
0.0
 11
558.272
 21
51.148
 31
0.0
  0
LINE
  5
D2
330
17
100
AcDbEntity
  8
CUT
100
AcDbLine
 10
558.272
 20
51.148
 30
0.0
 11
558.5
 21
50.0
 31
0.0
  0
LINE
  5
D3
330
17
100
AcDbEntity
  8
CUT
100
AcDbLine
 10
558.5
 20
50.0
 30
0.0
 11
558.272
 21
48.8519
 31
0.0
  0
LINE
  5
D4
330
17
100
AcDbEntity
  8
CUT
100
AcDbLine
 10
558.272
 20
48.8519
 30
0.0
 11
557.621
 21
47.8787
 31
0.0
  0
LINE
  5
D5
330
17
100
AcDbEntity
  8
CUT
100
AcDbLine
 10
557.621
 20
47.8787
 30
0.0
 11
556.648
 21
47.2284
 31
0.0
  0
LINE
  5
D6
330
17
100
AcDbEntity
  8
CUT
100
AcDbLine
 10
556.648
 20
47.2284
 30
0.0
 11
555.5
 21
47.0
 31
0.0
  0
LINE
  5
D7
330
17
100
AcDbEntity
  8
CUT
100
AcDbLine
 10
555.5
 20
47.0
 30
0.0
 11
554.352
 21
47.2284
 31
0.0
  0
LINE
  5
D8
330
17
100
AcDbEntity
  8
CUT
100
AcDbLine
 10
554.352
 20
47.2284
 30
0.0
 11
553.379
 21
47.8787
 31
0.0
  0
LINE
  5
D9
330
17
100
AcDbEntity
  8
CUT
100
AcDbLine
 10
553.379
 20
47.8787
 30
0.0
 11
552.728
 21
48.8519
 31
0.0
  0
LINE
  5
DA
330
17
100
AcDbEntity
  8
CUT
100
AcDbLine
 10
552.728
 20
48.8519
 30
0.0
 11
552.5
 21
50.0
 31
0.0
  0
LINE
  5
DB
330
17
100
AcDbEntity
  8
CUT
100
AcDbLine
 10
552.5
 20
166.0
 30
0.0
 11
552.728
 21
167.148
 31
0.0
  0
LINE
  5
DC
330
17
100
AcDbEntity
  8
CUT
100
AcDbLine
 10
552.728
 20
167.148
 30
0.0
 11
553.379
 21
168.121
 31
0.0
  0
LINE
  5
DD
330
17
100
AcDbEntity
  8
CUT
100
AcDbLine
 10
553.379
 20
168.121
 30
0.0
 11
554.352
 21
168.772
 31
0.0
  0
LINE
  5
DE
330
17
100
AcDbEntity
  8
CUT
100
AcDbLine
 10
554.352
 20
168.772
 30
0.0
 11
555.5
 21
169.0
 31
0.0
  0
LINE
  5
DF
330
17
100
AcDbEntity
  8
CUT
100
AcDbLine
 10
555.5
 20
169.0
 30
0.0
 11
556.648
 21
168.772
 31
0.0
  0
LINE
  5
E0
330
17
100
AcDbEntity
  8
CUT
100
AcDbLine
 10
556.648
 20
168.772
 30
0.0
 11
557.621
 21
168.121
 31
0.0
  0
LINE
  5
E1
330
17
100
AcDbEntity
  8
CUT
100
AcDbLine
 10
557.621
 20
168.121
 30
0.0
 11
558.272
 21
167.148
 31
0.0
  0
LINE
  5
E2
330
17
100
AcDbEntity
  8
CUT
100
AcDbLine
 10
558.272
 20
167.148
 30
0.0
 11
558.5
 21
166.0
 31
0.0
  0
LINE
  5
E3
330
17
100
AcDbEntity
  8
CUT
100
AcDbLine
 10
558.5
 20
166.0
 30
0.0
 11
558.272
 21
164.852
 31
0.0
  0
LINE
  5
E4
330
17
100
AcDbEntity
  8
CUT
100
AcDbLine
 10
558.272
 20
164.852
 30
0.0
 11
557.621
 21
163.879
 31
0.0
  0
LINE
  5
E5
330
17
100
AcDbEntity
  8
CUT
100
AcDbLine
 10
557.621
 20
163.879
 30
0.0
 11
556.648
 21
163.228
 31
0.0
  0
LINE
  5
E6
330
17
100
AcDbEntity
  8
CUT
100
AcDbLine
 10
556.648
 20
163.228
 30
0.0
 11
555.5
 21
163.0
 31
0.0
  0
LINE
  5
E7
330
17
100
AcDbEntity
  8
CUT
100
AcDbLine
 10
555.5
 20
163.0
 30
0.0
 11
554.352
 21
163.228
 31
0.0
  0
LINE
  5
E8
330
17
100
AcDbEntity
  8
CUT
100
AcDbLine
 10
554.352
 20
163.228
 30
0.0
 11
553.379
 21
163.879
 31
0.0
  0
LINE
  5
E9
330
17
100
AcDbEntity
  8
CUT
100
AcDbLine
 10
553.379
 20
163.879
 30
0.0
 11
552.728
 21
164.852
 31
0.0
  0
LINE
  5
EA
330
17
100
AcDbEntity
  8
CUT
100
AcDbLine
 10
552.728
 20
164.852
 30
0.0
 11
552.5
 21
166.0
 31
0.0
  0
DIMENSION
  5
EB
330
17
100
AcDbEntity
  8
DIMENSION
100
AcDbDimension
  2
*D1
  3
Standard
 10
0.0
 20
-25.0
 30
0.0
 11
20.75
 21
-25.0
 31
0.0
 70
32
 71
5
  1
<>
100
AcDbAlignedDimension
 13
0.0
 23
0.0
 33
0.0
 14
41.5
 24
0.0
 34
0.0
 50
0.0
100
AcDbRotatedDimension
  0
DIMENSION
  5
FF
330
17
100
AcDbEntity
  8
DIMENSION
100
AcDbDimension
  2
*D2
  3
Standard
 10
0.0
 20
-33.0
 30
0.0
 11
45.75
 21
-33.0
 31
0.0
 70
32
 71
5
  1
<>
100
AcDbAlignedDimension
 13
0.0
 23
0.0
 33
0.0
 14
91.5
 24
0.0
 34
0.0
 50
0.0
100
AcDbRotatedDimension
  0
DIMENSION
  5
10F
330
17
100
AcDbEntity
  8
DIMENSION
100
AcDbDimension
  2
*D3
  3
Standard
 10
0.0
 20
-41.0
 30
0.0
 11
109.25
 21
-41.0
 31
0.0
 70
32
 71
5
  1
<>
100
AcDbAlignedDimension
 13
0.0
 23
0.0
 33
0.0
 14
218.5
 24
0.0
 34
0.0
 50
0.0
100
AcDbRotatedDimension
  0
DIMENSION
  5
11F
330
17
100
AcDbEntity
  8
DIMENSION
100
AcDbDimension
  2
*D4
  3
Standard
 10
0.0
 20
-49.0
 30
0.0
 11
114.75
 21
-49.0
 31
0.0
 70
32
 71
5
  1
<>
100
AcDbAlignedDimension
 13
0.0
 23
0.0
 33
0.0
 14
229.5
 24
0.0
 34
0.0
 50
0.0
100
AcDbRotatedDimension
  0
DIMENSION
  5
12F
330
17
100
AcDbEntity
  8
DIMENSION
100
AcDbDimension
  2
*D5
  3
Standard
 10
0.0
 20
-57.0
 30
0.0
 11
183.75
 21
-57.0
 31
0.0
 70
32
 71
5
  1
<>
100
AcDbAlignedDimension
 13
0.0
 23
0.0
 33
0.0
 14
367.5
 24
0.0
 34
0.0
 50
0.0
100
AcDbRotatedDimension
  0
DIMENSION
  5
13F
330
17
100
AcDbEntity
  8
DIMENSION
100
AcDbDimension
  2
*D6
  3
Standard
 10
0.0
 20
-65.0
 30
0.0
 11
189.25
 21
-65.0
 31
0.0
 70
32
 71
5
  1
<>
100
AcDbAlignedDimension
 13
0.0
 23
0.0
 33
0.0
 14
378.5
 24
0.0
 34
0.0
 50
0.0
100
AcDbRotatedDimension
  0
DIMENSION
  5
14F
330
17
100
AcDbEntity
  8
DIMENSION
100
AcDbDimension
  2
*D7
  3
Standard
 10
0.0
 20
-73.0
 30
0.0
 11
252.75
 21
-73.0
 31
0.0
 70
32
 71
5
  1
<>
100
AcDbAlignedDimension
 13
0.0
 23
0.0
 33
0.0
 14
505.5
 24
0.0
 34
0.0
 50
0.0
100
AcDbRotatedDimension
  0
DIMENSION
  5
15F
330
17
100
AcDbEntity
  8
DIMENSION
100
AcDbDimension
  2
*D8
  3
Standard
 10
0.0
 20
-81.0
 30
0.0
 11
277.75
 21
-81.0
 31
0.0
 70
32
 71
5
  1
<>
100
AcDbAlignedDimension
 13
0.0
 23
0.0
 33
0.0
 14
555.5
 24
0.0
 34
0.0
 50
0.0
100
AcDbRotatedDimension
  0
DIMENSION
  5
16F
330
17
100
AcDbEntity
  8
DIMENSION
100
AcDbDimension
  2
*D9
  3
Standard
 10
0.0
 20
-89.0
 30
0.0
 11
298.5
 21
-89.0
 31
0.0
 70
32
 71
5
  1
<>
100
AcDbAlignedDimension
 13
0.0
 23
0.0
 33
0.0
 14
597.0
 24
0.0
 34
0.0
 50
0.0
100
AcDbRotatedDimension
  0
DIMENSION
  5
17F
330
17
100
AcDbEntity
  8
DIMENSION
100
AcDbDimension
  2
*D10
  3
Standard
 10
597.0
 20
241.0
 30
0.0
 11
576.25
 21
241.0
 31
0.0
 70
32
 71
5
  1
<>
100
AcDbAlignedDimension
 13
597.0
 23
216.0
 33
0.0
 14
555.5
 24
216.0
 34
0.0
 50
0.0
100
AcDbRotatedDimension
  0
DIMENSION
  5
18F
330
17
100
AcDbEntity
  8
DIMENSION
100
AcDbDimension
  2
*D11
  3
Standard
 10
597.0
 20
249.0
 30
0.0
 11
551.25
 21
249.0
 31
0.0
 70
32
 71
5
  1
<>
100
AcDbAlignedDimension
 13
597.0
 23
216.0
 33
0.0
 14
505.5
 24
216.0
 34
0.0
 50
0.0
100
AcDbRotatedDimension
  0
DIMENSION
  5
19F
330
17
100
AcDbEntity
  8
DIMENSION
100
AcDbDimension
  2
*D12
  3
Standard
 10
597.0
 20
257.0
 30
0.0
 11
487.75
 21
257.0
 31
0.0
 70
32
 71
5
  1
<>
100
AcDbAlignedDimension
 13
597.0
 23
216.0
 33
0.0
 14
378.5
 24
216.0
 34
0.0
 50
0.0
100
AcDbRotatedDimension
  0
DIMENSION
  5
1AF
330
17
100
AcDbEntity
  8
DIMENSION
100
AcDbDimension
  2
*D13
  3
Standard
 10
597.0
 20
265.0
 30
0.0
 11
482.25
 21
265.0
 31
0.0
 70
32
 71
5
  1
<>
100
AcDbAlignedDimension
 13
597.0
 23
216.0
 33
0.0
 14
367.5
 24
216.0
 34
0.0
 50
0.0
100
AcDbRotatedDimension
  0
DIMENSION
  5
1BF
330
17
100
AcDbEntity
  8
DIMENSION
100
AcDbDimension
  2
*D14
  3
Standard
 10
597.0
 20
273.0
 30
0.0
 11
413.25
 21
273.0
 31
0.0
 70
32
 71
5
  1
<>
100
AcDbAlignedDimension
 13
597.0
 23
216.0
 33
0.0
 14
229.5
 24
216.0
 34
0.0
 50
0.0
100
AcDbRotatedDimension
  0
DIMENSION
  5
1CF
330
17
100
AcDbEntity
  8
DIMENSION
100
AcDbDimension
  2
*D15
  3
Standard
 10
597.0
 20
281.0
 30
0.0
 11
407.75
 21
281.0
 31
0.0
 70
32
 71
5
  1
<>
100
AcDbAlignedDimension
 13
597.0
 23
216.0
 33
0.0
 14
218.5
 24
216.0
 34
0.0
 50
0.0
100
AcDbRotatedDimension
  0
DIMENSION
  5
1DF
330
17
100
AcDbEntity
  8
DIMENSION
100
AcDbDimension
  2
*D16
  3
Standard
 10
597.0
 20
289.0
 30
0.0
 11
344.25
 21
289.0
 31
0.0
 70
32
 71
5
  1
<>
100
AcDbAlignedDimension
 13
597.0
 23
216.0
 33
0.0
 14
91.5
 24
216.0
 34
0.0
 50
0.0
100
AcDbRotatedDimension
  0
DIMENSION
  5
1EF
330
17
100
AcDbEntity
  8
DIMENSION
100
AcDbDimension
  2
*D17
  3
Standard
 10
597.0
 20
297.0
 30
0.0
 11
319.25
 21
297.0
 31
0.0
 70
32
 71
5
  1
<>
100
AcDbAlignedDimension
 13
597.0
 23
216.0
 33
0.0
 14
41.5
 24
216.0
 34
0.0
 50
0.0
100
AcDbRotatedDimension
  0
DIMENSION
  5
1FF
330
17
100
AcDbEntity
  8
DIMENSION
100
AcDbDimension
  2
*D18
  3
Standard
 10
-25.0
 20
0.0
 30
0.0
 11
-25.0
 21
3.0
 31
0.0
 70
32
 71
5
  1
<>
100
AcDbAlignedDimension
 13
0.0
 23
0.0
 33
0.0
 14
0.0
 24
6.0
 34
0.0
 50
90.0
100
AcDbRotatedDimension
  0
DIMENSION
  5
20F
330
17
100
AcDbEntity
  8
DIMENSION
100
AcDbDimension
  2
*D19
  3
Standard
 10
-33.0
 20
0.0
 30
0.0
 11
-33.0
 21
25.0
 31
0.0
 70
32
 71
5
  1
<>
100
AcDbAlignedDimension
 13
0.0
 23
0.0
 33
0.0
 14
0.0
 24
50.0
 34
0.0
 50
90.0
100
AcDbRotatedDimension
  0
DIMENSION
  5
21F
330
17
100
AcDbEntity
  8
DIMENSION
100
AcDbDimension
  2
*D20
  3
Standard
 10
-41.0
 20
0.0
 30
0.0
 11
-41.0
 21
51.5
 31
0.0
 70
32
 71
5
  1
<>
100
AcDbAlignedDimension
 13
0.0
 23
0.0
 33
0.0
 14
0.0
 24
103.0
 34
0.0
 50
90.0
100
AcDbRotatedDimension
  0
DIMENSION
  5
22F
330
17
100
AcDbEntity
  8
DIMENSION
100
AcDbDimension
  2
*D21
  3
Standard
 10
-49.0
 20
0.0
 30
0.0
 11
-49.0
 21
83.0
 31
0.0
 70
32
 71
5
  1
<>
100
AcDbAlignedDimension
 13
0.0
 23
0.0
 33
0.0
 14
0.0
 24
166.0
 34
0.0
 50
90.0
100
AcDbRotatedDimension
  0
DIMENSION
  5
23F
330
17
100
AcDbEntity
  8
DIMENSION
100
AcDbDimension
  2
*D22
  3
Standard
 10
-57.0
 20
0.0
 30
0.0
 11
-57.0
 21
108.0
 31
0.0
 70
32
 71
5
  1
<>
100
AcDbAlignedDimension
 13
0.0
 23
0.0
 33
0.0
 14
0.0
 24
216.0
 34
0.0
 50
90.0
100
AcDbRotatedDimension
  0
DIMENSION
  5
24F
330
17
100
AcDbEntity
  8
DIMENSION
100
AcDbDimension
  2
*D23
  3
Standard
 10
622.0
 20
216.0
 30
0.0
 11
622.0
 21
191.0
 31
0.0
 70
32
 71
5
  1
<>
100
AcDbAlignedDimension
 13
597.0
 23
216.0
 33
0.0
 14
597.0
 24
166.0
 34
0.0
 50
90.0
100
AcDbRotatedDimension
  0
DIMENSION
  5
25F
330
17
100
AcDbEntity
  8
DIMENSION
100
AcDbDimension
  2
*D24
  3
Standard
 10
630.0
 20
216.0
 30
0.0
 11
630.0
 21
159.5
 31
0.0
 70
32
 71
5
  1
<>
100
AcDbAlignedDimension
 13
597.0
 23
216.0
 33
0.0
 14
597.0
 24
103.0
 34
0.0
 50
90.0
100
AcDbRotatedDimension
  0
DIMENSION
  5
26F
330
17
100
AcDbEntity
  8
DIMENSION
100
AcDbDimension
  2
*D25
  3
Standard
 10
638.0
 20
216.0
 30
0.0
 11
638.0
 21
133.0
 31
0.0
 70
32
 71
5
  1
<>
100
AcDbAlignedDimension
 13
597.0
 23
216.0
 33
0.0
 14
597.0
 24
50.0
 34
0.0
 50
90.0
100
AcDbRotatedDimension
  0
DIMENSION
  5
27F
330
17
100
AcDbEntity
  8
DIMENSION
100
AcDbDimension
  2
*D26
  3
Standard
 10
646.0
 20
216.0
 30
0.0
 11
646.0
 21
111.0
 31
0.0
 70
32
 71
5
  1
<>
100
AcDbAlignedDimension
 13
597.0
 23
216.0
 33
0.0
 14
597.0
 24
6.0
 34
0.0
 50
90.0
100
AcDbRotatedDimension
  0
TEXT
  5
28F
330
17
100
AcDbEntity
  8
ANNOTATION
100
AcDbText
 10
-57.0
 20
-109.0
 30
0.0
 40
5.0
  1
Legend:
100
AcDbText
  0
TEXT
  5
290
330
17
100
AcDbEntity
  8
ANNOTATION
100
AcDbText
 10
-57.0
 20
-119.0
 30
0.0
 40
5.0
  1
- CUT layer (red): Panel outline
100
AcDbText
  0
TEXT
  5
291
330
17
100
AcDbEntity
  8
ANNOTATION
100
AcDbText
 10
-57.0
 20
-129.0
 30
0.0
 40
5.0
  1
- DRILL layer (blue): Holes to be drilled
100
AcDbText
  0
TEXT
  5
292
330
17
100
AcDbEntity
  8
ANNOTATION
100
AcDbText
 10
-57.0
 20
-139.0
 30
0.0
 40
5.0
  1
- DIMENSION layer (green): Panel and hole dimensions
100
AcDbText
  0
TEXT
  5
293
330
17
100
AcDbEntity
  8
ANNOTATION
100
AcDbText
 10
-57.0
 20
-149.0
 30
0.0
 40
5.0
  1
- ANNOTATION layer (magenta): Hole dimensions (d=diameter, h=depth).
100
AcDbText
  0
TEXT
  5
294
330
17
100
AcDbEntity
  8
ANNOTATION
100
AcDbText
 10
-57.0
 20
-159.0
 30
0.0
 40
5.0
  1
- For side-drilled holes, Z-coordinate is included (e.g., d10 h20 z9.5).
100
AcDbText
  0
TEXT
  5
295
330
17
100
AcDbEntity
  8
ANNOTATION
100
AcDbText
 10
-57.0
 20
-169.0
 30
0.0
 40
5.0
  1
- Side-drilled holes are also marked with a blue cross on the DRILL layer.
100
AcDbText
  0
TEXT
  5
296
330
17
100
AcDbEntity
  8
ANNOTATION
100
AcDbText
 10
666.0
 20
297.0
 30
0.0
 40
3.75
  1
Hole Schedule
100
AcDbText
  0
TEXT
  5
297
330
17
100
AcDbEntity
  8
ANNOTATION
100
AcDbText
 10
666.0
 20
289.5
 30
0.0
 40
2.5
  1
Hole Name
100
AcDbText
  0
TEXT
  5
298
330
17
100
AcDbEntity
  8
ANNOTATION
100
AcDbText
 10
716.0
 20
289.5
 30
0.0
 40
2.5
  1
X
100
AcDbText
  0
TEXT
  5
299
330
17
100
AcDbEntity
  8
ANNOTATION
100
AcDbText
 10
736.0
 20
289.5
 30
0.0
 40
2.5
  1
Y
100
AcDbText
  0
TEXT
  5
29A
330
17
100
AcDbEntity
  8
ANNOTATION
100
AcDbText
 10
756.0
 20
289.5
 30
0.0
 40
2.5
  1
Z
100
AcDbText
  0
TEXT
  5
29B
330
17
100
AcDbEntity
  8
ANNOTATION
100
AcDbText
 10
776.0
 20
289.5
 30
0.0
 40
2.5
  1
Dia
100
AcDbText
  0
TEXT
  5
29C
330
17
100
AcDbEntity
  8
ANNOTATION
100
AcDbText
 10
796.0
 20
289.5
 30
0.0
 40
2.5
  1
Depth
100
AcDbText
  0
LINE
  5
29D
330
17
100
AcDbEntity
  8
ANNOTATION
100
AcDbLine
 10
666.0
 20
288.25
 30
0.0
 11
816.0
 21
288.25
 31
0.0
  0
TEXT
  5
29E
330
17
100
AcDbEntity
  8
ANNOTATION
100
AcDbText
 10
666.0
 20
283.875
 30
0.0
 40
2.5
  1
left_side_1
100
AcDbText
  0
TEXT
  5
29F
330
17
100
AcDbEntity
  8
ANNOTATION
100
AcDbText
 10
716.0
 20
283.875
 30
0.0
 40
2.5
  1
41.5
100
AcDbText
  0
TEXT
  5
2A0
330
17
100
AcDbEntity
  8
ANNOTATION
100
AcDbText
 10
736.0
 20
283.875
 30
0.0
 40
2.5
  1
50.0
100
AcDbText
  0
TEXT
  5
2A1
330
17
100
AcDbEntity
  8
ANNOTATION
100
AcDbText
 10
756.0
 20
283.875
 30
0.0
 40
2.5
  1
0.0
100
AcDbText
  0
TEXT
  5
2A2
330
17
100
AcDbEntity
  8
ANNOTATION
100
AcDbText
 10
776.0
 20
283.875
 30
0.0
 40
2.5
  1
6.0
100
AcDbText
  0
TEXT
  5
2A3
330
17
100
AcDbEntity
  8
ANNOTATION
100
AcDbText
 10
796.0
 20
283.875
 30
0.0
 40
2.5
  1
10.0
100
AcDbText
  0
TEXT
  5
2A4
330
17
100
AcDbEntity
  8
ANNOTATION
100
AcDbText
 10
666.0
 20
280.125
 30
0.0
 40
2.5
  1
left_side_2
100
AcDbText
  0
TEXT
  5
2A5
330
17
100
AcDbEntity
  8
ANNOTATION
100
AcDbText
 10
716.0
 20
280.125
 30
0.0
 40
2.5
  1
41.5
100
AcDbText
  0
TEXT
  5
2A6
330
17
100
AcDbEntity
  8
ANNOTATION
100
AcDbText
 10
736.0
 20
280.125
 30
0.0
 40
2.5
  1
166.0
100
AcDbText
  0
TEXT
  5
2A7
330
17
100
AcDbEntity
  8
ANNOTATION
100
AcDbText
 10
756.0
 20
280.125
 30
0.0
 40
2.5
  1
0.0
100
AcDbText
  0
TEXT
  5
2A8
330
17
100
AcDbEntity
  8
ANNOTATION
100
AcDbText
 10
776.0
 20
280.125
 30
0.0
 40
2.5
  1
6.0
100
AcDbText
  0
TEXT
  5
2A9
330
17
100
AcDbEntity
  8
ANNOTATION
100
AcDbText
 10
796.0
 20
280.125
 30
0.0
 40
2.5
  1
10.0
100
AcDbText
  0
TEXT
  5
2AA
330
17
100
AcDbEntity
  8
ANNOTATION
100
AcDbText
 10
666.0
 20
276.375
 30
0.0
 40
2.5
  1
right_side_1
100
AcDbText
  0
TEXT
  5
2AB
330
17
100
AcDbEntity
  8
ANNOTATION
100
AcDbText
 10
716.0
 20
276.375
 30
0.0
 40
2.5
  1
555.5
100
AcDbText
  0
TEXT
  5
2AC
330
17
100
AcDbEntity
  8
ANNOTATION
100
AcDbText
 10
736.0
 20
276.375
 30
0.0
 40
2.5
  1
50.0
100
AcDbText
  0
TEXT
  5
2AD
330
17
100
AcDbEntity
  8
ANNOTATION
100
AcDbText
 10
756.0
 20
276.375
 30
0.0
 40
2.5
  1
0.0
100
AcDbText
  0
TEXT
  5
2AE
330
17
100
AcDbEntity
  8
ANNOTATION
100
AcDbText
 10
776.0
 20
276.375
 30
0.0
 40
2.5
  1
6.0
100
AcDbText
  0
TEXT
  5
2AF
330
17
100
AcDbEntity
  8
ANNOTATION
100
AcDbText
 10
796.0
 20
276.375
 30
0.0
 40
2.5
  1
10.0
100
AcDbText
  0
TEXT
  5
2B0
330
17
100
AcDbEntity
  8
ANNOTATION
100
AcDbText
 10
666.0
 20
272.625
 30
0.0
 40
2.5
  1
right_side_2
100
AcDbText
  0
TEXT
  5
2B1
330
17
100
AcDbEntity
  8
ANNOTATION
100
AcDbText
 10
716.0
 20
272.625
 30
0.0
 40
2.5
  1
555.5
100
AcDbText
  0
TEXT
  5
2B2
330
17
100
AcDbEntity
  8
ANNOTATION
100
AcDbText
 10
736.0
 20
272.625
 30
0.0
 40
2.5
  1
166.0
100
AcDbText
  0
TEXT
  5
2B3
330
17
100
AcDbEntity
  8
ANNOTATION
100
AcDbText
 10
756.0
 20
272.625
 30
0.0
 40
2.5
  1
0.0
100
AcDbText
  0
TEXT
  5
2B4
330
17
100
AcDbEntity
  8
ANNOTATION
100
AcDbText
 10
776.0
 20
272.625
 30
0.0
 40
2.5
  1
6.0
100
AcDbText
  0
TEXT
  5
2B5
330
17
100
AcDbEntity
  8
ANNOTATION
100
AcDbText
 10
796.0
 20
272.625
 30
0.0
 40
2.5
  1
10.0
100
AcDbText
  0
TEXT
  5
2B6
330
17
100
AcDbEntity
  8
ANNOTATION
100
AcDbText
 10
666.0
 20
268.875
 30
0.0
 40
2.5
  1
bottom_panel_1
100
AcDbText
  0
TEXT
  5
2B7
330
17
100
AcDbEntity
  8
ANNOTATION
100
AcDbText
 10
716.0
 20
268.875
 30
0.0
 40
2.5
  1
91.5
100
AcDbText
  0
TEXT
  5
2B8
330
17
100
AcDbEntity
  8
ANNOTATION
100
AcDbText
 10
736.0
 20
268.875
 30
0.0
 40
2.5
  1
6.0
100
AcDbText
  0
TEXT
  5
2B9
330
17
100
AcDbEntity
  8
ANNOTATION
100
AcDbText
 10
756.0
 20
268.875
 30
0.0
 40
2.5
  1
0.0
100
AcDbText
  0
TEXT
  5
2BA
330
17
100
AcDbEntity
  8
ANNOTATION
100
AcDbText
 10
776.0
 20
268.875
 30
0.0
 40
2.5
  1
6.0
100
AcDbText
  0
TEXT
  5
2BB
330
17
100
AcDbEntity
  8
ANNOTATION
100
AcDbText
 10
796.0
 20
268.875
 30
0.0
 40
2.5
  1
10.0
100
AcDbText
  0
TEXT
  5
2BC
330
17
100
AcDbEntity
  8
ANNOTATION
100
AcDbText
 10
666.0
 20
265.125
 30
0.0
 40
2.5
  1
bottom_panel_2
100
AcDbText
  0
TEXT
  5
2BD
330
17
100
AcDbEntity
  8
ANNOTATION
100
AcDbText
 10
716.0
 20
265.125
 30
0.0
 40
2.5
  1
505.5
100
AcDbText
  0
TEXT
  5
2BE
330
17
100
AcDbEntity
  8
ANNOTATION
100
AcDbText
 10
736.0
 20
265.125
 30
0.0
 40
2.5
  1
6.0
100
AcDbText
  0
TEXT
  5
2BF
330
17
100
AcDbEntity
  8
ANNOTATION
100
AcDbText
 10
756.0
 20
265.125
 30
0.0
 40
2.5
  1
0.0
100
AcDbText
  0
TEXT
  5
2C0
330
17
100
AcDbEntity
  8
ANNOTATION
100
AcDbText
 10
776.0
 20
265.125
 30
0.0
 40
2.5
  1
6.0
100
AcDbText
  0
TEXT
  5
2C1
330
17
100
AcDbEntity
  8
ANNOTATION
100
AcDbText
 10
796.0
 20
265.125
 30
0.0
 40
2.5
  1
10.0
100
AcDbText
  0
TEXT
  5
2C2
330
17
100
AcDbEntity
  8
ANNOTATION
100
AcDbText
 10
666.0
 20
261.375
 30
0.0
 40
2.5
  1
bottom_panel_3
100
AcDbText
  0
TEXT
  5
2C3
330
17
100
AcDbEntity
  8
ANNOTATION
100
AcDbText
 10
716.0
 20
261.375
 30
0.0
 40
2.5
  1
229.5
100
AcDbText
  0
TEXT
  5
2C4
330
17
100
AcDbEntity
  8
ANNOTATION
100
AcDbText
 10
736.0
 20
261.375
 30
0.0
 40
2.5
  1
6.0
100
AcDbText
  0
TEXT
  5
2C5
330
17
100
AcDbEntity
  8
ANNOTATION
100
AcDbText
 10
756.0
 20
261.375
 30
0.0
 40
2.5
  1
0.0
100
AcDbText
  0
TEXT
  5
2C6
330
17
100
AcDbEntity
  8
ANNOTATION
100
AcDbText
 10
776.0
 20
261.375
 30
0.0
 40
2.5
  1
6.0
100
AcDbText
  0
TEXT
  5
2C7
330
17
100
AcDbEntity
  8
ANNOTATION
100
AcDbText
 10
796.0
 20
261.375
 30
0.0
 40
2.5
  1
10.0
100
AcDbText
  0
TEXT
  5
2C8
330
17
100
AcDbEntity
  8
ANNOTATION
100
AcDbText
 10
666.0
 20
257.625
 30
0.0
 40
2.5
  1
bottom_panel_4
100
AcDbText
  0
TEXT
  5
2C9
330
17
100
AcDbEntity
  8
ANNOTATION
100
AcDbText
 10
716.0
 20
257.625
 30
0.0
 40
2.5
  1
367.5
100
AcDbText
  0
TEXT
  5
2CA
330
17
100
AcDbEntity
  8
ANNOTATION
100
AcDbText
 10
736.0
 20
257.625
 30
0.0
 40
2.5
  1
6.0
100
AcDbText
  0
TEXT
  5
2CB
330
17
100
AcDbEntity
  8
ANNOTATION
100
AcDbText
 10
756.0
 20
257.625
 30
0.0
 40
2.5
  1
0.0
100
AcDbText
  0
TEXT
  5
2CC
330
17
100
AcDbEntity
  8
ANNOTATION
100
AcDbText
 10
776.0
 20
257.625
 30
0.0
 40
2.5
  1
6.0
100
AcDbText
  0
TEXT
  5
2CD
330
17
100
AcDbEntity
  8
ANNOTATION
100
AcDbText
 10
796.0
 20
257.625
 30
0.0
 40
2.5
  1
10.0
100
AcDbText
  0
TEXT
  5
2CE
330
17
100
AcDbEntity
  8
ANNOTATION
100
AcDbText
 10
666.0
 20
253.875
 30
0.0
 40
2.5
  1
handle_1
100
AcDbText
  0
TEXT
  5
2CF
330
17
100
AcDbEntity
  8
ANNOTATION
100
AcDbText
 10
716.0
 20
253.875
 30
0.0
 40
2.5
  1
218.5
100
AcDbText
  0
TEXT
  5
2D0
330
17
100
AcDbEntity
  8
ANNOTATION
100
AcDbText
 10
736.0
 20
253.875
 30
0.0
 40
2.5
  1
103.0
100
AcDbText
  0
TEXT
  5
2D1
330
17
100
AcDbEntity
  8
ANNOTATION
100
AcDbText
 10
756.0
 20
253.875
 30
0.0
 40
2.5
  1
0.0
100
AcDbText
  0
TEXT
  5
2D2
330
17
100
AcDbEntity
  8
ANNOTATION
100
AcDbText
 10
776.0
 20
253.875
 30
0.0
 40
2.5
  1
4.0
100
AcDbText
  0
TEXT
  5
2D3
330
17
100
AcDbEntity
  8
ANNOTATION
100
AcDbText
 10
796.0
 20
253.875
 30
0.0
 40
2.5
  1
18.0
100
AcDbText
  0
TEXT
  5
2D4
330
17
100
AcDbEntity
  8
ANNOTATION
100
AcDbText
 10
666.0
 20
250.125
 30
0.0
 40
2.5
  1
handle_2
100
AcDbText
  0
TEXT
  5
2D5
330
17
100
AcDbEntity
  8
ANNOTATION
100
AcDbText
 10
716.0
 20
250.125
 30
0.0
 40
2.5
  1
378.5
100
AcDbText
  0
TEXT
  5
2D6
330
17
100
AcDbEntity
  8
ANNOTATION
100
AcDbText
 10
736.0
 20
250.125
 30
0.0
 40
2.5
  1
103.0
100
AcDbText
  0
TEXT
  5
2D7
330
17
100
AcDbEntity
  8
ANNOTATION
100
AcDbText
 10
756.0
 20
250.125
 30
0.0
 40
2.5
  1
0.0
100
AcDbText
  0
TEXT
  5
2D8
330
17
100
AcDbEntity
  8
ANNOTATION
100
AcDbText
 10
776.0
 20
250.125
 30
0.0
 40
2.5
  1
4.0
100
AcDbText
  0
TEXT
  5
2D9
330
17
100
AcDbEntity
  8
ANNOTATION
100
AcDbText
 10
796.0
 20
250.125
 30
0.0
 40
2.5
  1
18.0
100
AcDbText
  0
TEXT
  5
2DB
330
17
100
AcDbEntity
  8
ANNOTATION
100
AcDbText
 10
379.5
 20
320.75
 30
0.0
 40
10.0
  1
DrawerFrontTop
  7
Title
 72
1
 11
379.5
 21
320.75
 31
0.0
100
AcDbText
 73
2
  0
ENDSEC
  0
SECTION
  2
OBJECTS
  0
DICTIONARY
  5
A
330
0
100
AcDbDictionary
281
1
  3
ACAD_COLOR
350
B
  3
ACAD_GROUP
350
C
  3
ACAD_LAYOUT
350
D
  3
ACAD_MATERIAL
350
E
  3
ACAD_MLEADERSTYLE
350
F
  3
ACAD_MLINESTYLE
350
10
  3
ACAD_PLOTSETTINGS
350
11
  3
ACAD_PLOTSTYLENAME
350
12
  3
ACAD_SCALELIST
350
14
  3
ACAD_TABLESTYLE
350
15
  3
ACAD_VISUALSTYLE
350
16
  3
EZDXF_META
350
2D
  0
DICTIONARY
  5
B
330
A
100
AcDbDictionary
281
1
  0
DICTIONARY
  5
C
330
A
100
AcDbDictionary
281
1
  0
DICTIONARY
  5
D
330
A
100
AcDbDictionary
281
1
  3
Model
350
1A
  3
Layout1
350
1E
  3
A4 landscape
350
2DF
  0
DICTIONARY
  5
E
330
A
100
AcDbDictionary
281
1
  3
ByBlock
350
1F
  3
ByLayer
350
20
  3
Global
350
21
  0
DICTIONARY
  5
F
330
A
100
AcDbDictionary
281
1
  3
Standard
350
2C
  0
DICTIONARY
  5
10
330
A
100
AcDbDictionary
281
1
  3
Standard
350
22
  0
DICTIONARY
  5
11
330
A
100
AcDbDictionary
281
1
  0
ACDBDICTIONARYWDFLT
  5
12
330
A
100
AcDbDictionary
281
1
  3
Normal
350
13
100
AcDbDictionaryWithDefault
340
13
  0
ACDBPLACEHOLDER
  5
13
330
12
  0
DICTIONARY
  5
14
330
A
100
AcDbDictionary
281
1
  0
DICTIONARY
  5
15
330
A
100
AcDbDictionary
281
1
  0
DICTIONARY
  5
16
330
A
100
AcDbDictionary
281
1
  0
LAYOUT
  5
1A
330
D
100
AcDbPlotSettings
  1

  4
A3
  6

 40
7.5
 41
20.0
 42
7.5
 43
20.0
 44
420.0
 45
297.0
 46
0.0
 47
0.0
 48
0.0
 49
0.0
140
0.0
141
0.0
142
1.0
143
1.0
 70
1024
 72
1
 73
0
 74
5
  7

 75
16
 76
0
 77
2
 78
300
147
1.0
148
0.0
149
0.0
100
AcDbLayout
  1
Model
 70
1
 71
0
 10
0.0
 20
0.0
 11
420.0
 21
297.0
 12
0.0
 22
0.0
 32
0.0
 14
1e+20
 24
1e+20
 34
1e+20
 15
-1e+20
 25
-1e+20
 35
-1e+20
146
0.0
 13
0.0
 23
0.0
 33
0.0
 16
1.0
 26
0.0
 36
0.0
 17
0.0
 27
1.0
 37
0.0
 76
1
330
17
  0
LAYOUT
  5
1E
330
D
100
AcDbPlotSettings
  1

  4
A3
  6

 40
7.5
 41
20.0
 42
7.5
 43
20.0
 44
420.0
 45
297.0
 46
0.0
 47
0.0
 48
0.0
 49
0.0
140
0.0
141
0.0
142
1.0
143
1.0
 70
0
 72
1
 73
0
 74
5
  7

 75
16
 76
0
 77
2
 78
300
147
1.0
148
0.0
149
0.0
100
AcDbLayout
  1
Layout1
 70
1
 71
1
 10
0.0
 20
0.0
 11
420.0
 21
297.0
 12
0.0
 22
0.0
 32
0.0
 14
1e+20
 24
1e+20
 34
1e+20
 15
-1e+20
 25
-1e+20
 35
-1e+20
146
0.0
 13
0.0
 23
0.0
 33
0.0
 16
1.0
 26
0.0
 36
0.0
 17
0.0
 27
1.0
 37
0.0
 76
1
330
1B
  0
MATERIAL
  5
1F
102
{ACAD_REACTORS
330
E
102
}
330
E
100
AcDbMaterial
  1
ByBlock
  2

 70
0
 40
1.0
 71
1
 41
1.0
 91
-1023410177
 42
1.0
 72
1
  3

 73
1
 74
1
 75
1
 44
0.5
 73
0
 45
1.0
 46
1.0
 77
1
  4

 78
1
 79
1
170
1
 48
1.0
171
1
  6

172
1
173
1
174
1
140
1.0
141
1.0
175
1
  7

176
1
177
1
178
1
143
1.0
179
1
  8

270
1
271
1
272
1
145
1.0
146
1.0
273
1
  9

274
1
275
1
276
1
 42
1.0
 72
1
  3

 73
1
 74
1
 75
1
 94
63
  0
MATERIAL
  5
20
102
{ACAD_REACTORS
330
E
102
}
330
E
100
AcDbMaterial
  1
ByLayer
  2

 70
0
 40
1.0
 71
1
 41
1.0
 91
-1023410177
 42
1.0
 72
1
  3

 73
1
 74
1
 75
1
 44
0.5
 73
0
 45
1.0
 46
1.0
 77
1
  4

 78
1
 79
1
170
1
 48
1.0
171
1
  6

172
1
173
1
174
1
140
1.0
141
1.0
175
1
  7

176
1
177
1
178
1
143
1.0
179
1
  8

270
1
271
1
272
1
145
1.0
146
1.0
273
1
  9

274
1
275
1
276
1
 42
1.0
 72
1
  3

 73
1
 74
1
 75
1
 94
63
  0
MATERIAL
  5
21
102
{ACAD_REACTORS
330
E
102
}
330
E
100
AcDbMaterial
  1
Global
  2

 70
0
 40
1.0
 71
1
 41
1.0
 91
-1023410177
 42
1.0
 72
1
  3

 73
1
 74
1
 75
1
 44
0.5
 73
0
 45
1.0
 46
1.0
 77
1
  4

 78
1
 79
1
170
1
 48
1.0
171
1
  6

172
1
173
1
174
1
140
1.0
141
1.0
175
1
  7

176
1
177
1
178
1
143
1.0
179
1
  8

270
1
271
1
272
1
145
1.0
146
1.0
273
1
  9

274
1
275
1
276
1
 42
1.0
 72
1
  3

 73
1
 74
1
 75
1
 94
63
  0
MLINESTYLE
  5
22
102
{ACAD_REACTORS
330
10
102
}
330
10
100
AcDbMlineStyle
  2
Standard
 70
0
  3

 62
256
 51
90.0
 52
90.0
 71
2
 49
0.5
 62
256
  6
BYLAYER
 49
-0.5
 62
256
  6
BYLAYER
  0
MLEADERSTYLE
  5
2C
102
{ACAD_REACTORS
330
F
102
}
330
F
100
AcDbMLeaderStyle
179
2
170
2
171
1
172
0
 90
2
 40
0.0
 41
0.0
173
1
 91
-1056964608
 92
-2
290
1
 42
2.0
291
1
 43
8.0
  3
Standard
 44
4.0
300

342
29
174
1
175
1
176
0
178
1
 93
-1056964608
 45
4.0
292
0
297
0
 46
4.0
 94
-1056964608
 47
1.0
 49
1.0
140
1.0
294
1
141
0.0
177
0
142
1.0
295
0
296
0
143
3.75
271
0
272
9
273
9
  0
DICTIONARY
  5
2D
330
A
100
AcDbDictionary
280
1
281
1
  3
CREATED_BY_EZDXF
350
2E
  3
WRITTEN_BY_EZDXF
350
2E4
  0
DICTIONARYVAR
  5
2E
330
2D
100
DictionaryVariables
280
0
  1
1.4.2 @ 2025-09-14T15:36:47.422820+00:00
  0
LAYOUT
  5
2DF
330
D
100
AcDbPlotSettings
  1

  2
DWG to PDF.pc3
  4
ezdxf_(297.00_x_210.00_MM)
  6

 40
10.0
 41
10.0
 42
10.0
 43
10.0
 44
297.0
 45
210.0
 46
0.0
 47
0.0
 48
0.0
 49
0.0
140
0.0
141
0.0
142
1.0
143
1.0
 70
672
 72
1
 73
0
 74
5
  7

 75
16
 76
0
 77
2
 78
300
147
1.0
148
0.0
149
0.0
100
AcDbLayout
  1
A4 landscape
 70
1
 71
3
 10
-10.0
 20
-10.0
 11
287.0
 21
200.0
 12
0.0
 22
0.0
 32
0.0
 14
1e+20
 24
1e+20
 34
1e+20
 15
-1e+20
 25
-1e+20
 35
-1e+20
146
0.0
 13
0.0
 23
0.0
 33
0.0
 16
1.0
 26
0.0
 36
0.0
 17
0.0
 27
1.0
 37
0.0
 76
1
330
2DC
331
2E0
  0
DICTIONARYVAR
  5
2E4
330
2D
100
DictionaryVariables
280
0
  1
1.4.2 @ 2025-09-14T15:36:47.448828+00:00
  0
ENDSEC
  0
EOF
