  0
SECTION
  2
HEADER
  9
$ACADVER
  1
AC1015
  9
$ACADMAINTVER
 70
6
  9
$DWGCODEPAGE
  3
ANSI_1252
  9
$INSBASE
 10
0.0
 20
0.0
 30
0.0
  9
$EXTMIN
 10
1e+20
 20
1e+20
 30
1e+20
  9
$EXTMAX
 10
-1e+20
 20
-1e+20
 30
-1e+20
  9
$LIMMIN
 10
0.0
 20
0.0
  9
$LIMMAX
 10
420.0
 20
297.0
  9
$ORTHOMODE
 70
0
  9
$REGENMODE
 70
1
  9
$FILLMODE
 70
1
  9
$QTEXTMODE
 70
0
  9
$MIRRTEXT
 70
1
  9
$LTSCALE
 40
1.0
  9
$ATTMODE
 70
1
  9
$TEXTSIZE
 40
2.5
  9
$TRACEWID
 40
1.0
  9
$TEXTSTYLE
  7
Standard
  9
$CLAYER
  8
0
  9
$CELTYPE
  6
ByLayer
  9
$CECOLOR
 62
256
  9
$CELTSCALE
 40
1.0
  9
$DISPSILH
 70
0
  9
$DIMSCALE
 40
1.0
  9
$DIMASZ
 40
2.5
  9
$DIMEXO
 40
0.625
  9
$DIMDLI
 40
3.75
  9
$DIMRND
 40
0.0
  9
$DIMDLE
 40
0.0
  9
$DIMEXE
 40
1.25
  9
$DIMTP
 40
0.0
  9
$DIMTM
 40
0.0
  9
$DIMTXT
 40
2.5
  9
$DIMCEN
 40
2.5
  9
$DIMTSZ
 40
0.0
  9
$DIMTOL
 70
0
  9
$DIMLIM
 70
0
  9
$DIMTIH
 70
0
  9
$DIMTOH
 70
0
  9
$DIMSE1
 70
0
  9
$DIMSE2
 70
0
  9
$DIMTAD
 70
1
  9
$DIMZIN
 70
8
  9
$DIMBLK
  1

  9
$DIMASO
 70
1
  9
$DIMSHO
 70
1
  9
$DIMPOST
  1

  9
$DIMAPOST
  1

  9
$DIMALT
 70
0
  9
$DIMALTD
 70
3
  9
$DIMALTF
 40
0.03937007874
  9
$DIMLFAC
 40
1.0
  9
$DIMTOFL
 70
1
  9
$DIMTVP
 40
0.0
  9
$DIMTIX
 70
0
  9
$DIMSOXD
 70
0
  9
$DIMSAH
 70
0
  9
$DIMBLK1
  1

  9
$DIMBLK2
  1

  9
$DIMSTYLE
  2
ISO-25
  9
$DIMCLRD
 70
0
  9
$DIMCLRE
 70
0
  9
$DIMCLRT
 70
0
  9
$DIMTFAC
 40
1.0
  9
$DIMGAP
 40
0.625
  9
$DIMJUST
 70
0
  9
$DIMSD1
 70
0
  9
$DIMSD2
 70
0
  9
$DIMTOLJ
 70
0
  9
$DIMTZIN
 70
8
  9
$DIMALTZ
 70
0
  9
$DIMALTTZ
 70
0
  9
$DIMUPT
 70
0
  9
$DIMDEC
 70
2
  9
$DIMTDEC
 70
2
  9
$DIMALTU
 70
2
  9
$DIMALTTD
 70
3
  9
$DIMTXSTY
  7
Standard
  9
$DIMAUNIT
 70
0
  9
$DIMADEC
 70
0
  9
$DIMALTRND
 40
0.0
  9
$DIMAZIN
 70
0
  9
$DIMDSEP
 70
44
  9
$DIMATFIT
 70
3
  9
$DIMFRAC
 70
0
  9
$DIMLDRBLK
  1

  9
$DIMLUNIT
 70
2
  9
$DIMLWD
 70
-2
  9
$DIMLWE
 70
-2
  9
$DIMTMOVE
 70
0
  9
$LUNITS
 70
2
  9
$LUPREC
 70
4
  9
$SKETCHINC
 40
1.0
  9
$FILLETRAD
 40
10.0
  9
$AUNITS
 70
0
  9
$AUPREC
 70
2
  9
$MENU
  1
.
  9
$ELEVATION
 40
0.0
  9
$PELEVATION
 40
0.0
  9
$THICKNESS
 40
0.0
  9
$LIMCHECK
 70
0
  9
$CHAMFERA
 40
0.0
  9
$CHAMFERB
 40
0.0
  9
$CHAMFERC
 40
0.0
  9
$CHAMFERD
 40
0.0
  9
$SKPOLY
 70
0
  9
$TDCREATE
 40
2460938.315891204
  9
$TDUCREATE
 40
2458532.153996898
  9
$TDUPDATE
 40
2460938.315891204
  9
$TDUUPDATE
 40
2458532.1544311
  9
$TDINDWG
 40
0.0
  9
$TDUSRTIMER
 40
0.0
  9
$USRTIMER
 70
1
  9
$ANGBASE
 50
0.0
  9
$ANGDIR
 70
0
  9
$PDMODE
 70
0
  9
$PDSIZE
 40
0.0
  9
$PLINEWID
 40
0.0
  9
$SPLFRAME
 70
0
  9
$SPLINETYPE
 70
6
  9
$SPLINESEGS
 70
8
  9
$HANDSEED
  5
62D
  9
$SURFTAB1
 70
6
  9
$SURFTAB2
 70
6
  9
$SURFTYPE
 70
6
  9
$SURFU
 70
6
  9
$SURFV
 70
6
  9
$UCSBASE
  2

  9
$UCSNAME
  2

  9
$UCSORG
 10
0.0
 20
0.0
 30
0.0
  9
$UCSXDIR
 10
1.0
 20
0.0
 30
0.0
  9
$UCSYDIR
 10
0.0
 20
1.0
 30
0.0
  9
$UCSORTHOREF
  2

  9
$UCSORTHOVIEW
 70
0
  9
$UCSORGTOP
 10
0.0
 20
0.0
 30
0.0
  9
$UCSORGBOTTOM
 10
0.0
 20
0.0
 30
0.0
  9
$UCSORGLEFT
 10
0.0
 20
0.0
 30
0.0
  9
$UCSORGRIGHT
 10
0.0
 20
0.0
 30
0.0
  9
$UCSORGFRONT
 10
0.0
 20
0.0
 30
0.0
  9
$UCSORGBACK
 10
0.0
 20
0.0
 30
0.0
  9
$PUCSBASE
  2

  9
$PUCSNAME
  2

  9
$PUCSORG
 10
0.0
 20
0.0
 30
0.0
  9
$PUCSXDIR
 10
1.0
 20
0.0
 30
0.0
  9
$PUCSYDIR
 10
0.0
 20
1.0
 30
0.0
  9
$PUCSORTHOREF
  2

  9
$PUCSORTHOVIEW
 70
0
  9
$PUCSORGTOP
 10
0.0
 20
0.0
 30
0.0
  9
$PUCSORGBOTTOM
 10
0.0
 20
0.0
 30
0.0
  9
$PUCSORGLEFT
 10
0.0
 20
0.0
 30
0.0
  9
$PUCSORGRIGHT
 10
0.0
 20
0.0
 30
0.0
  9
$PUCSORGFRONT
 10
0.0
 20
0.0
 30
0.0
  9
$PUCSORGBACK
 10
0.0
 20
0.0
 30
0.0
  9
$USERI1
 70
0
  9
$USERI2
 70
0
  9
$USERI3
 70
0
  9
$USERI4
 70
0
  9
$USERI5
 70
0
  9
$USERR1
 40
0.0
  9
$USERR2
 40
0.0
  9
$USERR3
 40
0.0
  9
$USERR4
 40
0.0
  9
$USERR5
 40
0.0
  9
$WORLDVIEW
 70
1
  9
$SHADEDGE
 70
3
  9
$SHADEDIF
 70
70
  9
$TILEMODE
 70
1
  9
$MAXACTVP
 70
64
  9
$PINSBASE
 10
0.0
 20
0.0
 30
0.0
  9
$PLIMCHECK
 70
0
  9
$PEXTMIN
 10
1e+20
 20
1e+20
 30
1e+20
  9
$PEXTMAX
 10
-1e+20
 20
-1e+20
 30
-1e+20
  9
$PLIMMIN
 10
0.0
 20
0.0
  9
$PLIMMAX
 10
420.0
 20
297.0
  9
$UNITMODE
 70
0
  9
$VISRETAIN
 70
1
  9
$PLINEGEN
 70
0
  9
$PSLTSCALE
 70
1
  9
$TREEDEPTH
 70
3020
  9
$CMLSTYLE
  2
Standard
  9
$CMLJUST
 70
0
  9
$CMLSCALE
 40
20.0
  9
$PROXYGRAPHICS
 70
1
  9
$MEASUREMENT
 70
1
  9
$CELWEIGHT
370
-1
  9
$ENDCAPS
280
0
  9
$JOINSTYLE
280
0
  9
$LWDISPLAY
290
0
  9
$INSUNITS
 70
4
  9
$HYPERLINKBASE
  1

  9
$STYLESHEET
  1

  9
$XEDIT
290
1
  9
$CEPSNTYPE
380
0
  9
$PSTYLEMODE
290
1
  9
$FINGERPRINTGUID
  2
{92027F7D-0C85-4A79-8061-8BBF731FA87B}
  9
$VERSIONGUID
  2
{C219892B-051F-41EA-94B2-46E3AA8B2236}
  9
$EXTNAMES
290
1
  9
$PSVPSCALE
 40
0.0
  9
$OLESTARTUP
290
0
  0
ENDSEC
  0
SECTION
  2
CLASSES
  0
CLASS
  1
ACDBDICTIONARYWDFLT
  2
AcDbDictionaryWithDefault
  3
ObjectDBX Classes
 90
0
280
0
281
0
  0
CLASS
  1
SUN
  2
AcDbSun
  3
SCENEOE
 90
1153
280
0
281
0
  0
CLASS
  1
VISUALSTYLE
  2
AcDbVisualStyle
  3
ObjectDBX Classes
 90
4095
280
0
281
0
  0
CLASS
  1
MATERIAL
  2
AcDbMaterial
  3
ObjectDBX Classes
 90
1153
280
0
281
0
  0
CLASS
  1
SCALE
  2
AcDbScale
  3
ObjectDBX Classes
 90
1153
280
0
281
0
  0
CLASS
  1
TABLESTYLE
  2
AcDbTableStyle
  3
ObjectDBX Classes
 90
4095
280
0
281
0
  0
CLASS
  1
MLEADERSTYLE
  2
AcDbMLeaderStyle
  3
ACDB_MLEADERSTYLE_CLASS
 90
4095
280
0
281
0
  0
CLASS
  1
DICTIONARYVAR
  2
AcDbDictionaryVar
  3
ObjectDBX Classes
 90
0
280
0
281
0
  0
CLASS
  1
CELLSTYLEMAP
  2
AcDbCellStyleMap
  3
ObjectDBX Classes
 90
1152
280
0
281
0
  0
CLASS
  1
MENTALRAYRENDERSETTINGS
  2
AcDbMentalRayRenderSettings
  3
SCENEOE
 90
1024
280
0
281
0
  0
CLASS
  1
ACDBDETAILVIEWSTYLE
  2
AcDbDetailViewStyle
  3
ObjectDBX Classes
 90
1025
280
0
281
0
  0
CLASS
  1
ACDBSECTIONVIEWSTYLE
  2
AcDbSectionViewStyle
  3
ObjectDBX Classes
 90
1025
280
0
281
0
  0
CLASS
  1
RASTERVARIABLES
  2
AcDbRasterVariables
  3
ISM
 90
0
280
0
281
0
  0
CLASS
  1
ACDBPLACEHOLDER
  2
AcDbPlaceHolder
  3
ObjectDBX Classes
 90
0
280
0
281
0
  0
CLASS
  1
LAYOUT
  2
AcDbLayout
  3
ObjectDBX Classes
 90
0
280
0
281
0
  0
ENDSEC
  0
SECTION
  2
TABLES
  0
TABLE
  2
VPORT
  5
8
330
0
100
AcDbSymbolTable
 70
1
  0
VPORT
  5
23
330
8
100
AcDbSymbolTableRecord
100
AcDbViewportTableRecord
  2
*Active
 70
0
 10
0.0
 20
0.0
 11
1.0
 21
1.0
 12
0.0
 22
0.0
 13
0.0
 23
0.0
 14
0.5
 24
0.5
 15
0.5
 25
0.5
 16
0.0
 26
0.0
 36
1.0
 17
0.0
 27
0.0
 37
0.0
 40
1000.0
 41
1.34
 42
50.0
 43
0.0
 44
0.0
 50
0.0
 51
0.0
 71
0
 72
1000
 73
1
 74
3
 75
0
 76
0
 77
0
 78
0
281
0
 65
0
146
0.0
  0
ENDTAB
  0
TABLE
  2
LTYPE
  5
2
330
0
100
AcDbSymbolTable
 70
3
  0
LTYPE
  5
24
330
2
100
AcDbSymbolTableRecord
100
AcDbLinetypeTableRecord
  2
ByBlock
 70
0
  3

 72
65
 73
0
 40
0.0
  0
LTYPE
  5
25
330
2
100
AcDbSymbolTableRecord
100
AcDbLinetypeTableRecord
  2
ByLayer
 70
0
  3

 72
65
 73
0
 40
0.0
  0
LTYPE
  5
26
330
2
100
AcDbSymbolTableRecord
100
AcDbLinetypeTableRecord
  2
Continuous
 70
0
  3

 72
65
 73
0
 40
0.0
  0
ENDTAB
  0
TABLE
  2
LAYER
  5
1
330
0
100
AcDbSymbolTable
 70
6
  0
LAYER
  5
27
330
1
100
AcDbSymbolTableRecord
100
AcDbLayerTableRecord
  2
0
 70
0
 62
7
  6
Continuous
370
-3
390
13
  0
LAYER
  5
28
330
1
100
AcDbSymbolTableRecord
100
AcDbLayerTableRecord
  2
Defpoints
 70
0
 62
7
  6
Continuous
290
0
370
-3
390
13
  0
LAYER
  5
2F
330
1
100
AcDbSymbolTableRecord
100
AcDbLayerTableRecord
  2
CUT
 70
0
 62
1
  6
CONTINUOUS
370
-3
390
13
  0
LAYER
  5
30
330
1
100
AcDbSymbolTableRecord
100
AcDbLayerTableRecord
  2
DRILL
 70
0
 62
5
  6
CONTINUOUS
370
-3
390
13
  0
LAYER
  5
31
330
1
100
AcDbSymbolTableRecord
100
AcDbLayerTableRecord
  2
DIMENSION
 70
0
 62
8
  6
CONTINUOUS
370
-3
390
13
  0
LAYER
  5
32
330
1
100
AcDbSymbolTableRecord
100
AcDbLayerTableRecord
  2
ANNOTATION
 70
0
 62
7
  6
CONTINUOUS
370
-3
390
13
  0
ENDTAB
  0
TABLE
  2
STYLE
  5
5
330
0
100
AcDbSymbolTable
 70
2
  0
STYLE
  5
29
330
5
100
AcDbSymbolTableRecord
100
AcDbTextStyleTableRecord
  2
Standard
 70
0
 40
0.0
 41
1.0
 50
0.0
 71
0
 42
2.5
  3
txt
  4

  0
STYLE
  5
622
330
5
100
AcDbSymbolTableRecord
100
AcDbTextStyleTableRecord
  2
Title
 70
0
 40
0.0
 41
1.0
 50
0.0
 71
0
 42
2.5
  3
ISOCPEUR.ttf
  4

  0
ENDTAB
  0
TABLE
  2
VIEW
  5
7
330
0
100
AcDbSymbolTable
 70
0
  0
ENDTAB
  0
TABLE
  2
UCS
  5
6
330
0
100
AcDbSymbolTable
 70
0
  0
ENDTAB
  0
TABLE
  2
APPID
  5
3
330
0
100
AcDbSymbolTable
 70
3
  0
APPID
  5
2A
330
3
100
AcDbSymbolTableRecord
100
AcDbRegAppTableRecord
  2
ACAD
 70
0
  0
APPID
  5
62A
330
3
100
AcDbSymbolTableRecord
100
AcDbRegAppTableRecord
  2
HATCHBACKGROUNDCOLOR
 70
0
  0
APPID
  5
62B
330
3
100
AcDbSymbolTableRecord
100
AcDbRegAppTableRecord
  2
EZDXF
 70
0
  0
ENDTAB
  0
TABLE
  2
DIMSTYLE
  5
4
330
0
100
AcDbSymbolTable
 70
1
100
AcDbDimStyleTable
  0
DIMSTYLE
105
2B
330
4
100
AcDbSymbolTableRecord
100
AcDbDimStyleTableRecord
  2
Standard
 70
0
  3

  4

 40
1.0
 41
2.5
 42
0.625
 43
3.75
 44
1.25
 45
0.0
 46
0.0
 47
0.0
 48
0.0
140
2.5
141
2.5
142
0.0
143
0.03937007874
144
1.0
145
0.0
146
1.0
147
0.625
148
0.0
 71
0
 72
0
 73
0
 74
0
 75
0
 76
0
 77
1
 78
8
 79
3
170
0
171
3
172
1
173
0
174
0
175
0
176
0
177
0
178
0
179
2
271
2
272
2
273
2
274
3
275
0
276
0
277
2
278
44
279
0
280
0
281
0
282
0
283
0
284
8
285
0
286
0
288
0
289
3
371
-2
372
-2
  0
ENDTAB
  0
TABLE
  2
BLOCK_RECORD
  5
9
330
0
100
AcDbSymbolTable
 70
30
  0
BLOCK_RECORD
  5
17
330
9
100
AcDbSymbolTableRecord
100
AcDbBlockTableRecord
  2
*Model_Space
340
1A
  0
BLOCK_RECORD
  5
1B
330
9
100
AcDbSymbolTableRecord
100
AcDbBlockTableRecord
  2
*Paper_Space
340
1E
  0
BLOCK_RECORD
  5
434
330
9
100
AcDbSymbolTableRecord
100
AcDbBlockTableRecord
  2
*D1
340
0
  0
BLOCK_RECORD
  5
439
330
9
100
AcDbSymbolTableRecord
100
AcDbBlockTableRecord
  2
_CLOSEDFILLED
340
0
  0
BLOCK_RECORD
  5
448
330
9
100
AcDbSymbolTableRecord
100
AcDbBlockTableRecord
  2
*D2
340
0
  0
BLOCK_RECORD
  5
458
330
9
100
AcDbSymbolTableRecord
100
AcDbBlockTableRecord
  2
*D3
340
0
  0
BLOCK_RECORD
  5
468
330
9
100
AcDbSymbolTableRecord
100
AcDbBlockTableRecord
  2
*D4
340
0
  0
BLOCK_RECORD
  5
478
330
9
100
AcDbSymbolTableRecord
100
AcDbBlockTableRecord
  2
*D5
340
0
  0
BLOCK_RECORD
  5
488
330
9
100
AcDbSymbolTableRecord
100
AcDbBlockTableRecord
  2
*D6
340
0
  0
BLOCK_RECORD
  5
498
330
9
100
AcDbSymbolTableRecord
100
AcDbBlockTableRecord
  2
*D7
340
0
  0
BLOCK_RECORD
  5
4A8
330
9
100
AcDbSymbolTableRecord
100
AcDbBlockTableRecord
  2
*D8
340
0
  0
BLOCK_RECORD
  5
4B8
330
9
100
AcDbSymbolTableRecord
100
AcDbBlockTableRecord
  2
*D9
340
0
  0
BLOCK_RECORD
  5
4C8
330
9
100
AcDbSymbolTableRecord
100
AcDbBlockTableRecord
  2
*D10
340
0
  0
BLOCK_RECORD
  5
4D8
330
9
100
AcDbSymbolTableRecord
100
AcDbBlockTableRecord
  2
*D11
340
0
  0
BLOCK_RECORD
  5
4E8
330
9
100
AcDbSymbolTableRecord
100
AcDbBlockTableRecord
  2
*D12
340
0
  0
BLOCK_RECORD
  5
4F8
330
9
100
AcDbSymbolTableRecord
100
AcDbBlockTableRecord
  2
*D13
340
0
  0
BLOCK_RECORD
  5
508
330
9
100
AcDbSymbolTableRecord
100
AcDbBlockTableRecord
  2
*D14
340
0
  0
BLOCK_RECORD
  5
518
330
9
100
AcDbSymbolTableRecord
100
AcDbBlockTableRecord
  2
*D15
340
0
  0
BLOCK_RECORD
  5
528
330
9
100
AcDbSymbolTableRecord
100
AcDbBlockTableRecord
  2
*D16
340
0
  0
BLOCK_RECORD
  5
538
330
9
100
AcDbSymbolTableRecord
100
AcDbBlockTableRecord
  2
*D17
340
0
  0
BLOCK_RECORD
  5
548
330
9
100
AcDbSymbolTableRecord
100
AcDbBlockTableRecord
  2
*D18
340
0
  0
BLOCK_RECORD
  5
558
330
9
100
AcDbSymbolTableRecord
100
AcDbBlockTableRecord
  2
*D19
340
0
  0
BLOCK_RECORD
  5
568
330
9
100
AcDbSymbolTableRecord
100
AcDbBlockTableRecord
  2
*D20
340
0
  0
BLOCK_RECORD
  5
578
330
9
100
AcDbSymbolTableRecord
100
AcDbBlockTableRecord
  2
*D21
340
0
  0
BLOCK_RECORD
  5
588
330
9
100
AcDbSymbolTableRecord
100
AcDbBlockTableRecord
  2
*D22
340
0
  0
BLOCK_RECORD
  5
598
330
9
100
AcDbSymbolTableRecord
100
AcDbBlockTableRecord
  2
*D23
340
0
  0
BLOCK_RECORD
  5
5A8
330
9
100
AcDbSymbolTableRecord
100
AcDbBlockTableRecord
  2
*D24
340
0
  0
BLOCK_RECORD
  5
5B8
330
9
100
AcDbSymbolTableRecord
100
AcDbBlockTableRecord
  2
*D25
340
0
  0
BLOCK_RECORD
  5
5C8
330
9
100
AcDbSymbolTableRecord
100
AcDbBlockTableRecord
  2
*D26
340
0
  0
BLOCK_RECORD
  5
624
330
9
100
AcDbSymbolTableRecord
100
AcDbBlockTableRecord
  2
*Paper_Space0
340
627
  0
ENDTAB
  0
ENDSEC
  0
SECTION
  2
BLOCKS
  0
BLOCK
  5
18
330
17
100
AcDbEntity
  8
0
100
AcDbBlockBegin
  2
*Model_Space
 70
0
 10
0.0
 20
0.0
 30
0.0
  3
*Model_Space
  1

  0
ENDBLK
  5
19
330
17
100
AcDbEntity
  8
0
100
AcDbBlockEnd
  0
BLOCK
  5
1C
330
1B
100
AcDbEntity
  8
0
100
AcDbBlockBegin
  2
*Paper_Space
 70
0
 10
0.0
 20
0.0
 30
0.0
  3
*Paper_Space
  1

  0
ENDBLK
  5
1D
330
1B
100
AcDbEntity
  8
0
100
AcDbBlockEnd
  0
BLOCK
  5
435
330
434
100
AcDbEntity
  8
0
100
AcDbBlockBegin
  2
*D1
 70
1
 10
0.0
 20
0.0
 30
0.0
  3
*D1
  1

  0
LINE
  5
437
330
434
100
AcDbEntity
  8
0
100
AcDbLine
 10
0.0
 20
0.0
 30
0.0
 11
0.0
 21
-25.0
 31
0.0
  0
LINE
  5
438
330
434
100
AcDbEntity
  8
0
100
AcDbLine
 10
41.5
 20
0.0
 30
0.0
 11
41.5
 21
-25.0
 31
0.0
  0
INSERT
  5
43D
330
434
100
AcDbEntity
  8
DIMENSION
100
AcDbBlockReference
  2
_CLOSEDFILLED
 10
0.0
 20
-25.0
 30
0.0
 41
0.25
 42
0.25
 50
180.0
  0
INSERT
  5
43F
330
434
100
AcDbEntity
  8
DIMENSION
100
AcDbBlockReference
  2
_CLOSEDFILLED
 10
41.5
 20
-25.0
 30
0.0
 41
0.25
 42
0.25
  0
LINE
  5
441
330
434
100
AcDbEntity
  8
0
100
AcDbLine
 10
0.25
 20
-25.0
 30
0.0
 11
18.75
 21
-25.0
 31
0.0
  0
LINE
  5
442
330
434
100
AcDbEntity
  8
0
100
AcDbLine
 10
22.75
 20
-25.0
 30
0.0
 11
41.25
 21
-25.0
 31
0.0
  0
MTEXT
  5
443
330
434
100
AcDbEntity
  8
DIMENSION
100
AcDbMText
 10
20.75
 20
-25.0
 30
0.0
 40
1.0
 71
5
  1
41,5
  0
POINT
  5
444
330
434
100
AcDbEntity
  8
Defpoints
100
AcDbPoint
 10
0.0
 20
-25.0
 30
0.0
  0
POINT
  5
445
330
434
100
AcDbEntity
  8
Defpoints
100
AcDbPoint
 10
0.0
 20
0.0
 30
0.0
  0
POINT
  5
446
330
434
100
AcDbEntity
  8
Defpoints
100
AcDbPoint
 10
41.5
 20
0.0
 30
0.0
  0
ENDBLK
  5
436
330
434
100
AcDbEntity
  8
0
100
AcDbBlockEnd
  0
BLOCK
  5
43A
330
439
100
AcDbEntity
  8
0
100
AcDbBlockBegin
  2
_CLOSEDFILLED
 70
0
 10
0.0
 20
0.0
 30
0.0
  3
_CLOSEDFILLED
  1

  0
SOLID
  5
43C
330
439
100
AcDbEntity
  8
0
  6
BYBLOCK
 62
0
100
AcDbTrace
 10
-1.0
 20
0.16439898372402537
 30
0.0
 11
0.0
 21
0.0
 31
0.0
 12
-1.0
 22
-0.16439898372402537
 32
0.0
 13
-1.0
 23
-0.16439898372402537
 33
0.0
  0
ENDBLK
  5
43B
330
439
100
AcDbEntity
  8
0
100
AcDbBlockEnd
  0
BLOCK
  5
449
330
448
100
AcDbEntity
  8
0
100
AcDbBlockBegin
  2
*D2
 70
1
 10
0.0
 20
0.0
 30
0.0
  3
*D2
  1

  0
LINE
  5
44B
330
448
100
AcDbEntity
  8
0
100
AcDbLine
 10
0.0
 20
0.0
 30
0.0
 11
0.0
 21
-33.0
 31
0.0
  0
LINE
  5
44C
330
448
100
AcDbEntity
  8
0
100
AcDbLine
 10
91.5
 20
0.0
 30
0.0
 11
91.5
 21
-33.0
 31
0.0
  0
INSERT
  5
44D
330
448
100
AcDbEntity
  8
DIMENSION
100
AcDbBlockReference
  2
_CLOSEDFILLED
 10
0.0
 20
-33.0
 30
0.0
 41
0.25
 42
0.25
 50
180.0
  0
INSERT
  5
44F
330
448
100
AcDbEntity
  8
DIMENSION
100
AcDbBlockReference
  2
_CLOSEDFILLED
 10
91.5
 20
-33.0
 30
0.0
 41
0.25
 42
0.25
  0
LINE
  5
451
330
448
100
AcDbEntity
  8
0
100
AcDbLine
 10
0.25
 20
-33.0
 30
0.0
 11
43.75
 21
-33.0
 31
0.0
  0
LINE
  5
452
330
448
100
AcDbEntity
  8
0
100
AcDbLine
 10
47.75
 20
-33.0
 30
0.0
 11
91.25
 21
-33.0
 31
0.0
  0
MTEXT
  5
453
330
448
100
AcDbEntity
  8
DIMENSION
100
AcDbMText
 10
45.75
 20
-33.0
 30
0.0
 40
1.0
 71
5
  1
91,5
  0
POINT
  5
454
330
448
100
AcDbEntity
  8
Defpoints
100
AcDbPoint
 10
0.0
 20
-33.0
 30
0.0
  0
POINT
  5
455
330
448
100
AcDbEntity
  8
Defpoints
100
AcDbPoint
 10
0.0
 20
0.0
 30
0.0
  0
POINT
  5
456
330
448
100
AcDbEntity
  8
Defpoints
100
AcDbPoint
 10
91.5
 20
0.0
 30
0.0
  0
ENDBLK
  5
44A
330
448
100
AcDbEntity
  8
0
100
AcDbBlockEnd
  0
BLOCK
  5
459
330
458
100
AcDbEntity
  8
0
100
AcDbBlockBegin
  2
*D3
 70
1
 10
0.0
 20
0.0
 30
0.0
  3
*D3
  1

  0
LINE
  5
45B
330
458
100
AcDbEntity
  8
0
100
AcDbLine
 10
0.0
 20
0.0
 30
0.0
 11
0.0
 21
-41.0
 31
0.0
  0
LINE
  5
45C
330
458
100
AcDbEntity
  8
0
100
AcDbLine
 10
218.5
 20
0.0
 30
0.0
 11
218.5
 21
-41.0
 31
0.0
  0
INSERT
  5
45D
330
458
100
AcDbEntity
  8
DIMENSION
100
AcDbBlockReference
  2
_CLOSEDFILLED
 10
0.0
 20
-41.0
 30
0.0
 41
0.25
 42
0.25
 50
180.0
  0
INSERT
  5
45F
330
458
100
AcDbEntity
  8
DIMENSION
100
AcDbBlockReference
  2
_CLOSEDFILLED
 10
218.5
 20
-41.0
 30
0.0
 41
0.25
 42
0.25
  0
LINE
  5
461
330
458
100
AcDbEntity
  8
0
100
AcDbLine
 10
0.25
 20
-41.0
 30
0.0
 11
106.75
 21
-41.0
 31
0.0
  0
LINE
  5
462
330
458
100
AcDbEntity
  8
0
100
AcDbLine
 10
111.75
 20
-41.0
 30
0.0
 11
218.25
 21
-41.0
 31
0.0
  0
MTEXT
  5
463
330
458
100
AcDbEntity
  8
DIMENSION
100
AcDbMText
 10
109.25
 20
-41.0
 30
0.0
 40
1.0
 71
5
  1
218,5
  0
POINT
  5
464
330
458
100
AcDbEntity
  8
Defpoints
100
AcDbPoint
 10
0.0
 20
-41.0
 30
0.0
  0
POINT
  5
465
330
458
100
AcDbEntity
  8
Defpoints
100
AcDbPoint
 10
0.0
 20
0.0
 30
0.0
  0
POINT
  5
466
330
458
100
AcDbEntity
  8
Defpoints
100
AcDbPoint
 10
218.5
 20
0.0
 30
0.0
  0
ENDBLK
  5
45A
330
458
100
AcDbEntity
  8
0
100
AcDbBlockEnd
  0
BLOCK
  5
469
330
468
100
AcDbEntity
  8
0
100
AcDbBlockBegin
  2
*D4
 70
1
 10
0.0
 20
0.0
 30
0.0
  3
*D4
  1

  0
LINE
  5
46B
330
468
100
AcDbEntity
  8
0
100
AcDbLine
 10
0.0
 20
0.0
 30
0.0
 11
0.0
 21
-49.0
 31
0.0
  0
LINE
  5
46C
330
468
100
AcDbEntity
  8
0
100
AcDbLine
 10
229.5
 20
0.0
 30
0.0
 11
229.5
 21
-49.0
 31
0.0
  0
INSERT
  5
46D
330
468
100
AcDbEntity
  8
DIMENSION
100
AcDbBlockReference
  2
_CLOSEDFILLED
 10
0.0
 20
-49.0
 30
0.0
 41
0.25
 42
0.25
 50
180.0
  0
INSERT
  5
46F
330
468
100
AcDbEntity
  8
DIMENSION
100
AcDbBlockReference
  2
_CLOSEDFILLED
 10
229.5
 20
-49.0
 30
0.0
 41
0.25
 42
0.25
  0
LINE
  5
471
330
468
100
AcDbEntity
  8
0
100
AcDbLine
 10
0.25
 20
-49.0
 30
0.0
 11
112.25
 21
-49.0
 31
0.0
  0
LINE
  5
472
330
468
100
AcDbEntity
  8
0
100
AcDbLine
 10
117.25
 20
-49.0
 30
0.0
 11
229.25
 21
-49.0
 31
0.0
  0
MTEXT
  5
473
330
468
100
AcDbEntity
  8
DIMENSION
100
AcDbMText
 10
114.75
 20
-49.0
 30
0.0
 40
1.0
 71
5
  1
229,5
  0
POINT
  5
474
330
468
100
AcDbEntity
  8
Defpoints
100
AcDbPoint
 10
0.0
 20
-49.0
 30
0.0
  0
POINT
  5
475
330
468
100
AcDbEntity
  8
Defpoints
100
AcDbPoint
 10
0.0
 20
0.0
 30
0.0
  0
POINT
  5
476
330
468
100
AcDbEntity
  8
Defpoints
100
AcDbPoint
 10
229.5
 20
0.0
 30
0.0
  0
ENDBLK
  5
46A
330
468
100
AcDbEntity
  8
0
100
AcDbBlockEnd
  0
BLOCK
  5
479
330
478
100
AcDbEntity
  8
0
100
AcDbBlockBegin
  2
*D5
 70
1
 10
0.0
 20
0.0
 30
0.0
  3
*D5
  1

  0
LINE
  5
47B
330
478
100
AcDbEntity
  8
0
100
AcDbLine
 10
0.0
 20
0.0
 30
0.0
 11
0.0
 21
-57.0
 31
0.0
  0
LINE
  5
47C
330
478
100
AcDbEntity
  8
0
100
AcDbLine
 10
367.5
 20
0.0
 30
0.0
 11
367.5
 21
-57.0
 31
0.0
  0
INSERT
  5
47D
330
478
100
AcDbEntity
  8
DIMENSION
100
AcDbBlockReference
  2
_CLOSEDFILLED
 10
0.0
 20
-57.0
 30
0.0
 41
0.25
 42
0.25
 50
180.0
  0
INSERT
  5
47F
330
478
100
AcDbEntity
  8
DIMENSION
100
AcDbBlockReference
  2
_CLOSEDFILLED
 10
367.5
 20
-57.0
 30
0.0
 41
0.25
 42
0.25
  0
LINE
  5
481
330
478
100
AcDbEntity
  8
0
100
AcDbLine
 10
0.25
 20
-57.0
 30
0.0
 11
181.25
 21
-57.0
 31
0.0
  0
LINE
  5
482
330
478
100
AcDbEntity
  8
0
100
AcDbLine
 10
186.25000000000003
 20
-57.0
 30
0.0
 11
367.25
 21
-57.0
 31
0.0
  0
MTEXT
  5
483
330
478
100
AcDbEntity
  8
DIMENSION
100
AcDbMText
 10
183.75
 20
-57.0
 30
0.0
 40
1.0
 71
5
  1
367,5
  0
POINT
  5
484
330
478
100
AcDbEntity
  8
Defpoints
100
AcDbPoint
 10
0.0
 20
-57.0
 30
0.0
  0
POINT
  5
485
330
478
100
AcDbEntity
  8
Defpoints
100
AcDbPoint
 10
0.0
 20
0.0
 30
0.0
  0
POINT
  5
486
330
478
100
AcDbEntity
  8
Defpoints
100
AcDbPoint
 10
367.5
 20
0.0
 30
0.0
  0
ENDBLK
  5
47A
330
478
100
AcDbEntity
  8
0
100
AcDbBlockEnd
  0
BLOCK
  5
489
330
488
100
AcDbEntity
  8
0
100
AcDbBlockBegin
  2
*D6
 70
1
 10
0.0
 20
0.0
 30
0.0
  3
*D6
  1

  0
LINE
  5
48B
330
488
100
AcDbEntity
  8
0
100
AcDbLine
 10
0.0
 20
0.0
 30
0.0
 11
0.0
 21
-65.0
 31
0.0
  0
LINE
  5
48C
330
488
100
AcDbEntity
  8
0
100
AcDbLine
 10
378.5
 20
0.0
 30
0.0
 11
378.5
 21
-65.0
 31
0.0
  0
INSERT
  5
48D
330
488
100
AcDbEntity
  8
DIMENSION
100
AcDbBlockReference
  2
_CLOSEDFILLED
 10
0.0
 20
-65.0
 30
0.0
 41
0.25
 42
0.25
 50
180.0
  0
INSERT
  5
48F
330
488
100
AcDbEntity
  8
DIMENSION
100
AcDbBlockReference
  2
_CLOSEDFILLED
 10
378.5
 20
-65.0
 30
0.0
 41
0.25
 42
0.25
  0
LINE
  5
491
330
488
100
AcDbEntity
  8
0
100
AcDbLine
 10
0.25
 20
-65.0
 30
0.0
 11
186.75
 21
-65.0
 31
0.0
  0
LINE
  5
492
330
488
100
AcDbEntity
  8
0
100
AcDbLine
 10
191.75
 20
-65.0
 30
0.0
 11
378.25
 21
-65.0
 31
0.0
  0
MTEXT
  5
493
330
488
100
AcDbEntity
  8
DIMENSION
100
AcDbMText
 10
189.25
 20
-65.0
 30
0.0
 40
1.0
 71
5
  1
378,5
  0
POINT
  5
494
330
488
100
AcDbEntity
  8
Defpoints
100
AcDbPoint
 10
0.0
 20
-65.0
 30
0.0
  0
POINT
  5
495
330
488
100
AcDbEntity
  8
Defpoints
100
AcDbPoint
 10
0.0
 20
0.0
 30
0.0
  0
POINT
  5
496
330
488
100
AcDbEntity
  8
Defpoints
100
AcDbPoint
 10
378.5
 20
0.0
 30
0.0
  0
ENDBLK
  5
48A
330
488
100
AcDbEntity
  8
0
100
AcDbBlockEnd
  0
BLOCK
  5
499
330
498
100
AcDbEntity
  8
0
100
AcDbBlockBegin
  2
*D7
 70
1
 10
0.0
 20
0.0
 30
0.0
  3
*D7
  1

  0
LINE
  5
49B
330
498
100
AcDbEntity
  8
0
100
AcDbLine
 10
0.0
 20
0.0
 30
0.0
 11
0.0
 21
-73.0
 31
0.0
  0
LINE
  5
49C
330
498
100
AcDbEntity
  8
0
100
AcDbLine
 10
505.5
 20
0.0
 30
0.0
 11
505.5
 21
-73.0
 31
0.0
  0
INSERT
  5
49D
330
498
100
AcDbEntity
  8
DIMENSION
100
AcDbBlockReference
  2
_CLOSEDFILLED
 10
0.0
 20
-73.0
 30
0.0
 41
0.25
 42
0.25
 50
180.0
  0
INSERT
  5
49F
330
498
100
AcDbEntity
  8
DIMENSION
100
AcDbBlockReference
  2
_CLOSEDFILLED
 10
505.5
 20
-73.0
 30
0.0
 41
0.25
 42
0.25
  0
LINE
  5
4A1
330
498
100
AcDbEntity
  8
0
100
AcDbLine
 10
0.25
 20
-73.0
 30
0.0
 11
250.25
 21
-73.0
 31
0.0
  0
LINE
  5
4A2
330
498
100
AcDbEntity
  8
0
100
AcDbLine
 10
255.25
 20
-73.0
 30
0.0
 11
505.25
 21
-73.0
 31
0.0
  0
MTEXT
  5
4A3
330
498
100
AcDbEntity
  8
DIMENSION
100
AcDbMText
 10
252.75
 20
-73.0
 30
0.0
 40
1.0
 71
5
  1
505,5
  0
POINT
  5
4A4
330
498
100
AcDbEntity
  8
Defpoints
100
AcDbPoint
 10
0.0
 20
-73.0
 30
0.0
  0
POINT
  5
4A5
330
498
100
AcDbEntity
  8
Defpoints
100
AcDbPoint
 10
0.0
 20
0.0
 30
0.0
  0
POINT
  5
4A6
330
498
100
AcDbEntity
  8
Defpoints
100
AcDbPoint
 10
505.5
 20
0.0
 30
0.0
  0
ENDBLK
  5
49A
330
498
100
AcDbEntity
  8
0
100
AcDbBlockEnd
  0
BLOCK
  5
4A9
330
4A8
100
AcDbEntity
  8
0
100
AcDbBlockBegin
  2
*D8
 70
1
 10
0.0
 20
0.0
 30
0.0
  3
*D8
  1

  0
LINE
  5
4AB
330
4A8
100
AcDbEntity
  8
0
100
AcDbLine
 10
0.0
 20
0.0
 30
0.0
 11
0.0
 21
-81.0
 31
0.0
  0
LINE
  5
4AC
330
4A8
100
AcDbEntity
  8
0
100
AcDbLine
 10
555.5
 20
0.0
 30
0.0
 11
555.5
 21
-81.0
 31
0.0
  0
INSERT
  5
4AD
330
4A8
100
AcDbEntity
  8
DIMENSION
100
AcDbBlockReference
  2
_CLOSEDFILLED
 10
0.0
 20
-81.0
 30
0.0
 41
0.25
 42
0.25
 50
180.0
  0
INSERT
  5
4AF
330
4A8
100
AcDbEntity
  8
DIMENSION
100
AcDbBlockReference
  2
_CLOSEDFILLED
 10
555.5
 20
-81.0
 30
0.0
 41
0.25
 42
0.25
  0
LINE
  5
4B1
330
4A8
100
AcDbEntity
  8
0
100
AcDbLine
 10
0.25
 20
-81.0
 30
0.0
 11
275.25
 21
-81.0
 31
0.0
  0
LINE
  5
4B2
330
4A8
100
AcDbEntity
  8
0
100
AcDbLine
 10
280.25
 20
-81.0
 30
0.0
 11
555.25
 21
-81.0
 31
0.0
  0
MTEXT
  5
4B3
330
4A8
100
AcDbEntity
  8
DIMENSION
100
AcDbMText
 10
277.75
 20
-81.0
 30
0.0
 40
1.0
 71
5
  1
555,5
  0
POINT
  5
4B4
330
4A8
100
AcDbEntity
  8
Defpoints
100
AcDbPoint
 10
0.0
 20
-81.0
 30
0.0
  0
POINT
  5
4B5
330
4A8
100
AcDbEntity
  8
Defpoints
100
AcDbPoint
 10
0.0
 20
0.0
 30
0.0
  0
POINT
  5
4B6
330
4A8
100
AcDbEntity
  8
Defpoints
100
AcDbPoint
 10
555.5
 20
0.0
 30
0.0
  0
ENDBLK
  5
4AA
330
4A8
100
AcDbEntity
  8
0
100
AcDbBlockEnd
  0
BLOCK
  5
4B9
330
4B8
100
AcDbEntity
  8
0
100
AcDbBlockBegin
  2
*D9
 70
1
 10
0.0
 20
0.0
 30
0.0
  3
*D9
  1

  0
LINE
  5
4BB
330
4B8
100
AcDbEntity
  8
0
100
AcDbLine
 10
0.0
 20
0.0
 30
0.0
 11
0.0
 21
-89.0
 31
0.0
  0
LINE
  5
4BC
330
4B8
100
AcDbEntity
  8
0
100
AcDbLine
 10
597.0
 20
0.0
 30
0.0
 11
597.0
 21
-89.0
 31
0.0
  0
INSERT
  5
4BD
330
4B8
100
AcDbEntity
  8
DIMENSION
100
AcDbBlockReference
  2
_CLOSEDFILLED
 10
0.0
 20
-89.0
 30
0.0
 41
0.25
 42
0.25
 50
180.0
  0
INSERT
  5
4BF
330
4B8
100
AcDbEntity
  8
DIMENSION
100
AcDbBlockReference
  2
_CLOSEDFILLED
 10
597.0
 20
-89.0
 30
0.0
 41
0.25
 42
0.25
  0
LINE
  5
4C1
330
4B8
100
AcDbEntity
  8
0
100
AcDbLine
 10
0.25
 20
-89.0
 30
0.0
 11
297.0
 21
-89.0
 31
0.0
  0
LINE
  5
4C2
330
4B8
100
AcDbEntity
  8
0
100
AcDbLine
 10
299.99999999999994
 20
-89.0
 30
0.0
 11
596.75
 21
-89.0
 31
0.0
  0
MTEXT
  5
4C3
330
4B8
100
AcDbEntity
  8
DIMENSION
100
AcDbMText
 10
298.5
 20
-89.0
 30
0.0
 40
1.0
 71
5
  1
597
  0
POINT
  5
4C4
330
4B8
100
AcDbEntity
  8
Defpoints
100
AcDbPoint
 10
0.0
 20
-89.0
 30
0.0
  0
POINT
  5
4C5
330
4B8
100
AcDbEntity
  8
Defpoints
100
AcDbPoint
 10
0.0
 20
0.0
 30
0.0
  0
POINT
  5
4C6
330
4B8
100
AcDbEntity
  8
Defpoints
100
AcDbPoint
 10
597.0
 20
0.0
 30
0.0
  0
ENDBLK
  5
4BA
330
4B8
100
AcDbEntity
  8
0
100
AcDbBlockEnd
  0
BLOCK
  5
4C9
330
4C8
100
AcDbEntity
  8
0
100
AcDbBlockBegin
  2
*D10
 70
1
 10
0.0
 20
0.0
 30
0.0
  3
*D10
  1

  0
LINE
  5
4CB
330
4C8
100
AcDbEntity
  8
0
100
AcDbLine
 10
597.0
 20
207.0
 30
0.0
 11
597.0
 21
232.0
 31
0.0
  0
LINE
  5
4CC
330
4C8
100
AcDbEntity
  8
0
100
AcDbLine
 10
555.5
 20
207.0
 30
0.0
 11
555.5
 21
232.0
 31
0.0
  0
INSERT
  5
4CD
330
4C8
100
AcDbEntity
  8
DIMENSION
100
AcDbBlockReference
  2
_CLOSEDFILLED
 10
597.0
 20
232.0
 30
0.0
 41
0.25
 42
0.25
 50
180.0
  0
INSERT
  5
4CF
330
4C8
100
AcDbEntity
  8
DIMENSION
100
AcDbBlockReference
  2
_CLOSEDFILLED
 10
555.5
 20
232.0
 30
0.0
 41
0.25
 42
0.25
  0
LINE
  5
4D1
330
4C8
100
AcDbEntity
  8
0
100
AcDbLine
 10
597.25
 20
232.0
 30
0.0
 11
578.25
 21
232.0
 31
0.0
  0
LINE
  5
4D2
330
4C8
100
AcDbEntity
  8
0
100
AcDbLine
 10
574.25
 20
232.0
 30
0.0
 11
555.25
 21
232.0
 31
0.0
  0
MTEXT
  5
4D3
330
4C8
100
AcDbEntity
  8
DIMENSION
100
AcDbMText
 10
576.25
 20
232.0
 30
0.0
 40
1.0
 71
5
  1
41,5
  0
POINT
  5
4D4
330
4C8
100
AcDbEntity
  8
Defpoints
100
AcDbPoint
 10
597.0
 20
232.0
 30
0.0
  0
POINT
  5
4D5
330
4C8
100
AcDbEntity
  8
Defpoints
100
AcDbPoint
 10
597.0
 20
207.0
 30
0.0
  0
POINT
  5
4D6
330
4C8
100
AcDbEntity
  8
Defpoints
100
AcDbPoint
 10
555.5
 20
207.0
 30
0.0
  0
ENDBLK
  5
4CA
330
4C8
100
AcDbEntity
  8
0
100
AcDbBlockEnd
  0
BLOCK
  5
4D9
330
4D8
100
AcDbEntity
  8
0
100
AcDbBlockBegin
  2
*D11
 70
1
 10
0.0
 20
0.0
 30
0.0
  3
*D11
  1

  0
LINE
  5
4DB
330
4D8
100
AcDbEntity
  8
0
100
AcDbLine
 10
597.0
 20
207.0
 30
0.0
 11
597.0
 21
240.0
 31
0.0
  0
LINE
  5
4DC
330
4D8
100
AcDbEntity
  8
0
100
AcDbLine
 10
505.5
 20
207.0
 30
0.0
 11
505.5
 21
240.0
 31
0.0
  0
INSERT
  5
4DD
330
4D8
100
AcDbEntity
  8
DIMENSION
100
AcDbBlockReference
  2
_CLOSEDFILLED
 10
597.0
 20
240.0
 30
0.0
 41
0.25
 42
0.25
 50
180.0
  0
INSERT
  5
4DF
330
4D8
100
AcDbEntity
  8
DIMENSION
100
AcDbBlockReference
  2
_CLOSEDFILLED
 10
505.5
 20
240.0
 30
0.0
 41
0.25
 42
0.25
  0
LINE
  5
4E1
330
4D8
100
AcDbEntity
  8
0
100
AcDbLine
 10
597.25
 20
240.0
 30
0.0
 11
553.25
 21
240.0
 31
0.0
  0
LINE
  5
4E2
330
4D8
100
AcDbEntity
  8
0
100
AcDbLine
 10
549.25
 20
240.0
 30
0.0
 11
505.25
 21
240.0
 31
0.0
  0
MTEXT
  5
4E3
330
4D8
100
AcDbEntity
  8
DIMENSION
100
AcDbMText
 10
551.25
 20
240.0
 30
0.0
 40
1.0
 71
5
  1
91,5
  0
POINT
  5
4E4
330
4D8
100
AcDbEntity
  8
Defpoints
100
AcDbPoint
 10
597.0
 20
240.0
 30
0.0
  0
POINT
  5
4E5
330
4D8
100
AcDbEntity
  8
Defpoints
100
AcDbPoint
 10
597.0
 20
207.0
 30
0.0
  0
POINT
  5
4E6
330
4D8
100
AcDbEntity
  8
Defpoints
100
AcDbPoint
 10
505.5
 20
207.0
 30
0.0
  0
ENDBLK
  5
4DA
330
4D8
100
AcDbEntity
  8
0
100
AcDbBlockEnd
  0
BLOCK
  5
4E9
330
4E8
100
AcDbEntity
  8
0
100
AcDbBlockBegin
  2
*D12
 70
1
 10
0.0
 20
0.0
 30
0.0
  3
*D12
  1

  0
LINE
  5
4EB
330
4E8
100
AcDbEntity
  8
0
100
AcDbLine
 10
597.0
 20
207.0
 30
0.0
 11
597.0
 21
248.0
 31
0.0
  0
LINE
  5
4EC
330
4E8
100
AcDbEntity
  8
0
100
AcDbLine
 10
378.5
 20
207.0
 30
0.0
 11
378.5
 21
248.0
 31
0.0
  0
INSERT
  5
4ED
330
4E8
100
AcDbEntity
  8
DIMENSION
100
AcDbBlockReference
  2
_CLOSEDFILLED
 10
597.0
 20
248.0
 30
0.0
 41
0.25
 42
0.25
 50
180.0
  0
INSERT
  5
4EF
330
4E8
100
AcDbEntity
  8
DIMENSION
100
AcDbBlockReference
  2
_CLOSEDFILLED
 10
378.5
 20
248.0
 30
0.0
 41
0.25
 42
0.25
  0
LINE
  5
4F1
330
4E8
100
AcDbEntity
  8
0
100
AcDbLine
 10
597.25
 20
248.0
 30
0.0
 11
490.25
 21
248.0
 31
0.0
  0
LINE
  5
4F2
330
4E8
100
AcDbEntity
  8
0
100
AcDbLine
 10
485.25
 20
248.0
 30
0.0
 11
378.25
 21
248.0
 31
0.0
  0
MTEXT
  5
4F3
330
4E8
100
AcDbEntity
  8
DIMENSION
100
AcDbMText
 10
487.75
 20
248.0
 30
0.0
 40
1.0
 71
5
  1
218,5
  0
POINT
  5
4F4
330
4E8
100
AcDbEntity
  8
Defpoints
100
AcDbPoint
 10
597.0
 20
248.0
 30
0.0
  0
POINT
  5
4F5
330
4E8
100
AcDbEntity
  8
Defpoints
100
AcDbPoint
 10
597.0
 20
207.0
 30
0.0
  0
POINT
  5
4F6
330
4E8
100
AcDbEntity
  8
Defpoints
100
AcDbPoint
 10
378.5
 20
207.0
 30
0.0
  0
ENDBLK
  5
4EA
330
4E8
100
AcDbEntity
  8
0
100
AcDbBlockEnd
  0
BLOCK
  5
4F9
330
4F8
100
AcDbEntity
  8
0
100
AcDbBlockBegin
  2
*D13
 70
1
 10
0.0
 20
0.0
 30
0.0
  3
*D13
  1

  0
LINE
  5
4FB
330
4F8
100
AcDbEntity
  8
0
100
AcDbLine
 10
597.0
 20
207.0
 30
0.0
 11
597.0
 21
256.0
 31
0.0
  0
LINE
  5
4FC
330
4F8
100
AcDbEntity
  8
0
100
AcDbLine
 10
367.5
 20
207.0
 30
0.0
 11
367.5
 21
256.0
 31
0.0
  0
INSERT
  5
4FD
330
4F8
100
AcDbEntity
  8
DIMENSION
100
AcDbBlockReference
  2
_CLOSEDFILLED
 10
597.0
 20
256.0
 30
0.0
 41
0.25
 42
0.25
 50
180.0
  0
INSERT
  5
4FF
330
4F8
100
AcDbEntity
  8
DIMENSION
100
AcDbBlockReference
  2
_CLOSEDFILLED
 10
367.5
 20
256.0
 30
0.0
 41
0.25
 42
0.25
  0
LINE
  5
501
330
4F8
100
AcDbEntity
  8
0
100
AcDbLine
 10
597.25
 20
256.0
 30
0.0
 11
484.75
 21
256.0
 31
0.0
  0
LINE
  5
502
330
4F8
100
AcDbEntity
  8
0
100
AcDbLine
 10
479.75
 20
256.0
 30
0.0
 11
367.25
 21
256.0
 31
0.0
  0
MTEXT
  5
503
330
4F8
100
AcDbEntity
  8
DIMENSION
100
AcDbMText
 10
482.25
 20
256.0
 30
0.0
 40
1.0
 71
5
  1
229,5
  0
POINT
  5
504
330
4F8
100
AcDbEntity
  8
Defpoints
100
AcDbPoint
 10
597.0
 20
256.0
 30
0.0
  0
POINT
  5
505
330
4F8
100
AcDbEntity
  8
Defpoints
100
AcDbPoint
 10
597.0
 20
207.0
 30
0.0
  0
POINT
  5
506
330
4F8
100
AcDbEntity
  8
Defpoints
100
AcDbPoint
 10
367.5
 20
207.0
 30
0.0
  0
ENDBLK
  5
4FA
330
4F8
100
AcDbEntity
  8
0
100
AcDbBlockEnd
  0
BLOCK
  5
509
330
508
100
AcDbEntity
  8
0
100
AcDbBlockBegin
  2
*D14
 70
1
 10
0.0
 20
0.0
 30
0.0
  3
*D14
  1

  0
LINE
  5
50B
330
508
100
AcDbEntity
  8
0
100
AcDbLine
 10
597.0
 20
207.0
 30
0.0
 11
597.0
 21
264.0
 31
0.0
  0
LINE
  5
50C
330
508
100
AcDbEntity
  8
0
100
AcDbLine
 10
229.5
 20
207.0
 30
0.0
 11
229.5
 21
264.0
 31
0.0
  0
INSERT
  5
50D
330
508
100
AcDbEntity
  8
DIMENSION
100
AcDbBlockReference
  2
_CLOSEDFILLED
 10
597.0
 20
264.0
 30
0.0
 41
0.25
 42
0.25
 50
180.0
  0
INSERT
  5
50F
330
508
100
AcDbEntity
  8
DIMENSION
100
AcDbBlockReference
  2
_CLOSEDFILLED
 10
229.5
 20
264.0
 30
0.0
 41
0.25
 42
0.25
  0
LINE
  5
511
330
508
100
AcDbEntity
  8
0
100
AcDbLine
 10
597.25
 20
264.0
 30
0.0
 11
415.75
 21
264.0
 31
0.0
  0
LINE
  5
512
330
508
100
AcDbEntity
  8
0
100
AcDbLine
 10
410.75
 20
264.0
 30
0.0
 11
229.25
 21
264.0
 31
0.0
  0
MTEXT
  5
513
330
508
100
AcDbEntity
  8
DIMENSION
100
AcDbMText
 10
413.25
 20
264.0
 30
0.0
 40
1.0
 71
5
  1
367,5
  0
POINT
  5
514
330
508
100
AcDbEntity
  8
Defpoints
100
AcDbPoint
 10
597.0
 20
264.0
 30
0.0
  0
POINT
  5
515
330
508
100
AcDbEntity
  8
Defpoints
100
AcDbPoint
 10
597.0
 20
207.0
 30
0.0
  0
POINT
  5
516
330
508
100
AcDbEntity
  8
Defpoints
100
AcDbPoint
 10
229.5
 20
207.0
 30
0.0
  0
ENDBLK
  5
50A
330
508
100
AcDbEntity
  8
0
100
AcDbBlockEnd
  0
BLOCK
  5
519
330
518
100
AcDbEntity
  8
0
100
AcDbBlockBegin
  2
*D15
 70
1
 10
0.0
 20
0.0
 30
0.0
  3
*D15
  1

  0
LINE
  5
51B
330
518
100
AcDbEntity
  8
0
100
AcDbLine
 10
597.0
 20
207.0
 30
0.0
 11
597.0
 21
272.0
 31
0.0
  0
LINE
  5
51C
330
518
100
AcDbEntity
  8
0
100
AcDbLine
 10
218.5
 20
207.0
 30
0.0
 11
218.5
 21
272.0
 31
0.0
  0
INSERT
  5
51D
330
518
100
AcDbEntity
  8
DIMENSION
100
AcDbBlockReference
  2
_CLOSEDFILLED
 10
597.0
 20
272.0
 30
0.0
 41
0.25
 42
0.25
 50
180.0
  0
INSERT
  5
51F
330
518
100
AcDbEntity
  8
DIMENSION
100
AcDbBlockReference
  2
_CLOSEDFILLED
 10
218.5
 20
272.0
 30
0.0
 41
0.25
 42
0.25
  0
LINE
  5
521
330
518
100
AcDbEntity
  8
0
100
AcDbLine
 10
597.25
 20
272.0
 30
0.0
 11
410.25
 21
272.0
 31
0.0
  0
LINE
  5
522
330
518
100
AcDbEntity
  8
0
100
AcDbLine
 10
405.25
 20
272.0
 30
0.0
 11
218.25
 21
272.0
 31
0.0
  0
MTEXT
  5
523
330
518
100
AcDbEntity
  8
DIMENSION
100
AcDbMText
 10
407.75
 20
272.0
 30
0.0
 40
1.0
 71
5
  1
378,5
  0
POINT
  5
524
330
518
100
AcDbEntity
  8
Defpoints
100
AcDbPoint
 10
597.0
 20
272.0
 30
0.0
  0
POINT
  5
525
330
518
100
AcDbEntity
  8
Defpoints
100
AcDbPoint
 10
597.0
 20
207.0
 30
0.0
  0
POINT
  5
526
330
518
100
AcDbEntity
  8
Defpoints
100
AcDbPoint
 10
218.5
 20
207.0
 30
0.0
  0
ENDBLK
  5
51A
330
518
100
AcDbEntity
  8
0
100
AcDbBlockEnd
  0
BLOCK
  5
529
330
528
100
AcDbEntity
  8
0
100
AcDbBlockBegin
  2
*D16
 70
1
 10
0.0
 20
0.0
 30
0.0
  3
*D16
  1

  0
LINE
  5
52B
330
528
100
AcDbEntity
  8
0
100
AcDbLine
 10
597.0
 20
207.0
 30
0.0
 11
597.0
 21
280.0
 31
0.0
  0
LINE
  5
52C
330
528
100
AcDbEntity
  8
0
100
AcDbLine
 10
91.5
 20
207.0
 30
0.0
 11
91.5
 21
280.0
 31
0.0
  0
INSERT
  5
52D
330
528
100
AcDbEntity
  8
DIMENSION
100
AcDbBlockReference
  2
_CLOSEDFILLED
 10
597.0
 20
280.0
 30
0.0
 41
0.25
 42
0.25
 50
180.0
  0
INSERT
  5
52F
330
528
100
AcDbEntity
  8
DIMENSION
100
AcDbBlockReference
  2
_CLOSEDFILLED
 10
91.5
 20
280.0
 30
0.0
 41
0.25
 42
0.25
  0
LINE
  5
531
330
528
100
AcDbEntity
  8
0
100
AcDbLine
 10
597.25
 20
280.0
 30
0.0
 11
346.75
 21
280.0
 31
0.0
  0
LINE
  5
532
330
528
100
AcDbEntity
  8
0
100
AcDbLine
 10
341.75
 20
280.0
 30
0.0
 11
91.25
 21
280.0
 31
0.0
  0
MTEXT
  5
533
330
528
100
AcDbEntity
  8
DIMENSION
100
AcDbMText
 10
344.25
 20
280.0
 30
0.0
 40
1.0
 71
5
  1
505,5
  0
POINT
  5
534
330
528
100
AcDbEntity
  8
Defpoints
100
AcDbPoint
 10
597.0
 20
280.0
 30
0.0
  0
POINT
  5
535
330
528
100
AcDbEntity
  8
Defpoints
100
AcDbPoint
 10
597.0
 20
207.0
 30
0.0
  0
POINT
  5
536
330
528
100
AcDbEntity
  8
Defpoints
100
AcDbPoint
 10
91.5
 20
207.0
 30
0.0
  0
ENDBLK
  5
52A
330
528
100
AcDbEntity
  8
0
100
AcDbBlockEnd
  0
BLOCK
  5
539
330
538
100
AcDbEntity
  8
0
100
AcDbBlockBegin
  2
*D17
 70
1
 10
0.0
 20
0.0
 30
0.0
  3
*D17
  1

  0
LINE
  5
53B
330
538
100
AcDbEntity
  8
0
100
AcDbLine
 10
597.0
 20
207.0
 30
0.0
 11
597.0
 21
288.0
 31
0.0
  0
LINE
  5
53C
330
538
100
AcDbEntity
  8
0
100
AcDbLine
 10
41.5
 20
207.0
 30
0.0
 11
41.5
 21
288.0
 31
0.0
  0
INSERT
  5
53D
330
538
100
AcDbEntity
  8
DIMENSION
100
AcDbBlockReference
  2
_CLOSEDFILLED
 10
597.0
 20
288.0
 30
0.0
 41
0.25
 42
0.25
 50
180.0
  0
INSERT
  5
53F
330
538
100
AcDbEntity
  8
DIMENSION
100
AcDbBlockReference
  2
_CLOSEDFILLED
 10
41.5
 20
288.0
 30
0.0
 41
0.25
 42
0.25
  0
LINE
  5
541
330
538
100
AcDbEntity
  8
0
100
AcDbLine
 10
597.25
 20
288.0
 30
0.0
 11
321.75
 21
288.0
 31
0.0
  0
LINE
  5
542
330
538
100
AcDbEntity
  8
0
100
AcDbLine
 10
316.75
 20
288.0
 30
0.0
 11
41.25
 21
288.0
 31
0.0
  0
MTEXT
  5
543
330
538
100
AcDbEntity
  8
DIMENSION
100
AcDbMText
 10
319.25
 20
288.0
 30
0.0
 40
1.0
 71
5
  1
555,5
  0
POINT
  5
544
330
538
100
AcDbEntity
  8
Defpoints
100
AcDbPoint
 10
597.0
 20
288.0
 30
0.0
  0
POINT
  5
545
330
538
100
AcDbEntity
  8
Defpoints
100
AcDbPoint
 10
597.0
 20
207.0
 30
0.0
  0
POINT
  5
546
330
538
100
AcDbEntity
  8
Defpoints
100
AcDbPoint
 10
41.5
 20
207.0
 30
0.0
  0
ENDBLK
  5
53A
330
538
100
AcDbEntity
  8
0
100
AcDbBlockEnd
  0
BLOCK
  5
549
330
548
100
AcDbEntity
  8
0
100
AcDbBlockBegin
  2
*D18
 70
1
 10
0.0
 20
0.0
 30
0.0
  3
*D18
  1

  0
LINE
  5
54B
330
548
100
AcDbEntity
  8
0
100
AcDbLine
 10
0.0
 20
0.0
 30
0.0
 11
-25.0
 21
0.0
 31
0.0
  0
LINE
  5
54C
330
548
100
AcDbEntity
  8
0
100
AcDbLine
 10
0.0
 20
6.0
 30
0.0
 11
-25.0
 21
6.0
 31
0.0
  0
INSERT
  5
54D
330
548
100
AcDbEntity
  8
DIMENSION
100
AcDbBlockReference
  2
_CLOSEDFILLED
 10
-25.0
 20
0.0
 30
0.0
 41
0.25
 42
0.25
 50
270.0
  0
INSERT
  5
54F
330
548
100
AcDbEntity
  8
DIMENSION
100
AcDbBlockReference
  2
_CLOSEDFILLED
 10
-25.0
 20
6.0
 30
0.0
 41
0.25
 42
0.25
 50
90.0
  0
LINE
  5
551
330
548
100
AcDbEntity
  8
0
100
AcDbLine
 10
-25.0
 20
0.25
 30
0.0
 11
-25.0
 21
2.5
 31
0.0
  0
LINE
  5
552
330
548
100
AcDbEntity
  8
0
100
AcDbLine
 10
-25.0
 20
3.5
 30
0.0
 11
-25.0
 21
5.75
 31
0.0
  0
MTEXT
  5
553
330
548
100
AcDbEntity
  8
DIMENSION
100
AcDbMText
 10
-25.0
 20
3.0
 30
0.0
 40
1.0
 71
5
  1
6
 50
90.0
  0
POINT
  5
554
330
548
100
AcDbEntity
  8
Defpoints
100
AcDbPoint
 10
-25.0
 20
0.0
 30
0.0
  0
POINT
  5
555
330
548
100
AcDbEntity
  8
Defpoints
100
AcDbPoint
 10
0.0
 20
0.0
 30
0.0
  0
POINT
  5
556
330
548
100
AcDbEntity
  8
Defpoints
100
AcDbPoint
 10
0.0
 20
6.0
 30
0.0
  0
ENDBLK
  5
54A
330
548
100
AcDbEntity
  8
0
100
AcDbBlockEnd
  0
BLOCK
  5
559
330
558
100
AcDbEntity
  8
0
100
AcDbBlockBegin
  2
*D19
 70
1
 10
0.0
 20
0.0
 30
0.0
  3
*D19
  1

  0
LINE
  5
55B
330
558
100
AcDbEntity
  8
0
100
AcDbLine
 10
0.0
 20
0.0
 30
0.0
 11
-33.0
 21
0.0
 31
0.0
  0
LINE
  5
55C
330
558
100
AcDbEntity
  8
0
100
AcDbLine
 10
0.0
 20
50.0
 30
0.0
 11
-33.0
 21
50.0
 31
0.0
  0
INSERT
  5
55D
330
558
100
AcDbEntity
  8
DIMENSION
100
AcDbBlockReference
  2
_CLOSEDFILLED
 10
-33.0
 20
0.0
 30
0.0
 41
0.25
 42
0.25
 50
270.0
  0
INSERT
  5
55F
330
558
100
AcDbEntity
  8
DIMENSION
100
AcDbBlockReference
  2
_CLOSEDFILLED
 10
-33.0
 20
50.0
 30
0.0
 41
0.25
 42
0.25
 50
90.0
  0
LINE
  5
561
330
558
100
AcDbEntity
  8
0
100
AcDbLine
 10
-33.0
 20
0.25
 30
0.0
 11
-33.0
 21
24.0
 31
0.0
  0
LINE
  5
562
330
558
100
AcDbEntity
  8
0
100
AcDbLine
 10
-33.0
 20
26.0
 30
0.0
 11
-33.0
 21
49.75
 31
0.0
  0
MTEXT
  5
563
330
558
100
AcDbEntity
  8
DIMENSION
100
AcDbMText
 10
-33.0
 20
25.0
 30
0.0
 40
1.0
 71
5
  1
50
 50
90.0
  0
POINT
  5
564
330
558
100
AcDbEntity
  8
Defpoints
100
AcDbPoint
 10
-33.0
 20
0.0
 30
0.0
  0
POINT
  5
565
330
558
100
AcDbEntity
  8
Defpoints
100
AcDbPoint
 10
0.0
 20
0.0
 30
0.0
  0
POINT
  5
566
330
558
100
AcDbEntity
  8
Defpoints
100
AcDbPoint
 10
0.0
 20
50.0
 30
0.0
  0
ENDBLK
  5
55A
330
558
100
AcDbEntity
  8
0
100
AcDbBlockEnd
  0
BLOCK
  5
569
330
568
100
AcDbEntity
  8
0
100
AcDbBlockBegin
  2
*D20
 70
1
 10
0.0
 20
0.0
 30
0.0
  3
*D20
  1

  0
LINE
  5
56B
330
568
100
AcDbEntity
  8
0
100
AcDbLine
 10
0.0
 20
0.0
 30
0.0
 11
-41.0
 21
0.0
 31
0.0
  0
LINE
  5
56C
330
568
100
AcDbEntity
  8
0
100
AcDbLine
 10
0.0
 20
103.0
 30
0.0
 11
-41.0
 21
103.0
 31
0.0
  0
INSERT
  5
56D
330
568
100
AcDbEntity
  8
DIMENSION
100
AcDbBlockReference
  2
_CLOSEDFILLED
 10
-41.0
 20
0.0
 30
0.0
 41
0.25
 42
0.25
 50
270.0
  0
INSERT
  5
56F
330
568
100
AcDbEntity
  8
DIMENSION
100
AcDbBlockReference
  2
_CLOSEDFILLED
 10
-41.0
 20
103.0
 30
0.0
 41
0.25
 42
0.25
 50
90.0
  0
LINE
  5
571
330
568
100
AcDbEntity
  8
0
100
AcDbLine
 10
-41.0
 20
0.25
 30
0.0
 11
-41.0
 21
50.0
 31
0.0
  0
LINE
  5
572
330
568
100
AcDbEntity
  8
0
100
AcDbLine
 10
-41.0
 20
53.0
 30
0.0
 11
-41.0
 21
102.75
 31
0.0
  0
MTEXT
  5
573
330
568
100
AcDbEntity
  8
DIMENSION
100
AcDbMText
 10
-41.0
 20
51.5
 30
0.0
 40
1.0
 71
5
  1
103
 50
90.0
  0
POINT
  5
574
330
568
100
AcDbEntity
  8
Defpoints
100
AcDbPoint
 10
-41.0
 20
0.0
 30
0.0
  0
POINT
  5
575
330
568
100
AcDbEntity
  8
Defpoints
100
AcDbPoint
 10
0.0
 20
0.0
 30
0.0
  0
POINT
  5
576
330
568
100
AcDbEntity
  8
Defpoints
100
AcDbPoint
 10
0.0
 20
103.0
 30
0.0
  0
ENDBLK
  5
56A
330
568
100
AcDbEntity
  8
0
100
AcDbBlockEnd
  0
BLOCK
  5
579
330
578
100
AcDbEntity
  8
0
100
AcDbBlockBegin
  2
*D21
 70
1
 10
0.0
 20
0.0
 30
0.0
  3
*D21
  1

  0
LINE
  5
57B
330
578
100
AcDbEntity
  8
0
100
AcDbLine
 10
0.0
 20
0.0
 30
0.0
 11
-49.0
 21
0.0
 31
0.0
  0
LINE
  5
57C
330
578
100
AcDbEntity
  8
0
100
AcDbLine
 10
0.0
 20
157.0
 30
0.0
 11
-49.0
 21
157.0
 31
0.0
  0
INSERT
  5
57D
330
578
100
AcDbEntity
  8
DIMENSION
100
AcDbBlockReference
  2
_CLOSEDFILLED
 10
-49.0
 20
0.0
 30
0.0
 41
0.25
 42
0.25
 50
270.0
  0
INSERT
  5
57F
330
578
100
AcDbEntity
  8
DIMENSION
100
AcDbBlockReference
  2
_CLOSEDFILLED
 10
-49.0
 20
157.0
 30
0.0
 41
0.25
 42
0.25
 50
90.0
  0
LINE
  5
581
330
578
100
AcDbEntity
  8
0
100
AcDbLine
 10
-49.0
 20
0.25
 30
0.0
 11
-49.0
 21
77.0
 31
0.0
  0
LINE
  5
582
330
578
100
AcDbEntity
  8
0
100
AcDbLine
 10
-49.0
 20
80.0
 30
0.0
 11
-49.0
 21
156.75
 31
0.0
  0
MTEXT
  5
583
330
578
100
AcDbEntity
  8
DIMENSION
100
AcDbMText
 10
-49.0
 20
78.5
 30
0.0
 40
1.0
 71
5
  1
157
 50
90.0
  0
POINT
  5
584
330
578
100
AcDbEntity
  8
Defpoints
100
AcDbPoint
 10
-49.0
 20
0.0
 30
0.0
  0
POINT
  5
585
330
578
100
AcDbEntity
  8
Defpoints
100
AcDbPoint
 10
0.0
 20
0.0
 30
0.0
  0
POINT
  5
586
330
578
100
AcDbEntity
  8
Defpoints
100
AcDbPoint
 10
0.0
 20
157.0
 30
0.0
  0
ENDBLK
  5
57A
330
578
100
AcDbEntity
  8
0
100
AcDbBlockEnd
  0
BLOCK
  5
589
330
588
100
AcDbEntity
  8
0
100
AcDbBlockBegin
  2
*D22
 70
1
 10
0.0
 20
0.0
 30
0.0
  3
*D22
  1

  0
LINE
  5
58B
330
588
100
AcDbEntity
  8
0
100
AcDbLine
 10
0.0
 20
0.0
 30
0.0
 11
-57.0
 21
0.0
 31
0.0
  0
LINE
  5
58C
330
588
100
AcDbEntity
  8
0
100
AcDbLine
 10
0.0
 20
207.0
 30
0.0
 11
-57.0
 21
207.0
 31
0.0
  0
INSERT
  5
58D
330
588
100
AcDbEntity
  8
DIMENSION
100
AcDbBlockReference
  2
_CLOSEDFILLED
 10
-57.0
 20
0.0
 30
0.0
 41
0.25
 42
0.25
 50
270.0
  0
INSERT
  5
58F
330
588
100
AcDbEntity
  8
DIMENSION
100
AcDbBlockReference
  2
_CLOSEDFILLED
 10
-57.0
 20
207.0
 30
0.0
 41
0.25
 42
0.25
 50
90.0
  0
LINE
  5
591
330
588
100
AcDbEntity
  8
0
100
AcDbLine
 10
-57.0
 20
0.25
 30
0.0
 11
-57.0
 21
102.0
 31
0.0
  0
LINE
  5
592
330
588
100
AcDbEntity
  8
0
100
AcDbLine
 10
-57.0
 20
104.99999999999999
 30
0.0
 11
-57.0
 21
206.75
 31
0.0
  0
MTEXT
  5
593
330
588
100
AcDbEntity
  8
DIMENSION
100
AcDbMText
 10
-57.0
 20
103.5
 30
0.0
 40
1.0
 71
5
  1
207
 50
90.0
  0
POINT
  5
594
330
588
100
AcDbEntity
  8
Defpoints
100
AcDbPoint
 10
-57.0
 20
0.0
 30
0.0
  0
POINT
  5
595
330
588
100
AcDbEntity
  8
Defpoints
100
AcDbPoint
 10
0.0
 20
0.0
 30
0.0
  0
POINT
  5
596
330
588
100
AcDbEntity
  8
Defpoints
100
AcDbPoint
 10
0.0
 20
207.0
 30
0.0
  0
ENDBLK
  5
58A
330
588
100
AcDbEntity
  8
0
100
AcDbBlockEnd
  0
BLOCK
  5
599
330
598
100
AcDbEntity
  8
0
100
AcDbBlockBegin
  2
*D23
 70
1
 10
0.0
 20
0.0
 30
0.0
  3
*D23
  1

  0
LINE
  5
59B
330
598
100
AcDbEntity
  8
0
100
AcDbLine
 10
597.0
 20
207.0
 30
0.0
 11
622.0
 21
207.0
 31
0.0
  0
LINE
  5
59C
330
598
100
AcDbEntity
  8
0
100
AcDbLine
 10
597.0
 20
157.0
 30
0.0
 11
622.0
 21
157.0
 31
0.0
  0
INSERT
  5
59D
330
598
100
AcDbEntity
  8
DIMENSION
100
AcDbBlockReference
  2
_CLOSEDFILLED
 10
622.0
 20
207.0
 30
0.0
 41
0.25
 42
0.25
 50
270.0
  0
INSERT
  5
59F
330
598
100
AcDbEntity
  8
DIMENSION
100
AcDbBlockReference
  2
_CLOSEDFILLED
 10
622.0
 20
157.0
 30
0.0
 41
0.25
 42
0.25
 50
90.0
  0
LINE
  5
5A1
330
598
100
AcDbEntity
  8
0
100
AcDbLine
 10
622.0
 20
207.25
 30
0.0
 11
622.0
 21
183.0
 31
0.0
  0
LINE
  5
5A2
330
598
100
AcDbEntity
  8
0
100
AcDbLine
 10
622.0
 20
181.0
 30
0.0
 11
622.0
 21
156.75
 31
0.0
  0
MTEXT
  5
5A3
330
598
100
AcDbEntity
  8
DIMENSION
100
AcDbMText
 10
622.0
 20
182.0
 30
0.0
 40
1.0
 71
5
  1
50
 50
90.0
  0
POINT
  5
5A4
330
598
100
AcDbEntity
  8
Defpoints
100
AcDbPoint
 10
622.0
 20
207.0
 30
0.0
  0
POINT
  5
5A5
330
598
100
AcDbEntity
  8
Defpoints
100
AcDbPoint
 10
597.0
 20
207.0
 30
0.0
  0
POINT
  5
5A6
330
598
100
AcDbEntity
  8
Defpoints
100
AcDbPoint
 10
597.0
 20
157.0
 30
0.0
  0
ENDBLK
  5
59A
330
598
100
AcDbEntity
  8
0
100
AcDbBlockEnd
  0
BLOCK
  5
5A9
330
5A8
100
AcDbEntity
  8
0
100
AcDbBlockBegin
  2
*D24
 70
1
 10
0.0
 20
0.0
 30
0.0
  3
*D24
  1

  0
LINE
  5
5AB
330
5A8
100
AcDbEntity
  8
0
100
AcDbLine
 10
597.0
 20
207.0
 30
0.0
 11
630.0
 21
207.0
 31
0.0
  0
LINE
  5
5AC
330
5A8
100
AcDbEntity
  8
0
100
AcDbLine
 10
597.0
 20
103.0
 30
0.0
 11
630.0
 21
103.0
 31
0.0
  0
INSERT
  5
5AD
330
5A8
100
AcDbEntity
  8
DIMENSION
100
AcDbBlockReference
  2
_CLOSEDFILLED
 10
630.0
 20
207.0
 30
0.0
 41
0.25
 42
0.25
 50
270.0
  0
INSERT
  5
5AF
330
5A8
100
AcDbEntity
  8
DIMENSION
100
AcDbBlockReference
  2
_CLOSEDFILLED
 10
630.0
 20
103.0
 30
0.0
 41
0.25
 42
0.25
 50
90.0
  0
LINE
  5
5B1
330
5A8
100
AcDbEntity
  8
0
100
AcDbLine
 10
630.0
 20
207.25
 30
0.0
 11
630.0
 21
156.5
 31
0.0
  0
LINE
  5
5B2
330
5A8
100
AcDbEntity
  8
0
100
AcDbLine
 10
630.0
 20
153.5
 30
0.0
 11
630.0
 21
102.75
 31
0.0
  0
MTEXT
  5
5B3
330
5A8
100
AcDbEntity
  8
DIMENSION
100
AcDbMText
 10
630.0
 20
155.0
 30
0.0
 40
1.0
 71
5
  1
104
 50
90.0
  0
POINT
  5
5B4
330
5A8
100
AcDbEntity
  8
Defpoints
100
AcDbPoint
 10
630.0
 20
207.0
 30
0.0
  0
POINT
  5
5B5
330
5A8
100
AcDbEntity
  8
Defpoints
100
AcDbPoint
 10
597.0
 20
207.0
 30
0.0
  0
POINT
  5
5B6
330
5A8
100
AcDbEntity
  8
Defpoints
100
AcDbPoint
 10
597.0
 20
103.0
 30
0.0
  0
ENDBLK
  5
5AA
330
5A8
100
AcDbEntity
  8
0
100
AcDbBlockEnd
  0
BLOCK
  5
5B9
330
5B8
100
AcDbEntity
  8
0
100
AcDbBlockBegin
  2
*D25
 70
1
 10
0.0
 20
0.0
 30
0.0
  3
*D25
  1

  0
LINE
  5
5BB
330
5B8
100
AcDbEntity
  8
0
100
AcDbLine
 10
597.0
 20
207.0
 30
0.0
 11
638.0
 21
207.0
 31
0.0
  0
LINE
  5
5BC
330
5B8
100
AcDbEntity
  8
0
100
AcDbLine
 10
597.0
 20
50.0
 30
0.0
 11
638.0
 21
50.0
 31
0.0
  0
INSERT
  5
5BD
330
5B8
100
AcDbEntity
  8
DIMENSION
100
AcDbBlockReference
  2
_CLOSEDFILLED
 10
638.0
 20
207.0
 30
0.0
 41
0.25
 42
0.25
 50
270.0
  0
INSERT
  5
5BF
330
5B8
100
AcDbEntity
  8
DIMENSION
100
AcDbBlockReference
  2
_CLOSEDFILLED
 10
638.0
 20
50.0
 30
0.0
 41
0.25
 42
0.25
 50
90.0
  0
LINE
  5
5C1
330
5B8
100
AcDbEntity
  8
0
100
AcDbLine
 10
638.0
 20
207.25
 30
0.0
 11
638.0
 21
130.0
 31
0.0
  0
LINE
  5
5C2
330
5B8
100
AcDbEntity
  8
0
100
AcDbLine
 10
638.0
 20
127.0
 30
0.0
 11
638.0
 21
49.75
 31
0.0
  0
MTEXT
  5
5C3
330
5B8
100
AcDbEntity
  8
DIMENSION
100
AcDbMText
 10
638.0
 20
128.5
 30
0.0
 40
1.0
 71
5
  1
157
 50
90.0
  0
POINT
  5
5C4
330
5B8
100
AcDbEntity
  8
Defpoints
100
AcDbPoint
 10
638.0
 20
207.0
 30
0.0
  0
POINT
  5
5C5
330
5B8
100
AcDbEntity
  8
Defpoints
100
AcDbPoint
 10
597.0
 20
207.0
 30
0.0
  0
POINT
  5
5C6
330
5B8
100
AcDbEntity
  8
Defpoints
100
AcDbPoint
 10
597.0
 20
50.0
 30
0.0
  0
ENDBLK
  5
5BA
330
5B8
100
AcDbEntity
  8
0
100
AcDbBlockEnd
  0
BLOCK
  5
5C9
330
5C8
100
AcDbEntity
  8
0
100
AcDbBlockBegin
  2
*D26
 70
1
 10
0.0
 20
0.0
 30
0.0
  3
*D26
  1

  0
LINE
  5
5CB
330
5C8
100
AcDbEntity
  8
0
100
AcDbLine
 10
597.0
 20
207.0
 30
0.0
 11
646.0
 21
207.0
 31
0.0
  0
LINE
  5
5CC
330
5C8
100
AcDbEntity
  8
0
100
AcDbLine
 10
597.0
 20
6.0
 30
0.0
 11
646.0
 21
6.0
 31
0.0
  0
INSERT
  5
5CD
330
5C8
100
AcDbEntity
  8
DIMENSION
100
AcDbBlockReference
  2
_CLOSEDFILLED
 10
646.0
 20
207.0
 30
0.0
 41
0.25
 42
0.25
 50
270.0
  0
INSERT
  5
5CF
330
5C8
100
AcDbEntity
  8
DIMENSION
100
AcDbBlockReference
  2
_CLOSEDFILLED
 10
646.0
 20
6.0
 30
0.0
 41
0.25
 42
0.25
 50
90.0
  0
LINE
  5
5D1
330
5C8
100
AcDbEntity
  8
0
100
AcDbLine
 10
646.0
 20
207.25
 30
0.0
 11
646.0
 21
108.0
 31
0.0
  0
LINE
  5
5D2
330
5C8
100
AcDbEntity
  8
0
100
AcDbLine
 10
646.0
 20
105.00000000000001
 30
0.0
 11
646.0
 21
5.75
 31
0.0
  0
MTEXT
  5
5D3
330
5C8
100
AcDbEntity
  8
DIMENSION
100
AcDbMText
 10
646.0
 20
106.5
 30
0.0
 40
1.0
 71
5
  1
201
 50
90.0
  0
POINT
  5
5D4
330
5C8
100
AcDbEntity
  8
Defpoints
100
AcDbPoint
 10
646.0
 20
207.0
 30
0.0
  0
POINT
  5
5D5
330
5C8
100
AcDbEntity
  8
Defpoints
100
AcDbPoint
 10
597.0
 20
207.0
 30
0.0
  0
POINT
  5
5D6
330
5C8
100
AcDbEntity
  8
Defpoints
100
AcDbPoint
 10
597.0
 20
6.0
 30
0.0
  0
ENDBLK
  5
5CA
330
5C8
100
AcDbEntity
  8
0
100
AcDbBlockEnd
  0
BLOCK
  5
625
330
624
100
AcDbEntity
  8
0
100
AcDbBlockBegin
  2
*Paper_Space0
 70
0
 10
0.0
 20
0.0
 30
0.0
  3
*Paper_Space0
  1

  0
VIEWPORT
  5
628
330
624
100
AcDbEntity
 67
1
  8
VIEWPORTS
100
AcDbViewport
 10
138.5
 20
95.0
 30
0.0
 40
326.70000000000005
 41
231.00000000000003
 68
1
 69
1
 12
138.5
 22
95.0
 13
0.0
 23
0.0
 14
10.0
 24
10.0
 15
10.0
 25
10.0
 16
0.0
 26
0.0
 36
1.0
 17
0.0
 27
0.0
 37
0.0
 42
50.0
 43
0.0
 44
0.0
 45
231.00000000000003
 50
0.0
 51
0.0
 72
100
 90
557088
  1

281
0
 71
0
 74
0
110
0.0
120
0.0
130
0.0
111
1.0
121
0.0
131
0.0
112
0.0
122
1.0
132
0.0
 79
0
146
0.0
  0
VIEWPORT
  5
629
330
624
100
AcDbEntity
 67
1
  8
VIEWPORTS
100
AcDbViewport
 10
148.5
 20
105.0
 30
0.0
 40
277.0
 41
190.0
 68
2
 69
3
 12
379.5
 22
76.375
 13
0.0
 23
0.0
 14
10.0
 24
10.0
 15
10.0
 25
10.0
 16
0.0
 26
0.0
 36
1.0
 17
0.0
 27
0.0
 37
0.0
 42
50.0
 43
0.0
 44
0.0
 45
658.6895306859207
 50
0.0
 51
0.0
 72
100
 90
0
  1

281
0
 71
0
 74
0
110
0.0
120
0.0
130
0.0
111
1.0
121
0.0
131
0.0
112
0.0
122
1.0
132
0.0
 79
0
146
0.0
  0
ENDBLK
  5
626
330
624
100
AcDbEntity
  8
0
100
AcDbBlockEnd
  0
ENDSEC
  0
SECTION
  2
ENTITIES
  0
TEXT
  5
33
330
17
100
AcDbEntity
  8
ANNOTATION
100
AcDbText
 10
41.5
 20
60.0
 30
0.0
 40
2.5
  1
left_side_1
100
AcDbText
  0
TEXT
  5
34
330
17
100
AcDbEntity
  8
ANNOTATION
100
AcDbText
 10
41.5
 20
55.0
 30
0.0
 40
2.5
  1
d6.0 h10.0
100
AcDbText
  0
TEXT
  5
35
330
17
100
AcDbEntity
  8
ANNOTATION
100
AcDbText
 10
41.5
 20
167.0
 30
0.0
 40
2.5
  1
left_side_2
100
AcDbText
  0
TEXT
  5
36
330
17
100
AcDbEntity
  8
ANNOTATION
100
AcDbText
 10
41.5
 20
162.0
 30
0.0
 40
2.5
  1
d6.0 h10.0
100
AcDbText
  0
TEXT
  5
37
330
17
100
AcDbEntity
  8
ANNOTATION
100
AcDbText
 10
555.5
 20
60.0
 30
0.0
 40
2.5
  1
right_side_1
100
AcDbText
  0
TEXT
  5
38
330
17
100
AcDbEntity
  8
ANNOTATION
100
AcDbText
 10
555.5
 20
55.0
 30
0.0
 40
2.5
  1
d6.0 h10.0
100
AcDbText
  0
TEXT
  5
39
330
17
100
AcDbEntity
  8
ANNOTATION
100
AcDbText
 10
555.5
 20
167.0
 30
0.0
 40
2.5
  1
right_side_2
100
AcDbText
  0
TEXT
  5
3A
330
17
100
AcDbEntity
  8
ANNOTATION
100
AcDbText
 10
555.5
 20
162.0
 30
0.0
 40
2.5
  1
d6.0 h10.0
100
AcDbText
  0
TEXT
  5
3B
330
17
100
AcDbEntity
  8
ANNOTATION
100
AcDbText
 10
91.5
 20
16.0
 30
0.0
 40
2.5
  1
bottom_panel_1
100
AcDbText
  0
TEXT
  5
3C
330
17
100
AcDbEntity
  8
ANNOTATION
100
AcDbText
 10
91.5
 20
11.0
 30
0.0
 40
2.5
  1
d6.0 h10.0
100
AcDbText
  0
TEXT
  5
3D
330
17
100
AcDbEntity
  8
ANNOTATION
100
AcDbText
 10
505.5
 20
16.0
 30
0.0
 40
2.5
  1
bottom_panel_2
100
AcDbText
  0
TEXT
  5
3E
330
17
100
AcDbEntity
  8
ANNOTATION
100
AcDbText
 10
505.5
 20
11.0
 30
0.0
 40
2.5
  1
d6.0 h10.0
100
AcDbText
  0
TEXT
  5
3F
330
17
100
AcDbEntity
  8
ANNOTATION
100
AcDbText
 10
229.5
 20
16.0
 30
0.0
 40
2.5
  1
bottom_panel_3
100
AcDbText
  0
TEXT
  5
40
330
17
100
AcDbEntity
  8
ANNOTATION
100
AcDbText
 10
229.5
 20
11.0
 30
0.0
 40
2.5
  1
d6.0 h10.0
100
AcDbText
  0
TEXT
  5
41
330
17
100
AcDbEntity
  8
ANNOTATION
100
AcDbText
 10
367.5
 20
16.0
 30
0.0
 40
2.5
  1
bottom_panel_4
100
AcDbText
  0
TEXT
  5
42
330
17
100
AcDbEntity
  8
ANNOTATION
100
AcDbText
 10
367.5
 20
11.0
 30
0.0
 40
2.5
  1
d6.0 h10.0
100
AcDbText
  0
TEXT
  5
43
330
17
100
AcDbEntity
  8
ANNOTATION
100
AcDbText
 10
218.5
 20
113.0
 30
0.0
 40
2.5
  1
handle_1
100
AcDbText
  0
TEXT
  5
44
330
17
100
AcDbEntity
  8
ANNOTATION
100
AcDbText
 10
218.5
 20
108.0
 30
0.0
 40
2.5
  1
d4.0 h18.0
100
AcDbText
  0
TEXT
  5
45
330
17
100
AcDbEntity
  8
ANNOTATION
100
AcDbText
 10
378.5
 20
113.0
 30
0.0
 40
2.5
  1
handle_2
100
AcDbText
  0
TEXT
  5
46
330
17
100
AcDbEntity
  8
ANNOTATION
100
AcDbText
 10
378.5
 20
108.0
 30
0.0
 40
2.5
  1
d4.0 h18.0
100
AcDbText
  0
LINE
  5
47
330
17
100
AcDbEntity
  8
CUT
100
AcDbLine
 10
0.0
 20
0.0
 30
0.0
 11
597.0
 21
0.0
 31
0.0
  0
LINE
  5
48
330
17
100
AcDbEntity
  8
CUT
100
AcDbLine
 10
597.0
 20
0.0
 30
0.0
 11
597.0
 21
207.0
 31
0.0
  0
LINE
  5
49
330
17
100
AcDbEntity
  8
CUT
100
AcDbLine
 10
597.0
 20
207.0
 30
0.0
 11
0.0
 21
207.0
 31
0.0
  0
LINE
  5
4A
330
17
100
AcDbEntity
  8
CUT
100
AcDbLine
 10
0.0
 20
207.0
 30
0.0
 11
0.0
 21
0.0
 31
0.0
  0
LINE
  5
4B
330
17
100
AcDbEntity
  8
CUT
100
AcDbLine
 10
38.5
 20
50.0
 30
0.0
 11
38.5059
 21
50.1884
 31
0.0
  0
LINE
  5
4C
330
17
100
AcDbEntity
  8
CUT
100
AcDbLine
 10
38.5059
 20
50.1884
 30
0.0
 11
38.5237
 21
50.376
 31
0.0
  0
LINE
  5
4D
330
17
100
AcDbEntity
  8
CUT
100
AcDbLine
 10
38.5237
 20
50.376
 30
0.0
 11
38.5531
 21
50.5621
 31
0.0
  0
LINE
  5
4E
330
17
100
AcDbEntity
  8
CUT
100
AcDbLine
 10
38.5531
 20
50.5621
 30
0.0
 11
38.5942
 21
50.7461
 31
0.0
  0
LINE
  5
4F
330
17
100
AcDbEntity
  8
CUT
100
AcDbLine
 10
38.5942
 20
50.7461
 30
0.0
 11
38.6468
 21
50.9271
 31
0.0
  0
LINE
  5
50
330
17
100
AcDbEntity
  8
CUT
100
AcDbLine
 10
38.6468
 20
50.9271
 30
0.0
 11
38.7107
 21
51.1044
 31
0.0
  0
LINE
  5
51
330
17
100
AcDbEntity
  8
CUT
100
AcDbLine
 10
38.7107
 20
51.1044
 30
0.0
 11
38.7855
 21
51.2773
 31
0.0
  0
LINE
  5
52
330
17
100
AcDbEntity
  8
CUT
100
AcDbLine
 10
38.7855
 20
51.2773
 30
0.0
 11
38.8711
 21
51.4453
 31
0.0
  0
LINE
  5
53
330
17
100
AcDbEntity
  8
CUT
100
AcDbLine
 10
38.8711
 20
51.4453
 30
0.0
 11
38.967
 21
51.6075
 31
0.0
  0
LINE
  5
54
330
17
100
AcDbEntity
  8
CUT
100
AcDbLine
 10
38.967
 20
51.6075
 30
0.0
 11
39.0729
 21
51.7634
 31
0.0
  0
LINE
  5
55
330
17
100
AcDbEntity
  8
CUT
100
AcDbLine
 10
39.0729
 20
51.7634
 30
0.0
 11
39.1885
 21
51.9123
 31
0.0
  0
LINE
  5
56
330
17
100
AcDbEntity
  8
CUT
100
AcDbLine
 10
39.1885
 20
51.9123
 30
0.0
 11
39.3131
 21
52.0536
 31
0.0
  0
LINE
  5
57
330
17
100
AcDbEntity
  8
CUT
100
AcDbLine
 10
39.3131
 20
52.0536
 30
0.0
 11
39.4464
 21
52.1869
 31
0.0
  0
LINE
  5
58
330
17
100
AcDbEntity
  8
CUT
100
AcDbLine
 10
39.4464
 20
52.1869
 30
0.0
 11
39.5877
 21
52.3115
 31
0.0
  0
LINE
  5
59
330
17
100
AcDbEntity
  8
CUT
100
AcDbLine
 10
39.5877
 20
52.3115
 30
0.0
 11
39.7366
 21
52.4271
 31
0.0
  0
LINE
  5
5A
330
17
100
AcDbEntity
  8
CUT
100
AcDbLine
 10
39.7366
 20
52.4271
 30
0.0
 11
39.8925
 21
52.533
 31
0.0
  0
LINE
  5
5B
330
17
100
AcDbEntity
  8
CUT
100
AcDbLine
 10
39.8925
 20
52.533
 30
0.0
 11
40.0547
 21
52.6289
 31
0.0
  0
LINE
  5
5C
330
17
100
AcDbEntity
  8
CUT
100
AcDbLine
 10
40.0547
 20
52.6289
 30
0.0
 11
40.2227
 21
52.7145
 31
0.0
  0
LINE
  5
5D
330
17
100
AcDbEntity
  8
CUT
100
AcDbLine
 10
40.2227
 20
52.7145
 30
0.0
 11
40.3956
 21
52.7893
 31
0.0
  0
LINE
  5
5E
330
17
100
AcDbEntity
  8
CUT
100
AcDbLine
 10
40.3956
 20
52.7893
 30
0.0
 11
40.5729
 21
52.8532
 31
0.0
  0
LINE
  5
5F
330
17
100
AcDbEntity
  8
CUT
100
AcDbLine
 10
40.5729
 20
52.8532
 30
0.0
 11
40.7539
 21
52.9057
 31
0.0
  0
LINE
  5
60
330
17
100
AcDbEntity
  8
CUT
100
AcDbLine
 10
40.7539
 20
52.9057
 30
0.0
 11
40.9379
 21
52.9469
 31
0.0
  0
LINE
  5
61
330
17
100
AcDbEntity
  8
CUT
100
AcDbLine
 10
40.9379
 20
52.9469
 30
0.0
 11
41.124
 21
52.9763
 31
0.0
  0
LINE
  5
62
330
17
100
AcDbEntity
  8
CUT
100
AcDbLine
 10
41.124
 20
52.9763
 30
0.0
 11
41.3116
 21
52.9941
 31
0.0
  0
LINE
  5
63
330
17
100
AcDbEntity
  8
CUT
100
AcDbLine
 10
41.3116
 20
52.9941
 30
0.0
 11
41.5
 21
53.0
 31
0.0
  0
LINE
  5
64
330
17
100
AcDbEntity
  8
CUT
100
AcDbLine
 10
41.5
 20
53.0
 30
0.0
 11
41.6884
 21
52.9941
 31
0.0
  0
LINE
  5
65
330
17
100
AcDbEntity
  8
CUT
100
AcDbLine
 10
41.6884
 20
52.9941
 30
0.0
 11
41.876
 21
52.9763
 31
0.0
  0
LINE
  5
66
330
17
100
AcDbEntity
  8
CUT
100
AcDbLine
 10
41.876
 20
52.9763
 30
0.0
 11
42.0621
 21
52.9469
 31
0.0
  0
LINE
  5
67
330
17
100
AcDbEntity
  8
CUT
100
AcDbLine
 10
42.0621
 20
52.9469
 30
0.0
 11
42.2461
 21
52.9057
 31
0.0
  0
LINE
  5
68
330
17
100
AcDbEntity
  8
CUT
100
AcDbLine
 10
42.2461
 20
52.9057
 30
0.0
 11
42.4271
 21
52.8532
 31
0.0
  0
LINE
  5
69
330
17
100
AcDbEntity
  8
CUT
100
AcDbLine
 10
42.4271
 20
52.8532
 30
0.0
 11
42.6044
 21
52.7893
 31
0.0
  0
LINE
  5
6A
330
17
100
AcDbEntity
  8
CUT
100
AcDbLine
 10
42.6044
 20
52.7893
 30
0.0
 11
42.7773
 21
52.7145
 31
0.0
  0
LINE
  5
6B
330
17
100
AcDbEntity
  8
CUT
100
AcDbLine
 10
42.7773
 20
52.7145
 30
0.0
 11
42.9453
 21
52.6289
 31
0.0
  0
LINE
  5
6C
330
17
100
AcDbEntity
  8
CUT
100
AcDbLine
 10
42.9453
 20
52.6289
 30
0.0
 11
43.1075
 21
52.533
 31
0.0
  0
LINE
  5
6D
330
17
100
AcDbEntity
  8
CUT
100
AcDbLine
 10
43.1075
 20
52.533
 30
0.0
 11
43.2634
 21
52.4271
 31
0.0
  0
LINE
  5
6E
330
17
100
AcDbEntity
  8
CUT
100
AcDbLine
 10
43.2634
 20
52.4271
 30
0.0
 11
43.4123
 21
52.3115
 31
0.0
  0
LINE
  5
6F
330
17
100
AcDbEntity
  8
CUT
100
AcDbLine
 10
43.4123
 20
52.3115
 30
0.0
 11
43.5536
 21
52.1869
 31
0.0
  0
LINE
  5
70
330
17
100
AcDbEntity
  8
CUT
100
AcDbLine
 10
43.5536
 20
52.1869
 30
0.0
 11
43.6869
 21
52.0536
 31
0.0
  0
LINE
  5
71
330
17
100
AcDbEntity
  8
CUT
100
AcDbLine
 10
43.6869
 20
52.0536
 30
0.0
 11
43.8115
 21
51.9123
 31
0.0
  0
LINE
  5
72
330
17
100
AcDbEntity
  8
CUT
100
AcDbLine
 10
43.8115
 20
51.9123
 30
0.0
 11
43.9271
 21
51.7634
 31
0.0
  0
LINE
  5
73
330
17
100
AcDbEntity
  8
CUT
100
AcDbLine
 10
43.9271
 20
51.7634
 30
0.0
 11
44.033
 21
51.6075
 31
0.0
  0
LINE
  5
74
330
17
100
AcDbEntity
  8
CUT
100
AcDbLine
 10
44.033
 20
51.6075
 30
0.0
 11
44.1289
 21
51.4453
 31
0.0
  0
LINE
  5
75
330
17
100
AcDbEntity
  8
CUT
100
AcDbLine
 10
44.1289
 20
51.4453
 30
0.0
 11
44.2145
 21
51.2773
 31
0.0
  0
LINE
  5
76
330
17
100
AcDbEntity
  8
CUT
100
AcDbLine
 10
44.2145
 20
51.2773
 30
0.0
 11
44.2893
 21
51.1044
 31
0.0
  0
LINE
  5
77
330
17
100
AcDbEntity
  8
CUT
100
AcDbLine
 10
44.2893
 20
51.1044
 30
0.0
 11
44.3532
 21
50.9271
 31
0.0
  0
LINE
  5
78
330
17
100
AcDbEntity
  8
CUT
100
AcDbLine
 10
44.3532
 20
50.9271
 30
0.0
 11
44.4057
 21
50.7461
 31
0.0
  0
LINE
  5
79
330
17
100
AcDbEntity
  8
CUT
100
AcDbLine
 10
44.4057
 20
50.7461
 30
0.0
 11
44.4469
 21
50.5621
 31
0.0
  0
LINE
  5
7A
330
17
100
AcDbEntity
  8
CUT
100
AcDbLine
 10
44.4469
 20
50.5621
 30
0.0
 11
44.4763
 21
50.376
 31
0.0
  0
LINE
  5
7B
330
17
100
AcDbEntity
  8
CUT
100
AcDbLine
 10
44.4763
 20
50.376
 30
0.0
 11
44.4941
 21
50.1884
 31
0.0
  0
LINE
  5
7C
330
17
100
AcDbEntity
  8
CUT
100
AcDbLine
 10
44.4941
 20
50.1884
 30
0.0
 11
44.5
 21
50.0
 31
0.0
  0
LINE
  5
7D
330
17
100
AcDbEntity
  8
CUT
100
AcDbLine
 10
44.5
 20
50.0
 30
0.0
 11
44.4941
 21
49.8116
 31
0.0
  0
LINE
  5
7E
330
17
100
AcDbEntity
  8
CUT
100
AcDbLine
 10
44.4941
 20
49.8116
 30
0.0
 11
44.4763
 21
49.624
 31
0.0
  0
LINE
  5
7F
330
17
100
AcDbEntity
  8
CUT
100
AcDbLine
 10
44.4763
 20
49.624
 30
0.0
 11
44.4469
 21
49.4379
 31
0.0
  0
LINE
  5
80
330
17
100
AcDbEntity
  8
CUT
100
AcDbLine
 10
44.4469
 20
49.4379
 30
0.0
 11
44.4057
 21
49.2539
 31
0.0
  0
LINE
  5
81
330
17
100
AcDbEntity
  8
CUT
100
AcDbLine
 10
44.4057
 20
49.2539
 30
0.0
 11
44.3532
 21
49.0729
 31
0.0
  0
LINE
  5
82
330
17
100
AcDbEntity
  8
CUT
100
AcDbLine
 10
44.3532
 20
49.0729
 30
0.0
 11
44.2893
 21
48.8956
 31
0.0
  0
LINE
  5
83
330
17
100
AcDbEntity
  8
CUT
100
AcDbLine
 10
44.2893
 20
48.8956
 30
0.0
 11
44.2145
 21
48.7227
 31
0.0
  0
LINE
  5
84
330
17
100
AcDbEntity
  8
CUT
100
AcDbLine
 10
44.2145
 20
48.7227
 30
0.0
 11
44.1289
 21
48.5547
 31
0.0
  0
LINE
  5
85
330
17
100
AcDbEntity
  8
CUT
100
AcDbLine
 10
44.1289
 20
48.5547
 30
0.0
 11
44.033
 21
48.3925
 31
0.0
  0
LINE
  5
86
330
17
100
AcDbEntity
  8
CUT
100
AcDbLine
 10
44.033
 20
48.3925
 30
0.0
 11
43.9271
 21
48.2366
 31
0.0
  0
LINE
  5
87
330
17
100
AcDbEntity
  8
CUT
100
AcDbLine
 10
43.9271
 20
48.2366
 30
0.0
 11
43.8115
 21
48.0877
 31
0.0
  0
LINE
  5
88
330
17
100
AcDbEntity
  8
CUT
100
AcDbLine
 10
43.8115
 20
48.0877
 30
0.0
 11
43.6869
 21
47.9464
 31
0.0
  0
LINE
  5
89
330
17
100
AcDbEntity
  8
CUT
100
AcDbLine
 10
43.6869
 20
47.9464
 30
0.0
 11
43.5536
 21
47.8131
 31
0.0
  0
LINE
  5
8A
330
17
100
AcDbEntity
  8
CUT
100
AcDbLine
 10
43.5536
 20
47.8131
 30
0.0
 11
43.4123
 21
47.6885
 31
0.0
  0
LINE
  5
8B
330
17
100
AcDbEntity
  8
CUT
100
AcDbLine
 10
43.4123
 20
47.6885
 30
0.0
 11
43.2634
 21
47.5729
 31
0.0
  0
LINE
  5
8C
330
17
100
AcDbEntity
  8
CUT
100
AcDbLine
 10
43.2634
 20
47.5729
 30
0.0
 11
43.1075
 21
47.467
 31
0.0
  0
LINE
  5
8D
330
17
100
AcDbEntity
  8
CUT
100
AcDbLine
 10
43.1075
 20
47.467
 30
0.0
 11
42.9453
 21
47.3711
 31
0.0
  0
LINE
  5
8E
330
17
100
AcDbEntity
  8
CUT
100
AcDbLine
 10
42.9453
 20
47.3711
 30
0.0
 11
42.7773
 21
47.2855
 31
0.0
  0
LINE
  5
8F
330
17
100
AcDbEntity
  8
CUT
100
AcDbLine
 10
42.7773
 20
47.2855
 30
0.0
 11
42.6044
 21
47.2107
 31
0.0
  0
LINE
  5
90
330
17
100
AcDbEntity
  8
CUT
100
AcDbLine
 10
42.6044
 20
47.2107
 30
0.0
 11
42.4271
 21
47.1468
 31
0.0
  0
LINE
  5
91
330
17
100
AcDbEntity
  8
CUT
100
AcDbLine
 10
42.4271
 20
47.1468
 30
0.0
 11
42.2461
 21
47.0942
 31
0.0
  0
LINE
  5
92
330
17
100
AcDbEntity
  8
CUT
100
AcDbLine
 10
42.2461
 20
47.0942
 30
0.0
 11
42.0621
 21
47.0531
 31
0.0
  0
LINE
  5
93
330
17
100
AcDbEntity
  8
CUT
100
AcDbLine
 10
42.0621
 20
47.0531
 30
0.0
 11
41.876
 21
47.0237
 31
0.0
  0
LINE
  5
94
330
17
100
AcDbEntity
  8
CUT
100
AcDbLine
 10
41.876
 20
47.0237
 30
0.0
 11
41.6884
 21
47.0059
 31
0.0
  0
LINE
  5
95
330
17
100
AcDbEntity
  8
CUT
100
AcDbLine
 10
41.6884
 20
47.0059
 30
0.0
 11
41.5
 21
47.0
 31
0.0
  0
LINE
  5
96
330
17
100
AcDbEntity
  8
CUT
100
AcDbLine
 10
41.5
 20
47.0
 30
0.0
 11
41.3116
 21
47.0059
 31
0.0
  0
LINE
  5
97
330
17
100
AcDbEntity
  8
CUT
100
AcDbLine
 10
41.3116
 20
47.0059
 30
0.0
 11
41.124
 21
47.0237
 31
0.0
  0
LINE
  5
98
330
17
100
AcDbEntity
  8
CUT
100
AcDbLine
 10
41.124
 20
47.0237
 30
0.0
 11
40.9379
 21
47.0531
 31
0.0
  0
LINE
  5
99
330
17
100
AcDbEntity
  8
CUT
100
AcDbLine
 10
40.9379
 20
47.0531
 30
0.0
 11
40.7539
 21
47.0942
 31
0.0
  0
LINE
  5
9A
330
17
100
AcDbEntity
  8
CUT
100
AcDbLine
 10
40.7539
 20
47.0942
 30
0.0
 11
40.5729
 21
47.1468
 31
0.0
  0
LINE
  5
9B
330
17
100
AcDbEntity
  8
CUT
100
AcDbLine
 10
40.5729
 20
47.1468
 30
0.0
 11
40.3956
 21
47.2107
 31
0.0
  0
LINE
  5
9C
330
17
100
AcDbEntity
  8
CUT
100
AcDbLine
 10
40.3956
 20
47.2107
 30
0.0
 11
40.2227
 21
47.2855
 31
0.0
  0
LINE
  5
9D
330
17
100
AcDbEntity
  8
CUT
100
AcDbLine
 10
40.2227
 20
47.2855
 30
0.0
 11
40.0547
 21
47.3711
 31
0.0
  0
LINE
  5
9E
330
17
100
AcDbEntity
  8
CUT
100
AcDbLine
 10
40.0547
 20
47.3711
 30
0.0
 11
39.8925
 21
47.467
 31
0.0
  0
LINE
  5
9F
330
17
100
AcDbEntity
  8
CUT
100
AcDbLine
 10
39.8925
 20
47.467
 30
0.0
 11
39.7366
 21
47.5729
 31
0.0
  0
LINE
  5
A0
330
17
100
AcDbEntity
  8
CUT
100
AcDbLine
 10
39.7366
 20
47.5729
 30
0.0
 11
39.5877
 21
47.6885
 31
0.0
  0
LINE
  5
A1
330
17
100
AcDbEntity
  8
CUT
100
AcDbLine
 10
39.5877
 20
47.6885
 30
0.0
 11
39.4464
 21
47.8131
 31
0.0
  0
LINE
  5
A2
330
17
100
AcDbEntity
  8
CUT
100
AcDbLine
 10
39.4464
 20
47.8131
 30
0.0
 11
39.3131
 21
47.9464
 31
0.0
  0
LINE
  5
A3
330
17
100
AcDbEntity
  8
CUT
100
AcDbLine
 10
39.3131
 20
47.9464
 30
0.0
 11
39.1885
 21
48.0877
 31
0.0
  0
LINE
  5
A4
330
17
100
AcDbEntity
  8
CUT
100
AcDbLine
 10
39.1885
 20
48.0877
 30
0.0
 11
39.0729
 21
48.2366
 31
0.0
  0
LINE
  5
A5
330
17
100
AcDbEntity
  8
CUT
100
AcDbLine
 10
39.0729
 20
48.2366
 30
0.0
 11
38.967
 21
48.3925
 31
0.0
  0
LINE
  5
A6
330
17
100
AcDbEntity
  8
CUT
100
AcDbLine
 10
38.967
 20
48.3925
 30
0.0
 11
38.8711
 21
48.5547
 31
0.0
  0
LINE
  5
A7
330
17
100
AcDbEntity
  8
CUT
100
AcDbLine
 10
38.8711
 20
48.5547
 30
0.0
 11
38.7855
 21
48.7227
 31
0.0
  0
LINE
  5
A8
330
17
100
AcDbEntity
  8
CUT
100
AcDbLine
 10
38.7855
 20
48.7227
 30
0.0
 11
38.7107
 21
48.8956
 31
0.0
  0
LINE
  5
A9
330
17
100
AcDbEntity
  8
CUT
100
AcDbLine
 10
38.7107
 20
48.8956
 30
0.0
 11
38.6468
 21
49.0729
 31
0.0
  0
LINE
  5
AA
330
17
100
AcDbEntity
  8
CUT
100
AcDbLine
 10
38.6468
 20
49.0729
 30
0.0
 11
38.5942
 21
49.2539
 31
0.0
  0
LINE
  5
AB
330
17
100
AcDbEntity
  8
CUT
100
AcDbLine
 10
38.5942
 20
49.2539
 30
0.0
 11
38.5531
 21
49.4379
 31
0.0
  0
LINE
  5
AC
330
17
100
AcDbEntity
  8
CUT
100
AcDbLine
 10
38.5531
 20
49.4379
 30
0.0
 11
38.5237
 21
49.624
 31
0.0
  0
LINE
  5
AD
330
17
100
AcDbEntity
  8
CUT
100
AcDbLine
 10
38.5237
 20
49.624
 30
0.0
 11
38.5059
 21
49.8116
 31
0.0
  0
LINE
  5
AE
330
17
100
AcDbEntity
  8
CUT
100
AcDbLine
 10
38.5059
 20
49.8116
 30
0.0
 11
38.5
 21
50.0
 31
0.0
  0
LINE
  5
AF
330
17
100
AcDbEntity
  8
CUT
100
AcDbLine
 10
38.5
 20
157.0
 30
0.0
 11
38.5059
 21
157.188
 31
0.0
  0
LINE
  5
B0
330
17
100
AcDbEntity
  8
CUT
100
AcDbLine
 10
38.5059
 20
157.188
 30
0.0
 11
38.5237
 21
157.376
 31
0.0
  0
LINE
  5
B1
330
17
100
AcDbEntity
  8
CUT
100
AcDbLine
 10
38.5237
 20
157.376
 30
0.0
 11
38.5531
 21
157.562
 31
0.0
  0
LINE
  5
B2
330
17
100
AcDbEntity
  8
CUT
100
AcDbLine
 10
38.5531
 20
157.562
 30
0.0
 11
38.5942
 21
157.746
 31
0.0
  0
LINE
  5
B3
330
17
100
AcDbEntity
  8
CUT
100
AcDbLine
 10
38.5942
 20
157.746
 30
0.0
 11
38.6468
 21
157.927
 31
0.0
  0
LINE
  5
B4
330
17
100
AcDbEntity
  8
CUT
100
AcDbLine
 10
38.6468
 20
157.927
 30
0.0
 11
38.7107
 21
158.104
 31
0.0
  0
LINE
  5
B5
330
17
100
AcDbEntity
  8
CUT
100
AcDbLine
 10
38.7107
 20
158.104
 30
0.0
 11
38.7855
 21
158.277
 31
0.0
  0
LINE
  5
B6
330
17
100
AcDbEntity
  8
CUT
100
AcDbLine
 10
38.7855
 20
158.277
 30
0.0
 11
38.8711
 21
158.445
 31
0.0
  0
LINE
  5
B7
330
17
100
AcDbEntity
  8
CUT
100
AcDbLine
 10
38.8711
 20
158.445
 30
0.0
 11
38.967
 21
158.607
 31
0.0
  0
LINE
  5
B8
330
17
100
AcDbEntity
  8
CUT
100
AcDbLine
 10
38.967
 20
158.607
 30
0.0
 11
39.0729
 21
158.763
 31
0.0
  0
LINE
  5
B9
330
17
100
AcDbEntity
  8
CUT
100
AcDbLine
 10
39.0729
 20
158.763
 30
0.0
 11
39.1885
 21
158.912
 31
0.0
  0
LINE
  5
BA
330
17
100
AcDbEntity
  8
CUT
100
AcDbLine
 10
39.1885
 20
158.912
 30
0.0
 11
39.3131
 21
159.054
 31
0.0
  0
LINE
  5
BB
330
17
100
AcDbEntity
  8
CUT
100
AcDbLine
 10
39.3131
 20
159.054
 30
0.0
 11
39.4464
 21
159.187
 31
0.0
  0
LINE
  5
BC
330
17
100
AcDbEntity
  8
CUT
100
AcDbLine
 10
39.4464
 20
159.187
 30
0.0
 11
39.5877
 21
159.312
 31
0.0
  0
LINE
  5
BD
330
17
100
AcDbEntity
  8
CUT
100
AcDbLine
 10
39.5877
 20
159.312
 30
0.0
 11
39.7366
 21
159.427
 31
0.0
  0
LINE
  5
BE
330
17
100
AcDbEntity
  8
CUT
100
AcDbLine
 10
39.7366
 20
159.427
 30
0.0
 11
39.8925
 21
159.533
 31
0.0
  0
LINE
  5
BF
330
17
100
AcDbEntity
  8
CUT
100
AcDbLine
 10
39.8925
 20
159.533
 30
0.0
 11
40.0547
 21
159.629
 31
0.0
  0
LINE
  5
C0
330
17
100
AcDbEntity
  8
CUT
100
AcDbLine
 10
40.0547
 20
159.629
 30
0.0
 11
40.2227
 21
159.714
 31
0.0
  0
LINE
  5
C1
330
17
100
AcDbEntity
  8
CUT
100
AcDbLine
 10
40.2227
 20
159.714
 30
0.0
 11
40.3956
 21
159.789
 31
0.0
  0
LINE
  5
C2
330
17
100
AcDbEntity
  8
CUT
100
AcDbLine
 10
40.3956
 20
159.789
 30
0.0
 11
40.5729
 21
159.853
 31
0.0
  0
LINE
  5
C3
330
17
100
AcDbEntity
  8
CUT
100
AcDbLine
 10
40.5729
 20
159.853
 30
0.0
 11
40.7539
 21
159.906
 31
0.0
  0
LINE
  5
C4
330
17
100
AcDbEntity
  8
CUT
100
AcDbLine
 10
40.7539
 20
159.906
 30
0.0
 11
40.9379
 21
159.947
 31
0.0
  0
LINE
  5
C5
330
17
100
AcDbEntity
  8
CUT
100
AcDbLine
 10
40.9379
 20
159.947
 30
0.0
 11
41.124
 21
159.976
 31
0.0
  0
LINE
  5
C6
330
17
100
AcDbEntity
  8
CUT
100
AcDbLine
 10
41.124
 20
159.976
 30
0.0
 11
41.3116
 21
159.994
 31
0.0
  0
LINE
  5
C7
330
17
100
AcDbEntity
  8
CUT
100
AcDbLine
 10
41.3116
 20
159.994
 30
0.0
 11
41.5
 21
160.0
 31
0.0
  0
LINE
  5
C8
330
17
100
AcDbEntity
  8
CUT
100
AcDbLine
 10
41.5
 20
160.0
 30
0.0
 11
41.6884
 21
159.994
 31
0.0
  0
LINE
  5
C9
330
17
100
AcDbEntity
  8
CUT
100
AcDbLine
 10
41.6884
 20
159.994
 30
0.0
 11
41.876
 21
159.976
 31
0.0
  0
LINE
  5
CA
330
17
100
AcDbEntity
  8
CUT
100
AcDbLine
 10
41.876
 20
159.976
 30
0.0
 11
42.0621
 21
159.947
 31
0.0
  0
LINE
  5
CB
330
17
100
AcDbEntity
  8
CUT
100
AcDbLine
 10
42.0621
 20
159.947
 30
0.0
 11
42.2461
 21
159.906
 31
0.0
  0
LINE
  5
CC
330
17
100
AcDbEntity
  8
CUT
100
AcDbLine
 10
42.2461
 20
159.906
 30
0.0
 11
42.4271
 21
159.853
 31
0.0
  0
LINE
  5
CD
330
17
100
AcDbEntity
  8
CUT
100
AcDbLine
 10
42.4271
 20
159.853
 30
0.0
 11
42.6044
 21
159.789
 31
0.0
  0
LINE
  5
CE
330
17
100
AcDbEntity
  8
CUT
100
AcDbLine
 10
42.6044
 20
159.789
 30
0.0
 11
42.7773
 21
159.714
 31
0.0
  0
LINE
  5
CF
330
17
100
AcDbEntity
  8
CUT
100
AcDbLine
 10
42.7773
 20
159.714
 30
0.0
 11
42.9453
 21
159.629
 31
0.0
  0
LINE
  5
D0
330
17
100
AcDbEntity
  8
CUT
100
AcDbLine
 10
42.9453
 20
159.629
 30
0.0
 11
43.1075
 21
159.533
 31
0.0
  0
LINE
  5
D1
330
17
100
AcDbEntity
  8
CUT
100
AcDbLine
 10
43.1075
 20
159.533
 30
0.0
 11
43.2634
 21
159.427
 31
0.0
  0
LINE
  5
D2
330
17
100
AcDbEntity
  8
CUT
100
AcDbLine
 10
43.2634
 20
159.427
 30
0.0
 11
43.4123
 21
159.312
 31
0.0
  0
LINE
  5
D3
330
17
100
AcDbEntity
  8
CUT
100
AcDbLine
 10
43.4123
 20
159.312
 30
0.0
 11
43.5536
 21
159.187
 31
0.0
  0
LINE
  5
D4
330
17
100
AcDbEntity
  8
CUT
100
AcDbLine
 10
43.5536
 20
159.187
 30
0.0
 11
43.6869
 21
159.054
 31
0.0
  0
LINE
  5
D5
330
17
100
AcDbEntity
  8
CUT
100
AcDbLine
 10
43.6869
 20
159.054
 30
0.0
 11
43.8115
 21
158.912
 31
0.0
  0
LINE
  5
D6
330
17
100
AcDbEntity
  8
CUT
100
AcDbLine
 10
43.8115
 20
158.912
 30
0.0
 11
43.9271
 21
158.763
 31
0.0
  0
LINE
  5
D7
330
17
100
AcDbEntity
  8
CUT
100
AcDbLine
 10
43.9271
 20
158.763
 30
0.0
 11
44.033
 21
158.607
 31
0.0
  0
LINE
  5
D8
330
17
100
AcDbEntity
  8
CUT
100
AcDbLine
 10
44.033
 20
158.607
 30
0.0
 11
44.1289
 21
158.445
 31
0.0
  0
LINE
  5
D9
330
17
100
AcDbEntity
  8
CUT
100
AcDbLine
 10
44.1289
 20
158.445
 30
0.0
 11
44.2145
 21
158.277
 31
0.0
  0
LINE
  5
DA
330
17
100
AcDbEntity
  8
CUT
100
AcDbLine
 10
44.2145
 20
158.277
 30
0.0
 11
44.2893
 21
158.104
 31
0.0
  0
LINE
  5
DB
330
17
100
AcDbEntity
  8
CUT
100
AcDbLine
 10
44.2893
 20
158.104
 30
0.0
 11
44.3532
 21
157.927
 31
0.0
  0
LINE
  5
DC
330
17
100
AcDbEntity
  8
CUT
100
AcDbLine
 10
44.3532
 20
157.927
 30
0.0
 11
44.4057
 21
157.746
 31
0.0
  0
LINE
  5
DD
330
17
100
AcDbEntity
  8
CUT
100
AcDbLine
 10
44.4057
 20
157.746
 30
0.0
 11
44.4469
 21
157.562
 31
0.0
  0
LINE
  5
DE
330
17
100
AcDbEntity
  8
CUT
100
AcDbLine
 10
44.4469
 20
157.562
 30
0.0
 11
44.4763
 21
157.376
 31
0.0
  0
LINE
  5
DF
330
17
100
AcDbEntity
  8
CUT
100
AcDbLine
 10
44.4763
 20
157.376
 30
0.0
 11
44.4941
 21
157.188
 31
0.0
  0
LINE
  5
E0
330
17
100
AcDbEntity
  8
CUT
100
AcDbLine
 10
44.4941
 20
157.188
 30
0.0
 11
44.5
 21
157.0
 31
0.0
  0
LINE
  5
E1
330
17
100
AcDbEntity
  8
CUT
100
AcDbLine
 10
44.5
 20
157.0
 30
0.0
 11
44.4941
 21
156.812
 31
0.0
  0
LINE
  5
E2
330
17
100
AcDbEntity
  8
CUT
100
AcDbLine
 10
44.4941
 20
156.812
 30
0.0
 11
44.4763
 21
156.624
 31
0.0
  0
LINE
  5
E3
330
17
100
AcDbEntity
  8
CUT
100
AcDbLine
 10
44.4763
 20
156.624
 30
0.0
 11
44.4469
 21
156.438
 31
0.0
  0
LINE
  5
E4
330
17
100
AcDbEntity
  8
CUT
100
AcDbLine
 10
44.4469
 20
156.438
 30
0.0
 11
44.4057
 21
156.254
 31
0.0
  0
LINE
  5
E5
330
17
100
AcDbEntity
  8
CUT
100
AcDbLine
 10
44.4057
 20
156.254
 30
0.0
 11
44.3532
 21
156.073
 31
0.0
  0
LINE
  5
E6
330
17
100
AcDbEntity
  8
CUT
100
AcDbLine
 10
44.3532
 20
156.073
 30
0.0
 11
44.2893
 21
155.896
 31
0.0
  0
LINE
  5
E7
330
17
100
AcDbEntity
  8
CUT
100
AcDbLine
 10
44.2893
 20
155.896
 30
0.0
 11
44.2145
 21
155.723
 31
0.0
  0
LINE
  5
E8
330
17
100
AcDbEntity
  8
CUT
100
AcDbLine
 10
44.2145
 20
155.723
 30
0.0
 11
44.1289
 21
155.555
 31
0.0
  0
LINE
  5
E9
330
17
100
AcDbEntity
  8
CUT
100
AcDbLine
 10
44.1289
 20
155.555
 30
0.0
 11
44.033
 21
155.393
 31
0.0
  0
LINE
  5
EA
330
17
100
AcDbEntity
  8
CUT
100
AcDbLine
 10
44.033
 20
155.393
 30
0.0
 11
43.9271
 21
155.237
 31
0.0
  0
LINE
  5
EB
330
17
100
AcDbEntity
  8
CUT
100
AcDbLine
 10
43.9271
 20
155.237
 30
0.0
 11
43.8115
 21
155.088
 31
0.0
  0
LINE
  5
EC
330
17
100
AcDbEntity
  8
CUT
100
AcDbLine
 10
43.8115
 20
155.088
 30
0.0
 11
43.6869
 21
154.946
 31
0.0
  0
LINE
  5
ED
330
17
100
AcDbEntity
  8
CUT
100
AcDbLine
 10
43.6869
 20
154.946
 30
0.0
 11
43.5536
 21
154.813
 31
0.0
  0
LINE
  5
EE
330
17
100
AcDbEntity
  8
CUT
100
AcDbLine
 10
43.5536
 20
154.813
 30
0.0
 11
43.4123
 21
154.688
 31
0.0
  0
LINE
  5
EF
330
17
100
AcDbEntity
  8
CUT
100
AcDbLine
 10
43.4123
 20
154.688
 30
0.0
 11
43.2634
 21
154.573
 31
0.0
  0
LINE
  5
F0
330
17
100
AcDbEntity
  8
CUT
100
AcDbLine
 10
43.2634
 20
154.573
 30
0.0
 11
43.1075
 21
154.467
 31
0.0
  0
LINE
  5
F1
330
17
100
AcDbEntity
  8
CUT
100
AcDbLine
 10
43.1075
 20
154.467
 30
0.0
 11
42.9453
 21
154.371
 31
0.0
  0
LINE
  5
F2
330
17
100
AcDbEntity
  8
CUT
100
AcDbLine
 10
42.9453
 20
154.371
 30
0.0
 11
42.7773
 21
154.286
 31
0.0
  0
LINE
  5
F3
330
17
100
AcDbEntity
  8
CUT
100
AcDbLine
 10
42.7773
 20
154.286
 30
0.0
 11
42.6044
 21
154.211
 31
0.0
  0
LINE
  5
F4
330
17
100
AcDbEntity
  8
CUT
100
AcDbLine
 10
42.6044
 20
154.211
 30
0.0
 11
42.4271
 21
154.147
 31
0.0
  0
LINE
  5
F5
330
17
100
AcDbEntity
  8
CUT
100
AcDbLine
 10
42.4271
 20
154.147
 30
0.0
 11
42.2461
 21
154.094
 31
0.0
  0
LINE
  5
F6
330
17
100
AcDbEntity
  8
CUT
100
AcDbLine
 10
42.2461
 20
154.094
 30
0.0
 11
42.0621
 21
154.053
 31
0.0
  0
LINE
  5
F7
330
17
100
AcDbEntity
  8
CUT
100
AcDbLine
 10
42.0621
 20
154.053
 30
0.0
 11
41.876
 21
154.024
 31
0.0
  0
LINE
  5
F8
330
17
100
AcDbEntity
  8
CUT
100
AcDbLine
 10
41.876
 20
154.024
 30
0.0
 11
41.6884
 21
154.006
 31
0.0
  0
LINE
  5
F9
330
17
100
AcDbEntity
  8
CUT
100
AcDbLine
 10
41.6884
 20
154.006
 30
0.0
 11
41.5
 21
154.0
 31
0.0
  0
LINE
  5
FA
330
17
100
AcDbEntity
  8
CUT
100
AcDbLine
 10
41.5
 20
154.0
 30
0.0
 11
41.3116
 21
154.006
 31
0.0
  0
LINE
  5
FB
330
17
100
AcDbEntity
  8
CUT
100
AcDbLine
 10
41.3116
 20
154.006
 30
0.0
 11
41.124
 21
154.024
 31
0.0
  0
LINE
  5
FC
330
17
100
AcDbEntity
  8
CUT
100
AcDbLine
 10
41.124
 20
154.024
 30
0.0
 11
40.9379
 21
154.053
 31
0.0
  0
LINE
  5
FD
330
17
100
AcDbEntity
  8
CUT
100
AcDbLine
 10
40.9379
 20
154.053
 30
0.0
 11
40.7539
 21
154.094
 31
0.0
  0
LINE
  5
FE
330
17
100
AcDbEntity
  8
CUT
100
AcDbLine
 10
40.7539
 20
154.094
 30
0.0
 11
40.5729
 21
154.147
 31
0.0
  0
LINE
  5
FF
330
17
100
AcDbEntity
  8
CUT
100
AcDbLine
 10
40.5729
 20
154.147
 30
0.0
 11
40.3956
 21
154.211
 31
0.0
  0
LINE
  5
100
330
17
100
AcDbEntity
  8
CUT
100
AcDbLine
 10
40.3956
 20
154.211
 30
0.0
 11
40.2227
 21
154.286
 31
0.0
  0
LINE
  5
101
330
17
100
AcDbEntity
  8
CUT
100
AcDbLine
 10
40.2227
 20
154.286
 30
0.0
 11
40.0547
 21
154.371
 31
0.0
  0
LINE
  5
102
330
17
100
AcDbEntity
  8
CUT
100
AcDbLine
 10
40.0547
 20
154.371
 30
0.0
 11
39.8925
 21
154.467
 31
0.0
  0
LINE
  5
103
330
17
100
AcDbEntity
  8
CUT
100
AcDbLine
 10
39.8925
 20
154.467
 30
0.0
 11
39.7366
 21
154.573
 31
0.0
  0
LINE
  5
104
330
17
100
AcDbEntity
  8
CUT
100
AcDbLine
 10
39.7366
 20
154.573
 30
0.0
 11
39.5877
 21
154.688
 31
0.0
  0
LINE
  5
105
330
17
100
AcDbEntity
  8
CUT
100
AcDbLine
 10
39.5877
 20
154.688
 30
0.0
 11
39.4464
 21
154.813
 31
0.0
  0
LINE
  5
106
330
17
100
AcDbEntity
  8
CUT
100
AcDbLine
 10
39.4464
 20
154.813
 30
0.0
 11
39.3131
 21
154.946
 31
0.0
  0
LINE
  5
107
330
17
100
AcDbEntity
  8
CUT
100
AcDbLine
 10
39.3131
 20
154.946
 30
0.0
 11
39.1885
 21
155.088
 31
0.0
  0
LINE
  5
108
330
17
100
AcDbEntity
  8
CUT
100
AcDbLine
 10
39.1885
 20
155.088
 30
0.0
 11
39.0729
 21
155.237
 31
0.0
  0
LINE
  5
109
330
17
100
AcDbEntity
  8
CUT
100
AcDbLine
 10
39.0729
 20
155.237
 30
0.0
 11
38.967
 21
155.393
 31
0.0
  0
LINE
  5
10A
330
17
100
AcDbEntity
  8
CUT
100
AcDbLine
 10
38.967
 20
155.393
 30
0.0
 11
38.8711
 21
155.555
 31
0.0
  0
LINE
  5
10B
330
17
100
AcDbEntity
  8
CUT
100
AcDbLine
 10
38.8711
 20
155.555
 30
0.0
 11
38.7855
 21
155.723
 31
0.0
  0
LINE
  5
10C
330
17
100
AcDbEntity
  8
CUT
100
AcDbLine
 10
38.7855
 20
155.723
 30
0.0
 11
38.7107
 21
155.896
 31
0.0
  0
LINE
  5
10D
330
17
100
AcDbEntity
  8
CUT
100
AcDbLine
 10
38.7107
 20
155.896
 30
0.0
 11
38.6468
 21
156.073
 31
0.0
  0
LINE
  5
10E
330
17
100
AcDbEntity
  8
CUT
100
AcDbLine
 10
38.6468
 20
156.073
 30
0.0
 11
38.5942
 21
156.254
 31
0.0
  0
LINE
  5
10F
330
17
100
AcDbEntity
  8
CUT
100
AcDbLine
 10
38.5942
 20
156.254
 30
0.0
 11
38.5531
 21
156.438
 31
0.0
  0
LINE
  5
110
330
17
100
AcDbEntity
  8
CUT
100
AcDbLine
 10
38.5531
 20
156.438
 30
0.0
 11
38.5237
 21
156.624
 31
0.0
  0
LINE
  5
111
330
17
100
AcDbEntity
  8
CUT
100
AcDbLine
 10
38.5237
 20
156.624
 30
0.0
 11
38.5059
 21
156.812
 31
0.0
  0
LINE
  5
112
330
17
100
AcDbEntity
  8
CUT
100
AcDbLine
 10
38.5059
 20
156.812
 30
0.0
 11
38.5
 21
157.0
 31
0.0
  0
LINE
  5
113
330
17
100
AcDbEntity
  8
CUT
100
AcDbLine
 10
88.5
 20
6.0
 30
0.0
 11
88.5059
 21
6.18837
 31
0.0
  0
LINE
  5
114
330
17
100
AcDbEntity
  8
CUT
100
AcDbLine
 10
88.5059
 20
6.18837
 30
0.0
 11
88.5237
 21
6.376
 31
0.0
  0
LINE
  5
115
330
17
100
AcDbEntity
  8
CUT
100
AcDbLine
 10
88.5237
 20
6.376
 30
0.0
 11
88.5531
 21
6.56214
 31
0.0
  0
LINE
  5
116
330
17
100
AcDbEntity
  8
CUT
100
AcDbLine
 10
88.5531
 20
6.56214
 30
0.0
 11
88.5942
 21
6.74607
 31
0.0
  0
LINE
  5
117
330
17
100
AcDbEntity
  8
CUT
100
AcDbLine
 10
88.5942
 20
6.74607
 30
0.0
 11
88.6468
 21
6.92705
 31
0.0
  0
LINE
  5
118
330
17
100
AcDbEntity
  8
CUT
100
AcDbLine
 10
88.6468
 20
6.92705
 30
0.0
 11
88.7107
 21
7.10437
 31
0.0
  0
LINE
  5
119
330
17
100
AcDbEntity
  8
CUT
100
AcDbLine
 10
88.7107
 20
7.10437
 30
0.0
 11
88.7855
 21
7.27734
 31
0.0
  0
LINE
  5
11A
330
17
100
AcDbEntity
  8
CUT
100
AcDbLine
 10
88.7855
 20
7.27734
 30
0.0
 11
88.8711
 21
7.44526
 31
0.0
  0
LINE
  5
11B
330
17
100
AcDbEntity
  8
CUT
100
AcDbLine
 10
88.8711
 20
7.44526
 30
0.0
 11
88.967
 21
7.60748
 31
0.0
  0
LINE
  5
11C
330
17
100
AcDbEntity
  8
CUT
100
AcDbLine
 10
88.967
 20
7.60748
 30
0.0
 11
89.0729
 21
7.76336
 31
0.0
  0
LINE
  5
11D
330
17
100
AcDbEntity
  8
CUT
100
AcDbLine
 10
89.0729
 20
7.76336
 30
0.0
 11
89.1885
 21
7.91227
 31
0.0
  0
LINE
  5
11E
330
17
100
AcDbEntity
  8
CUT
100
AcDbLine
 10
89.1885
 20
7.91227
 30
0.0
 11
89.3131
 21
8.05364
 31
0.0
  0
LINE
  5
11F
330
17
100
AcDbEntity
  8
CUT
100
AcDbLine
 10
89.3131
 20
8.05364
 30
0.0
 11
89.4464
 21
8.18691
 31
0.0
  0
LINE
  5
120
330
17
100
AcDbEntity
  8
CUT
100
AcDbLine
 10
89.4464
 20
8.18691
 30
0.0
 11
89.5877
 21
8.31154
 31
0.0
  0
LINE
  5
121
330
17
100
AcDbEntity
  8
CUT
100
AcDbLine
 10
89.5877
 20
8.31154
 30
0.0
 11
89.7366
 21
8.42705
 31
0.0
  0
LINE
  5
122
330
17
100
AcDbEntity
  8
CUT
100
AcDbLine
 10
89.7366
 20
8.42705
 30
0.0
 11
89.8925
 21
8.53298
 31
0.0
  0
LINE
  5
123
330
17
100
AcDbEntity
  8
CUT
100
AcDbLine
 10
89.8925
 20
8.53298
 30
0.0
 11
90.0547
 21
8.62892
 31
0.0
  0
LINE
  5
124
330
17
100
AcDbEntity
  8
CUT
100
AcDbLine
 10
90.0547
 20
8.62892
 30
0.0
 11
90.2227
 21
8.71448
 31
0.0
  0
LINE
  5
125
330
17
100
AcDbEntity
  8
CUT
100
AcDbLine
 10
90.2227
 20
8.71448
 30
0.0
 11
90.3956
 21
8.78933
 31
0.0
  0
LINE
  5
126
330
17
100
AcDbEntity
  8
CUT
100
AcDbLine
 10
90.3956
 20
8.78933
 30
0.0
 11
90.5729
 21
8.85317
 31
0.0
  0
LINE
  5
127
330
17
100
AcDbEntity
  8
CUT
100
AcDbLine
 10
90.5729
 20
8.85317
 30
0.0
 11
90.7539
 21
8.90575
 31
0.0
  0
LINE
  5
128
330
17
100
AcDbEntity
  8
CUT
100
AcDbLine
 10
90.7539
 20
8.90575
 30
0.0
 11
90.9379
 21
8.94686
 31
0.0
  0
LINE
  5
129
330
17
100
AcDbEntity
  8
CUT
100
AcDbLine
 10
90.9379
 20
8.94686
 30
0.0
 11
91.124
 21
8.97634
 31
0.0
  0
LINE
  5
12A
330
17
100
AcDbEntity
  8
CUT
100
AcDbLine
 10
91.124
 20
8.97634
 30
0.0
 11
91.3116
 21
8.99408
 31
0.0
  0
LINE
  5
12B
330
17
100
AcDbEntity
  8
CUT
100
AcDbLine
 10
91.3116
 20
8.99408
 30
0.0
 11
91.5
 21
9.0
 31
0.0
  0
LINE
  5
12C
330
17
100
AcDbEntity
  8
CUT
100
AcDbLine
 10
91.5
 20
9.0
 30
0.0
 11
91.6884
 21
8.99408
 31
0.0
  0
LINE
  5
12D
330
17
100
AcDbEntity
  8
CUT
100
AcDbLine
 10
91.6884
 20
8.99408
 30
0.0
 11
91.876
 21
8.97634
 31
0.0
  0
LINE
  5
12E
330
17
100
AcDbEntity
  8
CUT
100
AcDbLine
 10
91.876
 20
8.97634
 30
0.0
 11
92.0621
 21
8.94686
 31
0.0
  0
LINE
  5
12F
330
17
100
AcDbEntity
  8
CUT
100
AcDbLine
 10
92.0621
 20
8.94686
 30
0.0
 11
92.2461
 21
8.90575
 31
0.0
  0
LINE
  5
130
330
17
100
AcDbEntity
  8
CUT
100
AcDbLine
 10
92.2461
 20
8.90575
 30
0.0
 11
92.4271
 21
8.85317
 31
0.0
  0
LINE
  5
131
330
17
100
AcDbEntity
  8
CUT
100
AcDbLine
 10
92.4271
 20
8.85317
 30
0.0
 11
92.6044
 21
8.78933
 31
0.0
  0
LINE
  5
132
330
17
100
AcDbEntity
  8
CUT
100
AcDbLine
 10
92.6044
 20
8.78933
 30
0.0
 11
92.7773
 21
8.71448
 31
0.0
  0
LINE
  5
133
330
17
100
AcDbEntity
  8
CUT
100
AcDbLine
 10
92.7773
 20
8.71448
 30
0.0
 11
92.9453
 21
8.62892
 31
0.0
  0
LINE
  5
134
330
17
100
AcDbEntity
  8
CUT
100
AcDbLine
 10
92.9453
 20
8.62892
 30
0.0
 11
93.1075
 21
8.53298
 31
0.0
  0
LINE
  5
135
330
17
100
AcDbEntity
  8
CUT
100
AcDbLine
 10
93.1075
 20
8.53298
 30
0.0
 11
93.2634
 21
8.42705
 31
0.0
  0
LINE
  5
136
330
17
100
AcDbEntity
  8
CUT
100
AcDbLine
 10
93.2634
 20
8.42705
 30
0.0
 11
93.4123
 21
8.31154
 31
0.0
  0
LINE
  5
137
330
17
100
AcDbEntity
  8
CUT
100
AcDbLine
 10
93.4123
 20
8.31154
 30
0.0
 11
93.5536
 21
8.18691
 31
0.0
  0
LINE
  5
138
330
17
100
AcDbEntity
  8
CUT
100
AcDbLine
 10
93.5536
 20
8.18691
 30
0.0
 11
93.6869
 21
8.05364
 31
0.0
  0
LINE
  5
139
330
17
100
AcDbEntity
  8
CUT
100
AcDbLine
 10
93.6869
 20
8.05364
 30
0.0
 11
93.8115
 21
7.91227
 31
0.0
  0
LINE
  5
13A
330
17
100
AcDbEntity
  8
CUT
100
AcDbLine
 10
93.8115
 20
7.91227
 30
0.0
 11
93.9271
 21
7.76336
 31
0.0
  0
LINE
  5
13B
330
17
100
AcDbEntity
  8
CUT
100
AcDbLine
 10
93.9271
 20
7.76336
 30
0.0
 11
94.033
 21
7.60748
 31
0.0
  0
LINE
  5
13C
330
17
100
AcDbEntity
  8
CUT
100
AcDbLine
 10
94.033
 20
7.60748
 30
0.0
 11
94.1289
 21
7.44526
 31
0.0
  0
LINE
  5
13D
330
17
100
AcDbEntity
  8
CUT
100
AcDbLine
 10
94.1289
 20
7.44526
 30
0.0
 11
94.2145
 21
7.27734
 31
0.0
  0
LINE
  5
13E
330
17
100
AcDbEntity
  8
CUT
100
AcDbLine
 10
94.2145
 20
7.27734
 30
0.0
 11
94.2893
 21
7.10437
 31
0.0
  0
LINE
  5
13F
330
17
100
AcDbEntity
  8
CUT
100
AcDbLine
 10
94.2893
 20
7.10437
 30
0.0
 11
94.3532
 21
6.92705
 31
0.0
  0
LINE
  5
140
330
17
100
AcDbEntity
  8
CUT
100
AcDbLine
 10
94.3532
 20
6.92705
 30
0.0
 11
94.4057
 21
6.74607
 31
0.0
  0
LINE
  5
141
330
17
100
AcDbEntity
  8
CUT
100
AcDbLine
 10
94.4057
 20
6.74607
 30
0.0
 11
94.4469
 21
6.56214
 31
0.0
  0
LINE
  5
142
330
17
100
AcDbEntity
  8
CUT
100
AcDbLine
 10
94.4469
 20
6.56214
 30
0.0
 11
94.4763
 21
6.376
 31
0.0
  0
LINE
  5
143
330
17
100
AcDbEntity
  8
CUT
100
AcDbLine
 10
94.4763
 20
6.376
 30
0.0
 11
94.4941
 21
6.18837
 31
0.0
  0
LINE
  5
144
330
17
100
AcDbEntity
  8
CUT
100
AcDbLine
 10
94.4941
 20
6.18837
 30
0.0
 11
94.5
 21
6.0
 31
0.0
  0
LINE
  5
145
330
17
100
AcDbEntity
  8
CUT
100
AcDbLine
 10
94.5
 20
6.0
 30
0.0
 11
94.4941
 21
5.81163
 31
0.0
  0
LINE
  5
146
330
17
100
AcDbEntity
  8
CUT
100
AcDbLine
 10
94.4941
 20
5.81163
 30
0.0
 11
94.4763
 21
5.624
 31
0.0
  0
LINE
  5
147
330
17
100
AcDbEntity
  8
CUT
100
AcDbLine
 10
94.4763
 20
5.624
 30
0.0
 11
94.4469
 21
5.43786
 31
0.0
  0
LINE
  5
148
330
17
100
AcDbEntity
  8
CUT
100
AcDbLine
 10
94.4469
 20
5.43786
 30
0.0
 11
94.4057
 21
5.25393
 31
0.0
  0
LINE
  5
149
330
17
100
AcDbEntity
  8
CUT
100
AcDbLine
 10
94.4057
 20
5.25393
 30
0.0
 11
94.3532
 21
5.07295
 31
0.0
  0
LINE
  5
14A
330
17
100
AcDbEntity
  8
CUT
100
AcDbLine
 10
94.3532
 20
5.07295
 30
0.0
 11
94.2893
 21
4.89563
 31
0.0
  0
LINE
  5
14B
330
17
100
AcDbEntity
  8
CUT
100
AcDbLine
 10
94.2893
 20
4.89563
 30
0.0
 11
94.2145
 21
4.72266
 31
0.0
  0
LINE
  5
14C
330
17
100
AcDbEntity
  8
CUT
100
AcDbLine
 10
94.2145
 20
4.72266
 30
0.0
 11
94.1289
 21
4.55474
 31
0.0
  0
LINE
  5
14D
330
17
100
AcDbEntity
  8
CUT
100
AcDbLine
 10
94.1289
 20
4.55474
 30
0.0
 11
94.033
 21
4.39252
 31
0.0
  0
LINE
  5
14E
330
17
100
AcDbEntity
  8
CUT
100
AcDbLine
 10
94.033
 20
4.39252
 30
0.0
 11
93.9271
 21
4.23664
 31
0.0
  0
LINE
  5
14F
330
17
100
AcDbEntity
  8
CUT
100
AcDbLine
 10
93.9271
 20
4.23664
 30
0.0
 11
93.8115
 21
4.08773
 31
0.0
  0
LINE
  5
150
330
17
100
AcDbEntity
  8
CUT
100
AcDbLine
 10
93.8115
 20
4.08773
 30
0.0
 11
93.6869
 21
3.94636
 31
0.0
  0
LINE
  5
151
330
17
100
AcDbEntity
  8
CUT
100
AcDbLine
 10
93.6869
 20
3.94636
 30
0.0
 11
93.5536
 21
3.81309
 31
0.0
  0
LINE
  5
152
330
17
100
AcDbEntity
  8
CUT
100
AcDbLine
 10
93.5536
 20
3.81309
 30
0.0
 11
93.4123
 21
3.68846
 31
0.0
  0
LINE
  5
153
330
17
100
AcDbEntity
  8
CUT
100
AcDbLine
 10
93.4123
 20
3.68846
 30
0.0
 11
93.2634
 21
3.57295
 31
0.0
  0
LINE
  5
154
330
17
100
AcDbEntity
  8
CUT
100
AcDbLine
 10
93.2634
 20
3.57295
 30
0.0
 11
93.1075
 21
3.46702
 31
0.0
  0
LINE
  5
155
330
17
100
AcDbEntity
  8
CUT
100
AcDbLine
 10
93.1075
 20
3.46702
 30
0.0
 11
92.9453
 21
3.37108
 31
0.0
  0
LINE
  5
156
330
17
100
AcDbEntity
  8
CUT
100
AcDbLine
 10
92.9453
 20
3.37108
 30
0.0
 11
92.7773
 21
3.28552
 31
0.0
  0
LINE
  5
157
330
17
100
AcDbEntity
  8
CUT
100
AcDbLine
 10
92.7773
 20
3.28552
 30
0.0
 11
92.6044
 21
3.21067
 31
0.0
  0
LINE
  5
158
330
17
100
AcDbEntity
  8
CUT
100
AcDbLine
 10
92.6044
 20
3.21067
 30
0.0
 11
92.4271
 21
3.14683
 31
0.0
  0
LINE
  5
159
330
17
100
AcDbEntity
  8
CUT
100
AcDbLine
 10
92.4271
 20
3.14683
 30
0.0
 11
92.2461
 21
3.09425
 31
0.0
  0
LINE
  5
15A
330
17
100
AcDbEntity
  8
CUT
100
AcDbLine
 10
92.2461
 20
3.09425
 30
0.0
 11
92.0621
 21
3.05314
 31
0.0
  0
LINE
  5
15B
330
17
100
AcDbEntity
  8
CUT
100
AcDbLine
 10
92.0621
 20
3.05314
 30
0.0
 11
91.876
 21
3.02366
 31
0.0
  0
LINE
  5
15C
330
17
100
AcDbEntity
  8
CUT
100
AcDbLine
 10
91.876
 20
3.02366
 30
0.0
 11
91.6884
 21
3.00592
 31
0.0
  0
LINE
  5
15D
330
17
100
AcDbEntity
  8
CUT
100
AcDbLine
 10
91.6884
 20
3.00592
 30
0.0
 11
91.5
 21
3.0
 31
0.0
  0
LINE
  5
15E
330
17
100
AcDbEntity
  8
CUT
100
AcDbLine
 10
91.5
 20
3.0
 30
0.0
 11
91.3116
 21
3.00592
 31
0.0
  0
LINE
  5
15F
330
17
100
AcDbEntity
  8
CUT
100
AcDbLine
 10
91.3116
 20
3.00592
 30
0.0
 11
91.124
 21
3.02366
 31
0.0
  0
LINE
  5
160
330
17
100
AcDbEntity
  8
CUT
100
AcDbLine
 10
91.124
 20
3.02366
 30
0.0
 11
90.9379
 21
3.05314
 31
0.0
  0
LINE
  5
161
330
17
100
AcDbEntity
  8
CUT
100
AcDbLine
 10
90.9379
 20
3.05314
 30
0.0
 11
90.7539
 21
3.09425
 31
0.0
  0
LINE
  5
162
330
17
100
AcDbEntity
  8
CUT
100
AcDbLine
 10
90.7539
 20
3.09425
 30
0.0
 11
90.5729
 21
3.14683
 31
0.0
  0
LINE
  5
163
330
17
100
AcDbEntity
  8
CUT
100
AcDbLine
 10
90.5729
 20
3.14683
 30
0.0
 11
90.3956
 21
3.21067
 31
0.0
  0
LINE
  5
164
330
17
100
AcDbEntity
  8
CUT
100
AcDbLine
 10
90.3956
 20
3.21067
 30
0.0
 11
90.2227
 21
3.28552
 31
0.0
  0
LINE
  5
165
330
17
100
AcDbEntity
  8
CUT
100
AcDbLine
 10
90.2227
 20
3.28552
 30
0.0
 11
90.0547
 21
3.37108
 31
0.0
  0
LINE
  5
166
330
17
100
AcDbEntity
  8
CUT
100
AcDbLine
 10
90.0547
 20
3.37108
 30
0.0
 11
89.8925
 21
3.46702
 31
0.0
  0
LINE
  5
167
330
17
100
AcDbEntity
  8
CUT
100
AcDbLine
 10
89.8925
 20
3.46702
 30
0.0
 11
89.7366
 21
3.57295
 31
0.0
  0
LINE
  5
168
330
17
100
AcDbEntity
  8
CUT
100
AcDbLine
 10
89.7366
 20
3.57295
 30
0.0
 11
89.5877
 21
3.68846
 31
0.0
  0
LINE
  5
169
330
17
100
AcDbEntity
  8
CUT
100
AcDbLine
 10
89.5877
 20
3.68846
 30
0.0
 11
89.4464
 21
3.81309
 31
0.0
  0
LINE
  5
16A
330
17
100
AcDbEntity
  8
CUT
100
AcDbLine
 10
89.4464
 20
3.81309
 30
0.0
 11
89.3131
 21
3.94636
 31
0.0
  0
LINE
  5
16B
330
17
100
AcDbEntity
  8
CUT
100
AcDbLine
 10
89.3131
 20
3.94636
 30
0.0
 11
89.1885
 21
4.08773
 31
0.0
  0
LINE
  5
16C
330
17
100
AcDbEntity
  8
CUT
100
AcDbLine
 10
89.1885
 20
4.08773
 30
0.0
 11
89.0729
 21
4.23664
 31
0.0
  0
LINE
  5
16D
330
17
100
AcDbEntity
  8
CUT
100
AcDbLine
 10
89.0729
 20
4.23664
 30
0.0
 11
88.967
 21
4.39252
 31
0.0
  0
LINE
  5
16E
330
17
100
AcDbEntity
  8
CUT
100
AcDbLine
 10
88.967
 20
4.39252
 30
0.0
 11
88.8711
 21
4.55474
 31
0.0
  0
LINE
  5
16F
330
17
100
AcDbEntity
  8
CUT
100
AcDbLine
 10
88.8711
 20
4.55474
 30
0.0
 11
88.7855
 21
4.72266
 31
0.0
  0
LINE
  5
170
330
17
100
AcDbEntity
  8
CUT
100
AcDbLine
 10
88.7855
 20
4.72266
 30
0.0
 11
88.7107
 21
4.89563
 31
0.0
  0
LINE
  5
171
330
17
100
AcDbEntity
  8
CUT
100
AcDbLine
 10
88.7107
 20
4.89563
 30
0.0
 11
88.6468
 21
5.07295
 31
0.0
  0
LINE
  5
172
330
17
100
AcDbEntity
  8
CUT
100
AcDbLine
 10
88.6468
 20
5.07295
 30
0.0
 11
88.5942
 21
5.25393
 31
0.0
  0
LINE
  5
173
330
17
100
AcDbEntity
  8
CUT
100
AcDbLine
 10
88.5942
 20
5.25393
 30
0.0
 11
88.5531
 21
5.43786
 31
0.0
  0
LINE
  5
174
330
17
100
AcDbEntity
  8
CUT
100
AcDbLine
 10
88.5531
 20
5.43786
 30
0.0
 11
88.5237
 21
5.624
 31
0.0
  0
LINE
  5
175
330
17
100
AcDbEntity
  8
CUT
100
AcDbLine
 10
88.5237
 20
5.624
 30
0.0
 11
88.5059
 21
5.81163
 31
0.0
  0
LINE
  5
176
330
17
100
AcDbEntity
  8
CUT
100
AcDbLine
 10
88.5059
 20
5.81163
 30
0.0
 11
88.5
 21
6.0
 31
0.0
  0
LINE
  5
177
330
17
100
AcDbEntity
  8
CUT
100
AcDbLine
 10
216.5
 20
103.0
 30
0.0
 11
216.504
 21
103.126
 31
0.0
  0
LINE
  5
178
330
17
100
AcDbEntity
  8
CUT
100
AcDbLine
 10
216.504
 20
103.126
 30
0.0
 11
216.516
 21
103.251
 31
0.0
  0
LINE
  5
179
330
17
100
AcDbEntity
  8
CUT
100
AcDbLine
 10
216.516
 20
103.251
 30
0.0
 11
216.535
 21
103.375
 31
0.0
  0
LINE
  5
17A
330
17
100
AcDbEntity
  8
CUT
100
AcDbLine
 10
216.535
 20
103.375
 30
0.0
 11
216.563
 21
103.497
 31
0.0
  0
LINE
  5
17B
330
17
100
AcDbEntity
  8
CUT
100
AcDbLine
 10
216.563
 20
103.497
 30
0.0
 11
216.598
 21
103.618
 31
0.0
  0
LINE
  5
17C
330
17
100
AcDbEntity
  8
CUT
100
AcDbLine
 10
216.598
 20
103.618
 30
0.0
 11
216.64
 21
103.736
 31
0.0
  0
LINE
  5
17D
330
17
100
AcDbEntity
  8
CUT
100
AcDbLine
 10
216.64
 20
103.736
 30
0.0
 11
216.69
 21
103.852
 31
0.0
  0
LINE
  5
17E
330
17
100
AcDbEntity
  8
CUT
100
AcDbLine
 10
216.69
 20
103.852
 30
0.0
 11
216.747
 21
103.964
 31
0.0
  0
LINE
  5
17F
330
17
100
AcDbEntity
  8
CUT
100
AcDbLine
 10
216.747
 20
103.964
 30
0.0
 11
216.811
 21
104.072
 31
0.0
  0
LINE
  5
180
330
17
100
AcDbEntity
  8
CUT
100
AcDbLine
 10
216.811
 20
104.072
 30
0.0
 11
216.882
 21
104.176
 31
0.0
  0
LINE
  5
181
330
17
100
AcDbEntity
  8
CUT
100
AcDbLine
 10
216.882
 20
104.176
 30
0.0
 11
216.959
 21
104.275
 31
0.0
  0
LINE
  5
182
330
17
100
AcDbEntity
  8
CUT
100
AcDbLine
 10
216.959
 20
104.275
 30
0.0
 11
217.042
 21
104.369
 31
0.0
  0
LINE
  5
183
330
17
100
AcDbEntity
  8
CUT
100
AcDbLine
 10
217.042
 20
104.369
 30
0.0
 11
217.131
 21
104.458
 31
0.0
  0
LINE
  5
184
330
17
100
AcDbEntity
  8
CUT
100
AcDbLine
 10
217.131
 20
104.458
 30
0.0
 11
217.225
 21
104.541
 31
0.0
  0
LINE
  5
185
330
17
100
AcDbEntity
  8
CUT
100
AcDbLine
 10
217.225
 20
104.541
 30
0.0
 11
217.324
 21
104.618
 31
0.0
  0
LINE
  5
186
330
17
100
AcDbEntity
  8
CUT
100
AcDbLine
 10
217.324
 20
104.618
 30
0.0
 11
217.428
 21
104.689
 31
0.0
  0
LINE
  5
187
330
17
100
AcDbEntity
  8
CUT
100
AcDbLine
 10
217.428
 20
104.689
 30
0.0
 11
217.536
 21
104.753
 31
0.0
  0
LINE
  5
188
330
17
100
AcDbEntity
  8
CUT
100
AcDbLine
 10
217.536
 20
104.753
 30
0.0
 11
217.648
 21
104.81
 31
0.0
  0
LINE
  5
189
330
17
100
AcDbEntity
  8
CUT
100
AcDbLine
 10
217.648
 20
104.81
 30
0.0
 11
217.764
 21
104.86
 31
0.0
  0
LINE
  5
18A
330
17
100
AcDbEntity
  8
CUT
100
AcDbLine
 10
217.764
 20
104.86
 30
0.0
 11
217.882
 21
104.902
 31
0.0
  0
LINE
  5
18B
330
17
100
AcDbEntity
  8
CUT
100
AcDbLine
 10
217.882
 20
104.902
 30
0.0
 11
218.003
 21
104.937
 31
0.0
  0
LINE
  5
18C
330
17
100
AcDbEntity
  8
CUT
100
AcDbLine
 10
218.003
 20
104.937
 30
0.0
 11
218.125
 21
104.965
 31
0.0
  0
LINE
  5
18D
330
17
100
AcDbEntity
  8
CUT
100
AcDbLine
 10
218.125
 20
104.965
 30
0.0
 11
218.249
 21
104.984
 31
0.0
  0
LINE
  5
18E
330
17
100
AcDbEntity
  8
CUT
100
AcDbLine
 10
218.249
 20
104.984
 30
0.0
 11
218.374
 21
104.996
 31
0.0
  0
LINE
  5
18F
330
17
100
AcDbEntity
  8
CUT
100
AcDbLine
 10
218.374
 20
104.996
 30
0.0
 11
218.5
 21
105.0
 31
0.0
  0
LINE
  5
190
330
17
100
AcDbEntity
  8
CUT
100
AcDbLine
 10
218.5
 20
105.0
 30
0.0
 11
218.626
 21
104.996
 31
0.0
  0
LINE
  5
191
330
17
100
AcDbEntity
  8
CUT
100
AcDbLine
 10
218.626
 20
104.996
 30
0.0
 11
218.751
 21
104.984
 31
0.0
  0
LINE
  5
192
330
17
100
AcDbEntity
  8
CUT
100
AcDbLine
 10
218.751
 20
104.984
 30
0.0
 11
218.875
 21
104.965
 31
0.0
  0
LINE
  5
193
330
17
100
AcDbEntity
  8
CUT
100
AcDbLine
 10
218.875
 20
104.965
 30
0.0
 11
218.997
 21
104.937
 31
0.0
  0
LINE
  5
194
330
17
100
AcDbEntity
  8
CUT
100
AcDbLine
 10
218.997
 20
104.937
 30
0.0
 11
219.118
 21
104.902
 31
0.0
  0
LINE
  5
195
330
17
100
AcDbEntity
  8
CUT
100
AcDbLine
 10
219.118
 20
104.902
 30
0.0
 11
219.236
 21
104.86
 31
0.0
  0
LINE
  5
196
330
17
100
AcDbEntity
  8
CUT
100
AcDbLine
 10
219.236
 20
104.86
 30
0.0
 11
219.352
 21
104.81
 31
0.0
  0
LINE
  5
197
330
17
100
AcDbEntity
  8
CUT
100
AcDbLine
 10
219.352
 20
104.81
 30
0.0
 11
219.464
 21
104.753
 31
0.0
  0
LINE
  5
198
330
17
100
AcDbEntity
  8
CUT
100
AcDbLine
 10
219.464
 20
104.753
 30
0.0
 11
219.572
 21
104.689
 31
0.0
  0
LINE
  5
199
330
17
100
AcDbEntity
  8
CUT
100
AcDbLine
 10
219.572
 20
104.689
 30
0.0
 11
219.676
 21
104.618
 31
0.0
  0
LINE
  5
19A
330
17
100
AcDbEntity
  8
CUT
100
AcDbLine
 10
219.676
 20
104.618
 30
0.0
 11
219.775
 21
104.541
 31
0.0
  0
LINE
  5
19B
330
17
100
AcDbEntity
  8
CUT
100
AcDbLine
 10
219.775
 20
104.541
 30
0.0
 11
219.869
 21
104.458
 31
0.0
  0
LINE
  5
19C
330
17
100
AcDbEntity
  8
CUT
100
AcDbLine
 10
219.869
 20
104.458
 30
0.0
 11
219.958
 21
104.369
 31
0.0
  0
LINE
  5
19D
330
17
100
AcDbEntity
  8
CUT
100
AcDbLine
 10
219.958
 20
104.369
 30
0.0
 11
220.041
 21
104.275
 31
0.0
  0
LINE
  5
19E
330
17
100
AcDbEntity
  8
CUT
100
AcDbLine
 10
220.041
 20
104.275
 30
0.0
 11
220.118
 21
104.176
 31
0.0
  0
LINE
  5
19F
330
17
100
AcDbEntity
  8
CUT
100
AcDbLine
 10
220.118
 20
104.176
 30
0.0
 11
220.189
 21
104.072
 31
0.0
  0
LINE
  5
1A0
330
17
100
AcDbEntity
  8
CUT
100
AcDbLine
 10
220.189
 20
104.072
 30
0.0
 11
220.253
 21
103.964
 31
0.0
  0
LINE
  5
1A1
330
17
100
AcDbEntity
  8
CUT
100
AcDbLine
 10
220.253
 20
103.964
 30
0.0
 11
220.31
 21
103.852
 31
0.0
  0
LINE
  5
1A2
330
17
100
AcDbEntity
  8
CUT
100
AcDbLine
 10
220.31
 20
103.852
 30
0.0
 11
220.36
 21
103.736
 31
0.0
  0
LINE
  5
1A3
330
17
100
AcDbEntity
  8
CUT
100
AcDbLine
 10
220.36
 20
103.736
 30
0.0
 11
220.402
 21
103.618
 31
0.0
  0
LINE
  5
1A4
330
17
100
AcDbEntity
  8
CUT
100
AcDbLine
 10
220.402
 20
103.618
 30
0.0
 11
220.437
 21
103.497
 31
0.0
  0
LINE
  5
1A5
330
17
100
AcDbEntity
  8
CUT
100
AcDbLine
 10
220.437
 20
103.497
 30
0.0
 11
220.465
 21
103.375
 31
0.0
  0
LINE
  5
1A6
330
17
100
AcDbEntity
  8
CUT
100
AcDbLine
 10
220.465
 20
103.375
 30
0.0
 11
220.484
 21
103.251
 31
0.0
  0
LINE
  5
1A7
330
17
100
AcDbEntity
  8
CUT
100
AcDbLine
 10
220.484
 20
103.251
 30
0.0
 11
220.496
 21
103.126
 31
0.0
  0
LINE
  5
1A8
330
17
100
AcDbEntity
  8
CUT
100
AcDbLine
 10
220.496
 20
103.126
 30
0.0
 11
220.5
 21
103.0
 31
0.0
  0
LINE
  5
1A9
330
17
100
AcDbEntity
  8
CUT
100
AcDbLine
 10
220.5
 20
103.0
 30
0.0
 11
220.496
 21
102.874
 31
0.0
  0
LINE
  5
1AA
330
17
100
AcDbEntity
  8
CUT
100
AcDbLine
 10
220.496
 20
102.874
 30
0.0
 11
220.484
 21
102.749
 31
0.0
  0
LINE
  5
1AB
330
17
100
AcDbEntity
  8
CUT
100
AcDbLine
 10
220.484
 20
102.749
 30
0.0
 11
220.465
 21
102.625
 31
0.0
  0
LINE
  5
1AC
330
17
100
AcDbEntity
  8
CUT
100
AcDbLine
 10
220.465
 20
102.625
 30
0.0
 11
220.437
 21
102.503
 31
0.0
  0
LINE
  5
1AD
330
17
100
AcDbEntity
  8
CUT
100
AcDbLine
 10
220.437
 20
102.503
 30
0.0
 11
220.402
 21
102.382
 31
0.0
  0
LINE
  5
1AE
330
17
100
AcDbEntity
  8
CUT
100
AcDbLine
 10
220.402
 20
102.382
 30
0.0
 11
220.36
 21
102.264
 31
0.0
  0
LINE
  5
1AF
330
17
100
AcDbEntity
  8
CUT
100
AcDbLine
 10
220.36
 20
102.264
 30
0.0
 11
220.31
 21
102.148
 31
0.0
  0
LINE
  5
1B0
330
17
100
AcDbEntity
  8
CUT
100
AcDbLine
 10
220.31
 20
102.148
 30
0.0
 11
220.253
 21
102.036
 31
0.0
  0
LINE
  5
1B1
330
17
100
AcDbEntity
  8
CUT
100
AcDbLine
 10
220.253
 20
102.036
 30
0.0
 11
220.189
 21
101.928
 31
0.0
  0
LINE
  5
1B2
330
17
100
AcDbEntity
  8
CUT
100
AcDbLine
 10
220.189
 20
101.928
 30
0.0
 11
220.118
 21
101.824
 31
0.0
  0
LINE
  5
1B3
330
17
100
AcDbEntity
  8
CUT
100
AcDbLine
 10
220.118
 20
101.824
 30
0.0
 11
220.041
 21
101.725
 31
0.0
  0
LINE
  5
1B4
330
17
100
AcDbEntity
  8
CUT
100
AcDbLine
 10
220.041
 20
101.725
 30
0.0
 11
219.958
 21
101.631
 31
0.0
  0
LINE
  5
1B5
330
17
100
AcDbEntity
  8
CUT
100
AcDbLine
 10
219.958
 20
101.631
 30
0.0
 11
219.869
 21
101.542
 31
0.0
  0
LINE
  5
1B6
330
17
100
AcDbEntity
  8
CUT
100
AcDbLine
 10
219.869
 20
101.542
 30
0.0
 11
219.775
 21
101.459
 31
0.0
  0
LINE
  5
1B7
330
17
100
AcDbEntity
  8
CUT
100
AcDbLine
 10
219.775
 20
101.459
 30
0.0
 11
219.676
 21
101.382
 31
0.0
  0
LINE
  5
1B8
330
17
100
AcDbEntity
  8
CUT
100
AcDbLine
 10
219.676
 20
101.382
 30
0.0
 11
219.572
 21
101.311
 31
0.0
  0
LINE
  5
1B9
330
17
100
AcDbEntity
  8
CUT
100
AcDbLine
 10
219.572
 20
101.311
 30
0.0
 11
219.464
 21
101.247
 31
0.0
  0
LINE
  5
1BA
330
17
100
AcDbEntity
  8
CUT
100
AcDbLine
 10
219.464
 20
101.247
 30
0.0
 11
219.352
 21
101.19
 31
0.0
  0
LINE
  5
1BB
330
17
100
AcDbEntity
  8
CUT
100
AcDbLine
 10
219.352
 20
101.19
 30
0.0
 11
219.236
 21
101.14
 31
0.0
  0
LINE
  5
1BC
330
17
100
AcDbEntity
  8
CUT
100
AcDbLine
 10
219.236
 20
101.14
 30
0.0
 11
219.118
 21
101.098
 31
0.0
  0
LINE
  5
1BD
330
17
100
AcDbEntity
  8
CUT
100
AcDbLine
 10
219.118
 20
101.098
 30
0.0
 11
218.997
 21
101.063
 31
0.0
  0
LINE
  5
1BE
330
17
100
AcDbEntity
  8
CUT
100
AcDbLine
 10
218.997
 20
101.063
 30
0.0
 11
218.875
 21
101.035
 31
0.0
  0
LINE
  5
1BF
330
17
100
AcDbEntity
  8
CUT
100
AcDbLine
 10
218.875
 20
101.035
 30
0.0
 11
218.751
 21
101.016
 31
0.0
  0
LINE
  5
1C0
330
17
100
AcDbEntity
  8
CUT
100
AcDbLine
 10
218.751
 20
101.016
 30
0.0
 11
218.626
 21
101.004
 31
0.0
  0
LINE
  5
1C1
330
17
100
AcDbEntity
  8
CUT
100
AcDbLine
 10
218.626
 20
101.004
 30
0.0
 11
218.5
 21
101.0
 31
0.0
  0
LINE
  5
1C2
330
17
100
AcDbEntity
  8
CUT
100
AcDbLine
 10
218.5
 20
101.0
 30
0.0
 11
218.374
 21
101.004
 31
0.0
  0
LINE
  5
1C3
330
17
100
AcDbEntity
  8
CUT
100
AcDbLine
 10
218.374
 20
101.004
 30
0.0
 11
218.249
 21
101.016
 31
0.0
  0
LINE
  5
1C4
330
17
100
AcDbEntity
  8
CUT
100
AcDbLine
 10
218.249
 20
101.016
 30
0.0
 11
218.125
 21
101.035
 31
0.0
  0
LINE
  5
1C5
330
17
100
AcDbEntity
  8
CUT
100
AcDbLine
 10
218.125
 20
101.035
 30
0.0
 11
218.003
 21
101.063
 31
0.0
  0
LINE
  5
1C6
330
17
100
AcDbEntity
  8
CUT
100
AcDbLine
 10
218.003
 20
101.063
 30
0.0
 11
217.882
 21
101.098
 31
0.0
  0
LINE
  5
1C7
330
17
100
AcDbEntity
  8
CUT
100
AcDbLine
 10
217.882
 20
101.098
 30
0.0
 11
217.764
 21
101.14
 31
0.0
  0
LINE
  5
1C8
330
17
100
AcDbEntity
  8
CUT
100
AcDbLine
 10
217.764
 20
101.14
 30
0.0
 11
217.648
 21
101.19
 31
0.0
  0
LINE
  5
1C9
330
17
100
AcDbEntity
  8
CUT
100
AcDbLine
 10
217.648
 20
101.19
 30
0.0
 11
217.536
 21
101.247
 31
0.0
  0
LINE
  5
1CA
330
17
100
AcDbEntity
  8
CUT
100
AcDbLine
 10
217.536
 20
101.247
 30
0.0
 11
217.428
 21
101.311
 31
0.0
  0
LINE
  5
1CB
330
17
100
AcDbEntity
  8
CUT
100
AcDbLine
 10
217.428
 20
101.311
 30
0.0
 11
217.324
 21
101.382
 31
0.0
  0
LINE
  5
1CC
330
17
100
AcDbEntity
  8
CUT
100
AcDbLine
 10
217.324
 20
101.382
 30
0.0
 11
217.225
 21
101.459
 31
0.0
  0
LINE
  5
1CD
330
17
100
AcDbEntity
  8
CUT
100
AcDbLine
 10
217.225
 20
101.459
 30
0.0
 11
217.131
 21
101.542
 31
0.0
  0
LINE
  5
1CE
330
17
100
AcDbEntity
  8
CUT
100
AcDbLine
 10
217.131
 20
101.542
 30
0.0
 11
217.042
 21
101.631
 31
0.0
  0
LINE
  5
1CF
330
17
100
AcDbEntity
  8
CUT
100
AcDbLine
 10
217.042
 20
101.631
 30
0.0
 11
216.959
 21
101.725
 31
0.0
  0
LINE
  5
1D0
330
17
100
AcDbEntity
  8
CUT
100
AcDbLine
 10
216.959
 20
101.725
 30
0.0
 11
216.882
 21
101.824
 31
0.0
  0
LINE
  5
1D1
330
17
100
AcDbEntity
  8
CUT
100
AcDbLine
 10
216.882
 20
101.824
 30
0.0
 11
216.811
 21
101.928
 31
0.0
  0
LINE
  5
1D2
330
17
100
AcDbEntity
  8
CUT
100
AcDbLine
 10
216.811
 20
101.928
 30
0.0
 11
216.747
 21
102.036
 31
0.0
  0
LINE
  5
1D3
330
17
100
AcDbEntity
  8
CUT
100
AcDbLine
 10
216.747
 20
102.036
 30
0.0
 11
216.69
 21
102.148
 31
0.0
  0
LINE
  5
1D4
330
17
100
AcDbEntity
  8
CUT
100
AcDbLine
 10
216.69
 20
102.148
 30
0.0
 11
216.64
 21
102.264
 31
0.0
  0
LINE
  5
1D5
330
17
100
AcDbEntity
  8
CUT
100
AcDbLine
 10
216.64
 20
102.264
 30
0.0
 11
216.598
 21
102.382
 31
0.0
  0
LINE
  5
1D6
330
17
100
AcDbEntity
  8
CUT
100
AcDbLine
 10
216.598
 20
102.382
 30
0.0
 11
216.563
 21
102.503
 31
0.0
  0
LINE
  5
1D7
330
17
100
AcDbEntity
  8
CUT
100
AcDbLine
 10
216.563
 20
102.503
 30
0.0
 11
216.535
 21
102.625
 31
0.0
  0
LINE
  5
1D8
330
17
100
AcDbEntity
  8
CUT
100
AcDbLine
 10
216.535
 20
102.625
 30
0.0
 11
216.516
 21
102.749
 31
0.0
  0
LINE
  5
1D9
330
17
100
AcDbEntity
  8
CUT
100
AcDbLine
 10
216.516
 20
102.749
 30
0.0
 11
216.504
 21
102.874
 31
0.0
  0
LINE
  5
1DA
330
17
100
AcDbEntity
  8
CUT
100
AcDbLine
 10
216.504
 20
102.874
 30
0.0
 11
216.5
 21
103.0
 31
0.0
  0
LINE
  5
1DB
330
17
100
AcDbEntity
  8
CUT
100
AcDbLine
 10
226.5
 20
6.0
 30
0.0
 11
226.506
 21
6.18837
 31
0.0
  0
LINE
  5
1DC
330
17
100
AcDbEntity
  8
CUT
100
AcDbLine
 10
226.506
 20
6.18837
 30
0.0
 11
226.524
 21
6.376
 31
0.0
  0
LINE
  5
1DD
330
17
100
AcDbEntity
  8
CUT
100
AcDbLine
 10
226.524
 20
6.376
 30
0.0
 11
226.553
 21
6.56214
 31
0.0
  0
LINE
  5
1DE
330
17
100
AcDbEntity
  8
CUT
100
AcDbLine
 10
226.553
 20
6.56214
 30
0.0
 11
226.594
 21
6.74607
 31
0.0
  0
LINE
  5
1DF
330
17
100
AcDbEntity
  8
CUT
100
AcDbLine
 10
226.594
 20
6.74607
 30
0.0
 11
226.647
 21
6.92705
 31
0.0
  0
LINE
  5
1E0
330
17
100
AcDbEntity
  8
CUT
100
AcDbLine
 10
226.647
 20
6.92705
 30
0.0
 11
226.711
 21
7.10437
 31
0.0
  0
LINE
  5
1E1
330
17
100
AcDbEntity
  8
CUT
100
AcDbLine
 10
226.711
 20
7.10437
 30
0.0
 11
226.786
 21
7.27734
 31
0.0
  0
LINE
  5
1E2
330
17
100
AcDbEntity
  8
CUT
100
AcDbLine
 10
226.786
 20
7.27734
 30
0.0
 11
226.871
 21
7.44526
 31
0.0
  0
LINE
  5
1E3
330
17
100
AcDbEntity
  8
CUT
100
AcDbLine
 10
226.871
 20
7.44526
 30
0.0
 11
226.967
 21
7.60748
 31
0.0
  0
LINE
  5
1E4
330
17
100
AcDbEntity
  8
CUT
100
AcDbLine
 10
226.967
 20
7.60748
 30
0.0
 11
227.073
 21
7.76336
 31
0.0
  0
LINE
  5
1E5
330
17
100
AcDbEntity
  8
CUT
100
AcDbLine
 10
227.073
 20
7.76336
 30
0.0
 11
227.188
 21
7.91227
 31
0.0
  0
LINE
  5
1E6
330
17
100
AcDbEntity
  8
CUT
100
AcDbLine
 10
227.188
 20
7.91227
 30
0.0
 11
227.313
 21
8.05364
 31
0.0
  0
LINE
  5
1E7
330
17
100
AcDbEntity
  8
CUT
100
AcDbLine
 10
227.313
 20
8.05364
 30
0.0
 11
227.446
 21
8.18691
 31
0.0
  0
LINE
  5
1E8
330
17
100
AcDbEntity
  8
CUT
100
AcDbLine
 10
227.446
 20
8.18691
 30
0.0
 11
227.588
 21
8.31154
 31
0.0
  0
LINE
  5
1E9
330
17
100
AcDbEntity
  8
CUT
100
AcDbLine
 10
227.588
 20
8.31154
 30
0.0
 11
227.737
 21
8.42705
 31
0.0
  0
LINE
  5
1EA
330
17
100
AcDbEntity
  8
CUT
100
AcDbLine
 10
227.737
 20
8.42705
 30
0.0
 11
227.893
 21
8.53298
 31
0.0
  0
LINE
  5
1EB
330
17
100
AcDbEntity
  8
CUT
100
AcDbLine
 10
227.893
 20
8.53298
 30
0.0
 11
228.055
 21
8.62892
 31
0.0
  0
LINE
  5
1EC
330
17
100
AcDbEntity
  8
CUT
100
AcDbLine
 10
228.055
 20
8.62892
 30
0.0
 11
228.223
 21
8.71448
 31
0.0
  0
LINE
  5
1ED
330
17
100
AcDbEntity
  8
CUT
100
AcDbLine
 10
228.223
 20
8.71448
 30
0.0
 11
228.396
 21
8.78933
 31
0.0
  0
LINE
  5
1EE
330
17
100
AcDbEntity
  8
CUT
100
AcDbLine
 10
228.396
 20
8.78933
 30
0.0
 11
228.573
 21
8.85317
 31
0.0
  0
LINE
  5
1EF
330
17
100
AcDbEntity
  8
CUT
100
AcDbLine
 10
228.573
 20
8.85317
 30
0.0
 11
228.754
 21
8.90575
 31
0.0
  0
LINE
  5
1F0
330
17
100
AcDbEntity
  8
CUT
100
AcDbLine
 10
228.754
 20
8.90575
 30
0.0
 11
228.938
 21
8.94686
 31
0.0
  0
LINE
  5
1F1
330
17
100
AcDbEntity
  8
CUT
100
AcDbLine
 10
228.938
 20
8.94686
 30
0.0
 11
229.124
 21
8.97634
 31
0.0
  0
LINE
  5
1F2
330
17
100
AcDbEntity
  8
CUT
100
AcDbLine
 10
229.124
 20
8.97634
 30
0.0
 11
229.312
 21
8.99408
 31
0.0
  0
LINE
  5
1F3
330
17
100
AcDbEntity
  8
CUT
100
AcDbLine
 10
229.312
 20
8.99408
 30
0.0
 11
229.5
 21
9.0
 31
0.0
  0
LINE
  5
1F4
330
17
100
AcDbEntity
  8
CUT
100
AcDbLine
 10
229.5
 20
9.0
 30
0.0
 11
229.688
 21
8.99408
 31
0.0
  0
LINE
  5
1F5
330
17
100
AcDbEntity
  8
CUT
100
AcDbLine
 10
229.688
 20
8.99408
 30
0.0
 11
229.876
 21
8.97634
 31
0.0
  0
LINE
  5
1F6
330
17
100
AcDbEntity
  8
CUT
100
AcDbLine
 10
229.876
 20
8.97634
 30
0.0
 11
230.062
 21
8.94686
 31
0.0
  0
LINE
  5
1F7
330
17
100
AcDbEntity
  8
CUT
100
AcDbLine
 10
230.062
 20
8.94686
 30
0.0
 11
230.246
 21
8.90575
 31
0.0
  0
LINE
  5
1F8
330
17
100
AcDbEntity
  8
CUT
100
AcDbLine
 10
230.246
 20
8.90575
 30
0.0
 11
230.427
 21
8.85317
 31
0.0
  0
LINE
  5
1F9
330
17
100
AcDbEntity
  8
CUT
100
AcDbLine
 10
230.427
 20
8.85317
 30
0.0
 11
230.604
 21
8.78933
 31
0.0
  0
LINE
  5
1FA
330
17
100
AcDbEntity
  8
CUT
100
AcDbLine
 10
230.604
 20
8.78933
 30
0.0
 11
230.777
 21
8.71448
 31
0.0
  0
LINE
  5
1FB
330
17
100
AcDbEntity
  8
CUT
100
AcDbLine
 10
230.777
 20
8.71448
 30
0.0
 11
230.945
 21
8.62892
 31
0.0
  0
LINE
  5
1FC
330
17
100
AcDbEntity
  8
CUT
100
AcDbLine
 10
230.945
 20
8.62892
 30
0.0
 11
231.107
 21
8.53298
 31
0.0
  0
LINE
  5
1FD
330
17
100
AcDbEntity
  8
CUT
100
AcDbLine
 10
231.107
 20
8.53298
 30
0.0
 11
231.263
 21
8.42705
 31
0.0
  0
LINE
  5
1FE
330
17
100
AcDbEntity
  8
CUT
100
AcDbLine
 10
231.263
 20
8.42705
 30
0.0
 11
231.412
 21
8.31154
 31
0.0
  0
LINE
  5
1FF
330
17
100
AcDbEntity
  8
CUT
100
AcDbLine
 10
231.412
 20
8.31154
 30
0.0
 11
231.554
 21
8.18691
 31
0.0
  0
LINE
  5
200
330
17
100
AcDbEntity
  8
CUT
100
AcDbLine
 10
231.554
 20
8.18691
 30
0.0
 11
231.687
 21
8.05364
 31
0.0
  0
LINE
  5
201
330
17
100
AcDbEntity
  8
CUT
100
AcDbLine
 10
231.687
 20
8.05364
 30
0.0
 11
231.812
 21
7.91227
 31
0.0
  0
LINE
  5
202
330
17
100
AcDbEntity
  8
CUT
100
AcDbLine
 10
231.812
 20
7.91227
 30
0.0
 11
231.927
 21
7.76336
 31
0.0
  0
LINE
  5
203
330
17
100
AcDbEntity
  8
CUT
100
AcDbLine
 10
231.927
 20
7.76336
 30
0.0
 11
232.033
 21
7.60748
 31
0.0
  0
LINE
  5
204
330
17
100
AcDbEntity
  8
CUT
100
AcDbLine
 10
232.033
 20
7.60748
 30
0.0
 11
232.129
 21
7.44526
 31
0.0
  0
LINE
  5
205
330
17
100
AcDbEntity
  8
CUT
100
AcDbLine
 10
232.129
 20
7.44526
 30
0.0
 11
232.214
 21
7.27734
 31
0.0
  0
LINE
  5
206
330
17
100
AcDbEntity
  8
CUT
100
AcDbLine
 10
232.214
 20
7.27734
 30
0.0
 11
232.289
 21
7.10437
 31
0.0
  0
LINE
  5
207
330
17
100
AcDbEntity
  8
CUT
100
AcDbLine
 10
232.289
 20
7.10437
 30
0.0
 11
232.353
 21
6.92705
 31
0.0
  0
LINE
  5
208
330
17
100
AcDbEntity
  8
CUT
100
AcDbLine
 10
232.353
 20
6.92705
 30
0.0
 11
232.406
 21
6.74607
 31
0.0
  0
LINE
  5
209
330
17
100
AcDbEntity
  8
CUT
100
AcDbLine
 10
232.406
 20
6.74607
 30
0.0
 11
232.447
 21
6.56214
 31
0.0
  0
LINE
  5
20A
330
17
100
AcDbEntity
  8
CUT
100
AcDbLine
 10
232.447
 20
6.56214
 30
0.0
 11
232.476
 21
6.376
 31
0.0
  0
LINE
  5
20B
330
17
100
AcDbEntity
  8
CUT
100
AcDbLine
 10
232.476
 20
6.376
 30
0.0
 11
232.494
 21
6.18837
 31
0.0
  0
LINE
  5
20C
330
17
100
AcDbEntity
  8
CUT
100
AcDbLine
 10
232.494
 20
6.18837
 30
0.0
 11
232.5
 21
6.0
 31
0.0
  0
LINE
  5
20D
330
17
100
AcDbEntity
  8
CUT
100
AcDbLine
 10
232.5
 20
6.0
 30
0.0
 11
232.494
 21
5.81163
 31
0.0
  0
LINE
  5
20E
330
17
100
AcDbEntity
  8
CUT
100
AcDbLine
 10
232.494
 20
5.81163
 30
0.0
 11
232.476
 21
5.624
 31
0.0
  0
LINE
  5
20F
330
17
100
AcDbEntity
  8
CUT
100
AcDbLine
 10
232.476
 20
5.624
 30
0.0
 11
232.447
 21
5.43786
 31
0.0
  0
LINE
  5
210
330
17
100
AcDbEntity
  8
CUT
100
AcDbLine
 10
232.447
 20
5.43786
 30
0.0
 11
232.406
 21
5.25393
 31
0.0
  0
LINE
  5
211
330
17
100
AcDbEntity
  8
CUT
100
AcDbLine
 10
232.406
 20
5.25393
 30
0.0
 11
232.353
 21
5.07295
 31
0.0
  0
LINE
  5
212
330
17
100
AcDbEntity
  8
CUT
100
AcDbLine
 10
232.353
 20
5.07295
 30
0.0
 11
232.289
 21
4.89563
 31
0.0
  0
LINE
  5
213
330
17
100
AcDbEntity
  8
CUT
100
AcDbLine
 10
232.289
 20
4.89563
 30
0.0
 11
232.214
 21
4.72266
 31
0.0
  0
LINE
  5
214
330
17
100
AcDbEntity
  8
CUT
100
AcDbLine
 10
232.214
 20
4.72266
 30
0.0
 11
232.129
 21
4.55474
 31
0.0
  0
LINE
  5
215
330
17
100
AcDbEntity
  8
CUT
100
AcDbLine
 10
232.129
 20
4.55474
 30
0.0
 11
232.033
 21
4.39252
 31
0.0
  0
LINE
  5
216
330
17
100
AcDbEntity
  8
CUT
100
AcDbLine
 10
232.033
 20
4.39252
 30
0.0
 11
231.927
 21
4.23664
 31
0.0
  0
LINE
  5
217
330
17
100
AcDbEntity
  8
CUT
100
AcDbLine
 10
231.927
 20
4.23664
 30
0.0
 11
231.812
 21
4.08773
 31
0.0
  0
LINE
  5
218
330
17
100
AcDbEntity
  8
CUT
100
AcDbLine
 10
231.812
 20
4.08773
 30
0.0
 11
231.687
 21
3.94636
 31
0.0
  0
LINE
  5
219
330
17
100
AcDbEntity
  8
CUT
100
AcDbLine
 10
231.687
 20
3.94636
 30
0.0
 11
231.554
 21
3.81309
 31
0.0
  0
LINE
  5
21A
330
17
100
AcDbEntity
  8
CUT
100
AcDbLine
 10
231.554
 20
3.81309
 30
0.0
 11
231.412
 21
3.68846
 31
0.0
  0
LINE
  5
21B
330
17
100
AcDbEntity
  8
CUT
100
AcDbLine
 10
231.412
 20
3.68846
 30
0.0
 11
231.263
 21
3.57295
 31
0.0
  0
LINE
  5
21C
330
17
100
AcDbEntity
  8
CUT
100
AcDbLine
 10
231.263
 20
3.57295
 30
0.0
 11
231.107
 21
3.46702
 31
0.0
  0
LINE
  5
21D
330
17
100
AcDbEntity
  8
CUT
100
AcDbLine
 10
231.107
 20
3.46702
 30
0.0
 11
230.945
 21
3.37108
 31
0.0
  0
LINE
  5
21E
330
17
100
AcDbEntity
  8
CUT
100
AcDbLine
 10
230.945
 20
3.37108
 30
0.0
 11
230.777
 21
3.28552
 31
0.0
  0
LINE
  5
21F
330
17
100
AcDbEntity
  8
CUT
100
AcDbLine
 10
230.777
 20
3.28552
 30
0.0
 11
230.604
 21
3.21067
 31
0.0
  0
LINE
  5
220
330
17
100
AcDbEntity
  8
CUT
100
AcDbLine
 10
230.604
 20
3.21067
 30
0.0
 11
230.427
 21
3.14683
 31
0.0
  0
LINE
  5
221
330
17
100
AcDbEntity
  8
CUT
100
AcDbLine
 10
230.427
 20
3.14683
 30
0.0
 11
230.246
 21
3.09425
 31
0.0
  0
LINE
  5
222
330
17
100
AcDbEntity
  8
CUT
100
AcDbLine
 10
230.246
 20
3.09425
 30
0.0
 11
230.062
 21
3.05314
 31
0.0
  0
LINE
  5
223
330
17
100
AcDbEntity
  8
CUT
100
AcDbLine
 10
230.062
 20
3.05314
 30
0.0
 11
229.876
 21
3.02366
 31
0.0
  0
LINE
  5
224
330
17
100
AcDbEntity
  8
CUT
100
AcDbLine
 10
229.876
 20
3.02366
 30
0.0
 11
229.688
 21
3.00592
 31
0.0
  0
LINE
  5
225
330
17
100
AcDbEntity
  8
CUT
100
AcDbLine
 10
229.688
 20
3.00592
 30
0.0
 11
229.5
 21
3.0
 31
0.0
  0
LINE
  5
226
330
17
100
AcDbEntity
  8
CUT
100
AcDbLine
 10
229.5
 20
3.0
 30
0.0
 11
229.312
 21
3.00592
 31
0.0
  0
LINE
  5
227
330
17
100
AcDbEntity
  8
CUT
100
AcDbLine
 10
229.312
 20
3.00592
 30
0.0
 11
229.124
 21
3.02366
 31
0.0
  0
LINE
  5
228
330
17
100
AcDbEntity
  8
CUT
100
AcDbLine
 10
229.124
 20
3.02366
 30
0.0
 11
228.938
 21
3.05314
 31
0.0
  0
LINE
  5
229
330
17
100
AcDbEntity
  8
CUT
100
AcDbLine
 10
228.938
 20
3.05314
 30
0.0
 11
228.754
 21
3.09425
 31
0.0
  0
LINE
  5
22A
330
17
100
AcDbEntity
  8
CUT
100
AcDbLine
 10
228.754
 20
3.09425
 30
0.0
 11
228.573
 21
3.14683
 31
0.0
  0
LINE
  5
22B
330
17
100
AcDbEntity
  8
CUT
100
AcDbLine
 10
228.573
 20
3.14683
 30
0.0
 11
228.396
 21
3.21067
 31
0.0
  0
LINE
  5
22C
330
17
100
AcDbEntity
  8
CUT
100
AcDbLine
 10
228.396
 20
3.21067
 30
0.0
 11
228.223
 21
3.28552
 31
0.0
  0
LINE
  5
22D
330
17
100
AcDbEntity
  8
CUT
100
AcDbLine
 10
228.223
 20
3.28552
 30
0.0
 11
228.055
 21
3.37108
 31
0.0
  0
LINE
  5
22E
330
17
100
AcDbEntity
  8
CUT
100
AcDbLine
 10
228.055
 20
3.37108
 30
0.0
 11
227.893
 21
3.46702
 31
0.0
  0
LINE
  5
22F
330
17
100
AcDbEntity
  8
CUT
100
AcDbLine
 10
227.893
 20
3.46702
 30
0.0
 11
227.737
 21
3.57295
 31
0.0
  0
LINE
  5
230
330
17
100
AcDbEntity
  8
CUT
100
AcDbLine
 10
227.737
 20
3.57295
 30
0.0
 11
227.588
 21
3.68846
 31
0.0
  0
LINE
  5
231
330
17
100
AcDbEntity
  8
CUT
100
AcDbLine
 10
227.588
 20
3.68846
 30
0.0
 11
227.446
 21
3.81309
 31
0.0
  0
LINE
  5
232
330
17
100
AcDbEntity
  8
CUT
100
AcDbLine
 10
227.446
 20
3.81309
 30
0.0
 11
227.313
 21
3.94636
 31
0.0
  0
LINE
  5
233
330
17
100
AcDbEntity
  8
CUT
100
AcDbLine
 10
227.313
 20
3.94636
 30
0.0
 11
227.188
 21
4.08773
 31
0.0
  0
LINE
  5
234
330
17
100
AcDbEntity
  8
CUT
100
AcDbLine
 10
227.188
 20
4.08773
 30
0.0
 11
227.073
 21
4.23664
 31
0.0
  0
LINE
  5
235
330
17
100
AcDbEntity
  8
CUT
100
AcDbLine
 10
227.073
 20
4.23664
 30
0.0
 11
226.967
 21
4.39252
 31
0.0
  0
LINE
  5
236
330
17
100
AcDbEntity
  8
CUT
100
AcDbLine
 10
226.967
 20
4.39252
 30
0.0
 11
226.871
 21
4.55474
 31
0.0
  0
LINE
  5
237
330
17
100
AcDbEntity
  8
CUT
100
AcDbLine
 10
226.871
 20
4.55474
 30
0.0
 11
226.786
 21
4.72266
 31
0.0
  0
LINE
  5
238
330
17
100
AcDbEntity
  8
CUT
100
AcDbLine
 10
226.786
 20
4.72266
 30
0.0
 11
226.711
 21
4.89563
 31
0.0
  0
LINE
  5
239
330
17
100
AcDbEntity
  8
CUT
100
AcDbLine
 10
226.711
 20
4.89563
 30
0.0
 11
226.647
 21
5.07295
 31
0.0
  0
LINE
  5
23A
330
17
100
AcDbEntity
  8
CUT
100
AcDbLine
 10
226.647
 20
5.07295
 30
0.0
 11
226.594
 21
5.25393
 31
0.0
  0
LINE
  5
23B
330
17
100
AcDbEntity
  8
CUT
100
AcDbLine
 10
226.594
 20
5.25393
 30
0.0
 11
226.553
 21
5.43786
 31
0.0
  0
LINE
  5
23C
330
17
100
AcDbEntity
  8
CUT
100
AcDbLine
 10
226.553
 20
5.43786
 30
0.0
 11
226.524
 21
5.624
 31
0.0
  0
LINE
  5
23D
330
17
100
AcDbEntity
  8
CUT
100
AcDbLine
 10
226.524
 20
5.624
 30
0.0
 11
226.506
 21
5.81163
 31
0.0
  0
LINE
  5
23E
330
17
100
AcDbEntity
  8
CUT
100
AcDbLine
 10
226.506
 20
5.81163
 30
0.0
 11
226.5
 21
6.0
 31
0.0
  0
LINE
  5
23F
330
17
100
AcDbEntity
  8
CUT
100
AcDbLine
 10
364.5
 20
6.0
 30
0.0
 11
364.506
 21
6.18837
 31
0.0
  0
LINE
  5
240
330
17
100
AcDbEntity
  8
CUT
100
AcDbLine
 10
364.506
 20
6.18837
 30
0.0
 11
364.524
 21
6.376
 31
0.0
  0
LINE
  5
241
330
17
100
AcDbEntity
  8
CUT
100
AcDbLine
 10
364.524
 20
6.376
 30
0.0
 11
364.553
 21
6.56214
 31
0.0
  0
LINE
  5
242
330
17
100
AcDbEntity
  8
CUT
100
AcDbLine
 10
364.553
 20
6.56214
 30
0.0
 11
364.594
 21
6.74607
 31
0.0
  0
LINE
  5
243
330
17
100
AcDbEntity
  8
CUT
100
AcDbLine
 10
364.594
 20
6.74607
 30
0.0
 11
364.647
 21
6.92705
 31
0.0
  0
LINE
  5
244
330
17
100
AcDbEntity
  8
CUT
100
AcDbLine
 10
364.647
 20
6.92705
 30
0.0
 11
364.711
 21
7.10437
 31
0.0
  0
LINE
  5
245
330
17
100
AcDbEntity
  8
CUT
100
AcDbLine
 10
364.711
 20
7.10437
 30
0.0
 11
364.786
 21
7.27734
 31
0.0
  0
LINE
  5
246
330
17
100
AcDbEntity
  8
CUT
100
AcDbLine
 10
364.786
 20
7.27734
 30
0.0
 11
364.871
 21
7.44526
 31
0.0
  0
LINE
  5
247
330
17
100
AcDbEntity
  8
CUT
100
AcDbLine
 10
364.871
 20
7.44526
 30
0.0
 11
364.967
 21
7.60748
 31
0.0
  0
LINE
  5
248
330
17
100
AcDbEntity
  8
CUT
100
AcDbLine
 10
364.967
 20
7.60748
 30
0.0
 11
365.073
 21
7.76336
 31
0.0
  0
LINE
  5
249
330
17
100
AcDbEntity
  8
CUT
100
AcDbLine
 10
365.073
 20
7.76336
 30
0.0
 11
365.188
 21
7.91227
 31
0.0
  0
LINE
  5
24A
330
17
100
AcDbEntity
  8
CUT
100
AcDbLine
 10
365.188
 20
7.91227
 30
0.0
 11
365.313
 21
8.05364
 31
0.0
  0
LINE
  5
24B
330
17
100
AcDbEntity
  8
CUT
100
AcDbLine
 10
365.313
 20
8.05364
 30
0.0
 11
365.446
 21
8.18691
 31
0.0
  0
LINE
  5
24C
330
17
100
AcDbEntity
  8
CUT
100
AcDbLine
 10
365.446
 20
8.18691
 30
0.0
 11
365.588
 21
8.31154
 31
0.0
  0
LINE
  5
24D
330
17
100
AcDbEntity
  8
CUT
100
AcDbLine
 10
365.588
 20
8.31154
 30
0.0
 11
365.737
 21
8.42705
 31
0.0
  0
LINE
  5
24E
330
17
100
AcDbEntity
  8
CUT
100
AcDbLine
 10
365.737
 20
8.42705
 30
0.0
 11
365.893
 21
8.53298
 31
0.0
  0
LINE
  5
24F
330
17
100
AcDbEntity
  8
CUT
100
AcDbLine
 10
365.893
 20
8.53298
 30
0.0
 11
366.055
 21
8.62892
 31
0.0
  0
LINE
  5
250
330
17
100
AcDbEntity
  8
CUT
100
AcDbLine
 10
366.055
 20
8.62892
 30
0.0
 11
366.223
 21
8.71448
 31
0.0
  0
LINE
  5
251
330
17
100
AcDbEntity
  8
CUT
100
AcDbLine
 10
366.223
 20
8.71448
 30
0.0
 11
366.396
 21
8.78933
 31
0.0
  0
LINE
  5
252
330
17
100
AcDbEntity
  8
CUT
100
AcDbLine
 10
366.396
 20
8.78933
 30
0.0
 11
366.573
 21
8.85317
 31
0.0
  0
LINE
  5
253
330
17
100
AcDbEntity
  8
CUT
100
AcDbLine
 10
366.573
 20
8.85317
 30
0.0
 11
366.754
 21
8.90575
 31
0.0
  0
LINE
  5
254
330
17
100
AcDbEntity
  8
CUT
100
AcDbLine
 10
366.754
 20
8.90575
 30
0.0
 11
366.938
 21
8.94686
 31
0.0
  0
LINE
  5
255
330
17
100
AcDbEntity
  8
CUT
100
AcDbLine
 10
366.938
 20
8.94686
 30
0.0
 11
367.124
 21
8.97634
 31
0.0
  0
LINE
  5
256
330
17
100
AcDbEntity
  8
CUT
100
AcDbLine
 10
367.124
 20
8.97634
 30
0.0
 11
367.312
 21
8.99408
 31
0.0
  0
LINE
  5
257
330
17
100
AcDbEntity
  8
CUT
100
AcDbLine
 10
367.312
 20
8.99408
 30
0.0
 11
367.5
 21
9.0
 31
0.0
  0
LINE
  5
258
330
17
100
AcDbEntity
  8
CUT
100
AcDbLine
 10
367.5
 20
9.0
 30
0.0
 11
367.688
 21
8.99408
 31
0.0
  0
LINE
  5
259
330
17
100
AcDbEntity
  8
CUT
100
AcDbLine
 10
367.688
 20
8.99408
 30
0.0
 11
367.876
 21
8.97634
 31
0.0
  0
LINE
  5
25A
330
17
100
AcDbEntity
  8
CUT
100
AcDbLine
 10
367.876
 20
8.97634
 30
0.0
 11
368.062
 21
8.94686
 31
0.0
  0
LINE
  5
25B
330
17
100
AcDbEntity
  8
CUT
100
AcDbLine
 10
368.062
 20
8.94686
 30
0.0
 11
368.246
 21
8.90575
 31
0.0
  0
LINE
  5
25C
330
17
100
AcDbEntity
  8
CUT
100
AcDbLine
 10
368.246
 20
8.90575
 30
0.0
 11
368.427
 21
8.85317
 31
0.0
  0
LINE
  5
25D
330
17
100
AcDbEntity
  8
CUT
100
AcDbLine
 10
368.427
 20
8.85317
 30
0.0
 11
368.604
 21
8.78933
 31
0.0
  0
LINE
  5
25E
330
17
100
AcDbEntity
  8
CUT
100
AcDbLine
 10
368.604
 20
8.78933
 30
0.0
 11
368.777
 21
8.71448
 31
0.0
  0
LINE
  5
25F
330
17
100
AcDbEntity
  8
CUT
100
AcDbLine
 10
368.777
 20
8.71448
 30
0.0
 11
368.945
 21
8.62892
 31
0.0
  0
LINE
  5
260
330
17
100
AcDbEntity
  8
CUT
100
AcDbLine
 10
368.945
 20
8.62892
 30
0.0
 11
369.107
 21
8.53298
 31
0.0
  0
LINE
  5
261
330
17
100
AcDbEntity
  8
CUT
100
AcDbLine
 10
369.107
 20
8.53298
 30
0.0
 11
369.263
 21
8.42705
 31
0.0
  0
LINE
  5
262
330
17
100
AcDbEntity
  8
CUT
100
AcDbLine
 10
369.263
 20
8.42705
 30
0.0
 11
369.412
 21
8.31154
 31
0.0
  0
LINE
  5
263
330
17
100
AcDbEntity
  8
CUT
100
AcDbLine
 10
369.412
 20
8.31154
 30
0.0
 11
369.554
 21
8.18691
 31
0.0
  0
LINE
  5
264
330
17
100
AcDbEntity
  8
CUT
100
AcDbLine
 10
369.554
 20
8.18691
 30
0.0
 11
369.687
 21
8.05364
 31
0.0
  0
LINE
  5
265
330
17
100
AcDbEntity
  8
CUT
100
AcDbLine
 10
369.687
 20
8.05364
 30
0.0
 11
369.812
 21
7.91227
 31
0.0
  0
LINE
  5
266
330
17
100
AcDbEntity
  8
CUT
100
AcDbLine
 10
369.812
 20
7.91227
 30
0.0
 11
369.927
 21
7.76336
 31
0.0
  0
LINE
  5
267
330
17
100
AcDbEntity
  8
CUT
100
AcDbLine
 10
369.927
 20
7.76336
 30
0.0
 11
370.033
 21
7.60748
 31
0.0
  0
LINE
  5
268
330
17
100
AcDbEntity
  8
CUT
100
AcDbLine
 10
370.033
 20
7.60748
 30
0.0
 11
370.129
 21
7.44526
 31
0.0
  0
LINE
  5
269
330
17
100
AcDbEntity
  8
CUT
100
AcDbLine
 10
370.129
 20
7.44526
 30
0.0
 11
370.214
 21
7.27734
 31
0.0
  0
LINE
  5
26A
330
17
100
AcDbEntity
  8
CUT
100
AcDbLine
 10
370.214
 20
7.27734
 30
0.0
 11
370.289
 21
7.10437
 31
0.0
  0
LINE
  5
26B
330
17
100
AcDbEntity
  8
CUT
100
AcDbLine
 10
370.289
 20
7.10437
 30
0.0
 11
370.353
 21
6.92705
 31
0.0
  0
LINE
  5
26C
330
17
100
AcDbEntity
  8
CUT
100
AcDbLine
 10
370.353
 20
6.92705
 30
0.0
 11
370.406
 21
6.74607
 31
0.0
  0
LINE
  5
26D
330
17
100
AcDbEntity
  8
CUT
100
AcDbLine
 10
370.406
 20
6.74607
 30
0.0
 11
370.447
 21
6.56214
 31
0.0
  0
LINE
  5
26E
330
17
100
AcDbEntity
  8
CUT
100
AcDbLine
 10
370.447
 20
6.56214
 30
0.0
 11
370.476
 21
6.376
 31
0.0
  0
LINE
  5
26F
330
17
100
AcDbEntity
  8
CUT
100
AcDbLine
 10
370.476
 20
6.376
 30
0.0
 11
370.494
 21
6.18837
 31
0.0
  0
LINE
  5
270
330
17
100
AcDbEntity
  8
CUT
100
AcDbLine
 10
370.494
 20
6.18837
 30
0.0
 11
370.5
 21
6.0
 31
0.0
  0
LINE
  5
271
330
17
100
AcDbEntity
  8
CUT
100
AcDbLine
 10
370.5
 20
6.0
 30
0.0
 11
370.494
 21
5.81163
 31
0.0
  0
LINE
  5
272
330
17
100
AcDbEntity
  8
CUT
100
AcDbLine
 10
370.494
 20
5.81163
 30
0.0
 11
370.476
 21
5.624
 31
0.0
  0
LINE
  5
273
330
17
100
AcDbEntity
  8
CUT
100
AcDbLine
 10
370.476
 20
5.624
 30
0.0
 11
370.447
 21
5.43786
 31
0.0
  0
LINE
  5
274
330
17
100
AcDbEntity
  8
CUT
100
AcDbLine
 10
370.447
 20
5.43786
 30
0.0
 11
370.406
 21
5.25393
 31
0.0
  0
LINE
  5
275
330
17
100
AcDbEntity
  8
CUT
100
AcDbLine
 10
370.406
 20
5.25393
 30
0.0
 11
370.353
 21
5.07295
 31
0.0
  0
LINE
  5
276
330
17
100
AcDbEntity
  8
CUT
100
AcDbLine
 10
370.353
 20
5.07295
 30
0.0
 11
370.289
 21
4.89563
 31
0.0
  0
LINE
  5
277
330
17
100
AcDbEntity
  8
CUT
100
AcDbLine
 10
370.289
 20
4.89563
 30
0.0
 11
370.214
 21
4.72266
 31
0.0
  0
LINE
  5
278
330
17
100
AcDbEntity
  8
CUT
100
AcDbLine
 10
370.214
 20
4.72266
 30
0.0
 11
370.129
 21
4.55474
 31
0.0
  0
LINE
  5
279
330
17
100
AcDbEntity
  8
CUT
100
AcDbLine
 10
370.129
 20
4.55474
 30
0.0
 11
370.033
 21
4.39252
 31
0.0
  0
LINE
  5
27A
330
17
100
AcDbEntity
  8
CUT
100
AcDbLine
 10
370.033
 20
4.39252
 30
0.0
 11
369.927
 21
4.23664
 31
0.0
  0
LINE
  5
27B
330
17
100
AcDbEntity
  8
CUT
100
AcDbLine
 10
369.927
 20
4.23664
 30
0.0
 11
369.812
 21
4.08773
 31
0.0
  0
LINE
  5
27C
330
17
100
AcDbEntity
  8
CUT
100
AcDbLine
 10
369.812
 20
4.08773
 30
0.0
 11
369.687
 21
3.94636
 31
0.0
  0
LINE
  5
27D
330
17
100
AcDbEntity
  8
CUT
100
AcDbLine
 10
369.687
 20
3.94636
 30
0.0
 11
369.554
 21
3.81309
 31
0.0
  0
LINE
  5
27E
330
17
100
AcDbEntity
  8
CUT
100
AcDbLine
 10
369.554
 20
3.81309
 30
0.0
 11
369.412
 21
3.68846
 31
0.0
  0
LINE
  5
27F
330
17
100
AcDbEntity
  8
CUT
100
AcDbLine
 10
369.412
 20
3.68846
 30
0.0
 11
369.263
 21
3.57295
 31
0.0
  0
LINE
  5
280
330
17
100
AcDbEntity
  8
CUT
100
AcDbLine
 10
369.263
 20
3.57295
 30
0.0
 11
369.107
 21
3.46702
 31
0.0
  0
LINE
  5
281
330
17
100
AcDbEntity
  8
CUT
100
AcDbLine
 10
369.107
 20
3.46702
 30
0.0
 11
368.945
 21
3.37108
 31
0.0
  0
LINE
  5
282
330
17
100
AcDbEntity
  8
CUT
100
AcDbLine
 10
368.945
 20
3.37108
 30
0.0
 11
368.777
 21
3.28552
 31
0.0
  0
LINE
  5
283
330
17
100
AcDbEntity
  8
CUT
100
AcDbLine
 10
368.777
 20
3.28552
 30
0.0
 11
368.604
 21
3.21067
 31
0.0
  0
LINE
  5
284
330
17
100
AcDbEntity
  8
CUT
100
AcDbLine
 10
368.604
 20
3.21067
 30
0.0
 11
368.427
 21
3.14683
 31
0.0
  0
LINE
  5
285
330
17
100
AcDbEntity
  8
CUT
100
AcDbLine
 10
368.427
 20
3.14683
 30
0.0
 11
368.246
 21
3.09425
 31
0.0
  0
LINE
  5
286
330
17
100
AcDbEntity
  8
CUT
100
AcDbLine
 10
368.246
 20
3.09425
 30
0.0
 11
368.062
 21
3.05314
 31
0.0
  0
LINE
  5
287
330
17
100
AcDbEntity
  8
CUT
100
AcDbLine
 10
368.062
 20
3.05314
 30
0.0
 11
367.876
 21
3.02366
 31
0.0
  0
LINE
  5
288
330
17
100
AcDbEntity
  8
CUT
100
AcDbLine
 10
367.876
 20
3.02366
 30
0.0
 11
367.688
 21
3.00592
 31
0.0
  0
LINE
  5
289
330
17
100
AcDbEntity
  8
CUT
100
AcDbLine
 10
367.688
 20
3.00592
 30
0.0
 11
367.5
 21
3.0
 31
0.0
  0
LINE
  5
28A
330
17
100
AcDbEntity
  8
CUT
100
AcDbLine
 10
367.5
 20
3.0
 30
0.0
 11
367.312
 21
3.00592
 31
0.0
  0
LINE
  5
28B
330
17
100
AcDbEntity
  8
CUT
100
AcDbLine
 10
367.312
 20
3.00592
 30
0.0
 11
367.124
 21
3.02366
 31
0.0
  0
LINE
  5
28C
330
17
100
AcDbEntity
  8
CUT
100
AcDbLine
 10
367.124
 20
3.02366
 30
0.0
 11
366.938
 21
3.05314
 31
0.0
  0
LINE
  5
28D
330
17
100
AcDbEntity
  8
CUT
100
AcDbLine
 10
366.938
 20
3.05314
 30
0.0
 11
366.754
 21
3.09425
 31
0.0
  0
LINE
  5
28E
330
17
100
AcDbEntity
  8
CUT
100
AcDbLine
 10
366.754
 20
3.09425
 30
0.0
 11
366.573
 21
3.14683
 31
0.0
  0
LINE
  5
28F
330
17
100
AcDbEntity
  8
CUT
100
AcDbLine
 10
366.573
 20
3.14683
 30
0.0
 11
366.396
 21
3.21067
 31
0.0
  0
LINE
  5
290
330
17
100
AcDbEntity
  8
CUT
100
AcDbLine
 10
366.396
 20
3.21067
 30
0.0
 11
366.223
 21
3.28552
 31
0.0
  0
LINE
  5
291
330
17
100
AcDbEntity
  8
CUT
100
AcDbLine
 10
366.223
 20
3.28552
 30
0.0
 11
366.055
 21
3.37108
 31
0.0
  0
LINE
  5
292
330
17
100
AcDbEntity
  8
CUT
100
AcDbLine
 10
366.055
 20
3.37108
 30
0.0
 11
365.893
 21
3.46702
 31
0.0
  0
LINE
  5
293
330
17
100
AcDbEntity
  8
CUT
100
AcDbLine
 10
365.893
 20
3.46702
 30
0.0
 11
365.737
 21
3.57295
 31
0.0
  0
LINE
  5
294
330
17
100
AcDbEntity
  8
CUT
100
AcDbLine
 10
365.737
 20
3.57295
 30
0.0
 11
365.588
 21
3.68846
 31
0.0
  0
LINE
  5
295
330
17
100
AcDbEntity
  8
CUT
100
AcDbLine
 10
365.588
 20
3.68846
 30
0.0
 11
365.446
 21
3.81309
 31
0.0
  0
LINE
  5
296
330
17
100
AcDbEntity
  8
CUT
100
AcDbLine
 10
365.446
 20
3.81309
 30
0.0
 11
365.313
 21
3.94636
 31
0.0
  0
LINE
  5
297
330
17
100
AcDbEntity
  8
CUT
100
AcDbLine
 10
365.313
 20
3.94636
 30
0.0
 11
365.188
 21
4.08773
 31
0.0
  0
LINE
  5
298
330
17
100
AcDbEntity
  8
CUT
100
AcDbLine
 10
365.188
 20
4.08773
 30
0.0
 11
365.073
 21
4.23664
 31
0.0
  0
LINE
  5
299
330
17
100
AcDbEntity
  8
CUT
100
AcDbLine
 10
365.073
 20
4.23664
 30
0.0
 11
364.967
 21
4.39252
 31
0.0
  0
LINE
  5
29A
330
17
100
AcDbEntity
  8
CUT
100
AcDbLine
 10
364.967
 20
4.39252
 30
0.0
 11
364.871
 21
4.55474
 31
0.0
  0
LINE
  5
29B
330
17
100
AcDbEntity
  8
CUT
100
AcDbLine
 10
364.871
 20
4.55474
 30
0.0
 11
364.786
 21
4.72266
 31
0.0
  0
LINE
  5
29C
330
17
100
AcDbEntity
  8
CUT
100
AcDbLine
 10
364.786
 20
4.72266
 30
0.0
 11
364.711
 21
4.89563
 31
0.0
  0
LINE
  5
29D
330
17
100
AcDbEntity
  8
CUT
100
AcDbLine
 10
364.711
 20
4.89563
 30
0.0
 11
364.647
 21
5.07295
 31
0.0
  0
LINE
  5
29E
330
17
100
AcDbEntity
  8
CUT
100
AcDbLine
 10
364.647
 20
5.07295
 30
0.0
 11
364.594
 21
5.25393
 31
0.0
  0
LINE
  5
29F
330
17
100
AcDbEntity
  8
CUT
100
AcDbLine
 10
364.594
 20
5.25393
 30
0.0
 11
364.553
 21
5.43786
 31
0.0
  0
LINE
  5
2A0
330
17
100
AcDbEntity
  8
CUT
100
AcDbLine
 10
364.553
 20
5.43786
 30
0.0
 11
364.524
 21
5.624
 31
0.0
  0
LINE
  5
2A1
330
17
100
AcDbEntity
  8
CUT
100
AcDbLine
 10
364.524
 20
5.624
 30
0.0
 11
364.506
 21
5.81163
 31
0.0
  0
LINE
  5
2A2
330
17
100
AcDbEntity
  8
CUT
100
AcDbLine
 10
364.506
 20
5.81163
 30
0.0
 11
364.5
 21
6.0
 31
0.0
  0
LINE
  5
2A3
330
17
100
AcDbEntity
  8
CUT
100
AcDbLine
 10
376.5
 20
103.0
 30
0.0
 11
376.504
 21
103.126
 31
0.0
  0
LINE
  5
2A4
330
17
100
AcDbEntity
  8
CUT
100
AcDbLine
 10
376.504
 20
103.126
 30
0.0
 11
376.516
 21
103.251
 31
0.0
  0
LINE
  5
2A5
330
17
100
AcDbEntity
  8
CUT
100
AcDbLine
 10
376.516
 20
103.251
 30
0.0
 11
376.535
 21
103.375
 31
0.0
  0
LINE
  5
2A6
330
17
100
AcDbEntity
  8
CUT
100
AcDbLine
 10
376.535
 20
103.375
 30
0.0
 11
376.563
 21
103.497
 31
0.0
  0
LINE
  5
2A7
330
17
100
AcDbEntity
  8
CUT
100
AcDbLine
 10
376.563
 20
103.497
 30
0.0
 11
376.598
 21
103.618
 31
0.0
  0
LINE
  5
2A8
330
17
100
AcDbEntity
  8
CUT
100
AcDbLine
 10
376.598
 20
103.618
 30
0.0
 11
376.64
 21
103.736
 31
0.0
  0
LINE
  5
2A9
330
17
100
AcDbEntity
  8
CUT
100
AcDbLine
 10
376.64
 20
103.736
 30
0.0
 11
376.69
 21
103.852
 31
0.0
  0
LINE
  5
2AA
330
17
100
AcDbEntity
  8
CUT
100
AcDbLine
 10
376.69
 20
103.852
 30
0.0
 11
376.747
 21
103.964
 31
0.0
  0
LINE
  5
2AB
330
17
100
AcDbEntity
  8
CUT
100
AcDbLine
 10
376.747
 20
103.964
 30
0.0
 11
376.811
 21
104.072
 31
0.0
  0
LINE
  5
2AC
330
17
100
AcDbEntity
  8
CUT
100
AcDbLine
 10
376.811
 20
104.072
 30
0.0
 11
376.882
 21
104.176
 31
0.0
  0
LINE
  5
2AD
330
17
100
AcDbEntity
  8
CUT
100
AcDbLine
 10
376.882
 20
104.176
 30
0.0
 11
376.959
 21
104.275
 31
0.0
  0
LINE
  5
2AE
330
17
100
AcDbEntity
  8
CUT
100
AcDbLine
 10
376.959
 20
104.275
 30
0.0
 11
377.042
 21
104.369
 31
0.0
  0
LINE
  5
2AF
330
17
100
AcDbEntity
  8
CUT
100
AcDbLine
 10
377.042
 20
104.369
 30
0.0
 11
377.131
 21
104.458
 31
0.0
  0
LINE
  5
2B0
330
17
100
AcDbEntity
  8
CUT
100
AcDbLine
 10
377.131
 20
104.458
 30
0.0
 11
377.225
 21
104.541
 31
0.0
  0
LINE
  5
2B1
330
17
100
AcDbEntity
  8
CUT
100
AcDbLine
 10
377.225
 20
104.541
 30
0.0
 11
377.324
 21
104.618
 31
0.0
  0
LINE
  5
2B2
330
17
100
AcDbEntity
  8
CUT
100
AcDbLine
 10
377.324
 20
104.618
 30
0.0
 11
377.428
 21
104.689
 31
0.0
  0
LINE
  5
2B3
330
17
100
AcDbEntity
  8
CUT
100
AcDbLine
 10
377.428
 20
104.689
 30
0.0
 11
377.536
 21
104.753
 31
0.0
  0
LINE
  5
2B4
330
17
100
AcDbEntity
  8
CUT
100
AcDbLine
 10
377.536
 20
104.753
 30
0.0
 11
377.648
 21
104.81
 31
0.0
  0
LINE
  5
2B5
330
17
100
AcDbEntity
  8
CUT
100
AcDbLine
 10
377.648
 20
104.81
 30
0.0
 11
377.764
 21
104.86
 31
0.0
  0
LINE
  5
2B6
330
17
100
AcDbEntity
  8
CUT
100
AcDbLine
 10
377.764
 20
104.86
 30
0.0
 11
377.882
 21
104.902
 31
0.0
  0
LINE
  5
2B7
330
17
100
AcDbEntity
  8
CUT
100
AcDbLine
 10
377.882
 20
104.902
 30
0.0
 11
378.003
 21
104.937
 31
0.0
  0
LINE
  5
2B8
330
17
100
AcDbEntity
  8
CUT
100
AcDbLine
 10
378.003
 20
104.937
 30
0.0
 11
378.125
 21
104.965
 31
0.0
  0
LINE
  5
2B9
330
17
100
AcDbEntity
  8
CUT
100
AcDbLine
 10
378.125
 20
104.965
 30
0.0
 11
378.249
 21
104.984
 31
0.0
  0
LINE
  5
2BA
330
17
100
AcDbEntity
  8
CUT
100
AcDbLine
 10
378.249
 20
104.984
 30
0.0
 11
378.374
 21
104.996
 31
0.0
  0
LINE
  5
2BB
330
17
100
AcDbEntity
  8
CUT
100
AcDbLine
 10
378.374
 20
104.996
 30
0.0
 11
378.5
 21
105.0
 31
0.0
  0
LINE
  5
2BC
330
17
100
AcDbEntity
  8
CUT
100
AcDbLine
 10
378.5
 20
105.0
 30
0.0
 11
378.626
 21
104.996
 31
0.0
  0
LINE
  5
2BD
330
17
100
AcDbEntity
  8
CUT
100
AcDbLine
 10
378.626
 20
104.996
 30
0.0
 11
378.751
 21
104.984
 31
0.0
  0
LINE
  5
2BE
330
17
100
AcDbEntity
  8
CUT
100
AcDbLine
 10
378.751
 20
104.984
 30
0.0
 11
378.875
 21
104.965
 31
0.0
  0
LINE
  5
2BF
330
17
100
AcDbEntity
  8
CUT
100
AcDbLine
 10
378.875
 20
104.965
 30
0.0
 11
378.997
 21
104.937
 31
0.0
  0
LINE
  5
2C0
330
17
100
AcDbEntity
  8
CUT
100
AcDbLine
 10
378.997
 20
104.937
 30
0.0
 11
379.118
 21
104.902
 31
0.0
  0
LINE
  5
2C1
330
17
100
AcDbEntity
  8
CUT
100
AcDbLine
 10
379.118
 20
104.902
 30
0.0
 11
379.236
 21
104.86
 31
0.0
  0
LINE
  5
2C2
330
17
100
AcDbEntity
  8
CUT
100
AcDbLine
 10
379.236
 20
104.86
 30
0.0
 11
379.352
 21
104.81
 31
0.0
  0
LINE
  5
2C3
330
17
100
AcDbEntity
  8
CUT
100
AcDbLine
 10
379.352
 20
104.81
 30
0.0
 11
379.464
 21
104.753
 31
0.0
  0
LINE
  5
2C4
330
17
100
AcDbEntity
  8
CUT
100
AcDbLine
 10
379.464
 20
104.753
 30
0.0
 11
379.572
 21
104.689
 31
0.0
  0
LINE
  5
2C5
330
17
100
AcDbEntity
  8
CUT
100
AcDbLine
 10
379.572
 20
104.689
 30
0.0
 11
379.676
 21
104.618
 31
0.0
  0
LINE
  5
2C6
330
17
100
AcDbEntity
  8
CUT
100
AcDbLine
 10
379.676
 20
104.618
 30
0.0
 11
379.775
 21
104.541
 31
0.0
  0
LINE
  5
2C7
330
17
100
AcDbEntity
  8
CUT
100
AcDbLine
 10
379.775
 20
104.541
 30
0.0
 11
379.869
 21
104.458
 31
0.0
  0
LINE
  5
2C8
330
17
100
AcDbEntity
  8
CUT
100
AcDbLine
 10
379.869
 20
104.458
 30
0.0
 11
379.958
 21
104.369
 31
0.0
  0
LINE
  5
2C9
330
17
100
AcDbEntity
  8
CUT
100
AcDbLine
 10
379.958
 20
104.369
 30
0.0
 11
380.041
 21
104.275
 31
0.0
  0
LINE
  5
2CA
330
17
100
AcDbEntity
  8
CUT
100
AcDbLine
 10
380.041
 20
104.275
 30
0.0
 11
380.118
 21
104.176
 31
0.0
  0
LINE
  5
2CB
330
17
100
AcDbEntity
  8
CUT
100
AcDbLine
 10
380.118
 20
104.176
 30
0.0
 11
380.189
 21
104.072
 31
0.0
  0
LINE
  5
2CC
330
17
100
AcDbEntity
  8
CUT
100
AcDbLine
 10
380.189
 20
104.072
 30
0.0
 11
380.253
 21
103.964
 31
0.0
  0
LINE
  5
2CD
330
17
100
AcDbEntity
  8
CUT
100
AcDbLine
 10
380.253
 20
103.964
 30
0.0
 11
380.31
 21
103.852
 31
0.0
  0
LINE
  5
2CE
330
17
100
AcDbEntity
  8
CUT
100
AcDbLine
 10
380.31
 20
103.852
 30
0.0
 11
380.36
 21
103.736
 31
0.0
  0
LINE
  5
2CF
330
17
100
AcDbEntity
  8
CUT
100
AcDbLine
 10
380.36
 20
103.736
 30
0.0
 11
380.402
 21
103.618
 31
0.0
  0
LINE
  5
2D0
330
17
100
AcDbEntity
  8
CUT
100
AcDbLine
 10
380.402
 20
103.618
 30
0.0
 11
380.437
 21
103.497
 31
0.0
  0
LINE
  5
2D1
330
17
100
AcDbEntity
  8
CUT
100
AcDbLine
 10
380.437
 20
103.497
 30
0.0
 11
380.465
 21
103.375
 31
0.0
  0
LINE
  5
2D2
330
17
100
AcDbEntity
  8
CUT
100
AcDbLine
 10
380.465
 20
103.375
 30
0.0
 11
380.484
 21
103.251
 31
0.0
  0
LINE
  5
2D3
330
17
100
AcDbEntity
  8
CUT
100
AcDbLine
 10
380.484
 20
103.251
 30
0.0
 11
380.496
 21
103.126
 31
0.0
  0
LINE
  5
2D4
330
17
100
AcDbEntity
  8
CUT
100
AcDbLine
 10
380.496
 20
103.126
 30
0.0
 11
380.5
 21
103.0
 31
0.0
  0
LINE
  5
2D5
330
17
100
AcDbEntity
  8
CUT
100
AcDbLine
 10
380.5
 20
103.0
 30
0.0
 11
380.496
 21
102.874
 31
0.0
  0
LINE
  5
2D6
330
17
100
AcDbEntity
  8
CUT
100
AcDbLine
 10
380.496
 20
102.874
 30
0.0
 11
380.484
 21
102.749
 31
0.0
  0
LINE
  5
2D7
330
17
100
AcDbEntity
  8
CUT
100
AcDbLine
 10
380.484
 20
102.749
 30
0.0
 11
380.465
 21
102.625
 31
0.0
  0
LINE
  5
2D8
330
17
100
AcDbEntity
  8
CUT
100
AcDbLine
 10
380.465
 20
102.625
 30
0.0
 11
380.437
 21
102.503
 31
0.0
  0
LINE
  5
2D9
330
17
100
AcDbEntity
  8
CUT
100
AcDbLine
 10
380.437
 20
102.503
 30
0.0
 11
380.402
 21
102.382
 31
0.0
  0
LINE
  5
2DA
330
17
100
AcDbEntity
  8
CUT
100
AcDbLine
 10
380.402
 20
102.382
 30
0.0
 11
380.36
 21
102.264
 31
0.0
  0
LINE
  5
2DB
330
17
100
AcDbEntity
  8
CUT
100
AcDbLine
 10
380.36
 20
102.264
 30
0.0
 11
380.31
 21
102.148
 31
0.0
  0
LINE
  5
2DC
330
17
100
AcDbEntity
  8
CUT
100
AcDbLine
 10
380.31
 20
102.148
 30
0.0
 11
380.253
 21
102.036
 31
0.0
  0
LINE
  5
2DD
330
17
100
AcDbEntity
  8
CUT
100
AcDbLine
 10
380.253
 20
102.036
 30
0.0
 11
380.189
 21
101.928
 31
0.0
  0
LINE
  5
2DE
330
17
100
AcDbEntity
  8
CUT
100
AcDbLine
 10
380.189
 20
101.928
 30
0.0
 11
380.118
 21
101.824
 31
0.0
  0
LINE
  5
2DF
330
17
100
AcDbEntity
  8
CUT
100
AcDbLine
 10
380.118
 20
101.824
 30
0.0
 11
380.041
 21
101.725
 31
0.0
  0
LINE
  5
2E0
330
17
100
AcDbEntity
  8
CUT
100
AcDbLine
 10
380.041
 20
101.725
 30
0.0
 11
379.958
 21
101.631
 31
0.0
  0
LINE
  5
2E1
330
17
100
AcDbEntity
  8
CUT
100
AcDbLine
 10
379.958
 20
101.631
 30
0.0
 11
379.869
 21
101.542
 31
0.0
  0
LINE
  5
2E2
330
17
100
AcDbEntity
  8
CUT
100
AcDbLine
 10
379.869
 20
101.542
 30
0.0
 11
379.775
 21
101.459
 31
0.0
  0
LINE
  5
2E3
330
17
100
AcDbEntity
  8
CUT
100
AcDbLine
 10
379.775
 20
101.459
 30
0.0
 11
379.676
 21
101.382
 31
0.0
  0
LINE
  5
2E4
330
17
100
AcDbEntity
  8
CUT
100
AcDbLine
 10
379.676
 20
101.382
 30
0.0
 11
379.572
 21
101.311
 31
0.0
  0
LINE
  5
2E5
330
17
100
AcDbEntity
  8
CUT
100
AcDbLine
 10
379.572
 20
101.311
 30
0.0
 11
379.464
 21
101.247
 31
0.0
  0
LINE
  5
2E6
330
17
100
AcDbEntity
  8
CUT
100
AcDbLine
 10
379.464
 20
101.247
 30
0.0
 11
379.352
 21
101.19
 31
0.0
  0
LINE
  5
2E7
330
17
100
AcDbEntity
  8
CUT
100
AcDbLine
 10
379.352
 20
101.19
 30
0.0
 11
379.236
 21
101.14
 31
0.0
  0
LINE
  5
2E8
330
17
100
AcDbEntity
  8
CUT
100
AcDbLine
 10
379.236
 20
101.14
 30
0.0
 11
379.118
 21
101.098
 31
0.0
  0
LINE
  5
2E9
330
17
100
AcDbEntity
  8
CUT
100
AcDbLine
 10
379.118
 20
101.098
 30
0.0
 11
378.997
 21
101.063
 31
0.0
  0
LINE
  5
2EA
330
17
100
AcDbEntity
  8
CUT
100
AcDbLine
 10
378.997
 20
101.063
 30
0.0
 11
378.875
 21
101.035
 31
0.0
  0
LINE
  5
2EB
330
17
100
AcDbEntity
  8
CUT
100
AcDbLine
 10
378.875
 20
101.035
 30
0.0
 11
378.751
 21
101.016
 31
0.0
  0
LINE
  5
2EC
330
17
100
AcDbEntity
  8
CUT
100
AcDbLine
 10
378.751
 20
101.016
 30
0.0
 11
378.626
 21
101.004
 31
0.0
  0
LINE
  5
2ED
330
17
100
AcDbEntity
  8
CUT
100
AcDbLine
 10
378.626
 20
101.004
 30
0.0
 11
378.5
 21
101.0
 31
0.0
  0
LINE
  5
2EE
330
17
100
AcDbEntity
  8
CUT
100
AcDbLine
 10
378.5
 20
101.0
 30
0.0
 11
378.374
 21
101.004
 31
0.0
  0
LINE
  5
2EF
330
17
100
AcDbEntity
  8
CUT
100
AcDbLine
 10
378.374
 20
101.004
 30
0.0
 11
378.249
 21
101.016
 31
0.0
  0
LINE
  5
2F0
330
17
100
AcDbEntity
  8
CUT
100
AcDbLine
 10
378.249
 20
101.016
 30
0.0
 11
378.125
 21
101.035
 31
0.0
  0
LINE
  5
2F1
330
17
100
AcDbEntity
  8
CUT
100
AcDbLine
 10
378.125
 20
101.035
 30
0.0
 11
378.003
 21
101.063
 31
0.0
  0
LINE
  5
2F2
330
17
100
AcDbEntity
  8
CUT
100
AcDbLine
 10
378.003
 20
101.063
 30
0.0
 11
377.882
 21
101.098
 31
0.0
  0
LINE
  5
2F3
330
17
100
AcDbEntity
  8
CUT
100
AcDbLine
 10
377.882
 20
101.098
 30
0.0
 11
377.764
 21
101.14
 31
0.0
  0
LINE
  5
2F4
330
17
100
AcDbEntity
  8
CUT
100
AcDbLine
 10
377.764
 20
101.14
 30
0.0
 11
377.648
 21
101.19
 31
0.0
  0
LINE
  5
2F5
330
17
100
AcDbEntity
  8
CUT
100
AcDbLine
 10
377.648
 20
101.19
 30
0.0
 11
377.536
 21
101.247
 31
0.0
  0
LINE
  5
2F6
330
17
100
AcDbEntity
  8
CUT
100
AcDbLine
 10
377.536
 20
101.247
 30
0.0
 11
377.428
 21
101.311
 31
0.0
  0
LINE
  5
2F7
330
17
100
AcDbEntity
  8
CUT
100
AcDbLine
 10
377.428
 20
101.311
 30
0.0
 11
377.324
 21
101.382
 31
0.0
  0
LINE
  5
2F8
330
17
100
AcDbEntity
  8
CUT
100
AcDbLine
 10
377.324
 20
101.382
 30
0.0
 11
377.225
 21
101.459
 31
0.0
  0
LINE
  5
2F9
330
17
100
AcDbEntity
  8
CUT
100
AcDbLine
 10
377.225
 20
101.459
 30
0.0
 11
377.131
 21
101.542
 31
0.0
  0
LINE
  5
2FA
330
17
100
AcDbEntity
  8
CUT
100
AcDbLine
 10
377.131
 20
101.542
 30
0.0
 11
377.042
 21
101.631
 31
0.0
  0
LINE
  5
2FB
330
17
100
AcDbEntity
  8
CUT
100
AcDbLine
 10
377.042
 20
101.631
 30
0.0
 11
376.959
 21
101.725
 31
0.0
  0
LINE
  5
2FC
330
17
100
AcDbEntity
  8
CUT
100
AcDbLine
 10
376.959
 20
101.725
 30
0.0
 11
376.882
 21
101.824
 31
0.0
  0
LINE
  5
2FD
330
17
100
AcDbEntity
  8
CUT
100
AcDbLine
 10
376.882
 20
101.824
 30
0.0
 11
376.811
 21
101.928
 31
0.0
  0
LINE
  5
2FE
330
17
100
AcDbEntity
  8
CUT
100
AcDbLine
 10
376.811
 20
101.928
 30
0.0
 11
376.747
 21
102.036
 31
0.0
  0
LINE
  5
2FF
330
17
100
AcDbEntity
  8
CUT
100
AcDbLine
 10
376.747
 20
102.036
 30
0.0
 11
376.69
 21
102.148
 31
0.0
  0
LINE
  5
300
330
17
100
AcDbEntity
  8
CUT
100
AcDbLine
 10
376.69
 20
102.148
 30
0.0
 11
376.64
 21
102.264
 31
0.0
  0
LINE
  5
301
330
17
100
AcDbEntity
  8
CUT
100
AcDbLine
 10
376.64
 20
102.264
 30
0.0
 11
376.598
 21
102.382
 31
0.0
  0
LINE
  5
302
330
17
100
AcDbEntity
  8
CUT
100
AcDbLine
 10
376.598
 20
102.382
 30
0.0
 11
376.563
 21
102.503
 31
0.0
  0
LINE
  5
303
330
17
100
AcDbEntity
  8
CUT
100
AcDbLine
 10
376.563
 20
102.503
 30
0.0
 11
376.535
 21
102.625
 31
0.0
  0
LINE
  5
304
330
17
100
AcDbEntity
  8
CUT
100
AcDbLine
 10
376.535
 20
102.625
 30
0.0
 11
376.516
 21
102.749
 31
0.0
  0
LINE
  5
305
330
17
100
AcDbEntity
  8
CUT
100
AcDbLine
 10
376.516
 20
102.749
 30
0.0
 11
376.504
 21
102.874
 31
0.0
  0
LINE
  5
306
330
17
100
AcDbEntity
  8
CUT
100
AcDbLine
 10
376.504
 20
102.874
 30
0.0
 11
376.5
 21
103.0
 31
0.0
  0
LINE
  5
307
330
17
100
AcDbEntity
  8
CUT
100
AcDbLine
 10
502.5
 20
6.0
 30
0.0
 11
502.506
 21
6.18837
 31
0.0
  0
LINE
  5
308
330
17
100
AcDbEntity
  8
CUT
100
AcDbLine
 10
502.506
 20
6.18837
 30
0.0
 11
502.524
 21
6.376
 31
0.0
  0
LINE
  5
309
330
17
100
AcDbEntity
  8
CUT
100
AcDbLine
 10
502.524
 20
6.376
 30
0.0
 11
502.553
 21
6.56214
 31
0.0
  0
LINE
  5
30A
330
17
100
AcDbEntity
  8
CUT
100
AcDbLine
 10
502.553
 20
6.56214
 30
0.0
 11
502.594
 21
6.74607
 31
0.0
  0
LINE
  5
30B
330
17
100
AcDbEntity
  8
CUT
100
AcDbLine
 10
502.594
 20
6.74607
 30
0.0
 11
502.647
 21
6.92705
 31
0.0
  0
LINE
  5
30C
330
17
100
AcDbEntity
  8
CUT
100
AcDbLine
 10
502.647
 20
6.92705
 30
0.0
 11
502.711
 21
7.10437
 31
0.0
  0
LINE
  5
30D
330
17
100
AcDbEntity
  8
CUT
100
AcDbLine
 10
502.711
 20
7.10437
 30
0.0
 11
502.786
 21
7.27734
 31
0.0
  0
LINE
  5
30E
330
17
100
AcDbEntity
  8
CUT
100
AcDbLine
 10
502.786
 20
7.27734
 30
0.0
 11
502.871
 21
7.44526
 31
0.0
  0
LINE
  5
30F
330
17
100
AcDbEntity
  8
CUT
100
AcDbLine
 10
502.871
 20
7.44526
 30
0.0
 11
502.967
 21
7.60748
 31
0.0
  0
LINE
  5
310
330
17
100
AcDbEntity
  8
CUT
100
AcDbLine
 10
502.967
 20
7.60748
 30
0.0
 11
503.073
 21
7.76336
 31
0.0
  0
LINE
  5
311
330
17
100
AcDbEntity
  8
CUT
100
AcDbLine
 10
503.073
 20
7.76336
 30
0.0
 11
503.188
 21
7.91227
 31
0.0
  0
LINE
  5
312
330
17
100
AcDbEntity
  8
CUT
100
AcDbLine
 10
503.188
 20
7.91227
 30
0.0
 11
503.313
 21
8.05364
 31
0.0
  0
LINE
  5
313
330
17
100
AcDbEntity
  8
CUT
100
AcDbLine
 10
503.313
 20
8.05364
 30
0.0
 11
503.446
 21
8.18691
 31
0.0
  0
LINE
  5
314
330
17
100
AcDbEntity
  8
CUT
100
AcDbLine
 10
503.446
 20
8.18691
 30
0.0
 11
503.588
 21
8.31154
 31
0.0
  0
LINE
  5
315
330
17
100
AcDbEntity
  8
CUT
100
AcDbLine
 10
503.588
 20
8.31154
 30
0.0
 11
503.737
 21
8.42705
 31
0.0
  0
LINE
  5
316
330
17
100
AcDbEntity
  8
CUT
100
AcDbLine
 10
503.737
 20
8.42705
 30
0.0
 11
503.893
 21
8.53298
 31
0.0
  0
LINE
  5
317
330
17
100
AcDbEntity
  8
CUT
100
AcDbLine
 10
503.893
 20
8.53298
 30
0.0
 11
504.055
 21
8.62892
 31
0.0
  0
LINE
  5
318
330
17
100
AcDbEntity
  8
CUT
100
AcDbLine
 10
504.055
 20
8.62892
 30
0.0
 11
504.223
 21
8.71448
 31
0.0
  0
LINE
  5
319
330
17
100
AcDbEntity
  8
CUT
100
AcDbLine
 10
504.223
 20
8.71448
 30
0.0
 11
504.396
 21
8.78933
 31
0.0
  0
LINE
  5
31A
330
17
100
AcDbEntity
  8
CUT
100
AcDbLine
 10
504.396
 20
8.78933
 30
0.0
 11
504.573
 21
8.85317
 31
0.0
  0
LINE
  5
31B
330
17
100
AcDbEntity
  8
CUT
100
AcDbLine
 10
504.573
 20
8.85317
 30
0.0
 11
504.754
 21
8.90575
 31
0.0
  0
LINE
  5
31C
330
17
100
AcDbEntity
  8
CUT
100
AcDbLine
 10
504.754
 20
8.90575
 30
0.0
 11
504.938
 21
8.94686
 31
0.0
  0
LINE
  5
31D
330
17
100
AcDbEntity
  8
CUT
100
AcDbLine
 10
504.938
 20
8.94686
 30
0.0
 11
505.124
 21
8.97634
 31
0.0
  0
LINE
  5
31E
330
17
100
AcDbEntity
  8
CUT
100
AcDbLine
 10
505.124
 20
8.97634
 30
0.0
 11
505.312
 21
8.99408
 31
0.0
  0
LINE
  5
31F
330
17
100
AcDbEntity
  8
CUT
100
AcDbLine
 10
505.312
 20
8.99408
 30
0.0
 11
505.5
 21
9.0
 31
0.0
  0
LINE
  5
320
330
17
100
AcDbEntity
  8
CUT
100
AcDbLine
 10
505.5
 20
9.0
 30
0.0
 11
505.688
 21
8.99408
 31
0.0
  0
LINE
  5
321
330
17
100
AcDbEntity
  8
CUT
100
AcDbLine
 10
505.688
 20
8.99408
 30
0.0
 11
505.876
 21
8.97634
 31
0.0
  0
LINE
  5
322
330
17
100
AcDbEntity
  8
CUT
100
AcDbLine
 10
505.876
 20
8.97634
 30
0.0
 11
506.062
 21
8.94686
 31
0.0
  0
LINE
  5
323
330
17
100
AcDbEntity
  8
CUT
100
AcDbLine
 10
506.062
 20
8.94686
 30
0.0
 11
506.246
 21
8.90575
 31
0.0
  0
LINE
  5
324
330
17
100
AcDbEntity
  8
CUT
100
AcDbLine
 10
506.246
 20
8.90575
 30
0.0
 11
506.427
 21
8.85317
 31
0.0
  0
LINE
  5
325
330
17
100
AcDbEntity
  8
CUT
100
AcDbLine
 10
506.427
 20
8.85317
 30
0.0
 11
506.604
 21
8.78933
 31
0.0
  0
LINE
  5
326
330
17
100
AcDbEntity
  8
CUT
100
AcDbLine
 10
506.604
 20
8.78933
 30
0.0
 11
506.777
 21
8.71448
 31
0.0
  0
LINE
  5
327
330
17
100
AcDbEntity
  8
CUT
100
AcDbLine
 10
506.777
 20
8.71448
 30
0.0
 11
506.945
 21
8.62892
 31
0.0
  0
LINE
  5
328
330
17
100
AcDbEntity
  8
CUT
100
AcDbLine
 10
506.945
 20
8.62892
 30
0.0
 11
507.107
 21
8.53298
 31
0.0
  0
LINE
  5
329
330
17
100
AcDbEntity
  8
CUT
100
AcDbLine
 10
507.107
 20
8.53298
 30
0.0
 11
507.263
 21
8.42705
 31
0.0
  0
LINE
  5
32A
330
17
100
AcDbEntity
  8
CUT
100
AcDbLine
 10
507.263
 20
8.42705
 30
0.0
 11
507.412
 21
8.31154
 31
0.0
  0
LINE
  5
32B
330
17
100
AcDbEntity
  8
CUT
100
AcDbLine
 10
507.412
 20
8.31154
 30
0.0
 11
507.554
 21
8.18691
 31
0.0
  0
LINE
  5
32C
330
17
100
AcDbEntity
  8
CUT
100
AcDbLine
 10
507.554
 20
8.18691
 30
0.0
 11
507.687
 21
8.05364
 31
0.0
  0
LINE
  5
32D
330
17
100
AcDbEntity
  8
CUT
100
AcDbLine
 10
507.687
 20
8.05364
 30
0.0
 11
507.812
 21
7.91227
 31
0.0
  0
LINE
  5
32E
330
17
100
AcDbEntity
  8
CUT
100
AcDbLine
 10
507.812
 20
7.91227
 30
0.0
 11
507.927
 21
7.76336
 31
0.0
  0
LINE
  5
32F
330
17
100
AcDbEntity
  8
CUT
100
AcDbLine
 10
507.927
 20
7.76336
 30
0.0
 11
508.033
 21
7.60748
 31
0.0
  0
LINE
  5
330
330
17
100
AcDbEntity
  8
CUT
100
AcDbLine
 10
508.033
 20
7.60748
 30
0.0
 11
508.129
 21
7.44526
 31
0.0
  0
LINE
  5
331
330
17
100
AcDbEntity
  8
CUT
100
AcDbLine
 10
508.129
 20
7.44526
 30
0.0
 11
508.214
 21
7.27734
 31
0.0
  0
LINE
  5
332
330
17
100
AcDbEntity
  8
CUT
100
AcDbLine
 10
508.214
 20
7.27734
 30
0.0
 11
508.289
 21
7.10437
 31
0.0
  0
LINE
  5
333
330
17
100
AcDbEntity
  8
CUT
100
AcDbLine
 10
508.289
 20
7.10437
 30
0.0
 11
508.353
 21
6.92705
 31
0.0
  0
LINE
  5
334
330
17
100
AcDbEntity
  8
CUT
100
AcDbLine
 10
508.353
 20
6.92705
 30
0.0
 11
508.406
 21
6.74607
 31
0.0
  0
LINE
  5
335
330
17
100
AcDbEntity
  8
CUT
100
AcDbLine
 10
508.406
 20
6.74607
 30
0.0
 11
508.447
 21
6.56214
 31
0.0
  0
LINE
  5
336
330
17
100
AcDbEntity
  8
CUT
100
AcDbLine
 10
508.447
 20
6.56214
 30
0.0
 11
508.476
 21
6.376
 31
0.0
  0
LINE
  5
337
330
17
100
AcDbEntity
  8
CUT
100
AcDbLine
 10
508.476
 20
6.376
 30
0.0
 11
508.494
 21
6.18837
 31
0.0
  0
LINE
  5
338
330
17
100
AcDbEntity
  8
CUT
100
AcDbLine
 10
508.494
 20
6.18837
 30
0.0
 11
508.5
 21
6.0
 31
0.0
  0
LINE
  5
339
330
17
100
AcDbEntity
  8
CUT
100
AcDbLine
 10
508.5
 20
6.0
 30
0.0
 11
508.494
 21
5.81163
 31
0.0
  0
LINE
  5
33A
330
17
100
AcDbEntity
  8
CUT
100
AcDbLine
 10
508.494
 20
5.81163
 30
0.0
 11
508.476
 21
5.624
 31
0.0
  0
LINE
  5
33B
330
17
100
AcDbEntity
  8
CUT
100
AcDbLine
 10
508.476
 20
5.624
 30
0.0
 11
508.447
 21
5.43786
 31
0.0
  0
LINE
  5
33C
330
17
100
AcDbEntity
  8
CUT
100
AcDbLine
 10
508.447
 20
5.43786
 30
0.0
 11
508.406
 21
5.25393
 31
0.0
  0
LINE
  5
33D
330
17
100
AcDbEntity
  8
CUT
100
AcDbLine
 10
508.406
 20
5.25393
 30
0.0
 11
508.353
 21
5.07295
 31
0.0
  0
LINE
  5
33E
330
17
100
AcDbEntity
  8
CUT
100
AcDbLine
 10
508.353
 20
5.07295
 30
0.0
 11
508.289
 21
4.89563
 31
0.0
  0
LINE
  5
33F
330
17
100
AcDbEntity
  8
CUT
100
AcDbLine
 10
508.289
 20
4.89563
 30
0.0
 11
508.214
 21
4.72266
 31
0.0
  0
LINE
  5
340
330
17
100
AcDbEntity
  8
CUT
100
AcDbLine
 10
508.214
 20
4.72266
 30
0.0
 11
508.129
 21
4.55474
 31
0.0
  0
LINE
  5
341
330
17
100
AcDbEntity
  8
CUT
100
AcDbLine
 10
508.129
 20
4.55474
 30
0.0
 11
508.033
 21
4.39252
 31
0.0
  0
LINE
  5
342
330
17
100
AcDbEntity
  8
CUT
100
AcDbLine
 10
508.033
 20
4.39252
 30
0.0
 11
507.927
 21
4.23664
 31
0.0
  0
LINE
  5
343
330
17
100
AcDbEntity
  8
CUT
100
AcDbLine
 10
507.927
 20
4.23664
 30
0.0
 11
507.812
 21
4.08773
 31
0.0
  0
LINE
  5
344
330
17
100
AcDbEntity
  8
CUT
100
AcDbLine
 10
507.812
 20
4.08773
 30
0.0
 11
507.687
 21
3.94636
 31
0.0
  0
LINE
  5
345
330
17
100
AcDbEntity
  8
CUT
100
AcDbLine
 10
507.687
 20
3.94636
 30
0.0
 11
507.554
 21
3.81309
 31
0.0
  0
LINE
  5
346
330
17
100
AcDbEntity
  8
CUT
100
AcDbLine
 10
507.554
 20
3.81309
 30
0.0
 11
507.412
 21
3.68846
 31
0.0
  0
LINE
  5
347
330
17
100
AcDbEntity
  8
CUT
100
AcDbLine
 10
507.412
 20
3.68846
 30
0.0
 11
507.263
 21
3.57295
 31
0.0
  0
LINE
  5
348
330
17
100
AcDbEntity
  8
CUT
100
AcDbLine
 10
507.263
 20
3.57295
 30
0.0
 11
507.107
 21
3.46702
 31
0.0
  0
LINE
  5
349
330
17
100
AcDbEntity
  8
CUT
100
AcDbLine
 10
507.107
 20
3.46702
 30
0.0
 11
506.945
 21
3.37108
 31
0.0
  0
LINE
  5
34A
330
17
100
AcDbEntity
  8
CUT
100
AcDbLine
 10
506.945
 20
3.37108
 30
0.0
 11
506.777
 21
3.28552
 31
0.0
  0
LINE
  5
34B
330
17
100
AcDbEntity
  8
CUT
100
AcDbLine
 10
506.777
 20
3.28552
 30
0.0
 11
506.604
 21
3.21067
 31
0.0
  0
LINE
  5
34C
330
17
100
AcDbEntity
  8
CUT
100
AcDbLine
 10
506.604
 20
3.21067
 30
0.0
 11
506.427
 21
3.14683
 31
0.0
  0
LINE
  5
34D
330
17
100
AcDbEntity
  8
CUT
100
AcDbLine
 10
506.427
 20
3.14683
 30
0.0
 11
506.246
 21
3.09425
 31
0.0
  0
LINE
  5
34E
330
17
100
AcDbEntity
  8
CUT
100
AcDbLine
 10
506.246
 20
3.09425
 30
0.0
 11
506.062
 21
3.05314
 31
0.0
  0
LINE
  5
34F
330
17
100
AcDbEntity
  8
CUT
100
AcDbLine
 10
506.062
 20
3.05314
 30
0.0
 11
505.876
 21
3.02366
 31
0.0
  0
LINE
  5
350
330
17
100
AcDbEntity
  8
CUT
100
AcDbLine
 10
505.876
 20
3.02366
 30
0.0
 11
505.688
 21
3.00592
 31
0.0
  0
LINE
  5
351
330
17
100
AcDbEntity
  8
CUT
100
AcDbLine
 10
505.688
 20
3.00592
 30
0.0
 11
505.5
 21
3.0
 31
0.0
  0
LINE
  5
352
330
17
100
AcDbEntity
  8
CUT
100
AcDbLine
 10
505.5
 20
3.0
 30
0.0
 11
505.312
 21
3.00592
 31
0.0
  0
LINE
  5
353
330
17
100
AcDbEntity
  8
CUT
100
AcDbLine
 10
505.312
 20
3.00592
 30
0.0
 11
505.124
 21
3.02366
 31
0.0
  0
LINE
  5
354
330
17
100
AcDbEntity
  8
CUT
100
AcDbLine
 10
505.124
 20
3.02366
 30
0.0
 11
504.938
 21
3.05314
 31
0.0
  0
LINE
  5
355
330
17
100
AcDbEntity
  8
CUT
100
AcDbLine
 10
504.938
 20
3.05314
 30
0.0
 11
504.754
 21
3.09425
 31
0.0
  0
LINE
  5
356
330
17
100
AcDbEntity
  8
CUT
100
AcDbLine
 10
504.754
 20
3.09425
 30
0.0
 11
504.573
 21
3.14683
 31
0.0
  0
LINE
  5
357
330
17
100
AcDbEntity
  8
CUT
100
AcDbLine
 10
504.573
 20
3.14683
 30
0.0
 11
504.396
 21
3.21067
 31
0.0
  0
LINE
  5
358
330
17
100
AcDbEntity
  8
CUT
100
AcDbLine
 10
504.396
 20
3.21067
 30
0.0
 11
504.223
 21
3.28552
 31
0.0
  0
LINE
  5
359
330
17
100
AcDbEntity
  8
CUT
100
AcDbLine
 10
504.223
 20
3.28552
 30
0.0
 11
504.055
 21
3.37108
 31
0.0
  0
LINE
  5
35A
330
17
100
AcDbEntity
  8
CUT
100
AcDbLine
 10
504.055
 20
3.37108
 30
0.0
 11
503.893
 21
3.46702
 31
0.0
  0
LINE
  5
35B
330
17
100
AcDbEntity
  8
CUT
100
AcDbLine
 10
503.893
 20
3.46702
 30
0.0
 11
503.737
 21
3.57295
 31
0.0
  0
LINE
  5
35C
330
17
100
AcDbEntity
  8
CUT
100
AcDbLine
 10
503.737
 20
3.57295
 30
0.0
 11
503.588
 21
3.68846
 31
0.0
  0
LINE
  5
35D
330
17
100
AcDbEntity
  8
CUT
100
AcDbLine
 10
503.588
 20
3.68846
 30
0.0
 11
503.446
 21
3.81309
 31
0.0
  0
LINE
  5
35E
330
17
100
AcDbEntity
  8
CUT
100
AcDbLine
 10
503.446
 20
3.81309
 30
0.0
 11
503.313
 21
3.94636
 31
0.0
  0
LINE
  5
35F
330
17
100
AcDbEntity
  8
CUT
100
AcDbLine
 10
503.313
 20
3.94636
 30
0.0
 11
503.188
 21
4.08773
 31
0.0
  0
LINE
  5
360
330
17
100
AcDbEntity
  8
CUT
100
AcDbLine
 10
503.188
 20
4.08773
 30
0.0
 11
503.073
 21
4.23664
 31
0.0
  0
LINE
  5
361
330
17
100
AcDbEntity
  8
CUT
100
AcDbLine
 10
503.073
 20
4.23664
 30
0.0
 11
502.967
 21
4.39252
 31
0.0
  0
LINE
  5
362
330
17
100
AcDbEntity
  8
CUT
100
AcDbLine
 10
502.967
 20
4.39252
 30
0.0
 11
502.871
 21
4.55474
 31
0.0
  0
LINE
  5
363
330
17
100
AcDbEntity
  8
CUT
100
AcDbLine
 10
502.871
 20
4.55474
 30
0.0
 11
502.786
 21
4.72266
 31
0.0
  0
LINE
  5
364
330
17
100
AcDbEntity
  8
CUT
100
AcDbLine
 10
502.786
 20
4.72266
 30
0.0
 11
502.711
 21
4.89563
 31
0.0
  0
LINE
  5
365
330
17
100
AcDbEntity
  8
CUT
100
AcDbLine
 10
502.711
 20
4.89563
 30
0.0
 11
502.647
 21
5.07295
 31
0.0
  0
LINE
  5
366
330
17
100
AcDbEntity
  8
CUT
100
AcDbLine
 10
502.647
 20
5.07295
 30
0.0
 11
502.594
 21
5.25393
 31
0.0
  0
LINE
  5
367
330
17
100
AcDbEntity
  8
CUT
100
AcDbLine
 10
502.594
 20
5.25393
 30
0.0
 11
502.553
 21
5.43786
 31
0.0
  0
LINE
  5
368
330
17
100
AcDbEntity
  8
CUT
100
AcDbLine
 10
502.553
 20
5.43786
 30
0.0
 11
502.524
 21
5.624
 31
0.0
  0
LINE
  5
369
330
17
100
AcDbEntity
  8
CUT
100
AcDbLine
 10
502.524
 20
5.624
 30
0.0
 11
502.506
 21
5.81163
 31
0.0
  0
LINE
  5
36A
330
17
100
AcDbEntity
  8
CUT
100
AcDbLine
 10
502.506
 20
5.81163
 30
0.0
 11
502.5
 21
6.0
 31
0.0
  0
LINE
  5
36B
330
17
100
AcDbEntity
  8
CUT
100
AcDbLine
 10
552.5
 20
50.0
 30
0.0
 11
552.506
 21
50.1884
 31
0.0
  0
LINE
  5
36C
330
17
100
AcDbEntity
  8
CUT
100
AcDbLine
 10
552.506
 20
50.1884
 30
0.0
 11
552.524
 21
50.376
 31
0.0
  0
LINE
  5
36D
330
17
100
AcDbEntity
  8
CUT
100
AcDbLine
 10
552.524
 20
50.376
 30
0.0
 11
552.553
 21
50.5621
 31
0.0
  0
LINE
  5
36E
330
17
100
AcDbEntity
  8
CUT
100
AcDbLine
 10
552.553
 20
50.5621
 30
0.0
 11
552.594
 21
50.7461
 31
0.0
  0
LINE
  5
36F
330
17
100
AcDbEntity
  8
CUT
100
AcDbLine
 10
552.594
 20
50.7461
 30
0.0
 11
552.647
 21
50.9271
 31
0.0
  0
LINE
  5
370
330
17
100
AcDbEntity
  8
CUT
100
AcDbLine
 10
552.647
 20
50.9271
 30
0.0
 11
552.711
 21
51.1044
 31
0.0
  0
LINE
  5
371
330
17
100
AcDbEntity
  8
CUT
100
AcDbLine
 10
552.711
 20
51.1044
 30
0.0
 11
552.786
 21
51.2773
 31
0.0
  0
LINE
  5
372
330
17
100
AcDbEntity
  8
CUT
100
AcDbLine
 10
552.786
 20
51.2773
 30
0.0
 11
552.871
 21
51.4453
 31
0.0
  0
LINE
  5
373
330
17
100
AcDbEntity
  8
CUT
100
AcDbLine
 10
552.871
 20
51.4453
 30
0.0
 11
552.967
 21
51.6075
 31
0.0
  0
LINE
  5
374
330
17
100
AcDbEntity
  8
CUT
100
AcDbLine
 10
552.967
 20
51.6075
 30
0.0
 11
553.073
 21
51.7634
 31
0.0
  0
LINE
  5
375
330
17
100
AcDbEntity
  8
CUT
100
AcDbLine
 10
553.073
 20
51.7634
 30
0.0
 11
553.188
 21
51.9123
 31
0.0
  0
LINE
  5
376
330
17
100
AcDbEntity
  8
CUT
100
AcDbLine
 10
553.188
 20
51.9123
 30
0.0
 11
553.313
 21
52.0536
 31
0.0
  0
LINE
  5
377
330
17
100
AcDbEntity
  8
CUT
100
AcDbLine
 10
553.313
 20
52.0536
 30
0.0
 11
553.446
 21
52.1869
 31
0.0
  0
LINE
  5
378
330
17
100
AcDbEntity
  8
CUT
100
AcDbLine
 10
553.446
 20
52.1869
 30
0.0
 11
553.588
 21
52.3115
 31
0.0
  0
LINE
  5
379
330
17
100
AcDbEntity
  8
CUT
100
AcDbLine
 10
553.588
 20
52.3115
 30
0.0
 11
553.737
 21
52.4271
 31
0.0
  0
LINE
  5
37A
330
17
100
AcDbEntity
  8
CUT
100
AcDbLine
 10
553.737
 20
52.4271
 30
0.0
 11
553.893
 21
52.533
 31
0.0
  0
LINE
  5
37B
330
17
100
AcDbEntity
  8
CUT
100
AcDbLine
 10
553.893
 20
52.533
 30
0.0
 11
554.055
 21
52.6289
 31
0.0
  0
LINE
  5
37C
330
17
100
AcDbEntity
  8
CUT
100
AcDbLine
 10
554.055
 20
52.6289
 30
0.0
 11
554.223
 21
52.7145
 31
0.0
  0
LINE
  5
37D
330
17
100
AcDbEntity
  8
CUT
100
AcDbLine
 10
554.223
 20
52.7145
 30
0.0
 11
554.396
 21
52.7893
 31
0.0
  0
LINE
  5
37E
330
17
100
AcDbEntity
  8
CUT
100
AcDbLine
 10
554.396
 20
52.7893
 30
0.0
 11
554.573
 21
52.8532
 31
0.0
  0
LINE
  5
37F
330
17
100
AcDbEntity
  8
CUT
100
AcDbLine
 10
554.573
 20
52.8532
 30
0.0
 11
554.754
 21
52.9057
 31
0.0
  0
LINE
  5
380
330
17
100
AcDbEntity
  8
CUT
100
AcDbLine
 10
554.754
 20
52.9057
 30
0.0
 11
554.938
 21
52.9469
 31
0.0
  0
LINE
  5
381
330
17
100
AcDbEntity
  8
CUT
100
AcDbLine
 10
554.938
 20
52.9469
 30
0.0
 11
555.124
 21
52.9763
 31
0.0
  0
LINE
  5
382
330
17
100
AcDbEntity
  8
CUT
100
AcDbLine
 10
555.124
 20
52.9763
 30
0.0
 11
555.312
 21
52.9941
 31
0.0
  0
LINE
  5
383
330
17
100
AcDbEntity
  8
CUT
100
AcDbLine
 10
555.312
 20
52.9941
 30
0.0
 11
555.5
 21
53.0
 31
0.0
  0
LINE
  5
384
330
17
100
AcDbEntity
  8
CUT
100
AcDbLine
 10
555.5
 20
53.0
 30
0.0
 11
555.688
 21
52.9941
 31
0.0
  0
LINE
  5
385
330
17
100
AcDbEntity
  8
CUT
100
AcDbLine
 10
555.688
 20
52.9941
 30
0.0
 11
555.876
 21
52.9763
 31
0.0
  0
LINE
  5
386
330
17
100
AcDbEntity
  8
CUT
100
AcDbLine
 10
555.876
 20
52.9763
 30
0.0
 11
556.062
 21
52.9469
 31
0.0
  0
LINE
  5
387
330
17
100
AcDbEntity
  8
CUT
100
AcDbLine
 10
556.062
 20
52.9469
 30
0.0
 11
556.246
 21
52.9057
 31
0.0
  0
LINE
  5
388
330
17
100
AcDbEntity
  8
CUT
100
AcDbLine
 10
556.246
 20
52.9057
 30
0.0
 11
556.427
 21
52.8532
 31
0.0
  0
LINE
  5
389
330
17
100
AcDbEntity
  8
CUT
100
AcDbLine
 10
556.427
 20
52.8532
 30
0.0
 11
556.604
 21
52.7893
 31
0.0
  0
LINE
  5
38A
330
17
100
AcDbEntity
  8
CUT
100
AcDbLine
 10
556.604
 20
52.7893
 30
0.0
 11
556.777
 21
52.7145
 31
0.0
  0
LINE
  5
38B
330
17
100
AcDbEntity
  8
CUT
100
AcDbLine
 10
556.777
 20
52.7145
 30
0.0
 11
556.945
 21
52.6289
 31
0.0
  0
LINE
  5
38C
330
17
100
AcDbEntity
  8
CUT
100
AcDbLine
 10
556.945
 20
52.6289
 30
0.0
 11
557.107
 21
52.533
 31
0.0
  0
LINE
  5
38D
330
17
100
AcDbEntity
  8
CUT
100
AcDbLine
 10
557.107
 20
52.533
 30
0.0
 11
557.263
 21
52.4271
 31
0.0
  0
LINE
  5
38E
330
17
100
AcDbEntity
  8
CUT
100
AcDbLine
 10
557.263
 20
52.4271
 30
0.0
 11
557.412
 21
52.3115
 31
0.0
  0
LINE
  5
38F
330
17
100
AcDbEntity
  8
CUT
100
AcDbLine
 10
557.412
 20
52.3115
 30
0.0
 11
557.554
 21
52.1869
 31
0.0
  0
LINE
  5
390
330
17
100
AcDbEntity
  8
CUT
100
AcDbLine
 10
557.554
 20
52.1869
 30
0.0
 11
557.687
 21
52.0536
 31
0.0
  0
LINE
  5
391
330
17
100
AcDbEntity
  8
CUT
100
AcDbLine
 10
557.687
 20
52.0536
 30
0.0
 11
557.812
 21
51.9123
 31
0.0
  0
LINE
  5
392
330
17
100
AcDbEntity
  8
CUT
100
AcDbLine
 10
557.812
 20
51.9123
 30
0.0
 11
557.927
 21
51.7634
 31
0.0
  0
LINE
  5
393
330
17
100
AcDbEntity
  8
CUT
100
AcDbLine
 10
557.927
 20
51.7634
 30
0.0
 11
558.033
 21
51.6075
 31
0.0
  0
LINE
  5
394
330
17
100
AcDbEntity
  8
CUT
100
AcDbLine
 10
558.033
 20
51.6075
 30
0.0
 11
558.129
 21
51.4453
 31
0.0
  0
LINE
  5
395
330
17
100
AcDbEntity
  8
CUT
100
AcDbLine
 10
558.129
 20
51.4453
 30
0.0
 11
558.214
 21
51.2773
 31
0.0
  0
LINE
  5
396
330
17
100
AcDbEntity
  8
CUT
100
AcDbLine
 10
558.214
 20
51.2773
 30
0.0
 11
558.289
 21
51.1044
 31
0.0
  0
LINE
  5
397
330
17
100
AcDbEntity
  8
CUT
100
AcDbLine
 10
558.289
 20
51.1044
 30
0.0
 11
558.353
 21
50.9271
 31
0.0
  0
LINE
  5
398
330
17
100
AcDbEntity
  8
CUT
100
AcDbLine
 10
558.353
 20
50.9271
 30
0.0
 11
558.406
 21
50.7461
 31
0.0
  0
LINE
  5
399
330
17
100
AcDbEntity
  8
CUT
100
AcDbLine
 10
558.406
 20
50.7461
 30
0.0
 11
558.447
 21
50.5621
 31
0.0
  0
LINE
  5
39A
330
17
100
AcDbEntity
  8
CUT
100
AcDbLine
 10
558.447
 20
50.5621
 30
0.0
 11
558.476
 21
50.376
 31
0.0
  0
LINE
  5
39B
330
17
100
AcDbEntity
  8
CUT
100
AcDbLine
 10
558.476
 20
50.376
 30
0.0
 11
558.494
 21
50.1884
 31
0.0
  0
LINE
  5
39C
330
17
100
AcDbEntity
  8
CUT
100
AcDbLine
 10
558.494
 20
50.1884
 30
0.0
 11
558.5
 21
50.0
 31
0.0
  0
LINE
  5
39D
330
17
100
AcDbEntity
  8
CUT
100
AcDbLine
 10
558.5
 20
50.0
 30
0.0
 11
558.494
 21
49.8116
 31
0.0
  0
LINE
  5
39E
330
17
100
AcDbEntity
  8
CUT
100
AcDbLine
 10
558.494
 20
49.8116
 30
0.0
 11
558.476
 21
49.624
 31
0.0
  0
LINE
  5
39F
330
17
100
AcDbEntity
  8
CUT
100
AcDbLine
 10
558.476
 20
49.624
 30
0.0
 11
558.447
 21
49.4379
 31
0.0
  0
LINE
  5
3A0
330
17
100
AcDbEntity
  8
CUT
100
AcDbLine
 10
558.447
 20
49.4379
 30
0.0
 11
558.406
 21
49.2539
 31
0.0
  0
LINE
  5
3A1
330
17
100
AcDbEntity
  8
CUT
100
AcDbLine
 10
558.406
 20
49.2539
 30
0.0
 11
558.353
 21
49.0729
 31
0.0
  0
LINE
  5
3A2
330
17
100
AcDbEntity
  8
CUT
100
AcDbLine
 10
558.353
 20
49.0729
 30
0.0
 11
558.289
 21
48.8956
 31
0.0
  0
LINE
  5
3A3
330
17
100
AcDbEntity
  8
CUT
100
AcDbLine
 10
558.289
 20
48.8956
 30
0.0
 11
558.214
 21
48.7227
 31
0.0
  0
LINE
  5
3A4
330
17
100
AcDbEntity
  8
CUT
100
AcDbLine
 10
558.214
 20
48.7227
 30
0.0
 11
558.129
 21
48.5547
 31
0.0
  0
LINE
  5
3A5
330
17
100
AcDbEntity
  8
CUT
100
AcDbLine
 10
558.129
 20
48.5547
 30
0.0
 11
558.033
 21
48.3925
 31
0.0
  0
LINE
  5
3A6
330
17
100
AcDbEntity
  8
CUT
100
AcDbLine
 10
558.033
 20
48.3925
 30
0.0
 11
557.927
 21
48.2366
 31
0.0
  0
LINE
  5
3A7
330
17
100
AcDbEntity
  8
CUT
100
AcDbLine
 10
557.927
 20
48.2366
 30
0.0
 11
557.812
 21
48.0877
 31
0.0
  0
LINE
  5
3A8
330
17
100
AcDbEntity
  8
CUT
100
AcDbLine
 10
557.812
 20
48.0877
 30
0.0
 11
557.687
 21
47.9464
 31
0.0
  0
LINE
  5
3A9
330
17
100
AcDbEntity
  8
CUT
100
AcDbLine
 10
557.687
 20
47.9464
 30
0.0
 11
557.554
 21
47.8131
 31
0.0
  0
LINE
  5
3AA
330
17
100
AcDbEntity
  8
CUT
100
AcDbLine
 10
557.554
 20
47.8131
 30
0.0
 11
557.412
 21
47.6885
 31
0.0
  0
LINE
  5
3AB
330
17
100
AcDbEntity
  8
CUT
100
AcDbLine
 10
557.412
 20
47.6885
 30
0.0
 11
557.263
 21
47.5729
 31
0.0
  0
LINE
  5
3AC
330
17
100
AcDbEntity
  8
CUT
100
AcDbLine
 10
557.263
 20
47.5729
 30
0.0
 11
557.107
 21
47.467
 31
0.0
  0
LINE
  5
3AD
330
17
100
AcDbEntity
  8
CUT
100
AcDbLine
 10
557.107
 20
47.467
 30
0.0
 11
556.945
 21
47.3711
 31
0.0
  0
LINE
  5
3AE
330
17
100
AcDbEntity
  8
CUT
100
AcDbLine
 10
556.945
 20
47.3711
 30
0.0
 11
556.777
 21
47.2855
 31
0.0
  0
LINE
  5
3AF
330
17
100
AcDbEntity
  8
CUT
100
AcDbLine
 10
556.777
 20
47.2855
 30
0.0
 11
556.604
 21
47.2107
 31
0.0
  0
LINE
  5
3B0
330
17
100
AcDbEntity
  8
CUT
100
AcDbLine
 10
556.604
 20
47.2107
 30
0.0
 11
556.427
 21
47.1468
 31
0.0
  0
LINE
  5
3B1
330
17
100
AcDbEntity
  8
CUT
100
AcDbLine
 10
556.427
 20
47.1468
 30
0.0
 11
556.246
 21
47.0942
 31
0.0
  0
LINE
  5
3B2
330
17
100
AcDbEntity
  8
CUT
100
AcDbLine
 10
556.246
 20
47.0942
 30
0.0
 11
556.062
 21
47.0531
 31
0.0
  0
LINE
  5
3B3
330
17
100
AcDbEntity
  8
CUT
100
AcDbLine
 10
556.062
 20
47.0531
 30
0.0
 11
555.876
 21
47.0237
 31
0.0
  0
LINE
  5
3B4
330
17
100
AcDbEntity
  8
CUT
100
AcDbLine
 10
555.876
 20
47.0237
 30
0.0
 11
555.688
 21
47.0059
 31
0.0
  0
LINE
  5
3B5
330
17
100
AcDbEntity
  8
CUT
100
AcDbLine
 10
555.688
 20
47.0059
 30
0.0
 11
555.5
 21
47.0
 31
0.0
  0
LINE
  5
3B6
330
17
100
AcDbEntity
  8
CUT
100
AcDbLine
 10
555.5
 20
47.0
 30
0.0
 11
555.312
 21
47.0059
 31
0.0
  0
LINE
  5
3B7
330
17
100
AcDbEntity
  8
CUT
100
AcDbLine
 10
555.312
 20
47.0059
 30
0.0
 11
555.124
 21
47.0237
 31
0.0
  0
LINE
  5
3B8
330
17
100
AcDbEntity
  8
CUT
100
AcDbLine
 10
555.124
 20
47.0237
 30
0.0
 11
554.938
 21
47.0531
 31
0.0
  0
LINE
  5
3B9
330
17
100
AcDbEntity
  8
CUT
100
AcDbLine
 10
554.938
 20
47.0531
 30
0.0
 11
554.754
 21
47.0942
 31
0.0
  0
LINE
  5
3BA
330
17
100
AcDbEntity
  8
CUT
100
AcDbLine
 10
554.754
 20
47.0942
 30
0.0
 11
554.573
 21
47.1468
 31
0.0
  0
LINE
  5
3BB
330
17
100
AcDbEntity
  8
CUT
100
AcDbLine
 10
554.573
 20
47.1468
 30
0.0
 11
554.396
 21
47.2107
 31
0.0
  0
LINE
  5
3BC
330
17
100
AcDbEntity
  8
CUT
100
AcDbLine
 10
554.396
 20
47.2107
 30
0.0
 11
554.223
 21
47.2855
 31
0.0
  0
LINE
  5
3BD
330
17
100
AcDbEntity
  8
CUT
100
AcDbLine
 10
554.223
 20
47.2855
 30
0.0
 11
554.055
 21
47.3711
 31
0.0
  0
LINE
  5
3BE
330
17
100
AcDbEntity
  8
CUT
100
AcDbLine
 10
554.055
 20
47.3711
 30
0.0
 11
553.893
 21
47.467
 31
0.0
  0
LINE
  5
3BF
330
17
100
AcDbEntity
  8
CUT
100
AcDbLine
 10
553.893
 20
47.467
 30
0.0
 11
553.737
 21
47.5729
 31
0.0
  0
LINE
  5
3C0
330
17
100
AcDbEntity
  8
CUT
100
AcDbLine
 10
553.737
 20
47.5729
 30
0.0
 11
553.588
 21
47.6885
 31
0.0
  0
LINE
  5
3C1
330
17
100
AcDbEntity
  8
CUT
100
AcDbLine
 10
553.588
 20
47.6885
 30
0.0
 11
553.446
 21
47.8131
 31
0.0
  0
LINE
  5
3C2
330
17
100
AcDbEntity
  8
CUT
100
AcDbLine
 10
553.446
 20
47.8131
 30
0.0
 11
553.313
 21
47.9464
 31
0.0
  0
LINE
  5
3C3
330
17
100
AcDbEntity
  8
CUT
100
AcDbLine
 10
553.313
 20
47.9464
 30
0.0
 11
553.188
 21
48.0877
 31
0.0
  0
LINE
  5
3C4
330
17
100
AcDbEntity
  8
CUT
100
AcDbLine
 10
553.188
 20
48.0877
 30
0.0
 11
553.073
 21
48.2366
 31
0.0
  0
LINE
  5
3C5
330
17
100
AcDbEntity
  8
CUT
100
AcDbLine
 10
553.073
 20
48.2366
 30
0.0
 11
552.967
 21
48.3925
 31
0.0
  0
LINE
  5
3C6
330
17
100
AcDbEntity
  8
CUT
100
AcDbLine
 10
552.967
 20
48.3925
 30
0.0
 11
552.871
 21
48.5547
 31
0.0
  0
LINE
  5
3C7
330
17
100
AcDbEntity
  8
CUT
100
AcDbLine
 10
552.871
 20
48.5547
 30
0.0
 11
552.786
 21
48.7227
 31
0.0
  0
LINE
  5
3C8
330
17
100
AcDbEntity
  8
CUT
100
AcDbLine
 10
552.786
 20
48.7227
 30
0.0
 11
552.711
 21
48.8956
 31
0.0
  0
LINE
  5
3C9
330
17
100
AcDbEntity
  8
CUT
100
AcDbLine
 10
552.711
 20
48.8956
 30
0.0
 11
552.647
 21
49.0729
 31
0.0
  0
LINE
  5
3CA
330
17
100
AcDbEntity
  8
CUT
100
AcDbLine
 10
552.647
 20
49.0729
 30
0.0
 11
552.594
 21
49.2539
 31
0.0
  0
LINE
  5
3CB
330
17
100
AcDbEntity
  8
CUT
100
AcDbLine
 10
552.594
 20
49.2539
 30
0.0
 11
552.553
 21
49.4379
 31
0.0
  0
LINE
  5
3CC
330
17
100
AcDbEntity
  8
CUT
100
AcDbLine
 10
552.553
 20
49.4379
 30
0.0
 11
552.524
 21
49.624
 31
0.0
  0
LINE
  5
3CD
330
17
100
AcDbEntity
  8
CUT
100
AcDbLine
 10
552.524
 20
49.624
 30
0.0
 11
552.506
 21
49.8116
 31
0.0
  0
LINE
  5
3CE
330
17
100
AcDbEntity
  8
CUT
100
AcDbLine
 10
552.506
 20
49.8116
 30
0.0
 11
552.5
 21
50.0
 31
0.0
  0
LINE
  5
3CF
330
17
100
AcDbEntity
  8
CUT
100
AcDbLine
 10
552.5
 20
157.0
 30
0.0
 11
552.506
 21
157.188
 31
0.0
  0
LINE
  5
3D0
330
17
100
AcDbEntity
  8
CUT
100
AcDbLine
 10
552.506
 20
157.188
 30
0.0
 11
552.524
 21
157.376
 31
0.0
  0
LINE
  5
3D1
330
17
100
AcDbEntity
  8
CUT
100
AcDbLine
 10
552.524
 20
157.376
 30
0.0
 11
552.553
 21
157.562
 31
0.0
  0
LINE
  5
3D2
330
17
100
AcDbEntity
  8
CUT
100
AcDbLine
 10
552.553
 20
157.562
 30
0.0
 11
552.594
 21
157.746
 31
0.0
  0
LINE
  5
3D3
330
17
100
AcDbEntity
  8
CUT
100
AcDbLine
 10
552.594
 20
157.746
 30
0.0
 11
552.647
 21
157.927
 31
0.0
  0
LINE
  5
3D4
330
17
100
AcDbEntity
  8
CUT
100
AcDbLine
 10
552.647
 20
157.927
 30
0.0
 11
552.711
 21
158.104
 31
0.0
  0
LINE
  5
3D5
330
17
100
AcDbEntity
  8
CUT
100
AcDbLine
 10
552.711
 20
158.104
 30
0.0
 11
552.786
 21
158.277
 31
0.0
  0
LINE
  5
3D6
330
17
100
AcDbEntity
  8
CUT
100
AcDbLine
 10
552.786
 20
158.277
 30
0.0
 11
552.871
 21
158.445
 31
0.0
  0
LINE
  5
3D7
330
17
100
AcDbEntity
  8
CUT
100
AcDbLine
 10
552.871
 20
158.445
 30
0.0
 11
552.967
 21
158.607
 31
0.0
  0
LINE
  5
3D8
330
17
100
AcDbEntity
  8
CUT
100
AcDbLine
 10
552.967
 20
158.607
 30
0.0
 11
553.073
 21
158.763
 31
0.0
  0
LINE
  5
3D9
330
17
100
AcDbEntity
  8
CUT
100
AcDbLine
 10
553.073
 20
158.763
 30
0.0
 11
553.188
 21
158.912
 31
0.0
  0
LINE
  5
3DA
330
17
100
AcDbEntity
  8
CUT
100
AcDbLine
 10
553.188
 20
158.912
 30
0.0
 11
553.313
 21
159.054
 31
0.0
  0
LINE
  5
3DB
330
17
100
AcDbEntity
  8
CUT
100
AcDbLine
 10
553.313
 20
159.054
 30
0.0
 11
553.446
 21
159.187
 31
0.0
  0
LINE
  5
3DC
330
17
100
AcDbEntity
  8
CUT
100
AcDbLine
 10
553.446
 20
159.187
 30
0.0
 11
553.588
 21
159.312
 31
0.0
  0
LINE
  5
3DD
330
17
100
AcDbEntity
  8
CUT
100
AcDbLine
 10
553.588
 20
159.312
 30
0.0
 11
553.737
 21
159.427
 31
0.0
  0
LINE
  5
3DE
330
17
100
AcDbEntity
  8
CUT
100
AcDbLine
 10
553.737
 20
159.427
 30
0.0
 11
553.893
 21
159.533
 31
0.0
  0
LINE
  5
3DF
330
17
100
AcDbEntity
  8
CUT
100
AcDbLine
 10
553.893
 20
159.533
 30
0.0
 11
554.055
 21
159.629
 31
0.0
  0
LINE
  5
3E0
330
17
100
AcDbEntity
  8
CUT
100
AcDbLine
 10
554.055
 20
159.629
 30
0.0
 11
554.223
 21
159.714
 31
0.0
  0
LINE
  5
3E1
330
17
100
AcDbEntity
  8
CUT
100
AcDbLine
 10
554.223
 20
159.714
 30
0.0
 11
554.396
 21
159.789
 31
0.0
  0
LINE
  5
3E2
330
17
100
AcDbEntity
  8
CUT
100
AcDbLine
 10
554.396
 20
159.789
 30
0.0
 11
554.573
 21
159.853
 31
0.0
  0
LINE
  5
3E3
330
17
100
AcDbEntity
  8
CUT
100
AcDbLine
 10
554.573
 20
159.853
 30
0.0
 11
554.754
 21
159.906
 31
0.0
  0
LINE
  5
3E4
330
17
100
AcDbEntity
  8
CUT
100
AcDbLine
 10
554.754
 20
159.906
 30
0.0
 11
554.938
 21
159.947
 31
0.0
  0
LINE
  5
3E5
330
17
100
AcDbEntity
  8
CUT
100
AcDbLine
 10
554.938
 20
159.947
 30
0.0
 11
555.124
 21
159.976
 31
0.0
  0
LINE
  5
3E6
330
17
100
AcDbEntity
  8
CUT
100
AcDbLine
 10
555.124
 20
159.976
 30
0.0
 11
555.312
 21
159.994
 31
0.0
  0
LINE
  5
3E7
330
17
100
AcDbEntity
  8
CUT
100
AcDbLine
 10
555.312
 20
159.994
 30
0.0
 11
555.5
 21
160.0
 31
0.0
  0
LINE
  5
3E8
330
17
100
AcDbEntity
  8
CUT
100
AcDbLine
 10
555.5
 20
160.0
 30
0.0
 11
555.688
 21
159.994
 31
0.0
  0
LINE
  5
3E9
330
17
100
AcDbEntity
  8
CUT
100
AcDbLine
 10
555.688
 20
159.994
 30
0.0
 11
555.876
 21
159.976
 31
0.0
  0
LINE
  5
3EA
330
17
100
AcDbEntity
  8
CUT
100
AcDbLine
 10
555.876
 20
159.976
 30
0.0
 11
556.062
 21
159.947
 31
0.0
  0
LINE
  5
3EB
330
17
100
AcDbEntity
  8
CUT
100
AcDbLine
 10
556.062
 20
159.947
 30
0.0
 11
556.246
 21
159.906
 31
0.0
  0
LINE
  5
3EC
330
17
100
AcDbEntity
  8
CUT
100
AcDbLine
 10
556.246
 20
159.906
 30
0.0
 11
556.427
 21
159.853
 31
0.0
  0
LINE
  5
3ED
330
17
100
AcDbEntity
  8
CUT
100
AcDbLine
 10
556.427
 20
159.853
 30
0.0
 11
556.604
 21
159.789
 31
0.0
  0
LINE
  5
3EE
330
17
100
AcDbEntity
  8
CUT
100
AcDbLine
 10
556.604
 20
159.789
 30
0.0
 11
556.777
 21
159.714
 31
0.0
  0
LINE
  5
3EF
330
17
100
AcDbEntity
  8
CUT
100
AcDbLine
 10
556.777
 20
159.714
 30
0.0
 11
556.945
 21
159.629
 31
0.0
  0
LINE
  5
3F0
330
17
100
AcDbEntity
  8
CUT
100
AcDbLine
 10
556.945
 20
159.629
 30
0.0
 11
557.107
 21
159.533
 31
0.0
  0
LINE
  5
3F1
330
17
100
AcDbEntity
  8
CUT
100
AcDbLine
 10
557.107
 20
159.533
 30
0.0
 11
557.263
 21
159.427
 31
0.0
  0
LINE
  5
3F2
330
17
100
AcDbEntity
  8
CUT
100
AcDbLine
 10
557.263
 20
159.427
 30
0.0
 11
557.412
 21
159.312
 31
0.0
  0
LINE
  5
3F3
330
17
100
AcDbEntity
  8
CUT
100
AcDbLine
 10
557.412
 20
159.312
 30
0.0
 11
557.554
 21
159.187
 31
0.0
  0
LINE
  5
3F4
330
17
100
AcDbEntity
  8
CUT
100
AcDbLine
 10
557.554
 20
159.187
 30
0.0
 11
557.687
 21
159.054
 31
0.0
  0
LINE
  5
3F5
330
17
100
AcDbEntity
  8
CUT
100
AcDbLine
 10
557.687
 20
159.054
 30
0.0
 11
557.812
 21
158.912
 31
0.0
  0
LINE
  5
3F6
330
17
100
AcDbEntity
  8
CUT
100
AcDbLine
 10
557.812
 20
158.912
 30
0.0
 11
557.927
 21
158.763
 31
0.0
  0
LINE
  5
3F7
330
17
100
AcDbEntity
  8
CUT
100
AcDbLine
 10
557.927
 20
158.763
 30
0.0
 11
558.033
 21
158.607
 31
0.0
  0
LINE
  5
3F8
330
17
100
AcDbEntity
  8
CUT
100
AcDbLine
 10
558.033
 20
158.607
 30
0.0
 11
558.129
 21
158.445
 31
0.0
  0
LINE
  5
3F9
330
17
100
AcDbEntity
  8
CUT
100
AcDbLine
 10
558.129
 20
158.445
 30
0.0
 11
558.214
 21
158.277
 31
0.0
  0
LINE
  5
3FA
330
17
100
AcDbEntity
  8
CUT
100
AcDbLine
 10
558.214
 20
158.277
 30
0.0
 11
558.289
 21
158.104
 31
0.0
  0
LINE
  5
3FB
330
17
100
AcDbEntity
  8
CUT
100
AcDbLine
 10
558.289
 20
158.104
 30
0.0
 11
558.353
 21
157.927
 31
0.0
  0
LINE
  5
3FC
330
17
100
AcDbEntity
  8
CUT
100
AcDbLine
 10
558.353
 20
157.927
 30
0.0
 11
558.406
 21
157.746
 31
0.0
  0
LINE
  5
3FD
330
17
100
AcDbEntity
  8
CUT
100
AcDbLine
 10
558.406
 20
157.746
 30
0.0
 11
558.447
 21
157.562
 31
0.0
  0
LINE
  5
3FE
330
17
100
AcDbEntity
  8
CUT
100
AcDbLine
 10
558.447
 20
157.562
 30
0.0
 11
558.476
 21
157.376
 31
0.0
  0
LINE
  5
3FF
330
17
100
AcDbEntity
  8
CUT
100
AcDbLine
 10
558.476
 20
157.376
 30
0.0
 11
558.494
 21
157.188
 31
0.0
  0
LINE
  5
400
330
17
100
AcDbEntity
  8
CUT
100
AcDbLine
 10
558.494
 20
157.188
 30
0.0
 11
558.5
 21
157.0
 31
0.0
  0
LINE
  5
401
330
17
100
AcDbEntity
  8
CUT
100
AcDbLine
 10
558.5
 20
157.0
 30
0.0
 11
558.494
 21
156.812
 31
0.0
  0
LINE
  5
402
330
17
100
AcDbEntity
  8
CUT
100
AcDbLine
 10
558.494
 20
156.812
 30
0.0
 11
558.476
 21
156.624
 31
0.0
  0
LINE
  5
403
330
17
100
AcDbEntity
  8
CUT
100
AcDbLine
 10
558.476
 20
156.624
 30
0.0
 11
558.447
 21
156.438
 31
0.0
  0
LINE
  5
404
330
17
100
AcDbEntity
  8
CUT
100
AcDbLine
 10
558.447
 20
156.438
 30
0.0
 11
558.406
 21
156.254
 31
0.0
  0
LINE
  5
405
330
17
100
AcDbEntity
  8
CUT
100
AcDbLine
 10
558.406
 20
156.254
 30
0.0
 11
558.353
 21
156.073
 31
0.0
  0
LINE
  5
406
330
17
100
AcDbEntity
  8
CUT
100
AcDbLine
 10
558.353
 20
156.073
 30
0.0
 11
558.289
 21
155.896
 31
0.0
  0
LINE
  5
407
330
17
100
AcDbEntity
  8
CUT
100
AcDbLine
 10
558.289
 20
155.896
 30
0.0
 11
558.214
 21
155.723
 31
0.0
  0
LINE
  5
408
330
17
100
AcDbEntity
  8
CUT
100
AcDbLine
 10
558.214
 20
155.723
 30
0.0
 11
558.129
 21
155.555
 31
0.0
  0
LINE
  5
409
330
17
100
AcDbEntity
  8
CUT
100
AcDbLine
 10
558.129
 20
155.555
 30
0.0
 11
558.033
 21
155.393
 31
0.0
  0
LINE
  5
40A
330
17
100
AcDbEntity
  8
CUT
100
AcDbLine
 10
558.033
 20
155.393
 30
0.0
 11
557.927
 21
155.237
 31
0.0
  0
LINE
  5
40B
330
17
100
AcDbEntity
  8
CUT
100
AcDbLine
 10
557.927
 20
155.237
 30
0.0
 11
557.812
 21
155.088
 31
0.0
  0
LINE
  5
40C
330
17
100
AcDbEntity
  8
CUT
100
AcDbLine
 10
557.812
 20
155.088
 30
0.0
 11
557.687
 21
154.946
 31
0.0
  0
LINE
  5
40D
330
17
100
AcDbEntity
  8
CUT
100
AcDbLine
 10
557.687
 20
154.946
 30
0.0
 11
557.554
 21
154.813
 31
0.0
  0
LINE
  5
40E
330
17
100
AcDbEntity
  8
CUT
100
AcDbLine
 10
557.554
 20
154.813
 30
0.0
 11
557.412
 21
154.688
 31
0.0
  0
LINE
  5
40F
330
17
100
AcDbEntity
  8
CUT
100
AcDbLine
 10
557.412
 20
154.688
 30
0.0
 11
557.263
 21
154.573
 31
0.0
  0
LINE
  5
410
330
17
100
AcDbEntity
  8
CUT
100
AcDbLine
 10
557.263
 20
154.573
 30
0.0
 11
557.107
 21
154.467
 31
0.0
  0
LINE
  5
411
330
17
100
AcDbEntity
  8
CUT
100
AcDbLine
 10
557.107
 20
154.467
 30
0.0
 11
556.945
 21
154.371
 31
0.0
  0
LINE
  5
412
330
17
100
AcDbEntity
  8
CUT
100
AcDbLine
 10
556.945
 20
154.371
 30
0.0
 11
556.777
 21
154.286
 31
0.0
  0
LINE
  5
413
330
17
100
AcDbEntity
  8
CUT
100
AcDbLine
 10
556.777
 20
154.286
 30
0.0
 11
556.604
 21
154.211
 31
0.0
  0
LINE
  5
414
330
17
100
AcDbEntity
  8
CUT
100
AcDbLine
 10
556.604
 20
154.211
 30
0.0
 11
556.427
 21
154.147
 31
0.0
  0
LINE
  5
415
330
17
100
AcDbEntity
  8
CUT
100
AcDbLine
 10
556.427
 20
154.147
 30
0.0
 11
556.246
 21
154.094
 31
0.0
  0
LINE
  5
416
330
17
100
AcDbEntity
  8
CUT
100
AcDbLine
 10
556.246
 20
154.094
 30
0.0
 11
556.062
 21
154.053
 31
0.0
  0
LINE
  5
417
330
17
100
AcDbEntity
  8
CUT
100
AcDbLine
 10
556.062
 20
154.053
 30
0.0
 11
555.876
 21
154.024
 31
0.0
  0
LINE
  5
418
330
17
100
AcDbEntity
  8
CUT
100
AcDbLine
 10
555.876
 20
154.024
 30
0.0
 11
555.688
 21
154.006
 31
0.0
  0
LINE
  5
419
330
17
100
AcDbEntity
  8
CUT
100
AcDbLine
 10
555.688
 20
154.006
 30
0.0
 11
555.5
 21
154.0
 31
0.0
  0
LINE
  5
41A
330
17
100
AcDbEntity
  8
CUT
100
AcDbLine
 10
555.5
 20
154.0
 30
0.0
 11
555.312
 21
154.006
 31
0.0
  0
LINE
  5
41B
330
17
100
AcDbEntity
  8
CUT
100
AcDbLine
 10
555.312
 20
154.006
 30
0.0
 11
555.124
 21
154.024
 31
0.0
  0
LINE
  5
41C
330
17
100
AcDbEntity
  8
CUT
100
AcDbLine
 10
555.124
 20
154.024
 30
0.0
 11
554.938
 21
154.053
 31
0.0
  0
LINE
  5
41D
330
17
100
AcDbEntity
  8
CUT
100
AcDbLine
 10
554.938
 20
154.053
 30
0.0
 11
554.754
 21
154.094
 31
0.0
  0
LINE
  5
41E
330
17
100
AcDbEntity
  8
CUT
100
AcDbLine
 10
554.754
 20
154.094
 30
0.0
 11
554.573
 21
154.147
 31
0.0
  0
LINE
  5
41F
330
17
100
AcDbEntity
  8
CUT
100
AcDbLine
 10
554.573
 20
154.147
 30
0.0
 11
554.396
 21
154.211
 31
0.0
  0
LINE
  5
420
330
17
100
AcDbEntity
  8
CUT
100
AcDbLine
 10
554.396
 20
154.211
 30
0.0
 11
554.223
 21
154.286
 31
0.0
  0
LINE
  5
421
330
17
100
AcDbEntity
  8
CUT
100
AcDbLine
 10
554.223
 20
154.286
 30
0.0
 11
554.055
 21
154.371
 31
0.0
  0
LINE
  5
422
330
17
100
AcDbEntity
  8
CUT
100
AcDbLine
 10
554.055
 20
154.371
 30
0.0
 11
553.893
 21
154.467
 31
0.0
  0
LINE
  5
423
330
17
100
AcDbEntity
  8
CUT
100
AcDbLine
 10
553.893
 20
154.467
 30
0.0
 11
553.737
 21
154.573
 31
0.0
  0
LINE
  5
424
330
17
100
AcDbEntity
  8
CUT
100
AcDbLine
 10
553.737
 20
154.573
 30
0.0
 11
553.588
 21
154.688
 31
0.0
  0
LINE
  5
425
330
17
100
AcDbEntity
  8
CUT
100
AcDbLine
 10
553.588
 20
154.688
 30
0.0
 11
553.446
 21
154.813
 31
0.0
  0
LINE
  5
426
330
17
100
AcDbEntity
  8
CUT
100
AcDbLine
 10
553.446
 20
154.813
 30
0.0
 11
553.313
 21
154.946
 31
0.0
  0
LINE
  5
427
330
17
100
AcDbEntity
  8
CUT
100
AcDbLine
 10
553.313
 20
154.946
 30
0.0
 11
553.188
 21
155.088
 31
0.0
  0
LINE
  5
428
330
17
100
AcDbEntity
  8
CUT
100
AcDbLine
 10
553.188
 20
155.088
 30
0.0
 11
553.073
 21
155.237
 31
0.0
  0
LINE
  5
429
330
17
100
AcDbEntity
  8
CUT
100
AcDbLine
 10
553.073
 20
155.237
 30
0.0
 11
552.967
 21
155.393
 31
0.0
  0
LINE
  5
42A
330
17
100
AcDbEntity
  8
CUT
100
AcDbLine
 10
552.967
 20
155.393
 30
0.0
 11
552.871
 21
155.555
 31
0.0
  0
LINE
  5
42B
330
17
100
AcDbEntity
  8
CUT
100
AcDbLine
 10
552.871
 20
155.555
 30
0.0
 11
552.786
 21
155.723
 31
0.0
  0
LINE
  5
42C
330
17
100
AcDbEntity
  8
CUT
100
AcDbLine
 10
552.786
 20
155.723
 30
0.0
 11
552.711
 21
155.896
 31
0.0
  0
LINE
  5
42D
330
17
100
AcDbEntity
  8
CUT
100
AcDbLine
 10
552.711
 20
155.896
 30
0.0
 11
552.647
 21
156.073
 31
0.0
  0
LINE
  5
42E
330
17
100
AcDbEntity
  8
CUT
100
AcDbLine
 10
552.647
 20
156.073
 30
0.0
 11
552.594
 21
156.254
 31
0.0
  0
LINE
  5
42F
330
17
100
AcDbEntity
  8
CUT
100
AcDbLine
 10
552.594
 20
156.254
 30
0.0
 11
552.553
 21
156.438
 31
0.0
  0
LINE
  5
430
330
17
100
AcDbEntity
  8
CUT
100
AcDbLine
 10
552.553
 20
156.438
 30
0.0
 11
552.524
 21
156.624
 31
0.0
  0
LINE
  5
431
330
17
100
AcDbEntity
  8
CUT
100
AcDbLine
 10
552.524
 20
156.624
 30
0.0
 11
552.506
 21
156.812
 31
0.0
  0
LINE
  5
432
330
17
100
AcDbEntity
  8
CUT
100
AcDbLine
 10
552.506
 20
156.812
 30
0.0
 11
552.5
 21
157.0
 31
0.0
  0
DIMENSION
  5
433
330
17
100
AcDbEntity
  8
DIMENSION
100
AcDbDimension
  2
*D1
  3
Standard
 10
0.0
 20
-25.0
 30
0.0
 11
20.75
 21
-25.0
 31
0.0
 70
32
 71
5
  1
<>
100
AcDbAlignedDimension
 13
0.0
 23
0.0
 33
0.0
 14
41.5
 24
0.0
 34
0.0
 50
0.0
100
AcDbRotatedDimension
  0
DIMENSION
  5
447
330
17
100
AcDbEntity
  8
DIMENSION
100
AcDbDimension
  2
*D2
  3
Standard
 10
0.0
 20
-33.0
 30
0.0
 11
45.75
 21
-33.0
 31
0.0
 70
32
 71
5
  1
<>
100
AcDbAlignedDimension
 13
0.0
 23
0.0
 33
0.0
 14
91.5
 24
0.0
 34
0.0
 50
0.0
100
AcDbRotatedDimension
  0
DIMENSION
  5
457
330
17
100
AcDbEntity
  8
DIMENSION
100
AcDbDimension
  2
*D3
  3
Standard
 10
0.0
 20
-41.0
 30
0.0
 11
109.25
 21
-41.0
 31
0.0
 70
32
 71
5
  1
<>
100
AcDbAlignedDimension
 13
0.0
 23
0.0
 33
0.0
 14
218.5
 24
0.0
 34
0.0
 50
0.0
100
AcDbRotatedDimension
  0
DIMENSION
  5
467
330
17
100
AcDbEntity
  8
DIMENSION
100
AcDbDimension
  2
*D4
  3
Standard
 10
0.0
 20
-49.0
 30
0.0
 11
114.75
 21
-49.0
 31
0.0
 70
32
 71
5
  1
<>
100
AcDbAlignedDimension
 13
0.0
 23
0.0
 33
0.0
 14
229.5
 24
0.0
 34
0.0
 50
0.0
100
AcDbRotatedDimension
  0
DIMENSION
  5
477
330
17
100
AcDbEntity
  8
DIMENSION
100
AcDbDimension
  2
*D5
  3
Standard
 10
0.0
 20
-57.0
 30
0.0
 11
183.75
 21
-57.0
 31
0.0
 70
32
 71
5
  1
<>
100
AcDbAlignedDimension
 13
0.0
 23
0.0
 33
0.0
 14
367.5
 24
0.0
 34
0.0
 50
0.0
100
AcDbRotatedDimension
  0
DIMENSION
  5
487
330
17
100
AcDbEntity
  8
DIMENSION
100
AcDbDimension
  2
*D6
  3
Standard
 10
0.0
 20
-65.0
 30
0.0
 11
189.25
 21
-65.0
 31
0.0
 70
32
 71
5
  1
<>
100
AcDbAlignedDimension
 13
0.0
 23
0.0
 33
0.0
 14
378.5
 24
0.0
 34
0.0
 50
0.0
100
AcDbRotatedDimension
  0
DIMENSION
  5
497
330
17
100
AcDbEntity
  8
DIMENSION
100
AcDbDimension
  2
*D7
  3
Standard
 10
0.0
 20
-73.0
 30
0.0
 11
252.75
 21
-73.0
 31
0.0
 70
32
 71
5
  1
<>
100
AcDbAlignedDimension
 13
0.0
 23
0.0
 33
0.0
 14
505.5
 24
0.0
 34
0.0
 50
0.0
100
AcDbRotatedDimension
  0
DIMENSION
  5
4A7
330
17
100
AcDbEntity
  8
DIMENSION
100
AcDbDimension
  2
*D8
  3
Standard
 10
0.0
 20
-81.0
 30
0.0
 11
277.75
 21
-81.0
 31
0.0
 70
32
 71
5
  1
<>
100
AcDbAlignedDimension
 13
0.0
 23
0.0
 33
0.0
 14
555.5
 24
0.0
 34
0.0
 50
0.0
100
AcDbRotatedDimension
  0
DIMENSION
  5
4B7
330
17
100
AcDbEntity
  8
DIMENSION
100
AcDbDimension
  2
*D9
  3
Standard
 10
0.0
 20
-89.0
 30
0.0
 11
298.5
 21
-89.0
 31
0.0
 70
32
 71
5
  1
<>
100
AcDbAlignedDimension
 13
0.0
 23
0.0
 33
0.0
 14
597.0
 24
0.0
 34
0.0
 50
0.0
100
AcDbRotatedDimension
  0
DIMENSION
  5
4C7
330
17
100
AcDbEntity
  8
DIMENSION
100
AcDbDimension
  2
*D10
  3
Standard
 10
597.0
 20
232.0
 30
0.0
 11
576.25
 21
232.0
 31
0.0
 70
32
 71
5
  1
<>
100
AcDbAlignedDimension
 13
597.0
 23
207.0
 33
0.0
 14
555.5
 24
207.0
 34
0.0
 50
0.0
100
AcDbRotatedDimension
  0
DIMENSION
  5
4D7
330
17
100
AcDbEntity
  8
DIMENSION
100
AcDbDimension
  2
*D11
  3
Standard
 10
597.0
 20
240.0
 30
0.0
 11
551.25
 21
240.0
 31
0.0
 70
32
 71
5
  1
<>
100
AcDbAlignedDimension
 13
597.0
 23
207.0
 33
0.0
 14
505.5
 24
207.0
 34
0.0
 50
0.0
100
AcDbRotatedDimension
  0
DIMENSION
  5
4E7
330
17
100
AcDbEntity
  8
DIMENSION
100
AcDbDimension
  2
*D12
  3
Standard
 10
597.0
 20
248.0
 30
0.0
 11
487.75
 21
248.0
 31
0.0
 70
32
 71
5
  1
<>
100
AcDbAlignedDimension
 13
597.0
 23
207.0
 33
0.0
 14
378.5
 24
207.0
 34
0.0
 50
0.0
100
AcDbRotatedDimension
  0
DIMENSION
  5
4F7
330
17
100
AcDbEntity
  8
DIMENSION
100
AcDbDimension
  2
*D13
  3
Standard
 10
597.0
 20
256.0
 30
0.0
 11
482.25
 21
256.0
 31
0.0
 70
32
 71
5
  1
<>
100
AcDbAlignedDimension
 13
597.0
 23
207.0
 33
0.0
 14
367.5
 24
207.0
 34
0.0
 50
0.0
100
AcDbRotatedDimension
  0
DIMENSION
  5
507
330
17
100
AcDbEntity
  8
DIMENSION
100
AcDbDimension
  2
*D14
  3
Standard
 10
597.0
 20
264.0
 30
0.0
 11
413.25
 21
264.0
 31
0.0
 70
32
 71
5
  1
<>
100
AcDbAlignedDimension
 13
597.0
 23
207.0
 33
0.0
 14
229.5
 24
207.0
 34
0.0
 50
0.0
100
AcDbRotatedDimension
  0
DIMENSION
  5
517
330
17
100
AcDbEntity
  8
DIMENSION
100
AcDbDimension
  2
*D15
  3
Standard
 10
597.0
 20
272.0
 30
0.0
 11
407.75
 21
272.0
 31
0.0
 70
32
 71
5
  1
<>
100
AcDbAlignedDimension
 13
597.0
 23
207.0
 33
0.0
 14
218.5
 24
207.0
 34
0.0
 50
0.0
100
AcDbRotatedDimension
  0
DIMENSION
  5
527
330
17
100
AcDbEntity
  8
DIMENSION
100
AcDbDimension
  2
*D16
  3
Standard
 10
597.0
 20
280.0
 30
0.0
 11
344.25
 21
280.0
 31
0.0
 70
32
 71
5
  1
<>
100
AcDbAlignedDimension
 13
597.0
 23
207.0
 33
0.0
 14
91.5
 24
207.0
 34
0.0
 50
0.0
100
AcDbRotatedDimension
  0
DIMENSION
  5
537
330
17
100
AcDbEntity
  8
DIMENSION
100
AcDbDimension
  2
*D17
  3
Standard
 10
597.0
 20
288.0
 30
0.0
 11
319.25
 21
288.0
 31
0.0
 70
32
 71
5
  1
<>
100
AcDbAlignedDimension
 13
597.0
 23
207.0
 33
0.0
 14
41.5
 24
207.0
 34
0.0
 50
0.0
100
AcDbRotatedDimension
  0
DIMENSION
  5
547
330
17
100
AcDbEntity
  8
DIMENSION
100
AcDbDimension
  2
*D18
  3
Standard
 10
-25.0
 20
0.0
 30
0.0
 11
-25.0
 21
3.0
 31
0.0
 70
32
 71
5
  1
<>
100
AcDbAlignedDimension
 13
0.0
 23
0.0
 33
0.0
 14
0.0
 24
6.0
 34
0.0
 50
90.0
100
AcDbRotatedDimension
  0
DIMENSION
  5
557
330
17
100
AcDbEntity
  8
DIMENSION
100
AcDbDimension
  2
*D19
  3
Standard
 10
-33.0
 20
0.0
 30
0.0
 11
-33.0
 21
25.0
 31
0.0
 70
32
 71
5
  1
<>
100
AcDbAlignedDimension
 13
0.0
 23
0.0
 33
0.0
 14
0.0
 24
50.0
 34
0.0
 50
90.0
100
AcDbRotatedDimension
  0
DIMENSION
  5
567
330
17
100
AcDbEntity
  8
DIMENSION
100
AcDbDimension
  2
*D20
  3
Standard
 10
-41.0
 20
0.0
 30
0.0
 11
-41.0
 21
51.5
 31
0.0
 70
32
 71
5
  1
<>
100
AcDbAlignedDimension
 13
0.0
 23
0.0
 33
0.0
 14
0.0
 24
103.0
 34
0.0
 50
90.0
100
AcDbRotatedDimension
  0
DIMENSION
  5
577
330
17
100
AcDbEntity
  8
DIMENSION
100
AcDbDimension
  2
*D21
  3
Standard
 10
-49.0
 20
0.0
 30
0.0
 11
-49.0
 21
78.5
 31
0.0
 70
32
 71
5
  1
<>
100
AcDbAlignedDimension
 13
0.0
 23
0.0
 33
0.0
 14
0.0
 24
157.0
 34
0.0
 50
90.0
100
AcDbRotatedDimension
  0
DIMENSION
  5
587
330
17
100
AcDbEntity
  8
DIMENSION
100
AcDbDimension
  2
*D22
  3
Standard
 10
-57.0
 20
0.0
 30
0.0
 11
-57.0
 21
103.5
 31
0.0
 70
32
 71
5
  1
<>
100
AcDbAlignedDimension
 13
0.0
 23
0.0
 33
0.0
 14
0.0
 24
207.0
 34
0.0
 50
90.0
100
AcDbRotatedDimension
  0
DIMENSION
  5
597
330
17
100
AcDbEntity
  8
DIMENSION
100
AcDbDimension
  2
*D23
  3
Standard
 10
622.0
 20
207.0
 30
0.0
 11
622.0
 21
182.0
 31
0.0
 70
32
 71
5
  1
<>
100
AcDbAlignedDimension
 13
597.0
 23
207.0
 33
0.0
 14
597.0
 24
157.0
 34
0.0
 50
90.0
100
AcDbRotatedDimension
  0
DIMENSION
  5
5A7
330
17
100
AcDbEntity
  8
DIMENSION
100
AcDbDimension
  2
*D24
  3
Standard
 10
630.0
 20
207.0
 30
0.0
 11
630.0
 21
155.0
 31
0.0
 70
32
 71
5
  1
<>
100
AcDbAlignedDimension
 13
597.0
 23
207.0
 33
0.0
 14
597.0
 24
103.0
 34
0.0
 50
90.0
100
AcDbRotatedDimension
  0
DIMENSION
  5
5B7
330
17
100
AcDbEntity
  8
DIMENSION
100
AcDbDimension
  2
*D25
  3
Standard
 10
638.0
 20
207.0
 30
0.0
 11
638.0
 21
128.5
 31
0.0
 70
32
 71
5
  1
<>
100
AcDbAlignedDimension
 13
597.0
 23
207.0
 33
0.0
 14
597.0
 24
50.0
 34
0.0
 50
90.0
100
AcDbRotatedDimension
  0
DIMENSION
  5
5C7
330
17
100
AcDbEntity
  8
DIMENSION
100
AcDbDimension
  2
*D26
  3
Standard
 10
646.0
 20
207.0
 30
0.0
 11
646.0
 21
106.5
 31
0.0
 70
32
 71
5
  1
<>
100
AcDbAlignedDimension
 13
597.0
 23
207.0
 33
0.0
 14
597.0
 24
6.0
 34
0.0
 50
90.0
100
AcDbRotatedDimension
  0
TEXT
  5
5D7
330
17
100
AcDbEntity
  8
ANNOTATION
100
AcDbText
 10
-57.0
 20
-109.0
 30
0.0
 40
5.0
  1
Legend:
100
AcDbText
  0
TEXT
  5
5D8
330
17
100
AcDbEntity
  8
ANNOTATION
100
AcDbText
 10
-57.0
 20
-119.0
 30
0.0
 40
5.0
  1
- CUT layer (red): Panel outline
100
AcDbText
  0
TEXT
  5
5D9
330
17
100
AcDbEntity
  8
ANNOTATION
100
AcDbText
 10
-57.0
 20
-129.0
 30
0.0
 40
5.0
  1
- DRILL layer (blue): Holes to be drilled
100
AcDbText
  0
TEXT
  5
5DA
330
17
100
AcDbEntity
  8
ANNOTATION
100
AcDbText
 10
-57.0
 20
-139.0
 30
0.0
 40
5.0
  1
- DIMENSION layer (grey): Panel and hole dimensions
100
AcDbText
  0
TEXT
  5
5DB
330
17
100
AcDbEntity
  8
ANNOTATION
100
AcDbText
 10
-57.0
 20
-149.0
 30
0.0
 40
5.0
  1
- ANNOTATION layer (black): Hole dimensions (d=diameter, h=depth).
100
AcDbText
  0
TEXT
  5
5DC
330
17
100
AcDbEntity
  8
ANNOTATION
100
AcDbText
 10
-57.0
 20
-159.0
 30
0.0
 40
5.0
  1
- For side-drilled holes, Z-coordinate is included (e.g., d10 h20 z9.5).
100
AcDbText
  0
TEXT
  5
5DD
330
17
100
AcDbEntity
  8
ANNOTATION
100
AcDbText
 10
-57.0
 20
-169.0
 30
0.0
 40
5.0
  1
- Side-drilled holes are also marked with a blue cross on the DRILL layer.
100
AcDbText
  0
TEXT
  5
5DE
330
17
100
AcDbEntity
  8
ANNOTATION
100
AcDbText
 10
666.0
 20
288.0
 30
0.0
 40
3.75
  1
Hole Schedule
100
AcDbText
  0
TEXT
  5
5DF
330
17
100
AcDbEntity
  8
ANNOTATION
100
AcDbText
 10
666.0
 20
280.5
 30
0.0
 40
2.5
  1
Hole Name
100
AcDbText
  0
TEXT
  5
5E0
330
17
100
AcDbEntity
  8
ANNOTATION
100
AcDbText
 10
716.0
 20
280.5
 30
0.0
 40
2.5
  1
X
100
AcDbText
  0
TEXT
  5
5E1
330
17
100
AcDbEntity
  8
ANNOTATION
100
AcDbText
 10
736.0
 20
280.5
 30
0.0
 40
2.5
  1
Y
100
AcDbText
  0
TEXT
  5
5E2
330
17
100
AcDbEntity
  8
ANNOTATION
100
AcDbText
 10
756.0
 20
280.5
 30
0.0
 40
2.5
  1
Z
100
AcDbText
  0
TEXT
  5
5E3
330
17
100
AcDbEntity
  8
ANNOTATION
100
AcDbText
 10
776.0
 20
280.5
 30
0.0
 40
2.5
  1
Dia
100
AcDbText
  0
TEXT
  5
5E4
330
17
100
AcDbEntity
  8
ANNOTATION
100
AcDbText
 10
796.0
 20
280.5
 30
0.0
 40
2.5
  1
Depth
100
AcDbText
  0
LINE
  5
5E5
330
17
100
AcDbEntity
  8
ANNOTATION
100
AcDbLine
 10
666.0
 20
279.25
 30
0.0
 11
816.0
 21
279.25
 31
0.0
  0
TEXT
  5
5E6
330
17
100
AcDbEntity
  8
ANNOTATION
100
AcDbText
 10
666.0
 20
274.875
 30
0.0
 40
2.5
  1
left_side_1
100
AcDbText
  0
TEXT
  5
5E7
330
17
100
AcDbEntity
  8
ANNOTATION
100
AcDbText
 10
716.0
 20
274.875
 30
0.0
 40
2.5
  1
41.5
100
AcDbText
  0
TEXT
  5
5E8
330
17
100
AcDbEntity
  8
ANNOTATION
100
AcDbText
 10
736.0
 20
274.875
 30
0.0
 40
2.5
  1
50.0
100
AcDbText
  0
TEXT
  5
5E9
330
17
100
AcDbEntity
  8
ANNOTATION
100
AcDbText
 10
756.0
 20
274.875
 30
0.0
 40
2.5
  1
0.0
100
AcDbText
  0
TEXT
  5
5EA
330
17
100
AcDbEntity
  8
ANNOTATION
100
AcDbText
 10
776.0
 20
274.875
 30
0.0
 40
2.5
  1
6.0
100
AcDbText
  0
TEXT
  5
5EB
330
17
100
AcDbEntity
  8
ANNOTATION
100
AcDbText
 10
796.0
 20
274.875
 30
0.0
 40
2.5
  1
10.0
100
AcDbText
  0
TEXT
  5
5EC
330
17
100
AcDbEntity
  8
ANNOTATION
100
AcDbText
 10
666.0
 20
271.125
 30
0.0
 40
2.5
  1
left_side_2
100
AcDbText
  0
TEXT
  5
5ED
330
17
100
AcDbEntity
  8
ANNOTATION
100
AcDbText
 10
716.0
 20
271.125
 30
0.0
 40
2.5
  1
41.5
100
AcDbText
  0
TEXT
  5
5EE
330
17
100
AcDbEntity
  8
ANNOTATION
100
AcDbText
 10
736.0
 20
271.125
 30
0.0
 40
2.5
  1
157.0
100
AcDbText
  0
TEXT
  5
5EF
330
17
100
AcDbEntity
  8
ANNOTATION
100
AcDbText
 10
756.0
 20
271.125
 30
0.0
 40
2.5
  1
0.0
100
AcDbText
  0
TEXT
  5
5F0
330
17
100
AcDbEntity
  8
ANNOTATION
100
AcDbText
 10
776.0
 20
271.125
 30
0.0
 40
2.5
  1
6.0
100
AcDbText
  0
TEXT
  5
5F1
330
17
100
AcDbEntity
  8
ANNOTATION
100
AcDbText
 10
796.0
 20
271.125
 30
0.0
 40
2.5
  1
10.0
100
AcDbText
  0
TEXT
  5
5F2
330
17
100
AcDbEntity
  8
ANNOTATION
100
AcDbText
 10
666.0
 20
267.375
 30
0.0
 40
2.5
  1
right_side_1
100
AcDbText
  0
TEXT
  5
5F3
330
17
100
AcDbEntity
  8
ANNOTATION
100
AcDbText
 10
716.0
 20
267.375
 30
0.0
 40
2.5
  1
555.5
100
AcDbText
  0
TEXT
  5
5F4
330
17
100
AcDbEntity
  8
ANNOTATION
100
AcDbText
 10
736.0
 20
267.375
 30
0.0
 40
2.5
  1
50.0
100
AcDbText
  0
TEXT
  5
5F5
330
17
100
AcDbEntity
  8
ANNOTATION
100
AcDbText
 10
756.0
 20
267.375
 30
0.0
 40
2.5
  1
0.0
100
AcDbText
  0
TEXT
  5
5F6
330
17
100
AcDbEntity
  8
ANNOTATION
100
AcDbText
 10
776.0
 20
267.375
 30
0.0
 40
2.5
  1
6.0
100
AcDbText
  0
TEXT
  5
5F7
330
17
100
AcDbEntity
  8
ANNOTATION
100
AcDbText
 10
796.0
 20
267.375
 30
0.0
 40
2.5
  1
10.0
100
AcDbText
  0
TEXT
  5
5F8
330
17
100
AcDbEntity
  8
ANNOTATION
100
AcDbText
 10
666.0
 20
263.625
 30
0.0
 40
2.5
  1
right_side_2
100
AcDbText
  0
TEXT
  5
5F9
330
17
100
AcDbEntity
  8
ANNOTATION
100
AcDbText
 10
716.0
 20
263.625
 30
0.0
 40
2.5
  1
555.5
100
AcDbText
  0
TEXT
  5
5FA
330
17
100
AcDbEntity
  8
ANNOTATION
100
AcDbText
 10
736.0
 20
263.625
 30
0.0
 40
2.5
  1
157.0
100
AcDbText
  0
TEXT
  5
5FB
330
17
100
AcDbEntity
  8
ANNOTATION
100
AcDbText
 10
756.0
 20
263.625
 30
0.0
 40
2.5
  1
0.0
100
AcDbText
  0
TEXT
  5
5FC
330
17
100
AcDbEntity
  8
ANNOTATION
100
AcDbText
 10
776.0
 20
263.625
 30
0.0
 40
2.5
  1
6.0
100
AcDbText
  0
TEXT
  5
5FD
330
17
100
AcDbEntity
  8
ANNOTATION
100
AcDbText
 10
796.0
 20
263.625
 30
0.0
 40
2.5
  1
10.0
100
AcDbText
  0
TEXT
  5
5FE
330
17
100
AcDbEntity
  8
ANNOTATION
100
AcDbText
 10
666.0
 20
259.875
 30
0.0
 40
2.5
  1
bottom_panel_1
100
AcDbText
  0
TEXT
  5
5FF
330
17
100
AcDbEntity
  8
ANNOTATION
100
AcDbText
 10
716.0
 20
259.875
 30
0.0
 40
2.5
  1
91.5
100
AcDbText
  0
TEXT
  5
600
330
17
100
AcDbEntity
  8
ANNOTATION
100
AcDbText
 10
736.0
 20
259.875
 30
0.0
 40
2.5
  1
6.0
100
AcDbText
  0
TEXT
  5
601
330
17
100
AcDbEntity
  8
ANNOTATION
100
AcDbText
 10
756.0
 20
259.875
 30
0.0
 40
2.5
  1
0.0
100
AcDbText
  0
TEXT
  5
602
330
17
100
AcDbEntity
  8
ANNOTATION
100
AcDbText
 10
776.0
 20
259.875
 30
0.0
 40
2.5
  1
6.0
100
AcDbText
  0
TEXT
  5
603
330
17
100
AcDbEntity
  8
ANNOTATION
100
AcDbText
 10
796.0
 20
259.875
 30
0.0
 40
2.5
  1
10.0
100
AcDbText
  0
TEXT
  5
604
330
17
100
AcDbEntity
  8
ANNOTATION
100
AcDbText
 10
666.0
 20
256.125
 30
0.0
 40
2.5
  1
bottom_panel_2
100
AcDbText
  0
TEXT
  5
605
330
17
100
AcDbEntity
  8
ANNOTATION
100
AcDbText
 10
716.0
 20
256.125
 30
0.0
 40
2.5
  1
505.5
100
AcDbText
  0
TEXT
  5
606
330
17
100
AcDbEntity
  8
ANNOTATION
100
AcDbText
 10
736.0
 20
256.125
 30
0.0
 40
2.5
  1
6.0
100
AcDbText
  0
TEXT
  5
607
330
17
100
AcDbEntity
  8
ANNOTATION
100
AcDbText
 10
756.0
 20
256.125
 30
0.0
 40
2.5
  1
0.0
100
AcDbText
  0
TEXT
  5
608
330
17
100
AcDbEntity
  8
ANNOTATION
100
AcDbText
 10
776.0
 20
256.125
 30
0.0
 40
2.5
  1
6.0
100
AcDbText
  0
TEXT
  5
609
330
17
100
AcDbEntity
  8
ANNOTATION
100
AcDbText
 10
796.0
 20
256.125
 30
0.0
 40
2.5
  1
10.0
100
AcDbText
  0
TEXT
  5
60A
330
17
100
AcDbEntity
  8
ANNOTATION
100
AcDbText
 10
666.0
 20
252.375
 30
0.0
 40
2.5
  1
bottom_panel_3
100
AcDbText
  0
TEXT
  5
60B
330
17
100
AcDbEntity
  8
ANNOTATION
100
AcDbText
 10
716.0
 20
252.375
 30
0.0
 40
2.5
  1
229.5
100
AcDbText
  0
TEXT
  5
60C
330
17
100
AcDbEntity
  8
ANNOTATION
100
AcDbText
 10
736.0
 20
252.375
 30
0.0
 40
2.5
  1
6.0
100
AcDbText
  0
TEXT
  5
60D
330
17
100
AcDbEntity
  8
ANNOTATION
100
AcDbText
 10
756.0
 20
252.375
 30
0.0
 40
2.5
  1
0.0
100
AcDbText
  0
TEXT
  5
60E
330
17
100
AcDbEntity
  8
ANNOTATION
100
AcDbText
 10
776.0
 20
252.375
 30
0.0
 40
2.5
  1
6.0
100
AcDbText
  0
TEXT
  5
60F
330
17
100
AcDbEntity
  8
ANNOTATION
100
AcDbText
 10
796.0
 20
252.375
 30
0.0
 40
2.5
  1
10.0
100
AcDbText
  0
TEXT
  5
610
330
17
100
AcDbEntity
  8
ANNOTATION
100
AcDbText
 10
666.0
 20
248.625
 30
0.0
 40
2.5
  1
bottom_panel_4
100
AcDbText
  0
TEXT
  5
611
330
17
100
AcDbEntity
  8
ANNOTATION
100
AcDbText
 10
716.0
 20
248.625
 30
0.0
 40
2.5
  1
367.5
100
AcDbText
  0
TEXT
  5
612
330
17
100
AcDbEntity
  8
ANNOTATION
100
AcDbText
 10
736.0
 20
248.625
 30
0.0
 40
2.5
  1
6.0
100
AcDbText
  0
TEXT
  5
613
330
17
100
AcDbEntity
  8
ANNOTATION
100
AcDbText
 10
756.0
 20
248.625
 30
0.0
 40
2.5
  1
0.0
100
AcDbText
  0
TEXT
  5
614
330
17
100
AcDbEntity
  8
ANNOTATION
100
AcDbText
 10
776.0
 20
248.625
 30
0.0
 40
2.5
  1
6.0
100
AcDbText
  0
TEXT
  5
615
330
17
100
AcDbEntity
  8
ANNOTATION
100
AcDbText
 10
796.0
 20
248.625
 30
0.0
 40
2.5
  1
10.0
100
AcDbText
  0
TEXT
  5
616
330
17
100
AcDbEntity
  8
ANNOTATION
100
AcDbText
 10
666.0
 20
244.875
 30
0.0
 40
2.5
  1
handle_1
100
AcDbText
  0
TEXT
  5
617
330
17
100
AcDbEntity
  8
ANNOTATION
100
AcDbText
 10
716.0
 20
244.875
 30
0.0
 40
2.5
  1
218.5
100
AcDbText
  0
TEXT
  5
618
330
17
100
AcDbEntity
  8
ANNOTATION
100
AcDbText
 10
736.0
 20
244.875
 30
0.0
 40
2.5
  1
103.0
100
AcDbText
  0
TEXT
  5
619
330
17
100
AcDbEntity
  8
ANNOTATION
100
AcDbText
 10
756.0
 20
244.875
 30
0.0
 40
2.5
  1
0.0
100
AcDbText
  0
TEXT
  5
61A
330
17
100
AcDbEntity
  8
ANNOTATION
100
AcDbText
 10
776.0
 20
244.875
 30
0.0
 40
2.5
  1
4.0
100
AcDbText
  0
TEXT
  5
61B
330
17
100
AcDbEntity
  8
ANNOTATION
100
AcDbText
 10
796.0
 20
244.875
 30
0.0
 40
2.5
  1
18.0
100
AcDbText
  0
TEXT
  5
61C
330
17
100
AcDbEntity
  8
ANNOTATION
100
AcDbText
 10
666.0
 20
241.125
 30
0.0
 40
2.5
  1
handle_2
100
AcDbText
  0
TEXT
  5
61D
330
17
100
AcDbEntity
  8
ANNOTATION
100
AcDbText
 10
716.0
 20
241.125
 30
0.0
 40
2.5
  1
378.5
100
AcDbText
  0
TEXT
  5
61E
330
17
100
AcDbEntity
  8
ANNOTATION
100
AcDbText
 10
736.0
 20
241.125
 30
0.0
 40
2.5
  1
103.0
100
AcDbText
  0
TEXT
  5
61F
330
17
100
AcDbEntity
  8
ANNOTATION
100
AcDbText
 10
756.0
 20
241.125
 30
0.0
 40
2.5
  1
0.0
100
AcDbText
  0
TEXT
  5
620
330
17
100
AcDbEntity
  8
ANNOTATION
100
AcDbText
 10
776.0
 20
241.125
 30
0.0
 40
2.5
  1
4.0
100
AcDbText
  0
TEXT
  5
621
330
17
100
AcDbEntity
  8
ANNOTATION
100
AcDbText
 10
796.0
 20
241.125
 30
0.0
 40
2.5
  1
18.0
100
AcDbText
  0
TEXT
  5
623
330
17
100
AcDbEntity
  8
ANNOTATION
100
AcDbText
 10
379.5
 20
311.75
 30
0.0
 40
10.0
  1
DrawerFrontStandard
  7
Title
 72
1
 11
379.5
 21
311.75
 31
0.0
100
AcDbText
 73
2
  0
ENDSEC
  0
SECTION
  2
OBJECTS
  0
DICTIONARY
  5
A
330
0
100
AcDbDictionary
281
1
  3
ACAD_COLOR
350
B
  3
ACAD_GROUP
350
C
  3
ACAD_LAYOUT
350
D
  3
ACAD_MATERIAL
350
E
  3
ACAD_MLEADERSTYLE
350
F
  3
ACAD_MLINESTYLE
350
10
  3
ACAD_PLOTSETTINGS
350
11
  3
ACAD_PLOTSTYLENAME
350
12
  3
ACAD_SCALELIST
350
14
  3
ACAD_TABLESTYLE
350
15
  3
ACAD_VISUALSTYLE
350
16
  3
EZDXF_META
350
2D
  0
DICTIONARY
  5
B
330
A
100
AcDbDictionary
281
1
  0
DICTIONARY
  5
C
330
A
100
AcDbDictionary
281
1
  0
DICTIONARY
  5
D
330
A
100
AcDbDictionary
281
1
  3
Model
350
1A
  3
Layout1
350
1E
  3
A4 landscape
350
627
  0
DICTIONARY
  5
E
330
A
100
AcDbDictionary
281
1
  3
ByBlock
350
1F
  3
ByLayer
350
20
  3
Global
350
21
  0
DICTIONARY
  5
F
330
A
100
AcDbDictionary
281
1
  3
Standard
350
2C
  0
DICTIONARY
  5
10
330
A
100
AcDbDictionary
281
1
  3
Standard
350
22
  0
DICTIONARY
  5
11
330
A
100
AcDbDictionary
281
1
  0
ACDBDICTIONARYWDFLT
  5
12
330
A
100
AcDbDictionary
281
1
  3
Normal
350
13
100
AcDbDictionaryWithDefault
340
13
  0
ACDBPLACEHOLDER
  5
13
330
12
  0
DICTIONARY
  5
14
330
A
100
AcDbDictionary
281
1
  0
DICTIONARY
  5
15
330
A
100
AcDbDictionary
281
1
  0
DICTIONARY
  5
16
330
A
100
AcDbDictionary
281
1
  0
LAYOUT
  5
1A
330
D
100
AcDbPlotSettings
  1

  4
A3
  6

 40
7.5
 41
20.0
 42
7.5
 43
20.0
 44
420.0
 45
297.0
 46
0.0
 47
0.0
 48
0.0
 49
0.0
140
0.0
141
0.0
142
1.0
143
1.0
 70
1024
 72
1
 73
0
 74
5
  7

 75
16
 76
0
 77
2
 78
300
147
1.0
148
0.0
149
0.0
100
AcDbLayout
  1
Model
 70
1
 71
0
 10
0.0
 20
0.0
 11
420.0
 21
297.0
 12
0.0
 22
0.0
 32
0.0
 14
1e+20
 24
1e+20
 34
1e+20
 15
-1e+20
 25
-1e+20
 35
-1e+20
146
0.0
 13
0.0
 23
0.0
 33
0.0
 16
1.0
 26
0.0
 36
0.0
 17
0.0
 27
1.0
 37
0.0
 76
1
330
17
  0
LAYOUT
  5
1E
330
D
100
AcDbPlotSettings
  1

  4
A3
  6

 40
7.5
 41
20.0
 42
7.5
 43
20.0
 44
420.0
 45
297.0
 46
0.0
 47
0.0
 48
0.0
 49
0.0
140
0.0
141
0.0
142
1.0
143
1.0
 70
0
 72
1
 73
0
 74
5
  7

 75
16
 76
0
 77
2
 78
300
147
1.0
148
0.0
149
0.0
100
AcDbLayout
  1
Layout1
 70
1
 71
1
 10
0.0
 20
0.0
 11
420.0
 21
297.0
 12
0.0
 22
0.0
 32
0.0
 14
1e+20
 24
1e+20
 34
1e+20
 15
-1e+20
 25
-1e+20
 35
-1e+20
146
0.0
 13
0.0
 23
0.0
 33
0.0
 16
1.0
 26
0.0
 36
0.0
 17
0.0
 27
1.0
 37
0.0
 76
1
330
1B
  0
MATERIAL
  5
1F
102
{ACAD_REACTORS
330
E
102
}
330
E
100
AcDbMaterial
  1
ByBlock
  2

 70
0
 40
1.0
 71
1
 41
1.0
 91
-1023410177
 42
1.0
 72
1
  3

 73
1
 74
1
 75
1
 44
0.5
 73
0
 45
1.0
 46
1.0
 77
1
  4

 78
1
 79
1
170
1
 48
1.0
171
1
  6

172
1
173
1
174
1
140
1.0
141
1.0
175
1
  7

176
1
177
1
178
1
143
1.0
179
1
  8

270
1
271
1
272
1
145
1.0
146
1.0
273
1
  9

274
1
275
1
276
1
 42
1.0
 72
1
  3

 73
1
 74
1
 75
1
 94
63
  0
MATERIAL
  5
20
102
{ACAD_REACTORS
330
E
102
}
330
E
100
AcDbMaterial
  1
ByLayer
  2

 70
0
 40
1.0
 71
1
 41
1.0
 91
-1023410177
 42
1.0
 72
1
  3

 73
1
 74
1
 75
1
 44
0.5
 73
0
 45
1.0
 46
1.0
 77
1
  4

 78
1
 79
1
170
1
 48
1.0
171
1
  6

172
1
173
1
174
1
140
1.0
141
1.0
175
1
  7

176
1
177
1
178
1
143
1.0
179
1
  8

270
1
271
1
272
1
145
1.0
146
1.0
273
1
  9

274
1
275
1
276
1
 42
1.0
 72
1
  3

 73
1
 74
1
 75
1
 94
63
  0
MATERIAL
  5
21
102
{ACAD_REACTORS
330
E
102
}
330
E
100
AcDbMaterial
  1
Global
  2

 70
0
 40
1.0
 71
1
 41
1.0
 91
-1023410177
 42
1.0
 72
1
  3

 73
1
 74
1
 75
1
 44
0.5
 73
0
 45
1.0
 46
1.0
 77
1
  4

 78
1
 79
1
170
1
 48
1.0
171
1
  6

172
1
173
1
174
1
140
1.0
141
1.0
175
1
  7

176
1
177
1
178
1
143
1.0
179
1
  8

270
1
271
1
272
1
145
1.0
146
1.0
273
1
  9

274
1
275
1
276
1
 42
1.0
 72
1
  3

 73
1
 74
1
 75
1
 94
63
  0
MLINESTYLE
  5
22
102
{ACAD_REACTORS
330
10
102
}
330
10
100
AcDbMlineStyle
  2
Standard
 70
0
  3

 62
256
 51
90.0
 52
90.0
 71
2
 49
0.5
 62
256
  6
BYLAYER
 49
-0.5
 62
256
  6
BYLAYER
  0
MLEADERSTYLE
  5
2C
102
{ACAD_REACTORS
330
F
102
}
330
F
100
AcDbMLeaderStyle
179
2
170
2
171
1
172
0
 90
2
 40
0.0
 41
0.0
173
1
 91
-1056964608
 92
-2
290
1
 42
2.0
291
1
 43
8.0
  3
Standard
 44
4.0
300

342
29
174
1
175
1
176
0
178
1
 93
-1056964608
 45
4.0
292
0
297
0
 46
4.0
 94
-1056964608
 47
1.0
 49
1.0
140
1.0
294
1
141
0.0
177
0
142
1.0
295
0
296
0
143
3.75
271
0
272
9
273
9
  0
DICTIONARY
  5
2D
330
A
100
AcDbDictionary
280
1
281
1
  3
CREATED_BY_EZDXF
350
2E
  3
WRITTEN_BY_EZDXF
350
62C
  0
DICTIONARYVAR
  5
2E
330
2D
100
DictionaryVariables
280
0
  1
1.4.2 @ 2025-09-19T05:34:53.579420+00:00
  0
LAYOUT
  5
627
330
D
100
AcDbPlotSettings
  1

  2
DWG to PDF.pc3
  4
ezdxf_(297.00_x_210.00_MM)
  6

 40
10.0
 41
10.0
 42
10.0
 43
10.0
 44
297.0
 45
210.0
 46
0.0
 47
0.0
 48
0.0
 49
0.0
140
0.0
141
0.0
142
1.0
143
1.0
 70
672
 72
1
 73
0
 74
5
  7

 75
16
 76
0
 77
2
 78
300
147
1.0
148
0.0
149
0.0
100
AcDbLayout
  1
A4 landscape
 70
1
 71
3
 10
-10.0
 20
-10.0
 11
287.0
 21
200.0
 12
0.0
 22
0.0
 32
0.0
 14
1e+20
 24
1e+20
 34
1e+20
 15
-1e+20
 25
-1e+20
 35
-1e+20
146
0.0
 13
0.0
 23
0.0
 33
0.0
 16
1.0
 26
0.0
 36
0.0
 17
0.0
 27
1.0
 37
0.0
 76
1
330
624
331
628
  0
DICTIONARYVAR
  5
62C
330
2D
100
DictionaryVariables
280
0
  1
1.4.2 @ 2025-09-19T05:34:53.630390+00:00
  0
ENDSEC
  0
EOF
