  0
SECTION
  2
HEADER
  9
$ACADVER
  1
AC1015
  9
$ACADMAINTVER
 70
6
  9
$DWGCODEPAGE
  3
ANSI_1252
  9
$INSBASE
 10
0.0
 20
0.0
 30
0.0
  9
$EXTMIN
 10
1e+20
 20
1e+20
 30
1e+20
  9
$EXTMAX
 10
-1e+20
 20
-1e+20
 30
-1e+20
  9
$LIMMIN
 10
0.0
 20
0.0
  9
$LIMMAX
 10
420.0
 20
297.0
  9
$ORTHOMODE
 70
0
  9
$REGENMODE
 70
1
  9
$FILLMODE
 70
1
  9
$QTEXTMODE
 70
0
  9
$MIRRTEXT
 70
1
  9
$LTSCALE
 40
1.0
  9
$ATTMODE
 70
1
  9
$TEXTSIZE
 40
2.5
  9
$TRACEWID
 40
1.0
  9
$TEXTSTYLE
  7
Standard
  9
$CLAYER
  8
0
  9
$CELTYPE
  6
ByLayer
  9
$CECOLOR
 62
256
  9
$CELTSCALE
 40
1.0
  9
$DISPSILH
 70
0
  9
$DIMSCALE
 40
1.0
  9
$DIMASZ
 40
2.5
  9
$DIMEXO
 40
0.625
  9
$DIMDLI
 40
3.75
  9
$DIMRND
 40
0.0
  9
$DIMDLE
 40
0.0
  9
$DIMEXE
 40
1.25
  9
$DIMTP
 40
0.0
  9
$DIMTM
 40
0.0
  9
$DIMTXT
 40
2.5
  9
$DIMCEN
 40
2.5
  9
$DIMTSZ
 40
0.0
  9
$DIMTOL
 70
0
  9
$DIMLIM
 70
0
  9
$DIMTIH
 70
0
  9
$DIMTOH
 70
0
  9
$DIMSE1
 70
0
  9
$DIMSE2
 70
0
  9
$DIMTAD
 70
1
  9
$DIMZIN
 70
8
  9
$DIMBLK
  1

  9
$DIMASO
 70
1
  9
$DIMSHO
 70
1
  9
$DIMPOST
  1

  9
$DIMAPOST
  1

  9
$DIMALT
 70
0
  9
$DIMALTD
 70
3
  9
$DIMALTF
 40
0.03937007874
  9
$DIMLFAC
 40
1.0
  9
$DIMTOFL
 70
1
  9
$DIMTVP
 40
0.0
  9
$DIMTIX
 70
0
  9
$DIMSOXD
 70
0
  9
$DIMSAH
 70
0
  9
$DIMBLK1
  1

  9
$DIMBLK2
  1

  9
$DIMSTYLE
  2
ISO-25
  9
$DIMCLRD
 70
0
  9
$DIMCLRE
 70
0
  9
$DIMCLRT
 70
0
  9
$DIMTFAC
 40
1.0
  9
$DIMGAP
 40
0.625
  9
$DIMJUST
 70
0
  9
$DIMSD1
 70
0
  9
$DIMSD2
 70
0
  9
$DIMTOLJ
 70
0
  9
$DIMTZIN
 70
8
  9
$DIMALTZ
 70
0
  9
$DIMALTTZ
 70
0
  9
$DIMUPT
 70
0
  9
$DIMDEC
 70
2
  9
$DIMTDEC
 70
2
  9
$DIMALTU
 70
2
  9
$DIMALTTD
 70
3
  9
$DIMTXSTY
  7
Standard
  9
$DIMAUNIT
 70
0
  9
$DIMADEC
 70
0
  9
$DIMALTRND
 40
0.0
  9
$DIMAZIN
 70
0
  9
$DIMDSEP
 70
44
  9
$DIMATFIT
 70
3
  9
$DIMFRAC
 70
0
  9
$DIMLDRBLK
  1

  9
$DIMLUNIT
 70
2
  9
$DIMLWD
 70
-2
  9
$DIMLWE
 70
-2
  9
$DIMTMOVE
 70
0
  9
$LUNITS
 70
2
  9
$LUPREC
 70
4
  9
$SKETCHINC
 40
1.0
  9
$FILLETRAD
 40
10.0
  9
$AUNITS
 70
0
  9
$AUPREC
 70
2
  9
$MENU
  1
.
  9
$ELEVATION
 40
0.0
  9
$PELEVATION
 40
0.0
  9
$THICKNESS
 40
0.0
  9
$LIMCHECK
 70
0
  9
$CHAMFERA
 40
0.0
  9
$CHAMFERB
 40
0.0
  9
$CHAMFERC
 40
0.0
  9
$CHAMFERD
 40
0.0
  9
$SKPOLY
 70
0
  9
$TDCREATE
 40
2460938.315960648
  9
$TDUCREATE
 40
2458532.153996898
  9
$TDUPDATE
 40
2460938.315960648
  9
$TDUUPDATE
 40
2458532.1544311
  9
$TDINDWG
 40
0.0
  9
$TDUSRTIMER
 40
0.0
  9
$USRTIMER
 70
1
  9
$ANGBASE
 50
0.0
  9
$ANGDIR
 70
0
  9
$PDMODE
 70
0
  9
$PDSIZE
 40
0.0
  9
$PLINEWID
 40
0.0
  9
$SPLFRAME
 70
0
  9
$SPLINETYPE
 70
6
  9
$SPLINESEGS
 70
8
  9
$HANDSEED
  5
1AD
  9
$SURFTAB1
 70
6
  9
$SURFTAB2
 70
6
  9
$SURFTYPE
 70
6
  9
$SURFU
 70
6
  9
$SURFV
 70
6
  9
$UCSBASE
  2

  9
$UCSNAME
  2

  9
$UCSORG
 10
0.0
 20
0.0
 30
0.0
  9
$UCSXDIR
 10
1.0
 20
0.0
 30
0.0
  9
$UCSYDIR
 10
0.0
 20
1.0
 30
0.0
  9
$UCSORTHOREF
  2

  9
$UCSORTHOVIEW
 70
0
  9
$UCSORGTOP
 10
0.0
 20
0.0
 30
0.0
  9
$UCSORGBOTTOM
 10
0.0
 20
0.0
 30
0.0
  9
$UCSORGLEFT
 10
0.0
 20
0.0
 30
0.0
  9
$UCSORGRIGHT
 10
0.0
 20
0.0
 30
0.0
  9
$UCSORGFRONT
 10
0.0
 20
0.0
 30
0.0
  9
$UCSORGBACK
 10
0.0
 20
0.0
 30
0.0
  9
$PUCSBASE
  2

  9
$PUCSNAME
  2

  9
$PUCSORG
 10
0.0
 20
0.0
 30
0.0
  9
$PUCSXDIR
 10
1.0
 20
0.0
 30
0.0
  9
$PUCSYDIR
 10
0.0
 20
1.0
 30
0.0
  9
$PUCSORTHOREF
  2

  9
$PUCSORTHOVIEW
 70
0
  9
$PUCSORGTOP
 10
0.0
 20
0.0
 30
0.0
  9
$PUCSORGBOTTOM
 10
0.0
 20
0.0
 30
0.0
  9
$PUCSORGLEFT
 10
0.0
 20
0.0
 30
0.0
  9
$PUCSORGRIGHT
 10
0.0
 20
0.0
 30
0.0
  9
$PUCSORGFRONT
 10
0.0
 20
0.0
 30
0.0
  9
$PUCSORGBACK
 10
0.0
 20
0.0
 30
0.0
  9
$USERI1
 70
0
  9
$USERI2
 70
0
  9
$USERI3
 70
0
  9
$USERI4
 70
0
  9
$USERI5
 70
0
  9
$USERR1
 40
0.0
  9
$USERR2
 40
0.0
  9
$USERR3
 40
0.0
  9
$USERR4
 40
0.0
  9
$USERR5
 40
0.0
  9
$WORLDVIEW
 70
1
  9
$SHADEDGE
 70
3
  9
$SHADEDIF
 70
70
  9
$TILEMODE
 70
1
  9
$MAXACTVP
 70
64
  9
$PINSBASE
 10
0.0
 20
0.0
 30
0.0
  9
$PLIMCHECK
 70
0
  9
$PEXTMIN
 10
1e+20
 20
1e+20
 30
1e+20
  9
$PEXTMAX
 10
-1e+20
 20
-1e+20
 30
-1e+20
  9
$PLIMMIN
 10
0.0
 20
0.0
  9
$PLIMMAX
 10
420.0
 20
297.0
  9
$UNITMODE
 70
0
  9
$VISRETAIN
 70
1
  9
$PLINEGEN
 70
0
  9
$PSLTSCALE
 70
1
  9
$TREEDEPTH
 70
3020
  9
$CMLSTYLE
  2
Standard
  9
$CMLJUST
 70
0
  9
$CMLSCALE
 40
20.0
  9
$PROXYGRAPHICS
 70
1
  9
$MEASUREMENT
 70
1
  9
$CELWEIGHT
370
-1
  9
$ENDCAPS
280
0
  9
$JOINSTYLE
280
0
  9
$LWDISPLAY
290
0
  9
$INSUNITS
 70
4
  9
$HYPERLINKBASE
  1

  9
$STYLESHEET
  1

  9
$XEDIT
290
1
  9
$CEPSNTYPE
380
0
  9
$PSTYLEMODE
290
1
  9
$FINGERPRINTGUID
  2
{B33242BB-BD57-4CB3-822E-C711418AE2AC}
  9
$VERSIONGUID
  2
{FF7FD1B6-2377-4843-B676-1039F58FD8B2}
  9
$EXTNAMES
290
1
  9
$PSVPSCALE
 40
0.0
  9
$OLESTARTUP
290
0
  0
ENDSEC
  0
SECTION
  2
CLASSES
  0
CLASS
  1
ACDBDICTIONARYWDFLT
  2
AcDbDictionaryWithDefault
  3
ObjectDBX Classes
 90
0
280
0
281
0
  0
CLASS
  1
SUN
  2
AcDbSun
  3
SCENEOE
 90
1153
280
0
281
0
  0
CLASS
  1
VISUALSTYLE
  2
AcDbVisualStyle
  3
ObjectDBX Classes
 90
4095
280
0
281
0
  0
CLASS
  1
MATERIAL
  2
AcDbMaterial
  3
ObjectDBX Classes
 90
1153
280
0
281
0
  0
CLASS
  1
SCALE
  2
AcDbScale
  3
ObjectDBX Classes
 90
1153
280
0
281
0
  0
CLASS
  1
TABLESTYLE
  2
AcDbTableStyle
  3
ObjectDBX Classes
 90
4095
280
0
281
0
  0
CLASS
  1
MLEADERSTYLE
  2
AcDbMLeaderStyle
  3
ACDB_MLEADERSTYLE_CLASS
 90
4095
280
0
281
0
  0
CLASS
  1
DICTIONARYVAR
  2
AcDbDictionaryVar
  3
ObjectDBX Classes
 90
0
280
0
281
0
  0
CLASS
  1
CELLSTYLEMAP
  2
AcDbCellStyleMap
  3
ObjectDBX Classes
 90
1152
280
0
281
0
  0
CLASS
  1
MENTALRAYRENDERSETTINGS
  2
AcDbMentalRayRenderSettings
  3
SCENEOE
 90
1024
280
0
281
0
  0
CLASS
  1
ACDBDETAILVIEWSTYLE
  2
AcDbDetailViewStyle
  3
ObjectDBX Classes
 90
1025
280
0
281
0
  0
CLASS
  1
ACDBSECTIONVIEWSTYLE
  2
AcDbSectionViewStyle
  3
ObjectDBX Classes
 90
1025
280
0
281
0
  0
CLASS
  1
RASTERVARIABLES
  2
AcDbRasterVariables
  3
ISM
 90
0
280
0
281
0
  0
CLASS
  1
ACDBPLACEHOLDER
  2
AcDbPlaceHolder
  3
ObjectDBX Classes
 90
0
280
0
281
0
  0
CLASS
  1
LAYOUT
  2
AcDbLayout
  3
ObjectDBX Classes
 90
0
280
0
281
0
  0
ENDSEC
  0
SECTION
  2
TABLES
  0
TABLE
  2
VPORT
  5
8
330
0
100
AcDbSymbolTable
 70
1
  0
VPORT
  5
23
330
8
100
AcDbSymbolTableRecord
100
AcDbViewportTableRecord
  2
*Active
 70
0
 10
0.0
 20
0.0
 11
1.0
 21
1.0
 12
0.0
 22
0.0
 13
0.0
 23
0.0
 14
0.5
 24
0.5
 15
0.5
 25
0.5
 16
0.0
 26
0.0
 36
1.0
 17
0.0
 27
0.0
 37
0.0
 40
1000.0
 41
1.34
 42
50.0
 43
0.0
 44
0.0
 50
0.0
 51
0.0
 71
0
 72
1000
 73
1
 74
3
 75
0
 76
0
 77
0
 78
0
281
0
 65
0
146
0.0
  0
ENDTAB
  0
TABLE
  2
LTYPE
  5
2
330
0
100
AcDbSymbolTable
 70
3
  0
LTYPE
  5
24
330
2
100
AcDbSymbolTableRecord
100
AcDbLinetypeTableRecord
  2
ByBlock
 70
0
  3

 72
65
 73
0
 40
0.0
  0
LTYPE
  5
25
330
2
100
AcDbSymbolTableRecord
100
AcDbLinetypeTableRecord
  2
ByLayer
 70
0
  3

 72
65
 73
0
 40
0.0
  0
LTYPE
  5
26
330
2
100
AcDbSymbolTableRecord
100
AcDbLinetypeTableRecord
  2
Continuous
 70
0
  3

 72
65
 73
0
 40
0.0
  0
ENDTAB
  0
TABLE
  2
LAYER
  5
1
330
0
100
AcDbSymbolTable
 70
6
  0
LAYER
  5
27
330
1
100
AcDbSymbolTableRecord
100
AcDbLayerTableRecord
  2
0
 70
0
 62
7
  6
Continuous
370
-3
390
13
  0
LAYER
  5
28
330
1
100
AcDbSymbolTableRecord
100
AcDbLayerTableRecord
  2
Defpoints
 70
0
 62
7
  6
Continuous
290
0
370
-3
390
13
  0
LAYER
  5
2F
330
1
100
AcDbSymbolTableRecord
100
AcDbLayerTableRecord
  2
CUT
 70
0
 62
1
  6
CONTINUOUS
370
-3
390
13
  0
LAYER
  5
30
330
1
100
AcDbSymbolTableRecord
100
AcDbLayerTableRecord
  2
DRILL
 70
0
 62
5
  6
CONTINUOUS
370
-3
390
13
  0
LAYER
  5
31
330
1
100
AcDbSymbolTableRecord
100
AcDbLayerTableRecord
  2
DIMENSION
 70
0
 62
8
  6
CONTINUOUS
370
-3
390
13
  0
LAYER
  5
32
330
1
100
AcDbSymbolTableRecord
100
AcDbLayerTableRecord
  2
ANNOTATION
 70
0
 62
7
  6
CONTINUOUS
370
-3
390
13
  0
ENDTAB
  0
TABLE
  2
STYLE
  5
5
330
0
100
AcDbSymbolTable
 70
2
  0
STYLE
  5
29
330
5
100
AcDbSymbolTableRecord
100
AcDbTextStyleTableRecord
  2
Standard
 70
0
 40
0.0
 41
1.0
 50
0.0
 71
0
 42
2.5
  3
txt
  4

  0
STYLE
  5
1A2
330
5
100
AcDbSymbolTableRecord
100
AcDbTextStyleTableRecord
  2
Title
 70
0
 40
0.0
 41
1.0
 50
0.0
 71
0
 42
2.5
  3
ISOCPEUR.ttf
  4

  0
ENDTAB
  0
TABLE
  2
VIEW
  5
7
330
0
100
AcDbSymbolTable
 70
0
  0
ENDTAB
  0
TABLE
  2
UCS
  5
6
330
0
100
AcDbSymbolTable
 70
0
  0
ENDTAB
  0
TABLE
  2
APPID
  5
3
330
0
100
AcDbSymbolTable
 70
3
  0
APPID
  5
2A
330
3
100
AcDbSymbolTableRecord
100
AcDbRegAppTableRecord
  2
ACAD
 70
0
  0
APPID
  5
1AA
330
3
100
AcDbSymbolTableRecord
100
AcDbRegAppTableRecord
  2
HATCHBACKGROUNDCOLOR
 70
0
  0
APPID
  5
1AB
330
3
100
AcDbSymbolTableRecord
100
AcDbRegAppTableRecord
  2
EZDXF
 70
0
  0
ENDTAB
  0
TABLE
  2
DIMSTYLE
  5
4
330
0
100
AcDbSymbolTable
 70
1
100
AcDbDimStyleTable
  0
DIMSTYLE
105
2B
330
4
100
AcDbSymbolTableRecord
100
AcDbDimStyleTableRecord
  2
Standard
 70
0
  3

  4

 40
1.0
 41
2.5
 42
0.625
 43
3.75
 44
1.25
 45
0.0
 46
0.0
 47
0.0
 48
0.0
140
2.5
141
2.5
142
0.0
143
0.03937007874
144
1.0
145
0.0
146
1.0
147
0.625
148
0.0
 71
0
 72
0
 73
0
 74
0
 75
0
 76
0
 77
1
 78
8
 79
3
170
0
171
3
172
1
173
0
174
0
175
0
176
0
177
0
178
0
179
2
271
2
272
2
273
2
274
3
275
0
276
0
277
2
278
44
279
0
280
0
281
0
282
0
283
0
284
8
285
0
286
0
288
0
289
3
371
-2
372
-2
  0
ENDTAB
  0
TABLE
  2
BLOCK_RECORD
  5
9
330
0
100
AcDbSymbolTable
 70
12
  0
BLOCK_RECORD
  5
17
330
9
100
AcDbSymbolTableRecord
100
AcDbBlockTableRecord
  2
*Model_Space
340
1A
  0
BLOCK_RECORD
  5
1B
330
9
100
AcDbSymbolTableRecord
100
AcDbBlockTableRecord
  2
*Paper_Space
340
1E
  0
BLOCK_RECORD
  5
104
330
9
100
AcDbSymbolTableRecord
100
AcDbBlockTableRecord
  2
*D1
340
0
  0
BLOCK_RECORD
  5
109
330
9
100
AcDbSymbolTableRecord
100
AcDbBlockTableRecord
  2
_CLOSEDFILLED
340
0
  0
BLOCK_RECORD
  5
118
330
9
100
AcDbSymbolTableRecord
100
AcDbBlockTableRecord
  2
*D2
340
0
  0
BLOCK_RECORD
  5
128
330
9
100
AcDbSymbolTableRecord
100
AcDbBlockTableRecord
  2
*D3
340
0
  0
BLOCK_RECORD
  5
138
330
9
100
AcDbSymbolTableRecord
100
AcDbBlockTableRecord
  2
*D4
340
0
  0
BLOCK_RECORD
  5
148
330
9
100
AcDbSymbolTableRecord
100
AcDbBlockTableRecord
  2
*D5
340
0
  0
BLOCK_RECORD
  5
158
330
9
100
AcDbSymbolTableRecord
100
AcDbBlockTableRecord
  2
*D6
340
0
  0
BLOCK_RECORD
  5
168
330
9
100
AcDbSymbolTableRecord
100
AcDbBlockTableRecord
  2
*D7
340
0
  0
BLOCK_RECORD
  5
178
330
9
100
AcDbSymbolTableRecord
100
AcDbBlockTableRecord
  2
*D8
340
0
  0
BLOCK_RECORD
  5
1A4
330
9
100
AcDbSymbolTableRecord
100
AcDbBlockTableRecord
  2
*Paper_Space0
340
1A7
  0
ENDTAB
  0
ENDSEC
  0
SECTION
  2
BLOCKS
  0
BLOCK
  5
18
330
17
100
AcDbEntity
  8
0
100
AcDbBlockBegin
  2
*Model_Space
 70
0
 10
0.0
 20
0.0
 30
0.0
  3
*Model_Space
  1

  0
ENDBLK
  5
19
330
17
100
AcDbEntity
  8
0
100
AcDbBlockEnd
  0
BLOCK
  5
1C
330
1B
100
AcDbEntity
  8
0
100
AcDbBlockBegin
  2
*Paper_Space
 70
0
 10
0.0
 20
0.0
 30
0.0
  3
*Paper_Space
  1

  0
ENDBLK
  5
1D
330
1B
100
AcDbEntity
  8
0
100
AcDbBlockEnd
  0
BLOCK
  5
105
330
104
100
AcDbEntity
  8
0
100
AcDbBlockBegin
  2
*D1
 70
1
 10
0.0
 20
0.0
 30
0.0
  3
*D1
  1

  0
LINE
  5
107
330
104
100
AcDbEntity
  8
0
100
AcDbLine
 10
0.0
 20
0.0
 30
0.0
 11
0.0
 21
-25.0
 31
0.0
  0
LINE
  5
108
330
104
100
AcDbEntity
  8
0
100
AcDbLine
 10
15.0
 20
0.0
 30
0.0
 11
15.0
 21
-25.0
 31
0.0
  0
INSERT
  5
10D
330
104
100
AcDbEntity
  8
DIMENSION
100
AcDbBlockReference
  2
_CLOSEDFILLED
 10
0.0
 20
-25.0
 30
0.0
 41
0.25
 42
0.25
 50
180.0
  0
INSERT
  5
10F
330
104
100
AcDbEntity
  8
DIMENSION
100
AcDbBlockReference
  2
_CLOSEDFILLED
 10
15.0
 20
-25.0
 30
0.0
 41
0.25
 42
0.25
  0
LINE
  5
111
330
104
100
AcDbEntity
  8
0
100
AcDbLine
 10
0.25
 20
-25.0
 30
0.0
 11
6.5
 21
-25.0
 31
0.0
  0
LINE
  5
112
330
104
100
AcDbEntity
  8
0
100
AcDbLine
 10
8.5
 20
-25.0
 30
0.0
 11
14.75
 21
-25.0
 31
0.0
  0
MTEXT
  5
113
330
104
100
AcDbEntity
  8
DIMENSION
100
AcDbMText
 10
7.5
 20
-25.0
 30
0.0
 40
1.0
 71
5
  1
15
  0
POINT
  5
114
330
104
100
AcDbEntity
  8
Defpoints
100
AcDbPoint
 10
0.0
 20
-25.0
 30
0.0
  0
POINT
  5
115
330
104
100
AcDbEntity
  8
Defpoints
100
AcDbPoint
 10
0.0
 20
0.0
 30
0.0
  0
POINT
  5
116
330
104
100
AcDbEntity
  8
Defpoints
100
AcDbPoint
 10
15.0
 20
0.0
 30
0.0
  0
ENDBLK
  5
106
330
104
100
AcDbEntity
  8
0
100
AcDbBlockEnd
  0
BLOCK
  5
10A
330
109
100
AcDbEntity
  8
0
100
AcDbBlockBegin
  2
_CLOSEDFILLED
 70
0
 10
0.0
 20
0.0
 30
0.0
  3
_CLOSEDFILLED
  1

  0
SOLID
  5
10C
330
109
100
AcDbEntity
  8
0
  6
BYBLOCK
 62
0
100
AcDbTrace
 10
-1.0
 20
0.16439898372402537
 30
0.0
 11
0.0
 21
0.0
 31
0.0
 12
-1.0
 22
-0.16439898372402537
 32
0.0
 13
-1.0
 23
-0.16439898372402537
 33
0.0
  0
ENDBLK
  5
10B
330
109
100
AcDbEntity
  8
0
100
AcDbBlockEnd
  0
BLOCK
  5
119
330
118
100
AcDbEntity
  8
0
100
AcDbBlockBegin
  2
*D2
 70
1
 10
0.0
 20
0.0
 30
0.0
  3
*D2
  1

  0
LINE
  5
11B
330
118
100
AcDbEntity
  8
0
100
AcDbLine
 10
0.0
 20
0.0
 30
0.0
 11
0.0
 21
-33.0
 31
0.0
  0
LINE
  5
11C
330
118
100
AcDbEntity
  8
0
100
AcDbLine
 10
30.0
 20
0.0
 30
0.0
 11
30.0
 21
-33.0
 31
0.0
  0
INSERT
  5
11D
330
118
100
AcDbEntity
  8
DIMENSION
100
AcDbBlockReference
  2
_CLOSEDFILLED
 10
0.0
 20
-33.0
 30
0.0
 41
0.25
 42
0.25
 50
180.0
  0
INSERT
  5
11F
330
118
100
AcDbEntity
  8
DIMENSION
100
AcDbBlockReference
  2
_CLOSEDFILLED
 10
30.0
 20
-33.0
 30
0.0
 41
0.25
 42
0.25
  0
LINE
  5
121
330
118
100
AcDbEntity
  8
0
100
AcDbLine
 10
0.25
 20
-33.0
 30
0.0
 11
14.0
 21
-33.0
 31
0.0
  0
LINE
  5
122
330
118
100
AcDbEntity
  8
0
100
AcDbLine
 10
16.0
 20
-33.0
 30
0.0
 11
29.75
 21
-33.0
 31
0.0
  0
MTEXT
  5
123
330
118
100
AcDbEntity
  8
DIMENSION
100
AcDbMText
 10
15.0
 20
-33.0
 30
0.0
 40
1.0
 71
5
  1
30
  0
POINT
  5
124
330
118
100
AcDbEntity
  8
Defpoints
100
AcDbPoint
 10
0.0
 20
-33.0
 30
0.0
  0
POINT
  5
125
330
118
100
AcDbEntity
  8
Defpoints
100
AcDbPoint
 10
0.0
 20
0.0
 30
0.0
  0
POINT
  5
126
330
118
100
AcDbEntity
  8
Defpoints
100
AcDbPoint
 10
30.0
 20
0.0
 30
0.0
  0
ENDBLK
  5
11A
330
118
100
AcDbEntity
  8
0
100
AcDbBlockEnd
  0
BLOCK
  5
129
330
128
100
AcDbEntity
  8
0
100
AcDbBlockBegin
  2
*D3
 70
1
 10
0.0
 20
0.0
 30
0.0
  3
*D3
  1

  0
LINE
  5
12B
330
128
100
AcDbEntity
  8
0
100
AcDbLine
 10
30.0
 20
230.0
 30
0.0
 11
30.0
 21
255.0
 31
0.0
  0
LINE
  5
12C
330
128
100
AcDbEntity
  8
0
100
AcDbLine
 10
15.0
 20
230.0
 30
0.0
 11
15.0
 21
255.0
 31
0.0
  0
INSERT
  5
12D
330
128
100
AcDbEntity
  8
DIMENSION
100
AcDbBlockReference
  2
_CLOSEDFILLED
 10
30.0
 20
255.0
 30
0.0
 41
0.25
 42
0.25
 50
180.0
  0
INSERT
  5
12F
330
128
100
AcDbEntity
  8
DIMENSION
100
AcDbBlockReference
  2
_CLOSEDFILLED
 10
15.0
 20
255.0
 30
0.0
 41
0.25
 42
0.25
  0
LINE
  5
131
330
128
100
AcDbEntity
  8
0
100
AcDbLine
 10
30.25
 20
255.0
 30
0.0
 11
23.5
 21
255.0
 31
0.0
  0
LINE
  5
132
330
128
100
AcDbEntity
  8
0
100
AcDbLine
 10
21.5
 20
255.0
 30
0.0
 11
14.75
 21
255.0
 31
0.0
  0
MTEXT
  5
133
330
128
100
AcDbEntity
  8
DIMENSION
100
AcDbMText
 10
22.5
 20
255.0
 30
0.0
 40
1.0
 71
5
  1
15
  0
POINT
  5
134
330
128
100
AcDbEntity
  8
Defpoints
100
AcDbPoint
 10
30.0
 20
255.0
 30
0.0
  0
POINT
  5
135
330
128
100
AcDbEntity
  8
Defpoints
100
AcDbPoint
 10
30.0
 20
230.0
 30
0.0
  0
POINT
  5
136
330
128
100
AcDbEntity
  8
Defpoints
100
AcDbPoint
 10
15.0
 20
230.0
 30
0.0
  0
ENDBLK
  5
12A
330
128
100
AcDbEntity
  8
0
100
AcDbBlockEnd
  0
BLOCK
  5
139
330
138
100
AcDbEntity
  8
0
100
AcDbBlockBegin
  2
*D4
 70
1
 10
0.0
 20
0.0
 30
0.0
  3
*D4
  1

  0
LINE
  5
13B
330
138
100
AcDbEntity
  8
0
100
AcDbLine
 10
0.0
 20
0.0
 30
0.0
 11
-25.0
 21
0.0
 31
0.0
  0
LINE
  5
13C
330
138
100
AcDbEntity
  8
0
100
AcDbLine
 10
0.0
 20
9.0
 30
0.0
 11
-25.0
 21
9.0
 31
0.0
  0
INSERT
  5
13D
330
138
100
AcDbEntity
  8
DIMENSION
100
AcDbBlockReference
  2
_CLOSEDFILLED
 10
-25.0
 20
0.0
 30
0.0
 41
0.25
 42
0.25
 50
270.0
  0
INSERT
  5
13F
330
138
100
AcDbEntity
  8
DIMENSION
100
AcDbBlockReference
  2
_CLOSEDFILLED
 10
-25.0
 20
9.0
 30
0.0
 41
0.25
 42
0.25
 50
90.0
  0
LINE
  5
141
330
138
100
AcDbEntity
  8
0
100
AcDbLine
 10
-25.0
 20
0.25
 30
0.0
 11
-25.0
 21
4.0
 31
0.0
  0
LINE
  5
142
330
138
100
AcDbEntity
  8
0
100
AcDbLine
 10
-25.0
 20
5.0
 30
0.0
 11
-25.0
 21
8.75
 31
0.0
  0
MTEXT
  5
143
330
138
100
AcDbEntity
  8
DIMENSION
100
AcDbMText
 10
-25.0
 20
4.5
 30
0.0
 40
1.0
 71
5
  1
9
 50
90.0
  0
POINT
  5
144
330
138
100
AcDbEntity
  8
Defpoints
100
AcDbPoint
 10
-25.0
 20
0.0
 30
0.0
  0
POINT
  5
145
330
138
100
AcDbEntity
  8
Defpoints
100
AcDbPoint
 10
0.0
 20
0.0
 30
0.0
  0
POINT
  5
146
330
138
100
AcDbEntity
  8
Defpoints
100
AcDbPoint
 10
0.0
 20
9.0
 30
0.0
  0
ENDBLK
  5
13A
330
138
100
AcDbEntity
  8
0
100
AcDbBlockEnd
  0
BLOCK
  5
149
330
148
100
AcDbEntity
  8
0
100
AcDbBlockBegin
  2
*D5
 70
1
 10
0.0
 20
0.0
 30
0.0
  3
*D5
  1

  0
LINE
  5
14B
330
148
100
AcDbEntity
  8
0
100
AcDbLine
 10
0.0
 20
0.0
 30
0.0
 11
-33.0
 21
0.0
 31
0.0
  0
LINE
  5
14C
330
148
100
AcDbEntity
  8
0
100
AcDbLine
 10
0.0
 20
221.0
 30
0.0
 11
-33.0
 21
221.0
 31
0.0
  0
INSERT
  5
14D
330
148
100
AcDbEntity
  8
DIMENSION
100
AcDbBlockReference
  2
_CLOSEDFILLED
 10
-33.0
 20
0.0
 30
0.0
 41
0.25
 42
0.25
 50
270.0
  0
INSERT
  5
14F
330
148
100
AcDbEntity
  8
DIMENSION
100
AcDbBlockReference
  2
_CLOSEDFILLED
 10
-33.0
 20
221.0
 30
0.0
 41
0.25
 42
0.25
 50
90.0
  0
LINE
  5
151
330
148
100
AcDbEntity
  8
0
100
AcDbLine
 10
-33.0
 20
0.25
 30
0.0
 11
-33.0
 21
109.0
 31
0.0
  0
LINE
  5
152
330
148
100
AcDbEntity
  8
0
100
AcDbLine
 10
-33.0
 20
112.0
 30
0.0
 11
-33.0
 21
220.75
 31
0.0
  0
MTEXT
  5
153
330
148
100
AcDbEntity
  8
DIMENSION
100
AcDbMText
 10
-33.0
 20
110.5
 30
0.0
 40
1.0
 71
5
  1
221
 50
90.0
  0
POINT
  5
154
330
148
100
AcDbEntity
  8
Defpoints
100
AcDbPoint
 10
-33.0
 20
0.0
 30
0.0
  0
POINT
  5
155
330
148
100
AcDbEntity
  8
Defpoints
100
AcDbPoint
 10
0.0
 20
0.0
 30
0.0
  0
POINT
  5
156
330
148
100
AcDbEntity
  8
Defpoints
100
AcDbPoint
 10
0.0
 20
221.0
 30
0.0
  0
ENDBLK
  5
14A
330
148
100
AcDbEntity
  8
0
100
AcDbBlockEnd
  0
BLOCK
  5
159
330
158
100
AcDbEntity
  8
0
100
AcDbBlockBegin
  2
*D6
 70
1
 10
0.0
 20
0.0
 30
0.0
  3
*D6
  1

  0
LINE
  5
15B
330
158
100
AcDbEntity
  8
0
100
AcDbLine
 10
0.0
 20
0.0
 30
0.0
 11
-41.0
 21
0.0
 31
0.0
  0
LINE
  5
15C
330
158
100
AcDbEntity
  8
0
100
AcDbLine
 10
0.0
 20
230.0
 30
0.0
 11
-41.0
 21
230.0
 31
0.0
  0
INSERT
  5
15D
330
158
100
AcDbEntity
  8
DIMENSION
100
AcDbBlockReference
  2
_CLOSEDFILLED
 10
-41.0
 20
0.0
 30
0.0
 41
0.25
 42
0.25
 50
270.0
  0
INSERT
  5
15F
330
158
100
AcDbEntity
  8
DIMENSION
100
AcDbBlockReference
  2
_CLOSEDFILLED
 10
-41.0
 20
230.0
 30
0.0
 41
0.25
 42
0.25
 50
90.0
  0
LINE
  5
161
330
158
100
AcDbEntity
  8
0
100
AcDbLine
 10
-41.0
 20
0.25
 30
0.0
 11
-41.0
 21
113.5
 31
0.0
  0
LINE
  5
162
330
158
100
AcDbEntity
  8
0
100
AcDbLine
 10
-41.0
 20
116.5
 30
0.0
 11
-41.0
 21
229.75
 31
0.0
  0
MTEXT
  5
163
330
158
100
AcDbEntity
  8
DIMENSION
100
AcDbMText
 10
-41.0
 20
115.0
 30
0.0
 40
1.0
 71
5
  1
230
 50
90.0
  0
POINT
  5
164
330
158
100
AcDbEntity
  8
Defpoints
100
AcDbPoint
 10
-41.0
 20
0.0
 30
0.0
  0
POINT
  5
165
330
158
100
AcDbEntity
  8
Defpoints
100
AcDbPoint
 10
0.0
 20
0.0
 30
0.0
  0
POINT
  5
166
330
158
100
AcDbEntity
  8
Defpoints
100
AcDbPoint
 10
0.0
 20
230.0
 30
0.0
  0
ENDBLK
  5
15A
330
158
100
AcDbEntity
  8
0
100
AcDbBlockEnd
  0
BLOCK
  5
169
330
168
100
AcDbEntity
  8
0
100
AcDbBlockBegin
  2
*D7
 70
1
 10
0.0
 20
0.0
 30
0.0
  3
*D7
  1

  0
LINE
  5
16B
330
168
100
AcDbEntity
  8
0
100
AcDbLine
 10
30.0
 20
230.0
 30
0.0
 11
55.0
 21
230.0
 31
0.0
  0
LINE
  5
16C
330
168
100
AcDbEntity
  8
0
100
AcDbLine
 10
30.0
 20
221.0
 30
0.0
 11
55.0
 21
221.0
 31
0.0
  0
INSERT
  5
16D
330
168
100
AcDbEntity
  8
DIMENSION
100
AcDbBlockReference
  2
_CLOSEDFILLED
 10
55.0
 20
230.0
 30
0.0
 41
0.25
 42
0.25
 50
270.0
  0
INSERT
  5
16F
330
168
100
AcDbEntity
  8
DIMENSION
100
AcDbBlockReference
  2
_CLOSEDFILLED
 10
55.0
 20
221.0
 30
0.0
 41
0.25
 42
0.25
 50
90.0
  0
LINE
  5
171
330
168
100
AcDbEntity
  8
0
100
AcDbLine
 10
55.0
 20
230.25
 30
0.0
 11
55.0
 21
226.0
 31
0.0
  0
LINE
  5
172
330
168
100
AcDbEntity
  8
0
100
AcDbLine
 10
55.0
 20
225.0
 30
0.0
 11
55.0
 21
220.75
 31
0.0
  0
MTEXT
  5
173
330
168
100
AcDbEntity
  8
DIMENSION
100
AcDbMText
 10
55.0
 20
225.5
 30
0.0
 40
1.0
 71
5
  1
9
 50
90.0
  0
POINT
  5
174
330
168
100
AcDbEntity
  8
Defpoints
100
AcDbPoint
 10
55.0
 20
230.0
 30
0.0
  0
POINT
  5
175
330
168
100
AcDbEntity
  8
Defpoints
100
AcDbPoint
 10
30.0
 20
230.0
 30
0.0
  0
POINT
  5
176
330
168
100
AcDbEntity
  8
Defpoints
100
AcDbPoint
 10
30.0
 20
221.0
 30
0.0
  0
ENDBLK
  5
16A
330
168
100
AcDbEntity
  8
0
100
AcDbBlockEnd
  0
BLOCK
  5
179
330
178
100
AcDbEntity
  8
0
100
AcDbBlockBegin
  2
*D8
 70
1
 10
0.0
 20
0.0
 30
0.0
  3
*D8
  1

  0
LINE
  5
17B
330
178
100
AcDbEntity
  8
0
100
AcDbLine
 10
30.0
 20
230.0
 30
0.0
 11
63.0
 21
230.0
 31
0.0
  0
LINE
  5
17C
330
178
100
AcDbEntity
  8
0
100
AcDbLine
 10
30.0
 20
9.0
 30
0.0
 11
63.0
 21
9.0
 31
0.0
  0
INSERT
  5
17D
330
178
100
AcDbEntity
  8
DIMENSION
100
AcDbBlockReference
  2
_CLOSEDFILLED
 10
63.0
 20
230.0
 30
0.0
 41
0.25
 42
0.25
 50
270.0
  0
INSERT
  5
17F
330
178
100
AcDbEntity
  8
DIMENSION
100
AcDbBlockReference
  2
_CLOSEDFILLED
 10
63.0
 20
9.0
 30
0.0
 41
0.25
 42
0.25
 50
90.0
  0
LINE
  5
181
330
178
100
AcDbEntity
  8
0
100
AcDbLine
 10
63.0
 20
230.25
 30
0.0
 11
63.0
 21
121.0
 31
0.0
  0
LINE
  5
182
330
178
100
AcDbEntity
  8
0
100
AcDbLine
 10
63.0
 20
118.0
 30
0.0
 11
63.0
 21
8.75
 31
0.0
  0
MTEXT
  5
183
330
178
100
AcDbEntity
  8
DIMENSION
100
AcDbMText
 10
63.0
 20
119.5
 30
0.0
 40
1.0
 71
5
  1
221
 50
90.0
  0
POINT
  5
184
330
178
100
AcDbEntity
  8
Defpoints
100
AcDbPoint
 10
63.0
 20
230.0
 30
0.0
  0
POINT
  5
185
330
178
100
AcDbEntity
  8
Defpoints
100
AcDbPoint
 10
30.0
 20
230.0
 30
0.0
  0
POINT
  5
186
330
178
100
AcDbEntity
  8
Defpoints
100
AcDbPoint
 10
30.0
 20
9.0
 30
0.0
  0
ENDBLK
  5
17A
330
178
100
AcDbEntity
  8
0
100
AcDbBlockEnd
  0
BLOCK
  5
1A5
330
1A4
100
AcDbEntity
  8
0
100
AcDbBlockBegin
  2
*Paper_Space0
 70
0
 10
0.0
 20
0.0
 30
0.0
  3
*Paper_Space0
  1

  0
VIEWPORT
  5
1A8
330
1A4
100
AcDbEntity
 67
1
  8
VIEWPORTS
100
AcDbViewport
 10
138.5
 20
95.0
 30
0.0
 40
326.70000000000005
 41
231.00000000000003
 68
1
 69
1
 12
138.5
 22
95.0
 13
0.0
 23
0.0
 14
10.0
 24
10.0
 15
10.0
 25
10.0
 16
0.0
 26
0.0
 36
1.0
 17
0.0
 27
0.0
 37
0.0
 42
50.0
 43
0.0
 44
0.0
 45
231.00000000000003
 50
0.0
 51
0.0
 72
100
 90
557088
  1

281
0
 71
0
 74
0
110
0.0
120
0.0
130
0.0
111
1.0
121
0.0
131
0.0
112
0.0
122
1.0
132
0.0
 79
0
146
0.0
  0
VIEWPORT
  5
1A9
330
1A4
100
AcDbEntity
 67
1
  8
VIEWPORTS
100
AcDbViewport
 10
148.5
 20
105.0
 30
0.0
 40
277.0
 41
190.0
 68
2
 69
3
 12
173.5
 22
87.875
 13
0.0
 23
0.0
 14
10.0
 24
10.0
 15
10.0
 25
10.0
 16
0.0
 26
0.0
 36
1.0
 17
0.0
 27
0.0
 37
0.0
 42
50.0
 43
0.0
 44
0.0
 45
441.925
 50
0.0
 51
0.0
 72
100
 90
0
  1

281
0
 71
0
 74
0
110
0.0
120
0.0
130
0.0
111
1.0
121
0.0
131
0.0
112
0.0
122
1.0
132
0.0
 79
0
146
0.0
  0
ENDBLK
  5
1A6
330
1A4
100
AcDbEntity
  8
0
100
AcDbBlockEnd
  0
ENDSEC
  0
SECTION
  2
ENTITIES
  0
TEXT
  5
33
330
17
100
AcDbEntity
  8
ANNOTATION
100
AcDbText
 10
15.0
 20
19.0
 30
0.0
 40
2.5
  1
front_panel
100
AcDbText
  0
TEXT
  5
34
330
17
100
AcDbEntity
  8
ANNOTATION
100
AcDbText
 10
15.0
 20
14.0
 30
0.0
 40
2.5
  1
d4.0 h18.0
100
AcDbText
  0
TEXT
  5
35
330
17
100
AcDbEntity
  8
ANNOTATION
100
AcDbText
 10
15.0
 20
231.0
 30
0.0
 40
2.5
  1
back_panel
100
AcDbText
  0
TEXT
  5
36
330
17
100
AcDbEntity
  8
ANNOTATION
100
AcDbText
 10
15.0
 20
226.0
 30
0.0
 40
2.5
  1
d4.0 h18.0
100
AcDbText
  0
LINE
  5
37
330
17
100
AcDbEntity
  8
CUT
100
AcDbLine
 10
0.0
 20
0.0
 30
0.0
 11
30.0
 21
0.0
 31
0.0
  0
LINE
  5
38
330
17
100
AcDbEntity
  8
CUT
100
AcDbLine
 10
30.0
 20
0.0
 30
0.0
 11
30.0
 21
230.0
 31
0.0
  0
LINE
  5
39
330
17
100
AcDbEntity
  8
CUT
100
AcDbLine
 10
30.0
 20
230.0
 30
0.0
 11
0.0
 21
230.0
 31
0.0
  0
LINE
  5
3A
330
17
100
AcDbEntity
  8
CUT
100
AcDbLine
 10
0.0
 20
230.0
 30
0.0
 11
0.0
 21
0.0
 31
0.0
  0
LINE
  5
3B
330
17
100
AcDbEntity
  8
CUT
100
AcDbLine
 10
13.0
 20
9.0
 30
0.0
 11
13.0039
 21
9.12558
 31
0.0
  0
LINE
  5
3C
330
17
100
AcDbEntity
  8
CUT
100
AcDbLine
 10
13.0039
 20
9.12558
 30
0.0
 11
13.0158
 21
9.25067
 31
0.0
  0
LINE
  5
3D
330
17
100
AcDbEntity
  8
CUT
100
AcDbLine
 10
13.0158
 20
9.25067
 30
0.0
 11
13.0354
 21
9.37476
 31
0.0
  0
LINE
  5
3E
330
17
100
AcDbEntity
  8
CUT
100
AcDbLine
 10
13.0354
 20
9.37476
 30
0.0
 11
13.0628
 21
9.49738
 31
0.0
  0
LINE
  5
3F
330
17
100
AcDbEntity
  8
CUT
100
AcDbLine
 10
13.0628
 20
9.49738
 30
0.0
 11
13.0979
 21
9.61803
 31
0.0
  0
LINE
  5
40
330
17
100
AcDbEntity
  8
CUT
100
AcDbLine
 10
13.0979
 20
9.61803
 30
0.0
 11
13.1404
 21
9.73625
 31
0.0
  0
LINE
  5
41
330
17
100
AcDbEntity
  8
CUT
100
AcDbLine
 10
13.1404
 20
9.73625
 30
0.0
 11
13.1903
 21
9.85156
 31
0.0
  0
LINE
  5
42
330
17
100
AcDbEntity
  8
CUT
100
AcDbLine
 10
13.1903
 20
9.85156
 30
0.0
 11
13.2474
 21
9.96351
 31
0.0
  0
LINE
  5
43
330
17
100
AcDbEntity
  8
CUT
100
AcDbLine
 10
13.2474
 20
9.96351
 30
0.0
 11
13.3113
 21
10.0717
 31
0.0
  0
LINE
  5
44
330
17
100
AcDbEntity
  8
CUT
100
AcDbLine
 10
13.3113
 20
10.0717
 30
0.0
 11
13.382
 21
10.1756
 31
0.0
  0
LINE
  5
45
330
17
100
AcDbEntity
  8
CUT
100
AcDbLine
 10
13.382
 20
10.1756
 30
0.0
 11
13.459
 21
10.2748
 31
0.0
  0
LINE
  5
46
330
17
100
AcDbEntity
  8
CUT
100
AcDbLine
 10
13.459
 20
10.2748
 30
0.0
 11
13.5421
 21
10.3691
 31
0.0
  0
LINE
  5
47
330
17
100
AcDbEntity
  8
CUT
100
AcDbLine
 10
13.5421
 20
10.3691
 30
0.0
 11
13.6309
 21
10.4579
 31
0.0
  0
LINE
  5
48
330
17
100
AcDbEntity
  8
CUT
100
AcDbLine
 10
13.6309
 20
10.4579
 30
0.0
 11
13.7252
 21
10.541
 31
0.0
  0
LINE
  5
49
330
17
100
AcDbEntity
  8
CUT
100
AcDbLine
 10
13.7252
 20
10.541
 30
0.0
 11
13.8244
 21
10.618
 31
0.0
  0
LINE
  5
4A
330
17
100
AcDbEntity
  8
CUT
100
AcDbLine
 10
13.8244
 20
10.618
 30
0.0
 11
13.9283
 21
10.6887
 31
0.0
  0
LINE
  5
4B
330
17
100
AcDbEntity
  8
CUT
100
AcDbLine
 10
13.9283
 20
10.6887
 30
0.0
 11
14.0365
 21
10.7526
 31
0.0
  0
LINE
  5
4C
330
17
100
AcDbEntity
  8
CUT
100
AcDbLine
 10
14.0365
 20
10.7526
 30
0.0
 11
14.1484
 21
10.8097
 31
0.0
  0
LINE
  5
4D
330
17
100
AcDbEntity
  8
CUT
100
AcDbLine
 10
14.1484
 20
10.8097
 30
0.0
 11
14.2638
 21
10.8596
 31
0.0
  0
LINE
  5
4E
330
17
100
AcDbEntity
  8
CUT
100
AcDbLine
 10
14.2638
 20
10.8596
 30
0.0
 11
14.382
 21
10.9021
 31
0.0
  0
LINE
  5
4F
330
17
100
AcDbEntity
  8
CUT
100
AcDbLine
 10
14.382
 20
10.9021
 30
0.0
 11
14.5026
 21
10.9372
 31
0.0
  0
LINE
  5
50
330
17
100
AcDbEntity
  8
CUT
100
AcDbLine
 10
14.5026
 20
10.9372
 30
0.0
 11
14.6252
 21
10.9646
 31
0.0
  0
LINE
  5
51
330
17
100
AcDbEntity
  8
CUT
100
AcDbLine
 10
14.6252
 20
10.9646
 30
0.0
 11
14.7493
 21
10.9842
 31
0.0
  0
LINE
  5
52
330
17
100
AcDbEntity
  8
CUT
100
AcDbLine
 10
14.7493
 20
10.9842
 30
0.0
 11
14.8744
 21
10.9961
 31
0.0
  0
LINE
  5
53
330
17
100
AcDbEntity
  8
CUT
100
AcDbLine
 10
14.8744
 20
10.9961
 30
0.0
 11
15.0
 21
11.0
 31
0.0
  0
LINE
  5
54
330
17
100
AcDbEntity
  8
CUT
100
AcDbLine
 10
15.0
 20
11.0
 30
0.0
 11
15.1256
 21
10.9961
 31
0.0
  0
LINE
  5
55
330
17
100
AcDbEntity
  8
CUT
100
AcDbLine
 10
15.1256
 20
10.9961
 30
0.0
 11
15.2507
 21
10.9842
 31
0.0
  0
LINE
  5
56
330
17
100
AcDbEntity
  8
CUT
100
AcDbLine
 10
15.2507
 20
10.9842
 30
0.0
 11
15.3748
 21
10.9646
 31
0.0
  0
LINE
  5
57
330
17
100
AcDbEntity
  8
CUT
100
AcDbLine
 10
15.3748
 20
10.9646
 30
0.0
 11
15.4974
 21
10.9372
 31
0.0
  0
LINE
  5
58
330
17
100
AcDbEntity
  8
CUT
100
AcDbLine
 10
15.4974
 20
10.9372
 30
0.0
 11
15.618
 21
10.9021
 31
0.0
  0
LINE
  5
59
330
17
100
AcDbEntity
  8
CUT
100
AcDbLine
 10
15.618
 20
10.9021
 30
0.0
 11
15.7362
 21
10.8596
 31
0.0
  0
LINE
  5
5A
330
17
100
AcDbEntity
  8
CUT
100
AcDbLine
 10
15.7362
 20
10.8596
 30
0.0
 11
15.8516
 21
10.8097
 31
0.0
  0
LINE
  5
5B
330
17
100
AcDbEntity
  8
CUT
100
AcDbLine
 10
15.8516
 20
10.8097
 30
0.0
 11
15.9635
 21
10.7526
 31
0.0
  0
LINE
  5
5C
330
17
100
AcDbEntity
  8
CUT
100
AcDbLine
 10
15.9635
 20
10.7526
 30
0.0
 11
16.0717
 21
10.6887
 31
0.0
  0
LINE
  5
5D
330
17
100
AcDbEntity
  8
CUT
100
AcDbLine
 10
16.0717
 20
10.6887
 30
0.0
 11
16.1756
 21
10.618
 31
0.0
  0
LINE
  5
5E
330
17
100
AcDbEntity
  8
CUT
100
AcDbLine
 10
16.1756
 20
10.618
 30
0.0
 11
16.2748
 21
10.541
 31
0.0
  0
LINE
  5
5F
330
17
100
AcDbEntity
  8
CUT
100
AcDbLine
 10
16.2748
 20
10.541
 30
0.0
 11
16.3691
 21
10.4579
 31
0.0
  0
LINE
  5
60
330
17
100
AcDbEntity
  8
CUT
100
AcDbLine
 10
16.3691
 20
10.4579
 30
0.0
 11
16.4579
 21
10.3691
 31
0.0
  0
LINE
  5
61
330
17
100
AcDbEntity
  8
CUT
100
AcDbLine
 10
16.4579
 20
10.3691
 30
0.0
 11
16.541
 21
10.2748
 31
0.0
  0
LINE
  5
62
330
17
100
AcDbEntity
  8
CUT
100
AcDbLine
 10
16.541
 20
10.2748
 30
0.0
 11
16.618
 21
10.1756
 31
0.0
  0
LINE
  5
63
330
17
100
AcDbEntity
  8
CUT
100
AcDbLine
 10
16.618
 20
10.1756
 30
0.0
 11
16.6887
 21
10.0717
 31
0.0
  0
LINE
  5
64
330
17
100
AcDbEntity
  8
CUT
100
AcDbLine
 10
16.6887
 20
10.0717
 30
0.0
 11
16.7526
 21
9.96351
 31
0.0
  0
LINE
  5
65
330
17
100
AcDbEntity
  8
CUT
100
AcDbLine
 10
16.7526
 20
9.96351
 30
0.0
 11
16.8097
 21
9.85156
 31
0.0
  0
LINE
  5
66
330
17
100
AcDbEntity
  8
CUT
100
AcDbLine
 10
16.8097
 20
9.85156
 30
0.0
 11
16.8596
 21
9.73625
 31
0.0
  0
LINE
  5
67
330
17
100
AcDbEntity
  8
CUT
100
AcDbLine
 10
16.8596
 20
9.73625
 30
0.0
 11
16.9021
 21
9.61803
 31
0.0
  0
LINE
  5
68
330
17
100
AcDbEntity
  8
CUT
100
AcDbLine
 10
16.9021
 20
9.61803
 30
0.0
 11
16.9372
 21
9.49738
 31
0.0
  0
LINE
  5
69
330
17
100
AcDbEntity
  8
CUT
100
AcDbLine
 10
16.9372
 20
9.49738
 30
0.0
 11
16.9646
 21
9.37476
 31
0.0
  0
LINE
  5
6A
330
17
100
AcDbEntity
  8
CUT
100
AcDbLine
 10
16.9646
 20
9.37476
 30
0.0
 11
16.9842
 21
9.25067
 31
0.0
  0
LINE
  5
6B
330
17
100
AcDbEntity
  8
CUT
100
AcDbLine
 10
16.9842
 20
9.25067
 30
0.0
 11
16.9961
 21
9.12558
 31
0.0
  0
LINE
  5
6C
330
17
100
AcDbEntity
  8
CUT
100
AcDbLine
 10
16.9961
 20
9.12558
 30
0.0
 11
17.0
 21
9.0
 31
0.0
  0
LINE
  5
6D
330
17
100
AcDbEntity
  8
CUT
100
AcDbLine
 10
17.0
 20
9.0
 30
0.0
 11
16.9961
 21
8.87442
 31
0.0
  0
LINE
  5
6E
330
17
100
AcDbEntity
  8
CUT
100
AcDbLine
 10
16.9961
 20
8.87442
 30
0.0
 11
16.9842
 21
8.74933
 31
0.0
  0
LINE
  5
6F
330
17
100
AcDbEntity
  8
CUT
100
AcDbLine
 10
16.9842
 20
8.74933
 30
0.0
 11
16.9646
 21
8.62524
 31
0.0
  0
LINE
  5
70
330
17
100
AcDbEntity
  8
CUT
100
AcDbLine
 10
16.9646
 20
8.62524
 30
0.0
 11
16.9372
 21
8.50262
 31
0.0
  0
LINE
  5
71
330
17
100
AcDbEntity
  8
CUT
100
AcDbLine
 10
16.9372
 20
8.50262
 30
0.0
 11
16.9021
 21
8.38197
 31
0.0
  0
LINE
  5
72
330
17
100
AcDbEntity
  8
CUT
100
AcDbLine
 10
16.9021
 20
8.38197
 30
0.0
 11
16.8596
 21
8.26375
 31
0.0
  0
LINE
  5
73
330
17
100
AcDbEntity
  8
CUT
100
AcDbLine
 10
16.8596
 20
8.26375
 30
0.0
 11
16.8097
 21
8.14844
 31
0.0
  0
LINE
  5
74
330
17
100
AcDbEntity
  8
CUT
100
AcDbLine
 10
16.8097
 20
8.14844
 30
0.0
 11
16.7526
 21
8.03649
 31
0.0
  0
LINE
  5
75
330
17
100
AcDbEntity
  8
CUT
100
AcDbLine
 10
16.7526
 20
8.03649
 30
0.0
 11
16.6887
 21
7.92835
 31
0.0
  0
LINE
  5
76
330
17
100
AcDbEntity
  8
CUT
100
AcDbLine
 10
16.6887
 20
7.92835
 30
0.0
 11
16.618
 21
7.82443
 31
0.0
  0
LINE
  5
77
330
17
100
AcDbEntity
  8
CUT
100
AcDbLine
 10
16.618
 20
7.82443
 30
0.0
 11
16.541
 21
7.72515
 31
0.0
  0
LINE
  5
78
330
17
100
AcDbEntity
  8
CUT
100
AcDbLine
 10
16.541
 20
7.72515
 30
0.0
 11
16.4579
 21
7.63091
 31
0.0
  0
LINE
  5
79
330
17
100
AcDbEntity
  8
CUT
100
AcDbLine
 10
16.4579
 20
7.63091
 30
0.0
 11
16.3691
 21
7.54206
 31
0.0
  0
LINE
  5
7A
330
17
100
AcDbEntity
  8
CUT
100
AcDbLine
 10
16.3691
 20
7.54206
 30
0.0
 11
16.2748
 21
7.45897
 31
0.0
  0
LINE
  5
7B
330
17
100
AcDbEntity
  8
CUT
100
AcDbLine
 10
16.2748
 20
7.45897
 30
0.0
 11
16.1756
 21
7.38197
 31
0.0
  0
LINE
  5
7C
330
17
100
AcDbEntity
  8
CUT
100
AcDbLine
 10
16.1756
 20
7.38197
 30
0.0
 11
16.0717
 21
7.31134
 31
0.0
  0
LINE
  5
7D
330
17
100
AcDbEntity
  8
CUT
100
AcDbLine
 10
16.0717
 20
7.31134
 30
0.0
 11
15.9635
 21
7.24739
 31
0.0
  0
LINE
  5
7E
330
17
100
AcDbEntity
  8
CUT
100
AcDbLine
 10
15.9635
 20
7.24739
 30
0.0
 11
15.8516
 21
7.19035
 31
0.0
  0
LINE
  5
7F
330
17
100
AcDbEntity
  8
CUT
100
AcDbLine
 10
15.8516
 20
7.19035
 30
0.0
 11
15.7362
 21
7.14045
 31
0.0
  0
LINE
  5
80
330
17
100
AcDbEntity
  8
CUT
100
AcDbLine
 10
15.7362
 20
7.14045
 30
0.0
 11
15.618
 21
7.09789
 31
0.0
  0
LINE
  5
81
330
17
100
AcDbEntity
  8
CUT
100
AcDbLine
 10
15.618
 20
7.09789
 30
0.0
 11
15.4974
 21
7.06283
 31
0.0
  0
LINE
  5
82
330
17
100
AcDbEntity
  8
CUT
100
AcDbLine
 10
15.4974
 20
7.06283
 30
0.0
 11
15.3748
 21
7.03543
 31
0.0
  0
LINE
  5
83
330
17
100
AcDbEntity
  8
CUT
100
AcDbLine
 10
15.3748
 20
7.03543
 30
0.0
 11
15.2507
 21
7.01577
 31
0.0
  0
LINE
  5
84
330
17
100
AcDbEntity
  8
CUT
100
AcDbLine
 10
15.2507
 20
7.01577
 30
0.0
 11
15.1256
 21
7.00395
 31
0.0
  0
LINE
  5
85
330
17
100
AcDbEntity
  8
CUT
100
AcDbLine
 10
15.1256
 20
7.00395
 30
0.0
 11
15.0
 21
7.0
 31
0.0
  0
LINE
  5
86
330
17
100
AcDbEntity
  8
CUT
100
AcDbLine
 10
15.0
 20
7.0
 30
0.0
 11
14.8744
 21
7.00395
 31
0.0
  0
LINE
  5
87
330
17
100
AcDbEntity
  8
CUT
100
AcDbLine
 10
14.8744
 20
7.00395
 30
0.0
 11
14.7493
 21
7.01577
 31
0.0
  0
LINE
  5
88
330
17
100
AcDbEntity
  8
CUT
100
AcDbLine
 10
14.7493
 20
7.01577
 30
0.0
 11
14.6252
 21
7.03543
 31
0.0
  0
LINE
  5
89
330
17
100
AcDbEntity
  8
CUT
100
AcDbLine
 10
14.6252
 20
7.03543
 30
0.0
 11
14.5026
 21
7.06283
 31
0.0
  0
LINE
  5
8A
330
17
100
AcDbEntity
  8
CUT
100
AcDbLine
 10
14.5026
 20
7.06283
 30
0.0
 11
14.382
 21
7.09789
 31
0.0
  0
LINE
  5
8B
330
17
100
AcDbEntity
  8
CUT
100
AcDbLine
 10
14.382
 20
7.09789
 30
0.0
 11
14.2638
 21
7.14045
 31
0.0
  0
LINE
  5
8C
330
17
100
AcDbEntity
  8
CUT
100
AcDbLine
 10
14.2638
 20
7.14045
 30
0.0
 11
14.1484
 21
7.19035
 31
0.0
  0
LINE
  5
8D
330
17
100
AcDbEntity
  8
CUT
100
AcDbLine
 10
14.1484
 20
7.19035
 30
0.0
 11
14.0365
 21
7.24739
 31
0.0
  0
LINE
  5
8E
330
17
100
AcDbEntity
  8
CUT
100
AcDbLine
 10
14.0365
 20
7.24739
 30
0.0
 11
13.9283
 21
7.31134
 31
0.0
  0
LINE
  5
8F
330
17
100
AcDbEntity
  8
CUT
100
AcDbLine
 10
13.9283
 20
7.31134
 30
0.0
 11
13.8244
 21
7.38197
 31
0.0
  0
LINE
  5
90
330
17
100
AcDbEntity
  8
CUT
100
AcDbLine
 10
13.8244
 20
7.38197
 30
0.0
 11
13.7252
 21
7.45897
 31
0.0
  0
LINE
  5
91
330
17
100
AcDbEntity
  8
CUT
100
AcDbLine
 10
13.7252
 20
7.45897
 30
0.0
 11
13.6309
 21
7.54206
 31
0.0
  0
LINE
  5
92
330
17
100
AcDbEntity
  8
CUT
100
AcDbLine
 10
13.6309
 20
7.54206
 30
0.0
 11
13.5421
 21
7.63091
 31
0.0
  0
LINE
  5
93
330
17
100
AcDbEntity
  8
CUT
100
AcDbLine
 10
13.5421
 20
7.63091
 30
0.0
 11
13.459
 21
7.72515
 31
0.0
  0
LINE
  5
94
330
17
100
AcDbEntity
  8
CUT
100
AcDbLine
 10
13.459
 20
7.72515
 30
0.0
 11
13.382
 21
7.82443
 31
0.0
  0
LINE
  5
95
330
17
100
AcDbEntity
  8
CUT
100
AcDbLine
 10
13.382
 20
7.82443
 30
0.0
 11
13.3113
 21
7.92835
 31
0.0
  0
LINE
  5
96
330
17
100
AcDbEntity
  8
CUT
100
AcDbLine
 10
13.3113
 20
7.92835
 30
0.0
 11
13.2474
 21
8.03649
 31
0.0
  0
LINE
  5
97
330
17
100
AcDbEntity
  8
CUT
100
AcDbLine
 10
13.2474
 20
8.03649
 30
0.0
 11
13.1903
 21
8.14844
 31
0.0
  0
LINE
  5
98
330
17
100
AcDbEntity
  8
CUT
100
AcDbLine
 10
13.1903
 20
8.14844
 30
0.0
 11
13.1404
 21
8.26375
 31
0.0
  0
LINE
  5
99
330
17
100
AcDbEntity
  8
CUT
100
AcDbLine
 10
13.1404
 20
8.26375
 30
0.0
 11
13.0979
 21
8.38197
 31
0.0
  0
LINE
  5
9A
330
17
100
AcDbEntity
  8
CUT
100
AcDbLine
 10
13.0979
 20
8.38197
 30
0.0
 11
13.0628
 21
8.50262
 31
0.0
  0
LINE
  5
9B
330
17
100
AcDbEntity
  8
CUT
100
AcDbLine
 10
13.0628
 20
8.50262
 30
0.0
 11
13.0354
 21
8.62524
 31
0.0
  0
LINE
  5
9C
330
17
100
AcDbEntity
  8
CUT
100
AcDbLine
 10
13.0354
 20
8.62524
 30
0.0
 11
13.0158
 21
8.74933
 31
0.0
  0
LINE
  5
9D
330
17
100
AcDbEntity
  8
CUT
100
AcDbLine
 10
13.0158
 20
8.74933
 30
0.0
 11
13.0039
 21
8.87442
 31
0.0
  0
LINE
  5
9E
330
17
100
AcDbEntity
  8
CUT
100
AcDbLine
 10
13.0039
 20
8.87442
 30
0.0
 11
13.0
 21
9.0
 31
0.0
  0
LINE
  5
9F
330
17
100
AcDbEntity
  8
CUT
100
AcDbLine
 10
13.0
 20
221.0
 30
0.0
 11
13.0039
 21
221.126
 31
0.0
  0
LINE
  5
A0
330
17
100
AcDbEntity
  8
CUT
100
AcDbLine
 10
13.0039
 20
221.126
 30
0.0
 11
13.0158
 21
221.251
 31
0.0
  0
LINE
  5
A1
330
17
100
AcDbEntity
  8
CUT
100
AcDbLine
 10
13.0158
 20
221.251
 30
0.0
 11
13.0354
 21
221.375
 31
0.0
  0
LINE
  5
A2
330
17
100
AcDbEntity
  8
CUT
100
AcDbLine
 10
13.0354
 20
221.375
 30
0.0
 11
13.0628
 21
221.497
 31
0.0
  0
LINE
  5
A3
330
17
100
AcDbEntity
  8
CUT
100
AcDbLine
 10
13.0628
 20
221.497
 30
0.0
 11
13.0979
 21
221.618
 31
0.0
  0
LINE
  5
A4
330
17
100
AcDbEntity
  8
CUT
100
AcDbLine
 10
13.0979
 20
221.618
 30
0.0
 11
13.1404
 21
221.736
 31
0.0
  0
LINE
  5
A5
330
17
100
AcDbEntity
  8
CUT
100
AcDbLine
 10
13.1404
 20
221.736
 30
0.0
 11
13.1903
 21
221.852
 31
0.0
  0
LINE
  5
A6
330
17
100
AcDbEntity
  8
CUT
100
AcDbLine
 10
13.1903
 20
221.852
 30
0.0
 11
13.2474
 21
221.964
 31
0.0
  0
LINE
  5
A7
330
17
100
AcDbEntity
  8
CUT
100
AcDbLine
 10
13.2474
 20
221.964
 30
0.0
 11
13.3113
 21
222.072
 31
0.0
  0
LINE
  5
A8
330
17
100
AcDbEntity
  8
CUT
100
AcDbLine
 10
13.3113
 20
222.072
 30
0.0
 11
13.382
 21
222.176
 31
0.0
  0
LINE
  5
A9
330
17
100
AcDbEntity
  8
CUT
100
AcDbLine
 10
13.382
 20
222.176
 30
0.0
 11
13.459
 21
222.275
 31
0.0
  0
LINE
  5
AA
330
17
100
AcDbEntity
  8
CUT
100
AcDbLine
 10
13.459
 20
222.275
 30
0.0
 11
13.5421
 21
222.369
 31
0.0
  0
LINE
  5
AB
330
17
100
AcDbEntity
  8
CUT
100
AcDbLine
 10
13.5421
 20
222.369
 30
0.0
 11
13.6309
 21
222.458
 31
0.0
  0
LINE
  5
AC
330
17
100
AcDbEntity
  8
CUT
100
AcDbLine
 10
13.6309
 20
222.458
 30
0.0
 11
13.7252
 21
222.541
 31
0.0
  0
LINE
  5
AD
330
17
100
AcDbEntity
  8
CUT
100
AcDbLine
 10
13.7252
 20
222.541
 30
0.0
 11
13.8244
 21
222.618
 31
0.0
  0
LINE
  5
AE
330
17
100
AcDbEntity
  8
CUT
100
AcDbLine
 10
13.8244
 20
222.618
 30
0.0
 11
13.9283
 21
222.689
 31
0.0
  0
LINE
  5
AF
330
17
100
AcDbEntity
  8
CUT
100
AcDbLine
 10
13.9283
 20
222.689
 30
0.0
 11
14.0365
 21
222.753
 31
0.0
  0
LINE
  5
B0
330
17
100
AcDbEntity
  8
CUT
100
AcDbLine
 10
14.0365
 20
222.753
 30
0.0
 11
14.1484
 21
222.81
 31
0.0
  0
LINE
  5
B1
330
17
100
AcDbEntity
  8
CUT
100
AcDbLine
 10
14.1484
 20
222.81
 30
0.0
 11
14.2638
 21
222.86
 31
0.0
  0
LINE
  5
B2
330
17
100
AcDbEntity
  8
CUT
100
AcDbLine
 10
14.2638
 20
222.86
 30
0.0
 11
14.382
 21
222.902
 31
0.0
  0
LINE
  5
B3
330
17
100
AcDbEntity
  8
CUT
100
AcDbLine
 10
14.382
 20
222.902
 30
0.0
 11
14.5026
 21
222.937
 31
0.0
  0
LINE
  5
B4
330
17
100
AcDbEntity
  8
CUT
100
AcDbLine
 10
14.5026
 20
222.937
 30
0.0
 11
14.6252
 21
222.965
 31
0.0
  0
LINE
  5
B5
330
17
100
AcDbEntity
  8
CUT
100
AcDbLine
 10
14.6252
 20
222.965
 30
0.0
 11
14.7493
 21
222.984
 31
0.0
  0
LINE
  5
B6
330
17
100
AcDbEntity
  8
CUT
100
AcDbLine
 10
14.7493
 20
222.984
 30
0.0
 11
14.8744
 21
222.996
 31
0.0
  0
LINE
  5
B7
330
17
100
AcDbEntity
  8
CUT
100
AcDbLine
 10
14.8744
 20
222.996
 30
0.0
 11
15.0
 21
223.0
 31
0.0
  0
LINE
  5
B8
330
17
100
AcDbEntity
  8
CUT
100
AcDbLine
 10
15.0
 20
223.0
 30
0.0
 11
15.1256
 21
222.996
 31
0.0
  0
LINE
  5
B9
330
17
100
AcDbEntity
  8
CUT
100
AcDbLine
 10
15.1256
 20
222.996
 30
0.0
 11
15.2507
 21
222.984
 31
0.0
  0
LINE
  5
BA
330
17
100
AcDbEntity
  8
CUT
100
AcDbLine
 10
15.2507
 20
222.984
 30
0.0
 11
15.3748
 21
222.965
 31
0.0
  0
LINE
  5
BB
330
17
100
AcDbEntity
  8
CUT
100
AcDbLine
 10
15.3748
 20
222.965
 30
0.0
 11
15.4974
 21
222.937
 31
0.0
  0
LINE
  5
BC
330
17
100
AcDbEntity
  8
CUT
100
AcDbLine
 10
15.4974
 20
222.937
 30
0.0
 11
15.618
 21
222.902
 31
0.0
  0
LINE
  5
BD
330
17
100
AcDbEntity
  8
CUT
100
AcDbLine
 10
15.618
 20
222.902
 30
0.0
 11
15.7362
 21
222.86
 31
0.0
  0
LINE
  5
BE
330
17
100
AcDbEntity
  8
CUT
100
AcDbLine
 10
15.7362
 20
222.86
 30
0.0
 11
15.8516
 21
222.81
 31
0.0
  0
LINE
  5
BF
330
17
100
AcDbEntity
  8
CUT
100
AcDbLine
 10
15.8516
 20
222.81
 30
0.0
 11
15.9635
 21
222.753
 31
0.0
  0
LINE
  5
C0
330
17
100
AcDbEntity
  8
CUT
100
AcDbLine
 10
15.9635
 20
222.753
 30
0.0
 11
16.0717
 21
222.689
 31
0.0
  0
LINE
  5
C1
330
17
100
AcDbEntity
  8
CUT
100
AcDbLine
 10
16.0717
 20
222.689
 30
0.0
 11
16.1756
 21
222.618
 31
0.0
  0
LINE
  5
C2
330
17
100
AcDbEntity
  8
CUT
100
AcDbLine
 10
16.1756
 20
222.618
 30
0.0
 11
16.2748
 21
222.541
 31
0.0
  0
LINE
  5
C3
330
17
100
AcDbEntity
  8
CUT
100
AcDbLine
 10
16.2748
 20
222.541
 30
0.0
 11
16.3691
 21
222.458
 31
0.0
  0
LINE
  5
C4
330
17
100
AcDbEntity
  8
CUT
100
AcDbLine
 10
16.3691
 20
222.458
 30
0.0
 11
16.4579
 21
222.369
 31
0.0
  0
LINE
  5
C5
330
17
100
AcDbEntity
  8
CUT
100
AcDbLine
 10
16.4579
 20
222.369
 30
0.0
 11
16.541
 21
222.275
 31
0.0
  0
LINE
  5
C6
330
17
100
AcDbEntity
  8
CUT
100
AcDbLine
 10
16.541
 20
222.275
 30
0.0
 11
16.618
 21
222.176
 31
0.0
  0
LINE
  5
C7
330
17
100
AcDbEntity
  8
CUT
100
AcDbLine
 10
16.618
 20
222.176
 30
0.0
 11
16.6887
 21
222.072
 31
0.0
  0
LINE
  5
C8
330
17
100
AcDbEntity
  8
CUT
100
AcDbLine
 10
16.6887
 20
222.072
 30
0.0
 11
16.7526
 21
221.964
 31
0.0
  0
LINE
  5
C9
330
17
100
AcDbEntity
  8
CUT
100
AcDbLine
 10
16.7526
 20
221.964
 30
0.0
 11
16.8097
 21
221.852
 31
0.0
  0
LINE
  5
CA
330
17
100
AcDbEntity
  8
CUT
100
AcDbLine
 10
16.8097
 20
221.852
 30
0.0
 11
16.8596
 21
221.736
 31
0.0
  0
LINE
  5
CB
330
17
100
AcDbEntity
  8
CUT
100
AcDbLine
 10
16.8596
 20
221.736
 30
0.0
 11
16.9021
 21
221.618
 31
0.0
  0
LINE
  5
CC
330
17
100
AcDbEntity
  8
CUT
100
AcDbLine
 10
16.9021
 20
221.618
 30
0.0
 11
16.9372
 21
221.497
 31
0.0
  0
LINE
  5
CD
330
17
100
AcDbEntity
  8
CUT
100
AcDbLine
 10
16.9372
 20
221.497
 30
0.0
 11
16.9646
 21
221.375
 31
0.0
  0
LINE
  5
CE
330
17
100
AcDbEntity
  8
CUT
100
AcDbLine
 10
16.9646
 20
221.375
 30
0.0
 11
16.9842
 21
221.251
 31
0.0
  0
LINE
  5
CF
330
17
100
AcDbEntity
  8
CUT
100
AcDbLine
 10
16.9842
 20
221.251
 30
0.0
 11
16.9961
 21
221.126
 31
0.0
  0
LINE
  5
D0
330
17
100
AcDbEntity
  8
CUT
100
AcDbLine
 10
16.9961
 20
221.126
 30
0.0
 11
17.0
 21
221.0
 31
0.0
  0
LINE
  5
D1
330
17
100
AcDbEntity
  8
CUT
100
AcDbLine
 10
17.0
 20
221.0
 30
0.0
 11
16.9961
 21
220.874
 31
0.0
  0
LINE
  5
D2
330
17
100
AcDbEntity
  8
CUT
100
AcDbLine
 10
16.9961
 20
220.874
 30
0.0
 11
16.9842
 21
220.749
 31
0.0
  0
LINE
  5
D3
330
17
100
AcDbEntity
  8
CUT
100
AcDbLine
 10
16.9842
 20
220.749
 30
0.0
 11
16.9646
 21
220.625
 31
0.0
  0
LINE
  5
D4
330
17
100
AcDbEntity
  8
CUT
100
AcDbLine
 10
16.9646
 20
220.625
 30
0.0
 11
16.9372
 21
220.503
 31
0.0
  0
LINE
  5
D5
330
17
100
AcDbEntity
  8
CUT
100
AcDbLine
 10
16.9372
 20
220.503
 30
0.0
 11
16.9021
 21
220.382
 31
0.0
  0
LINE
  5
D6
330
17
100
AcDbEntity
  8
CUT
100
AcDbLine
 10
16.9021
 20
220.382
 30
0.0
 11
16.8596
 21
220.264
 31
0.0
  0
LINE
  5
D7
330
17
100
AcDbEntity
  8
CUT
100
AcDbLine
 10
16.8596
 20
220.264
 30
0.0
 11
16.8097
 21
220.148
 31
0.0
  0
LINE
  5
D8
330
17
100
AcDbEntity
  8
CUT
100
AcDbLine
 10
16.8097
 20
220.148
 30
0.0
 11
16.7526
 21
220.036
 31
0.0
  0
LINE
  5
D9
330
17
100
AcDbEntity
  8
CUT
100
AcDbLine
 10
16.7526
 20
220.036
 30
0.0
 11
16.6887
 21
219.928
 31
0.0
  0
LINE
  5
DA
330
17
100
AcDbEntity
  8
CUT
100
AcDbLine
 10
16.6887
 20
219.928
 30
0.0
 11
16.618
 21
219.824
 31
0.0
  0
LINE
  5
DB
330
17
100
AcDbEntity
  8
CUT
100
AcDbLine
 10
16.618
 20
219.824
 30
0.0
 11
16.541
 21
219.725
 31
0.0
  0
LINE
  5
DC
330
17
100
AcDbEntity
  8
CUT
100
AcDbLine
 10
16.541
 20
219.725
 30
0.0
 11
16.4579
 21
219.631
 31
0.0
  0
LINE
  5
DD
330
17
100
AcDbEntity
  8
CUT
100
AcDbLine
 10
16.4579
 20
219.631
 30
0.0
 11
16.3691
 21
219.542
 31
0.0
  0
LINE
  5
DE
330
17
100
AcDbEntity
  8
CUT
100
AcDbLine
 10
16.3691
 20
219.542
 30
0.0
 11
16.2748
 21
219.459
 31
0.0
  0
LINE
  5
DF
330
17
100
AcDbEntity
  8
CUT
100
AcDbLine
 10
16.2748
 20
219.459
 30
0.0
 11
16.1756
 21
219.382
 31
0.0
  0
LINE
  5
E0
330
17
100
AcDbEntity
  8
CUT
100
AcDbLine
 10
16.1756
 20
219.382
 30
0.0
 11
16.0717
 21
219.311
 31
0.0
  0
LINE
  5
E1
330
17
100
AcDbEntity
  8
CUT
100
AcDbLine
 10
16.0717
 20
219.311
 30
0.0
 11
15.9635
 21
219.247
 31
0.0
  0
LINE
  5
E2
330
17
100
AcDbEntity
  8
CUT
100
AcDbLine
 10
15.9635
 20
219.247
 30
0.0
 11
15.8516
 21
219.19
 31
0.0
  0
LINE
  5
E3
330
17
100
AcDbEntity
  8
CUT
100
AcDbLine
 10
15.8516
 20
219.19
 30
0.0
 11
15.7362
 21
219.14
 31
0.0
  0
LINE
  5
E4
330
17
100
AcDbEntity
  8
CUT
100
AcDbLine
 10
15.7362
 20
219.14
 30
0.0
 11
15.618
 21
219.098
 31
0.0
  0
LINE
  5
E5
330
17
100
AcDbEntity
  8
CUT
100
AcDbLine
 10
15.618
 20
219.098
 30
0.0
 11
15.4974
 21
219.063
 31
0.0
  0
LINE
  5
E6
330
17
100
AcDbEntity
  8
CUT
100
AcDbLine
 10
15.4974
 20
219.063
 30
0.0
 11
15.3748
 21
219.035
 31
0.0
  0
LINE
  5
E7
330
17
100
AcDbEntity
  8
CUT
100
AcDbLine
 10
15.3748
 20
219.035
 30
0.0
 11
15.2507
 21
219.016
 31
0.0
  0
LINE
  5
E8
330
17
100
AcDbEntity
  8
CUT
100
AcDbLine
 10
15.2507
 20
219.016
 30
0.0
 11
15.1256
 21
219.004
 31
0.0
  0
LINE
  5
E9
330
17
100
AcDbEntity
  8
CUT
100
AcDbLine
 10
15.1256
 20
219.004
 30
0.0
 11
15.0
 21
219.0
 31
0.0
  0
LINE
  5
EA
330
17
100
AcDbEntity
  8
CUT
100
AcDbLine
 10
15.0
 20
219.0
 30
0.0
 11
14.8744
 21
219.004
 31
0.0
  0
LINE
  5
EB
330
17
100
AcDbEntity
  8
CUT
100
AcDbLine
 10
14.8744
 20
219.004
 30
0.0
 11
14.7493
 21
219.016
 31
0.0
  0
LINE
  5
EC
330
17
100
AcDbEntity
  8
CUT
100
AcDbLine
 10
14.7493
 20
219.016
 30
0.0
 11
14.6252
 21
219.035
 31
0.0
  0
LINE
  5
ED
330
17
100
AcDbEntity
  8
CUT
100
AcDbLine
 10
14.6252
 20
219.035
 30
0.0
 11
14.5026
 21
219.063
 31
0.0
  0
LINE
  5
EE
330
17
100
AcDbEntity
  8
CUT
100
AcDbLine
 10
14.5026
 20
219.063
 30
0.0
 11
14.382
 21
219.098
 31
0.0
  0
LINE
  5
EF
330
17
100
AcDbEntity
  8
CUT
100
AcDbLine
 10
14.382
 20
219.098
 30
0.0
 11
14.2638
 21
219.14
 31
0.0
  0
LINE
  5
F0
330
17
100
AcDbEntity
  8
CUT
100
AcDbLine
 10
14.2638
 20
219.14
 30
0.0
 11
14.1484
 21
219.19
 31
0.0
  0
LINE
  5
F1
330
17
100
AcDbEntity
  8
CUT
100
AcDbLine
 10
14.1484
 20
219.19
 30
0.0
 11
14.0365
 21
219.247
 31
0.0
  0
LINE
  5
F2
330
17
100
AcDbEntity
  8
CUT
100
AcDbLine
 10
14.0365
 20
219.247
 30
0.0
 11
13.9283
 21
219.311
 31
0.0
  0
LINE
  5
F3
330
17
100
AcDbEntity
  8
CUT
100
AcDbLine
 10
13.9283
 20
219.311
 30
0.0
 11
13.8244
 21
219.382
 31
0.0
  0
LINE
  5
F4
330
17
100
AcDbEntity
  8
CUT
100
AcDbLine
 10
13.8244
 20
219.382
 30
0.0
 11
13.7252
 21
219.459
 31
0.0
  0
LINE
  5
F5
330
17
100
AcDbEntity
  8
CUT
100
AcDbLine
 10
13.7252
 20
219.459
 30
0.0
 11
13.6309
 21
219.542
 31
0.0
  0
LINE
  5
F6
330
17
100
AcDbEntity
  8
CUT
100
AcDbLine
 10
13.6309
 20
219.542
 30
0.0
 11
13.5421
 21
219.631
 31
0.0
  0
LINE
  5
F7
330
17
100
AcDbEntity
  8
CUT
100
AcDbLine
 10
13.5421
 20
219.631
 30
0.0
 11
13.459
 21
219.725
 31
0.0
  0
LINE
  5
F8
330
17
100
AcDbEntity
  8
CUT
100
AcDbLine
 10
13.459
 20
219.725
 30
0.0
 11
13.382
 21
219.824
 31
0.0
  0
LINE
  5
F9
330
17
100
AcDbEntity
  8
CUT
100
AcDbLine
 10
13.382
 20
219.824
 30
0.0
 11
13.3113
 21
219.928
 31
0.0
  0
LINE
  5
FA
330
17
100
AcDbEntity
  8
CUT
100
AcDbLine
 10
13.3113
 20
219.928
 30
0.0
 11
13.2474
 21
220.036
 31
0.0
  0
LINE
  5
FB
330
17
100
AcDbEntity
  8
CUT
100
AcDbLine
 10
13.2474
 20
220.036
 30
0.0
 11
13.1903
 21
220.148
 31
0.0
  0
LINE
  5
FC
330
17
100
AcDbEntity
  8
CUT
100
AcDbLine
 10
13.1903
 20
220.148
 30
0.0
 11
13.1404
 21
220.264
 31
0.0
  0
LINE
  5
FD
330
17
100
AcDbEntity
  8
CUT
100
AcDbLine
 10
13.1404
 20
220.264
 30
0.0
 11
13.0979
 21
220.382
 31
0.0
  0
LINE
  5
FE
330
17
100
AcDbEntity
  8
CUT
100
AcDbLine
 10
13.0979
 20
220.382
 30
0.0
 11
13.0628
 21
220.503
 31
0.0
  0
LINE
  5
FF
330
17
100
AcDbEntity
  8
CUT
100
AcDbLine
 10
13.0628
 20
220.503
 30
0.0
 11
13.0354
 21
220.625
 31
0.0
  0
LINE
  5
100
330
17
100
AcDbEntity
  8
CUT
100
AcDbLine
 10
13.0354
 20
220.625
 30
0.0
 11
13.0158
 21
220.749
 31
0.0
  0
LINE
  5
101
330
17
100
AcDbEntity
  8
CUT
100
AcDbLine
 10
13.0158
 20
220.749
 30
0.0
 11
13.0039
 21
220.874
 31
0.0
  0
LINE
  5
102
330
17
100
AcDbEntity
  8
CUT
100
AcDbLine
 10
13.0039
 20
220.874
 30
0.0
 11
13.0
 21
221.0
 31
0.0
  0
DIMENSION
  5
103
330
17
100
AcDbEntity
  8
DIMENSION
100
AcDbDimension
  2
*D1
  3
Standard
 10
0.0
 20
-25.0
 30
0.0
 11
7.5
 21
-25.0
 31
0.0
 70
32
 71
5
  1
<>
100
AcDbAlignedDimension
 13
0.0
 23
0.0
 33
0.0
 14
15.0
 24
0.0
 34
0.0
 50
0.0
100
AcDbRotatedDimension
  0
DIMENSION
  5
117
330
17
100
AcDbEntity
  8
DIMENSION
100
AcDbDimension
  2
*D2
  3
Standard
 10
0.0
 20
-33.0
 30
0.0
 11
15.0
 21
-33.0
 31
0.0
 70
32
 71
5
  1
<>
100
AcDbAlignedDimension
 13
0.0
 23
0.0
 33
0.0
 14
30.0
 24
0.0
 34
0.0
 50
0.0
100
AcDbRotatedDimension
  0
DIMENSION
  5
127
330
17
100
AcDbEntity
  8
DIMENSION
100
AcDbDimension
  2
*D3
  3
Standard
 10
30.0
 20
255.0
 30
0.0
 11
22.5
 21
255.0
 31
0.0
 70
32
 71
5
  1
<>
100
AcDbAlignedDimension
 13
30.0
 23
230.0
 33
0.0
 14
15.0
 24
230.0
 34
0.0
 50
0.0
100
AcDbRotatedDimension
  0
DIMENSION
  5
137
330
17
100
AcDbEntity
  8
DIMENSION
100
AcDbDimension
  2
*D4
  3
Standard
 10
-25.0
 20
0.0
 30
0.0
 11
-25.0
 21
4.5
 31
0.0
 70
32
 71
5
  1
<>
100
AcDbAlignedDimension
 13
0.0
 23
0.0
 33
0.0
 14
0.0
 24
9.0
 34
0.0
 50
90.0
100
AcDbRotatedDimension
  0
DIMENSION
  5
147
330
17
100
AcDbEntity
  8
DIMENSION
100
AcDbDimension
  2
*D5
  3
Standard
 10
-33.0
 20
0.0
 30
0.0
 11
-33.0
 21
110.5
 31
0.0
 70
32
 71
5
  1
<>
100
AcDbAlignedDimension
 13
0.0
 23
0.0
 33
0.0
 14
0.0
 24
221.0
 34
0.0
 50
90.0
100
AcDbRotatedDimension
  0
DIMENSION
  5
157
330
17
100
AcDbEntity
  8
DIMENSION
100
AcDbDimension
  2
*D6
  3
Standard
 10
-41.0
 20
0.0
 30
0.0
 11
-41.0
 21
115.0
 31
0.0
 70
32
 71
5
  1
<>
100
AcDbAlignedDimension
 13
0.0
 23
0.0
 33
0.0
 14
0.0
 24
230.0
 34
0.0
 50
90.0
100
AcDbRotatedDimension
  0
DIMENSION
  5
167
330
17
100
AcDbEntity
  8
DIMENSION
100
AcDbDimension
  2
*D7
  3
Standard
 10
55.0
 20
230.0
 30
0.0
 11
55.0
 21
225.5
 31
0.0
 70
32
 71
5
  1
<>
100
AcDbAlignedDimension
 13
30.0
 23
230.0
 33
0.0
 14
30.0
 24
221.0
 34
0.0
 50
90.0
100
AcDbRotatedDimension
  0
DIMENSION
  5
177
330
17
100
AcDbEntity
  8
DIMENSION
100
AcDbDimension
  2
*D8
  3
Standard
 10
63.0
 20
230.0
 30
0.0
 11
63.0
 21
119.5
 31
0.0
 70
32
 71
5
  1
<>
100
AcDbAlignedDimension
 13
30.0
 23
230.0
 33
0.0
 14
30.0
 24
9.0
 34
0.0
 50
90.0
100
AcDbRotatedDimension
  0
TEXT
  5
187
330
17
100
AcDbEntity
  8
ANNOTATION
100
AcDbText
 10
-41.0
 20
-53.0
 30
0.0
 40
5.0
  1
Legend:
100
AcDbText
  0
TEXT
  5
188
330
17
100
AcDbEntity
  8
ANNOTATION
100
AcDbText
 10
-41.0
 20
-63.0
 30
0.0
 40
5.0
  1
- CUT layer (red): Panel outline
100
AcDbText
  0
TEXT
  5
189
330
17
100
AcDbEntity
  8
ANNOTATION
100
AcDbText
 10
-41.0
 20
-73.0
 30
0.0
 40
5.0
  1
- DRILL layer (blue): Holes to be drilled
100
AcDbText
  0
TEXT
  5
18A
330
17
100
AcDbEntity
  8
ANNOTATION
100
AcDbText
 10
-41.0
 20
-83.0
 30
0.0
 40
5.0
  1
- DIMENSION layer (grey): Panel and hole dimensions
100
AcDbText
  0
TEXT
  5
18B
330
17
100
AcDbEntity
  8
ANNOTATION
100
AcDbText
 10
-41.0
 20
-93.0
 30
0.0
 40
5.0
  1
- ANNOTATION layer (black): Hole dimensions (d=diameter, h=depth).
100
AcDbText
  0
TEXT
  5
18C
330
17
100
AcDbEntity
  8
ANNOTATION
100
AcDbText
 10
-41.0
 20
-103.0
 30
0.0
 40
5.0
  1
- For side-drilled holes, Z-coordinate is included (e.g., d10 h20 z9.5).
100
AcDbText
  0
TEXT
  5
18D
330
17
100
AcDbEntity
  8
ANNOTATION
100
AcDbText
 10
-41.0
 20
-113.0
 30
0.0
 40
5.0
  1
- Side-drilled holes are also marked with a blue cross on the DRILL layer.
100
AcDbText
  0
TEXT
  5
18E
330
17
100
AcDbEntity
  8
ANNOTATION
100
AcDbText
 10
238.0
 20
255.0
 30
0.0
 40
3.75
  1
Hole Schedule
100
AcDbText
  0
TEXT
  5
18F
330
17
100
AcDbEntity
  8
ANNOTATION
100
AcDbText
 10
238.0
 20
247.5
 30
0.0
 40
2.5
  1
Hole Name
100
AcDbText
  0
TEXT
  5
190
330
17
100
AcDbEntity
  8
ANNOTATION
100
AcDbText
 10
288.0
 20
247.5
 30
0.0
 40
2.5
  1
X
100
AcDbText
  0
TEXT
  5
191
330
17
100
AcDbEntity
  8
ANNOTATION
100
AcDbText
 10
308.0
 20
247.5
 30
0.0
 40
2.5
  1
Y
100
AcDbText
  0
TEXT
  5
192
330
17
100
AcDbEntity
  8
ANNOTATION
100
AcDbText
 10
328.0
 20
247.5
 30
0.0
 40
2.5
  1
Z
100
AcDbText
  0
TEXT
  5
193
330
17
100
AcDbEntity
  8
ANNOTATION
100
AcDbText
 10
348.0
 20
247.5
 30
0.0
 40
2.5
  1
Dia
100
AcDbText
  0
TEXT
  5
194
330
17
100
AcDbEntity
  8
ANNOTATION
100
AcDbText
 10
368.0
 20
247.5
 30
0.0
 40
2.5
  1
Depth
100
AcDbText
  0
LINE
  5
195
330
17
100
AcDbEntity
  8
ANNOTATION
100
AcDbLine
 10
238.0
 20
246.25
 30
0.0
 11
388.0
 21
246.25
 31
0.0
  0
TEXT
  5
196
330
17
100
AcDbEntity
  8
ANNOTATION
100
AcDbText
 10
238.0
 20
241.875
 30
0.0
 40
2.5
  1
front_panel
100
AcDbText
  0
TEXT
  5
197
330
17
100
AcDbEntity
  8
ANNOTATION
100
AcDbText
 10
288.0
 20
241.875
 30
0.0
 40
2.5
  1
15.0
100
AcDbText
  0
TEXT
  5
198
330
17
100
AcDbEntity
  8
ANNOTATION
100
AcDbText
 10
308.0
 20
241.875
 30
0.0
 40
2.5
  1
9.0
100
AcDbText
  0
TEXT
  5
199
330
17
100
AcDbEntity
  8
ANNOTATION
100
AcDbText
 10
328.0
 20
241.875
 30
0.0
 40
2.5
  1
0.0
100
AcDbText
  0
TEXT
  5
19A
330
17
100
AcDbEntity
  8
ANNOTATION
100
AcDbText
 10
348.0
 20
241.875
 30
0.0
 40
2.5
  1
4.0
100
AcDbText
  0
TEXT
  5
19B
330
17
100
AcDbEntity
  8
ANNOTATION
100
AcDbText
 10
368.0
 20
241.875
 30
0.0
 40
2.5
  1
18.0
100
AcDbText
  0
TEXT
  5
19C
330
17
100
AcDbEntity
  8
ANNOTATION
100
AcDbText
 10
238.0
 20
238.125
 30
0.0
 40
2.5
  1
back_panel
100
AcDbText
  0
TEXT
  5
19D
330
17
100
AcDbEntity
  8
ANNOTATION
100
AcDbText
 10
288.0
 20
238.125
 30
0.0
 40
2.5
  1
15.0
100
AcDbText
  0
TEXT
  5
19E
330
17
100
AcDbEntity
  8
ANNOTATION
100
AcDbText
 10
308.0
 20
238.125
 30
0.0
 40
2.5
  1
221.0
100
AcDbText
  0
TEXT
  5
19F
330
17
100
AcDbEntity
  8
ANNOTATION
100
AcDbText
 10
328.0
 20
238.125
 30
0.0
 40
2.5
  1
0.0
100
AcDbText
  0
TEXT
  5
1A0
330
17
100
AcDbEntity
  8
ANNOTATION
100
AcDbText
 10
348.0
 20
238.125
 30
0.0
 40
2.5
  1
4.0
100
AcDbText
  0
TEXT
  5
1A1
330
17
100
AcDbEntity
  8
ANNOTATION
100
AcDbText
 10
368.0
 20
238.125
 30
0.0
 40
2.5
  1
18.0
100
AcDbText
  0
TEXT
  5
1A3
330
17
100
AcDbEntity
  8
ANNOTATION
100
AcDbText
 10
173.5
 20
278.75
 30
0.0
 40
10.0
  1
PedestalSide
  7
Title
 72
1
 11
173.5
 21
278.75
 31
0.0
100
AcDbText
 73
2
  0
ENDSEC
  0
SECTION
  2
OBJECTS
  0
DICTIONARY
  5
A
330
0
100
AcDbDictionary
281
1
  3
ACAD_COLOR
350
B
  3
ACAD_GROUP
350
C
  3
ACAD_LAYOUT
350
D
  3
ACAD_MATERIAL
350
E
  3
ACAD_MLEADERSTYLE
350
F
  3
ACAD_MLINESTYLE
350
10
  3
ACAD_PLOTSETTINGS
350
11
  3
ACAD_PLOTSTYLENAME
350
12
  3
ACAD_SCALELIST
350
14
  3
ACAD_TABLESTYLE
350
15
  3
ACAD_VISUALSTYLE
350
16
  3
EZDXF_META
350
2D
  0
DICTIONARY
  5
B
330
A
100
AcDbDictionary
281
1
  0
DICTIONARY
  5
C
330
A
100
AcDbDictionary
281
1
  0
DICTIONARY
  5
D
330
A
100
AcDbDictionary
281
1
  3
Model
350
1A
  3
Layout1
350
1E
  3
A4 landscape
350
1A7
  0
DICTIONARY
  5
E
330
A
100
AcDbDictionary
281
1
  3
ByBlock
350
1F
  3
ByLayer
350
20
  3
Global
350
21
  0
DICTIONARY
  5
F
330
A
100
AcDbDictionary
281
1
  3
Standard
350
2C
  0
DICTIONARY
  5
10
330
A
100
AcDbDictionary
281
1
  3
Standard
350
22
  0
DICTIONARY
  5
11
330
A
100
AcDbDictionary
281
1
  0
ACDBDICTIONARYWDFLT
  5
12
330
A
100
AcDbDictionary
281
1
  3
Normal
350
13
100
AcDbDictionaryWithDefault
340
13
  0
ACDBPLACEHOLDER
  5
13
330
12
  0
DICTIONARY
  5
14
330
A
100
AcDbDictionary
281
1
  0
DICTIONARY
  5
15
330
A
100
AcDbDictionary
281
1
  0
DICTIONARY
  5
16
330
A
100
AcDbDictionary
281
1
  0
LAYOUT
  5
1A
330
D
100
AcDbPlotSettings
  1

  4
A3
  6

 40
7.5
 41
20.0
 42
7.5
 43
20.0
 44
420.0
 45
297.0
 46
0.0
 47
0.0
 48
0.0
 49
0.0
140
0.0
141
0.0
142
1.0
143
1.0
 70
1024
 72
1
 73
0
 74
5
  7

 75
16
 76
0
 77
2
 78
300
147
1.0
148
0.0
149
0.0
100
AcDbLayout
  1
Model
 70
1
 71
0
 10
0.0
 20
0.0
 11
420.0
 21
297.0
 12
0.0
 22
0.0
 32
0.0
 14
1e+20
 24
1e+20
 34
1e+20
 15
-1e+20
 25
-1e+20
 35
-1e+20
146
0.0
 13
0.0
 23
0.0
 33
0.0
 16
1.0
 26
0.0
 36
0.0
 17
0.0
 27
1.0
 37
0.0
 76
1
330
17
  0
LAYOUT
  5
1E
330
D
100
AcDbPlotSettings
  1

  4
A3
  6

 40
7.5
 41
20.0
 42
7.5
 43
20.0
 44
420.0
 45
297.0
 46
0.0
 47
0.0
 48
0.0
 49
0.0
140
0.0
141
0.0
142
1.0
143
1.0
 70
0
 72
1
 73
0
 74
5
  7

 75
16
 76
0
 77
2
 78
300
147
1.0
148
0.0
149
0.0
100
AcDbLayout
  1
Layout1
 70
1
 71
1
 10
0.0
 20
0.0
 11
420.0
 21
297.0
 12
0.0
 22
0.0
 32
0.0
 14
1e+20
 24
1e+20
 34
1e+20
 15
-1e+20
 25
-1e+20
 35
-1e+20
146
0.0
 13
0.0
 23
0.0
 33
0.0
 16
1.0
 26
0.0
 36
0.0
 17
0.0
 27
1.0
 37
0.0
 76
1
330
1B
  0
MATERIAL
  5
1F
102
{ACAD_REACTORS
330
E
102
}
330
E
100
AcDbMaterial
  1
ByBlock
  2

 70
0
 40
1.0
 71
1
 41
1.0
 91
-1023410177
 42
1.0
 72
1
  3

 73
1
 74
1
 75
1
 44
0.5
 73
0
 45
1.0
 46
1.0
 77
1
  4

 78
1
 79
1
170
1
 48
1.0
171
1
  6

172
1
173
1
174
1
140
1.0
141
1.0
175
1
  7

176
1
177
1
178
1
143
1.0
179
1
  8

270
1
271
1
272
1
145
1.0
146
1.0
273
1
  9

274
1
275
1
276
1
 42
1.0
 72
1
  3

 73
1
 74
1
 75
1
 94
63
  0
MATERIAL
  5
20
102
{ACAD_REACTORS
330
E
102
}
330
E
100
AcDbMaterial
  1
ByLayer
  2

 70
0
 40
1.0
 71
1
 41
1.0
 91
-1023410177
 42
1.0
 72
1
  3

 73
1
 74
1
 75
1
 44
0.5
 73
0
 45
1.0
 46
1.0
 77
1
  4

 78
1
 79
1
170
1
 48
1.0
171
1
  6

172
1
173
1
174
1
140
1.0
141
1.0
175
1
  7

176
1
177
1
178
1
143
1.0
179
1
  8

270
1
271
1
272
1
145
1.0
146
1.0
273
1
  9

274
1
275
1
276
1
 42
1.0
 72
1
  3

 73
1
 74
1
 75
1
 94
63
  0
MATERIAL
  5
21
102
{ACAD_REACTORS
330
E
102
}
330
E
100
AcDbMaterial
  1
Global
  2

 70
0
 40
1.0
 71
1
 41
1.0
 91
-1023410177
 42
1.0
 72
1
  3

 73
1
 74
1
 75
1
 44
0.5
 73
0
 45
1.0
 46
1.0
 77
1
  4

 78
1
 79
1
170
1
 48
1.0
171
1
  6

172
1
173
1
174
1
140
1.0
141
1.0
175
1
  7

176
1
177
1
178
1
143
1.0
179
1
  8

270
1
271
1
272
1
145
1.0
146
1.0
273
1
  9

274
1
275
1
276
1
 42
1.0
 72
1
  3

 73
1
 74
1
 75
1
 94
63
  0
MLINESTYLE
  5
22
102
{ACAD_REACTORS
330
10
102
}
330
10
100
AcDbMlineStyle
  2
Standard
 70
0
  3

 62
256
 51
90.0
 52
90.0
 71
2
 49
0.5
 62
256
  6
BYLAYER
 49
-0.5
 62
256
  6
BYLAYER
  0
MLEADERSTYLE
  5
2C
102
{ACAD_REACTORS
330
F
102
}
330
F
100
AcDbMLeaderStyle
179
2
170
2
171
1
172
0
 90
2
 40
0.0
 41
0.0
173
1
 91
-1056964608
 92
-2
290
1
 42
2.0
291
1
 43
8.0
  3
Standard
 44
4.0
300

342
29
174
1
175
1
176
0
178
1
 93
-1056964608
 45
4.0
292
0
297
0
 46
4.0
 94
-1056964608
 47
1.0
 49
1.0
140
1.0
294
1
141
0.0
177
0
142
1.0
295
0
296
0
143
3.75
271
0
272
9
273
9
  0
DICTIONARY
  5
2D
330
A
100
AcDbDictionary
280
1
281
1
  3
CREATED_BY_EZDXF
350
2E
  3
WRITTEN_BY_EZDXF
350
1AC
  0
DICTIONARYVAR
  5
2E
330
2D
100
DictionaryVariables
280
0
  1
1.4.2 @ 2025-09-19T05:34:59.799296+00:00
  0
LAYOUT
  5
1A7
330
D
100
AcDbPlotSettings
  1

  2
DWG to PDF.pc3
  4
ezdxf_(297.00_x_210.00_MM)
  6

 40
10.0
 41
10.0
 42
10.0
 43
10.0
 44
297.0
 45
210.0
 46
0.0
 47
0.0
 48
0.0
 49
0.0
140
0.0
141
0.0
142
1.0
143
1.0
 70
672
 72
1
 73
0
 74
5
  7

 75
16
 76
0
 77
2
 78
300
147
1.0
148
0.0
149
0.0
100
AcDbLayout
  1
A4 landscape
 70
1
 71
3
 10
-10.0
 20
-10.0
 11
287.0
 21
200.0
 12
0.0
 22
0.0
 32
0.0
 14
1e+20
 24
1e+20
 34
1e+20
 15
-1e+20
 25
-1e+20
 35
-1e+20
146
0.0
 13
0.0
 23
0.0
 33
0.0
 16
1.0
 26
0.0
 36
0.0
 17
0.0
 27
1.0
 37
0.0
 76
1
330
1A4
331
1A8
  0
DICTIONARYVAR
  5
1AC
330
2D
100
DictionaryVariables
280
0
  1
1.4.2 @ 2025-09-19T05:34:59.815434+00:00
  0
ENDSEC
  0
EOF
