  0
SECTION
  2
HEADER
  9
$ACADVER
  1
AC1015
  9
$ACADMAINTVER
 70
6
  9
$DWGCODEPAGE
  3
ANSI_1252
  9
$INSBASE
 10
0.0
 20
0.0
 30
0.0
  9
$EXTMIN
 10
1e+20
 20
1e+20
 30
1e+20
  9
$EXTMAX
 10
-1e+20
 20
-1e+20
 30
-1e+20
  9
$LIMMIN
 10
0.0
 20
0.0
  9
$LIMMAX
 10
420.0
 20
297.0
  9
$ORTHOMODE
 70
0
  9
$REGENMODE
 70
1
  9
$FILLMODE
 70
1
  9
$QTEXTMODE
 70
0
  9
$MIRRTEXT
 70
1
  9
$LTSCALE
 40
1.0
  9
$ATTMODE
 70
1
  9
$TEXTSIZE
 40
2.5
  9
$TRACEWID
 40
1.0
  9
$TEXTSTYLE
  7
Standard
  9
$CLAYER
  8
0
  9
$CELTYPE
  6
ByLayer
  9
$CECOLOR
 62
256
  9
$CELTSCALE
 40
1.0
  9
$DISPSILH
 70
0
  9
$DIMSCALE
 40
1.0
  9
$DIMASZ
 40
2.5
  9
$DIMEXO
 40
0.625
  9
$DIMDLI
 40
3.75
  9
$DIMRND
 40
0.0
  9
$DIMDLE
 40
0.0
  9
$DIMEXE
 40
1.25
  9
$DIMTP
 40
0.0
  9
$DIMTM
 40
0.0
  9
$DIMTXT
 40
2.5
  9
$DIMCEN
 40
2.5
  9
$DIMTSZ
 40
0.0
  9
$DIMTOL
 70
0
  9
$DIMLIM
 70
0
  9
$DIMTIH
 70
0
  9
$DIMTOH
 70
0
  9
$DIMSE1
 70
0
  9
$DIMSE2
 70
0
  9
$DIMTAD
 70
1
  9
$DIMZIN
 70
8
  9
$DIMBLK
  1

  9
$DIMASO
 70
1
  9
$DIMSHO
 70
1
  9
$DIMPOST
  1

  9
$DIMAPOST
  1

  9
$DIMALT
 70
0
  9
$DIMALTD
 70
3
  9
$DIMALTF
 40
0.03937007874
  9
$DIMLFAC
 40
1.0
  9
$DIMTOFL
 70
1
  9
$DIMTVP
 40
0.0
  9
$DIMTIX
 70
0
  9
$DIMSOXD
 70
0
  9
$DIMSAH
 70
0
  9
$DIMBLK1
  1

  9
$DIMBLK2
  1

  9
$DIMSTYLE
  2
ISO-25
  9
$DIMCLRD
 70
0
  9
$DIMCLRE
 70
0
  9
$DIMCLRT
 70
0
  9
$DIMTFAC
 40
1.0
  9
$DIMGAP
 40
0.625
  9
$DIMJUST
 70
0
  9
$DIMSD1
 70
0
  9
$DIMSD2
 70
0
  9
$DIMTOLJ
 70
0
  9
$DIMTZIN
 70
8
  9
$DIMALTZ
 70
0
  9
$DIMALTTZ
 70
0
  9
$DIMUPT
 70
0
  9
$DIMDEC
 70
2
  9
$DIMTDEC
 70
2
  9
$DIMALTU
 70
2
  9
$DIMALTTD
 70
3
  9
$DIMTXSTY
  7
Standard
  9
$DIMAUNIT
 70
0
  9
$DIMADEC
 70
0
  9
$DIMALTRND
 40
0.0
  9
$DIMAZIN
 70
0
  9
$DIMDSEP
 70
44
  9
$DIMATFIT
 70
3
  9
$DIMFRAC
 70
0
  9
$DIMLDRBLK
  1

  9
$DIMLUNIT
 70
2
  9
$DIMLWD
 70
-2
  9
$DIMLWE
 70
-2
  9
$DIMTMOVE
 70
0
  9
$LUNITS
 70
2
  9
$LUPREC
 70
4
  9
$SKETCHINC
 40
1.0
  9
$FILLETRAD
 40
10.0
  9
$AUNITS
 70
0
  9
$AUPREC
 70
2
  9
$MENU
  1
.
  9
$ELEVATION
 40
0.0
  9
$PELEVATION
 40
0.0
  9
$THICKNESS
 40
0.0
  9
$LIMCHECK
 70
0
  9
$CHAMFERA
 40
0.0
  9
$CHAMFERB
 40
0.0
  9
$CHAMFERC
 40
0.0
  9
$CHAMFERD
 40
0.0
  9
$SKPOLY
 70
0
  9
$TDCREATE
 40
2460911.7562037036
  9
$TDUCREATE
 40
2458532.153996898
  9
$TDUPDATE
 40
2460911.7562152776
  9
$TDUUPDATE
 40
2458532.1544311
  9
$TDINDWG
 40
0.0
  9
$TDUSRTIMER
 40
0.0
  9
$USRTIMER
 70
1
  9
$ANGBASE
 50
0.0
  9
$ANGDIR
 70
0
  9
$PDMODE
 70
0
  9
$PDSIZE
 40
0.0
  9
$PLINEWID
 40
0.0
  9
$SPLFRAME
 70
0
  9
$SPLINETYPE
 70
6
  9
$SPLINESEGS
 70
8
  9
$HANDSEED
  5
1B2
  9
$SURFTAB1
 70
6
  9
$SURFTAB2
 70
6
  9
$SURFTYPE
 70
6
  9
$SURFU
 70
6
  9
$SURFV
 70
6
  9
$UCSBASE
  2

  9
$UCSNAME
  2

  9
$UCSORG
 10
0.0
 20
0.0
 30
0.0
  9
$UCSXDIR
 10
1.0
 20
0.0
 30
0.0
  9
$UCSYDIR
 10
0.0
 20
1.0
 30
0.0
  9
$UCSORTHOREF
  2

  9
$UCSORTHOVIEW
 70
0
  9
$UCSORGTOP
 10
0.0
 20
0.0
 30
0.0
  9
$UCSORGBOTTOM
 10
0.0
 20
0.0
 30
0.0
  9
$UCSORGLEFT
 10
0.0
 20
0.0
 30
0.0
  9
$UCSORGRIGHT
 10
0.0
 20
0.0
 30
0.0
  9
$UCSORGFRONT
 10
0.0
 20
0.0
 30
0.0
  9
$UCSORGBACK
 10
0.0
 20
0.0
 30
0.0
  9
$PUCSBASE
  2

  9
$PUCSNAME
  2

  9
$PUCSORG
 10
0.0
 20
0.0
 30
0.0
  9
$PUCSXDIR
 10
1.0
 20
0.0
 30
0.0
  9
$PUCSYDIR
 10
0.0
 20
1.0
 30
0.0
  9
$PUCSORTHOREF
  2

  9
$PUCSORTHOVIEW
 70
0
  9
$PUCSORGTOP
 10
0.0
 20
0.0
 30
0.0
  9
$PUCSORGBOTTOM
 10
0.0
 20
0.0
 30
0.0
  9
$PUCSORGLEFT
 10
0.0
 20
0.0
 30
0.0
  9
$PUCSORGRIGHT
 10
0.0
 20
0.0
 30
0.0
  9
$PUCSORGFRONT
 10
0.0
 20
0.0
 30
0.0
  9
$PUCSORGBACK
 10
0.0
 20
0.0
 30
0.0
  9
$USERI1
 70
0
  9
$USERI2
 70
0
  9
$USERI3
 70
0
  9
$USERI4
 70
0
  9
$USERI5
 70
0
  9
$USERR1
 40
0.0
  9
$USERR2
 40
0.0
  9
$USERR3
 40
0.0
  9
$USERR4
 40
0.0
  9
$USERR5
 40
0.0
  9
$WORLDVIEW
 70
1
  9
$SHADEDGE
 70
3
  9
$SHADEDIF
 70
70
  9
$TILEMODE
 70
1
  9
$MAXACTVP
 70
64
  9
$PINSBASE
 10
0.0
 20
0.0
 30
0.0
  9
$PLIMCHECK
 70
0
  9
$PEXTMIN
 10
1e+20
 20
1e+20
 30
1e+20
  9
$PEXTMAX
 10
-1e+20
 20
-1e+20
 30
-1e+20
  9
$PLIMMIN
 10
0.0
 20
0.0
  9
$PLIMMAX
 10
420.0
 20
297.0
  9
$UNITMODE
 70
0
  9
$VISRETAIN
 70
1
  9
$PLINEGEN
 70
0
  9
$PSLTSCALE
 70
1
  9
$TREEDEPTH
 70
3020
  9
$CMLSTYLE
  2
Standard
  9
$CMLJUST
 70
0
  9
$CMLSCALE
 40
20.0
  9
$PROXYGRAPHICS
 70
1
  9
$MEASUREMENT
 70
1
  9
$CELWEIGHT
370
-1
  9
$ENDCAPS
280
0
  9
$JOINSTYLE
280
0
  9
$LWDISPLAY
290
0
  9
$INSUNITS
 70
6
  9
$HYPERLINKBASE
  1

  9
$STYLESHEET
  1

  9
$XEDIT
290
1
  9
$CEPSNTYPE
380
0
  9
$PSTYLEMODE
290
1
  9
$FINGERPRINTGUID
  2
{3F09B371-5742-49CF-B36F-E47AD267B9C6}
  9
$VERSIONGUID
  2
{9DF5812D-54E8-48BE-9B44-247C2EDF3AEF}
  9
$EXTNAMES
290
1
  9
$PSVPSCALE
 40
0.0
  9
$OLESTARTUP
290
0
  0
ENDSEC
  0
SECTION
  2
CLASSES
  0
CLASS
  1
ACDBDICTIONARYWDFLT
  2
AcDbDictionaryWithDefault
  3
ObjectDBX Classes
 90
0
280
0
281
0
  0
CLASS
  1
SUN
  2
AcDbSun
  3
SCENEOE
 90
1153
280
0
281
0
  0
CLASS
  1
VISUALSTYLE
  2
AcDbVisualStyle
  3
ObjectDBX Classes
 90
4095
280
0
281
0
  0
CLASS
  1
MATERIAL
  2
AcDbMaterial
  3
ObjectDBX Classes
 90
1153
280
0
281
0
  0
CLASS
  1
SCALE
  2
AcDbScale
  3
ObjectDBX Classes
 90
1153
280
0
281
0
  0
CLASS
  1
TABLESTYLE
  2
AcDbTableStyle
  3
ObjectDBX Classes
 90
4095
280
0
281
0
  0
CLASS
  1
MLEADERSTYLE
  2
AcDbMLeaderStyle
  3
ACDB_MLEADERSTYLE_CLASS
 90
4095
280
0
281
0
  0
CLASS
  1
DICTIONARYVAR
  2
AcDbDictionaryVar
  3
ObjectDBX Classes
 90
0
280
0
281
0
  0
CLASS
  1
CELLSTYLEMAP
  2
AcDbCellStyleMap
  3
ObjectDBX Classes
 90
1152
280
0
281
0
  0
CLASS
  1
MENTALRAYRENDERSETTINGS
  2
AcDbMentalRayRenderSettings
  3
SCENEOE
 90
1024
280
0
281
0
  0
CLASS
  1
ACDBDETAILVIEWSTYLE
  2
AcDbDetailViewStyle
  3
ObjectDBX Classes
 90
1025
280
0
281
0
  0
CLASS
  1
ACDBSECTIONVIEWSTYLE
  2
AcDbSectionViewStyle
  3
ObjectDBX Classes
 90
1025
280
0
281
0
  0
CLASS
  1
RASTERVARIABLES
  2
AcDbRasterVariables
  3
ISM
 90
0
280
0
281
0
  0
CLASS
  1
ACDBPLACEHOLDER
  2
AcDbPlaceHolder
  3
ObjectDBX Classes
 90
0
280
0
281
0
  0
CLASS
  1
LAYOUT
  2
AcDbLayout
  3
ObjectDBX Classes
 90
0
280
0
281
0
  0
ENDSEC
  0
SECTION
  2
TABLES
  0
TABLE
  2
VPORT
  5
8
330
0
100
AcDbSymbolTable
 70
1
  0
VPORT
  5
23
330
8
100
AcDbSymbolTableRecord
100
AcDbViewportTableRecord
  2
*Active
 70
0
 10
0.0
 20
0.0
 11
1.0
 21
1.0
 12
0.0
 22
0.0
 13
0.0
 23
0.0
 14
0.5
 24
0.5
 15
0.5
 25
0.5
 16
0.0
 26
0.0
 36
1.0
 17
0.0
 27
0.0
 37
0.0
 40
1000.0
 41
1.34
 42
50.0
 43
0.0
 44
0.0
 50
0.0
 51
0.0
 71
0
 72
1000
 73
1
 74
3
 75
0
 76
0
 77
0
 78
0
281
0
 65
0
146
0.0
  0
ENDTAB
  0
TABLE
  2
LTYPE
  5
2
330
0
100
AcDbSymbolTable
 70
3
  0
LTYPE
  5
24
330
2
100
AcDbSymbolTableRecord
100
AcDbLinetypeTableRecord
  2
ByBlock
 70
0
  3

 72
65
 73
0
 40
0.0
  0
LTYPE
  5
25
330
2
100
AcDbSymbolTableRecord
100
AcDbLinetypeTableRecord
  2
ByLayer
 70
0
  3

 72
65
 73
0
 40
0.0
  0
LTYPE
  5
26
330
2
100
AcDbSymbolTableRecord
100
AcDbLinetypeTableRecord
  2
Continuous
 70
0
  3

 72
65
 73
0
 40
0.0
  0
ENDTAB
  0
TABLE
  2
LAYER
  5
1
330
0
100
AcDbSymbolTable
 70
5
  0
LAYER
  5
27
330
1
100
AcDbSymbolTableRecord
100
AcDbLayerTableRecord
  2
0
 70
0
 62
7
  6
Continuous
370
-3
390
13
  0
LAYER
  5
28
330
1
100
AcDbSymbolTableRecord
100
AcDbLayerTableRecord
  2
Defpoints
 70
0
 62
7
  6
Continuous
290
0
370
-3
390
13
  0
LAYER
  5
2F
330
1
100
AcDbSymbolTableRecord
100
AcDbLayerTableRecord
  2
CUT
 70
0
 62
1
  6
CONTINUOUS
370
-3
390
13
  0
LAYER
  5
30
330
1
100
AcDbSymbolTableRecord
100
AcDbLayerTableRecord
  2
DRILL
 70
0
 62
5
  6
CONTINUOUS
370
-3
390
13
  0
LAYER
  5
31
330
1
100
AcDbSymbolTableRecord
100
AcDbLayerTableRecord
  2
ANNOTATION
 70
0
 62
6
  6
CONTINUOUS
370
-3
390
13
  0
ENDTAB
  0
TABLE
  2
STYLE
  5
5
330
0
100
AcDbSymbolTable
 70
1
  0
STYLE
  5
29
330
5
100
AcDbSymbolTableRecord
100
AcDbTextStyleTableRecord
  2
Standard
 70
0
 40
0.0
 41
1.0
 50
0.0
 71
0
 42
2.5
  3
txt
  4

  0
ENDTAB
  0
TABLE
  2
VIEW
  5
7
330
0
100
AcDbSymbolTable
 70
0
  0
ENDTAB
  0
TABLE
  2
UCS
  5
6
330
0
100
AcDbSymbolTable
 70
0
  0
ENDTAB
  0
TABLE
  2
APPID
  5
3
330
0
100
AcDbSymbolTable
 70
3
  0
APPID
  5
2A
330
3
100
AcDbSymbolTableRecord
100
AcDbRegAppTableRecord
  2
ACAD
 70
0
  0
APPID
  5
1AF
330
3
100
AcDbSymbolTableRecord
100
AcDbRegAppTableRecord
  2
HATCHBACKGROUNDCOLOR
 70
0
  0
APPID
  5
1B0
330
3
100
AcDbSymbolTableRecord
100
AcDbRegAppTableRecord
  2
EZDXF
 70
0
  0
ENDTAB
  0
TABLE
  2
DIMSTYLE
  5
4
330
0
100
AcDbSymbolTable
 70
1
100
AcDbDimStyleTable
  0
DIMSTYLE
105
2B
330
4
100
AcDbSymbolTableRecord
100
AcDbDimStyleTableRecord
  2
Standard
 70
0
  3

  4

 40
1.0
 41
2.5
 42
0.625
 43
3.75
 44
1.25
 45
0.0
 46
0.0
 47
0.0
 48
0.0
140
2.5
141
2.5
142
0.0
143
0.03937007874
144
1.0
145
0.0
146
1.0
147
0.625
148
0.0
 71
0
 72
0
 73
0
 74
0
 75
0
 76
0
 77
1
 78
8
 79
3
170
0
171
3
172
1
173
0
174
0
175
0
176
0
177
0
178
0
179
2
271
2
272
2
273
2
274
3
275
0
276
0
277
2
278
44
279
0
280
0
281
0
282
0
283
0
284
8
285
0
286
0
288
0
289
3
371
-2
372
-2
  0
ENDTAB
  0
TABLE
  2
BLOCK_RECORD
  5
9
330
0
100
AcDbSymbolTable
 70
2
  0
BLOCK_RECORD
  5
17
330
9
100
AcDbSymbolTableRecord
100
AcDbBlockTableRecord
  2
*Model_Space
340
1A
  0
BLOCK_RECORD
  5
1B
330
9
100
AcDbSymbolTableRecord
100
AcDbBlockTableRecord
  2
*Paper_Space
340
1E
  0
ENDTAB
  0
ENDSEC
  0
SECTION
  2
BLOCKS
  0
BLOCK
  5
18
330
17
100
AcDbEntity
  8
0
100
AcDbBlockBegin
  2
*Model_Space
 70
0
 10
0.0
 20
0.0
 30
0.0
  3
*Model_Space
  1

  0
ENDBLK
  5
19
330
17
100
AcDbEntity
  8
0
100
AcDbBlockEnd
  0
BLOCK
  5
1C
330
1B
100
AcDbEntity
  8
0
100
AcDbBlockBegin
  2
*Paper_Space
 70
0
 10
0.0
 20
0.0
 30
0.0
  3
*Paper_Space
  1

  0
ENDBLK
  5
1D
330
1B
100
AcDbEntity
  8
0
100
AcDbBlockEnd
  0
ENDSEC
  0
SECTION
  2
ENTITIES
  0
TEXT
  5
32
330
17
100
AcDbEntity
  8
ANNOTATION
100
AcDbText
 10
9.5
 20
55.0
 30
0.0
 40
2.5
  1
d4.0 h19.0
100
AcDbText
  0
TEXT
  5
33
330
17
100
AcDbEntity
  8
ANNOTATION
100
AcDbText
 10
9.5
 20
185.0
 30
0.0
 40
2.5
  1
d4.0 h19.0
100
AcDbText
  0
TEXT
  5
34
330
17
100
AcDbEntity
  8
ANNOTATION
100
AcDbText
 10
2290.5
 20
55.0
 30
0.0
 40
2.5
  1
d4.0 h19.0
100
AcDbText
  0
TEXT
  5
35
330
17
100
AcDbEntity
  8
ANNOTATION
100
AcDbText
 10
2290.5
 20
185.0
 30
0.0
 40
2.5
  1
d4.0 h19.0
100
AcDbText
  0
TEXT
  5
36
330
17
100
AcDbEntity
  8
ANNOTATION
100
AcDbText
 10
1298.5
 20
55.0
 30
0.0
 40
2.5
  1
d4.0 h19.0
100
AcDbText
  0
TEXT
  5
37
330
17
100
AcDbEntity
  8
ANNOTATION
100
AcDbText
 10
1298.5
 20
185.0
 30
0.0
 40
2.5
  1
d4.0 h19.0
100
AcDbText
  0
TEXT
  5
38
330
17
100
AcDbEntity
  8
ANNOTATION
100
AcDbText
 10
1629.17
 20
55.0
 30
0.0
 40
2.5
  1
d4.0 h19.0
100
AcDbText
  0
TEXT
  5
39
330
17
100
AcDbEntity
  8
ANNOTATION
100
AcDbText
 10
1629.17
 20
185.0
 30
0.0
 40
2.5
  1
d4.0 h19.0
100
AcDbText
  0
TEXT
  5
3A
330
17
100
AcDbEntity
  8
ANNOTATION
100
AcDbText
 10
1959.83
 20
55.0
 30
0.0
 40
2.5
  1
d4.0 h19.0
100
AcDbText
  0
TEXT
  5
3B
330
17
100
AcDbEntity
  8
ANNOTATION
100
AcDbText
 10
1959.83
 20
185.0
 30
0.0
 40
2.5
  1
d4.0 h19.0
100
AcDbText
  0
TEXT
  5
3C
330
17
100
AcDbEntity
  8
ANNOTATION
100
AcDbText
 10
101.5
 20
11.5
 30
0.0
 40
2.5
  1
d2.5 h2.0
100
AcDbText
  0
TEXT
  5
3D
330
17
100
AcDbEntity
  8
ANNOTATION
100
AcDbText
 10
101.5
 20
40.0
 30
0.0
 40
2.5
  1
d2.5 h2.0
100
AcDbText
  0
TEXT
  5
3E
330
17
100
AcDbEntity
  8
ANNOTATION
100
AcDbText
 10
101.5
 20
56.0
 30
0.0
 40
2.5
  1
d2.5 h2.0
100
AcDbText
  0
TEXT
  5
3F
330
17
100
AcDbEntity
  8
ANNOTATION
100
AcDbText
 10
101.5
 20
81.0
 30
0.0
 40
2.5
  1
d2.5 h2.0
100
AcDbText
  0
TEXT
  5
40
330
17
100
AcDbEntity
  8
ANNOTATION
100
AcDbText
 10
101.5
 20
104.0
 30
0.0
 40
2.5
  1
d2.5 h2.0
100
AcDbText
  0
TEXT
  5
41
330
17
100
AcDbEntity
  8
ANNOTATION
100
AcDbText
 10
101.5
 20
120.0
 30
0.0
 40
2.5
  1
d2.5 h2.0
100
AcDbText
  0
TEXT
  5
42
330
17
100
AcDbEntity
  8
ANNOTATION
100
AcDbText
 10
311.5
 20
11.5
 30
0.0
 40
2.5
  1
d2.5 h2.0
100
AcDbText
  0
TEXT
  5
43
330
17
100
AcDbEntity
  8
ANNOTATION
100
AcDbText
 10
311.5
 20
40.0
 30
0.0
 40
2.5
  1
d2.5 h2.0
100
AcDbText
  0
TEXT
  5
44
330
17
100
AcDbEntity
  8
ANNOTATION
100
AcDbText
 10
311.5
 20
56.0
 30
0.0
 40
2.5
  1
d2.5 h2.0
100
AcDbText
  0
TEXT
  5
45
330
17
100
AcDbEntity
  8
ANNOTATION
100
AcDbText
 10
311.5
 20
81.0
 30
0.0
 40
2.5
  1
d2.5 h2.0
100
AcDbText
  0
TEXT
  5
46
330
17
100
AcDbEntity
  8
ANNOTATION
100
AcDbText
 10
311.5
 20
104.0
 30
0.0
 40
2.5
  1
d2.5 h2.0
100
AcDbText
  0
TEXT
  5
47
330
17
100
AcDbEntity
  8
ANNOTATION
100
AcDbText
 10
311.5
 20
120.0
 30
0.0
 40
2.5
  1
d2.5 h2.0
100
AcDbText
  0
TEXT
  5
48
330
17
100
AcDbEntity
  8
ANNOTATION
100
AcDbText
 10
521.5
 20
11.5
 30
0.0
 40
2.5
  1
d2.5 h2.0
100
AcDbText
  0
TEXT
  5
49
330
17
100
AcDbEntity
  8
ANNOTATION
100
AcDbText
 10
521.5
 20
40.0
 30
0.0
 40
2.5
  1
d2.5 h2.0
100
AcDbText
  0
TEXT
  5
4A
330
17
100
AcDbEntity
  8
ANNOTATION
100
AcDbText
 10
521.5
 20
56.0
 30
0.0
 40
2.5
  1
d2.5 h2.0
100
AcDbText
  0
TEXT
  5
4B
330
17
100
AcDbEntity
  8
ANNOTATION
100
AcDbText
 10
521.5
 20
81.0
 30
0.0
 40
2.5
  1
d2.5 h2.0
100
AcDbText
  0
TEXT
  5
4C
330
17
100
AcDbEntity
  8
ANNOTATION
100
AcDbText
 10
521.5
 20
104.0
 30
0.0
 40
2.5
  1
d2.5 h2.0
100
AcDbText
  0
TEXT
  5
4D
330
17
100
AcDbEntity
  8
ANNOTATION
100
AcDbText
 10
521.5
 20
120.0
 30
0.0
 40
2.5
  1
d2.5 h2.0
100
AcDbText
  0
TEXT
  5
4E
330
17
100
AcDbEntity
  8
ANNOTATION
100
AcDbText
 10
731.5
 20
11.5
 30
0.0
 40
2.5
  1
d2.5 h2.0
100
AcDbText
  0
TEXT
  5
4F
330
17
100
AcDbEntity
  8
ANNOTATION
100
AcDbText
 10
731.5
 20
40.0
 30
0.0
 40
2.5
  1
d2.5 h2.0
100
AcDbText
  0
TEXT
  5
50
330
17
100
AcDbEntity
  8
ANNOTATION
100
AcDbText
 10
731.5
 20
56.0
 30
0.0
 40
2.5
  1
d2.5 h2.0
100
AcDbText
  0
TEXT
  5
51
330
17
100
AcDbEntity
  8
ANNOTATION
100
AcDbText
 10
731.5
 20
81.0
 30
0.0
 40
2.5
  1
d2.5 h2.0
100
AcDbText
  0
TEXT
  5
52
330
17
100
AcDbEntity
  8
ANNOTATION
100
AcDbText
 10
731.5
 20
104.0
 30
0.0
 40
2.5
  1
d2.5 h2.0
100
AcDbText
  0
TEXT
  5
53
330
17
100
AcDbEntity
  8
ANNOTATION
100
AcDbText
 10
731.5
 20
120.0
 30
0.0
 40
2.5
  1
d2.5 h2.0
100
AcDbText
  0
TEXT
  5
54
330
17
100
AcDbEntity
  8
ANNOTATION
100
AcDbText
 10
941.5
 20
11.5
 30
0.0
 40
2.5
  1
d2.5 h2.0
100
AcDbText
  0
TEXT
  5
55
330
17
100
AcDbEntity
  8
ANNOTATION
100
AcDbText
 10
941.5
 20
40.0
 30
0.0
 40
2.5
  1
d2.5 h2.0
100
AcDbText
  0
TEXT
  5
56
330
17
100
AcDbEntity
  8
ANNOTATION
100
AcDbText
 10
941.5
 20
56.0
 30
0.0
 40
2.5
  1
d2.5 h2.0
100
AcDbText
  0
TEXT
  5
57
330
17
100
AcDbEntity
  8
ANNOTATION
100
AcDbText
 10
941.5
 20
81.0
 30
0.0
 40
2.5
  1
d2.5 h2.0
100
AcDbText
  0
TEXT
  5
58
330
17
100
AcDbEntity
  8
ANNOTATION
100
AcDbText
 10
941.5
 20
104.0
 30
0.0
 40
2.5
  1
d2.5 h2.0
100
AcDbText
  0
TEXT
  5
59
330
17
100
AcDbEntity
  8
ANNOTATION
100
AcDbText
 10
941.5
 20
120.0
 30
0.0
 40
2.5
  1
d2.5 h2.0
100
AcDbText
  0
TEXT
  5
5A
330
17
100
AcDbEntity
  8
ANNOTATION
100
AcDbText
 10
1151.5
 20
11.5
 30
0.0
 40
2.5
  1
d2.5 h2.0
100
AcDbText
  0
TEXT
  5
5B
330
17
100
AcDbEntity
  8
ANNOTATION
100
AcDbText
 10
1151.5
 20
40.0
 30
0.0
 40
2.5
  1
d2.5 h2.0
100
AcDbText
  0
TEXT
  5
5C
330
17
100
AcDbEntity
  8
ANNOTATION
100
AcDbText
 10
1151.5
 20
56.0
 30
0.0
 40
2.5
  1
d2.5 h2.0
100
AcDbText
  0
TEXT
  5
5D
330
17
100
AcDbEntity
  8
ANNOTATION
100
AcDbText
 10
1151.5
 20
81.0
 30
0.0
 40
2.5
  1
d2.5 h2.0
100
AcDbText
  0
TEXT
  5
5E
330
17
100
AcDbEntity
  8
ANNOTATION
100
AcDbText
 10
1151.5
 20
104.0
 30
0.0
 40
2.5
  1
d2.5 h2.0
100
AcDbText
  0
TEXT
  5
5F
330
17
100
AcDbEntity
  8
ANNOTATION
100
AcDbText
 10
1151.5
 20
120.0
 30
0.0
 40
2.5
  1
d2.5 h2.0
100
AcDbText
  0
LWPOLYLINE
  5
60
330
17
100
AcDbEntity
  8
CUT
100
AcDbPolyline
 90
4
 70
1
 10
0.0
 20
0.0
 10
2300.0
 20
0.0
 10
2300.0
 20
230.0
 10
0.0
 20
230.0
  0
LWPOLYLINE
  5
61
330
17
100
AcDbEntity
  8
DRILL
100
AcDbPolyline
 90
16
 70
1
 10
7.5
 20
50.0
 10
7.65224
 20
50.7654
 10
8.08579
 20
51.4142
 10
8.73463
 20
51.8478
 10
9.5
 20
52.0
 10
10.2654
 20
51.8478
 10
10.9142
 20
51.4142
 10
11.3478
 20
50.7654
 10
11.5
 20
50.0
 10
11.3478
 20
49.2346
 10
10.9142
 20
48.5858
 10
10.2654
 20
48.1522
 10
9.5
 20
48.0
 10
8.73463
 20
48.1522
 10
8.08579
 20
48.5858
 10
7.65224
 20
49.2346
  0
LWPOLYLINE
  5
62
330
17
100
AcDbEntity
  8
DRILL
100
AcDbPolyline
 90
16
 70
1
 10
7.5
 20
180.0
 10
7.65224
 20
180.765
 10
8.08579
 20
181.414
 10
8.73463
 20
181.848
 10
9.5
 20
182.0
 10
10.2654
 20
181.848
 10
10.9142
 20
181.414
 10
11.3478
 20
180.765
 10
11.5
 20
180.0
 10
11.3478
 20
179.235
 10
10.9142
 20
178.586
 10
10.2654
 20
178.152
 10
9.5
 20
178.0
 10
8.73463
 20
178.152
 10
8.08579
 20
178.586
 10
7.65224
 20
179.235
  0
LWPOLYLINE
  5
63
330
17
100
AcDbEntity
  8
DRILL
100
AcDbPolyline
 90
16
 70
1
 10
100.25
 20
6.5
 10
100.345
 20
6.97835
 10
100.616
 20
7.38388
 10
101.022
 20
7.65485
 10
101.5
 20
7.75
 10
101.978
 20
7.65485
 10
102.384
 20
7.38388
 10
102.655
 20
6.97835
 10
102.75
 20
6.5
 10
102.655
 20
6.02165
 10
102.384
 20
5.61612
 10
101.978
 20
5.34515
 10
101.5
 20
5.25
 10
101.022
 20
5.34515
 10
100.616
 20
5.61612
 10
100.345
 20
6.02165
  0
LWPOLYLINE
  5
64
330
17
100
AcDbEntity
  8
DRILL
100
AcDbPolyline
 90
16
 70
1
 10
100.25
 20
35.0
 10
100.345
 20
35.4784
 10
100.616
 20
35.8839
 10
101.022
 20
36.1548
 10
101.5
 20
36.25
 10
101.978
 20
36.1548
 10
102.384
 20
35.8839
 10
102.655
 20
35.4784
 10
102.75
 20
35.0
 10
102.655
 20
34.5216
 10
102.384
 20
34.1161
 10
101.978
 20
33.8451
 10
101.5
 20
33.75
 10
101.022
 20
33.8451
 10
100.616
 20
34.1161
 10
100.345
 20
34.5216
  0
LWPOLYLINE
  5
65
330
17
100
AcDbEntity
  8
DRILL
100
AcDbPolyline
 90
16
 70
1
 10
100.25
 20
51.0
 10
100.345
 20
51.4784
 10
100.616
 20
51.8839
 10
101.022
 20
52.1548
 10
101.5
 20
52.25
 10
101.978
 20
52.1548
 10
102.384
 20
51.8839
 10
102.655
 20
51.4784
 10
102.75
 20
51.0
 10
102.655
 20
50.5216
 10
102.384
 20
50.1161
 10
101.978
 20
49.8451
 10
101.5
 20
49.75
 10
101.022
 20
49.8451
 10
100.616
 20
50.1161
 10
100.345
 20
50.5216
  0
LWPOLYLINE
  5
66
330
17
100
AcDbEntity
  8
DRILL
100
AcDbPolyline
 90
16
 70
1
 10
100.25
 20
76.0
 10
100.345
 20
76.4784
 10
100.616
 20
76.8839
 10
101.022
 20
77.1548
 10
101.5
 20
77.25
 10
101.978
 20
77.1548
 10
102.384
 20
76.8839
 10
102.655
 20
76.4784
 10
102.75
 20
76.0
 10
102.655
 20
75.5216
 10
102.384
 20
75.1161
 10
101.978
 20
74.8451
 10
101.5
 20
74.75
 10
101.022
 20
74.8451
 10
100.616
 20
75.1161
 10
100.345
 20
75.5216
  0
LWPOLYLINE
  5
67
330
17
100
AcDbEntity
  8
DRILL
100
AcDbPolyline
 90
16
 70
1
 10
100.25
 20
99.0
 10
100.345
 20
99.4784
 10
100.616
 20
99.8839
 10
101.022
 20
100.155
 10
101.5
 20
100.25
 10
101.978
 20
100.155
 10
102.384
 20
99.8839
 10
102.655
 20
99.4784
 10
102.75
 20
99.0
 10
102.655
 20
98.5216
 10
102.384
 20
98.1161
 10
101.978
 20
97.8451
 10
101.5
 20
97.75
 10
101.022
 20
97.8451
 10
100.616
 20
98.1161
 10
100.345
 20
98.5216
  0
LWPOLYLINE
  5
68
330
17
100
AcDbEntity
  8
DRILL
100
AcDbPolyline
 90
16
 70
1
 10
100.25
 20
115.0
 10
100.345
 20
115.478
 10
100.616
 20
115.884
 10
101.022
 20
116.155
 10
101.5
 20
116.25
 10
101.978
 20
116.155
 10
102.384
 20
115.884
 10
102.655
 20
115.478
 10
102.75
 20
115.0
 10
102.655
 20
114.522
 10
102.384
 20
114.116
 10
101.978
 20
113.845
 10
101.5
 20
113.75
 10
101.022
 20
113.845
 10
100.616
 20
114.116
 10
100.345
 20
114.522
  0
LWPOLYLINE
  5
69
330
17
100
AcDbEntity
  8
DRILL
100
AcDbPolyline
 90
16
 70
1
 10
310.25
 20
6.5
 10
310.345
 20
6.97835
 10
310.616
 20
7.38388
 10
311.022
 20
7.65485
 10
311.5
 20
7.75
 10
311.978
 20
7.65485
 10
312.384
 20
7.38388
 10
312.655
 20
6.97835
 10
312.75
 20
6.5
 10
312.655
 20
6.02165
 10
312.384
 20
5.61612
 10
311.978
 20
5.34515
 10
311.5
 20
5.25
 10
311.022
 20
5.34515
 10
310.616
 20
5.61612
 10
310.345
 20
6.02165
  0
LWPOLYLINE
  5
6A
330
17
100
AcDbEntity
  8
DRILL
100
AcDbPolyline
 90
16
 70
1
 10
310.25
 20
35.0
 10
310.345
 20
35.4784
 10
310.616
 20
35.8839
 10
311.022
 20
36.1548
 10
311.5
 20
36.25
 10
311.978
 20
36.1548
 10
312.384
 20
35.8839
 10
312.655
 20
35.4784
 10
312.75
 20
35.0
 10
312.655
 20
34.5216
 10
312.384
 20
34.1161
 10
311.978
 20
33.8451
 10
311.5
 20
33.75
 10
311.022
 20
33.8451
 10
310.616
 20
34.1161
 10
310.345
 20
34.5216
  0
LWPOLYLINE
  5
6B
330
17
100
AcDbEntity
  8
DRILL
100
AcDbPolyline
 90
16
 70
1
 10
310.25
 20
51.0
 10
310.345
 20
51.4784
 10
310.616
 20
51.8839
 10
311.022
 20
52.1548
 10
311.5
 20
52.25
 10
311.978
 20
52.1548
 10
312.384
 20
51.8839
 10
312.655
 20
51.4784
 10
312.75
 20
51.0
 10
312.655
 20
50.5216
 10
312.384
 20
50.1161
 10
311.978
 20
49.8451
 10
311.5
 20
49.75
 10
311.022
 20
49.8451
 10
310.616
 20
50.1161
 10
310.345
 20
50.5216
  0
LWPOLYLINE
  5
6C
330
17
100
AcDbEntity
  8
DRILL
100
AcDbPolyline
 90
16
 70
1
 10
310.25
 20
76.0
 10
310.345
 20
76.4784
 10
310.616
 20
76.8839
 10
311.022
 20
77.1548
 10
311.5
 20
77.25
 10
311.978
 20
77.1548
 10
312.384
 20
76.8839
 10
312.655
 20
76.4784
 10
312.75
 20
76.0
 10
312.655
 20
75.5216
 10
312.384
 20
75.1161
 10
311.978
 20
74.8451
 10
311.5
 20
74.75
 10
311.022
 20
74.8451
 10
310.616
 20
75.1161
 10
310.345
 20
75.5216
  0
LWPOLYLINE
  5
6D
330
17
100
AcDbEntity
  8
DRILL
100
AcDbPolyline
 90
16
 70
1
 10
310.25
 20
99.0
 10
310.345
 20
99.4784
 10
310.616
 20
99.8839
 10
311.022
 20
100.155
 10
311.5
 20
100.25
 10
311.978
 20
100.155
 10
312.384
 20
99.8839
 10
312.655
 20
99.4784
 10
312.75
 20
99.0
 10
312.655
 20
98.5216
 10
312.384
 20
98.1161
 10
311.978
 20
97.8451
 10
311.5
 20
97.75
 10
311.022
 20
97.8451
 10
310.616
 20
98.1161
 10
310.345
 20
98.5216
  0
LWPOLYLINE
  5
6E
330
17
100
AcDbEntity
  8
DRILL
100
AcDbPolyline
 90
16
 70
1
 10
310.25
 20
115.0
 10
310.345
 20
115.478
 10
310.616
 20
115.884
 10
311.022
 20
116.155
 10
311.5
 20
116.25
 10
311.978
 20
116.155
 10
312.384
 20
115.884
 10
312.655
 20
115.478
 10
312.75
 20
115.0
 10
312.655
 20
114.522
 10
312.384
 20
114.116
 10
311.978
 20
113.845
 10
311.5
 20
113.75
 10
311.022
 20
113.845
 10
310.616
 20
114.116
 10
310.345
 20
114.522
  0
LWPOLYLINE
  5
6F
330
17
100
AcDbEntity
  8
DRILL
100
AcDbPolyline
 90
16
 70
1
 10
520.25
 20
6.5
 10
520.345
 20
6.97835
 10
520.616
 20
7.38388
 10
521.022
 20
7.65485
 10
521.5
 20
7.75
 10
521.978
 20
7.65485
 10
522.384
 20
7.38388
 10
522.655
 20
6.97835
 10
522.75
 20
6.5
 10
522.655
 20
6.02165
 10
522.384
 20
5.61612
 10
521.978
 20
5.34515
 10
521.5
 20
5.25
 10
521.022
 20
5.34515
 10
520.616
 20
5.61612
 10
520.345
 20
6.02165
  0
LWPOLYLINE
  5
70
330
17
100
AcDbEntity
  8
DRILL
100
AcDbPolyline
 90
16
 70
1
 10
520.25
 20
35.0
 10
520.345
 20
35.4784
 10
520.616
 20
35.8839
 10
521.022
 20
36.1548
 10
521.5
 20
36.25
 10
521.978
 20
36.1548
 10
522.384
 20
35.8839
 10
522.655
 20
35.4784
 10
522.75
 20
35.0
 10
522.655
 20
34.5216
 10
522.384
 20
34.1161
 10
521.978
 20
33.8451
 10
521.5
 20
33.75
 10
521.022
 20
33.8451
 10
520.616
 20
34.1161
 10
520.345
 20
34.5216
  0
LWPOLYLINE
  5
71
330
17
100
AcDbEntity
  8
DRILL
100
AcDbPolyline
 90
16
 70
1
 10
520.25
 20
51.0
 10
520.345
 20
51.4784
 10
520.616
 20
51.8839
 10
521.022
 20
52.1548
 10
521.5
 20
52.25
 10
521.978
 20
52.1548
 10
522.384
 20
51.8839
 10
522.655
 20
51.4784
 10
522.75
 20
51.0
 10
522.655
 20
50.5216
 10
522.384
 20
50.1161
 10
521.978
 20
49.8451
 10
521.5
 20
49.75
 10
521.022
 20
49.8451
 10
520.616
 20
50.1161
 10
520.345
 20
50.5216
  0
LWPOLYLINE
  5
72
330
17
100
AcDbEntity
  8
DRILL
100
AcDbPolyline
 90
16
 70
1
 10
520.25
 20
76.0
 10
520.345
 20
76.4784
 10
520.616
 20
76.8839
 10
521.022
 20
77.1548
 10
521.5
 20
77.25
 10
521.978
 20
77.1548
 10
522.384
 20
76.8839
 10
522.655
 20
76.4784
 10
522.75
 20
76.0
 10
522.655
 20
75.5216
 10
522.384
 20
75.1161
 10
521.978
 20
74.8451
 10
521.5
 20
74.75
 10
521.022
 20
74.8451
 10
520.616
 20
75.1161
 10
520.345
 20
75.5216
  0
LWPOLYLINE
  5
73
330
17
100
AcDbEntity
  8
DRILL
100
AcDbPolyline
 90
16
 70
1
 10
520.25
 20
99.0
 10
520.345
 20
99.4784
 10
520.616
 20
99.8839
 10
521.022
 20
100.155
 10
521.5
 20
100.25
 10
521.978
 20
100.155
 10
522.384
 20
99.8839
 10
522.655
 20
99.4784
 10
522.75
 20
99.0
 10
522.655
 20
98.5216
 10
522.384
 20
98.1161
 10
521.978
 20
97.8451
 10
521.5
 20
97.75
 10
521.022
 20
97.8451
 10
520.616
 20
98.1161
 10
520.345
 20
98.5216
  0
LWPOLYLINE
  5
74
330
17
100
AcDbEntity
  8
DRILL
100
AcDbPolyline
 90
16
 70
1
 10
520.25
 20
115.0
 10
520.345
 20
115.478
 10
520.616
 20
115.884
 10
521.022
 20
116.155
 10
521.5
 20
116.25
 10
521.978
 20
116.155
 10
522.384
 20
115.884
 10
522.655
 20
115.478
 10
522.75
 20
115.0
 10
522.655
 20
114.522
 10
522.384
 20
114.116
 10
521.978
 20
113.845
 10
521.5
 20
113.75
 10
521.022
 20
113.845
 10
520.616
 20
114.116
 10
520.345
 20
114.522
  0
LWPOLYLINE
  5
75
330
17
100
AcDbEntity
  8
DRILL
100
AcDbPolyline
 90
16
 70
1
 10
730.25
 20
6.5
 10
730.345
 20
6.97835
 10
730.616
 20
7.38388
 10
731.022
 20
7.65485
 10
731.5
 20
7.75
 10
731.978
 20
7.65485
 10
732.384
 20
7.38388
 10
732.655
 20
6.97835
 10
732.75
 20
6.5
 10
732.655
 20
6.02165
 10
732.384
 20
5.61612
 10
731.978
 20
5.34515
 10
731.5
 20
5.25
 10
731.022
 20
5.34515
 10
730.616
 20
5.61612
 10
730.345
 20
6.02165
  0
LWPOLYLINE
  5
76
330
17
100
AcDbEntity
  8
DRILL
100
AcDbPolyline
 90
16
 70
1
 10
730.25
 20
35.0
 10
730.345
 20
35.4784
 10
730.616
 20
35.8839
 10
731.022
 20
36.1548
 10
731.5
 20
36.25
 10
731.978
 20
36.1548
 10
732.384
 20
35.8839
 10
732.655
 20
35.4784
 10
732.75
 20
35.0
 10
732.655
 20
34.5216
 10
732.384
 20
34.1161
 10
731.978
 20
33.8451
 10
731.5
 20
33.75
 10
731.022
 20
33.8451
 10
730.616
 20
34.1161
 10
730.345
 20
34.5216
  0
LWPOLYLINE
  5
77
330
17
100
AcDbEntity
  8
DRILL
100
AcDbPolyline
 90
16
 70
1
 10
730.25
 20
51.0
 10
730.345
 20
51.4784
 10
730.616
 20
51.8839
 10
731.022
 20
52.1548
 10
731.5
 20
52.25
 10
731.978
 20
52.1548
 10
732.384
 20
51.8839
 10
732.655
 20
51.4784
 10
732.75
 20
51.0
 10
732.655
 20
50.5216
 10
732.384
 20
50.1161
 10
731.978
 20
49.8451
 10
731.5
 20
49.75
 10
731.022
 20
49.8451
 10
730.616
 20
50.1161
 10
730.345
 20
50.5216
  0
LWPOLYLINE
  5
78
330
17
100
AcDbEntity
  8
DRILL
100
AcDbPolyline
 90
16
 70
1
 10
730.25
 20
76.0
 10
730.345
 20
76.4784
 10
730.616
 20
76.8839
 10
731.022
 20
77.1548
 10
731.5
 20
77.25
 10
731.978
 20
77.1548
 10
732.384
 20
76.8839
 10
732.655
 20
76.4784
 10
732.75
 20
76.0
 10
732.655
 20
75.5216
 10
732.384
 20
75.1161
 10
731.978
 20
74.8451
 10
731.5
 20
74.75
 10
731.022
 20
74.8451
 10
730.616
 20
75.1161
 10
730.345
 20
75.5216
  0
LWPOLYLINE
  5
79
330
17
100
AcDbEntity
  8
DRILL
100
AcDbPolyline
 90
16
 70
1
 10
730.25
 20
99.0
 10
730.345
 20
99.4784
 10
730.616
 20
99.8839
 10
731.022
 20
100.155
 10
731.5
 20
100.25
 10
731.978
 20
100.155
 10
732.384
 20
99.8839
 10
732.655
 20
99.4784
 10
732.75
 20
99.0
 10
732.655
 20
98.5216
 10
732.384
 20
98.1161
 10
731.978
 20
97.8451
 10
731.5
 20
97.75
 10
731.022
 20
97.8451
 10
730.616
 20
98.1161
 10
730.345
 20
98.5216
  0
LWPOLYLINE
  5
7A
330
17
100
AcDbEntity
  8
DRILL
100
AcDbPolyline
 90
16
 70
1
 10
730.25
 20
115.0
 10
730.345
 20
115.478
 10
730.616
 20
115.884
 10
731.022
 20
116.155
 10
731.5
 20
116.25
 10
731.978
 20
116.155
 10
732.384
 20
115.884
 10
732.655
 20
115.478
 10
732.75
 20
115.0
 10
732.655
 20
114.522
 10
732.384
 20
114.116
 10
731.978
 20
113.845
 10
731.5
 20
113.75
 10
731.022
 20
113.845
 10
730.616
 20
114.116
 10
730.345
 20
114.522
  0
LWPOLYLINE
  5
7B
330
17
100
AcDbEntity
  8
DRILL
100
AcDbPolyline
 90
16
 70
1
 10
940.25
 20
6.5
 10
940.345
 20
6.97835
 10
940.616
 20
7.38388
 10
941.022
 20
7.65485
 10
941.5
 20
7.75
 10
941.978
 20
7.65485
 10
942.384
 20
7.38388
 10
942.655
 20
6.97835
 10
942.75
 20
6.5
 10
942.655
 20
6.02165
 10
942.384
 20
5.61612
 10
941.978
 20
5.34515
 10
941.5
 20
5.25
 10
941.022
 20
5.34515
 10
940.616
 20
5.61612
 10
940.345
 20
6.02165
  0
LWPOLYLINE
  5
7C
330
17
100
AcDbEntity
  8
DRILL
100
AcDbPolyline
 90
16
 70
1
 10
940.25
 20
35.0
 10
940.345
 20
35.4784
 10
940.616
 20
35.8839
 10
941.022
 20
36.1548
 10
941.5
 20
36.25
 10
941.978
 20
36.1548
 10
942.384
 20
35.8839
 10
942.655
 20
35.4784
 10
942.75
 20
35.0
 10
942.655
 20
34.5216
 10
942.384
 20
34.1161
 10
941.978
 20
33.8451
 10
941.5
 20
33.75
 10
941.022
 20
33.8451
 10
940.616
 20
34.1161
 10
940.345
 20
34.5216
  0
LWPOLYLINE
  5
7D
330
17
100
AcDbEntity
  8
DRILL
100
AcDbPolyline
 90
16
 70
1
 10
940.25
 20
51.0
 10
940.345
 20
51.4784
 10
940.616
 20
51.8839
 10
941.022
 20
52.1548
 10
941.5
 20
52.25
 10
941.978
 20
52.1548
 10
942.384
 20
51.8839
 10
942.655
 20
51.4784
 10
942.75
 20
51.0
 10
942.655
 20
50.5216
 10
942.384
 20
50.1161
 10
941.978
 20
49.8451
 10
941.5
 20
49.75
 10
941.022
 20
49.8451
 10
940.616
 20
50.1161
 10
940.345
 20
50.5216
  0
LWPOLYLINE
  5
7E
330
17
100
AcDbEntity
  8
DRILL
100
AcDbPolyline
 90
16
 70
1
 10
940.25
 20
76.0
 10
940.345
 20
76.4784
 10
940.616
 20
76.8839
 10
941.022
 20
77.1548
 10
941.5
 20
77.25
 10
941.978
 20
77.1548
 10
942.384
 20
76.8839
 10
942.655
 20
76.4784
 10
942.75
 20
76.0
 10
942.655
 20
75.5216
 10
942.384
 20
75.1161
 10
941.978
 20
74.8451
 10
941.5
 20
74.75
 10
941.022
 20
74.8451
 10
940.616
 20
75.1161
 10
940.345
 20
75.5216
  0
LWPOLYLINE
  5
7F
330
17
100
AcDbEntity
  8
DRILL
100
AcDbPolyline
 90
16
 70
1
 10
940.25
 20
99.0
 10
940.345
 20
99.4784
 10
940.616
 20
99.8839
 10
941.022
 20
100.155
 10
941.5
 20
100.25
 10
941.978
 20
100.155
 10
942.384
 20
99.8839
 10
942.655
 20
99.4784
 10
942.75
 20
99.0
 10
942.655
 20
98.5216
 10
942.384
 20
98.1161
 10
941.978
 20
97.8451
 10
941.5
 20
97.75
 10
941.022
 20
97.8451
 10
940.616
 20
98.1161
 10
940.345
 20
98.5216
  0
LWPOLYLINE
  5
80
330
17
100
AcDbEntity
  8
DRILL
100
AcDbPolyline
 90
16
 70
1
 10
940.25
 20
115.0
 10
940.345
 20
115.478
 10
940.616
 20
115.884
 10
941.022
 20
116.155
 10
941.5
 20
116.25
 10
941.978
 20
116.155
 10
942.384
 20
115.884
 10
942.655
 20
115.478
 10
942.75
 20
115.0
 10
942.655
 20
114.522
 10
942.384
 20
114.116
 10
941.978
 20
113.845
 10
941.5
 20
113.75
 10
941.022
 20
113.845
 10
940.616
 20
114.116
 10
940.345
 20
114.522
  0
LWPOLYLINE
  5
81
330
17
100
AcDbEntity
  8
DRILL
100
AcDbPolyline
 90
16
 70
1
 10
1150.25
 20
6.5
 10
1150.35
 20
6.97835
 10
1150.62
 20
7.38388
 10
1151.02
 20
7.65485
 10
1151.5
 20
7.75
 10
1151.98
 20
7.65485
 10
1152.38
 20
7.38388
 10
1152.65
 20
6.97835
 10
1152.75
 20
6.5
 10
1152.65
 20
6.02165
 10
1152.38
 20
5.61612
 10
1151.98
 20
5.34515
 10
1151.5
 20
5.25
 10
1151.02
 20
5.34515
 10
1150.62
 20
5.61612
 10
1150.35
 20
6.02165
  0
LWPOLYLINE
  5
82
330
17
100
AcDbEntity
  8
DRILL
100
AcDbPolyline
 90
16
 70
1
 10
1150.25
 20
35.0
 10
1150.35
 20
35.4784
 10
1150.62
 20
35.8839
 10
1151.02
 20
36.1548
 10
1151.5
 20
36.25
 10
1151.98
 20
36.1548
 10
1152.38
 20
35.8839
 10
1152.65
 20
35.4784
 10
1152.75
 20
35.0
 10
1152.65
 20
34.5216
 10
1152.38
 20
34.1161
 10
1151.98
 20
33.8451
 10
1151.5
 20
33.75
 10
1151.02
 20
33.8451
 10
1150.62
 20
34.1161
 10
1150.35
 20
34.5216
  0
LWPOLYLINE
  5
83
330
17
100
AcDbEntity
  8
DRILL
100
AcDbPolyline
 90
16
 70
1
 10
1150.25
 20
51.0
 10
1150.35
 20
51.4784
 10
1150.62
 20
51.8839
 10
1151.02
 20
52.1548
 10
1151.5
 20
52.25
 10
1151.98
 20
52.1548
 10
1152.38
 20
51.8839
 10
1152.65
 20
51.4784
 10
1152.75
 20
51.0
 10
1152.65
 20
50.5216
 10
1152.38
 20
50.1161
 10
1151.98
 20
49.8451
 10
1151.5
 20
49.75
 10
1151.02
 20
49.8451
 10
1150.62
 20
50.1161
 10
1150.35
 20
50.5216
  0
LWPOLYLINE
  5
84
330
17
100
AcDbEntity
  8
DRILL
100
AcDbPolyline
 90
16
 70
1
 10
1150.25
 20
76.0
 10
1150.35
 20
76.4784
 10
1150.62
 20
76.8839
 10
1151.02
 20
77.1548
 10
1151.5
 20
77.25
 10
1151.98
 20
77.1548
 10
1152.38
 20
76.8839
 10
1152.65
 20
76.4784
 10
1152.75
 20
76.0
 10
1152.65
 20
75.5216
 10
1152.38
 20
75.1161
 10
1151.98
 20
74.8451
 10
1151.5
 20
74.75
 10
1151.02
 20
74.8451
 10
1150.62
 20
75.1161
 10
1150.35
 20
75.5216
  0
LWPOLYLINE
  5
85
330
17
100
AcDbEntity
  8
DRILL
100
AcDbPolyline
 90
16
 70
1
 10
1150.25
 20
99.0
 10
1150.35
 20
99.4784
 10
1150.62
 20
99.8839
 10
1151.02
 20
100.155
 10
1151.5
 20
100.25
 10
1151.98
 20
100.155
 10
1152.38
 20
99.8839
 10
1152.65
 20
99.4784
 10
1152.75
 20
99.0
 10
1152.65
 20
98.5216
 10
1152.38
 20
98.1161
 10
1151.98
 20
97.8451
 10
1151.5
 20
97.75
 10
1151.02
 20
97.8451
 10
1150.62
 20
98.1161
 10
1150.35
 20
98.5216
  0
LWPOLYLINE
  5
86
330
17
100
AcDbEntity
  8
DRILL
100
AcDbPolyline
 90
16
 70
1
 10
1150.25
 20
115.0
 10
1150.35
 20
115.478
 10
1150.62
 20
115.884
 10
1151.02
 20
116.155
 10
1151.5
 20
116.25
 10
1151.98
 20
116.155
 10
1152.38
 20
115.884
 10
1152.65
 20
115.478
 10
1152.75
 20
115.0
 10
1152.65
 20
114.522
 10
1152.38
 20
114.116
 10
1151.98
 20
113.845
 10
1151.5
 20
113.75
 10
1151.02
 20
113.845
 10
1150.62
 20
114.116
 10
1150.35
 20
114.522
  0
LWPOLYLINE
  5
87
330
17
100
AcDbEntity
  8
DRILL
100
AcDbPolyline
 90
16
 70
1
 10
1296.5
 20
50.0
 10
1296.65
 20
50.7654
 10
1297.09
 20
51.4142
 10
1297.73
 20
51.8478
 10
1298.5
 20
52.0
 10
1299.27
 20
51.8478
 10
1299.91
 20
51.4142
 10
1300.35
 20
50.7654
 10
1300.5
 20
50.0
 10
1300.35
 20
49.2346
 10
1299.91
 20
48.5858
 10
1299.27
 20
48.1522
 10
1298.5
 20
48.0
 10
1297.73
 20
48.1522
 10
1297.09
 20
48.5858
 10
1296.65
 20
49.2346
  0
LWPOLYLINE
  5
88
330
17
100
AcDbEntity
  8
DRILL
100
AcDbPolyline
 90
16
 70
1
 10
1296.5
 20
180.0
 10
1296.65
 20
180.765
 10
1297.09
 20
181.414
 10
1297.73
 20
181.848
 10
1298.5
 20
182.0
 10
1299.27
 20
181.848
 10
1299.91
 20
181.414
 10
1300.35
 20
180.765
 10
1300.5
 20
180.0
 10
1300.35
 20
179.235
 10
1299.91
 20
178.586
 10
1299.27
 20
178.152
 10
1298.5
 20
178.0
 10
1297.73
 20
178.152
 10
1297.09
 20
178.586
 10
1296.65
 20
179.235
  0
LWPOLYLINE
  5
89
330
17
100
AcDbEntity
  8
DRILL
100
AcDbPolyline
 90
16
 70
1
 10
1627.17
 20
50.0
 10
1627.32
 20
50.7654
 10
1627.75
 20
51.4142
 10
1628.4
 20
51.8478
 10
1629.17
 20
52.0
 10
1629.93
 20
51.8478
 10
1630.58
 20
51.4142
 10
1631.01
 20
50.7654
 10
1631.17
 20
50.0
 10
1631.01
 20
49.2346
 10
1630.58
 20
48.5858
 10
1629.93
 20
48.1522
 10
1629.17
 20
48.0
 10
1628.4
 20
48.1522
 10
1627.75
 20
48.5858
 10
1627.32
 20
49.2346
  0
LWPOLYLINE
  5
8A
330
17
100
AcDbEntity
  8
DRILL
100
AcDbPolyline
 90
16
 70
1
 10
1627.17
 20
180.0
 10
1627.32
 20
180.765
 10
1627.75
 20
181.414
 10
1628.4
 20
181.848
 10
1629.17
 20
182.0
 10
1629.93
 20
181.848
 10
1630.58
 20
181.414
 10
1631.01
 20
180.765
 10
1631.17
 20
180.0
 10
1631.01
 20
179.235
 10
1630.58
 20
178.586
 10
1629.93
 20
178.152
 10
1629.17
 20
178.0
 10
1628.4
 20
178.152
 10
1627.75
 20
178.586
 10
1627.32
 20
179.235
  0
LWPOLYLINE
  5
8B
330
17
100
AcDbEntity
  8
DRILL
100
AcDbPolyline
 90
16
 70
1
 10
1957.83
 20
50.0
 10
1957.99
 20
50.7654
 10
1958.42
 20
51.4142
 10
1959.07
 20
51.8478
 10
1959.83
 20
52.0
 10
1960.6
 20
51.8478
 10
1961.25
 20
51.4142
 10
1961.68
 20
50.7654
 10
1961.83
 20
50.0
 10
1961.68
 20
49.2346
 10
1961.25
 20
48.5858
 10
1960.6
 20
48.1522
 10
1959.83
 20
48.0
 10
1959.07
 20
48.1522
 10
1958.42
 20
48.5858
 10
1957.99
 20
49.2346
  0
LWPOLYLINE
  5
8C
330
17
100
AcDbEntity
  8
DRILL
100
AcDbPolyline
 90
16
 70
1
 10
1957.83
 20
180.0
 10
1957.99
 20
180.765
 10
1958.42
 20
181.414
 10
1959.07
 20
181.848
 10
1959.83
 20
182.0
 10
1960.6
 20
181.848
 10
1961.25
 20
181.414
 10
1961.68
 20
180.765
 10
1961.83
 20
180.0
 10
1961.68
 20
179.235
 10
1961.25
 20
178.586
 10
1960.6
 20
178.152
 10
1959.83
 20
178.0
 10
1959.07
 20
178.152
 10
1958.42
 20
178.586
 10
1957.99
 20
179.235
  0
LWPOLYLINE
  5
8D
330
17
100
AcDbEntity
  8
DRILL
100
AcDbPolyline
 90
16
 70
1
 10
2288.5
 20
50.0
 10
2288.65
 20
50.7654
 10
2289.09
 20
51.4142
 10
2289.73
 20
51.8478
 10
2290.5
 20
52.0
 10
2291.27
 20
51.8478
 10
2291.91
 20
51.4142
 10
2292.35
 20
50.7654
 10
2292.5
 20
50.0
 10
2292.35
 20
49.2346
 10
2291.91
 20
48.5858
 10
2291.27
 20
48.1522
 10
2290.5
 20
48.0
 10
2289.73
 20
48.1522
 10
2289.09
 20
48.5858
 10
2288.65
 20
49.2346
  0
LWPOLYLINE
  5
8E
330
17
100
AcDbEntity
  8
DRILL
100
AcDbPolyline
 90
16
 70
1
 10
2288.5
 20
180.0
 10
2288.65
 20
180.765
 10
2289.09
 20
181.414
 10
2289.73
 20
181.848
 10
2290.5
 20
182.0
 10
2291.27
 20
181.848
 10
2291.91
 20
181.414
 10
2292.35
 20
180.765
 10
2292.5
 20
180.0
 10
2292.35
 20
179.235
 10
2291.91
 20
178.586
 10
2291.27
 20
178.152
 10
2290.5
 20
178.0
 10
2289.73
 20
178.152
 10
2289.09
 20
178.586
 10
2288.65
 20
179.235
  0
TEXT
  5
8F
330
17
100
AcDbEntity
  8
ANNOTATION
100
AcDbText
 10
2320.0
 20
230.0
 30
0.0
 40
3.75
  1
Hole Schedule
100
AcDbText
  0
TEXT
  5
90
330
17
100
AcDbEntity
  8
ANNOTATION
100
AcDbText
 10
2320.0
 20
222.5
 30
0.0
 40
2.5
  1
Hole Name
100
AcDbText
  0
TEXT
  5
91
330
17
100
AcDbEntity
  8
ANNOTATION
100
AcDbText
 10
2360.0
 20
222.5
 30
0.0
 40
2.5
  1
X
100
AcDbText
  0
TEXT
  5
92
330
17
100
AcDbEntity
  8
ANNOTATION
100
AcDbText
 10
2380.0
 20
222.5
 30
0.0
 40
2.5
  1
Y
100
AcDbText
  0
TEXT
  5
93
330
17
100
AcDbEntity
  8
ANNOTATION
100
AcDbText
 10
2400.0
 20
222.5
 30
0.0
 40
2.5
  1
Z
100
AcDbText
  0
TEXT
  5
94
330
17
100
AcDbEntity
  8
ANNOTATION
100
AcDbText
 10
2420.0
 20
222.5
 30
0.0
 40
2.5
  1
Dia
100
AcDbText
  0
TEXT
  5
95
330
17
100
AcDbEntity
  8
ANNOTATION
100
AcDbText
 10
2440.0
 20
222.5
 30
0.0
 40
2.5
  1
Depth
100
AcDbText
  0
LINE
  5
96
330
17
100
AcDbEntity
  8
ANNOTATION
100
AcDbLine
 10
2320.0
 20
221.25
 30
0.0
 11
2460.0
 21
221.25
 31
0.0
  0
TEXT
  5
97
330
17
100
AcDbEntity
  8
ANNOTATION
100
AcDbText
 10
2320.0
 20
218.75
 30
0.0
 40
2.5
  1
confirmat_bottom_1
100
AcDbText
  0
TEXT
  5
98
330
17
100
AcDbEntity
  8
ANNOTATION
100
AcDbText
 10
2360.0
 20
218.75
 30
0.0
 40
2.5
  1
9.5
100
AcDbText
  0
TEXT
  5
99
330
17
100
AcDbEntity
  8
ANNOTATION
100
AcDbText
 10
2380.0
 20
218.75
 30
0.0
 40
2.5
  1
50.0
100
AcDbText
  0
TEXT
  5
9A
330
17
100
AcDbEntity
  8
ANNOTATION
100
AcDbText
 10
2400.0
 20
218.75
 30
0.0
 40
2.5
  1
0.0
100
AcDbText
  0
TEXT
  5
9B
330
17
100
AcDbEntity
  8
ANNOTATION
100
AcDbText
 10
2420.0
 20
218.75
 30
0.0
 40
2.5
  1
4.0
100
AcDbText
  0
TEXT
  5
9C
330
17
100
AcDbEntity
  8
ANNOTATION
100
AcDbText
 10
2440.0
 20
218.75
 30
0.0
 40
2.5
  1
19.0
100
AcDbText
  0
TEXT
  5
9D
330
17
100
AcDbEntity
  8
ANNOTATION
100
AcDbText
 10
2320.0
 20
215.0
 30
0.0
 40
2.5
  1
confirmat_bottom_2
100
AcDbText
  0
TEXT
  5
9E
330
17
100
AcDbEntity
  8
ANNOTATION
100
AcDbText
 10
2360.0
 20
215.0
 30
0.0
 40
2.5
  1
9.5
100
AcDbText
  0
TEXT
  5
9F
330
17
100
AcDbEntity
  8
ANNOTATION
100
AcDbText
 10
2380.0
 20
215.0
 30
0.0
 40
2.5
  1
180.0
100
AcDbText
  0
TEXT
  5
A0
330
17
100
AcDbEntity
  8
ANNOTATION
100
AcDbText
 10
2400.0
 20
215.0
 30
0.0
 40
2.5
  1
0.0
100
AcDbText
  0
TEXT
  5
A1
330
17
100
AcDbEntity
  8
ANNOTATION
100
AcDbText
 10
2420.0
 20
215.0
 30
0.0
 40
2.5
  1
4.0
100
AcDbText
  0
TEXT
  5
A2
330
17
100
AcDbEntity
  8
ANNOTATION
100
AcDbText
 10
2440.0
 20
215.0
 30
0.0
 40
2.5
  1
19.0
100
AcDbText
  0
TEXT
  5
A3
330
17
100
AcDbEntity
  8
ANNOTATION
100
AcDbText
 10
2320.0
 20
211.25
 30
0.0
 40
2.5
  1
confirmat_top_1
100
AcDbText
  0
TEXT
  5
A4
330
17
100
AcDbEntity
  8
ANNOTATION
100
AcDbText
 10
2360.0
 20
211.25
 30
0.0
 40
2.5
  1
2290.5
100
AcDbText
  0
TEXT
  5
A5
330
17
100
AcDbEntity
  8
ANNOTATION
100
AcDbText
 10
2380.0
 20
211.25
 30
0.0
 40
2.5
  1
50.0
100
AcDbText
  0
TEXT
  5
A6
330
17
100
AcDbEntity
  8
ANNOTATION
100
AcDbText
 10
2400.0
 20
211.25
 30
0.0
 40
2.5
  1
0.0
100
AcDbText
  0
TEXT
  5
A7
330
17
100
AcDbEntity
  8
ANNOTATION
100
AcDbText
 10
2420.0
 20
211.25
 30
0.0
 40
2.5
  1
4.0
100
AcDbText
  0
TEXT
  5
A8
330
17
100
AcDbEntity
  8
ANNOTATION
100
AcDbText
 10
2440.0
 20
211.25
 30
0.0
 40
2.5
  1
19.0
100
AcDbText
  0
TEXT
  5
A9
330
17
100
AcDbEntity
  8
ANNOTATION
100
AcDbText
 10
2320.0
 20
207.5
 30
0.0
 40
2.5
  1
confirmat_top_2
100
AcDbText
  0
TEXT
  5
AA
330
17
100
AcDbEntity
  8
ANNOTATION
100
AcDbText
 10
2360.0
 20
207.5
 30
0.0
 40
2.5
  1
2290.5
100
AcDbText
  0
TEXT
  5
AB
330
17
100
AcDbEntity
  8
ANNOTATION
100
AcDbText
 10
2380.0
 20
207.5
 30
0.0
 40
2.5
  1
180.0
100
AcDbText
  0
TEXT
  5
AC
330
17
100
AcDbEntity
  8
ANNOTATION
100
AcDbText
 10
2400.0
 20
207.5
 30
0.0
 40
2.5
  1
0.0
100
AcDbText
  0
TEXT
  5
AD
330
17
100
AcDbEntity
  8
ANNOTATION
100
AcDbText
 10
2420.0
 20
207.5
 30
0.0
 40
2.5
  1
4.0
100
AcDbText
  0
TEXT
  5
AE
330
17
100
AcDbEntity
  8
ANNOTATION
100
AcDbText
 10
2440.0
 20
207.5
 30
0.0
 40
2.5
  1
19.0
100
AcDbText
  0
TEXT
  5
AF
330
17
100
AcDbEntity
  8
ANNOTATION
100
AcDbText
 10
2320.0
 20
203.75
 30
0.0
 40
2.5
  1
confirmat_middle_1
100
AcDbText
  0
TEXT
  5
B0
330
17
100
AcDbEntity
  8
ANNOTATION
100
AcDbText
 10
2360.0
 20
203.75
 30
0.0
 40
2.5
  1
1298.5
100
AcDbText
  0
TEXT
  5
B1
330
17
100
AcDbEntity
  8
ANNOTATION
100
AcDbText
 10
2380.0
 20
203.75
 30
0.0
 40
2.5
  1
50.0
100
AcDbText
  0
TEXT
  5
B2
330
17
100
AcDbEntity
  8
ANNOTATION
100
AcDbText
 10
2400.0
 20
203.75
 30
0.0
 40
2.5
  1
0.0
100
AcDbText
  0
TEXT
  5
B3
330
17
100
AcDbEntity
  8
ANNOTATION
100
AcDbText
 10
2420.0
 20
203.75
 30
0.0
 40
2.5
  1
4.0
100
AcDbText
  0
TEXT
  5
B4
330
17
100
AcDbEntity
  8
ANNOTATION
100
AcDbText
 10
2440.0
 20
203.75
 30
0.0
 40
2.5
  1
19.0
100
AcDbText
  0
TEXT
  5
B5
330
17
100
AcDbEntity
  8
ANNOTATION
100
AcDbText
 10
2320.0
 20
200.0
 30
0.0
 40
2.5
  1
confirmat_middle_2
100
AcDbText
  0
TEXT
  5
B6
330
17
100
AcDbEntity
  8
ANNOTATION
100
AcDbText
 10
2360.0
 20
200.0
 30
0.0
 40
2.5
  1
1298.5
100
AcDbText
  0
TEXT
  5
B7
330
17
100
AcDbEntity
  8
ANNOTATION
100
AcDbText
 10
2380.0
 20
200.0
 30
0.0
 40
2.5
  1
180.0
100
AcDbText
  0
TEXT
  5
B8
330
17
100
AcDbEntity
  8
ANNOTATION
100
AcDbText
 10
2400.0
 20
200.0
 30
0.0
 40
2.5
  1
0.0
100
AcDbText
  0
TEXT
  5
B9
330
17
100
AcDbEntity
  8
ANNOTATION
100
AcDbText
 10
2420.0
 20
200.0
 30
0.0
 40
2.5
  1
4.0
100
AcDbText
  0
TEXT
  5
BA
330
17
100
AcDbEntity
  8
ANNOTATION
100
AcDbText
 10
2440.0
 20
200.0
 30
0.0
 40
2.5
  1
19.0
100
AcDbText
  0
TEXT
  5
BB
330
17
100
AcDbEntity
  8
ANNOTATION
100
AcDbText
 10
2320.0
 20
196.25
 30
0.0
 40
2.5
  1
confirmat_shelf_0_1
100
AcDbText
  0
TEXT
  5
BC
330
17
100
AcDbEntity
  8
ANNOTATION
100
AcDbText
 10
2360.0
 20
196.25
 30
0.0
 40
2.5
  1
1629.17
100
AcDbText
  0
TEXT
  5
BD
330
17
100
AcDbEntity
  8
ANNOTATION
100
AcDbText
 10
2380.0
 20
196.25
 30
0.0
 40
2.5
  1
50.0
100
AcDbText
  0
TEXT
  5
BE
330
17
100
AcDbEntity
  8
ANNOTATION
100
AcDbText
 10
2400.0
 20
196.25
 30
0.0
 40
2.5
  1
0.0
100
AcDbText
  0
TEXT
  5
BF
330
17
100
AcDbEntity
  8
ANNOTATION
100
AcDbText
 10
2420.0
 20
196.25
 30
0.0
 40
2.5
  1
4.0
100
AcDbText
  0
TEXT
  5
C0
330
17
100
AcDbEntity
  8
ANNOTATION
100
AcDbText
 10
2440.0
 20
196.25
 30
0.0
 40
2.5
  1
19.0
100
AcDbText
  0
TEXT
  5
C1
330
17
100
AcDbEntity
  8
ANNOTATION
100
AcDbText
 10
2320.0
 20
192.5
 30
0.0
 40
2.5
  1
confirmat_shelf_0_2
100
AcDbText
  0
TEXT
  5
C2
330
17
100
AcDbEntity
  8
ANNOTATION
100
AcDbText
 10
2360.0
 20
192.5
 30
0.0
 40
2.5
  1
1629.17
100
AcDbText
  0
TEXT
  5
C3
330
17
100
AcDbEntity
  8
ANNOTATION
100
AcDbText
 10
2380.0
 20
192.5
 30
0.0
 40
2.5
  1
180.0
100
AcDbText
  0
TEXT
  5
C4
330
17
100
AcDbEntity
  8
ANNOTATION
100
AcDbText
 10
2400.0
 20
192.5
 30
0.0
 40
2.5
  1
0.0
100
AcDbText
  0
TEXT
  5
C5
330
17
100
AcDbEntity
  8
ANNOTATION
100
AcDbText
 10
2420.0
 20
192.5
 30
0.0
 40
2.5
  1
4.0
100
AcDbText
  0
TEXT
  5
C6
330
17
100
AcDbEntity
  8
ANNOTATION
100
AcDbText
 10
2440.0
 20
192.5
 30
0.0
 40
2.5
  1
19.0
100
AcDbText
  0
TEXT
  5
C7
330
17
100
AcDbEntity
  8
ANNOTATION
100
AcDbText
 10
2320.0
 20
188.75
 30
0.0
 40
2.5
  1
confirmat_shelf_1_1
100
AcDbText
  0
TEXT
  5
C8
330
17
100
AcDbEntity
  8
ANNOTATION
100
AcDbText
 10
2360.0
 20
188.75
 30
0.0
 40
2.5
  1
1959.83
100
AcDbText
  0
TEXT
  5
C9
330
17
100
AcDbEntity
  8
ANNOTATION
100
AcDbText
 10
2380.0
 20
188.75
 30
0.0
 40
2.5
  1
50.0
100
AcDbText
  0
TEXT
  5
CA
330
17
100
AcDbEntity
  8
ANNOTATION
100
AcDbText
 10
2400.0
 20
188.75
 30
0.0
 40
2.5
  1
0.0
100
AcDbText
  0
TEXT
  5
CB
330
17
100
AcDbEntity
  8
ANNOTATION
100
AcDbText
 10
2420.0
 20
188.75
 30
0.0
 40
2.5
  1
4.0
100
AcDbText
  0
TEXT
  5
CC
330
17
100
AcDbEntity
  8
ANNOTATION
100
AcDbText
 10
2440.0
 20
188.75
 30
0.0
 40
2.5
  1
19.0
100
AcDbText
  0
TEXT
  5
CD
330
17
100
AcDbEntity
  8
ANNOTATION
100
AcDbText
 10
2320.0
 20
185.0
 30
0.0
 40
2.5
  1
confirmat_shelf_1_2
100
AcDbText
  0
TEXT
  5
CE
330
17
100
AcDbEntity
  8
ANNOTATION
100
AcDbText
 10
2360.0
 20
185.0
 30
0.0
 40
2.5
  1
1959.83
100
AcDbText
  0
TEXT
  5
CF
330
17
100
AcDbEntity
  8
ANNOTATION
100
AcDbText
 10
2380.0
 20
185.0
 30
0.0
 40
2.5
  1
180.0
100
AcDbText
  0
TEXT
  5
D0
330
17
100
AcDbEntity
  8
ANNOTATION
100
AcDbText
 10
2400.0
 20
185.0
 30
0.0
 40
2.5
  1
0.0
100
AcDbText
  0
TEXT
  5
D1
330
17
100
AcDbEntity
  8
ANNOTATION
100
AcDbText
 10
2420.0
 20
185.0
 30
0.0
 40
2.5
  1
4.0
100
AcDbText
  0
TEXT
  5
D2
330
17
100
AcDbEntity
  8
ANNOTATION
100
AcDbText
 10
2440.0
 20
185.0
 30
0.0
 40
2.5
  1
19.0
100
AcDbText
  0
TEXT
  5
D3
330
17
100
AcDbEntity
  8
ANNOTATION
100
AcDbText
 10
2320.0
 20
181.25
 30
0.0
 40
2.5
  1
slide_pilot_0_0
100
AcDbText
  0
TEXT
  5
D4
330
17
100
AcDbEntity
  8
ANNOTATION
100
AcDbText
 10
2360.0
 20
181.25
 30
0.0
 40
2.5
  1
101.5
100
AcDbText
  0
TEXT
  5
D5
330
17
100
AcDbEntity
  8
ANNOTATION
100
AcDbText
 10
2380.0
 20
181.25
 30
0.0
 40
2.5
  1
6.5
100
AcDbText
  0
TEXT
  5
D6
330
17
100
AcDbEntity
  8
ANNOTATION
100
AcDbText
 10
2400.0
 20
181.25
 30
0.0
 40
2.5
  1
0.0
100
AcDbText
  0
TEXT
  5
D7
330
17
100
AcDbEntity
  8
ANNOTATION
100
AcDbText
 10
2420.0
 20
181.25
 30
0.0
 40
2.5
  1
2.5
100
AcDbText
  0
TEXT
  5
D8
330
17
100
AcDbEntity
  8
ANNOTATION
100
AcDbText
 10
2440.0
 20
181.25
 30
0.0
 40
2.5
  1
2.0
100
AcDbText
  0
TEXT
  5
D9
330
17
100
AcDbEntity
  8
ANNOTATION
100
AcDbText
 10
2320.0
 20
177.5
 30
0.0
 40
2.5
  1
slide_pilot_0_1
100
AcDbText
  0
TEXT
  5
DA
330
17
100
AcDbEntity
  8
ANNOTATION
100
AcDbText
 10
2360.0
 20
177.5
 30
0.0
 40
2.5
  1
101.5
100
AcDbText
  0
TEXT
  5
DB
330
17
100
AcDbEntity
  8
ANNOTATION
100
AcDbText
 10
2380.0
 20
177.5
 30
0.0
 40
2.5
  1
35.0
100
AcDbText
  0
TEXT
  5
DC
330
17
100
AcDbEntity
  8
ANNOTATION
100
AcDbText
 10
2400.0
 20
177.5
 30
0.0
 40
2.5
  1
0.0
100
AcDbText
  0
TEXT
  5
DD
330
17
100
AcDbEntity
  8
ANNOTATION
100
AcDbText
 10
2420.0
 20
177.5
 30
0.0
 40
2.5
  1
2.5
100
AcDbText
  0
TEXT
  5
DE
330
17
100
AcDbEntity
  8
ANNOTATION
100
AcDbText
 10
2440.0
 20
177.5
 30
0.0
 40
2.5
  1
2.0
100
AcDbText
  0
TEXT
  5
DF
330
17
100
AcDbEntity
  8
ANNOTATION
100
AcDbText
 10
2320.0
 20
173.75
 30
0.0
 40
2.5
  1
slide_pilot_0_2
100
AcDbText
  0
TEXT
  5
E0
330
17
100
AcDbEntity
  8
ANNOTATION
100
AcDbText
 10
2360.0
 20
173.75
 30
0.0
 40
2.5
  1
101.5
100
AcDbText
  0
TEXT
  5
E1
330
17
100
AcDbEntity
  8
ANNOTATION
100
AcDbText
 10
2380.0
 20
173.75
 30
0.0
 40
2.5
  1
51.0
100
AcDbText
  0
TEXT
  5
E2
330
17
100
AcDbEntity
  8
ANNOTATION
100
AcDbText
 10
2400.0
 20
173.75
 30
0.0
 40
2.5
  1
0.0
100
AcDbText
  0
TEXT
  5
E3
330
17
100
AcDbEntity
  8
ANNOTATION
100
AcDbText
 10
2420.0
 20
173.75
 30
0.0
 40
2.5
  1
2.5
100
AcDbText
  0
TEXT
  5
E4
330
17
100
AcDbEntity
  8
ANNOTATION
100
AcDbText
 10
2440.0
 20
173.75
 30
0.0
 40
2.5
  1
2.0
100
AcDbText
  0
TEXT
  5
E5
330
17
100
AcDbEntity
  8
ANNOTATION
100
AcDbText
 10
2320.0
 20
170.0
 30
0.0
 40
2.5
  1
slide_pilot_0_3
100
AcDbText
  0
TEXT
  5
E6
330
17
100
AcDbEntity
  8
ANNOTATION
100
AcDbText
 10
2360.0
 20
170.0
 30
0.0
 40
2.5
  1
101.5
100
AcDbText
  0
TEXT
  5
E7
330
17
100
AcDbEntity
  8
ANNOTATION
100
AcDbText
 10
2380.0
 20
170.0
 30
0.0
 40
2.5
  1
76.0
100
AcDbText
  0
TEXT
  5
E8
330
17
100
AcDbEntity
  8
ANNOTATION
100
AcDbText
 10
2400.0
 20
170.0
 30
0.0
 40
2.5
  1
0.0
100
AcDbText
  0
TEXT
  5
E9
330
17
100
AcDbEntity
  8
ANNOTATION
100
AcDbText
 10
2420.0
 20
170.0
 30
0.0
 40
2.5
  1
2.5
100
AcDbText
  0
TEXT
  5
EA
330
17
100
AcDbEntity
  8
ANNOTATION
100
AcDbText
 10
2440.0
 20
170.0
 30
0.0
 40
2.5
  1
2.0
100
AcDbText
  0
TEXT
  5
EB
330
17
100
AcDbEntity
  8
ANNOTATION
100
AcDbText
 10
2320.0
 20
166.25
 30
0.0
 40
2.5
  1
slide_pilot_0_4
100
AcDbText
  0
TEXT
  5
EC
330
17
100
AcDbEntity
  8
ANNOTATION
100
AcDbText
 10
2360.0
 20
166.25
 30
0.0
 40
2.5
  1
101.5
100
AcDbText
  0
TEXT
  5
ED
330
17
100
AcDbEntity
  8
ANNOTATION
100
AcDbText
 10
2380.0
 20
166.25
 30
0.0
 40
2.5
  1
99.0
100
AcDbText
  0
TEXT
  5
EE
330
17
100
AcDbEntity
  8
ANNOTATION
100
AcDbText
 10
2400.0
 20
166.25
 30
0.0
 40
2.5
  1
0.0
100
AcDbText
  0
TEXT
  5
EF
330
17
100
AcDbEntity
  8
ANNOTATION
100
AcDbText
 10
2420.0
 20
166.25
 30
0.0
 40
2.5
  1
2.5
100
AcDbText
  0
TEXT
  5
F0
330
17
100
AcDbEntity
  8
ANNOTATION
100
AcDbText
 10
2440.0
 20
166.25
 30
0.0
 40
2.5
  1
2.0
100
AcDbText
  0
TEXT
  5
F1
330
17
100
AcDbEntity
  8
ANNOTATION
100
AcDbText
 10
2320.0
 20
162.5
 30
0.0
 40
2.5
  1
slide_pilot_0_5
100
AcDbText
  0
TEXT
  5
F2
330
17
100
AcDbEntity
  8
ANNOTATION
100
AcDbText
 10
2360.0
 20
162.5
 30
0.0
 40
2.5
  1
101.5
100
AcDbText
  0
TEXT
  5
F3
330
17
100
AcDbEntity
  8
ANNOTATION
100
AcDbText
 10
2380.0
 20
162.5
 30
0.0
 40
2.5
  1
115.0
100
AcDbText
  0
TEXT
  5
F4
330
17
100
AcDbEntity
  8
ANNOTATION
100
AcDbText
 10
2400.0
 20
162.5
 30
0.0
 40
2.5
  1
0.0
100
AcDbText
  0
TEXT
  5
F5
330
17
100
AcDbEntity
  8
ANNOTATION
100
AcDbText
 10
2420.0
 20
162.5
 30
0.0
 40
2.5
  1
2.5
100
AcDbText
  0
TEXT
  5
F6
330
17
100
AcDbEntity
  8
ANNOTATION
100
AcDbText
 10
2440.0
 20
162.5
 30
0.0
 40
2.5
  1
2.0
100
AcDbText
  0
TEXT
  5
F7
330
17
100
AcDbEntity
  8
ANNOTATION
100
AcDbText
 10
2320.0
 20
158.75
 30
0.0
 40
2.5
  1
slide_pilot_1_0
100
AcDbText
  0
TEXT
  5
F8
330
17
100
AcDbEntity
  8
ANNOTATION
100
AcDbText
 10
2360.0
 20
158.75
 30
0.0
 40
2.5
  1
311.5
100
AcDbText
  0
TEXT
  5
F9
330
17
100
AcDbEntity
  8
ANNOTATION
100
AcDbText
 10
2380.0
 20
158.75
 30
0.0
 40
2.5
  1
6.5
100
AcDbText
  0
TEXT
  5
FA
330
17
100
AcDbEntity
  8
ANNOTATION
100
AcDbText
 10
2400.0
 20
158.75
 30
0.0
 40
2.5
  1
0.0
100
AcDbText
  0
TEXT
  5
FB
330
17
100
AcDbEntity
  8
ANNOTATION
100
AcDbText
 10
2420.0
 20
158.75
 30
0.0
 40
2.5
  1
2.5
100
AcDbText
  0
TEXT
  5
FC
330
17
100
AcDbEntity
  8
ANNOTATION
100
AcDbText
 10
2440.0
 20
158.75
 30
0.0
 40
2.5
  1
2.0
100
AcDbText
  0
TEXT
  5
FD
330
17
100
AcDbEntity
  8
ANNOTATION
100
AcDbText
 10
2320.0
 20
155.0
 30
0.0
 40
2.5
  1
slide_pilot_1_1
100
AcDbText
  0
TEXT
  5
FE
330
17
100
AcDbEntity
  8
ANNOTATION
100
AcDbText
 10
2360.0
 20
155.0
 30
0.0
 40
2.5
  1
311.5
100
AcDbText
  0
TEXT
  5
FF
330
17
100
AcDbEntity
  8
ANNOTATION
100
AcDbText
 10
2380.0
 20
155.0
 30
0.0
 40
2.5
  1
35.0
100
AcDbText
  0
TEXT
  5
100
330
17
100
AcDbEntity
  8
ANNOTATION
100
AcDbText
 10
2400.0
 20
155.0
 30
0.0
 40
2.5
  1
0.0
100
AcDbText
  0
TEXT
  5
101
330
17
100
AcDbEntity
  8
ANNOTATION
100
AcDbText
 10
2420.0
 20
155.0
 30
0.0
 40
2.5
  1
2.5
100
AcDbText
  0
TEXT
  5
102
330
17
100
AcDbEntity
  8
ANNOTATION
100
AcDbText
 10
2440.0
 20
155.0
 30
0.0
 40
2.5
  1
2.0
100
AcDbText
  0
TEXT
  5
103
330
17
100
AcDbEntity
  8
ANNOTATION
100
AcDbText
 10
2320.0
 20
151.25
 30
0.0
 40
2.5
  1
slide_pilot_1_2
100
AcDbText
  0
TEXT
  5
104
330
17
100
AcDbEntity
  8
ANNOTATION
100
AcDbText
 10
2360.0
 20
151.25
 30
0.0
 40
2.5
  1
311.5
100
AcDbText
  0
TEXT
  5
105
330
17
100
AcDbEntity
  8
ANNOTATION
100
AcDbText
 10
2380.0
 20
151.25
 30
0.0
 40
2.5
  1
51.0
100
AcDbText
  0
TEXT
  5
106
330
17
100
AcDbEntity
  8
ANNOTATION
100
AcDbText
 10
2400.0
 20
151.25
 30
0.0
 40
2.5
  1
0.0
100
AcDbText
  0
TEXT
  5
107
330
17
100
AcDbEntity
  8
ANNOTATION
100
AcDbText
 10
2420.0
 20
151.25
 30
0.0
 40
2.5
  1
2.5
100
AcDbText
  0
TEXT
  5
108
330
17
100
AcDbEntity
  8
ANNOTATION
100
AcDbText
 10
2440.0
 20
151.25
 30
0.0
 40
2.5
  1
2.0
100
AcDbText
  0
TEXT
  5
109
330
17
100
AcDbEntity
  8
ANNOTATION
100
AcDbText
 10
2320.0
 20
147.5
 30
0.0
 40
2.5
  1
slide_pilot_1_3
100
AcDbText
  0
TEXT
  5
10A
330
17
100
AcDbEntity
  8
ANNOTATION
100
AcDbText
 10
2360.0
 20
147.5
 30
0.0
 40
2.5
  1
311.5
100
AcDbText
  0
TEXT
  5
10B
330
17
100
AcDbEntity
  8
ANNOTATION
100
AcDbText
 10
2380.0
 20
147.5
 30
0.0
 40
2.5
  1
76.0
100
AcDbText
  0
TEXT
  5
10C
330
17
100
AcDbEntity
  8
ANNOTATION
100
AcDbText
 10
2400.0
 20
147.5
 30
0.0
 40
2.5
  1
0.0
100
AcDbText
  0
TEXT
  5
10D
330
17
100
AcDbEntity
  8
ANNOTATION
100
AcDbText
 10
2420.0
 20
147.5
 30
0.0
 40
2.5
  1
2.5
100
AcDbText
  0
TEXT
  5
10E
330
17
100
AcDbEntity
  8
ANNOTATION
100
AcDbText
 10
2440.0
 20
147.5
 30
0.0
 40
2.5
  1
2.0
100
AcDbText
  0
TEXT
  5
10F
330
17
100
AcDbEntity
  8
ANNOTATION
100
AcDbText
 10
2320.0
 20
143.75
 30
0.0
 40
2.5
  1
slide_pilot_1_4
100
AcDbText
  0
TEXT
  5
110
330
17
100
AcDbEntity
  8
ANNOTATION
100
AcDbText
 10
2360.0
 20
143.75
 30
0.0
 40
2.5
  1
311.5
100
AcDbText
  0
TEXT
  5
111
330
17
100
AcDbEntity
  8
ANNOTATION
100
AcDbText
 10
2380.0
 20
143.75
 30
0.0
 40
2.5
  1
99.0
100
AcDbText
  0
TEXT
  5
112
330
17
100
AcDbEntity
  8
ANNOTATION
100
AcDbText
 10
2400.0
 20
143.75
 30
0.0
 40
2.5
  1
0.0
100
AcDbText
  0
TEXT
  5
113
330
17
100
AcDbEntity
  8
ANNOTATION
100
AcDbText
 10
2420.0
 20
143.75
 30
0.0
 40
2.5
  1
2.5
100
AcDbText
  0
TEXT
  5
114
330
17
100
AcDbEntity
  8
ANNOTATION
100
AcDbText
 10
2440.0
 20
143.75
 30
0.0
 40
2.5
  1
2.0
100
AcDbText
  0
TEXT
  5
115
330
17
100
AcDbEntity
  8
ANNOTATION
100
AcDbText
 10
2320.0
 20
140.0
 30
0.0
 40
2.5
  1
slide_pilot_1_5
100
AcDbText
  0
TEXT
  5
116
330
17
100
AcDbEntity
  8
ANNOTATION
100
AcDbText
 10
2360.0
 20
140.0
 30
0.0
 40
2.5
  1
311.5
100
AcDbText
  0
TEXT
  5
117
330
17
100
AcDbEntity
  8
ANNOTATION
100
AcDbText
 10
2380.0
 20
140.0
 30
0.0
 40
2.5
  1
115.0
100
AcDbText
  0
TEXT
  5
118
330
17
100
AcDbEntity
  8
ANNOTATION
100
AcDbText
 10
2400.0
 20
140.0
 30
0.0
 40
2.5
  1
0.0
100
AcDbText
  0
TEXT
  5
119
330
17
100
AcDbEntity
  8
ANNOTATION
100
AcDbText
 10
2420.0
 20
140.0
 30
0.0
 40
2.5
  1
2.5
100
AcDbText
  0
TEXT
  5
11A
330
17
100
AcDbEntity
  8
ANNOTATION
100
AcDbText
 10
2440.0
 20
140.0
 30
0.0
 40
2.5
  1
2.0
100
AcDbText
  0
TEXT
  5
11B
330
17
100
AcDbEntity
  8
ANNOTATION
100
AcDbText
 10
2320.0
 20
136.25
 30
0.0
 40
2.5
  1
slide_pilot_2_0
100
AcDbText
  0
TEXT
  5
11C
330
17
100
AcDbEntity
  8
ANNOTATION
100
AcDbText
 10
2360.0
 20
136.25
 30
0.0
 40
2.5
  1
521.5
100
AcDbText
  0
TEXT
  5
11D
330
17
100
AcDbEntity
  8
ANNOTATION
100
AcDbText
 10
2380.0
 20
136.25
 30
0.0
 40
2.5
  1
6.5
100
AcDbText
  0
TEXT
  5
11E
330
17
100
AcDbEntity
  8
ANNOTATION
100
AcDbText
 10
2400.0
 20
136.25
 30
0.0
 40
2.5
  1
0.0
100
AcDbText
  0
TEXT
  5
11F
330
17
100
AcDbEntity
  8
ANNOTATION
100
AcDbText
 10
2420.0
 20
136.25
 30
0.0
 40
2.5
  1
2.5
100
AcDbText
  0
TEXT
  5
120
330
17
100
AcDbEntity
  8
ANNOTATION
100
AcDbText
 10
2440.0
 20
136.25
 30
0.0
 40
2.5
  1
2.0
100
AcDbText
  0
TEXT
  5
121
330
17
100
AcDbEntity
  8
ANNOTATION
100
AcDbText
 10
2320.0
 20
132.5
 30
0.0
 40
2.5
  1
slide_pilot_2_1
100
AcDbText
  0
TEXT
  5
122
330
17
100
AcDbEntity
  8
ANNOTATION
100
AcDbText
 10
2360.0
 20
132.5
 30
0.0
 40
2.5
  1
521.5
100
AcDbText
  0
TEXT
  5
123
330
17
100
AcDbEntity
  8
ANNOTATION
100
AcDbText
 10
2380.0
 20
132.5
 30
0.0
 40
2.5
  1
35.0
100
AcDbText
  0
TEXT
  5
124
330
17
100
AcDbEntity
  8
ANNOTATION
100
AcDbText
 10
2400.0
 20
132.5
 30
0.0
 40
2.5
  1
0.0
100
AcDbText
  0
TEXT
  5
125
330
17
100
AcDbEntity
  8
ANNOTATION
100
AcDbText
 10
2420.0
 20
132.5
 30
0.0
 40
2.5
  1
2.5
100
AcDbText
  0
TEXT
  5
126
330
17
100
AcDbEntity
  8
ANNOTATION
100
AcDbText
 10
2440.0
 20
132.5
 30
0.0
 40
2.5
  1
2.0
100
AcDbText
  0
TEXT
  5
127
330
17
100
AcDbEntity
  8
ANNOTATION
100
AcDbText
 10
2320.0
 20
128.75
 30
0.0
 40
2.5
  1
slide_pilot_2_2
100
AcDbText
  0
TEXT
  5
128
330
17
100
AcDbEntity
  8
ANNOTATION
100
AcDbText
 10
2360.0
 20
128.75
 30
0.0
 40
2.5
  1
521.5
100
AcDbText
  0
TEXT
  5
129
330
17
100
AcDbEntity
  8
ANNOTATION
100
AcDbText
 10
2380.0
 20
128.75
 30
0.0
 40
2.5
  1
51.0
100
AcDbText
  0
TEXT
  5
12A
330
17
100
AcDbEntity
  8
ANNOTATION
100
AcDbText
 10
2400.0
 20
128.75
 30
0.0
 40
2.5
  1
0.0
100
AcDbText
  0
TEXT
  5
12B
330
17
100
AcDbEntity
  8
ANNOTATION
100
AcDbText
 10
2420.0
 20
128.75
 30
0.0
 40
2.5
  1
2.5
100
AcDbText
  0
TEXT
  5
12C
330
17
100
AcDbEntity
  8
ANNOTATION
100
AcDbText
 10
2440.0
 20
128.75
 30
0.0
 40
2.5
  1
2.0
100
AcDbText
  0
TEXT
  5
12D
330
17
100
AcDbEntity
  8
ANNOTATION
100
AcDbText
 10
2320.0
 20
125.0
 30
0.0
 40
2.5
  1
slide_pilot_2_3
100
AcDbText
  0
TEXT
  5
12E
330
17
100
AcDbEntity
  8
ANNOTATION
100
AcDbText
 10
2360.0
 20
125.0
 30
0.0
 40
2.5
  1
521.5
100
AcDbText
  0
TEXT
  5
12F
330
17
100
AcDbEntity
  8
ANNOTATION
100
AcDbText
 10
2380.0
 20
125.0
 30
0.0
 40
2.5
  1
76.0
100
AcDbText
  0
TEXT
  5
130
330
17
100
AcDbEntity
  8
ANNOTATION
100
AcDbText
 10
2400.0
 20
125.0
 30
0.0
 40
2.5
  1
0.0
100
AcDbText
  0
TEXT
  5
131
330
17
100
AcDbEntity
  8
ANNOTATION
100
AcDbText
 10
2420.0
 20
125.0
 30
0.0
 40
2.5
  1
2.5
100
AcDbText
  0
TEXT
  5
132
330
17
100
AcDbEntity
  8
ANNOTATION
100
AcDbText
 10
2440.0
 20
125.0
 30
0.0
 40
2.5
  1
2.0
100
AcDbText
  0
TEXT
  5
133
330
17
100
AcDbEntity
  8
ANNOTATION
100
AcDbText
 10
2320.0
 20
121.25
 30
0.0
 40
2.5
  1
slide_pilot_2_4
100
AcDbText
  0
TEXT
  5
134
330
17
100
AcDbEntity
  8
ANNOTATION
100
AcDbText
 10
2360.0
 20
121.25
 30
0.0
 40
2.5
  1
521.5
100
AcDbText
  0
TEXT
  5
135
330
17
100
AcDbEntity
  8
ANNOTATION
100
AcDbText
 10
2380.0
 20
121.25
 30
0.0
 40
2.5
  1
99.0
100
AcDbText
  0
TEXT
  5
136
330
17
100
AcDbEntity
  8
ANNOTATION
100
AcDbText
 10
2400.0
 20
121.25
 30
0.0
 40
2.5
  1
0.0
100
AcDbText
  0
TEXT
  5
137
330
17
100
AcDbEntity
  8
ANNOTATION
100
AcDbText
 10
2420.0
 20
121.25
 30
0.0
 40
2.5
  1
2.5
100
AcDbText
  0
TEXT
  5
138
330
17
100
AcDbEntity
  8
ANNOTATION
100
AcDbText
 10
2440.0
 20
121.25
 30
0.0
 40
2.5
  1
2.0
100
AcDbText
  0
TEXT
  5
139
330
17
100
AcDbEntity
  8
ANNOTATION
100
AcDbText
 10
2320.0
 20
117.5
 30
0.0
 40
2.5
  1
slide_pilot_2_5
100
AcDbText
  0
TEXT
  5
13A
330
17
100
AcDbEntity
  8
ANNOTATION
100
AcDbText
 10
2360.0
 20
117.5
 30
0.0
 40
2.5
  1
521.5
100
AcDbText
  0
TEXT
  5
13B
330
17
100
AcDbEntity
  8
ANNOTATION
100
AcDbText
 10
2380.0
 20
117.5
 30
0.0
 40
2.5
  1
115.0
100
AcDbText
  0
TEXT
  5
13C
330
17
100
AcDbEntity
  8
ANNOTATION
100
AcDbText
 10
2400.0
 20
117.5
 30
0.0
 40
2.5
  1
0.0
100
AcDbText
  0
TEXT
  5
13D
330
17
100
AcDbEntity
  8
ANNOTATION
100
AcDbText
 10
2420.0
 20
117.5
 30
0.0
 40
2.5
  1
2.5
100
AcDbText
  0
TEXT
  5
13E
330
17
100
AcDbEntity
  8
ANNOTATION
100
AcDbText
 10
2440.0
 20
117.5
 30
0.0
 40
2.5
  1
2.0
100
AcDbText
  0
TEXT
  5
13F
330
17
100
AcDbEntity
  8
ANNOTATION
100
AcDbText
 10
2320.0
 20
113.75
 30
0.0
 40
2.5
  1
slide_pilot_3_0
100
AcDbText
  0
TEXT
  5
140
330
17
100
AcDbEntity
  8
ANNOTATION
100
AcDbText
 10
2360.0
 20
113.75
 30
0.0
 40
2.5
  1
731.5
100
AcDbText
  0
TEXT
  5
141
330
17
100
AcDbEntity
  8
ANNOTATION
100
AcDbText
 10
2380.0
 20
113.75
 30
0.0
 40
2.5
  1
6.5
100
AcDbText
  0
TEXT
  5
142
330
17
100
AcDbEntity
  8
ANNOTATION
100
AcDbText
 10
2400.0
 20
113.75
 30
0.0
 40
2.5
  1
0.0
100
AcDbText
  0
TEXT
  5
143
330
17
100
AcDbEntity
  8
ANNOTATION
100
AcDbText
 10
2420.0
 20
113.75
 30
0.0
 40
2.5
  1
2.5
100
AcDbText
  0
TEXT
  5
144
330
17
100
AcDbEntity
  8
ANNOTATION
100
AcDbText
 10
2440.0
 20
113.75
 30
0.0
 40
2.5
  1
2.0
100
AcDbText
  0
TEXT
  5
145
330
17
100
AcDbEntity
  8
ANNOTATION
100
AcDbText
 10
2320.0
 20
110.0
 30
0.0
 40
2.5
  1
slide_pilot_3_1
100
AcDbText
  0
TEXT
  5
146
330
17
100
AcDbEntity
  8
ANNOTATION
100
AcDbText
 10
2360.0
 20
110.0
 30
0.0
 40
2.5
  1
731.5
100
AcDbText
  0
TEXT
  5
147
330
17
100
AcDbEntity
  8
ANNOTATION
100
AcDbText
 10
2380.0
 20
110.0
 30
0.0
 40
2.5
  1
35.0
100
AcDbText
  0
TEXT
  5
148
330
17
100
AcDbEntity
  8
ANNOTATION
100
AcDbText
 10
2400.0
 20
110.0
 30
0.0
 40
2.5
  1
0.0
100
AcDbText
  0
TEXT
  5
149
330
17
100
AcDbEntity
  8
ANNOTATION
100
AcDbText
 10
2420.0
 20
110.0
 30
0.0
 40
2.5
  1
2.5
100
AcDbText
  0
TEXT
  5
14A
330
17
100
AcDbEntity
  8
ANNOTATION
100
AcDbText
 10
2440.0
 20
110.0
 30
0.0
 40
2.5
  1
2.0
100
AcDbText
  0
TEXT
  5
14B
330
17
100
AcDbEntity
  8
ANNOTATION
100
AcDbText
 10
2320.0
 20
106.25
 30
0.0
 40
2.5
  1
slide_pilot_3_2
100
AcDbText
  0
TEXT
  5
14C
330
17
100
AcDbEntity
  8
ANNOTATION
100
AcDbText
 10
2360.0
 20
106.25
 30
0.0
 40
2.5
  1
731.5
100
AcDbText
  0
TEXT
  5
14D
330
17
100
AcDbEntity
  8
ANNOTATION
100
AcDbText
 10
2380.0
 20
106.25
 30
0.0
 40
2.5
  1
51.0
100
AcDbText
  0
TEXT
  5
14E
330
17
100
AcDbEntity
  8
ANNOTATION
100
AcDbText
 10
2400.0
 20
106.25
 30
0.0
 40
2.5
  1
0.0
100
AcDbText
  0
TEXT
  5
14F
330
17
100
AcDbEntity
  8
ANNOTATION
100
AcDbText
 10
2420.0
 20
106.25
 30
0.0
 40
2.5
  1
2.5
100
AcDbText
  0
TEXT
  5
150
330
17
100
AcDbEntity
  8
ANNOTATION
100
AcDbText
 10
2440.0
 20
106.25
 30
0.0
 40
2.5
  1
2.0
100
AcDbText
  0
TEXT
  5
151
330
17
100
AcDbEntity
  8
ANNOTATION
100
AcDbText
 10
2320.0
 20
102.5
 30
0.0
 40
2.5
  1
slide_pilot_3_3
100
AcDbText
  0
TEXT
  5
152
330
17
100
AcDbEntity
  8
ANNOTATION
100
AcDbText
 10
2360.0
 20
102.5
 30
0.0
 40
2.5
  1
731.5
100
AcDbText
  0
TEXT
  5
153
330
17
100
AcDbEntity
  8
ANNOTATION
100
AcDbText
 10
2380.0
 20
102.5
 30
0.0
 40
2.5
  1
76.0
100
AcDbText
  0
TEXT
  5
154
330
17
100
AcDbEntity
  8
ANNOTATION
100
AcDbText
 10
2400.0
 20
102.5
 30
0.0
 40
2.5
  1
0.0
100
AcDbText
  0
TEXT
  5
155
330
17
100
AcDbEntity
  8
ANNOTATION
100
AcDbText
 10
2420.0
 20
102.5
 30
0.0
 40
2.5
  1
2.5
100
AcDbText
  0
TEXT
  5
156
330
17
100
AcDbEntity
  8
ANNOTATION
100
AcDbText
 10
2440.0
 20
102.5
 30
0.0
 40
2.5
  1
2.0
100
AcDbText
  0
TEXT
  5
157
330
17
100
AcDbEntity
  8
ANNOTATION
100
AcDbText
 10
2320.0
 20
98.75
 30
0.0
 40
2.5
  1
slide_pilot_3_4
100
AcDbText
  0
TEXT
  5
158
330
17
100
AcDbEntity
  8
ANNOTATION
100
AcDbText
 10
2360.0
 20
98.75
 30
0.0
 40
2.5
  1
731.5
100
AcDbText
  0
TEXT
  5
159
330
17
100
AcDbEntity
  8
ANNOTATION
100
AcDbText
 10
2380.0
 20
98.75
 30
0.0
 40
2.5
  1
99.0
100
AcDbText
  0
TEXT
  5
15A
330
17
100
AcDbEntity
  8
ANNOTATION
100
AcDbText
 10
2400.0
 20
98.75
 30
0.0
 40
2.5
  1
0.0
100
AcDbText
  0
TEXT
  5
15B
330
17
100
AcDbEntity
  8
ANNOTATION
100
AcDbText
 10
2420.0
 20
98.75
 30
0.0
 40
2.5
  1
2.5
100
AcDbText
  0
TEXT
  5
15C
330
17
100
AcDbEntity
  8
ANNOTATION
100
AcDbText
 10
2440.0
 20
98.75
 30
0.0
 40
2.5
  1
2.0
100
AcDbText
  0
TEXT
  5
15D
330
17
100
AcDbEntity
  8
ANNOTATION
100
AcDbText
 10
2320.0
 20
95.0
 30
0.0
 40
2.5
  1
slide_pilot_3_5
100
AcDbText
  0
TEXT
  5
15E
330
17
100
AcDbEntity
  8
ANNOTATION
100
AcDbText
 10
2360.0
 20
95.0
 30
0.0
 40
2.5
  1
731.5
100
AcDbText
  0
TEXT
  5
15F
330
17
100
AcDbEntity
  8
ANNOTATION
100
AcDbText
 10
2380.0
 20
95.0
 30
0.0
 40
2.5
  1
115.0
100
AcDbText
  0
TEXT
  5
160
330
17
100
AcDbEntity
  8
ANNOTATION
100
AcDbText
 10
2400.0
 20
95.0
 30
0.0
 40
2.5
  1
0.0
100
AcDbText
  0
TEXT
  5
161
330
17
100
AcDbEntity
  8
ANNOTATION
100
AcDbText
 10
2420.0
 20
95.0
 30
0.0
 40
2.5
  1
2.5
100
AcDbText
  0
TEXT
  5
162
330
17
100
AcDbEntity
  8
ANNOTATION
100
AcDbText
 10
2440.0
 20
95.0
 30
0.0
 40
2.5
  1
2.0
100
AcDbText
  0
TEXT
  5
163
330
17
100
AcDbEntity
  8
ANNOTATION
100
AcDbText
 10
2320.0
 20
91.25
 30
0.0
 40
2.5
  1
slide_pilot_4_0
100
AcDbText
  0
TEXT
  5
164
330
17
100
AcDbEntity
  8
ANNOTATION
100
AcDbText
 10
2360.0
 20
91.25
 30
0.0
 40
2.5
  1
941.5
100
AcDbText
  0
TEXT
  5
165
330
17
100
AcDbEntity
  8
ANNOTATION
100
AcDbText
 10
2380.0
 20
91.25
 30
0.0
 40
2.5
  1
6.5
100
AcDbText
  0
TEXT
  5
166
330
17
100
AcDbEntity
  8
ANNOTATION
100
AcDbText
 10
2400.0
 20
91.25
 30
0.0
 40
2.5
  1
0.0
100
AcDbText
  0
TEXT
  5
167
330
17
100
AcDbEntity
  8
ANNOTATION
100
AcDbText
 10
2420.0
 20
91.25
 30
0.0
 40
2.5
  1
2.5
100
AcDbText
  0
TEXT
  5
168
330
17
100
AcDbEntity
  8
ANNOTATION
100
AcDbText
 10
2440.0
 20
91.25
 30
0.0
 40
2.5
  1
2.0
100
AcDbText
  0
TEXT
  5
169
330
17
100
AcDbEntity
  8
ANNOTATION
100
AcDbText
 10
2320.0
 20
87.5
 30
0.0
 40
2.5
  1
slide_pilot_4_1
100
AcDbText
  0
TEXT
  5
16A
330
17
100
AcDbEntity
  8
ANNOTATION
100
AcDbText
 10
2360.0
 20
87.5
 30
0.0
 40
2.5
  1
941.5
100
AcDbText
  0
TEXT
  5
16B
330
17
100
AcDbEntity
  8
ANNOTATION
100
AcDbText
 10
2380.0
 20
87.5
 30
0.0
 40
2.5
  1
35.0
100
AcDbText
  0
TEXT
  5
16C
330
17
100
AcDbEntity
  8
ANNOTATION
100
AcDbText
 10
2400.0
 20
87.5
 30
0.0
 40
2.5
  1
0.0
100
AcDbText
  0
TEXT
  5
16D
330
17
100
AcDbEntity
  8
ANNOTATION
100
AcDbText
 10
2420.0
 20
87.5
 30
0.0
 40
2.5
  1
2.5
100
AcDbText
  0
TEXT
  5
16E
330
17
100
AcDbEntity
  8
ANNOTATION
100
AcDbText
 10
2440.0
 20
87.5
 30
0.0
 40
2.5
  1
2.0
100
AcDbText
  0
TEXT
  5
16F
330
17
100
AcDbEntity
  8
ANNOTATION
100
AcDbText
 10
2320.0
 20
83.75
 30
0.0
 40
2.5
  1
slide_pilot_4_2
100
AcDbText
  0
TEXT
  5
170
330
17
100
AcDbEntity
  8
ANNOTATION
100
AcDbText
 10
2360.0
 20
83.75
 30
0.0
 40
2.5
  1
941.5
100
AcDbText
  0
TEXT
  5
171
330
17
100
AcDbEntity
  8
ANNOTATION
100
AcDbText
 10
2380.0
 20
83.75
 30
0.0
 40
2.5
  1
51.0
100
AcDbText
  0
TEXT
  5
172
330
17
100
AcDbEntity
  8
ANNOTATION
100
AcDbText
 10
2400.0
 20
83.75
 30
0.0
 40
2.5
  1
0.0
100
AcDbText
  0
TEXT
  5
173
330
17
100
AcDbEntity
  8
ANNOTATION
100
AcDbText
 10
2420.0
 20
83.75
 30
0.0
 40
2.5
  1
2.5
100
AcDbText
  0
TEXT
  5
174
330
17
100
AcDbEntity
  8
ANNOTATION
100
AcDbText
 10
2440.0
 20
83.75
 30
0.0
 40
2.5
  1
2.0
100
AcDbText
  0
TEXT
  5
175
330
17
100
AcDbEntity
  8
ANNOTATION
100
AcDbText
 10
2320.0
 20
80.0
 30
0.0
 40
2.5
  1
slide_pilot_4_3
100
AcDbText
  0
TEXT
  5
176
330
17
100
AcDbEntity
  8
ANNOTATION
100
AcDbText
 10
2360.0
 20
80.0
 30
0.0
 40
2.5
  1
941.5
100
AcDbText
  0
TEXT
  5
177
330
17
100
AcDbEntity
  8
ANNOTATION
100
AcDbText
 10
2380.0
 20
80.0
 30
0.0
 40
2.5
  1
76.0
100
AcDbText
  0
TEXT
  5
178
330
17
100
AcDbEntity
  8
ANNOTATION
100
AcDbText
 10
2400.0
 20
80.0
 30
0.0
 40
2.5
  1
0.0
100
AcDbText
  0
TEXT
  5
179
330
17
100
AcDbEntity
  8
ANNOTATION
100
AcDbText
 10
2420.0
 20
80.0
 30
0.0
 40
2.5
  1
2.5
100
AcDbText
  0
TEXT
  5
17A
330
17
100
AcDbEntity
  8
ANNOTATION
100
AcDbText
 10
2440.0
 20
80.0
 30
0.0
 40
2.5
  1
2.0
100
AcDbText
  0
TEXT
  5
17B
330
17
100
AcDbEntity
  8
ANNOTATION
100
AcDbText
 10
2320.0
 20
76.25
 30
0.0
 40
2.5
  1
slide_pilot_4_4
100
AcDbText
  0
TEXT
  5
17C
330
17
100
AcDbEntity
  8
ANNOTATION
100
AcDbText
 10
2360.0
 20
76.25
 30
0.0
 40
2.5
  1
941.5
100
AcDbText
  0
TEXT
  5
17D
330
17
100
AcDbEntity
  8
ANNOTATION
100
AcDbText
 10
2380.0
 20
76.25
 30
0.0
 40
2.5
  1
99.0
100
AcDbText
  0
TEXT
  5
17E
330
17
100
AcDbEntity
  8
ANNOTATION
100
AcDbText
 10
2400.0
 20
76.25
 30
0.0
 40
2.5
  1
0.0
100
AcDbText
  0
TEXT
  5
17F
330
17
100
AcDbEntity
  8
ANNOTATION
100
AcDbText
 10
2420.0
 20
76.25
 30
0.0
 40
2.5
  1
2.5
100
AcDbText
  0
TEXT
  5
180
330
17
100
AcDbEntity
  8
ANNOTATION
100
AcDbText
 10
2440.0
 20
76.25
 30
0.0
 40
2.5
  1
2.0
100
AcDbText
  0
TEXT
  5
181
330
17
100
AcDbEntity
  8
ANNOTATION
100
AcDbText
 10
2320.0
 20
72.5
 30
0.0
 40
2.5
  1
slide_pilot_4_5
100
AcDbText
  0
TEXT
  5
182
330
17
100
AcDbEntity
  8
ANNOTATION
100
AcDbText
 10
2360.0
 20
72.5
 30
0.0
 40
2.5
  1
941.5
100
AcDbText
  0
TEXT
  5
183
330
17
100
AcDbEntity
  8
ANNOTATION
100
AcDbText
 10
2380.0
 20
72.5
 30
0.0
 40
2.5
  1
115.0
100
AcDbText
  0
TEXT
  5
184
330
17
100
AcDbEntity
  8
ANNOTATION
100
AcDbText
 10
2400.0
 20
72.5
 30
0.0
 40
2.5
  1
0.0
100
AcDbText
  0
TEXT
  5
185
330
17
100
AcDbEntity
  8
ANNOTATION
100
AcDbText
 10
2420.0
 20
72.5
 30
0.0
 40
2.5
  1
2.5
100
AcDbText
  0
TEXT
  5
186
330
17
100
AcDbEntity
  8
ANNOTATION
100
AcDbText
 10
2440.0
 20
72.5
 30
0.0
 40
2.5
  1
2.0
100
AcDbText
  0
TEXT
  5
187
330
17
100
AcDbEntity
  8
ANNOTATION
100
AcDbText
 10
2320.0
 20
68.75
 30
0.0
 40
2.5
  1
slide_pilot_5_0
100
AcDbText
  0
TEXT
  5
188
330
17
100
AcDbEntity
  8
ANNOTATION
100
AcDbText
 10
2360.0
 20
68.75
 30
0.0
 40
2.5
  1
1151.5
100
AcDbText
  0
TEXT
  5
189
330
17
100
AcDbEntity
  8
ANNOTATION
100
AcDbText
 10
2380.0
 20
68.75
 30
0.0
 40
2.5
  1
6.5
100
AcDbText
  0
TEXT
  5
18A
330
17
100
AcDbEntity
  8
ANNOTATION
100
AcDbText
 10
2400.0
 20
68.75
 30
0.0
 40
2.5
  1
0.0
100
AcDbText
  0
TEXT
  5
18B
330
17
100
AcDbEntity
  8
ANNOTATION
100
AcDbText
 10
2420.0
 20
68.75
 30
0.0
 40
2.5
  1
2.5
100
AcDbText
  0
TEXT
  5
18C
330
17
100
AcDbEntity
  8
ANNOTATION
100
AcDbText
 10
2440.0
 20
68.75
 30
0.0
 40
2.5
  1
2.0
100
AcDbText
  0
TEXT
  5
18D
330
17
100
AcDbEntity
  8
ANNOTATION
100
AcDbText
 10
2320.0
 20
65.0
 30
0.0
 40
2.5
  1
slide_pilot_5_1
100
AcDbText
  0
TEXT
  5
18E
330
17
100
AcDbEntity
  8
ANNOTATION
100
AcDbText
 10
2360.0
 20
65.0
 30
0.0
 40
2.5
  1
1151.5
100
AcDbText
  0
TEXT
  5
18F
330
17
100
AcDbEntity
  8
ANNOTATION
100
AcDbText
 10
2380.0
 20
65.0
 30
0.0
 40
2.5
  1
35.0
100
AcDbText
  0
TEXT
  5
190
330
17
100
AcDbEntity
  8
ANNOTATION
100
AcDbText
 10
2400.0
 20
65.0
 30
0.0
 40
2.5
  1
0.0
100
AcDbText
  0
TEXT
  5
191
330
17
100
AcDbEntity
  8
ANNOTATION
100
AcDbText
 10
2420.0
 20
65.0
 30
0.0
 40
2.5
  1
2.5
100
AcDbText
  0
TEXT
  5
192
330
17
100
AcDbEntity
  8
ANNOTATION
100
AcDbText
 10
2440.0
 20
65.0
 30
0.0
 40
2.5
  1
2.0
100
AcDbText
  0
TEXT
  5
193
330
17
100
AcDbEntity
  8
ANNOTATION
100
AcDbText
 10
2320.0
 20
61.25
 30
0.0
 40
2.5
  1
slide_pilot_5_2
100
AcDbText
  0
TEXT
  5
194
330
17
100
AcDbEntity
  8
ANNOTATION
100
AcDbText
 10
2360.0
 20
61.25
 30
0.0
 40
2.5
  1
1151.5
100
AcDbText
  0
TEXT
  5
195
330
17
100
AcDbEntity
  8
ANNOTATION
100
AcDbText
 10
2380.0
 20
61.25
 30
0.0
 40
2.5
  1
51.0
100
AcDbText
  0
TEXT
  5
196
330
17
100
AcDbEntity
  8
ANNOTATION
100
AcDbText
 10
2400.0
 20
61.25
 30
0.0
 40
2.5
  1
0.0
100
AcDbText
  0
TEXT
  5
197
330
17
100
AcDbEntity
  8
ANNOTATION
100
AcDbText
 10
2420.0
 20
61.25
 30
0.0
 40
2.5
  1
2.5
100
AcDbText
  0
TEXT
  5
198
330
17
100
AcDbEntity
  8
ANNOTATION
100
AcDbText
 10
2440.0
 20
61.25
 30
0.0
 40
2.5
  1
2.0
100
AcDbText
  0
TEXT
  5
199
330
17
100
AcDbEntity
  8
ANNOTATION
100
AcDbText
 10
2320.0
 20
57.5
 30
0.0
 40
2.5
  1
slide_pilot_5_3
100
AcDbText
  0
TEXT
  5
19A
330
17
100
AcDbEntity
  8
ANNOTATION
100
AcDbText
 10
2360.0
 20
57.5
 30
0.0
 40
2.5
  1
1151.5
100
AcDbText
  0
TEXT
  5
19B
330
17
100
AcDbEntity
  8
ANNOTATION
100
AcDbText
 10
2380.0
 20
57.5
 30
0.0
 40
2.5
  1
76.0
100
AcDbText
  0
TEXT
  5
19C
330
17
100
AcDbEntity
  8
ANNOTATION
100
AcDbText
 10
2400.0
 20
57.5
 30
0.0
 40
2.5
  1
0.0
100
AcDbText
  0
TEXT
  5
19D
330
17
100
AcDbEntity
  8
ANNOTATION
100
AcDbText
 10
2420.0
 20
57.5
 30
0.0
 40
2.5
  1
2.5
100
AcDbText
  0
TEXT
  5
19E
330
17
100
AcDbEntity
  8
ANNOTATION
100
AcDbText
 10
2440.0
 20
57.5
 30
0.0
 40
2.5
  1
2.0
100
AcDbText
  0
TEXT
  5
19F
330
17
100
AcDbEntity
  8
ANNOTATION
100
AcDbText
 10
2320.0
 20
53.75
 30
0.0
 40
2.5
  1
slide_pilot_5_4
100
AcDbText
  0
TEXT
  5
1A0
330
17
100
AcDbEntity
  8
ANNOTATION
100
AcDbText
 10
2360.0
 20
53.75
 30
0.0
 40
2.5
  1
1151.5
100
AcDbText
  0
TEXT
  5
1A1
330
17
100
AcDbEntity
  8
ANNOTATION
100
AcDbText
 10
2380.0
 20
53.75
 30
0.0
 40
2.5
  1
99.0
100
AcDbText
  0
TEXT
  5
1A2
330
17
100
AcDbEntity
  8
ANNOTATION
100
AcDbText
 10
2400.0
 20
53.75
 30
0.0
 40
2.5
  1
0.0
100
AcDbText
  0
TEXT
  5
1A3
330
17
100
AcDbEntity
  8
ANNOTATION
100
AcDbText
 10
2420.0
 20
53.75
 30
0.0
 40
2.5
  1
2.5
100
AcDbText
  0
TEXT
  5
1A4
330
17
100
AcDbEntity
  8
ANNOTATION
100
AcDbText
 10
2440.0
 20
53.75
 30
0.0
 40
2.5
  1
2.0
100
AcDbText
  0
TEXT
  5
1A5
330
17
100
AcDbEntity
  8
ANNOTATION
100
AcDbText
 10
2320.0
 20
50.0
 30
0.0
 40
2.5
  1
slide_pilot_5_5
100
AcDbText
  0
TEXT
  5
1A6
330
17
100
AcDbEntity
  8
ANNOTATION
100
AcDbText
 10
2360.0
 20
50.0
 30
0.0
 40
2.5
  1
1151.5
100
AcDbText
  0
TEXT
  5
1A7
330
17
100
AcDbEntity
  8
ANNOTATION
100
AcDbText
 10
2380.0
 20
50.0
 30
0.0
 40
2.5
  1
115.0
100
AcDbText
  0
TEXT
  5
1A8
330
17
100
AcDbEntity
  8
ANNOTATION
100
AcDbText
 10
2400.0
 20
50.0
 30
0.0
 40
2.5
  1
0.0
100
AcDbText
  0
TEXT
  5
1A9
330
17
100
AcDbEntity
  8
ANNOTATION
100
AcDbText
 10
2420.0
 20
50.0
 30
0.0
 40
2.5
  1
2.5
100
AcDbText
  0
TEXT
  5
1AA
330
17
100
AcDbEntity
  8
ANNOTATION
100
AcDbText
 10
2440.0
 20
50.0
 30
0.0
 40
2.5
  1
2.0
100
AcDbText
  0
TEXT
  5
1AB
330
17
100
AcDbEntity
  8
ANNOTATION
100
AcDbText
 10
0.0
 20
-20.0
 30
0.0
 40
5.0
  1
Legend:
100
AcDbText
  0
TEXT
  5
1AC
330
17
100
AcDbEntity
  8
ANNOTATION
100
AcDbText
 10
0.0
 20
-30.0
 30
0.0
 40
5.0
  1
- CUT layer (red): Panel outline
100
AcDbText
  0
TEXT
  5
1AD
330
17
100
AcDbEntity
  8
ANNOTATION
100
AcDbText
 10
0.0
 20
-40.0
 30
0.0
 40
5.0
  1
- DRILL layer (blue): Holes to be drilled
100
AcDbText
  0
TEXT
  5
1AE
330
17
100
AcDbEntity
  8
ANNOTATION
100
AcDbText
 10
0.0
 20
-50.0
 30
0.0
 40
5.0
  1
- ANNOTATION layer (magenta): Hole dimensions (d=diameter, h=depth)
100
AcDbText
  0
ENDSEC
  0
SECTION
  2
OBJECTS
  0
DICTIONARY
  5
A
330
0
100
AcDbDictionary
281
1
  3
ACAD_COLOR
350
B
  3
ACAD_GROUP
350
C
  3
ACAD_LAYOUT
350
D
  3
ACAD_MATERIAL
350
E
  3
ACAD_MLEADERSTYLE
350
F
  3
ACAD_MLINESTYLE
350
10
  3
ACAD_PLOTSETTINGS
350
11
  3
ACAD_PLOTSTYLENAME
350
12
  3
ACAD_SCALELIST
350
14
  3
ACAD_TABLESTYLE
350
15
  3
ACAD_VISUALSTYLE
350
16
  3
EZDXF_META
350
2D
  0
DICTIONARY
  5
B
330
A
100
AcDbDictionary
281
1
  0
DICTIONARY
  5
C
330
A
100
AcDbDictionary
281
1
  0
DICTIONARY
  5
D
330
A
100
AcDbDictionary
281
1
  3
Model
350
1A
  3
Layout1
350
1E
  0
DICTIONARY
  5
E
330
A
100
AcDbDictionary
281
1
  3
ByBlock
350
1F
  3
ByLayer
350
20
  3
Global
350
21
  0
DICTIONARY
  5
F
330
A
100
AcDbDictionary
281
1
  3
Standard
350
2C
  0
DICTIONARY
  5
10
330
A
100
AcDbDictionary
281
1
  3
Standard
350
22
  0
DICTIONARY
  5
11
330
A
100
AcDbDictionary
281
1
  0
ACDBDICTIONARYWDFLT
  5
12
330
A
100
AcDbDictionary
281
1
  3
Normal
350
13
100
AcDbDictionaryWithDefault
340
13
  0
ACDBPLACEHOLDER
  5
13
330
12
  0
DICTIONARY
  5
14
330
A
100
AcDbDictionary
281
1
  0
DICTIONARY
  5
15
330
A
100
AcDbDictionary
281
1
  0
DICTIONARY
  5
16
330
A
100
AcDbDictionary
281
1
  0
LAYOUT
  5
1A
330
D
100
AcDbPlotSettings
  1

  4
A3
  6

 40
7.5
 41
20.0
 42
7.5
 43
20.0
 44
420.0
 45
297.0
 46
0.0
 47
0.0
 48
0.0
 49
0.0
140
0.0
141
0.0
142
1.0
143
1.0
 70
1024
 72
1
 73
0
 74
5
  7

 75
16
 76
0
 77
2
 78
300
147
1.0
148
0.0
149
0.0
100
AcDbLayout
  1
Model
 70
1
 71
0
 10
0.0
 20
0.0
 11
420.0
 21
297.0
 12
0.0
 22
0.0
 32
0.0
 14
1e+20
 24
1e+20
 34
1e+20
 15
-1e+20
 25
-1e+20
 35
-1e+20
146
0.0
 13
0.0
 23
0.0
 33
0.0
 16
1.0
 26
0.0
 36
0.0
 17
0.0
 27
1.0
 37
0.0
 76
1
330
17
  0
LAYOUT
  5
1E
330
D
100
AcDbPlotSettings
  1

  4
A3
  6

 40
7.5
 41
20.0
 42
7.5
 43
20.0
 44
420.0
 45
297.0
 46
0.0
 47
0.0
 48
0.0
 49
0.0
140
0.0
141
0.0
142
1.0
143
1.0
 70
0
 72
1
 73
0
 74
5
  7

 75
16
 76
0
 77
2
 78
300
147
1.0
148
0.0
149
0.0
100
AcDbLayout
  1
Layout1
 70
1
 71
1
 10
0.0
 20
0.0
 11
420.0
 21
297.0
 12
0.0
 22
0.0
 32
0.0
 14
1e+20
 24
1e+20
 34
1e+20
 15
-1e+20
 25
-1e+20
 35
-1e+20
146
0.0
 13
0.0
 23
0.0
 33
0.0
 16
1.0
 26
0.0
 36
0.0
 17
0.0
 27
1.0
 37
0.0
 76
1
330
1B
  0
MATERIAL
  5
1F
102
{ACAD_REACTORS
330
E
102
}
330
E
100
AcDbMaterial
  1
ByBlock
  2

 70
0
 40
1.0
 71
1
 41
1.0
 91
-1023410177
 42
1.0
 72
1
  3

 73
1
 74
1
 75
1
 44
0.5
 73
0
 45
1.0
 46
1.0
 77
1
  4

 78
1
 79
1
170
1
 48
1.0
171
1
  6

172
1
173
1
174
1
140
1.0
141
1.0
175
1
  7

176
1
177
1
178
1
143
1.0
179
1
  8

270
1
271
1
272
1
145
1.0
146
1.0
273
1
  9

274
1
275
1
276
1
 42
1.0
 72
1
  3

 73
1
 74
1
 75
1
 94
63
  0
MATERIAL
  5
20
102
{ACAD_REACTORS
330
E
102
}
330
E
100
AcDbMaterial
  1
ByLayer
  2

 70
0
 40
1.0
 71
1
 41
1.0
 91
-1023410177
 42
1.0
 72
1
  3

 73
1
 74
1
 75
1
 44
0.5
 73
0
 45
1.0
 46
1.0
 77
1
  4

 78
1
 79
1
170
1
 48
1.0
171
1
  6

172
1
173
1
174
1
140
1.0
141
1.0
175
1
  7

176
1
177
1
178
1
143
1.0
179
1
  8

270
1
271
1
272
1
145
1.0
146
1.0
273
1
  9

274
1
275
1
276
1
 42
1.0
 72
1
  3

 73
1
 74
1
 75
1
 94
63
  0
MATERIAL
  5
21
102
{ACAD_REACTORS
330
E
102
}
330
E
100
AcDbMaterial
  1
Global
  2

 70
0
 40
1.0
 71
1
 41
1.0
 91
-1023410177
 42
1.0
 72
1
  3

 73
1
 74
1
 75
1
 44
0.5
 73
0
 45
1.0
 46
1.0
 77
1
  4

 78
1
 79
1
170
1
 48
1.0
171
1
  6

172
1
173
1
174
1
140
1.0
141
1.0
175
1
  7

176
1
177
1
178
1
143
1.0
179
1
  8

270
1
271
1
272
1
145
1.0
146
1.0
273
1
  9

274
1
275
1
276
1
 42
1.0
 72
1
  3

 73
1
 74
1
 75
1
 94
63
  0
MLINESTYLE
  5
22
102
{ACAD_REACTORS
330
10
102
}
330
10
100
AcDbMlineStyle
  2
Standard
 70
0
  3

 62
256
 51
90.0
 52
90.0
 71
2
 49
0.5
 62
256
  6
BYLAYER
 49
-0.5
 62
256
  6
BYLAYER
  0
MLEADERSTYLE
  5
2C
102
{ACAD_REACTORS
330
F
102
}
330
F
100
AcDbMLeaderStyle
179
2
170
2
171
1
172
0
 90
2
 40
0.0
 41
0.0
173
1
 91
-1056964608
 92
-2
290
1
 42
2.0
291
1
 43
8.0
  3
Standard
 44
4.0
300

342
29
174
1
175
1
176
0
178
1
 93
-1056964608
 45
4.0
292
0
297
0
 46
4.0
 94
-1056964608
 47
1.0
 49
1.0
140
1.0
294
1
141
0.0
177
0
142
1.0
295
0
296
0
143
3.75
271
0
272
9
273
9
  0
DICTIONARY
  5
2D
330
A
100
AcDbDictionary
280
1
281
1
  3
CREATED_BY_EZDXF
350
2E
  3
WRITTEN_BY_EZDXF
350
1B1
  0
DICTIONARYVAR
  5
2E
330
2D
100
DictionaryVariables
280
0
  1
1.4.2 @ 2025-08-23T16:08:56.889750+00:00
  0
DICTIONARYVAR
  5
1B1
330
2D
100
DictionaryVariables
280
0
  1
1.4.2 @ 2025-08-23T16:08:57.258875+00:00
  0
ENDSEC
  0
EOF
