  0
SECTION
  2
HEADER
  9
$ACADVER
  1
AC1015
  9
$ACADMAINTVER
 70
6
  9
$DWGCODEPAGE
  3
ANSI_1252
  9
$INSBASE
 10
0.0
 20
0.0
 30
0.0
  9
$EXTMIN
 10
1e+20
 20
1e+20
 30
1e+20
  9
$EXTMAX
 10
-1e+20
 20
-1e+20
 30
-1e+20
  9
$LIMMIN
 10
0.0
 20
0.0
  9
$LIMMAX
 10
420.0
 20
297.0
  9
$ORTHOMODE
 70
0
  9
$REGENMODE
 70
1
  9
$FILLMODE
 70
1
  9
$QTEXTMODE
 70
0
  9
$MIRRTEXT
 70
1
  9
$LTSCALE
 40
1.0
  9
$ATTMODE
 70
1
  9
$TEXTSIZE
 40
2.5
  9
$TRACEWID
 40
1.0
  9
$TEXTSTYLE
  7
Standard
  9
$CLAYER
  8
0
  9
$CELTYPE
  6
ByLayer
  9
$CECOLOR
 62
256
  9
$CELTSCALE
 40
1.0
  9
$DISPSILH
 70
0
  9
$DIMSCALE
 40
1.0
  9
$DIMASZ
 40
2.5
  9
$DIMEXO
 40
0.625
  9
$DIMDLI
 40
3.75
  9
$DIMRND
 40
0.0
  9
$DIMDLE
 40
0.0
  9
$DIMEXE
 40
1.25
  9
$DIMTP
 40
0.0
  9
$DIMTM
 40
0.0
  9
$DIMTXT
 40
2.5
  9
$DIMCEN
 40
2.5
  9
$DIMTSZ
 40
0.0
  9
$DIMTOL
 70
0
  9
$DIMLIM
 70
0
  9
$DIMTIH
 70
0
  9
$DIMTOH
 70
0
  9
$DIMSE1
 70
0
  9
$DIMSE2
 70
0
  9
$DIMTAD
 70
1
  9
$DIMZIN
 70
8
  9
$DIMBLK
  1

  9
$DIMASO
 70
1
  9
$DIMSHO
 70
1
  9
$DIMPOST
  1

  9
$DIMAPOST
  1

  9
$DIMALT
 70
0
  9
$DIMALTD
 70
3
  9
$DIMALTF
 40
0.03937007874
  9
$DIMLFAC
 40
1.0
  9
$DIMTOFL
 70
1
  9
$DIMTVP
 40
0.0
  9
$DIMTIX
 70
0
  9
$DIMSOXD
 70
0
  9
$DIMSAH
 70
0
  9
$DIMBLK1
  1

  9
$DIMBLK2
  1

  9
$DIMSTYLE
  2
ISO-25
  9
$DIMCLRD
 70
0
  9
$DIMCLRE
 70
0
  9
$DIMCLRT
 70
0
  9
$DIMTFAC
 40
1.0
  9
$DIMGAP
 40
0.625
  9
$DIMJUST
 70
0
  9
$DIMSD1
 70
0
  9
$DIMSD2
 70
0
  9
$DIMTOLJ
 70
0
  9
$DIMTZIN
 70
8
  9
$DIMALTZ
 70
0
  9
$DIMALTTZ
 70
0
  9
$DIMUPT
 70
0
  9
$DIMDEC
 70
2
  9
$DIMTDEC
 70
2
  9
$DIMALTU
 70
2
  9
$DIMALTTD
 70
3
  9
$DIMTXSTY
  7
Standard
  9
$DIMAUNIT
 70
0
  9
$DIMADEC
 70
0
  9
$DIMALTRND
 40
0.0
  9
$DIMAZIN
 70
0
  9
$DIMDSEP
 70
44
  9
$DIMATFIT
 70
3
  9
$DIMFRAC
 70
0
  9
$DIMLDRBLK
  1

  9
$DIMLUNIT
 70
2
  9
$DIMLWD
 70
-2
  9
$DIMLWE
 70
-2
  9
$DIMTMOVE
 70
0
  9
$LUNITS
 70
2
  9
$LUPREC
 70
4
  9
$SKETCHINC
 40
1.0
  9
$FILLETRAD
 40
10.0
  9
$AUNITS
 70
0
  9
$AUPREC
 70
2
  9
$MENU
  1
.
  9
$ELEVATION
 40
0.0
  9
$PELEVATION
 40
0.0
  9
$THICKNESS
 40
0.0
  9
$LIMCHECK
 70
0
  9
$CHAMFERA
 40
0.0
  9
$CHAMFERB
 40
0.0
  9
$CHAMFERC
 40
0.0
  9
$CHAMFERD
 40
0.0
  9
$SKPOLY
 70
0
  9
$TDCREATE
 40
2460911.933483796
  9
$TDUCREATE
 40
2458532.153996898
  9
$TDUPDATE
 40
2460911.93349537
  9
$TDUUPDATE
 40
2458532.1544311
  9
$TDINDWG
 40
0.0
  9
$TDUSRTIMER
 40
0.0
  9
$USRTIMER
 70
1
  9
$ANGBASE
 50
0.0
  9
$ANGDIR
 70
0
  9
$PDMODE
 70
0
  9
$PDSIZE
 40
0.0
  9
$PLINEWID
 40
0.0
  9
$SPLFRAME
 70
0
  9
$SPLINETYPE
 70
6
  9
$SPLINESEGS
 70
8
  9
$HANDSEED
  5
399
  9
$SURFTAB1
 70
6
  9
$SURFTAB2
 70
6
  9
$SURFTYPE
 70
6
  9
$SURFU
 70
6
  9
$SURFV
 70
6
  9
$UCSBASE
  2

  9
$UCSNAME
  2

  9
$UCSORG
 10
0.0
 20
0.0
 30
0.0
  9
$UCSXDIR
 10
1.0
 20
0.0
 30
0.0
  9
$UCSYDIR
 10
0.0
 20
1.0
 30
0.0
  9
$UCSORTHOREF
  2

  9
$UCSORTHOVIEW
 70
0
  9
$UCSORGTOP
 10
0.0
 20
0.0
 30
0.0
  9
$UCSORGBOTTOM
 10
0.0
 20
0.0
 30
0.0
  9
$UCSORGLEFT
 10
0.0
 20
0.0
 30
0.0
  9
$UCSORGRIGHT
 10
0.0
 20
0.0
 30
0.0
  9
$UCSORGFRONT
 10
0.0
 20
0.0
 30
0.0
  9
$UCSORGBACK
 10
0.0
 20
0.0
 30
0.0
  9
$PUCSBASE
  2

  9
$PUCSNAME
  2

  9
$PUCSORG
 10
0.0
 20
0.0
 30
0.0
  9
$PUCSXDIR
 10
1.0
 20
0.0
 30
0.0
  9
$PUCSYDIR
 10
0.0
 20
1.0
 30
0.0
  9
$PUCSORTHOREF
  2

  9
$PUCSORTHOVIEW
 70
0
  9
$PUCSORGTOP
 10
0.0
 20
0.0
 30
0.0
  9
$PUCSORGBOTTOM
 10
0.0
 20
0.0
 30
0.0
  9
$PUCSORGLEFT
 10
0.0
 20
0.0
 30
0.0
  9
$PUCSORGRIGHT
 10
0.0
 20
0.0
 30
0.0
  9
$PUCSORGFRONT
 10
0.0
 20
0.0
 30
0.0
  9
$PUCSORGBACK
 10
0.0
 20
0.0
 30
0.0
  9
$USERI1
 70
0
  9
$USERI2
 70
0
  9
$USERI3
 70
0
  9
$USERI4
 70
0
  9
$USERI5
 70
0
  9
$USERR1
 40
0.0
  9
$USERR2
 40
0.0
  9
$USERR3
 40
0.0
  9
$USERR4
 40
0.0
  9
$USERR5
 40
0.0
  9
$WORLDVIEW
 70
1
  9
$SHADEDGE
 70
3
  9
$SHADEDIF
 70
70
  9
$TILEMODE
 70
1
  9
$MAXACTVP
 70
64
  9
$PINSBASE
 10
0.0
 20
0.0
 30
0.0
  9
$PLIMCHECK
 70
0
  9
$PEXTMIN
 10
1e+20
 20
1e+20
 30
1e+20
  9
$PEXTMAX
 10
-1e+20
 20
-1e+20
 30
-1e+20
  9
$PLIMMIN
 10
0.0
 20
0.0
  9
$PLIMMAX
 10
420.0
 20
297.0
  9
$UNITMODE
 70
0
  9
$VISRETAIN
 70
1
  9
$PLINEGEN
 70
0
  9
$PSLTSCALE
 70
1
  9
$TREEDEPTH
 70
3020
  9
$CMLSTYLE
  2
Standard
  9
$CMLJUST
 70
0
  9
$CMLSCALE
 40
20.0
  9
$PROXYGRAPHICS
 70
1
  9
$MEASUREMENT
 70
1
  9
$CELWEIGHT
370
-1
  9
$ENDCAPS
280
0
  9
$JOINSTYLE
280
0
  9
$LWDISPLAY
290
0
  9
$INSUNITS
 70
6
  9
$HYPERLINKBASE
  1

  9
$STYLESHEET
  1

  9
$XEDIT
290
1
  9
$CEPSNTYPE
380
0
  9
$PSTYLEMODE
290
1
  9
$FINGERPRINTGUID
  2
{1DE84884-15E6-4546-88CC-30A02FE877F7}
  9
$VERSIONGUID
  2
{2A017381-0C97-4875-B9CA-A3DBFDBBC063}
  9
$EXTNAMES
290
1
  9
$PSVPSCALE
 40
0.0
  9
$OLESTARTUP
290
0
  0
ENDSEC
  0
SECTION
  2
CLASSES
  0
CLASS
  1
ACDBDICTIONARYWDFLT
  2
AcDbDictionaryWithDefault
  3
ObjectDBX Classes
 90
0
280
0
281
0
  0
CLASS
  1
SUN
  2
AcDbSun
  3
SCENEOE
 90
1153
280
0
281
0
  0
CLASS
  1
VISUALSTYLE
  2
AcDbVisualStyle
  3
ObjectDBX Classes
 90
4095
280
0
281
0
  0
CLASS
  1
MATERIAL
  2
AcDbMaterial
  3
ObjectDBX Classes
 90
1153
280
0
281
0
  0
CLASS
  1
SCALE
  2
AcDbScale
  3
ObjectDBX Classes
 90
1153
280
0
281
0
  0
CLASS
  1
TABLESTYLE
  2
AcDbTableStyle
  3
ObjectDBX Classes
 90
4095
280
0
281
0
  0
CLASS
  1
MLEADERSTYLE
  2
AcDbMLeaderStyle
  3
ACDB_MLEADERSTYLE_CLASS
 90
4095
280
0
281
0
  0
CLASS
  1
DICTIONARYVAR
  2
AcDbDictionaryVar
  3
ObjectDBX Classes
 90
0
280
0
281
0
  0
CLASS
  1
CELLSTYLEMAP
  2
AcDbCellStyleMap
  3
ObjectDBX Classes
 90
1152
280
0
281
0
  0
CLASS
  1
MENTALRAYRENDERSETTINGS
  2
AcDbMentalRayRenderSettings
  3
SCENEOE
 90
1024
280
0
281
0
  0
CLASS
  1
ACDBDETAILVIEWSTYLE
  2
AcDbDetailViewStyle
  3
ObjectDBX Classes
 90
1025
280
0
281
0
  0
CLASS
  1
ACDBSECTIONVIEWSTYLE
  2
AcDbSectionViewStyle
  3
ObjectDBX Classes
 90
1025
280
0
281
0
  0
CLASS
  1
RASTERVARIABLES
  2
AcDbRasterVariables
  3
ISM
 90
0
280
0
281
0
  0
CLASS
  1
ACDBPLACEHOLDER
  2
AcDbPlaceHolder
  3
ObjectDBX Classes
 90
0
280
0
281
0
  0
CLASS
  1
LAYOUT
  2
AcDbLayout
  3
ObjectDBX Classes
 90
0
280
0
281
0
  0
ENDSEC
  0
SECTION
  2
TABLES
  0
TABLE
  2
VPORT
  5
8
330
0
100
AcDbSymbolTable
 70
1
  0
VPORT
  5
23
330
8
100
AcDbSymbolTableRecord
100
AcDbViewportTableRecord
  2
*Active
 70
0
 10
0.0
 20
0.0
 11
1.0
 21
1.0
 12
0.0
 22
0.0
 13
0.0
 23
0.0
 14
0.5
 24
0.5
 15
0.5
 25
0.5
 16
0.0
 26
0.0
 36
1.0
 17
0.0
 27
0.0
 37
0.0
 40
1000.0
 41
1.34
 42
50.0
 43
0.0
 44
0.0
 50
0.0
 51
0.0
 71
0
 72
1000
 73
1
 74
3
 75
0
 76
0
 77
0
 78
0
281
0
 65
0
146
0.0
  0
ENDTAB
  0
TABLE
  2
LTYPE
  5
2
330
0
100
AcDbSymbolTable
 70
3
  0
LTYPE
  5
24
330
2
100
AcDbSymbolTableRecord
100
AcDbLinetypeTableRecord
  2
ByBlock
 70
0
  3

 72
65
 73
0
 40
0.0
  0
LTYPE
  5
25
330
2
100
AcDbSymbolTableRecord
100
AcDbLinetypeTableRecord
  2
ByLayer
 70
0
  3

 72
65
 73
0
 40
0.0
  0
LTYPE
  5
26
330
2
100
AcDbSymbolTableRecord
100
AcDbLinetypeTableRecord
  2
Continuous
 70
0
  3

 72
65
 73
0
 40
0.0
  0
ENDTAB
  0
TABLE
  2
LAYER
  5
1
330
0
100
AcDbSymbolTable
 70
6
  0
LAYER
  5
27
330
1
100
AcDbSymbolTableRecord
100
AcDbLayerTableRecord
  2
0
 70
0
 62
7
  6
Continuous
370
-3
390
13
  0
LAYER
  5
28
330
1
100
AcDbSymbolTableRecord
100
AcDbLayerTableRecord
  2
Defpoints
 70
0
 62
7
  6
Continuous
290
0
370
-3
390
13
  0
LAYER
  5
2F
330
1
100
AcDbSymbolTableRecord
100
AcDbLayerTableRecord
  2
CUT
 70
0
 62
1
  6
CONTINUOUS
370
-3
390
13
  0
LAYER
  5
30
330
1
100
AcDbSymbolTableRecord
100
AcDbLayerTableRecord
  2
DRILL
 70
0
 62
5
  6
CONTINUOUS
370
-3
390
13
  0
LAYER
  5
31
330
1
100
AcDbSymbolTableRecord
100
AcDbLayerTableRecord
  2
DIMENSION
 70
0
 62
3
  6
CONTINUOUS
370
-3
390
13
  0
LAYER
  5
32
330
1
100
AcDbSymbolTableRecord
100
AcDbLayerTableRecord
  2
ANNOTATION
 70
0
 62
6
  6
CONTINUOUS
370
-3
390
13
  0
ENDTAB
  0
TABLE
  2
STYLE
  5
5
330
0
100
AcDbSymbolTable
 70
1
  0
STYLE
  5
29
330
5
100
AcDbSymbolTableRecord
100
AcDbTextStyleTableRecord
  2
Standard
 70
0
 40
0.0
 41
1.0
 50
0.0
 71
0
 42
2.5
  3
txt
  4

  0
ENDTAB
  0
TABLE
  2
VIEW
  5
7
330
0
100
AcDbSymbolTable
 70
0
  0
ENDTAB
  0
TABLE
  2
UCS
  5
6
330
0
100
AcDbSymbolTable
 70
0
  0
ENDTAB
  0
TABLE
  2
APPID
  5
3
330
0
100
AcDbSymbolTable
 70
3
  0
APPID
  5
2A
330
3
100
AcDbSymbolTableRecord
100
AcDbRegAppTableRecord
  2
ACAD
 70
0
  0
APPID
  5
396
330
3
100
AcDbSymbolTableRecord
100
AcDbRegAppTableRecord
  2
HATCHBACKGROUNDCOLOR
 70
0
  0
APPID
  5
397
330
3
100
AcDbSymbolTableRecord
100
AcDbRegAppTableRecord
  2
EZDXF
 70
0
  0
ENDTAB
  0
TABLE
  2
DIMSTYLE
  5
4
330
0
100
AcDbSymbolTable
 70
1
100
AcDbDimStyleTable
  0
DIMSTYLE
105
2B
330
4
100
AcDbSymbolTableRecord
100
AcDbDimStyleTableRecord
  2
Standard
 70
0
  3

  4

 40
1.0
 41
2.5
 42
0.625
 43
3.75
 44
1.25
 45
0.0
 46
0.0
 47
0.0
 48
0.0
140
2.5
141
2.5
142
0.0
143
0.03937007874
144
1.0
145
0.0
146
1.0
147
0.625
148
0.0
 71
0
 72
0
 73
0
 74
0
 75
0
 76
0
 77
1
 78
8
 79
3
170
0
171
3
172
1
173
0
174
0
175
0
176
0
177
0
178
0
179
2
271
2
272
2
273
2
274
3
275
0
276
0
277
2
278
44
279
0
280
0
281
0
282
0
283
0
284
8
285
0
286
0
288
0
289
3
371
-2
372
-2
  0
ENDTAB
  0
TABLE
  2
BLOCK_RECORD
  5
9
330
0
100
AcDbSymbolTable
 70
33
  0
BLOCK_RECORD
  5
17
330
9
100
AcDbSymbolTableRecord
100
AcDbBlockTableRecord
  2
*Model_Space
340
1A
  0
BLOCK_RECORD
  5
1B
330
9
100
AcDbSymbolTableRecord
100
AcDbBlockTableRecord
  2
*Paper_Space
340
1E
  0
BLOCK_RECORD
  5
1AD
330
9
100
AcDbSymbolTableRecord
100
AcDbBlockTableRecord
  2
*D1
340
0
  0
BLOCK_RECORD
  5
1B2
330
9
100
AcDbSymbolTableRecord
100
AcDbBlockTableRecord
  2
_CLOSEDFILLED
340
0
  0
BLOCK_RECORD
  5
1C1
330
9
100
AcDbSymbolTableRecord
100
AcDbBlockTableRecord
  2
*D2
340
0
  0
BLOCK_RECORD
  5
1D1
330
9
100
AcDbSymbolTableRecord
100
AcDbBlockTableRecord
  2
*D3
340
0
  0
BLOCK_RECORD
  5
1E1
330
9
100
AcDbSymbolTableRecord
100
AcDbBlockTableRecord
  2
*D4
340
0
  0
BLOCK_RECORD
  5
1F1
330
9
100
AcDbSymbolTableRecord
100
AcDbBlockTableRecord
  2
*D5
340
0
  0
BLOCK_RECORD
  5
201
330
9
100
AcDbSymbolTableRecord
100
AcDbBlockTableRecord
  2
*D6
340
0
  0
BLOCK_RECORD
  5
211
330
9
100
AcDbSymbolTableRecord
100
AcDbBlockTableRecord
  2
*D7
340
0
  0
BLOCK_RECORD
  5
221
330
9
100
AcDbSymbolTableRecord
100
AcDbBlockTableRecord
  2
*D8
340
0
  0
BLOCK_RECORD
  5
231
330
9
100
AcDbSymbolTableRecord
100
AcDbBlockTableRecord
  2
*D9
340
0
  0
BLOCK_RECORD
  5
241
330
9
100
AcDbSymbolTableRecord
100
AcDbBlockTableRecord
  2
*D10
340
0
  0
BLOCK_RECORD
  5
251
330
9
100
AcDbSymbolTableRecord
100
AcDbBlockTableRecord
  2
*D11
340
0
  0
BLOCK_RECORD
  5
261
330
9
100
AcDbSymbolTableRecord
100
AcDbBlockTableRecord
  2
*D12
340
0
  0
BLOCK_RECORD
  5
271
330
9
100
AcDbSymbolTableRecord
100
AcDbBlockTableRecord
  2
*D13
340
0
  0
BLOCK_RECORD
  5
281
330
9
100
AcDbSymbolTableRecord
100
AcDbBlockTableRecord
  2
*D14
340
0
  0
BLOCK_RECORD
  5
291
330
9
100
AcDbSymbolTableRecord
100
AcDbBlockTableRecord
  2
*D15
340
0
  0
BLOCK_RECORD
  5
2A1
330
9
100
AcDbSymbolTableRecord
100
AcDbBlockTableRecord
  2
*D16
340
0
  0
BLOCK_RECORD
  5
2B1
330
9
100
AcDbSymbolTableRecord
100
AcDbBlockTableRecord
  2
*D17
340
0
  0
BLOCK_RECORD
  5
2C1
330
9
100
AcDbSymbolTableRecord
100
AcDbBlockTableRecord
  2
*D18
340
0
  0
BLOCK_RECORD
  5
2D1
330
9
100
AcDbSymbolTableRecord
100
AcDbBlockTableRecord
  2
*D19
340
0
  0
BLOCK_RECORD
  5
2E1
330
9
100
AcDbSymbolTableRecord
100
AcDbBlockTableRecord
  2
*D20
340
0
  0
BLOCK_RECORD
  5
2F1
330
9
100
AcDbSymbolTableRecord
100
AcDbBlockTableRecord
  2
*D21
340
0
  0
BLOCK_RECORD
  5
301
330
9
100
AcDbSymbolTableRecord
100
AcDbBlockTableRecord
  2
*D22
340
0
  0
BLOCK_RECORD
  5
312
330
9
100
AcDbSymbolTableRecord
100
AcDbBlockTableRecord
  2
*D23
340
0
  0
BLOCK_RECORD
  5
322
330
9
100
AcDbSymbolTableRecord
100
AcDbBlockTableRecord
  2
*D24
340
0
  0
BLOCK_RECORD
  5
332
330
9
100
AcDbSymbolTableRecord
100
AcDbBlockTableRecord
  2
*D25
340
0
  0
BLOCK_RECORD
  5
342
330
9
100
AcDbSymbolTableRecord
100
AcDbBlockTableRecord
  2
*D26
340
0
  0
BLOCK_RECORD
  5
352
330
9
100
AcDbSymbolTableRecord
100
AcDbBlockTableRecord
  2
*D27
340
0
  0
BLOCK_RECORD
  5
362
330
9
100
AcDbSymbolTableRecord
100
AcDbBlockTableRecord
  2
*D28
340
0
  0
BLOCK_RECORD
  5
372
330
9
100
AcDbSymbolTableRecord
100
AcDbBlockTableRecord
  2
*D29
340
0
  0
BLOCK_RECORD
  5
382
330
9
100
AcDbSymbolTableRecord
100
AcDbBlockTableRecord
  2
*D30
340
0
  0
ENDTAB
  0
ENDSEC
  0
SECTION
  2
BLOCKS
  0
BLOCK
  5
18
330
17
100
AcDbEntity
  8
0
100
AcDbBlockBegin
  2
*Model_Space
 70
0
 10
0.0
 20
0.0
 30
0.0
  3
*Model_Space
  1

  0
ENDBLK
  5
19
330
17
100
AcDbEntity
  8
0
100
AcDbBlockEnd
  0
BLOCK
  5
1C
330
1B
100
AcDbEntity
  8
0
100
AcDbBlockBegin
  2
*Paper_Space
 70
0
 10
0.0
 20
0.0
 30
0.0
  3
*Paper_Space
  1

  0
ENDBLK
  5
1D
330
1B
100
AcDbEntity
  8
0
100
AcDbBlockEnd
  0
BLOCK
  5
1AE
330
1AD
100
AcDbEntity
  8
0
100
AcDbBlockBegin
  2
*D1
 70
1
 10
0.0
 20
0.0
 30
0.0
  3
*D1
  1

  0
LINE
  5
1B0
330
1AD
100
AcDbEntity
  8
0
100
AcDbLine
 10
0.0
 20
0.0
 30
0.0
 11
0.0
 21
-25.0
 31
0.0
  0
LINE
  5
1B1
330
1AD
100
AcDbEntity
  8
0
100
AcDbLine
 10
9.5
 20
0.0
 30
0.0
 11
9.5
 21
-25.0
 31
0.0
  0
INSERT
  5
1B6
330
1AD
100
AcDbEntity
  8
DIMENSION
100
AcDbBlockReference
  2
_CLOSEDFILLED
 10
0.0
 20
-25.0
 30
0.0
 41
0.25
 42
0.25
 50
180.0
  0
INSERT
  5
1B8
330
1AD
100
AcDbEntity
  8
DIMENSION
100
AcDbBlockReference
  2
_CLOSEDFILLED
 10
9.5
 20
-25.0
 30
0.0
 41
0.25
 42
0.25
  0
LINE
  5
1BA
330
1AD
100
AcDbEntity
  8
0
100
AcDbLine
 10
0.25
 20
-25.0
 30
0.0
 11
3.25
 21
-25.0
 31
0.0
  0
LINE
  5
1BB
330
1AD
100
AcDbEntity
  8
0
100
AcDbLine
 10
6.25
 20
-25.0
 30
0.0
 11
9.25
 21
-25.0
 31
0.0
  0
MTEXT
  5
1BC
330
1AD
100
AcDbEntity
  8
DIMENSION
100
AcDbMText
 10
4.75
 20
-25.0
 30
0.0
 40
1.0
 71
5
  1
9,5
  0
POINT
  5
1BD
330
1AD
100
AcDbEntity
  8
Defpoints
100
AcDbPoint
 10
0.0
 20
-25.0
 30
0.0
  0
POINT
  5
1BE
330
1AD
100
AcDbEntity
  8
Defpoints
100
AcDbPoint
 10
0.0
 20
0.0
 30
0.0
  0
POINT
  5
1BF
330
1AD
100
AcDbEntity
  8
Defpoints
100
AcDbPoint
 10
9.5
 20
0.0
 30
0.0
  0
ENDBLK
  5
1AF
330
1AD
100
AcDbEntity
  8
0
100
AcDbBlockEnd
  0
BLOCK
  5
1B3
330
1B2
100
AcDbEntity
  8
0
100
AcDbBlockBegin
  2
_CLOSEDFILLED
 70
0
 10
0.0
 20
0.0
 30
0.0
  3
_CLOSEDFILLED
  1

  0
SOLID
  5
1B5
330
1B2
100
AcDbEntity
  8
0
  6
BYBLOCK
 62
0
100
AcDbTrace
 10
-1.0
 20
0.16439898372402537
 30
0.0
 11
0.0
 21
0.0
 31
0.0
 12
-1.0
 22
-0.16439898372402537
 32
0.0
 13
-1.0
 23
-0.16439898372402537
 33
0.0
  0
ENDBLK
  5
1B4
330
1B2
100
AcDbEntity
  8
0
100
AcDbBlockEnd
  0
BLOCK
  5
1C2
330
1C1
100
AcDbEntity
  8
0
100
AcDbBlockBegin
  2
*D2
 70
1
 10
0.0
 20
0.0
 30
0.0
  3
*D2
  1

  0
LINE
  5
1C4
330
1C1
100
AcDbEntity
  8
0
100
AcDbLine
 10
0.0
 20
0.0
 30
0.0
 11
0.0
 21
-37.0
 31
0.0
  0
LINE
  5
1C5
330
1C1
100
AcDbEntity
  8
0
100
AcDbLine
 10
101.5
 20
0.0
 30
0.0
 11
101.5
 21
-37.0
 31
0.0
  0
INSERT
  5
1C6
330
1C1
100
AcDbEntity
  8
DIMENSION
100
AcDbBlockReference
  2
_CLOSEDFILLED
 10
0.0
 20
-37.0
 30
0.0
 41
0.25
 42
0.25
 50
180.0
  0
INSERT
  5
1C8
330
1C1
100
AcDbEntity
  8
DIMENSION
100
AcDbBlockReference
  2
_CLOSEDFILLED
 10
101.5
 20
-37.0
 30
0.0
 41
0.25
 42
0.25
  0
LINE
  5
1CA
330
1C1
100
AcDbEntity
  8
0
100
AcDbLine
 10
0.25
 20
-37.0
 30
0.0
 11
48.25
 21
-37.0
 31
0.0
  0
LINE
  5
1CB
330
1C1
100
AcDbEntity
  8
0
100
AcDbLine
 10
53.25
 20
-37.0
 30
0.0
 11
101.25
 21
-37.0
 31
0.0
  0
MTEXT
  5
1CC
330
1C1
100
AcDbEntity
  8
DIMENSION
100
AcDbMText
 10
50.75
 20
-37.0
 30
0.0
 40
1.0
 71
5
  1
101,5
  0
POINT
  5
1CD
330
1C1
100
AcDbEntity
  8
Defpoints
100
AcDbPoint
 10
0.0
 20
-37.0
 30
0.0
  0
POINT
  5
1CE
330
1C1
100
AcDbEntity
  8
Defpoints
100
AcDbPoint
 10
0.0
 20
0.0
 30
0.0
  0
POINT
  5
1CF
330
1C1
100
AcDbEntity
  8
Defpoints
100
AcDbPoint
 10
101.5
 20
0.0
 30
0.0
  0
ENDBLK
  5
1C3
330
1C1
100
AcDbEntity
  8
0
100
AcDbBlockEnd
  0
BLOCK
  5
1D2
330
1D1
100
AcDbEntity
  8
0
100
AcDbBlockBegin
  2
*D3
 70
1
 10
0.0
 20
0.0
 30
0.0
  3
*D3
  1

  0
LINE
  5
1D4
330
1D1
100
AcDbEntity
  8
0
100
AcDbLine
 10
0.0
 20
0.0
 30
0.0
 11
0.0
 21
-49.0
 31
0.0
  0
LINE
  5
1D5
330
1D1
100
AcDbEntity
  8
0
100
AcDbLine
 10
311.5
 20
0.0
 30
0.0
 11
311.5
 21
-49.0
 31
0.0
  0
INSERT
  5
1D6
330
1D1
100
AcDbEntity
  8
DIMENSION
100
AcDbBlockReference
  2
_CLOSEDFILLED
 10
0.0
 20
-49.0
 30
0.0
 41
0.25
 42
0.25
 50
180.0
  0
INSERT
  5
1D8
330
1D1
100
AcDbEntity
  8
DIMENSION
100
AcDbBlockReference
  2
_CLOSEDFILLED
 10
311.5
 20
-49.0
 30
0.0
 41
0.25
 42
0.25
  0
LINE
  5
1DA
330
1D1
100
AcDbEntity
  8
0
100
AcDbLine
 10
0.25
 20
-49.0
 30
0.0
 11
153.25
 21
-49.0
 31
0.0
  0
LINE
  5
1DB
330
1D1
100
AcDbEntity
  8
0
100
AcDbLine
 10
158.25
 20
-49.0
 30
0.0
 11
311.25
 21
-49.0
 31
0.0
  0
MTEXT
  5
1DC
330
1D1
100
AcDbEntity
  8
DIMENSION
100
AcDbMText
 10
155.75
 20
-49.0
 30
0.0
 40
1.0
 71
5
  1
311,5
  0
POINT
  5
1DD
330
1D1
100
AcDbEntity
  8
Defpoints
100
AcDbPoint
 10
0.0
 20
-49.0
 30
0.0
  0
POINT
  5
1DE
330
1D1
100
AcDbEntity
  8
Defpoints
100
AcDbPoint
 10
0.0
 20
0.0
 30
0.0
  0
POINT
  5
1DF
330
1D1
100
AcDbEntity
  8
Defpoints
100
AcDbPoint
 10
311.5
 20
0.0
 30
0.0
  0
ENDBLK
  5
1D3
330
1D1
100
AcDbEntity
  8
0
100
AcDbBlockEnd
  0
BLOCK
  5
1E2
330
1E1
100
AcDbEntity
  8
0
100
AcDbBlockBegin
  2
*D4
 70
1
 10
0.0
 20
0.0
 30
0.0
  3
*D4
  1

  0
LINE
  5
1E4
330
1E1
100
AcDbEntity
  8
0
100
AcDbLine
 10
0.0
 20
0.0
 30
0.0
 11
0.0
 21
-61.0
 31
0.0
  0
LINE
  5
1E5
330
1E1
100
AcDbEntity
  8
0
100
AcDbLine
 10
521.5
 20
0.0
 30
0.0
 11
521.5
 21
-61.0
 31
0.0
  0
INSERT
  5
1E6
330
1E1
100
AcDbEntity
  8
DIMENSION
100
AcDbBlockReference
  2
_CLOSEDFILLED
 10
0.0
 20
-61.0
 30
0.0
 41
0.25
 42
0.25
 50
180.0
  0
INSERT
  5
1E8
330
1E1
100
AcDbEntity
  8
DIMENSION
100
AcDbBlockReference
  2
_CLOSEDFILLED
 10
521.5
 20
-61.0
 30
0.0
 41
0.25
 42
0.25
  0
LINE
  5
1EA
330
1E1
100
AcDbEntity
  8
0
100
AcDbLine
 10
0.25
 20
-61.0
 30
0.0
 11
258.25
 21
-61.0
 31
0.0
  0
LINE
  5
1EB
330
1E1
100
AcDbEntity
  8
0
100
AcDbLine
 10
263.25
 20
-61.0
 30
0.0
 11
521.25
 21
-61.0
 31
0.0
  0
MTEXT
  5
1EC
330
1E1
100
AcDbEntity
  8
DIMENSION
100
AcDbMText
 10
260.75
 20
-61.0
 30
0.0
 40
1.0
 71
5
  1
521,5
  0
POINT
  5
1ED
330
1E1
100
AcDbEntity
  8
Defpoints
100
AcDbPoint
 10
0.0
 20
-61.0
 30
0.0
  0
POINT
  5
1EE
330
1E1
100
AcDbEntity
  8
Defpoints
100
AcDbPoint
 10
0.0
 20
0.0
 30
0.0
  0
POINT
  5
1EF
330
1E1
100
AcDbEntity
  8
Defpoints
100
AcDbPoint
 10
521.5
 20
0.0
 30
0.0
  0
ENDBLK
  5
1E3
330
1E1
100
AcDbEntity
  8
0
100
AcDbBlockEnd
  0
BLOCK
  5
1F2
330
1F1
100
AcDbEntity
  8
0
100
AcDbBlockBegin
  2
*D5
 70
1
 10
0.0
 20
0.0
 30
0.0
  3
*D5
  1

  0
LINE
  5
1F4
330
1F1
100
AcDbEntity
  8
0
100
AcDbLine
 10
0.0
 20
0.0
 30
0.0
 11
0.0
 21
-73.0
 31
0.0
  0
LINE
  5
1F5
330
1F1
100
AcDbEntity
  8
0
100
AcDbLine
 10
731.5
 20
0.0
 30
0.0
 11
731.5
 21
-73.0
 31
0.0
  0
INSERT
  5
1F6
330
1F1
100
AcDbEntity
  8
DIMENSION
100
AcDbBlockReference
  2
_CLOSEDFILLED
 10
0.0
 20
-73.0
 30
0.0
 41
0.25
 42
0.25
 50
180.0
  0
INSERT
  5
1F8
330
1F1
100
AcDbEntity
  8
DIMENSION
100
AcDbBlockReference
  2
_CLOSEDFILLED
 10
731.5
 20
-73.0
 30
0.0
 41
0.25
 42
0.25
  0
LINE
  5
1FA
330
1F1
100
AcDbEntity
  8
0
100
AcDbLine
 10
0.25
 20
-73.0
 30
0.0
 11
363.25
 21
-73.0
 31
0.0
  0
LINE
  5
1FB
330
1F1
100
AcDbEntity
  8
0
100
AcDbLine
 10
368.25
 20
-73.0
 30
0.0
 11
731.25
 21
-73.0
 31
0.0
  0
MTEXT
  5
1FC
330
1F1
100
AcDbEntity
  8
DIMENSION
100
AcDbMText
 10
365.75
 20
-73.0
 30
0.0
 40
1.0
 71
5
  1
731,5
  0
POINT
  5
1FD
330
1F1
100
AcDbEntity
  8
Defpoints
100
AcDbPoint
 10
0.0
 20
-73.0
 30
0.0
  0
POINT
  5
1FE
330
1F1
100
AcDbEntity
  8
Defpoints
100
AcDbPoint
 10
0.0
 20
0.0
 30
0.0
  0
POINT
  5
1FF
330
1F1
100
AcDbEntity
  8
Defpoints
100
AcDbPoint
 10
731.5
 20
0.0
 30
0.0
  0
ENDBLK
  5
1F3
330
1F1
100
AcDbEntity
  8
0
100
AcDbBlockEnd
  0
BLOCK
  5
202
330
201
100
AcDbEntity
  8
0
100
AcDbBlockBegin
  2
*D6
 70
1
 10
0.0
 20
0.0
 30
0.0
  3
*D6
  1

  0
LINE
  5
204
330
201
100
AcDbEntity
  8
0
100
AcDbLine
 10
0.0
 20
0.0
 30
0.0
 11
0.0
 21
-85.0
 31
0.0
  0
LINE
  5
205
330
201
100
AcDbEntity
  8
0
100
AcDbLine
 10
941.5
 20
0.0
 30
0.0
 11
941.5
 21
-85.0
 31
0.0
  0
INSERT
  5
206
330
201
100
AcDbEntity
  8
DIMENSION
100
AcDbBlockReference
  2
_CLOSEDFILLED
 10
0.0
 20
-85.0
 30
0.0
 41
0.25
 42
0.25
 50
180.0
  0
INSERT
  5
208
330
201
100
AcDbEntity
  8
DIMENSION
100
AcDbBlockReference
  2
_CLOSEDFILLED
 10
941.5
 20
-85.0
 30
0.0
 41
0.25
 42
0.25
  0
LINE
  5
20A
330
201
100
AcDbEntity
  8
0
100
AcDbLine
 10
0.25
 20
-85.0
 30
0.0
 11
468.25
 21
-85.0
 31
0.0
  0
LINE
  5
20B
330
201
100
AcDbEntity
  8
0
100
AcDbLine
 10
473.25
 20
-85.0
 30
0.0
 11
941.25
 21
-85.0
 31
0.0
  0
MTEXT
  5
20C
330
201
100
AcDbEntity
  8
DIMENSION
100
AcDbMText
 10
470.75
 20
-85.0
 30
0.0
 40
1.0
 71
5
  1
941,5
  0
POINT
  5
20D
330
201
100
AcDbEntity
  8
Defpoints
100
AcDbPoint
 10
0.0
 20
-85.0
 30
0.0
  0
POINT
  5
20E
330
201
100
AcDbEntity
  8
Defpoints
100
AcDbPoint
 10
0.0
 20
0.0
 30
0.0
  0
POINT
  5
20F
330
201
100
AcDbEntity
  8
Defpoints
100
AcDbPoint
 10
941.5
 20
0.0
 30
0.0
  0
ENDBLK
  5
203
330
201
100
AcDbEntity
  8
0
100
AcDbBlockEnd
  0
BLOCK
  5
212
330
211
100
AcDbEntity
  8
0
100
AcDbBlockBegin
  2
*D7
 70
1
 10
0.0
 20
0.0
 30
0.0
  3
*D7
  1

  0
LINE
  5
214
330
211
100
AcDbEntity
  8
0
100
AcDbLine
 10
0.0
 20
0.0
 30
0.0
 11
0.0
 21
-97.0
 31
0.0
  0
LINE
  5
215
330
211
100
AcDbEntity
  8
0
100
AcDbLine
 10
2300.0
 20
0.0
 30
0.0
 11
2300.0
 21
-97.0
 31
0.0
  0
INSERT
  5
216
330
211
100
AcDbEntity
  8
DIMENSION
100
AcDbBlockReference
  2
_CLOSEDFILLED
 10
0.0
 20
-97.0
 30
0.0
 41
0.25
 42
0.25
 50
180.0
  0
INSERT
  5
218
330
211
100
AcDbEntity
  8
DIMENSION
100
AcDbBlockReference
  2
_CLOSEDFILLED
 10
2300.0
 20
-97.0
 30
0.0
 41
0.25
 42
0.25
  0
LINE
  5
21A
330
211
100
AcDbEntity
  8
0
100
AcDbLine
 10
0.25
 20
-97.0
 30
0.0
 11
1148.0
 21
-97.0
 31
0.0
  0
LINE
  5
21B
330
211
100
AcDbEntity
  8
0
100
AcDbLine
 10
1152.0
 20
-97.0
 30
0.0
 11
2299.75
 21
-97.0
 31
0.0
  0
MTEXT
  5
21C
330
211
100
AcDbEntity
  8
DIMENSION
100
AcDbMText
 10
1150.0
 20
-97.0
 30
0.0
 40
1.0
 71
5
  1
2300
  0
POINT
  5
21D
330
211
100
AcDbEntity
  8
Defpoints
100
AcDbPoint
 10
0.0
 20
-97.0
 30
0.0
  0
POINT
  5
21E
330
211
100
AcDbEntity
  8
Defpoints
100
AcDbPoint
 10
0.0
 20
0.0
 30
0.0
  0
POINT
  5
21F
330
211
100
AcDbEntity
  8
Defpoints
100
AcDbPoint
 10
2300.0
 20
0.0
 30
0.0
  0
ENDBLK
  5
213
330
211
100
AcDbEntity
  8
0
100
AcDbBlockEnd
  0
BLOCK
  5
222
330
221
100
AcDbEntity
  8
0
100
AcDbBlockBegin
  2
*D8
 70
1
 10
0.0
 20
0.0
 30
0.0
  3
*D8
  1

  0
LINE
  5
224
330
221
100
AcDbEntity
  8
0
100
AcDbLine
 10
2300.0
 20
230.0
 30
0.0
 11
2300.0
 21
255.0
 31
0.0
  0
LINE
  5
225
330
221
100
AcDbEntity
  8
0
100
AcDbLine
 10
2290.5
 20
230.0
 30
0.0
 11
2290.5
 21
255.0
 31
0.0
  0
INSERT
  5
226
330
221
100
AcDbEntity
  8
DIMENSION
100
AcDbBlockReference
  2
_CLOSEDFILLED
 10
2300.0
 20
255.0
 30
0.0
 41
0.25
 42
0.25
 50
180.0
  0
INSERT
  5
228
330
221
100
AcDbEntity
  8
DIMENSION
100
AcDbBlockReference
  2
_CLOSEDFILLED
 10
2290.5
 20
255.0
 30
0.0
 41
0.25
 42
0.25
  0
LINE
  5
22A
330
221
100
AcDbEntity
  8
0
100
AcDbLine
 10
2300.25
 20
255.0
 30
0.0
 11
2296.75
 21
255.0
 31
0.0
  0
LINE
  5
22B
330
221
100
AcDbEntity
  8
0
100
AcDbLine
 10
2293.75
 20
255.0
 30
0.0
 11
2290.25
 21
255.0
 31
0.0
  0
MTEXT
  5
22C
330
221
100
AcDbEntity
  8
DIMENSION
100
AcDbMText
 10
2295.25
 20
255.0
 30
0.0
 40
1.0
 71
5
  1
9,5
  0
POINT
  5
22D
330
221
100
AcDbEntity
  8
Defpoints
100
AcDbPoint
 10
2300.0
 20
255.0
 30
0.0
  0
POINT
  5
22E
330
221
100
AcDbEntity
  8
Defpoints
100
AcDbPoint
 10
2300.0
 20
230.0
 30
0.0
  0
POINT
  5
22F
330
221
100
AcDbEntity
  8
Defpoints
100
AcDbPoint
 10
2290.5
 20
230.0
 30
0.0
  0
ENDBLK
  5
223
330
221
100
AcDbEntity
  8
0
100
AcDbBlockEnd
  0
BLOCK
  5
232
330
231
100
AcDbEntity
  8
0
100
AcDbBlockBegin
  2
*D9
 70
1
 10
0.0
 20
0.0
 30
0.0
  3
*D9
  1

  0
LINE
  5
234
330
231
100
AcDbEntity
  8
0
100
AcDbLine
 10
2300.0
 20
230.0
 30
0.0
 11
2300.0
 21
267.0
 31
0.0
  0
LINE
  5
235
330
231
100
AcDbEntity
  8
0
100
AcDbLine
 10
1959.83
 20
230.0
 30
0.0
 11
1959.83
 21
267.0
 31
0.0
  0
INSERT
  5
236
330
231
100
AcDbEntity
  8
DIMENSION
100
AcDbBlockReference
  2
_CLOSEDFILLED
 10
2300.0
 20
267.0
 30
0.0
 41
0.25
 42
0.25
 50
180.0
  0
INSERT
  5
238
330
231
100
AcDbEntity
  8
DIMENSION
100
AcDbBlockReference
  2
_CLOSEDFILLED
 10
1959.83
 20
267.0
 30
0.0
 41
0.25
 42
0.25
  0
LINE
  5
23A
330
231
100
AcDbEntity
  8
0
100
AcDbLine
 10
2300.25
 20
267.0
 30
0.0
 11
2132.915
 21
267.0
 31
0.0
  0
LINE
  5
23B
330
231
100
AcDbEntity
  8
0
100
AcDbLine
 10
2126.915
 20
267.0
 30
0.0
 11
1959.58
 21
267.0
 31
0.0
  0
MTEXT
  5
23C
330
231
100
AcDbEntity
  8
DIMENSION
100
AcDbMText
 10
2129.915
 20
267.0
 30
0.0
 40
1.0
 71
5
  1
340,17
  0
POINT
  5
23D
330
231
100
AcDbEntity
  8
Defpoints
100
AcDbPoint
 10
2300.0
 20
267.0
 30
0.0
  0
POINT
  5
23E
330
231
100
AcDbEntity
  8
Defpoints
100
AcDbPoint
 10
2300.0
 20
230.0
 30
0.0
  0
POINT
  5
23F
330
231
100
AcDbEntity
  8
Defpoints
100
AcDbPoint
 10
1959.83
 20
230.0
 30
0.0
  0
ENDBLK
  5
233
330
231
100
AcDbEntity
  8
0
100
AcDbBlockEnd
  0
BLOCK
  5
242
330
241
100
AcDbEntity
  8
0
100
AcDbBlockBegin
  2
*D10
 70
1
 10
0.0
 20
0.0
 30
0.0
  3
*D10
  1

  0
LINE
  5
244
330
241
100
AcDbEntity
  8
0
100
AcDbLine
 10
2300.0
 20
230.0
 30
0.0
 11
2300.0
 21
279.0
 31
0.0
  0
LINE
  5
245
330
241
100
AcDbEntity
  8
0
100
AcDbLine
 10
1629.17
 20
230.0
 30
0.0
 11
1629.17
 21
279.0
 31
0.0
  0
INSERT
  5
246
330
241
100
AcDbEntity
  8
DIMENSION
100
AcDbBlockReference
  2
_CLOSEDFILLED
 10
2300.0
 20
279.0
 30
0.0
 41
0.25
 42
0.25
 50
180.0
  0
INSERT
  5
248
330
241
100
AcDbEntity
  8
DIMENSION
100
AcDbBlockReference
  2
_CLOSEDFILLED
 10
1629.17
 20
279.0
 30
0.0
 41
0.25
 42
0.25
  0
LINE
  5
24A
330
241
100
AcDbEntity
  8
0
100
AcDbLine
 10
2300.25
 20
279.0
 30
0.0
 11
1967.585
 21
279.0
 31
0.0
  0
LINE
  5
24B
330
241
100
AcDbEntity
  8
0
100
AcDbLine
 10
1961.585
 20
279.0
 30
0.0
 11
1628.92
 21
279.0
 31
0.0
  0
MTEXT
  5
24C
330
241
100
AcDbEntity
  8
DIMENSION
100
AcDbMText
 10
1964.585
 20
279.0
 30
0.0
 40
1.0
 71
5
  1
670,83
  0
POINT
  5
24D
330
241
100
AcDbEntity
  8
Defpoints
100
AcDbPoint
 10
2300.0
 20
279.0
 30
0.0
  0
POINT
  5
24E
330
241
100
AcDbEntity
  8
Defpoints
100
AcDbPoint
 10
2300.0
 20
230.0
 30
0.0
  0
POINT
  5
24F
330
241
100
AcDbEntity
  8
Defpoints
100
AcDbPoint
 10
1629.17
 20
230.0
 30
0.0
  0
ENDBLK
  5
243
330
241
100
AcDbEntity
  8
0
100
AcDbBlockEnd
  0
BLOCK
  5
252
330
251
100
AcDbEntity
  8
0
100
AcDbBlockBegin
  2
*D11
 70
1
 10
0.0
 20
0.0
 30
0.0
  3
*D11
  1

  0
LINE
  5
254
330
251
100
AcDbEntity
  8
0
100
AcDbLine
 10
2300.0
 20
230.0
 30
0.0
 11
2300.0
 21
291.0
 31
0.0
  0
LINE
  5
255
330
251
100
AcDbEntity
  8
0
100
AcDbLine
 10
1298.5
 20
230.0
 30
0.0
 11
1298.5
 21
291.0
 31
0.0
  0
INSERT
  5
256
330
251
100
AcDbEntity
  8
DIMENSION
100
AcDbBlockReference
  2
_CLOSEDFILLED
 10
2300.0
 20
291.0
 30
0.0
 41
0.25
 42
0.25
 50
180.0
  0
INSERT
  5
258
330
251
100
AcDbEntity
  8
DIMENSION
100
AcDbBlockReference
  2
_CLOSEDFILLED
 10
1298.5
 20
291.0
 30
0.0
 41
0.25
 42
0.25
  0
LINE
  5
25A
330
251
100
AcDbEntity
  8
0
100
AcDbLine
 10
2300.25
 20
291.0
 30
0.0
 11
1802.25
 21
291.0
 31
0.0
  0
LINE
  5
25B
330
251
100
AcDbEntity
  8
0
100
AcDbLine
 10
1796.25
 20
291.0
 30
0.0
 11
1298.25
 21
291.0
 31
0.0
  0
MTEXT
  5
25C
330
251
100
AcDbEntity
  8
DIMENSION
100
AcDbMText
 10
1799.25
 20
291.0
 30
0.0
 40
1.0
 71
5
  1
1001,5
  0
POINT
  5
25D
330
251
100
AcDbEntity
  8
Defpoints
100
AcDbPoint
 10
2300.0
 20
291.0
 30
0.0
  0
POINT
  5
25E
330
251
100
AcDbEntity
  8
Defpoints
100
AcDbPoint
 10
2300.0
 20
230.0
 30
0.0
  0
POINT
  5
25F
330
251
100
AcDbEntity
  8
Defpoints
100
AcDbPoint
 10
1298.5
 20
230.0
 30
0.0
  0
ENDBLK
  5
253
330
251
100
AcDbEntity
  8
0
100
AcDbBlockEnd
  0
BLOCK
  5
262
330
261
100
AcDbEntity
  8
0
100
AcDbBlockBegin
  2
*D12
 70
1
 10
0.0
 20
0.0
 30
0.0
  3
*D12
  1

  0
LINE
  5
264
330
261
100
AcDbEntity
  8
0
100
AcDbLine
 10
2300.0
 20
230.0
 30
0.0
 11
2300.0
 21
303.0
 31
0.0
  0
LINE
  5
265
330
261
100
AcDbEntity
  8
0
100
AcDbLine
 10
1151.5
 20
230.0
 30
0.0
 11
1151.5
 21
303.0
 31
0.0
  0
INSERT
  5
266
330
261
100
AcDbEntity
  8
DIMENSION
100
AcDbBlockReference
  2
_CLOSEDFILLED
 10
2300.0
 20
303.0
 30
0.0
 41
0.25
 42
0.25
 50
180.0
  0
INSERT
  5
268
330
261
100
AcDbEntity
  8
DIMENSION
100
AcDbBlockReference
  2
_CLOSEDFILLED
 10
1151.5
 20
303.0
 30
0.0
 41
0.25
 42
0.25
  0
LINE
  5
26A
330
261
100
AcDbEntity
  8
0
100
AcDbLine
 10
2300.25
 20
303.0
 30
0.0
 11
1728.75
 21
303.0
 31
0.0
  0
LINE
  5
26B
330
261
100
AcDbEntity
  8
0
100
AcDbLine
 10
1722.75
 20
303.0
 30
0.0
 11
1151.25
 21
303.0
 31
0.0
  0
MTEXT
  5
26C
330
261
100
AcDbEntity
  8
DIMENSION
100
AcDbMText
 10
1725.75
 20
303.0
 30
0.0
 40
1.0
 71
5
  1
1148,5
  0
POINT
  5
26D
330
261
100
AcDbEntity
  8
Defpoints
100
AcDbPoint
 10
2300.0
 20
303.0
 30
0.0
  0
POINT
  5
26E
330
261
100
AcDbEntity
  8
Defpoints
100
AcDbPoint
 10
2300.0
 20
230.0
 30
0.0
  0
POINT
  5
26F
330
261
100
AcDbEntity
  8
Defpoints
100
AcDbPoint
 10
1151.5
 20
230.0
 30
0.0
  0
ENDBLK
  5
263
330
261
100
AcDbEntity
  8
0
100
AcDbBlockEnd
  0
BLOCK
  5
272
330
271
100
AcDbEntity
  8
0
100
AcDbBlockBegin
  2
*D13
 70
1
 10
0.0
 20
0.0
 30
0.0
  3
*D13
  1

  0
LINE
  5
274
330
271
100
AcDbEntity
  8
0
100
AcDbLine
 10
0.0
 20
0.0
 30
0.0
 11
-25.0
 21
0.0
 31
0.0
  0
LINE
  5
275
330
271
100
AcDbEntity
  8
0
100
AcDbLine
 10
0.0
 20
6.5
 30
0.0
 11
-25.0
 21
6.5
 31
0.0
  0
INSERT
  5
276
330
271
100
AcDbEntity
  8
DIMENSION
100
AcDbBlockReference
  2
_CLOSEDFILLED
 10
-25.0
 20
0.0
 30
0.0
 41
0.25
 42
0.25
 50
270.0
  0
INSERT
  5
278
330
271
100
AcDbEntity
  8
DIMENSION
100
AcDbBlockReference
  2
_CLOSEDFILLED
 10
-25.0
 20
6.5
 30
0.0
 41
0.25
 42
0.25
 50
90.0
  0
LINE
  5
27A
330
271
100
AcDbEntity
  8
0
100
AcDbLine
 10
-25.0
 20
0.25
 30
0.0
 11
-25.0
 21
1.75
 31
0.0
  0
LINE
  5
27B
330
271
100
AcDbEntity
  8
0
100
AcDbLine
 10
-25.0
 20
4.75
 30
0.0
 11
-25.0
 21
6.25
 31
0.0
  0
MTEXT
  5
27C
330
271
100
AcDbEntity
  8
DIMENSION
100
AcDbMText
 10
-25.0
 20
3.25
 30
0.0
 40
1.0
 71
5
  1
6,5
 50
90.0
  0
POINT
  5
27D
330
271
100
AcDbEntity
  8
Defpoints
100
AcDbPoint
 10
-25.0
 20
0.0
 30
0.0
  0
POINT
  5
27E
330
271
100
AcDbEntity
  8
Defpoints
100
AcDbPoint
 10
0.0
 20
0.0
 30
0.0
  0
POINT
  5
27F
330
271
100
AcDbEntity
  8
Defpoints
100
AcDbPoint
 10
0.0
 20
6.5
 30
0.0
  0
ENDBLK
  5
273
330
271
100
AcDbEntity
  8
0
100
AcDbBlockEnd
  0
BLOCK
  5
282
330
281
100
AcDbEntity
  8
0
100
AcDbBlockBegin
  2
*D14
 70
1
 10
0.0
 20
0.0
 30
0.0
  3
*D14
  1

  0
LINE
  5
284
330
281
100
AcDbEntity
  8
0
100
AcDbLine
 10
0.0
 20
0.0
 30
0.0
 11
-37.0
 21
0.0
 31
0.0
  0
LINE
  5
285
330
281
100
AcDbEntity
  8
0
100
AcDbLine
 10
0.0
 20
35.0
 30
0.0
 11
-37.0
 21
35.0
 31
0.0
  0
INSERT
  5
286
330
281
100
AcDbEntity
  8
DIMENSION
100
AcDbBlockReference
  2
_CLOSEDFILLED
 10
-37.0
 20
0.0
 30
0.0
 41
0.25
 42
0.25
 50
270.0
  0
INSERT
  5
288
330
281
100
AcDbEntity
  8
DIMENSION
100
AcDbBlockReference
  2
_CLOSEDFILLED
 10
-37.0
 20
35.0
 30
0.0
 41
0.25
 42
0.25
 50
90.0
  0
LINE
  5
28A
330
281
100
AcDbEntity
  8
0
100
AcDbLine
 10
-37.0
 20
0.25
 30
0.0
 11
-37.0
 21
16.5
 31
0.0
  0
LINE
  5
28B
330
281
100
AcDbEntity
  8
0
100
AcDbLine
 10
-37.0
 20
18.5
 30
0.0
 11
-37.0
 21
34.75
 31
0.0
  0
MTEXT
  5
28C
330
281
100
AcDbEntity
  8
DIMENSION
100
AcDbMText
 10
-37.0
 20
17.5
 30
0.0
 40
1.0
 71
5
  1
35
 50
90.0
  0
POINT
  5
28D
330
281
100
AcDbEntity
  8
Defpoints
100
AcDbPoint
 10
-37.0
 20
0.0
 30
0.0
  0
POINT
  5
28E
330
281
100
AcDbEntity
  8
Defpoints
100
AcDbPoint
 10
0.0
 20
0.0
 30
0.0
  0
POINT
  5
28F
330
281
100
AcDbEntity
  8
Defpoints
100
AcDbPoint
 10
0.0
 20
35.0
 30
0.0
  0
ENDBLK
  5
283
330
281
100
AcDbEntity
  8
0
100
AcDbBlockEnd
  0
BLOCK
  5
292
330
291
100
AcDbEntity
  8
0
100
AcDbBlockBegin
  2
*D15
 70
1
 10
0.0
 20
0.0
 30
0.0
  3
*D15
  1

  0
LINE
  5
294
330
291
100
AcDbEntity
  8
0
100
AcDbLine
 10
0.0
 20
0.0
 30
0.0
 11
-49.0
 21
0.0
 31
0.0
  0
LINE
  5
295
330
291
100
AcDbEntity
  8
0
100
AcDbLine
 10
0.0
 20
50.0
 30
0.0
 11
-49.0
 21
50.0
 31
0.0
  0
INSERT
  5
296
330
291
100
AcDbEntity
  8
DIMENSION
100
AcDbBlockReference
  2
_CLOSEDFILLED
 10
-49.0
 20
0.0
 30
0.0
 41
0.25
 42
0.25
 50
270.0
  0
INSERT
  5
298
330
291
100
AcDbEntity
  8
DIMENSION
100
AcDbBlockReference
  2
_CLOSEDFILLED
 10
-49.0
 20
50.0
 30
0.0
 41
0.25
 42
0.25
 50
90.0
  0
LINE
  5
29A
330
291
100
AcDbEntity
  8
0
100
AcDbLine
 10
-49.0
 20
0.25
 30
0.0
 11
-49.0
 21
24.0
 31
0.0
  0
LINE
  5
29B
330
291
100
AcDbEntity
  8
0
100
AcDbLine
 10
-49.0
 20
26.0
 30
0.0
 11
-49.0
 21
49.75
 31
0.0
  0
MTEXT
  5
29C
330
291
100
AcDbEntity
  8
DIMENSION
100
AcDbMText
 10
-49.0
 20
25.0
 30
0.0
 40
1.0
 71
5
  1
50
 50
90.0
  0
POINT
  5
29D
330
291
100
AcDbEntity
  8
Defpoints
100
AcDbPoint
 10
-49.0
 20
0.0
 30
0.0
  0
POINT
  5
29E
330
291
100
AcDbEntity
  8
Defpoints
100
AcDbPoint
 10
0.0
 20
0.0
 30
0.0
  0
POINT
  5
29F
330
291
100
AcDbEntity
  8
Defpoints
100
AcDbPoint
 10
0.0
 20
50.0
 30
0.0
  0
ENDBLK
  5
293
330
291
100
AcDbEntity
  8
0
100
AcDbBlockEnd
  0
BLOCK
  5
2A2
330
2A1
100
AcDbEntity
  8
0
100
AcDbBlockBegin
  2
*D16
 70
1
 10
0.0
 20
0.0
 30
0.0
  3
*D16
  1

  0
LINE
  5
2A4
330
2A1
100
AcDbEntity
  8
0
100
AcDbLine
 10
0.0
 20
0.0
 30
0.0
 11
-61.0
 21
0.0
 31
0.0
  0
LINE
  5
2A5
330
2A1
100
AcDbEntity
  8
0
100
AcDbLine
 10
0.0
 20
51.0
 30
0.0
 11
-61.0
 21
51.0
 31
0.0
  0
INSERT
  5
2A6
330
2A1
100
AcDbEntity
  8
DIMENSION
100
AcDbBlockReference
  2
_CLOSEDFILLED
 10
-61.0
 20
0.0
 30
0.0
 41
0.25
 42
0.25
 50
270.0
  0
INSERT
  5
2A8
330
2A1
100
AcDbEntity
  8
DIMENSION
100
AcDbBlockReference
  2
_CLOSEDFILLED
 10
-61.0
 20
51.0
 30
0.0
 41
0.25
 42
0.25
 50
90.0
  0
LINE
  5
2AA
330
2A1
100
AcDbEntity
  8
0
100
AcDbLine
 10
-61.0
 20
0.25
 30
0.0
 11
-61.0
 21
24.5
 31
0.0
  0
LINE
  5
2AB
330
2A1
100
AcDbEntity
  8
0
100
AcDbLine
 10
-61.0
 20
26.5
 30
0.0
 11
-61.0
 21
50.75
 31
0.0
  0
MTEXT
  5
2AC
330
2A1
100
AcDbEntity
  8
DIMENSION
100
AcDbMText
 10
-61.0
 20
25.5
 30
0.0
 40
1.0
 71
5
  1
51
 50
90.0
  0
POINT
  5
2AD
330
2A1
100
AcDbEntity
  8
Defpoints
100
AcDbPoint
 10
-61.0
 20
0.0
 30
0.0
  0
POINT
  5
2AE
330
2A1
100
AcDbEntity
  8
Defpoints
100
AcDbPoint
 10
0.0
 20
0.0
 30
0.0
  0
POINT
  5
2AF
330
2A1
100
AcDbEntity
  8
Defpoints
100
AcDbPoint
 10
0.0
 20
51.0
 30
0.0
  0
ENDBLK
  5
2A3
330
2A1
100
AcDbEntity
  8
0
100
AcDbBlockEnd
  0
BLOCK
  5
2B2
330
2B1
100
AcDbEntity
  8
0
100
AcDbBlockBegin
  2
*D17
 70
1
 10
0.0
 20
0.0
 30
0.0
  3
*D17
  1

  0
LINE
  5
2B4
330
2B1
100
AcDbEntity
  8
0
100
AcDbLine
 10
0.0
 20
0.0
 30
0.0
 11
-73.0
 21
0.0
 31
0.0
  0
LINE
  5
2B5
330
2B1
100
AcDbEntity
  8
0
100
AcDbLine
 10
0.0
 20
76.0
 30
0.0
 11
-73.0
 21
76.0
 31
0.0
  0
INSERT
  5
2B6
330
2B1
100
AcDbEntity
  8
DIMENSION
100
AcDbBlockReference
  2
_CLOSEDFILLED
 10
-73.0
 20
0.0
 30
0.0
 41
0.25
 42
0.25
 50
270.0
  0
INSERT
  5
2B8
330
2B1
100
AcDbEntity
  8
DIMENSION
100
AcDbBlockReference
  2
_CLOSEDFILLED
 10
-73.0
 20
76.0
 30
0.0
 41
0.25
 42
0.25
 50
90.0
  0
LINE
  5
2BA
330
2B1
100
AcDbEntity
  8
0
100
AcDbLine
 10
-73.0
 20
0.25
 30
0.0
 11
-73.0
 21
37.0
 31
0.0
  0
LINE
  5
2BB
330
2B1
100
AcDbEntity
  8
0
100
AcDbLine
 10
-73.0
 20
39.0
 30
0.0
 11
-73.0
 21
75.75
 31
0.0
  0
MTEXT
  5
2BC
330
2B1
100
AcDbEntity
  8
DIMENSION
100
AcDbMText
 10
-73.0
 20
38.0
 30
0.0
 40
1.0
 71
5
  1
76
 50
90.0
  0
POINT
  5
2BD
330
2B1
100
AcDbEntity
  8
Defpoints
100
AcDbPoint
 10
-73.0
 20
0.0
 30
0.0
  0
POINT
  5
2BE
330
2B1
100
AcDbEntity
  8
Defpoints
100
AcDbPoint
 10
0.0
 20
0.0
 30
0.0
  0
POINT
  5
2BF
330
2B1
100
AcDbEntity
  8
Defpoints
100
AcDbPoint
 10
0.0
 20
76.0
 30
0.0
  0
ENDBLK
  5
2B3
330
2B1
100
AcDbEntity
  8
0
100
AcDbBlockEnd
  0
BLOCK
  5
2C2
330
2C1
100
AcDbEntity
  8
0
100
AcDbBlockBegin
  2
*D18
 70
1
 10
0.0
 20
0.0
 30
0.0
  3
*D18
  1

  0
LINE
  5
2C4
330
2C1
100
AcDbEntity
  8
0
100
AcDbLine
 10
0.0
 20
0.0
 30
0.0
 11
-85.0
 21
0.0
 31
0.0
  0
LINE
  5
2C5
330
2C1
100
AcDbEntity
  8
0
100
AcDbLine
 10
0.0
 20
99.0
 30
0.0
 11
-85.0
 21
99.0
 31
0.0
  0
INSERT
  5
2C6
330
2C1
100
AcDbEntity
  8
DIMENSION
100
AcDbBlockReference
  2
_CLOSEDFILLED
 10
-85.0
 20
0.0
 30
0.0
 41
0.25
 42
0.25
 50
270.0
  0
INSERT
  5
2C8
330
2C1
100
AcDbEntity
  8
DIMENSION
100
AcDbBlockReference
  2
_CLOSEDFILLED
 10
-85.0
 20
99.0
 30
0.0
 41
0.25
 42
0.25
 50
90.0
  0
LINE
  5
2CA
330
2C1
100
AcDbEntity
  8
0
100
AcDbLine
 10
-85.0
 20
0.25
 30
0.0
 11
-85.0
 21
48.5
 31
0.0
  0
LINE
  5
2CB
330
2C1
100
AcDbEntity
  8
0
100
AcDbLine
 10
-85.0
 20
50.5
 30
0.0
 11
-85.0
 21
98.75
 31
0.0
  0
MTEXT
  5
2CC
330
2C1
100
AcDbEntity
  8
DIMENSION
100
AcDbMText
 10
-85.0
 20
49.5
 30
0.0
 40
1.0
 71
5
  1
99
 50
90.0
  0
POINT
  5
2CD
330
2C1
100
AcDbEntity
  8
Defpoints
100
AcDbPoint
 10
-85.0
 20
0.0
 30
0.0
  0
POINT
  5
2CE
330
2C1
100
AcDbEntity
  8
Defpoints
100
AcDbPoint
 10
0.0
 20
0.0
 30
0.0
  0
POINT
  5
2CF
330
2C1
100
AcDbEntity
  8
Defpoints
100
AcDbPoint
 10
0.0
 20
99.0
 30
0.0
  0
ENDBLK
  5
2C3
330
2C1
100
AcDbEntity
  8
0
100
AcDbBlockEnd
  0
BLOCK
  5
2D2
330
2D1
100
AcDbEntity
  8
0
100
AcDbBlockBegin
  2
*D19
 70
1
 10
0.0
 20
0.0
 30
0.0
  3
*D19
  1

  0
LINE
  5
2D4
330
2D1
100
AcDbEntity
  8
0
100
AcDbLine
 10
0.0
 20
0.0
 30
0.0
 11
-97.0
 21
0.0
 31
0.0
  0
LINE
  5
2D5
330
2D1
100
AcDbEntity
  8
0
100
AcDbLine
 10
0.0
 20
115.0
 30
0.0
 11
-97.0
 21
115.0
 31
0.0
  0
INSERT
  5
2D6
330
2D1
100
AcDbEntity
  8
DIMENSION
100
AcDbBlockReference
  2
_CLOSEDFILLED
 10
-97.0
 20
0.0
 30
0.0
 41
0.25
 42
0.25
 50
270.0
  0
INSERT
  5
2D8
330
2D1
100
AcDbEntity
  8
DIMENSION
100
AcDbBlockReference
  2
_CLOSEDFILLED
 10
-97.0
 20
115.0
 30
0.0
 41
0.25
 42
0.25
 50
90.0
  0
LINE
  5
2DA
330
2D1
100
AcDbEntity
  8
0
100
AcDbLine
 10
-97.0
 20
0.25
 30
0.0
 11
-97.0
 21
56.0
 31
0.0
  0
LINE
  5
2DB
330
2D1
100
AcDbEntity
  8
0
100
AcDbLine
 10
-97.0
 20
59.0
 30
0.0
 11
-97.0
 21
114.75
 31
0.0
  0
MTEXT
  5
2DC
330
2D1
100
AcDbEntity
  8
DIMENSION
100
AcDbMText
 10
-97.0
 20
57.5
 30
0.0
 40
1.0
 71
5
  1
115
 50
90.0
  0
POINT
  5
2DD
330
2D1
100
AcDbEntity
  8
Defpoints
100
AcDbPoint
 10
-97.0
 20
0.0
 30
0.0
  0
POINT
  5
2DE
330
2D1
100
AcDbEntity
  8
Defpoints
100
AcDbPoint
 10
0.0
 20
0.0
 30
0.0
  0
POINT
  5
2DF
330
2D1
100
AcDbEntity
  8
Defpoints
100
AcDbPoint
 10
0.0
 20
115.0
 30
0.0
  0
ENDBLK
  5
2D3
330
2D1
100
AcDbEntity
  8
0
100
AcDbBlockEnd
  0
BLOCK
  5
2E2
330
2E1
100
AcDbEntity
  8
0
100
AcDbBlockBegin
  2
*D20
 70
1
 10
0.0
 20
0.0
 30
0.0
  3
*D20
  1

  0
LINE
  5
2E4
330
2E1
100
AcDbEntity
  8
0
100
AcDbLine
 10
0.0
 20
0.0
 30
0.0
 11
-109.0
 21
0.0
 31
0.0
  0
LINE
  5
2E5
330
2E1
100
AcDbEntity
  8
0
100
AcDbLine
 10
0.0
 20
180.0
 30
0.0
 11
-109.0
 21
180.0
 31
0.0
  0
INSERT
  5
2E6
330
2E1
100
AcDbEntity
  8
DIMENSION
100
AcDbBlockReference
  2
_CLOSEDFILLED
 10
-109.0
 20
0.0
 30
0.0
 41
0.25
 42
0.25
 50
270.0
  0
INSERT
  5
2E8
330
2E1
100
AcDbEntity
  8
DIMENSION
100
AcDbBlockReference
  2
_CLOSEDFILLED
 10
-109.0
 20
180.0
 30
0.0
 41
0.25
 42
0.25
 50
90.0
  0
LINE
  5
2EA
330
2E1
100
AcDbEntity
  8
0
100
AcDbLine
 10
-109.0
 20
0.25
 30
0.0
 11
-109.0
 21
88.5
 31
0.0
  0
LINE
  5
2EB
330
2E1
100
AcDbEntity
  8
0
100
AcDbLine
 10
-109.0
 20
91.5
 30
0.0
 11
-109.0
 21
179.75
 31
0.0
  0
MTEXT
  5
2EC
330
2E1
100
AcDbEntity
  8
DIMENSION
100
AcDbMText
 10
-109.0
 20
90.0
 30
0.0
 40
1.0
 71
5
  1
180
 50
90.0
  0
POINT
  5
2ED
330
2E1
100
AcDbEntity
  8
Defpoints
100
AcDbPoint
 10
-109.0
 20
0.0
 30
0.0
  0
POINT
  5
2EE
330
2E1
100
AcDbEntity
  8
Defpoints
100
AcDbPoint
 10
0.0
 20
0.0
 30
0.0
  0
POINT
  5
2EF
330
2E1
100
AcDbEntity
  8
Defpoints
100
AcDbPoint
 10
0.0
 20
180.0
 30
0.0
  0
ENDBLK
  5
2E3
330
2E1
100
AcDbEntity
  8
0
100
AcDbBlockEnd
  0
BLOCK
  5
2F2
330
2F1
100
AcDbEntity
  8
0
100
AcDbBlockBegin
  2
*D21
 70
1
 10
0.0
 20
0.0
 30
0.0
  3
*D21
  1

  0
LINE
  5
2F4
330
2F1
100
AcDbEntity
  8
0
100
AcDbLine
 10
0.0
 20
0.0
 30
0.0
 11
-121.0
 21
0.0
 31
0.0
  0
LINE
  5
2F5
330
2F1
100
AcDbEntity
  8
0
100
AcDbLine
 10
0.0
 20
230.0
 30
0.0
 11
-121.0
 21
230.0
 31
0.0
  0
INSERT
  5
2F6
330
2F1
100
AcDbEntity
  8
DIMENSION
100
AcDbBlockReference
  2
_CLOSEDFILLED
 10
-121.0
 20
0.0
 30
0.0
 41
0.25
 42
0.25
 50
270.0
  0
INSERT
  5
2F8
330
2F1
100
AcDbEntity
  8
DIMENSION
100
AcDbBlockReference
  2
_CLOSEDFILLED
 10
-121.0
 20
230.0
 30
0.0
 41
0.25
 42
0.25
 50
90.0
  0
LINE
  5
2FA
330
2F1
100
AcDbEntity
  8
0
100
AcDbLine
 10
-121.0
 20
0.25
 30
0.0
 11
-121.0
 21
113.5
 31
0.0
  0
LINE
  5
2FB
330
2F1
100
AcDbEntity
  8
0
100
AcDbLine
 10
-121.0
 20
116.5
 30
0.0
 11
-121.0
 21
229.75
 31
0.0
  0
MTEXT
  5
2FC
330
2F1
100
AcDbEntity
  8
DIMENSION
100
AcDbMText
 10
-121.0
 20
115.0
 30
0.0
 40
1.0
 71
5
  1
230
 50
90.0
  0
POINT
  5
2FD
330
2F1
100
AcDbEntity
  8
Defpoints
100
AcDbPoint
 10
-121.0
 20
0.0
 30
0.0
  0
POINT
  5
2FE
330
2F1
100
AcDbEntity
  8
Defpoints
100
AcDbPoint
 10
0.0
 20
0.0
 30
0.0
  0
POINT
  5
2FF
330
2F1
100
AcDbEntity
  8
Defpoints
100
AcDbPoint
 10
0.0
 20
230.0
 30
0.0
  0
ENDBLK
  5
2F3
330
2F1
100
AcDbEntity
  8
0
100
AcDbBlockEnd
  0
BLOCK
  5
302
330
301
100
AcDbEntity
  8
0
100
AcDbBlockBegin
  2
*D22
 70
1
 10
0.0
 20
0.0
 30
0.0
  3
*D22
  1

  0
LINE
  5
304
330
301
100
AcDbEntity
  8
0
100
AcDbLine
 10
2300.0
 20
230.0
 30
0.0
 11
2325.0
 21
230.0
 31
0.0
  0
LINE
  5
305
330
301
100
AcDbEntity
  8
0
100
AcDbLine
 10
2300.0
 20
230.0
 30
0.0
 11
2325.0
 21
230.0
 31
0.0
  0
INSERT
  5
306
330
301
100
AcDbEntity
  8
DIMENSION
100
AcDbBlockReference
  2
_CLOSEDFILLED
 10
2325.0
 20
230.0
 30
0.0
 41
0.25
 42
0.25
 50
90.0
  0
INSERT
  5
308
330
301
100
AcDbEntity
  8
DIMENSION
100
AcDbBlockReference
  2
_CLOSEDFILLED
 10
2325.0
 20
230.0
 30
0.0
 41
0.25
 42
0.25
 50
270.0
  0
LINE
  5
30A
330
301
100
AcDbEntity
  8
0
100
AcDbLine
 10
2325.0
 20
229.75
 30
0.0
 11
2325.0
 21
229.5
 31
0.0
  0
LINE
  5
30B
330
301
100
AcDbEntity
  8
0
100
AcDbLine
 10
2325.0
 20
230.25
 30
0.0
 11
2325.0
 21
230.5
 31
0.0
  0
LINE
  5
30C
330
301
100
AcDbEntity
  8
0
100
AcDbLine
 10
2325.0
 20
230.0
 30
0.0
 11
2325.0
 21
230.0
 31
0.0
  0
MTEXT
  5
30D
330
301
100
AcDbEntity
  8
DIMENSION
100
AcDbMText
 10
2323.875
 20
230.0
 30
0.0
 40
1.0
 71
5
  1
0
 50
90.0
  0
POINT
  5
30E
330
301
100
AcDbEntity
  8
Defpoints
100
AcDbPoint
 10
2325.0
 20
230.0
 30
0.0
  0
POINT
  5
30F
330
301
100
AcDbEntity
  8
Defpoints
100
AcDbPoint
 10
2300.0
 20
230.0
 30
0.0
  0
POINT
  5
310
330
301
100
AcDbEntity
  8
Defpoints
100
AcDbPoint
 10
2300.0
 20
230.0
 30
0.0
  0
ENDBLK
  5
303
330
301
100
AcDbEntity
  8
0
100
AcDbBlockEnd
  0
BLOCK
  5
313
330
312
100
AcDbEntity
  8
0
100
AcDbBlockBegin
  2
*D23
 70
1
 10
0.0
 20
0.0
 30
0.0
  3
*D23
  1

  0
LINE
  5
315
330
312
100
AcDbEntity
  8
0
100
AcDbLine
 10
2300.0
 20
230.0
 30
0.0
 11
2337.0
 21
230.0
 31
0.0
  0
LINE
  5
316
330
312
100
AcDbEntity
  8
0
100
AcDbLine
 10
2300.0
 20
180.0
 30
0.0
 11
2337.0
 21
180.0
 31
0.0
  0
INSERT
  5
317
330
312
100
AcDbEntity
  8
DIMENSION
100
AcDbBlockReference
  2
_CLOSEDFILLED
 10
2337.0
 20
230.0
 30
0.0
 41
0.25
 42
0.25
 50
270.0
  0
INSERT
  5
319
330
312
100
AcDbEntity
  8
DIMENSION
100
AcDbBlockReference
  2
_CLOSEDFILLED
 10
2337.0
 20
180.0
 30
0.0
 41
0.25
 42
0.25
 50
90.0
  0
LINE
  5
31B
330
312
100
AcDbEntity
  8
0
100
AcDbLine
 10
2337.0
 20
230.25
 30
0.0
 11
2337.0
 21
206.0
 31
0.0
  0
LINE
  5
31C
330
312
100
AcDbEntity
  8
0
100
AcDbLine
 10
2337.0
 20
204.0
 30
0.0
 11
2337.0
 21
179.75
 31
0.0
  0
MTEXT
  5
31D
330
312
100
AcDbEntity
  8
DIMENSION
100
AcDbMText
 10
2337.0
 20
205.0
 30
0.0
 40
1.0
 71
5
  1
50
 50
90.0
  0
POINT
  5
31E
330
312
100
AcDbEntity
  8
Defpoints
100
AcDbPoint
 10
2337.0
 20
230.0
 30
0.0
  0
POINT
  5
31F
330
312
100
AcDbEntity
  8
Defpoints
100
AcDbPoint
 10
2300.0
 20
230.0
 30
0.0
  0
POINT
  5
320
330
312
100
AcDbEntity
  8
Defpoints
100
AcDbPoint
 10
2300.0
 20
180.0
 30
0.0
  0
ENDBLK
  5
314
330
312
100
AcDbEntity
  8
0
100
AcDbBlockEnd
  0
BLOCK
  5
323
330
322
100
AcDbEntity
  8
0
100
AcDbBlockBegin
  2
*D24
 70
1
 10
0.0
 20
0.0
 30
0.0
  3
*D24
  1

  0
LINE
  5
325
330
322
100
AcDbEntity
  8
0
100
AcDbLine
 10
2300.0
 20
230.0
 30
0.0
 11
2349.0
 21
230.0
 31
0.0
  0
LINE
  5
326
330
322
100
AcDbEntity
  8
0
100
AcDbLine
 10
2300.0
 20
115.0
 30
0.0
 11
2349.0
 21
115.0
 31
0.0
  0
INSERT
  5
327
330
322
100
AcDbEntity
  8
DIMENSION
100
AcDbBlockReference
  2
_CLOSEDFILLED
 10
2349.0
 20
230.0
 30
0.0
 41
0.25
 42
0.25
 50
270.0
  0
INSERT
  5
329
330
322
100
AcDbEntity
  8
DIMENSION
100
AcDbBlockReference
  2
_CLOSEDFILLED
 10
2349.0
 20
115.0
 30
0.0
 41
0.25
 42
0.25
 50
90.0
  0
LINE
  5
32B
330
322
100
AcDbEntity
  8
0
100
AcDbLine
 10
2349.0
 20
230.25
 30
0.0
 11
2349.0
 21
174.0
 31
0.0
  0
LINE
  5
32C
330
322
100
AcDbEntity
  8
0
100
AcDbLine
 10
2349.0
 20
171.0
 30
0.0
 11
2349.0
 21
114.75
 31
0.0
  0
MTEXT
  5
32D
330
322
100
AcDbEntity
  8
DIMENSION
100
AcDbMText
 10
2349.0
 20
172.5
 30
0.0
 40
1.0
 71
5
  1
115
 50
90.0
  0
POINT
  5
32E
330
322
100
AcDbEntity
  8
Defpoints
100
AcDbPoint
 10
2349.0
 20
230.0
 30
0.0
  0
POINT
  5
32F
330
322
100
AcDbEntity
  8
Defpoints
100
AcDbPoint
 10
2300.0
 20
230.0
 30
0.0
  0
POINT
  5
330
330
322
100
AcDbEntity
  8
Defpoints
100
AcDbPoint
 10
2300.0
 20
115.0
 30
0.0
  0
ENDBLK
  5
324
330
322
100
AcDbEntity
  8
0
100
AcDbBlockEnd
  0
BLOCK
  5
333
330
332
100
AcDbEntity
  8
0
100
AcDbBlockBegin
  2
*D25
 70
1
 10
0.0
 20
0.0
 30
0.0
  3
*D25
  1

  0
LINE
  5
335
330
332
100
AcDbEntity
  8
0
100
AcDbLine
 10
2300.0
 20
230.0
 30
0.0
 11
2361.0
 21
230.0
 31
0.0
  0
LINE
  5
336
330
332
100
AcDbEntity
  8
0
100
AcDbLine
 10
2300.0
 20
99.0
 30
0.0
 11
2361.0
 21
99.0
 31
0.0
  0
INSERT
  5
337
330
332
100
AcDbEntity
  8
DIMENSION
100
AcDbBlockReference
  2
_CLOSEDFILLED
 10
2361.0
 20
230.0
 30
0.0
 41
0.25
 42
0.25
 50
270.0
  0
INSERT
  5
339
330
332
100
AcDbEntity
  8
DIMENSION
100
AcDbBlockReference
  2
_CLOSEDFILLED
 10
2361.0
 20
99.0
 30
0.0
 41
0.25
 42
0.25
 50
90.0
  0
LINE
  5
33B
330
332
100
AcDbEntity
  8
0
100
AcDbLine
 10
2361.0
 20
230.25
 30
0.0
 11
2361.0
 21
166.0
 31
0.0
  0
LINE
  5
33C
330
332
100
AcDbEntity
  8
0
100
AcDbLine
 10
2361.0
 20
163.0
 30
0.0
 11
2361.0
 21
98.75
 31
0.0
  0
MTEXT
  5
33D
330
332
100
AcDbEntity
  8
DIMENSION
100
AcDbMText
 10
2361.0
 20
164.5
 30
0.0
 40
1.0
 71
5
  1
131
 50
90.0
  0
POINT
  5
33E
330
332
100
AcDbEntity
  8
Defpoints
100
AcDbPoint
 10
2361.0
 20
230.0
 30
0.0
  0
POINT
  5
33F
330
332
100
AcDbEntity
  8
Defpoints
100
AcDbPoint
 10
2300.0
 20
230.0
 30
0.0
  0
POINT
  5
340
330
332
100
AcDbEntity
  8
Defpoints
100
AcDbPoint
 10
2300.0
 20
99.0
 30
0.0
  0
ENDBLK
  5
334
330
332
100
AcDbEntity
  8
0
100
AcDbBlockEnd
  0
BLOCK
  5
343
330
342
100
AcDbEntity
  8
0
100
AcDbBlockBegin
  2
*D26
 70
1
 10
0.0
 20
0.0
 30
0.0
  3
*D26
  1

  0
LINE
  5
345
330
342
100
AcDbEntity
  8
0
100
AcDbLine
 10
2300.0
 20
230.0
 30
0.0
 11
2373.0
 21
230.0
 31
0.0
  0
LINE
  5
346
330
342
100
AcDbEntity
  8
0
100
AcDbLine
 10
2300.0
 20
76.0
 30
0.0
 11
2373.0
 21
76.0
 31
0.0
  0
INSERT
  5
347
330
342
100
AcDbEntity
  8
DIMENSION
100
AcDbBlockReference
  2
_CLOSEDFILLED
 10
2373.0
 20
230.0
 30
0.0
 41
0.25
 42
0.25
 50
270.0
  0
INSERT
  5
349
330
342
100
AcDbEntity
  8
DIMENSION
100
AcDbBlockReference
  2
_CLOSEDFILLED
 10
2373.0
 20
76.0
 30
0.0
 41
0.25
 42
0.25
 50
90.0
  0
LINE
  5
34B
330
342
100
AcDbEntity
  8
0
100
AcDbLine
 10
2373.0
 20
230.25
 30
0.0
 11
2373.0
 21
154.5
 31
0.0
  0
LINE
  5
34C
330
342
100
AcDbEntity
  8
0
100
AcDbLine
 10
2373.0
 20
151.5
 30
0.0
 11
2373.0
 21
75.75
 31
0.0
  0
MTEXT
  5
34D
330
342
100
AcDbEntity
  8
DIMENSION
100
AcDbMText
 10
2373.0
 20
153.0
 30
0.0
 40
1.0
 71
5
  1
154
 50
90.0
  0
POINT
  5
34E
330
342
100
AcDbEntity
  8
Defpoints
100
AcDbPoint
 10
2373.0
 20
230.0
 30
0.0
  0
POINT
  5
34F
330
342
100
AcDbEntity
  8
Defpoints
100
AcDbPoint
 10
2300.0
 20
230.0
 30
0.0
  0
POINT
  5
350
330
342
100
AcDbEntity
  8
Defpoints
100
AcDbPoint
 10
2300.0
 20
76.0
 30
0.0
  0
ENDBLK
  5
344
330
342
100
AcDbEntity
  8
0
100
AcDbBlockEnd
  0
BLOCK
  5
353
330
352
100
AcDbEntity
  8
0
100
AcDbBlockBegin
  2
*D27
 70
1
 10
0.0
 20
0.0
 30
0.0
  3
*D27
  1

  0
LINE
  5
355
330
352
100
AcDbEntity
  8
0
100
AcDbLine
 10
2300.0
 20
230.0
 30
0.0
 11
2385.0
 21
230.0
 31
0.0
  0
LINE
  5
356
330
352
100
AcDbEntity
  8
0
100
AcDbLine
 10
2300.0
 20
51.0
 30
0.0
 11
2385.0
 21
51.0
 31
0.0
  0
INSERT
  5
357
330
352
100
AcDbEntity
  8
DIMENSION
100
AcDbBlockReference
  2
_CLOSEDFILLED
 10
2385.0
 20
230.0
 30
0.0
 41
0.25
 42
0.25
 50
270.0
  0
INSERT
  5
359
330
352
100
AcDbEntity
  8
DIMENSION
100
AcDbBlockReference
  2
_CLOSEDFILLED
 10
2385.0
 20
51.0
 30
0.0
 41
0.25
 42
0.25
 50
90.0
  0
LINE
  5
35B
330
352
100
AcDbEntity
  8
0
100
AcDbLine
 10
2385.0
 20
230.25
 30
0.0
 11
2385.0
 21
142.0
 31
0.0
  0
LINE
  5
35C
330
352
100
AcDbEntity
  8
0
100
AcDbLine
 10
2385.0
 20
139.0
 30
0.0
 11
2385.0
 21
50.75
 31
0.0
  0
MTEXT
  5
35D
330
352
100
AcDbEntity
  8
DIMENSION
100
AcDbMText
 10
2385.0
 20
140.5
 30
0.0
 40
1.0
 71
5
  1
179
 50
90.0
  0
POINT
  5
35E
330
352
100
AcDbEntity
  8
Defpoints
100
AcDbPoint
 10
2385.0
 20
230.0
 30
0.0
  0
POINT
  5
35F
330
352
100
AcDbEntity
  8
Defpoints
100
AcDbPoint
 10
2300.0
 20
230.0
 30
0.0
  0
POINT
  5
360
330
352
100
AcDbEntity
  8
Defpoints
100
AcDbPoint
 10
2300.0
 20
51.0
 30
0.0
  0
ENDBLK
  5
354
330
352
100
AcDbEntity
  8
0
100
AcDbBlockEnd
  0
BLOCK
  5
363
330
362
100
AcDbEntity
  8
0
100
AcDbBlockBegin
  2
*D28
 70
1
 10
0.0
 20
0.0
 30
0.0
  3
*D28
  1

  0
LINE
  5
365
330
362
100
AcDbEntity
  8
0
100
AcDbLine
 10
2300.0
 20
230.0
 30
0.0
 11
2397.0
 21
230.0
 31
0.0
  0
LINE
  5
366
330
362
100
AcDbEntity
  8
0
100
AcDbLine
 10
2300.0
 20
50.0
 30
0.0
 11
2397.0
 21
50.0
 31
0.0
  0
INSERT
  5
367
330
362
100
AcDbEntity
  8
DIMENSION
100
AcDbBlockReference
  2
_CLOSEDFILLED
 10
2397.0
 20
230.0
 30
0.0
 41
0.25
 42
0.25
 50
270.0
  0
INSERT
  5
369
330
362
100
AcDbEntity
  8
DIMENSION
100
AcDbBlockReference
  2
_CLOSEDFILLED
 10
2397.0
 20
50.0
 30
0.0
 41
0.25
 42
0.25
 50
90.0
  0
LINE
  5
36B
330
362
100
AcDbEntity
  8
0
100
AcDbLine
 10
2397.0
 20
230.25
 30
0.0
 11
2397.0
 21
141.5
 31
0.0
  0
LINE
  5
36C
330
362
100
AcDbEntity
  8
0
100
AcDbLine
 10
2397.0
 20
138.5
 30
0.0
 11
2397.0
 21
49.75
 31
0.0
  0
MTEXT
  5
36D
330
362
100
AcDbEntity
  8
DIMENSION
100
AcDbMText
 10
2397.0
 20
140.0
 30
0.0
 40
1.0
 71
5
  1
180
 50
90.0
  0
POINT
  5
36E
330
362
100
AcDbEntity
  8
Defpoints
100
AcDbPoint
 10
2397.0
 20
230.0
 30
0.0
  0
POINT
  5
36F
330
362
100
AcDbEntity
  8
Defpoints
100
AcDbPoint
 10
2300.0
 20
230.0
 30
0.0
  0
POINT
  5
370
330
362
100
AcDbEntity
  8
Defpoints
100
AcDbPoint
 10
2300.0
 20
50.0
 30
0.0
  0
ENDBLK
  5
364
330
362
100
AcDbEntity
  8
0
100
AcDbBlockEnd
  0
BLOCK
  5
373
330
372
100
AcDbEntity
  8
0
100
AcDbBlockBegin
  2
*D29
 70
1
 10
0.0
 20
0.0
 30
0.0
  3
*D29
  1

  0
LINE
  5
375
330
372
100
AcDbEntity
  8
0
100
AcDbLine
 10
2300.0
 20
230.0
 30
0.0
 11
2409.0
 21
230.0
 31
0.0
  0
LINE
  5
376
330
372
100
AcDbEntity
  8
0
100
AcDbLine
 10
2300.0
 20
35.0
 30
0.0
 11
2409.0
 21
35.0
 31
0.0
  0
INSERT
  5
377
330
372
100
AcDbEntity
  8
DIMENSION
100
AcDbBlockReference
  2
_CLOSEDFILLED
 10
2409.0
 20
230.0
 30
0.0
 41
0.25
 42
0.25
 50
270.0
  0
INSERT
  5
379
330
372
100
AcDbEntity
  8
DIMENSION
100
AcDbBlockReference
  2
_CLOSEDFILLED
 10
2409.0
 20
35.0
 30
0.0
 41
0.25
 42
0.25
 50
90.0
  0
LINE
  5
37B
330
372
100
AcDbEntity
  8
0
100
AcDbLine
 10
2409.0
 20
230.25
 30
0.0
 11
2409.0
 21
134.0
 31
0.0
  0
LINE
  5
37C
330
372
100
AcDbEntity
  8
0
100
AcDbLine
 10
2409.0
 20
131.0
 30
0.0
 11
2409.0
 21
34.75
 31
0.0
  0
MTEXT
  5
37D
330
372
100
AcDbEntity
  8
DIMENSION
100
AcDbMText
 10
2409.0
 20
132.5
 30
0.0
 40
1.0
 71
5
  1
195
 50
90.0
  0
POINT
  5
37E
330
372
100
AcDbEntity
  8
Defpoints
100
AcDbPoint
 10
2409.0
 20
230.0
 30
0.0
  0
POINT
  5
37F
330
372
100
AcDbEntity
  8
Defpoints
100
AcDbPoint
 10
2300.0
 20
230.0
 30
0.0
  0
POINT
  5
380
330
372
100
AcDbEntity
  8
Defpoints
100
AcDbPoint
 10
2300.0
 20
35.0
 30
0.0
  0
ENDBLK
  5
374
330
372
100
AcDbEntity
  8
0
100
AcDbBlockEnd
  0
BLOCK
  5
383
330
382
100
AcDbEntity
  8
0
100
AcDbBlockBegin
  2
*D30
 70
1
 10
0.0
 20
0.0
 30
0.0
  3
*D30
  1

  0
LINE
  5
385
330
382
100
AcDbEntity
  8
0
100
AcDbLine
 10
2300.0
 20
230.0
 30
0.0
 11
2421.0
 21
230.0
 31
0.0
  0
LINE
  5
386
330
382
100
AcDbEntity
  8
0
100
AcDbLine
 10
2300.0
 20
6.5
 30
0.0
 11
2421.0
 21
6.5
 31
0.0
  0
INSERT
  5
387
330
382
100
AcDbEntity
  8
DIMENSION
100
AcDbBlockReference
  2
_CLOSEDFILLED
 10
2421.0
 20
230.0
 30
0.0
 41
0.25
 42
0.25
 50
270.0
  0
INSERT
  5
389
330
382
100
AcDbEntity
  8
DIMENSION
100
AcDbBlockReference
  2
_CLOSEDFILLED
 10
2421.0
 20
6.5
 30
0.0
 41
0.25
 42
0.25
 50
90.0
  0
LINE
  5
38B
330
382
100
AcDbEntity
  8
0
100
AcDbLine
 10
2421.0
 20
230.25
 30
0.0
 11
2421.0
 21
120.75
 31
0.0
  0
LINE
  5
38C
330
382
100
AcDbEntity
  8
0
100
AcDbLine
 10
2421.0
 20
115.75
 30
0.0
 11
2421.0
 21
6.25
 31
0.0
  0
MTEXT
  5
38D
330
382
100
AcDbEntity
  8
DIMENSION
100
AcDbMText
 10
2421.0
 20
118.25
 30
0.0
 40
1.0
 71
5
  1
223,5
 50
90.0
  0
POINT
  5
38E
330
382
100
AcDbEntity
  8
Defpoints
100
AcDbPoint
 10
2421.0
 20
230.0
 30
0.0
  0
POINT
  5
38F
330
382
100
AcDbEntity
  8
Defpoints
100
AcDbPoint
 10
2300.0
 20
230.0
 30
0.0
  0
POINT
  5
390
330
382
100
AcDbEntity
  8
Defpoints
100
AcDbPoint
 10
2300.0
 20
6.5
 30
0.0
  0
ENDBLK
  5
384
330
382
100
AcDbEntity
  8
0
100
AcDbBlockEnd
  0
ENDSEC
  0
SECTION
  2
ENTITIES
  0
TEXT
  5
33
330
17
100
AcDbEntity
  8
ANNOTATION
100
AcDbText
 10
9.5
 20
55.0
 30
0.0
 40
2.5
  1
d4.0 h19.0
100
AcDbText
  0
TEXT
  5
34
330
17
100
AcDbEntity
  8
ANNOTATION
100
AcDbText
 10
9.5
 20
185.0
 30
0.0
 40
2.5
  1
d4.0 h19.0
100
AcDbText
  0
TEXT
  5
35
330
17
100
AcDbEntity
  8
ANNOTATION
100
AcDbText
 10
2290.5
 20
55.0
 30
0.0
 40
2.5
  1
d4.0 h19.0
100
AcDbText
  0
TEXT
  5
36
330
17
100
AcDbEntity
  8
ANNOTATION
100
AcDbText
 10
2290.5
 20
185.0
 30
0.0
 40
2.5
  1
d4.0 h19.0
100
AcDbText
  0
TEXT
  5
37
330
17
100
AcDbEntity
  8
ANNOTATION
100
AcDbText
 10
1298.5
 20
55.0
 30
0.0
 40
2.5
  1
d4.0 h19.0
100
AcDbText
  0
TEXT
  5
38
330
17
100
AcDbEntity
  8
ANNOTATION
100
AcDbText
 10
1298.5
 20
185.0
 30
0.0
 40
2.5
  1
d4.0 h19.0
100
AcDbText
  0
TEXT
  5
39
330
17
100
AcDbEntity
  8
ANNOTATION
100
AcDbText
 10
1629.17
 20
55.0
 30
0.0
 40
2.5
  1
d4.0 h19.0
100
AcDbText
  0
TEXT
  5
3A
330
17
100
AcDbEntity
  8
ANNOTATION
100
AcDbText
 10
1629.17
 20
185.0
 30
0.0
 40
2.5
  1
d4.0 h19.0
100
AcDbText
  0
TEXT
  5
3B
330
17
100
AcDbEntity
  8
ANNOTATION
100
AcDbText
 10
1959.83
 20
55.0
 30
0.0
 40
2.5
  1
d4.0 h19.0
100
AcDbText
  0
TEXT
  5
3C
330
17
100
AcDbEntity
  8
ANNOTATION
100
AcDbText
 10
1959.83
 20
185.0
 30
0.0
 40
2.5
  1
d4.0 h19.0
100
AcDbText
  0
TEXT
  5
3D
330
17
100
AcDbEntity
  8
ANNOTATION
100
AcDbText
 10
101.5
 20
11.5
 30
0.0
 40
2.5
  1
d2.5 h2.0
100
AcDbText
  0
TEXT
  5
3E
330
17
100
AcDbEntity
  8
ANNOTATION
100
AcDbText
 10
101.5
 20
40.0
 30
0.0
 40
2.5
  1
d2.5 h2.0
100
AcDbText
  0
TEXT
  5
3F
330
17
100
AcDbEntity
  8
ANNOTATION
100
AcDbText
 10
101.5
 20
56.0
 30
0.0
 40
2.5
  1
d2.5 h2.0
100
AcDbText
  0
TEXT
  5
40
330
17
100
AcDbEntity
  8
ANNOTATION
100
AcDbText
 10
101.5
 20
81.0
 30
0.0
 40
2.5
  1
d2.5 h2.0
100
AcDbText
  0
TEXT
  5
41
330
17
100
AcDbEntity
  8
ANNOTATION
100
AcDbText
 10
101.5
 20
104.0
 30
0.0
 40
2.5
  1
d2.5 h2.0
100
AcDbText
  0
TEXT
  5
42
330
17
100
AcDbEntity
  8
ANNOTATION
100
AcDbText
 10
101.5
 20
120.0
 30
0.0
 40
2.5
  1
d2.5 h2.0
100
AcDbText
  0
TEXT
  5
43
330
17
100
AcDbEntity
  8
ANNOTATION
100
AcDbText
 10
311.5
 20
11.5
 30
0.0
 40
2.5
  1
d2.5 h2.0
100
AcDbText
  0
TEXT
  5
44
330
17
100
AcDbEntity
  8
ANNOTATION
100
AcDbText
 10
311.5
 20
40.0
 30
0.0
 40
2.5
  1
d2.5 h2.0
100
AcDbText
  0
TEXT
  5
45
330
17
100
AcDbEntity
  8
ANNOTATION
100
AcDbText
 10
311.5
 20
56.0
 30
0.0
 40
2.5
  1
d2.5 h2.0
100
AcDbText
  0
TEXT
  5
46
330
17
100
AcDbEntity
  8
ANNOTATION
100
AcDbText
 10
311.5
 20
81.0
 30
0.0
 40
2.5
  1
d2.5 h2.0
100
AcDbText
  0
TEXT
  5
47
330
17
100
AcDbEntity
  8
ANNOTATION
100
AcDbText
 10
311.5
 20
104.0
 30
0.0
 40
2.5
  1
d2.5 h2.0
100
AcDbText
  0
TEXT
  5
48
330
17
100
AcDbEntity
  8
ANNOTATION
100
AcDbText
 10
311.5
 20
120.0
 30
0.0
 40
2.5
  1
d2.5 h2.0
100
AcDbText
  0
TEXT
  5
49
330
17
100
AcDbEntity
  8
ANNOTATION
100
AcDbText
 10
521.5
 20
11.5
 30
0.0
 40
2.5
  1
d2.5 h2.0
100
AcDbText
  0
TEXT
  5
4A
330
17
100
AcDbEntity
  8
ANNOTATION
100
AcDbText
 10
521.5
 20
40.0
 30
0.0
 40
2.5
  1
d2.5 h2.0
100
AcDbText
  0
TEXT
  5
4B
330
17
100
AcDbEntity
  8
ANNOTATION
100
AcDbText
 10
521.5
 20
56.0
 30
0.0
 40
2.5
  1
d2.5 h2.0
100
AcDbText
  0
TEXT
  5
4C
330
17
100
AcDbEntity
  8
ANNOTATION
100
AcDbText
 10
521.5
 20
81.0
 30
0.0
 40
2.5
  1
d2.5 h2.0
100
AcDbText
  0
TEXT
  5
4D
330
17
100
AcDbEntity
  8
ANNOTATION
100
AcDbText
 10
521.5
 20
104.0
 30
0.0
 40
2.5
  1
d2.5 h2.0
100
AcDbText
  0
TEXT
  5
4E
330
17
100
AcDbEntity
  8
ANNOTATION
100
AcDbText
 10
521.5
 20
120.0
 30
0.0
 40
2.5
  1
d2.5 h2.0
100
AcDbText
  0
TEXT
  5
4F
330
17
100
AcDbEntity
  8
ANNOTATION
100
AcDbText
 10
731.5
 20
11.5
 30
0.0
 40
2.5
  1
d2.5 h2.0
100
AcDbText
  0
TEXT
  5
50
330
17
100
AcDbEntity
  8
ANNOTATION
100
AcDbText
 10
731.5
 20
40.0
 30
0.0
 40
2.5
  1
d2.5 h2.0
100
AcDbText
  0
TEXT
  5
51
330
17
100
AcDbEntity
  8
ANNOTATION
100
AcDbText
 10
731.5
 20
56.0
 30
0.0
 40
2.5
  1
d2.5 h2.0
100
AcDbText
  0
TEXT
  5
52
330
17
100
AcDbEntity
  8
ANNOTATION
100
AcDbText
 10
731.5
 20
81.0
 30
0.0
 40
2.5
  1
d2.5 h2.0
100
AcDbText
  0
TEXT
  5
53
330
17
100
AcDbEntity
  8
ANNOTATION
100
AcDbText
 10
731.5
 20
104.0
 30
0.0
 40
2.5
  1
d2.5 h2.0
100
AcDbText
  0
TEXT
  5
54
330
17
100
AcDbEntity
  8
ANNOTATION
100
AcDbText
 10
731.5
 20
120.0
 30
0.0
 40
2.5
  1
d2.5 h2.0
100
AcDbText
  0
TEXT
  5
55
330
17
100
AcDbEntity
  8
ANNOTATION
100
AcDbText
 10
941.5
 20
11.5
 30
0.0
 40
2.5
  1
d2.5 h2.0
100
AcDbText
  0
TEXT
  5
56
330
17
100
AcDbEntity
  8
ANNOTATION
100
AcDbText
 10
941.5
 20
40.0
 30
0.0
 40
2.5
  1
d2.5 h2.0
100
AcDbText
  0
TEXT
  5
57
330
17
100
AcDbEntity
  8
ANNOTATION
100
AcDbText
 10
941.5
 20
56.0
 30
0.0
 40
2.5
  1
d2.5 h2.0
100
AcDbText
  0
TEXT
  5
58
330
17
100
AcDbEntity
  8
ANNOTATION
100
AcDbText
 10
941.5
 20
81.0
 30
0.0
 40
2.5
  1
d2.5 h2.0
100
AcDbText
  0
TEXT
  5
59
330
17
100
AcDbEntity
  8
ANNOTATION
100
AcDbText
 10
941.5
 20
104.0
 30
0.0
 40
2.5
  1
d2.5 h2.0
100
AcDbText
  0
TEXT
  5
5A
330
17
100
AcDbEntity
  8
ANNOTATION
100
AcDbText
 10
941.5
 20
120.0
 30
0.0
 40
2.5
  1
d2.5 h2.0
100
AcDbText
  0
TEXT
  5
5B
330
17
100
AcDbEntity
  8
ANNOTATION
100
AcDbText
 10
1151.5
 20
11.5
 30
0.0
 40
2.5
  1
d2.5 h2.0
100
AcDbText
  0
TEXT
  5
5C
330
17
100
AcDbEntity
  8
ANNOTATION
100
AcDbText
 10
1151.5
 20
40.0
 30
0.0
 40
2.5
  1
d2.5 h2.0
100
AcDbText
  0
TEXT
  5
5D
330
17
100
AcDbEntity
  8
ANNOTATION
100
AcDbText
 10
1151.5
 20
56.0
 30
0.0
 40
2.5
  1
d2.5 h2.0
100
AcDbText
  0
TEXT
  5
5E
330
17
100
AcDbEntity
  8
ANNOTATION
100
AcDbText
 10
1151.5
 20
81.0
 30
0.0
 40
2.5
  1
d2.5 h2.0
100
AcDbText
  0
TEXT
  5
5F
330
17
100
AcDbEntity
  8
ANNOTATION
100
AcDbText
 10
1151.5
 20
104.0
 30
0.0
 40
2.5
  1
d2.5 h2.0
100
AcDbText
  0
TEXT
  5
60
330
17
100
AcDbEntity
  8
ANNOTATION
100
AcDbText
 10
1151.5
 20
120.0
 30
0.0
 40
2.5
  1
d2.5 h2.0
100
AcDbText
  0
LWPOLYLINE
  5
61
330
17
100
AcDbEntity
  8
CUT
100
AcDbPolyline
 90
4
 70
1
 10
0.0
 20
0.0
 10
2300.0
 20
0.0
 10
2300.0
 20
230.0
 10
0.0
 20
230.0
  0
LWPOLYLINE
  5
62
330
17
100
AcDbEntity
  8
DRILL
100
AcDbPolyline
 90
16
 70
1
 10
7.5
 20
50.0
 10
7.65224
 20
50.7654
 10
8.08579
 20
51.4142
 10
8.73463
 20
51.8478
 10
9.5
 20
52.0
 10
10.2654
 20
51.8478
 10
10.9142
 20
51.4142
 10
11.3478
 20
50.7654
 10
11.5
 20
50.0
 10
11.3478
 20
49.2346
 10
10.9142
 20
48.5858
 10
10.2654
 20
48.1522
 10
9.5
 20
48.0
 10
8.73463
 20
48.1522
 10
8.08579
 20
48.5858
 10
7.65224
 20
49.2346
  0
LWPOLYLINE
  5
63
330
17
100
AcDbEntity
  8
DRILL
100
AcDbPolyline
 90
16
 70
1
 10
7.5
 20
180.0
 10
7.65224
 20
180.765
 10
8.08579
 20
181.414
 10
8.73463
 20
181.848
 10
9.5
 20
182.0
 10
10.2654
 20
181.848
 10
10.9142
 20
181.414
 10
11.3478
 20
180.765
 10
11.5
 20
180.0
 10
11.3478
 20
179.235
 10
10.9142
 20
178.586
 10
10.2654
 20
178.152
 10
9.5
 20
178.0
 10
8.73463
 20
178.152
 10
8.08579
 20
178.586
 10
7.65224
 20
179.235
  0
LWPOLYLINE
  5
64
330
17
100
AcDbEntity
  8
DRILL
100
AcDbPolyline
 90
16
 70
1
 10
100.25
 20
6.5
 10
100.345
 20
6.97835
 10
100.616
 20
7.38388
 10
101.022
 20
7.65485
 10
101.5
 20
7.75
 10
101.978
 20
7.65485
 10
102.384
 20
7.38388
 10
102.655
 20
6.97835
 10
102.75
 20
6.5
 10
102.655
 20
6.02165
 10
102.384
 20
5.61612
 10
101.978
 20
5.34515
 10
101.5
 20
5.25
 10
101.022
 20
5.34515
 10
100.616
 20
5.61612
 10
100.345
 20
6.02165
  0
LWPOLYLINE
  5
65
330
17
100
AcDbEntity
  8
DRILL
100
AcDbPolyline
 90
16
 70
1
 10
100.25
 20
35.0
 10
100.345
 20
35.4784
 10
100.616
 20
35.8839
 10
101.022
 20
36.1548
 10
101.5
 20
36.25
 10
101.978
 20
36.1548
 10
102.384
 20
35.8839
 10
102.655
 20
35.4784
 10
102.75
 20
35.0
 10
102.655
 20
34.5216
 10
102.384
 20
34.1161
 10
101.978
 20
33.8451
 10
101.5
 20
33.75
 10
101.022
 20
33.8451
 10
100.616
 20
34.1161
 10
100.345
 20
34.5216
  0
LWPOLYLINE
  5
66
330
17
100
AcDbEntity
  8
DRILL
100
AcDbPolyline
 90
16
 70
1
 10
100.25
 20
51.0
 10
100.345
 20
51.4784
 10
100.616
 20
51.8839
 10
101.022
 20
52.1548
 10
101.5
 20
52.25
 10
101.978
 20
52.1548
 10
102.384
 20
51.8839
 10
102.655
 20
51.4784
 10
102.75
 20
51.0
 10
102.655
 20
50.5216
 10
102.384
 20
50.1161
 10
101.978
 20
49.8451
 10
101.5
 20
49.75
 10
101.022
 20
49.8451
 10
100.616
 20
50.1161
 10
100.345
 20
50.5216
  0
LWPOLYLINE
  5
67
330
17
100
AcDbEntity
  8
DRILL
100
AcDbPolyline
 90
16
 70
1
 10
100.25
 20
76.0
 10
100.345
 20
76.4784
 10
100.616
 20
76.8839
 10
101.022
 20
77.1548
 10
101.5
 20
77.25
 10
101.978
 20
77.1548
 10
102.384
 20
76.8839
 10
102.655
 20
76.4784
 10
102.75
 20
76.0
 10
102.655
 20
75.5216
 10
102.384
 20
75.1161
 10
101.978
 20
74.8451
 10
101.5
 20
74.75
 10
101.022
 20
74.8451
 10
100.616
 20
75.1161
 10
100.345
 20
75.5216
  0
LWPOLYLINE
  5
68
330
17
100
AcDbEntity
  8
DRILL
100
AcDbPolyline
 90
16
 70
1
 10
100.25
 20
99.0
 10
100.345
 20
99.4784
 10
100.616
 20
99.8839
 10
101.022
 20
100.155
 10
101.5
 20
100.25
 10
101.978
 20
100.155
 10
102.384
 20
99.8839
 10
102.655
 20
99.4784
 10
102.75
 20
99.0
 10
102.655
 20
98.5216
 10
102.384
 20
98.1161
 10
101.978
 20
97.8451
 10
101.5
 20
97.75
 10
101.022
 20
97.8451
 10
100.616
 20
98.1161
 10
100.345
 20
98.5216
  0
LWPOLYLINE
  5
69
330
17
100
AcDbEntity
  8
DRILL
100
AcDbPolyline
 90
16
 70
1
 10
100.25
 20
115.0
 10
100.345
 20
115.478
 10
100.616
 20
115.884
 10
101.022
 20
116.155
 10
101.5
 20
116.25
 10
101.978
 20
116.155
 10
102.384
 20
115.884
 10
102.655
 20
115.478
 10
102.75
 20
115.0
 10
102.655
 20
114.522
 10
102.384
 20
114.116
 10
101.978
 20
113.845
 10
101.5
 20
113.75
 10
101.022
 20
113.845
 10
100.616
 20
114.116
 10
100.345
 20
114.522
  0
LWPOLYLINE
  5
6A
330
17
100
AcDbEntity
  8
DRILL
100
AcDbPolyline
 90
16
 70
1
 10
310.25
 20
6.5
 10
310.345
 20
6.97835
 10
310.616
 20
7.38388
 10
311.022
 20
7.65485
 10
311.5
 20
7.75
 10
311.978
 20
7.65485
 10
312.384
 20
7.38388
 10
312.655
 20
6.97835
 10
312.75
 20
6.5
 10
312.655
 20
6.02165
 10
312.384
 20
5.61612
 10
311.978
 20
5.34515
 10
311.5
 20
5.25
 10
311.022
 20
5.34515
 10
310.616
 20
5.61612
 10
310.345
 20
6.02165
  0
LWPOLYLINE
  5
6B
330
17
100
AcDbEntity
  8
DRILL
100
AcDbPolyline
 90
16
 70
1
 10
310.25
 20
35.0
 10
310.345
 20
35.4784
 10
310.616
 20
35.8839
 10
311.022
 20
36.1548
 10
311.5
 20
36.25
 10
311.978
 20
36.1548
 10
312.384
 20
35.8839
 10
312.655
 20
35.4784
 10
312.75
 20
35.0
 10
312.655
 20
34.5216
 10
312.384
 20
34.1161
 10
311.978
 20
33.8451
 10
311.5
 20
33.75
 10
311.022
 20
33.8451
 10
310.616
 20
34.1161
 10
310.345
 20
34.5216
  0
LWPOLYLINE
  5
6C
330
17
100
AcDbEntity
  8
DRILL
100
AcDbPolyline
 90
16
 70
1
 10
310.25
 20
51.0
 10
310.345
 20
51.4784
 10
310.616
 20
51.8839
 10
311.022
 20
52.1548
 10
311.5
 20
52.25
 10
311.978
 20
52.1548
 10
312.384
 20
51.8839
 10
312.655
 20
51.4784
 10
312.75
 20
51.0
 10
312.655
 20
50.5216
 10
312.384
 20
50.1161
 10
311.978
 20
49.8451
 10
311.5
 20
49.75
 10
311.022
 20
49.8451
 10
310.616
 20
50.1161
 10
310.345
 20
50.5216
  0
LWPOLYLINE
  5
6D
330
17
100
AcDbEntity
  8
DRILL
100
AcDbPolyline
 90
16
 70
1
 10
310.25
 20
76.0
 10
310.345
 20
76.4784
 10
310.616
 20
76.8839
 10
311.022
 20
77.1548
 10
311.5
 20
77.25
 10
311.978
 20
77.1548
 10
312.384
 20
76.8839
 10
312.655
 20
76.4784
 10
312.75
 20
76.0
 10
312.655
 20
75.5216
 10
312.384
 20
75.1161
 10
311.978
 20
74.8451
 10
311.5
 20
74.75
 10
311.022
 20
74.8451
 10
310.616
 20
75.1161
 10
310.345
 20
75.5216
  0
LWPOLYLINE
  5
6E
330
17
100
AcDbEntity
  8
DRILL
100
AcDbPolyline
 90
16
 70
1
 10
310.25
 20
99.0
 10
310.345
 20
99.4784
 10
310.616
 20
99.8839
 10
311.022
 20
100.155
 10
311.5
 20
100.25
 10
311.978
 20
100.155
 10
312.384
 20
99.8839
 10
312.655
 20
99.4784
 10
312.75
 20
99.0
 10
312.655
 20
98.5216
 10
312.384
 20
98.1161
 10
311.978
 20
97.8451
 10
311.5
 20
97.75
 10
311.022
 20
97.8451
 10
310.616
 20
98.1161
 10
310.345
 20
98.5216
  0
LWPOLYLINE
  5
6F
330
17
100
AcDbEntity
  8
DRILL
100
AcDbPolyline
 90
16
 70
1
 10
310.25
 20
115.0
 10
310.345
 20
115.478
 10
310.616
 20
115.884
 10
311.022
 20
116.155
 10
311.5
 20
116.25
 10
311.978
 20
116.155
 10
312.384
 20
115.884
 10
312.655
 20
115.478
 10
312.75
 20
115.0
 10
312.655
 20
114.522
 10
312.384
 20
114.116
 10
311.978
 20
113.845
 10
311.5
 20
113.75
 10
311.022
 20
113.845
 10
310.616
 20
114.116
 10
310.345
 20
114.522
  0
LWPOLYLINE
  5
70
330
17
100
AcDbEntity
  8
DRILL
100
AcDbPolyline
 90
16
 70
1
 10
520.25
 20
6.5
 10
520.345
 20
6.97835
 10
520.616
 20
7.38388
 10
521.022
 20
7.65485
 10
521.5
 20
7.75
 10
521.978
 20
7.65485
 10
522.384
 20
7.38388
 10
522.655
 20
6.97835
 10
522.75
 20
6.5
 10
522.655
 20
6.02165
 10
522.384
 20
5.61612
 10
521.978
 20
5.34515
 10
521.5
 20
5.25
 10
521.022
 20
5.34515
 10
520.616
 20
5.61612
 10
520.345
 20
6.02165
  0
LWPOLYLINE
  5
71
330
17
100
AcDbEntity
  8
DRILL
100
AcDbPolyline
 90
16
 70
1
 10
520.25
 20
35.0
 10
520.345
 20
35.4784
 10
520.616
 20
35.8839
 10
521.022
 20
36.1548
 10
521.5
 20
36.25
 10
521.978
 20
36.1548
 10
522.384
 20
35.8839
 10
522.655
 20
35.4784
 10
522.75
 20
35.0
 10
522.655
 20
34.5216
 10
522.384
 20
34.1161
 10
521.978
 20
33.8451
 10
521.5
 20
33.75
 10
521.022
 20
33.8451
 10
520.616
 20
34.1161
 10
520.345
 20
34.5216
  0
LWPOLYLINE
  5
72
330
17
100
AcDbEntity
  8
DRILL
100
AcDbPolyline
 90
16
 70
1
 10
520.25
 20
51.0
 10
520.345
 20
51.4784
 10
520.616
 20
51.8839
 10
521.022
 20
52.1548
 10
521.5
 20
52.25
 10
521.978
 20
52.1548
 10
522.384
 20
51.8839
 10
522.655
 20
51.4784
 10
522.75
 20
51.0
 10
522.655
 20
50.5216
 10
522.384
 20
50.1161
 10
521.978
 20
49.8451
 10
521.5
 20
49.75
 10
521.022
 20
49.8451
 10
520.616
 20
50.1161
 10
520.345
 20
50.5216
  0
LWPOLYLINE
  5
73
330
17
100
AcDbEntity
  8
DRILL
100
AcDbPolyline
 90
16
 70
1
 10
520.25
 20
76.0
 10
520.345
 20
76.4784
 10
520.616
 20
76.8839
 10
521.022
 20
77.1548
 10
521.5
 20
77.25
 10
521.978
 20
77.1548
 10
522.384
 20
76.8839
 10
522.655
 20
76.4784
 10
522.75
 20
76.0
 10
522.655
 20
75.5216
 10
522.384
 20
75.1161
 10
521.978
 20
74.8451
 10
521.5
 20
74.75
 10
521.022
 20
74.8451
 10
520.616
 20
75.1161
 10
520.345
 20
75.5216
  0
LWPOLYLINE
  5
74
330
17
100
AcDbEntity
  8
DRILL
100
AcDbPolyline
 90
16
 70
1
 10
520.25
 20
99.0
 10
520.345
 20
99.4784
 10
520.616
 20
99.8839
 10
521.022
 20
100.155
 10
521.5
 20
100.25
 10
521.978
 20
100.155
 10
522.384
 20
99.8839
 10
522.655
 20
99.4784
 10
522.75
 20
99.0
 10
522.655
 20
98.5216
 10
522.384
 20
98.1161
 10
521.978
 20
97.8451
 10
521.5
 20
97.75
 10
521.022
 20
97.8451
 10
520.616
 20
98.1161
 10
520.345
 20
98.5216
  0
LWPOLYLINE
  5
75
330
17
100
AcDbEntity
  8
DRILL
100
AcDbPolyline
 90
16
 70
1
 10
520.25
 20
115.0
 10
520.345
 20
115.478
 10
520.616
 20
115.884
 10
521.022
 20
116.155
 10
521.5
 20
116.25
 10
521.978
 20
116.155
 10
522.384
 20
115.884
 10
522.655
 20
115.478
 10
522.75
 20
115.0
 10
522.655
 20
114.522
 10
522.384
 20
114.116
 10
521.978
 20
113.845
 10
521.5
 20
113.75
 10
521.022
 20
113.845
 10
520.616
 20
114.116
 10
520.345
 20
114.522
  0
LWPOLYLINE
  5
76
330
17
100
AcDbEntity
  8
DRILL
100
AcDbPolyline
 90
16
 70
1
 10
730.25
 20
6.5
 10
730.345
 20
6.97835
 10
730.616
 20
7.38388
 10
731.022
 20
7.65485
 10
731.5
 20
7.75
 10
731.978
 20
7.65485
 10
732.384
 20
7.38388
 10
732.655
 20
6.97835
 10
732.75
 20
6.5
 10
732.655
 20
6.02165
 10
732.384
 20
5.61612
 10
731.978
 20
5.34515
 10
731.5
 20
5.25
 10
731.022
 20
5.34515
 10
730.616
 20
5.61612
 10
730.345
 20
6.02165
  0
LWPOLYLINE
  5
77
330
17
100
AcDbEntity
  8
DRILL
100
AcDbPolyline
 90
16
 70
1
 10
730.25
 20
35.0
 10
730.345
 20
35.4784
 10
730.616
 20
35.8839
 10
731.022
 20
36.1548
 10
731.5
 20
36.25
 10
731.978
 20
36.1548
 10
732.384
 20
35.8839
 10
732.655
 20
35.4784
 10
732.75
 20
35.0
 10
732.655
 20
34.5216
 10
732.384
 20
34.1161
 10
731.978
 20
33.8451
 10
731.5
 20
33.75
 10
731.022
 20
33.8451
 10
730.616
 20
34.1161
 10
730.345
 20
34.5216
  0
LWPOLYLINE
  5
78
330
17
100
AcDbEntity
  8
DRILL
100
AcDbPolyline
 90
16
 70
1
 10
730.25
 20
51.0
 10
730.345
 20
51.4784
 10
730.616
 20
51.8839
 10
731.022
 20
52.1548
 10
731.5
 20
52.25
 10
731.978
 20
52.1548
 10
732.384
 20
51.8839
 10
732.655
 20
51.4784
 10
732.75
 20
51.0
 10
732.655
 20
50.5216
 10
732.384
 20
50.1161
 10
731.978
 20
49.8451
 10
731.5
 20
49.75
 10
731.022
 20
49.8451
 10
730.616
 20
50.1161
 10
730.345
 20
50.5216
  0
LWPOLYLINE
  5
79
330
17
100
AcDbEntity
  8
DRILL
100
AcDbPolyline
 90
16
 70
1
 10
730.25
 20
76.0
 10
730.345
 20
76.4784
 10
730.616
 20
76.8839
 10
731.022
 20
77.1548
 10
731.5
 20
77.25
 10
731.978
 20
77.1548
 10
732.384
 20
76.8839
 10
732.655
 20
76.4784
 10
732.75
 20
76.0
 10
732.655
 20
75.5216
 10
732.384
 20
75.1161
 10
731.978
 20
74.8451
 10
731.5
 20
74.75
 10
731.022
 20
74.8451
 10
730.616
 20
75.1161
 10
730.345
 20
75.5216
  0
LWPOLYLINE
  5
7A
330
17
100
AcDbEntity
  8
DRILL
100
AcDbPolyline
 90
16
 70
1
 10
730.25
 20
99.0
 10
730.345
 20
99.4784
 10
730.616
 20
99.8839
 10
731.022
 20
100.155
 10
731.5
 20
100.25
 10
731.978
 20
100.155
 10
732.384
 20
99.8839
 10
732.655
 20
99.4784
 10
732.75
 20
99.0
 10
732.655
 20
98.5216
 10
732.384
 20
98.1161
 10
731.978
 20
97.8451
 10
731.5
 20
97.75
 10
731.022
 20
97.8451
 10
730.616
 20
98.1161
 10
730.345
 20
98.5216
  0
LWPOLYLINE
  5
7B
330
17
100
AcDbEntity
  8
DRILL
100
AcDbPolyline
 90
16
 70
1
 10
730.25
 20
115.0
 10
730.345
 20
115.478
 10
730.616
 20
115.884
 10
731.022
 20
116.155
 10
731.5
 20
116.25
 10
731.978
 20
116.155
 10
732.384
 20
115.884
 10
732.655
 20
115.478
 10
732.75
 20
115.0
 10
732.655
 20
114.522
 10
732.384
 20
114.116
 10
731.978
 20
113.845
 10
731.5
 20
113.75
 10
731.022
 20
113.845
 10
730.616
 20
114.116
 10
730.345
 20
114.522
  0
LWPOLYLINE
  5
7C
330
17
100
AcDbEntity
  8
DRILL
100
AcDbPolyline
 90
16
 70
1
 10
940.25
 20
6.5
 10
940.345
 20
6.97835
 10
940.616
 20
7.38388
 10
941.022
 20
7.65485
 10
941.5
 20
7.75
 10
941.978
 20
7.65485
 10
942.384
 20
7.38388
 10
942.655
 20
6.97835
 10
942.75
 20
6.5
 10
942.655
 20
6.02165
 10
942.384
 20
5.61612
 10
941.978
 20
5.34515
 10
941.5
 20
5.25
 10
941.022
 20
5.34515
 10
940.616
 20
5.61612
 10
940.345
 20
6.02165
  0
LWPOLYLINE
  5
7D
330
17
100
AcDbEntity
  8
DRILL
100
AcDbPolyline
 90
16
 70
1
 10
940.25
 20
35.0
 10
940.345
 20
35.4784
 10
940.616
 20
35.8839
 10
941.022
 20
36.1548
 10
941.5
 20
36.25
 10
941.978
 20
36.1548
 10
942.384
 20
35.8839
 10
942.655
 20
35.4784
 10
942.75
 20
35.0
 10
942.655
 20
34.5216
 10
942.384
 20
34.1161
 10
941.978
 20
33.8451
 10
941.5
 20
33.75
 10
941.022
 20
33.8451
 10
940.616
 20
34.1161
 10
940.345
 20
34.5216
  0
LWPOLYLINE
  5
7E
330
17
100
AcDbEntity
  8
DRILL
100
AcDbPolyline
 90
16
 70
1
 10
940.25
 20
51.0
 10
940.345
 20
51.4784
 10
940.616
 20
51.8839
 10
941.022
 20
52.1548
 10
941.5
 20
52.25
 10
941.978
 20
52.1548
 10
942.384
 20
51.8839
 10
942.655
 20
51.4784
 10
942.75
 20
51.0
 10
942.655
 20
50.5216
 10
942.384
 20
50.1161
 10
941.978
 20
49.8451
 10
941.5
 20
49.75
 10
941.022
 20
49.8451
 10
940.616
 20
50.1161
 10
940.345
 20
50.5216
  0
LWPOLYLINE
  5
7F
330
17
100
AcDbEntity
  8
DRILL
100
AcDbPolyline
 90
16
 70
1
 10
940.25
 20
76.0
 10
940.345
 20
76.4784
 10
940.616
 20
76.8839
 10
941.022
 20
77.1548
 10
941.5
 20
77.25
 10
941.978
 20
77.1548
 10
942.384
 20
76.8839
 10
942.655
 20
76.4784
 10
942.75
 20
76.0
 10
942.655
 20
75.5216
 10
942.384
 20
75.1161
 10
941.978
 20
74.8451
 10
941.5
 20
74.75
 10
941.022
 20
74.8451
 10
940.616
 20
75.1161
 10
940.345
 20
75.5216
  0
LWPOLYLINE
  5
80
330
17
100
AcDbEntity
  8
DRILL
100
AcDbPolyline
 90
16
 70
1
 10
940.25
 20
99.0
 10
940.345
 20
99.4784
 10
940.616
 20
99.8839
 10
941.022
 20
100.155
 10
941.5
 20
100.25
 10
941.978
 20
100.155
 10
942.384
 20
99.8839
 10
942.655
 20
99.4784
 10
942.75
 20
99.0
 10
942.655
 20
98.5216
 10
942.384
 20
98.1161
 10
941.978
 20
97.8451
 10
941.5
 20
97.75
 10
941.022
 20
97.8451
 10
940.616
 20
98.1161
 10
940.345
 20
98.5216
  0
LWPOLYLINE
  5
81
330
17
100
AcDbEntity
  8
DRILL
100
AcDbPolyline
 90
16
 70
1
 10
940.25
 20
115.0
 10
940.345
 20
115.478
 10
940.616
 20
115.884
 10
941.022
 20
116.155
 10
941.5
 20
116.25
 10
941.978
 20
116.155
 10
942.384
 20
115.884
 10
942.655
 20
115.478
 10
942.75
 20
115.0
 10
942.655
 20
114.522
 10
942.384
 20
114.116
 10
941.978
 20
113.845
 10
941.5
 20
113.75
 10
941.022
 20
113.845
 10
940.616
 20
114.116
 10
940.345
 20
114.522
  0
LWPOLYLINE
  5
82
330
17
100
AcDbEntity
  8
DRILL
100
AcDbPolyline
 90
16
 70
1
 10
1150.25
 20
6.5
 10
1150.35
 20
6.97835
 10
1150.62
 20
7.38388
 10
1151.02
 20
7.65485
 10
1151.5
 20
7.75
 10
1151.98
 20
7.65485
 10
1152.38
 20
7.38388
 10
1152.65
 20
6.97835
 10
1152.75
 20
6.5
 10
1152.65
 20
6.02165
 10
1152.38
 20
5.61612
 10
1151.98
 20
5.34515
 10
1151.5
 20
5.25
 10
1151.02
 20
5.34515
 10
1150.62
 20
5.61612
 10
1150.35
 20
6.02165
  0
LWPOLYLINE
  5
83
330
17
100
AcDbEntity
  8
DRILL
100
AcDbPolyline
 90
16
 70
1
 10
1150.25
 20
35.0
 10
1150.35
 20
35.4784
 10
1150.62
 20
35.8839
 10
1151.02
 20
36.1548
 10
1151.5
 20
36.25
 10
1151.98
 20
36.1548
 10
1152.38
 20
35.8839
 10
1152.65
 20
35.4784
 10
1152.75
 20
35.0
 10
1152.65
 20
34.5216
 10
1152.38
 20
34.1161
 10
1151.98
 20
33.8451
 10
1151.5
 20
33.75
 10
1151.02
 20
33.8451
 10
1150.62
 20
34.1161
 10
1150.35
 20
34.5216
  0
LWPOLYLINE
  5
84
330
17
100
AcDbEntity
  8
DRILL
100
AcDbPolyline
 90
16
 70
1
 10
1150.25
 20
51.0
 10
1150.35
 20
51.4784
 10
1150.62
 20
51.8839
 10
1151.02
 20
52.1548
 10
1151.5
 20
52.25
 10
1151.98
 20
52.1548
 10
1152.38
 20
51.8839
 10
1152.65
 20
51.4784
 10
1152.75
 20
51.0
 10
1152.65
 20
50.5216
 10
1152.38
 20
50.1161
 10
1151.98
 20
49.8451
 10
1151.5
 20
49.75
 10
1151.02
 20
49.8451
 10
1150.62
 20
50.1161
 10
1150.35
 20
50.5216
  0
LWPOLYLINE
  5
85
330
17
100
AcDbEntity
  8
DRILL
100
AcDbPolyline
 90
16
 70
1
 10
1150.25
 20
76.0
 10
1150.35
 20
76.4784
 10
1150.62
 20
76.8839
 10
1151.02
 20
77.1548
 10
1151.5
 20
77.25
 10
1151.98
 20
77.1548
 10
1152.38
 20
76.8839
 10
1152.65
 20
76.4784
 10
1152.75
 20
76.0
 10
1152.65
 20
75.5216
 10
1152.38
 20
75.1161
 10
1151.98
 20
74.8451
 10
1151.5
 20
74.75
 10
1151.02
 20
74.8451
 10
1150.62
 20
75.1161
 10
1150.35
 20
75.5216
  0
LWPOLYLINE
  5
86
330
17
100
AcDbEntity
  8
DRILL
100
AcDbPolyline
 90
16
 70
1
 10
1150.25
 20
99.0
 10
1150.35
 20
99.4784
 10
1150.62
 20
99.8839
 10
1151.02
 20
100.155
 10
1151.5
 20
100.25
 10
1151.98
 20
100.155
 10
1152.38
 20
99.8839
 10
1152.65
 20
99.4784
 10
1152.75
 20
99.0
 10
1152.65
 20
98.5216
 10
1152.38
 20
98.1161
 10
1151.98
 20
97.8451
 10
1151.5
 20
97.75
 10
1151.02
 20
97.8451
 10
1150.62
 20
98.1161
 10
1150.35
 20
98.5216
  0
LWPOLYLINE
  5
87
330
17
100
AcDbEntity
  8
DRILL
100
AcDbPolyline
 90
16
 70
1
 10
1150.25
 20
115.0
 10
1150.35
 20
115.478
 10
1150.62
 20
115.884
 10
1151.02
 20
116.155
 10
1151.5
 20
116.25
 10
1151.98
 20
116.155
 10
1152.38
 20
115.884
 10
1152.65
 20
115.478
 10
1152.75
 20
115.0
 10
1152.65
 20
114.522
 10
1152.38
 20
114.116
 10
1151.98
 20
113.845
 10
1151.5
 20
113.75
 10
1151.02
 20
113.845
 10
1150.62
 20
114.116
 10
1150.35
 20
114.522
  0
LWPOLYLINE
  5
88
330
17
100
AcDbEntity
  8
DRILL
100
AcDbPolyline
 90
16
 70
1
 10
1296.5
 20
50.0
 10
1296.65
 20
50.7654
 10
1297.09
 20
51.4142
 10
1297.73
 20
51.8478
 10
1298.5
 20
52.0
 10
1299.27
 20
51.8478
 10
1299.91
 20
51.4142
 10
1300.35
 20
50.7654
 10
1300.5
 20
50.0
 10
1300.35
 20
49.2346
 10
1299.91
 20
48.5858
 10
1299.27
 20
48.1522
 10
1298.5
 20
48.0
 10
1297.73
 20
48.1522
 10
1297.09
 20
48.5858
 10
1296.65
 20
49.2346
  0
LWPOLYLINE
  5
89
330
17
100
AcDbEntity
  8
DRILL
100
AcDbPolyline
 90
16
 70
1
 10
1296.5
 20
180.0
 10
1296.65
 20
180.765
 10
1297.09
 20
181.414
 10
1297.73
 20
181.848
 10
1298.5
 20
182.0
 10
1299.27
 20
181.848
 10
1299.91
 20
181.414
 10
1300.35
 20
180.765
 10
1300.5
 20
180.0
 10
1300.35
 20
179.235
 10
1299.91
 20
178.586
 10
1299.27
 20
178.152
 10
1298.5
 20
178.0
 10
1297.73
 20
178.152
 10
1297.09
 20
178.586
 10
1296.65
 20
179.235
  0
LWPOLYLINE
  5
8A
330
17
100
AcDbEntity
  8
DRILL
100
AcDbPolyline
 90
16
 70
1
 10
1627.17
 20
50.0
 10
1627.32
 20
50.7654
 10
1627.75
 20
51.4142
 10
1628.4
 20
51.8478
 10
1629.17
 20
52.0
 10
1629.93
 20
51.8478
 10
1630.58
 20
51.4142
 10
1631.01
 20
50.7654
 10
1631.17
 20
50.0
 10
1631.01
 20
49.2346
 10
1630.58
 20
48.5858
 10
1629.93
 20
48.1522
 10
1629.17
 20
48.0
 10
1628.4
 20
48.1522
 10
1627.75
 20
48.5858
 10
1627.32
 20
49.2346
  0
LWPOLYLINE
  5
8B
330
17
100
AcDbEntity
  8
DRILL
100
AcDbPolyline
 90
16
 70
1
 10
1627.17
 20
180.0
 10
1627.32
 20
180.765
 10
1627.75
 20
181.414
 10
1628.4
 20
181.848
 10
1629.17
 20
182.0
 10
1629.93
 20
181.848
 10
1630.58
 20
181.414
 10
1631.01
 20
180.765
 10
1631.17
 20
180.0
 10
1631.01
 20
179.235
 10
1630.58
 20
178.586
 10
1629.93
 20
178.152
 10
1629.17
 20
178.0
 10
1628.4
 20
178.152
 10
1627.75
 20
178.586
 10
1627.32
 20
179.235
  0
LWPOLYLINE
  5
8C
330
17
100
AcDbEntity
  8
DRILL
100
AcDbPolyline
 90
16
 70
1
 10
1957.83
 20
50.0
 10
1957.99
 20
50.7654
 10
1958.42
 20
51.4142
 10
1959.07
 20
51.8478
 10
1959.83
 20
52.0
 10
1960.6
 20
51.8478
 10
1961.25
 20
51.4142
 10
1961.68
 20
50.7654
 10
1961.83
 20
50.0
 10
1961.68
 20
49.2346
 10
1961.25
 20
48.5858
 10
1960.6
 20
48.1522
 10
1959.83
 20
48.0
 10
1959.07
 20
48.1522
 10
1958.42
 20
48.5858
 10
1957.99
 20
49.2346
  0
LWPOLYLINE
  5
8D
330
17
100
AcDbEntity
  8
DRILL
100
AcDbPolyline
 90
16
 70
1
 10
1957.83
 20
180.0
 10
1957.99
 20
180.765
 10
1958.42
 20
181.414
 10
1959.07
 20
181.848
 10
1959.83
 20
182.0
 10
1960.6
 20
181.848
 10
1961.25
 20
181.414
 10
1961.68
 20
180.765
 10
1961.83
 20
180.0
 10
1961.68
 20
179.235
 10
1961.25
 20
178.586
 10
1960.6
 20
178.152
 10
1959.83
 20
178.0
 10
1959.07
 20
178.152
 10
1958.42
 20
178.586
 10
1957.99
 20
179.235
  0
LWPOLYLINE
  5
8E
330
17
100
AcDbEntity
  8
DRILL
100
AcDbPolyline
 90
16
 70
1
 10
2288.5
 20
50.0
 10
2288.65
 20
50.7654
 10
2289.09
 20
51.4142
 10
2289.73
 20
51.8478
 10
2290.5
 20
52.0
 10
2291.27
 20
51.8478
 10
2291.91
 20
51.4142
 10
2292.35
 20
50.7654
 10
2292.5
 20
50.0
 10
2292.35
 20
49.2346
 10
2291.91
 20
48.5858
 10
2291.27
 20
48.1522
 10
2290.5
 20
48.0
 10
2289.73
 20
48.1522
 10
2289.09
 20
48.5858
 10
2288.65
 20
49.2346
  0
LWPOLYLINE
  5
8F
330
17
100
AcDbEntity
  8
DRILL
100
AcDbPolyline
 90
16
 70
1
 10
2288.5
 20
180.0
 10
2288.65
 20
180.765
 10
2289.09
 20
181.414
 10
2289.73
 20
181.848
 10
2290.5
 20
182.0
 10
2291.27
 20
181.848
 10
2291.91
 20
181.414
 10
2292.35
 20
180.765
 10
2292.5
 20
180.0
 10
2292.35
 20
179.235
 10
2291.91
 20
178.586
 10
2291.27
 20
178.152
 10
2290.5
 20
178.0
 10
2289.73
 20
178.152
 10
2289.09
 20
178.586
 10
2288.65
 20
179.235
  0
TEXT
  5
90
330
17
100
AcDbEntity
  8
ANNOTATION
100
AcDbText
 10
2320.0
 20
230.0
 30
0.0
 40
3.75
  1
Hole Schedule
100
AcDbText
  0
TEXT
  5
91
330
17
100
AcDbEntity
  8
ANNOTATION
100
AcDbText
 10
2320.0
 20
222.5
 30
0.0
 40
2.5
  1
Hole Name
100
AcDbText
  0
TEXT
  5
92
330
17
100
AcDbEntity
  8
ANNOTATION
100
AcDbText
 10
2360.0
 20
222.5
 30
0.0
 40
2.5
  1
X
100
AcDbText
  0
TEXT
  5
93
330
17
100
AcDbEntity
  8
ANNOTATION
100
AcDbText
 10
2380.0
 20
222.5
 30
0.0
 40
2.5
  1
Y
100
AcDbText
  0
TEXT
  5
94
330
17
100
AcDbEntity
  8
ANNOTATION
100
AcDbText
 10
2400.0
 20
222.5
 30
0.0
 40
2.5
  1
Z
100
AcDbText
  0
TEXT
  5
95
330
17
100
AcDbEntity
  8
ANNOTATION
100
AcDbText
 10
2420.0
 20
222.5
 30
0.0
 40
2.5
  1
Dia
100
AcDbText
  0
TEXT
  5
96
330
17
100
AcDbEntity
  8
ANNOTATION
100
AcDbText
 10
2440.0
 20
222.5
 30
0.0
 40
2.5
  1
Depth
100
AcDbText
  0
LINE
  5
97
330
17
100
AcDbEntity
  8
ANNOTATION
100
AcDbLine
 10
2320.0
 20
221.25
 30
0.0
 11
2460.0
 21
221.25
 31
0.0
  0
TEXT
  5
98
330
17
100
AcDbEntity
  8
ANNOTATION
100
AcDbText
 10
2320.0
 20
216.875
 30
0.0
 40
2.5
  1
confirmat_bottom_1
100
AcDbText
  0
TEXT
  5
99
330
17
100
AcDbEntity
  8
ANNOTATION
100
AcDbText
 10
2360.0
 20
216.875
 30
0.0
 40
2.5
  1
9.5
100
AcDbText
  0
TEXT
  5
9A
330
17
100
AcDbEntity
  8
ANNOTATION
100
AcDbText
 10
2380.0
 20
216.875
 30
0.0
 40
2.5
  1
50.0
100
AcDbText
  0
TEXT
  5
9B
330
17
100
AcDbEntity
  8
ANNOTATION
100
AcDbText
 10
2400.0
 20
216.875
 30
0.0
 40
2.5
  1
0.0
100
AcDbText
  0
TEXT
  5
9C
330
17
100
AcDbEntity
  8
ANNOTATION
100
AcDbText
 10
2420.0
 20
216.875
 30
0.0
 40
2.5
  1
4.0
100
AcDbText
  0
TEXT
  5
9D
330
17
100
AcDbEntity
  8
ANNOTATION
100
AcDbText
 10
2440.0
 20
216.875
 30
0.0
 40
2.5
  1
19.0
100
AcDbText
  0
TEXT
  5
9E
330
17
100
AcDbEntity
  8
ANNOTATION
100
AcDbText
 10
2320.0
 20
213.125
 30
0.0
 40
2.5
  1
confirmat_bottom_2
100
AcDbText
  0
TEXT
  5
9F
330
17
100
AcDbEntity
  8
ANNOTATION
100
AcDbText
 10
2360.0
 20
213.125
 30
0.0
 40
2.5
  1
9.5
100
AcDbText
  0
TEXT
  5
A0
330
17
100
AcDbEntity
  8
ANNOTATION
100
AcDbText
 10
2380.0
 20
213.125
 30
0.0
 40
2.5
  1
180.0
100
AcDbText
  0
TEXT
  5
A1
330
17
100
AcDbEntity
  8
ANNOTATION
100
AcDbText
 10
2400.0
 20
213.125
 30
0.0
 40
2.5
  1
0.0
100
AcDbText
  0
TEXT
  5
A2
330
17
100
AcDbEntity
  8
ANNOTATION
100
AcDbText
 10
2420.0
 20
213.125
 30
0.0
 40
2.5
  1
4.0
100
AcDbText
  0
TEXT
  5
A3
330
17
100
AcDbEntity
  8
ANNOTATION
100
AcDbText
 10
2440.0
 20
213.125
 30
0.0
 40
2.5
  1
19.0
100
AcDbText
  0
TEXT
  5
A4
330
17
100
AcDbEntity
  8
ANNOTATION
100
AcDbText
 10
2320.0
 20
209.375
 30
0.0
 40
2.5
  1
confirmat_top_1
100
AcDbText
  0
TEXT
  5
A5
330
17
100
AcDbEntity
  8
ANNOTATION
100
AcDbText
 10
2360.0
 20
209.375
 30
0.0
 40
2.5
  1
2290.5
100
AcDbText
  0
TEXT
  5
A6
330
17
100
AcDbEntity
  8
ANNOTATION
100
AcDbText
 10
2380.0
 20
209.375
 30
0.0
 40
2.5
  1
50.0
100
AcDbText
  0
TEXT
  5
A7
330
17
100
AcDbEntity
  8
ANNOTATION
100
AcDbText
 10
2400.0
 20
209.375
 30
0.0
 40
2.5
  1
0.0
100
AcDbText
  0
TEXT
  5
A8
330
17
100
AcDbEntity
  8
ANNOTATION
100
AcDbText
 10
2420.0
 20
209.375
 30
0.0
 40
2.5
  1
4.0
100
AcDbText
  0
TEXT
  5
A9
330
17
100
AcDbEntity
  8
ANNOTATION
100
AcDbText
 10
2440.0
 20
209.375
 30
0.0
 40
2.5
  1
19.0
100
AcDbText
  0
TEXT
  5
AA
330
17
100
AcDbEntity
  8
ANNOTATION
100
AcDbText
 10
2320.0
 20
205.625
 30
0.0
 40
2.5
  1
confirmat_top_2
100
AcDbText
  0
TEXT
  5
AB
330
17
100
AcDbEntity
  8
ANNOTATION
100
AcDbText
 10
2360.0
 20
205.625
 30
0.0
 40
2.5
  1
2290.5
100
AcDbText
  0
TEXT
  5
AC
330
17
100
AcDbEntity
  8
ANNOTATION
100
AcDbText
 10
2380.0
 20
205.625
 30
0.0
 40
2.5
  1
180.0
100
AcDbText
  0
TEXT
  5
AD
330
17
100
AcDbEntity
  8
ANNOTATION
100
AcDbText
 10
2400.0
 20
205.625
 30
0.0
 40
2.5
  1
0.0
100
AcDbText
  0
TEXT
  5
AE
330
17
100
AcDbEntity
  8
ANNOTATION
100
AcDbText
 10
2420.0
 20
205.625
 30
0.0
 40
2.5
  1
4.0
100
AcDbText
  0
TEXT
  5
AF
330
17
100
AcDbEntity
  8
ANNOTATION
100
AcDbText
 10
2440.0
 20
205.625
 30
0.0
 40
2.5
  1
19.0
100
AcDbText
  0
TEXT
  5
B0
330
17
100
AcDbEntity
  8
ANNOTATION
100
AcDbText
 10
2320.0
 20
201.875
 30
0.0
 40
2.5
  1
confirmat_middle_1
100
AcDbText
  0
TEXT
  5
B1
330
17
100
AcDbEntity
  8
ANNOTATION
100
AcDbText
 10
2360.0
 20
201.875
 30
0.0
 40
2.5
  1
1298.5
100
AcDbText
  0
TEXT
  5
B2
330
17
100
AcDbEntity
  8
ANNOTATION
100
AcDbText
 10
2380.0
 20
201.875
 30
0.0
 40
2.5
  1
50.0
100
AcDbText
  0
TEXT
  5
B3
330
17
100
AcDbEntity
  8
ANNOTATION
100
AcDbText
 10
2400.0
 20
201.875
 30
0.0
 40
2.5
  1
0.0
100
AcDbText
  0
TEXT
  5
B4
330
17
100
AcDbEntity
  8
ANNOTATION
100
AcDbText
 10
2420.0
 20
201.875
 30
0.0
 40
2.5
  1
4.0
100
AcDbText
  0
TEXT
  5
B5
330
17
100
AcDbEntity
  8
ANNOTATION
100
AcDbText
 10
2440.0
 20
201.875
 30
0.0
 40
2.5
  1
19.0
100
AcDbText
  0
TEXT
  5
B6
330
17
100
AcDbEntity
  8
ANNOTATION
100
AcDbText
 10
2320.0
 20
198.125
 30
0.0
 40
2.5
  1
confirmat_middle_2
100
AcDbText
  0
TEXT
  5
B7
330
17
100
AcDbEntity
  8
ANNOTATION
100
AcDbText
 10
2360.0
 20
198.125
 30
0.0
 40
2.5
  1
1298.5
100
AcDbText
  0
TEXT
  5
B8
330
17
100
AcDbEntity
  8
ANNOTATION
100
AcDbText
 10
2380.0
 20
198.125
 30
0.0
 40
2.5
  1
180.0
100
AcDbText
  0
TEXT
  5
B9
330
17
100
AcDbEntity
  8
ANNOTATION
100
AcDbText
 10
2400.0
 20
198.125
 30
0.0
 40
2.5
  1
0.0
100
AcDbText
  0
TEXT
  5
BA
330
17
100
AcDbEntity
  8
ANNOTATION
100
AcDbText
 10
2420.0
 20
198.125
 30
0.0
 40
2.5
  1
4.0
100
AcDbText
  0
TEXT
  5
BB
330
17
100
AcDbEntity
  8
ANNOTATION
100
AcDbText
 10
2440.0
 20
198.125
 30
0.0
 40
2.5
  1
19.0
100
AcDbText
  0
TEXT
  5
BC
330
17
100
AcDbEntity
  8
ANNOTATION
100
AcDbText
 10
2320.0
 20
194.375
 30
0.0
 40
2.5
  1
confirmat_shelf_0_1
100
AcDbText
  0
TEXT
  5
BD
330
17
100
AcDbEntity
  8
ANNOTATION
100
AcDbText
 10
2360.0
 20
194.375
 30
0.0
 40
2.5
  1
1629.17
100
AcDbText
  0
TEXT
  5
BE
330
17
100
AcDbEntity
  8
ANNOTATION
100
AcDbText
 10
2380.0
 20
194.375
 30
0.0
 40
2.5
  1
50.0
100
AcDbText
  0
TEXT
  5
BF
330
17
100
AcDbEntity
  8
ANNOTATION
100
AcDbText
 10
2400.0
 20
194.375
 30
0.0
 40
2.5
  1
0.0
100
AcDbText
  0
TEXT
  5
C0
330
17
100
AcDbEntity
  8
ANNOTATION
100
AcDbText
 10
2420.0
 20
194.375
 30
0.0
 40
2.5
  1
4.0
100
AcDbText
  0
TEXT
  5
C1
330
17
100
AcDbEntity
  8
ANNOTATION
100
AcDbText
 10
2440.0
 20
194.375
 30
0.0
 40
2.5
  1
19.0
100
AcDbText
  0
TEXT
  5
C2
330
17
100
AcDbEntity
  8
ANNOTATION
100
AcDbText
 10
2320.0
 20
190.625
 30
0.0
 40
2.5
  1
confirmat_shelf_0_2
100
AcDbText
  0
TEXT
  5
C3
330
17
100
AcDbEntity
  8
ANNOTATION
100
AcDbText
 10
2360.0
 20
190.625
 30
0.0
 40
2.5
  1
1629.17
100
AcDbText
  0
TEXT
  5
C4
330
17
100
AcDbEntity
  8
ANNOTATION
100
AcDbText
 10
2380.0
 20
190.625
 30
0.0
 40
2.5
  1
180.0
100
AcDbText
  0
TEXT
  5
C5
330
17
100
AcDbEntity
  8
ANNOTATION
100
AcDbText
 10
2400.0
 20
190.625
 30
0.0
 40
2.5
  1
0.0
100
AcDbText
  0
TEXT
  5
C6
330
17
100
AcDbEntity
  8
ANNOTATION
100
AcDbText
 10
2420.0
 20
190.625
 30
0.0
 40
2.5
  1
4.0
100
AcDbText
  0
TEXT
  5
C7
330
17
100
AcDbEntity
  8
ANNOTATION
100
AcDbText
 10
2440.0
 20
190.625
 30
0.0
 40
2.5
  1
19.0
100
AcDbText
  0
TEXT
  5
C8
330
17
100
AcDbEntity
  8
ANNOTATION
100
AcDbText
 10
2320.0
 20
186.875
 30
0.0
 40
2.5
  1
confirmat_shelf_1_1
100
AcDbText
  0
TEXT
  5
C9
330
17
100
AcDbEntity
  8
ANNOTATION
100
AcDbText
 10
2360.0
 20
186.875
 30
0.0
 40
2.5
  1
1959.83
100
AcDbText
  0
TEXT
  5
CA
330
17
100
AcDbEntity
  8
ANNOTATION
100
AcDbText
 10
2380.0
 20
186.875
 30
0.0
 40
2.5
  1
50.0
100
AcDbText
  0
TEXT
  5
CB
330
17
100
AcDbEntity
  8
ANNOTATION
100
AcDbText
 10
2400.0
 20
186.875
 30
0.0
 40
2.5
  1
0.0
100
AcDbText
  0
TEXT
  5
CC
330
17
100
AcDbEntity
  8
ANNOTATION
100
AcDbText
 10
2420.0
 20
186.875
 30
0.0
 40
2.5
  1
4.0
100
AcDbText
  0
TEXT
  5
CD
330
17
100
AcDbEntity
  8
ANNOTATION
100
AcDbText
 10
2440.0
 20
186.875
 30
0.0
 40
2.5
  1
19.0
100
AcDbText
  0
TEXT
  5
CE
330
17
100
AcDbEntity
  8
ANNOTATION
100
AcDbText
 10
2320.0
 20
183.125
 30
0.0
 40
2.5
  1
confirmat_shelf_1_2
100
AcDbText
  0
TEXT
  5
CF
330
17
100
AcDbEntity
  8
ANNOTATION
100
AcDbText
 10
2360.0
 20
183.125
 30
0.0
 40
2.5
  1
1959.83
100
AcDbText
  0
TEXT
  5
D0
330
17
100
AcDbEntity
  8
ANNOTATION
100
AcDbText
 10
2380.0
 20
183.125
 30
0.0
 40
2.5
  1
180.0
100
AcDbText
  0
TEXT
  5
D1
330
17
100
AcDbEntity
  8
ANNOTATION
100
AcDbText
 10
2400.0
 20
183.125
 30
0.0
 40
2.5
  1
0.0
100
AcDbText
  0
TEXT
  5
D2
330
17
100
AcDbEntity
  8
ANNOTATION
100
AcDbText
 10
2420.0
 20
183.125
 30
0.0
 40
2.5
  1
4.0
100
AcDbText
  0
TEXT
  5
D3
330
17
100
AcDbEntity
  8
ANNOTATION
100
AcDbText
 10
2440.0
 20
183.125
 30
0.0
 40
2.5
  1
19.0
100
AcDbText
  0
TEXT
  5
D4
330
17
100
AcDbEntity
  8
ANNOTATION
100
AcDbText
 10
2320.0
 20
179.375
 30
0.0
 40
2.5
  1
slide_pilot_0_0
100
AcDbText
  0
TEXT
  5
D5
330
17
100
AcDbEntity
  8
ANNOTATION
100
AcDbText
 10
2360.0
 20
179.375
 30
0.0
 40
2.5
  1
101.5
100
AcDbText
  0
TEXT
  5
D6
330
17
100
AcDbEntity
  8
ANNOTATION
100
AcDbText
 10
2380.0
 20
179.375
 30
0.0
 40
2.5
  1
6.5
100
AcDbText
  0
TEXT
  5
D7
330
17
100
AcDbEntity
  8
ANNOTATION
100
AcDbText
 10
2400.0
 20
179.375
 30
0.0
 40
2.5
  1
0.0
100
AcDbText
  0
TEXT
  5
D8
330
17
100
AcDbEntity
  8
ANNOTATION
100
AcDbText
 10
2420.0
 20
179.375
 30
0.0
 40
2.5
  1
2.5
100
AcDbText
  0
TEXT
  5
D9
330
17
100
AcDbEntity
  8
ANNOTATION
100
AcDbText
 10
2440.0
 20
179.375
 30
0.0
 40
2.5
  1
2.0
100
AcDbText
  0
TEXT
  5
DA
330
17
100
AcDbEntity
  8
ANNOTATION
100
AcDbText
 10
2320.0
 20
175.625
 30
0.0
 40
2.5
  1
slide_pilot_0_1
100
AcDbText
  0
TEXT
  5
DB
330
17
100
AcDbEntity
  8
ANNOTATION
100
AcDbText
 10
2360.0
 20
175.625
 30
0.0
 40
2.5
  1
101.5
100
AcDbText
  0
TEXT
  5
DC
330
17
100
AcDbEntity
  8
ANNOTATION
100
AcDbText
 10
2380.0
 20
175.625
 30
0.0
 40
2.5
  1
35.0
100
AcDbText
  0
TEXT
  5
DD
330
17
100
AcDbEntity
  8
ANNOTATION
100
AcDbText
 10
2400.0
 20
175.625
 30
0.0
 40
2.5
  1
0.0
100
AcDbText
  0
TEXT
  5
DE
330
17
100
AcDbEntity
  8
ANNOTATION
100
AcDbText
 10
2420.0
 20
175.625
 30
0.0
 40
2.5
  1
2.5
100
AcDbText
  0
TEXT
  5
DF
330
17
100
AcDbEntity
  8
ANNOTATION
100
AcDbText
 10
2440.0
 20
175.625
 30
0.0
 40
2.5
  1
2.0
100
AcDbText
  0
TEXT
  5
E0
330
17
100
AcDbEntity
  8
ANNOTATION
100
AcDbText
 10
2320.0
 20
171.875
 30
0.0
 40
2.5
  1
slide_pilot_0_2
100
AcDbText
  0
TEXT
  5
E1
330
17
100
AcDbEntity
  8
ANNOTATION
100
AcDbText
 10
2360.0
 20
171.875
 30
0.0
 40
2.5
  1
101.5
100
AcDbText
  0
TEXT
  5
E2
330
17
100
AcDbEntity
  8
ANNOTATION
100
AcDbText
 10
2380.0
 20
171.875
 30
0.0
 40
2.5
  1
51.0
100
AcDbText
  0
TEXT
  5
E3
330
17
100
AcDbEntity
  8
ANNOTATION
100
AcDbText
 10
2400.0
 20
171.875
 30
0.0
 40
2.5
  1
0.0
100
AcDbText
  0
TEXT
  5
E4
330
17
100
AcDbEntity
  8
ANNOTATION
100
AcDbText
 10
2420.0
 20
171.875
 30
0.0
 40
2.5
  1
2.5
100
AcDbText
  0
TEXT
  5
E5
330
17
100
AcDbEntity
  8
ANNOTATION
100
AcDbText
 10
2440.0
 20
171.875
 30
0.0
 40
2.5
  1
2.0
100
AcDbText
  0
TEXT
  5
E6
330
17
100
AcDbEntity
  8
ANNOTATION
100
AcDbText
 10
2320.0
 20
168.125
 30
0.0
 40
2.5
  1
slide_pilot_0_3
100
AcDbText
  0
TEXT
  5
E7
330
17
100
AcDbEntity
  8
ANNOTATION
100
AcDbText
 10
2360.0
 20
168.125
 30
0.0
 40
2.5
  1
101.5
100
AcDbText
  0
TEXT
  5
E8
330
17
100
AcDbEntity
  8
ANNOTATION
100
AcDbText
 10
2380.0
 20
168.125
 30
0.0
 40
2.5
  1
76.0
100
AcDbText
  0
TEXT
  5
E9
330
17
100
AcDbEntity
  8
ANNOTATION
100
AcDbText
 10
2400.0
 20
168.125
 30
0.0
 40
2.5
  1
0.0
100
AcDbText
  0
TEXT
  5
EA
330
17
100
AcDbEntity
  8
ANNOTATION
100
AcDbText
 10
2420.0
 20
168.125
 30
0.0
 40
2.5
  1
2.5
100
AcDbText
  0
TEXT
  5
EB
330
17
100
AcDbEntity
  8
ANNOTATION
100
AcDbText
 10
2440.0
 20
168.125
 30
0.0
 40
2.5
  1
2.0
100
AcDbText
  0
TEXT
  5
EC
330
17
100
AcDbEntity
  8
ANNOTATION
100
AcDbText
 10
2320.0
 20
164.375
 30
0.0
 40
2.5
  1
slide_pilot_0_4
100
AcDbText
  0
TEXT
  5
ED
330
17
100
AcDbEntity
  8
ANNOTATION
100
AcDbText
 10
2360.0
 20
164.375
 30
0.0
 40
2.5
  1
101.5
100
AcDbText
  0
TEXT
  5
EE
330
17
100
AcDbEntity
  8
ANNOTATION
100
AcDbText
 10
2380.0
 20
164.375
 30
0.0
 40
2.5
  1
99.0
100
AcDbText
  0
TEXT
  5
EF
330
17
100
AcDbEntity
  8
ANNOTATION
100
AcDbText
 10
2400.0
 20
164.375
 30
0.0
 40
2.5
  1
0.0
100
AcDbText
  0
TEXT
  5
F0
330
17
100
AcDbEntity
  8
ANNOTATION
100
AcDbText
 10
2420.0
 20
164.375
 30
0.0
 40
2.5
  1
2.5
100
AcDbText
  0
TEXT
  5
F1
330
17
100
AcDbEntity
  8
ANNOTATION
100
AcDbText
 10
2440.0
 20
164.375
 30
0.0
 40
2.5
  1
2.0
100
AcDbText
  0
TEXT
  5
F2
330
17
100
AcDbEntity
  8
ANNOTATION
100
AcDbText
 10
2320.0
 20
160.625
 30
0.0
 40
2.5
  1
slide_pilot_0_5
100
AcDbText
  0
TEXT
  5
F3
330
17
100
AcDbEntity
  8
ANNOTATION
100
AcDbText
 10
2360.0
 20
160.625
 30
0.0
 40
2.5
  1
101.5
100
AcDbText
  0
TEXT
  5
F4
330
17
100
AcDbEntity
  8
ANNOTATION
100
AcDbText
 10
2380.0
 20
160.625
 30
0.0
 40
2.5
  1
115.0
100
AcDbText
  0
TEXT
  5
F5
330
17
100
AcDbEntity
  8
ANNOTATION
100
AcDbText
 10
2400.0
 20
160.625
 30
0.0
 40
2.5
  1
0.0
100
AcDbText
  0
TEXT
  5
F6
330
17
100
AcDbEntity
  8
ANNOTATION
100
AcDbText
 10
2420.0
 20
160.625
 30
0.0
 40
2.5
  1
2.5
100
AcDbText
  0
TEXT
  5
F7
330
17
100
AcDbEntity
  8
ANNOTATION
100
AcDbText
 10
2440.0
 20
160.625
 30
0.0
 40
2.5
  1
2.0
100
AcDbText
  0
TEXT
  5
F8
330
17
100
AcDbEntity
  8
ANNOTATION
100
AcDbText
 10
2320.0
 20
156.875
 30
0.0
 40
2.5
  1
slide_pilot_1_0
100
AcDbText
  0
TEXT
  5
F9
330
17
100
AcDbEntity
  8
ANNOTATION
100
AcDbText
 10
2360.0
 20
156.875
 30
0.0
 40
2.5
  1
311.5
100
AcDbText
  0
TEXT
  5
FA
330
17
100
AcDbEntity
  8
ANNOTATION
100
AcDbText
 10
2380.0
 20
156.875
 30
0.0
 40
2.5
  1
6.5
100
AcDbText
  0
TEXT
  5
FB
330
17
100
AcDbEntity
  8
ANNOTATION
100
AcDbText
 10
2400.0
 20
156.875
 30
0.0
 40
2.5
  1
0.0
100
AcDbText
  0
TEXT
  5
FC
330
17
100
AcDbEntity
  8
ANNOTATION
100
AcDbText
 10
2420.0
 20
156.875
 30
0.0
 40
2.5
  1
2.5
100
AcDbText
  0
TEXT
  5
FD
330
17
100
AcDbEntity
  8
ANNOTATION
100
AcDbText
 10
2440.0
 20
156.875
 30
0.0
 40
2.5
  1
2.0
100
AcDbText
  0
TEXT
  5
FE
330
17
100
AcDbEntity
  8
ANNOTATION
100
AcDbText
 10
2320.0
 20
153.125
 30
0.0
 40
2.5
  1
slide_pilot_1_1
100
AcDbText
  0
TEXT
  5
FF
330
17
100
AcDbEntity
  8
ANNOTATION
100
AcDbText
 10
2360.0
 20
153.125
 30
0.0
 40
2.5
  1
311.5
100
AcDbText
  0
TEXT
  5
100
330
17
100
AcDbEntity
  8
ANNOTATION
100
AcDbText
 10
2380.0
 20
153.125
 30
0.0
 40
2.5
  1
35.0
100
AcDbText
  0
TEXT
  5
101
330
17
100
AcDbEntity
  8
ANNOTATION
100
AcDbText
 10
2400.0
 20
153.125
 30
0.0
 40
2.5
  1
0.0
100
AcDbText
  0
TEXT
  5
102
330
17
100
AcDbEntity
  8
ANNOTATION
100
AcDbText
 10
2420.0
 20
153.125
 30
0.0
 40
2.5
  1
2.5
100
AcDbText
  0
TEXT
  5
103
330
17
100
AcDbEntity
  8
ANNOTATION
100
AcDbText
 10
2440.0
 20
153.125
 30
0.0
 40
2.5
  1
2.0
100
AcDbText
  0
TEXT
  5
104
330
17
100
AcDbEntity
  8
ANNOTATION
100
AcDbText
 10
2320.0
 20
149.375
 30
0.0
 40
2.5
  1
slide_pilot_1_2
100
AcDbText
  0
TEXT
  5
105
330
17
100
AcDbEntity
  8
ANNOTATION
100
AcDbText
 10
2360.0
 20
149.375
 30
0.0
 40
2.5
  1
311.5
100
AcDbText
  0
TEXT
  5
106
330
17
100
AcDbEntity
  8
ANNOTATION
100
AcDbText
 10
2380.0
 20
149.375
 30
0.0
 40
2.5
  1
51.0
100
AcDbText
  0
TEXT
  5
107
330
17
100
AcDbEntity
  8
ANNOTATION
100
AcDbText
 10
2400.0
 20
149.375
 30
0.0
 40
2.5
  1
0.0
100
AcDbText
  0
TEXT
  5
108
330
17
100
AcDbEntity
  8
ANNOTATION
100
AcDbText
 10
2420.0
 20
149.375
 30
0.0
 40
2.5
  1
2.5
100
AcDbText
  0
TEXT
  5
109
330
17
100
AcDbEntity
  8
ANNOTATION
100
AcDbText
 10
2440.0
 20
149.375
 30
0.0
 40
2.5
  1
2.0
100
AcDbText
  0
TEXT
  5
10A
330
17
100
AcDbEntity
  8
ANNOTATION
100
AcDbText
 10
2320.0
 20
145.625
 30
0.0
 40
2.5
  1
slide_pilot_1_3
100
AcDbText
  0
TEXT
  5
10B
330
17
100
AcDbEntity
  8
ANNOTATION
100
AcDbText
 10
2360.0
 20
145.625
 30
0.0
 40
2.5
  1
311.5
100
AcDbText
  0
TEXT
  5
10C
330
17
100
AcDbEntity
  8
ANNOTATION
100
AcDbText
 10
2380.0
 20
145.625
 30
0.0
 40
2.5
  1
76.0
100
AcDbText
  0
TEXT
  5
10D
330
17
100
AcDbEntity
  8
ANNOTATION
100
AcDbText
 10
2400.0
 20
145.625
 30
0.0
 40
2.5
  1
0.0
100
AcDbText
  0
TEXT
  5
10E
330
17
100
AcDbEntity
  8
ANNOTATION
100
AcDbText
 10
2420.0
 20
145.625
 30
0.0
 40
2.5
  1
2.5
100
AcDbText
  0
TEXT
  5
10F
330
17
100
AcDbEntity
  8
ANNOTATION
100
AcDbText
 10
2440.0
 20
145.625
 30
0.0
 40
2.5
  1
2.0
100
AcDbText
  0
TEXT
  5
110
330
17
100
AcDbEntity
  8
ANNOTATION
100
AcDbText
 10
2320.0
 20
141.875
 30
0.0
 40
2.5
  1
slide_pilot_1_4
100
AcDbText
  0
TEXT
  5
111
330
17
100
AcDbEntity
  8
ANNOTATION
100
AcDbText
 10
2360.0
 20
141.875
 30
0.0
 40
2.5
  1
311.5
100
AcDbText
  0
TEXT
  5
112
330
17
100
AcDbEntity
  8
ANNOTATION
100
AcDbText
 10
2380.0
 20
141.875
 30
0.0
 40
2.5
  1
99.0
100
AcDbText
  0
TEXT
  5
113
330
17
100
AcDbEntity
  8
ANNOTATION
100
AcDbText
 10
2400.0
 20
141.875
 30
0.0
 40
2.5
  1
0.0
100
AcDbText
  0
TEXT
  5
114
330
17
100
AcDbEntity
  8
ANNOTATION
100
AcDbText
 10
2420.0
 20
141.875
 30
0.0
 40
2.5
  1
2.5
100
AcDbText
  0
TEXT
  5
115
330
17
100
AcDbEntity
  8
ANNOTATION
100
AcDbText
 10
2440.0
 20
141.875
 30
0.0
 40
2.5
  1
2.0
100
AcDbText
  0
TEXT
  5
116
330
17
100
AcDbEntity
  8
ANNOTATION
100
AcDbText
 10
2320.0
 20
138.125
 30
0.0
 40
2.5
  1
slide_pilot_1_5
100
AcDbText
  0
TEXT
  5
117
330
17
100
AcDbEntity
  8
ANNOTATION
100
AcDbText
 10
2360.0
 20
138.125
 30
0.0
 40
2.5
  1
311.5
100
AcDbText
  0
TEXT
  5
118
330
17
100
AcDbEntity
  8
ANNOTATION
100
AcDbText
 10
2380.0
 20
138.125
 30
0.0
 40
2.5
  1
115.0
100
AcDbText
  0
TEXT
  5
119
330
17
100
AcDbEntity
  8
ANNOTATION
100
AcDbText
 10
2400.0
 20
138.125
 30
0.0
 40
2.5
  1
0.0
100
AcDbText
  0
TEXT
  5
11A
330
17
100
AcDbEntity
  8
ANNOTATION
100
AcDbText
 10
2420.0
 20
138.125
 30
0.0
 40
2.5
  1
2.5
100
AcDbText
  0
TEXT
  5
11B
330
17
100
AcDbEntity
  8
ANNOTATION
100
AcDbText
 10
2440.0
 20
138.125
 30
0.0
 40
2.5
  1
2.0
100
AcDbText
  0
TEXT
  5
11C
330
17
100
AcDbEntity
  8
ANNOTATION
100
AcDbText
 10
2320.0
 20
134.375
 30
0.0
 40
2.5
  1
slide_pilot_2_0
100
AcDbText
  0
TEXT
  5
11D
330
17
100
AcDbEntity
  8
ANNOTATION
100
AcDbText
 10
2360.0
 20
134.375
 30
0.0
 40
2.5
  1
521.5
100
AcDbText
  0
TEXT
  5
11E
330
17
100
AcDbEntity
  8
ANNOTATION
100
AcDbText
 10
2380.0
 20
134.375
 30
0.0
 40
2.5
  1
6.5
100
AcDbText
  0
TEXT
  5
11F
330
17
100
AcDbEntity
  8
ANNOTATION
100
AcDbText
 10
2400.0
 20
134.375
 30
0.0
 40
2.5
  1
0.0
100
AcDbText
  0
TEXT
  5
120
330
17
100
AcDbEntity
  8
ANNOTATION
100
AcDbText
 10
2420.0
 20
134.375
 30
0.0
 40
2.5
  1
2.5
100
AcDbText
  0
TEXT
  5
121
330
17
100
AcDbEntity
  8
ANNOTATION
100
AcDbText
 10
2440.0
 20
134.375
 30
0.0
 40
2.5
  1
2.0
100
AcDbText
  0
TEXT
  5
122
330
17
100
AcDbEntity
  8
ANNOTATION
100
AcDbText
 10
2320.0
 20
130.625
 30
0.0
 40
2.5
  1
slide_pilot_2_1
100
AcDbText
  0
TEXT
  5
123
330
17
100
AcDbEntity
  8
ANNOTATION
100
AcDbText
 10
2360.0
 20
130.625
 30
0.0
 40
2.5
  1
521.5
100
AcDbText
  0
TEXT
  5
124
330
17
100
AcDbEntity
  8
ANNOTATION
100
AcDbText
 10
2380.0
 20
130.625
 30
0.0
 40
2.5
  1
35.0
100
AcDbText
  0
TEXT
  5
125
330
17
100
AcDbEntity
  8
ANNOTATION
100
AcDbText
 10
2400.0
 20
130.625
 30
0.0
 40
2.5
  1
0.0
100
AcDbText
  0
TEXT
  5
126
330
17
100
AcDbEntity
  8
ANNOTATION
100
AcDbText
 10
2420.0
 20
130.625
 30
0.0
 40
2.5
  1
2.5
100
AcDbText
  0
TEXT
  5
127
330
17
100
AcDbEntity
  8
ANNOTATION
100
AcDbText
 10
2440.0
 20
130.625
 30
0.0
 40
2.5
  1
2.0
100
AcDbText
  0
TEXT
  5
128
330
17
100
AcDbEntity
  8
ANNOTATION
100
AcDbText
 10
2320.0
 20
126.875
 30
0.0
 40
2.5
  1
slide_pilot_2_2
100
AcDbText
  0
TEXT
  5
129
330
17
100
AcDbEntity
  8
ANNOTATION
100
AcDbText
 10
2360.0
 20
126.875
 30
0.0
 40
2.5
  1
521.5
100
AcDbText
  0
TEXT
  5
12A
330
17
100
AcDbEntity
  8
ANNOTATION
100
AcDbText
 10
2380.0
 20
126.875
 30
0.0
 40
2.5
  1
51.0
100
AcDbText
  0
TEXT
  5
12B
330
17
100
AcDbEntity
  8
ANNOTATION
100
AcDbText
 10
2400.0
 20
126.875
 30
0.0
 40
2.5
  1
0.0
100
AcDbText
  0
TEXT
  5
12C
330
17
100
AcDbEntity
  8
ANNOTATION
100
AcDbText
 10
2420.0
 20
126.875
 30
0.0
 40
2.5
  1
2.5
100
AcDbText
  0
TEXT
  5
12D
330
17
100
AcDbEntity
  8
ANNOTATION
100
AcDbText
 10
2440.0
 20
126.875
 30
0.0
 40
2.5
  1
2.0
100
AcDbText
  0
TEXT
  5
12E
330
17
100
AcDbEntity
  8
ANNOTATION
100
AcDbText
 10
2320.0
 20
123.125
 30
0.0
 40
2.5
  1
slide_pilot_2_3
100
AcDbText
  0
TEXT
  5
12F
330
17
100
AcDbEntity
  8
ANNOTATION
100
AcDbText
 10
2360.0
 20
123.125
 30
0.0
 40
2.5
  1
521.5
100
AcDbText
  0
TEXT
  5
130
330
17
100
AcDbEntity
  8
ANNOTATION
100
AcDbText
 10
2380.0
 20
123.125
 30
0.0
 40
2.5
  1
76.0
100
AcDbText
  0
TEXT
  5
131
330
17
100
AcDbEntity
  8
ANNOTATION
100
AcDbText
 10
2400.0
 20
123.125
 30
0.0
 40
2.5
  1
0.0
100
AcDbText
  0
TEXT
  5
132
330
17
100
AcDbEntity
  8
ANNOTATION
100
AcDbText
 10
2420.0
 20
123.125
 30
0.0
 40
2.5
  1
2.5
100
AcDbText
  0
TEXT
  5
133
330
17
100
AcDbEntity
  8
ANNOTATION
100
AcDbText
 10
2440.0
 20
123.125
 30
0.0
 40
2.5
  1
2.0
100
AcDbText
  0
TEXT
  5
134
330
17
100
AcDbEntity
  8
ANNOTATION
100
AcDbText
 10
2320.0
 20
119.375
 30
0.0
 40
2.5
  1
slide_pilot_2_4
100
AcDbText
  0
TEXT
  5
135
330
17
100
AcDbEntity
  8
ANNOTATION
100
AcDbText
 10
2360.0
 20
119.375
 30
0.0
 40
2.5
  1
521.5
100
AcDbText
  0
TEXT
  5
136
330
17
100
AcDbEntity
  8
ANNOTATION
100
AcDbText
 10
2380.0
 20
119.375
 30
0.0
 40
2.5
  1
99.0
100
AcDbText
  0
TEXT
  5
137
330
17
100
AcDbEntity
  8
ANNOTATION
100
AcDbText
 10
2400.0
 20
119.375
 30
0.0
 40
2.5
  1
0.0
100
AcDbText
  0
TEXT
  5
138
330
17
100
AcDbEntity
  8
ANNOTATION
100
AcDbText
 10
2420.0
 20
119.375
 30
0.0
 40
2.5
  1
2.5
100
AcDbText
  0
TEXT
  5
139
330
17
100
AcDbEntity
  8
ANNOTATION
100
AcDbText
 10
2440.0
 20
119.375
 30
0.0
 40
2.5
  1
2.0
100
AcDbText
  0
TEXT
  5
13A
330
17
100
AcDbEntity
  8
ANNOTATION
100
AcDbText
 10
2320.0
 20
115.625
 30
0.0
 40
2.5
  1
slide_pilot_2_5
100
AcDbText
  0
TEXT
  5
13B
330
17
100
AcDbEntity
  8
ANNOTATION
100
AcDbText
 10
2360.0
 20
115.625
 30
0.0
 40
2.5
  1
521.5
100
AcDbText
  0
TEXT
  5
13C
330
17
100
AcDbEntity
  8
ANNOTATION
100
AcDbText
 10
2380.0
 20
115.625
 30
0.0
 40
2.5
  1
115.0
100
AcDbText
  0
TEXT
  5
13D
330
17
100
AcDbEntity
  8
ANNOTATION
100
AcDbText
 10
2400.0
 20
115.625
 30
0.0
 40
2.5
  1
0.0
100
AcDbText
  0
TEXT
  5
13E
330
17
100
AcDbEntity
  8
ANNOTATION
100
AcDbText
 10
2420.0
 20
115.625
 30
0.0
 40
2.5
  1
2.5
100
AcDbText
  0
TEXT
  5
13F
330
17
100
AcDbEntity
  8
ANNOTATION
100
AcDbText
 10
2440.0
 20
115.625
 30
0.0
 40
2.5
  1
2.0
100
AcDbText
  0
TEXT
  5
140
330
17
100
AcDbEntity
  8
ANNOTATION
100
AcDbText
 10
2320.0
 20
111.875
 30
0.0
 40
2.5
  1
slide_pilot_3_0
100
AcDbText
  0
TEXT
  5
141
330
17
100
AcDbEntity
  8
ANNOTATION
100
AcDbText
 10
2360.0
 20
111.875
 30
0.0
 40
2.5
  1
731.5
100
AcDbText
  0
TEXT
  5
142
330
17
100
AcDbEntity
  8
ANNOTATION
100
AcDbText
 10
2380.0
 20
111.875
 30
0.0
 40
2.5
  1
6.5
100
AcDbText
  0
TEXT
  5
143
330
17
100
AcDbEntity
  8
ANNOTATION
100
AcDbText
 10
2400.0
 20
111.875
 30
0.0
 40
2.5
  1
0.0
100
AcDbText
  0
TEXT
  5
144
330
17
100
AcDbEntity
  8
ANNOTATION
100
AcDbText
 10
2420.0
 20
111.875
 30
0.0
 40
2.5
  1
2.5
100
AcDbText
  0
TEXT
  5
145
330
17
100
AcDbEntity
  8
ANNOTATION
100
AcDbText
 10
2440.0
 20
111.875
 30
0.0
 40
2.5
  1
2.0
100
AcDbText
  0
TEXT
  5
146
330
17
100
AcDbEntity
  8
ANNOTATION
100
AcDbText
 10
2320.0
 20
108.125
 30
0.0
 40
2.5
  1
slide_pilot_3_1
100
AcDbText
  0
TEXT
  5
147
330
17
100
AcDbEntity
  8
ANNOTATION
100
AcDbText
 10
2360.0
 20
108.125
 30
0.0
 40
2.5
  1
731.5
100
AcDbText
  0
TEXT
  5
148
330
17
100
AcDbEntity
  8
ANNOTATION
100
AcDbText
 10
2380.0
 20
108.125
 30
0.0
 40
2.5
  1
35.0
100
AcDbText
  0
TEXT
  5
149
330
17
100
AcDbEntity
  8
ANNOTATION
100
AcDbText
 10
2400.0
 20
108.125
 30
0.0
 40
2.5
  1
0.0
100
AcDbText
  0
TEXT
  5
14A
330
17
100
AcDbEntity
  8
ANNOTATION
100
AcDbText
 10
2420.0
 20
108.125
 30
0.0
 40
2.5
  1
2.5
100
AcDbText
  0
TEXT
  5
14B
330
17
100
AcDbEntity
  8
ANNOTATION
100
AcDbText
 10
2440.0
 20
108.125
 30
0.0
 40
2.5
  1
2.0
100
AcDbText
  0
TEXT
  5
14C
330
17
100
AcDbEntity
  8
ANNOTATION
100
AcDbText
 10
2320.0
 20
104.375
 30
0.0
 40
2.5
  1
slide_pilot_3_2
100
AcDbText
  0
TEXT
  5
14D
330
17
100
AcDbEntity
  8
ANNOTATION
100
AcDbText
 10
2360.0
 20
104.375
 30
0.0
 40
2.5
  1
731.5
100
AcDbText
  0
TEXT
  5
14E
330
17
100
AcDbEntity
  8
ANNOTATION
100
AcDbText
 10
2380.0
 20
104.375
 30
0.0
 40
2.5
  1
51.0
100
AcDbText
  0
TEXT
  5
14F
330
17
100
AcDbEntity
  8
ANNOTATION
100
AcDbText
 10
2400.0
 20
104.375
 30
0.0
 40
2.5
  1
0.0
100
AcDbText
  0
TEXT
  5
150
330
17
100
AcDbEntity
  8
ANNOTATION
100
AcDbText
 10
2420.0
 20
104.375
 30
0.0
 40
2.5
  1
2.5
100
AcDbText
  0
TEXT
  5
151
330
17
100
AcDbEntity
  8
ANNOTATION
100
AcDbText
 10
2440.0
 20
104.375
 30
0.0
 40
2.5
  1
2.0
100
AcDbText
  0
TEXT
  5
152
330
17
100
AcDbEntity
  8
ANNOTATION
100
AcDbText
 10
2320.0
 20
100.625
 30
0.0
 40
2.5
  1
slide_pilot_3_3
100
AcDbText
  0
TEXT
  5
153
330
17
100
AcDbEntity
  8
ANNOTATION
100
AcDbText
 10
2360.0
 20
100.625
 30
0.0
 40
2.5
  1
731.5
100
AcDbText
  0
TEXT
  5
154
330
17
100
AcDbEntity
  8
ANNOTATION
100
AcDbText
 10
2380.0
 20
100.625
 30
0.0
 40
2.5
  1
76.0
100
AcDbText
  0
TEXT
  5
155
330
17
100
AcDbEntity
  8
ANNOTATION
100
AcDbText
 10
2400.0
 20
100.625
 30
0.0
 40
2.5
  1
0.0
100
AcDbText
  0
TEXT
  5
156
330
17
100
AcDbEntity
  8
ANNOTATION
100
AcDbText
 10
2420.0
 20
100.625
 30
0.0
 40
2.5
  1
2.5
100
AcDbText
  0
TEXT
  5
157
330
17
100
AcDbEntity
  8
ANNOTATION
100
AcDbText
 10
2440.0
 20
100.625
 30
0.0
 40
2.5
  1
2.0
100
AcDbText
  0
TEXT
  5
158
330
17
100
AcDbEntity
  8
ANNOTATION
100
AcDbText
 10
2320.0
 20
96.875
 30
0.0
 40
2.5
  1
slide_pilot_3_4
100
AcDbText
  0
TEXT
  5
159
330
17
100
AcDbEntity
  8
ANNOTATION
100
AcDbText
 10
2360.0
 20
96.875
 30
0.0
 40
2.5
  1
731.5
100
AcDbText
  0
TEXT
  5
15A
330
17
100
AcDbEntity
  8
ANNOTATION
100
AcDbText
 10
2380.0
 20
96.875
 30
0.0
 40
2.5
  1
99.0
100
AcDbText
  0
TEXT
  5
15B
330
17
100
AcDbEntity
  8
ANNOTATION
100
AcDbText
 10
2400.0
 20
96.875
 30
0.0
 40
2.5
  1
0.0
100
AcDbText
  0
TEXT
  5
15C
330
17
100
AcDbEntity
  8
ANNOTATION
100
AcDbText
 10
2420.0
 20
96.875
 30
0.0
 40
2.5
  1
2.5
100
AcDbText
  0
TEXT
  5
15D
330
17
100
AcDbEntity
  8
ANNOTATION
100
AcDbText
 10
2440.0
 20
96.875
 30
0.0
 40
2.5
  1
2.0
100
AcDbText
  0
TEXT
  5
15E
330
17
100
AcDbEntity
  8
ANNOTATION
100
AcDbText
 10
2320.0
 20
93.125
 30
0.0
 40
2.5
  1
slide_pilot_3_5
100
AcDbText
  0
TEXT
  5
15F
330
17
100
AcDbEntity
  8
ANNOTATION
100
AcDbText
 10
2360.0
 20
93.125
 30
0.0
 40
2.5
  1
731.5
100
AcDbText
  0
TEXT
  5
160
330
17
100
AcDbEntity
  8
ANNOTATION
100
AcDbText
 10
2380.0
 20
93.125
 30
0.0
 40
2.5
  1
115.0
100
AcDbText
  0
TEXT
  5
161
330
17
100
AcDbEntity
  8
ANNOTATION
100
AcDbText
 10
2400.0
 20
93.125
 30
0.0
 40
2.5
  1
0.0
100
AcDbText
  0
TEXT
  5
162
330
17
100
AcDbEntity
  8
ANNOTATION
100
AcDbText
 10
2420.0
 20
93.125
 30
0.0
 40
2.5
  1
2.5
100
AcDbText
  0
TEXT
  5
163
330
17
100
AcDbEntity
  8
ANNOTATION
100
AcDbText
 10
2440.0
 20
93.125
 30
0.0
 40
2.5
  1
2.0
100
AcDbText
  0
TEXT
  5
164
330
17
100
AcDbEntity
  8
ANNOTATION
100
AcDbText
 10
2320.0
 20
89.375
 30
0.0
 40
2.5
  1
slide_pilot_4_0
100
AcDbText
  0
TEXT
  5
165
330
17
100
AcDbEntity
  8
ANNOTATION
100
AcDbText
 10
2360.0
 20
89.375
 30
0.0
 40
2.5
  1
941.5
100
AcDbText
  0
TEXT
  5
166
330
17
100
AcDbEntity
  8
ANNOTATION
100
AcDbText
 10
2380.0
 20
89.375
 30
0.0
 40
2.5
  1
6.5
100
AcDbText
  0
TEXT
  5
167
330
17
100
AcDbEntity
  8
ANNOTATION
100
AcDbText
 10
2400.0
 20
89.375
 30
0.0
 40
2.5
  1
0.0
100
AcDbText
  0
TEXT
  5
168
330
17
100
AcDbEntity
  8
ANNOTATION
100
AcDbText
 10
2420.0
 20
89.375
 30
0.0
 40
2.5
  1
2.5
100
AcDbText
  0
TEXT
  5
169
330
17
100
AcDbEntity
  8
ANNOTATION
100
AcDbText
 10
2440.0
 20
89.375
 30
0.0
 40
2.5
  1
2.0
100
AcDbText
  0
TEXT
  5
16A
330
17
100
AcDbEntity
  8
ANNOTATION
100
AcDbText
 10
2320.0
 20
85.625
 30
0.0
 40
2.5
  1
slide_pilot_4_1
100
AcDbText
  0
TEXT
  5
16B
330
17
100
AcDbEntity
  8
ANNOTATION
100
AcDbText
 10
2360.0
 20
85.625
 30
0.0
 40
2.5
  1
941.5
100
AcDbText
  0
TEXT
  5
16C
330
17
100
AcDbEntity
  8
ANNOTATION
100
AcDbText
 10
2380.0
 20
85.625
 30
0.0
 40
2.5
  1
35.0
100
AcDbText
  0
TEXT
  5
16D
330
17
100
AcDbEntity
  8
ANNOTATION
100
AcDbText
 10
2400.0
 20
85.625
 30
0.0
 40
2.5
  1
0.0
100
AcDbText
  0
TEXT
  5
16E
330
17
100
AcDbEntity
  8
ANNOTATION
100
AcDbText
 10
2420.0
 20
85.625
 30
0.0
 40
2.5
  1
2.5
100
AcDbText
  0
TEXT
  5
16F
330
17
100
AcDbEntity
  8
ANNOTATION
100
AcDbText
 10
2440.0
 20
85.625
 30
0.0
 40
2.5
  1
2.0
100
AcDbText
  0
TEXT
  5
170
330
17
100
AcDbEntity
  8
ANNOTATION
100
AcDbText
 10
2320.0
 20
81.875
 30
0.0
 40
2.5
  1
slide_pilot_4_2
100
AcDbText
  0
TEXT
  5
171
330
17
100
AcDbEntity
  8
ANNOTATION
100
AcDbText
 10
2360.0
 20
81.875
 30
0.0
 40
2.5
  1
941.5
100
AcDbText
  0
TEXT
  5
172
330
17
100
AcDbEntity
  8
ANNOTATION
100
AcDbText
 10
2380.0
 20
81.875
 30
0.0
 40
2.5
  1
51.0
100
AcDbText
  0
TEXT
  5
173
330
17
100
AcDbEntity
  8
ANNOTATION
100
AcDbText
 10
2400.0
 20
81.875
 30
0.0
 40
2.5
  1
0.0
100
AcDbText
  0
TEXT
  5
174
330
17
100
AcDbEntity
  8
ANNOTATION
100
AcDbText
 10
2420.0
 20
81.875
 30
0.0
 40
2.5
  1
2.5
100
AcDbText
  0
TEXT
  5
175
330
17
100
AcDbEntity
  8
ANNOTATION
100
AcDbText
 10
2440.0
 20
81.875
 30
0.0
 40
2.5
  1
2.0
100
AcDbText
  0
TEXT
  5
176
330
17
100
AcDbEntity
  8
ANNOTATION
100
AcDbText
 10
2320.0
 20
78.125
 30
0.0
 40
2.5
  1
slide_pilot_4_3
100
AcDbText
  0
TEXT
  5
177
330
17
100
AcDbEntity
  8
ANNOTATION
100
AcDbText
 10
2360.0
 20
78.125
 30
0.0
 40
2.5
  1
941.5
100
AcDbText
  0
TEXT
  5
178
330
17
100
AcDbEntity
  8
ANNOTATION
100
AcDbText
 10
2380.0
 20
78.125
 30
0.0
 40
2.5
  1
76.0
100
AcDbText
  0
TEXT
  5
179
330
17
100
AcDbEntity
  8
ANNOTATION
100
AcDbText
 10
2400.0
 20
78.125
 30
0.0
 40
2.5
  1
0.0
100
AcDbText
  0
TEXT
  5
17A
330
17
100
AcDbEntity
  8
ANNOTATION
100
AcDbText
 10
2420.0
 20
78.125
 30
0.0
 40
2.5
  1
2.5
100
AcDbText
  0
TEXT
  5
17B
330
17
100
AcDbEntity
  8
ANNOTATION
100
AcDbText
 10
2440.0
 20
78.125
 30
0.0
 40
2.5
  1
2.0
100
AcDbText
  0
TEXT
  5
17C
330
17
100
AcDbEntity
  8
ANNOTATION
100
AcDbText
 10
2320.0
 20
74.375
 30
0.0
 40
2.5
  1
slide_pilot_4_4
100
AcDbText
  0
TEXT
  5
17D
330
17
100
AcDbEntity
  8
ANNOTATION
100
AcDbText
 10
2360.0
 20
74.375
 30
0.0
 40
2.5
  1
941.5
100
AcDbText
  0
TEXT
  5
17E
330
17
100
AcDbEntity
  8
ANNOTATION
100
AcDbText
 10
2380.0
 20
74.375
 30
0.0
 40
2.5
  1
99.0
100
AcDbText
  0
TEXT
  5
17F
330
17
100
AcDbEntity
  8
ANNOTATION
100
AcDbText
 10
2400.0
 20
74.375
 30
0.0
 40
2.5
  1
0.0
100
AcDbText
  0
TEXT
  5
180
330
17
100
AcDbEntity
  8
ANNOTATION
100
AcDbText
 10
2420.0
 20
74.375
 30
0.0
 40
2.5
  1
2.5
100
AcDbText
  0
TEXT
  5
181
330
17
100
AcDbEntity
  8
ANNOTATION
100
AcDbText
 10
2440.0
 20
74.375
 30
0.0
 40
2.5
  1
2.0
100
AcDbText
  0
TEXT
  5
182
330
17
100
AcDbEntity
  8
ANNOTATION
100
AcDbText
 10
2320.0
 20
70.625
 30
0.0
 40
2.5
  1
slide_pilot_4_5
100
AcDbText
  0
TEXT
  5
183
330
17
100
AcDbEntity
  8
ANNOTATION
100
AcDbText
 10
2360.0
 20
70.625
 30
0.0
 40
2.5
  1
941.5
100
AcDbText
  0
TEXT
  5
184
330
17
100
AcDbEntity
  8
ANNOTATION
100
AcDbText
 10
2380.0
 20
70.625
 30
0.0
 40
2.5
  1
115.0
100
AcDbText
  0
TEXT
  5
185
330
17
100
AcDbEntity
  8
ANNOTATION
100
AcDbText
 10
2400.0
 20
70.625
 30
0.0
 40
2.5
  1
0.0
100
AcDbText
  0
TEXT
  5
186
330
17
100
AcDbEntity
  8
ANNOTATION
100
AcDbText
 10
2420.0
 20
70.625
 30
0.0
 40
2.5
  1
2.5
100
AcDbText
  0
TEXT
  5
187
330
17
100
AcDbEntity
  8
ANNOTATION
100
AcDbText
 10
2440.0
 20
70.625
 30
0.0
 40
2.5
  1
2.0
100
AcDbText
  0
TEXT
  5
188
330
17
100
AcDbEntity
  8
ANNOTATION
100
AcDbText
 10
2320.0
 20
66.875
 30
0.0
 40
2.5
  1
slide_pilot_5_0
100
AcDbText
  0
TEXT
  5
189
330
17
100
AcDbEntity
  8
ANNOTATION
100
AcDbText
 10
2360.0
 20
66.875
 30
0.0
 40
2.5
  1
1151.5
100
AcDbText
  0
TEXT
  5
18A
330
17
100
AcDbEntity
  8
ANNOTATION
100
AcDbText
 10
2380.0
 20
66.875
 30
0.0
 40
2.5
  1
6.5
100
AcDbText
  0
TEXT
  5
18B
330
17
100
AcDbEntity
  8
ANNOTATION
100
AcDbText
 10
2400.0
 20
66.875
 30
0.0
 40
2.5
  1
0.0
100
AcDbText
  0
TEXT
  5
18C
330
17
100
AcDbEntity
  8
ANNOTATION
100
AcDbText
 10
2420.0
 20
66.875
 30
0.0
 40
2.5
  1
2.5
100
AcDbText
  0
TEXT
  5
18D
330
17
100
AcDbEntity
  8
ANNOTATION
100
AcDbText
 10
2440.0
 20
66.875
 30
0.0
 40
2.5
  1
2.0
100
AcDbText
  0
TEXT
  5
18E
330
17
100
AcDbEntity
  8
ANNOTATION
100
AcDbText
 10
2320.0
 20
63.125
 30
0.0
 40
2.5
  1
slide_pilot_5_1
100
AcDbText
  0
TEXT
  5
18F
330
17
100
AcDbEntity
  8
ANNOTATION
100
AcDbText
 10
2360.0
 20
63.125
 30
0.0
 40
2.5
  1
1151.5
100
AcDbText
  0
TEXT
  5
190
330
17
100
AcDbEntity
  8
ANNOTATION
100
AcDbText
 10
2380.0
 20
63.125
 30
0.0
 40
2.5
  1
35.0
100
AcDbText
  0
TEXT
  5
191
330
17
100
AcDbEntity
  8
ANNOTATION
100
AcDbText
 10
2400.0
 20
63.125
 30
0.0
 40
2.5
  1
0.0
100
AcDbText
  0
TEXT
  5
192
330
17
100
AcDbEntity
  8
ANNOTATION
100
AcDbText
 10
2420.0
 20
63.125
 30
0.0
 40
2.5
  1
2.5
100
AcDbText
  0
TEXT
  5
193
330
17
100
AcDbEntity
  8
ANNOTATION
100
AcDbText
 10
2440.0
 20
63.125
 30
0.0
 40
2.5
  1
2.0
100
AcDbText
  0
TEXT
  5
194
330
17
100
AcDbEntity
  8
ANNOTATION
100
AcDbText
 10
2320.0
 20
59.375
 30
0.0
 40
2.5
  1
slide_pilot_5_2
100
AcDbText
  0
TEXT
  5
195
330
17
100
AcDbEntity
  8
ANNOTATION
100
AcDbText
 10
2360.0
 20
59.375
 30
0.0
 40
2.5
  1
1151.5
100
AcDbText
  0
TEXT
  5
196
330
17
100
AcDbEntity
  8
ANNOTATION
100
AcDbText
 10
2380.0
 20
59.375
 30
0.0
 40
2.5
  1
51.0
100
AcDbText
  0
TEXT
  5
197
330
17
100
AcDbEntity
  8
ANNOTATION
100
AcDbText
 10
2400.0
 20
59.375
 30
0.0
 40
2.5
  1
0.0
100
AcDbText
  0
TEXT
  5
198
330
17
100
AcDbEntity
  8
ANNOTATION
100
AcDbText
 10
2420.0
 20
59.375
 30
0.0
 40
2.5
  1
2.5
100
AcDbText
  0
TEXT
  5
199
330
17
100
AcDbEntity
  8
ANNOTATION
100
AcDbText
 10
2440.0
 20
59.375
 30
0.0
 40
2.5
  1
2.0
100
AcDbText
  0
TEXT
  5
19A
330
17
100
AcDbEntity
  8
ANNOTATION
100
AcDbText
 10
2320.0
 20
55.625
 30
0.0
 40
2.5
  1
slide_pilot_5_3
100
AcDbText
  0
TEXT
  5
19B
330
17
100
AcDbEntity
  8
ANNOTATION
100
AcDbText
 10
2360.0
 20
55.625
 30
0.0
 40
2.5
  1
1151.5
100
AcDbText
  0
TEXT
  5
19C
330
17
100
AcDbEntity
  8
ANNOTATION
100
AcDbText
 10
2380.0
 20
55.625
 30
0.0
 40
2.5
  1
76.0
100
AcDbText
  0
TEXT
  5
19D
330
17
100
AcDbEntity
  8
ANNOTATION
100
AcDbText
 10
2400.0
 20
55.625
 30
0.0
 40
2.5
  1
0.0
100
AcDbText
  0
TEXT
  5
19E
330
17
100
AcDbEntity
  8
ANNOTATION
100
AcDbText
 10
2420.0
 20
55.625
 30
0.0
 40
2.5
  1
2.5
100
AcDbText
  0
TEXT
  5
19F
330
17
100
AcDbEntity
  8
ANNOTATION
100
AcDbText
 10
2440.0
 20
55.625
 30
0.0
 40
2.5
  1
2.0
100
AcDbText
  0
TEXT
  5
1A0
330
17
100
AcDbEntity
  8
ANNOTATION
100
AcDbText
 10
2320.0
 20
51.875
 30
0.0
 40
2.5
  1
slide_pilot_5_4
100
AcDbText
  0
TEXT
  5
1A1
330
17
100
AcDbEntity
  8
ANNOTATION
100
AcDbText
 10
2360.0
 20
51.875
 30
0.0
 40
2.5
  1
1151.5
100
AcDbText
  0
TEXT
  5
1A2
330
17
100
AcDbEntity
  8
ANNOTATION
100
AcDbText
 10
2380.0
 20
51.875
 30
0.0
 40
2.5
  1
99.0
100
AcDbText
  0
TEXT
  5
1A3
330
17
100
AcDbEntity
  8
ANNOTATION
100
AcDbText
 10
2400.0
 20
51.875
 30
0.0
 40
2.5
  1
0.0
100
AcDbText
  0
TEXT
  5
1A4
330
17
100
AcDbEntity
  8
ANNOTATION
100
AcDbText
 10
2420.0
 20
51.875
 30
0.0
 40
2.5
  1
2.5
100
AcDbText
  0
TEXT
  5
1A5
330
17
100
AcDbEntity
  8
ANNOTATION
100
AcDbText
 10
2440.0
 20
51.875
 30
0.0
 40
2.5
  1
2.0
100
AcDbText
  0
TEXT
  5
1A6
330
17
100
AcDbEntity
  8
ANNOTATION
100
AcDbText
 10
2320.0
 20
48.125
 30
0.0
 40
2.5
  1
slide_pilot_5_5
100
AcDbText
  0
TEXT
  5
1A7
330
17
100
AcDbEntity
  8
ANNOTATION
100
AcDbText
 10
2360.0
 20
48.125
 30
0.0
 40
2.5
  1
1151.5
100
AcDbText
  0
TEXT
  5
1A8
330
17
100
AcDbEntity
  8
ANNOTATION
100
AcDbText
 10
2380.0
 20
48.125
 30
0.0
 40
2.5
  1
115.0
100
AcDbText
  0
TEXT
  5
1A9
330
17
100
AcDbEntity
  8
ANNOTATION
100
AcDbText
 10
2400.0
 20
48.125
 30
0.0
 40
2.5
  1
0.0
100
AcDbText
  0
TEXT
  5
1AA
330
17
100
AcDbEntity
  8
ANNOTATION
100
AcDbText
 10
2420.0
 20
48.125
 30
0.0
 40
2.5
  1
2.5
100
AcDbText
  0
TEXT
  5
1AB
330
17
100
AcDbEntity
  8
ANNOTATION
100
AcDbText
 10
2440.0
 20
48.125
 30
0.0
 40
2.5
  1
2.0
100
AcDbText
  0
DIMENSION
  5
1AC
330
17
100
AcDbEntity
  8
DIMENSION
100
AcDbDimension
  2
*D1
  3
Standard
 10
0.0
 20
-25.0
 30
0.0
 11
4.75
 21
-25.0
 31
0.0
 70
32
 71
5
  1
<>
100
AcDbAlignedDimension
 13
0.0
 23
0.0
 33
0.0
 14
9.5
 24
0.0
 34
0.0
 50
0.0
100
AcDbRotatedDimension
  0
DIMENSION
  5
1C0
330
17
100
AcDbEntity
  8
DIMENSION
100
AcDbDimension
  2
*D2
  3
Standard
 10
0.0
 20
-37.0
 30
0.0
 11
50.75
 21
-37.0
 31
0.0
 70
32
 71
5
  1
<>
100
AcDbAlignedDimension
 13
0.0
 23
0.0
 33
0.0
 14
101.5
 24
0.0
 34
0.0
 50
0.0
100
AcDbRotatedDimension
  0
DIMENSION
  5
1D0
330
17
100
AcDbEntity
  8
DIMENSION
100
AcDbDimension
  2
*D3
  3
Standard
 10
0.0
 20
-49.0
 30
0.0
 11
155.75
 21
-49.0
 31
0.0
 70
32
 71
5
  1
<>
100
AcDbAlignedDimension
 13
0.0
 23
0.0
 33
0.0
 14
311.5
 24
0.0
 34
0.0
 50
0.0
100
AcDbRotatedDimension
  0
DIMENSION
  5
1E0
330
17
100
AcDbEntity
  8
DIMENSION
100
AcDbDimension
  2
*D4
  3
Standard
 10
0.0
 20
-61.0
 30
0.0
 11
260.75
 21
-61.0
 31
0.0
 70
32
 71
5
  1
<>
100
AcDbAlignedDimension
 13
0.0
 23
0.0
 33
0.0
 14
521.5
 24
0.0
 34
0.0
 50
0.0
100
AcDbRotatedDimension
  0
DIMENSION
  5
1F0
330
17
100
AcDbEntity
  8
DIMENSION
100
AcDbDimension
  2
*D5
  3
Standard
 10
0.0
 20
-73.0
 30
0.0
 11
365.75
 21
-73.0
 31
0.0
 70
32
 71
5
  1
<>
100
AcDbAlignedDimension
 13
0.0
 23
0.0
 33
0.0
 14
731.5
 24
0.0
 34
0.0
 50
0.0
100
AcDbRotatedDimension
  0
DIMENSION
  5
200
330
17
100
AcDbEntity
  8
DIMENSION
100
AcDbDimension
  2
*D6
  3
Standard
 10
0.0
 20
-85.0
 30
0.0
 11
470.75
 21
-85.0
 31
0.0
 70
32
 71
5
  1
<>
100
AcDbAlignedDimension
 13
0.0
 23
0.0
 33
0.0
 14
941.5
 24
0.0
 34
0.0
 50
0.0
100
AcDbRotatedDimension
  0
DIMENSION
  5
210
330
17
100
AcDbEntity
  8
DIMENSION
100
AcDbDimension
  2
*D7
  3
Standard
 10
0.0
 20
-97.0
 30
0.0
 11
1150.0
 21
-97.0
 31
0.0
 70
32
 71
5
  1
<>
100
AcDbAlignedDimension
 13
0.0
 23
0.0
 33
0.0
 14
2300.0
 24
0.0
 34
0.0
 50
0.0
100
AcDbRotatedDimension
  0
DIMENSION
  5
220
330
17
100
AcDbEntity
  8
DIMENSION
100
AcDbDimension
  2
*D8
  3
Standard
 10
2300.0
 20
255.0
 30
0.0
 11
2295.25
 21
255.0
 31
0.0
 70
32
 71
5
  1
<>
100
AcDbAlignedDimension
 13
2300.0
 23
230.0
 33
0.0
 14
2290.5
 24
230.0
 34
0.0
 50
0.0
100
AcDbRotatedDimension
  0
DIMENSION
  5
230
330
17
100
AcDbEntity
  8
DIMENSION
100
AcDbDimension
  2
*D9
  3
Standard
 10
2300.0
 20
267.0
 30
0.0
 11
2129.915
 21
267.0
 31
0.0
 70
32
 71
5
  1
<>
100
AcDbAlignedDimension
 13
2300.0
 23
230.0
 33
0.0
 14
1959.83
 24
230.0
 34
0.0
 50
0.0
100
AcDbRotatedDimension
  0
DIMENSION
  5
240
330
17
100
AcDbEntity
  8
DIMENSION
100
AcDbDimension
  2
*D10
  3
Standard
 10
2300.0
 20
279.0
 30
0.0
 11
1964.585
 21
279.0
 31
0.0
 70
32
 71
5
  1
<>
100
AcDbAlignedDimension
 13
2300.0
 23
230.0
 33
0.0
 14
1629.17
 24
230.0
 34
0.0
 50
0.0
100
AcDbRotatedDimension
  0
DIMENSION
  5
250
330
17
100
AcDbEntity
  8
DIMENSION
100
AcDbDimension
  2
*D11
  3
Standard
 10
2300.0
 20
291.0
 30
0.0
 11
1799.25
 21
291.0
 31
0.0
 70
32
 71
5
  1
<>
100
AcDbAlignedDimension
 13
2300.0
 23
230.0
 33
0.0
 14
1298.5
 24
230.0
 34
0.0
 50
0.0
100
AcDbRotatedDimension
  0
DIMENSION
  5
260
330
17
100
AcDbEntity
  8
DIMENSION
100
AcDbDimension
  2
*D12
  3
Standard
 10
2300.0
 20
303.0
 30
0.0
 11
1725.75
 21
303.0
 31
0.0
 70
32
 71
5
  1
<>
100
AcDbAlignedDimension
 13
2300.0
 23
230.0
 33
0.0
 14
1151.5
 24
230.0
 34
0.0
 50
0.0
100
AcDbRotatedDimension
  0
DIMENSION
  5
270
330
17
100
AcDbEntity
  8
DIMENSION
100
AcDbDimension
  2
*D13
  3
Standard
 10
-25.0
 20
0.0
 30
0.0
 11
-25.0
 21
3.25
 31
0.0
 70
32
 71
5
  1
<>
100
AcDbAlignedDimension
 13
0.0
 23
0.0
 33
0.0
 14
0.0
 24
6.5
 34
0.0
 50
90.0
100
AcDbRotatedDimension
  0
DIMENSION
  5
280
330
17
100
AcDbEntity
  8
DIMENSION
100
AcDbDimension
  2
*D14
  3
Standard
 10
-37.0
 20
0.0
 30
0.0
 11
-37.0
 21
17.5
 31
0.0
 70
32
 71
5
  1
<>
100
AcDbAlignedDimension
 13
0.0
 23
0.0
 33
0.0
 14
0.0
 24
35.0
 34
0.0
 50
90.0
100
AcDbRotatedDimension
  0
DIMENSION
  5
290
330
17
100
AcDbEntity
  8
DIMENSION
100
AcDbDimension
  2
*D15
  3
Standard
 10
-49.0
 20
0.0
 30
0.0
 11
-49.0
 21
25.0
 31
0.0
 70
32
 71
5
  1
<>
100
AcDbAlignedDimension
 13
0.0
 23
0.0
 33
0.0
 14
0.0
 24
50.0
 34
0.0
 50
90.0
100
AcDbRotatedDimension
  0
DIMENSION
  5
2A0
330
17
100
AcDbEntity
  8
DIMENSION
100
AcDbDimension
  2
*D16
  3
Standard
 10
-61.0
 20
0.0
 30
0.0
 11
-61.0
 21
25.5
 31
0.0
 70
32
 71
5
  1
<>
100
AcDbAlignedDimension
 13
0.0
 23
0.0
 33
0.0
 14
0.0
 24
51.0
 34
0.0
 50
90.0
100
AcDbRotatedDimension
  0
DIMENSION
  5
2B0
330
17
100
AcDbEntity
  8
DIMENSION
100
AcDbDimension
  2
*D17
  3
Standard
 10
-73.0
 20
0.0
 30
0.0
 11
-73.0
 21
38.0
 31
0.0
 70
32
 71
5
  1
<>
100
AcDbAlignedDimension
 13
0.0
 23
0.0
 33
0.0
 14
0.0
 24
76.0
 34
0.0
 50
90.0
100
AcDbRotatedDimension
  0
DIMENSION
  5
2C0
330
17
100
AcDbEntity
  8
DIMENSION
100
AcDbDimension
  2
*D18
  3
Standard
 10
-85.0
 20
0.0
 30
0.0
 11
-85.0
 21
49.5
 31
0.0
 70
32
 71
5
  1
<>
100
AcDbAlignedDimension
 13
0.0
 23
0.0
 33
0.0
 14
0.0
 24
99.0
 34
0.0
 50
90.0
100
AcDbRotatedDimension
  0
DIMENSION
  5
2D0
330
17
100
AcDbEntity
  8
DIMENSION
100
AcDbDimension
  2
*D19
  3
Standard
 10
-97.0
 20
0.0
 30
0.0
 11
-97.0
 21
57.5
 31
0.0
 70
32
 71
5
  1
<>
100
AcDbAlignedDimension
 13
0.0
 23
0.0
 33
0.0
 14
0.0
 24
115.0
 34
0.0
 50
90.0
100
AcDbRotatedDimension
  0
DIMENSION
  5
2E0
330
17
100
AcDbEntity
  8
DIMENSION
100
AcDbDimension
  2
*D20
  3
Standard
 10
-109.0
 20
0.0
 30
0.0
 11
-109.0
 21
90.0
 31
0.0
 70
32
 71
5
  1
<>
100
AcDbAlignedDimension
 13
0.0
 23
0.0
 33
0.0
 14
0.0
 24
180.0
 34
0.0
 50
90.0
100
AcDbRotatedDimension
  0
DIMENSION
  5
2F0
330
17
100
AcDbEntity
  8
DIMENSION
100
AcDbDimension
  2
*D21
  3
Standard
 10
-121.0
 20
0.0
 30
0.0
 11
-121.0
 21
115.0
 31
0.0
 70
32
 71
5
  1
<>
100
AcDbAlignedDimension
 13
0.0
 23
0.0
 33
0.0
 14
0.0
 24
230.0
 34
0.0
 50
90.0
100
AcDbRotatedDimension
  0
DIMENSION
  5
300
330
17
100
AcDbEntity
  8
DIMENSION
100
AcDbDimension
  2
*D22
  3
Standard
 10
2325.0
 20
230.0
 30
0.0
 11
2323.875
 21
230.0
 31
0.0
 70
32
 71
5
  1
<>
100
AcDbAlignedDimension
 13
2300.0
 23
230.0
 33
0.0
 14
2300.0
 24
230.0
 34
0.0
 50
90.0
100
AcDbRotatedDimension
  0
DIMENSION
  5
311
330
17
100
AcDbEntity
  8
DIMENSION
100
AcDbDimension
  2
*D23
  3
Standard
 10
2337.0
 20
230.0
 30
0.0
 11
2337.0
 21
205.0
 31
0.0
 70
32
 71
5
  1
<>
100
AcDbAlignedDimension
 13
2300.0
 23
230.0
 33
0.0
 14
2300.0
 24
180.0
 34
0.0
 50
90.0
100
AcDbRotatedDimension
  0
DIMENSION
  5
321
330
17
100
AcDbEntity
  8
DIMENSION
100
AcDbDimension
  2
*D24
  3
Standard
 10
2349.0
 20
230.0
 30
0.0
 11
2349.0
 21
172.5
 31
0.0
 70
32
 71
5
  1
<>
100
AcDbAlignedDimension
 13
2300.0
 23
230.0
 33
0.0
 14
2300.0
 24
115.0
 34
0.0
 50
90.0
100
AcDbRotatedDimension
  0
DIMENSION
  5
331
330
17
100
AcDbEntity
  8
DIMENSION
100
AcDbDimension
  2
*D25
  3
Standard
 10
2361.0
 20
230.0
 30
0.0
 11
2361.0
 21
164.5
 31
0.0
 70
32
 71
5
  1
<>
100
AcDbAlignedDimension
 13
2300.0
 23
230.0
 33
0.0
 14
2300.0
 24
99.0
 34
0.0
 50
90.0
100
AcDbRotatedDimension
  0
DIMENSION
  5
341
330
17
100
AcDbEntity
  8
DIMENSION
100
AcDbDimension
  2
*D26
  3
Standard
 10
2373.0
 20
230.0
 30
0.0
 11
2373.0
 21
153.0
 31
0.0
 70
32
 71
5
  1
<>
100
AcDbAlignedDimension
 13
2300.0
 23
230.0
 33
0.0
 14
2300.0
 24
76.0
 34
0.0
 50
90.0
100
AcDbRotatedDimension
  0
DIMENSION
  5
351
330
17
100
AcDbEntity
  8
DIMENSION
100
AcDbDimension
  2
*D27
  3
Standard
 10
2385.0
 20
230.0
 30
0.0
 11
2385.0
 21
140.5
 31
0.0
 70
32
 71
5
  1
<>
100
AcDbAlignedDimension
 13
2300.0
 23
230.0
 33
0.0
 14
2300.0
 24
51.0
 34
0.0
 50
90.0
100
AcDbRotatedDimension
  0
DIMENSION
  5
361
330
17
100
AcDbEntity
  8
DIMENSION
100
AcDbDimension
  2
*D28
  3
Standard
 10
2397.0
 20
230.0
 30
0.0
 11
2397.0
 21
140.0
 31
0.0
 70
32
 71
5
  1
<>
100
AcDbAlignedDimension
 13
2300.0
 23
230.0
 33
0.0
 14
2300.0
 24
50.0
 34
0.0
 50
90.0
100
AcDbRotatedDimension
  0
DIMENSION
  5
371
330
17
100
AcDbEntity
  8
DIMENSION
100
AcDbDimension
  2
*D29
  3
Standard
 10
2409.0
 20
230.0
 30
0.0
 11
2409.0
 21
132.5
 31
0.0
 70
32
 71
5
  1
<>
100
AcDbAlignedDimension
 13
2300.0
 23
230.0
 33
0.0
 14
2300.0
 24
35.0
 34
0.0
 50
90.0
100
AcDbRotatedDimension
  0
DIMENSION
  5
381
330
17
100
AcDbEntity
  8
DIMENSION
100
AcDbDimension
  2
*D30
  3
Standard
 10
2421.0
 20
230.0
 30
0.0
 11
2421.0
 21
118.25
 31
0.0
 70
32
 71
5
  1
<>
100
AcDbAlignedDimension
 13
2300.0
 23
230.0
 33
0.0
 14
2300.0
 24
6.5
 34
0.0
 50
90.0
100
AcDbRotatedDimension
  0
TEXT
  5
391
330
17
100
AcDbEntity
  8
ANNOTATION
100
AcDbText
 10
0.0
 20
-20.0
 30
0.0
 40
5.0
  1
Legend:
100
AcDbText
  0
TEXT
  5
392
330
17
100
AcDbEntity
  8
ANNOTATION
100
AcDbText
 10
0.0
 20
-30.0
 30
0.0
 40
5.0
  1
- CUT layer (red): Panel outline
100
AcDbText
  0
TEXT
  5
393
330
17
100
AcDbEntity
  8
ANNOTATION
100
AcDbText
 10
0.0
 20
-40.0
 30
0.0
 40
5.0
  1
- DRILL layer (blue): Holes to be drilled
100
AcDbText
  0
TEXT
  5
394
330
17
100
AcDbEntity
  8
ANNOTATION
100
AcDbText
 10
0.0
 20
-50.0
 30
0.0
 40
5.0
  1
- DIMENSION layer (green): Panel and hole dimensions
100
AcDbText
  0
TEXT
  5
395
330
17
100
AcDbEntity
  8
ANNOTATION
100
AcDbText
 10
0.0
 20
-60.0
 30
0.0
 40
5.0
  1
- ANNOTATION layer (magenta): Hole dimensions (d=diameter, h=depth)
100
AcDbText
  0
ENDSEC
  0
SECTION
  2
OBJECTS
  0
DICTIONARY
  5
A
330
0
100
AcDbDictionary
281
1
  3
ACAD_COLOR
350
B
  3
ACAD_GROUP
350
C
  3
ACAD_LAYOUT
350
D
  3
ACAD_MATERIAL
350
E
  3
ACAD_MLEADERSTYLE
350
F
  3
ACAD_MLINESTYLE
350
10
  3
ACAD_PLOTSETTINGS
350
11
  3
ACAD_PLOTSTYLENAME
350
12
  3
ACAD_SCALELIST
350
14
  3
ACAD_TABLESTYLE
350
15
  3
ACAD_VISUALSTYLE
350
16
  3
EZDXF_META
350
2D
  0
DICTIONARY
  5
B
330
A
100
AcDbDictionary
281
1
  0
DICTIONARY
  5
C
330
A
100
AcDbDictionary
281
1
  0
DICTIONARY
  5
D
330
A
100
AcDbDictionary
281
1
  3
Model
350
1A
  3
Layout1
350
1E
  0
DICTIONARY
  5
E
330
A
100
AcDbDictionary
281
1
  3
ByBlock
350
1F
  3
ByLayer
350
20
  3
Global
350
21
  0
DICTIONARY
  5
F
330
A
100
AcDbDictionary
281
1
  3
Standard
350
2C
  0
DICTIONARY
  5
10
330
A
100
AcDbDictionary
281
1
  3
Standard
350
22
  0
DICTIONARY
  5
11
330
A
100
AcDbDictionary
281
1
  0
ACDBDICTIONARYWDFLT
  5
12
330
A
100
AcDbDictionary
281
1
  3
Normal
350
13
100
AcDbDictionaryWithDefault
340
13
  0
ACDBPLACEHOLDER
  5
13
330
12
  0
DICTIONARY
  5
14
330
A
100
AcDbDictionary
281
1
  0
DICTIONARY
  5
15
330
A
100
AcDbDictionary
281
1
  0
DICTIONARY
  5
16
330
A
100
AcDbDictionary
281
1
  0
LAYOUT
  5
1A
330
D
100
AcDbPlotSettings
  1

  4
A3
  6

 40
7.5
 41
20.0
 42
7.5
 43
20.0
 44
420.0
 45
297.0
 46
0.0
 47
0.0
 48
0.0
 49
0.0
140
0.0
141
0.0
142
1.0
143
1.0
 70
1024
 72
1
 73
0
 74
5
  7

 75
16
 76
0
 77
2
 78
300
147
1.0
148
0.0
149
0.0
100
AcDbLayout
  1
Model
 70
1
 71
0
 10
0.0
 20
0.0
 11
420.0
 21
297.0
 12
0.0
 22
0.0
 32
0.0
 14
1e+20
 24
1e+20
 34
1e+20
 15
-1e+20
 25
-1e+20
 35
-1e+20
146
0.0
 13
0.0
 23
0.0
 33
0.0
 16
1.0
 26
0.0
 36
0.0
 17
0.0
 27
1.0
 37
0.0
 76
1
330
17
  0
LAYOUT
  5
1E
330
D
100
AcDbPlotSettings
  1

  4
A3
  6

 40
7.5
 41
20.0
 42
7.5
 43
20.0
 44
420.0
 45
297.0
 46
0.0
 47
0.0
 48
0.0
 49
0.0
140
0.0
141
0.0
142
1.0
143
1.0
 70
0
 72
1
 73
0
 74
5
  7

 75
16
 76
0
 77
2
 78
300
147
1.0
148
0.0
149
0.0
100
AcDbLayout
  1
Layout1
 70
1
 71
1
 10
0.0
 20
0.0
 11
420.0
 21
297.0
 12
0.0
 22
0.0
 32
0.0
 14
1e+20
 24
1e+20
 34
1e+20
 15
-1e+20
 25
-1e+20
 35
-1e+20
146
0.0
 13
0.0
 23
0.0
 33
0.0
 16
1.0
 26
0.0
 36
0.0
 17
0.0
 27
1.0
 37
0.0
 76
1
330
1B
  0
MATERIAL
  5
1F
102
{ACAD_REACTORS
330
E
102
}
330
E
100
AcDbMaterial
  1
ByBlock
  2

 70
0
 40
1.0
 71
1
 41
1.0
 91
-1023410177
 42
1.0
 72
1
  3

 73
1
 74
1
 75
1
 44
0.5
 73
0
 45
1.0
 46
1.0
 77
1
  4

 78
1
 79
1
170
1
 48
1.0
171
1
  6

172
1
173
1
174
1
140
1.0
141
1.0
175
1
  7

176
1
177
1
178
1
143
1.0
179
1
  8

270
1
271
1
272
1
145
1.0
146
1.0
273
1
  9

274
1
275
1
276
1
 42
1.0
 72
1
  3

 73
1
 74
1
 75
1
 94
63
  0
MATERIAL
  5
20
102
{ACAD_REACTORS
330
E
102
}
330
E
100
AcDbMaterial
  1
ByLayer
  2

 70
0
 40
1.0
 71
1
 41
1.0
 91
-1023410177
 42
1.0
 72
1
  3

 73
1
 74
1
 75
1
 44
0.5
 73
0
 45
1.0
 46
1.0
 77
1
  4

 78
1
 79
1
170
1
 48
1.0
171
1
  6

172
1
173
1
174
1
140
1.0
141
1.0
175
1
  7

176
1
177
1
178
1
143
1.0
179
1
  8

270
1
271
1
272
1
145
1.0
146
1.0
273
1
  9

274
1
275
1
276
1
 42
1.0
 72
1
  3

 73
1
 74
1
 75
1
 94
63
  0
MATERIAL
  5
21
102
{ACAD_REACTORS
330
E
102
}
330
E
100
AcDbMaterial
  1
Global
  2

 70
0
 40
1.0
 71
1
 41
1.0
 91
-1023410177
 42
1.0
 72
1
  3

 73
1
 74
1
 75
1
 44
0.5
 73
0
 45
1.0
 46
1.0
 77
1
  4

 78
1
 79
1
170
1
 48
1.0
171
1
  6

172
1
173
1
174
1
140
1.0
141
1.0
175
1
  7

176
1
177
1
178
1
143
1.0
179
1
  8

270
1
271
1
272
1
145
1.0
146
1.0
273
1
  9

274
1
275
1
276
1
 42
1.0
 72
1
  3

 73
1
 74
1
 75
1
 94
63
  0
MLINESTYLE
  5
22
102
{ACAD_REACTORS
330
10
102
}
330
10
100
AcDbMlineStyle
  2
Standard
 70
0
  3

 62
256
 51
90.0
 52
90.0
 71
2
 49
0.5
 62
256
  6
BYLAYER
 49
-0.5
 62
256
  6
BYLAYER
  0
MLEADERSTYLE
  5
2C
102
{ACAD_REACTORS
330
F
102
}
330
F
100
AcDbMLeaderStyle
179
2
170
2
171
1
172
0
 90
2
 40
0.0
 41
0.0
173
1
 91
-1056964608
 92
-2
290
1
 42
2.0
291
1
 43
8.0
  3
Standard
 44
4.0
300

342
29
174
1
175
1
176
0
178
1
 93
-1056964608
 45
4.0
292
0
297
0
 46
4.0
 94
-1056964608
 47
1.0
 49
1.0
140
1.0
294
1
141
0.0
177
0
142
1.0
295
0
296
0
143
3.75
271
0
272
9
273
9
  0
DICTIONARY
  5
2D
330
A
100
AcDbDictionary
280
1
281
1
  3
CREATED_BY_EZDXF
350
2E
  3
WRITTEN_BY_EZDXF
350
398
  0
DICTIONARYVAR
  5
2E
330
2D
100
DictionaryVariables
280
0
  1
1.4.2 @ 2025-08-23T20:24:13.798555+00:00
  0
DICTIONARYVAR
  5
398
330
2D
100
DictionaryVariables
280
0
  1
1.4.2 @ 2025-08-23T20:24:14.289227+00:00
  0
ENDSEC
  0
EOF
