  0
SECTION
  2
HEADER
  9
$ACADVER
  1
AC1015
  9
$ACADMAINTVER
 70
6
  9
$DWGCODEPAGE
  3
ANSI_1252
  9
$INSBASE
 10
0.0
 20
0.0
 30
0.0
  9
$EXTMIN
 10
1e+20
 20
1e+20
 30
1e+20
  9
$EXTMAX
 10
-1e+20
 20
-1e+20
 30
-1e+20
  9
$LIMMIN
 10
0.0
 20
0.0
  9
$LIMMAX
 10
420.0
 20
297.0
  9
$ORTHOMODE
 70
0
  9
$REGENMODE
 70
1
  9
$FILLMODE
 70
1
  9
$QTEXTMODE
 70
0
  9
$MIRRTEXT
 70
1
  9
$LTSCALE
 40
1.0
  9
$ATTMODE
 70
1
  9
$TEXTSIZE
 40
2.5
  9
$TRACEWID
 40
1.0
  9
$TEXTSTYLE
  7
Standard
  9
$CLAYER
  8
0
  9
$CELTYPE
  6
ByLayer
  9
$CECOLOR
 62
256
  9
$CELTSCALE
 40
1.0
  9
$DISPSILH
 70
0
  9
$DIMSCALE
 40
1.0
  9
$DIMASZ
 40
2.5
  9
$DIMEXO
 40
0.625
  9
$DIMDLI
 40
3.75
  9
$DIMRND
 40
0.0
  9
$DIMDLE
 40
0.0
  9
$DIMEXE
 40
1.25
  9
$DIMTP
 40
0.0
  9
$DIMTM
 40
0.0
  9
$DIMTXT
 40
2.5
  9
$DIMCEN
 40
2.5
  9
$DIMTSZ
 40
0.0
  9
$DIMTOL
 70
0
  9
$DIMLIM
 70
0
  9
$DIMTIH
 70
0
  9
$DIMTOH
 70
0
  9
$DIMSE1
 70
0
  9
$DIMSE2
 70
0
  9
$DIMTAD
 70
1
  9
$DIMZIN
 70
8
  9
$DIMBLK
  1

  9
$DIMASO
 70
1
  9
$DIMSHO
 70
1
  9
$DIMPOST
  1

  9
$DIMAPOST
  1

  9
$DIMALT
 70
0
  9
$DIMALTD
 70
3
  9
$DIMALTF
 40
0.03937007874
  9
$DIMLFAC
 40
1.0
  9
$DIMTOFL
 70
1
  9
$DIMTVP
 40
0.0
  9
$DIMTIX
 70
0
  9
$DIMSOXD
 70
0
  9
$DIMSAH
 70
0
  9
$DIMBLK1
  1

  9
$DIMBLK2
  1

  9
$DIMSTYLE
  2
ISO-25
  9
$DIMCLRD
 70
0
  9
$DIMCLRE
 70
0
  9
$DIMCLRT
 70
0
  9
$DIMTFAC
 40
1.0
  9
$DIMGAP
 40
0.625
  9
$DIMJUST
 70
0
  9
$DIMSD1
 70
0
  9
$DIMSD2
 70
0
  9
$DIMTOLJ
 70
0
  9
$DIMTZIN
 70
8
  9
$DIMALTZ
 70
0
  9
$DIMALTTZ
 70
0
  9
$DIMUPT
 70
0
  9
$DIMDEC
 70
2
  9
$DIMTDEC
 70
2
  9
$DIMALTU
 70
2
  9
$DIMALTTD
 70
3
  9
$DIMTXSTY
  7
Standard
  9
$DIMAUNIT
 70
0
  9
$DIMADEC
 70
0
  9
$DIMALTRND
 40
0.0
  9
$DIMAZIN
 70
0
  9
$DIMDSEP
 70
44
  9
$DIMATFIT
 70
3
  9
$DIMFRAC
 70
0
  9
$DIMLDRBLK
  1

  9
$DIMLUNIT
 70
2
  9
$DIMLWD
 70
-2
  9
$DIMLWE
 70
-2
  9
$DIMTMOVE
 70
0
  9
$LUNITS
 70
2
  9
$LUPREC
 70
4
  9
$SKETCHINC
 40
1.0
  9
$FILLETRAD
 40
10.0
  9
$AUNITS
 70
0
  9
$AUPREC
 70
2
  9
$MENU
  1
.
  9
$ELEVATION
 40
0.0
  9
$PELEVATION
 40
0.0
  9
$THICKNESS
 40
0.0
  9
$LIMCHECK
 70
0
  9
$CHAMFERA
 40
0.0
  9
$CHAMFERB
 40
0.0
  9
$CHAMFERC
 40
0.0
  9
$CHAMFERD
 40
0.0
  9
$SKPOLY
 70
0
  9
$TDCREATE
 40
2460912.3233564813
  9
$TDUCREATE
 40
2458532.153996898
  9
$TDUPDATE
 40
2460912.3233564813
  9
$TDUUPDATE
 40
2458532.1544311
  9
$TDINDWG
 40
0.0
  9
$TDUSRTIMER
 40
0.0
  9
$USRTIMER
 70
1
  9
$ANGBASE
 50
0.0
  9
$ANGDIR
 70
0
  9
$PDMODE
 70
0
  9
$PDSIZE
 40
0.0
  9
$PLINEWID
 40
0.0
  9
$SPLFRAME
 70
0
  9
$SPLINETYPE
 70
6
  9
$SPLINESEGS
 70
8
  9
$HANDSEED
  5
25A
  9
$SURFTAB1
 70
6
  9
$SURFTAB2
 70
6
  9
$SURFTYPE
 70
6
  9
$SURFU
 70
6
  9
$SURFV
 70
6
  9
$UCSBASE
  2

  9
$UCSNAME
  2

  9
$UCSORG
 10
0.0
 20
0.0
 30
0.0
  9
$UCSXDIR
 10
1.0
 20
0.0
 30
0.0
  9
$UCSYDIR
 10
0.0
 20
1.0
 30
0.0
  9
$UCSORTHOREF
  2

  9
$UCSORTHOVIEW
 70
0
  9
$UCSORGTOP
 10
0.0
 20
0.0
 30
0.0
  9
$UCSORGBOTTOM
 10
0.0
 20
0.0
 30
0.0
  9
$UCSORGLEFT
 10
0.0
 20
0.0
 30
0.0
  9
$UCSORGRIGHT
 10
0.0
 20
0.0
 30
0.0
  9
$UCSORGFRONT
 10
0.0
 20
0.0
 30
0.0
  9
$UCSORGBACK
 10
0.0
 20
0.0
 30
0.0
  9
$PUCSBASE
  2

  9
$PUCSNAME
  2

  9
$PUCSORG
 10
0.0
 20
0.0
 30
0.0
  9
$PUCSXDIR
 10
1.0
 20
0.0
 30
0.0
  9
$PUCSYDIR
 10
0.0
 20
1.0
 30
0.0
  9
$PUCSORTHOREF
  2

  9
$PUCSORTHOVIEW
 70
0
  9
$PUCSORGTOP
 10
0.0
 20
0.0
 30
0.0
  9
$PUCSORGBOTTOM
 10
0.0
 20
0.0
 30
0.0
  9
$PUCSORGLEFT
 10
0.0
 20
0.0
 30
0.0
  9
$PUCSORGRIGHT
 10
0.0
 20
0.0
 30
0.0
  9
$PUCSORGFRONT
 10
0.0
 20
0.0
 30
0.0
  9
$PUCSORGBACK
 10
0.0
 20
0.0
 30
0.0
  9
$USERI1
 70
0
  9
$USERI2
 70
0
  9
$USERI3
 70
0
  9
$USERI4
 70
0
  9
$USERI5
 70
0
  9
$USERR1
 40
0.0
  9
$USERR2
 40
0.0
  9
$USERR3
 40
0.0
  9
$USERR4
 40
0.0
  9
$USERR5
 40
0.0
  9
$WORLDVIEW
 70
1
  9
$SHADEDGE
 70
3
  9
$SHADEDIF
 70
70
  9
$TILEMODE
 70
1
  9
$MAXACTVP
 70
64
  9
$PINSBASE
 10
0.0
 20
0.0
 30
0.0
  9
$PLIMCHECK
 70
0
  9
$PEXTMIN
 10
1e+20
 20
1e+20
 30
1e+20
  9
$PEXTMAX
 10
-1e+20
 20
-1e+20
 30
-1e+20
  9
$PLIMMIN
 10
0.0
 20
0.0
  9
$PLIMMAX
 10
420.0
 20
297.0
  9
$UNITMODE
 70
0
  9
$VISRETAIN
 70
1
  9
$PLINEGEN
 70
0
  9
$PSLTSCALE
 70
1
  9
$TREEDEPTH
 70
3020
  9
$CMLSTYLE
  2
Standard
  9
$CMLJUST
 70
0
  9
$CMLSCALE
 40
20.0
  9
$PROXYGRAPHICS
 70
1
  9
$MEASUREMENT
 70
1
  9
$CELWEIGHT
370
-1
  9
$ENDCAPS
280
0
  9
$JOINSTYLE
280
0
  9
$LWDISPLAY
290
0
  9
$INSUNITS
 70
6
  9
$HYPERLINKBASE
  1

  9
$STYLESHEET
  1

  9
$XEDIT
290
1
  9
$CEPSNTYPE
380
0
  9
$PSTYLEMODE
290
1
  9
$FINGERPRINTGUID
  2
{59977225-CA62-41FE-B40B-ED323B3B71D8}
  9
$VERSIONGUID
  2
{D0AA2477-63AF-43E3-ABB0-B3A0D337041B}
  9
$EXTNAMES
290
1
  9
$PSVPSCALE
 40
0.0
  9
$OLESTARTUP
290
0
  0
ENDSEC
  0
SECTION
  2
CLASSES
  0
CLASS
  1
ACDBDICTIONARYWDFLT
  2
AcDbDictionaryWithDefault
  3
ObjectDBX Classes
 90
0
280
0
281
0
  0
CLASS
  1
SUN
  2
AcDbSun
  3
SCENEOE
 90
1153
280
0
281
0
  0
CLASS
  1
VISUALSTYLE
  2
AcDbVisualStyle
  3
ObjectDBX Classes
 90
4095
280
0
281
0
  0
CLASS
  1
MATERIAL
  2
AcDbMaterial
  3
ObjectDBX Classes
 90
1153
280
0
281
0
  0
CLASS
  1
SCALE
  2
AcDbScale
  3
ObjectDBX Classes
 90
1153
280
0
281
0
  0
CLASS
  1
TABLESTYLE
  2
AcDbTableStyle
  3
ObjectDBX Classes
 90
4095
280
0
281
0
  0
CLASS
  1
MLEADERSTYLE
  2
AcDbMLeaderStyle
  3
ACDB_MLEADERSTYLE_CLASS
 90
4095
280
0
281
0
  0
CLASS
  1
DICTIONARYVAR
  2
AcDbDictionaryVar
  3
ObjectDBX Classes
 90
0
280
0
281
0
  0
CLASS
  1
CELLSTYLEMAP
  2
AcDbCellStyleMap
  3
ObjectDBX Classes
 90
1152
280
0
281
0
  0
CLASS
  1
MENTALRAYRENDERSETTINGS
  2
AcDbMentalRayRenderSettings
  3
SCENEOE
 90
1024
280
0
281
0
  0
CLASS
  1
ACDBDETAILVIEWSTYLE
  2
AcDbDetailViewStyle
  3
ObjectDBX Classes
 90
1025
280
0
281
0
  0
CLASS
  1
ACDBSECTIONVIEWSTYLE
  2
AcDbSectionViewStyle
  3
ObjectDBX Classes
 90
1025
280
0
281
0
  0
CLASS
  1
RASTERVARIABLES
  2
AcDbRasterVariables
  3
ISM
 90
0
280
0
281
0
  0
CLASS
  1
ACDBPLACEHOLDER
  2
AcDbPlaceHolder
  3
ObjectDBX Classes
 90
0
280
0
281
0
  0
CLASS
  1
LAYOUT
  2
AcDbLayout
  3
ObjectDBX Classes
 90
0
280
0
281
0
  0
ENDSEC
  0
SECTION
  2
TABLES
  0
TABLE
  2
VPORT
  5
8
330
0
100
AcDbSymbolTable
 70
1
  0
VPORT
  5
23
330
8
100
AcDbSymbolTableRecord
100
AcDbViewportTableRecord
  2
*Active
 70
0
 10
0.0
 20
0.0
 11
1.0
 21
1.0
 12
0.0
 22
0.0
 13
0.0
 23
0.0
 14
0.5
 24
0.5
 15
0.5
 25
0.5
 16
0.0
 26
0.0
 36
1.0
 17
0.0
 27
0.0
 37
0.0
 40
1000.0
 41
1.34
 42
50.0
 43
0.0
 44
0.0
 50
0.0
 51
0.0
 71
0
 72
1000
 73
1
 74
3
 75
0
 76
0
 77
0
 78
0
281
0
 65
0
146
0.0
  0
ENDTAB
  0
TABLE
  2
LTYPE
  5
2
330
0
100
AcDbSymbolTable
 70
3
  0
LTYPE
  5
24
330
2
100
AcDbSymbolTableRecord
100
AcDbLinetypeTableRecord
  2
ByBlock
 70
0
  3

 72
65
 73
0
 40
0.0
  0
LTYPE
  5
25
330
2
100
AcDbSymbolTableRecord
100
AcDbLinetypeTableRecord
  2
ByLayer
 70
0
  3

 72
65
 73
0
 40
0.0
  0
LTYPE
  5
26
330
2
100
AcDbSymbolTableRecord
100
AcDbLinetypeTableRecord
  2
Continuous
 70
0
  3

 72
65
 73
0
 40
0.0
  0
ENDTAB
  0
TABLE
  2
LAYER
  5
1
330
0
100
AcDbSymbolTable
 70
6
  0
LAYER
  5
27
330
1
100
AcDbSymbolTableRecord
100
AcDbLayerTableRecord
  2
0
 70
0
 62
7
  6
Continuous
370
-3
390
13
  0
LAYER
  5
28
330
1
100
AcDbSymbolTableRecord
100
AcDbLayerTableRecord
  2
Defpoints
 70
0
 62
7
  6
Continuous
290
0
370
-3
390
13
  0
LAYER
  5
2F
330
1
100
AcDbSymbolTableRecord
100
AcDbLayerTableRecord
  2
CUT
 70
0
 62
1
  6
CONTINUOUS
370
-3
390
13
  0
LAYER
  5
30
330
1
100
AcDbSymbolTableRecord
100
AcDbLayerTableRecord
  2
DRILL
 70
0
 62
5
  6
CONTINUOUS
370
-3
390
13
  0
LAYER
  5
31
330
1
100
AcDbSymbolTableRecord
100
AcDbLayerTableRecord
  2
DIMENSION
 70
0
 62
3
  6
CONTINUOUS
370
-3
390
13
  0
LAYER
  5
32
330
1
100
AcDbSymbolTableRecord
100
AcDbLayerTableRecord
  2
ANNOTATION
 70
0
 62
6
  6
CONTINUOUS
370
-3
390
13
  0
ENDTAB
  0
TABLE
  2
STYLE
  5
5
330
0
100
AcDbSymbolTable
 70
1
  0
STYLE
  5
29
330
5
100
AcDbSymbolTableRecord
100
AcDbTextStyleTableRecord
  2
Standard
 70
0
 40
0.0
 41
1.0
 50
0.0
 71
0
 42
2.5
  3
txt
  4

  0
ENDTAB
  0
TABLE
  2
VIEW
  5
7
330
0
100
AcDbSymbolTable
 70
0
  0
ENDTAB
  0
TABLE
  2
UCS
  5
6
330
0
100
AcDbSymbolTable
 70
0
  0
ENDTAB
  0
TABLE
  2
APPID
  5
3
330
0
100
AcDbSymbolTable
 70
3
  0
APPID
  5
2A
330
3
100
AcDbSymbolTableRecord
100
AcDbRegAppTableRecord
  2
ACAD
 70
0
  0
APPID
  5
257
330
3
100
AcDbSymbolTableRecord
100
AcDbRegAppTableRecord
  2
HATCHBACKGROUNDCOLOR
 70
0
  0
APPID
  5
258
330
3
100
AcDbSymbolTableRecord
100
AcDbRegAppTableRecord
  2
EZDXF
 70
0
  0
ENDTAB
  0
TABLE
  2
DIMSTYLE
  5
4
330
0
100
AcDbSymbolTable
 70
1
100
AcDbDimStyleTable
  0
DIMSTYLE
105
2B
330
4
100
AcDbSymbolTableRecord
100
AcDbDimStyleTableRecord
  2
Standard
 70
0
  3

  4

 40
1.0
 41
2.5
 42
0.625
 43
3.75
 44
1.25
 45
0.0
 46
0.0
 47
0.0
 48
0.0
140
2.5
141
2.5
142
0.0
143
0.03937007874
144
1.0
145
0.0
146
1.0
147
0.625
148
0.0
 71
0
 72
0
 73
0
 74
0
 75
0
 76
0
 77
1
 78
8
 79
3
170
0
171
3
172
1
173
0
174
0
175
0
176
0
177
0
178
0
179
2
271
2
272
2
273
2
274
3
275
0
276
0
277
2
278
44
279
0
280
0
281
0
282
0
283
0
284
8
285
0
286
0
288
0
289
3
371
-2
372
-2
  0
ENDTAB
  0
TABLE
  2
BLOCK_RECORD
  5
9
330
0
100
AcDbSymbolTable
 70
31
  0
BLOCK_RECORD
  5
17
330
9
100
AcDbSymbolTableRecord
100
AcDbBlockTableRecord
  2
*Model_Space
340
1A
  0
BLOCK_RECORD
  5
1B
330
9
100
AcDbSymbolTableRecord
100
AcDbBlockTableRecord
  2
*Paper_Space
340
1E
  0
BLOCK_RECORD
  5
8D
330
9
100
AcDbSymbolTableRecord
100
AcDbBlockTableRecord
  2
*D1
340
0
  0
BLOCK_RECORD
  5
92
330
9
100
AcDbSymbolTableRecord
100
AcDbBlockTableRecord
  2
_CLOSEDFILLED
340
0
  0
BLOCK_RECORD
  5
A1
330
9
100
AcDbSymbolTableRecord
100
AcDbBlockTableRecord
  2
*D2
340
0
  0
BLOCK_RECORD
  5
B1
330
9
100
AcDbSymbolTableRecord
100
AcDbBlockTableRecord
  2
*D3
340
0
  0
BLOCK_RECORD
  5
C1
330
9
100
AcDbSymbolTableRecord
100
AcDbBlockTableRecord
  2
*D4
340
0
  0
BLOCK_RECORD
  5
D1
330
9
100
AcDbSymbolTableRecord
100
AcDbBlockTableRecord
  2
*D5
340
0
  0
BLOCK_RECORD
  5
E1
330
9
100
AcDbSymbolTableRecord
100
AcDbBlockTableRecord
  2
*D6
340
0
  0
BLOCK_RECORD
  5
F1
330
9
100
AcDbSymbolTableRecord
100
AcDbBlockTableRecord
  2
*D7
340
0
  0
BLOCK_RECORD
  5
101
330
9
100
AcDbSymbolTableRecord
100
AcDbBlockTableRecord
  2
*D8
340
0
  0
BLOCK_RECORD
  5
111
330
9
100
AcDbSymbolTableRecord
100
AcDbBlockTableRecord
  2
*D9
340
0
  0
BLOCK_RECORD
  5
121
330
9
100
AcDbSymbolTableRecord
100
AcDbBlockTableRecord
  2
*D10
340
0
  0
BLOCK_RECORD
  5
132
330
9
100
AcDbSymbolTableRecord
100
AcDbBlockTableRecord
  2
*D11
340
0
  0
BLOCK_RECORD
  5
142
330
9
100
AcDbSymbolTableRecord
100
AcDbBlockTableRecord
  2
*D12
340
0
  0
BLOCK_RECORD
  5
152
330
9
100
AcDbSymbolTableRecord
100
AcDbBlockTableRecord
  2
*D13
340
0
  0
BLOCK_RECORD
  5
162
330
9
100
AcDbSymbolTableRecord
100
AcDbBlockTableRecord
  2
*D14
340
0
  0
BLOCK_RECORD
  5
172
330
9
100
AcDbSymbolTableRecord
100
AcDbBlockTableRecord
  2
*D15
340
0
  0
BLOCK_RECORD
  5
182
330
9
100
AcDbSymbolTableRecord
100
AcDbBlockTableRecord
  2
*D16
340
0
  0
BLOCK_RECORD
  5
192
330
9
100
AcDbSymbolTableRecord
100
AcDbBlockTableRecord
  2
*D17
340
0
  0
BLOCK_RECORD
  5
1A2
330
9
100
AcDbSymbolTableRecord
100
AcDbBlockTableRecord
  2
*D18
340
0
  0
BLOCK_RECORD
  5
1B2
330
9
100
AcDbSymbolTableRecord
100
AcDbBlockTableRecord
  2
*D19
340
0
  0
BLOCK_RECORD
  5
1C2
330
9
100
AcDbSymbolTableRecord
100
AcDbBlockTableRecord
  2
*D20
340
0
  0
BLOCK_RECORD
  5
1D2
330
9
100
AcDbSymbolTableRecord
100
AcDbBlockTableRecord
  2
*D21
340
0
  0
BLOCK_RECORD
  5
1E2
330
9
100
AcDbSymbolTableRecord
100
AcDbBlockTableRecord
  2
*D22
340
0
  0
BLOCK_RECORD
  5
1F2
330
9
100
AcDbSymbolTableRecord
100
AcDbBlockTableRecord
  2
*D23
340
0
  0
BLOCK_RECORD
  5
202
330
9
100
AcDbSymbolTableRecord
100
AcDbBlockTableRecord
  2
*D24
340
0
  0
BLOCK_RECORD
  5
213
330
9
100
AcDbSymbolTableRecord
100
AcDbBlockTableRecord
  2
*D25
340
0
  0
BLOCK_RECORD
  5
223
330
9
100
AcDbSymbolTableRecord
100
AcDbBlockTableRecord
  2
*D26
340
0
  0
BLOCK_RECORD
  5
233
330
9
100
AcDbSymbolTableRecord
100
AcDbBlockTableRecord
  2
*D27
340
0
  0
BLOCK_RECORD
  5
243
330
9
100
AcDbSymbolTableRecord
100
AcDbBlockTableRecord
  2
*D28
340
0
  0
ENDTAB
  0
ENDSEC
  0
SECTION
  2
BLOCKS
  0
BLOCK
  5
18
330
17
100
AcDbEntity
  8
0
100
AcDbBlockBegin
  2
*Model_Space
 70
0
 10
0.0
 20
0.0
 30
0.0
  3
*Model_Space
  1

  0
ENDBLK
  5
19
330
17
100
AcDbEntity
  8
0
100
AcDbBlockEnd
  0
BLOCK
  5
1C
330
1B
100
AcDbEntity
  8
0
100
AcDbBlockBegin
  2
*Paper_Space
 70
0
 10
0.0
 20
0.0
 30
0.0
  3
*Paper_Space
  1

  0
ENDBLK
  5
1D
330
1B
100
AcDbEntity
  8
0
100
AcDbBlockEnd
  0
BLOCK
  5
8E
330
8D
100
AcDbEntity
  8
0
100
AcDbBlockBegin
  2
*D1
 70
1
 10
0.0
 20
0.0
 30
0.0
  3
*D1
  1

  0
LINE
  5
90
330
8D
100
AcDbEntity
  8
0
100
AcDbLine
 10
0.0
 20
0.0
 30
0.0
 11
0.0
 21
-25.0
 31
0.0
  0
LINE
  5
91
330
8D
100
AcDbEntity
  8
0
100
AcDbLine
 10
42.5
 20
0.0
 30
0.0
 11
42.5
 21
-25.0
 31
0.0
  0
INSERT
  5
96
330
8D
100
AcDbEntity
  8
DIMENSION
100
AcDbBlockReference
  2
_CLOSEDFILLED
 10
0.0
 20
-25.0
 30
0.0
 41
0.25
 42
0.25
 50
180.0
  0
INSERT
  5
98
330
8D
100
AcDbEntity
  8
DIMENSION
100
AcDbBlockReference
  2
_CLOSEDFILLED
 10
42.5
 20
-25.0
 30
0.0
 41
0.25
 42
0.25
  0
LINE
  5
9A
330
8D
100
AcDbEntity
  8
0
100
AcDbLine
 10
0.25
 20
-25.0
 30
0.0
 11
19.25
 21
-25.0
 31
0.0
  0
LINE
  5
9B
330
8D
100
AcDbEntity
  8
0
100
AcDbLine
 10
23.250000000000004
 20
-25.0
 30
0.0
 11
42.25
 21
-25.0
 31
0.0
  0
MTEXT
  5
9C
330
8D
100
AcDbEntity
  8
DIMENSION
100
AcDbMText
 10
21.25
 20
-25.0
 30
0.0
 40
1.0
 71
5
  1
42,5
  0
POINT
  5
9D
330
8D
100
AcDbEntity
  8
Defpoints
100
AcDbPoint
 10
0.0
 20
-25.0
 30
0.0
  0
POINT
  5
9E
330
8D
100
AcDbEntity
  8
Defpoints
100
AcDbPoint
 10
0.0
 20
0.0
 30
0.0
  0
POINT
  5
9F
330
8D
100
AcDbEntity
  8
Defpoints
100
AcDbPoint
 10
42.5
 20
0.0
 30
0.0
  0
ENDBLK
  5
8F
330
8D
100
AcDbEntity
  8
0
100
AcDbBlockEnd
  0
BLOCK
  5
93
330
92
100
AcDbEntity
  8
0
100
AcDbBlockBegin
  2
_CLOSEDFILLED
 70
0
 10
0.0
 20
0.0
 30
0.0
  3
_CLOSEDFILLED
  1

  0
SOLID
  5
95
330
92
100
AcDbEntity
  8
0
  6
BYBLOCK
 62
0
100
AcDbTrace
 10
-1.0
 20
0.16439898372402537
 30
0.0
 11
0.0
 21
0.0
 31
0.0
 12
-1.0
 22
-0.16439898372402537
 32
0.0
 13
-1.0
 23
-0.16439898372402537
 33
0.0
  0
ENDBLK
  5
94
330
92
100
AcDbEntity
  8
0
100
AcDbBlockEnd
  0
BLOCK
  5
A2
330
A1
100
AcDbEntity
  8
0
100
AcDbBlockBegin
  2
*D2
 70
1
 10
0.0
 20
0.0
 30
0.0
  3
*D2
  1

  0
LINE
  5
A4
330
A1
100
AcDbEntity
  8
0
100
AcDbLine
 10
0.0
 20
0.0
 30
0.0
 11
0.0
 21
-37.0
 31
0.0
  0
LINE
  5
A5
330
A1
100
AcDbEntity
  8
0
100
AcDbLine
 10
92.5
 20
0.0
 30
0.0
 11
92.5
 21
-37.0
 31
0.0
  0
INSERT
  5
A6
330
A1
100
AcDbEntity
  8
DIMENSION
100
AcDbBlockReference
  2
_CLOSEDFILLED
 10
0.0
 20
-37.0
 30
0.0
 41
0.25
 42
0.25
 50
180.0
  0
INSERT
  5
A8
330
A1
100
AcDbEntity
  8
DIMENSION
100
AcDbBlockReference
  2
_CLOSEDFILLED
 10
92.5
 20
-37.0
 30
0.0
 41
0.25
 42
0.25
  0
LINE
  5
AA
330
A1
100
AcDbEntity
  8
0
100
AcDbLine
 10
0.25
 20
-37.0
 30
0.0
 11
44.25
 21
-37.0
 31
0.0
  0
LINE
  5
AB
330
A1
100
AcDbEntity
  8
0
100
AcDbLine
 10
48.25
 20
-37.0
 30
0.0
 11
92.25
 21
-37.0
 31
0.0
  0
MTEXT
  5
AC
330
A1
100
AcDbEntity
  8
DIMENSION
100
AcDbMText
 10
46.25
 20
-37.0
 30
0.0
 40
1.0
 71
5
  1
92,5
  0
POINT
  5
AD
330
A1
100
AcDbEntity
  8
Defpoints
100
AcDbPoint
 10
0.0
 20
-37.0
 30
0.0
  0
POINT
  5
AE
330
A1
100
AcDbEntity
  8
Defpoints
100
AcDbPoint
 10
0.0
 20
0.0
 30
0.0
  0
POINT
  5
AF
330
A1
100
AcDbEntity
  8
Defpoints
100
AcDbPoint
 10
92.5
 20
0.0
 30
0.0
  0
ENDBLK
  5
A3
330
A1
100
AcDbEntity
  8
0
100
AcDbBlockEnd
  0
BLOCK
  5
B2
330
B1
100
AcDbEntity
  8
0
100
AcDbBlockBegin
  2
*D3
 70
1
 10
0.0
 20
0.0
 30
0.0
  3
*D3
  1

  0
LINE
  5
B4
330
B1
100
AcDbEntity
  8
0
100
AcDbLine
 10
0.0
 20
0.0
 30
0.0
 11
0.0
 21
-49.0
 31
0.0
  0
LINE
  5
B5
330
B1
100
AcDbEntity
  8
0
100
AcDbLine
 10
296.5
 20
0.0
 30
0.0
 11
296.5
 21
-49.0
 31
0.0
  0
INSERT
  5
B6
330
B1
100
AcDbEntity
  8
DIMENSION
100
AcDbBlockReference
  2
_CLOSEDFILLED
 10
0.0
 20
-49.0
 30
0.0
 41
0.25
 42
0.25
 50
180.0
  0
INSERT
  5
B8
330
B1
100
AcDbEntity
  8
DIMENSION
100
AcDbBlockReference
  2
_CLOSEDFILLED
 10
296.5
 20
-49.0
 30
0.0
 41
0.25
 42
0.25
  0
LINE
  5
BA
330
B1
100
AcDbEntity
  8
0
100
AcDbLine
 10
0.25
 20
-49.0
 30
0.0
 11
145.75
 21
-49.0
 31
0.0
  0
LINE
  5
BB
330
B1
100
AcDbEntity
  8
0
100
AcDbLine
 10
150.75
 20
-49.0
 30
0.0
 11
296.25
 21
-49.0
 31
0.0
  0
MTEXT
  5
BC
330
B1
100
AcDbEntity
  8
DIMENSION
100
AcDbMText
 10
148.25
 20
-49.0
 30
0.0
 40
1.0
 71
5
  1
296,5
  0
POINT
  5
BD
330
B1
100
AcDbEntity
  8
Defpoints
100
AcDbPoint
 10
0.0
 20
-49.0
 30
0.0
  0
POINT
  5
BE
330
B1
100
AcDbEntity
  8
Defpoints
100
AcDbPoint
 10
0.0
 20
0.0
 30
0.0
  0
POINT
  5
BF
330
B1
100
AcDbEntity
  8
Defpoints
100
AcDbPoint
 10
296.5
 20
0.0
 30
0.0
  0
ENDBLK
  5
B3
330
B1
100
AcDbEntity
  8
0
100
AcDbBlockEnd
  0
BLOCK
  5
C2
330
C1
100
AcDbEntity
  8
0
100
AcDbBlockBegin
  2
*D4
 70
1
 10
0.0
 20
0.0
 30
0.0
  3
*D4
  1

  0
LINE
  5
C4
330
C1
100
AcDbEntity
  8
0
100
AcDbLine
 10
0.0
 20
0.0
 30
0.0
 11
0.0
 21
-61.0
 31
0.0
  0
LINE
  5
C5
330
C1
100
AcDbEntity
  8
0
100
AcDbLine
 10
318.5
 20
0.0
 30
0.0
 11
318.5
 21
-61.0
 31
0.0
  0
INSERT
  5
C6
330
C1
100
AcDbEntity
  8
DIMENSION
100
AcDbBlockReference
  2
_CLOSEDFILLED
 10
0.0
 20
-61.0
 30
0.0
 41
0.25
 42
0.25
 50
180.0
  0
INSERT
  5
C8
330
C1
100
AcDbEntity
  8
DIMENSION
100
AcDbBlockReference
  2
_CLOSEDFILLED
 10
318.5
 20
-61.0
 30
0.0
 41
0.25
 42
0.25
  0
LINE
  5
CA
330
C1
100
AcDbEntity
  8
0
100
AcDbLine
 10
0.25
 20
-61.0
 30
0.0
 11
156.75
 21
-61.0
 31
0.0
  0
LINE
  5
CB
330
C1
100
AcDbEntity
  8
0
100
AcDbLine
 10
161.75000000000003
 20
-61.0
 30
0.0
 11
318.25
 21
-61.0
 31
0.0
  0
MTEXT
  5
CC
330
C1
100
AcDbEntity
  8
DIMENSION
100
AcDbMText
 10
159.25
 20
-61.0
 30
0.0
 40
1.0
 71
5
  1
318,5
  0
POINT
  5
CD
330
C1
100
AcDbEntity
  8
Defpoints
100
AcDbPoint
 10
0.0
 20
-61.0
 30
0.0
  0
POINT
  5
CE
330
C1
100
AcDbEntity
  8
Defpoints
100
AcDbPoint
 10
0.0
 20
0.0
 30
0.0
  0
POINT
  5
CF
330
C1
100
AcDbEntity
  8
Defpoints
100
AcDbPoint
 10
318.5
 20
0.0
 30
0.0
  0
ENDBLK
  5
C3
330
C1
100
AcDbEntity
  8
0
100
AcDbBlockEnd
  0
BLOCK
  5
D2
330
D1
100
AcDbEntity
  8
0
100
AcDbBlockBegin
  2
*D5
 70
1
 10
0.0
 20
0.0
 30
0.0
  3
*D5
  1

  0
LINE
  5
D4
330
D1
100
AcDbEntity
  8
0
100
AcDbLine
 10
0.0
 20
0.0
 30
0.0
 11
0.0
 21
-73.0
 31
0.0
  0
LINE
  5
D5
330
D1
100
AcDbEntity
  8
0
100
AcDbLine
 10
478.5
 20
0.0
 30
0.0
 11
478.5
 21
-73.0
 31
0.0
  0
INSERT
  5
D6
330
D1
100
AcDbEntity
  8
DIMENSION
100
AcDbBlockReference
  2
_CLOSEDFILLED
 10
0.0
 20
-73.0
 30
0.0
 41
0.25
 42
0.25
 50
180.0
  0
INSERT
  5
D8
330
D1
100
AcDbEntity
  8
DIMENSION
100
AcDbBlockReference
  2
_CLOSEDFILLED
 10
478.5
 20
-73.0
 30
0.0
 41
0.25
 42
0.25
  0
LINE
  5
DA
330
D1
100
AcDbEntity
  8
0
100
AcDbLine
 10
0.25
 20
-73.0
 30
0.0
 11
236.75
 21
-73.0
 31
0.0
  0
LINE
  5
DB
330
D1
100
AcDbEntity
  8
0
100
AcDbLine
 10
241.75000000000003
 20
-73.0
 30
0.0
 11
478.25
 21
-73.0
 31
0.0
  0
MTEXT
  5
DC
330
D1
100
AcDbEntity
  8
DIMENSION
100
AcDbMText
 10
239.25
 20
-73.0
 30
0.0
 40
1.0
 71
5
  1
478,5
  0
POINT
  5
DD
330
D1
100
AcDbEntity
  8
Defpoints
100
AcDbPoint
 10
0.0
 20
-73.0
 30
0.0
  0
POINT
  5
DE
330
D1
100
AcDbEntity
  8
Defpoints
100
AcDbPoint
 10
0.0
 20
0.0
 30
0.0
  0
POINT
  5
DF
330
D1
100
AcDbEntity
  8
Defpoints
100
AcDbPoint
 10
478.5
 20
0.0
 30
0.0
  0
ENDBLK
  5
D3
330
D1
100
AcDbEntity
  8
0
100
AcDbBlockEnd
  0
BLOCK
  5
E2
330
E1
100
AcDbEntity
  8
0
100
AcDbBlockBegin
  2
*D6
 70
1
 10
0.0
 20
0.0
 30
0.0
  3
*D6
  1

  0
LINE
  5
E4
330
E1
100
AcDbEntity
  8
0
100
AcDbLine
 10
0.0
 20
0.0
 30
0.0
 11
0.0
 21
-85.0
 31
0.0
  0
LINE
  5
E5
330
E1
100
AcDbEntity
  8
0
100
AcDbLine
 10
500.5
 20
0.0
 30
0.0
 11
500.5
 21
-85.0
 31
0.0
  0
INSERT
  5
E6
330
E1
100
AcDbEntity
  8
DIMENSION
100
AcDbBlockReference
  2
_CLOSEDFILLED
 10
0.0
 20
-85.0
 30
0.0
 41
0.25
 42
0.25
 50
180.0
  0
INSERT
  5
E8
330
E1
100
AcDbEntity
  8
DIMENSION
100
AcDbBlockReference
  2
_CLOSEDFILLED
 10
500.5
 20
-85.0
 30
0.0
 41
0.25
 42
0.25
  0
LINE
  5
EA
330
E1
100
AcDbEntity
  8
0
100
AcDbLine
 10
0.25
 20
-85.0
 30
0.0
 11
247.75
 21
-85.0
 31
0.0
  0
LINE
  5
EB
330
E1
100
AcDbEntity
  8
0
100
AcDbLine
 10
252.75
 20
-85.0
 30
0.0
 11
500.25
 21
-85.0
 31
0.0
  0
MTEXT
  5
EC
330
E1
100
AcDbEntity
  8
DIMENSION
100
AcDbMText
 10
250.25
 20
-85.0
 30
0.0
 40
1.0
 71
5
  1
500,5
  0
POINT
  5
ED
330
E1
100
AcDbEntity
  8
Defpoints
100
AcDbPoint
 10
0.0
 20
-85.0
 30
0.0
  0
POINT
  5
EE
330
E1
100
AcDbEntity
  8
Defpoints
100
AcDbPoint
 10
0.0
 20
0.0
 30
0.0
  0
POINT
  5
EF
330
E1
100
AcDbEntity
  8
Defpoints
100
AcDbPoint
 10
500.5
 20
0.0
 30
0.0
  0
ENDBLK
  5
E3
330
E1
100
AcDbEntity
  8
0
100
AcDbBlockEnd
  0
BLOCK
  5
F2
330
F1
100
AcDbEntity
  8
0
100
AcDbBlockBegin
  2
*D7
 70
1
 10
0.0
 20
0.0
 30
0.0
  3
*D7
  1

  0
LINE
  5
F4
330
F1
100
AcDbEntity
  8
0
100
AcDbLine
 10
0.0
 20
0.0
 30
0.0
 11
0.0
 21
-97.0
 31
0.0
  0
LINE
  5
F5
330
F1
100
AcDbEntity
  8
0
100
AcDbLine
 10
704.5
 20
0.0
 30
0.0
 11
704.5
 21
-97.0
 31
0.0
  0
INSERT
  5
F6
330
F1
100
AcDbEntity
  8
DIMENSION
100
AcDbBlockReference
  2
_CLOSEDFILLED
 10
0.0
 20
-97.0
 30
0.0
 41
0.25
 42
0.25
 50
180.0
  0
INSERT
  5
F8
330
F1
100
AcDbEntity
  8
DIMENSION
100
AcDbBlockReference
  2
_CLOSEDFILLED
 10
704.5
 20
-97.0
 30
0.0
 41
0.25
 42
0.25
  0
LINE
  5
FA
330
F1
100
AcDbEntity
  8
0
100
AcDbLine
 10
0.25
 20
-97.0
 30
0.0
 11
349.75
 21
-97.0
 31
0.0
  0
LINE
  5
FB
330
F1
100
AcDbEntity
  8
0
100
AcDbLine
 10
354.75
 20
-97.0
 30
0.0
 11
704.25
 21
-97.0
 31
0.0
  0
MTEXT
  5
FC
330
F1
100
AcDbEntity
  8
DIMENSION
100
AcDbMText
 10
352.25
 20
-97.0
 30
0.0
 40
1.0
 71
5
  1
704,5
  0
POINT
  5
FD
330
F1
100
AcDbEntity
  8
Defpoints
100
AcDbPoint
 10
0.0
 20
-97.0
 30
0.0
  0
POINT
  5
FE
330
F1
100
AcDbEntity
  8
Defpoints
100
AcDbPoint
 10
0.0
 20
0.0
 30
0.0
  0
POINT
  5
FF
330
F1
100
AcDbEntity
  8
Defpoints
100
AcDbPoint
 10
704.5
 20
0.0
 30
0.0
  0
ENDBLK
  5
F3
330
F1
100
AcDbEntity
  8
0
100
AcDbBlockEnd
  0
BLOCK
  5
102
330
101
100
AcDbEntity
  8
0
100
AcDbBlockBegin
  2
*D8
 70
1
 10
0.0
 20
0.0
 30
0.0
  3
*D8
  1

  0
LINE
  5
104
330
101
100
AcDbEntity
  8
0
100
AcDbLine
 10
0.0
 20
0.0
 30
0.0
 11
0.0
 21
-109.0
 31
0.0
  0
LINE
  5
105
330
101
100
AcDbEntity
  8
0
100
AcDbLine
 10
754.5
 20
0.0
 30
0.0
 11
754.5
 21
-109.0
 31
0.0
  0
INSERT
  5
106
330
101
100
AcDbEntity
  8
DIMENSION
100
AcDbBlockReference
  2
_CLOSEDFILLED
 10
0.0
 20
-109.0
 30
0.0
 41
0.25
 42
0.25
 50
180.0
  0
INSERT
  5
108
330
101
100
AcDbEntity
  8
DIMENSION
100
AcDbBlockReference
  2
_CLOSEDFILLED
 10
754.5
 20
-109.0
 30
0.0
 41
0.25
 42
0.25
  0
LINE
  5
10A
330
101
100
AcDbEntity
  8
0
100
AcDbLine
 10
0.25
 20
-109.0
 30
0.0
 11
374.75
 21
-109.0
 31
0.0
  0
LINE
  5
10B
330
101
100
AcDbEntity
  8
0
100
AcDbLine
 10
379.75
 20
-109.0
 30
0.0
 11
754.25
 21
-109.0
 31
0.0
  0
MTEXT
  5
10C
330
101
100
AcDbEntity
  8
DIMENSION
100
AcDbMText
 10
377.25
 20
-109.0
 30
0.0
 40
1.0
 71
5
  1
754,5
  0
POINT
  5
10D
330
101
100
AcDbEntity
  8
Defpoints
100
AcDbPoint
 10
0.0
 20
-109.0
 30
0.0
  0
POINT
  5
10E
330
101
100
AcDbEntity
  8
Defpoints
100
AcDbPoint
 10
0.0
 20
0.0
 30
0.0
  0
POINT
  5
10F
330
101
100
AcDbEntity
  8
Defpoints
100
AcDbPoint
 10
754.5
 20
0.0
 30
0.0
  0
ENDBLK
  5
103
330
101
100
AcDbEntity
  8
0
100
AcDbBlockEnd
  0
BLOCK
  5
112
330
111
100
AcDbEntity
  8
0
100
AcDbBlockBegin
  2
*D9
 70
1
 10
0.0
 20
0.0
 30
0.0
  3
*D9
  1

  0
LINE
  5
114
330
111
100
AcDbEntity
  8
0
100
AcDbLine
 10
0.0
 20
0.0
 30
0.0
 11
0.0
 21
-121.0
 31
0.0
  0
LINE
  5
115
330
111
100
AcDbEntity
  8
0
100
AcDbLine
 10
797.0
 20
0.0
 30
0.0
 11
797.0
 21
-121.0
 31
0.0
  0
INSERT
  5
116
330
111
100
AcDbEntity
  8
DIMENSION
100
AcDbBlockReference
  2
_CLOSEDFILLED
 10
0.0
 20
-121.0
 30
0.0
 41
0.25
 42
0.25
 50
180.0
  0
INSERT
  5
118
330
111
100
AcDbEntity
  8
DIMENSION
100
AcDbBlockReference
  2
_CLOSEDFILLED
 10
797.0
 20
-121.0
 30
0.0
 41
0.25
 42
0.25
  0
LINE
  5
11A
330
111
100
AcDbEntity
  8
0
100
AcDbLine
 10
0.25
 20
-121.0
 30
0.0
 11
397.0
 21
-121.0
 31
0.0
  0
LINE
  5
11B
330
111
100
AcDbEntity
  8
0
100
AcDbLine
 10
400.0
 20
-121.0
 30
0.0
 11
796.75
 21
-121.0
 31
0.0
  0
MTEXT
  5
11C
330
111
100
AcDbEntity
  8
DIMENSION
100
AcDbMText
 10
398.5
 20
-121.0
 30
0.0
 40
1.0
 71
5
  1
797
  0
POINT
  5
11D
330
111
100
AcDbEntity
  8
Defpoints
100
AcDbPoint
 10
0.0
 20
-121.0
 30
0.0
  0
POINT
  5
11E
330
111
100
AcDbEntity
  8
Defpoints
100
AcDbPoint
 10
0.0
 20
0.0
 30
0.0
  0
POINT
  5
11F
330
111
100
AcDbEntity
  8
Defpoints
100
AcDbPoint
 10
797.0
 20
0.0
 30
0.0
  0
ENDBLK
  5
113
330
111
100
AcDbEntity
  8
0
100
AcDbBlockEnd
  0
BLOCK
  5
122
330
121
100
AcDbEntity
  8
0
100
AcDbBlockBegin
  2
*D10
 70
1
 10
0.0
 20
0.0
 30
0.0
  3
*D10
  1

  0
LINE
  5
124
330
121
100
AcDbEntity
  8
0
100
AcDbLine
 10
797.0
 20
233.0
 30
0.0
 11
797.0
 21
258.0
 31
0.0
  0
LINE
  5
125
330
121
100
AcDbEntity
  8
0
100
AcDbLine
 10
797.0
 20
233.0
 30
0.0
 11
797.0
 21
258.0
 31
0.0
  0
INSERT
  5
126
330
121
100
AcDbEntity
  8
DIMENSION
100
AcDbBlockReference
  2
_CLOSEDFILLED
 10
797.0
 20
258.0
 30
0.0
 41
0.25
 42
0.25
  0
INSERT
  5
128
330
121
100
AcDbEntity
  8
DIMENSION
100
AcDbBlockReference
  2
_CLOSEDFILLED
 10
797.0
 20
258.0
 30
0.0
 41
0.25
 42
0.25
 50
180.0
  0
LINE
  5
12A
330
121
100
AcDbEntity
  8
0
100
AcDbLine
 10
796.75
 20
258.0
 30
0.0
 11
796.5
 21
258.0
 31
0.0
  0
LINE
  5
12B
330
121
100
AcDbEntity
  8
0
100
AcDbLine
 10
797.25
 20
258.0
 30
0.0
 11
797.5
 21
258.0
 31
0.0
  0
LINE
  5
12C
330
121
100
AcDbEntity
  8
0
100
AcDbLine
 10
797.0
 20
258.0
 30
0.0
 11
797.0
 21
258.0
 31
0.0
  0
MTEXT
  5
12D
330
121
100
AcDbEntity
  8
DIMENSION
100
AcDbMText
 10
797.0
 20
259.125
 30
0.0
 40
1.0
 71
5
  1
0
  0
POINT
  5
12E
330
121
100
AcDbEntity
  8
Defpoints
100
AcDbPoint
 10
797.0
 20
258.0
 30
0.0
  0
POINT
  5
12F
330
121
100
AcDbEntity
  8
Defpoints
100
AcDbPoint
 10
797.0
 20
233.0
 30
0.0
  0
POINT
  5
130
330
121
100
AcDbEntity
  8
Defpoints
100
AcDbPoint
 10
797.0
 20
233.0
 30
0.0
  0
ENDBLK
  5
123
330
121
100
AcDbEntity
  8
0
100
AcDbBlockEnd
  0
BLOCK
  5
133
330
132
100
AcDbEntity
  8
0
100
AcDbBlockBegin
  2
*D11
 70
1
 10
0.0
 20
0.0
 30
0.0
  3
*D11
  1

  0
LINE
  5
135
330
132
100
AcDbEntity
  8
0
100
AcDbLine
 10
797.0
 20
233.0
 30
0.0
 11
797.0
 21
270.0
 31
0.0
  0
LINE
  5
136
330
132
100
AcDbEntity
  8
0
100
AcDbLine
 10
754.5
 20
233.0
 30
0.0
 11
754.5
 21
270.0
 31
0.0
  0
INSERT
  5
137
330
132
100
AcDbEntity
  8
DIMENSION
100
AcDbBlockReference
  2
_CLOSEDFILLED
 10
797.0
 20
270.0
 30
0.0
 41
0.25
 42
0.25
 50
180.0
  0
INSERT
  5
139
330
132
100
AcDbEntity
  8
DIMENSION
100
AcDbBlockReference
  2
_CLOSEDFILLED
 10
754.5
 20
270.0
 30
0.0
 41
0.25
 42
0.25
  0
LINE
  5
13B
330
132
100
AcDbEntity
  8
0
100
AcDbLine
 10
797.25
 20
270.0
 30
0.0
 11
777.75
 21
270.0
 31
0.0
  0
LINE
  5
13C
330
132
100
AcDbEntity
  8
0
100
AcDbLine
 10
773.75
 20
270.0
 30
0.0
 11
754.25
 21
270.0
 31
0.0
  0
MTEXT
  5
13D
330
132
100
AcDbEntity
  8
DIMENSION
100
AcDbMText
 10
775.75
 20
270.0
 30
0.0
 40
1.0
 71
5
  1
42,5
  0
POINT
  5
13E
330
132
100
AcDbEntity
  8
Defpoints
100
AcDbPoint
 10
797.0
 20
270.0
 30
0.0
  0
POINT
  5
13F
330
132
100
AcDbEntity
  8
Defpoints
100
AcDbPoint
 10
797.0
 20
233.0
 30
0.0
  0
POINT
  5
140
330
132
100
AcDbEntity
  8
Defpoints
100
AcDbPoint
 10
754.5
 20
233.0
 30
0.0
  0
ENDBLK
  5
134
330
132
100
AcDbEntity
  8
0
100
AcDbBlockEnd
  0
BLOCK
  5
143
330
142
100
AcDbEntity
  8
0
100
AcDbBlockBegin
  2
*D12
 70
1
 10
0.0
 20
0.0
 30
0.0
  3
*D12
  1

  0
LINE
  5
145
330
142
100
AcDbEntity
  8
0
100
AcDbLine
 10
797.0
 20
233.0
 30
0.0
 11
797.0
 21
282.0
 31
0.0
  0
LINE
  5
146
330
142
100
AcDbEntity
  8
0
100
AcDbLine
 10
704.5
 20
233.0
 30
0.0
 11
704.5
 21
282.0
 31
0.0
  0
INSERT
  5
147
330
142
100
AcDbEntity
  8
DIMENSION
100
AcDbBlockReference
  2
_CLOSEDFILLED
 10
797.0
 20
282.0
 30
0.0
 41
0.25
 42
0.25
 50
180.0
  0
INSERT
  5
149
330
142
100
AcDbEntity
  8
DIMENSION
100
AcDbBlockReference
  2
_CLOSEDFILLED
 10
704.5
 20
282.0
 30
0.0
 41
0.25
 42
0.25
  0
LINE
  5
14B
330
142
100
AcDbEntity
  8
0
100
AcDbLine
 10
797.25
 20
282.0
 30
0.0
 11
752.75
 21
282.0
 31
0.0
  0
LINE
  5
14C
330
142
100
AcDbEntity
  8
0
100
AcDbLine
 10
748.75
 20
282.0
 30
0.0
 11
704.25
 21
282.0
 31
0.0
  0
MTEXT
  5
14D
330
142
100
AcDbEntity
  8
DIMENSION
100
AcDbMText
 10
750.75
 20
282.0
 30
0.0
 40
1.0
 71
5
  1
92,5
  0
POINT
  5
14E
330
142
100
AcDbEntity
  8
Defpoints
100
AcDbPoint
 10
797.0
 20
282.0
 30
0.0
  0
POINT
  5
14F
330
142
100
AcDbEntity
  8
Defpoints
100
AcDbPoint
 10
797.0
 20
233.0
 30
0.0
  0
POINT
  5
150
330
142
100
AcDbEntity
  8
Defpoints
100
AcDbPoint
 10
704.5
 20
233.0
 30
0.0
  0
ENDBLK
  5
144
330
142
100
AcDbEntity
  8
0
100
AcDbBlockEnd
  0
BLOCK
  5
153
330
152
100
AcDbEntity
  8
0
100
AcDbBlockBegin
  2
*D13
 70
1
 10
0.0
 20
0.0
 30
0.0
  3
*D13
  1

  0
LINE
  5
155
330
152
100
AcDbEntity
  8
0
100
AcDbLine
 10
797.0
 20
233.0
 30
0.0
 11
797.0
 21
294.0
 31
0.0
  0
LINE
  5
156
330
152
100
AcDbEntity
  8
0
100
AcDbLine
 10
500.5
 20
233.0
 30
0.0
 11
500.5
 21
294.0
 31
0.0
  0
INSERT
  5
157
330
152
100
AcDbEntity
  8
DIMENSION
100
AcDbBlockReference
  2
_CLOSEDFILLED
 10
797.0
 20
294.0
 30
0.0
 41
0.25
 42
0.25
 50
180.0
  0
INSERT
  5
159
330
152
100
AcDbEntity
  8
DIMENSION
100
AcDbBlockReference
  2
_CLOSEDFILLED
 10
500.5
 20
294.0
 30
0.0
 41
0.25
 42
0.25
  0
LINE
  5
15B
330
152
100
AcDbEntity
  8
0
100
AcDbLine
 10
797.25
 20
294.0
 30
0.0
 11
651.25
 21
294.0
 31
0.0
  0
LINE
  5
15C
330
152
100
AcDbEntity
  8
0
100
AcDbLine
 10
646.25
 20
294.0
 30
0.0
 11
500.25
 21
294.0
 31
0.0
  0
MTEXT
  5
15D
330
152
100
AcDbEntity
  8
DIMENSION
100
AcDbMText
 10
648.75
 20
294.0
 30
0.0
 40
1.0
 71
5
  1
296,5
  0
POINT
  5
15E
330
152
100
AcDbEntity
  8
Defpoints
100
AcDbPoint
 10
797.0
 20
294.0
 30
0.0
  0
POINT
  5
15F
330
152
100
AcDbEntity
  8
Defpoints
100
AcDbPoint
 10
797.0
 20
233.0
 30
0.0
  0
POINT
  5
160
330
152
100
AcDbEntity
  8
Defpoints
100
AcDbPoint
 10
500.5
 20
233.0
 30
0.0
  0
ENDBLK
  5
154
330
152
100
AcDbEntity
  8
0
100
AcDbBlockEnd
  0
BLOCK
  5
163
330
162
100
AcDbEntity
  8
0
100
AcDbBlockBegin
  2
*D14
 70
1
 10
0.0
 20
0.0
 30
0.0
  3
*D14
  1

  0
LINE
  5
165
330
162
100
AcDbEntity
  8
0
100
AcDbLine
 10
797.0
 20
233.0
 30
0.0
 11
797.0
 21
306.0
 31
0.0
  0
LINE
  5
166
330
162
100
AcDbEntity
  8
0
100
AcDbLine
 10
478.5
 20
233.0
 30
0.0
 11
478.5
 21
306.0
 31
0.0
  0
INSERT
  5
167
330
162
100
AcDbEntity
  8
DIMENSION
100
AcDbBlockReference
  2
_CLOSEDFILLED
 10
797.0
 20
306.0
 30
0.0
 41
0.25
 42
0.25
 50
180.0
  0
INSERT
  5
169
330
162
100
AcDbEntity
  8
DIMENSION
100
AcDbBlockReference
  2
_CLOSEDFILLED
 10
478.5
 20
306.0
 30
0.0
 41
0.25
 42
0.25
  0
LINE
  5
16B
330
162
100
AcDbEntity
  8
0
100
AcDbLine
 10
797.25
 20
306.0
 30
0.0
 11
640.25
 21
306.0
 31
0.0
  0
LINE
  5
16C
330
162
100
AcDbEntity
  8
0
100
AcDbLine
 10
635.25
 20
306.0
 30
0.0
 11
478.25
 21
306.0
 31
0.0
  0
MTEXT
  5
16D
330
162
100
AcDbEntity
  8
DIMENSION
100
AcDbMText
 10
637.75
 20
306.0
 30
0.0
 40
1.0
 71
5
  1
318,5
  0
POINT
  5
16E
330
162
100
AcDbEntity
  8
Defpoints
100
AcDbPoint
 10
797.0
 20
306.0
 30
0.0
  0
POINT
  5
16F
330
162
100
AcDbEntity
  8
Defpoints
100
AcDbPoint
 10
797.0
 20
233.0
 30
0.0
  0
POINT
  5
170
330
162
100
AcDbEntity
  8
Defpoints
100
AcDbPoint
 10
478.5
 20
233.0
 30
0.0
  0
ENDBLK
  5
164
330
162
100
AcDbEntity
  8
0
100
AcDbBlockEnd
  0
BLOCK
  5
173
330
172
100
AcDbEntity
  8
0
100
AcDbBlockBegin
  2
*D15
 70
1
 10
0.0
 20
0.0
 30
0.0
  3
*D15
  1

  0
LINE
  5
175
330
172
100
AcDbEntity
  8
0
100
AcDbLine
 10
797.0
 20
233.0
 30
0.0
 11
797.0
 21
318.0
 31
0.0
  0
LINE
  5
176
330
172
100
AcDbEntity
  8
0
100
AcDbLine
 10
318.5
 20
233.0
 30
0.0
 11
318.5
 21
318.0
 31
0.0
  0
INSERT
  5
177
330
172
100
AcDbEntity
  8
DIMENSION
100
AcDbBlockReference
  2
_CLOSEDFILLED
 10
797.0
 20
318.0
 30
0.0
 41
0.25
 42
0.25
 50
180.0
  0
INSERT
  5
179
330
172
100
AcDbEntity
  8
DIMENSION
100
AcDbBlockReference
  2
_CLOSEDFILLED
 10
318.5
 20
318.0
 30
0.0
 41
0.25
 42
0.25
  0
LINE
  5
17B
330
172
100
AcDbEntity
  8
0
100
AcDbLine
 10
797.25
 20
318.0
 30
0.0
 11
560.25
 21
318.0
 31
0.0
  0
LINE
  5
17C
330
172
100
AcDbEntity
  8
0
100
AcDbLine
 10
555.25
 20
318.0
 30
0.0
 11
318.25
 21
318.0
 31
0.0
  0
MTEXT
  5
17D
330
172
100
AcDbEntity
  8
DIMENSION
100
AcDbMText
 10
557.75
 20
318.0
 30
0.0
 40
1.0
 71
5
  1
478,5
  0
POINT
  5
17E
330
172
100
AcDbEntity
  8
Defpoints
100
AcDbPoint
 10
797.0
 20
318.0
 30
0.0
  0
POINT
  5
17F
330
172
100
AcDbEntity
  8
Defpoints
100
AcDbPoint
 10
797.0
 20
233.0
 30
0.0
  0
POINT
  5
180
330
172
100
AcDbEntity
  8
Defpoints
100
AcDbPoint
 10
318.5
 20
233.0
 30
0.0
  0
ENDBLK
  5
174
330
172
100
AcDbEntity
  8
0
100
AcDbBlockEnd
  0
BLOCK
  5
183
330
182
100
AcDbEntity
  8
0
100
AcDbBlockBegin
  2
*D16
 70
1
 10
0.0
 20
0.0
 30
0.0
  3
*D16
  1

  0
LINE
  5
185
330
182
100
AcDbEntity
  8
0
100
AcDbLine
 10
797.0
 20
233.0
 30
0.0
 11
797.0
 21
330.0
 31
0.0
  0
LINE
  5
186
330
182
100
AcDbEntity
  8
0
100
AcDbLine
 10
296.5
 20
233.0
 30
0.0
 11
296.5
 21
330.0
 31
0.0
  0
INSERT
  5
187
330
182
100
AcDbEntity
  8
DIMENSION
100
AcDbBlockReference
  2
_CLOSEDFILLED
 10
797.0
 20
330.0
 30
0.0
 41
0.25
 42
0.25
 50
180.0
  0
INSERT
  5
189
330
182
100
AcDbEntity
  8
DIMENSION
100
AcDbBlockReference
  2
_CLOSEDFILLED
 10
296.5
 20
330.0
 30
0.0
 41
0.25
 42
0.25
  0
LINE
  5
18B
330
182
100
AcDbEntity
  8
0
100
AcDbLine
 10
797.25
 20
330.0
 30
0.0
 11
549.25
 21
330.0
 31
0.0
  0
LINE
  5
18C
330
182
100
AcDbEntity
  8
0
100
AcDbLine
 10
544.25
 20
330.0
 30
0.0
 11
296.25
 21
330.0
 31
0.0
  0
MTEXT
  5
18D
330
182
100
AcDbEntity
  8
DIMENSION
100
AcDbMText
 10
546.75
 20
330.0
 30
0.0
 40
1.0
 71
5
  1
500,5
  0
POINT
  5
18E
330
182
100
AcDbEntity
  8
Defpoints
100
AcDbPoint
 10
797.0
 20
330.0
 30
0.0
  0
POINT
  5
18F
330
182
100
AcDbEntity
  8
Defpoints
100
AcDbPoint
 10
797.0
 20
233.0
 30
0.0
  0
POINT
  5
190
330
182
100
AcDbEntity
  8
Defpoints
100
AcDbPoint
 10
296.5
 20
233.0
 30
0.0
  0
ENDBLK
  5
184
330
182
100
AcDbEntity
  8
0
100
AcDbBlockEnd
  0
BLOCK
  5
193
330
192
100
AcDbEntity
  8
0
100
AcDbBlockBegin
  2
*D17
 70
1
 10
0.0
 20
0.0
 30
0.0
  3
*D17
  1

  0
LINE
  5
195
330
192
100
AcDbEntity
  8
0
100
AcDbLine
 10
797.0
 20
233.0
 30
0.0
 11
797.0
 21
342.0
 31
0.0
  0
LINE
  5
196
330
192
100
AcDbEntity
  8
0
100
AcDbLine
 10
92.5
 20
233.0
 30
0.0
 11
92.5
 21
342.0
 31
0.0
  0
INSERT
  5
197
330
192
100
AcDbEntity
  8
DIMENSION
100
AcDbBlockReference
  2
_CLOSEDFILLED
 10
797.0
 20
342.0
 30
0.0
 41
0.25
 42
0.25
 50
180.0
  0
INSERT
  5
199
330
192
100
AcDbEntity
  8
DIMENSION
100
AcDbBlockReference
  2
_CLOSEDFILLED
 10
92.5
 20
342.0
 30
0.0
 41
0.25
 42
0.25
  0
LINE
  5
19B
330
192
100
AcDbEntity
  8
0
100
AcDbLine
 10
797.25
 20
342.0
 30
0.0
 11
447.25
 21
342.0
 31
0.0
  0
LINE
  5
19C
330
192
100
AcDbEntity
  8
0
100
AcDbLine
 10
442.25000000000006
 20
342.0
 30
0.0
 11
92.25
 21
342.0
 31
0.0
  0
MTEXT
  5
19D
330
192
100
AcDbEntity
  8
DIMENSION
100
AcDbMText
 10
444.75
 20
342.0
 30
0.0
 40
1.0
 71
5
  1
704,5
  0
POINT
  5
19E
330
192
100
AcDbEntity
  8
Defpoints
100
AcDbPoint
 10
797.0
 20
342.0
 30
0.0
  0
POINT
  5
19F
330
192
100
AcDbEntity
  8
Defpoints
100
AcDbPoint
 10
797.0
 20
233.0
 30
0.0
  0
POINT
  5
1A0
330
192
100
AcDbEntity
  8
Defpoints
100
AcDbPoint
 10
92.5
 20
233.0
 30
0.0
  0
ENDBLK
  5
194
330
192
100
AcDbEntity
  8
0
100
AcDbBlockEnd
  0
BLOCK
  5
1A3
330
1A2
100
AcDbEntity
  8
0
100
AcDbBlockBegin
  2
*D18
 70
1
 10
0.0
 20
0.0
 30
0.0
  3
*D18
  1

  0
LINE
  5
1A5
330
1A2
100
AcDbEntity
  8
0
100
AcDbLine
 10
797.0
 20
233.0
 30
0.0
 11
797.0
 21
354.0
 31
0.0
  0
LINE
  5
1A6
330
1A2
100
AcDbEntity
  8
0
100
AcDbLine
 10
42.5
 20
233.0
 30
0.0
 11
42.5
 21
354.0
 31
0.0
  0
INSERT
  5
1A7
330
1A2
100
AcDbEntity
  8
DIMENSION
100
AcDbBlockReference
  2
_CLOSEDFILLED
 10
797.0
 20
354.0
 30
0.0
 41
0.25
 42
0.25
 50
180.0
  0
INSERT
  5
1A9
330
1A2
100
AcDbEntity
  8
DIMENSION
100
AcDbBlockReference
  2
_CLOSEDFILLED
 10
42.5
 20
354.0
 30
0.0
 41
0.25
 42
0.25
  0
LINE
  5
1AB
330
1A2
100
AcDbEntity
  8
0
100
AcDbLine
 10
797.25
 20
354.0
 30
0.0
 11
422.25
 21
354.0
 31
0.0
  0
LINE
  5
1AC
330
1A2
100
AcDbEntity
  8
0
100
AcDbLine
 10
417.25
 20
354.0
 30
0.0
 11
42.25
 21
354.0
 31
0.0
  0
MTEXT
  5
1AD
330
1A2
100
AcDbEntity
  8
DIMENSION
100
AcDbMText
 10
419.75
 20
354.0
 30
0.0
 40
1.0
 71
5
  1
754,5
  0
POINT
  5
1AE
330
1A2
100
AcDbEntity
  8
Defpoints
100
AcDbPoint
 10
797.0
 20
354.0
 30
0.0
  0
POINT
  5
1AF
330
1A2
100
AcDbEntity
  8
Defpoints
100
AcDbPoint
 10
797.0
 20
233.0
 30
0.0
  0
POINT
  5
1B0
330
1A2
100
AcDbEntity
  8
Defpoints
100
AcDbPoint
 10
42.5
 20
233.0
 30
0.0
  0
ENDBLK
  5
1A4
330
1A2
100
AcDbEntity
  8
0
100
AcDbBlockEnd
  0
BLOCK
  5
1B3
330
1B2
100
AcDbEntity
  8
0
100
AcDbBlockBegin
  2
*D19
 70
1
 10
0.0
 20
0.0
 30
0.0
  3
*D19
  1

  0
LINE
  5
1B5
330
1B2
100
AcDbEntity
  8
0
100
AcDbLine
 10
0.0
 20
0.0
 30
0.0
 11
-25.0
 21
0.0
 31
0.0
  0
LINE
  5
1B6
330
1B2
100
AcDbEntity
  8
0
100
AcDbLine
 10
0.0
 20
6.0
 30
0.0
 11
-25.0
 21
6.0
 31
0.0
  0
INSERT
  5
1B7
330
1B2
100
AcDbEntity
  8
DIMENSION
100
AcDbBlockReference
  2
_CLOSEDFILLED
 10
-25.0
 20
0.0
 30
0.0
 41
0.25
 42
0.25
 50
270.0
  0
INSERT
  5
1B9
330
1B2
100
AcDbEntity
  8
DIMENSION
100
AcDbBlockReference
  2
_CLOSEDFILLED
 10
-25.0
 20
6.0
 30
0.0
 41
0.25
 42
0.25
 50
90.0
  0
LINE
  5
1BB
330
1B2
100
AcDbEntity
  8
0
100
AcDbLine
 10
-25.0
 20
0.25
 30
0.0
 11
-25.0
 21
2.5
 31
0.0
  0
LINE
  5
1BC
330
1B2
100
AcDbEntity
  8
0
100
AcDbLine
 10
-25.0
 20
3.5
 30
0.0
 11
-25.0
 21
5.75
 31
0.0
  0
MTEXT
  5
1BD
330
1B2
100
AcDbEntity
  8
DIMENSION
100
AcDbMText
 10
-25.0
 20
3.0
 30
0.0
 40
1.0
 71
5
  1
6
 50
90.0
  0
POINT
  5
1BE
330
1B2
100
AcDbEntity
  8
Defpoints
100
AcDbPoint
 10
-25.0
 20
0.0
 30
0.0
  0
POINT
  5
1BF
330
1B2
100
AcDbEntity
  8
Defpoints
100
AcDbPoint
 10
0.0
 20
0.0
 30
0.0
  0
POINT
  5
1C0
330
1B2
100
AcDbEntity
  8
Defpoints
100
AcDbPoint
 10
0.0
 20
6.0
 30
0.0
  0
ENDBLK
  5
1B4
330
1B2
100
AcDbEntity
  8
0
100
AcDbBlockEnd
  0
BLOCK
  5
1C3
330
1C2
100
AcDbEntity
  8
0
100
AcDbBlockBegin
  2
*D20
 70
1
 10
0.0
 20
0.0
 30
0.0
  3
*D20
  1

  0
LINE
  5
1C5
330
1C2
100
AcDbEntity
  8
0
100
AcDbLine
 10
0.0
 20
0.0
 30
0.0
 11
-37.0
 21
0.0
 31
0.0
  0
LINE
  5
1C6
330
1C2
100
AcDbEntity
  8
0
100
AcDbLine
 10
0.0
 20
50.0
 30
0.0
 11
-37.0
 21
50.0
 31
0.0
  0
INSERT
  5
1C7
330
1C2
100
AcDbEntity
  8
DIMENSION
100
AcDbBlockReference
  2
_CLOSEDFILLED
 10
-37.0
 20
0.0
 30
0.0
 41
0.25
 42
0.25
 50
270.0
  0
INSERT
  5
1C9
330
1C2
100
AcDbEntity
  8
DIMENSION
100
AcDbBlockReference
  2
_CLOSEDFILLED
 10
-37.0
 20
50.0
 30
0.0
 41
0.25
 42
0.25
 50
90.0
  0
LINE
  5
1CB
330
1C2
100
AcDbEntity
  8
0
100
AcDbLine
 10
-37.0
 20
0.25
 30
0.0
 11
-37.0
 21
24.0
 31
0.0
  0
LINE
  5
1CC
330
1C2
100
AcDbEntity
  8
0
100
AcDbLine
 10
-37.0
 20
26.0
 30
0.0
 11
-37.0
 21
49.75
 31
0.0
  0
MTEXT
  5
1CD
330
1C2
100
AcDbEntity
  8
DIMENSION
100
AcDbMText
 10
-37.0
 20
25.0
 30
0.0
 40
1.0
 71
5
  1
50
 50
90.0
  0
POINT
  5
1CE
330
1C2
100
AcDbEntity
  8
Defpoints
100
AcDbPoint
 10
-37.0
 20
0.0
 30
0.0
  0
POINT
  5
1CF
330
1C2
100
AcDbEntity
  8
Defpoints
100
AcDbPoint
 10
0.0
 20
0.0
 30
0.0
  0
POINT
  5
1D0
330
1C2
100
AcDbEntity
  8
Defpoints
100
AcDbPoint
 10
0.0
 20
50.0
 30
0.0
  0
ENDBLK
  5
1C4
330
1C2
100
AcDbEntity
  8
0
100
AcDbBlockEnd
  0
BLOCK
  5
1D3
330
1D2
100
AcDbEntity
  8
0
100
AcDbBlockBegin
  2
*D21
 70
1
 10
0.0
 20
0.0
 30
0.0
  3
*D21
  1

  0
LINE
  5
1D5
330
1D2
100
AcDbEntity
  8
0
100
AcDbLine
 10
0.0
 20
0.0
 30
0.0
 11
-49.0
 21
0.0
 31
0.0
  0
LINE
  5
1D6
330
1D2
100
AcDbEntity
  8
0
100
AcDbLine
 10
0.0
 20
129.0
 30
0.0
 11
-49.0
 21
129.0
 31
0.0
  0
INSERT
  5
1D7
330
1D2
100
AcDbEntity
  8
DIMENSION
100
AcDbBlockReference
  2
_CLOSEDFILLED
 10
-49.0
 20
0.0
 30
0.0
 41
0.25
 42
0.25
 50
270.0
  0
INSERT
  5
1D9
330
1D2
100
AcDbEntity
  8
DIMENSION
100
AcDbBlockReference
  2
_CLOSEDFILLED
 10
-49.0
 20
129.0
 30
0.0
 41
0.25
 42
0.25
 50
90.0
  0
LINE
  5
1DB
330
1D2
100
AcDbEntity
  8
0
100
AcDbLine
 10
-49.0
 20
0.25
 30
0.0
 11
-49.0
 21
63.0
 31
0.0
  0
LINE
  5
1DC
330
1D2
100
AcDbEntity
  8
0
100
AcDbLine
 10
-49.0
 20
66.0
 30
0.0
 11
-49.0
 21
128.75
 31
0.0
  0
MTEXT
  5
1DD
330
1D2
100
AcDbEntity
  8
DIMENSION
100
AcDbMText
 10
-49.0
 20
64.5
 30
0.0
 40
1.0
 71
5
  1
129
 50
90.0
  0
POINT
  5
1DE
330
1D2
100
AcDbEntity
  8
Defpoints
100
AcDbPoint
 10
-49.0
 20
0.0
 30
0.0
  0
POINT
  5
1DF
330
1D2
100
AcDbEntity
  8
Defpoints
100
AcDbPoint
 10
0.0
 20
0.0
 30
0.0
  0
POINT
  5
1E0
330
1D2
100
AcDbEntity
  8
Defpoints
100
AcDbPoint
 10
0.0
 20
129.0
 30
0.0
  0
ENDBLK
  5
1D4
330
1D2
100
AcDbEntity
  8
0
100
AcDbBlockEnd
  0
BLOCK
  5
1E3
330
1E2
100
AcDbEntity
  8
0
100
AcDbBlockBegin
  2
*D22
 70
1
 10
0.0
 20
0.0
 30
0.0
  3
*D22
  1

  0
LINE
  5
1E5
330
1E2
100
AcDbEntity
  8
0
100
AcDbLine
 10
0.0
 20
0.0
 30
0.0
 11
-61.0
 21
0.0
 31
0.0
  0
LINE
  5
1E6
330
1E2
100
AcDbEntity
  8
0
100
AcDbLine
 10
0.0
 20
183.0
 30
0.0
 11
-61.0
 21
183.0
 31
0.0
  0
INSERT
  5
1E7
330
1E2
100
AcDbEntity
  8
DIMENSION
100
AcDbBlockReference
  2
_CLOSEDFILLED
 10
-61.0
 20
0.0
 30
0.0
 41
0.25
 42
0.25
 50
270.0
  0
INSERT
  5
1E9
330
1E2
100
AcDbEntity
  8
DIMENSION
100
AcDbBlockReference
  2
_CLOSEDFILLED
 10
-61.0
 20
183.0
 30
0.0
 41
0.25
 42
0.25
 50
90.0
  0
LINE
  5
1EB
330
1E2
100
AcDbEntity
  8
0
100
AcDbLine
 10
-61.0
 20
0.25
 30
0.0
 11
-61.0
 21
90.0
 31
0.0
  0
LINE
  5
1EC
330
1E2
100
AcDbEntity
  8
0
100
AcDbLine
 10
-61.0
 20
93.0
 30
0.0
 11
-61.0
 21
182.75
 31
0.0
  0
MTEXT
  5
1ED
330
1E2
100
AcDbEntity
  8
DIMENSION
100
AcDbMText
 10
-61.0
 20
91.5
 30
0.0
 40
1.0
 71
5
  1
183
 50
90.0
  0
POINT
  5
1EE
330
1E2
100
AcDbEntity
  8
Defpoints
100
AcDbPoint
 10
-61.0
 20
0.0
 30
0.0
  0
POINT
  5
1EF
330
1E2
100
AcDbEntity
  8
Defpoints
100
AcDbPoint
 10
0.0
 20
0.0
 30
0.0
  0
POINT
  5
1F0
330
1E2
100
AcDbEntity
  8
Defpoints
100
AcDbPoint
 10
0.0
 20
183.0
 30
0.0
  0
ENDBLK
  5
1E4
330
1E2
100
AcDbEntity
  8
0
100
AcDbBlockEnd
  0
BLOCK
  5
1F3
330
1F2
100
AcDbEntity
  8
0
100
AcDbBlockBegin
  2
*D23
 70
1
 10
0.0
 20
0.0
 30
0.0
  3
*D23
  1

  0
LINE
  5
1F5
330
1F2
100
AcDbEntity
  8
0
100
AcDbLine
 10
0.0
 20
0.0
 30
0.0
 11
-73.0
 21
0.0
 31
0.0
  0
LINE
  5
1F6
330
1F2
100
AcDbEntity
  8
0
100
AcDbLine
 10
0.0
 20
233.0
 30
0.0
 11
-73.0
 21
233.0
 31
0.0
  0
INSERT
  5
1F7
330
1F2
100
AcDbEntity
  8
DIMENSION
100
AcDbBlockReference
  2
_CLOSEDFILLED
 10
-73.0
 20
0.0
 30
0.0
 41
0.25
 42
0.25
 50
270.0
  0
INSERT
  5
1F9
330
1F2
100
AcDbEntity
  8
DIMENSION
100
AcDbBlockReference
  2
_CLOSEDFILLED
 10
-73.0
 20
233.0
 30
0.0
 41
0.25
 42
0.25
 50
90.0
  0
LINE
  5
1FB
330
1F2
100
AcDbEntity
  8
0
100
AcDbLine
 10
-73.0
 20
0.25
 30
0.0
 11
-73.0
 21
115.0
 31
0.0
  0
LINE
  5
1FC
330
1F2
100
AcDbEntity
  8
0
100
AcDbLine
 10
-73.0
 20
118.0
 30
0.0
 11
-73.0
 21
232.75
 31
0.0
  0
MTEXT
  5
1FD
330
1F2
100
AcDbEntity
  8
DIMENSION
100
AcDbMText
 10
-73.0
 20
116.5
 30
0.0
 40
1.0
 71
5
  1
233
 50
90.0
  0
POINT
  5
1FE
330
1F2
100
AcDbEntity
  8
Defpoints
100
AcDbPoint
 10
-73.0
 20
0.0
 30
0.0
  0
POINT
  5
1FF
330
1F2
100
AcDbEntity
  8
Defpoints
100
AcDbPoint
 10
0.0
 20
0.0
 30
0.0
  0
POINT
  5
200
330
1F2
100
AcDbEntity
  8
Defpoints
100
AcDbPoint
 10
0.0
 20
233.0
 30
0.0
  0
ENDBLK
  5
1F4
330
1F2
100
AcDbEntity
  8
0
100
AcDbBlockEnd
  0
BLOCK
  5
203
330
202
100
AcDbEntity
  8
0
100
AcDbBlockBegin
  2
*D24
 70
1
 10
0.0
 20
0.0
 30
0.0
  3
*D24
  1

  0
LINE
  5
205
330
202
100
AcDbEntity
  8
0
100
AcDbLine
 10
797.0
 20
233.0
 30
0.0
 11
822.0
 21
233.0
 31
0.0
  0
LINE
  5
206
330
202
100
AcDbEntity
  8
0
100
AcDbLine
 10
797.0
 20
233.0
 30
0.0
 11
822.0
 21
233.0
 31
0.0
  0
INSERT
  5
207
330
202
100
AcDbEntity
  8
DIMENSION
100
AcDbBlockReference
  2
_CLOSEDFILLED
 10
822.0
 20
233.0
 30
0.0
 41
0.25
 42
0.25
 50
90.0
  0
INSERT
  5
209
330
202
100
AcDbEntity
  8
DIMENSION
100
AcDbBlockReference
  2
_CLOSEDFILLED
 10
822.0
 20
233.0
 30
0.0
 41
0.25
 42
0.25
 50
270.0
  0
LINE
  5
20B
330
202
100
AcDbEntity
  8
0
100
AcDbLine
 10
822.0
 20
232.75
 30
0.0
 11
822.0
 21
232.5
 31
0.0
  0
LINE
  5
20C
330
202
100
AcDbEntity
  8
0
100
AcDbLine
 10
822.0
 20
233.25
 30
0.0
 11
822.0
 21
233.5
 31
0.0
  0
LINE
  5
20D
330
202
100
AcDbEntity
  8
0
100
AcDbLine
 10
822.0
 20
233.0
 30
0.0
 11
822.0
 21
233.0
 31
0.0
  0
MTEXT
  5
20E
330
202
100
AcDbEntity
  8
DIMENSION
100
AcDbMText
 10
820.875
 20
233.0
 30
0.0
 40
1.0
 71
5
  1
0
 50
90.0
  0
POINT
  5
20F
330
202
100
AcDbEntity
  8
Defpoints
100
AcDbPoint
 10
822.0
 20
233.0
 30
0.0
  0
POINT
  5
210
330
202
100
AcDbEntity
  8
Defpoints
100
AcDbPoint
 10
797.0
 20
233.0
 30
0.0
  0
POINT
  5
211
330
202
100
AcDbEntity
  8
Defpoints
100
AcDbPoint
 10
797.0
 20
233.0
 30
0.0
  0
ENDBLK
  5
204
330
202
100
AcDbEntity
  8
0
100
AcDbBlockEnd
  0
BLOCK
  5
214
330
213
100
AcDbEntity
  8
0
100
AcDbBlockBegin
  2
*D25
 70
1
 10
0.0
 20
0.0
 30
0.0
  3
*D25
  1

  0
LINE
  5
216
330
213
100
AcDbEntity
  8
0
100
AcDbLine
 10
797.0
 20
233.0
 30
0.0
 11
834.0
 21
233.0
 31
0.0
  0
LINE
  5
217
330
213
100
AcDbEntity
  8
0
100
AcDbLine
 10
797.0
 20
183.0
 30
0.0
 11
834.0
 21
183.0
 31
0.0
  0
INSERT
  5
218
330
213
100
AcDbEntity
  8
DIMENSION
100
AcDbBlockReference
  2
_CLOSEDFILLED
 10
834.0
 20
233.0
 30
0.0
 41
0.25
 42
0.25
 50
270.0
  0
INSERT
  5
21A
330
213
100
AcDbEntity
  8
DIMENSION
100
AcDbBlockReference
  2
_CLOSEDFILLED
 10
834.0
 20
183.0
 30
0.0
 41
0.25
 42
0.25
 50
90.0
  0
LINE
  5
21C
330
213
100
AcDbEntity
  8
0
100
AcDbLine
 10
834.0
 20
233.25
 30
0.0
 11
834.0
 21
209.0
 31
0.0
  0
LINE
  5
21D
330
213
100
AcDbEntity
  8
0
100
AcDbLine
 10
834.0
 20
207.0
 30
0.0
 11
834.0
 21
182.75
 31
0.0
  0
MTEXT
  5
21E
330
213
100
AcDbEntity
  8
DIMENSION
100
AcDbMText
 10
834.0
 20
208.0
 30
0.0
 40
1.0
 71
5
  1
50
 50
90.0
  0
POINT
  5
21F
330
213
100
AcDbEntity
  8
Defpoints
100
AcDbPoint
 10
834.0
 20
233.0
 30
0.0
  0
POINT
  5
220
330
213
100
AcDbEntity
  8
Defpoints
100
AcDbPoint
 10
797.0
 20
233.0
 30
0.0
  0
POINT
  5
221
330
213
100
AcDbEntity
  8
Defpoints
100
AcDbPoint
 10
797.0
 20
183.0
 30
0.0
  0
ENDBLK
  5
215
330
213
100
AcDbEntity
  8
0
100
AcDbBlockEnd
  0
BLOCK
  5
224
330
223
100
AcDbEntity
  8
0
100
AcDbBlockBegin
  2
*D26
 70
1
 10
0.0
 20
0.0
 30
0.0
  3
*D26
  1

  0
LINE
  5
226
330
223
100
AcDbEntity
  8
0
100
AcDbLine
 10
797.0
 20
233.0
 30
0.0
 11
846.0
 21
233.0
 31
0.0
  0
LINE
  5
227
330
223
100
AcDbEntity
  8
0
100
AcDbLine
 10
797.0
 20
129.0
 30
0.0
 11
846.0
 21
129.0
 31
0.0
  0
INSERT
  5
228
330
223
100
AcDbEntity
  8
DIMENSION
100
AcDbBlockReference
  2
_CLOSEDFILLED
 10
846.0
 20
233.0
 30
0.0
 41
0.25
 42
0.25
 50
270.0
  0
INSERT
  5
22A
330
223
100
AcDbEntity
  8
DIMENSION
100
AcDbBlockReference
  2
_CLOSEDFILLED
 10
846.0
 20
129.0
 30
0.0
 41
0.25
 42
0.25
 50
90.0
  0
LINE
  5
22C
330
223
100
AcDbEntity
  8
0
100
AcDbLine
 10
846.0
 20
233.25
 30
0.0
 11
846.0
 21
182.5
 31
0.0
  0
LINE
  5
22D
330
223
100
AcDbEntity
  8
0
100
AcDbLine
 10
846.0
 20
179.5
 30
0.0
 11
846.0
 21
128.75
 31
0.0
  0
MTEXT
  5
22E
330
223
100
AcDbEntity
  8
DIMENSION
100
AcDbMText
 10
846.0
 20
181.0
 30
0.0
 40
1.0
 71
5
  1
104
 50
90.0
  0
POINT
  5
22F
330
223
100
AcDbEntity
  8
Defpoints
100
AcDbPoint
 10
846.0
 20
233.0
 30
0.0
  0
POINT
  5
230
330
223
100
AcDbEntity
  8
Defpoints
100
AcDbPoint
 10
797.0
 20
233.0
 30
0.0
  0
POINT
  5
231
330
223
100
AcDbEntity
  8
Defpoints
100
AcDbPoint
 10
797.0
 20
129.0
 30
0.0
  0
ENDBLK
  5
225
330
223
100
AcDbEntity
  8
0
100
AcDbBlockEnd
  0
BLOCK
  5
234
330
233
100
AcDbEntity
  8
0
100
AcDbBlockBegin
  2
*D27
 70
1
 10
0.0
 20
0.0
 30
0.0
  3
*D27
  1

  0
LINE
  5
236
330
233
100
AcDbEntity
  8
0
100
AcDbLine
 10
797.0
 20
233.0
 30
0.0
 11
858.0
 21
233.0
 31
0.0
  0
LINE
  5
237
330
233
100
AcDbEntity
  8
0
100
AcDbLine
 10
797.0
 20
50.0
 30
0.0
 11
858.0
 21
50.0
 31
0.0
  0
INSERT
  5
238
330
233
100
AcDbEntity
  8
DIMENSION
100
AcDbBlockReference
  2
_CLOSEDFILLED
 10
858.0
 20
233.0
 30
0.0
 41
0.25
 42
0.25
 50
270.0
  0
INSERT
  5
23A
330
233
100
AcDbEntity
  8
DIMENSION
100
AcDbBlockReference
  2
_CLOSEDFILLED
 10
858.0
 20
50.0
 30
0.0
 41
0.25
 42
0.25
 50
90.0
  0
LINE
  5
23C
330
233
100
AcDbEntity
  8
0
100
AcDbLine
 10
858.0
 20
233.25
 30
0.0
 11
858.0
 21
143.0
 31
0.0
  0
LINE
  5
23D
330
233
100
AcDbEntity
  8
0
100
AcDbLine
 10
858.0
 20
140.0
 30
0.0
 11
858.0
 21
49.75
 31
0.0
  0
MTEXT
  5
23E
330
233
100
AcDbEntity
  8
DIMENSION
100
AcDbMText
 10
858.0
 20
141.5
 30
0.0
 40
1.0
 71
5
  1
183
 50
90.0
  0
POINT
  5
23F
330
233
100
AcDbEntity
  8
Defpoints
100
AcDbPoint
 10
858.0
 20
233.0
 30
0.0
  0
POINT
  5
240
330
233
100
AcDbEntity
  8
Defpoints
100
AcDbPoint
 10
797.0
 20
233.0
 30
0.0
  0
POINT
  5
241
330
233
100
AcDbEntity
  8
Defpoints
100
AcDbPoint
 10
797.0
 20
50.0
 30
0.0
  0
ENDBLK
  5
235
330
233
100
AcDbEntity
  8
0
100
AcDbBlockEnd
  0
BLOCK
  5
244
330
243
100
AcDbEntity
  8
0
100
AcDbBlockBegin
  2
*D28
 70
1
 10
0.0
 20
0.0
 30
0.0
  3
*D28
  1

  0
LINE
  5
246
330
243
100
AcDbEntity
  8
0
100
AcDbLine
 10
797.0
 20
233.0
 30
0.0
 11
870.0
 21
233.0
 31
0.0
  0
LINE
  5
247
330
243
100
AcDbEntity
  8
0
100
AcDbLine
 10
797.0
 20
6.0
 30
0.0
 11
870.0
 21
6.0
 31
0.0
  0
INSERT
  5
248
330
243
100
AcDbEntity
  8
DIMENSION
100
AcDbBlockReference
  2
_CLOSEDFILLED
 10
870.0
 20
233.0
 30
0.0
 41
0.25
 42
0.25
 50
270.0
  0
INSERT
  5
24A
330
243
100
AcDbEntity
  8
DIMENSION
100
AcDbBlockReference
  2
_CLOSEDFILLED
 10
870.0
 20
6.0
 30
0.0
 41
0.25
 42
0.25
 50
90.0
  0
LINE
  5
24C
330
243
100
AcDbEntity
  8
0
100
AcDbLine
 10
870.0
 20
233.25
 30
0.0
 11
870.0
 21
121.0
 31
0.0
  0
LINE
  5
24D
330
243
100
AcDbEntity
  8
0
100
AcDbLine
 10
870.0
 20
118.0
 30
0.0
 11
870.0
 21
5.75
 31
0.0
  0
MTEXT
  5
24E
330
243
100
AcDbEntity
  8
DIMENSION
100
AcDbMText
 10
870.0
 20
119.5
 30
0.0
 40
1.0
 71
5
  1
227
 50
90.0
  0
POINT
  5
24F
330
243
100
AcDbEntity
  8
Defpoints
100
AcDbPoint
 10
870.0
 20
233.0
 30
0.0
  0
POINT
  5
250
330
243
100
AcDbEntity
  8
Defpoints
100
AcDbPoint
 10
797.0
 20
233.0
 30
0.0
  0
POINT
  5
251
330
243
100
AcDbEntity
  8
Defpoints
100
AcDbPoint
 10
797.0
 20
6.0
 30
0.0
  0
ENDBLK
  5
245
330
243
100
AcDbEntity
  8
0
100
AcDbBlockEnd
  0
ENDSEC
  0
SECTION
  2
ENTITIES
  0
TEXT
  5
33
330
17
100
AcDbEntity
  8
ANNOTATION
100
AcDbText
 10
42.5
 20
55.0
 30
0.0
 40
2.5
  1
d6.0 h10.0
100
AcDbText
  0
TEXT
  5
34
330
17
100
AcDbEntity
  8
ANNOTATION
100
AcDbText
 10
42.5
 20
188.0
 30
0.0
 40
2.5
  1
d6.0 h10.0
100
AcDbText
  0
TEXT
  5
35
330
17
100
AcDbEntity
  8
ANNOTATION
100
AcDbText
 10
754.5
 20
55.0
 30
0.0
 40
2.5
  1
d6.0 h10.0
100
AcDbText
  0
TEXT
  5
36
330
17
100
AcDbEntity
  8
ANNOTATION
100
AcDbText
 10
754.5
 20
188.0
 30
0.0
 40
2.5
  1
d6.0 h10.0
100
AcDbText
  0
TEXT
  5
37
330
17
100
AcDbEntity
  8
ANNOTATION
100
AcDbText
 10
92.5
 20
11.0
 30
0.0
 40
2.5
  1
d6.0 h10.0
100
AcDbText
  0
TEXT
  5
38
330
17
100
AcDbEntity
  8
ANNOTATION
100
AcDbText
 10
704.5
 20
11.0
 30
0.0
 40
2.5
  1
d6.0 h10.0
100
AcDbText
  0
TEXT
  5
39
330
17
100
AcDbEntity
  8
ANNOTATION
100
AcDbText
 10
296.5
 20
11.0
 30
0.0
 40
2.5
  1
d6.0 h10.0
100
AcDbText
  0
TEXT
  5
3A
330
17
100
AcDbEntity
  8
ANNOTATION
100
AcDbText
 10
500.5
 20
11.0
 30
0.0
 40
2.5
  1
d6.0 h10.0
100
AcDbText
  0
TEXT
  5
3B
330
17
100
AcDbEntity
  8
ANNOTATION
100
AcDbText
 10
318.5
 20
134.0
 30
0.0
 40
2.5
  1
d4.0 h19.0
100
AcDbText
  0
TEXT
  5
3C
330
17
100
AcDbEntity
  8
ANNOTATION
100
AcDbText
 10
478.5
 20
134.0
 30
0.0
 40
2.5
  1
d4.0 h19.0
100
AcDbText
  0
LWPOLYLINE
  5
3D
330
17
100
AcDbEntity
  8
CUT
100
AcDbPolyline
 90
4
 70
1
 10
0.0
 20
0.0
 10
797.0
 20
0.0
 10
797.0
 20
233.0
 10
0.0
 20
233.0
  0
LWPOLYLINE
  5
3E
330
17
100
AcDbEntity
  8
DRILL
100
AcDbPolyline
 90
16
 70
1
 10
39.5
 20
50.0
 10
39.7284
 20
51.148
 10
40.3787
 20
52.1213
 10
41.3519
 20
52.7716
 10
42.5
 20
53.0
 10
43.648
 20
52.7716
 10
44.6213
 20
52.1213
 10
45.2716
 20
51.148
 10
45.5
 20
50.0
 10
45.2716
 20
48.8519
 10
44.6213
 20
47.8787
 10
43.648
 20
47.2284
 10
42.5
 20
47.0
 10
41.3519
 20
47.2284
 10
40.3787
 20
47.8787
 10
39.7284
 20
48.8519
  0
LWPOLYLINE
  5
3F
330
17
100
AcDbEntity
  8
DRILL
100
AcDbPolyline
 90
16
 70
1
 10
39.5
 20
183.0
 10
39.7284
 20
184.148
 10
40.3787
 20
185.121
 10
41.3519
 20
185.772
 10
42.5
 20
186.0
 10
43.648
 20
185.772
 10
44.6213
 20
185.121
 10
45.2716
 20
184.148
 10
45.5
 20
183.0
 10
45.2716
 20
181.852
 10
44.6213
 20
180.879
 10
43.648
 20
180.228
 10
42.5
 20
180.0
 10
41.3519
 20
180.228
 10
40.3787
 20
180.879
 10
39.7284
 20
181.852
  0
LWPOLYLINE
  5
40
330
17
100
AcDbEntity
  8
DRILL
100
AcDbPolyline
 90
16
 70
1
 10
89.5
 20
6.0
 10
89.7284
 20
7.14805
 10
90.3787
 20
8.12132
 10
91.3519
 20
8.77164
 10
92.5
 20
9.0
 10
93.648
 20
8.77164
 10
94.6213
 20
8.12132
 10
95.2716
 20
7.14805
 10
95.5
 20
6.0
 10
95.2716
 20
4.85195
 10
94.6213
 20
3.87868
 10
93.648
 20
3.22836
 10
92.5
 20
3.0
 10
91.3519
 20
3.22836
 10
90.3787
 20
3.87868
 10
89.7284
 20
4.85195
  0
LWPOLYLINE
  5
41
330
17
100
AcDbEntity
  8
DRILL
100
AcDbPolyline
 90
16
 70
1
 10
293.5
 20
6.0
 10
293.728
 20
7.14805
 10
294.379
 20
8.12132
 10
295.352
 20
8.77164
 10
296.5
 20
9.0
 10
297.648
 20
8.77164
 10
298.621
 20
8.12132
 10
299.272
 20
7.14805
 10
299.5
 20
6.0
 10
299.272
 20
4.85195
 10
298.621
 20
3.87868
 10
297.648
 20
3.22836
 10
296.5
 20
3.0
 10
295.352
 20
3.22836
 10
294.379
 20
3.87868
 10
293.728
 20
4.85195
  0
LWPOLYLINE
  5
42
330
17
100
AcDbEntity
  8
DRILL
100
AcDbPolyline
 90
16
 70
1
 10
316.5
 20
129.0
 10
316.652
 20
129.765
 10
317.086
 20
130.414
 10
317.735
 20
130.848
 10
318.5
 20
131.0
 10
319.265
 20
130.848
 10
319.914
 20
130.414
 10
320.348
 20
129.765
 10
320.5
 20
129.0
 10
320.348
 20
128.235
 10
319.914
 20
127.586
 10
319.265
 20
127.152
 10
318.5
 20
127.0
 10
317.735
 20
127.152
 10
317.086
 20
127.586
 10
316.652
 20
128.235
  0
LWPOLYLINE
  5
43
330
17
100
AcDbEntity
  8
DRILL
100
AcDbPolyline
 90
16
 70
1
 10
476.5
 20
129.0
 10
476.652
 20
129.765
 10
477.086
 20
130.414
 10
477.735
 20
130.848
 10
478.5
 20
131.0
 10
479.265
 20
130.848
 10
479.914
 20
130.414
 10
480.348
 20
129.765
 10
480.5
 20
129.0
 10
480.348
 20
128.235
 10
479.914
 20
127.586
 10
479.265
 20
127.152
 10
478.5
 20
127.0
 10
477.735
 20
127.152
 10
477.086
 20
127.586
 10
476.652
 20
128.235
  0
LWPOLYLINE
  5
44
330
17
100
AcDbEntity
  8
DRILL
100
AcDbPolyline
 90
16
 70
1
 10
497.5
 20
6.0
 10
497.728
 20
7.14805
 10
498.379
 20
8.12132
 10
499.352
 20
8.77164
 10
500.5
 20
9.0
 10
501.648
 20
8.77164
 10
502.621
 20
8.12132
 10
503.272
 20
7.14805
 10
503.5
 20
6.0
 10
503.272
 20
4.85195
 10
502.621
 20
3.87868
 10
501.648
 20
3.22836
 10
500.5
 20
3.0
 10
499.352
 20
3.22836
 10
498.379
 20
3.87868
 10
497.728
 20
4.85195
  0
LWPOLYLINE
  5
45
330
17
100
AcDbEntity
  8
DRILL
100
AcDbPolyline
 90
16
 70
1
 10
701.5
 20
6.0
 10
701.728
 20
7.14805
 10
702.379
 20
8.12132
 10
703.352
 20
8.77164
 10
704.5
 20
9.0
 10
705.648
 20
8.77164
 10
706.621
 20
8.12132
 10
707.272
 20
7.14805
 10
707.5
 20
6.0
 10
707.272
 20
4.85195
 10
706.621
 20
3.87868
 10
705.648
 20
3.22836
 10
704.5
 20
3.0
 10
703.352
 20
3.22836
 10
702.379
 20
3.87868
 10
701.728
 20
4.85195
  0
LWPOLYLINE
  5
46
330
17
100
AcDbEntity
  8
DRILL
100
AcDbPolyline
 90
16
 70
1
 10
751.5
 20
50.0
 10
751.728
 20
51.148
 10
752.379
 20
52.1213
 10
753.352
 20
52.7716
 10
754.5
 20
53.0
 10
755.648
 20
52.7716
 10
756.621
 20
52.1213
 10
757.272
 20
51.148
 10
757.5
 20
50.0
 10
757.272
 20
48.8519
 10
756.621
 20
47.8787
 10
755.648
 20
47.2284
 10
754.5
 20
47.0
 10
753.352
 20
47.2284
 10
752.379
 20
47.8787
 10
751.728
 20
48.8519
  0
LWPOLYLINE
  5
47
330
17
100
AcDbEntity
  8
DRILL
100
AcDbPolyline
 90
16
 70
1
 10
751.5
 20
183.0
 10
751.728
 20
184.148
 10
752.379
 20
185.121
 10
753.352
 20
185.772
 10
754.5
 20
186.0
 10
755.648
 20
185.772
 10
756.621
 20
185.121
 10
757.272
 20
184.148
 10
757.5
 20
183.0
 10
757.272
 20
181.852
 10
756.621
 20
180.879
 10
755.648
 20
180.228
 10
754.5
 20
180.0
 10
753.352
 20
180.228
 10
752.379
 20
180.879
 10
751.728
 20
181.852
  0
TEXT
  5
48
330
17
100
AcDbEntity
  8
ANNOTATION
100
AcDbText
 10
817.0
 20
233.0
 30
0.0
 40
3.75
  1
Hole Schedule
100
AcDbText
  0
TEXT
  5
49
330
17
100
AcDbEntity
  8
ANNOTATION
100
AcDbText
 10
817.0
 20
225.5
 30
0.0
 40
2.5
  1
Hole Name
100
AcDbText
  0
TEXT
  5
4A
330
17
100
AcDbEntity
  8
ANNOTATION
100
AcDbText
 10
857.0
 20
225.5
 30
0.0
 40
2.5
  1
X
100
AcDbText
  0
TEXT
  5
4B
330
17
100
AcDbEntity
  8
ANNOTATION
100
AcDbText
 10
877.0
 20
225.5
 30
0.0
 40
2.5
  1
Y
100
AcDbText
  0
TEXT
  5
4C
330
17
100
AcDbEntity
  8
ANNOTATION
100
AcDbText
 10
897.0
 20
225.5
 30
0.0
 40
2.5
  1
Z
100
AcDbText
  0
TEXT
  5
4D
330
17
100
AcDbEntity
  8
ANNOTATION
100
AcDbText
 10
917.0
 20
225.5
 30
0.0
 40
2.5
  1
Dia
100
AcDbText
  0
TEXT
  5
4E
330
17
100
AcDbEntity
  8
ANNOTATION
100
AcDbText
 10
937.0
 20
225.5
 30
0.0
 40
2.5
  1
Depth
100
AcDbText
  0
LINE
  5
4F
330
17
100
AcDbEntity
  8
ANNOTATION
100
AcDbLine
 10
817.0
 20
224.25
 30
0.0
 11
957.0
 21
224.25
 31
0.0
  0
TEXT
  5
50
330
17
100
AcDbEntity
  8
ANNOTATION
100
AcDbText
 10
817.0
 20
219.875
 30
0.0
 40
2.5
  1
left_side_1
100
AcDbText
  0
TEXT
  5
51
330
17
100
AcDbEntity
  8
ANNOTATION
100
AcDbText
 10
857.0
 20
219.875
 30
0.0
 40
2.5
  1
42.5
100
AcDbText
  0
TEXT
  5
52
330
17
100
AcDbEntity
  8
ANNOTATION
100
AcDbText
 10
877.0
 20
219.875
 30
0.0
 40
2.5
  1
50.0
100
AcDbText
  0
TEXT
  5
53
330
17
100
AcDbEntity
  8
ANNOTATION
100
AcDbText
 10
897.0
 20
219.875
 30
0.0
 40
2.5
  1
0.0
100
AcDbText
  0
TEXT
  5
54
330
17
100
AcDbEntity
  8
ANNOTATION
100
AcDbText
 10
917.0
 20
219.875
 30
0.0
 40
2.5
  1
6.0
100
AcDbText
  0
TEXT
  5
55
330
17
100
AcDbEntity
  8
ANNOTATION
100
AcDbText
 10
937.0
 20
219.875
 30
0.0
 40
2.5
  1
10.0
100
AcDbText
  0
TEXT
  5
56
330
17
100
AcDbEntity
  8
ANNOTATION
100
AcDbText
 10
817.0
 20
216.125
 30
0.0
 40
2.5
  1
left_side_2
100
AcDbText
  0
TEXT
  5
57
330
17
100
AcDbEntity
  8
ANNOTATION
100
AcDbText
 10
857.0
 20
216.125
 30
0.0
 40
2.5
  1
42.5
100
AcDbText
  0
TEXT
  5
58
330
17
100
AcDbEntity
  8
ANNOTATION
100
AcDbText
 10
877.0
 20
216.125
 30
0.0
 40
2.5
  1
183.0
100
AcDbText
  0
TEXT
  5
59
330
17
100
AcDbEntity
  8
ANNOTATION
100
AcDbText
 10
897.0
 20
216.125
 30
0.0
 40
2.5
  1
0.0
100
AcDbText
  0
TEXT
  5
5A
330
17
100
AcDbEntity
  8
ANNOTATION
100
AcDbText
 10
917.0
 20
216.125
 30
0.0
 40
2.5
  1
6.0
100
AcDbText
  0
TEXT
  5
5B
330
17
100
AcDbEntity
  8
ANNOTATION
100
AcDbText
 10
937.0
 20
216.125
 30
0.0
 40
2.5
  1
10.0
100
AcDbText
  0
TEXT
  5
5C
330
17
100
AcDbEntity
  8
ANNOTATION
100
AcDbText
 10
817.0
 20
212.375
 30
0.0
 40
2.5
  1
right_side_1
100
AcDbText
  0
TEXT
  5
5D
330
17
100
AcDbEntity
  8
ANNOTATION
100
AcDbText
 10
857.0
 20
212.375
 30
0.0
 40
2.5
  1
754.5
100
AcDbText
  0
TEXT
  5
5E
330
17
100
AcDbEntity
  8
ANNOTATION
100
AcDbText
 10
877.0
 20
212.375
 30
0.0
 40
2.5
  1
50.0
100
AcDbText
  0
TEXT
  5
5F
330
17
100
AcDbEntity
  8
ANNOTATION
100
AcDbText
 10
897.0
 20
212.375
 30
0.0
 40
2.5
  1
0.0
100
AcDbText
  0
TEXT
  5
60
330
17
100
AcDbEntity
  8
ANNOTATION
100
AcDbText
 10
917.0
 20
212.375
 30
0.0
 40
2.5
  1
6.0
100
AcDbText
  0
TEXT
  5
61
330
17
100
AcDbEntity
  8
ANNOTATION
100
AcDbText
 10
937.0
 20
212.375
 30
0.0
 40
2.5
  1
10.0
100
AcDbText
  0
TEXT
  5
62
330
17
100
AcDbEntity
  8
ANNOTATION
100
AcDbText
 10
817.0
 20
208.625
 30
0.0
 40
2.5
  1
right_side_2
100
AcDbText
  0
TEXT
  5
63
330
17
100
AcDbEntity
  8
ANNOTATION
100
AcDbText
 10
857.0
 20
208.625
 30
0.0
 40
2.5
  1
754.5
100
AcDbText
  0
TEXT
  5
64
330
17
100
AcDbEntity
  8
ANNOTATION
100
AcDbText
 10
877.0
 20
208.625
 30
0.0
 40
2.5
  1
183.0
100
AcDbText
  0
TEXT
  5
65
330
17
100
AcDbEntity
  8
ANNOTATION
100
AcDbText
 10
897.0
 20
208.625
 30
0.0
 40
2.5
  1
0.0
100
AcDbText
  0
TEXT
  5
66
330
17
100
AcDbEntity
  8
ANNOTATION
100
AcDbText
 10
917.0
 20
208.625
 30
0.0
 40
2.5
  1
6.0
100
AcDbText
  0
TEXT
  5
67
330
17
100
AcDbEntity
  8
ANNOTATION
100
AcDbText
 10
937.0
 20
208.625
 30
0.0
 40
2.5
  1
10.0
100
AcDbText
  0
TEXT
  5
68
330
17
100
AcDbEntity
  8
ANNOTATION
100
AcDbText
 10
817.0
 20
204.875
 30
0.0
 40
2.5
  1
bottom_panel_1
100
AcDbText
  0
TEXT
  5
69
330
17
100
AcDbEntity
  8
ANNOTATION
100
AcDbText
 10
857.0
 20
204.875
 30
0.0
 40
2.5
  1
92.5
100
AcDbText
  0
TEXT
  5
6A
330
17
100
AcDbEntity
  8
ANNOTATION
100
AcDbText
 10
877.0
 20
204.875
 30
0.0
 40
2.5
  1
6.0
100
AcDbText
  0
TEXT
  5
6B
330
17
100
AcDbEntity
  8
ANNOTATION
100
AcDbText
 10
897.0
 20
204.875
 30
0.0
 40
2.5
  1
0.0
100
AcDbText
  0
TEXT
  5
6C
330
17
100
AcDbEntity
  8
ANNOTATION
100
AcDbText
 10
917.0
 20
204.875
 30
0.0
 40
2.5
  1
6.0
100
AcDbText
  0
TEXT
  5
6D
330
17
100
AcDbEntity
  8
ANNOTATION
100
AcDbText
 10
937.0
 20
204.875
 30
0.0
 40
2.5
  1
10.0
100
AcDbText
  0
TEXT
  5
6E
330
17
100
AcDbEntity
  8
ANNOTATION
100
AcDbText
 10
817.0
 20
201.125
 30
0.0
 40
2.5
  1
bottom_panel_2
100
AcDbText
  0
TEXT
  5
6F
330
17
100
AcDbEntity
  8
ANNOTATION
100
AcDbText
 10
857.0
 20
201.125
 30
0.0
 40
2.5
  1
704.5
100
AcDbText
  0
TEXT
  5
70
330
17
100
AcDbEntity
  8
ANNOTATION
100
AcDbText
 10
877.0
 20
201.125
 30
0.0
 40
2.5
  1
6.0
100
AcDbText
  0
TEXT
  5
71
330
17
100
AcDbEntity
  8
ANNOTATION
100
AcDbText
 10
897.0
 20
201.125
 30
0.0
 40
2.5
  1
0.0
100
AcDbText
  0
TEXT
  5
72
330
17
100
AcDbEntity
  8
ANNOTATION
100
AcDbText
 10
917.0
 20
201.125
 30
0.0
 40
2.5
  1
6.0
100
AcDbText
  0
TEXT
  5
73
330
17
100
AcDbEntity
  8
ANNOTATION
100
AcDbText
 10
937.0
 20
201.125
 30
0.0
 40
2.5
  1
10.0
100
AcDbText
  0
TEXT
  5
74
330
17
100
AcDbEntity
  8
ANNOTATION
100
AcDbText
 10
817.0
 20
197.375
 30
0.0
 40
2.5
  1
bottom_panel_3
100
AcDbText
  0
TEXT
  5
75
330
17
100
AcDbEntity
  8
ANNOTATION
100
AcDbText
 10
857.0
 20
197.375
 30
0.0
 40
2.5
  1
296.5
100
AcDbText
  0
TEXT
  5
76
330
17
100
AcDbEntity
  8
ANNOTATION
100
AcDbText
 10
877.0
 20
197.375
 30
0.0
 40
2.5
  1
6.0
100
AcDbText
  0
TEXT
  5
77
330
17
100
AcDbEntity
  8
ANNOTATION
100
AcDbText
 10
897.0
 20
197.375
 30
0.0
 40
2.5
  1
0.0
100
AcDbText
  0
TEXT
  5
78
330
17
100
AcDbEntity
  8
ANNOTATION
100
AcDbText
 10
917.0
 20
197.375
 30
0.0
 40
2.5
  1
6.0
100
AcDbText
  0
TEXT
  5
79
330
17
100
AcDbEntity
  8
ANNOTATION
100
AcDbText
 10
937.0
 20
197.375
 30
0.0
 40
2.5
  1
10.0
100
AcDbText
  0
TEXT
  5
7A
330
17
100
AcDbEntity
  8
ANNOTATION
100
AcDbText
 10
817.0
 20
193.625
 30
0.0
 40
2.5
  1
bottom_panel_4
100
AcDbText
  0
TEXT
  5
7B
330
17
100
AcDbEntity
  8
ANNOTATION
100
AcDbText
 10
857.0
 20
193.625
 30
0.0
 40
2.5
  1
500.5
100
AcDbText
  0
TEXT
  5
7C
330
17
100
AcDbEntity
  8
ANNOTATION
100
AcDbText
 10
877.0
 20
193.625
 30
0.0
 40
2.5
  1
6.0
100
AcDbText
  0
TEXT
  5
7D
330
17
100
AcDbEntity
  8
ANNOTATION
100
AcDbText
 10
897.0
 20
193.625
 30
0.0
 40
2.5
  1
0.0
100
AcDbText
  0
TEXT
  5
7E
330
17
100
AcDbEntity
  8
ANNOTATION
100
AcDbText
 10
917.0
 20
193.625
 30
0.0
 40
2.5
  1
6.0
100
AcDbText
  0
TEXT
  5
7F
330
17
100
AcDbEntity
  8
ANNOTATION
100
AcDbText
 10
937.0
 20
193.625
 30
0.0
 40
2.5
  1
10.0
100
AcDbText
  0
TEXT
  5
80
330
17
100
AcDbEntity
  8
ANNOTATION
100
AcDbText
 10
817.0
 20
189.875
 30
0.0
 40
2.5
  1
handle_1
100
AcDbText
  0
TEXT
  5
81
330
17
100
AcDbEntity
  8
ANNOTATION
100
AcDbText
 10
857.0
 20
189.875
 30
0.0
 40
2.5
  1
318.5
100
AcDbText
  0
TEXT
  5
82
330
17
100
AcDbEntity
  8
ANNOTATION
100
AcDbText
 10
877.0
 20
189.875
 30
0.0
 40
2.5
  1
129.0
100
AcDbText
  0
TEXT
  5
83
330
17
100
AcDbEntity
  8
ANNOTATION
100
AcDbText
 10
897.0
 20
189.875
 30
0.0
 40
2.5
  1
0.0
100
AcDbText
  0
TEXT
  5
84
330
17
100
AcDbEntity
  8
ANNOTATION
100
AcDbText
 10
917.0
 20
189.875
 30
0.0
 40
2.5
  1
4.0
100
AcDbText
  0
TEXT
  5
85
330
17
100
AcDbEntity
  8
ANNOTATION
100
AcDbText
 10
937.0
 20
189.875
 30
0.0
 40
2.5
  1
19.0
100
AcDbText
  0
TEXT
  5
86
330
17
100
AcDbEntity
  8
ANNOTATION
100
AcDbText
 10
817.0
 20
186.125
 30
0.0
 40
2.5
  1
handle_2
100
AcDbText
  0
TEXT
  5
87
330
17
100
AcDbEntity
  8
ANNOTATION
100
AcDbText
 10
857.0
 20
186.125
 30
0.0
 40
2.5
  1
478.5
100
AcDbText
  0
TEXT
  5
88
330
17
100
AcDbEntity
  8
ANNOTATION
100
AcDbText
 10
877.0
 20
186.125
 30
0.0
 40
2.5
  1
129.0
100
AcDbText
  0
TEXT
  5
89
330
17
100
AcDbEntity
  8
ANNOTATION
100
AcDbText
 10
897.0
 20
186.125
 30
0.0
 40
2.5
  1
0.0
100
AcDbText
  0
TEXT
  5
8A
330
17
100
AcDbEntity
  8
ANNOTATION
100
AcDbText
 10
917.0
 20
186.125
 30
0.0
 40
2.5
  1
4.0
100
AcDbText
  0
TEXT
  5
8B
330
17
100
AcDbEntity
  8
ANNOTATION
100
AcDbText
 10
937.0
 20
186.125
 30
0.0
 40
2.5
  1
19.0
100
AcDbText
  0
DIMENSION
  5
8C
330
17
100
AcDbEntity
  8
DIMENSION
100
AcDbDimension
  2
*D1
  3
Standard
 10
0.0
 20
-25.0
 30
0.0
 11
21.25
 21
-25.0
 31
0.0
 70
32
 71
5
  1
<>
100
AcDbAlignedDimension
 13
0.0
 23
0.0
 33
0.0
 14
42.5
 24
0.0
 34
0.0
 50
0.0
100
AcDbRotatedDimension
  0
DIMENSION
  5
A0
330
17
100
AcDbEntity
  8
DIMENSION
100
AcDbDimension
  2
*D2
  3
Standard
 10
0.0
 20
-37.0
 30
0.0
 11
46.25
 21
-37.0
 31
0.0
 70
32
 71
5
  1
<>
100
AcDbAlignedDimension
 13
0.0
 23
0.0
 33
0.0
 14
92.5
 24
0.0
 34
0.0
 50
0.0
100
AcDbRotatedDimension
  0
DIMENSION
  5
B0
330
17
100
AcDbEntity
  8
DIMENSION
100
AcDbDimension
  2
*D3
  3
Standard
 10
0.0
 20
-49.0
 30
0.0
 11
148.25
 21
-49.0
 31
0.0
 70
32
 71
5
  1
<>
100
AcDbAlignedDimension
 13
0.0
 23
0.0
 33
0.0
 14
296.5
 24
0.0
 34
0.0
 50
0.0
100
AcDbRotatedDimension
  0
DIMENSION
  5
C0
330
17
100
AcDbEntity
  8
DIMENSION
100
AcDbDimension
  2
*D4
  3
Standard
 10
0.0
 20
-61.0
 30
0.0
 11
159.25
 21
-61.0
 31
0.0
 70
32
 71
5
  1
<>
100
AcDbAlignedDimension
 13
0.0
 23
0.0
 33
0.0
 14
318.5
 24
0.0
 34
0.0
 50
0.0
100
AcDbRotatedDimension
  0
DIMENSION
  5
D0
330
17
100
AcDbEntity
  8
DIMENSION
100
AcDbDimension
  2
*D5
  3
Standard
 10
0.0
 20
-73.0
 30
0.0
 11
239.25
 21
-73.0
 31
0.0
 70
32
 71
5
  1
<>
100
AcDbAlignedDimension
 13
0.0
 23
0.0
 33
0.0
 14
478.5
 24
0.0
 34
0.0
 50
0.0
100
AcDbRotatedDimension
  0
DIMENSION
  5
E0
330
17
100
AcDbEntity
  8
DIMENSION
100
AcDbDimension
  2
*D6
  3
Standard
 10
0.0
 20
-85.0
 30
0.0
 11
250.25
 21
-85.0
 31
0.0
 70
32
 71
5
  1
<>
100
AcDbAlignedDimension
 13
0.0
 23
0.0
 33
0.0
 14
500.5
 24
0.0
 34
0.0
 50
0.0
100
AcDbRotatedDimension
  0
DIMENSION
  5
F0
330
17
100
AcDbEntity
  8
DIMENSION
100
AcDbDimension
  2
*D7
  3
Standard
 10
0.0
 20
-97.0
 30
0.0
 11
352.25
 21
-97.0
 31
0.0
 70
32
 71
5
  1
<>
100
AcDbAlignedDimension
 13
0.0
 23
0.0
 33
0.0
 14
704.5
 24
0.0
 34
0.0
 50
0.0
100
AcDbRotatedDimension
  0
DIMENSION
  5
100
330
17
100
AcDbEntity
  8
DIMENSION
100
AcDbDimension
  2
*D8
  3
Standard
 10
0.0
 20
-109.0
 30
0.0
 11
377.25
 21
-109.0
 31
0.0
 70
32
 71
5
  1
<>
100
AcDbAlignedDimension
 13
0.0
 23
0.0
 33
0.0
 14
754.5
 24
0.0
 34
0.0
 50
0.0
100
AcDbRotatedDimension
  0
DIMENSION
  5
110
330
17
100
AcDbEntity
  8
DIMENSION
100
AcDbDimension
  2
*D9
  3
Standard
 10
0.0
 20
-121.0
 30
0.0
 11
398.5
 21
-121.0
 31
0.0
 70
32
 71
5
  1
<>
100
AcDbAlignedDimension
 13
0.0
 23
0.0
 33
0.0
 14
797.0
 24
0.0
 34
0.0
 50
0.0
100
AcDbRotatedDimension
  0
DIMENSION
  5
120
330
17
100
AcDbEntity
  8
DIMENSION
100
AcDbDimension
  2
*D10
  3
Standard
 10
797.0
 20
258.0
 30
0.0
 11
797.0
 21
259.125
 31
0.0
 70
32
 71
5
  1
<>
100
AcDbAlignedDimension
 13
797.0
 23
233.0
 33
0.0
 14
797.0
 24
233.0
 34
0.0
 50
0.0
100
AcDbRotatedDimension
  0
DIMENSION
  5
131
330
17
100
AcDbEntity
  8
DIMENSION
100
AcDbDimension
  2
*D11
  3
Standard
 10
797.0
 20
270.0
 30
0.0
 11
775.75
 21
270.0
 31
0.0
 70
32
 71
5
  1
<>
100
AcDbAlignedDimension
 13
797.0
 23
233.0
 33
0.0
 14
754.5
 24
233.0
 34
0.0
 50
0.0
100
AcDbRotatedDimension
  0
DIMENSION
  5
141
330
17
100
AcDbEntity
  8
DIMENSION
100
AcDbDimension
  2
*D12
  3
Standard
 10
797.0
 20
282.0
 30
0.0
 11
750.75
 21
282.0
 31
0.0
 70
32
 71
5
  1
<>
100
AcDbAlignedDimension
 13
797.0
 23
233.0
 33
0.0
 14
704.5
 24
233.0
 34
0.0
 50
0.0
100
AcDbRotatedDimension
  0
DIMENSION
  5
151
330
17
100
AcDbEntity
  8
DIMENSION
100
AcDbDimension
  2
*D13
  3
Standard
 10
797.0
 20
294.0
 30
0.0
 11
648.75
 21
294.0
 31
0.0
 70
32
 71
5
  1
<>
100
AcDbAlignedDimension
 13
797.0
 23
233.0
 33
0.0
 14
500.5
 24
233.0
 34
0.0
 50
0.0
100
AcDbRotatedDimension
  0
DIMENSION
  5
161
330
17
100
AcDbEntity
  8
DIMENSION
100
AcDbDimension
  2
*D14
  3
Standard
 10
797.0
 20
306.0
 30
0.0
 11
637.75
 21
306.0
 31
0.0
 70
32
 71
5
  1
<>
100
AcDbAlignedDimension
 13
797.0
 23
233.0
 33
0.0
 14
478.5
 24
233.0
 34
0.0
 50
0.0
100
AcDbRotatedDimension
  0
DIMENSION
  5
171
330
17
100
AcDbEntity
  8
DIMENSION
100
AcDbDimension
  2
*D15
  3
Standard
 10
797.0
 20
318.0
 30
0.0
 11
557.75
 21
318.0
 31
0.0
 70
32
 71
5
  1
<>
100
AcDbAlignedDimension
 13
797.0
 23
233.0
 33
0.0
 14
318.5
 24
233.0
 34
0.0
 50
0.0
100
AcDbRotatedDimension
  0
DIMENSION
  5
181
330
17
100
AcDbEntity
  8
DIMENSION
100
AcDbDimension
  2
*D16
  3
Standard
 10
797.0
 20
330.0
 30
0.0
 11
546.75
 21
330.0
 31
0.0
 70
32
 71
5
  1
<>
100
AcDbAlignedDimension
 13
797.0
 23
233.0
 33
0.0
 14
296.5
 24
233.0
 34
0.0
 50
0.0
100
AcDbRotatedDimension
  0
DIMENSION
  5
191
330
17
100
AcDbEntity
  8
DIMENSION
100
AcDbDimension
  2
*D17
  3
Standard
 10
797.0
 20
342.0
 30
0.0
 11
444.75
 21
342.0
 31
0.0
 70
32
 71
5
  1
<>
100
AcDbAlignedDimension
 13
797.0
 23
233.0
 33
0.0
 14
92.5
 24
233.0
 34
0.0
 50
0.0
100
AcDbRotatedDimension
  0
DIMENSION
  5
1A1
330
17
100
AcDbEntity
  8
DIMENSION
100
AcDbDimension
  2
*D18
  3
Standard
 10
797.0
 20
354.0
 30
0.0
 11
419.75
 21
354.0
 31
0.0
 70
32
 71
5
  1
<>
100
AcDbAlignedDimension
 13
797.0
 23
233.0
 33
0.0
 14
42.5
 24
233.0
 34
0.0
 50
0.0
100
AcDbRotatedDimension
  0
DIMENSION
  5
1B1
330
17
100
AcDbEntity
  8
DIMENSION
100
AcDbDimension
  2
*D19
  3
Standard
 10
-25.0
 20
0.0
 30
0.0
 11
-25.0
 21
3.0
 31
0.0
 70
32
 71
5
  1
<>
100
AcDbAlignedDimension
 13
0.0
 23
0.0
 33
0.0
 14
0.0
 24
6.0
 34
0.0
 50
90.0
100
AcDbRotatedDimension
  0
DIMENSION
  5
1C1
330
17
100
AcDbEntity
  8
DIMENSION
100
AcDbDimension
  2
*D20
  3
Standard
 10
-37.0
 20
0.0
 30
0.0
 11
-37.0
 21
25.0
 31
0.0
 70
32
 71
5
  1
<>
100
AcDbAlignedDimension
 13
0.0
 23
0.0
 33
0.0
 14
0.0
 24
50.0
 34
0.0
 50
90.0
100
AcDbRotatedDimension
  0
DIMENSION
  5
1D1
330
17
100
AcDbEntity
  8
DIMENSION
100
AcDbDimension
  2
*D21
  3
Standard
 10
-49.0
 20
0.0
 30
0.0
 11
-49.0
 21
64.5
 31
0.0
 70
32
 71
5
  1
<>
100
AcDbAlignedDimension
 13
0.0
 23
0.0
 33
0.0
 14
0.0
 24
129.0
 34
0.0
 50
90.0
100
AcDbRotatedDimension
  0
DIMENSION
  5
1E1
330
17
100
AcDbEntity
  8
DIMENSION
100
AcDbDimension
  2
*D22
  3
Standard
 10
-61.0
 20
0.0
 30
0.0
 11
-61.0
 21
91.5
 31
0.0
 70
32
 71
5
  1
<>
100
AcDbAlignedDimension
 13
0.0
 23
0.0
 33
0.0
 14
0.0
 24
183.0
 34
0.0
 50
90.0
100
AcDbRotatedDimension
  0
DIMENSION
  5
1F1
330
17
100
AcDbEntity
  8
DIMENSION
100
AcDbDimension
  2
*D23
  3
Standard
 10
-73.0
 20
0.0
 30
0.0
 11
-73.0
 21
116.5
 31
0.0
 70
32
 71
5
  1
<>
100
AcDbAlignedDimension
 13
0.0
 23
0.0
 33
0.0
 14
0.0
 24
233.0
 34
0.0
 50
90.0
100
AcDbRotatedDimension
  0
DIMENSION
  5
201
330
17
100
AcDbEntity
  8
DIMENSION
100
AcDbDimension
  2
*D24
  3
Standard
 10
822.0
 20
233.0
 30
0.0
 11
820.875
 21
233.0
 31
0.0
 70
32
 71
5
  1
<>
100
AcDbAlignedDimension
 13
797.0
 23
233.0
 33
0.0
 14
797.0
 24
233.0
 34
0.0
 50
90.0
100
AcDbRotatedDimension
  0
DIMENSION
  5
212
330
17
100
AcDbEntity
  8
DIMENSION
100
AcDbDimension
  2
*D25
  3
Standard
 10
834.0
 20
233.0
 30
0.0
 11
834.0
 21
208.0
 31
0.0
 70
32
 71
5
  1
<>
100
AcDbAlignedDimension
 13
797.0
 23
233.0
 33
0.0
 14
797.0
 24
183.0
 34
0.0
 50
90.0
100
AcDbRotatedDimension
  0
DIMENSION
  5
222
330
17
100
AcDbEntity
  8
DIMENSION
100
AcDbDimension
  2
*D26
  3
Standard
 10
846.0
 20
233.0
 30
0.0
 11
846.0
 21
181.0
 31
0.0
 70
32
 71
5
  1
<>
100
AcDbAlignedDimension
 13
797.0
 23
233.0
 33
0.0
 14
797.0
 24
129.0
 34
0.0
 50
90.0
100
AcDbRotatedDimension
  0
DIMENSION
  5
232
330
17
100
AcDbEntity
  8
DIMENSION
100
AcDbDimension
  2
*D27
  3
Standard
 10
858.0
 20
233.0
 30
0.0
 11
858.0
 21
141.5
 31
0.0
 70
32
 71
5
  1
<>
100
AcDbAlignedDimension
 13
797.0
 23
233.0
 33
0.0
 14
797.0
 24
50.0
 34
0.0
 50
90.0
100
AcDbRotatedDimension
  0
DIMENSION
  5
242
330
17
100
AcDbEntity
  8
DIMENSION
100
AcDbDimension
  2
*D28
  3
Standard
 10
870.0
 20
233.0
 30
0.0
 11
870.0
 21
119.5
 31
0.0
 70
32
 71
5
  1
<>
100
AcDbAlignedDimension
 13
797.0
 23
233.0
 33
0.0
 14
797.0
 24
6.0
 34
0.0
 50
90.0
100
AcDbRotatedDimension
  0
TEXT
  5
252
330
17
100
AcDbEntity
  8
ANNOTATION
100
AcDbText
 10
0.0
 20
-20.0
 30
0.0
 40
5.0
  1
Legend:
100
AcDbText
  0
TEXT
  5
253
330
17
100
AcDbEntity
  8
ANNOTATION
100
AcDbText
 10
0.0
 20
-30.0
 30
0.0
 40
5.0
  1
- CUT layer (red): Panel outline
100
AcDbText
  0
TEXT
  5
254
330
17
100
AcDbEntity
  8
ANNOTATION
100
AcDbText
 10
0.0
 20
-40.0
 30
0.0
 40
5.0
  1
- DRILL layer (blue): Holes to be drilled
100
AcDbText
  0
TEXT
  5
255
330
17
100
AcDbEntity
  8
ANNOTATION
100
AcDbText
 10
0.0
 20
-50.0
 30
0.0
 40
5.0
  1
- DIMENSION layer (green): Panel and hole dimensions
100
AcDbText
  0
TEXT
  5
256
330
17
100
AcDbEntity
  8
ANNOTATION
100
AcDbText
 10
0.0
 20
-60.0
 30
0.0
 40
5.0
  1
- ANNOTATION layer (magenta): Hole dimensions (d=diameter, h=depth)
100
AcDbText
  0
ENDSEC
  0
SECTION
  2
OBJECTS
  0
DICTIONARY
  5
A
330
0
100
AcDbDictionary
281
1
  3
ACAD_COLOR
350
B
  3
ACAD_GROUP
350
C
  3
ACAD_LAYOUT
350
D
  3
ACAD_MATERIAL
350
E
  3
ACAD_MLEADERSTYLE
350
F
  3
ACAD_MLINESTYLE
350
10
  3
ACAD_PLOTSETTINGS
350
11
  3
ACAD_PLOTSTYLENAME
350
12
  3
ACAD_SCALELIST
350
14
  3
ACAD_TABLESTYLE
350
15
  3
ACAD_VISUALSTYLE
350
16
  3
EZDXF_META
350
2D
  0
DICTIONARY
  5
B
330
A
100
AcDbDictionary
281
1
  0
DICTIONARY
  5
C
330
A
100
AcDbDictionary
281
1
  0
DICTIONARY
  5
D
330
A
100
AcDbDictionary
281
1
  3
Model
350
1A
  3
Layout1
350
1E
  0
DICTIONARY
  5
E
330
A
100
AcDbDictionary
281
1
  3
ByBlock
350
1F
  3
ByLayer
350
20
  3
Global
350
21
  0
DICTIONARY
  5
F
330
A
100
AcDbDictionary
281
1
  3
Standard
350
2C
  0
DICTIONARY
  5
10
330
A
100
AcDbDictionary
281
1
  3
Standard
350
22
  0
DICTIONARY
  5
11
330
A
100
AcDbDictionary
281
1
  0
ACDBDICTIONARYWDFLT
  5
12
330
A
100
AcDbDictionary
281
1
  3
Normal
350
13
100
AcDbDictionaryWithDefault
340
13
  0
ACDBPLACEHOLDER
  5
13
330
12
  0
DICTIONARY
  5
14
330
A
100
AcDbDictionary
281
1
  0
DICTIONARY
  5
15
330
A
100
AcDbDictionary
281
1
  0
DICTIONARY
  5
16
330
A
100
AcDbDictionary
281
1
  0
LAYOUT
  5
1A
330
D
100
AcDbPlotSettings
  1

  4
A3
  6

 40
7.5
 41
20.0
 42
7.5
 43
20.0
 44
420.0
 45
297.0
 46
0.0
 47
0.0
 48
0.0
 49
0.0
140
0.0
141
0.0
142
1.0
143
1.0
 70
1024
 72
1
 73
0
 74
5
  7

 75
16
 76
0
 77
2
 78
300
147
1.0
148
0.0
149
0.0
100
AcDbLayout
  1
Model
 70
1
 71
0
 10
0.0
 20
0.0
 11
420.0
 21
297.0
 12
0.0
 22
0.0
 32
0.0
 14
1e+20
 24
1e+20
 34
1e+20
 15
-1e+20
 25
-1e+20
 35
-1e+20
146
0.0
 13
0.0
 23
0.0
 33
0.0
 16
1.0
 26
0.0
 36
0.0
 17
0.0
 27
1.0
 37
0.0
 76
1
330
17
  0
LAYOUT
  5
1E
330
D
100
AcDbPlotSettings
  1

  4
A3
  6

 40
7.5
 41
20.0
 42
7.5
 43
20.0
 44
420.0
 45
297.0
 46
0.0
 47
0.0
 48
0.0
 49
0.0
140
0.0
141
0.0
142
1.0
143
1.0
 70
0
 72
1
 73
0
 74
5
  7

 75
16
 76
0
 77
2
 78
300
147
1.0
148
0.0
149
0.0
100
AcDbLayout
  1
Layout1
 70
1
 71
1
 10
0.0
 20
0.0
 11
420.0
 21
297.0
 12
0.0
 22
0.0
 32
0.0
 14
1e+20
 24
1e+20
 34
1e+20
 15
-1e+20
 25
-1e+20
 35
-1e+20
146
0.0
 13
0.0
 23
0.0
 33
0.0
 16
1.0
 26
0.0
 36
0.0
 17
0.0
 27
1.0
 37
0.0
 76
1
330
1B
  0
MATERIAL
  5
1F
102
{ACAD_REACTORS
330
E
102
}
330
E
100
AcDbMaterial
  1
ByBlock
  2

 70
0
 40
1.0
 71
1
 41
1.0
 91
-1023410177
 42
1.0
 72
1
  3

 73
1
 74
1
 75
1
 44
0.5
 73
0
 45
1.0
 46
1.0
 77
1
  4

 78
1
 79
1
170
1
 48
1.0
171
1
  6

172
1
173
1
174
1
140
1.0
141
1.0
175
1
  7

176
1
177
1
178
1
143
1.0
179
1
  8

270
1
271
1
272
1
145
1.0
146
1.0
273
1
  9

274
1
275
1
276
1
 42
1.0
 72
1
  3

 73
1
 74
1
 75
1
 94
63
  0
MATERIAL
  5
20
102
{ACAD_REACTORS
330
E
102
}
330
E
100
AcDbMaterial
  1
ByLayer
  2

 70
0
 40
1.0
 71
1
 41
1.0
 91
-1023410177
 42
1.0
 72
1
  3

 73
1
 74
1
 75
1
 44
0.5
 73
0
 45
1.0
 46
1.0
 77
1
  4

 78
1
 79
1
170
1
 48
1.0
171
1
  6

172
1
173
1
174
1
140
1.0
141
1.0
175
1
  7

176
1
177
1
178
1
143
1.0
179
1
  8

270
1
271
1
272
1
145
1.0
146
1.0
273
1
  9

274
1
275
1
276
1
 42
1.0
 72
1
  3

 73
1
 74
1
 75
1
 94
63
  0
MATERIAL
  5
21
102
{ACAD_REACTORS
330
E
102
}
330
E
100
AcDbMaterial
  1
Global
  2

 70
0
 40
1.0
 71
1
 41
1.0
 91
-1023410177
 42
1.0
 72
1
  3

 73
1
 74
1
 75
1
 44
0.5
 73
0
 45
1.0
 46
1.0
 77
1
  4

 78
1
 79
1
170
1
 48
1.0
171
1
  6

172
1
173
1
174
1
140
1.0
141
1.0
175
1
  7

176
1
177
1
178
1
143
1.0
179
1
  8

270
1
271
1
272
1
145
1.0
146
1.0
273
1
  9

274
1
275
1
276
1
 42
1.0
 72
1
  3

 73
1
 74
1
 75
1
 94
63
  0
MLINESTYLE
  5
22
102
{ACAD_REACTORS
330
10
102
}
330
10
100
AcDbMlineStyle
  2
Standard
 70
0
  3

 62
256
 51
90.0
 52
90.0
 71
2
 49
0.5
 62
256
  6
BYLAYER
 49
-0.5
 62
256
  6
BYLAYER
  0
MLEADERSTYLE
  5
2C
102
{ACAD_REACTORS
330
F
102
}
330
F
100
AcDbMLeaderStyle
179
2
170
2
171
1
172
0
 90
2
 40
0.0
 41
0.0
173
1
 91
-1056964608
 92
-2
290
1
 42
2.0
291
1
 43
8.0
  3
Standard
 44
4.0
300

342
29
174
1
175
1
176
0
178
1
 93
-1056964608
 45
4.0
292
0
297
0
 46
4.0
 94
-1056964608
 47
1.0
 49
1.0
140
1.0
294
1
141
0.0
177
0
142
1.0
295
0
296
0
143
3.75
271
0
272
9
273
9
  0
DICTIONARY
  5
2D
330
A
100
AcDbDictionary
280
1
281
1
  3
CREATED_BY_EZDXF
350
2E
  3
WRITTEN_BY_EZDXF
350
259
  0
DICTIONARYVAR
  5
2E
330
2D
100
DictionaryVariables
280
0
  1
1.4.2 @ 2025-08-24T05:45:38.891478+00:00
  0
DICTIONARYVAR
  5
259
330
2D
100
DictionaryVariables
280
0
  1
1.4.2 @ 2025-08-24T05:45:38.938707+00:00
  0
ENDSEC
  0
EOF
