<?xml version="1.0" standalone="no"?>
<!DOCTYPE svg PUBLIC "-//W3C//DTD SVG 1.1//EN" "http://www.w3.org/Graphics/SVG/1.1/DTD/svg11.dtd">
<svg width="2300mm" height="230mm" viewBox="0 -230 2300 230" xmlns="http://www.w3.org/2000/svg" version="1.1">
<title>OpenSCAD Model</title>
<path d="
M 0,-0 L 2300,-0 L 2300,-230 L 0,-230 z
M 7.5,-50 L 7.65224,-50.7654 L 8.08579,-51.4142 L 8.73463,-51.8478 L 9.5,-52 L 10.2654,-51.8478
 L 10.9142,-51.4142 L 11.3478,-50.7654 L 11.5,-50 L 11.3478,-49.2346 L 10.9142,-48.5858 L 10.2654,-48.1522
 L 9.5,-48 L 8.73463,-48.1522 L 8.08579,-48.5858 L 7.65224,-49.2346 z
M 7.5,-180 L 7.65224,-180.765 L 8.08579,-181.414 L 8.73463,-181.848 L 9.5,-182 L 10.2654,-181.848
 L 10.9142,-181.414 L 11.3478,-180.765 L 11.5,-180 L 11.3478,-179.235 L 10.9142,-178.586 L 10.2654,-178.152
 L 9.5,-178 L 8.73463,-178.152 L 8.08579,-178.586 L 7.65224,-179.235 z
M 100.25,-6.5 L 100.345,-6.97835 L 100.616,-7.38388 L 101.022,-7.65485 L 101.5,-7.75 L 101.978,-7.65485
 L 102.384,-7.38388 L 102.655,-6.97835 L 102.75,-6.5 L 102.655,-6.02165 L 102.384,-5.61612 L 101.978,-5.34515
 L 101.5,-5.25 L 101.022,-5.34515 L 100.616,-5.61612 L 100.345,-6.02165 z
M 100.25,-35 L 100.345,-35.4784 L 100.616,-35.8839 L 101.022,-36.1548 L 101.5,-36.25 L 101.978,-36.1548
 L 102.384,-35.8839 L 102.655,-35.4784 L 102.75,-35 L 102.655,-34.5216 L 102.384,-34.1161 L 101.978,-33.8451
 L 101.5,-33.75 L 101.022,-33.8451 L 100.616,-34.1161 L 100.345,-34.5216 z
M 100.25,-51 L 100.345,-51.4784 L 100.616,-51.8839 L 101.022,-52.1548 L 101.5,-52.25 L 101.978,-52.1548
 L 102.384,-51.8839 L 102.655,-51.4784 L 102.75,-51 L 102.655,-50.5216 L 102.384,-50.1161 L 101.978,-49.8451
 L 101.5,-49.75 L 101.022,-49.8451 L 100.616,-50.1161 L 100.345,-50.5216 z
M 100.25,-76 L 100.345,-76.4784 L 100.616,-76.8839 L 101.022,-77.1548 L 101.5,-77.25 L 101.978,-77.1548
 L 102.384,-76.8839 L 102.655,-76.4784 L 102.75,-76 L 102.655,-75.5216 L 102.384,-75.1161 L 101.978,-74.8451
 L 101.5,-74.75 L 101.022,-74.8451 L 100.616,-75.1161 L 100.345,-75.5216 z
M 100.25,-99 L 100.345,-99.4784 L 100.616,-99.8839 L 101.022,-100.155 L 101.5,-100.25 L 101.978,-100.155
 L 102.384,-99.8839 L 102.655,-99.4784 L 102.75,-99 L 102.655,-98.5216 L 102.384,-98.1161 L 101.978,-97.8451
 L 101.5,-97.75 L 101.022,-97.8451 L 100.616,-98.1161 L 100.345,-98.5216 z
M 100.25,-115 L 100.345,-115.478 L 100.616,-115.884 L 101.022,-116.155 L 101.5,-116.25 L 101.978,-116.155
 L 102.384,-115.884 L 102.655,-115.478 L 102.75,-115 L 102.655,-114.522 L 102.384,-114.116 L 101.978,-113.845
 L 101.5,-113.75 L 101.022,-113.845 L 100.616,-114.116 L 100.345,-114.522 z
M 310.25,-6.5 L 310.345,-6.97835 L 310.616,-7.38388 L 311.022,-7.65485 L 311.5,-7.75 L 311.978,-7.65485
 L 312.384,-7.38388 L 312.655,-6.97835 L 312.75,-6.5 L 312.655,-6.02165 L 312.384,-5.61612 L 311.978,-5.34515
 L 311.5,-5.25 L 311.022,-5.34515 L 310.616,-5.61612 L 310.345,-6.02165 z
M 310.25,-35 L 310.345,-35.4784 L 310.616,-35.8839 L 311.022,-36.1548 L 311.5,-36.25 L 311.978,-36.1548
 L 312.384,-35.8839 L 312.655,-35.4784 L 312.75,-35 L 312.655,-34.5216 L 312.384,-34.1161 L 311.978,-33.8451
 L 311.5,-33.75 L 311.022,-33.8451 L 310.616,-34.1161 L 310.345,-34.5216 z
M 310.25,-51 L 310.345,-51.4784 L 310.616,-51.8839 L 311.022,-52.1548 L 311.5,-52.25 L 311.978,-52.1548
 L 312.384,-51.8839 L 312.655,-51.4784 L 312.75,-51 L 312.655,-50.5216 L 312.384,-50.1161 L 311.978,-49.8451
 L 311.5,-49.75 L 311.022,-49.8451 L 310.616,-50.1161 L 310.345,-50.5216 z
M 310.25,-76 L 310.345,-76.4784 L 310.616,-76.8839 L 311.022,-77.1548 L 311.5,-77.25 L 311.978,-77.1548
 L 312.384,-76.8839 L 312.655,-76.4784 L 312.75,-76 L 312.655,-75.5216 L 312.384,-75.1161 L 311.978,-74.8451
 L 311.5,-74.75 L 311.022,-74.8451 L 310.616,-75.1161 L 310.345,-75.5216 z
M 310.25,-99 L 310.345,-99.4784 L 310.616,-99.8839 L 311.022,-100.155 L 311.5,-100.25 L 311.978,-100.155
 L 312.384,-99.8839 L 312.655,-99.4784 L 312.75,-99 L 312.655,-98.5216 L 312.384,-98.1161 L 311.978,-97.8451
 L 311.5,-97.75 L 311.022,-97.8451 L 310.616,-98.1161 L 310.345,-98.5216 z
M 310.25,-115 L 310.345,-115.478 L 310.616,-115.884 L 311.022,-116.155 L 311.5,-116.25 L 311.978,-116.155
 L 312.384,-115.884 L 312.655,-115.478 L 312.75,-115 L 312.655,-114.522 L 312.384,-114.116 L 311.978,-113.845
 L 311.5,-113.75 L 311.022,-113.845 L 310.616,-114.116 L 310.345,-114.522 z
M 520.25,-6.5 L 520.345,-6.97835 L 520.616,-7.38388 L 521.022,-7.65485 L 521.5,-7.75 L 521.978,-7.65485
 L 522.384,-7.38388 L 522.655,-6.97835 L 522.75,-6.5 L 522.655,-6.02165 L 522.384,-5.61612 L 521.978,-5.34515
 L 521.5,-5.25 L 521.022,-5.34515 L 520.616,-5.61612 L 520.345,-6.02165 z
M 520.25,-35 L 520.345,-35.4784 L 520.616,-35.8839 L 521.022,-36.1548 L 521.5,-36.25 L 521.978,-36.1548
 L 522.384,-35.8839 L 522.655,-35.4784 L 522.75,-35 L 522.655,-34.5216 L 522.384,-34.1161 L 521.978,-33.8451
 L 521.5,-33.75 L 521.022,-33.8451 L 520.616,-34.1161 L 520.345,-34.5216 z
M 520.25,-51 L 520.345,-51.4784 L 520.616,-51.8839 L 521.022,-52.1548 L 521.5,-52.25 L 521.978,-52.1548
 L 522.384,-51.8839 L 522.655,-51.4784 L 522.75,-51 L 522.655,-50.5216 L 522.384,-50.1161 L 521.978,-49.8451
 L 521.5,-49.75 L 521.022,-49.8451 L 520.616,-50.1161 L 520.345,-50.5216 z
M 520.25,-76 L 520.345,-76.4784 L 520.616,-76.8839 L 521.022,-77.1548 L 521.5,-77.25 L 521.978,-77.1548
 L 522.384,-76.8839 L 522.655,-76.4784 L 522.75,-76 L 522.655,-75.5216 L 522.384,-75.1161 L 521.978,-74.8451
 L 521.5,-74.75 L 521.022,-74.8451 L 520.616,-75.1161 L 520.345,-75.5216 z
M 520.25,-99 L 520.345,-99.4784 L 520.616,-99.8839 L 521.022,-100.155 L 521.5,-100.25 L 521.978,-100.155
 L 522.384,-99.8839 L 522.655,-99.4784 L 522.75,-99 L 522.655,-98.5216 L 522.384,-98.1161 L 521.978,-97.8451
 L 521.5,-97.75 L 521.022,-97.8451 L 520.616,-98.1161 L 520.345,-98.5216 z
M 520.25,-115 L 520.345,-115.478 L 520.616,-115.884 L 521.022,-116.155 L 521.5,-116.25 L 521.978,-116.155
 L 522.384,-115.884 L 522.655,-115.478 L 522.75,-115 L 522.655,-114.522 L 522.384,-114.116 L 521.978,-113.845
 L 521.5,-113.75 L 521.022,-113.845 L 520.616,-114.116 L 520.345,-114.522 z
M 730.25,-6.5 L 730.345,-6.97835 L 730.616,-7.38388 L 731.022,-7.65485 L 731.5,-7.75 L 731.978,-7.65485
 L 732.384,-7.38388 L 732.655,-6.97835 L 732.75,-6.5 L 732.655,-6.02165 L 732.384,-5.61612 L 731.978,-5.34515
 L 731.5,-5.25 L 731.022,-5.34515 L 730.616,-5.61612 L 730.345,-6.02165 z
M 730.25,-35 L 730.345,-35.4784 L 730.616,-35.8839 L 731.022,-36.1548 L 731.5,-36.25 L 731.978,-36.1548
 L 732.384,-35.8839 L 732.655,-35.4784 L 732.75,-35 L 732.655,-34.5216 L 732.384,-34.1161 L 731.978,-33.8451
 L 731.5,-33.75 L 731.022,-33.8451 L 730.616,-34.1161 L 730.345,-34.5216 z
M 730.25,-51 L 730.345,-51.4784 L 730.616,-51.8839 L 731.022,-52.1548 L 731.5,-52.25 L 731.978,-52.1548
 L 732.384,-51.8839 L 732.655,-51.4784 L 732.75,-51 L 732.655,-50.5216 L 732.384,-50.1161 L 731.978,-49.8451
 L 731.5,-49.75 L 731.022,-49.8451 L 730.616,-50.1161 L 730.345,-50.5216 z
M 730.25,-76 L 730.345,-76.4784 L 730.616,-76.8839 L 731.022,-77.1548 L 731.5,-77.25 L 731.978,-77.1548
 L 732.384,-76.8839 L 732.655,-76.4784 L 732.75,-76 L 732.655,-75.5216 L 732.384,-75.1161 L 731.978,-74.8451
 L 731.5,-74.75 L 731.022,-74.8451 L 730.616,-75.1161 L 730.345,-75.5216 z
M 730.25,-99 L 730.345,-99.4784 L 730.616,-99.8839 L 731.022,-100.155 L 731.5,-100.25 L 731.978,-100.155
 L 732.384,-99.8839 L 732.655,-99.4784 L 732.75,-99 L 732.655,-98.5216 L 732.384,-98.1161 L 731.978,-97.8451
 L 731.5,-97.75 L 731.022,-97.8451 L 730.616,-98.1161 L 730.345,-98.5216 z
M 730.25,-115 L 730.345,-115.478 L 730.616,-115.884 L 731.022,-116.155 L 731.5,-116.25 L 731.978,-116.155
 L 732.384,-115.884 L 732.655,-115.478 L 732.75,-115 L 732.655,-114.522 L 732.384,-114.116 L 731.978,-113.845
 L 731.5,-113.75 L 731.022,-113.845 L 730.616,-114.116 L 730.345,-114.522 z
M 940.25,-6.5 L 940.345,-6.97835 L 940.616,-7.38388 L 941.022,-7.65485 L 941.5,-7.75 L 941.978,-7.65485
 L 942.384,-7.38388 L 942.655,-6.97835 L 942.75,-6.5 L 942.655,-6.02165 L 942.384,-5.61612 L 941.978,-5.34515
 L 941.5,-5.25 L 941.022,-5.34515 L 940.616,-5.61612 L 940.345,-6.02165 z
M 940.25,-35 L 940.345,-35.4784 L 940.616,-35.8839 L 941.022,-36.1548 L 941.5,-36.25 L 941.978,-36.1548
 L 942.384,-35.8839 L 942.655,-35.4784 L 942.75,-35 L 942.655,-34.5216 L 942.384,-34.1161 L 941.978,-33.8451
 L 941.5,-33.75 L 941.022,-33.8451 L 940.616,-34.1161 L 940.345,-34.5216 z
M 940.25,-51 L 940.345,-51.4784 L 940.616,-51.8839 L 941.022,-52.1548 L 941.5,-52.25 L 941.978,-52.1548
 L 942.384,-51.8839 L 942.655,-51.4784 L 942.75,-51 L 942.655,-50.5216 L 942.384,-50.1161 L 941.978,-49.8451
 L 941.5,-49.75 L 941.022,-49.8451 L 940.616,-50.1161 L 940.345,-50.5216 z
M 940.25,-76 L 940.345,-76.4784 L 940.616,-76.8839 L 941.022,-77.1548 L 941.5,-77.25 L 941.978,-77.1548
 L 942.384,-76.8839 L 942.655,-76.4784 L 942.75,-76 L 942.655,-75.5216 L 942.384,-75.1161 L 941.978,-74.8451
 L 941.5,-74.75 L 941.022,-74.8451 L 940.616,-75.1161 L 940.345,-75.5216 z
M 940.25,-99 L 940.345,-99.4784 L 940.616,-99.8839 L 941.022,-100.155 L 941.5,-100.25 L 941.978,-100.155
 L 942.384,-99.8839 L 942.655,-99.4784 L 942.75,-99 L 942.655,-98.5216 L 942.384,-98.1161 L 941.978,-97.8451
 L 941.5,-97.75 L 941.022,-97.8451 L 940.616,-98.1161 L 940.345,-98.5216 z
M 940.25,-115 L 940.345,-115.478 L 940.616,-115.884 L 941.022,-116.155 L 941.5,-116.25 L 941.978,-116.155
 L 942.384,-115.884 L 942.655,-115.478 L 942.75,-115 L 942.655,-114.522 L 942.384,-114.116 L 941.978,-113.845
 L 941.5,-113.75 L 941.022,-113.845 L 940.616,-114.116 L 940.345,-114.522 z
M 1150.25,-6.5 L 1150.35,-6.97835 L 1150.62,-7.38388 L 1151.02,-7.65485 L 1151.5,-7.75 L 1151.98,-7.65485
 L 1152.38,-7.38388 L 1152.65,-6.97835 L 1152.75,-6.5 L 1152.65,-6.02165 L 1152.38,-5.61612 L 1151.98,-5.34515
 L 1151.5,-5.25 L 1151.02,-5.34515 L 1150.62,-5.61612 L 1150.35,-6.02165 z
M 1150.25,-35 L 1150.35,-35.4784 L 1150.62,-35.8839 L 1151.02,-36.1548 L 1151.5,-36.25 L 1151.98,-36.1548
 L 1152.38,-35.8839 L 1152.65,-35.4784 L 1152.75,-35 L 1152.65,-34.5216 L 1152.38,-34.1161 L 1151.98,-33.8451
 L 1151.5,-33.75 L 1151.02,-33.8451 L 1150.62,-34.1161 L 1150.35,-34.5216 z
M 1150.25,-51 L 1150.35,-51.4784 L 1150.62,-51.8839 L 1151.02,-52.1548 L 1151.5,-52.25 L 1151.98,-52.1548
 L 1152.38,-51.8839 L 1152.65,-51.4784 L 1152.75,-51 L 1152.65,-50.5216 L 1152.38,-50.1161 L 1151.98,-49.8451
 L 1151.5,-49.75 L 1151.02,-49.8451 L 1150.62,-50.1161 L 1150.35,-50.5216 z
M 1150.25,-76 L 1150.35,-76.4784 L 1150.62,-76.8839 L 1151.02,-77.1548 L 1151.5,-77.25 L 1151.98,-77.1548
 L 1152.38,-76.8839 L 1152.65,-76.4784 L 1152.75,-76 L 1152.65,-75.5216 L 1152.38,-75.1161 L 1151.98,-74.8451
 L 1151.5,-74.75 L 1151.02,-74.8451 L 1150.62,-75.1161 L 1150.35,-75.5216 z
M 1150.25,-99 L 1150.35,-99.4784 L 1150.62,-99.8839 L 1151.02,-100.155 L 1151.5,-100.25 L 1151.98,-100.155
 L 1152.38,-99.8839 L 1152.65,-99.4784 L 1152.75,-99 L 1152.65,-98.5216 L 1152.38,-98.1161 L 1151.98,-97.8451
 L 1151.5,-97.75 L 1151.02,-97.8451 L 1150.62,-98.1161 L 1150.35,-98.5216 z
M 1150.25,-115 L 1150.35,-115.478 L 1150.62,-115.884 L 1151.02,-116.155 L 1151.5,-116.25 L 1151.98,-116.155
 L 1152.38,-115.884 L 1152.65,-115.478 L 1152.75,-115 L 1152.65,-114.522 L 1152.38,-114.116 L 1151.98,-113.845
 L 1151.5,-113.75 L 1151.02,-113.845 L 1150.62,-114.116 L 1150.35,-114.522 z
M 1296.5,-50 L 1296.65,-50.7654 L 1297.09,-51.4142 L 1297.73,-51.8478 L 1298.5,-52 L 1299.27,-51.8478
 L 1299.91,-51.4142 L 1300.35,-50.7654 L 1300.5,-50 L 1300.35,-49.2346 L 1299.91,-48.5858 L 1299.27,-48.1522
 L 1298.5,-48 L 1297.73,-48.1522 L 1297.09,-48.5858 L 1296.65,-49.2346 z
M 1296.5,-180 L 1296.65,-180.765 L 1297.09,-181.414 L 1297.73,-181.848 L 1298.5,-182 L 1299.27,-181.848
 L 1299.91,-181.414 L 1300.35,-180.765 L 1300.5,-180 L 1300.35,-179.235 L 1299.91,-178.586 L 1299.27,-178.152
 L 1298.5,-178 L 1297.73,-178.152 L 1297.09,-178.586 L 1296.65,-179.235 z
M 1627.17,-50 L 1627.32,-50.7654 L 1627.75,-51.4142 L 1628.4,-51.8478 L 1629.17,-52 L 1629.93,-51.8478
 L 1630.58,-51.4142 L 1631.01,-50.7654 L 1631.17,-50 L 1631.01,-49.2346 L 1630.58,-48.5858 L 1629.93,-48.1522
 L 1629.17,-48 L 1628.4,-48.1522 L 1627.75,-48.5858 L 1627.32,-49.2346 z
M 1627.17,-180 L 1627.32,-180.765 L 1627.75,-181.414 L 1628.4,-181.848 L 1629.17,-182 L 1629.93,-181.848
 L 1630.58,-181.414 L 1631.01,-180.765 L 1631.17,-180 L 1631.01,-179.235 L 1630.58,-178.586 L 1629.93,-178.152
 L 1629.17,-178 L 1628.4,-178.152 L 1627.75,-178.586 L 1627.32,-179.235 z
M 1957.83,-50 L 1957.99,-50.7654 L 1958.42,-51.4142 L 1959.07,-51.8478 L 1959.83,-52 L 1960.6,-51.8478
 L 1961.25,-51.4142 L 1961.68,-50.7654 L 1961.83,-50 L 1961.68,-49.2346 L 1961.25,-48.5858 L 1960.6,-48.1522
 L 1959.83,-48 L 1959.07,-48.1522 L 1958.42,-48.5858 L 1957.99,-49.2346 z
M 1957.83,-180 L 1957.99,-180.765 L 1958.42,-181.414 L 1959.07,-181.848 L 1959.83,-182 L 1960.6,-181.848
 L 1961.25,-181.414 L 1961.68,-180.765 L 1961.83,-180 L 1961.68,-179.235 L 1961.25,-178.586 L 1960.6,-178.152
 L 1959.83,-178 L 1959.07,-178.152 L 1958.42,-178.586 L 1957.99,-179.235 z
M 2288.5,-50 L 2288.65,-50.7654 L 2289.09,-51.4142 L 2289.73,-51.8478 L 2290.5,-52 L 2291.27,-51.8478
 L 2291.91,-51.4142 L 2292.35,-50.7654 L 2292.5,-50 L 2292.35,-49.2346 L 2291.91,-48.5858 L 2291.27,-48.1522
 L 2290.5,-48 L 2289.73,-48.1522 L 2289.09,-48.5858 L 2288.65,-49.2346 z
M 2288.5,-180 L 2288.65,-180.765 L 2289.09,-181.414 L 2289.73,-181.848 L 2290.5,-182 L 2291.27,-181.848
 L 2291.91,-181.414 L 2292.35,-180.765 L 2292.5,-180 L 2292.35,-179.235 L 2291.91,-178.586 L 2291.27,-178.152
 L 2290.5,-178 L 2289.73,-178.152 L 2289.09,-178.586 L 2288.65,-179.235 z
" stroke="black" fill="lightgray" stroke-width="0.5"/>
</svg>
