<?xml version="1.0" standalone="no"?>
<!DOCTYPE svg PUBLIC "-//W3C//DTD SVG 1.1//EN" "http://www.w3.org/Graphics/SVG/1.1/DTD/svg11.dtd">
<svg width="2300mm" height="230mm" viewBox="0 -230 2300 230" xmlns="http://www.w3.org/2000/svg" version="1.1">
<title>OpenSCAD Model</title>
<path d="
M 0,-0 L 2300,-0 L 2300,-230 L 0,-230 z
M 7.5,-50 L 7.65224,-50.7654 L 8.08579,-51.4142 L 8.73463,-51.8478 L 9.5,-52 L 10.2654,-51.8478
 L 10.9142,-51.4142 L 11.3478,-50.7654 L 11.5,-50 L 11.3478,-49.2346 L 10.9142,-48.5858 L 10.2654,-48.1522
 L 9.5,-48 L 8.73463,-48.1522 L 8.08579,-48.5858 L 7.65224,-49.2346 z
M 7.5,-180 L 7.65224,-180.765 L 8.08579,-181.414 L 8.73463,-181.848 L 9.5,-182 L 10.2654,-181.848
 L 10.9142,-181.414 L 11.3478,-180.765 L 11.5,-180 L 11.3478,-179.235 L 10.9142,-178.586 L 10.2654,-178.152
 L 9.5,-178 L 8.73463,-178.152 L 8.08579,-178.586 L 7.65224,-179.235 z
M 338.167,-50 L 338.319,-50.7654 L 338.752,-51.4142 L 339.401,-51.8478 L 340.167,-52 L 340.932,-51.8478
 L 341.581,-51.4142 L 342.014,-50.7654 L 342.167,-50 L 342.014,-49.2346 L 341.581,-48.5858 L 340.932,-48.1522
 L 340.167,-48 L 339.401,-48.1522 L 338.752,-48.5858 L 338.319,-49.2346 z
M 338.167,-180 L 338.319,-180.765 L 338.752,-181.414 L 339.401,-181.848 L 340.167,-182 L 340.932,-181.848
 L 341.581,-181.414 L 342.014,-180.765 L 342.167,-180 L 342.014,-179.235 L 341.581,-178.586 L 340.932,-178.152
 L 340.167,-178 L 339.401,-178.152 L 338.752,-178.586 L 338.319,-179.235 z
M 668.833,-50 L 668.986,-50.7654 L 669.419,-51.4142 L 670.068,-51.8478 L 670.833,-52 L 671.599,-51.8478
 L 672.248,-51.4142 L 672.681,-50.7654 L 672.833,-50 L 672.681,-49.2346 L 672.248,-48.5858 L 671.599,-48.1522
 L 670.833,-48 L 670.068,-48.1522 L 669.419,-48.5858 L 668.986,-49.2346 z
M 668.833,-180 L 668.986,-180.765 L 669.419,-181.414 L 670.068,-181.848 L 670.833,-182 L 671.599,-181.848
 L 672.248,-181.414 L 672.681,-180.765 L 672.833,-180 L 672.681,-179.235 L 672.248,-178.586 L 671.599,-178.152
 L 670.833,-178 L 670.068,-178.152 L 669.419,-178.586 L 668.986,-179.235 z
M 999.5,-50 L 999.652,-50.7654 L 1000.09,-51.4142 L 1000.73,-51.8478 L 1001.5,-52 L 1002.27,-51.8478
 L 1002.91,-51.4142 L 1003.35,-50.7654 L 1003.5,-50 L 1003.35,-49.2346 L 1002.91,-48.5858 L 1002.27,-48.1522
 L 1001.5,-48 L 1000.73,-48.1522 L 1000.09,-48.5858 L 999.652,-49.2346 z
M 999.5,-180 L 999.652,-180.765 L 1000.09,-181.414 L 1000.73,-181.848 L 1001.5,-182 L 1002.27,-181.848
 L 1002.91,-181.414 L 1003.35,-180.765 L 1003.5,-180 L 1003.35,-179.235 L 1002.91,-178.586 L 1002.27,-178.152
 L 1001.5,-178 L 1000.73,-178.152 L 1000.09,-178.586 L 999.652,-179.235 z
M 1147.25,-6.5 L 1147.35,-6.97835 L 1147.62,-7.38388 L 1148.02,-7.65485 L 1148.5,-7.75 L 1148.98,-7.65485
 L 1149.38,-7.38388 L 1149.65,-6.97835 L 1149.75,-6.5 L 1149.65,-6.02165 L 1149.38,-5.61612 L 1148.98,-5.34515
 L 1148.5,-5.25 L 1148.02,-5.34515 L 1147.62,-5.61612 L 1147.35,-6.02165 z
M 1147.25,-35 L 1147.35,-35.4784 L 1147.62,-35.8839 L 1148.02,-36.1548 L 1148.5,-36.25 L 1148.98,-36.1548
 L 1149.38,-35.8839 L 1149.65,-35.4784 L 1149.75,-35 L 1149.65,-34.5216 L 1149.38,-34.1161 L 1148.98,-33.8451
 L 1148.5,-33.75 L 1148.02,-33.8451 L 1147.62,-34.1161 L 1147.35,-34.5216 z
M 1147.25,-51 L 1147.35,-51.4784 L 1147.62,-51.8839 L 1148.02,-52.1548 L 1148.5,-52.25 L 1148.98,-52.1548
 L 1149.38,-51.8839 L 1149.65,-51.4784 L 1149.75,-51 L 1149.65,-50.5216 L 1149.38,-50.1161 L 1148.98,-49.8451
 L 1148.5,-49.75 L 1148.02,-49.8451 L 1147.62,-50.1161 L 1147.35,-50.5216 z
M 1147.25,-76 L 1147.35,-76.4784 L 1147.62,-76.8839 L 1148.02,-77.1548 L 1148.5,-77.25 L 1148.98,-77.1548
 L 1149.38,-76.8839 L 1149.65,-76.4784 L 1149.75,-76 L 1149.65,-75.5216 L 1149.38,-75.1161 L 1148.98,-74.8451
 L 1148.5,-74.75 L 1148.02,-74.8451 L 1147.62,-75.1161 L 1147.35,-75.5216 z
M 1147.25,-99 L 1147.35,-99.4784 L 1147.62,-99.8839 L 1148.02,-100.155 L 1148.5,-100.25 L 1148.98,-100.155
 L 1149.38,-99.8839 L 1149.65,-99.4784 L 1149.75,-99 L 1149.65,-98.5216 L 1149.38,-98.1161 L 1148.98,-97.8451
 L 1148.5,-97.75 L 1148.02,-97.8451 L 1147.62,-98.1161 L 1147.35,-98.5216 z
M 1147.25,-115 L 1147.35,-115.478 L 1147.62,-115.884 L 1148.02,-116.155 L 1148.5,-116.25 L 1148.98,-116.155
 L 1149.38,-115.884 L 1149.65,-115.478 L 1149.75,-115 L 1149.65,-114.522 L 1149.38,-114.116 L 1148.98,-113.845
 L 1148.5,-113.75 L 1148.02,-113.845 L 1147.62,-114.116 L 1147.35,-114.522 z
M 1357.25,-6.5 L 1357.35,-6.97835 L 1357.62,-7.38388 L 1358.02,-7.65485 L 1358.5,-7.75 L 1358.98,-7.65485
 L 1359.38,-7.38388 L 1359.65,-6.97835 L 1359.75,-6.5 L 1359.65,-6.02165 L 1359.38,-5.61612 L 1358.98,-5.34515
 L 1358.5,-5.25 L 1358.02,-5.34515 L 1357.62,-5.61612 L 1357.35,-6.02165 z
M 1357.25,-35 L 1357.35,-35.4784 L 1357.62,-35.8839 L 1358.02,-36.1548 L 1358.5,-36.25 L 1358.98,-36.1548
 L 1359.38,-35.8839 L 1359.65,-35.4784 L 1359.75,-35 L 1359.65,-34.5216 L 1359.38,-34.1161 L 1358.98,-33.8451
 L 1358.5,-33.75 L 1358.02,-33.8451 L 1357.62,-34.1161 L 1357.35,-34.5216 z
M 1357.25,-51 L 1357.35,-51.4784 L 1357.62,-51.8839 L 1358.02,-52.1548 L 1358.5,-52.25 L 1358.98,-52.1548
 L 1359.38,-51.8839 L 1359.65,-51.4784 L 1359.75,-51 L 1359.65,-50.5216 L 1359.38,-50.1161 L 1358.98,-49.8451
 L 1358.5,-49.75 L 1358.02,-49.8451 L 1357.62,-50.1161 L 1357.35,-50.5216 z
M 1357.25,-76 L 1357.35,-76.4784 L 1357.62,-76.8839 L 1358.02,-77.1548 L 1358.5,-77.25 L 1358.98,-77.1548
 L 1359.38,-76.8839 L 1359.65,-76.4784 L 1359.75,-76 L 1359.65,-75.5216 L 1359.38,-75.1161 L 1358.98,-74.8451
 L 1358.5,-74.75 L 1358.02,-74.8451 L 1357.62,-75.1161 L 1357.35,-75.5216 z
M 1357.25,-99 L 1357.35,-99.4784 L 1357.62,-99.8839 L 1358.02,-100.155 L 1358.5,-100.25 L 1358.98,-100.155
 L 1359.38,-99.8839 L 1359.65,-99.4784 L 1359.75,-99 L 1359.65,-98.5216 L 1359.38,-98.1161 L 1358.98,-97.8451
 L 1358.5,-97.75 L 1358.02,-97.8451 L 1357.62,-98.1161 L 1357.35,-98.5216 z
M 1357.25,-115 L 1357.35,-115.478 L 1357.62,-115.884 L 1358.02,-116.155 L 1358.5,-116.25 L 1358.98,-116.155
 L 1359.38,-115.884 L 1359.65,-115.478 L 1359.75,-115 L 1359.65,-114.522 L 1359.38,-114.116 L 1358.98,-113.845
 L 1358.5,-113.75 L 1358.02,-113.845 L 1357.62,-114.116 L 1357.35,-114.522 z
M 1567.25,-6.5 L 1567.35,-6.97835 L 1567.62,-7.38388 L 1568.02,-7.65485 L 1568.5,-7.75 L 1568.98,-7.65485
 L 1569.38,-7.38388 L 1569.65,-6.97835 L 1569.75,-6.5 L 1569.65,-6.02165 L 1569.38,-5.61612 L 1568.98,-5.34515
 L 1568.5,-5.25 L 1568.02,-5.34515 L 1567.62,-5.61612 L 1567.35,-6.02165 z
M 1567.25,-35 L 1567.35,-35.4784 L 1567.62,-35.8839 L 1568.02,-36.1548 L 1568.5,-36.25 L 1568.98,-36.1548
 L 1569.38,-35.8839 L 1569.65,-35.4784 L 1569.75,-35 L 1569.65,-34.5216 L 1569.38,-34.1161 L 1568.98,-33.8451
 L 1568.5,-33.75 L 1568.02,-33.8451 L 1567.62,-34.1161 L 1567.35,-34.5216 z
M 1567.25,-51 L 1567.35,-51.4784 L 1567.62,-51.8839 L 1568.02,-52.1548 L 1568.5,-52.25 L 1568.98,-52.1548
 L 1569.38,-51.8839 L 1569.65,-51.4784 L 1569.75,-51 L 1569.65,-50.5216 L 1569.38,-50.1161 L 1568.98,-49.8451
 L 1568.5,-49.75 L 1568.02,-49.8451 L 1567.62,-50.1161 L 1567.35,-50.5216 z
M 1567.25,-76 L 1567.35,-76.4784 L 1567.62,-76.8839 L 1568.02,-77.1548 L 1568.5,-77.25 L 1568.98,-77.1548
 L 1569.38,-76.8839 L 1569.65,-76.4784 L 1569.75,-76 L 1569.65,-75.5216 L 1569.38,-75.1161 L 1568.98,-74.8451
 L 1568.5,-74.75 L 1568.02,-74.8451 L 1567.62,-75.1161 L 1567.35,-75.5216 z
M 1567.25,-99 L 1567.35,-99.4784 L 1567.62,-99.8839 L 1568.02,-100.155 L 1568.5,-100.25 L 1568.98,-100.155
 L 1569.38,-99.8839 L 1569.65,-99.4784 L 1569.75,-99 L 1569.65,-98.5216 L 1569.38,-98.1161 L 1568.98,-97.8451
 L 1568.5,-97.75 L 1568.02,-97.8451 L 1567.62,-98.1161 L 1567.35,-98.5216 z
M 1567.25,-115 L 1567.35,-115.478 L 1567.62,-115.884 L 1568.02,-116.155 L 1568.5,-116.25 L 1568.98,-116.155
 L 1569.38,-115.884 L 1569.65,-115.478 L 1569.75,-115 L 1569.65,-114.522 L 1569.38,-114.116 L 1568.98,-113.845
 L 1568.5,-113.75 L 1568.02,-113.845 L 1567.62,-114.116 L 1567.35,-114.522 z
M 1777.25,-6.5 L 1777.35,-6.97835 L 1777.62,-7.38388 L 1778.02,-7.65485 L 1778.5,-7.75 L 1778.98,-7.65485
 L 1779.38,-7.38388 L 1779.65,-6.97835 L 1779.75,-6.5 L 1779.65,-6.02165 L 1779.38,-5.61612 L 1778.98,-5.34515
 L 1778.5,-5.25 L 1778.02,-5.34515 L 1777.62,-5.61612 L 1777.35,-6.02165 z
M 1777.25,-35 L 1777.35,-35.4784 L 1777.62,-35.8839 L 1778.02,-36.1548 L 1778.5,-36.25 L 1778.98,-36.1548
 L 1779.38,-35.8839 L 1779.65,-35.4784 L 1779.75,-35 L 1779.65,-34.5216 L 1779.38,-34.1161 L 1778.98,-33.8451
 L 1778.5,-33.75 L 1778.02,-33.8451 L 1777.62,-34.1161 L 1777.35,-34.5216 z
M 1777.25,-51 L 1777.35,-51.4784 L 1777.62,-51.8839 L 1778.02,-52.1548 L 1778.5,-52.25 L 1778.98,-52.1548
 L 1779.38,-51.8839 L 1779.65,-51.4784 L 1779.75,-51 L 1779.65,-50.5216 L 1779.38,-50.1161 L 1778.98,-49.8451
 L 1778.5,-49.75 L 1778.02,-49.8451 L 1777.62,-50.1161 L 1777.35,-50.5216 z
M 1777.25,-76 L 1777.35,-76.4784 L 1777.62,-76.8839 L 1778.02,-77.1548 L 1778.5,-77.25 L 1778.98,-77.1548
 L 1779.38,-76.8839 L 1779.65,-76.4784 L 1779.75,-76 L 1779.65,-75.5216 L 1779.38,-75.1161 L 1778.98,-74.8451
 L 1778.5,-74.75 L 1778.02,-74.8451 L 1777.62,-75.1161 L 1777.35,-75.5216 z
M 1777.25,-99 L 1777.35,-99.4784 L 1777.62,-99.8839 L 1778.02,-100.155 L 1778.5,-100.25 L 1778.98,-100.155
 L 1779.38,-99.8839 L 1779.65,-99.4784 L 1779.75,-99 L 1779.65,-98.5216 L 1779.38,-98.1161 L 1778.98,-97.8451
 L 1778.5,-97.75 L 1778.02,-97.8451 L 1777.62,-98.1161 L 1777.35,-98.5216 z
M 1777.25,-115 L 1777.35,-115.478 L 1777.62,-115.884 L 1778.02,-116.155 L 1778.5,-116.25 L 1778.98,-116.155
 L 1779.38,-115.884 L 1779.65,-115.478 L 1779.75,-115 L 1779.65,-114.522 L 1779.38,-114.116 L 1778.98,-113.845
 L 1778.5,-113.75 L 1778.02,-113.845 L 1777.62,-114.116 L 1777.35,-114.522 z
M 1987.25,-6.5 L 1987.35,-6.97835 L 1987.62,-7.38388 L 1988.02,-7.65485 L 1988.5,-7.75 L 1988.98,-7.65485
 L 1989.38,-7.38388 L 1989.65,-6.97835 L 1989.75,-6.5 L 1989.65,-6.02165 L 1989.38,-5.61612 L 1988.98,-5.34515
 L 1988.5,-5.25 L 1988.02,-5.34515 L 1987.62,-5.61612 L 1987.35,-6.02165 z
M 1987.25,-35 L 1987.35,-35.4784 L 1987.62,-35.8839 L 1988.02,-36.1548 L 1988.5,-36.25 L 1988.98,-36.1548
 L 1989.38,-35.8839 L 1989.65,-35.4784 L 1989.75,-35 L 1989.65,-34.5216 L 1989.38,-34.1161 L 1988.98,-33.8451
 L 1988.5,-33.75 L 1988.02,-33.8451 L 1987.62,-34.1161 L 1987.35,-34.5216 z
M 1987.25,-51 L 1987.35,-51.4784 L 1987.62,-51.8839 L 1988.02,-52.1548 L 1988.5,-52.25 L 1988.98,-52.1548
 L 1989.38,-51.8839 L 1989.65,-51.4784 L 1989.75,-51 L 1989.65,-50.5216 L 1989.38,-50.1161 L 1988.98,-49.8451
 L 1988.5,-49.75 L 1988.02,-49.8451 L 1987.62,-50.1161 L 1987.35,-50.5216 z
M 1987.25,-76 L 1987.35,-76.4784 L 1987.62,-76.8839 L 1988.02,-77.1548 L 1988.5,-77.25 L 1988.98,-77.1548
 L 1989.38,-76.8839 L 1989.65,-76.4784 L 1989.75,-76 L 1989.65,-75.5216 L 1989.38,-75.1161 L 1988.98,-74.8451
 L 1988.5,-74.75 L 1988.02,-74.8451 L 1987.62,-75.1161 L 1987.35,-75.5216 z
M 1987.25,-99 L 1987.35,-99.4784 L 1987.62,-99.8839 L 1988.02,-100.155 L 1988.5,-100.25 L 1988.98,-100.155
 L 1989.38,-99.8839 L 1989.65,-99.4784 L 1989.75,-99 L 1989.65,-98.5216 L 1989.38,-98.1161 L 1988.98,-97.8451
 L 1988.5,-97.75 L 1988.02,-97.8451 L 1987.62,-98.1161 L 1987.35,-98.5216 z
M 1987.25,-115 L 1987.35,-115.478 L 1987.62,-115.884 L 1988.02,-116.155 L 1988.5,-116.25 L 1988.98,-116.155
 L 1989.38,-115.884 L 1989.65,-115.478 L 1989.75,-115 L 1989.65,-114.522 L 1989.38,-114.116 L 1988.98,-113.845
 L 1988.5,-113.75 L 1988.02,-113.845 L 1987.62,-114.116 L 1987.35,-114.522 z
M 2197.25,-6.5 L 2197.35,-6.97835 L 2197.62,-7.38388 L 2198.02,-7.65485 L 2198.5,-7.75 L 2198.98,-7.65485
 L 2199.38,-7.38388 L 2199.65,-6.97835 L 2199.75,-6.5 L 2199.65,-6.02165 L 2199.38,-5.61612 L 2198.98,-5.34515
 L 2198.5,-5.25 L 2198.02,-5.34515 L 2197.62,-5.61612 L 2197.35,-6.02165 z
M 2197.25,-35 L 2197.35,-35.4784 L 2197.62,-35.8839 L 2198.02,-36.1548 L 2198.5,-36.25 L 2198.98,-36.1548
 L 2199.38,-35.8839 L 2199.65,-35.4784 L 2199.75,-35 L 2199.65,-34.5216 L 2199.38,-34.1161 L 2198.98,-33.8451
 L 2198.5,-33.75 L 2198.02,-33.8451 L 2197.62,-34.1161 L 2197.35,-34.5216 z
M 2197.25,-51 L 2197.35,-51.4784 L 2197.62,-51.8839 L 2198.02,-52.1548 L 2198.5,-52.25 L 2198.98,-52.1548
 L 2199.38,-51.8839 L 2199.65,-51.4784 L 2199.75,-51 L 2199.65,-50.5216 L 2199.38,-50.1161 L 2198.98,-49.8451
 L 2198.5,-49.75 L 2198.02,-49.8451 L 2197.62,-50.1161 L 2197.35,-50.5216 z
M 2197.25,-76 L 2197.35,-76.4784 L 2197.62,-76.8839 L 2198.02,-77.1548 L 2198.5,-77.25 L 2198.98,-77.1548
 L 2199.38,-76.8839 L 2199.65,-76.4784 L 2199.75,-76 L 2199.65,-75.5216 L 2199.38,-75.1161 L 2198.98,-74.8451
 L 2198.5,-74.75 L 2198.02,-74.8451 L 2197.62,-75.1161 L 2197.35,-75.5216 z
M 2197.25,-99 L 2197.35,-99.4784 L 2197.62,-99.8839 L 2198.02,-100.155 L 2198.5,-100.25 L 2198.98,-100.155
 L 2199.38,-99.8839 L 2199.65,-99.4784 L 2199.75,-99 L 2199.65,-98.5216 L 2199.38,-98.1161 L 2198.98,-97.8451
 L 2198.5,-97.75 L 2198.02,-97.8451 L 2197.62,-98.1161 L 2197.35,-98.5216 z
M 2197.25,-115 L 2197.35,-115.478 L 2197.62,-115.884 L 2198.02,-116.155 L 2198.5,-116.25 L 2198.98,-116.155
 L 2199.38,-115.884 L 2199.65,-115.478 L 2199.75,-115 L 2199.65,-114.522 L 2199.38,-114.116 L 2198.98,-113.845
 L 2198.5,-113.75 L 2198.02,-113.845 L 2197.62,-114.116 L 2197.35,-114.522 z
M 2288.5,-50 L 2288.65,-50.7654 L 2289.09,-51.4142 L 2289.73,-51.8478 L 2290.5,-52 L 2291.27,-51.8478
 L 2291.91,-51.4142 L 2292.35,-50.7654 L 2292.5,-50 L 2292.35,-49.2346 L 2291.91,-48.5858 L 2291.27,-48.1522
 L 2290.5,-48 L 2289.73,-48.1522 L 2289.09,-48.5858 L 2288.65,-49.2346 z
M 2288.5,-180 L 2288.65,-180.765 L 2289.09,-181.414 L 2289.73,-181.848 L 2290.5,-182 L 2291.27,-181.848
 L 2291.91,-181.414 L 2292.35,-180.765 L 2292.5,-180 L 2292.35,-179.235 L 2291.91,-178.586 L 2291.27,-178.152
 L 2290.5,-178 L 2289.73,-178.152 L 2289.09,-178.586 L 2288.65,-179.235 z
" stroke="black" fill="lightgray" stroke-width="0.5"/>
</svg>
