<?xml version="1.0" standalone="no"?>
<!DOCTYPE svg PUBLIC "-//W3C//DTD SVG 1.1//EN" "http://www.w3.org/Graphics/SVG/1.1/DTD/svg11.dtd">
<svg width="597mm" height="216mm" viewBox="0 -216 597 216" xmlns="http://www.w3.org/2000/svg" version="1.1">
<title>OpenSCAD Model</title>
<path d="
M 0,-0 L 597,-0 L 597,-216 L 0,-216 z
M 39.5,-50 L 39.7284,-51.148 L 40.3787,-52.1213 L 41.3519,-52.7716 L 42.5,-53 L 43.648,-52.7716
 L 44.6213,-52.1213 L 45.2716,-51.148 L 45.5,-50 L 45.2716,-48.8519 L 44.6213,-47.8787 L 43.648,-47.2284
 L 42.5,-47 L 41.3519,-47.2284 L 40.3787,-47.8787 L 39.7284,-48.8519 z
M 39.5,-166 L 39.7284,-167.148 L 40.3787,-168.121 L 41.3519,-168.772 L 42.5,-169 L 43.648,-168.772
 L 44.6213,-168.121 L 45.2716,-167.148 L 45.5,-166 L 45.2716,-164.852 L 44.6213,-163.879 L 43.648,-163.228
 L 42.5,-163 L 41.3519,-163.228 L 40.3787,-163.879 L 39.7284,-164.852 z
M 89.5,-6 L 89.7284,-7.14805 L 90.3787,-8.12132 L 91.3519,-8.77164 L 92.5,-9 L 93.648,-8.77164
 L 94.6213,-8.12132 L 95.2716,-7.14805 L 95.5,-6 L 95.2716,-4.85195 L 94.6213,-3.87868 L 93.648,-3.22836
 L 92.5,-3 L 91.3519,-3.22836 L 90.3787,-3.87868 L 89.7284,-4.85195 z
M 216.5,-103 L 216.652,-103.765 L 217.086,-104.414 L 217.735,-104.848 L 218.5,-105 L 219.265,-104.848
 L 219.914,-104.414 L 220.348,-103.765 L 220.5,-103 L 220.348,-102.235 L 219.914,-101.586 L 219.265,-101.152
 L 218.5,-101 L 217.735,-101.152 L 217.086,-101.586 L 216.652,-102.235 z
M 226.833,-6 L 227.062,-7.14805 L 227.712,-8.12132 L 228.685,-8.77164 L 229.833,-9 L 230.981,-8.77164
 L 231.955,-8.12132 L 232.605,-7.14805 L 232.833,-6 L 232.605,-4.85195 L 231.955,-3.87868 L 230.981,-3.22836
 L 229.833,-3 L 228.685,-3.22836 L 227.712,-3.87868 L 227.062,-4.85195 z
M 364.167,-6 L 364.395,-7.14805 L 365.045,-8.12132 L 366.019,-8.77164 L 367.167,-9 L 368.315,-8.77164
 L 369.288,-8.12132 L 369.938,-7.14805 L 370.167,-6 L 369.938,-4.85195 L 369.288,-3.87868 L 368.315,-3.22836
 L 367.167,-3 L 366.019,-3.22836 L 365.045,-3.87868 L 364.395,-4.85195 z
M 376.5,-103 L 376.652,-103.765 L 377.086,-104.414 L 377.735,-104.848 L 378.5,-105 L 379.265,-104.848
 L 379.914,-104.414 L 380.348,-103.765 L 380.5,-103 L 380.348,-102.235 L 379.914,-101.586 L 379.265,-101.152
 L 378.5,-101 L 377.735,-101.152 L 377.086,-101.586 L 376.652,-102.235 z
M 501.5,-6 L 501.728,-7.14805 L 502.379,-8.12132 L 503.352,-8.77164 L 504.5,-9 L 505.648,-8.77164
 L 506.621,-8.12132 L 507.272,-7.14805 L 507.5,-6 L 507.272,-4.85195 L 506.621,-3.87868 L 505.648,-3.22836
 L 504.5,-3 L 503.352,-3.22836 L 502.379,-3.87868 L 501.728,-4.85195 z
M 551.5,-50 L 551.728,-51.148 L 552.379,-52.1213 L 553.352,-52.7716 L 554.5,-53 L 555.648,-52.7716
 L 556.621,-52.1213 L 557.272,-51.148 L 557.5,-50 L 557.272,-48.8519 L 556.621,-47.8787 L 555.648,-47.2284
 L 554.5,-47 L 553.352,-47.2284 L 552.379,-47.8787 L 551.728,-48.8519 z
M 551.5,-166 L 551.728,-167.148 L 552.379,-168.121 L 553.352,-168.772 L 554.5,-169 L 555.648,-168.772
 L 556.621,-168.121 L 557.272,-167.148 L 557.5,-166 L 557.272,-164.852 L 556.621,-163.879 L 555.648,-163.228
 L 554.5,-163 L 553.352,-163.228 L 552.379,-163.879 L 551.728,-164.852 z
" stroke="black" fill="lightgray" stroke-width="0.5"/>
</svg>
