<?xml version="1.0" standalone="no"?>
<!DOCTYPE svg PUBLIC "-//W3C//DTD SVG 1.1//EN" "http://www.w3.org/Graphics/SVG/1.1/DTD/svg11.dtd">
<svg width="200mm" height="225mm" viewBox="0 -225 200 225" xmlns="http://www.w3.org/2000/svg" version="1.1">
<title>OpenSCAD Model</title>
<path d="
M 0,-0 L 200,-0 L 200,-225 L 0,-225 z
M 48,-219 L 48.1522,-219.765 L 48.5858,-220.414 L 49.2346,-220.848 L 50,-221 L 50.7654,-220.848
 L 51.4142,-220.414 L 51.8478,-219.765 L 52,-219 L 51.8478,-218.235 L 51.4142,-217.586 L 50.7654,-217.152
 L 50,-217 L 49.2346,-217.152 L 48.5858,-217.586 L 48.1522,-218.235 z
M 126.25,-35 L 126.345,-35.4784 L 126.616,-35.8839 L 127.022,-36.1548 L 127.5,-36.25 L 127.978,-36.1548
 L 128.384,-35.8839 L 128.655,-35.4784 L 128.75,-35 L 128.655,-34.5216 L 128.384,-34.1161 L 127.978,-33.8451
 L 127.5,-33.75 L 127.022,-33.8451 L 126.616,-34.1161 L 126.345,-34.5216 z
M 126.25,-163 L 126.345,-163.478 L 126.616,-163.884 L 127.022,-164.155 L 127.5,-164.25 L 127.978,-164.155
 L 128.384,-163.884 L 128.655,-163.478 L 128.75,-163 L 128.655,-162.522 L 128.384,-162.116 L 127.978,-161.845
 L 127.5,-161.75 L 127.022,-161.845 L 126.616,-162.116 L 126.345,-162.522 z
M 148,-219 L 148.152,-219.765 L 148.586,-220.414 L 149.235,-220.848 L 150,-221 L 150.765,-220.848
 L 151.414,-220.414 L 151.848,-219.765 L 152,-219 L 151.848,-218.235 L 151.414,-217.586 L 150.765,-217.152
 L 150,-217 L 149.235,-217.152 L 148.586,-217.586 L 148.152,-218.235 z
M 192,-50 L 192.152,-50.7654 L 192.586,-51.4142 L 193.235,-51.8478 L 194,-52 L 194.765,-51.8478
 L 195.414,-51.4142 L 195.848,-50.7654 L 196,-50 L 195.848,-49.2346 L 195.414,-48.5858 L 194.765,-48.1522
 L 194,-48 L 193.235,-48.1522 L 192.586,-48.5858 L 192.152,-49.2346 z
M 192,-163 L 192.152,-163.765 L 192.586,-164.414 L 193.235,-164.848 L 194,-165 L 194.765,-164.848
 L 195.414,-164.414 L 195.848,-163.765 L 196,-163 L 195.848,-162.235 L 195.414,-161.586 L 194.765,-161.152
 L 194,-161 L 193.235,-161.152 L 192.586,-161.586 L 192.152,-162.235 z
" stroke="black" fill="lightgray" stroke-width="0.5"/>
</svg>
