<?xml version="1.0" standalone="no"?>
<!DOCTYPE svg PUBLIC "-//W3C//DTD SVG 1.1//EN" "http://www.w3.org/Graphics/SVG/1.1/DTD/svg11.dtd">
<svg width="512mm" height="200mm" viewBox="0 -200 512 200" xmlns="http://www.w3.org/2000/svg" version="1.1">
<title>OpenSCAD Model</title>
<path d="
M 0,-0 L 512,-0 L 512,-200 L 0,-200 z
M 48,-194 L 48.1522,-194.765 L 48.5858,-195.414 L 49.2346,-195.848 L 50,-196 L 50.7654,-195.848
 L 51.4142,-195.414 L 51.8478,-194.765 L 52,-194 L 51.8478,-193.235 L 51.4142,-192.586 L 50.7654,-192.152
 L 50,-192 L 49.2346,-192.152 L 48.5858,-192.586 L 48.1522,-193.235 z
M 254,-194 L 254.152,-194.765 L 254.586,-195.414 L 255.235,-195.848 L 256,-196 L 256.765,-195.848
 L 257.414,-195.414 L 257.848,-194.765 L 258,-194 L 257.848,-193.235 L 257.414,-192.586 L 256.765,-192.152
 L 256,-192 L 255.235,-192.152 L 254.586,-192.586 L 254.152,-193.235 z
M 460,-194 L 460.152,-194.765 L 460.586,-195.414 L 461.235,-195.848 L 462,-196 L 462.765,-195.848
 L 463.414,-195.414 L 463.848,-194.765 L 464,-194 L 463.848,-193.235 L 463.414,-192.586 L 462.765,-192.152
 L 462,-192 L 461.235,-192.152 L 460.586,-192.586 L 460.152,-193.235 z
" stroke="black" fill="lightgray" stroke-width="0.5"/>
</svg>
