<?xml version="1.0" standalone="no"?>
<!DOCTYPE svg PUBLIC "-//W3C//DTD SVG 1.1//EN" "http://www.w3.org/Graphics/SVG/1.1/DTD/svg11.dtd">
<svg width="30mm" height="230mm" viewBox="0 -230 30 230" xmlns="http://www.w3.org/2000/svg" version="1.1">
<title>OpenSCAD Model</title>
<path d="
M 0,-0 L 30,-0 L 30,-230 L 0,-230 z
M 13,-9.5 L 13.1522,-10.2654 L 13.5858,-10.9142 L 14.2346,-11.3478 L 15,-11.5 L 15.7654,-11.3478
 L 16.4142,-10.9142 L 16.8478,-10.2654 L 17,-9.5 L 16.8478,-8.73463 L 16.4142,-8.08579 L 15.7654,-7.65224
 L 15,-7.5 L 14.2346,-7.65224 L 13.5858,-8.08579 L 13.1522,-8.73463 z
M 13,-220.5 L 13.1522,-221.265 L 13.5858,-221.914 L 14.2346,-222.348 L 15,-222.5 L 15.7654,-222.348
 L 16.4142,-221.914 L 16.8478,-221.265 L 17,-220.5 L 16.8478,-219.735 L 16.4142,-219.086 L 15.7654,-218.652
 L 15,-218.5 L 14.2346,-218.652 L 13.5858,-219.086 L 13.1522,-219.735 z
" stroke="black" fill="lightgray" stroke-width="0.5"/>
</svg>
